<?xml version="1.0" encoding="utf-8"?>
<!DOCTYPE svg PUBLIC "-//W3C//DTD SVG 1.1//EN" "http://www.w3.org/Graphics/SVG/1.1/DTD/svg11.dtd">
<svg version="1.1" xmlns="http://www.w3.org/2000/svg" width="960" height="250"><g transform="translate(50,20)"><style>.axis path,.axis line{fill:none;stroke:#000;shape-rendering:crispEdges;}path.candle{stroke:#000000;}path.candle.body{stroke-width:0;}path.candle.up{fill:#00AA00;stroke:#00AA00;}path.candle.down{fill:#FF0000;stroke:#FF0000;}</style><g class="candlestick"><g class="data"><path class="candle body up" d="M 1.0675729708116766 195.65420790860296 l 7.1171531387445 0 L 8.184726109556177 188.73332803012224 l -7.1171531387445 0 L 1.0675729708116766 195.65420790860296 M 9.964014394242305 188.7333753802213 l 7.1171531387445 0 L 17.081167532986804 187.26438590709532 l -7.1171531387445 0 L 9.964014394242305 188.7333753802213 M 18.860455817672932 187.26438590709532 l 7.1171531387445 0 L 25.977608956417434 183.8825471322886 l -7.1171531387445 0 L 18.860455817672932 187.26438590709532 M 45.54978008796481 189.09924959563017 l 7.1171531387445 0 L 52.66693322670931 183.93377993946763 l -7.1171531387445 0 L 45.54978008796481 189.09924959563017 M 63.342662934826066 186.67250966889023 l 7.1171531387445 0 L 70.45981607357056 184.32010939766886 l -7.1171531387445 0 L 63.342662934826066 186.67250966889023 M 72.23910435825668 184.32110374974903 l 7.1171531387445 0 L 79.35625749700118 179.6643162077495 l -7.1171531387445 0 L 72.23910435825668 184.32110374974903 M 81.13554578168731 179.6643162077495 l 7.1171531387445 0 L 88.25269892043181 171.23164236659585 l -7.1171531387445 0 L 81.13554578168731 179.6643162077495 M 98.92842862854857 172.23475421510582 l 7.1171531387445 0 L 106.04558176729307 168.45683186169225 l -7.1171531387445 0 L 98.92842862854857 172.23475421510582 M 107.82487005197919 168.4567845115932 l 7.1171531387445 0 L 114.94202319072369 167.0098601846275 l -7.1171531387445 0 L 107.82487005197919 168.4567845115932 M 116.72131147540982 167.0098601846275 l 7.1171531387445 0 L 123.83846461415432 159.95213851987378 l -7.1171531387445 0 L 116.72131147540982 167.0098601846275 M 125.61775289884046 159.95209116977475 l 7.1171531387445 0 L 132.73490603758498 159.7244318935115 l -7.1171531387445 0 L 125.61775289884046 159.95209116977475 M 134.51419432227107 159.7244318935115 l 7.1171531387445 0 L 141.63134746101557 157.7922637514158 l -7.1171531387445 0 L 134.51419432227107 159.7244318935115 M 143.4106357457017 157.7922164013167 l 7.1171531387445 0 L 150.5277888844462 144.31339515362265 l -7.1171531387445 0 L 143.4106357457017 157.7922164013167 M 152.30707716913233 144.32229697224528 l 7.1171531387445 0 L 159.42423030787683 140.42254281395955 l -7.1171531387445 0 L 152.30707716913233 144.32229697224528 M 170.09996001599356 145.2063233216284 l 7.1171531387445 0 L 177.21711315473806 135.92674560875182 l -7.1171531387445 0 L 170.09996001599356 145.2063233216284 M 178.9964014394242 135.92674560875182 l 7.1171531387445 0 L 186.1135545781687 122.57482262652893 l -7.1171531387445 0 L 178.9964014394242 135.92674560875182 M 187.89284286285485 122.57482262652893 l 7.1171531387445 0 L 195.00999600159935 109.96587004860015 l -7.1171531387445 0 L 187.89284286285485 122.57482262652893 M 196.78928428628546 109.964923046619 l 7.1171531387445 0 L 203.90643742502996 104.51809910186334 l -7.1171531387445 0 L 196.78928428628546 109.964923046619 M 241.2714914034386 135.45504392195187 l 7.1171531387445 0 L 248.3886445421831 119.72425196313512 l -7.1171531387445 0 L 241.2714914034386 135.45504392195187 M 250.16793282686922 119.72425196313512 l 7.1171531387445 0 L 257.28508596561375 111.32851119924543 l -7.1171531387445 0 L 250.16793282686922 119.72425196313512 M 285.7536985205918 127.04642393111888 l 7.1171531387445 0 L 292.8708516593363 123.22868014439888 l -7.1171531387445 0 L 285.7536985205918 127.04642393111888 M 321.3394642143143 150.59362819187018 l 7.1171531387445 0 L 328.45661735305885 140.68240015758113 l -7.1171531387445 0 L 321.3394642143143 150.59362819187018 M 339.13234706117555 144.7884586974556 l 7.1171531387445 0 L 346.2495001999201 143.92716039561955 l -7.1171531387445 0 L 339.13234706117555 144.7884586974556 M 356.9252299080368 143.95419730218077 l 7.1171531387445 0 L 364.0423830467813 142.94289388653402 l -7.1171531387445 0 L 356.9252299080368 143.95419730218077 M 374.7181127548981 152.91283604365302 l 7.1171531387445 0 L 381.8352658936426 138.69516385028277 l -7.1171531387445 0 L 374.7181127548981 152.91283604365302 M 383.61455417832866 138.67944361739603 l 7.1171531387445 0 L 390.7317073170732 134.49360016061155 l -7.1171531387445 0 L 383.61455417832866 138.67944361739603 M 392.5109956017593 134.52163141925294 l 7.1171531387445 0 L 399.62814874050383 134.4430302548193 l -7.1171531387445 0 L 392.5109956017593 134.52163141925294 M 410.3038784486206 139.98256569352742 l 7.1171531387445 0 L 417.4210315873651 137.93041240042274 l -7.1171531387445 0 L 410.3038784486206 139.98256569352742 M 419.20031987205124 137.9743532923471 l 7.1171531387445 0 L 426.31747301079577 128.74510873476748 l -7.1171531387445 0 L 419.20031987205124 137.9743532923471 M 428.0967612954818 128.71447322067797 l 7.1171531387445 0 L 435.21391443422635 118.55238436158807 l -7.1171531387445 0 L 428.0967612954818 128.71447322067797 M 445.8896441423431 121.7827028194143 l 7.1171531387445 0 L 453.00679728108764 115.37344076123807 l -7.1171531387445 0 L 445.8896441423431 121.7827028194143 M 454.7860855657737 115.37779697035127 l 7.1171531387445 0 L 461.90323870451823 111.12755737885003 l -7.1171531387445 0 L 454.7860855657737 115.37779697035127 M 472.57896841263494 112.98013000443196 l 7.1171531387445 0 L 479.69612155137946 77.0926376277979 l -7.1171531387445 0 L 472.57896841263494 112.98013000443196 M 481.47540983606564 77.09268497789697 l 7.1171531387445 0 L 488.59256297481016 76.87695792659599 l -7.1171531387445 0 L 481.47540983606564 77.09268497789697 M 499.2682926829268 84.51377130280954 l 7.1171531387445 0 L 506.38544582167134 69.54200143186696 l -7.1171531387445 0 L 499.2682926829268 84.51377130280954 M 525.9576169532187 73.39028603247839 l 7.1171531387445 0 L 533.0747700919632 66.66178960646386 l -7.1171531387445 0 L 525.9576169532187 73.39028603247839 M 543.75049980008 69.81857336045547 l 7.1171531387445 0 L 550.8676529388244 64.03073400229556 l -7.1171531387445 0 L 543.75049980008 69.81857336045547 M 552.6469412235106 64.03073400229556 l 7.1171531387445 0 L 559.764094362255 49.89076332147687 l -7.1171531387445 0 L 552.6469412235106 64.03073400229556 M 570.4398240703717 52.57598743896571 l 7.1171531387445 0 L 577.5569772091162 31.96264266584845 l -7.1171531387445 0 L 570.4398240703717 52.57598743896571 M 588.232706917233 32.269518657833004 l 7.1171531387445 0 L 595.3498600559775 24.847958831929873 l -7.1171531387445 0 L 588.232706917233 32.269518657833004 M 614.9220311875249 65.17873715391812 l 7.1171531387445 0 L 622.0391843262694 61.46080737600906 l -7.1171531387445 0 L 614.9220311875249 65.17873715391812 M 659.4042383046781 82.9676485183207 l 7.1171531387445 0 L 666.5213914434225 61.88302820929502 l -7.1171531387445 0 L 659.4042383046781 82.9676485183207 M 677.1971211515394 67.3302783049422 l 7.1171531387445 0 L 684.3142742902838 58.273340757828834 l -7.1171531387445 0 L 677.1971211515394 67.3302783049422 M 694.9900039984005 67.62631112424287 l 7.1171531387445 0 L 702.107157137145 65.83827668367485 l -7.1171531387445 0 L 694.9900039984005 67.62631112424287 M 703.8864454218311 65.86147823221248 l 7.1171531387445 0 L 711.0035985605756 65.22040524108778 l -7.1171531387445 0 L 703.8864454218311 65.86147823221248 M 712.7828868452618 65.22040524108778 l 7.1171531387445 0 L 719.9000399840063 55.32636529275618 l -7.1171531387445 0 L 712.7828868452618 65.22040524108778 M 721.6793282686924 55.38621581796349 l 7.1171531387445 0 L 728.7964814074369 48.68115769098188 l -7.1171531387445 0 L 721.6793282686924 55.38621581796349 M 730.5757696921231 48.68111034088284 l 7.1171531387445 0 L 737.6929228308676 36.799455284460436 l -7.1171531387445 0 L 730.5757696921231 48.68111034088284 M 739.4722111155537 36.84600043183289 l 7.1171531387445 0 L 746.5893642542982 32.22027455481438 l -7.1171531387445 0 L 739.4722111155537 36.84600043183289 M 748.3686525389844 32.22027455481438 l 7.1171531387445 0 L 755.4858056777289 23.121621570432296 l -7.1171531387445 0 L 748.3686525389844 32.22027455481438 M 766.1615353858456 25.732695432798835 l 7.1171531387445 0 L 773.27868852459 6.9504736903909645 l -7.1171531387445 0 L 766.1615353858456 25.732695432798835 M 792.8508596561375 33.38693364546518 l 7.1171531387445 0 L 799.9680127948819 27.252491562212356 l -7.1171531387445 0 L 792.8508596561375 33.38693364546518 M 801.747301079568 27.252538912311422 l 7.1171531387445 0 L 808.8644542183125 17.724609929883968 l -7.1171531387445 0 L 801.747301079568 27.252538912311422 M 819.5401839264293 23.747400479561804 l 7.1171531387445 0 L 826.6573370651738 21.905434276168478 l -7.1171531387445 0 L 819.5401839264293 23.747400479561804 M 828.43662534986 21.905434276168478 l 7.1171531387445 0 L 835.5537784886045 21.56323511028785 l -7.1171531387445 0 L 828.43662534986 21.905434276168478 M 855.1259496201519 40.593381971355086 l 7.1171531387445 0 L 862.2431027588964 39.37345401926581 l -7.1171531387445 0 L 855.1259496201519 40.593381971355086 M 881.8152738904437 53.801550052842714 l 7.1171531387445 0 L 888.9324270291881 39.30754268137932 l -7.1171531387445 0 L 881.8152738904437 53.801550052842714"></path><path class="candle body down" d="M 27.75689724110356 183.88259448238767 l 7.1171531387445 0 L 34.87405037984806 185.61598690864463 l -7.1171531387445 0 L 27.75689724110356 183.88259448238767 M 36.65333866453418 185.6158922084465 l 7.1171531387445 0 L 43.77049180327868 189.10005454731413 l -7.1171531387445 0 L 36.65333866453418 185.6158922084465 M 54.446221511395436 183.93377993946763 l 7.1171531387445 0 L 61.563374650139934 186.67075771522516 l -7.1171531387445 0 L 54.446221511395436 183.93377993946763 M 90.03198720511796 171.23159501649678 l 7.1171531387445 0 L 97.14914034386246 172.23418601391714 l -7.1171531387445 0 L 90.03198720511796 171.23159501649678 M 161.20351859256294 140.42254281395955 l 7.1171531387445 0 L 168.32067173130744 145.21124773193026 l -7.1171531387445 0 L 161.20351859256294 140.42254281395955 M 205.68572570971608 104.49844881075492 l 7.1171531387445 0 L 212.80287884846058 106.85998765109416 l -7.1171531387445 0 L 205.68572570971608 104.49844881075492 M 214.5821671331467 106.85998765109416 l 7.1171531387445 0 L 221.6993202718912 116.03738385020704 l -7.1171531387445 0 L 214.5821671331467 106.85998765109416 M 223.47860855657734 116.03738385020704 l 7.1171531387445 0 L 230.59576169532184 129.03759029663888 l -7.1171531387445 0 L 223.47860855657734 116.03738385020704 M 232.37504998000796 129.0096537381956 l 7.1171531387445 0 L 239.49220311875246 135.44514775124912 l -7.1171531387445 0 L 232.37504998000796 129.0096537381956 M 259.06437425029986 111.32514934221243 l 7.1171531387445 0 L 266.1815273890444 122.70333079536802 l -7.1171531387445 0 L 259.06437425029986 111.32514934221243 M 267.9608156737305 122.72601149281604 l 7.1171531387445 0 L 275.07796881247504 126.24151959725899 l -7.1171531387445 0 L 267.9608156737305 122.72601149281604 M 276.85725709716115 126.24151959725899 l 7.1171531387445 0 L 283.9744102359057 127.02928319526045 l -7.1171531387445 0 L 276.85725709716115 126.24151959725899 M 294.65013994402244 123.27039558166756 l 7.1171531387445 0 L 301.76729308276697 126.73154577239377 l -7.1171531387445 0 L 294.65013994402244 123.27039558166756 M 303.54658136745303 126.6820649188798 l 7.1171531387445 0 L 310.66373450619756 128.73568606505523 l -7.1171531387445 0 L 303.54658136745303 126.6820649188798 M 312.4430227908837 128.73568606505523 l 7.1171531387445 0 L 319.5601759296282 150.60243531029465 l -7.1171531387445 0 L 312.4430227908837 128.73568606505523 M 330.23590563774496 140.65953005973688 l 7.1171531387445 0 L 337.3530587764895 144.7884586974556 l -7.1171531387445 0 L 330.23590563774496 140.65953005973688 M 348.02878848460614 143.9292911500771 l 7.1171531387445 0 L 355.14594162335067 143.9541499520817 l -7.1171531387445 0 L 348.02878848460614 143.9292911500771 M 365.8216713314674 142.96069752377923 l 7.1171531387445 0 L 372.93882447021196 152.89408540442668 l -7.1171531387445 0 L 365.8216713314674 142.96069752377923 M 401.40743702518995 134.44298290472022 l 7.1171531387445 0 L 408.5245901639345 139.98251834342835 l -7.1171531387445 0 L 401.40743702518995 134.44298290472022 M 436.99320271891247 118.54580269781924 l 7.1171531387445 0 L 444.110355857657 121.78265546931523 l -7.1171531387445 0 L 436.99320271891247 118.54580269781924 M 463.68252698920435 111.15563598759047 l 7.1171531387445 0 L 470.7996801279489 112.98013000443196 l -7.1171531387445 0 L 463.68252698920435 111.15563598759047 M 490.3718512594962 76.87695792659599 l 7.1171531387445 0 L 497.48900439824075 84.51377130280954 l -7.1171531387445 0 L 490.3718512594962 76.87695792659599 M 508.16473410635746 69.54602619028677 l 7.1171531387445 0 L 515.281887245102 72.77085203662246 l -7.1171531387445 0 L 508.16473410635746 69.54602619028677 M 517.0611755297881 72.72089768211794 l 7.1171531387445 0 L 524.1783286685326 73.40491721308679 l -7.1171531387445 0 L 517.0611755297881 72.72089768211794 M 534.8540583766493 66.64909977991672 l 7.1171531387445 0 L 541.9712115153937 69.81857336045547 l -7.1171531387445 0 L 534.8540583766493 66.64909977991672 M 561.5433826469413 49.900422741684395 l 7.1171531387445 0 L 568.6605357856857 52.57603478906478 l -7.1171531387445 0 L 561.5433826469413 49.900422741684395 M 579.3362654938024 31.96264266584845 l 7.1171531387445 0 L 586.4534186325469 32.269518657833004 l -7.1171531387445 0 L 579.3362654938024 31.96264266584845 M 597.1291483406637 24.83006049448656 l 7.1171531387445 0 L 604.2463014794082 40.57245322757214 l -7.1171531387445 0 L 597.1291483406637 24.83006049448656 M 606.0255897640943 40.57245322757214 l 7.1171531387445 0 L 613.1427429028388 65.17873715391812 l -7.1171531387445 0 L 606.0255897640943 40.57245322757214 M 623.8184726109555 61.46076002590996 l 7.1171531387445 0 L 630.9356257497 73.78352860514184 l -7.1171531387445 0 L 623.8184726109555 61.46076002590996 M 632.7149140343862 73.78352860514184 l 7.1171531387445 0 L 639.8320671731307 77.5566685985507 l -7.1171531387445 0 L 632.7149140343862 73.78352860514184 M 641.6113554578168 77.55662124845166 l 7.1171531387445 0 L 648.7285085965613 78.36370368686812 l -7.1171531387445 0 L 641.6113554578168 77.55662124845166 M 650.5077968812475 78.3767723142077 l 7.1171531387445 0 L 657.624950019992 82.96030925296694 l -7.1171531387445 0 L 650.5077968812475 78.3767723142077 M 668.3006797281087 61.841691572818746 l 7.1171531387445 0 L 675.4178328668531 67.31114886492341 l -7.1171531387445 0 L 668.3006797281087 61.841691572818746 M 686.09356257497 58.273340757828834 l 7.1171531387445 0 L 693.2107157137144 67.62631112424287 l -7.1171531387445 0 L 686.09356257497 58.273340757828834 M 757.265093962415 23.12166892053139 l 7.1171531387445 0 L 764.3822471011595 25.732695432798835 l -7.1171531387445 0 L 757.265093962415 23.12166892053139 M 775.0579768092763 6.950521040490031 l 7.1171531387445 0 L 782.1751299480208 17.462574481705815 l -7.1171531387445 0 L 775.0579768092763 6.950521040490031 M 783.9544182327068 17.425783454738962 l 7.1171531387445 0 L 791.0715713714512 33.38693364546518 l -7.1171531387445 0 L 783.9544182327068 17.425783454738962 M 810.6437425029987 17.724609929883968 l 7.1171531387445 0 L 817.7608956417432 23.713497808637385 l -7.1171531387445 0 L 810.6437425029987 17.724609929883968 M 837.3330667732906 21.573936232674612 l 7.1171531387445 0 L 844.4502199120351 25.11790174665046 l -7.1171531387445 0 L 837.3330667732906 21.573936232674612 M 846.2295081967213 25.11790174665046 l 7.1171531387445 0 L 853.3466613354658 40.593381971355086 l -7.1171531387445 0 L 846.2295081967213 25.11790174665046 M 864.0223910435824 39.36441015034603 l 7.1171531387445 0 L 871.1395441823269 49.01980559943331 l -7.1171531387445 0 L 864.0223910435824 39.36441015034603 M 872.9188324670131 49.019758249334245 l 7.1171531387445 0 L 880.0359856057576 53.801550052842714 l -7.1171531387445 0 L 872.9188324670131 49.019758249334245"></path><path class="candle body equal"></path><path class="candle wick up" d="M 4.626149540183927 183.9848706963495 L 4.626149540183927 188.73332803012224 M 4.626149540183927 195.65420790860296 L 4.626149540183927 196.15384615384616 M 13.522590963614554 186.42254849597145 L 13.522590963614554 187.26438590709532 M 13.522590963614554 188.7333753802213 L 13.522590963614554 190.85063505952854 M 22.41903238704518 182.22595656670114 L 22.41903238704518 183.8825471322886 M 22.41903238704518 187.26438590709532 L 22.41903238704518 188.95663109727226 M 49.10835665733706 183.80920182885023 L 49.10835665733706 183.93377993946763 M 49.10835665733706 189.09924959563017 L 49.10835665733706 190.83453602584936 M 66.90123950419832 184.0112447015239 L 66.90123950419832 184.32010939766886 M 66.90123950419832 186.67250966889023 L 66.90123950419832 189.177187858677 M 75.79768092762893 179.29787379115197 L 75.79768092762893 179.6643162077495 M 75.79768092762893 184.32110374974903 L 75.79768092762893 185.71977832577628 M 84.69412235105956 169.46245326545224 L 84.69412235105956 171.23164236659585 M 84.69412235105956 179.6643162077495 L 84.69412235105956 180.670363762401 M 102.48700519792082 166.4653340454788 L 102.48700519792082 168.45683186169225 M 102.48700519792082 172.23475421510582 L 102.48700519792082 173.0896129034702 M 111.38344662135144 166.8914849369865 L 111.38344662135144 167.0098601846275 M 111.38344662135144 168.4567845115932 L 111.38344662135144 174.13605009261678 M 120.27988804478207 159.3817592266403 L 120.27988804478207 159.95213851987378 M 120.27988804478207 167.0098601846275 L 120.27988804478207 167.31763582849416 M 129.1763294682127 157.94231621532552 L 129.1763294682127 159.7244318935115 M 129.1763294682127 159.95209116977475 L 129.1763294682127 164.8080805785046 M 138.07277089164333 156.5218132436333 L 138.07277089164333 157.7922637514158 M 138.07277089164333 159.7244318935115 L 138.07277089164333 161.14048395589242 M 146.96921231507397 139.00227659276263 L 146.96921231507397 144.31339515362265 M 146.96921231507397 157.7922164013167 L 146.96921231507397 159.61600016667236 M 155.8656537385046 132.003411101136 L 155.8656537385046 140.42254281395955 M 155.8656537385046 144.32229697224528 L 155.8656537385046 145.33303218670332 M 173.65853658536582 133.98316609278345 L 173.65853658536582 135.92674560875182 M 173.65853658536582 145.2063233216284 L 173.65853658536582 155.1013102719411 M 182.55497800879647 121.77058119405586 L 182.55497800879647 122.57482262652893 M 182.55497800879647 135.92674560875182 L 182.55497800879647 139.05909671163033 M 191.4514194322271 105.54943160941093 L 191.4514194322271 109.96587004860015 M 191.4514194322271 122.57482262652893 L 191.4514194322271 124.79724687584046 M 200.34786085565773 98.04444090897037 L 200.34786085565773 104.51809910186334 M 200.34786085565773 109.964923046619 L 200.34786085565773 123.85024489471232 M 244.83006797281087 117.45798152209734 L 244.83006797281087 119.72425196313512 M 244.83006797281087 135.45504392195187 L 244.83006797281087 143.3584857059521 M 253.72650939624148 106.80420923440572 L 253.72650939624148 111.32851119924543 M 253.72650939624148 119.72425196313512 L 253.72650939624148 122.89741885140022 M 289.31227508996403 119.25809023792478 L 289.31227508996403 123.22868014439888 M 289.31227508996403 127.04642393111888 L 289.31227508996403 131.89976173430153 M 324.89804078368655 136.50915182714562 L 324.89804078368655 140.68240015758113 M 324.89804078368655 150.59362819187018 L 324.89804078368655 160.07307067286385 M 342.6909236305478 140.08659386115437 L 342.6909236305478 143.92716039561955 M 342.6909236305478 144.7884586974556 L 342.6909236305478 150.36630036630038 M 360.483806477409 140.79267853828352 L 360.483806477409 142.94289388653402 M 360.483806477409 143.95419730218077 L 360.483806477409 150.66285403669065 M 378.2766893242703 136.71062649863063 L 378.2766893242703 138.69516385028277 M 378.2766893242703 152.91283604365302 L 378.2766893242703 155.3754673454777 M 387.1731307477009 114.22917826744093 L 387.1731307477009 134.49360016061155 M 387.1731307477009 138.67944361739603 L 387.1731307477009 145.55837130811278 M 396.06957217113154 131.27000541685135 L 396.06957217113154 134.4430302548193 M 396.06957217113154 134.52163141925294 L 396.06957217113154 141.25140629794197 M 413.86245501799283 132.29148910379524 L 413.86245501799283 137.93041240042274 M 413.86245501799283 139.98256569352742 L 413.86245501799283 143.75546893644102 M 422.7588964414235 126.29194745275406 L 422.7588964414235 128.74510873476748 M 422.7588964414235 137.9743532923471 L 422.7588964414235 138.44354542389704 M 431.65533786485406 118.34518032811727 L 431.65533786485406 118.55238436158807 M 431.65533786485406 128.71447322067797 L 431.65533786485406 129.23688686356735 M 449.44822071171535 115.27930876431392 L 449.44822071171535 115.37344076123807 M 449.44822071171535 121.7827028194143 L 449.44822071171535 123.51879420131748 M 458.34466213514594 102.753360910031 L 458.34466213514594 111.12755737885003 M 458.34466213514594 115.37779697035127 L 458.34466213514594 115.72525199722716 M 476.13754498200717 75.1059221715892 L 476.13754498200717 77.0926376277979 M 476.13754498200717 112.98013000443196 L 476.13754498200717 116.8003359963029 M 485.0339864054379 68.72435992136096 L 485.0339864054379 76.87695792659599 M 485.0339864054379 77.09268497789697 L 485.0339864054379 83.78689993219469 M 502.82686925229905 66.1830327549045 L 502.82686925229905 69.54200143186696 M 502.82686925229905 84.51377130280954 L 502.82686925229905 88.36598596164265 M 529.5161935225909 61.31293301665585 L 529.5161935225909 66.66178960646386 M 529.5161935225909 73.39028603247839 L 529.5161935225909 74.0655457951218 M 547.3090763694522 56.66433704179309 L 547.3090763694522 64.03073400229556 M 547.3090763694522 69.81857336045547 L 547.3090763694522 74.11550014962629 M 556.2055177928828 47.52785132826497 L 556.2055177928828 49.89076332147687 M 556.2055177928828 64.03073400229556 L 556.2055177928828 64.91357659920226 M 573.998400639744 29.775068089442442 L 573.998400639744 31.96264266584845 M 573.998400639744 52.57598743896571 L 573.998400639744 56.56480713357655 M 591.7912834866053 20.377020428726723 L 591.7912834866053 24.847958831929873 M 591.7912834866053 32.269518657833004 L 591.7912834866053 33.99116825952402 M 618.4806077568971 53.41701989840564 L 618.4806077568971 61.46080737600906 M 618.4806077568971 65.17873715391812 L 618.4806077568971 74.18619384751753 M 662.9628148740503 60.92196324874712 L 662.9628148740503 61.88302820929502 M 662.9628148740503 82.9676485183207 L 662.9628148740503 83.83690163679822 M 680.7556977209116 47.427185017671036 L 680.7556977209116 58.273340757828834 M 680.7556977209116 67.3302783049422 L 680.7556977209116 68.92076813224693 M 698.5485805677728 62.536933077263996 L 698.5485805677728 65.83827668367485 M 698.5485805677728 67.62631112424287 L 698.5485805677728 77.44714781943323 M 707.4450219912034 63.71561909307516 L 707.4450219912034 65.22040524108778 M 707.4450219912034 65.86147823221248 L 707.4450219912034 73.80119019208988 M 716.3414634146341 53.06170475508637 L 716.3414634146341 55.32636529275618 M 716.3414634146341 65.22040524108778 L 716.3414634146341 65.22040524108778 M 725.2379048380647 48.55042406748714 L 725.2379048380647 48.68115769098188 M 725.2379048380647 55.38621581796349 L 725.2379048380647 63.36205590342098 M 734.1343462614954 36.74973768045123 L 734.1343462614954 36.799455284460436 M 734.1343462614954 48.68111034088284 L 734.1343462614954 51.45473709331 M 743.0307876849259 24.94682583875965 L 743.0307876849259 32.22027455481438 M 743.0307876849259 36.84600043183289 L 743.0307876849259 45.698906402112186 M 751.9272291083566 21.337280437590664 L 751.9272291083566 23.121621570432296 M 751.9272291083566 32.22027455481438 L 751.9272291083566 39.695766143542784 M 769.7201119552178 3.8461538461538396 L 769.7201119552178 6.9504736903909645 M 769.7201119552178 25.732695432798835 L 769.7201119552178 31.147131909799953 M 796.4094362255097 27.074739290354586 L 796.4094362255097 27.252491562212356 M 796.4094362255097 33.38693364546518 L 796.4094362255097 44.43778386384386 M 805.3058776489403 17.43217571811158 L 805.3058776489403 17.724609929883968 M 805.3058776489403 27.252538912311422 L 805.3058776489403 40.40189817077095 M 823.0987604958016 15.09653738195621 L 823.0987604958016 21.905434276168478 M 823.0987604958016 23.747400479561804 L 823.0987604958016 30.235595152865073 M 831.9952019192323 13.145713300832227 L 831.9952019192323 21.56323511028785 M 831.9952019192323 21.905434276168478 L 831.9952019192323 22.89902875476818 M 858.6845261895241 32.318241909762065 L 858.6845261895241 39.37345401926581 M 858.6845261895241 40.593381971355086 L 858.6845261895241 45.722581451640394 M 885.3738504598159 37.3274088889394 L 885.3738504598159 39.30754268137932 M 885.3738504598159 53.801550052842714 L 885.3738504598159 54.176468137171355" style="stroke-width: 1px;"></path><path class="candle wick down" d="M 31.315473810475808 181.64104079305736 L 31.315473810475808 183.88259448238767 M 31.315473810475808 185.61598690864463 L 31.315473810475808 187.48877802652365 M 40.21191523390643 182.55125174721866 L 40.21191523390643 185.6158922084465 M 40.21191523390643 189.10005454731413 L 40.21191523390643 193.38386535904633 M 58.004798080767685 182.56436772465727 L 58.004798080767685 183.93377993946763 M 58.004798080767685 186.67075771522516 L 58.004798080767685 189.66688258311837 M 93.5905637744902 162.0996549124781 L 93.5905637744902 171.23159501649678 M 93.5905637744902 172.23418601391714 L 93.5905637744902 174.98835187563213 M 164.7620951619352 137.5817736210704 L 164.7620951619352 140.42254281395955 M 164.7620951619352 145.21124773193026 L 164.7620951619352 163.48227780492516 M 209.24430227908834 100.7433965551856 L 209.24430227908834 104.49844881075492 M 209.24430227908834 106.85998765109416 L 209.24430227908834 113.33852290418992 M 218.14074370251896 100.8854468523548 L 218.14074370251896 106.85998765109416 M 218.14074370251896 116.03738385020704 L 218.14074370251896 130.42665280255767 M 227.0371851259496 115.49418351383191 L 227.0371851259496 116.03738385020704 M 227.0371851259496 129.03759029663888 L 227.0371851259496 152.6391051210079 M 235.93362654938022 123.24416362679031 L 235.93362654938022 129.0096537381956 M 235.93362654938022 135.44514775124912 L 235.93362654938022 142.64349921020036 M 262.6229508196721 108.47206912356859 L 262.6229508196721 111.32514934221243 M 262.6229508196721 122.70333079536802 L 262.6229508196721 133.7558856173127 M 271.51939224310274 116.98448053153328 L 271.51939224310274 122.72601149281604 M 271.51939224310274 126.24151959725899 L 271.51939224310274 129.25857320893516 M 280.4158336665334 122.18115390297397 L 280.4158336665334 126.24151959725899 M 280.4158336665334 127.02928319526045 L 280.4158336665334 136.39802114466025 M 298.2087165133947 117.45798152209734 L 298.2087165133947 123.27039558166756 M 298.2087165133947 126.73154577239377 L 298.2087165133947 126.95612729221831 M 307.10515793682526 124.25125288362105 L 307.10515793682526 126.6820649188798 M 307.10515793682526 128.73568606505523 L 307.10515793682526 138.52877560219855 M 316.0015993602559 128.11175380978898 L 316.0015993602559 128.73568606505523 M 316.0015993602559 150.60243531029465 L 316.0015993602559 154.29162357807652 M 333.7944822071172 138.2636150474827 L 333.7944822071172 140.65953005973688 M 333.7944822071172 144.7884586974556 L 333.7944822071172 148.04538791095152 M 351.5873650539784 131.5446359913785 L 351.5873650539784 143.9292911500771 M 351.5873650539784 143.9541499520817 L 351.5873650539784 145.58394036160325 M 369.38024790083966 142.51901579978104 L 369.38024790083966 142.96069752377923 M 369.38024790083966 152.89408540442668 L 369.38024790083966 158.21827259262625 M 404.9660135945622 134.0651291142501 L 404.9660135945622 134.44298290472022 M 404.9660135945622 139.98251834342835 L 404.9660135945622 144.34493031959425 M 440.5517792882847 113.39406457038311 L 440.5517792882847 118.54580269781924 M 440.5517792882847 121.78265546931523 L 440.5517792882847 125.45091499331417 M 467.2411035585766 108.69821319666201 L 467.2411035585766 111.15563598759047 M 467.2411035585766 112.98013000443196 L 467.2411035585766 119.82075146501207 M 493.93042782886846 72.66478781473612 L 493.93042782886846 76.87695792659599 M 493.93042782886846 84.51377130280954 L 493.93042782886846 89.63032830664682 M 511.7233106757297 64.72985821486336 L 511.7233106757297 69.54602619028677 M 511.7233106757297 72.77085203662246 L 511.7233106757297 78.27577455292037 M 520.6197520991603 68.6873794939979 L 520.6197520991603 72.72089768211794 M 520.6197520991603 73.40491721308679 L 520.6197520991603 77.90866923493604 M 538.4126349460215 64.61091476603369 L 538.4126349460215 66.64909977991672 M 538.4126349460215 69.81857336045547 L 538.4126349460215 80.89996439272551 M 565.1019592163135 47.94803610729153 L 565.1019592163135 49.900422741684395 M 565.1019592163135 52.57603478906478 L 565.1019592163135 55.65710573466518 M 582.8948420631747 23.465856790572417 L 582.8948420631747 31.96264266584845 M 582.8948420631747 32.269518657833004 L 582.8948420631747 41.6318643438602 M 600.687724910036 24.374931342356348 L 600.687724910036 24.83006049448656 M 600.687724910036 40.57245322757214 L 600.687724910036 71.18746472417621 M 609.5841663334666 40.11827107742312 L 609.5841663334666 40.57245322757214 M 609.5841663334666 65.17873715391812 L 609.5841663334666 84.11139016102823 M 627.3770491803277 50.25999939391872 L 627.3770491803277 61.46076002590996 M 627.3770491803277 73.78352860514184 L 627.3770491803277 75.6746442113557 M 636.2734906037584 67.38946592876272 L 636.2734906037584 73.78352860514184 M 636.2734906037584 77.5566685985507 L 636.2734906037584 87.83206624468258 M 645.169932027189 67.53203707702156 L 645.169932027189 77.55662124845166 M 645.169932027189 78.36370368686812 L 645.169932027189 83.60266069676618 M 654.0663734506197 75.84453636677009 L 654.0663734506197 78.3767723142077 M 654.0663734506197 82.96030925296694 L 654.0663734506197 93.07268050804763 M 671.8592562974809 58.980609187434425 L 671.8592562974809 61.841691572818746 M 671.8592562974809 67.31114886492341 L 671.8592562974809 73.90725441397623 M 689.6521391443422 51.52827179714461 L 689.6521391443422 58.273340757828834 M 689.6521391443422 67.62631112424287 L 689.6521391443422 71.76513593266435 M 760.8236705317872 21.66158126602801 L 760.8236705317872 23.12166892053139 M 760.8236705317872 25.732695432798835 L 760.8236705317872 36.42851460845259 M 778.6165533786485 4.41061437700526 L 778.6165533786485 6.950521040490031 M 778.6165533786485 17.462574481705815 L 778.6165533786485 17.46981904686146 M 787.512994802079 9.578214787625313 L 787.512994802079 17.425783454738962 M 787.512994802079 33.38693364546518 L 787.512994802079 38.146565602615254 M 814.202319072371 11.962102874719193 L 814.202319072371 17.724609929883968 M 814.202319072371 23.713497808637385 L 814.202319072371 26.67363660124778 M 840.8916433426629 19.25813758802383 L 840.8916433426629 21.573936232674612 M 840.8916433426629 25.11790174665046 L 840.8916433426629 34.121286331731 M 849.7880847660936 20.00802110678012 L 849.7880847660936 25.11790174665046 M 849.7880847660936 40.593381971355086 L 849.7880847660936 42.64482501297394 M 867.5809676129546 25.83553984794935 L 867.5809676129546 39.36441015034603 M 867.5809676129546 49.01980559943331 L 867.5809676129546 51.87809432897333 M 876.4774090363853 44.3636336087215 L 876.4774090363853 49.019758249334245 M 876.4774090363853 53.801550052842714 L 876.4774090363853 57.90311033330681" style="stroke-width: 1px;"></path><path class="candle wick equal" style="stroke-width: 1px;"></path></g></g><g class="x axis" transform="translate(0,200)" fill="none" font-size="10" font-family="sans-serif" text-anchor="middle"><path class="domain" stroke="#000" d="M0.5,6V0.5H890.5V6"></path><g class="tick" opacity="1" transform="translate(40.21191523390643,0)"><line stroke="#000" y2="6" x1="0.5" x2="0.5"></line><text fill="#000" y="9" x="0.5" dy="0.71em">Dec 21</text></g><g class="tick" opacity="1" transform="translate(102.48700519792082,0)"><line stroke="#000" y2="6" x1="0.5" x2="0.5"></line><text fill="#000" y="9" x="0.5" dy="0.71em">Dec 28</text></g><g class="tick" opacity="1" transform="translate(164.7620951619352,0)"><line stroke="#000" y2="6" x1="0.5" x2="0.5"></line><text fill="#000" y="9" x="0.5" dy="0.71em">Jan  4</text></g><g class="tick" opacity="1" transform="translate(227.0371851259496,0)"><line stroke="#000" y2="6" x1="0.5" x2="0.5"></line><text fill="#000" y="9" x="0.5" dy="0.71em">Jan 11</text></g><g class="tick" opacity="1" transform="translate(289.31227508996403,0)"><line stroke="#000" y2="6" x1="0.5" x2="0.5"></line><text fill="#000" y="9" x="0.5" dy="0.71em">Jan 18</text></g><g class="tick" opacity="1" transform="translate(351.5873650539784,0)"><line stroke="#000" y2="6" x1="0.5" x2="0.5"></line><text fill="#000" y="9" x="0.5" dy="0.71em">Jan 25</text></g><g class="tick" opacity="1" transform="translate(413.86245501799283,0)"><line stroke="#000" y2="6" x1="0.5" x2="0.5"></line><text fill="#000" y="9" x="0.5" dy="0.71em">Feb  1</text></g><g class="tick" opacity="1" transform="translate(476.13754498200717,0)"><line stroke="#000" y2="6" x1="0.5" x2="0.5"></line><text fill="#000" y="9" x="0.5" dy="0.71em">Feb  8</text></g><g class="tick" opacity="1" transform="translate(538.4126349460215,0)"><line stroke="#000" y2="6" x1="0.5" x2="0.5"></line><text fill="#000" y="9" x="0.5" dy="0.71em">Feb 15</text></g><g class="tick" opacity="1" transform="translate(600.687724910036,0)"><line stroke="#000" y2="6" x1="0.5" x2="0.5"></line><text fill="#000" y="9" x="0.5" dy="0.71em">Feb 22</text></g><g class="tick" opacity="1" transform="translate(662.9628148740503,0)"><line stroke="#000" y2="6" x1="0.5" x2="0.5"></line><text fill="#000" y="9" x="0.5" dy="0.71em">Mar  1</text></g><g class="tick" opacity="1" transform="translate(725.2379048380647,0)"><line stroke="#000" y2="6" x1="0.5" x2="0.5"></line><text fill="#000" y="9" x="0.5" dy="0.71em">Mar  8</text></g><g class="tick" opacity="1" transform="translate(787.512994802079,0)"><line stroke="#000" y2="6" x1="0.5" x2="0.5"></line><text fill="#000" y="9" x="0.5" dy="0.71em">Mar 15</text></g><g class="tick" opacity="1" transform="translate(849.7880847660936,0)"><line stroke="#000" y2="6" x1="0.5" x2="0.5"></line><text fill="#000" y="9" x="0.5" dy="0.71em">Mar 22</text></g></g><g class="y axis" fill="none" font-size="10" font-family="sans-serif" text-anchor="end"><path class="domain" stroke="#000" d="M-6,200.5H0.5V0.5H-6"></path><g class="tick" opacity="1" transform="translate(0,178.30285880958064)"><line stroke="#000" x2="-6" y1="0.5" y2="0.5"></line><text fill="#000" x="-9" y="0.5" dy="0.32em">25,000</text></g><g class="tick" opacity="1" transform="translate(0,154.627809281377)"><line stroke="#000" x2="-6" y1="0.5" y2="0.5"></line><text fill="#000" x="-9" y="0.5" dy="0.32em">30,000</text></g><g class="tick" opacity="1" transform="translate(0,130.9527597531734)"><line stroke="#000" x2="-6" y1="0.5" y2="0.5"></line><text fill="#000" x="-9" y="0.5" dy="0.32em">35,000</text></g><g class="tick" opacity="1" transform="translate(0,107.2777102249698)"><line stroke="#000" x2="-6" y1="0.5" y2="0.5"></line><text fill="#000" x="-9" y="0.5" dy="0.32em">40,000</text></g><g class="tick" opacity="1" transform="translate(0,83.60266069676618)"><line stroke="#000" x2="-6" y1="0.5" y2="0.5"></line><text fill="#000" x="-9" y="0.5" dy="0.32em">45,000</text></g><g class="tick" opacity="1" transform="translate(0,59.92761116856255)"><line stroke="#000" x2="-6" y1="0.5" y2="0.5"></line><text fill="#000" x="-9" y="0.5" dy="0.32em">50,000</text></g><g class="tick" opacity="1" transform="translate(0,36.25256164035895)"><line stroke="#000" x2="-6" y1="0.5" y2="0.5"></line><text fill="#000" x="-9" y="0.5" dy="0.32em">55,000</text></g><g class="tick" opacity="1" transform="translate(0,12.577512112155347)"><line stroke="#000" x2="-6" y1="0.5" y2="0.5"></line><text fill="#000" x="-9" y="0.5" dy="0.32em">60,000</text></g><text transform="rotate(-90)" y="6" dy=".71em" style="text-anchor: end;">Price ($)</text></g></g></svg>