<?xml version="1.0" encoding="utf-8"?>
<!DOCTYPE svg PUBLIC "-//W3C//DTD SVG 1.1//EN" "http://www.w3.org/Graphics/SVG/1.1/DTD/svg11.dtd">
<svg version="1.1" xmlns="http://www.w3.org/2000/svg" width="960" height="250"><g transform="translate(50,20)"><style>.axis path,.axis line{fill:none;stroke:#000;shape-rendering:crispEdges;}path.candle{stroke:#000000;}path.candle.body{stroke-width:0;}path.candle.up{fill:#00AA00;stroke:#00AA00;}path.candle.down{fill:#FF0000;stroke:#FF0000;}</style><g class="candlestick"><g class="data"><path class="candle body up" d="M 1.0675729708116766 76.07800502106117 l 7.1171531387445 0 L 8.184726109556177 73.89783506129268 l -7.1171531387445 0 L 1.0675729708116766 76.07800502106117 M 27.75689724110356 81.75007090410611 l 7.1171531387445 0 L 34.87405037984806 77.34219897267829 l -7.1171531387445 0 L 27.75689724110356 81.75007090410611 M 54.446221511395436 109.10960199161754 l 7.1171531387445 0 L 61.563374650139934 95.92065042700028 l -7.1171531387445 0 L 54.446221511395436 109.10960199161754 M 63.342662934826066 95.92038781919983 l 7.1171531387445 0 L 70.45981607357056 95.2134476202481 l -7.1171531387445 0 L 63.342662934826066 95.92038781919983 M 72.23910435825668 95.19322681960942 l 7.1171531387445 0 L 79.35625749700118 41.63252765260137 l -7.1171531387445 0 L 72.23910435825668 95.19322681960942 M 81.13554578168731 41.5928738747256 l 7.1171531387445 0 L 88.25269892043181 34.06338301872918 l -7.1171531387445 0 L 81.13554578168731 41.5928738747256 M 90.03198720511796 34.09305770018594 l 7.1171531387445 0 L 97.14914034386246 29.375045956365113 l -7.1171531387445 0 L 90.03198720511796 34.09305770018594 M 98.92842862854857 29.375045956365113 l 7.1171531387445 0 L 106.04558176729307 14.436076009201713 l -7.1171531387445 0 L 98.92842862854857 29.375045956365113 M 116.72131147540982 72.79068057437581 l 7.1171531387445 0 L 123.83846461415432 71.39649576151012 l -7.1171531387445 0 L 116.72131147540982 72.79068057437581 M 134.51419432227107 85.1789409552621 l 7.1171531387445 0 L 141.63134746101557 82.5155726425698 l -7.1171531387445 0 L 134.51419432227107 85.1789409552621 M 143.4106357457017 82.5155726425698 l 7.1171531387445 0 L 150.5277888844462 74.36632737738844 l -7.1171531387445 0 L 143.4106357457017 82.5155726425698 M 161.20351859256294 92.64829462494353 l 7.1171531387445 0 L 168.32067173130744 89.50829315433984 l -7.1171531387445 0 L 161.20351859256294 92.64829462494353 M 187.89284286285485 117.75596382314939 l 7.1171531387445 0 L 195.00999600159935 93.06374016533785 l -7.1171531387445 0 L 187.89284286285485 117.75596382314939 M 223.47860855657734 108.62325234508762 l 7.1171531387445 0 L 230.59576169532184 97.62812634586497 l -7.1171531387445 0 L 223.47860855657734 108.62325234508762 M 241.2714914034386 101.55989033498255 l 7.1171531387445 0 L 248.3886445421831 92.769882036576 l -7.1171531387445 0 L 241.2714914034386 101.55989033498255 M 250.16793282686922 92.769882036576 l 7.1171531387445 0 L 257.28508596561375 88.07734324940392 l -7.1171531387445 0 L 250.16793282686922 92.769882036576 M 285.7536985205918 102.09455981680475 l 7.1171531387445 0 L 292.8708516593363 87.09072574291743 l -7.1171531387445 0 L 285.7536985205918 102.09455981680475 M 294.65013994402244 87.09072574291743 l 7.1171531387445 0 L 301.76729308276697 68.4786604901312 l -7.1171531387445 0 L 294.65013994402244 87.09072574291743 M 339.13234706117555 92.67271715039023 l 7.1171531387445 0 L 346.2495001999201 92.0818495992605 l -7.1171531387445 0 L 339.13234706117555 92.67271715039023 M 365.8216713314674 102.03521045389132 l 7.1171531387445 0 L 372.93882447021196 99.52651813569473 l -7.1171531387445 0 L 365.8216713314674 102.03521045389132 M 374.7181127548981 99.53781027111633 l 7.1171531387445 0 L 381.8352658936426 93.75965083666841 l -7.1171531387445 0 L 374.7181127548981 99.53781027111633 M 401.40743702518995 101.81461990146951 l 7.1171531387445 0 L 408.5245901639345 96.70479731929957 l -7.1171531387445 0 L 401.40743702518995 101.81461990146951 M 410.3038784486206 96.70479731929957 l 7.1171531387445 0 L 417.4210315873651 89.17110473849515 l -7.1171531387445 0 L 410.3038784486206 96.70479731929957 M 445.8896441423431 102.51000535719918 l 7.1171531387445 0 L 453.00679728108764 99.29437284005087 l -7.1171531387445 0 L 445.8896441423431 102.51000535719918 M 454.7860855657737 99.29437284005087 l 7.1171531387445 0 L 461.90323870451823 98.24446685364346 l -7.1171531387445 0 L 454.7860855657737 99.29437284005087 M 463.68252698920435 98.24604250044642 l 7.1171531387445 0 L 470.7996801279489 88.6317083162638 l -7.1171531387445 0 L 463.68252698920435 98.24604250044642 M 481.47540983606564 94.92904337230436 l 7.1171531387445 0 L 488.59256297481016 75.24737654807299 l -7.1171531387445 0 L 481.47540983606564 94.92904337230436 M 490.3718512594962 75.27495036712568 l 7.1171531387445 0 L 497.48900439824075 57.08752192775134 l -7.1171531387445 0 L 490.3718512594962 75.27495036712568 M 508.16473410635746 69.60025840607565 l 7.1171531387445 0 L 515.281887245102 61.80789714177669 l -7.1171531387445 0 L 508.16473410635746 69.60025840607565 M 517.0611755297881 61.80789714177669 l 7.1171531387445 0 L 524.1783286685326 56.08751142343934 l -7.1171531387445 0 L 517.0611755297881 61.80789714177669 M 561.5433826469413 73.36264036386937 l 7.1171531387445 0 L 568.6605357856857 71.89256189665858 l -7.1171531387445 0 L 561.5433826469413 73.36264036386937 M 570.4398240703717 71.91094444269373 l 7.1171531387445 0 L 577.5569772091162 47.189046103425426 l -7.1171531387445 0 L 570.4398240703717 71.91094444269373 M 579.3362654938024 47.189046103425426 l 7.1171531387445 0 L 586.4534186325469 43.22760743285119 l -7.1171531387445 0 L 579.3362654938024 47.189046103425426 M 623.8184726109555 184.4236809210181 l 7.1171531387445 0 L 630.9356257497 140.34574943014104 l -7.1171531387445 0 L 623.8184726109555 184.4236809210181 M 659.4042383046781 173.6803958024769 l 7.1171531387445 0 L 666.5213914434225 166.12569459763236 l -7.1171531387445 0 L 659.4042383046781 173.6803958024769 M 668.3006797281087 166.17138835491969 l 7.1171531387445 0 L 675.4178328668531 158.74352671771766 l -7.1171531387445 0 L 668.3006797281087 166.17138835491969 M 686.09356257497 165.01880271851596 l 7.1171531387445 0 L 693.2107157137144 164.2060315759619 l -7.1171531387445 0 L 686.09356257497 165.01880271851596 M 694.9900039984005 164.2060315759619 l 7.1171531387445 0 L 702.107157137145 163.99883402136578 l -7.1171531387445 0 L 694.9900039984005 164.2060315759619 M 703.8864454218311 164.025620017017 l 7.1171531387445 0 L 711.0035985605756 163.99279404195423 l -7.1171531387445 0 L 703.8864454218311 164.025620017017 M 730.5757696921231 188.13669261231735 l 7.1171531387445 0 L 737.6929228308676 176.433575982941 l -7.1171531387445 0 L 730.5757696921231 188.13669261231735 M 739.4722111155537 176.4067899872898 l 7.1171531387445 0 L 746.5893642542982 166.55505835145328 l -7.1171531387445 0 L 739.4722111155537 176.4067899872898 M 792.8508596561375 176.8211850964821 l 7.1171531387445 0 L 799.9680127948819 170.77201441191613 l -7.1171531387445 0 L 792.8508596561375 176.8211850964821 M 801.747301079568 170.76203531549703 l 7.1171531387445 0 L 808.8644542183125 151.83510330990873 l -7.1171531387445 0 L 801.747301079568 170.76203531549703 M 819.5401839264293 156.71015451842982 l 7.1171531387445 0 L 826.6573370651738 153.69699261546862 l -7.1171531387445 0 L 819.5401839264293 156.71015451842982 M 837.3330667732906 159.14715490708937 l 7.1171531387445 0 L 844.4502199120351 153.35665290601793 l -7.1171531387445 0 L 837.3330667732906 159.14715490708937 M 855.1259496201519 157.0160926060148 l 7.1171531387445 0 L 862.2431027588964 153.79625836405847 l -7.1171531387445 0 L 855.1259496201519 157.0160926060148 M 872.9188324670131 160.4223783863276 l 7.1171531387445 0 L 880.0359856057576 150.24737654807302 l -7.1171531387445 0 L 872.9188324670131 160.4223783863276"></path><path class="candle body down" d="M 9.964014394242305 73.86684734083342 l 7.1171531387445 0 L 17.081167532986804 78.61427115831046 l -7.1171531387445 0 L 9.964014394242305 73.86684734083342 M 18.860455817672932 78.63738064475467 l 7.1171531387445 0 L 25.977608956417434 81.76451433313372 l -7.1171531387445 0 L 18.860455817672932 78.63738064475467 M 36.65333866453418 77.34219897267829 l 7.1171531387445 0 L 43.77049180327868 82.68521728169414 l -7.1171531387445 0 L 36.65333866453418 77.34219897267829 M 45.54978008796481 82.72460845176946 l 7.1171531387445 0 L 52.66693322670931 109.10960199161754 l -7.1171531387445 0 L 45.54978008796481 82.72460845176946 M 107.82487005197919 14.443954243216837 l 7.1171531387445 0 L 114.94202319072369 72.7919936133783 l -7.1171531387445 0 L 107.82487005197919 14.443954243216837 M 125.61775289884046 71.38441580268704 l 7.1171531387445 0 L 132.73490603758498 85.1789409552621 l -7.1171531387445 0 L 125.61775289884046 71.38441580268704 M 152.30707716913233 74.39285076523912 l 7.1171531387445 0 L 159.42423030787683 92.6816458156073 l -7.1171531387445 0 L 152.30707716913233 74.39285076523912 M 170.09996001599356 89.50829315433984 l 7.1171531387445 0 L 177.21711315473806 106.89345476318029 l -7.1171531387445 0 L 170.09996001599356 89.50829315433984 M 178.9964014394242 106.9115747014149 l 7.1171531387445 0 L 186.1135545781687 117.75596382314939 l -7.1171531387445 0 L 178.9964014394242 106.9115747014149 M 196.78928428628546 93.06374016533785 l 7.1171531387445 0 L 203.90643742502996 95.99759451254741 l -7.1171531387445 0 L 196.78928428628546 93.06374016533785 M 205.68572570971608 96.0327839578147 l 7.1171531387445 0 L 212.80287884846058 105.69858927089571 l -7.1171531387445 0 L 205.68572570971608 96.0327839578147 M 214.5821671331467 105.65946070862084 l 7.1171531387445 0 L 221.6993202718912 108.6692087101755 l -7.1171531387445 0 L 214.5821671331467 105.65946070862084 M 232.37504998000796 97.65806363512222 l 7.1171531387445 0 L 239.49220311875246 101.53284173153077 l -7.1171531387445 0 L 232.37504998000796 97.65806363512222 M 259.06437425029986 88.10281620605255 l 7.1171531387445 0 L 266.1815273890444 92.51278899988445 l -7.1171531387445 0 L 259.06437425029986 88.10281620605255 M 267.9608156737305 92.51278899988445 l 7.1171531387445 0 L 275.07796881247504 95.44506770029095 l -7.1171531387445 0 L 267.9608156737305 92.51278899988445 M 276.85725709716115 95.41119129402615 l 7.1171531387445 0 L 283.9744102359057 102.119244950052 l -7.1171531387445 0 L 276.85725709716115 95.41119129402615 M 303.54658136745303 68.4786604901312 l 7.1171531387445 0 L 310.66373450619756 73.19404615594705 l -7.1171531387445 0 L 303.54658136745303 68.4786604901312 M 312.4430227908837 73.19404615594705 l 7.1171531387445 0 L 319.5601759296282 78.38291368606818 l -7.1171531387445 0 L 312.4430227908837 73.19404615594705 M 321.3394642143143 78.38291368606818 l 7.1171531387445 0 L 328.45661735305885 89.69028036008781 l -7.1171531387445 0 L 321.3394642143143 78.38291368606818 M 330.23590563774496 89.69028036008781 l 7.1171531387445 0 L 337.3530587764895 92.63490162711796 l -7.1171531387445 0 L 330.23590563774496 89.69028036008781 M 348.02878848460614 92.05716446601333 l 7.1171531387445 0 L 355.14594162335067 100.14784819168271 l -7.1171531387445 0 L 348.02878848460614 92.05716446601333 M 356.9252299080368 100.14784819168271 l 7.1171531387445 0 L 364.0423830467813 102.03521045389132 l -7.1171531387445 0 L 356.9252299080368 100.14784819168271 M 383.61455417832866 93.74783348564581 l 7.1171531387445 0 L 390.7317073170732 98.9645374426202 l -7.1171531387445 0 L 383.61455417832866 93.74783348564581 M 392.5109956017593 98.9645374426202 l 7.1171531387445 0 L 399.62814874050383 101.78862172921987 l -7.1171531387445 0 L 392.5109956017593 98.9645374426202 M 419.20031987205124 89.20734461496444 l 7.1171531387445 0 L 426.31747301079577 95.01202743726303 l -7.1171531387445 0 L 419.20031987205124 89.20734461496444 M 428.0967612954818 95.01202743726303 l 7.1171531387445 0 L 435.21391443422635 100.35530835407933 l -7.1171531387445 0 L 428.0967612954818 95.01202743726303 M 436.99320271891247 100.37159003771052 l 7.1171531387445 0 L 444.110355857657 102.51000535719918 l -7.1171531387445 0 L 436.99320271891247 100.37159003771052 M 472.57896841263494 88.6317083162638 l 7.1171531387445 0 L 479.69612155137946 94.95215285874849 l -7.1171531387445 0 L 472.57896841263494 88.6317083162638 M 499.2682926829268 57.086996712150324 l 7.1171531387445 0 L 506.38544582167134 69.60025840607565 l -7.1171531387445 0 L 499.2682926829268 57.086996712150324 M 525.9576169532187 56.087248815638816 l 7.1171531387445 0 L 533.0747700919632 60.8719629407872 l -7.1171531387445 0 L 525.9576169532187 56.087248815638816 M 534.8540583766493 60.8719629407872 l 7.1171531387445 0 L 541.9712115153937 64.46286200485295 l -7.1171531387445 0 L 534.8540583766493 60.8719629407872 M 543.75049980008 64.46286200485295 l 7.1171531387445 0 L 550.8676529388244 64.64983875881052 l -7.1171531387445 0 L 543.75049980008 64.46286200485295 M 552.6469412235106 64.6711099906511 l 7.1171531387445 0 L 559.764094362255 73.36264036386937 l -7.1171531387445 0 L 552.6469412235106 64.6711099906511 M 588.232706917233 43.22760743285119 l 7.1171531387445 0 L 595.3498600559775 53.56884000882357 l -7.1171531387445 0 L 588.232706917233 43.22760743285119 M 597.1291483406637 53.56884000882357 l 7.1171531387445 0 L 604.2463014794082 61.82654229561231 l -7.1171531387445 0 L 597.1291483406637 53.56884000882357 M 606.0255897640943 61.83862225443548 l 7.1171531387445 0 L 613.1427429028388 115.50095064023783 l -7.1171531387445 0 L 606.0255897640943 61.83862225443548 M 614.9220311875249 115.54953308333069 l 7.1171531387445 0 L 622.0391843262694 184.42026701961157 l -7.1171531387445 0 L 614.9220311875249 115.54953308333069 M 632.7149140343862 140.31161041607578 l 7.1171531387445 0 L 639.8320671731307 154.28602191199485 l -7.1171531387445 0 L 632.7149140343862 140.31161041607578 M 641.6113554578168 154.29468796941146 l 7.1171531387445 0 L 648.7285085965613 161.06734314436073 l -7.1171531387445 0 L 641.6113554578168 154.29468796941146 M 650.5077968812475 161.03898150190656 l 7.1171531387445 0 L 657.624950019992 173.73107910797384 l -7.1171531387445 0 L 650.5077968812475 161.03898150190656 M 677.1971211515394 158.74352671771766 l 7.1171531387445 0 L 684.3142742902838 164.98860282145827 l -7.1171531387445 0 L 677.1971211515394 158.74352671771766 M 712.7828868452618 163.99279404195423 l 7.1171531387445 0 L 719.9000399840063 175.0341390140653 l -7.1171531387445 0 L 712.7828868452618 163.99279404195423 M 721.6793282686924 175.05330938350195 l 7.1171531387445 0 L 728.7964814074369 188.13669261231735 l -7.1171531387445 0 L 721.6793282686924 175.05330938350195 M 748.3686525389844 166.55505835145328 l 7.1171531387445 0 L 755.4858056777289 166.66430319646213 l -7.1171531387445 0 L 748.3686525389844 166.55505835145328 M 757.265093962415 166.64854672843205 l 7.1171531387445 0 L 764.3822471011595 168.68139371211885 l -7.1171531387445 0 L 757.265093962415 166.64854672843205 M 766.1615353858456 168.70213972835853 l 7.1171531387445 0 L 773.27868852459 170.35079149991074 l -7.1171531387445 0 L 766.1615353858456 168.70213972835853 M 775.0579768092763 170.3760018487589 l 7.1171531387445 0 L 782.1751299480208 171.13310013760653 l -7.1171531387445 0 L 775.0579768092763 170.3760018487589 M 783.9544182327068 171.133362745407 l 7.1171531387445 0 L 791.0715713714512 176.80201472704547 l -7.1171531387445 0 L 783.9544182327068 171.133362745407 M 810.6437425029987 151.78547043561386 l 7.1171531387445 0 L 817.7608956417432 156.7266988098615 l -7.1171531387445 0 L 810.6437425029987 151.78547043561386 M 828.43662534986 153.71301169129927 l 7.1171531387445 0 L 835.5537784886045 159.14715490708937 l -7.1171531387445 0 L 828.43662534986 153.71301169129927 M 846.2295081967213 153.3317051649702 l 7.1171531387445 0 L 853.3466613354658 157.0160926060148 l -7.1171531387445 0 L 846.2295081967213 153.3317051649702 M 864.0223910435824 153.79625836405847 l 7.1171531387445 0 L 871.1395441823269 160.4223783863276 l -7.1171531387445 0 L 864.0223910435824 153.79625836405847 M 881.8152738904437 150.24737654807302 l 7.1171531387445 0 L 888.9324270291881 150.6701751068814 l -7.1171531387445 0 L 881.8152738904437 150.24737654807302"></path><path class="candle body equal"></path><path class="candle wick up" d="M 4.626149540183927 71.878118467631 L 4.626149540183927 73.89783506129268 M 4.626149540183927 76.07800502106117 L 4.626149540183927 88.75618441370183 M 31.315473810475808 76.5824746058257 L 31.315473810475808 77.34219897267829 M 31.315473810475808 81.75007090410611 L 31.315473810475808 88.2981964096262 M 58.004798080767685 91.42427966680317 L 58.004798080767685 95.92065042700028 M 58.004798080767685 109.10960199161754 L 58.004798080767685 116.45841868086849 M 66.90123950419832 91.57685479889494 L 66.90123950419832 95.2134476202481 M 66.90123950419832 95.92038781919983 L 66.90123950419832 103.29572789630144 M 75.79768092762893 35.40583409489591 L 75.79768092762893 41.63252765260137 M 75.79768092762893 95.19322681960942 L 75.79768092762893 95.949274677255 M 84.69412235105956 29.797056691771985 L 84.69412235105956 34.06338301872918 M 84.69412235105956 41.5928738747256 L 84.69412235105956 48.170936669502794 M 93.5905637744902 28.505026313301585 L 93.5905637744902 29.375045956365113 M 93.5905637744902 34.09305770018594 L 93.5905637744902 41.89802413890902 M 102.48700519792082 12.013256441769329 L 102.48700519792082 14.436076009201713 M 102.48700519792082 29.375045956365113 L 102.48700519792082 36.94760449164386 M 120.27988804478207 63.1303900251053 L 120.27988804478207 71.39649576151012 M 120.27988804478207 72.79068057437581 L 120.27988804478207 87.39167428229291 M 138.07277089164333 80.23876301221651 L 138.07277089164333 82.5155726425698 M 138.07277089164333 85.1789409552621 L 138.07277089164333 95.20714503303611 M 146.96921231507397 72.38678977720355 L 146.96921231507397 74.36632737738844 M 146.96921231507397 82.5155726425698 L 146.96921231507397 83.96569291694236 M 164.7620951619352 85.59070998644943 L 164.7620951619352 89.50829315433984 M 164.7620951619352 92.64829462494353 L 164.7620951619352 123.76443029863756 M 191.4514194322271 89.16296389667964 L 191.4514194322271 93.06374016533785 M 191.4514194322271 117.75596382314939 L 191.4514194322271 120.51255790502003 M 227.0371851259496 95.2347188520888 L 227.0371851259496 97.62812634586497 M 227.0371851259496 108.62325234508762 L 227.0371851259496 111.99539911133517 M 244.83006797281087 82.86484101723757 L 244.83006797281087 92.769882036576 M 244.83006797281087 101.55989033498255 L 244.83006797281087 117.49545688505135 M 253.72650939624148 86.65899851889198 L 253.72650939624148 88.07734324940392 M 253.72650939624148 92.769882036576 L 253.72650939624148 107.73353711698657 M 289.31227508996403 84.72673032279754 L 289.31227508996403 87.09072574291743 M 289.31227508996403 102.09455981680475 L 289.31227508996403 104.66969190852843 M 298.2087165133947 64.8762066828433 L 298.2087165133947 68.4786604901312 M 298.2087165133947 87.09072574291743 L 298.2087165133947 90.72731856427067 M 342.6909236305478 88.95734198888643 L 342.6909236305478 92.0818495992605 M 342.6909236305478 92.67271715039023 L 342.6909236305478 95.31140032983538 M 369.38024790083966 97.35265076313824 L 369.38024790083966 99.52651813569473 M 369.38024790083966 102.03521045389132 L 369.38024790083966 104.50687507221713 M 378.2766893242703 90.11833107490624 L 378.2766893242703 93.75965083666841 M 378.2766893242703 99.53781027111633 L 378.2766893242703 124.88208909757455 M 404.9660135945622 92.42796668032227 L 404.9660135945622 96.70479731929957 M 404.9660135945622 101.81461990146951 L 404.9660135945622 101.9369951365035 M 413.86245501799283 85.8333595941134 L 413.86245501799283 89.17110473849515 M 413.86245501799283 96.70479731929957 L 413.86245501799283 99.61843086587048 M 449.44822071171535 97.04566224435132 L 449.44822071171535 99.29437284005087 M 449.44822071171535 102.51000535719918 L 449.44822071171535 112.80213027447768 M 458.34466213514594 96.86183678399982 L 458.34466213514594 98.24446685364346 M 458.34466213514594 99.29437284005087 L 458.34466213514594 100.65074212964419 M 467.2411035585766 85.35961512200758 L 467.2411035585766 88.6317083162638 M 467.2411035585766 98.24604250044642 L 467.2411035585766 101.76971396758367 M 485.0339864054379 66.42900660721227 L 485.0339864054379 75.24737654807299 M 485.0339864054379 94.92904337230436 L 485.0339864054379 97.38705238500404 M 493.93042782886846 50.56408155547851 L 493.93042782886846 57.08752192775134 M 493.93042782886846 75.27495036712568 L 493.93042782886846 76.02627128436224 M 511.7233106757297 57.654492169035365 L 511.7233106757297 61.80789714177669 M 511.7233106757297 69.60025840607565 L 511.7233106757297 77.34771373648881 M 520.6197520991603 48.85713085221482 L 520.6197520991603 56.08751142343934 M 520.6197520991603 61.80789714177669 L 520.6197520991603 62.80134245107621 M 565.1019592163135 67.02118719734452 L 565.1019592163135 71.89256189665858 M 565.1019592163135 73.36264036386937 L 565.1019592163135 76.52969043792473 M 573.998400639744 43.15722854231663 L 573.998400639744 47.189046103425426 M 573.998400639744 71.91094444269373 L 573.998400639744 72.59792644880724 M 582.8948420631747 38.46705322534896 L 582.8948420631747 43.22760743285119 M 582.8948420631747 47.189046103425426 L 582.8948420631747 48.97136524543319 M 627.3770491803277 124.64574207712266 L 627.3770491803277 140.34574943014104 M 627.3770491803277 184.4236809210181 L 627.3770491803277 188.84652149707458 M 662.9628148740503 151.14286914778518 L 662.9628148740503 166.12569459763236 M 662.9628148740503 173.6803958024769 L 662.9628148740503 187.24592695301425 M 671.8592562974809 152.59535289236237 L 671.8592562974809 158.74352671771766 M 671.8592562974809 166.17138835491969 L 671.8592562974809 168.53485855943865 M 689.6521391443422 162.67135158982762 L 689.6521391443422 164.2060315759619 M 689.6521391443422 165.01880271851596 L 689.6521391443422 171.60684460971225 M 698.5485805677728 155.84354877677288 L 698.5485805677728 163.99883402136578 M 698.5485805677728 164.2060315759619 L 698.5485805677728 168.0537610689188 M 707.4450219912034 160.7960692864421 L 707.4450219912034 163.99279404195423 M 707.4450219912034 164.025620017017 L 707.4450219912034 167.85706782634276 M 734.1343462614954 174.12105169171946 L 734.1343462614954 176.433575982941 M 734.1343462614954 188.13669261231735 L 734.1343462614954 192.4607926553851 M 743.0307876849259 163.85308669208712 L 743.0307876849259 166.55505835145328 M 743.0307876849259 176.4067899872898 L 743.0307876849259 178.18622044349206 M 796.4094362255097 167.98364478618475 L 796.4094362255097 170.77201441191613 M 796.4094362255097 176.8211850964821 L 796.4094362255097 179.76711940251474 M 805.3058776489403 149.59348312482274 L 805.3058776489403 151.83510330990873 M 805.3058776489403 170.76203531549703 L 805.3058776489403 171.14570531203063 M 823.0987604958016 153.35586508261645 L 823.0987604958016 153.69699261546862 M 823.0987604958016 156.71015451842982 L 823.0987604958016 161.70364184497743 M 840.8916433426629 150.80568073194047 L 840.8916433426629 153.35665290601793 M 840.8916433426629 159.14715490708937 L 840.8916433426629 159.32966732843835 M 858.6845261895241 153.3222512841522 L 858.6845261895241 153.79625836405847 M 858.6845261895241 157.0160926060148 L 858.6845261895241 158.59121419342645 M 876.4774090363853 148.28044412231222 L 876.4774090363853 150.24737654807302 M 876.4774090363853 160.4223783863276 L 876.4774090363853 163.13117784850678" style="stroke-width: 1px;"></path><path class="candle wick down" d="M 13.522590963614554 65.76224540173746 L 13.522590963614554 73.86684734083342 M 13.522590963614554 78.61427115831046 L 13.522590963614554 83.77635269278036 M 22.41903238704518 75.88131177848506 L 22.41903238704518 78.63738064475467 M 22.41903238704518 81.76451433313372 L 22.41903238704518 86.46992090253045 M 40.21191523390643 75.84612233321776 L 40.21191523390643 77.34219897267829 M 40.21191523390643 82.68521728169414 L 40.21191523390643 86.96598703767893 M 49.10835665733706 72.62313679765543 L 49.10835665733706 82.72460845176946 M 49.10835665733706 109.10960199161754 L 49.10835665733706 112.81499805670232 M 111.38344662135144 3.8461538461538396 L 111.38344662135144 14.443954243216837 M 111.38344662135144 72.7919936133783 L 111.38344662135144 81.02658641372282 M 129.1763294682127 68.67771720291174 L 129.1763294682127 71.38441580268704 M 129.1763294682127 85.1789409552621 L 129.1763294682127 90.55924957194928 M 155.8656537385046 74.27073813800568 L 155.8656537385046 74.39285076523912 M 155.8656537385046 92.6816458156073 L 155.8656537385046 94.79721425645229 M 173.65853658536582 86.94524102143933 L 173.65853658536582 89.50829315433984 M 173.65853658536582 106.89345476318029 L 173.65853658536582 111.17737581277117 M 182.55497800879647 78.50555152890261 L 182.55497800879647 106.9115747014149 M 182.55497800879647 117.75596382314939 L 182.55497800879647 126.56330423638906 M 200.34786085565773 90.48046723179866 L 200.34786085565773 93.06374016533785 M 200.34786085565773 95.99759451254741 L 200.34786085565773 115.9161335728317 M 209.24430227908834 95.3087742518304 L 209.24430227908834 96.0327839578147 M 209.24430227908834 105.69858927089571 L 209.24430227908834 108.72278070147794 M 218.14074370251896 98.87840208405552 L 218.14074370251896 105.65946070862084 M 218.14074370251896 108.6692087101755 L 218.14074370251896 113.34835449952205 M 235.93362654938022 67.21709261651904 L 235.93362654938022 97.65806363512222 M 235.93362654938022 101.53284173153077 L 235.93362654938022 108.43443733652666 M 262.6229508196721 72.49183289740438 L 262.6229508196721 88.10281620605255 M 262.6229508196721 92.51278899988445 L 262.6229508196721 99.53098246830324 M 271.51939224310274 90.90063971260203 L 271.51939224310274 92.51278899988445 M 271.51939224310274 95.44506770029095 L 271.51939224310274 99.42436370129943 M 280.4158336665334 93.21395182722507 L 280.4158336665334 95.41119129402615 M 280.4158336665334 102.119244950052 L 280.4158336665334 105.70252838790327 M 307.10515793682526 67.74913602033638 L 307.10515793682526 68.4786604901312 M 307.10515793682526 73.19404615594705 L 307.10515793682526 84.4404878202502 M 316.0015993602559 65.3594050357672 L 316.0015993602559 73.19404615594705 M 316.0015993602559 78.38291368606818 L 316.0015993602559 81.2104118740743 M 324.89804078368655 75.54281032363785 L 324.89804078368655 78.38291368606818 M 324.89804078368655 89.69028036008781 L 324.89804078368655 95.20740764083658 M 333.7944822071172 87.13536906900279 L 333.7944822071172 89.69028036008781 M 333.7944822071172 92.63490162711796 L 333.7944822071172 97.38337587579704 M 351.5873650539784 89.82394773054338 L 351.5873650539784 92.05716446601333 M 351.5873650539784 100.14784819168271 L 351.5873650539784 103.0790764608872 M 360.483806477409 96.57060473324299 L 360.483806477409 100.14784819168271 M 360.483806477409 102.03521045389132 L 360.483806477409 107.28736646393344 M 387.1731307477009 78.61400855051002 L 387.1731307477009 93.74783348564581 M 387.1731307477009 98.9645374426202 L 387.1731307477009 101.76288616477066 M 396.06957217113154 97.63180285507201 L 396.06957217113154 98.9645374426202 M 396.06957217113154 101.78862172921987 L 396.06957217113154 104.26264981775017 M 422.7588964414235 85.05341442662213 L 422.7588964414235 89.20734461496444 M 422.7588964414235 95.01202743726303 L 422.7588964414235 101.2211262723348 M 431.65533786485406 94.1527747140201 L 431.65533786485406 95.01202743726303 M 431.65533786485406 100.35530835407933 L 431.65533786485406 101.87843359699154 M 440.5517792882847 94.47683273983971 L 440.5517792882847 100.37159003771052 M 440.5517792882847 102.51000535719918 L 440.5517792882847 106.23693526192503 M 476.13754498200717 87.8241893297198 L 476.13754498200717 88.6317083162638 M 476.13754498200717 94.95215285874849 L 476.13754498200717 99.4879147890209 M 502.82686925229905 54.445162239099176 L 502.82686925229905 57.086996712150324 M 502.82686925229905 69.60025840607565 L 502.82686925229905 72.09792119665121 M 529.5161935225909 52.89577621613674 L 529.5161935225909 56.087248815638816 M 529.5161935225909 60.8719629407872 L 529.5161935225909 63.82577548083489 M 538.4126349460215 55.13555814661922 L 538.4126349460215 60.8719629407872 M 538.4126349460215 64.46286200485295 L 538.4126349460215 71.10132459374569 M 547.3090763694522 58.967531171545915 L 547.3090763694522 64.46286200485295 M 547.3090763694522 64.64983875881052 L 547.3090763694522 68.66458681288663 M 556.2055177928828 56.34145316652484 L 556.2055177928828 64.6711099906511 M 556.2055177928828 73.36264036386937 L 556.2055177928828 76.0885093330812 M 591.7912834866053 41.49702202754227 L 591.7912834866053 43.22760743285119 M 591.7912834866053 53.56884000882357 L 591.7912834866053 54.07961218080018 M 600.687724910036 49.25708253237951 L 600.687724910036 53.56884000882357 M 600.687724910036 61.82654229561231 L 600.687724910036 67.24256557316778 M 609.5841663334666 58.9444216851017 L 609.5841663334666 61.83862225443548 M 609.5841663334666 115.50095064023783 L 609.5841663334666 151.7513314215485 M 618.4806077568971 114.43660122480283 L 618.4806077568971 115.54953308333069 M 618.4806077568971 184.42026701961157 L 618.4806077568971 193.2126387882226 M 636.2734906037584 137.88117522242882 L 636.2734906037584 140.31161041607578 M 636.2734906037584 154.28602191199485 L 636.2734906037584 172.89729934137964 M 645.169932027189 153.00475845334515 L 645.169932027189 154.29468796941146 M 645.169932027189 161.06734314436073 L 645.169932027189 165.81240349163335 M 654.0663734506197 157.33306022122085 L 654.0663734506197 161.03898150190656 M 654.0663734506197 173.73107910797384 L 654.0663734506197 176.3794787760376 M 680.7556977209116 155.71434573892589 L 680.7556977209116 158.74352671771766 M 680.7556977209116 164.98860282145827 L 680.7556977209116 172.45060347272556 M 716.3414634146341 162.6101639723106 L 716.3414634146341 163.99279404195423 M 716.3414634146341 175.0341390140653 L 716.3414634146341 177.6662569984979 M 725.2379048380647 174.01600857151863 L 725.2379048380647 175.05330938350195 M 725.2379048380647 188.13669261231735 L 725.2379048380647 196.1538461538462 M 751.9272291083566 161.05289971533313 L 751.9272291083566 166.55505835145328 M 751.9272291083566 166.66430319646213 L 751.9272291083566 170.36444710553687 M 760.8236705317872 164.90351789409556 L 760.8236705317872 166.64854672843205 M 760.8236705317872 168.68139371211885 L 760.8236705317872 173.39073939852312 M 769.7201119552178 163.95839242008842 L 769.7201119552178 168.70213972835853 M 769.7201119552178 170.35079149991074 L 769.7201119552178 172.28279708820472 M 778.6165533786485 166.63672937740944 L 778.6165533786485 170.3760018487589 M 778.6165533786485 171.13310013760653 L 778.6165533786485 171.86262460740136 M 787.512994802079 169.60314709188123 L 787.512994802079 171.133362745407 M 787.512994802079 176.80201472704547 L 787.512994802079 182.5174108971733 M 814.202319072371 147.62392462105697 L 814.202319072371 151.78547043561386 M 814.202319072371 156.7266988098615 L 814.202319072371 159.93996785680528 M 831.9952019192323 151.1696551434364 L 831.9952019192323 153.71301169129927 M 831.9952019192323 159.14715490708937 L 831.9952019192323 159.8420151472179 M 849.7880847660936 144.99128142102336 L 849.7880847660936 153.3317051649702 M 849.7880847660936 157.0160926060148 L 849.7880847660936 159.6251011040032 M 867.5809676129546 152.39787182638477 L 867.5809676129546 153.79625836405847 M 867.5809676129546 160.4223783863276 L 867.5809676129546 164.5665920860513 M 885.3738504598159 148.25418334226202 L 885.3738504598159 150.24737654807302 M 885.3738504598159 150.6701751068814 L 885.3738504598159 151.23478187796093" style="stroke-width: 1px;"></path><path class="candle wick equal" style="stroke-width: 1px;"></path></g></g><g class="x axis" transform="translate(0,200)" fill="none" font-size="10" font-family="sans-serif" text-anchor="middle"><path class="domain" stroke="#000" d="M0.5,6V0.5H890.5V6"></path><g class="tick" opacity="1" transform="translate(40.21191523390643,0)"><line stroke="#000" y2="6" x1="0.5" x2="0.5"></line><text fill="#000" y="9" x="0.5" dy="0.71em">Sep  5</text></g><g class="tick" opacity="1" transform="translate(102.48700519792082,0)"><line stroke="#000" y2="6" x1="0.5" x2="0.5"></line><text fill="#000" y="9" x="0.5" dy="0.71em">Sep 12</text></g><g class="tick" opacity="1" transform="translate(164.7620951619352,0)"><line stroke="#000" y2="6" x1="0.5" x2="0.5"></line><text fill="#000" y="9" x="0.5" dy="0.71em">Sep 19</text></g><g class="tick" opacity="1" transform="translate(227.0371851259496,0)"><line stroke="#000" y2="6" x1="0.5" x2="0.5"></line><text fill="#000" y="9" x="0.5" dy="0.71em">Sep 26</text></g><g class="tick" opacity="1" transform="translate(289.31227508996403,0)"><line stroke="#000" y2="6" x1="0.5" x2="0.5"></line><text fill="#000" y="9" x="0.5" dy="0.71em">Oct  3</text></g><g class="tick" opacity="1" transform="translate(351.5873650539784,0)"><line stroke="#000" y2="6" x1="0.5" x2="0.5"></line><text fill="#000" y="9" x="0.5" dy="0.71em">Oct 10</text></g><g class="tick" opacity="1" transform="translate(413.86245501799283,0)"><line stroke="#000" y2="6" x1="0.5" x2="0.5"></line><text fill="#000" y="9" x="0.5" dy="0.71em">Oct 17</text></g><g class="tick" opacity="1" transform="translate(476.13754498200717,0)"><line stroke="#000" y2="6" x1="0.5" x2="0.5"></line><text fill="#000" y="9" x="0.5" dy="0.71em">Oct 24</text></g><g class="tick" opacity="1" transform="translate(538.4126349460215,0)"><line stroke="#000" y2="6" x1="0.5" x2="0.5"></line><text fill="#000" y="9" x="0.5" dy="0.71em">Oct 31</text></g><g class="tick" opacity="1" transform="translate(600.687724910036,0)"><line stroke="#000" y2="6" x1="0.5" x2="0.5"></line><text fill="#000" y="9" x="0.5" dy="0.71em">Nov  7</text></g><g class="tick" opacity="1" transform="translate(662.9628148740503,0)"><line stroke="#000" y2="6" x1="0.5" x2="0.5"></line><text fill="#000" y="9" x="0.5" dy="0.71em">Nov 14</text></g><g class="tick" opacity="1" transform="translate(725.2379048380647,0)"><line stroke="#000" y2="6" x1="0.5" x2="0.5"></line><text fill="#000" y="9" x="0.5" dy="0.71em">Nov 21</text></g><g class="tick" opacity="1" transform="translate(787.512994802079,0)"><line stroke="#000" y2="6" x1="0.5" x2="0.5"></line><text fill="#000" y="9" x="0.5" dy="0.71em">Nov 28</text></g><g class="tick" opacity="1" transform="translate(849.7880847660936,0)"><line stroke="#000" y2="6" x1="0.5" x2="0.5"></line><text fill="#000" y="9" x="0.5" dy="0.71em">Dec  5</text></g></g><g class="y axis" fill="none" font-size="10" font-family="sans-serif" text-anchor="end"><path class="domain" stroke="#000" d="M-6,200.5H0.5V0.5H-6"></path><g class="tick" opacity="1" transform="translate(0,182.3931974075358)"><line stroke="#000" x2="-6" y1="0.5" y2="0.5"></line><text fill="#000" x="-9" y="0.5" dy="0.32em">16,000</text></g><g class="tick" opacity="1" transform="translate(0,156.1324173573252)"><line stroke="#000" x2="-6" y1="0.5" y2="0.5"></line><text fill="#000" x="-9" y="0.5" dy="0.32em">17,000</text></g><g class="tick" opacity="1" transform="translate(0,129.87163730711455)"><line stroke="#000" x2="-6" y1="0.5" y2="0.5"></line><text fill="#000" x="-9" y="0.5" dy="0.32em">18,000</text></g><g class="tick" opacity="1" transform="translate(0,103.61085725690397)"><line stroke="#000" x2="-6" y1="0.5" y2="0.5"></line><text fill="#000" x="-9" y="0.5" dy="0.32em">19,000</text></g><g class="tick" opacity="1" transform="translate(0,77.35007720669333)"><line stroke="#000" x2="-6" y1="0.5" y2="0.5"></line><text fill="#000" x="-9" y="0.5" dy="0.32em">20,000</text></g><g class="tick" opacity="1" transform="translate(0,51.08929715648273)"><line stroke="#000" x2="-6" y1="0.5" y2="0.5"></line><text fill="#000" x="-9" y="0.5" dy="0.32em">21,000</text></g><g class="tick" opacity="1" transform="translate(0,24.828517106272102)"><line stroke="#000" x2="-6" y1="0.5" y2="0.5"></line><text fill="#000" x="-9" y="0.5" dy="0.32em">22,000</text></g><text transform="rotate(-90)" y="6" dy=".71em" style="text-anchor: end;">Price ($)</text></g></g></svg>