<?xml version="1.0" encoding="utf-8"?>
<!DOCTYPE svg PUBLIC "-//W3C//DTD SVG 1.1//EN" "http://www.w3.org/Graphics/SVG/1.1/DTD/svg11.dtd">
<svg version="1.1" xmlns="http://www.w3.org/2000/svg" width="960" height="250"><g transform="translate(50,20)"><style>.axis path,.axis line{fill:none;stroke:#000;shape-rendering:crispEdges;}path.candle{stroke:#000000;}path.candle.body{stroke-width:0;}path.candle.up{fill:#00AA00;stroke:#00AA00;}path.candle.down{fill:#FF0000;stroke:#FF0000;}</style><g class="candlestick"><g class="data"><path class="candle body up" d="M 36.65333866453418 70.47387780216641 l 7.1171531387445 0 L 43.77049180327868 60.9575203497464 l -7.1171531387445 0 L 36.65333866453418 70.47387780216641 M 63.342662934826066 81.01588273972746 l 7.1171531387445 0 L 70.45981607357056 78.41886094872532 l -7.1171531387445 0 L 63.342662934826066 81.01588273972746 M 72.23910435825668 78.41886094872532 l 7.1171531387445 0 L 79.35625749700118 70.3476147630096 l -7.1171531387445 0 L 72.23910435825668 78.41886094872532 M 81.13554578168731 70.3476147630096 l 7.1171531387445 0 L 88.25269892043181 57.810633620833556 l -7.1171531387445 0 L 81.13554578168731 70.3476147630096 M 98.92842862854857 72.49469200680072 l 7.1171531387445 0 L 106.04558176729307 66.732414283747 l -7.1171531387445 0 L 98.92842862854857 72.49469200680072 M 116.72131147540982 84.18921304678504 l 7.1171531387445 0 L 123.83846461415432 68.00110045656956 l -7.1171531387445 0 L 116.72131147540982 84.18921304678504 M 134.51419432227107 79.28725998062392 l 7.1171531387445 0 L 141.63134746101557 76.82407095534668 l -7.1171531387445 0 L 134.51419432227107 79.28725998062392 M 143.4106357457017 76.82397002565912 l 7.1171531387445 0 L 150.5277888844462 68.2563516364477 l -7.1171531387445 0 L 143.4106357457017 76.82397002565912 M 161.20351859256294 80.21450102037895 l 7.1171531387445 0 L 168.32067173130744 74.70939214126729 l -7.1171531387445 0 L 161.20351859256294 80.21450102037895 M 196.78928428628546 85.0523637349297 l 7.1171531387445 0 L 203.90643742502996 80.99983491940297 l -7.1171531387445 0 L 196.78928428628546 85.0523637349297 M 205.68572570971608 80.99983491940297 l 7.1171531387445 0 L 212.80287884846058 76.59152895517305 l -7.1171531387445 0 L 205.68572570971608 80.99983491940297 M 214.5821671331467 76.59152895517305 l 7.1171531387445 0 L 221.6993202718912 53.71965059434058 l -7.1171531387445 0 L 214.5821671331467 76.59152895517305 M 223.47860855657734 53.719549664653016 l 7.1171531387445 0 L 230.59576169532184 53.04523842196187 l -7.1171531387445 0 L 223.47860855657734 53.719549664653016 M 241.2714914034386 73.18272968700208 l 7.1171531387445 0 L 248.3886445421831 66.65479935400154 l -7.1171531387445 0 L 241.2714914034386 73.18272968700208 M 259.06437425029986 74.24884997686085 l 7.1171531387445 0 L 266.1815273890444 72.59531890531335 l -7.1171531387445 0 L 259.06437425029986 74.24884997686085 M 267.9608156737305 72.59541983500095 l 7.1171531387445 0 L 275.07796881247504 72.03848981895999 l -7.1171531387445 0 L 267.9608156737305 72.59541983500095 M 276.85725709716115 72.03859074864755 l 7.1171531387445 0 L 283.9744102359057 57.36442347206278 l -7.1171531387445 0 L 276.85725709716115 72.03859074864755 M 356.9252299080368 150.58994613544064 l 7.1171531387445 0 L 364.0423830467813 146.07536121019376 l -7.1171531387445 0 L 356.9252299080368 150.58994613544064 M 374.7181127548981 168.10952316415057 l 7.1171531387445 0 L 381.8352658936426 167.42108176519886 l -7.1171531387445 0 L 374.7181127548981 168.10952316415057 M 392.5109956017593 182.5405508233662 l 7.1171531387445 0 L 399.62814874050383 166.35940238159344 l -7.1171531387445 0 L 392.5109956017593 182.5405508233662 M 410.3038784486206 166.36041167846918 l 7.1171531387445 0 L 417.4210315873651 164.8503016929663 l -7.1171531387445 0 L 410.3038784486206 166.36041167846918 M 428.0967612954818 172.2738820735108 l 7.1171531387445 0 L 435.21391443422635 160.94825904161445 l -7.1171531387445 0 L 428.0967612954818 172.2738820735108 M 436.99320271891247 160.94835997130207 l 7.1171531387445 0 L 444.110355857657 159.66079994690293 l -7.1171531387445 0 L 436.99320271891247 160.94835997130207 M 445.8896441423431 159.66090087659046 l 7.1171531387445 0 L 453.00679728108764 157.10223236686699 l -7.1171531387445 0 L 445.8896441423431 159.66090087659046 M 517.0611755297881 179.69403084467774 l 7.1171531387445 0 L 524.1783286685326 179.05807288326523 l -7.1171531387445 0 L 517.0611755297881 179.69403084467774 M 525.9576169532187 179.05807288326523 l 7.1171531387445 0 L 533.0747700919632 169.7636598138235 l -7.1171531387445 0 L 525.9576169532187 179.05807288326523 M 543.75049980008 170.37801882209482 l 7.1171531387445 0 L 550.8676529388244 166.45518465510247 l -7.1171531387445 0 L 543.75049980008 170.37801882209482 M 552.6469412235106 166.45518465510247 l 7.1171531387445 0 L 559.764094362255 155.75189407679596 l -7.1171531387445 0 L 552.6469412235106 166.45518465510247 M 606.0255897640943 178.9021365159613 l 7.1171531387445 0 L 613.1427429028388 169.78223087633737 l -7.1171531387445 0 L 606.0255897640943 178.9021365159613 M 614.9220311875249 169.78223087633737 l 7.1171531387445 0 L 622.0391843262694 166.20962272523155 l -7.1171531387445 0 L 614.9220311875249 169.78223087633737 M 623.8184726109555 166.20962272523155 l 7.1171531387445 0 L 630.9356257497 163.77519866091333 l -7.1171531387445 0 L 623.8184726109555 166.20962272523155 M 632.7149140343862 163.77519866091333 l 7.1171531387445 0 L 639.8320671731307 160.0856130019077 l -7.1171531387445 0 L 632.7149140343862 163.77519866091333 M 650.5077968812475 164.08263048926796 l 7.1171531387445 0 L 657.624950019992 147.6008125082081 l -7.1171531387445 0 L 650.5077968812475 164.08263048926796 M 659.4042383046781 147.6008125082081 l 7.1171531387445 0 L 666.5213914434225 137.87078690719102 l -7.1171531387445 0 L 659.4042383046781 147.6008125082081 M 703.8864454218311 147.43932500808748 l 7.1171531387445 0 L 711.0035985605756 146.11613680397423 l -7.1171531387445 0 L 703.8864454218311 147.43932500808748 M 730.5757696921231 159.48942133739993 l 7.1171531387445 0 L 737.6929228308676 142.3537808402267 l -7.1171531387445 0 L 730.5757696921231 159.48942133739993 M 739.4722111155537 142.33500791833768 l 7.1171531387445 0 L 746.5893642542982 133.3661940210141 l -7.1171531387445 0 L 739.4722111155537 142.33500791833768 M 810.6437425029987 145.68486424896463 l 7.1171531387445 0 L 817.7608956417432 138.72061487657572 l -7.1171531387445 0 L 810.6437425029987 145.68486424896463 M 828.43662534986 142.33601721521347 l 7.1171531387445 0 L 835.5537784886045 140.1137473541787 l -7.1171531387445 0 L 828.43662534986 142.33601721521347 M 837.3330667732906 140.1137473541787 l 7.1171531387445 0 L 844.4502199120351 133.69855548219985 l -7.1171531387445 0 L 837.3330667732906 140.1137473541787 M 855.1259496201519 140.3465921434151 l 7.1171531387445 0 L 862.2431027588964 132.24466333267648 l -7.1171531387445 0 L 855.1259496201519 140.3465921434151 M 872.9188324670131 132.45621195783448 l 7.1171531387445 0 L 880.0359856057576 127.70656179022458 l -7.1171531387445 0 L 872.9188324670131 132.45621195783448 M 881.8152738904437 127.7265458683645 l 7.1171531387445 0 L 888.9324270291881 126.86511098490863 l -7.1171531387445 0 L 881.8152738904437 127.7265458683645"></path><path class="candle body down" d="M 1.0675729708116766 5.084157393953461 l 7.1171531387445 0 L 8.184726109556177 10.526286148018073 l -7.1171531387445 0 L 1.0675729708116766 5.084157393953461 M 9.964014394242305 10.526286148018073 l 7.1171531387445 0 L 17.081167532986804 15.99041757397407 l -7.1171531387445 0 L 9.964014394242305 10.526286148018073 M 18.860455817672932 15.99031664428648 l 7.1171531387445 0 L 25.977608956417434 30.463633842596238 l -7.1171531387445 0 L 18.860455817672932 15.99031664428648 M 27.75689724110356 30.46373477228383 l 7.1171531387445 0 L 34.87405037984806 70.4528844271507 l -7.1171531387445 0 L 27.75689724110356 30.46373477228383 M 45.54978008796481 60.957419420058784 l 7.1171531387445 0 L 52.66693322670931 80.26698445791816 l -7.1171531387445 0 L 45.54978008796481 60.957419420058784 M 54.446221511395436 80.26698445791816 l 7.1171531387445 0 L 61.563374650139934 81.0157818100399 l -7.1171531387445 0 L 54.446221511395436 80.26698445791816 M 90.03198720511796 57.810633620833556 l 7.1171531387445 0 L 97.14914034386246 72.49469200680072 l -7.1171531387445 0 L 90.03198720511796 57.810633620833556 M 107.82487005197919 66.732414283747 l 7.1171531387445 0 L 114.94202319072369 84.18931397647262 l -7.1171531387445 0 L 107.82487005197919 66.732414283747 M 125.61775289884046 68.00120138625712 l 7.1171531387445 0 L 132.73490603758498 79.28725998062392 l -7.1171531387445 0 L 125.61775289884046 68.00120138625712 M 152.30707716913233 68.25645256613527 l 7.1171531387445 0 L 159.42423030787683 80.21440009069134 l -7.1171531387445 0 L 152.30707716913233 68.25645256613527 M 170.09996001599356 74.70939214126729 l 7.1171531387445 0 L 177.21711315473806 75.84414461867732 l -7.1171531387445 0 L 170.09996001599356 74.70939214126729 M 178.9964014394242 75.84424554836491 l 7.1171531387445 0 L 186.1135545781687 79.28382837124637 l -7.1171531387445 0 L 178.9964014394242 75.84424554836491 M 187.89284286285485 79.28382837124637 l 7.1171531387445 0 L 195.00999600159935 85.0524646646173 l -7.1171531387445 0 L 187.89284286285485 79.28382837124637 M 232.37504998000796 53.045137492274336 l 7.1171531387445 0 L 239.49220311875246 73.18283061668964 l -7.1171531387445 0 L 232.37504998000796 53.045137492274336 M 250.16793282686922 66.65469842431395 l 7.1171531387445 0 L 257.28508596561375 74.24884997686085 l -7.1171531387445 0 L 250.16793282686922 66.65469842431395 M 285.7536985205918 57.36442347206278 l 7.1171531387445 0 L 292.8708516593363 59.86515834111802 l -7.1171531387445 0 L 285.7536985205918 57.36442347206278 M 294.65013994402244 59.86525927080558 l 7.1171531387445 0 L 301.76729308276697 69.15634166055739 l -7.1171531387445 0 L 294.65013994402244 59.86525927080558 M 303.54658136745303 69.15634166055739 l 7.1171531387445 0 L 310.66373450619756 70.11355881752229 l -7.1171531387445 0 L 303.54658136745303 69.15634166055739 M 312.4430227908837 70.11355881752229 l 7.1171531387445 0 L 319.5601759296282 80.38870566113403 l -7.1171531387445 0 L 312.4430227908837 70.11355881752229 M 321.3394642143143 80.38880659082164 l 7.1171531387445 0 L 328.45661735305885 87.12253255678837 l -7.1171531387445 0 L 321.3394642143143 80.38880659082164 M 330.23590563774496 87.12243162710081 l 7.1171531387445 0 L 337.3530587764895 105.79624056292282 l -7.1171531387445 0 L 330.23590563774496 87.12243162710081 M 339.13234706117555 105.79624056292282 l 7.1171531387445 0 L 346.2495001999201 147.04741503123228 l -7.1171531387445 0 L 339.13234706117555 105.79624056292282 M 348.02878848460614 147.0690139843734 l 7.1171531387445 0 L 355.14594162335067 150.5900470651282 l -7.1171531387445 0 L 348.02878848460614 147.0690139843734 M 365.8216713314674 146.07536121019376 l 7.1171531387445 0 L 372.93882447021196 168.1023571563327 l -7.1171531387445 0 L 365.8216713314674 146.07536121019376 M 383.61455417832866 167.42108176519886 l 7.1171531387445 0 L 390.7317073170732 182.5405508233662 l -7.1171531387445 0 L 383.61455417832866 167.42108176519886 M 401.40743702518995 166.35940238159344 l 7.1171531387445 0 L 408.5245901639345 166.36051260815677 l -7.1171531387445 0 L 401.40743702518995 166.35940238159344 M 419.20031987205124 164.85040262265392 l 7.1171531387445 0 L 426.31747301079577 172.27398300319837 l -7.1171531387445 0 L 419.20031987205124 164.85040262265392 M 454.7860855657737 157.10233329655455 l 7.1171531387445 0 L 461.90323870451823 161.6755583702827 l -7.1171531387445 0 L 454.7860855657737 157.10233329655455 M 463.68252698920435 161.6754574405951 l 7.1171531387445 0 L 470.7996801279489 164.65813156782278 l -7.1171531387445 0 L 463.68252698920435 161.6754574405951 M 472.57896841263494 164.65803063813522 l 7.1171531387445 0 L 479.69612155137946 169.3137152666124 l -7.1171531387445 0 L 472.57896841263494 164.65803063813522 M 481.47540983606564 169.31381619630002 l 7.1171531387445 0 L 488.59256297481016 170.9112303615556 l -7.1171531387445 0 L 481.47540983606564 169.31381619630002 M 490.3718512594962 170.91133129124316 l 7.1171531387445 0 L 497.48900439824075 172.7360391129185 l -7.1171531387445 0 L 490.3718512594962 170.91133129124316 M 499.2682926829268 172.7360391129185 l 7.1171531387445 0 L 506.38544582167134 179.42172254759936 l -7.1171531387445 0 L 499.2682926829268 172.7360391129185 M 508.16473410635746 179.42172254759936 l 7.1171531387445 0 L 515.281887245102 179.6941317743653 l -7.1171531387445 0 L 508.16473410635746 179.42172254759936 M 534.8540583766493 169.7636598138235 l 7.1171531387445 0 L 541.9712115153937 170.37811975178238 l -7.1171531387445 0 L 534.8540583766493 169.7636598138235 M 561.5433826469413 155.75179314710834 l 7.1171531387445 0 L 568.6605357856857 156.0570045223363 l -7.1171531387445 0 L 561.5433826469413 155.75179314710834 M 570.4398240703717 156.0570045223363 l 7.1171531387445 0 L 577.5569772091162 156.08647599110833 l -7.1171531387445 0 L 570.4398240703717 156.0570045223363 M 579.3362654938024 156.0832462411059 l 7.1171531387445 0 L 586.4534186325469 163.4478836841064 l -7.1171531387445 0 L 579.3362654938024 156.0832462411059 M 588.232706917233 163.46161012161664 l 7.1171531387445 0 L 595.3498600559775 172.52004958150715 l -7.1171531387445 0 L 588.232706917233 163.46161012161664 M 597.1291483406637 172.52004958150715 l 7.1171531387445 0 L 604.2463014794082 178.92767172691785 l -7.1171531387445 0 L 597.1291483406637 172.52004958150715 M 641.6113554578168 160.0856130019077 l 7.1171531387445 0 L 648.7285085965613 164.09696250490367 l -7.1171531387445 0 L 641.6113554578168 160.0856130019077 M 668.3006797281087 137.85201398530197 l 7.1171531387445 0 L 675.4178328668531 139.6201002522475 l -7.1171531387445 0 L 668.3006797281087 137.85201398530197 M 677.1971211515394 139.6201002522475 l 7.1171531387445 0 L 684.3142742902838 140.33781126059606 l -7.1171531387445 0 L 677.1971211515394 139.6201002522475 M 686.09356257497 140.33781126059606 l 7.1171531387445 0 L 693.2107157137144 145.05486113911908 l -7.1171531387445 0 L 686.09356257497 140.33781126059606 M 694.9900039984005 145.05486113911908 l 7.1171531387445 0 L 702.107157137145 147.4141935158812 l -7.1171531387445 0 L 694.9900039984005 145.05486113911908 M 712.7828868452618 146.14187387430596 l 7.1171531387445 0 L 719.9000399840063 158.92189370416352 l -7.1171531387445 0 L 712.7828868452618 146.14187387430596 M 721.6793282686924 158.92189370416352 l 7.1171531387445 0 L 728.7964814074369 159.48942133739993 l -7.1171531387445 0 L 721.6793282686924 158.92189370416352 M 748.3686525389844 133.34277833349663 l 7.1171531387445 0 L 755.4858056777289 134.0644255996606 l -7.1171531387445 0 L 748.3686525389844 133.34277833349663 M 757.265093962415 134.0287974199465 l 7.1171531387445 0 L 764.3822471011595 135.3789338506424 l -7.1171531387445 0 L 757.265093962415 134.0287974199465 M 766.1615353858456 135.36752879594638 l 7.1171531387445 0 L 773.27868852459 138.9133905798447 l -7.1171531387445 0 L 766.1615353858456 135.36752879594638 M 775.0579768092763 138.88270795482177 l 7.1171531387445 0 L 782.1751299480208 139.168843619098 l -7.1171531387445 0 L 775.0579768092763 138.88270795482177 M 783.9544182327068 139.18004681441883 l 7.1171531387445 0 L 791.0715713714512 141.9970953243353 l -7.1171531387445 0 L 783.9544182327068 139.18004681441883 M 792.8508596561375 142.01586824622433 l 7.1171531387445 0 L 799.9680127948819 143.70704609123746 l -7.1171531387445 0 L 792.8508596561375 142.01586824622433 M 801.747301079568 143.72178182562345 l 7.1171531387445 0 L 808.8644542183125 145.67911125677284 l -7.1171531387445 0 L 801.747301079568 143.72178182562345 M 819.5401839264293 138.7091088921921 l 7.1171531387445 0 L 826.6573370651738 142.33601721521347 l -7.1171531387445 0 L 819.5401839264293 138.7091088921921 M 846.2295081967213 133.68866437281747 l 7.1171531387445 0 L 853.3466613354658 140.36041951061293 l -7.1171531387445 0 L 846.2295081967213 133.68866437281747 M 864.0223910435824 132.24466333267648 l 7.1171531387445 0 L 871.1395441823269 132.44309109844968 l -7.1171531387445 0 L 864.0223910435824 132.24466333267648"></path><path class="candle body equal"></path><path class="candle wick up" d="M 40.21191523390643 44.385975876431985 L 40.21191523390643 60.9575203497464 M 40.21191523390643 70.47387780216641 L 40.21191523390643 73.94414325007075 M 66.90123950419832 60.28865931018433 L 66.90123950419832 78.41886094872532 M 66.90123950419832 81.01588273972746 L 66.90123950419832 83.82243456213614 M 75.79768092762893 67.75846548763832 L 75.79768092762893 70.3476147630096 M 75.79768092762893 78.41886094872532 L 75.79768092762893 85.05044607086577 M 84.69412235105956 56.487344487032715 L 84.69412235105956 57.810633620833556 M 84.69412235105956 70.3476147630096 L 84.69412235105956 76.47142262695832 M 102.48700519792082 63.26608509365809 L 102.48700519792082 66.732414283747 M 102.48700519792082 72.49469200680072 L 102.48700519792082 76.77037636155659 M 120.27988804478207 65.72059416580379 L 120.27988804478207 68.00110045656956 M 120.27988804478207 84.18921304678504 L 120.27988804478207 84.43093964852808 M 138.07277089164333 74.69324339125525 L 138.07277089164333 76.82407095534668 M 138.07277089164333 79.28725998062392 L 138.07277089164333 81.84814894347407 M 146.96921231507397 66.2978110490474 L 146.96921231507397 68.2563516364477 M 146.96921231507397 76.82397002565912 L 146.96921231507397 78.74123037084108 M 164.7620951619352 72.77880907732539 L 164.7620951619352 74.70939214126729 M 164.7620951619352 80.21450102037895 L 164.7620951619352 84.6568202893218 M 200.34786085565773 78.6313179410715 L 200.34786085565773 80.99983491940297 M 200.34786085565773 85.0523637349297 L 200.34786085565773 86.86718044722267 M 209.24430227908834 75.38360245427087 L 209.24430227908834 76.59152895517305 M 209.24430227908834 80.99983491940297 L 209.24430227908834 82.93889607710123 M 218.14074370251896 48.79650229378862 L 218.14074370251896 53.71965059434058 M 218.14074370251896 76.59152895517305 L 218.14074370251896 78.29199233144308 M 227.0371851259496 47.01004682370436 L 227.0371851259496 53.04523842196187 M 227.0371851259496 53.719549664653016 L 227.0371851259496 59.11141543430509 M 244.83006797281087 64.26902339909466 L 244.83006797281087 66.65479935400154 M 244.83006797281087 73.18272968700208 L 244.83006797281087 75.31527305578234 M 262.6229508196721 71.33531268562228 L 262.6229508196721 72.59531890531335 M 262.6229508196721 74.24884997686085 L 262.6229508196721 76.42095778317064 M 271.51939224310274 69.31550777786376 L 271.51939224310274 72.03848981895999 M 271.51939224310274 72.59541983500095 L 271.51939224310274 75.95244217344572 M 280.4158336665334 53.402529515978756 L 280.4158336665334 57.36442347206278 M 280.4158336665334 72.03859074864755 L 280.4158336665334 72.33098405355345 M 360.483806477409 143.89245392731343 L 360.483806477409 146.07536121019376 M 360.483806477409 150.58994613544064 L 360.483806477409 171.02618927570393 M 378.2766893242703 158.37152411781497 L 378.2766893242703 167.42108176519886 M 378.2766893242703 168.10952316415057 L 378.2766893242703 169.66323477468598 M 396.06957217113154 163.91740859070705 L 396.06957217113154 166.35940238159344 M 396.06957217113154 182.5405508233662 L 396.06957217113154 192.73828459660766 M 413.86245501799283 154.76258127918206 L 413.86245501799283 164.8503016929663 M 413.86245501799283 166.36041167846918 L 413.86245501799283 168.63637613329402 M 431.65533786485406 159.70813597037576 L 431.65533786485406 160.94825904161445 M 431.65533786485406 172.2738820735108 L 431.65533786485406 173.26228650393654 M 440.5517792882847 156.42378300698527 L 440.5517792882847 159.66079994690293 M 440.5517792882847 160.94835997130207 L 440.5517792882847 164.7170745053668 M 449.44822071171535 155.85766838937494 L 449.44822071171535 157.10223236686699 M 449.44822071171535 159.66090087659046 L 449.44822071171535 163.0022791134611 M 520.6197520991603 175.70922584951407 L 520.6197520991603 179.05807288326523 M 520.6197520991603 179.69403084467774 L 520.6197520991603 184.4560953638594 M 529.5161935225909 168.57975457856426 L 529.5161935225909 169.7636598138235 M 529.5161935225909 179.05807288326523 L 529.5161935225909 181.68749310397908 M 547.3090763694522 165.3377920839554 L 547.3090763694522 166.45518465510247 M 547.3090763694522 170.37801882209482 L 547.3090763694522 174.56246273928258 M 556.2055177928828 153.60088057518942 L 556.2055177928828 155.75189407679596 M 556.2055177928828 166.45518465510247 L 556.2055177928828 169.61256807152313 M 609.5841663334666 168.45258317221928 L 609.5841663334666 169.78223087633737 M 609.5841663334666 178.9021365159613 L 609.5841663334666 183.1446150035049 M 618.4806077568971 163.06909456663598 L 618.4806077568971 166.20962272523155 M 618.4806077568971 169.78223087633737 L 618.4806077568971 176.027759943502 M 627.3770491803277 160.04120393937453 L 627.3770491803277 163.77519866091333 M 627.3770491803277 166.20962272523155 L 627.3770491803277 168.29432542210105 M 636.2734906037584 156.11564467081763 L 636.2734906037584 160.0856130019077 M 636.2734906037584 163.77519866091333 L 636.2734906037584 167.32217067137498 M 654.0663734506197 144.11823363841953 L 654.0663734506197 147.6008125082081 M 654.0663734506197 164.08263048926796 L 654.0663734506197 164.45738241923536 M 662.9628148740503 133.79948516977524 L 662.9628148740503 137.87078690719102 M 662.9628148740503 147.6008125082081 L 662.9628148740503 156.21051857713846 M 707.4450219912034 141.72609911319543 L 707.4450219912034 146.11613680397423 M 707.4450219912034 147.43932500808748 L 707.4450219912034 149.371422017343 M 734.1343462614954 140.73708910464424 L 734.1343462614954 142.3537808402267 M 734.1343462614954 159.48942133739993 L 734.1343462614954 161.63054372962407 M 743.0307876849259 129.76512369801205 L 743.0307876849259 133.3661940210141 M 743.0307876849259 142.33500791833768 L 743.0307876849259 146.09140903051826 M 814.202319072371 137.10129896911627 L 814.202319072371 138.72061487657572 M 814.202319072371 145.68486424896463 L 814.202319072371 146.04276092110695 M 831.9952019192323 137.81648673527542 L 831.9952019192323 140.1137473541787 M 831.9952019192323 142.33601721521347 L 831.9952019192323 143.4421056613521 M 840.8916433426629 129.30811407267075 L 840.8916433426629 133.69855548219985 M 840.8916433426629 140.1137473541787 L 840.8916433426629 140.31701974495553 M 858.6845261895241 129.49988047906396 L 858.6845261895241 132.24466333267648 M 858.6845261895241 140.3465921434151 L 858.6845261895241 145.25813352989593 M 876.4774090363853 127.17345118045141 L 876.4774090363853 127.70656179022458 M 876.4774090363853 132.45621195783448 L 876.4774090363853 135.98965939016102 M 885.3738504598159 122.81833516157369 L 885.3738504598159 126.86511098490863 M 885.3738504598159 127.7265458683645 L 885.3738504598159 128.84161705669732" style="stroke-width: 1px;"></path><path class="candle wick down" d="M 4.626149540183927 3.8461538461538396 L 4.626149540183927 5.084157393953461 M 4.626149540183927 10.526286148018073 L 4.626149540183927 18.154249145902668 M 13.522590963614554 9.188664998581487 L 13.522590963614554 10.526286148018073 M 13.522590963614554 15.99041757397407 L 13.522590963614554 22.928223368218255 M 22.41903238704518 15.568228690846212 L 22.41903238704518 15.99031664428648 M 22.41903238704518 30.463633842596238 L 22.41903238704518 33.73829755597956 M 31.315473810475808 28.397098489490304 L 31.315473810475808 30.46373477228383 M 31.315473810475808 70.4528844271507 L 31.315473810475808 70.8866802243497 M 49.10835665733706 49.39612556767398 L 49.10835665733706 60.957419420058784 M 49.10835665733706 80.26698445791816 L 49.10835665733706 93.57900467098554 M 58.004798080767685 68.77048746495669 L 58.004798080767685 80.26698445791816 M 58.004798080767685 81.0157818100399 L 58.004798080767685 104.5298757729145 M 93.5905637744902 57.810532691145966 L 93.5905637744902 57.810633620833556 M 93.5905637744902 72.49469200680072 L 93.5905637744902 80.43755562992052 M 111.38344662135144 64.05717198487392 L 111.38344662135144 66.732414283747 M 111.38344662135144 84.18931397647262 L 111.38344662135144 84.80347112536882 M 129.1763294682127 63.37751146874129 L 129.1763294682127 68.00120138625712 M 129.1763294682127 79.28725998062392 L 129.1763294682127 84.04114919511197 M 155.8656537385046 64.45564239142158 L 155.8656537385046 68.25645256613527 M 155.8656537385046 80.21440009069134 L 155.8656537385046 82.66497290502166 M 173.65853658536582 68.96487804322686 L 173.65853658536582 74.70939214126729 M 173.65853658536582 75.84414461867732 L 173.65853658536582 78.34659529242136 M 182.55497800879647 72.36721781139302 L 182.55497800879647 75.84424554836491 M 182.55497800879647 79.28382837124637 L 182.55497800879647 91.21159791921738 M 191.4514194322271 77.30247767445402 L 191.4514194322271 79.28382837124637 M 191.4514194322271 85.0524646646173 L 191.4514194322271 88.55371552660726 M 235.93362654938022 51.20902461590296 L 235.93362654938022 53.045137492274336 M 235.93362654938022 73.18283061668964 L 235.93362654938022 78.27806403455766 M 253.72650939624148 64.16809371151928 L 253.72650939624148 66.65469842431395 M 253.72650939624148 74.24884997686085 L 253.72650939624148 78.46619697219816 M 289.31227508996403 55.17929573605579 L 289.31227508996403 57.36442347206278 M 289.31227508996403 59.86515834111802 L 289.31227508996403 79.1060911914261 M 298.2087165133947 57.82748887865864 L 298.2087165133947 59.86525927080558 M 298.2087165133947 69.15634166055739 L 298.2087165133947 72.79879315546532 M 307.10515793682526 64.15800074276174 L 307.10515793682526 69.15634166055739 M 307.10515793682526 70.11355881752229 L 307.10515793682526 71.78727582658487 M 316.0015993602559 67.35949043265285 L 316.0015993602559 70.11355881752229 M 316.0015993602559 80.38870566113403 L 316.0015993602559 82.82999294420739 M 324.89804078368655 76.87100326006926 L 324.89804078368655 80.38880659082164 M 324.89804078368655 87.12253255678837 L 324.89804078368655 90.3998204420486 M 333.7944822071172 85.90875213400683 L 333.7944822071172 87.12243162710081 M 333.7944822071172 105.79624056292282 L 333.7944822071172 105.94289139896983 M 342.6909236305478 102.55326877143821 L 342.6909236305478 105.79624056292282 M 342.6909236305478 147.04741503123228 L 342.6909236305478 152.716030004216 M 351.5873650539784 138.21132367307032 L 351.5873650539784 147.0690139843734 M 351.5873650539784 150.5900470651282 L 351.5873650539784 163.61411487954302 M 369.38024790083966 141.91695715240047 L 369.38024790083966 146.07536121019376 M 369.38024790083966 168.1023571563327 L 369.38024790083966 169.81119769667148 M 387.1731307477009 164.15852961432464 L 387.1731307477009 167.42108176519886 M 387.1731307477009 182.5405508233662 L 387.1731307477009 196.15384615384616 M 404.9660135945622 161.15143050270373 L 404.9660135945622 166.35940238159344 M 404.9660135945622 166.36051260815677 L 404.9660135945622 175.816211318344 M 422.7588964414235 163.06909456663598 L 422.7588964414235 164.85040262265392 M 422.7588964414235 172.27398300319837 L 422.7588964414235 174.4690018485878 M 458.34466213514594 153.09724143418825 L 458.34466213514594 157.10233329655455 M 458.34466213514594 161.6755583702827 L 458.34466213514594 162.41577669896054 M 467.2411035585766 156.61110850712518 L 467.2411035585766 161.6754574405951 M 467.2411035585766 164.65813156782278 L 467.2411035585766 167.00535238207587 M 476.13754498200717 159.9190790174083 L 476.13754498200717 164.65803063813522 M 476.13754498200717 169.3137152666124 L 476.13754498200717 170.11388582971009 M 485.0339864054379 167.789475124849 L 485.0339864054379 169.31381619630002 M 485.0339864054379 170.9112303615556 L 485.0339864054379 173.617054355764 M 493.93042782886846 170.34531760332038 L 493.93042782886846 170.91133129124316 M 493.93042782886846 172.7360391129185 L 493.93042782886846 186.0205055212778 M 502.82686925229905 162.88388858993517 L 502.82686925229905 172.7360391129185 M 502.82686925229905 179.42172254759936 L 502.82686925229905 182.49805942489698 M 511.7233106757297 177.52838253837277 L 511.7233106757297 179.42172254759936 M 511.7233106757297 179.6941317743653 L 511.7233106757297 182.47777255769435 M 538.4126349460215 164.5830398802667 L 538.4126349460215 169.7636598138235 M 538.4126349460215 170.37811975178238 L 538.4126349460215 179.1734355161639 M 565.1019592163135 146.64409999968106 L 565.1019592163135 155.75179314710834 M 565.1019592163135 156.0570045223363 L 565.1019592163135 160.14960242383052 M 573.998400639744 152.16868830849472 L 573.998400639744 156.0570045223363 M 573.998400639744 156.08647599110833 L 573.998400639744 158.80865059470398 M 582.8948420631747 155.92680522536406 L 582.8948420631747 156.0832462411059 M 582.8948420631747 163.4478836841064 L 582.8948420631747 165.54187191223284 M 591.7912834866053 163.3872249418736 L 591.7912834866053 163.46161012161664 M 591.7912834866053 172.52004958150715 L 591.7912834866053 173.4120661602984 M 600.687724910036 171.55304224484746 L 600.687724910036 172.52004958150715 M 600.687724910036 178.92767172691785 L 600.687724910036 179.82342270414938 M 645.169932027189 155.15075685759695 L 645.169932027189 160.0856130019077 M 645.169932027189 164.09696250490367 L 645.169932027189 164.58293895057915 M 671.8592562974809 128.98776324430645 L 671.8592562974809 137.85201398530197 M 671.8592562974809 139.6201002522475 L 671.8592562974809 142.82068157495047 M 680.7556977209116 137.4049963990306 L 680.7556977209116 139.6201002522475 M 680.7556977209116 140.33781126059606 L 680.7556977209116 148.52048382139498 M 689.6521391443422 134.23863024041572 L 689.6521391443422 140.33781126059606 M 689.6521391443422 145.05486113911908 L 689.6521391443422 146.92034455457488 M 698.5485805677728 141.86608858986247 L 698.5485805677728 145.05486113911908 M 698.5485805677728 147.4141935158812 L 698.5485805677728 152.62721187914968 M 716.3414634146341 145.24491174082354 L 716.3414634146341 146.14187387430596 M 716.3414634146341 158.92189370416352 L 716.3414634146341 159.53655550149762 M 725.2379048380647 158.54926129763524 L 725.2379048380647 158.92189370416352 M 725.2379048380647 159.48942133739993 L 725.2379048380647 165.02208402121963 M 751.9272291083566 127.31313786805575 L 751.9272291083566 133.34277833349663 M 751.9272291083566 134.0644255996606 L 751.9272291083566 137.69506832112228 M 760.8236705317872 125.03878828823208 L 760.8236705317872 134.0287974199465 M 760.8236705317872 135.3789338506424 L 760.8236705317872 136.80466661733223 M 769.7201119552178 129.814579244924 L 769.7201119552178 135.36752879594638 M 769.7201119552178 138.9133905798447 L 769.7201119552178 139.57962744752976 M 778.6165533786485 136.72967585946373 L 778.6165533786485 138.88270795482177 M 778.6165533786485 139.168843619098 L 778.6165533786485 143.38780548943652 M 787.512994802079 137.23220477390157 L 787.512994802079 139.18004681441883 M 787.512994802079 141.9970953243353 L 787.512994802079 145.3622929674737 M 796.4094362255097 135.33684617092345 L 796.4094362255097 142.01586824622433 M 796.4094362255097 143.70704609123746 L 796.4094362255097 145.0912967563338 M 805.3058776489403 139.61989839287236 L 805.3058776489403 143.72178182562345 M 805.3058776489403 145.67911125677284 L 805.3058776489403 147.9296414303287 M 823.0987604958016 138.29731576688454 L 823.0987604958016 138.7091088921921 M 823.0987604958016 142.33601721521347 L 823.0987604958016 142.78707198898783 M 849.7880847660936 132.4545970828333 L 849.7880847660936 133.68866437281747 M 849.7880847660936 140.36041951061293 L 849.7880847660936 143.23641095807344 M 867.5809676129546 122.51009589571846 L 867.5809676129546 132.24466333267648 M 867.5809676129546 132.44309109844968 L 867.5809676129546 133.27333870844475" style="stroke-width: 1px;"></path><path class="candle wick equal" style="stroke-width: 1px;"></path></g></g><g class="x axis" transform="translate(0,200)" fill="none" font-size="10" font-family="sans-serif" text-anchor="middle"><path class="domain" stroke="#000" d="M0.5,6V0.5H890.5V6"></path><g class="tick" opacity="1" transform="translate(31.315473810475808,0)"><line stroke="#000" y2="6" x1="0.5" x2="0.5"></line><text fill="#000" y="9" x="0.5" dy="0.71em">May  9</text></g><g class="tick" opacity="1" transform="translate(93.5905637744902,0)"><line stroke="#000" y2="6" x1="0.5" x2="0.5"></line><text fill="#000" y="9" x="0.5" dy="0.71em">May 16</text></g><g class="tick" opacity="1" transform="translate(155.8656537385046,0)"><line stroke="#000" y2="6" x1="0.5" x2="0.5"></line><text fill="#000" y="9" x="0.5" dy="0.71em">May 23</text></g><g class="tick" opacity="1" transform="translate(218.14074370251896,0)"><line stroke="#000" y2="6" x1="0.5" x2="0.5"></line><text fill="#000" y="9" x="0.5" dy="0.71em">May 30</text></g><g class="tick" opacity="1" transform="translate(280.4158336665334,0)"><line stroke="#000" y2="6" x1="0.5" x2="0.5"></line><text fill="#000" y="9" x="0.5" dy="0.71em">Jun  6</text></g><g class="tick" opacity="1" transform="translate(342.6909236305478,0)"><line stroke="#000" y2="6" x1="0.5" x2="0.5"></line><text fill="#000" y="9" x="0.5" dy="0.71em">Jun 13</text></g><g class="tick" opacity="1" transform="translate(404.9660135945622,0)"><line stroke="#000" y2="6" x1="0.5" x2="0.5"></line><text fill="#000" y="9" x="0.5" dy="0.71em">Jun 20</text></g><g class="tick" opacity="1" transform="translate(467.2411035585766,0)"><line stroke="#000" y2="6" x1="0.5" x2="0.5"></line><text fill="#000" y="9" x="0.5" dy="0.71em">Jun 27</text></g><g class="tick" opacity="1" transform="translate(529.5161935225909,0)"><line stroke="#000" y2="6" x1="0.5" x2="0.5"></line><text fill="#000" y="9" x="0.5" dy="0.71em">Jul  4</text></g><g class="tick" opacity="1" transform="translate(591.7912834866053,0)"><line stroke="#000" y2="6" x1="0.5" x2="0.5"></line><text fill="#000" y="9" x="0.5" dy="0.71em">Jul 11</text></g><g class="tick" opacity="1" transform="translate(654.0663734506197,0)"><line stroke="#000" y2="6" x1="0.5" x2="0.5"></line><text fill="#000" y="9" x="0.5" dy="0.71em">Jul 18</text></g><g class="tick" opacity="1" transform="translate(716.3414634146341,0)"><line stroke="#000" y2="6" x1="0.5" x2="0.5"></line><text fill="#000" y="9" x="0.5" dy="0.71em">Jul 25</text></g><g class="tick" opacity="1" transform="translate(778.6165533786485,0)"><line stroke="#000" y2="6" x1="0.5" x2="0.5"></line><text fill="#000" y="9" x="0.5" dy="0.71em">Aug  1</text></g><g class="tick" opacity="1" transform="translate(840.8916433426629,0)"><line stroke="#000" y2="6" x1="0.5" x2="0.5"></line><text fill="#000" y="9" x="0.5" dy="0.71em">Aug  8</text></g></g><g class="y axis" fill="none" font-size="10" font-family="sans-serif" text-anchor="end"><path class="domain" stroke="#000" d="M-6,200.5H0.5V0.5H-6"></path><g class="tick" opacity="1" transform="translate(0,192.33870396349673)"><line stroke="#000" x2="-6" y1="0.5" y2="0.5"></line><text fill="#000" x="-9" y="0.5" dy="0.32em">18,000</text></g><g class="tick" opacity="1" transform="translate(0,172.15276644842035)"><line stroke="#000" x2="-6" y1="0.5" y2="0.5"></line><text fill="#000" x="-9" y="0.5" dy="0.32em">20,000</text></g><g class="tick" opacity="1" transform="translate(0,151.96682893334398)"><line stroke="#000" x2="-6" y1="0.5" y2="0.5"></line><text fill="#000" x="-9" y="0.5" dy="0.32em">22,000</text></g><g class="tick" opacity="1" transform="translate(0,131.7808914182676)"><line stroke="#000" x2="-6" y1="0.5" y2="0.5"></line><text fill="#000" x="-9" y="0.5" dy="0.32em">24,000</text></g><g class="tick" opacity="1" transform="translate(0,111.59495390319123)"><line stroke="#000" x2="-6" y1="0.5" y2="0.5"></line><text fill="#000" x="-9" y="0.5" dy="0.32em">26,000</text></g><g class="tick" opacity="1" transform="translate(0,91.40901638811485)"><line stroke="#000" x2="-6" y1="0.5" y2="0.5"></line><text fill="#000" x="-9" y="0.5" dy="0.32em">28,000</text></g><g class="tick" opacity="1" transform="translate(0,71.22307887303847)"><line stroke="#000" x2="-6" y1="0.5" y2="0.5"></line><text fill="#000" x="-9" y="0.5" dy="0.32em">30,000</text></g><g class="tick" opacity="1" transform="translate(0,51.0371413579621)"><line stroke="#000" x2="-6" y1="0.5" y2="0.5"></line><text fill="#000" x="-9" y="0.5" dy="0.32em">32,000</text></g><g class="tick" opacity="1" transform="translate(0,30.851203842885724)"><line stroke="#000" x2="-6" y1="0.5" y2="0.5"></line><text fill="#000" x="-9" y="0.5" dy="0.32em">34,000</text></g><g class="tick" opacity="1" transform="translate(0,10.66526632780932)"><line stroke="#000" x2="-6" y1="0.5" y2="0.5"></line><text fill="#000" x="-9" y="0.5" dy="0.32em">36,000</text></g><text transform="rotate(-90)" y="6" dy=".71em" style="text-anchor: end;">Price ($)</text></g></g></svg>