<?xml version="1.0" encoding="utf-8"?>
<!DOCTYPE svg PUBLIC "-//W3C//DTD SVG 1.1//EN" "http://www.w3.org/Graphics/SVG/1.1/DTD/svg11.dtd">
<svg version="1.1" xmlns="http://www.w3.org/2000/svg" width="960" height="250"><g transform="translate(50,20)"><style>.axis path,.axis line{fill:none;stroke:#000;shape-rendering:crispEdges;}path.candle{stroke:#000000;}path.candle.body{stroke-width:0;}path.candle.up{fill:#00AA00;stroke:#00AA00;}path.candle.down{fill:#FF0000;stroke:#FF0000;}</style><g class="candlestick"><g class="data"><path class="candle body up" d="M 1.0675729708116766 26.104759960083243 l 7.1171531387445 0 L 8.184726109556177 17.872564000709644 l -7.1171531387445 0 L 1.0675729708116766 26.104759960083243 M 9.964014394242305 17.838092362824227 l 7.1171531387445 0 L 17.081167532986804 6.131850411703397 l -7.1171531387445 0 L 9.964014394242305 17.838092362824227 M 36.65333866453418 30.6994888295863 l 7.1171531387445 0 L 43.77049180327868 21.49683824151296 l -7.1171531387445 0 L 36.65333866453418 30.6994888295863 M 54.446221511395436 24.355147014158916 l 7.1171531387445 0 L 61.563374650139934 11.43133276686359 l -7.1171531387445 0 L 54.446221511395436 24.355147014158916 M 72.23910435825668 48.57445165908871 l 7.1171531387445 0 L 79.35625749700118 41.500602033679115 l -7.1171531387445 0 L 72.23910435825668 48.57445165908871 M 81.13554578168731 41.53294579268268 l 7.1171531387445 0 L 88.25269892043181 23.386323759268578 l -7.1171531387445 0 L 81.13554578168731 41.53294579268268 M 90.03198720511796 23.386252829972534 l 7.1171531387445 0 L 97.14914034386246 19.830141642683344 l -7.1171531387445 0 L 90.03198720511796 23.386252829972534 M 107.82487005197919 25.686702689102702 l 7.1171531387445 0 L 114.94202319072369 24.03043269679398 l -7.1171531387445 0 L 107.82487005197919 25.686702689102702 M 143.4106357457017 80.99807705004037 l 7.1171531387445 0 L 150.5277888844462 79.26832430701296 l -7.1171531387445 0 L 143.4106357457017 80.99807705004037 M 152.30707716913233 79.26839523630902 l 7.1171531387445 0 L 159.42423030787683 71.85202804022327 l -7.1171531387445 0 L 152.30707716913233 79.26839523630902 M 161.20351859256294 71.85209896951929 l 7.1171531387445 0 L 168.32067173130744 70.80915460024576 l -7.1171531387445 0 L 161.20351859256294 71.85209896951929 M 196.78928428628546 95.26848398304423 l 7.1171531387445 0 L 203.90643742502996 79.31329348071534 l -7.1171531387445 0 L 196.78928428628546 95.26848398304423 M 205.68572570971608 79.31329348071534 l 7.1171531387445 0 L 212.80287884846058 74.60422658596273 l -7.1171531387445 0 L 205.68572570971608 79.31329348071534 M 223.47860855657734 98.37362670598075 l 7.1171531387445 0 L 230.59576169532184 86.7375338286638 l -7.1171531387445 0 L 223.47860855657734 98.37362670598075 M 232.37504998000796 86.78243207307013 l 7.1171531387445 0 L 239.49220311875246 83.03715245318755 l -7.1171531387445 0 L 232.37504998000796 86.78243207307013 M 259.06437425029986 102.40900714675072 l 7.1171531387445 0 L 266.1815273890444 97.43934601827186 l -7.1171531387445 0 L 259.06437425029986 102.40900714675072 M 276.85725709716115 98.52626655110299 l 7.1171531387445 0 L 283.9744102359057 96.8741813872618 l -7.1171531387445 0 L 276.85725709716115 98.52626655110299 M 285.7536985205918 96.87411045796578 l 7.1171531387445 0 L 292.8708516593363 82.86053850599696 l -7.1171531387445 0 L 285.7536985205918 96.87411045796578 M 303.54658136745303 85.00054629743825 l 7.1171531387445 0 L 310.66373450619756 69.03691520887813 l -7.1171531387445 0 L 303.54658136745303 85.00054629743825 M 330.23590563774496 72.15170431607886 l 7.1171531387445 0 L 337.3530587764895 69.48603951153319 l -7.1171531387445 0 L 330.23590563774496 72.15170431607886 M 365.8216713314674 100.06245324518123 l 7.1171531387445 0 L 372.93882447021196 95.40800190839525 l -7.1171531387445 0 L 365.8216713314674 100.06245324518123 M 383.61455417832866 101.819584696488 l 7.1171531387445 0 L 390.7317073170732 91.13961873006656 l -7.1171531387445 0 L 383.61455417832866 101.819584696488 M 445.8896441423431 134.8048991829427 l 7.1171531387445 0 L 453.00679728108764 134.00155397576154 l -7.1171531387445 0 L 445.8896441423431 134.8048991829427 M 454.7860855657737 134.00155397576154 l 7.1171531387445 0 L 461.90323870451823 132.690213150195 l -7.1171531387445 0 L 454.7860855657737 134.00155397576154 M 472.57896841263494 132.9890382744979 l 7.1171531387445 0 L 479.69612155137946 126.55716970773184 l -7.1171531387445 0 L 472.57896841263494 132.9890382744979 M 481.47540983606564 126.55716970773184 l 7.1171531387445 0 L 488.59256297481016 118.23453889588106 l -7.1171531387445 0 L 481.47540983606564 126.55716970773184 M 499.2682926829268 127.76963509459003 l 7.1171531387445 0 L 506.38544582167134 124.21175067489933 l -7.1171531387445 0 L 499.2682926829268 127.76963509459003 M 508.16473410635746 124.21175067489933 l 7.1171531387445 0 L 515.281887245102 124.03917969758413 l -7.1171531387445 0 L 508.16473410635746 124.21175067489933 M 534.8540583766493 130.29982494366016 l 7.1171531387445 0 L 541.9712115153937 129.23240996724564 l -7.1171531387445 0 L 534.8540583766493 130.29982494366016 M 579.3362654938024 180.87390255001316 l 7.1171531387445 0 L 586.4534186325469 172.55297404126782 l -7.1171531387445 0 L 579.3362654938024 180.87390255001316 M 588.232706917233 172.55297404126782 l 7.1171531387445 0 L 595.3498600559775 169.6037339110723 l -7.1171531387445 0 L 588.232706917233 172.55297404126782 M 597.1291483406637 169.6037339110723 l 7.1171531387445 0 L 604.2463014794082 167.4902536763576 l -7.1171531387445 0 L 597.1291483406637 169.6037339110723 M 614.9220311875249 168.56185348123964 l 7.1171531387445 0 L 622.0391843262694 166.05904234044885 l -7.1171531387445 0 L 614.9220311875249 168.56185348123964 M 623.8184726109555 166.05897141115278 l 7.1171531387445 0 L 630.9356257497 162.11211073186635 l -7.1171531387445 0 L 623.8184726109555 166.05897141115278 M 632.7149140343862 162.11203980257028 l 7.1171531387445 0 L 639.8320671731307 158.9183063888542 l -7.1171531387445 0 L 632.7149140343862 162.11203980257028 M 650.5077968812475 160.94042969024295 l 7.1171531387445 0 L 657.624950019992 156.79000193126285 l -7.1171531387445 0 L 650.5077968812475 160.94042969024295 M 659.4042383046781 156.79000193126285 l 7.1171531387445 0 L 666.5213914434225 155.1750127892614 l -7.1171531387445 0 L 659.4042383046781 156.79000193126285 M 677.1971211515394 167.9296606654524 l 7.1171531387445 0 L 684.3142742902838 164.98439257583624 l -7.1171531387445 0 L 677.1971211515394 167.9296606654524 M 686.09356257497 164.98176819188197 l 7.1171531387445 0 L 693.2107157137144 134.74978711990371 l -7.1171531387445 0 L 686.09356257497 164.98176819188197 M 703.8864454218311 136.1091470789032 l 7.1171531387445 0 L 711.0035985605756 129.02848824107173 l -7.1171531387445 0 L 703.8864454218311 136.1091470789032 M 712.7828868452618 129.02848824107173 l 7.1171531387445 0 L 719.9000399840063 118.67905279429225 l -7.1171531387445 0 L 712.7828868452618 129.02848824107173 M 721.6793282686924 118.67905279429225 l 7.1171531387445 0 L 728.7964814074369 117.23918808426411 l -7.1171531387445 0 L 721.6793282686924 118.67905279429225 M 730.5757696921231 117.23911715496804 l 7.1171531387445 0 L 737.6929228308676 114.90043640526126 l -7.1171531387445 0 L 730.5757696921231 117.23911715496804 M 775.0579768092763 131.34943666676338 l 7.1171531387445 0 L 782.1751299480208 127.92858764706158 l -7.1171531387445 0 L 775.0579768092763 131.34943666676338 M 783.9544182327068 127.92858764706158 l 7.1171531387445 0 L 791.0715713714512 113.67945950287583 l -7.1171531387445 0 L 783.9544182327068 127.92858764706158 M 819.5401839264293 146.09705590366235 l 7.1171531387445 0 L 826.6573370651738 145.35428431531682 l -7.1171531387445 0 L 819.5401839264293 146.09705590366235 M 846.2295081967213 167.13674206479203 l 7.1171531387445 0 L 853.3466613354658 158.46797628816606 l -7.1171531387445 0 L 846.2295081967213 167.13674206479203 M 864.0223910435824 165.42124611027288 l 7.1171531387445 0 L 871.1395441823269 157.78081326793196 l -7.1171531387445 0 L 864.0223910435824 165.42124611027288 M 872.9188324670131 157.77038666141107 l 7.1171531387445 0 L 880.0359856057576 151.4542037765197 l -7.1171531387445 0 L 872.9188324670131 157.77038666141107"></path><path class="candle body down" d="M 18.860455817672932 6.13177948240741 l 7.1171531387445 0 L 25.977608956417434 13.831154569774554 l -7.1171531387445 0 L 18.860455817672932 6.13177948240741 M 27.75689724110356 13.861796025672675 l 7.1171531387445 0 L 34.87405037984806 30.675727515406066 l -7.1171531387445 0 L 27.75689724110356 13.861796025672675 M 45.54978008796481 21.496909170809005 l 7.1171531387445 0 L 52.66693322670931 24.355147014158916 l -7.1171531387445 0 L 45.54978008796481 21.496909170809005 M 63.342662934826066 11.431261837567519 l 7.1171531387445 0 L 70.45981607357056 48.554520526895715 l -7.1171531387445 0 L 63.342662934826066 11.431261837567519 M 98.92842862854857 19.830141642683344 l 7.1171531387445 0 L 106.04558176729307 25.686702689102702 l -7.1171531387445 0 L 98.92842862854857 19.830141642683344 M 116.72131147540982 24.03043269679398 l 7.1171531387445 0 L 123.83846461415432 29.02194004845947 l -7.1171531387445 0 L 116.72131147540982 24.03043269679398 M 125.61775289884046 28.994135764403723 l 7.1171531387445 0 L 132.73490603758498 49.444541333862844 l -7.1171531387445 0 L 125.61775289884046 28.994135764403723 M 134.51419432227107 49.444541333862844 l 7.1171531387445 0 L 141.63134746101557 80.99800612074428 l -7.1171531387445 0 L 134.51419432227107 49.444541333862844 M 170.09996001599356 70.80915460024576 l 7.1171531387445 0 L 177.21711315473806 71.64441799065415 l -7.1171531387445 0 L 170.09996001599356 70.80915460024576 M 178.9964014394242 71.64441799065415 l 7.1171531387445 0 L 186.1135545781687 92.39549284611377 l -7.1171531387445 0 L 178.9964014394242 71.64441799065415 M 187.89284286285485 92.46422333399636 l 7.1171531387445 0 L 195.00999600159935 95.26848398304423 l -7.1171531387445 0 L 187.89284286285485 92.46422333399636 M 214.5821671331467 74.60422658596273 l 7.1171531387445 0 L 221.6993202718912 98.37369763527684 l -7.1171531387445 0 L 214.5821671331467 74.60422658596273 M 241.2714914034386 83.03715245318755 l 7.1171531387445 0 L 248.3886445421831 91.77989748560469 l -7.1171531387445 0 L 241.2714914034386 83.03715245318755 M 250.16793282686922 91.77989748560469 l 7.1171531387445 0 L 257.28508596561375 102.42766155161468 l -7.1171531387445 0 L 250.16793282686922 91.77989748560469 M 267.9608156737305 97.43941694756795 l 7.1171531387445 0 L 275.07796881247504 98.52633748039901 l -7.1171531387445 0 L 267.9608156737305 97.43941694756795 M 294.65013994402244 82.87678131479481 l 7.1171531387445 0 L 301.76729308276697 85.00061722673429 l -7.1171531387445 0 L 294.65013994402244 82.87678131479481 M 312.4430227908837 69.03684427958206 l 7.1171531387445 0 L 319.5601759296282 69.17033321476791 l -7.1171531387445 0 L 312.4430227908837 69.03684427958206 M 321.3394642143143 69.17040414406398 l 7.1171531387445 0 L 328.45661735305885 72.1517752453749 l -7.1171531387445 0 L 321.3394642143143 69.17040414406398 M 339.13234706117555 69.48611044082924 l 7.1171531387445 0 L 346.2495001999201 70.01127094886118 l -7.1171531387445 0 L 339.13234706117555 69.48611044082924 M 348.02878848460614 70.01127094886118 l 7.1171531387445 0 L 355.14594162335067 92.40861476588495 l -7.1171531387445 0 L 348.02878848460614 70.01127094886118 M 356.9252299080368 92.40861476588495 l 7.1171531387445 0 L 364.0423830467813 100.06245324518123 l -7.1171531387445 0 L 356.9252299080368 92.40861476588495 M 374.7181127548981 95.4079309790992 l 7.1171531387445 0 L 381.8352658936426 101.819584696488 l -7.1171531387445 0 L 374.7181127548981 95.4079309790992 M 392.5109956017593 91.13954780077047 l 7.1171531387445 0 L 399.62814874050383 94.23546971521914 l -7.1171531387445 0 L 392.5109956017593 91.13954780077047 M 401.40743702518995 94.23546971521914 l 7.1171531387445 0 L 408.5245901639345 100.19409801866955 l -7.1171531387445 0 L 401.40743702518995 94.23546971521914 M 410.3038784486206 100.19409801866955 l 7.1171531387445 0 L 417.4210315873651 104.54979516044871 l -7.1171531387445 0 L 410.3038784486206 100.19409801866955 M 419.20031987205124 104.54979516044871 l 7.1171531387445 0 L 426.31747301079577 121.43720940090081 l -7.1171531387445 0 L 419.20031987205124 104.54979516044871 M 428.0967612954818 121.43713847160473 l 7.1171531387445 0 L 435.21391443422635 124.05322369820414 l -7.1171531387445 0 L 428.0967612954818 121.43713847160473 M 436.99320271891247 124.05329462750015 l 7.1171531387445 0 L 444.110355857657 134.8048991829427 l -7.1171531387445 0 L 436.99320271891247 124.05329462750015 M 463.68252698920435 132.690213150195 l 7.1171531387445 0 L 470.7996801279489 132.9890382744979 l -7.1171531387445 0 L 463.68252698920435 132.690213150195 M 490.3718512594962 118.23460982517715 l 7.1171531387445 0 L 497.48900439824075 127.75715153848336 l -7.1171531387445 0 L 490.3718512594962 118.23460982517715 M 517.0611755297881 124.03917969758413 l 7.1171531387445 0 L 524.1783286685326 124.12876339850853 l -7.1171531387445 0 L 517.0611755297881 124.03917969758413 M 525.9576169532187 124.12876339850853 l 7.1171531387445 0 L 533.0747700919632 130.29989587295617 l -7.1171531387445 0 L 525.9576169532187 124.12876339850853 M 543.75049980008 129.23240996724564 l 7.1171531387445 0 L 550.8676529388244 134.14149747688884 l -7.1171531387445 0 L 543.75049980008 129.23240996724564 M 552.6469412235106 134.14156840618494 l 7.1171531387445 0 L 559.764094362255 141.0861848541723 l -7.1171531387445 0 L 552.6469412235106 134.14156840618494 M 561.5433826469413 141.0861139248763 l 7.1171531387445 0 L 568.6605357856857 171.12899749355728 l -7.1171531387445 0 L 561.5433826469413 141.0861139248763 M 570.4398240703717 171.12899749355728 l 7.1171531387445 0 L 577.5569772091162 180.87390255001316 l -7.1171531387445 0 L 570.4398240703717 171.12899749355728 M 606.0255897640943 167.4902536763576 l 7.1171531387445 0 L 613.1427429028388 168.54695832906694 l -7.1171531387445 0 L 606.0255897640943 167.4902536763576 M 641.6113554578168 158.91837731815025 l 7.1171531387445 0 L 648.7285085965613 160.94035876094688 l -7.1171531387445 0 L 641.6113554578168 158.91837731815025 M 668.3006797281087 155.1750127892614 l 7.1171531387445 0 L 675.4178328668531 167.92973159474843 l -7.1171531387445 0 L 668.3006797281087 155.1750127892614 M 694.9900039984005 134.76787409039918 l 7.1171531387445 0 L 702.107157137145 136.10921800819926 l -7.1171531387445 0 L 694.9900039984005 134.76787409039918 M 739.4722111155537 114.90050733455733 l 7.1171531387445 0 L 746.5893642542982 121.1229216900567 l -7.1171531387445 0 L 739.4722111155537 114.90050733455733 M 748.3686525389844 121.1229216900567 l 7.1171531387445 0 L 755.4858056777289 129.0791317584589 l -7.1171531387445 0 L 748.3686525389844 121.1229216900567 M 757.265093962415 129.0791317584589 l 7.1171531387445 0 L 764.3822471011595 130.18463576685787 l -7.1171531387445 0 L 757.265093962415 129.0791317584589 M 766.1615353858456 130.18463576685787 l 7.1171531387445 0 L 773.27868852459 131.3493657374673 l -7.1171531387445 0 L 766.1615353858456 130.18463576685787 M 792.8508596561375 113.67953043217192 l 7.1171531387445 0 L 799.9680127948819 118.44094314741716 l -7.1171531387445 0 L 792.8508596561375 113.67953043217192 M 801.747301079568 118.44094314741716 l 7.1171531387445 0 L 808.8644542183125 142.25800775438785 l -7.1171531387445 0 L 801.747301079568 118.44094314741716 M 810.6437425029987 142.25793682509178 l 7.1171531387445 0 L 817.7608956417432 146.0971268329584 l -7.1171531387445 0 L 810.6437425029987 142.25793682509178 M 828.43662534986 145.35428431531682 l 7.1171531387445 0 L 835.5537784886045 157.3575072290429 l -7.1171531387445 0 L 828.43662534986 145.35428431531682 M 837.3330667732906 157.3575072290429 l 7.1171531387445 0 L 844.4502199120351 167.13674206479203 l -7.1171531387445 0 L 837.3330667732906 157.3575072290429 M 855.1259496201519 158.46797628816606 l 7.1171531387445 0 L 862.2431027588964 165.4213170395689 l -7.1171531387445 0 L 855.1259496201519 158.46797628816606 M 881.8152738904437 151.45427470581575 l 7.1171531387445 0 L 888.9324270291881 151.83190227804187 l -7.1171531387445 0 L 881.8152738904437 151.45427470581575"></path><path class="candle body equal"></path><path class="candle wick up" d="M 4.626149540183927 15.973361169393712 L 4.626149540183927 17.872564000709644 M 4.626149540183927 26.104759960083243 L 4.626149540183927 35.26612969784941 M 13.522590963614554 5.15664352016762 L 13.522590963614554 6.131850411703397 M 13.522590963614554 17.838092362824227 L 13.522590963614554 22.83222409844396 M 40.21191523390643 18.172240276565248 L 40.21191523390643 21.49683824151296 M 40.21191523390643 30.6994888295863 L 40.21191523390643 37.273428776361555 M 58.004798080767685 8.320799417426485 L 58.004798080767685 11.43133276686359 M 58.004798080767685 24.355147014158916 L 58.004798080767685 25.33602824937958 M 75.79768092762893 37.535867171785384 L 75.79768092762893 41.500602033679115 M 75.79768092762893 48.57445165908871 L 75.79768092762893 49.38105961388871 M 84.69412235105956 22.179319928207065 L 84.69412235105956 23.386323759268578 M 84.69412235105956 41.53294579268268 L 84.69412235105956 51.8874172194825 M 93.5905637744902 12.10083439237863 L 93.5905637744902 19.830141642683344 M 93.5905637744902 23.386252829972534 L 93.5905637744902 27.700314474964188 M 111.38344662135144 10.770342656875812 L 111.38344662135144 24.03043269679398 M 111.38344662135144 25.686702689102702 L 111.38344662135144 29.18032516656254 M 146.96921231507397 77.12115265666952 L 146.96921231507397 79.26832430701296 M 146.96921231507397 80.99807705004037 L 146.96921231507397 91.10727497106296 M 155.8656537385046 68.66595499048168 L 155.8656537385046 71.85202804022327 M 155.8656537385046 79.26839523630902 L 155.8656537385046 95.55603134927352 M 164.7620951619352 61.252283107646235 L 164.7620951619352 70.80915460024576 M 164.7620951619352 71.85209896951929 L 164.7620951619352 74.70466246918441 M 200.34786085565773 78.63435825882424 L 200.34786085565773 79.31329348071534 M 200.34786085565773 95.26848398304423 L 200.34786085565773 98.03146378178494 M 209.24430227908834 69.47532918782807 L 209.24430227908834 74.60422658596273 M 209.24430227908834 79.31329348071534 L 209.24430227908834 84.64710561516877 M 227.0371851259496 84.20443587845519 L 227.0371851259496 86.7375338286638 M 227.0371851259496 98.37362670598075 L 227.0371851259496 101.30130433017393 M 235.93362654938022 78.53300029475376 L 235.93362654938022 83.03715245318755 M 235.93362654938022 86.78243207307013 L 235.93362654938022 99.47842142141911 M 262.6229508196721 93.48227152035268 L 262.6229508196721 97.43934601827186 M 262.6229508196721 102.40900714675072 L 262.6229508196721 106.90471871895335 M 280.4158336665334 92.45237814155428 L 280.4158336665334 96.8741813872618 M 280.4158336665334 98.52626655110299 L 280.4158336665334 106.48729981163733 M 289.31227508996403 79.74617497457255 L 289.31227508996403 82.86053850599696 M 289.31227508996403 96.87411045796578 L 289.31227508996403 98.88970826411696 M 307.10515793682526 65.23375728341023 L 307.10515793682526 69.03691520887813 M 307.10515793682526 85.00054629743825 L 307.10515793682526 89.73685004187809 M 333.7944822071172 65.90758559598498 L 333.7944822071172 69.48603951153319 M 333.7944822071172 72.15170431607886 L 333.7944822071172 79.15717810008616 M 369.38024790083966 89.88168766443361 L 369.38024790083966 95.40800190839525 M 369.38024790083966 100.06245324518123 L 369.38024790083966 104.06754687653338 M 387.1731307477009 89.4942009200551 L 387.1731307477009 91.13961873006656 M 387.1731307477009 101.819584696488 L 387.1731307477009 101.88030017391576 M 449.44822071171535 129.602093458313 L 449.44822071171535 134.00155397576154 M 449.44822071171535 134.8048991829427 L 449.44822071171535 142.36227381959677 M 458.34466213514594 126.14996461904855 L 458.34466213514594 132.690213150195 M 458.34466213514594 134.00155397576154 L 458.34466213514594 137.40417416637578 M 476.13754498200717 123.9277497734731 L 476.13754498200717 126.55716970773184 M 476.13754498200717 132.9890382744979 L 476.13754498200717 136.91540038722286 M 485.0339864054379 115.26018979488012 L 485.0339864054379 118.23453889588106 M 485.0339864054379 126.55716970773184 L 485.0339864054379 128.53815401740553 M 502.82686925229905 121.45387778547502 L 502.82686925229905 124.21175067489933 M 502.82686925229905 127.76963509459003 L 502.82686925229905 133.67378969866598 M 511.7233106757297 118.96269904923817 L 511.7233106757297 124.03917969758413 M 511.7233106757297 124.21175067489933 L 511.7233106757297 127.79339640877029 M 538.4126349460215 126.8287579823475 L 538.4126349460215 129.23240996724564 M 538.4126349460215 130.29982494366016 L 538.4126349460215 137.0496695446654 M 582.8948420631747 170.74817810300846 L 582.8948420631747 172.55297404126782 M 582.8948420631747 180.87390255001316 L 582.8948420631747 184.21048756599507 M 591.7912834866053 163.29350908704998 L 591.7912834866053 169.6037339110723 M 591.7912834866053 172.55297404126782 L 591.7912834866053 196.15384615384613 M 600.687724910036 163.3279807249354 L 600.687724910036 167.4902536763576 M 600.687724910036 169.6037339110723 L 600.687724910036 176.40833592863626 M 618.4806077568971 165.5315411656469 L 618.4806077568971 166.05904234044885 M 618.4806077568971 168.56185348123964 L 618.4806077568971 177.78429334291386 M 627.3770491803277 160.10169076432754 L 627.3770491803277 162.11211073186635 M 627.3770491803277 166.05897141115278 L 627.3770491803277 173.18807495819354 M 636.2734906037584 154.98953268006318 L 636.2734906037584 158.9183063888542 M 636.2734906037584 162.11203980257028 L 636.2734906037584 165.2905943469294 M 654.0663734506197 154.82455113742643 L 654.0663734506197 156.79000193126285 M 654.0663734506197 160.94042969024295 L 654.0663734506197 169.8004917783441 M 662.9628148740503 151.12771622675325 L 662.9628148740503 155.1750127892614 M 662.9628148740503 156.79000193126285 L 662.9628148740503 160.10169076432754 M 680.7556977209116 164.44965661283612 L 680.7556977209116 164.98439257583624 M 680.7556977209116 167.9296606654524 L 680.7556977209116 172.51431757491486 M 689.6521391443422 133.34481962353735 L 689.6521391443422 134.74978711990371 M 689.6521391443422 164.98176819188197 L 689.6521391443422 167.0050263620077 M 707.4450219912034 127.07701051855923 L 707.4450219912034 129.02848824107173 M 707.4450219912034 136.1091470789032 L 707.4450219912034 137.9961500712967 M 716.3414634146341 113.99410186020022 L 716.3414634146341 118.67905279429225 M 716.3414634146341 129.02848824107173 L 716.3414634146341 134.24193336011055 M 725.2379048380647 106.96146215580174 L 725.2379048380647 117.23918808426411 M 725.2379048380647 118.67905279429225 L 725.2379048380647 127.00608122249875 M 734.1343462614954 111.87686237279433 L 734.1343462614954 114.90043640526126 M 734.1343462614954 117.23911715496804 L 734.1343462614954 123.80064447493268 M 778.6165533786485 125.75488843999153 L 778.6165533786485 127.92858764706158 M 778.6165533786485 131.34943666676338 L 778.6165533786485 134.91781862227106 M 787.512994802079 112.21448582204229 L 787.512994802079 113.67945950287583 M 787.512994802079 127.92858764706158 L 787.512994802079 128.7010786104565 M 823.0987604958016 142.76430106966768 L 823.0987604958016 145.35428431531682 M 823.0987604958016 146.09705590366235 L 823.0987604958016 148.47616635212358 M 849.7880847660936 157.05882396333215 L 849.7880847660936 158.46797628816606 M 849.7880847660936 167.13674206479203 L 849.7880847660936 171.80502461430987 M 867.5809676129546 147.0294215003776 L 867.5809676129546 157.78081326793196 M 867.5809676129546 165.42124611027288 L 867.5809676129546 186.18749983508937 M 876.4774090363853 148.16053098465437 L 876.4774090363853 151.4542037765197 M 876.4774090363853 157.77038666141107 L 876.4774090363853 159.9997653658886" style="stroke-width: 1px;"></path><path class="candle wick down" d="M 22.41903238704518 3.8461538461538396 L 22.41903238704518 6.13177948240741 M 22.41903238704518 13.831154569774554 L 22.41903238704518 14.791324450545488 M 31.315473810475808 8.000908292193628 L 31.315473810475808 13.861796025672675 M 31.315473810475808 30.675727515406066 L 31.315473810475808 35.195200401788924 M 49.10835665733706 20.1227249889329 L 49.10835665733706 21.496909170809005 M 49.10835665733706 24.355147014158916 L 49.10835665733706 33.585105381215584 M 66.90123950419832 10.086229596372306 L 66.90123950419832 11.431261837567519 M 66.90123950419832 48.554520526895715 L 66.90123950419832 50.161281870554205 M 102.48700519792082 9.894791426305034 L 102.48700519792082 19.830141642683344 M 102.48700519792082 25.686702689102702 L 102.48700519792082 33.31167294490237 M 120.27988804478207 22.672845970196022 L 120.27988804478207 24.03043269679398 M 120.27988804478207 29.02194004845947 L 120.27988804478207 34.00521960178196 M 129.1763294682127 21.080270485749622 L 129.1763294682127 28.994135764403723 M 129.1763294682127 49.444541333862844 L 129.1763294682127 63.07041375356502 M 138.07277089164333 47.614210849021674 L 138.07277089164333 49.444541333862844 M 138.07277089164333 80.99800612074428 L 138.07277089164333 131.72784446124615 M 173.65853658536582 66.47501996446897 L 173.65853658536582 70.80915460024576 M 173.65853658536582 71.64441799065415 L 173.65853658536582 84.91663694019869 M 182.55497800879647 69.32807996920644 L 182.55497800879647 71.64441799065415 M 182.55497800879647 92.39549284611377 L 182.55497800879647 93.99558683594253 M 191.4514194322271 74.0999192909726 L 191.4514194322271 92.46422333399636 M 191.4514194322271 95.26848398304423 L 191.4514194322271 97.31507789157389 M 218.14074370251896 73.63909165446752 L 218.14074370251896 74.60422658596273 M 218.14074370251896 98.37369763527684 L 218.14074370251896 105.67941512950823 M 244.83006797281087 78.98389782981037 L 244.83006797281087 83.03715245318755 M 244.83006797281087 91.77989748560469 L 244.83006797281087 92.64083728118702 M 253.72650939624148 89.20105013943707 L 253.72650939624148 91.77989748560469 M 253.72650939624148 102.42766155161468 L 253.72650939624148 107.21680762161955 M 271.51939224310274 87.04444489271756 L 271.51939224310274 97.43941694756795 M 271.51939224310274 98.52633748039901 L 271.51939224310274 100.47206992993061 M 298.2087165133947 77.99301556384522 L 298.2087165133947 82.87678131479481 M 298.2087165133947 85.00061722673429 L 298.2087165133947 86.18010049092433 M 316.0015993602559 62.14833290477853 L 316.0015993602559 69.03684427958206 M 316.0015993602559 69.17033321476791 L 316.0015993602559 72.25980056327505 M 324.89804078368655 66.78547749332574 L 324.89804078368655 69.17040414406398 M 324.89804078368655 72.1517752453749 L 324.89804078368655 73.9770697501958 M 342.6909236305478 60.176498474296636 L 342.6909236305478 69.48611044082924 M 342.6909236305478 70.01127094886118 L 342.6909236305478 71.8018100986124 M 351.5873650539784 69.99275840258937 L 351.5873650539784 70.01127094886118 M 351.5873650539784 92.40861476588495 L 351.5873650539784 94.04516641388882 M 360.483806477409 88.18591005421919 L 360.483806477409 92.40861476588495 M 360.483806477409 100.06245324518123 L 360.483806477409 102.67031067343764 M 378.2766893242703 85.28362511801568 L 378.2766893242703 95.4079309790992 M 378.2766893242703 101.819584696488 L 378.2766893242703 105.64217724907647 M 396.06957217113154 89.24332399988913 L 396.06957217113154 91.13954780077047 M 396.06957217113154 94.23546971521914 L 396.06957217113154 98.71947795357177 M 404.9660135945622 92.22235443443007 L 404.9660135945622 94.23546971521914 M 404.9660135945622 100.19409801866955 L 404.9660135945622 105.51450451616758 M 413.86245501799283 92.31073233732144 L 413.86245501799283 100.19409801866955 M 413.86245501799283 104.54979516044871 L 413.86245501799283 106.90471871895335 M 422.7588964414235 95.76881923745502 L 422.7588964414235 104.54979516044871 M 422.7588964414235 121.43720940090081 L 422.7588964414235 128.18350753710303 M 431.65533786485406 118.84921217554137 L 431.65533786485406 121.43713847160473 M 431.65533786485406 124.05322369820414 L 431.65533786485406 128.675898710355 M 440.5517792882847 123.60268080962781 L 440.5517792882847 124.05329462750015 M 440.5517792882847 134.8048991829427 L 440.5517792882847 141.58914449253732 M 467.2411035585766 129.96737933302458 L 467.2411035585766 132.690213150195 M 467.2411035585766 132.9890382744979 L 467.2411035585766 148.39835691434521 M 493.93042782886846 113.99764832500324 L 493.93042782886846 118.23460982517715 M 493.93042782886846 127.75715153848336 L 493.93042782886846 129.5225107881331 M 520.6197520991603 121.26790117120439 L 520.6197520991603 124.03917969758413 M 520.6197520991603 124.12876339850853 L 520.6197520991603 127.6033768246242 M 529.5161935225909 123.3874103960842 L 529.5161935225909 124.12876339850853 M 529.5161935225909 130.29989587295617 L 529.5161935225909 134.9897409284764 M 547.3090763694522 127.76410260949731 L 547.3090763694522 129.23240996724564 M 547.3090763694522 134.14149747688884 L 547.3090763694522 137.84010561996362 M 556.2055177928828 121.05511328302289 L 556.2055177928828 134.14156840618494 M 556.2055177928828 141.0861848541723 L 556.2055177928828 141.99124267190433 M 565.1019592163135 138.11360898557288 L 565.1019592163135 141.0861139248763 M 565.1019592163135 171.12899749355728 L 565.1019592163135 178.2563987374926 M 573.998400639744 168.36339331086234 L 573.998400639744 171.12899749355728 M 573.998400639744 180.87390255001316 L 573.998400639744 188.41666575167872 M 609.5841663334666 153.57633738535375 L 609.5841663334666 167.4902536763576 M 609.5841663334666 168.54695832906694 L 609.5841663334666 172.62333590295987 M 645.169932027189 157.55348487405806 L 645.169932027189 158.91837731815025 M 645.169932027189 160.94035876094688 L 645.169932027189 164.70053353300213 M 671.8592562974809 154.03071045591733 L 671.8592562974809 155.1750127892614 M 671.8592562974809 167.92973159474843 L 671.8592562974809 170.12435494415638 M 698.5485805677728 132.34216309442613 L 698.5485805677728 134.76787409039918 M 698.5485805677728 136.10921800819926 L 698.5485805677728 139.93642096503163 M 743.0307876849259 104.62788831541133 L 743.0307876849259 114.90050733455733 M 743.0307876849259 121.1229216900567 L 743.0307876849259 123.40280205332932 M 751.9272291083566 118.11154749651219 L 751.9272291083566 121.1229216900567 M 751.9272291083566 129.0791317584589 L 751.9272291083566 132.16611658160394 M 760.8236705317872 124.0732257596932 L 760.8236705317872 129.0791317584589 M 760.8236705317872 130.18463576685787 L 760.8236705317872 133.93672459916223 M 769.7201119552178 126.33934583953005 L 769.7201119552178 130.18463576685787 M 769.7201119552178 131.3493657374673 L 769.7201119552178 132.65205318891446 M 796.4094362255097 113.64321463258892 L 796.4094362255097 113.67953043217192 M 796.4094362255097 118.44094314741716 L 796.4094362255097 122.45951334502077 M 805.3058776489403 116.37583669261572 L 805.3058776489403 118.44094314741716 M 805.3058776489403 142.25800775438785 L 805.3058776489403 145.39655817576886 M 814.202319072371 139.1074702819726 L 814.202319072371 142.25793682509178 M 814.202319072371 146.0971268329584 L 814.202319072371 149.8169428355552 M 831.9952019192323 145.02609446244486 L 831.9952019192323 145.35428431531682 M 831.9952019192323 157.3575072290429 L 831.9952019192323 160.10169076432754 M 840.8916433426629 149.5023714075269 L 840.8916433426629 157.3575072290429 M 840.8916433426629 167.13674206479203 L 840.8916433426629 168.61320629158743 M 858.6845261895241 151.2360252618376 L 858.6845261895241 158.46797628816606 M 858.6845261895241 165.4213170395689 L 858.6845261895241 166.93367149017087 M 885.3738504598159 143.44430023099972 L 885.3738504598159 151.45427470581575 M 885.3738504598159 151.83190227804187 L 885.3738504598159 153.64634460056547" style="stroke-width: 1px;"></path><path class="candle wick equal" style="stroke-width: 1px;"></path></g></g><g class="x axis" transform="translate(0,200)" fill="none" font-size="10" font-family="sans-serif" text-anchor="middle"><path class="domain" stroke="#000" d="M0.5,6V0.5H890.5V6"></path><g class="tick" opacity="1" transform="translate(31.315473810475808,0)"><line stroke="#000" y2="6" x1="0.5" x2="0.5"></line><text fill="#000" y="9" x="0.5" dy="0.71em">Nov 22</text></g><g class="tick" opacity="1" transform="translate(93.5905637744902,0)"><line stroke="#000" y2="6" x1="0.5" x2="0.5"></line><text fill="#000" y="9" x="0.5" dy="0.71em">Nov 29</text></g><g class="tick" opacity="1" transform="translate(155.8656537385046,0)"><line stroke="#000" y2="6" x1="0.5" x2="0.5"></line><text fill="#000" y="9" x="0.5" dy="0.71em">Dec  6</text></g><g class="tick" opacity="1" transform="translate(218.14074370251896,0)"><line stroke="#000" y2="6" x1="0.5" x2="0.5"></line><text fill="#000" y="9" x="0.5" dy="0.71em">Dec 13</text></g><g class="tick" opacity="1" transform="translate(280.4158336665334,0)"><line stroke="#000" y2="6" x1="0.5" x2="0.5"></line><text fill="#000" y="9" x="0.5" dy="0.71em">Dec 20</text></g><g class="tick" opacity="1" transform="translate(342.6909236305478,0)"><line stroke="#000" y2="6" x1="0.5" x2="0.5"></line><text fill="#000" y="9" x="0.5" dy="0.71em">Dec 27</text></g><g class="tick" opacity="1" transform="translate(404.9660135945622,0)"><line stroke="#000" y2="6" x1="0.5" x2="0.5"></line><text fill="#000" y="9" x="0.5" dy="0.71em">Jan  3</text></g><g class="tick" opacity="1" transform="translate(467.2411035585766,0)"><line stroke="#000" y2="6" x1="0.5" x2="0.5"></line><text fill="#000" y="9" x="0.5" dy="0.71em">Jan 10</text></g><g class="tick" opacity="1" transform="translate(529.5161935225909,0)"><line stroke="#000" y2="6" x1="0.5" x2="0.5"></line><text fill="#000" y="9" x="0.5" dy="0.71em">Jan 17</text></g><g class="tick" opacity="1" transform="translate(591.7912834866053,0)"><line stroke="#000" y2="6" x1="0.5" x2="0.5"></line><text fill="#000" y="9" x="0.5" dy="0.71em">Jan 24</text></g><g class="tick" opacity="1" transform="translate(654.0663734506197,0)"><line stroke="#000" y2="6" x1="0.5" x2="0.5"></line><text fill="#000" y="9" x="0.5" dy="0.71em">Jan 31</text></g><g class="tick" opacity="1" transform="translate(716.3414634146341,0)"><line stroke="#000" y2="6" x1="0.5" x2="0.5"></line><text fill="#000" y="9" x="0.5" dy="0.71em">Feb  7</text></g><g class="tick" opacity="1" transform="translate(778.6165533786485,0)"><line stroke="#000" y2="6" x1="0.5" x2="0.5"></line><text fill="#000" y="9" x="0.5" dy="0.71em">Feb 14</text></g><g class="tick" opacity="1" transform="translate(840.8916433426629,0)"><line stroke="#000" y2="6" x1="0.5" x2="0.5"></line><text fill="#000" y="9" x="0.5" dy="0.71em">Feb 21</text></g></g><g class="y axis" fill="none" font-size="10" font-family="sans-serif" text-anchor="end"><path class="domain" stroke="#000" d="M-6,200.5H0.5V0.5H-6"></path><g class="tick" opacity="1" transform="translate(0,188.4734091885271)"><line stroke="#000" x2="-6" y1="0.5" y2="0.5"></line><text fill="#000" x="-9" y="0.5" dy="0.32em">34,000</text></g><g class="tick" opacity="1" transform="translate(0,174.28754997642733)"><line stroke="#000" x2="-6" y1="0.5" y2="0.5"></line><text fill="#000" x="-9" y="0.5" dy="0.32em">36,000</text></g><g class="tick" opacity="1" transform="translate(0,160.10169076432754)"><line stroke="#000" x2="-6" y1="0.5" y2="0.5"></line><text fill="#000" x="-9" y="0.5" dy="0.32em">38,000</text></g><g class="tick" opacity="1" transform="translate(0,145.91583155222776)"><line stroke="#000" x2="-6" y1="0.5" y2="0.5"></line><text fill="#000" x="-9" y="0.5" dy="0.32em">40,000</text></g><g class="tick" opacity="1" transform="translate(0,131.72997234012797)"><line stroke="#000" x2="-6" y1="0.5" y2="0.5"></line><text fill="#000" x="-9" y="0.5" dy="0.32em">42,000</text></g><g class="tick" opacity="1" transform="translate(0,117.54411312802819)"><line stroke="#000" x2="-6" y1="0.5" y2="0.5"></line><text fill="#000" x="-9" y="0.5" dy="0.32em">44,000</text></g><g class="tick" opacity="1" transform="translate(0,103.3582539159284)"><line stroke="#000" x2="-6" y1="0.5" y2="0.5"></line><text fill="#000" x="-9" y="0.5" dy="0.32em">46,000</text></g><g class="tick" opacity="1" transform="translate(0,89.1723947038286)"><line stroke="#000" x2="-6" y1="0.5" y2="0.5"></line><text fill="#000" x="-9" y="0.5" dy="0.32em">48,000</text></g><g class="tick" opacity="1" transform="translate(0,74.98653549172883)"><line stroke="#000" x2="-6" y1="0.5" y2="0.5"></line><text fill="#000" x="-9" y="0.5" dy="0.32em">50,000</text></g><g class="tick" opacity="1" transform="translate(0,60.800676279629045)"><line stroke="#000" x2="-6" y1="0.5" y2="0.5"></line><text fill="#000" x="-9" y="0.5" dy="0.32em">52,000</text></g><g class="tick" opacity="1" transform="translate(0,46.61481706752926)"><line stroke="#000" x2="-6" y1="0.5" y2="0.5"></line><text fill="#000" x="-9" y="0.5" dy="0.32em">54,000</text></g><g class="tick" opacity="1" transform="translate(0,32.42895785542947)"><line stroke="#000" x2="-6" y1="0.5" y2="0.5"></line><text fill="#000" x="-9" y="0.5" dy="0.32em">56,000</text></g><g class="tick" opacity="1" transform="translate(0,18.24309864332966)"><line stroke="#000" x2="-6" y1="0.5" y2="0.5"></line><text fill="#000" x="-9" y="0.5" dy="0.32em">58,000</text></g><g class="tick" opacity="1" transform="translate(0,4.057239431229874)"><line stroke="#000" x2="-6" y1="0.5" y2="0.5"></line><text fill="#000" x="-9" y="0.5" dy="0.32em">60,000</text></g><text transform="rotate(-90)" y="6" dy=".71em" style="text-anchor: end;">Price ($)</text></g></g></svg>