<?xml version="1.0" encoding="utf-8"?>
<!DOCTYPE svg PUBLIC "-//W3C//DTD SVG 1.1//EN" "http://www.w3.org/Graphics/SVG/1.1/DTD/svg11.dtd">
<svg version="1.1" xmlns="http://www.w3.org/2000/svg" width="960" height="250"><g transform="translate(50,20)"><style>.axis path,.axis line{fill:none;stroke:#000;shape-rendering:crispEdges;}path.candle{stroke:#000000;}path.candle.body{stroke-width:0;}path.candle.up{fill:#00AA00;stroke:#00AA00;}path.candle.down{fill:#FF0000;stroke:#FF0000;}</style><g class="candlestick"><g class="data"><path class="candle body up" d="M 9.964014394242305 69.21159798012704 l 7.1171531387445 0 L 17.081167532986804 38.29557557607731 l -7.1171531387445 0 L 9.964014394242305 69.21159798012704 M 18.860455817672932 38.29563822722321 l 7.1171531387445 0 L 25.977608956417434 31.964176074780426 l -7.1171531387445 0 L 18.860455817672932 38.29563822722321 M 45.54978008796481 41.09226007743683 l 7.1171531387445 0 L 52.66693322670931 15.159259212851026 l -7.1171531387445 0 L 45.54978008796481 41.09226007743683 M 54.446221511395436 15.14058917137595 l 7.1171531387445 0 L 61.563374650139934 14.49453055496383 l -7.1171531387445 0 L 54.446221511395436 15.14058917137595 M 72.23910435825668 22.15150300098989 l 7.1171531387445 0 L 79.35625749700118 18.447692558296893 l -7.1171531387445 0 L 72.23910435825668 22.15150300098989 M 90.03198720511796 43.284736927838395 l 7.1171531387445 0 L 97.14914034386246 16.776661195133272 l -7.1171531387445 0 L 90.03198720511796 43.284736927838395 M 107.82487005197919 23.307604596088083 l 7.1171531387445 0 L 114.94202319072369 17.536995501647738 l -7.1171531387445 0 L 107.82487005197919 23.307604596088083 M 116.72131147540982 17.532359316851938 l 7.1171531387445 0 L 123.83846461415432 7.842983698171821 l -7.1171531387445 0 L 116.72131147540982 17.532359316851938 M 143.4106357457017 26.92595887578787 l 7.1171531387445 0 L 150.5277888844462 21.57630283057881 l -7.1171531387445 0 L 143.4106357457017 26.92595887578787 M 161.20351859256294 66.26455072863283 l 7.1171531387445 0 L 168.32067173130744 65.4261530943401 l -7.1171531387445 0 L 161.20351859256294 66.26455072863283 M 170.09996001599356 65.42020123548059 l 7.1171531387445 0 L 177.21711315473806 64.35807635921662 l -7.1171531387445 0 L 170.09996001599356 65.42020123548059 M 223.47860855657734 146.87101382084276 l 7.1171531387445 0 L 230.59576169532184 122.71642838347515 l -7.1171531387445 0 L 223.47860855657734 146.87101382084276 M 241.2714914034386 143.16131417043619 l 7.1171531387445 0 L 248.3886445421831 141.99362211334844 l -7.1171531387445 0 L 241.2714914034386 143.16131417043619 M 259.06437425029986 159.33727617878128 l 7.1171531387445 0 L 266.1815273890444 133.55726941245754 l -7.1171531387445 0 L 259.06437425029986 159.33727617878128 M 276.85725709716115 136.51170949916673 l 7.1171531387445 0 L 283.9744102359057 130.76540904933148 l -7.1171531387445 0 L 276.85725709716115 136.51170949916673 M 312.4430227908837 159.81524177077196 l 7.1171531387445 0 L 319.5601759296282 153.32383124287344 l -7.1171531387445 0 L 312.4430227908837 159.81524177077196 M 321.3394642143143 153.3238938940193 l 7.1171531387445 0 L 328.45661735305885 143.22108336361472 l -7.1171531387445 0 L 321.3394642143143 153.3238938940193 M 339.13234706117555 146.7230318142519 l 7.1171531387445 0 L 346.2495001999201 141.24838673299334 l -7.1171531387445 0 L 339.13234706117555 146.7230318142519 M 348.02878848460614 141.24838673299334 l 7.1171531387445 0 L 355.14594162335067 130.73483529013745 l -7.1171531387445 0 L 348.02878848460614 141.24838673299334 M 374.7181127548981 154.10822358940945 l 7.1171531387445 0 L 381.8352658936426 152.35248787700328 l -7.1171531387445 0 L 374.7181127548981 154.10822358940945 M 401.40743702518995 167.4859348177478 l 7.1171531387445 0 L 408.5245901639345 142.3800543811946 l -7.1171531387445 0 L 401.40743702518995 167.4859348177478 M 419.20031987205124 146.82966406455571 l 7.1171531387445 0 L 426.31747301079577 142.7313393561968 l -7.1171531387445 0 L 419.20031987205124 146.82966406455571 M 436.99320271891247 153.9199568960116 l 7.1171531387445 0 L 444.110355857657 132.15212951244877 l -7.1171531387445 0 L 436.99320271891247 153.9199568960116 M 445.8896441423431 132.1521921635947 l 7.1171531387445 0 L 453.00679728108764 122.78127231947072 l -7.1171531387445 0 L 445.8896441423431 132.1521921635947 M 499.2682926829268 154.31090004636184 l 7.1171531387445 0 L 506.38544582167134 153.58139010362498 l -7.1171531387445 0 L 499.2682926829268 154.31090004636184 M 517.0611755297881 178.55438745974664 l 7.1171531387445 0 L 524.1783286685326 172.94435325222096 l -7.1171531387445 0 L 517.0611755297881 178.55438745974664 M 525.9576169532187 172.94435325222096 l 7.1171531387445 0 L 533.0747700919632 165.62350420389188 l -7.1171531387445 0 L 525.9576169532187 172.94435325222096 M 534.8540583766493 165.64229954765872 l 7.1171531387445 0 L 541.9712115153937 159.45224103148848 l -7.1171531387445 0 L 534.8540583766493 165.64229954765872 M 552.6469412235106 178.79264976756423 l 7.1171531387445 0 L 559.764094362255 174.35970528900972 l -7.1171531387445 0 L 552.6469412235106 178.79264976756423 M 561.5433826469413 174.35970528900972 l 7.1171531387445 0 L 568.6605357856857 159.21886551305025 l -7.1171531387445 0 L 561.5433826469413 174.35970528900972 M 579.3362654938024 160.50603330534915 l 7.1171531387445 0 L 586.4534186325469 151.62936835114712 l -7.1171531387445 0 L 579.3362654938024 160.50603330534915 M 606.0255897640943 166.7245354417532 l 7.1171531387445 0 L 613.1427429028388 164.943864573283 l -7.1171531387445 0 L 606.0255897640943 166.7245354417532 M 614.9220311875249 164.94392722442893 l 7.1171531387445 0 L 622.0391843262694 159.41439973937125 l -7.1171531387445 0 L 614.9220311875249 164.94392722442893 M 623.8184726109555 159.4144623905171 l 7.1171531387445 0 L 630.9356257497 155.54644329444784 l -7.1171531387445 0 L 623.8184726109555 159.4144623905171 M 641.6113554578168 165.5478216196574 l 7.1171531387445 0 L 648.7285085965613 162.22818800355856 l -7.1171531387445 0 L 641.6113554578168 165.5478216196574 M 668.3006797281087 170.65038154547847 l 7.1171531387445 0 L 675.4178328668531 164.7605473204105 l -7.1171531387445 0 L 668.3006797281087 170.65038154547847 M 686.09356257497 166.72115227987518 l 7.1171531387445 0 L 693.2107157137144 161.9839738368815 l -7.1171531387445 0 L 686.09356257497 166.72115227987518 M 712.7828868452618 171.56878469307205 l 7.1171531387445 0 L 719.9000399840063 170.99928577693686 l -7.1171531387445 0 L 712.7828868452618 171.56878469307205 M 739.4722111155537 179.9969927449973 l 7.1171531387445 0 L 746.5893642542982 179.143621486837 l -7.1171531387445 0 L 739.4722111155537 179.9969927449973 M 748.3686525389844 179.143621486837 l 7.1171531387445 0 L 755.4858056777289 177.52415201674037 l -7.1171531387445 0 L 748.3686525389844 179.143621486837 M 775.0579768092763 189.98057814477426 l 7.1171531387445 0 L 782.1751299480208 175.23143333291566 l -7.1171531387445 0 L 775.0579768092763 189.98057814477426 M 783.9544182327068 175.23143333291566 l 7.1171531387445 0 L 791.0715713714512 174.3335171100279 l -7.1171531387445 0 L 783.9544182327068 175.23143333291566 M 792.8508596561375 174.33508338867517 l 7.1171531387445 0 L 799.9680127948819 165.89904394351373 l -7.1171531387445 0 L 792.8508596561375 174.33508338867517 M 801.747301079568 165.89898129236784 l 7.1171531387445 0 L 808.8644542183125 161.98929918428206 l -7.1171531387445 0 L 801.747301079568 165.89898129236784 M 810.6437425029987 161.96818574811732 l 7.1171531387445 0 L 817.7608956417432 154.9543273146466 l -7.1171531387445 0 L 810.6437425029987 161.96818574811732 M 819.5401839264293 154.9543273146466 l 7.1171531387445 0 L 826.6573370651738 143.32264087110153 l -7.1171531387445 0 L 819.5401839264293 154.9543273146466 M 828.43662534986 143.29927199368475 l 7.1171531387445 0 L 835.5537784886045 129.41239490270277 l -7.1171531387445 0 L 828.43662534986 143.29927199368475 M 837.3330667732906 129.42028894708483 l 7.1171531387445 0 L 844.4502199120351 125.8933426892378 l -7.1171531387445 0 L 837.3330667732906 129.42028894708483 M 855.1259496201519 125.90004636184797 l 7.1171531387445 0 L 862.2431027588964 112.19272745498513 l -7.1171531387445 0 L 855.1259496201519 125.90004636184797"></path><path class="candle body down" d="M 1.0675729708116766 63.065019359204086 l 7.1171531387445 0 L 8.184726109556177 69.2115353289812 l -7.1171531387445 0 L 1.0675729708116766 63.065019359204086 M 27.75689724110356 31.964176074780426 l 7.1171531387445 0 L 34.87405037984806 33.002618817898195 l -7.1171531387445 0 L 27.75689724110356 31.964176074780426 M 36.65333866453418 33.00255616675227 l 7.1171531387445 0 L 43.77049180327868 41.09226007743683 l -7.1171531387445 0 L 36.65333866453418 33.00255616675227 M 63.342662934826066 14.513451201022463 l 7.1171531387445 0 L 70.45981607357056 22.15150300098989 l -7.1171531387445 0 L 63.342662934826066 14.513451201022463 M 81.13554578168731 18.447692558296893 l 7.1171531387445 0 L 88.25269892043181 43.3163131053667 l -7.1171531387445 0 L 81.13554578168731 18.447692558296893 M 98.92842862854857 16.776661195133272 l 7.1171531387445 0 L 106.04558176729307 23.307604596088083 l -7.1171531387445 0 L 98.92842862854857 16.776661195133272 M 125.61775289884046 7.814915984813382 l 7.1171531387445 0 L 132.73490603758498 11.734935531970905 l -7.1171531387445 0 L 125.61775289884046 7.814915984813382 M 134.51419432227107 11.734998183116772 l 7.1171531387445 0 L 141.63134746101557 26.92595887578787 l -7.1171531387445 0 L 134.51419432227107 11.734998183116772 M 152.30707716913233 21.57630283057881 l 7.1171531387445 0 L 159.42423030787683 65.6745648877918 l -7.1171531387445 0 L 152.30707716913233 21.57630283057881 M 178.9964014394242 64.34109789868054 l 7.1171531387445 0 L 186.1135545781687 83.64498101670281 l -7.1171531387445 0 L 178.9964014394242 64.34109789868054 M 187.89284286285485 83.64498101670281 l 7.1171531387445 0 L 195.00999600159935 85.72180385179244 l -7.1171531387445 0 L 187.89284286285485 83.64498101670281 M 196.78928428628546 85.75106193692281 l 7.1171531387445 0 L 203.90643742502996 103.84966231032365 l -7.1171531387445 0 L 196.78928428628546 85.75106193692281 M 205.68572570971608 103.84978761261546 l 7.1171531387445 0 L 212.80287884846058 108.16169007731152 l -7.1171531387445 0 L 205.68572570971608 103.84978761261546 M 214.5821671331467 108.16169007731152 l 7.1171531387445 0 L 221.6993202718912 146.75285375969528 l -7.1171531387445 0 L 214.5821671331467 108.16169007731152 M 232.37504998000796 122.72425977671132 l 7.1171531387445 0 L 239.49220311875246 143.2323605698748 l -7.1171531387445 0 L 232.37504998000796 122.72425977671132 M 250.16793282686922 141.9386144072575 l 7.1171531387445 0 L 257.28508596561375 159.5013595298658 l -7.1171531387445 0 L 250.16793282686922 141.9386144072575 M 267.9608156737305 133.46517222800006 l 7.1171531387445 0 L 275.07796881247504 136.51170949916673 l -7.1171531387445 0 L 267.9608156737305 133.46517222800006 M 285.7536985205918 130.7653463981856 l 7.1171531387445 0 L 292.8708516593363 135.22573207863968 l -7.1171531387445 0 L 285.7536985205918 130.7653463981856 M 294.65013994402244 135.2256694274938 l 7.1171531387445 0 L 301.76729308276697 153.18462039670706 l -7.1171531387445 0 L 294.65013994402244 135.2256694274938 M 303.54658136745303 153.19527109150826 l 7.1171531387445 0 L 310.66373450619756 159.81524177077196 l -7.1171531387445 0 L 303.54658136745303 153.19527109150826 M 330.23590563774496 143.22102071246883 l 7.1171531387445 0 L 337.3530587764895 146.73405841592844 l -7.1171531387445 0 L 330.23590563774496 143.22102071246883 M 356.9252299080368 130.73489794128335 l 7.1171531387445 0 L 364.0423830467813 145.8825666921448 l -7.1171531387445 0 L 356.9252299080368 130.73489794128335 M 365.8216713314674 145.88162692495644 l 7.1171531387445 0 L 372.93882447021196 154.12620446827975 l -7.1171531387445 0 L 365.8216713314674 145.88162692495644 M 383.61455417832866 152.35248787700328 l 7.1171531387445 0 L 390.7317073170732 166.408397759595 l -7.1171531387445 0 L 383.61455417832866 152.35248787700328 M 392.5109956017593 166.38227223175912 l 7.1171531387445 0 L 399.62814874050383 167.48587216660195 l -7.1171531387445 0 L 392.5109956017593 166.38227223175912 M 410.3038784486206 142.3800543811946 l 7.1171531387445 0 L 417.4210315873651 146.8428834563384 l -7.1171531387445 0 L 410.3038784486206 142.3800543811946 M 428.0967612954818 142.7313393561968 l 7.1171531387445 0 L 435.21391443422635 153.9200195471575 l -7.1171531387445 0 L 428.0967612954818 142.7313393561968 M 454.7860855657737 122.78133497061661 l 7.1171531387445 0 L 461.90323870451823 125.1134612252058 l -7.1171531387445 0 L 454.7860855657737 122.78133497061661 M 463.68252698920435 125.11496485270713 l 7.1171531387445 0 L 470.7996801279489 136.35952986580122 l -7.1171531387445 0 L 463.68252698920435 125.11496485270713 M 472.57896841263494 136.35959251694715 l 7.1171531387445 0 L 479.69612155137946 137.96364980515494 l -7.1171531387445 0 L 472.57896841263494 136.35959251694715 M 481.47540983606564 137.96364980515494 l 7.1171531387445 0 L 488.59256297481016 152.2050697307254 l -7.1171531387445 0 L 481.47540983606564 137.96364980515494 M 490.3718512594962 152.20106005738842 l 7.1171531387445 0 L 497.48900439824075 154.31090004636184 l -7.1171531387445 0 L 490.3718512594962 152.20106005738842 M 508.16473410635746 153.58132745247912 l 7.1171531387445 0 L 515.281887245102 178.58690340446327 l -7.1171531387445 0 L 508.16473410635746 153.58132745247912 M 543.75049980008 159.45230368263435 l 7.1171531387445 0 L 550.8676529388244 178.74027340960066 l -7.1171531387445 0 L 543.75049980008 159.45230368263435 M 570.4398240703717 159.205395516684 l 7.1171531387445 0 L 577.5569772091162 160.50603330534915 l -7.1171531387445 0 L 570.4398240703717 159.205395516684 M 588.232706917233 151.62943100229302 l 7.1171531387445 0 L 595.3498600559775 157.05953111882417 l -7.1171531387445 0 L 588.232706917233 151.62943100229302 M 597.1291483406637 157.05953111882417 l 7.1171531387445 0 L 604.2463014794082 166.7097497713233 l -7.1171531387445 0 L 597.1291483406637 157.05953111882417 M 632.7149140343862 155.53629380881378 l 7.1171531387445 0 L 639.8320671731307 165.5478842708033 l -7.1171531387445 0 L 632.7149140343862 155.53629380881378 M 650.5077968812475 162.22812535241272 l 7.1171531387445 0 L 657.624950019992 164.4704098637964 l -7.1171531387445 0 L 650.5077968812475 162.22812535241272 M 659.4042383046781 164.4704725149423 l 7.1171531387445 0 L 666.5213914434225 170.65038154547847 l -7.1171531387445 0 L 659.4042383046781 164.4704725149423 M 677.1971211515394 164.7605473204105 l 7.1171531387445 0 L 684.3142742902838 166.72115227987518 l -7.1171531387445 0 L 677.1971211515394 164.7605473204105 M 694.9900039984005 161.98391118573556 l 7.1171531387445 0 L 702.107157137145 169.32894357637804 l -7.1171531387445 0 L 694.9900039984005 161.98391118573556 M 703.8864454218311 169.32700139085543 l 7.1171531387445 0 L 711.0035985605756 171.5647123685892 l -7.1171531387445 0 L 703.8864454218311 169.32700139085543 M 721.6793282686924 170.99922312579096 l 7.1171531387445 0 L 728.7964814074369 176.88861879283772 l -7.1171531387445 0 L 721.6793282686924 170.99922312579096 M 730.5757696921231 176.9231395742228 l 7.1171531387445 0 L 737.6929228308676 179.9969300938514 l -7.1171531387445 0 L 730.5757696921231 176.9231395742228 M 757.265093962415 177.52408936559448 l 7.1171531387445 0 L 764.3822471011595 183.4065307554475 l -7.1171531387445 0 L 757.265093962415 177.52408936559448 M 766.1615353858456 183.4065307554475 l 7.1171531387445 0 L 773.27868852459 189.9805154936284 l -7.1171531387445 0 L 766.1615353858456 183.4065307554475 M 846.2295081967213 125.89328003809189 l 7.1171531387445 0 L 853.3466613354658 125.91263924217172 l -7.1171531387445 0 L 846.2295081967213 125.89328003809189 M 864.0223910435824 112.19279010613104 l 7.1171531387445 0 L 871.1395441823269 116.85735587103888 l -7.1171531387445 0 L 864.0223910435824 112.19279010613104 M 872.9188324670131 116.85729321989301 l 7.1171531387445 0 L 880.0359856057576 126.98422444146502 l -7.1171531387445 0 L 872.9188324670131 116.85729321989301 M 881.8152738904437 126.95396393800044 l 7.1171531387445 0 L 888.9324270291881 128.04672522460436 l -7.1171531387445 0 L 881.8152738904437 126.95396393800044"></path><path class="candle body equal"></path><path class="candle wick up" d="M 13.522590963614554 36.07001892064605 L 13.522590963614554 38.29557557607731 M 13.522590963614554 69.21159798012704 L 13.522590963614554 71.17458368313555 M 22.41903238704518 29.157216785495024 L 22.41903238704518 31.964176074780426 M 22.41903238704518 38.29563822722321 L 22.41903238704518 43.17854323555579 M 49.10835665733706 13.475634969363597 L 49.10835665733706 15.159259212851026 M 49.10835665733706 41.09226007743683 L 49.10835665733706 44.487889533499555 M 58.004798080767685 10.373964689814187 L 58.004798080767685 14.49453055496383 M 58.004798080767685 15.14058917137595 L 58.004798080767685 19.783728244389607 M 75.79768092762893 7.094991667397608 L 75.79768092762893 18.447692558296893 M 75.79768092762893 22.15150300098989 L 75.79768092762893 23.048730061272835 M 93.5905637744902 12.806395428972394 L 93.5905637744902 16.776661195133272 M 93.5905637744902 43.284736927838395 L 93.5905637744902 45.19591013319635 M 111.38344662135144 9.1715012467578 L 111.38344662135144 17.536995501647738 M 111.38344662135144 23.307604596088083 L 111.38344662135144 30.52532985828313 M 120.27988804478207 3.846153846153868 L 120.27988804478207 7.842983698171821 M 120.27988804478207 17.532359316851938 L 120.27988804478207 20.13545177741304 M 146.96921231507397 20.370832132519723 L 146.96921231507397 21.57630283057881 M 146.96921231507397 26.92595887578787 L 146.96921231507397 35.98619168744597 M 164.7620951619352 54.79914042627837 L 164.7620951619352 65.4261530943401 M 164.7620951619352 66.26455072863283 L 164.7620951619352 88.42520079692258 M 173.65853658536582 54.07357750573257 L 173.65853658536582 64.35807635921662 M 173.65853658536582 65.42020123548059 L 173.65853658536582 70.88444622652148 M 227.0371851259496 110.65589484631676 L 227.0371851259496 122.71642838347515 M 227.0371851259496 146.87101382084276 L 227.0371851259496 158.28122846366858 M 244.83006797281087 133.35233751425312 L 244.83006797281087 141.99362211334844 M 244.83006797281087 143.16131417043619 L 244.83006797281087 156.08455398649238 M 262.6229508196721 126.51709749771322 L 262.6229508196721 133.55726941245754 M 262.6229508196721 159.33727617878128 L 262.6229508196721 163.41235731201522 M 280.4158336665334 120.74692696129412 L 280.4158336665334 130.76540904933148 M 280.4158336665334 136.51170949916673 L 280.4158336665334 139.79638377585925 M 316.0015993602559 148.01897076697531 L 316.0015993602559 153.32383124287344 M 316.0015993602559 159.81524177077196 L 316.0015993602559 167.49721202400792 M 324.89804078368655 141.6849399175511 L 324.89804078368655 143.22108336361472 M 324.89804078368655 153.3238938940193 L 324.89804078368655 162.64275063590915 M 342.6909236305478 137.13646672597642 L 342.6909236305478 141.24838673299334 M 342.6909236305478 146.7230318142519 L 342.6909236305478 151.57755585349656 M 351.5873650539784 129.29880837520517 L 351.5873650539784 130.73483529013745 M 351.5873650539784 141.24838673299334 L 351.5873650539784 143.74616261731427 M 378.2766893242703 148.0690916836869 L 378.2766893242703 152.35248787700328 M 378.2766893242703 154.10822358940945 L 378.2766893242703 155.95060583658073 M 404.9660135945622 141.4607114664127 L 404.9660135945622 142.3800543811946 M 404.9660135945622 167.4859348177478 L 404.9660135945622 173.65068227097873 M 422.7588964414235 140.54844813111632 L 422.7588964414235 142.7313393561968 M 422.7588964414235 146.82966406455571 L 422.7588964414235 151.47248988183995 M 440.5517792882847 129.90025937574399 L 440.5517792882847 132.15212951244877 M 440.5517792882847 153.9199568960116 L 440.5517792882847 158.86388412044056 M 449.44822071171535 119.34949315222974 L 449.44822071171535 122.78127231947072 M 449.44822071171535 132.1521921635947 L 449.44822071171535 133.97258385855878 M 502.82686925229905 150.21351510519128 L 502.82686925229905 153.58139010362498 M 502.82686925229905 154.31090004636184 L 502.82686925229905 167.76661195133258 M 520.6197520991603 167.99979951633316 L 520.6197520991603 172.94435325222096 M 520.6197520991603 178.55438745974664 L 520.6197520991603 196.15384615384613 M 529.5161935225909 158.08700991141126 L 529.5161935225909 165.62350420389188 M 529.5161935225909 172.94435325222096 L 529.5161935225909 178.12284636686005 M 538.4126349460215 155.47445712782087 L 538.4126349460215 159.45224103148848 M 538.4126349460215 165.64229954765872 L 538.4126349460215 174.34141115441 M 556.2055177928828 171.56327139223376 L 556.2055177928828 174.35970528900972 M 556.2055177928828 178.79264976756423 L 556.2055177928828 187.72100191712505 M 565.1019592163135 158.91400503715212 L 565.1019592163135 159.21886551305025 M 565.1019592163135 174.35970528900972 L 565.1019592163135 176.30314383450073 M 582.8948420631747 147.3172779330134 L 582.8948420631747 151.62936835114712 M 582.8948420631747 160.50603330534915 L 582.8948420631747 162.19423108248648 M 609.5841663334666 163.75042289523475 L 609.5841663334666 164.943864573283 M 609.5841663334666 166.7245354417532 L 609.5841663334666 171.75748994449108 M 618.4806077568971 157.6822208578195 L 618.4806077568971 159.41439973937125 M 618.4806077568971 164.94392722442893 L 618.4806077568971 167.88734070946157 M 627.3770491803277 151.2777701204155 L 627.3770491803277 155.54644329444784 M 627.3770491803277 159.4144623905171 L 627.3770491803277 161.36899018883054 M 645.169932027189 156.59666445299285 L 645.169932027189 162.22818800355856 M 645.169932027189 165.5478216196574 L 645.169932027189 166.5386494918992 M 671.8592562974809 162.98006440537796 L 671.8592562974809 164.7605473204105 M 671.8592562974809 170.65038154547847 L 671.8592562974809 174.50117157642813 M 689.6521391443422 159.43400954803462 L 689.6521391443422 161.9839738368815 M 689.6521391443422 166.72115227987518 L 689.6521391443422 167.95162078514414 M 716.3414634146341 169.1572794366409 L 716.3414634146341 170.99928577693686 M 716.3414634146341 171.56878469307205 L 716.3414634146341 178.95610660718984 M 743.0307876849259 176.41297129324496 L 743.0307876849259 179.143621486837 M 743.0307876849259 179.9969927449973 L 743.0307876849259 181.37249865300035 M 751.9272291083566 173.41148019597279 L 751.9272291083566 177.52415201674037 M 751.9272291083566 179.143621486837 L 751.9272291083566 181.7192100943526 M 778.6165533786485 170.7613367248487 L 778.6165533786485 175.23143333291566 M 778.6165533786485 189.98057814477426 L 778.6165533786485 191.90854185723055 M 787.512994802079 172.4319295299911 L 787.512994802079 174.3335171100279 M 787.512994802079 175.23143333291566 L 787.512994802079 177.9662185021364 M 796.4094362255097 165.79936597040358 L 796.4094362255097 165.89904394351373 M 796.4094362255097 174.33508338867517 L 796.4094362255097 176.61094891425563 M 805.3058776489403 160.47401856979963 L 805.3058776489403 161.98929918428206 M 805.3058776489403 165.89898129236784 L 805.3058776489403 167.35850238700866 M 814.202319072371 154.8479456689263 L 814.202319072371 154.9543273146466 M 814.202319072371 161.96818574811732 L 814.202319072371 164.5393261242748 M 823.0987604958016 122.57007530667737 L 823.0987604958016 143.32264087110153 M 823.0987604958016 154.9543273146466 L 823.0987604958016 156.05222599521346 M 831.9952019192323 128.88148909243552 L 831.9952019192323 129.41239490270277 M 831.9952019192323 143.29927199368475 L 831.9952019192323 148.67680779881465 M 840.8916433426629 120.37728520054631 L 840.8916433426629 125.8933426892378 M 840.8916433426629 129.42028894708483 L 840.8916433426629 133.70944904582305 M 858.6845261895241 111.50143471124088 L 858.6845261895241 112.19272745498513 M 858.6845261895241 125.90004636184797 L 858.6845261895241 136.5836956657937" style="stroke-width: 1px;"></path><path class="candle wick down" d="M 4.626149540183927 59.806721214931 L 4.626149540183927 63.065019359204086 M 4.626149540183927 69.2115353289812 L 4.626149540183927 82.59864422920296 M 31.315473810475808 23.092585863395442 L 31.315473810475808 31.964176074780426 M 31.315473810475808 33.002618817898195 L 31.315473810475808 39.47485809515453 M 40.21191523390643 30.81220945531095 L 40.21191523390643 33.00255616675227 M 40.21191523390643 41.09226007743683 L 40.21191523390643 48.761136241181845 M 66.90123950419832 13.801295625697037 L 66.90123950419832 14.513451201022463 M 66.90123950419832 22.15150300098989 L 66.90123950419832 25.553209618203937 M 84.69412235105956 18.25591740072926 L 84.69412235105956 18.447692558296893 M 84.69412235105956 43.3163131053667 L 84.69412235105956 44.276880474143866 M 102.48700519792082 10.988384477552103 L 102.48700519792082 16.776661195133272 M 102.48700519792082 23.307604596088083 L 102.48700519792082 30.78614657862093 M 129.1763294682127 5.099176763943035 L 129.1763294682127 7.814915984813382 M 129.1763294682127 11.734935531970905 L 129.1763294682127 24.297618003433257 M 138.07277089164333 3.846153846153868 L 138.07277089164333 11.734998183116772 M 138.07277089164333 26.92595887578787 L 138.07277089164333 42.06335283872343 M 155.8656537385046 13.243763078426696 L 155.8656537385046 21.57630283057881 M 155.8656537385046 65.6745648877918 L 155.8656537385046 72.13590286566343 M 182.55497800879647 58.979162228877186 L 182.55497800879647 64.34109789868054 M 182.55497800879647 83.64498101670281 L 182.55497800879647 84.94806220005763 M 191.4514194322271 64.64351497988898 L 191.4514194322271 83.64498101670281 M 191.4514194322271 85.72180385179244 L 191.4514194322271 102.04938163319007 M 200.34786085565773 84.12733218890574 L 200.34786085565773 85.75106193692281 M 200.34786085565773 103.84966231032365 L 200.34786085565773 113.47939403811695 M 209.24430227908834 89.68267194606989 L 209.24430227908834 103.84978761261546 M 209.24430227908834 108.16169007731152 L 209.24430227908834 111.91925520317768 M 218.14074370251896 103.55607904068565 L 218.14074370251896 108.16169007731152 M 218.14074370251896 146.75285375969528 L 218.14074370251896 188.66703422005588 M 235.93362654938022 112.23263623491674 L 235.93362654938022 122.72425977671132 M 235.93362654938022 143.2323605698748 L 235.93362654938022 166.81431453381282 M 253.72650939624148 136.85052689613693 L 253.72650939624148 141.9386144072575 M 253.72650939624148 159.5013595298658 L 253.72650939624148 181.70642926059116 M 271.51939224310274 127.32047314145377 L 271.51939224310274 133.46517222800006 M 271.51939224310274 136.51170949916673 L 271.51939224310274 148.4473793025674 M 289.31227508996403 123.44004911849838 L 289.31227508996403 130.7653463981856 M 289.31227508996403 135.22573207863968 L 289.31227508996403 143.97001516157732 M 298.2087165133947 133.0464119688749 L 298.2087165133947 135.2256694274938 M 298.2087165133947 153.18462039670706 L 298.2087165133947 159.3212374854336 M 307.10515793682526 142.68998959990978 L 307.10515793682526 153.19527109150826 M 307.10515793682526 159.81524177077196 L 307.10515793682526 165.907376545917 M 333.7944822071172 139.20514491210045 L 333.7944822071172 143.22102071246883 M 333.7944822071172 146.73405841592844 L 333.7944822071172 153.1688949590888 M 360.483806477409 130.4699462453168 L 360.483806477409 130.73489794128335 M 360.483806477409 145.8825666921448 L 360.483806477409 153.86338291127345 M 369.38024790083966 139.01600110266017 L 369.38024790083966 145.88162692495644 M 369.38024790083966 154.12620446827975 L 369.38024790083966 158.59448419311587 M 387.1731307477009 145.43774355632965 L 387.1731307477009 152.35248787700328 M 387.1731307477009 166.408397759595 L 387.1731307477009 167.99215607653463 M 396.06957217113154 163.18048542107834 L 396.06957217113154 166.38227223175912 M 396.06957217113154 167.48587216660195 L 396.06957217113154 182.40191963111005 M 413.86245501799283 135.4699462453168 L 413.86245501799283 142.3800543811946 M 413.86245501799283 146.8428834563384 L 413.86245501799283 152.44214166677108 M 431.65533786485406 141.90653702056213 L 431.65533786485406 142.7313393561968 M 431.65533786485406 153.9200195471575 L 431.65533786485406 159.845251669653 M 458.34466213514594 117.68328592729961 L 458.34466213514594 122.78133497061661 M 458.34466213514594 125.1134612252058 L 458.34466213514594 129.1083488917012 M 467.2411035585766 122.71329582618066 L 467.2411035585766 125.11496485270713 M 467.2411035585766 136.35952986580122 L 467.2411035585766 137.81930156502563 M 476.13754498200717 128.7732905634844 L 476.13754498200717 136.35959251694715 M 476.13754498200717 137.96364980515494 L 476.13754498200717 142.52446527246983 M 485.0339864054379 137.27530166526748 L 485.0339864054379 137.96364980515494 M 485.0339864054379 152.2050697307254 L 485.0339864054379 156.53144461012192 M 493.93042782886846 148.21318931923264 L 493.93042782886846 152.20106005738842 M 493.93042782886846 154.31090004636184 L 493.93042782886846 158.57243098976284 M 511.7233106757297 152.64262533361733 L 511.7233106757297 153.58132745247912 M 511.7233106757297 178.58690340446327 L 511.7233106757297 180.8279348929292 M 547.3090763694522 154.2089039808538 L 547.3090763694522 159.45230368263435 M 547.3090763694522 178.74027340960066 L 547.3090763694522 180.67901311914994 M 573.998400639744 155.47627401105166 L 573.998400639744 159.205395516684 M 573.998400639744 160.50603330534915 L 573.998400639744 164.46665079504302 M 591.7912834866053 150.4498352274863 L 591.7912834866053 151.62943100229302 M 591.7912834866053 157.05953111882417 L 591.7912834866053 163.49662310323652 M 600.687724910036 156.9807786284411 L 600.687724910036 157.05953111882417 M 600.687724910036 166.7097497713233 L 600.687724910036 171.68230856942372 M 636.2734906037584 155.50089591138624 L 636.2734906037584 155.53629380881378 M 636.2734906037584 165.5478842708033 L 636.2734906037584 169.08510531657623 M 654.0663734506197 156.97125565426592 L 654.0663734506197 162.22812535241272 M 654.0663734506197 164.4704098637964 L 654.0663734506197 164.998872279374 M 662.9628148740503 164.0473893267508 L 662.9628148740503 164.4704725149423 M 662.9628148740503 170.65038154547847 L 662.9628148740503 175.6543912188154 M 680.7556977209116 161.96511584196875 L 680.7556977209116 164.7605473204105 M 680.7556977209116 166.72115227987518 L 680.7556977209116 169.84174320548323 M 698.5485805677728 159.35613417369404 L 698.5485805677728 161.98391118573556 M 698.5485805677728 169.32894357637804 L 698.5485805677728 172.01222950367762 M 707.4450219912034 167.74155149297678 L 707.4450219912034 169.32700139085543 M 707.4450219912034 171.5647123685892 L 707.4450219912034 174.86968561654993 M 725.2379048380647 168.71107797561618 L 725.2379048380647 170.99922312579096 M 725.2379048380647 176.88861879283772 L 725.2379048380647 181.56865939078025 M 734.1343462614954 174.5756637888907 L 734.1343462614954 176.9231395742228 M 734.1343462614954 179.9969300938514 L 734.1343462614954 182.27661733933112 M 760.8236705317872 176.76958161564775 L 760.8236705317872 177.52408936559448 M 760.8236705317872 183.4065307554475 L 760.8236705317872 186.1143759319358 M 769.7201119552178 182.00677885398522 L 769.7201119552178 183.4065307554475 M 769.7201119552178 189.9805154936284 L 769.7201119552178 193.19044695327477 M 849.7880847660936 122.00621499367223 L 849.7880847660936 125.89328003809189 M 849.7880847660936 125.91263924217172 L 849.7880847660936 131.02798000175423 M 867.5809676129546 110.67888781685818 L 867.5809676129546 112.19279010613104 M 867.5809676129546 116.85735587103888 L 867.5809676129546 119.74983397446339 M 876.4774090363853 109.73285551392735 L 876.4774090363853 116.85729321989301 M 876.4774090363853 126.98422444146502 L 876.4774090363853 129.63706191186236 M 885.3738504598159 125.3933865450399 L 885.3738504598159 126.95396393800044 M 885.3738504598159 128.04672522460436 L 885.3738504598159 130.71472427230694" style="stroke-width: 1px;"></path><path class="candle wick equal" style="stroke-width: 1px;"></path></g></g><g class="x axis" transform="translate(0,200)" fill="none" font-size="10" font-family="sans-serif" text-anchor="middle"><path class="domain" stroke="#000" d="M0.5,6V0.5H890.5V6"></path><g class="tick" opacity="1" transform="translate(13.522590963614554,0)"><line stroke="#000" y2="6" x1="0.5" x2="0.5"></line><text fill="#000" y="9" x="0.5" dy="0.71em">Apr 26</text></g><g class="tick" opacity="1" transform="translate(75.79768092762893,0)"><line stroke="#000" y2="6" x1="0.5" x2="0.5"></line><text fill="#000" y="9" x="0.5" dy="0.71em">May  3</text></g><g class="tick" opacity="1" transform="translate(138.07277089164333,0)"><line stroke="#000" y2="6" x1="0.5" x2="0.5"></line><text fill="#000" y="9" x="0.5" dy="0.71em">May 10</text></g><g class="tick" opacity="1" transform="translate(200.34786085565773,0)"><line stroke="#000" y2="6" x1="0.5" x2="0.5"></line><text fill="#000" y="9" x="0.5" dy="0.71em">May 17</text></g><g class="tick" opacity="1" transform="translate(262.6229508196721,0)"><line stroke="#000" y2="6" x1="0.5" x2="0.5"></line><text fill="#000" y="9" x="0.5" dy="0.71em">May 24</text></g><g class="tick" opacity="1" transform="translate(324.89804078368655,0)"><line stroke="#000" y2="6" x1="0.5" x2="0.5"></line><text fill="#000" y="9" x="0.5" dy="0.71em">May 31</text></g><g class="tick" opacity="1" transform="translate(387.1731307477009,0)"><line stroke="#000" y2="6" x1="0.5" x2="0.5"></line><text fill="#000" y="9" x="0.5" dy="0.71em">Jun  7</text></g><g class="tick" opacity="1" transform="translate(449.44822071171535,0)"><line stroke="#000" y2="6" x1="0.5" x2="0.5"></line><text fill="#000" y="9" x="0.5" dy="0.71em">Jun 14</text></g><g class="tick" opacity="1" transform="translate(511.7233106757297,0)"><line stroke="#000" y2="6" x1="0.5" x2="0.5"></line><text fill="#000" y="9" x="0.5" dy="0.71em">Jun 21</text></g><g class="tick" opacity="1" transform="translate(573.998400639744,0)"><line stroke="#000" y2="6" x1="0.5" x2="0.5"></line><text fill="#000" y="9" x="0.5" dy="0.71em">Jun 28</text></g><g class="tick" opacity="1" transform="translate(636.2734906037584,0)"><line stroke="#000" y2="6" x1="0.5" x2="0.5"></line><text fill="#000" y="9" x="0.5" dy="0.71em">Jul  5</text></g><g class="tick" opacity="1" transform="translate(698.5485805677728,0)"><line stroke="#000" y2="6" x1="0.5" x2="0.5"></line><text fill="#000" y="9" x="0.5" dy="0.71em">Jul 12</text></g><g class="tick" opacity="1" transform="translate(760.8236705317872,0)"><line stroke="#000" y2="6" x1="0.5" x2="0.5"></line><text fill="#000" y="9" x="0.5" dy="0.71em">Jul 19</text></g><g class="tick" opacity="1" transform="translate(823.0987604958016,0)"><line stroke="#000" y2="6" x1="0.5" x2="0.5"></line><text fill="#000" y="9" x="0.5" dy="0.71em">Jul 26</text></g><g class="tick" opacity="1" transform="translate(885.3738504598159,0)"><line stroke="#000" y2="6" x1="0.5" x2="0.5"></line><text fill="#000" y="9" x="0.5" dy="0.71em">Aug  2</text></g></g><g class="y axis" fill="none" font-size="10" font-family="sans-serif" text-anchor="end"><path class="domain" stroke="#000" d="M-6,200.5H0.5V0.5H-6"></path><g class="tick" opacity="1" transform="translate(0,188.66703422005588)"><line stroke="#000" x2="-6" y1="0.5" y2="0.5"></line><text fill="#000" x="-9" y="0.5" dy="0.32em">30,000</text></g><g class="tick" opacity="1" transform="translate(0,157.3414612753267)"><line stroke="#000" x2="-6" y1="0.5" y2="0.5"></line><text fill="#000" x="-9" y="0.5" dy="0.32em">35,000</text></g><g class="tick" opacity="1" transform="translate(0,126.01588833059758)"><line stroke="#000" x2="-6" y1="0.5" y2="0.5"></line><text fill="#000" x="-9" y="0.5" dy="0.32em">40,000</text></g><g class="tick" opacity="1" transform="translate(0,94.6903153858684)"><line stroke="#000" x2="-6" y1="0.5" y2="0.5"></line><text fill="#000" x="-9" y="0.5" dy="0.32em">45,000</text></g><g class="tick" opacity="1" transform="translate(0,63.36474244113924)"><line stroke="#000" x2="-6" y1="0.5" y2="0.5"></line><text fill="#000" x="-9" y="0.5" dy="0.32em">50,000</text></g><g class="tick" opacity="1" transform="translate(0,32.039169496410096)"><line stroke="#000" x2="-6" y1="0.5" y2="0.5"></line><text fill="#000" x="-9" y="0.5" dy="0.32em">55,000</text></g><g class="tick" opacity="1" transform="translate(0,0.7135965516809222)"><line stroke="#000" x2="-6" y1="0.5" y2="0.5"></line><text fill="#000" x="-9" y="0.5" dy="0.32em">60,000</text></g><text transform="rotate(-90)" y="6" dy=".71em" style="text-anchor: end;">Price ($)</text></g></g></svg>