<?xml version="1.0" encoding="utf-8"?>
<!DOCTYPE svg PUBLIC "-//W3C//DTD SVG 1.1//EN" "http://www.w3.org/Graphics/SVG/1.1/DTD/svg11.dtd">
<svg version="1.1" xmlns="http://www.w3.org/2000/svg" width="960" height="250"><g transform="translate(50,20)"><style>.axis path,.axis line{fill:none;stroke:#000;shape-rendering:crispEdges;}path.candle{stroke:#000000;}path.candle.body{stroke-width:0;}path.candle.up{fill:#00AA00;stroke:#00AA00;}path.candle.down{fill:#FF0000;stroke:#FF0000;}</style><g class="candlestick"><g class="data"><path class="candle body up" d="M 18.860455817672932 78.54479669226961 l 7.1171531387445 0 L 25.977608956417434 73.1072716452553 l -7.1171531387445 0 L 18.860455817672932 78.54479669226961 M 27.75689724110356 73.1072716452553 l 7.1171531387445 0 L 34.87405037984806 49.59547836205945 l -7.1171531387445 0 L 27.75689724110356 73.1072716452553 M 54.446221511395436 73.11503305290634 l 7.1171531387445 0 L 61.563374650139934 72.54544824047568 l -7.1171531387445 0 L 54.446221511395436 73.11503305290634 M 72.23910435825668 80.08726663167882 l 7.1171531387445 0 L 79.35625749700118 66.21909557576038 l -7.1171531387445 0 L 72.23910435825668 80.08726663167882 M 90.03198720511796 69.08232279073505 l 7.1171531387445 0 L 97.14914034386246 55.65603942513917 l -7.1171531387445 0 L 90.03198720511796 69.08232279073505 M 107.82487005197919 57.09197306141343 l 7.1171531387445 0 L 114.94202319072369 50.94420599349954 l -7.1171531387445 0 L 107.82487005197919 57.09197306141343 M 116.72131147540982 50.94420599349954 l 7.1171531387445 0 L 123.83846461415432 47.695983670701224 l -7.1171531387445 0 L 116.72131147540982 50.94420599349954 M 143.4106357457017 56.47420894488465 l 7.1171531387445 0 L 150.5277888844462 46.50248419228248 l -7.1171531387445 0 L 143.4106357457017 56.47420894488465 M 152.30707716913233 46.50248419228248 l 7.1171531387445 0 L 159.42423030787683 42.705032446930744 l -7.1171531387445 0 L 152.30707716913233 46.50248419228248 M 161.20351859256294 42.705032446930744 l 7.1171531387445 0 L 168.32067173130744 34.587039368876276 l -7.1171531387445 0 L 161.20351859256294 42.705032446930744 M 170.09996001599356 34.587039368876276 l 7.1171531387445 0 L 177.21711315473806 32.23152536760438 l -7.1171531387445 0 L 170.09996001599356 34.587039368876276 M 178.9964014394242 32.23152536760438 l 7.1171531387445 0 L 186.1135545781687 30.78094756595081 l -7.1171531387445 0 L 178.9964014394242 32.23152536760438 M 187.89284286285485 30.78094756595081 l 7.1171531387445 0 L 195.00999600159935 13.819416236120844 l -7.1171531387445 0 L 187.89284286285485 30.78094756595081 M 196.78928428628546 13.819416236120844 l 7.1171531387445 0 L 203.90643742502996 11.663428988142925 l -7.1171531387445 0 L 196.78928428628546 13.819416236120844 M 205.68572570971608 11.663428988142925 l 7.1171531387445 0 L 212.80287884846058 9.374619160174063 l -7.1171531387445 0 L 205.68572570971608 11.663428988142925 M 232.37504998000796 23.465601192339648 l 7.1171531387445 0 L 239.49220311875246 17.804606181636075 l -7.1171531387445 0 L 232.37504998000796 23.465601192339648 M 250.16793282686922 21.264290252512552 l 7.1171531387445 0 L 257.28508596561375 16.897693019691616 l -7.1171531387445 0 L 250.16793282686922 21.264290252512552 M 259.06437425029986 16.897619798864696 l 7.1171531387445 0 L 266.1815273890444 15.629801181145638 l -7.1171531387445 0 L 259.06437425029986 16.897619798864696 M 285.7536985205918 40.598396036281315 l 7.1171531387445 0 L 292.8708516593363 38.59419556246053 l -7.1171531387445 0 L 285.7536985205918 40.598396036281315 M 303.54658136745303 47.323362882623144 l 7.1171531387445 0 L 310.66373450619756 43.64804347653538 l -7.1171531387445 0 L 303.54658136745303 47.323362882623144 M 330.23590563774496 67.25092346839091 l 7.1171531387445 0 L 337.3530587764895 63.264122664683924 l -7.1171531387445 0 L 330.23590563774496 67.25092346839091 M 339.13234706117555 63.26404944385706 l 7.1171531387445 0 L 346.2495001999201 55.4086262510547 l -7.1171531387445 0 L 339.13234706117555 63.26404944385706 M 356.9252299080368 64.23481116685556 l 7.1171531387445 0 L 364.0423830467813 59.771782105011454 l -7.1171531387445 0 L 356.9252299080368 64.23481116685556 M 383.61455417832866 66.16974473843189 l 7.1171531387445 0 L 390.7317073170732 57.946899436261134 l -7.1171531387445 0 L 383.61455417832866 66.16974473843189 M 392.5109956017593 57.946899436261134 l 7.1171531387445 0 L 399.62814874050383 52.87965211086416 l -7.1171531387445 0 L 392.5109956017593 57.946899436261134 M 436.99320271891247 67.90141729454257 l 7.1171531387445 0 L 444.110355857657 67.83903315002647 l -7.1171531387445 0 L 436.99320271891247 67.90141729454257 M 445.8896441423431 67.8391063708533 l 7.1171531387445 0 L 453.00679728108764 60.69304654902771 l -7.1171531387445 0 L 445.8896441423431 67.8391063708533 M 463.68252698920435 77.6322455266541 l 7.1171531387445 0 L 470.7996801279489 69.40896089952193 l -7.1171531387445 0 L 463.68252698920435 77.6322455266541 M 472.57896841263494 69.40896089952193 l 7.1171531387445 0 L 479.69612155137946 65.70142432959963 l -7.1171531387445 0 L 472.57896841263494 69.40896089952193 M 499.2682926829268 81.16031784985222 l 7.1171531387445 0 L 506.38544582167134 75.02770749310604 l -7.1171531387445 0 L 499.2682926829268 81.16031784985222 M 508.16473410635746 75.02770749310604 l 7.1171531387445 0 L 515.281887245102 74.61173997550496 l -7.1171531387445 0 L 508.16473410635746 75.02770749310604 M 525.9576169532187 80.44165543385961 l 7.1171531387445 0 L 533.0747700919632 66.08268517525156 l -7.1171531387445 0 L 525.9576169532187 80.44165543385961 M 579.3362654938024 136.4901482402502 l 7.1171531387445 0 L 586.4534186325469 129.58637613462628 l -7.1171531387445 0 L 579.3362654938024 136.4901482402502 M 606.0255897640943 144.13799038879995 l 7.1171531387445 0 L 613.1427429028388 142.25394529191695 l -7.1171531387445 0 L 606.0255897640943 144.13799038879995 M 614.9220311875249 142.25394529191695 l 7.1171531387445 0 L 622.0391843262694 136.3985489858022 l -7.1171531387445 0 L 614.9220311875249 142.25394529191695 M 623.8184726109555 136.3985489858022 l 7.1171531387445 0 L 630.9356257497 127.30342397280918 l -7.1171531387445 0 L 623.8184726109555 136.3985489858022 M 641.6113554578168 137.95617563637904 l 7.1171531387445 0 L 648.7285085965613 133.77585218718372 l -7.1171531387445 0 L 641.6113554578168 137.95617563637904 M 659.4042383046781 146.44012640726402 l 7.1171531387445 0 L 666.5213914434225 134.6962379812772 l -7.1171531387445 0 L 659.4042383046781 146.44012640726402 M 677.1971211515394 142.8839372865375 l 7.1171531387445 0 L 684.3142742902838 141.0969830061197 l -7.1171531387445 0 L 677.1971211515394 142.8839372865375 M 686.09356257497 141.0969097852928 l 7.1171531387445 0 L 693.2107157137144 134.88141345249937 l -7.1171531387445 0 L 686.09356257497 141.0969097852928 M 703.8864454218311 143.5566170232389 l 7.1171531387445 0 L 711.0035985605756 139.56286024097676 l -7.1171531387445 0 L 703.8864454218311 143.5566170232389 M 739.4722111155537 147.06631091888593 l 7.1171531387445 0 L 746.5893642542982 144.12634827732333 l -7.1171531387445 0 L 739.4722111155537 147.06631091888593 M 748.3686525389844 144.12634827732333 l 7.1171531387445 0 L 755.4858056777289 140.92828222094937 l -7.1171531387445 0 L 748.3686525389844 144.12634827732333 M 757.265093962415 140.92828222094937 l 7.1171531387445 0 L 764.3822471011595 124.33556419619887 l -7.1171531387445 0 L 757.265093962415 140.92828222094937 M 766.1615353858456 124.335490975372 l 7.1171531387445 0 L 773.27868852459 123.84630263087408 l -7.1171531387445 0 L 766.1615353858456 124.335490975372 M 783.9544182327068 138.45532201333492 l 7.1171531387445 0 L 791.0715713714512 133.71954537130003 l -7.1171531387445 0 L 783.9544182327068 138.45532201333492 M 801.747301079568 139.22875360784641 l 7.1171531387445 0 L 808.8644542183125 138.0291768007952 l -7.1171531387445 0 L 801.747301079568 139.22875360784641 M 810.6437425029987 138.02925002162212 l 7.1171531387445 0 L 817.7608956417432 137.62521749880526 l -7.1171531387445 0 L 810.6437425029987 138.02925002162212 M 819.5401839264293 137.62529071963215 l 7.1171531387445 0 L 826.6573370651738 126.97971469709817 l -7.1171531387445 0 L 819.5401839264293 137.62529071963215"></path><path class="candle body down" d="M 1.0675729708116766 68.22095298312044 l 7.1171531387445 0 L 8.184726109556177 75.37579930417371 l -7.1171531387445 0 L 1.0675729708116766 68.22095298312044 M 9.964014394242305 75.37587252500056 l 7.1171531387445 0 L 17.081167532986804 78.54486991309653 l -7.1171531387445 0 L 9.964014394242305 75.37587252500056 M 36.65333866453418 49.59555158288637 l 7.1171531387445 0 L 43.77049180327868 68.04500333608729 l -7.1171531387445 0 L 36.65333866453418 49.59555158288637 M 45.54978008796481 68.04493011526037 l 7.1171531387445 0 L 52.66693322670931 73.11503305290634 l -7.1171531387445 0 L 45.54978008796481 68.04493011526037 M 63.342662934826066 72.5455214613026 l 7.1171531387445 0 L 70.45981607357056 80.08733985250574 l -7.1171531387445 0 L 63.342662934826066 72.5455214613026 M 81.13554578168731 66.21909557576038 l 7.1171531387445 0 L 88.25269892043181 69.08232279073505 l -7.1171531387445 0 L 81.13554578168731 66.21909557576038 M 98.92842862854857 55.65596620431225 l 7.1171531387445 0 L 106.04558176729307 57.09189984058651 l -7.1171531387445 0 L 98.92842862854857 55.65596620431225 M 125.61775289884046 47.695983670701224 l 7.1171531387445 0 L 132.73490603758498 54.57156575796981 l -7.1171531387445 0 L 125.61775289884046 47.695983670701224 M 134.51419432227107 54.57156575796981 l 7.1171531387445 0 L 141.63134746101557 56.47428216571154 l -7.1171531387445 0 L 134.51419432227107 54.57156575796981 M 214.5821671331467 9.374692381000983 l 7.1171531387445 0 L 221.6993202718912 12.0604323115777 l -7.1171531387445 0 L 214.5821671331467 9.374692381000983 M 223.47860855657734 12.0604323115777 l 7.1171531387445 0 L 230.59576169532184 23.465674413166568 l -7.1171531387445 0 L 223.47860855657734 12.0604323115777 M 241.2714914034386 17.804606181636075 l 7.1171531387445 0 L 248.3886445421831 21.264217031685632 l -7.1171531387445 0 L 241.2714914034386 17.804606181636075 M 267.9608156737305 15.629874401972529 l 7.1171531387445 0 L 275.07796881247504 23.559323850767612 l -7.1171531387445 0 L 267.9608156737305 15.629874401972529 M 276.85725709716115 23.559397071594503 l 7.1171531387445 0 L 283.9744102359057 40.598396036281315 l -7.1171531387445 0 L 276.85725709716115 23.559397071594503 M 294.65013994402244 38.59412234163369 l 7.1171531387445 0 L 301.76729308276697 47.32343610344998 l -7.1171531387445 0 L 294.65013994402244 38.59412234163369 M 312.4430227908837 43.64811669736227 l 7.1171531387445 0 L 319.5601759296282 48.00556132682112 l -7.1171531387445 0 L 312.4430227908837 43.64811669736227 M 321.3394642143143 48.00556132682112 l 7.1171531387445 0 L 328.45661735305885 67.25092346839091 l -7.1171531387445 0 L 321.3394642143143 48.00556132682112 M 348.02878848460614 55.40869947188162 l 7.1171531387445 0 L 355.14594162335067 64.2347379460287 l -7.1171531387445 0 L 348.02878848460614 55.40869947188162 M 365.8216713314674 59.771782105011454 l 7.1171531387445 0 L 372.93882447021196 61.039893606038135 l -7.1171531387445 0 L 365.8216713314674 59.771782105011454 M 374.7181127548981 61.039966826865054 l 7.1171531387445 0 L 381.8352658936426 66.169671517605 l -7.1171531387445 0 L 374.7181127548981 61.039966826865054 M 401.40743702518995 52.87957889003724 l 7.1171531387445 0 L 408.5245901639345 53.86806005314483 l -7.1171531387445 0 L 401.40743702518995 52.87957889003724 M 410.3038784486206 53.86806005314483 l 7.1171531387445 0 L 417.4210315873651 60.29816662957296 l -7.1171531387445 0 L 410.3038784486206 53.86806005314483 M 419.20031987205124 60.29816662957296 l 7.1171531387445 0 L 426.31747301079577 65.94224762926336 l -7.1171531387445 0 L 419.20031987205124 60.29816662957296 M 428.0967612954818 65.94217440843647 l 7.1171531387445 0 L 435.21391443422635 67.90149051536946 l -7.1171531387445 0 L 428.0967612954818 65.94217440843647 M 454.7860855657737 60.69304654902771 l 7.1171531387445 0 L 461.90323870451823 77.6321723058272 l -7.1171531387445 0 L 454.7860855657737 60.69304654902771 M 481.47540983606564 65.70149755042652 l 7.1171531387445 0 L 488.59256297481016 74.09223820867179 l -7.1171531387445 0 L 481.47540983606564 65.70149755042652 M 490.3718512594962 74.09223820867179 l 7.1171531387445 0 L 497.48900439824075 81.16031784985222 l -7.1171531387445 0 L 490.3718512594962 74.09223820867179 M 517.0611755297881 74.61173997550496 l 7.1171531387445 0 L 524.1783286685326 80.44165543385961 l -7.1171531387445 0 L 517.0611755297881 74.61173997550496 M 534.8540583766493 66.08268517525156 l 7.1171531387445 0 L 541.9712115153937 89.05227823527613 l -7.1171531387445 0 L 534.8540583766493 66.08268517525156 M 543.75049980008 89.05227823527613 l 7.1171531387445 0 L 550.8676529388244 93.00034522155467 l -7.1171531387445 0 L 543.75049980008 89.05227823527613 M 552.6469412235106 93.00034522155467 l 7.1171531387445 0 L 559.764094362255 96.96437434809665 l -7.1171531387445 0 L 552.6469412235106 93.00034522155467 M 561.5433826469413 96.96430112726975 l 7.1171531387445 0 L 568.6605357856857 107.46416770427898 l -7.1171531387445 0 L 561.5433826469413 96.96430112726975 M 570.4398240703717 107.4642409251059 l 7.1171531387445 0 L 577.5569772091162 136.4749183082556 l -7.1171531387445 0 L 570.4398240703717 107.4642409251059 M 588.232706917233 129.5863029137994 l 7.1171531387445 0 L 595.3498600559775 143.5946918532253 l -7.1171531387445 0 L 588.232706917233 129.5863029137994 M 597.1291483406637 143.5946918532253 l 7.1171531387445 0 L 604.2463014794082 144.13791716797306 l -7.1171531387445 0 L 597.1291483406637 143.5946918532253 M 632.7149140343862 127.30342397280918 l 7.1171531387445 0 L 639.8320671731307 137.95617563637904 l -7.1171531387445 0 L 632.7149140343862 127.30342397280918 M 650.5077968812475 133.77585218718372 l 7.1171531387445 0 L 657.624950019992 146.4401996280909 l -7.1171531387445 0 L 650.5077968812475 133.77585218718372 M 668.3006797281087 134.69631120210408 l 7.1171531387445 0 L 675.4178328668531 142.8839372865375 l -7.1171531387445 0 L 668.3006797281087 134.69631120210408 M 694.9900039984005 134.88148667332624 l 7.1171531387445 0 L 702.107157137145 143.55654380241202 l -7.1171531387445 0 L 694.9900039984005 134.88148667332624 M 712.7828868452618 139.56286024097676 l 7.1171531387445 0 L 719.9000399840063 140.38608199777812 l -7.1171531387445 0 L 712.7828868452618 139.56286024097676 M 721.6793282686924 140.38615521860504 l 7.1171531387445 0 L 728.7964814074369 142.88144777842302 l -7.1171531387445 0 L 721.6793282686924 140.38615521860504 M 730.5757696921231 142.88144777842302 l 7.1171531387445 0 L 737.6929228308676 147.06638413971285 l -7.1171531387445 0 L 730.5757696921231 142.88144777842302 M 775.0579768092763 123.8462294100472 l 7.1171531387445 0 L 782.1751299480208 138.45539523416178 l -7.1171531387445 0 L 775.0579768092763 123.8462294100472 M 792.8508596561375 133.7194721504731 l 7.1171531387445 0 L 799.9680127948819 139.22875360784641 l -7.1171531387445 0 L 792.8508596561375 133.7194721504731 M 828.43662534986 126.97971469709817 l 7.1171531387445 0 L 835.5537784886045 128.79390712512156 l -7.1171531387445 0 L 828.43662534986 126.97971469709817 M 837.3330667732906 128.79398034594848 l 7.1171531387445 0 L 844.4502199120351 135.53432356593862 l -7.1171531387445 0 L 837.3330667732906 128.79398034594848 M 846.2295081967213 135.53432356593862 l 7.1171531387445 0 L 853.3466613354658 136.22874988822838 l -7.1171531387445 0 L 846.2295081967213 135.53432356593862 M 855.1259496201519 136.22874988822838 l 7.1171531387445 0 L 862.2431027588964 143.68299617046287 l -7.1171531387445 0 L 855.1259496201519 136.22874988822838 M 864.0223910435824 143.6830693912898 l 7.1171531387445 0 L 871.1395441823269 148.56814329936736 l -7.1171531387445 0 L 864.0223910435824 143.6830693912898 M 872.9188324670131 148.56807007854047 l 7.1171531387445 0 L 880.0359856057576 162.11524102934308 l -7.1171531387445 0 L 872.9188324670131 148.56807007854047 M 881.8152738904437 162.11524102934308 l 7.1171531387445 0 L 888.9324270291881 194.29110831759013 l -7.1171531387445 0 L 881.8152738904437 162.11524102934308"></path><path class="candle body equal"></path><path class="candle wick up" d="M 22.41903238704518 68.48374253085325 L 22.41903238704518 73.1072716452553 M 22.41903238704518 78.54479669226961 L 22.41903238704518 79.4260825648002 M 31.315473810475808 44.81891771944305 L 31.315473810475808 49.59547836205945 M 31.315473810475808 73.1072716452553 L 31.315473810475808 73.65042373917616 M 58.004798080767685 67.57119136523775 L 58.004798080767685 72.54544824047568 M 58.004798080767685 73.11503305290634 L 58.004798080767685 73.62062286262916 M 75.79768092762893 64.20003127407955 L 75.79768092762893 66.21909557576038 M 75.79768092762893 80.08726663167882 L 75.79768092762893 81.71533171773042 M 93.5905637744902 51.23350148056903 L 93.5905637744902 55.65603942513917 M 93.5905637744902 69.08232279073505 L 93.5905637744902 72.3908058540695 M 111.38344662135144 46.78885084627606 L 111.38344662135144 50.94420599349954 M 111.38344662135144 57.09197306141343 L 111.38344662135144 62.824065495033835 M 120.27988804478207 46.23984108620343 L 120.27988804478207 47.695983670701224 M 120.27988804478207 50.94420599349954 L 120.27988804478207 52.83491418563017 M 146.96921231507397 39.20331962141549 L 146.96921231507397 46.50248419228248 M 146.96921231507397 56.47420894488465 L 146.96921231507397 57.4022829258023 M 155.8656537385046 41.6565102057678 L 155.8656537385046 42.705032446930744 M 155.8656537385046 46.50248419228248 L 155.8656537385046 50.98843137294523 M 164.7620951619352 32.90713393738173 L 164.7620951619352 34.587039368876276 M 164.7620951619352 42.705032446930744 L 164.7620951619352 45.06493969781647 M 173.65853658536582 26.513125228613717 L 173.65853658536582 32.23152536760438 M 173.65853658536582 34.587039368876276 L 173.65853658536582 37.60710559506404 M 182.55497800879647 28.71817043061256 L 182.55497800879647 30.78094756595081 M 182.55497800879647 32.23152536760438 L 182.55497800879647 33.997538491529696 M 191.4514194322271 12.565582796339072 L 191.4514194322271 13.819416236120844 M 191.4514194322271 30.78094756595081 L 191.4514194322271 31.43854381231145 M 200.34786085565773 3.846153846153868 L 200.34786085565773 11.663428988142925 M 200.34786085565773 13.819416236120844 L 200.34786085565773 15.02170221376727 M 209.24430227908834 4.529816706889761 L 209.24430227908834 9.374619160174063 M 209.24430227908834 11.663428988142925 L 209.24430227908834 12.918141077847451 M 235.93362654938022 14.607784879319325 L 235.93362654938022 17.804606181636075 M 235.93362654938022 23.465601192339648 L 235.93362654938022 33.06009224476924 M 253.72650939624148 9.306450570333112 L 253.72650939624148 16.897693019691616 M 253.72650939624148 21.264290252512552 L 253.72650939624148 23.314985951412808 M 262.6229508196721 13.358491130805163 L 262.6229508196721 15.629801181145638 M 262.6229508196721 16.897619798864696 L 262.6229508196721 26.338420335637807 M 289.31227508996403 35.24946818981215 L 289.31227508996403 38.59419556246053 M 289.31227508996403 40.598396036281315 L 289.31227508996403 43.84295731773483 M 307.10515793682526 43.31100801032915 L 307.10515793682526 43.64804347653538 M 307.10515793682526 47.323362882623144 L 307.10515793682526 48.2498992261759 M 333.7944822071172 58.69470374135872 L 333.7944822071172 63.264122664683924 M 333.7944822071172 67.25092346839091 L 333.7944822071172 69.27050031586 M 342.6909236305478 52.3807986172159 L 342.6909236305478 55.4086262510547 M 342.6909236305478 63.26404944385706 L 342.6909236305478 66.82558368494705 M 360.483806477409 57.439991651654196 L 360.483806477409 59.771782105011454 M 360.483806477409 64.23481116685556 L 360.483806477409 65.52327805775954 M 387.1731307477009 55.6360501393963 L 387.1731307477009 57.946899436261134 M 387.1731307477009 66.16974473843189 L 387.1731307477009 74.52863433697703 M 396.06957217113154 50.925974007602235 L 396.06957217113154 52.87965211086416 M 396.06957217113154 57.946899436261134 L 396.06957217113154 59.63193032563848 M 440.5517792882847 64.25216450283014 L 440.5517792882847 67.83903315002647 M 440.5517792882847 67.90141729454257 L 440.5517792882847 71.6502504108347 M 449.44822071171535 59.302436604602605 L 449.44822071171535 60.69304654902771 M 449.44822071171535 67.8391063708533 L 449.44822071171535 76.99258838288317 M 467.2411035585766 67.65898313668706 L 467.2411035585766 69.40896089952193 M 467.2411035585766 77.6322455266541 L 467.2411035585766 79.3260629152591 M 476.13754498200717 61.08441186879142 L 476.13754498200717 65.70142432959963 M 476.13754498200717 69.40896089952193 L 476.13754498200717 72.00310157565066 M 502.82686925229905 73.51459910528249 L 502.82686925229905 75.02770749310604 M 502.82686925229905 81.16031784985222 L 502.82686925229905 82.94998130086523 M 511.7233106757297 69.90964491384267 L 511.7233106757297 74.61173997550496 M 511.7233106757297 75.02770749310604 L 511.7233106757297 78.07625662095666 M 529.5161935225909 63.63879363591519 L 529.5161935225909 66.08268517525156 M 529.5161935225909 80.44165543385961 L 529.5161935225909 80.87329220841657 M 582.8948420631747 117.56432178725828 L 582.8948420631747 129.58637613462628 M 582.8948420631747 136.4901482402502 L 582.8948420631747 139.0076999314448 M 609.5841663334666 129.1011417147808 L 609.5841663334666 142.25394529191695 M 609.5841663334666 144.13799038879995 L 609.5841663334666 146.17404192232084 M 618.4806077568971 134.52021511341715 L 618.4806077568971 136.3985489858022 M 618.4806077568971 142.25394529191695 L 618.4806077568971 147.06491972317488 M 627.3770491803277 126.34342571136449 L 627.3770491803277 127.30342397280918 M 627.3770491803277 136.3985489858022 L 627.3770491803277 140.8411494369421 M 645.169932027189 131.26115610823808 L 645.169932027189 133.77585218718372 M 645.169932027189 137.95617563637904 L 645.169932027189 141.05802952621056 M 662.9628148740503 133.04181339754274 L 662.9628148740503 134.6962379812772 M 662.9628148740503 146.44012640726402 L 662.9628148740503 146.61549028768198 M 680.7556977209116 139.55114490867328 L 680.7556977209116 141.0969830061197 M 680.7556977209116 142.8839372865375 L 680.7556977209116 144.74176932739144 M 689.6521391443422 133.46056330656583 L 689.6521391443422 134.88141345249937 M 689.6521391443422 141.0969097852928 L 689.6521391443422 142.48781261302548 M 707.4450219912034 138.16229226409368 L 707.4450219912034 139.56286024097676 M 707.4450219912034 143.5566170232389 L 707.4450219912034 146.77935849827716 M 743.0307876849259 142.4080751325348 L 743.0307876849259 144.12634827732333 M 743.0307876849259 147.06631091888593 L 743.0307876849259 148.38289460731832 M 751.9272291083566 140.05197536464777 L 751.9272291083566 140.92828222094937 M 751.9272291083566 144.12634827732333 L 751.9272291083566 145.53306680366578 M 760.8236705317872 120.76399870182402 L 760.8236705317872 124.33556419619887 M 760.8236705317872 140.92828222094937 L 760.8236705317872 142.16190671250757 M 769.7201119552178 119.46799006574966 L 769.7201119552178 123.84630263087408 M 769.7201119552178 124.335490975372 L 769.7201119552178 128.24709398985587 M 787.512994802079 131.98875146511213 L 787.512994802079 133.71954537130003 M 787.512994802079 138.45532201333492 L 787.512994802079 140.0024048648386 M 805.3058776489403 137.11508799781484 L 805.3058776489403 138.0291768007952 M 805.3058776489403 139.22875360784641 L 805.3058776489403 140.80453902349365 M 814.202319072371 135.64979280995496 L 814.202319072371 137.62521749880526 M 814.202319072371 138.02925002162212 L 814.202319072371 140.46464794503845 M 823.0987604958016 124.10550435808896 L 823.0987604958016 126.97971469709817 M 823.0987604958016 137.62529071963215 L 823.0987604958016 137.83741145515233" style="stroke-width: 1px;"></path><path class="candle wick down" d="M 4.626149540183927 66.05434871524244 L 4.626149540183927 68.22095298312044 M 4.626149540183927 75.37579930417371 L 4.626149540183927 77.80848805699485 M 13.522590963614554 67.12556941274349 L 13.522590963614554 75.37587252500056 M 13.522590963614554 78.54486991309653 L 13.522590963614554 84.64416479360469 M 40.21191523390643 48.87850002508546 L 40.21191523390643 49.59555158288637 M 40.21191523390643 68.04500333608729 L 40.21191523390643 74.50505723071623 M 49.10835665733706 62.08292428518385 L 49.10835665733706 68.04493011526037 M 49.10835665733706 73.11503305290634 L 49.10835665733706 76.8197872314066 M 66.90123950419832 68.86507659733209 L 66.90123950419832 72.5455214613026 M 66.90123950419832 80.08733985250574 L 66.90123950419832 81.54318955369588 M 84.69412235105956 64.63576841494276 L 84.69412235105956 66.21909557576038 M 84.69412235105956 69.08232279073505 L 84.69412235105956 77.73702452994348 M 102.48700519792082 52.984797218288065 L 102.48700519792082 55.65596620431225 M 102.48700519792082 57.09189984058651 L 102.48700519792082 60.151798196606165 M 129.1763294682127 46.99943394443139 L 129.1763294682127 47.695983670701224 M 129.1763294682127 54.57156575796981 L 129.1763294682127 57.14242221114537 M 138.07277089164333 52.50593301038259 L 138.07277089164333 54.57156575796981 M 138.07277089164333 56.47428216571154 L 138.07277089164333 60.38654416763748 M 218.14074370251896 7.431191972677709 L 218.14074370251896 9.374692381000983 M 218.14074370251896 12.0604323115777 L 218.14074370251896 16.618941331695282 M 227.0371851259496 8.165011099838011 L 227.0371851259496 12.0604323115777 M 227.0371851259496 23.465674413166568 L 227.0371851259496 25.73800955508358 M 244.83006797281087 10.998657100746357 L 244.83006797281087 17.804606181636075 M 244.83006797281087 21.264217031685632 L 244.83006797281087 22.662734825415612 M 271.51939224310274 11.093844175712263 L 271.51939224310274 15.629874401972529 M 271.51939224310274 23.559323850767612 L 271.51939224310274 24.61180001658306 M 280.4158336665334 23.48910507777353 L 280.4158336665334 23.559397071594503 M 280.4158336665334 40.598396036281315 L 280.4158336665334 40.960619466940045 M 298.2087165133947 34.739631572129326 L 298.2087165133947 38.59412234163369 M 298.2087165133947 47.32343610344998 L 298.2087165133947 48.384186222704784 M 316.0015993602559 38.84234094481397 L 316.0015993602559 43.64811669736227 M 316.0015993602559 48.00556132682112 L 316.0015993602559 50.135189077116195 M 324.89804078368655 46.13213324983815 L 324.89804078368655 48.00556132682112 M 324.89804078368655 67.25092346839091 L 324.89804078368655 69.6705056931975 M 351.5873650539784 52.82971550692051 L 351.5873650539784 55.40869947188162 M 351.5873650539784 64.2347379460287 L 351.5873650539784 67.09357191138955 M 369.38024790083966 58.618920185520494 L 369.38024790083966 59.771782105011454 M 369.38024790083966 61.039893606038135 L 369.38024790083966 63.87471114017683 M 378.2766893242703 59.451294545683936 L 378.2766893242703 61.039966826865054 M 378.2766893242703 66.169671517605 L 378.2766893242703 67.13582032850906 M 404.9660135945622 47.711579706830236 L 404.9660135945622 52.87957889003724 M 404.9660135945622 53.86806005314483 L 404.9660135945622 57.80873173590675 M 413.86245501799283 42.022321456944496 L 413.86245501799283 53.86806005314483 M 413.86245501799283 60.29816662957296 L 413.86245501799283 65.6360381311807 M 422.7588964414235 57.99134447818753 L 422.7588964414235 60.29816662957296 M 422.7588964414235 65.94224762926336 L 422.7588964414235 69.83891359506029 M 431.65533786485406 63.95928119524271 L 431.65533786485406 65.94217440843647 M 431.65533786485406 67.90149051536946 L 431.65533786485406 69.04812866457425 M 458.34466213514594 57.974869792135735 L 458.34466213514594 60.69304654902771 M 458.34466213514594 77.6321723058272 L 458.34466213514594 80.6370818208473 M 485.0339864054379 64.36016522250299 L 485.0339864054379 65.70149755042652 M 485.0339864054379 74.09223820867179 L 485.0339864054379 77.1756404501253 M 493.93042782886846 72.63316679109815 L 493.93042782886846 74.09223820867179 M 493.93042782886846 81.16031784985222 L 493.93042782886846 81.54545939932973 M 520.6197520991603 73.68659482766317 L 520.6197520991603 74.61173997550496 M 520.6197520991603 80.44165543385961 L 520.6197520991603 81.9877131937867 M 538.4126349460215 64.94402809617853 L 538.4126349460215 66.08268517525156 M 538.4126349460215 89.05227823527613 L 538.4126349460215 96.23575389964603 M 547.3090763694522 88.1541515725593 L 547.3090763694522 89.05227823527613 M 547.3090763694522 93.00034522155467 L 547.3090763694522 98.53415565593838 M 556.2055177928828 92.02994960269058 L 556.2055177928828 93.00034522155467 M 556.2055177928828 96.96437434809665 L 556.2055177928828 101.99750076815968 M 565.1019592163135 96.6580916291871 L 565.1019592163135 96.96430112726975 M 565.1019592163135 107.46416770427898 L 565.1019592163135 109.83981743294753 M 573.998400639744 105.96497127356585 L 573.998400639744 107.4642409251059 M 573.998400639744 136.4749183082556 L 573.998400639744 136.7896214222583 M 591.7912834866053 121.19900363441825 L 591.7912834866053 129.5863029137994 M 591.7912834866053 143.5946918532253 L 591.7912834866053 153.2520795959593 M 600.687724910036 135.25440034471194 L 600.687724910036 143.5946918532253 M 600.687724910036 144.13791716797306 L 600.687724910036 161.19653931426822 M 636.2734906037584 127.30335075198226 L 636.2734906037584 127.30342397280918 M 636.2734906037584 137.95617563637904 L 636.2734906037584 143.71843505068097 M 654.0663734506197 131.83506094945562 L 654.0663734506197 133.77585218718372 M 654.0663734506197 146.4401996280909 L 654.0663734506197 146.88574835975828 M 671.8592562974809 131.3419919011322 L 671.8592562974809 134.69631120210408 M 671.8592562974809 142.8839372865375 L 671.8592562974809 146.33271145420633 M 698.5485805677728 132.12413677404442 L 698.5485805677728 134.88148667332624 M 698.5485805677728 143.55654380241202 L 698.5485805677728 145.3343454794677 M 716.3414634146341 135.39542365731526 L 716.3414634146341 139.56286024097676 M 716.3414634146341 140.38608199777812 L 716.3414634146341 142.2015191798588 M 725.2379048380647 137.86369773200832 L 725.2379048380647 140.38615521860504 M 725.2379048380647 142.88144777842302 L 725.2379048380647 151.5346118802666 M 734.1343462614954 141.4440497256108 L 734.1343462614954 142.88144777842302 M 734.1343462614954 147.06638413971285 L 734.1343462614954 149.60641462476477 M 778.6165533786485 122.51419612713957 L 778.6165533786485 123.8462294100472 M 778.6165533786485 138.45539523416178 L 778.6165533786485 142.15180223839582 M 796.4094362255097 131.91553063821527 L 796.4094362255097 133.7194721504731 M 796.4094362255097 139.22875360784641 L 796.4094362255097 142.28828585973156 M 831.9952019192323 125.39448379478124 L 831.9952019192323 126.97971469709817 M 831.9952019192323 128.79390712512156 L 831.9952019192323 142.75250590225764 M 840.8916433426629 127.31565185090095 L 840.8916433426629 128.79398034594848 M 840.8916433426629 135.53432356593862 L 840.8916433426629 138.17678998781926 M 849.7880847660936 131.9082085555256 L 849.7880847660936 135.53432356593862 M 849.7880847660936 136.22874988822838 L 849.7880847660936 137.442970860659 M 858.6845261895241 134.23077318469387 L 858.6845261895241 136.22874988822838 M 858.6845261895241 143.68299617046287 L 858.6845261895241 145.45406153144404 M 867.5809676129546 141.13103069062674 L 867.5809676129546 143.6830693912898 M 867.5809676129546 148.56814329936736 L 867.5809676129546 150.94569676953518 M 876.4774090363853 147.68758963510578 L 876.4774090363853 148.56807007854047 M 876.4774090363853 162.11524102934308 L 876.4774090363853 162.2216308908242 M 885.3738504598159 159.76258264032018 L 885.3738504598159 162.11524102934308 M 885.3738504598159 194.29110831759013 L 885.3738504598159 196.15384615384616" style="stroke-width: 1px;"></path><path class="candle wick equal" style="stroke-width: 1px;"></path></g></g><g class="x axis" transform="translate(0,200)" fill="none" font-size="10" font-family="sans-serif" text-anchor="middle"><path class="domain" stroke="#000" d="M0.5,6V0.5H890.5V6"></path><g class="tick" opacity="1" transform="translate(13.522590963614554,0)"><line stroke="#000" y2="6" x1="0.5" x2="0.5"></line><text fill="#000" y="9" x="0.5" dy="0.71em">Mar  7</text></g><g class="tick" opacity="1" transform="translate(75.79768092762893,0)"><line stroke="#000" y2="6" x1="0.5" x2="0.5"></line><text fill="#000" y="9" x="0.5" dy="0.71em">Mar 14</text></g><g class="tick" opacity="1" transform="translate(138.07277089164333,0)"><line stroke="#000" y2="6" x1="0.5" x2="0.5"></line><text fill="#000" y="9" x="0.5" dy="0.71em">Mar 21</text></g><g class="tick" opacity="1" transform="translate(200.34786085565773,0)"><line stroke="#000" y2="6" x1="0.5" x2="0.5"></line><text fill="#000" y="9" x="0.5" dy="0.71em">Mar 28</text></g><g class="tick" opacity="1" transform="translate(262.6229508196721,0)"><line stroke="#000" y2="6" x1="0.5" x2="0.5"></line><text fill="#000" y="9" x="0.5" dy="0.71em">Apr  4</text></g><g class="tick" opacity="1" transform="translate(324.89804078368655,0)"><line stroke="#000" y2="6" x1="0.5" x2="0.5"></line><text fill="#000" y="9" x="0.5" dy="0.71em">Apr 11</text></g><g class="tick" opacity="1" transform="translate(387.1731307477009,0)"><line stroke="#000" y2="6" x1="0.5" x2="0.5"></line><text fill="#000" y="9" x="0.5" dy="0.71em">Apr 18</text></g><g class="tick" opacity="1" transform="translate(449.44822071171535,0)"><line stroke="#000" y2="6" x1="0.5" x2="0.5"></line><text fill="#000" y="9" x="0.5" dy="0.71em">Apr 25</text></g><g class="tick" opacity="1" transform="translate(511.7233106757297,0)"><line stroke="#000" y2="6" x1="0.5" x2="0.5"></line><text fill="#000" y="9" x="0.5" dy="0.71em">May  2</text></g><g class="tick" opacity="1" transform="translate(573.998400639744,0)"><line stroke="#000" y2="6" x1="0.5" x2="0.5"></line><text fill="#000" y="9" x="0.5" dy="0.71em">May  9</text></g><g class="tick" opacity="1" transform="translate(636.2734906037584,0)"><line stroke="#000" y2="6" x1="0.5" x2="0.5"></line><text fill="#000" y="9" x="0.5" dy="0.71em">May 16</text></g><g class="tick" opacity="1" transform="translate(698.5485805677728,0)"><line stroke="#000" y2="6" x1="0.5" x2="0.5"></line><text fill="#000" y="9" x="0.5" dy="0.71em">May 23</text></g><g class="tick" opacity="1" transform="translate(760.8236705317872,0)"><line stroke="#000" y2="6" x1="0.5" x2="0.5"></line><text fill="#000" y="9" x="0.5" dy="0.71em">May 30</text></g><g class="tick" opacity="1" transform="translate(823.0987604958016,0)"><line stroke="#000" y2="6" x1="0.5" x2="0.5"></line><text fill="#000" y="9" x="0.5" dy="0.71em">Jun  6</text></g><g class="tick" opacity="1" transform="translate(885.3738504598159,0)"><line stroke="#000" y2="6" x1="0.5" x2="0.5"></line><text fill="#000" y="9" x="0.5" dy="0.71em">Jun 13</text></g></g><g class="y axis" fill="none" font-size="10" font-family="sans-serif" text-anchor="end"><path class="domain" stroke="#000" d="M-6,200.5H0.5V0.5H-6"></path><g class="tick" opacity="1" transform="translate(0,195.61032795579078)"><line stroke="#000" x2="-6" y1="0.5" y2="0.5"></line><text fill="#000" x="-9" y="0.5" dy="0.32em">22,000</text></g><g class="tick" opacity="1" transform="translate(0,180.9661625764195)"><line stroke="#000" x2="-6" y1="0.5" y2="0.5"></line><text fill="#000" x="-9" y="0.5" dy="0.32em">24,000</text></g><g class="tick" opacity="1" transform="translate(0,166.32199719704818)"><line stroke="#000" x2="-6" y1="0.5" y2="0.5"></line><text fill="#000" x="-9" y="0.5" dy="0.32em">26,000</text></g><g class="tick" opacity="1" transform="translate(0,151.67783181767686)"><line stroke="#000" x2="-6" y1="0.5" y2="0.5"></line><text fill="#000" x="-9" y="0.5" dy="0.32em">28,000</text></g><g class="tick" opacity="1" transform="translate(0,137.03366643830554)"><line stroke="#000" x2="-6" y1="0.5" y2="0.5"></line><text fill="#000" x="-9" y="0.5" dy="0.32em">30,000</text></g><g class="tick" opacity="1" transform="translate(0,122.38950105893423)"><line stroke="#000" x2="-6" y1="0.5" y2="0.5"></line><text fill="#000" x="-9" y="0.5" dy="0.32em">32,000</text></g><g class="tick" opacity="1" transform="translate(0,107.74533567956293)"><line stroke="#000" x2="-6" y1="0.5" y2="0.5"></line><text fill="#000" x="-9" y="0.5" dy="0.32em">34,000</text></g><g class="tick" opacity="1" transform="translate(0,93.1011703001916)"><line stroke="#000" x2="-6" y1="0.5" y2="0.5"></line><text fill="#000" x="-9" y="0.5" dy="0.32em">36,000</text></g><g class="tick" opacity="1" transform="translate(0,78.45700492082031)"><line stroke="#000" x2="-6" y1="0.5" y2="0.5"></line><text fill="#000" x="-9" y="0.5" dy="0.32em">38,000</text></g><g class="tick" opacity="1" transform="translate(0,63.812839541448994)"><line stroke="#000" x2="-6" y1="0.5" y2="0.5"></line><text fill="#000" x="-9" y="0.5" dy="0.32em">40,000</text></g><g class="tick" opacity="1" transform="translate(0,49.16867416207768)"><line stroke="#000" x2="-6" y1="0.5" y2="0.5"></line><text fill="#000" x="-9" y="0.5" dy="0.32em">42,000</text></g><g class="tick" opacity="1" transform="translate(0,34.52450878270636)"><line stroke="#000" x2="-6" y1="0.5" y2="0.5"></line><text fill="#000" x="-9" y="0.5" dy="0.32em">44,000</text></g><g class="tick" opacity="1" transform="translate(0,19.880343403335075)"><line stroke="#000" x2="-6" y1="0.5" y2="0.5"></line><text fill="#000" x="-9" y="0.5" dy="0.32em">46,000</text></g><g class="tick" opacity="1" transform="translate(0,5.236178023963731)"><line stroke="#000" x2="-6" y1="0.5" y2="0.5"></line><text fill="#000" x="-9" y="0.5" dy="0.32em">48,000</text></g><text transform="rotate(-90)" y="6" dy=".71em" style="text-anchor: end;">Price ($)</text></g></g></svg>