<?xml version="1.0" encoding="utf-8"?>
<!DOCTYPE svg PUBLIC "-//W3C//DTD SVG 1.1//EN" "http://www.w3.org/Graphics/SVG/1.1/DTD/svg11.dtd">
<svg version="1.1" xmlns="http://www.w3.org/2000/svg" width="960" height="250"><g transform="translate(50,20)"><style>.axis path,.axis line{fill:none;stroke:#000;shape-rendering:crispEdges;}path.candle{stroke:#000000;}path.candle.body{stroke-width:0;}path.candle.up{fill:#00AA00;stroke:#00AA00;}path.candle.down{fill:#FF0000;stroke:#FF0000;}</style><g class="candlestick"><g class="data"><path class="candle body up" d="M 1.0675729708116766 101.48411011034571 l 7.1171531387445 0 L 8.184726109556177 99.19764261576141 l -7.1171531387445 0 L 1.0675729708116766 101.48411011034571 M 18.860455817672932 117.25540351044909 l 7.1171531387445 0 L 25.977608956417434 113.08555519716701 l -7.1171531387445 0 L 18.860455817672932 117.25540351044909 M 27.75689724110356 113.08183964983071 l 7.1171531387445 0 L 34.87405037984806 70.28003979853295 l -7.1171531387445 0 L 27.75689724110356 113.08183964983071 M 45.54978008796481 72.2045928985246 l 7.1171531387445 0 L 52.66693322670931 62.17994576505927 l -7.1171531387445 0 L 45.54978008796481 72.2045928985246 M 54.446221511395436 62.17994576505927 l 7.1171531387445 0 L 61.563374650139934 47.527433793967475 l -7.1171531387445 0 L 54.446221511395436 62.17994576505927 M 63.342662934826066 47.527433793967475 l 7.1171531387445 0 L 70.45981607357056 45.4889037689307 l -7.1171531387445 0 L 63.342662934826066 47.527433793967475 M 72.23910435825668 45.48880334873243 l 7.1171531387445 0 L 79.35625749700118 42.177748571120986 l -7.1171531387445 0 L 72.23910435825668 45.48880334873243 M 116.72131147540982 65.4658954931013 l 7.1171531387445 0 L 123.83846461415432 60.6227297503674 l -7.1171531387445 0 L 116.72131147540982 65.4658954931013 M 125.61775289884046 60.6227297503674 l 7.1171531387445 0 L 132.73490603758498 40.4491152779691 l -7.1171531387445 0 L 125.61775289884046 60.6227297503674 M 161.20351859256294 86.34526311899513 l 7.1171531387445 0 L 168.32067173130744 85.29366280263133 l -7.1171531387445 0 L 161.20351859256294 86.34526311899513 M 187.89284286285485 116.13280611390296 l 7.1171531387445 0 L 195.00999600159935 103.85975074100061 l -7.1171531387445 0 L 187.89284286285485 116.13280611390296 M 205.68572570971608 113.70404319835924 l 7.1171531387445 0 L 212.80287884846058 102.88687986008654 l -7.1171531387445 0 L 205.68572570971608 113.70404319835924 M 214.5821671331467 102.87211809093971 l 7.1171531387445 0 L 221.6993202718912 93.92979985451122 l -7.1171531387445 0 L 214.5821671331467 102.87211809093971 M 241.2714914034386 109.194573774502 l 7.1171531387445 0 L 248.3886445421831 54.35590685665096 l -7.1171531387445 0 L 241.2714914034386 109.194573774502 M 250.16793282686922 54.35590685665096 l 7.1171531387445 0 L 257.28508596561375 41.69091144987084 l -7.1171531387445 0 L 250.16793282686922 54.35590685665096 M 285.7536985205918 94.63796309276533 l 7.1171531387445 0 L 292.8708516593363 92.1343871295047 l -7.1171531387445 0 L 285.7536985205918 94.63796309276533 M 312.4430227908837 106.29313298566518 l 7.1171531387445 0 L 319.5601759296282 98.83572822116867 l -7.1171531387445 0 L 312.4430227908837 106.29313298566518 M 321.3394642143143 98.83572822116867 l 7.1171531387445 0 L 328.45661735305885 66.5899991926216 l -7.1171531387445 0 L 321.3394642143143 98.83572822116867 M 348.02878848460614 98.84637276218609 l 7.1171531387445 0 L 355.14594162335067 98.06520403978405 l -7.1171531387445 0 L 348.02878848460614 98.84637276218609 M 365.8216713314674 108.40858488258269 l 7.1171531387445 0 L 372.93882447021196 89.3887984883948 l -7.1171531387445 0 L 365.8216713314674 108.40858488258269 M 383.61455417832866 93.31562992184494 l 7.1171531387445 0 L 390.7317073170732 74.90187942426287 l -7.1171531387445 0 L 383.61455417832866 93.31562992184494 M 401.40743702518995 76.87121993268633 l 7.1171531387445 0 L 408.5245901639345 68.43973924489632 l -7.1171531387445 0 L 401.40743702518995 76.87121993268633 M 410.3038784486206 68.43973924489632 l 7.1171531387445 0 L 417.4210315873651 63.98489840890221 l -7.1171531387445 0 L 410.3038784486206 68.43973924489632 M 436.99320271891247 76.02397471981757 l 7.1171531387445 0 L 444.110355857657 62.34804917697613 l -7.1171531387445 0 L 436.99320271891247 76.02397471981757 M 445.8896441423431 62.34804917697613 l 7.1171531387445 0 L 453.00679728108764 57.139956433701144 l -7.1171531387445 0 L 445.8896441423431 62.34804917697613 M 454.7860855657737 57.139956433701144 l 7.1171531387445 0 L 461.90323870451823 46.006369050655564 l -7.1171531387445 0 L 454.7860855657737 57.139956433701144 M 463.68252698920435 46.006369050655564 l 7.1171531387445 0 L 470.7996801279489 42.775851272062766 l -7.1171531387445 0 L 463.68252698920435 46.006369050655564 M 472.57896841263494 42.775851272062766 l 7.1171531387445 0 L 479.69612155137946 40.78642672398385 l -7.1171531387445 0 L 472.57896841263494 42.775851272062766 M 481.47540983606564 40.78642672398385 l 7.1171531387445 0 L 488.59256297481016 17.524188213159107 l -7.1171531387445 0 L 481.47540983606564 40.78642672398385 M 490.3718512594962 17.524188213159107 l 7.1171531387445 0 L 497.48900439824075 14.567315474873055 l -7.1171531387445 0 L 490.3718512594962 17.524188213159107 M 499.2682926829268 14.567315474873055 l 7.1171531387445 0 L 506.38544582167134 11.428280496911214 l -7.1171531387445 0 L 499.2682926829268 14.567315474873055 M 525.9576169532187 30.753645554458075 l 7.1171531387445 0 L 533.0747700919632 22.989758344818057 l -7.1171531387445 0 L 525.9576169532187 30.753645554458075 M 543.75049980008 27.73461271343811 l 7.1171531387445 0 L 550.8676529388244 21.745953768950784 l -7.1171531387445 0 L 543.75049980008 27.73461271343811 M 552.6469412235106 21.74585334875249 l 7.1171531387445 0 L 559.764094362255 20.00707761557456 l -7.1171531387445 0 L 552.6469412235106 21.74585334875249 M 579.3362654938024 54.25076690905422 l 7.1171531387445 0 L 586.4534186325469 51.50206524179774 l -7.1171531387445 0 L 579.3362654938024 54.25076690905422 M 597.1291483406637 63.473860019867146 l 7.1171531387445 0 L 604.2463014794082 58.43326816731931 l -7.1171531387445 0 L 597.1291483406637 63.473860019867146 M 623.8184726109555 90.80391992252383 l 7.1171531387445 0 L 630.9356257497 85.33614054650276 l -7.1171531387445 0 L 623.8184726109555 90.80391992252383 M 632.7149140343862 85.33604012630451 l 7.1171531387445 0 L 639.8320671731307 74.56255957428259 l -7.1171531387445 0 L 632.7149140343862 85.33604012630451 M 650.5077968812475 86.66741111506985 l 7.1171531387445 0 L 657.624950019992 80.54649876945086 l -7.1171531387445 0 L 650.5077968812475 86.66741111506985 M 677.1971211515394 89.32111527475566 l 7.1171531387445 0 L 684.3142742902838 78.04372616777646 l -7.1171531387445 0 L 677.1971211515394 89.32111527475566 M 686.09356257497 78.04372616777646 l 7.1171531387445 0 L 693.2107157137144 71.09414634597007 l -7.1171531387445 0 L 686.09356257497 78.04372616777646 M 730.5757696921231 91.69605296402264 l 7.1171531387445 0 L 737.6929228308676 91.61049495509008 l -7.1171531387445 0 L 730.5757696921231 91.69605296402264 M 739.4722111155537 91.61059537528831 l 7.1171531387445 0 L 746.5893642542982 81.80998570418055 l -7.1171531387445 0 L 739.4722111155537 91.61059537528831 M 757.265093962415 105.04159605453057 l 7.1171531387445 0 L 764.3822471011595 93.76360442636165 l -7.1171531387445 0 L 757.265093962415 105.04159605453057 M 766.1615353858456 93.76360442636165 l 7.1171531387445 0 L 773.27868852459 88.67882768657167 l -7.1171531387445 0 L 766.1615353858456 93.76360442636165 M 792.8508596561375 109.88024288834194 l 7.1171531387445 0 L 799.9680127948819 101.46954918159547 l -7.1171531387445 0 L 792.8508596561375 109.88024288834194 M 801.747301079568 101.46954918159547 l 7.1171531387445 0 L 808.8644542183125 100.89906203517995 l -7.1171531387445 0 L 801.747301079568 101.46954918159547 M 819.5401839264293 108.89461864224663 l 7.1171531387445 0 L 826.6573370651738 89.20171565900353 l -7.1171531387445 0 L 819.5401839264293 108.89461864224663 M 872.9188324670131 185.7634686582536 l 7.1171531387445 0 L 880.0359856057576 176.29514942324664 l -7.1171531387445 0 L 872.9188324670131 185.7634686582536"></path><path class="candle body down" d="M 9.964014394242305 99.19764261576141 l 7.1171531387445 0 L 17.081167532986804 117.2555039306474 l -7.1171531387445 0 L 9.964014394242305 99.19764261576141 M 36.65333866453418 70.30564694909381 l 7.1171531387445 0 L 43.77049180327868 72.20469331872287 l -7.1171531387445 0 L 36.65333866453418 70.30564694909381 M 81.13554578168731 42.17784899131928 l 7.1171531387445 0 L 88.25269892043181 50.98741172562467 l -7.1171531387445 0 L 81.13554578168731 42.17784899131928 M 90.03198720511796 50.98741172562467 l 7.1171531387445 0 L 97.14914034386246 62.251645786629524 l -7.1171531387445 0 L 90.03198720511796 50.98741172562467 M 98.92842862854857 62.251645786629524 l 7.1171531387445 0 L 106.04558176729307 63.81679499698535 l -7.1171531387445 0 L 98.92842862854857 62.251645786629524 M 107.82487005197919 63.81679499698535 l 7.1171531387445 0 L 114.94202319072369 65.465795072903 l -7.1171531387445 0 L 107.82487005197919 63.81679499698535 M 134.51419432227107 40.44921569816742 l 7.1171531387445 0 L 141.63134746101557 47.19032318834934 l -7.1171531387445 0 L 134.51419432227107 40.44921569816742 M 143.4106357457017 47.19032318834934 l 7.1171531387445 0 L 150.5277888844462 80.9100198872161 l -7.1171531387445 0 L 143.4106357457017 47.19032318834934 M 152.30707716913233 80.90991946701777 l 7.1171531387445 0 L 159.42423030787683 86.34536353919336 l -7.1171531387445 0 L 152.30707716913233 80.90991946701777 M 170.09996001599356 85.29366280263133 l 7.1171531387445 0 L 177.21711315473806 102.28757211676539 l -7.1171531387445 0 L 170.09996001599356 85.29366280263133 M 178.9964014394242 102.28757211676539 l 7.1171531387445 0 L 186.1135545781687 116.13280611390296 l -7.1171531387445 0 L 178.9964014394242 102.28757211676539 M 196.78928428628546 103.85975074100061 l 7.1171531387445 0 L 203.90643742502996 113.70414361855747 l -7.1171531387445 0 L 196.78928428628546 103.85975074100061 M 223.47860855657734 93.92990027470944 l 7.1171531387445 0 L 230.59576169532184 94.95860478586596 l -7.1171531387445 0 L 223.47860855657734 93.92990027470944 M 232.37504998000796 94.95850436566766 l 7.1171531387445 0 L 239.49220311875246 109.1946741947003 l -7.1171531387445 0 L 232.37504998000796 94.95850436566766 M 259.06437425029986 41.69091144987084 l 7.1171531387445 0 L 266.1815273890444 46.99530716329403 l -7.1171531387445 0 L 259.06437425029986 41.69091144987084 M 267.9608156737305 46.99520674309582 l 7.1171531387445 0 L 275.07796881247504 61.44557285505468 l -7.1171531387445 0 L 267.9608156737305 46.99520674309582 M 276.85725709716115 61.44557285505468 l 7.1171531387445 0 L 283.9744102359057 94.63786267256704 l -7.1171531387445 0 L 276.85725709716115 61.44557285505468 M 294.65013994402244 92.1342867093064 l 7.1171531387445 0 L 301.76729308276697 101.94694680420754 l -7.1171531387445 0 L 294.65013994402244 92.1342867093064 M 303.54658136745303 101.94704722440576 l 7.1171531387445 0 L 310.66373450619756 106.29323340586349 l -7.1171531387445 0 L 303.54658136745303 101.94704722440576 M 330.23590563774496 66.5900996128199 l 7.1171531387445 0 L 337.3530587764895 91.89297697284515 l -7.1171531387445 0 L 330.23590563774496 66.5900996128199 M 339.13234706117555 91.89287655264687 l 7.1171531387445 0 L 346.2495001999201 98.84637276218609 l -7.1171531387445 0 L 339.13234706117555 91.89287655264687 M 356.9252299080368 98.06530445998236 l 7.1171531387445 0 L 364.0423830467813 108.40868530278098 l -7.1171531387445 0 L 356.9252299080368 98.06530445998236 M 374.7181127548981 89.3887984883948 l 7.1171531387445 0 L 381.8352658936426 93.31562992184494 l -7.1171531387445 0 L 374.7181127548981 89.3887984883948 M 392.5109956017593 74.90177900406457 l 7.1171531387445 0 L 399.62814874050383 76.87111951248802 l -7.1171531387445 0 L 392.5109956017593 74.90177900406457 M 419.20031987205124 63.98489840890221 l 7.1171531387445 0 L 426.31747301079577 73.41455586757223 l -7.1171531387445 0 L 419.20031987205124 63.98489840890221 M 428.0967612954818 73.41455586757223 l 7.1171531387445 0 L 435.21391443422635 76.02407514001585 l -7.1171531387445 0 L 428.0967612954818 73.41455586757223 M 508.16473410635746 11.428380917109507 l 7.1171531387445 0 L 515.281887245102 15.11179378993458 l -7.1171531387445 0 L 508.16473410635746 11.428380917109507 M 517.0611755297881 15.11179378993458 l 7.1171531387445 0 L 524.1783286685326 30.75374597465637 l -7.1171531387445 0 L 517.0611755297881 15.11179378993458 M 534.8540583766493 22.989758344818057 l 7.1171531387445 0 L 541.9712115153937 27.734512293239817 l -7.1171531387445 0 L 534.8540583766493 22.989758344818057 M 561.5433826469413 20.00717803577288 l 7.1171531387445 0 L 568.6605357856857 30.88218340825344 l -7.1171531387445 0 L 561.5433826469413 20.00717803577288 M 570.4398240703717 30.88228382845176 l 7.1171531387445 0 L 577.5569772091162 54.25076690905422 l -7.1171531387445 0 L 570.4398240703717 30.88228382845176 M 588.232706917233 51.50196482159953 l 7.1171531387445 0 L 595.3498600559775 63.473960440065355 l -7.1171531387445 0 L 588.232706917233 51.50196482159953 M 606.0255897640943 58.433368587517606 l 7.1171531387445 0 L 613.1427429028388 64.40947500722021 l -7.1171531387445 0 L 606.0255897640943 58.433368587517606 M 614.9220311875249 64.40947500722021 l 7.1171531387445 0 L 622.0391843262694 90.80391992252383 l -7.1171531387445 0 L 614.9220311875249 64.40947500722021 M 641.6113554578168 74.56265999448091 l 7.1171531387445 0 L 648.7285085965613 86.66731069487163 l -7.1171531387445 0 L 641.6113554578168 74.56265999448091 M 659.4042383046781 80.54649876945086 l 7.1171531387445 0 L 666.5213914434225 82.28567618342191 l -7.1171531387445 0 L 659.4042383046781 80.54649876945086 M 668.3006797281087 82.28577660362019 l 7.1171531387445 0 L 675.4178328668531 89.32101485455736 l -7.1171531387445 0 L 668.3006797281087 82.28577660362019 M 694.9900039984005 71.09404592577175 l 7.1171531387445 0 L 702.107157137145 72.44971860252033 l -7.1171531387445 0 L 694.9900039984005 71.09404592577175 M 703.8864454218311 72.44971860252033 l 7.1171531387445 0 L 711.0035985605756 81.26841957486906 l -7.1171531387445 0 L 703.8864454218311 72.44971860252033 M 712.7828868452618 81.26841957486906 l 7.1171531387445 0 L 719.9000399840063 89.00910971870695 l -7.1171531387445 0 L 712.7828868452618 81.26841957486906 M 721.6793282686924 89.00900929850863 l 7.1171531387445 0 L 728.7964814074369 91.69615338422092 l -7.1171531387445 0 L 721.6793282686924 89.00900929850863 M 748.3686525389844 81.80998570418055 l 7.1171531387445 0 L 755.4858056777289 105.04149563433228 l -7.1171531387445 0 L 748.3686525389844 81.80998570418055 M 775.0579768092763 88.67892810676999 l 7.1171531387445 0 L 782.1751299480208 100.1865807283999 l -7.1171531387445 0 L 775.0579768092763 88.67892810676999 M 783.9544182327068 100.1865807283999 l 7.1171531387445 0 L 791.0715713714512 109.88024288834194 l -7.1171531387445 0 L 783.9544182327068 100.1865807283999 M 810.6437425029987 100.89906203517995 l 7.1171531387445 0 L 817.7608956417432 108.89461864224663 l -7.1171531387445 0 L 810.6437425029987 100.89906203517995 M 828.43662534986 89.20171565900353 l 7.1171531387445 0 L 835.5537784886045 120.70383311930439 l -7.1171531387445 0 L 828.43662534986 89.20171565900353 M 837.3330667732906 120.70383311930439 l 7.1171531387445 0 L 844.4502199120351 126.11849021043658 l -7.1171531387445 0 L 837.3330667732906 120.70383311930439 M 846.2295081967213 126.11849021043658 l 7.1171531387445 0 L 853.3466613354658 131.5550389047932 l -7.1171531387445 0 L 846.2295081967213 126.11849021043658 M 855.1259496201519 131.5549384845949 l 7.1171531387445 0 L 862.2431027588964 145.95519491761326 l -7.1171531387445 0 L 855.1259496201519 131.5549384845949 M 864.0223910435824 145.95529533781152 l 7.1171531387445 0 L 871.1395441823269 185.7425812570118 l -7.1171531387445 0 L 864.0223910435824 145.95529533781152 M 881.8152738904437 176.29504900304835 l 7.1171531387445 0 L 888.9324270291881 183.97347862395407 l -7.1171531387445 0 L 881.8152738904437 176.29504900304835"></path><path class="candle body equal"></path><path class="candle wick up" d="M 4.626149540183927 93.46756568183909 L 4.626149540183927 99.19764261576141 M 4.626149540183927 101.48411011034571 L 4.626149540183927 106.17272916793029 M 22.41903238704518 112.32848732235163 L 22.41903238704518 113.08555519716701 M 22.41903238704518 117.25540351044909 L 22.41903238704518 123.74626386652307 M 31.315473810475808 68.2909165110488 L 31.315473810475808 70.28003979853295 M 31.315473810475808 113.08183964983071 L 31.315473810475808 115.94632580570133 M 49.10835665733706 59.41708484984568 L 49.10835665733706 62.17994576505927 M 49.10835665733706 72.2045928985246 L 49.10835665733706 74.87617185350382 M 58.004798080767685 40.89457927752886 L 58.004798080767685 47.527433793967475 M 58.004798080767685 62.17994576505927 L 58.004798080767685 69.56103117886485 M 66.90123950419832 30.937916618297578 L 66.90123950419832 45.4889037689307 M 66.90123950419832 47.527433793967475 L 66.90123950419832 59.316664651568004 M 75.79768092762893 37.89703635894034 L 75.79768092762893 42.177748571120986 M 75.79768092762893 45.48880334873243 L 75.79768092762893 54.778475051003426 M 120.27988804478207 57.54525235394982 L 120.27988804478207 60.6227297503674 M 120.27988804478207 65.4658954931013 L 120.27988804478207 70.5179352482528 M 129.1763294682127 38.375036502742034 L 129.1763294682127 40.4491152779691 M 129.1763294682127 60.6227297503674 L 129.1763294682127 61.71640612980957 M 164.7620951619352 81.62681926252209 L 164.7620951619352 85.29366280263133 M 164.7620951619352 86.34526311899513 L 164.7620951619352 89.71355740962483 M 191.4514194322271 101.8647026618181 L 191.4514194322271 103.85975074100061 M 191.4514194322271 116.13280611390296 L 191.4514194322271 122.74206188374633 M 209.24430227908834 87.66528662535514 L 209.24430227908834 102.88687986008654 M 209.24430227908834 113.70404319835924 L 209.24430227908834 143.10446632890668 M 218.14074370251896 89.26668752728919 L 218.14074370251896 93.92979985451122 M 218.14074370251896 102.87211809093971 L 218.14074370251896 106.02842534300522 M 244.83006797281087 43.652720443423476 L 244.83006797281087 54.35590685665096 M 244.83006797281087 109.194573774502 L 244.83006797281087 111.6941329298316 M 253.72650939624148 36.39073338477522 L 253.72650939624148 41.69091144987084 M 253.72650939624148 54.35590685665096 L 253.72650939624148 57.870814636766056 M 289.31227508996403 89.97254110098297 L 289.31227508996403 92.1343871295047 M 289.31227508996403 94.63796309276533 L 289.31227508996403 102.07970230633063 M 316.0015993602559 92.49469480092496 L 316.0015993602559 98.83572822116867 M 316.0015993602559 106.29313298566518 L 316.0015993602559 107.50179049213526 M 324.89804078368655 60.03908755797761 L 324.89804078368655 66.5899991926216 M 324.89804078368655 98.83572822116867 L 324.89804078368655 99.58064525199246 M 351.5873650539784 91.24315786979034 L 351.5873650539784 98.06520403978405 M 351.5873650539784 98.84637276218609 L 351.5873650539784 99.53977423129345 M 369.38024790083966 86.61971152088796 L 369.38024790083966 89.3887984883948 M 369.38024790083966 108.40858488258269 L 369.38024790083966 110.64142799128672 M 387.1731307477009 68.83649944829142 L 387.1731307477009 74.90187942426287 M 387.1731307477009 93.31562992184494 L 387.1731307477009 97.85311658102158 M 404.9660135945622 62.74079257244014 L 404.9660135945622 68.43973924489632 M 404.9660135945622 76.87121993268633 L 404.9660135945622 84.73261515485395 M 413.86245501799283 61.98784192575411 L 413.86245501799283 63.98489840890221 M 413.86245501799283 68.43973924489632 L 413.86245501799283 71.0327896048224 M 440.5517792882847 52.33746087126971 L 440.5517792882847 62.34804917697613 M 440.5517792882847 76.02397471981757 L 440.5517792882847 77.29680073298708 M 449.44822071171535 55.70193919436491 L 449.44822071171535 57.139956433701144 M 449.44822071171535 62.34804917697613 L 449.44822071171535 68.50039304465602 M 458.34466213514594 43.7024284415709 L 458.34466213514594 46.006369050655564 M 458.34466213514594 57.139956433701144 L 458.34466213514594 60.37649942419057 M 467.2411035585766 34.933234626973075 L 467.2411035585766 42.775851272062766 M 467.2411035585766 46.006369050655564 L 467.2411035585766 50.14830054881645 M 476.13754498200717 37.95738889810522 L 476.13754498200717 40.78642672398385 M 476.13754498200717 42.775851272062766 L 476.13754498200717 45.19788603432198 M 485.0339864054379 15.804592737852232 L 485.0339864054379 17.524188213159107 M 485.0339864054379 40.78642672398385 L 485.0339864054379 41.68830052471563 M 493.93042782886846 3.846153846153868 L 493.93042782886846 14.567315474873055 M 493.93042782886846 17.524188213159107 L 493.93042782886846 19.173087868878554 M 502.82686925229905 4.783777237472464 L 502.82686925229905 11.428280496911214 M 502.82686925229905 14.567315474873055 L 502.82686925229905 16.288115992559256 M 529.5161935225909 18.60541248801485 L 529.5161935225909 22.989758344818057 M 529.5161935225909 30.753645554458075 L 529.5161935225909 43.91220623577294 M 547.3090763694522 11.334789292314724 L 547.3090763694522 21.745953768950784 M 547.3090763694522 27.73461271343811 L 547.3090763694522 30.547081206600893 M 556.2055177928828 16.89204306500119 L 556.2055177928828 20.00707761557456 M 556.2055177928828 21.74585334875249 L 556.2055177928828 34.69363203388255 M 582.8948420631747 46.914870584473675 L 582.8948420631747 51.50206524179774 M 582.8948420631747 54.25076690905422 L 582.8948420631747 58.70058673513449 M 600.687724910036 57.97103399464717 L 600.687724910036 58.43326816731931 M 600.687724910036 63.473860019867146 L 600.687724910036 64.74457720887276 M 627.3770491803277 79.06931765278631 L 627.3770491803277 85.33614054650276 M 627.3770491803277 90.80391992252383 L 627.3770491803277 93.5737098314186 M 636.2734906037584 70.40998353510432 L 636.2734906037584 74.56255957428259 M 636.2734906037584 85.33604012630451 L 636.2734906037584 90.22057899072877 M 654.0663734506197 77.3485171351001 L 654.0663734506197 80.54649876945086 M 654.0663734506197 86.66741111506985 L 654.0663734506197 88.43450534416209 M 680.7556977209116 74.87446471013304 L 680.7556977209116 78.04372616777646 M 680.7556977209116 89.32111527475566 L 680.7556977209116 100.78508511013482 M 689.6521391443422 68.41473461552519 L 689.6521391443422 71.09414634597007 M 689.6521391443422 78.04372616777646 L 689.6521391443422 80.35469619074051 M 734.1343462614954 86.6912107020617 L 734.1343462614954 91.61049495509008 M 734.1343462614954 91.69605296402264 L 734.1343462614954 96.8374666956412 M 743.0307876849259 79.90280529849099 L 743.0307876849259 81.80998570418055 M 743.0307876849259 91.61059537528831 L 743.0307876849259 104.16432520237682 M 760.8236705317872 91.36356168752526 L 760.8236705317872 93.76360442636165 M 760.8236705317872 105.04159605453057 L 760.8236705317872 107.364616501288 M 769.7201119552178 82.34673166397475 L 769.7201119552178 88.67882768657167 M 769.7201119552178 93.76360442636165 L 769.7201119552178 97.32139163114132 M 796.4094362255097 99.39436578418734 L 796.4094362255097 101.46954918159547 M 796.4094362255097 109.88024288834194 L 796.4094362255097 112.33471337464488 M 805.3058776489403 94.45027774218443 L 805.3058776489403 100.89906203517995 M 805.3058776489403 101.46954918159547 L 805.3058776489403 105.65054413688637 M 823.0987604958016 85.84999070108965 L 823.0987604958016 89.20171565900353 M 823.0987604958016 108.89461864224663 L 823.0987604958016 109.48659571109349 M 876.4774090363853 159.80725748823374 L 876.4774090363853 176.29514942324664 M 876.4774090363853 185.7634686582536 L 876.4774090363853 189.2162163356348" style="stroke-width: 1px;"></path><path class="candle wick down" d="M 13.522590963614554 97.5775635569477 L 13.522590963614554 99.19764261576141 M 13.522590963614554 117.2555039306474 L 13.522590963614554 120.3626052855569 M 40.21191523390643 66.8713765881956 L 40.21191523390643 70.30564694909381 M 40.21191523390643 72.20469331872287 L 40.21191523390643 77.62316637738951 M 84.69412235105956 27.634092094962142 L 84.69412235105956 42.17784899131928 M 84.69412235105956 50.98741172562467 L 84.69412235105956 54.215218158863934 M 93.5905637744902 46.72397178754778 L 93.5905637744902 50.98741172562467 M 93.5905637744902 62.251645786629524 L 93.5905637744902 66.62213365607042 M 102.48700519792082 55.164389872984515 L 102.48700519792082 62.251645786629524 M 102.48700519792082 63.81679499698535 L 102.48700519792082 69.12892306567602 M 111.38344662135144 58.37271478775787 L 111.38344662135144 63.81679499698535 M 111.38344662135144 65.465795072903 L 111.38344662135144 67.3101124344708 M 138.07277089164333 40.3978005566492 L 138.07277089164333 40.44921569816742 M 138.07277089164333 47.19032318834934 L 138.07277089164333 52.879729941969174 M 146.96921231507397 44.26658911549487 L 146.96921231507397 47.19032318834934 M 146.96921231507397 80.9100198872161 L 146.96921231507397 85.35351324080483 M 155.8656537385046 76.44955552011838 L 155.8656537385046 80.90991946701777 M 155.8656537385046 86.34536353919336 L 155.8656537385046 91.61180041766768 M 173.65853658536582 84.82901854520051 L 173.65853658536582 85.29366280263133 M 173.65853658536582 102.28757211676539 L 173.65853658536582 106.17272916793029 M 182.55497800879647 91.16643683830621 L 182.55497800879647 102.28757211676539 M 182.55497800879647 116.13280611390296 L 182.55497800879647 118.22315296125105 M 200.34786085565773 93.62090732460908 L 200.34786085565773 103.85975074100061 M 200.34786085565773 113.70414361855747 L 200.34786085565773 115.84530308623403 M 227.0371851259496 82.58954770341016 L 227.0371851259496 93.92990027470944 M 227.0371851259496 94.95860478586596 L 227.0371851259496 100.4168442430506 M 235.93362654938022 87.53775297354251 L 235.93362654938022 94.95850436566766 M 235.93362654938022 109.1946741947003 L 235.93362654938022 116.21474899569758 M 262.6229508196721 31.86178244245218 L 262.6229508196721 41.69091144987084 M 262.6229508196721 46.99530716329403 L 262.6229508196721 52.607691624834985 M 271.51939224310274 44.90516115634256 L 271.51939224310274 46.99520674309582 M 271.51939224310274 61.44557285505468 L 271.51939224310274 67.6888974223742 M 280.4158336665334 60.70949280167929 L 280.4158336665334 61.44557285505468 M 280.4158336665334 94.63786267256704 L 280.4158336665334 100.64961826265827 M 298.2087165133947 89.16285304227003 L 298.2087165133947 92.1342867093064 M 298.2087165133947 101.94694680420754 L 298.2087165133947 105.28330747178492 M 307.10515793682526 90.63200054307241 L 307.10515793682526 101.94704722440576 M 307.10515793682526 106.29323340586349 L 307.10515793682526 114.65823592239364 M 333.7944822071172 65.60668461108662 L 333.7944822071172 66.5900996128199 M 333.7944822071172 91.89297697284515 L 333.7944822071172 100.75274980628939 M 342.6909236305478 83.71616190788733 L 342.6909236305478 91.89287655264687 M 342.6909236305478 98.84637276218609 L 342.6909236305478 103.92733353444153 M 360.483806477409 93.0176831935551 L 360.483806477409 98.06530445998236 M 360.483806477409 108.40868530278098 L 360.483806477409 110.40534010513589 M 378.2766893242703 87.21731212083841 L 378.2766893242703 89.3887984883948 M 378.2766893242703 93.31562992184494 L 378.2766893242703 105.1852973582659 M 396.06957217113154 71.23834975069681 L 396.06957217113154 74.90177900406457 M 396.06957217113154 76.87111951248802 L 396.06957217113154 81.067679598512 M 422.7588964414235 63.02960106268668 L 422.7588964414235 63.98489840890221 M 422.7588964414235 73.41455586757223 L 422.7588964414235 76.94040944929964 M 431.65533786485406 70.5816016539608 L 431.65533786485406 73.41455586757223 M 431.65533786485406 76.02407514001585 L 431.65533786485406 81.38962675419019 M 511.7233106757297 8.762927594225232 L 511.7233106757297 11.428380917109507 M 511.7233106757297 15.11179378993458 L 511.7233106757297 21.3636540741077 M 520.6197520991603 9.769338821364101 L 520.6197520991603 15.11179378993458 M 520.6197520991603 30.75374597465637 L 520.6197520991603 33.87018640800562 M 538.4126349460215 13.65560049471003 L 538.4126349460215 22.989758344818057 M 538.4126349460215 27.734512293239817 L 538.4126349460215 29.652538080343362 M 565.1019592163135 13.78614675247104 L 565.1019592163135 20.00717803577288 M 565.1019592163135 30.88218340825344 L 565.1019592163135 32.32562333829679 M 573.998400639744 30.78588043810521 L 573.998400639744 30.88228382845176 M 573.998400639744 54.25076690905422 L 573.998400639744 54.74754562993388 M 591.7912834866053 46.21564474386619 L 591.7912834866053 51.50196482159953 M 591.7912834866053 63.473960440065355 L 591.7912834866053 64.92874785251405 M 609.5841663334666 51.84238929376076 L 609.5841663334666 58.433368587517606 M 609.5841663334666 64.40947500722021 L 609.5841663334666 67.33019647412632 M 618.4806077568971 61.84012381408766 L 618.4806077568971 64.40947500722021 M 618.4806077568971 90.80391992252383 L 618.4806077568971 94.12230537460951 M 645.169932027189 71.02565977074468 L 645.169932027189 74.56265999448091 M 645.169932027189 86.66731069487163 L 645.169932027189 90.58811691642505 M 662.9628148740503 78.96538274756892 L 662.9628148740503 80.54649876945086 M 662.9628148740503 82.28567618342191 L 662.9628148740503 86.17354457994027 M 671.8592562974809 80.1069595615895 L 671.8592562974809 82.28577660362019 M 671.8592562974809 89.32101485455736 L 671.8592562974809 90.6460593708313 M 698.5485805677728 64.00628791113533 L 698.5485805677728 71.09404592577175 M 698.5485805677728 72.44971860252033 L 698.5485805677728 77.85423325362646 M 707.4450219912034 56.20363850496014 L 707.4450219912034 72.44971860252033 M 707.4450219912034 81.26841957486906 L 707.4450219912034 88.58915244950971 M 716.3414634146341 78.10468122813099 L 716.3414634146341 81.26841957486906 M 716.3414634146341 89.00910971870695 L 716.3414634146341 94.35327183064814 M 725.2379048380647 86.289529908951 L 725.2379048380647 89.00900929850863 M 725.2379048380647 91.69615338422092 L 725.2379048380647 93.26873368924929 M 751.9272291083566 78.08208668351853 L 751.9272291083566 81.80998570418055 M 751.9272291083566 105.04149563433228 L 751.9272291083566 109.1626401514497 M 778.6165533786485 86.83933049452126 L 778.6165533786485 88.67892810676999 M 778.6165533786485 100.1865807283999 L 778.6165533786485 104.415375698071 M 787.512994802079 98.18550743732072 L 787.512994802079 100.1865807283999 M 787.512994802079 109.88024288834194 L 787.512994802079 110.40845313128256 M 814.202319072371 99.63025282994158 L 814.202319072371 100.89906203517995 M 814.202319072371 108.89461864224663 L 814.202319072371 111.01499112887964 M 831.9952019192323 87.64008115558741 L 831.9952019192323 89.20171565900353 M 831.9952019192323 120.70383311930439 L 831.9952019192323 130.55575751173205 M 840.8916433426629 119.4720789672305 L 840.8916433426629 120.70383311930439 M 840.8916433426629 126.11849021043658 L 840.8916433426629 133.70794753566824 M 849.7880847660936 124.78762132266252 L 849.7880847660936 126.11849021043658 M 849.7880847660936 131.5550389047932 L 849.7880847660936 138.45782291420218 M 858.6845261895241 131.1349812153977 L 858.6845261895241 131.5549384845949 M 858.6845261895241 145.95519491761326 L 858.6845261895241 149.2133282507324 M 867.5809676129546 143.8990913578779 L 867.5809676129546 145.95529533781152 M 867.5809676129546 185.7425812570118 L 867.5809676129546 186.17418726920926 M 885.3738504598159 164.79211613073744 L 885.3738504598159 176.29504900304835 M 885.3738504598159 183.97347862395407 L 885.3738504598159 196.15384615384613" style="stroke-width: 1px;"></path><path class="candle wick equal" style="stroke-width: 1px;"></path></g></g><g class="x axis" transform="translate(0,200)" fill="none" font-size="10" font-family="sans-serif" text-anchor="middle"><path class="domain" stroke="#000" d="M0.5,6V0.5H890.5V6"></path><g class="tick" opacity="1" transform="translate(58.004798080767685,0)"><line stroke="#000" y2="6" x1="0.5" x2="0.5"></line><text fill="#000" y="9" x="0.5" dy="0.71em">Feb  7</text></g><g class="tick" opacity="1" transform="translate(120.27988804478207,0)"><line stroke="#000" y2="6" x1="0.5" x2="0.5"></line><text fill="#000" y="9" x="0.5" dy="0.71em">Feb 14</text></g><g class="tick" opacity="1" transform="translate(182.55497800879647,0)"><line stroke="#000" y2="6" x1="0.5" x2="0.5"></line><text fill="#000" y="9" x="0.5" dy="0.71em">Feb 21</text></g><g class="tick" opacity="1" transform="translate(244.83006797281087,0)"><line stroke="#000" y2="6" x1="0.5" x2="0.5"></line><text fill="#000" y="9" x="0.5" dy="0.71em">Feb 28</text></g><g class="tick" opacity="1" transform="translate(307.10515793682526,0)"><line stroke="#000" y2="6" x1="0.5" x2="0.5"></line><text fill="#000" y="9" x="0.5" dy="0.71em">Mar  7</text></g><g class="tick" opacity="1" transform="translate(369.38024790083966,0)"><line stroke="#000" y2="6" x1="0.5" x2="0.5"></line><text fill="#000" y="9" x="0.5" dy="0.71em">Mar 14</text></g><g class="tick" opacity="1" transform="translate(431.65533786485406,0)"><line stroke="#000" y2="6" x1="0.5" x2="0.5"></line><text fill="#000" y="9" x="0.5" dy="0.71em">Mar 21</text></g><g class="tick" opacity="1" transform="translate(493.93042782886846,0)"><line stroke="#000" y2="6" x1="0.5" x2="0.5"></line><text fill="#000" y="9" x="0.5" dy="0.71em">Mar 28</text></g><g class="tick" opacity="1" transform="translate(556.2055177928828,0)"><line stroke="#000" y2="6" x1="0.5" x2="0.5"></line><text fill="#000" y="9" x="0.5" dy="0.71em">Apr  4</text></g><g class="tick" opacity="1" transform="translate(618.4806077568971,0)"><line stroke="#000" y2="6" x1="0.5" x2="0.5"></line><text fill="#000" y="9" x="0.5" dy="0.71em">Apr 11</text></g><g class="tick" opacity="1" transform="translate(680.7556977209116,0)"><line stroke="#000" y2="6" x1="0.5" x2="0.5"></line><text fill="#000" y="9" x="0.5" dy="0.71em">Apr 18</text></g><g class="tick" opacity="1" transform="translate(743.0307876849259,0)"><line stroke="#000" y2="6" x1="0.5" x2="0.5"></line><text fill="#000" y="9" x="0.5" dy="0.71em">Apr 25</text></g><g class="tick" opacity="1" transform="translate(805.3058776489403,0)"><line stroke="#000" y2="6" x1="0.5" x2="0.5"></line><text fill="#000" y="9" x="0.5" dy="0.71em">May  2</text></g><g class="tick" opacity="1" transform="translate(867.5809676129546,0)"><line stroke="#000" y2="6" x1="0.5" x2="0.5"></line><text fill="#000" y="9" x="0.5" dy="0.71em">May  9</text></g></g><g class="y axis" fill="none" font-size="10" font-family="sans-serif" text-anchor="end"><path class="domain" stroke="#000" d="M-6,200.5H0.5V0.5H-6"></path><g class="tick" opacity="1" transform="translate(0,186.50888779006877)"><line stroke="#000" x2="-6" y1="0.5" y2="0.5"></line><text fill="#000" x="-9" y="0.5" dy="0.32em">30,000</text></g><g class="tick" opacity="1" transform="translate(0,166.42484813453413)"><line stroke="#000" x2="-6" y1="0.5" y2="0.5"></line><text fill="#000" x="-9" y="0.5" dy="0.32em">32,000</text></g><g class="tick" opacity="1" transform="translate(0,146.34080847899952)"><line stroke="#000" x2="-6" y1="0.5" y2="0.5"></line><text fill="#000" x="-9" y="0.5" dy="0.32em">34,000</text></g><g class="tick" opacity="1" transform="translate(0,126.2567688234649)"><line stroke="#000" x2="-6" y1="0.5" y2="0.5"></line><text fill="#000" x="-9" y="0.5" dy="0.32em">36,000</text></g><g class="tick" opacity="1" transform="translate(0,106.17272916793029)"><line stroke="#000" x2="-6" y1="0.5" y2="0.5"></line><text fill="#000" x="-9" y="0.5" dy="0.32em">38,000</text></g><g class="tick" opacity="1" transform="translate(0,86.08868951239566)"><line stroke="#000" x2="-6" y1="0.5" y2="0.5"></line><text fill="#000" x="-9" y="0.5" dy="0.32em">40,000</text></g><g class="tick" opacity="1" transform="translate(0,66.00464985686102)"><line stroke="#000" x2="-6" y1="0.5" y2="0.5"></line><text fill="#000" x="-9" y="0.5" dy="0.32em">42,000</text></g><g class="tick" opacity="1" transform="translate(0,45.92061020132641)"><line stroke="#000" x2="-6" y1="0.5" y2="0.5"></line><text fill="#000" x="-9" y="0.5" dy="0.32em">44,000</text></g><g class="tick" opacity="1" transform="translate(0,25.836570545791773)"><line stroke="#000" x2="-6" y1="0.5" y2="0.5"></line><text fill="#000" x="-9" y="0.5" dy="0.32em">46,000</text></g><g class="tick" opacity="1" transform="translate(0,5.752530890257191)"><line stroke="#000" x2="-6" y1="0.5" y2="0.5"></line><text fill="#000" x="-9" y="0.5" dy="0.32em">48,000</text></g><text transform="rotate(-90)" y="6" dy=".71em" style="text-anchor: end;">Price ($)</text></g></g></svg>