<?xml version="1.0" encoding="utf-8"?>
<!DOCTYPE svg PUBLIC "-//W3C//DTD SVG 1.1//EN" "http://www.w3.org/Graphics/SVG/1.1/DTD/svg11.dtd">
<svg version="1.1" xmlns="http://www.w3.org/2000/svg" width="960" height="250"><g transform="translate(50,20)"><style>.axis path,.axis line{fill:none;stroke:#000;shape-rendering:crispEdges;}path.candle{stroke:#000000;}path.candle.body{stroke-width:0;}path.candle.up{fill:#00AA00;stroke:#00AA00;}path.candle.down{fill:#FF0000;stroke:#FF0000;}</style><g class="candlestick"><g class="data"><path class="candle body up" d="M 18.860455817672932 61.304005018809846 l 7.1171531387445 0 L 25.977608956417434 59.92959369405315 l -7.1171531387445 0 L 18.860455817672932 61.304005018809846 M 45.54978008796481 76.18476560749576 l 7.1171531387445 0 L 52.66693322670931 56.27697983727276 l -7.1171531387445 0 L 45.54978008796481 76.18476560749576 M 54.446221511395436 56.27697983727276 l 7.1171531387445 0 L 61.563374650139934 52.05436190484315 l -7.1171531387445 0 L 54.446221511395436 56.27697983727276 M 72.23910435825668 52.26502602227308 l 7.1171531387445 0 L 79.35625749700118 42.35426353446269 l -7.1171531387445 0 L 72.23910435825668 52.26502602227308 M 81.13554578168731 42.354316880656 l 7.1171531387445 0 L 88.25269892043181 36.42696799441782 l -7.1171531387445 0 L 81.13554578168731 42.354316880656 M 107.82487005197919 36.5663082513758 l 7.1171531387445 0 L 114.94202319072369 35.34169303746819 l -7.1171531387445 0 L 107.82487005197919 36.5663082513758 M 125.61775289884046 45.467120607207704 l 7.1171531387445 0 L 132.73490603758498 39.331988297978995 l -7.1171531387445 0 L 125.61775289884046 45.467120607207704 M 134.51419432227107 39.331988297978995 l 7.1171531387445 0 L 141.63134746101557 34.381568250052794 l -7.1171531387445 0 L 134.51419432227107 39.331988297978995 M 161.20351859256294 51.3272532898597 l 7.1171531387445 0 L 168.32067173130744 39.99609505864879 l -7.1171531387445 0 L 161.20351859256294 51.3272532898597 M 170.09996001599356 39.99609505864879 l 7.1171531387445 0 L 177.21711315473806 39.64923810966695 l -7.1171531387445 0 L 170.09996001599356 39.99609505864879 M 178.9964014394242 39.64918476347361 l 7.1171531387445 0 L 186.1135545781687 30.971999650048957 l -7.1171531387445 0 L 178.9964014394242 39.64918476347361 M 187.89284286285485 30.971999650048957 l 7.1171531387445 0 L 195.00999600159935 29.727432959838808 l -7.1171531387445 0 L 187.89284286285485 30.971999650048957 M 205.68572570971608 30.487189445135527 l 7.1171531387445 0 L 212.80287884846058 10.66913197208072 l -7.1171531387445 0 L 205.68572570971608 30.487189445135527 M 223.47860855657734 13.952430132490576 l 7.1171531387445 0 L 230.59576169532184 12.883105687344312 l -7.1171531387445 0 L 223.47860855657734 13.952430132490576 M 267.9608156737305 53.03593186197418 l 7.1171531387445 0 L 275.07796881247504 48.81166019755159 l -7.1171531387445 0 L 267.9608156737305 53.03593186197418 M 321.3394642143143 88.06506955276683 l 7.1171531387445 0 L 328.45661735305885 61.7406969573465 l -7.1171531387445 0 L 321.3394642143143 88.06506955276683 M 330.23590563774496 61.74075030353981 l 7.1171531387445 0 L 337.3530587764895 56.34963735257776 l -7.1171531387445 0 L 330.23590563774496 61.74075030353981 M 356.9252299080368 64.12201768106229 l 7.1171531387445 0 L 364.0423830467813 42.04058791772735 l -7.1171531387445 0 L 356.9252299080368 64.12201768106229 M 365.8216713314674 42.024690752117266 l 7.1171531387445 0 L 372.93882447021196 41.474584806577326 l -7.1171531387445 0 L 365.8216713314674 42.024690752117266 M 383.61455417832866 47.994343169660056 l 7.1171531387445 0 L 390.7317073170732 44.840622912830156 l -7.1171531387445 0 L 383.61455417832866 47.994343169660056 M 401.40743702518995 65.98886771637746 l 7.1171531387445 0 L 408.5245901639345 43.41777324453676 l -7.1171531387445 0 L 401.40743702518995 65.98886771637746 M 419.20031987205124 48.97874047503714 l 7.1171531387445 0 L 426.31747301079577 44.065182646696655 l -7.1171531387445 0 L 419.20031987205124 48.97874047503714 M 428.0967612954818 44.061235028390826 l 7.1171531387445 0 L 435.21391443422635 35.81092615393146 l -7.1171531387445 0 L 428.0967612954818 44.061235028390826 M 454.7860855657737 52.05969652417539 l 7.1171531387445 0 L 461.90323870451823 47.504571768767704 l -7.1171531387445 0 L 454.7860855657737 52.05969652417539 M 472.57896841263494 85.55571796507742 l 7.1171531387445 0 L 479.69612155137946 84.84183920603792 l -7.1171531387445 0 L 472.57896841263494 85.55571796507742 M 481.47540983606564 84.83677131767232 l 7.1171531387445 0 L 488.59256297481016 83.93239330227873 l -7.1171531387445 0 L 481.47540983606564 84.83677131767232 M 534.8540583766493 154.19050352404952 l 7.1171531387445 0 L 541.9712115153937 133.62335880436243 l -7.1171531387445 0 L 534.8540583766493 154.19050352404952 M 552.6469412235106 151.0317687250473 l 7.1171531387445 0 L 559.764094362255 150.03750237390557 l -7.1171531387445 0 L 552.6469412235106 151.0317687250473 M 570.4398240703717 164.80527572513478 l 7.1171531387445 0 L 577.5569772091162 142.854117365893 l -7.1171531387445 0 L 570.4398240703717 164.80527572513478 M 588.232706917233 145.36976380439444 l 7.1171531387445 0 L 595.3498600559775 140.476904299063 l -7.1171531387445 0 L 588.232706917233 145.36976380439444 M 623.8184726109555 165.2122538339909 l 7.1171531387445 0 L 630.9356257497 159.68494805147697 l -7.1171531387445 0 L 623.8184726109555 165.2122538339909 M 632.7149140343862 159.68500139767025 l 7.1171531387445 0 L 639.8320671731307 151.08266099347682 l -7.1171531387445 0 L 632.7149140343862 159.68500139767025 M 650.5077968812475 154.06449981542218 l 7.1171531387445 0 L 657.624950019992 149.4029494043364 l -7.1171531387445 0 L 650.5077968812475 154.06449981542218 M 659.4042383046781 149.4029494043364 l 7.1171531387445 0 L 666.5213914434225 140.4508713567217 l -7.1171531387445 0 L 659.4042383046781 149.4029494043364 M 686.09356257497 160.3528423918726 l 7.1171531387445 0 L 693.2107157137144 158.85786867020744 l -7.1171531387445 0 L 686.09356257497 160.3528423918726 M 712.7828868452618 171.7436950134112 l 7.1171531387445 0 L 719.9000399840063 150.36654169431776 l -7.1171531387445 0 L 712.7828868452618 171.7436950134112 M 730.5757696921231 154.15529503645678 l 7.1171531387445 0 L 737.6929228308676 150.6656538002761 l -7.1171531387445 0 L 730.5757696921231 154.15529503645678 M 748.3686525389844 160.19253708093896 l 7.1171531387445 0 L 755.4858056777289 141.65766894205962 l -7.1171531387445 0 L 748.3686525389844 160.19253708093896 M 757.265093962415 141.65772228825296 l 7.1171531387445 0 L 764.3822471011595 133.67857211445104 l -7.1171531387445 0 L 757.265093962415 141.65772228825296 M 810.6437425029987 160.52541732727036 l 7.1171531387445 0 L 817.7608956417432 159.90425425222503 l -7.1171531387445 0 L 810.6437425029987 160.52541732727036 M 828.43662534986 181.16826029528184 l 7.1171531387445 0 L 835.5537784886045 176.3914287604265 l -7.1171531387445 0 L 828.43662534986 181.16826029528184 M 837.3330667732906 176.3914287604265 l 7.1171531387445 0 L 844.4502199120351 170.1578727245181 l -7.1171531387445 0 L 837.3330667732906 176.3914287604265 M 846.2295081967213 170.17387658251482 l 7.1171531387445 0 L 853.3466613354658 164.9031659898813 l -7.1171531387445 0 L 846.2295081967213 170.17387658251482 M 864.0223910435824 181.3711358684867 l 7.1171531387445 0 L 871.1395441823269 177.59657261377143 l -7.1171531387445 0 L 864.0223910435824 181.3711358684867 M 872.9188324670131 177.59657261377143 l 7.1171531387445 0 L 880.0359856057576 164.7044514197556 l -7.1171531387445 0 L 872.9188324670131 177.59657261377143"></path><path class="candle body down" d="M 1.0675729708116766 39.876066123673525 l 7.1171531387445 0 L 8.184726109556177 43.86881530907715 l -7.1171531387445 0 L 1.0675729708116766 39.876066123673525 M 9.964014394242305 43.86881530907715 l 7.1171531387445 0 L 17.081167532986804 61.304005018809846 l -7.1171531387445 0 L 9.964014394242305 43.86881530907715 M 27.75689724110356 59.91940457112855 l 7.1171531387445 0 L 34.87405037984806 70.79749358245292 l -7.1171531387445 0 L 27.75689724110356 59.91940457112855 M 36.65333866453418 70.79744023625958 l 7.1171531387445 0 L 43.77049180327868 76.18476560749576 l -7.1171531387445 0 L 36.65333866453418 70.79744023625958 M 63.342662934826066 52.05436190484315 l 7.1171531387445 0 L 70.45981607357056 52.26513271465973 l -7.1171531387445 0 L 63.342662934826066 52.05436190484315 M 90.03198720511796 36.42696799441782 l 7.1171531387445 0 L 97.14914034386246 36.45908240279786 l -7.1171531387445 0 L 90.03198720511796 36.42696799441782 M 98.92842862854857 36.46489713787 l 7.1171531387445 0 L 106.04558176729307 36.566361597569085 l -7.1171531387445 0 L 98.92842862854857 36.46489713787 M 116.72131147540982 35.34169303746819 l 7.1171531387445 0 L 123.83846461415432 45.46717395340099 l -7.1171531387445 0 L 116.72131147540982 35.34169303746819 M 143.4106357457017 34.381568250052794 l 7.1171531387445 0 L 150.5277888844462 40.456846130373805 l -7.1171531387445 0 L 143.4106357457017 34.381568250052794 M 152.30707716913233 40.462820904025904 l 7.1171531387445 0 L 159.42423030787683 51.327199943666415 l -7.1171531387445 0 L 152.30707716913233 40.462820904025904 M 196.78928428628546 29.746797628014832 l 7.1171531387445 0 L 203.90643742502996 30.487242791328867 l -7.1171531387445 0 L 196.78928428628546 29.746797628014832 M 214.5821671331467 10.669078625887352 l 7.1171531387445 0 L 221.6993202718912 13.952430132490576 l -7.1171531387445 0 L 214.5821671331467 10.669078625887352 M 232.37504998000796 12.889720615316293 l 7.1171531387445 0 L 239.49220311875246 22.619746200150615 l -7.1171531387445 0 L 232.37504998000796 12.889720615316293 M 241.2714914034386 22.619692853957332 l 7.1171531387445 0 L 248.3886445421831 29.70486752006346 l -7.1171531387445 0 L 241.2714914034386 22.619692853957332 M 250.16793282686922 29.704814173870176 l 7.1171531387445 0 L 257.28508596561375 50.27862716772253 l -7.1171531387445 0 L 250.16793282686922 29.704814173870176 M 259.06437425029986 50.27862716772253 l 7.1171531387445 0 L 266.1815273890444 53.03593186197418 l -7.1171531387445 0 L 259.06437425029986 50.27862716772253 M 276.85725709716115 48.81166019755159 l 7.1171531387445 0 L 283.9744102359057 62.88102518580479 l -7.1171531387445 0 L 276.85725709716115 48.81166019755159 M 285.7536985205918 62.88107853199807 l 7.1171531387445 0 L 292.8708516593363 74.06596150111919 l -7.1171531387445 0 L 285.7536985205918 62.88107853199807 M 294.65013994402244 74.06601484731252 l 7.1171531387445 0 L 301.76729308276697 77.08439581168365 l -7.1171531387445 0 L 294.65013994402244 74.06601484731252 M 303.54658136745303 77.16217456154763 l 7.1171531387445 0 L 310.66373450619756 82.83138121829903 l -7.1171531387445 0 L 303.54658136745303 77.16217456154763 M 312.4430227908837 82.83138121829903 l 7.1171531387445 0 L 319.5601759296282 88.06501620657352 l -7.1171531387445 0 L 312.4430227908837 82.83138121829903 M 339.13234706117555 56.34963735257776 l 7.1171531387445 0 L 346.2495001999201 57.23385050689549 l -7.1171531387445 0 L 339.13234706117555 56.34963735257776 M 348.02878848460614 57.23379716070215 l 7.1171531387445 0 L 355.14594162335067 64.12201768106229 l -7.1171531387445 0 L 348.02878848460614 57.23379716070215 M 374.7181127548981 41.490695356960686 l 7.1171531387445 0 L 381.8352658936426 47.994343169660056 l -7.1171531387445 0 L 374.7181127548981 41.490695356960686 M 392.5109956017593 44.840622912830156 l 7.1171531387445 0 L 399.62814874050383 66.01575419781193 l -7.1171531387445 0 L 392.5109956017593 44.840622912830156 M 410.3038784486206 43.41777324453676 l 7.1171531387445 0 L 417.4210315873651 48.97874047503714 l -7.1171531387445 0 L 410.3038784486206 43.41777324453676 M 436.99320271891247 35.787027059323094 l 7.1171531387445 0 L 444.110355857657 39.124845029308375 l -7.1171531387445 0 L 436.99320271891247 35.787027059323094 M 445.8896441423431 39.12489837550169 l 7.1171531387445 0 L 453.00679728108764 52.05969652417539 l -7.1171531387445 0 L 445.8896441423431 39.12489837550169 M 463.68252698920435 47.504571768767704 l 7.1171531387445 0 L 470.7996801279489 85.05335686256097 l -7.1171531387445 0 L 463.68252698920435 47.504571768767704 M 490.3718512594962 83.91793648388834 l 7.1171531387445 0 L 497.48900439824075 100.35480553178685 l -7.1171531387445 0 L 490.3718512594962 83.91793648388834 M 499.2682926829268 100.35480553178685 l 7.1171531387445 0 L 506.38544582167134 102.123178494229 l -7.1171531387445 0 L 499.2682926829268 100.35480553178685 M 508.16473410635746 102.14809116651051 l 7.1171531387445 0 L 515.281887245102 117.55868614727389 l -7.1171531387445 0 L 508.16473410635746 102.14809116651051 M 517.0611755297881 117.55879283966055 l 7.1171531387445 0 L 524.1783286685326 121.23029124887705 l -7.1171531387445 0 L 517.0611755297881 117.55879283966055 M 525.9576169532187 121.23029124887705 l 7.1171531387445 0 L 533.0747700919632 154.08989260344362 l -7.1171531387445 0 L 525.9576169532187 121.23029124887705 M 543.75049980008 133.63002707852772 l 7.1171531387445 0 L 550.8676529388244 151.09226330827482 l -7.1171531387445 0 L 543.75049980008 133.63002707852772 M 561.5433826469413 149.99066441616856 l 7.1171531387445 0 L 568.6605357856857 164.944989405446 l -7.1171531387445 0 L 561.5433826469413 149.99066441616856 M 579.3362654938024 142.77569846170917 l 7.1171531387445 0 L 586.4534186325469 145.36976380439444 l -7.1171531387445 0 L 579.3362654938024 142.77569846170917 M 597.1291483406637 140.4768509528697 l 7.1171531387445 0 L 604.2463014794082 144.27477984026012 l -7.1171531387445 0 L 597.1291483406637 140.4768509528697 M 606.0255897640943 144.27472649406684 l 7.1171531387445 0 L 613.1427429028388 159.5664128099147 l -7.1171531387445 0 L 606.0255897640943 144.27472649406684 M 614.9220311875249 159.5754816627795 l 7.1171531387445 0 L 622.0391843262694 165.2122538339909 l -7.1171531387445 0 L 614.9220311875249 159.5754816627795 M 641.6113554578168 151.0826076472835 l 7.1171531387445 0 L 648.7285085965613 154.0738887454469 l -7.1171531387445 0 L 641.6113554578168 151.0826076472835 M 668.3006797281087 140.45092470291505 l 7.1171531387445 0 L 675.4178328668531 153.348860632003 l -7.1171531387445 0 L 668.3006797281087 140.45092470291505 M 677.1971211515394 153.34806043910316 l 7.1171531387445 0 L 684.3142742902838 160.3681527493561 l -7.1171531387445 0 L 677.1971211515394 153.34806043910316 M 694.9900039984005 158.85786867020744 l 7.1171531387445 0 L 702.107157137145 170.82619383446035 l -7.1171531387445 0 L 694.9900039984005 158.85786867020744 M 703.8864454218311 170.80394847184493 l 7.1171531387445 0 L 711.0035985605756 171.7436416672179 l -7.1171531387445 0 L 703.8864454218311 170.80394847184493 M 721.6793282686924 150.36654169431776 l 7.1171531387445 0 L 728.7964814074369 154.16655108324778 l -7.1171531387445 0 L 721.6793282686924 150.36654169431776 M 739.4722111155537 150.6656538002761 l 7.1171531387445 0 L 746.5893642542982 160.1925904271323 l -7.1171531387445 0 L 739.4722111155537 150.6656538002761 M 766.1615353858456 133.67862546064435 l 7.1171531387445 0 L 773.27868852459 135.66438416087504 l -7.1171531387445 0 L 766.1615353858456 133.67862546064435 M 775.0579768092763 135.66566446951475 l 7.1171531387445 0 L 782.1751299480208 145.24018590081448 l -7.1171531387445 0 L 775.0579768092763 135.66566446951475 M 783.9544182327068 145.24023924700782 l 7.1171531387445 0 L 791.0715713714512 146.6060618346396 l -7.1171531387445 0 L 783.9544182327068 145.24023924700782 M 792.8508596561375 146.6060618346396 l 7.1171531387445 0 L 799.9680127948819 158.73234507732 l -7.1171531387445 0 L 792.8508596561375 146.6060618346396 M 801.747301079568 158.72893092094733 l 7.1171531387445 0 L 808.8644542183125 160.52541732727036 l -7.1171531387445 0 L 801.747301079568 158.72893092094733 M 819.5401839264293 159.90420090603175 l 7.1171531387445 0 L 826.6573370651738 181.19594696961613 l -7.1171531387445 0 L 819.5401839264293 159.90420090603175 M 855.1259496201519 164.90321933607459 l 7.1171531387445 0 L 862.2431027588964 181.3265384508692 l -7.1171531387445 0 L 855.1259496201519 164.90321933607459 M 881.8152738904437 164.6929819881913 l 7.1171531387445 0 L 888.9324270291881 165.31142440737716 l -7.1171531387445 0 L 881.8152738904437 164.6929819881913"></path><path class="candle body equal"></path><path class="candle wick up" d="M 22.41903238704518 51.98095754283162 L 22.41903238704518 59.92959369405315 M 22.41903238704518 61.304005018809846 L 22.41903238704518 67.08273141045197 M 49.10835665733706 56.021611609838715 L 49.10835665733706 56.27697983727276 M 49.10835665733706 76.18476560749576 L 49.10835665733706 76.60716076622202 M 58.004798080767685 47.342719418227716 L 58.004798080767685 52.05436190484315 M 58.004798080767685 56.27697983727276 L 58.004798080767685 62.01484304482997 M 75.79768092762893 38.24473953187646 L 75.79768092762893 42.35426353446269 M 75.79768092762893 52.26502602227308 L 75.79768092762893 57.48036326623799 M 84.69412235105956 33.11187550278785 L 84.69412235105956 36.42696799441782 M 84.69412235105956 42.354316880656 L 84.69412235105956 45.36362899216235 M 111.38344662135144 28.673472218369398 L 111.38344662135144 35.34169303746819 M 111.38344662135144 36.5663082513758 L 111.38344662135144 38.12337694206812 M 129.1763294682127 37.78046761139217 L 129.1763294682127 39.331988297978995 M 129.1763294682127 45.467120607207704 L 129.1763294682127 49.009041112844244 M 138.07277089164333 33.62399895868228 L 138.07277089164333 34.381568250052794 M 138.07277089164333 39.331988297978995 L 138.07277089164333 46.92976653571952 M 164.7620951619352 39.59178425945879 L 164.7620951619352 39.99609505864879 M 164.7620951619352 51.3272532898597 L 164.7620951619352 52.679259213421034 M 173.65853658536582 35.635683908867605 L 173.65853658536582 39.64923810966695 M 173.65853658536582 39.99609505864879 L 173.65853658536582 42.255413038236384 M 182.55497800879647 21.73846708646562 L 182.55497800879647 30.971999650048957 M 182.55497800879647 39.64918476347361 L 182.55497800879647 40.943043336313565 M 191.4514194322271 26.011497171584807 L 191.4514194322271 29.727432959838808 M 191.4514194322271 30.971999650048957 L 191.4514194322271 33.83460972991887 M 209.24430227908834 9.587431210083679 L 209.24430227908834 10.66913197208072 M 209.24430227908834 30.487189445135527 L 209.24430227908834 30.779846661701868 M 227.0371851259496 9.46884262232814 L 227.0371851259496 12.883105687344312 M 227.0371851259496 13.952430132490576 L 227.0371851259496 18.9644650337041 M 271.51939224310274 45.33754270362772 L 271.51939224310274 48.81166019755159 M 271.51939224310274 53.03593186197418 L 271.51939224310274 65.32252041558817 M 324.89804078368655 59.845680131957096 L 324.89804078368655 61.7406969573465 M 324.89804078368655 88.06506955276683 L 324.89804078368655 89.73651248194227 M 333.7944822071172 53.9595678531571 L 333.7944822071172 56.34963735257776 M 333.7944822071172 61.74075030353981 L 333.7944822071172 65.89844591869613 M 360.483806477409 40.60701566457618 L 360.483806477409 42.04058791772735 M 360.483806477409 64.12201768106229 L 360.483806477409 67.01332801293961 M 369.38024790083966 37.96600567176725 L 369.38024790083966 41.474584806577326 M 369.38024790083966 42.024690752117266 L 369.38024790083966 45.97823048542898 M 387.1731307477009 35.174025951856095 L 387.1731307477009 44.840622912830156 M 387.1731307477009 47.994343169660056 L 387.1731307477009 48.75831400422925 M 404.9660135945622 40.03717162750698 L 404.9660135945622 43.41777324453676 M 404.9660135945622 65.98886771637746 L 404.9660135945622 67.61619334367535 M 422.7588964414235 36.94213218333161 L 422.7588964414235 44.065182646696655 M 422.7588964414235 48.97874047503714 L 422.7588964414235 55.12448867673697 M 431.65533786485406 32.40770575093299 L 431.65533786485406 35.81092615393146 M 431.65533786485406 44.061235028390826 L 431.65533786485406 46.277716014740605 M 458.34466213514594 46.47813766305259 L 458.34466213514594 47.504571768767704 M 458.34466213514594 52.05969652417539 L 458.34466213514594 59.774302925291835 M 476.13754498200717 75.79315120231647 L 476.13754498200717 84.84183920603792 M 476.13754498200717 85.55571796507742 L 476.13754498200717 104.42506673608783 M 485.0339864054379 75.17534893745051 L 485.0339864054379 83.93239330227873 M 485.0339864054379 84.83677131767232 L 485.0339864054379 89.48946626066655 M 538.4126349460215 123.35405655123262 L 538.4126349460215 133.62335880436243 M 538.4126349460215 154.19050352404952 L 538.4126349460215 163.90607229049348 M 556.2055177928828 142.67962196753564 L 556.2055177928828 150.03750237390557 M 556.2055177928828 151.0317687250473 L 556.2055177928828 162.0356480602257 M 573.998400639744 136.85955227606868 L 573.998400639744 142.854117365893 M 573.998400639744 164.80527572513478 L 573.998400639744 168.2751255235929 M 591.7912834866053 131.94636787108143 L 591.7912834866053 140.476904299063 M 591.7912834866053 145.36976380439444 L 591.7912834866053 148.1665980278979 M 627.3770491803277 155.1679658242947 L 627.3770491803277 159.68494805147697 M 627.3770491803277 165.2122538339909 L 627.3770491803277 171.75329732820924 M 636.2734906037584 149.77466567940644 L 636.2734906037584 151.08266099347682 M 636.2734906037584 159.68500139767025 L 636.2734906037584 167.6198208848213 M 654.0663734506197 145.90173204420478 L 654.0663734506197 149.4029494043364 M 654.0663734506197 154.06449981542218 L 654.0663734506197 158.19802960500343 M 662.9628148740503 139.22812325958043 L 662.9628148740503 140.4508713567217 M 662.9628148740503 149.4029494043364 L 662.9628148740503 151.52975543971132 M 689.6521391443422 155.21064277895258 L 689.6521391443422 158.85786867020744 M 689.6521391443422 160.3528423918726 L 689.6521391443422 161.92159389890256 M 716.3414634146341 149.5837396535058 L 716.3414634146341 150.36654169431776 M 716.3414634146341 171.7436950134112 L 716.3414634146341 176.99285374394253 M 734.1343462614954 148.80696573253925 L 734.1343462614954 150.6656538002761 M 734.1343462614954 154.15529503645678 L 734.1343462614954 158.1085680388019 M 751.9272291083566 139.74024671547488 L 751.9272291083566 141.65766894205962 M 751.9272291083566 160.19253708093896 L 751.9272291083566 164.40219188839123 M 760.8236705317872 130.7564810290267 L 760.8236705317872 133.67857211445104 M 760.8236705317872 141.65772228825296 L 760.8236705317872 143.20774928142677 M 814.202319072371 157.03657628398952 L 814.202319072371 159.90425425222503 M 814.202319072371 160.52541732727036 L 814.202319072371 171.98268595949529 M 831.9952019192323 172.18124049104105 L 831.9952019192323 176.3914287604265 M 831.9952019192323 181.16826029528184 L 831.9952019192323 196.15384615384616 M 840.8916433426629 163.74069909119424 L 840.8916433426629 170.1578727245181 M 840.8916433426629 176.3914287604265 L 840.8916433426629 180.80081171567758 M 849.7880847660936 161.51616282965279 L 849.7880847660936 164.9031659898813 M 849.7880847660936 170.17387658251482 L 849.7880847660936 177.5809955253213 M 867.5809676129546 175.21546527482892 L 867.5809676129546 177.59657261377143 M 867.5809676129546 181.3711358684867 L 867.5809676129546 188.9734485326596 M 876.4774090363853 164.4448688430491 L 876.4774090363853 164.7044514197556 M 876.4774090363853 177.59657261377143 L 876.4774090363853 179.2513715306303" style="stroke-width: 1px;"></path><path class="candle wick down" d="M 4.626149540183927 37.26701050066467 L 4.626149540183927 39.876066123673525 M 4.626149540183927 43.86881530907715 L 4.626149540183927 54.012327238352896 M 13.522590963614554 38.1118541643105 L 13.522590963614554 43.86881530907715 M 13.522590963614554 61.304005018809846 L 13.522590963614554 63.61522884450008 M 31.315473810475808 44.67733021507047 L 31.315473810475808 59.91940457112855 M 31.315473810475808 70.79749358245292 L 31.315473810475808 74.01773654235579 M 40.21191523390643 65.55169566210091 L 40.21191523390643 70.79744023625958 M 40.21191523390643 76.18476560749576 L 40.21191523390643 80.80571956546324 M 66.90123950419832 48.092820242533094 L 66.90123950419832 52.05436190484315 M 66.90123950419832 52.26513271465973 L 66.90123950419832 58.05740903940574 M 93.5905637744902 30.807319951262883 L 93.5905637744902 36.42696799441782 M 93.5905637744902 36.45908240279786 L 93.5905637744902 46.976551147263194 M 102.48700519792082 32.46105194425533 L 102.48700519792082 36.46489713787 M 102.48700519792082 36.566361597569085 L 102.48700519792082 40.75398442717923 M 120.27988804478207 30.851490599333772 L 120.27988804478207 35.34169303746819 M 120.27988804478207 45.46717395340099 L 120.27988804478207 46.38440840138526 M 146.96921231507397 32.433098538954454 L 146.96921231507397 34.381568250052794 M 146.96921231507397 40.456846130373805 L 146.96921231507397 43.54094960491807 M 155.8656537385046 36.91545908667047 L 155.8656537385046 40.462820904025904 M 155.8656537385046 51.327199943666415 L 155.8656537385046 53.89021780183808 M 200.34786085565773 22.805390952912376 L 200.34786085565773 29.746797628014832 M 200.34786085565773 30.487242791328867 L 200.34786085565773 33.20475122536203 M 218.14074370251896 3.8461538461538396 L 218.14074370251896 10.669078625887352 M 218.14074370251896 13.952430132490576 L 218.14074370251896 22.80005633358013 M 235.93362654938022 10.9592819175609 L 235.93362654938022 12.889720615316293 M 235.93362654938022 22.619746200150615 L 235.93362654938022 29.740396084816126 M 244.83006797281087 16.371573307271916 L 244.83006797281087 22.619692853957332 M 244.83006797281087 29.70486752006346 L 244.83006797281087 31.976081700761938 M 253.72650939624148 27.078421038031536 L 253.72650939624148 29.704814173870176 M 253.72650939624148 50.27862716772253 L 253.72650939624148 78.11845842304382 M 262.6229508196721 42.9339232711032 L 262.6229508196721 50.27862716772253 M 262.6229508196721 53.03593186197418 L 262.6229508196721 60.56606712658194 M 280.4158336665334 47.03571207565767 L 280.4158336665334 48.81166019755159 M 280.4158336665334 62.88102518580479 L 280.4158336665334 64.2232687559881 M 289.31227508996403 53.631595456611365 L 289.31227508996403 62.88107853199807 M 289.31227508996403 74.06596150111919 L 289.31227508996403 80.41927974103622 M 298.2087165133947 71.71398118373068 L 298.2087165133947 74.06601484731252 M 298.2087165133947 77.08439581168365 L 298.2087165133947 96.42313773773729 M 307.10515793682526 76.86524964951549 L 307.10515793682526 77.16217456154763 M 307.10515793682526 82.83138121829903 L 307.10515793682526 90.2502363236364 M 316.0015993602559 80.05700574218422 L 316.0015993602559 82.83138121829903 M 316.0015993602559 88.06501620657352 L 316.0015993602559 99.4638707571105 M 342.6909236305478 48.79565633955488 L 342.6909236305478 56.34963735257776 M 342.6909236305478 57.23385050689549 L 342.6909236305478 62.74483235425282 M 351.5873650539784 55.36876089595998 L 351.5873650539784 57.23379716070215 M 351.5873650539784 64.12201768106229 L 351.5873650539784 70.65191182087625 M 378.2766893242703 40.884309177465695 L 378.2766893242703 41.490695356960686 M 378.2766893242703 47.994343169660056 L 378.2766893242703 50.89082808228966 M 396.06957217113154 44.67733021507047 L 396.06957217113154 44.840622912830156 M 396.06957217113154 66.01575419781193 L 396.06957217113154 66.83365803382998 M 413.86245501799283 38.489171789679375 L 413.86245501799283 43.41777324453676 M 413.86245501799283 48.97874047503714 L 413.86245501799283 55.34656887953787 M 440.5517792882847 33.47462961737972 L 440.5517792882847 35.787027059323094 M 440.5517792882847 39.124845029308375 L 440.5517792882847 49.8217170219167 M 449.44822071171535 32.40770575093299 L 449.44822071171535 39.12489837550169 M 449.44822071171535 52.05969652417539 L 449.44822071171535 64.94888367755851 M 467.2411035585766 40.409581403090186 L 467.2411035585766 47.504571768767704 M 467.2411035585766 85.05335686256097 L 467.2411035585766 90.55505647228024 M 493.93042782886846 79.35235587458949 L 493.93042782886846 83.91793648388834 M 493.93042782886846 100.35480553178685 L 493.93042782886846 101.46435300669813 M 502.82686925229905 84.1754385590553 L 502.82686925229905 100.35480553178685 M 502.82686925229905 102.123178494229 L 502.82686925229905 116.02578328215654 M 511.7233106757297 100.76551787417552 L 511.7233106757297 102.14809116651051 M 511.7233106757297 117.55868614727389 L 511.7233106757297 125.75820944569035 M 520.6197520991603 105.49577818226045 L 520.6197520991603 117.55879283966055 M 520.6197520991603 121.23029124887705 L 520.6197520991603 124.42978253957754 M 529.5161935225909 117.3087058853654 L 529.5161935225909 121.23029124887705 M 529.5161935225909 154.08989260344362 L 529.5161935225909 189.7789760518269 M 547.3090763694522 124.69662019857586 L 547.3090763694522 133.63002707852772 M 547.3090763694522 151.09226330827482 L 547.3090763694522 171.17182382099577 M 565.1019592163135 145.65826001788164 L 565.1019592163135 149.99066441616856 M 565.1019592163135 164.944989405446 L 565.1019592163135 183.85216062752195 M 582.8948420631747 137.54361051304102 L 582.8948420631747 142.77569846170917 M 582.8948420631747 145.36976380439444 L 582.8948420631747 155.53274709423283 M 600.687724910036 134.2395073372354 L 600.687724910036 140.4768509528697 M 600.687724910036 144.27477984026012 L 600.687724910036 151.72036138845206 M 609.5841663334666 142.41913250554265 L 609.5841663334666 144.27472649406684 M 609.5841663334666 159.5664128099147 L 609.5841663334666 164.79161909964427 M 618.4806077568971 150.63044531268335 L 618.4806077568971 159.5754816627795 M 618.4806077568971 165.2122538339909 L 618.4806077568971 170.39958432646162 M 645.169932027189 147.66317000151503 L 645.169932027189 151.0826076472835 M 645.169932027189 154.0738887454469 L 645.169932027189 159.55302291539078 M 671.8592562974809 140.22532365135487 L 671.8592562974809 140.45092470291505 M 671.8592562974809 153.348860632003 L 671.8592562974809 160.1443654683689 M 680.7556977209116 147.50211784387488 L 680.7556977209116 153.34806043910316 M 680.7556977209116 160.3681527493561 L 680.7556977209116 164.1728032571052 M 698.5485805677728 152.9701026594144 L 698.5485805677728 158.85786867020744 M 698.5485805677728 170.82619383446035 L 698.5485805677728 172.1747322554557 M 707.4450219912034 168.0776912621069 L 707.4450219912034 170.80394847184493 M 707.4450219912034 171.7436416672179 L 707.4450219912034 184.4443567195932 M 725.2379048380647 144.48272330183062 L 725.2379048380647 150.36654169431776 M 725.2379048380647 154.16655108324778 L 725.2379048380647 158.93420707285168 M 743.0307876849259 149.96335116518756 L 743.0307876849259 150.6656538002761 M 743.0307876849259 160.1925904271323 L 743.0307876849259 165.2378066605923 M 769.7201119552178 129.33773901761919 L 769.7201119552178 133.67862546064435 M 769.7201119552178 135.66438416087504 L 769.7201119552178 139.0659508318805 M 778.6165533786485 133.6206914946963 L 778.6165533786485 135.66566446951475 M 778.6165533786485 145.24018590081448 L 778.6165533786485 146.4831522052249 M 787.512994802079 138.7806553899927 L 787.512994802079 145.24023924700782 M 787.512994802079 146.6060618346396 L 787.512994802079 150.48950466992576 M 796.4094362255097 146.0199472086071 L 796.4094362255097 146.6060618346396 M 796.4094362255097 158.73234507732 L 796.4094362255097 162.41616645719392 M 805.3058776489403 155.33333902359396 L 805.3058776489403 158.72893092094733 M 805.3058776489403 160.52541732727036 L 805.3058776489403 164.15402539705573 M 823.0987604958016 159.10491489148316 L 823.0987604958016 159.90420090603175 M 823.0987604958016 181.19594696961613 L 823.0987604958016 183.10414030475613 M 858.6845261895241 160.4385697245416 L 858.6845261895241 164.90321933607459 M 858.6845261895241 181.3265384508692 L 858.6845261895241 182.97733640322895 M 885.3738504598159 161.51770986925914 L 885.3738504598159 164.6929819881913 M 885.3738504598159 165.31142440737716 L 885.3738504598159 169.17283526482117" style="stroke-width: 1px;"></path><path class="candle wick equal" style="stroke-width: 1px;"></path></g></g><g class="x axis" transform="translate(0,200)" fill="none" font-size="10" font-family="sans-serif" text-anchor="middle"><path class="domain" stroke="#000" d="M0.5,6V0.5H890.5V6"></path><g class="tick" opacity="1" transform="translate(13.522590963614554,0)"><line stroke="#000" y2="6" x1="0.5" x2="0.5"></line><text fill="#000" y="9" x="0.5" dy="0.71em">Mar 22</text></g><g class="tick" opacity="1" transform="translate(75.79768092762893,0)"><line stroke="#000" y2="6" x1="0.5" x2="0.5"></line><text fill="#000" y="9" x="0.5" dy="0.71em">Mar 29</text></g><g class="tick" opacity="1" transform="translate(138.07277089164333,0)"><line stroke="#000" y2="6" x1="0.5" x2="0.5"></line><text fill="#000" y="9" x="0.5" dy="0.71em">Apr  5</text></g><g class="tick" opacity="1" transform="translate(200.34786085565773,0)"><line stroke="#000" y2="6" x1="0.5" x2="0.5"></line><text fill="#000" y="9" x="0.5" dy="0.71em">Apr 12</text></g><g class="tick" opacity="1" transform="translate(262.6229508196721,0)"><line stroke="#000" y2="6" x1="0.5" x2="0.5"></line><text fill="#000" y="9" x="0.5" dy="0.71em">Apr 19</text></g><g class="tick" opacity="1" transform="translate(324.89804078368655,0)"><line stroke="#000" y2="6" x1="0.5" x2="0.5"></line><text fill="#000" y="9" x="0.5" dy="0.71em">Apr 26</text></g><g class="tick" opacity="1" transform="translate(387.1731307477009,0)"><line stroke="#000" y2="6" x1="0.5" x2="0.5"></line><text fill="#000" y="9" x="0.5" dy="0.71em">May  3</text></g><g class="tick" opacity="1" transform="translate(449.44822071171535,0)"><line stroke="#000" y2="6" x1="0.5" x2="0.5"></line><text fill="#000" y="9" x="0.5" dy="0.71em">May 10</text></g><g class="tick" opacity="1" transform="translate(511.7233106757297,0)"><line stroke="#000" y2="6" x1="0.5" x2="0.5"></line><text fill="#000" y="9" x="0.5" dy="0.71em">May 17</text></g><g class="tick" opacity="1" transform="translate(573.998400639744,0)"><line stroke="#000" y2="6" x1="0.5" x2="0.5"></line><text fill="#000" y="9" x="0.5" dy="0.71em">May 24</text></g><g class="tick" opacity="1" transform="translate(636.2734906037584,0)"><line stroke="#000" y2="6" x1="0.5" x2="0.5"></line><text fill="#000" y="9" x="0.5" dy="0.71em">May 31</text></g><g class="tick" opacity="1" transform="translate(698.5485805677728,0)"><line stroke="#000" y2="6" x1="0.5" x2="0.5"></line><text fill="#000" y="9" x="0.5" dy="0.71em">Jun  7</text></g><g class="tick" opacity="1" transform="translate(760.8236705317872,0)"><line stroke="#000" y2="6" x1="0.5" x2="0.5"></line><text fill="#000" y="9" x="0.5" dy="0.71em">Jun 14</text></g><g class="tick" opacity="1" transform="translate(823.0987604958016,0)"><line stroke="#000" y2="6" x1="0.5" x2="0.5"></line><text fill="#000" y="9" x="0.5" dy="0.71em">Jun 21</text></g><g class="tick" opacity="1" transform="translate(885.3738504598159,0)"><line stroke="#000" y2="6" x1="0.5" x2="0.5"></line><text fill="#000" y="9" x="0.5" dy="0.71em">Jun 28</text></g></g><g class="y axis" fill="none" font-size="10" font-family="sans-serif" text-anchor="end"><path class="domain" stroke="#000" d="M-6,200.5H0.5V0.5H-6"></path><g class="tick" opacity="1" transform="translate(0,189.7789760518269)"><line stroke="#000" x2="-6" y1="0.5" y2="0.5"></line><text fill="#000" x="-9" y="0.5" dy="0.32em">30,000</text></g><g class="tick" opacity="1" transform="translate(0,163.10587939065843)"><line stroke="#000" x2="-6" y1="0.5" y2="0.5"></line><text fill="#000" x="-9" y="0.5" dy="0.32em">35,000</text></g><g class="tick" opacity="1" transform="translate(0,136.43278272949)"><line stroke="#000" x2="-6" y1="0.5" y2="0.5"></line><text fill="#000" x="-9" y="0.5" dy="0.32em">40,000</text></g><g class="tick" opacity="1" transform="translate(0,109.75968606832151)"><line stroke="#000" x2="-6" y1="0.5" y2="0.5"></line><text fill="#000" x="-9" y="0.5" dy="0.32em">45,000</text></g><g class="tick" opacity="1" transform="translate(0,83.08658940715306)"><line stroke="#000" x2="-6" y1="0.5" y2="0.5"></line><text fill="#000" x="-9" y="0.5" dy="0.32em">50,000</text></g><g class="tick" opacity="1" transform="translate(0,56.4134927459846)"><line stroke="#000" x2="-6" y1="0.5" y2="0.5"></line><text fill="#000" x="-9" y="0.5" dy="0.32em">55,000</text></g><g class="tick" opacity="1" transform="translate(0,29.740396084816126)"><line stroke="#000" x2="-6" y1="0.5" y2="0.5"></line><text fill="#000" x="-9" y="0.5" dy="0.32em">60,000</text></g><g class="tick" opacity="1" transform="translate(0,3.0672994236476825)"><line stroke="#000" x2="-6" y1="0.5" y2="0.5"></line><text fill="#000" x="-9" y="0.5" dy="0.32em">65,000</text></g><text transform="rotate(-90)" y="6" dy=".71em" style="text-anchor: end;">Price ($)</text></g></g></svg>