<?xml version="1.0" encoding="utf-8"?>
<!DOCTYPE svg PUBLIC "-//W3C//DTD SVG 1.1//EN" "http://www.w3.org/Graphics/SVG/1.1/DTD/svg11.dtd">
<svg version="1.1" xmlns="http://www.w3.org/2000/svg" width="960" height="250"><g transform="translate(50,20)"><style>.axis path,.axis line{fill:none;stroke:#000;shape-rendering:crispEdges;}path.candle{stroke:#000000;}path.candle.body{stroke-width:0;}path.candle.up{fill:#00AA00;stroke:#00AA00;}path.candle.down{fill:#FF0000;stroke:#FF0000;}</style><g class="candlestick"><g class="data"><path class="candle body up" d="M 27.75689724110356 64.5149198328943 l 7.1171531387445 0 L 34.87405037984806 48.345159115638495 l -7.1171531387445 0 L 27.75689724110356 64.5149198328943 M 45.54978008796481 56.739486714554744 l 7.1171531387445 0 L 52.66693322670931 51.57976741378317 l -7.1171531387445 0 L 45.54978008796481 56.739486714554744 M 54.446221511395436 51.57976741378317 l 7.1171531387445 0 L 61.563374650139934 36.68482152967283 l -7.1171531387445 0 L 54.446221511395436 51.57976741378317 M 72.23910435825668 52.120392013060126 l 7.1171531387445 0 L 79.35625749700118 33.30913997241905 l -7.1171531387445 0 L 72.23910435825668 52.120392013060126 M 90.03198720511796 33.8003186287192 l 7.1171531387445 0 L 97.14914034386246 22.7724672991248 l -7.1171531387445 0 L 90.03198720511796 33.8003186287192 M 98.92842862854857 22.818866809595903 l 7.1171531387445 0 L 106.04558176729307 21.88900187247802 l -7.1171531387445 0 L 98.92842862854857 22.818866809595903 M 161.20351859256294 106.41555251599706 l 7.1171531387445 0 L 168.32067173130744 99.2522179903369 l -7.1171531387445 0 L 161.20351859256294 106.41555251599706 M 170.09996001599356 99.2522179903369 l 7.1171531387445 0 L 177.21711315473806 90.45177750431748 l -7.1171531387445 0 L 170.09996001599356 99.2522179903369 M 187.89284286285485 93.14341779356548 l 7.1171531387445 0 L 195.00999600159935 90.13518286468893 l -7.1171531387445 0 L 187.89284286285485 93.14341779356548 M 205.68572570971608 93.90971273922463 l 7.1171531387445 0 L 212.80287884846058 89.43403470645887 l -7.1171531387445 0 L 205.68572570971608 93.90971273922463 M 241.2714914034386 136.382606051471 l 7.1171531387445 0 L 248.3886445421831 119.27290373573238 l -7.1171531387445 0 L 241.2714914034386 136.382606051471 M 259.06437425029986 130.35020100830354 l 7.1171531387445 0 L 266.1815273890444 124.79655455045153 l -7.1171531387445 0 L 259.06437425029986 130.35020100830354 M 267.9608156737305 124.83358042244366 l 7.1171531387445 0 L 275.07796881247504 122.88808175612493 l -7.1171531387445 0 L 267.9608156737305 124.83358042244366 M 294.65013994402244 129.89511086014755 l 7.1171531387445 0 L 301.76729308276697 125.96169781339262 l -7.1171531387445 0 L 294.65013994402244 129.89511086014755 M 321.3394642143143 154.3096896425794 l 7.1171531387445 0 L 328.45661735305885 142.54038350929525 l -7.1171531387445 0 L 321.3394642143143 154.3096896425794 M 330.23590563774496 142.54014916833333 l 7.1171531387445 0 L 337.3530587764895 141.90930329869585 l -7.1171531387445 0 L 330.23590563774496 142.54014916833333 M 339.13234706117555 141.89125904462372 l 7.1171531387445 0 L 346.2495001999201 94.09577946303298 l -7.1171531387445 0 L 339.13234706117555 141.89125904462372 M 348.02878848460614 94.06039397777475 l 7.1171531387445 0 L 355.14594162335067 87.34136991601969 l -7.1171531387445 0 L 348.02878848460614 94.06039397777475 M 356.9252299080368 87.36785044472293 l 7.1171531387445 0 L 364.0423830467813 83.15768072187517 l -7.1171531387445 0 L 356.9252299080368 87.36785044472293 M 365.8216713314674 83.15768072187517 l 7.1171531387445 0 L 372.93882447021196 69.82672641798774 l -7.1171531387445 0 L 365.8216713314674 83.15768072187517 M 383.61455417832866 121.90010026043718 l 7.1171531387445 0 L 390.7317073170732 120.65598409331047 l -7.1171531387445 0 L 383.61455417832866 121.90010026043718 M 401.40743702518995 132.95490080065866 l 7.1171531387445 0 L 408.5245901639345 130.57821476430547 l -7.1171531387445 0 L 401.40743702518995 132.95490080065866 M 410.3038784486206 130.57821476430547 l 7.1171531387445 0 L 417.4210315873651 123.30614603228882 l -7.1171531387445 0 L 410.3038784486206 130.57821476430547 M 428.0967612954818 139.62026078212136 l 7.1171531387445 0 L 435.21391443422635 136.81824589978302 l -7.1171531387445 0 L 428.0967612954818 139.62026078212136 M 454.7860855657737 162.02536581561526 l 7.1171531387445 0 L 461.90323870451823 139.99098818396624 l -7.1171531387445 0 L 454.7860855657737 162.02536581561526 M 490.3718512594962 153.87569018100118 l 7.1171531387445 0 L 497.48900439824075 144.06406844405848 l -7.1171531387445 0 L 490.3718512594962 153.87569018100118 M 508.16473410635746 147.5726213267523 l 7.1171531387445 0 L 515.281887245102 139.72876064751594 l -7.1171531387445 0 L 508.16473410635746 147.5726213267523 M 517.0611755297881 139.72876064751594 l 7.1171531387445 0 L 524.1783286685326 135.54132199797982 l -7.1171531387445 0 L 517.0611755297881 139.72876064751594 M 552.6469412235106 148.0497395253339 l 7.1171531387445 0 L 559.764094362255 134.66090300383865 l -7.1171531387445 0 L 552.6469412235106 148.0497395253339 M 561.5433826469413 134.66090300383865 l 7.1171531387445 0 L 568.6605357856857 118.0522216648032 l -7.1171531387445 0 L 561.5433826469413 134.66090300383865 M 606.0255897640943 139.64205449158507 l 7.1171531387445 0 L 613.1427429028388 139.1147873271407 l -7.1171531387445 0 L 606.0255897640943 139.64205449158507 M 632.7149140343862 147.99677846792753 l 7.1171531387445 0 L 639.8320671731307 145.75811925817777 l -7.1171531387445 0 L 632.7149140343862 147.99677846792753 M 641.6113554578168 145.7681959195427 l 7.1171531387445 0 L 648.7285085965613 140.6119917332007 l -7.1171531387445 0 L 641.6113554578168 145.7681959195427 M 668.3006797281087 147.79993205986824 l 7.1171531387445 0 L 675.4178328668531 143.24012562175344 l -7.1171531387445 0 L 668.3006797281087 147.79993205986824 M 677.1971211515394 143.24012562175344 l 7.1171531387445 0 L 684.3142742902838 136.51735210460677 l -7.1171531387445 0 L 677.1971211515394 143.24012562175344 M 712.7828868452618 148.42046692717884 l 7.1171531387445 0 L 719.9000399840063 145.5509618477916 l -7.1171531387445 0 L 712.7828868452618 148.42046692717884 M 721.6793282686924 145.5509618477916 l 7.1171531387445 0 L 728.7964814074369 144.6140666818145 l -7.1171531387445 0 L 721.6793282686924 145.5509618477916 M 730.5757696921231 144.61547272758628 l 7.1171531387445 0 L 737.6929228308676 136.03601576870955 l -7.1171531387445 0 L 730.5757696921231 144.61547272758628 M 748.3686525389844 141.65551203687667 l 7.1171531387445 0 L 755.4858056777289 124.09235995971585 l -7.1171531387445 0 L 748.3686525389844 141.65551203687667 M 757.265093962415 124.11696576072325 l 7.1171531387445 0 L 764.3822471011595 107.88721375720176 l -7.1171531387445 0 L 757.265093962415 124.11696576072325 M 775.0579768092763 119.05309191339956 l 7.1171531387445 0 L 782.1751299480208 112.09949254870729 l -7.1171531387445 0 L 775.0579768092763 119.05309191339956 M 783.9544182327068 112.09949254870729 l 7.1171531387445 0 L 791.0715713714512 106.99484337399996 l -7.1171531387445 0 L 783.9544182327068 112.09949254870729 M 828.43662534986 122.4104948756193 l 7.1171531387445 0 L 835.5537784886045 121.09865417048174 l -7.1171531387445 0 L 828.43662534986 122.4104948756193 M 837.3330667732906 121.11505803782002 l 7.1171531387445 0 L 844.4502199120351 99.05419987746778 l -7.1171531387445 0 L 837.3330667732906 121.11505803782002 M 846.2295081967213 99.05419987746778 l 7.1171531387445 0 L 853.3466613354658 95.51916646607081 l -7.1171531387445 0 L 846.2295081967213 99.05419987746778"></path><path class="candle body down" d="M 1.0675729708116766 49.41187917454988 l 7.1171531387445 0 L 8.184726109556177 55.95256976424173 l -7.1171531387445 0 L 1.0675729708116766 49.41187917454988 M 9.964014394242305 55.996157183169146 l 7.1171531387445 0 L 17.081167532986804 59.922774342026855 l -7.1171531387445 0 L 9.964014394242305 55.996157183169146 M 18.860455817672932 59.956988122475195 l 7.1171531387445 0 L 25.977608956417434 64.50156239806168 l -7.1171531387445 0 L 18.860455817672932 59.956988122475195 M 36.65333866453418 48.31844424597324 l 7.1171531387445 0 L 43.77049180327868 56.739486714554744 l -7.1171531387445 0 L 36.65333866453418 48.31844424597324 M 63.342662934826066 36.661856115399246 l 7.1171531387445 0 L 70.45981607357056 52.15249672485069 l -7.1171531387445 0 L 63.342662934826066 36.661856115399246 M 81.13554578168731 33.30913997241905 l 7.1171531387445 0 L 88.25269892043181 33.76985430366241 l -7.1171531387445 0 L 81.13554578168731 33.30913997241905 M 107.82487005197919 21.84963259086615 l 7.1171531387445 0 L 114.94202319072369 25.079319728809367 l -7.1171531387445 0 L 107.82487005197919 21.84963259086615 M 116.72131147540982 25.079085387847414 l 7.1171531387445 0 L 123.83846461415432 30.01032225069312 l -7.1171531387445 0 L 116.72131147540982 25.079085387847414 M 125.61775289884046 30.05203494192469 l 7.1171531387445 0 L 132.73490603758498 35.63638006579541 l -7.1171531387445 0 L 125.61775289884046 30.05203494192469 M 134.51419432227107 35.603337990156916 l 7.1171531387445 0 L 141.63134746101557 47.636512046625256 l -7.1171531387445 0 L 134.51419432227107 35.603337990156916 M 143.4106357457017 47.636512046625256 l 7.1171531387445 0 L 150.5277888844462 51.185840256702704 l -7.1171531387445 0 L 143.4106357457017 47.636512046625256 M 152.30707716913233 51.17998173265332 l 7.1171531387445 0 L 159.42423030787683 106.41555251599706 l -7.1171531387445 0 L 152.30707716913233 51.17998173265332 M 178.9964014394242 90.42623433946217 l 7.1171531387445 0 L 186.1135545781687 93.16497716206717 l -7.1171531387445 0 L 178.9964014394242 90.42623433946217 M 196.78928428628546 90.13541720565085 l 7.1171531387445 0 L 203.90643742502996 93.90900971633866 l -7.1171531387445 0 L 196.78928428628546 90.13541720565085 M 214.5821671331467 89.43403470645887 l 7.1171531387445 0 L 221.6993202718912 120.31993915383792 l -7.1171531387445 0 L 214.5821671331467 89.43403470645887 M 223.47860855657734 120.36469827757519 l 7.1171531387445 0 L 230.59576169532184 125.08760602522486 l -7.1171531387445 0 L 223.47860855657734 120.36469827757519 M 232.37504998000796 125.08760602522486 l 7.1171531387445 0 L 239.49220311875246 136.382606051471 l -7.1171531387445 0 L 232.37504998000796 125.08760602522486 M 250.16793282686922 119.23845561432199 l 7.1171531387445 0 L 257.28508596561375 130.38230572009417 l -7.1171531387445 0 L 250.16793282686922 119.23845561432199 M 276.85725709716115 122.86042952261185 l 7.1171531387445 0 L 283.9744102359057 127.0968454332008 l -7.1171531387445 0 L 276.85725709716115 122.86042952261185 M 285.7536985205918 127.11746743785464 l 7.1171531387445 0 L 292.8708516593363 129.90799961305618 l -7.1171531387445 0 L 285.7536985205918 127.11746743785464 M 303.54658136745303 125.96169781339262 l 7.1171531387445 0 L 310.66373450619756 130.7295990257415 l -7.1171531387445 0 L 303.54658136745303 125.96169781339262 M 312.4430227908837 130.7647501700378 l 7.1171531387445 0 L 319.5601759296282 154.3096896425794 l -7.1171531387445 0 L 312.4430227908837 130.7647501700378 M 374.7181127548981 69.83375664684706 l 7.1171531387445 0 L 381.8352658936426 121.90127196524705 l -7.1171531387445 0 L 374.7181127548981 69.83375664684706 M 392.5109956017593 120.64520440905962 l 7.1171531387445 0 L 399.62814874050383 132.95490080065866 l -7.1171531387445 0 L 392.5109956017593 120.64520440905962 M 419.20031987205124 123.3298144694483 l 7.1171531387445 0 L 426.31747301079577 139.65002208429223 l -7.1171531387445 0 L 419.20031987205124 123.3298144694483 M 436.99320271891247 136.81824589978302 l 7.1171531387445 0 L 444.110355857657 152.33208626447006 l -7.1171531387445 0 L 436.99320271891247 136.81824589978302 M 445.8896441423431 152.34825579084634 l 7.1171531387445 0 L 453.00679728108764 162.02536581561526 l -7.1171531387445 0 L 445.8896441423431 152.34825579084634 M 463.68252698920435 139.99098818396624 l 7.1171531387445 0 L 470.7996801279489 142.60904541115403 l -7.1171531387445 0 L 463.68252698920435 139.99098818396624 M 472.57896841263494 142.6404471000587 l 7.1171531387445 0 L 479.69612155137946 151.26583488748258 l -7.1171531387445 0 L 472.57896841263494 142.6404471000587 M 481.47540983606564 151.23091808414821 l 7.1171531387445 0 L 488.59256297481016 153.91669984934686 l -7.1171531387445 0 L 481.47540983606564 151.23091808414821 M 499.2682926829268 144.09078331372365 l 7.1171531387445 0 L 506.38544582167134 147.5484842076688 l -7.1171531387445 0 L 499.2682926829268 144.09078331372365 M 525.9576169532187 135.56405307129137 l 7.1171531387445 0 L 533.0747700919632 139.49934084574213 l -7.1171531387445 0 L 525.9576169532187 135.56405307129137 M 534.8540583766493 139.49934084574213 l 7.1171531387445 0 L 541.9712115153937 142.11599202715803 l -7.1171531387445 0 L 534.8540583766493 139.49934084574213 M 543.75049980008 142.0857620430632 l 7.1171531387445 0 L 550.8676529388244 148.07176757575962 l -7.1171531387445 0 L 543.75049980008 142.0857620430632 M 570.4398240703717 118.0522216648032 l 7.1171531387445 0 L 577.5569772091162 122.26004797803121 l -7.1171531387445 0 L 570.4398240703717 118.0522216648032 M 579.3362654938024 122.26004797803121 l 7.1171531387445 0 L 586.4534186325469 126.89039104570064 l -7.1171531387445 0 L 579.3362654938024 122.26004797803121 M 588.232706917233 126.89039104570064 l 7.1171531387445 0 L 595.3498600559775 136.9806441864319 l -7.1171531387445 0 L 588.232706917233 126.89039104570064 M 597.1291483406637 136.9806441864319 l 7.1171531387445 0 L 604.2463014794082 139.60830939306067 l -7.1171531387445 0 L 597.1291483406637 136.9806441864319 M 614.9220311875249 139.09275927671507 l 7.1171531387445 0 L 622.0391843262694 146.31256997421127 l -7.1171531387445 0 L 614.9220311875249 139.09275927671507 M 623.8184726109555 146.31256997421127 l 7.1171531387445 0 L 630.9356257497 147.99677846792753 l -7.1171531387445 0 L 623.8184726109555 146.31256997421127 M 650.5077968812475 140.6014463899118 l 7.1171531387445 0 L 657.624950019992 145.25662959955065 l -7.1171531387445 0 L 650.5077968812475 140.6014463899118 M 659.4042383046781 145.25662959955065 l 7.1171531387445 0 L 666.5213914434225 147.77673230463276 l -7.1171531387445 0 L 659.4042383046781 145.25662959955065 M 686.09356257497 136.5496911573594 l 7.1171531387445 0 L 693.2107157137144 141.72956378086084 l -7.1171531387445 0 L 686.09356257497 136.5496911573594 M 694.9900039984005 141.72956378086084 l 7.1171531387445 0 L 702.107157137145 146.49769933417167 l -7.1171531387445 0 L 694.9900039984005 141.72956378086084 M 703.8864454218311 146.5122284738142 l 7.1171531387445 0 L 711.0035985605756 148.42046692717884 l -7.1171531387445 0 L 703.8864454218311 146.5122284738142 M 739.4722111155537 136.03601576870955 l 7.1171531387445 0 L 746.5893642542982 141.67613404153042 l -7.1171531387445 0 L 739.4722111155537 136.03601576870955 M 766.1615353858456 107.8867450752778 l 7.1171531387445 0 L 773.27868852459 119.05309191339956 l -7.1171531387445 0 L 766.1615353858456 107.8867450752778 M 792.8508596561375 106.99460903303793 l 7.1171531387445 0 L 799.9680127948819 111.26430136022744 l -7.1171531387445 0 L 792.8508596561375 106.99460903303793 M 801.747301079568 111.26430136022744 l 7.1171531387445 0 L 808.8644542183125 114.46867967427727 l -7.1171531387445 0 L 801.747301079568 111.26430136022744 M 810.6437425029987 114.46867967427727 l 7.1171531387445 0 L 817.7608956417432 114.63553043920372 l -7.1171531387445 0 L 810.6437425029987 114.46867967427727 M 819.5401839264293 114.65451205712367 l 7.1171531387445 0 L 826.6573370651738 122.4104948756193 l -7.1171531387445 0 L 819.5401839264293 114.65451205712367 M 855.1259496201519 95.51916646607081 l 7.1171531387445 0 L 862.2431027588964 104.74727920769503 l -7.1171531387445 0 L 855.1259496201519 95.51916646607081 M 864.0223910435824 104.74727920769503 l 7.1171531387445 0 L 871.1395441823269 112.11613075700751 l -7.1171531387445 0 L 864.0223910435824 104.74727920769503 M 872.9188324670131 112.12691044125845 l 7.1171531387445 0 L 880.0359856057576 160.01307997513362 l -7.1171531387445 0 L 872.9188324670131 112.12691044125845 M 881.8152738904437 160.056433053099 l 7.1171531387445 0 L 888.9324270291881 191.97695284759882 l -7.1171531387445 0 L 881.8152738904437 160.056433053099"></path><path class="candle body equal"></path><path class="candle wick up" d="M 31.315473810475808 44.585392721707166 L 31.315473810475808 48.345159115638495 M 31.315473810475808 64.5149198328943 L 31.315473810475808 65.3458928840586 M 49.10835665733706 46.24593277826398 L 49.10835665733706 51.57976741378317 M 49.10835665733706 56.739486714554744 L 49.10835665733706 59.30762931684174 M 58.004798080767685 26.490989683748467 L 58.004798080767685 36.68482152967283 M 58.004798080767685 51.57976741378317 L 58.004798080767685 52.05173011120135 M 75.79768092762893 26.936237511501474 L 75.79768092762893 33.30913997241905 M 75.79768092762893 52.120392013060126 L 75.79768092762893 63.52412624566287 M 93.5905637744902 21.534678337971428 L 93.5905637744902 22.7724672991248 M 93.5905637744902 33.8003186287192 L 93.5905637744902 42.004361366511546 M 102.48700519792082 11.422865828738395 L 102.48700519792082 21.88900187247802 M 102.48700519792082 22.818866809595903 L 102.48700519792082 25.407865757498712 M 164.7620951619352 93.56288811550127 L 164.7620951619352 99.2522179903369 M 164.7620951619352 106.41555251599706 L 164.7620951619352 108.11429014935577 M 173.65853658536582 83.7873548867027 L 173.65853658536582 90.45177750431748 M 173.65853658536582 99.2522179903369 L 173.65853658536582 100.91510145651343 M 191.4514194322271 86.48532238192405 L 191.4514194322271 90.13518286468893 M 191.4514194322271 93.14341779356548 L 191.4514194322271 105.10910165298492 M 209.24430227908834 83.32148505429583 L 209.24430227908834 89.43403470645887 M 209.24430227908834 93.90971273922463 L 209.24430227908834 95.26654690906142 M 244.83006797281087 115.8072352490801 L 244.83006797281087 119.27290373573238 M 244.83006797281087 136.382606051471 L 244.83006797281087 136.49555839514306 M 262.6229508196721 114.48602090546348 L 262.6229508196721 124.79655455045153 M 262.6229508196721 130.35020100830354 L 262.6229508196721 130.70382151992425 M 271.51939224310274 121.08576541757311 L 271.51939224310274 122.88808175612493 M 271.51939224310274 124.83358042244366 L 271.51939224310274 136.14709338468586 M 298.2087165133947 125.28374941039814 L 298.2087165133947 125.96169781339262 M 298.2087165133947 129.89511086014755 L 298.2087165133947 135.73840274700103 M 324.89804078368655 138.52799755835463 L 324.89804078368655 142.54038350929525 M 324.89804078368655 154.3096896425794 L 324.89804078368655 160.86748712249545 M 333.7944822071172 138.66414965726227 L 333.7944822071172 141.90930329869585 M 333.7944822071172 142.54014916833333 L 333.7944822071172 149.12161508540885 M 342.6909236305478 88.53932091363728 L 342.6909236305478 94.09577946303298 M 342.6909236305478 141.89125904462372 L 342.6909236305478 142.56592667415057 M 351.5873650539784 83.53426664776944 L 351.5873650539784 87.34136991601969 M 351.5873650539784 94.06039397777475 L 351.5873650539784 99.93040073429331 M 360.483806477409 82.38130911485106 L 360.483806477409 83.15768072187517 M 360.483806477409 87.36785044472293 L 360.483806477409 94.33269817559 M 369.38024790083966 67.66469670280392 L 369.38024790083966 69.82672641798774 M 369.38024790083966 83.15768072187517 L 369.38024790083966 89.91513670139415 M 387.1731307477009 113.27963363321479 L 387.1731307477009 120.65598409331047 M 387.1731307477009 121.90010026043718 L 387.1731307477009 134.92945774626236 M 404.9660135945622 128.54647862397985 L 404.9660135945622 130.57821476430547 M 404.9660135945622 132.95490080065866 L 404.9660135945622 141.9036791156085 M 413.86245501799283 121.53968386091918 L 413.86245501799283 123.30614603228882 M 413.86245501799283 130.57821476430547 L 413.86245501799283 131.87224555633287 M 431.65533786485406 133.32234742903591 L 431.65533786485406 136.81824589978302 M 431.65533786485406 139.62026078212136 L 431.65533786485406 167.38708702560947 M 458.34466213514594 136.5100875347856 L 458.34466213514594 139.99098818396624 M 458.34466213514594 162.02536581561526 L 458.34466213514594 164.48524289346972 M 493.93042782886846 141.92828491661587 L 493.93042782886846 144.06406844405848 M 493.93042782886846 153.87569018100118 L 493.93042782886846 156.88486247372566 M 511.7233106757297 130.88988824373257 L 511.7233106757297 139.72876064751594 M 511.7233106757297 147.5726213267523 L 511.7233106757297 161.79289958133583 M 520.6197520991603 134.27564646235135 L 520.6197520991603 135.54132199797982 M 520.6197520991603 139.72876064751594 L 520.6197520991603 153.081743001829 M 556.2055177928828 132.5513656641373 L 556.2055177928828 134.66090300383865 M 556.2055177928828 148.0497395253339 L 556.2055177928828 150.34768699846344 M 565.1019592163135 114.83753234842638 L 565.1019592163135 118.0522216648032 M 565.1019592163135 134.66090300383865 L 565.1019592163135 137.90605664527232 M 609.5841663334666 136.3265985615589 L 609.5841663334666 139.1147873271407 M 609.5841663334666 139.64205449158507 L 609.5841663334666 141.9967124775126 M 636.2734906037584 143.81824477494638 L 636.2734906037584 145.75811925817777 M 636.2734906037584 147.99677846792753 L 636.2734906037584 150.20239560203876 M 645.169932027189 137.3626199544516 L 645.169932027189 140.6119917332007 M 645.169932027189 145.7681959195427 L 645.169932027189 168.38444215977628 M 671.8592562974809 139.42364871502411 L 671.8592562974809 143.24012562175344 M 671.8592562974809 147.79993205986824 L 671.8592562974809 147.90913494814873 M 680.7556977209116 133.5388784779011 L 680.7556977209116 136.51735210460677 M 680.7556977209116 143.24012562175344 L 680.7556977209116 145.8401385948691 M 716.3414634146341 143.54430019039734 L 716.3414634146341 145.5509618477916 M 716.3414634146341 148.42046692717884 L 716.3414634146341 157.6047579089137 M 725.2379048380647 143.38026151701465 L 725.2379048380647 144.6140666818145 M 725.2379048380647 145.5509618477916 L 725.2379048380647 146.76133291639385 M 734.1343462614954 133.11612738249767 L 734.1343462614954 136.03601576870955 M 734.1343462614954 144.61547272758628 L 734.1343462614954 147.7598597553705 M 751.9272291083566 116.2231904565862 L 751.9272291083566 124.09235995971585 M 751.9272291083566 141.65551203687667 L 751.9272291083566 143.84894344096517 M 760.8236705317872 102.065949920774 L 760.8236705317872 107.88721375720176 M 760.8236705317872 124.11696576072325 L 760.8236705317872 124.78741525293451 M 778.6165533786485 108.39315589410637 L 778.6165533786485 112.09949254870729 M 778.6165533786485 119.05309191339956 L 778.6165533786485 125.96661897359407 M 787.512994802079 100.54273366793473 L 787.512994802079 106.99484337399996 M 787.512994802079 112.09949254870729 L 787.512994802079 112.98600440785978 M 831.9952019192323 116.75162932584043 L 831.9952019192323 121.09865417048174 M 831.9952019192323 122.4104948756193 L 831.9952019192323 125.23664687704107 M 840.8916433426629 95.45636308826144 L 840.8916433426629 99.05419987746778 M 840.8916433426629 121.11505803782002 L 840.8916433426629 121.72809399434733 M 849.7880847660936 91.27103350738301 L 849.7880847660936 95.51916646607081 M 849.7880847660936 99.05419987746778 L 849.7880847660936 100.64467198639394" style="stroke-width: 1px;"></path><path class="candle wick down" d="M 4.626149540183927 44.889332949389114 L 4.626149540183927 49.41187917454988 M 4.626149540183927 55.95256976424173 L 4.626149540183927 63.765966118421346 M 13.522590963614554 40.48864402445545 L 13.522590963614554 55.996157183169146 M 13.522590963614554 59.922774342026855 L 13.522590963614554 63.136760635517675 M 22.41903238704518 50.433137086838144 L 22.41903238704518 59.956988122475195 M 22.41903238704518 64.50156239806168 L 22.41903238704518 69.72689716818633 M 40.21191523390643 47.36233312111415 L 40.21191523390643 48.31844424597324 M 40.21191523390643 56.739486714554744 L 40.21191523390643 57.786756473622205 M 66.90123950419832 33.79656917332758 L 66.90123950419832 36.661856115399246 M 66.90123950419832 52.15249672485069 L 66.90123950419832 58.83004243633613 M 84.69412235105956 10.707188530865892 L 84.69412235105956 33.30913997241905 M 84.69412235105956 33.76985430366241 L 84.69412235105956 35.697543056870984 M 111.38344662135144 7.683721439460896 L 111.38344662135144 21.84963259086615 M 111.38344662135144 25.079319728809367 L 111.38344662135144 28.857833399698706 M 120.27988804478207 3.846153846153868 L 120.27988804478207 25.079085387847414 M 120.27988804478207 30.01032225069312 L 120.27988804478207 37.546727587817855 M 129.1763294682127 26.43263878421655 L 129.1763294682127 30.05203494192469 M 129.1763294682127 35.63638006579541 L 129.1763294682127 39.93700539996564 M 138.07277089164333 21.764098139745215 L 138.07277089164333 35.603337990156916 M 138.07277089164333 47.636512046625256 L 138.07277089164333 51.43892849563599 M 146.96921231507397 41.60598173115355 L 146.96921231507397 47.636512046625256 M 146.96921231507397 51.185840256702704 L 146.96921231507397 53.06431740789651 M 155.8656537385046 50.77644659613196 L 155.8656537385046 51.17998173265332 M 155.8656537385046 106.41555251599706 L 155.8656537385046 107.6064732847554 M 182.55497800879647 89.67610892017936 L 182.55497800879647 90.42623433946217 M 182.55497800879647 93.16497716206717 L 182.55497800879647 105.108164289137 M 200.34786085565773 81.44394526694998 L 200.34786085565773 90.13541720565085 M 200.34786085565773 93.90900971633866 L 200.34786085565773 99.1366878960831 M 218.14074370251896 81.75397835964324 L 218.14074370251896 89.43403470645887 M 218.14074370251896 120.31993915383792 L 218.14074370251896 123.44018906253862 M 227.0371851259496 116.52642766138217 L 227.0371851259496 120.36469827757519 M 227.0371851259496 125.08760602522486 L 227.0371851259496 130.65554728175732 M 235.93362654938022 121.95727945515912 L 235.93362654938022 125.08760602522486 M 235.93362654938022 136.382606051471 L 235.93362654938022 137.21709421706495 M 253.72650939624148 112.46483010842675 L 253.72650939624148 119.23845561432199 M 253.72650939624148 130.38230572009417 L 253.72650939624148 136.74841229311443 M 280.4158336665334 115.62819875413099 L 280.4158336665334 122.86042952261185 M 280.4158336665334 127.0968454332008 L 280.4158336665334 131.70328572274875 M 289.31227508996403 124.65805904192415 L 289.31227508996403 127.11746743785464 M 289.31227508996403 129.90799961305618 L 289.31227508996403 134.10692096972912 M 307.10515793682526 124.62665735301945 L 307.10515793682526 125.96169781339262 M 307.10515793682526 130.7295990257415 L 307.10515793682526 134.5495910469004 M 316.0015993602559 121.75059072669694 L 316.0015993602559 130.7647501700378 M 316.0015993602559 154.3096896425794 L 316.0015993602559 157.61624061605053 M 378.2766893242703 60.37669278537291 L 378.2766893242703 69.83375664684706 M 378.2766893242703 121.90127196524705 L 378.2766893242703 129.24950150990566 M 396.06957217113154 118.2298521139804 L 396.06957217113154 120.64520440905962 M 396.06957217113154 132.95490080065866 L 396.06957217113154 137.7560784296081 M 422.7588964414235 123.22084592212984 L 422.7588964414235 123.3298144694483 M 422.7588964414235 139.65002208429223 L 422.7588964414235 141.53787287396506 M 440.5517792882847 134.5310781109044 L 440.5517792882847 136.81824589978302 M 440.5517792882847 152.33208626447006 L 440.5517792882847 156.1548903771727 M 449.44822071171535 126.99982827494306 L 449.44822071171535 152.34825579084634 M 449.44822071171535 162.02536581561526 L 449.44822071171535 169.884692998342 M 467.2411035585766 137.6857761410155 L 467.2411035585766 139.99098818396624 M 467.2411035585766 142.60904541115403 L 467.2411035585766 160.38357303601654 M 476.13754498200717 141.99436906789288 L 476.13754498200717 142.6404471000587 M 476.13754498200717 151.26583488748258 L 476.13754498200717 153.96450540558982 M 485.0339864054379 145.1797657640228 L 485.0339864054379 151.23091808414821 M 485.0339864054379 153.91669984934686 L 485.0339864054379 158.09218710982228 M 502.82686925229905 116.92644768347395 L 502.82686925229905 144.09078331372365 M 502.82686925229905 147.5484842076688 L 502.82686925229905 153.70719902934098 M 529.5161935225909 121.6334202457093 L 529.5161935225909 135.56405307129137 M 529.5161935225909 139.49934084574213 L 529.5161935225909 145.7621030545313 M 538.4126349460215 138.06072168017596 L 538.4126349460215 139.49934084574213 M 538.4126349460215 142.11599202715803 L 538.4126349460215 145.6669606239694 M 547.3090763694522 140.1250312142161 L 547.3090763694522 142.0857620430632 M 547.3090763694522 148.07176757575962 L 547.3090763694522 151.26935000191224 M 573.998400639744 117.4012224724359 L 573.998400639744 118.0522216648032 M 573.998400639744 122.26004797803121 L 573.998400639744 132.29593401558424 M 582.8948420631747 115.26871971846091 L 582.8948420631747 122.26004797803121 M 582.8948420631747 126.89039104570064 L 582.8948420631747 129.41354018328838 M 591.7912834866053 124.35599354193803 L 591.7912834866053 126.89039104570064 M 591.7912834866053 136.9806441864319 L 591.7912834866053 141.90391345657042 M 600.687724910036 134.70074096737446 L 600.687724910036 136.9806441864319 M 600.687724910036 139.60830939306067 L 600.687724910036 143.84566266749755 M 618.4806077568971 137.09992373607733 L 618.4806077568971 139.09275927671507 M 618.4806077568971 146.31256997421127 L 618.4806077568971 148.92828379177922 M 627.3770491803277 143.12037739018405 L 627.3770491803277 146.31256997421127 M 627.3770491803277 147.99677846792753 L 627.3770491803277 152.68359770743297 M 654.0663734506197 127.09661109223886 L 654.0663734506197 140.6014463899118 M 654.0663734506197 145.25662959955065 L 654.0663734506197 147.75376689035917 M 662.9628148740503 144.06734921752613 L 662.9628148740503 145.25662959955065 M 662.9628148740503 147.77673230463276 L 662.9628148740503 149.98445850740177 M 689.6521391443422 132.8428858208345 L 689.6521391443422 136.5496911573594 M 689.6521391443422 141.72956378086084 L 689.6521391443422 147.27032148580417 M 698.5485805677728 140.96280015327773 L 698.5485805677728 141.72956378086084 M 698.5485805677728 146.49769933417167 L 698.5485805677728 147.85687691362824 M 707.4450219912034 141.2519769003552 L 707.4450219912034 146.5122284738142 M 707.4450219912034 148.42046692717884 L 707.4450219912034 151.74623385953188 M 743.0307876849259 135.31541731063558 L 743.0307876849259 136.03601576870955 M 743.0307876849259 141.67613404153042 L 743.0307876849259 145.72367113676736 M 769.7201119552178 105.52927499780658 L 769.7201119552178 107.8867450752778 M 769.7201119552178 119.05309191339956 L 769.7201119552178 121.2819088027464 M 796.4094362255097 104.14666332215248 L 796.4094362255097 106.99460903303793 M 796.4094362255097 111.26430136022744 L 796.4094362255097 113.9001685005253 M 805.3058776489403 106.1453573868396 L 805.3058776489403 111.26430136022744 M 805.3058776489403 114.46867967427727 L 805.3058776489403 120.3925848520502 M 814.202319072371 109.56486070398273 L 814.202319072371 114.46867967427727 M 814.202319072371 114.63553043920372 L 814.202319072371 118.21813506588164 M 823.0987604958016 107.22145108423001 L 823.0987604958016 114.65451205712367 M 823.0987604958016 122.4104948756193 L 823.0987604958016 124.84295406092262 M 858.6845261895241 93.97485952665374 L 858.6845261895241 95.51916646607081 M 858.6845261895241 104.74727920769503 L 858.6845261895241 105.20307237873696 M 867.5809676129546 100.89963495302305 L 867.5809676129546 104.74727920769503 M 867.5809676129546 112.11613075700751 L 867.5809676129546 116.94917875678559 M 876.4774090363853 109.54423869932889 L 876.4774090363853 112.12691044125845 M 876.4774090363853 160.01307997513362 L 876.4774090363853 192.36150636620025 M 885.3738504598159 159.06329605624785 L 885.3738504598159 160.056433053099 M 885.3738504598159 191.97695284759882 L 885.3738504598159 196.15384615384613" style="stroke-width: 1px;"></path><path class="candle wick equal" style="stroke-width: 1px;"></path></g></g><g class="x axis" transform="translate(0,200)" fill="none" font-size="10" font-family="sans-serif" text-anchor="middle"><path class="domain" stroke="#000" d="M0.5,6V0.5H890.5V6"></path><g class="tick" opacity="1" transform="translate(58.004798080767685,0)"><line stroke="#000" y2="6" x1="0.5" x2="0.5"></line><text fill="#000" y="9" x="0.5" dy="0.71em">Aug  8</text></g><g class="tick" opacity="1" transform="translate(120.27988804478207,0)"><line stroke="#000" y2="6" x1="0.5" x2="0.5"></line><text fill="#000" y="9" x="0.5" dy="0.71em">Aug 15</text></g><g class="tick" opacity="1" transform="translate(182.55497800879647,0)"><line stroke="#000" y2="6" x1="0.5" x2="0.5"></line><text fill="#000" y="9" x="0.5" dy="0.71em">Aug 22</text></g><g class="tick" opacity="1" transform="translate(244.83006797281087,0)"><line stroke="#000" y2="6" x1="0.5" x2="0.5"></line><text fill="#000" y="9" x="0.5" dy="0.71em">Aug 29</text></g><g class="tick" opacity="1" transform="translate(307.10515793682526,0)"><line stroke="#000" y2="6" x1="0.5" x2="0.5"></line><text fill="#000" y="9" x="0.5" dy="0.71em">Sep  5</text></g><g class="tick" opacity="1" transform="translate(369.38024790083966,0)"><line stroke="#000" y2="6" x1="0.5" x2="0.5"></line><text fill="#000" y="9" x="0.5" dy="0.71em">Sep 12</text></g><g class="tick" opacity="1" transform="translate(431.65533786485406,0)"><line stroke="#000" y2="6" x1="0.5" x2="0.5"></line><text fill="#000" y="9" x="0.5" dy="0.71em">Sep 19</text></g><g class="tick" opacity="1" transform="translate(493.93042782886846,0)"><line stroke="#000" y2="6" x1="0.5" x2="0.5"></line><text fill="#000" y="9" x="0.5" dy="0.71em">Sep 26</text></g><g class="tick" opacity="1" transform="translate(556.2055177928828,0)"><line stroke="#000" y2="6" x1="0.5" x2="0.5"></line><text fill="#000" y="9" x="0.5" dy="0.71em">Oct  3</text></g><g class="tick" opacity="1" transform="translate(618.4806077568971,0)"><line stroke="#000" y2="6" x1="0.5" x2="0.5"></line><text fill="#000" y="9" x="0.5" dy="0.71em">Oct 10</text></g><g class="tick" opacity="1" transform="translate(680.7556977209116,0)"><line stroke="#000" y2="6" x1="0.5" x2="0.5"></line><text fill="#000" y="9" x="0.5" dy="0.71em">Oct 17</text></g><g class="tick" opacity="1" transform="translate(743.0307876849259,0)"><line stroke="#000" y2="6" x1="0.5" x2="0.5"></line><text fill="#000" y="9" x="0.5" dy="0.71em">Oct 24</text></g><g class="tick" opacity="1" transform="translate(805.3058776489403,0)"><line stroke="#000" y2="6" x1="0.5" x2="0.5"></line><text fill="#000" y="9" x="0.5" dy="0.71em">Oct 31</text></g><g class="tick" opacity="1" transform="translate(867.5809676129546,0)"><line stroke="#000" y2="6" x1="0.5" x2="0.5"></line><text fill="#000" y="9" x="0.5" dy="0.71em">Nov  7</text></g></g><g class="y axis" fill="none" font-size="10" font-family="sans-serif" text-anchor="end"><path class="domain" stroke="#000" d="M-6,200.5H0.5V0.5H-6"></path><g class="tick" opacity="1" transform="translate(0,196.27101663483376)"><line stroke="#000" x2="-6" y1="0.5" y2="0.5"></line><text fill="#000" x="-9" y="0.5" dy="0.32em">17,000</text></g><g class="tick" opacity="1" transform="translate(0,172.83692043730647)"><line stroke="#000" x2="-6" y1="0.5" y2="0.5"></line><text fill="#000" x="-9" y="0.5" dy="0.32em">18,000</text></g><g class="tick" opacity="1" transform="translate(0,149.40282423977916)"><line stroke="#000" x2="-6" y1="0.5" y2="0.5"></line><text fill="#000" x="-9" y="0.5" dy="0.32em">19,000</text></g><g class="tick" opacity="1" transform="translate(0,125.96872804225185)"><line stroke="#000" x2="-6" y1="0.5" y2="0.5"></line><text fill="#000" x="-9" y="0.5" dy="0.32em">20,000</text></g><g class="tick" opacity="1" transform="translate(0,102.53463184472456)"><line stroke="#000" x2="-6" y1="0.5" y2="0.5"></line><text fill="#000" x="-9" y="0.5" dy="0.32em">21,000</text></g><g class="tick" opacity="1" transform="translate(0,79.10053564719726)"><line stroke="#000" x2="-6" y1="0.5" y2="0.5"></line><text fill="#000" x="-9" y="0.5" dy="0.32em">22,000</text></g><g class="tick" opacity="1" transform="translate(0,55.66643944966992)"><line stroke="#000" x2="-6" y1="0.5" y2="0.5"></line><text fill="#000" x="-9" y="0.5" dy="0.32em">23,000</text></g><g class="tick" opacity="1" transform="translate(0,32.23234325214264)"><line stroke="#000" x2="-6" y1="0.5" y2="0.5"></line><text fill="#000" x="-9" y="0.5" dy="0.32em">24,000</text></g><g class="tick" opacity="1" transform="translate(0,8.79824705461533)"><line stroke="#000" x2="-6" y1="0.5" y2="0.5"></line><text fill="#000" x="-9" y="0.5" dy="0.32em">25,000</text></g><text transform="rotate(-90)" y="6" dy=".71em" style="text-anchor: end;">Price ($)</text></g></g></svg>