<?xml version="1.0" encoding="utf-8"?>
<!DOCTYPE svg PUBLIC "-//W3C//DTD SVG 1.1//EN" "http://www.w3.org/Graphics/SVG/1.1/DTD/svg11.dtd">
<svg version="1.1" xmlns="http://www.w3.org/2000/svg" width="960" height="250"><g transform="translate(50,20)"><style>.axis path,.axis line{fill:none;stroke:#000;shape-rendering:crispEdges;}path.candle{stroke:#000000;}path.candle.body{stroke-width:0;}path.candle.up{fill:#00AA00;stroke:#00AA00;}path.candle.down{fill:#FF0000;stroke:#FF0000;}</style><g class="candlestick"><g class="data"><path class="candle body up" d="M 9.964014394242305 136.68678864254966 l 7.1171531387445 0 L 17.081167532986804 129.14594475671714 l -7.1171531387445 0 L 9.964014394242305 136.68678864254966 M 18.860455817672932 129.14594475671714 l 7.1171531387445 0 L 25.977608956417434 126.21169756477462 l -7.1171531387445 0 L 18.860455817672932 129.14594475671714 M 36.65333866453418 149.38540736975054 l 7.1171531387445 0 L 43.77049180327868 144.0341982521686 l -7.1171531387445 0 L 36.65333866453418 149.38540736975054 M 45.54978008796481 144.0294300521553 l 7.1171531387445 0 L 52.66693322670931 89.10144121293935 l -7.1171531387445 0 L 45.54978008796481 144.0294300521553 M 63.342662934826066 91.57123994953646 l 7.1171531387445 0 L 70.45981607357056 78.70650744349523 l -7.1171531387445 0 L 63.342662934826066 91.57123994953646 M 72.23910435825668 78.70650744349523 l 7.1171531387445 0 L 79.35625749700118 59.90278851553509 l -7.1171531387445 0 L 72.23910435825668 78.70650744349523 M 81.13554578168731 59.90278851553509 l 7.1171531387445 0 L 88.25269892043181 57.28672202177455 l -7.1171531387445 0 L 81.13554578168731 59.90278851553509 M 90.03198720511796 57.286593151503894 l 7.1171531387445 0 L 97.14914034386246 53.037482588337696 l -7.1171531387445 0 L 90.03198720511796 57.286593151503894 M 134.51419432227107 82.92340043900428 l 7.1171531387445 0 L 141.63134746101557 76.70811615685756 l -7.1171531387445 0 L 134.51419432227107 82.92340043900428 M 143.4106357457017 76.70811615685756 l 7.1171531387445 0 L 150.5277888844462 50.81910974973701 l -7.1171531387445 0 L 143.4106357457017 76.70811615685756 M 178.9964014394242 109.7181071081027 l 7.1171531387445 0 L 186.1135545781687 108.36857763408 l -7.1171531387445 0 L 178.9964014394242 109.7181071081027 M 205.68572570971608 147.94476661439342 l 7.1171531387445 0 L 212.80287884846058 132.1946287489779 l -7.1171531387445 0 L 205.68572570971608 147.94476661439342 M 223.47860855657734 144.8279102489702 l 7.1171531387445 0 L 230.59576169532184 130.94613356712807 l -7.1171531387445 0 L 223.47860855657734 144.8279102489702 M 232.37504998000796 130.92718963734563 l 7.1171531387445 0 L 239.49220311875246 119.45142090813954 l -7.1171531387445 0 L 232.37504998000796 130.92718963734563 M 259.06437425029986 139.04086187612225 l 7.1171531387445 0 L 266.1815273890444 68.66583804800922 l -7.1171531387445 0 L 259.06437425029986 139.04086187612225 M 267.9608156737305 68.66583804800922 l 7.1171531387445 0 L 275.07796881247504 52.4127195163303 l -7.1171531387445 0 L 267.9608156737305 68.66583804800922 M 303.54658136745303 120.36021405661238 l 7.1171531387445 0 L 310.66373450619756 117.1473493395708 l -7.1171531387445 0 L 303.54658136745303 120.36021405661238 M 330.23590563774496 135.31741314685013 l 7.1171531387445 0 L 337.3530587764895 125.74724910942913 l -7.1171531387445 0 L 330.23590563774496 135.31741314685013 M 339.13234706117555 125.74724910942913 l 7.1171531387445 0 L 346.2495001999201 84.36597424842086 l -7.1171531387445 0 L 339.13234706117555 125.74724910942913 M 365.8216713314674 125.76090935811575 l 7.1171531387445 0 L 372.93882447021196 124.75842752289586 l -7.1171531387445 0 L 365.8216713314674 125.76090935811575 M 383.61455417832866 138.03219426791225 l 7.1171531387445 0 L 390.7317073170732 113.62390727031422 l -7.1171531387445 0 L 383.61455417832866 138.03219426791225 M 401.40743702518995 118.66325033297498 l 7.1171531387445 0 L 408.5245901639345 95.03269541862063 l -7.1171531387445 0 L 401.40743702518995 118.66325033297498 M 419.20031987205124 97.55997029591809 l 7.1171531387445 0 L 426.31747301079577 86.7397646333996 l -7.1171531387445 0 L 419.20031987205124 97.55997029591809 M 428.0967612954818 86.7397646333996 l 7.1171531387445 0 L 435.21391443422635 81.02282168777376 l -7.1171531387445 0 L 428.0967612954818 86.7397646333996 M 454.7860855657737 96.47269182262457 l 7.1171531387445 0 L 461.90323870451823 78.92223627652757 l -7.1171531387445 0 L 454.7860855657737 96.47269182262457 M 463.68252698920435 78.92223627652757 l 7.1171531387445 0 L 470.7996801279489 72.23863743091647 l -7.1171531387445 0 L 463.68252698920435 78.92223627652757 M 472.57896841263494 72.23863743091647 l 7.1171531387445 0 L 479.69612155137946 57.950790526323715 l -7.1171531387445 0 L 472.57896841263494 72.23863743091647 M 481.47540983606564 57.950790526323715 l 7.1171531387445 0 L 488.59256297481016 53.805033920201595 l -7.1171531387445 0 L 481.47540983606564 57.950790526323715 M 490.3718512594962 53.805033920201595 l 7.1171531387445 0 L 497.48900439824075 51.2519849887785 l -7.1171531387445 0 L 490.3718512594962 53.805033920201595 M 499.2682926829268 51.2519849887785 l 7.1171531387445 0 L 506.38544582167134 21.39931566793402 l -7.1171531387445 0 L 499.2682926829268 51.2519849887785 M 508.16473410635746 21.39931566793402 l 7.1171531387445 0 L 515.281887245102 17.60473054927496 l -7.1171531387445 0 L 508.16473410635746 21.39931566793402 M 517.0611755297881 17.60473054927496 l 7.1171531387445 0 L 524.1783286685326 13.57637475969554 l -7.1171531387445 0 L 517.0611755297881 17.60473054927496 M 543.75049980008 38.37681399081637 l 7.1171531387445 0 L 550.8676529388244 28.41333788743688 l -7.1171531387445 0 L 543.75049980008 38.37681399081637 M 561.5433826469413 34.50245817463818 l 7.1171531387445 0 L 568.6605357856857 26.817150715431012 l -7.1171531387445 0 L 561.5433826469413 34.50245817463818 M 570.4398240703717 26.817021845160383 l 7.1171531387445 0 L 577.5569772091162 24.585633109226137 l -7.1171531387445 0 L 570.4398240703717 26.817021845160383 M 597.1291483406637 68.53091087466106 l 7.1171531387445 0 L 604.2463014794082 65.003473827015 l -7.1171531387445 0 L 597.1291483406637 68.53091087466106 M 614.9220311875249 80.36700088054481 l 7.1171531387445 0 L 622.0391843262694 73.8983576463422 l -7.1171531387445 0 L 614.9220311875249 80.36700088054481 M 641.6113554578168 115.4399471240125 l 7.1171531387445 0 L 648.7285085965613 108.42308975855585 l -7.1171531387445 0 L 641.6113554578168 115.4399471240125 M 650.5077968812475 108.42296088828527 l 7.1171531387445 0 L 657.624950019992 94.59724277416659 l -7.1171531387445 0 L 650.5077968812475 108.42296088828527 M 668.3006797281087 110.13152293627918 l 7.1171531387445 0 L 675.4178328668531 102.27649333065418 l -7.1171531387445 0 L 668.3006797281087 110.13152293627918 M 694.9900039984005 113.53704870791057 l 7.1171531387445 0 L 702.107157137145 99.06465957577765 l -7.1171531387445 0 L 694.9900039984005 113.53704870791057 M 703.8864454218311 99.06465957577765 l 7.1171531387445 0 L 711.0035985605756 90.1461924969254 l -7.1171531387445 0 L 703.8864454218311 99.06465957577765 M 748.3686525389844 116.58483060827695 l 7.1171531387445 0 L 755.4858056777289 116.47503313770142 l -7.1171531387445 0 L 748.3686525389844 116.58483060827695 M 757.265093962415 116.47516200797197 l 7.1171531387445 0 L 764.3822471011595 103.89793907570322 l -7.1171531387445 0 L 757.265093962415 116.47516200797197 M 775.0579768092763 133.71130296400594 l 7.1171531387445 0 L 782.1751299480208 119.23814061024916 l -7.1171531387445 0 L 775.0579768092763 133.71130296400594 M 783.9544182327068 119.23814061024916 l 7.1171531387445 0 L 791.0715713714512 112.71279445697006 l -7.1171531387445 0 L 783.9544182327068 119.23814061024916 M 810.6437425029987 139.92078808397432 l 7.1171531387445 0 L 817.7608956417432 129.12725856747602 l -7.1171531387445 0 L 810.6437425029987 139.92078808397432 M 819.5401839264293 129.12725856747602 l 7.1171531387445 0 L 826.6573370651738 128.3951465600349 l -7.1171531387445 0 L 819.5401839264293 129.12725856747602 M 837.3330667732906 138.65592637775467 l 7.1171531387445 0 L 844.4502199120351 113.38382195613318 l -7.1171531387445 0 L 837.3330667732906 138.65592637775467"></path><path class="candle body down" d="M 1.0675729708116766 133.0129549674695 l 7.1171531387445 0 L 8.184726109556177 136.686659772279 l -7.1171531387445 0 L 1.0675729708116766 133.0129549674695 M 27.75689724110356 126.21169756477462 l 7.1171531387445 0 L 34.87405037984806 149.3855362400212 l -7.1171531387445 0 L 27.75689724110356 126.21169756477462 M 54.446221511395436 89.13430313194968 l 7.1171531387445 0 L 61.563374650139934 91.57136881980712 l -7.1171531387445 0 L 54.446221511395436 89.13430313194968 M 98.92842862854857 53.03761145860835 l 7.1171531387445 0 L 106.04558176729307 64.34301369004345 l -7.1171531387445 0 L 98.92842862854857 53.03761145860835 M 107.82487005197919 64.34301369004345 l 7.1171531387445 0 L 114.94202319072369 78.79852081672405 l -7.1171531387445 0 L 107.82487005197919 64.34301369004345 M 116.72131147540982 78.79852081672405 l 7.1171531387445 0 L 123.83846461415432 80.80709285474141 l -7.1171531387445 0 L 116.72131147540982 78.79852081672405 M 125.61775289884046 80.80709285474141 l 7.1171531387445 0 L 132.73490603758498 82.92327156873363 l -7.1171531387445 0 L 125.61775289884046 80.80709285474141 M 152.30707716913233 50.81923862000767 l 7.1171531387445 0 L 159.42423030787683 59.470171017034914 l -7.1171531387445 0 L 152.30707716913233 50.81923862000767 M 161.20351859256294 59.470171017034914 l 7.1171531387445 0 L 168.32067173130744 102.74300371032976 l -7.1171531387445 0 L 161.20351859256294 59.470171017034914 M 170.09996001599356 102.7428748400591 l 7.1171531387445 0 L 177.21711315473806 109.71823597837327 l -7.1171531387445 0 L 170.09996001599356 102.7428748400591 M 187.89284286285485 108.36857763408 l 7.1171531387445 0 L 195.00999600159935 130.17703579201657 l -7.1171531387445 0 L 187.89284286285485 108.36857763408 M 196.78928428628546 130.17703579201657 l 7.1171531387445 0 L 203.90643742502996 147.94476661439342 l -7.1171531387445 0 L 196.78928428628546 130.17703579201657 M 214.5821671331467 132.1946287489779 l 7.1171531387445 0 L 221.6993202718912 144.82803911924074 l -7.1171531387445 0 L 214.5821671331467 132.1946287489779 M 241.2714914034386 119.4515497784101 l 7.1171531387445 0 L 248.3886445421831 120.7716968307295 l -7.1171531387445 0 L 241.2714914034386 119.4515497784101 M 250.16793282686922 120.77156796045885 l 7.1171531387445 0 L 257.28508596561375 139.0409907463929 l -7.1171531387445 0 L 250.16793282686922 120.77156796045885 M 276.85725709716115 52.4127195163303 l 7.1171531387445 0 L 283.9744102359057 59.21990495147409 l -7.1171531387445 0 L 276.85725709716115 52.4127195163303 M 285.7536985205918 59.21977608120352 l 7.1171531387445 0 L 292.8708516593363 77.76407915438833 l -7.1171531387445 0 L 285.7536985205918 59.21977608120352 M 294.65013994402244 77.76407915438833 l 7.1171531387445 0 L 301.76729308276697 120.36008518634172 l -7.1171531387445 0 L 294.65013994402244 77.76407915438833 M 312.4430227908837 117.14722046930014 l 7.1171531387445 0 L 319.5601759296282 129.7399078340444 l -7.1171531387445 0 L 312.4430227908837 117.14722046930014 M 321.3394642143143 129.74003670431495 l 7.1171531387445 0 L 328.45661735305885 135.3175420171208 l -7.1171531387445 0 L 321.3394642143143 129.74003670431495 M 348.02878848460614 84.3661031186915 l 7.1171531387445 0 L 355.14594162335067 116.83754520897963 l -7.1171531387445 0 L 348.02878848460614 84.3661031186915 M 356.9252299080368 116.83741633870898 l 7.1171531387445 0 L 364.0423830467813 125.76090935811575 l -7.1171531387445 0 L 356.9252299080368 116.83741633870898 M 374.7181127548981 124.75855639316651 l 7.1171531387445 0 L 381.8352658936426 138.0323231381829 l -7.1171531387445 0 L 374.7181127548981 124.75855639316651 M 392.5109956017593 113.62390727031422 l 7.1171531387445 0 L 399.62814874050383 118.66325033297498 l -7.1171531387445 0 L 392.5109956017593 113.62390727031422 M 410.3038784486206 95.03256654834998 l 7.1171531387445 0 L 417.4210315873651 97.55984142564745 l -7.1171531387445 0 L 410.3038784486206 95.03256654834998 M 436.99320271891247 81.02282168777376 l 7.1171531387445 0 L 444.110355857657 93.12399784034045 l -7.1171531387445 0 L 436.99320271891247 81.02282168777376 M 445.8896441423431 93.12399784034045 l 7.1171531387445 0 L 453.00679728108764 96.47282069289523 l -7.1171531387445 0 L 445.8896441423431 93.12399784034045 M 525.9576169532187 13.576503629966197 l 7.1171531387445 0 L 533.0747700919632 18.303465156623247 l -7.1171531387445 0 L 525.9576169532187 13.576503629966197 M 534.8540583766493 18.303465156623247 l 7.1171531387445 0 L 541.9712115153937 38.37694286108703 l -7.1171531387445 0 L 534.8540583766493 18.303465156623247 M 552.6469412235106 28.41333788743688 l 7.1171531387445 0 L 559.764094362255 34.50232930436752 l -7.1171531387445 0 L 552.6469412235106 28.41333788743688 M 579.3362654938024 24.585761979496795 l 7.1171531387445 0 L 586.4534186325469 38.541767937220925 l -7.1171531387445 0 L 579.3362654938024 24.585761979496795 M 588.232706917233 38.54189680749158 l 7.1171531387445 0 L 595.3498600559775 68.53091087466106 l -7.1171531387445 0 L 588.232706917233 38.54189680749158 M 606.0255897640943 65.00334495674446 l 7.1171531387445 0 L 613.1427429028388 80.36712975081537 l -7.1171531387445 0 L 606.0255897640943 65.00334495674446 M 623.8184726109555 73.89848651661286 l 7.1171531387445 0 L 630.9356257497 81.56768519199144 l -7.1171531387445 0 L 623.8184726109555 73.89848651661286 M 632.7149140343862 81.56768519199144 l 7.1171531387445 0 L 639.8320671731307 115.4399471240125 l -7.1171531387445 0 L 632.7149140343862 81.56768519199144 M 659.4042383046781 94.59737164443725 l 7.1171531387445 0 L 666.5213914434225 110.13139406600861 l -7.1171531387445 0 L 659.4042383046781 94.59737164443725 M 677.1971211515394 102.27649333065418 l 7.1171531387445 0 L 684.3142742902838 104.50839754767091 l -7.1171531387445 0 L 677.1971211515394 102.27649333065418 M 686.09356257497 104.50852641794157 l 7.1171531387445 0 L 693.2107157137144 113.53691983763991 l -7.1171531387445 0 L 686.09356257497 104.50852641794157 M 712.7828868452618 90.14606362665474 l 7.1171531387445 0 L 719.9000399840063 91.88581228014084 l -7.1171531387445 0 L 712.7828868452618 90.14606362665474 M 721.6793282686924 91.88581228014084 l 7.1171531387445 0 L 728.7964814074369 103.20294170620318 l -7.1171531387445 0 L 721.6793282686924 91.88581228014084 M 730.5757696921231 103.20294170620318 l 7.1171531387445 0 L 737.6929228308676 113.13664877706752 l -7.1171531387445 0 L 730.5757696921231 103.20294170620318 M 739.4722111155537 113.13651990679686 l 7.1171531387445 0 L 746.5893642542982 116.5849594785476 l -7.1171531387445 0 L 739.4722111155537 113.13651990679686 M 766.1615353858456 103.89793907570322 l 7.1171531387445 0 L 773.27868852459 133.71117409373528 l -7.1171531387445 0 L 766.1615353858456 103.89793907570322 M 792.8508596561375 112.71292332724072 l 7.1171531387445 0 L 799.9680127948819 127.48081198992502 l -7.1171531387445 0 L 792.8508596561375 112.71292332724072 M 801.747301079568 127.48081198992502 l 7.1171531387445 0 L 808.8644542183125 139.92078808397432 l -7.1171531387445 0 L 801.747301079568 127.48081198992502 M 828.43662534986 128.3951465600349 l 7.1171531387445 0 L 835.5537784886045 138.65592637775467 l -7.1171531387445 0 L 828.43662534986 128.3951465600349 M 846.2295081967213 113.38382195613318 l 7.1171531387445 0 L 853.3466613354658 153.81081246313664 l -7.1171531387445 0 L 846.2295081967213 113.38382195613318 M 855.1259496201519 153.81081246313664 l 7.1171531387445 0 L 862.2431027588964 160.7594974554308 l -7.1171531387445 0 L 855.1259496201519 153.81081246313664 M 864.0223910435824 160.7594974554308 l 7.1171531387445 0 L 871.1395441823269 167.73627616672186 l -7.1171531387445 0 L 864.0223910435824 160.7594974554308 M 872.9188324670131 167.7361472964512 l 7.1171531387445 0 L 880.0359856057576 186.21614410459236 l -7.1171531387445 0 L 872.9188324670131 167.7361472964512 M 881.8152738904437 186.216272974863 l 7.1171531387445 0 L 888.9324270291881 192.66197730089362 l -7.1171531387445 0 L 881.8152738904437 186.216272974863"></path><path class="candle body equal"></path><path class="candle wick up" d="M 13.522590963614554 125.57494955759867 L 13.522590963614554 129.14594475671714 M 13.522590963614554 136.68678864254966 L 13.522590963614554 152.7844896278505 M 22.41903238704518 118.85823105243611 L 22.41903238704518 126.21169756477462 M 22.41903238704518 129.14594475671714 L 22.41903238704518 135.16289769236647 M 40.21191523390643 143.0626452818996 L 40.21191523390643 144.0341982521686 M 40.21191523390643 149.38540736975054 L 40.21191523390643 157.71519505237134 M 49.10835665733706 86.54877889232804 L 49.10835665733706 89.10144121293935 M 49.10835665733706 144.0294300521553 L 49.10835665733706 147.7054545218361 M 66.90123950419832 75.16089968769062 L 66.90123950419832 78.70650744349523 M 66.90123950419832 91.57123994953646 L 66.90123950419832 94.99970462933973 M 75.79768092762893 51.39077827024548 L 75.79768092762893 59.90278851553509 M 75.79768092762893 78.70650744349523 L 75.79768092762893 88.1787300752386 M 84.69412235105956 38.61329093741986 L 84.69412235105956 57.28672202177455 M 84.69412235105956 59.90278851553509 L 84.69412235105956 75.03202941706202 M 93.5905637744902 47.54400069198178 L 93.5905637744902 53.037482588337696 M 93.5905637744902 57.286593151503894 L 93.5905637744902 69.20812414681438 M 138.07277089164333 72.7587578431735 L 138.07277089164333 76.70811615685756 M 138.07277089164333 82.92340043900428 L 138.07277089164333 89.40673488405852 M 146.96921231507397 48.15742318017388 L 146.96921231507397 50.81910974973701 M 146.96921231507397 76.70811615685756 L 146.96921231507397 78.11164227427368 M 182.55497800879647 103.66287970207667 L 182.55497800879647 108.36857763408 M 182.55497800879647 109.7181071081027 L 182.55497800879647 114.04067372552717 M 209.24430227908834 129.63436308239955 L 209.24430227908834 132.1946287489779 M 209.24430227908834 147.94476661439342 L 209.24430227908834 156.42649234608535 M 227.0371851259496 111.4121068155156 L 227.0371851259496 130.94613356712807 M 227.0371851259496 144.8279102489702 L 227.0371851259496 182.5577748619877 M 235.93362654938022 113.4672010212299 L 235.93362654938022 119.45142090813954 M 235.93362654938022 130.92718963734563 L 235.93362654938022 134.97771111347313 M 262.6229508196721 54.93032912333064 L 262.6229508196721 68.66583804800922 M 262.6229508196721 139.04086187612225 L 262.6229508196721 142.24857178233876 M 271.51939224310274 45.61094663255278 L 271.51939224310274 52.4127195163303 M 271.51939224310274 68.66583804800922 L 271.51939224310274 73.1765552605514 M 307.10515793682526 114.37303015347833 L 307.10515793682526 117.1473493395708 M 307.10515793682526 120.36021405661238 L 307.10515793682526 129.91027433181543 M 333.7944822071172 117.60973587058618 L 333.7944822071172 125.74724910942913 M 333.7944822071172 135.31741314685013 L 333.7944822071172 136.86849572413595 M 342.6909236305478 75.95912214396418 L 342.6909236305478 84.36597424842086 M 342.6909236305478 125.74724910942913 L 342.6909236305478 126.7032087769521 M 369.38024790083966 116.00362568774199 L 369.38024790083966 124.75842752289586 M 369.38024790083966 125.76090935811575 L 369.38024790083966 126.65075857680625 M 387.1731307477009 110.0703095577306 L 387.1731307477009 113.62390727031422 M 387.1731307477009 138.03219426791225 L 387.1731307477009 140.89762473533915 M 404.9660135945622 87.24893107265324 L 404.9660135945622 95.03269541862063 M 404.9660135945622 118.66325033297498 L 404.9660135945622 124.48625351132821 M 422.7588964414235 79.42624790495603 L 422.7588964414235 86.7397646333996 M 422.7588964414235 97.55997029591809 L 422.7588964414235 107.64857943207798 M 431.65533786485406 78.45997861578276 L 431.65533786485406 81.02282168777376 M 431.65533786485406 86.7397646333996 L 431.65533786485406 90.0674527615713 M 458.34466213514594 66.07554560837437 L 458.34466213514594 78.92223627652757 M 458.34466213514594 96.47269182262457 L 458.34466213514594 98.10612250284207 M 467.2411035585766 70.39321515551495 L 467.2411035585766 72.23863743091647 M 467.2411035585766 78.92223627652757 L 467.2411035585766 86.81760227685929 M 476.13754498200717 54.99411990729175 L 476.13754498200717 57.950790526323715 M 476.13754498200717 72.23863743091647 L 476.13754498200717 76.39212625327627 M 485.0339864054379 43.74052352464929 L 485.0339864054379 53.805033920201595 M 485.0339864054379 57.950790526323715 L 485.0339864054379 63.26617370867089 M 493.93042782886846 47.621451724629594 L 493.93042782886846 51.2519849887785 M 493.93042782886846 53.805033920201595 L 493.93042782886846 56.91325597749281 M 502.82686925229905 19.192541153689945 L 502.82686925229905 21.39931566793402 M 502.82686925229905 51.2519849887785 L 502.82686925229905 52.409368889293916 M 511.7233106757297 3.846153846153868 L 511.7233106757297 17.60473054927496 M 511.7233106757297 21.39931566793402 L 511.7233106757297 23.515365511655688 M 520.6197520991603 5.049415563013014 L 520.6197520991603 13.57637475969554 M 520.6197520991603 17.60473054927496 L 520.6197520991603 19.81305150676664 M 547.3090763694522 22.78686187179224 L 547.3090763694522 28.41333788743688 M 547.3090763694522 38.37681399081637 L 547.3090763694522 55.263329902634865 M 565.1019592163135 13.456396537740346 L 565.1019592163135 26.817150715431012 M 565.1019592163135 34.50245817463818 L 565.1019592163135 38.111727844133384 M 573.998400639744 20.588077314327023 L 573.998400639744 24.585633109226137 M 573.998400639744 26.817021845160383 L 573.998400639744 43.43303905892947 M 600.687724910036 59.11667986470067 L 600.687724910036 65.003473827015 M 600.687724910036 68.53091087466106 L 600.687724910036 74.24141030675557 M 618.4806077568971 73.30516779063878 L 618.4806077568971 73.8983576463422 M 618.4806077568971 80.36700088054481 L 618.4806077568971 81.99772528507903 M 645.169932027189 100.3808116497075 L 645.169932027189 108.42308975855585 M 645.169932027189 115.4399471240125 L 645.169932027189 118.99444692849053 M 654.0663734506197 89.26819934313279 L 654.0663734506197 94.59724277416659 M 654.0663734506197 108.42296088828527 L 654.0663734506197 114.69133972193093 M 671.8592562974809 98.1724906922158 L 671.8592562974809 102.27649333065418 M 671.8592562974809 110.13152293627918 L 671.8592562974809 112.39925308853066 M 698.5485805677728 94.99751383473898 L 698.5485805677728 99.06465957577765 M 698.5485805677728 113.53704870791057 L 698.5485805677728 128.24887880287145 M 707.4450219912034 86.70767593601312 L 707.4450219912034 90.1461924969254 M 707.4450219912034 99.06465957577765 L 707.4450219912034 102.03035111375357 M 751.9272291083566 110.16206519041819 L 751.9272291083566 116.47503313770142 M 751.9272291083566 116.58483060827695 L 751.9272291083566 123.18285959419057 M 760.8236705317872 101.45043489592489 L 760.8236705317872 103.89793907570322 M 760.8236705317872 116.47516200797197 L 760.8236705317872 132.58549227979447 M 778.6165533786485 116.15814114222565 L 778.6165533786485 119.23814061024916 M 778.6165533786485 133.71130296400594 L 778.6165533786485 136.69245893445733 M 787.512994802079 104.58675067221314 L 787.512994802079 112.71279445697006 M 787.512994802079 119.23814061024916 L 787.512994802079 123.80388542834983 M 814.202319072371 126.464154424936 L 814.202319072371 129.12725856747602 M 814.202319072371 139.92078808397432 L 814.202319072371 143.0706352386786 M 823.0987604958016 120.11935552080759 L 823.0987604958016 128.3951465600349 M 823.0987604958016 129.12725856747602 L 823.0987604958016 134.49277228509774 M 840.8916433426629 109.08251893336246 L 840.8916433426629 113.38382195613318 M 840.8916433426629 138.65592637775467 L 840.8916433426629 139.41561662311022" style="stroke-width: 1px;"></path><path class="candle wick down" d="M 4.626149540183927 130.5331043497634 L 4.626149540183927 133.0129549674695 M 4.626149540183927 136.686659772279 L 4.626149540183927 143.518459429113 M 31.315473810475808 124.13263348872341 L 31.315473810475808 126.21169756477462 M 31.315473810475808 149.3855362400212 L 31.315473810475808 153.37291128354073 M 58.004798080767685 84.72706874672214 L 58.004798080767685 89.13430313194968 M 58.004798080767685 91.57136881980712 L 58.004798080767685 98.52495088238501 M 102.48700519792082 34.373459033738925 L 102.48700519792082 53.03761145860835 M 102.48700519792082 64.34301369004345 L 102.48700519792082 68.48529079885853 M 111.38344662135144 58.87169748023567 L 111.38344662135144 64.34301369004345 M 111.38344662135144 78.79852081672405 L 111.38344662135144 84.40721273502196 M 120.27988804478207 69.7033725968401 L 120.27988804478207 78.79852081672405 M 120.27988804478207 80.80709285474141 L 120.27988804478207 87.62420130072374 M 129.1763294682127 73.82064887315319 L 129.1763294682127 80.80709285474141 M 129.1763294682127 82.92327156873363 L 129.1763294682127 85.29010295909852 M 155.8656537385046 50.75325704144578 L 155.8656537385046 50.81923862000767 M 155.8656537385046 59.470171017034914 L 155.8656537385046 66.77144506976879 M 164.7620951619352 55.71811308768321 L 164.7620951619352 59.470171017034914 M 164.7620951619352 102.74300371032976 L 164.7620951619352 108.44538431537462 M 173.65853658536582 97.01884402954863 L 173.65853658536582 102.7428748400591 M 173.65853658536582 109.71823597837327 L 173.65853658536582 116.47670845121955 M 191.4514194322271 107.77229489188142 L 191.4514194322271 108.36857763408 M 191.4514194322271 130.17703579201657 L 191.4514194322271 135.16289769236647 M 200.34786085565773 115.90516880098174 L 200.34786085565773 130.17703579201657 M 200.34786085565773 147.94476661439342 L 200.34786085565773 150.6273301677984 M 218.14074370251896 119.05501595568595 L 218.14074370251896 132.1946287489779 M 218.14074370251896 144.82803911924074 L 218.14074370251896 147.57581102958375 M 244.83006797281087 104.89835898659308 L 244.83006797281087 119.4515497784101 M 244.83006797281087 120.7716968307295 L 244.83006797281087 127.7763115204764 M 253.72650939624148 111.24844157181732 L 253.72650939624148 120.77156796045885 M 253.72650939624148 139.0409907463929 L 253.72650939624148 148.04992475522639 M 280.4158336665334 39.798897427202945 L 280.4158336665334 52.4127195163303 M 280.4158336665334 59.21990495147409 L 280.4158336665334 66.42233550663596 M 289.31227508996403 56.53759913861043 L 289.31227508996403 59.21977608120352 M 289.31227508996403 77.76407915438833 L 289.31227508996403 85.77620161990961 M 298.2087165133947 76.81946007068066 L 298.2087165133947 77.76407915438833 M 298.2087165133947 120.36008518634172 L 298.2087165133947 128.0750328077935 M 316.0015993602559 113.33394916139987 L 316.0015993602559 117.14722046930014 M 316.0015993602559 129.7399078340444 L 316.0015993602559 134.02149370540894 M 324.89804078368655 115.21932122069632 L 324.89804078368655 129.74003670431495 M 324.89804078368655 135.3175420171208 L 324.89804078368655 146.0524355604831 M 351.5873650539784 83.10407655842562 L 351.5873650539784 84.3661031186915 M 351.5873650539784 116.83754520897963 L 351.5873650539784 128.207382575729 M 360.483806477409 106.34415455277528 L 360.483806477409 116.83741633870898 M 360.483806477409 125.76090935811575 L 360.483806477409 132.281358441111 M 378.2766893242703 118.28089224001995 L 378.2766893242703 124.75855639316651 M 378.2766893242703 138.0323231381829 L 378.2766893242703 140.59465072909126 M 396.06957217113154 110.8372165382414 L 396.06957217113154 113.62390727031422 M 396.06957217113154 118.66325033297498 L 396.06957217113154 133.89571632127542 M 413.86245501799283 90.33125020554806 L 413.86245501799283 95.03256654834998 M 413.86245501799283 97.55984142564745 L 413.86245501799283 102.94533003521663 M 440.5517792882847 79.79687880328382 L 440.5517792882847 81.02282168777376 M 440.5517792882847 93.12399784034045 L 440.5517792882847 97.64876191238119 M 449.44822071171535 89.48843863563702 L 449.44822071171535 93.12399784034045 M 449.44822071171535 96.47282069289523 L 449.44822071171535 103.3584881228519 M 529.5161935225909 10.155900036671255 L 529.5161935225909 13.576503629966197 M 529.5161935225909 18.303465156623247 L 529.5161935225909 26.326541595147944 M 538.4126349460215 11.44743788891111 L 538.4126349460215 18.303465156623247 M 538.4126349460215 38.37694286108703 L 538.4126349460215 42.37630283977495 M 556.2055177928828 16.434717362237905 L 556.2055177928828 28.41333788743688 M 556.2055177928828 34.50232930436752 L 556.2055177928828 36.963751473373776 M 582.8948420631747 16.602248714055094 L 582.8948420631747 24.585761979496795 M 582.8948420631747 38.541767937220925 L 582.8948420631747 40.394149207236495 M 591.7912834866053 38.41818134768815 L 591.7912834866053 38.54189680749158 M 591.7912834866053 68.53091087466106 L 591.7912834866053 69.16843210346076 M 609.5841663334666 58.21935617031366 L 609.5841663334666 65.00334495674446 M 609.5841663334666 80.36712975081537 L 609.5841663334666 82.23407336141193 M 627.3770491803277 65.44021517417534 L 627.3770491803277 73.89848651661286 M 627.3770491803277 81.56768519199144 L 627.3770491803277 85.31587701322425 M 636.2734906037584 78.27041044768809 L 636.2734906037584 81.56768519199144 M 636.2734906037584 115.4399471240125 L 636.2734906037584 119.69846521693454 M 662.9628148740503 90.05830297235669 L 662.9628148740503 94.59737164443725 M 662.9628148740503 110.13139406600861 L 662.9628148740503 115.16300491243159 M 680.7556977209116 100.24743091960691 L 680.7556977209116 102.27649333065418 M 680.7556977209116 104.50839754767091 L 680.7556977209116 109.49773894532773 M 689.6521391443422 101.71242815611285 L 689.6521391443422 104.50852641794157 M 689.6521391443422 113.53691983763991 L 689.6521391443422 115.23736305858434 M 716.3414634146341 81.0502710554176 L 716.3414634146341 90.14606362665474 M 716.3414634146341 91.88581228014084 L 716.3414634146341 98.82148137510146 M 725.2379048380647 71.03705102757542 L 725.2379048380647 91.88581228014084 M 725.2379048380647 103.20294170620318 L 725.2379048380647 112.59771330529873 M 734.1343462614954 99.14288383004921 L 734.1343462614954 103.20294170620318 M 734.1343462614954 113.13664877706752 L 734.1343462614954 119.99486683938032 M 743.0307876849259 109.64658410790379 L 743.0307876849259 113.13651990679686 M 743.0307876849259 116.5849594785476 L 743.0307876849259 118.60306791659144 M 769.7201119552178 99.11388801915777 L 769.7201119552178 103.89793907570322 M 769.7201119552178 133.71117409373528 L 769.7201119552178 138.99988113006236 M 796.4094362255097 110.35214883959537 L 796.4094362255097 112.71292332724072 M 796.4094362255097 127.48081198992502 L 796.4094362255097 132.90766795636597 M 805.3058776489403 124.91281410710896 L 805.3058776489403 127.48081198992502 M 805.3058776489403 139.92078808397432 L 805.3058776489403 140.5986457074808 M 831.9952019192323 126.76687069064256 L 831.9952019192323 128.3951465600349 M 831.9952019192323 138.65592637775467 L 831.9952019192323 141.37702214207746 M 849.7880847660936 111.3797603775878 L 849.7880847660936 113.38382195613318 M 849.7880847660936 153.81081246313664 L 849.7880847660936 166.45388810369664 M 858.6845261895241 152.23008972360628 L 858.6845261895241 153.81081246313664 M 858.6845261895241 160.7594974554308 L 858.6845261895241 170.49912589872838 M 867.5809676129546 159.05157975878987 L 867.5809676129546 160.7594974554308 M 867.5809676129546 167.73627616672186 L 867.5809676129546 176.59468969946113 M 876.4774090363853 167.1972118246824 L 876.4774090363853 167.7361472964512 M 876.4774090363853 186.21614410459236 L 876.4774090363853 190.39734003513732 M 885.3738504598159 183.57752531347177 L 885.3738504598159 186.216272974863 M 885.3738504598159 192.66197730089362 L 885.3738504598159 196.15384615384616" style="stroke-width: 1px;"></path><path class="candle wick equal" style="stroke-width: 1px;"></path></g></g><g class="x axis" transform="translate(0,200)" fill="none" font-size="10" font-family="sans-serif" text-anchor="middle"><path class="domain" stroke="#000" d="M0.5,6V0.5H890.5V6"></path><g class="tick" opacity="1" transform="translate(13.522590963614554,0)"><line stroke="#000" y2="6" x1="0.5" x2="0.5"></line><text fill="#000" y="9" x="0.5" dy="0.71em">Jan 31</text></g><g class="tick" opacity="1" transform="translate(75.79768092762893,0)"><line stroke="#000" y2="6" x1="0.5" x2="0.5"></line><text fill="#000" y="9" x="0.5" dy="0.71em">Feb  7</text></g><g class="tick" opacity="1" transform="translate(138.07277089164333,0)"><line stroke="#000" y2="6" x1="0.5" x2="0.5"></line><text fill="#000" y="9" x="0.5" dy="0.71em">Feb 14</text></g><g class="tick" opacity="1" transform="translate(200.34786085565773,0)"><line stroke="#000" y2="6" x1="0.5" x2="0.5"></line><text fill="#000" y="9" x="0.5" dy="0.71em">Feb 21</text></g><g class="tick" opacity="1" transform="translate(262.6229508196721,0)"><line stroke="#000" y2="6" x1="0.5" x2="0.5"></line><text fill="#000" y="9" x="0.5" dy="0.71em">Feb 28</text></g><g class="tick" opacity="1" transform="translate(324.89804078368655,0)"><line stroke="#000" y2="6" x1="0.5" x2="0.5"></line><text fill="#000" y="9" x="0.5" dy="0.71em">Mar  7</text></g><g class="tick" opacity="1" transform="translate(387.1731307477009,0)"><line stroke="#000" y2="6" x1="0.5" x2="0.5"></line><text fill="#000" y="9" x="0.5" dy="0.71em">Mar 14</text></g><g class="tick" opacity="1" transform="translate(449.44822071171535,0)"><line stroke="#000" y2="6" x1="0.5" x2="0.5"></line><text fill="#000" y="9" x="0.5" dy="0.71em">Mar 21</text></g><g class="tick" opacity="1" transform="translate(511.7233106757297,0)"><line stroke="#000" y2="6" x1="0.5" x2="0.5"></line><text fill="#000" y="9" x="0.5" dy="0.71em">Mar 28</text></g><g class="tick" opacity="1" transform="translate(573.998400639744,0)"><line stroke="#000" y2="6" x1="0.5" x2="0.5"></line><text fill="#000" y="9" x="0.5" dy="0.71em">Apr  4</text></g><g class="tick" opacity="1" transform="translate(636.2734906037584,0)"><line stroke="#000" y2="6" x1="0.5" x2="0.5"></line><text fill="#000" y="9" x="0.5" dy="0.71em">Apr 11</text></g><g class="tick" opacity="1" transform="translate(698.5485805677728,0)"><line stroke="#000" y2="6" x1="0.5" x2="0.5"></line><text fill="#000" y="9" x="0.5" dy="0.71em">Apr 18</text></g><g class="tick" opacity="1" transform="translate(760.8236705317872,0)"><line stroke="#000" y2="6" x1="0.5" x2="0.5"></line><text fill="#000" y="9" x="0.5" dy="0.71em">Apr 25</text></g><g class="tick" opacity="1" transform="translate(823.0987604958016,0)"><line stroke="#000" y2="6" x1="0.5" x2="0.5"></line><text fill="#000" y="9" x="0.5" dy="0.71em">May  2</text></g><g class="tick" opacity="1" transform="translate(885.3738504598159,0)"><line stroke="#000" y2="6" x1="0.5" x2="0.5"></line><text fill="#000" y="9" x="0.5" dy="0.71em">May  9</text></g></g><g class="y axis" fill="none" font-size="10" font-family="sans-serif" text-anchor="end"><path class="domain" stroke="#000" d="M-6,200.5H0.5V0.5H-6"></path><g class="tick" opacity="1" transform="translate(0,186.71100594380619)"><line stroke="#000" x2="-6" y1="0.5" y2="0.5"></line><text fill="#000" x="-9" y="0.5" dy="0.32em">34,000</text></g><g class="tick" opacity="1" transform="translate(0,160.93695181808633)"><line stroke="#000" x2="-6" y1="0.5" y2="0.5"></line><text fill="#000" x="-9" y="0.5" dy="0.32em">36,000</text></g><g class="tick" opacity="1" transform="translate(0,135.16289769236647)"><line stroke="#000" x2="-6" y1="0.5" y2="0.5"></line><text fill="#000" x="-9" y="0.5" dy="0.32em">38,000</text></g><g class="tick" opacity="1" transform="translate(0,109.3888435666466)"><line stroke="#000" x2="-6" y1="0.5" y2="0.5"></line><text fill="#000" x="-9" y="0.5" dy="0.32em">40,000</text></g><g class="tick" opacity="1" transform="translate(0,83.61478944092673)"><line stroke="#000" x2="-6" y1="0.5" y2="0.5"></line><text fill="#000" x="-9" y="0.5" dy="0.32em">42,000</text></g><g class="tick" opacity="1" transform="translate(0,57.84073531520687)"><line stroke="#000" x2="-6" y1="0.5" y2="0.5"></line><text fill="#000" x="-9" y="0.5" dy="0.32em">44,000</text></g><g class="tick" opacity="1" transform="translate(0,32.066681189486985)"><line stroke="#000" x2="-6" y1="0.5" y2="0.5"></line><text fill="#000" x="-9" y="0.5" dy="0.32em">46,000</text></g><g class="tick" opacity="1" transform="translate(0,6.292627063767156)"><line stroke="#000" x2="-6" y1="0.5" y2="0.5"></line><text fill="#000" x="-9" y="0.5" dy="0.32em">48,000</text></g><text transform="rotate(-90)" y="6" dy=".71em" style="text-anchor: end;">Price ($)</text></g></g></svg>