<?xml version="1.0" encoding="utf-8"?>
<!DOCTYPE svg PUBLIC "-//W3C//DTD SVG 1.1//EN" "http://www.w3.org/Graphics/SVG/1.1/DTD/svg11.dtd">
<svg version="1.1" xmlns="http://www.w3.org/2000/svg" width="960" height="250"><g transform="translate(50,20)"><style>.axis path,.axis line{fill:none;stroke:#000;shape-rendering:crispEdges;}path.candle{stroke:#000000;}path.candle.body{stroke-width:0;}path.candle.up{fill:#00AA00;stroke:#00AA00;}path.candle.down{fill:#FF0000;stroke:#FF0000;}</style><g class="candlestick"><g class="data"><path class="candle body up" d="M 1.0675729708116766 75.59505175571533 l 7.1171531387445 0 L 8.184726109556177 70.37224696818228 l -7.1171531387445 0 L 1.0675729708116766 75.59505175571533 M 9.964014394242305 70.37224696818228 l 7.1171531387445 0 L 17.081167532986804 47.78890151943094 l -7.1171531387445 0 L 9.964014394242305 70.37224696818228 M 36.65333866453418 70.37970188869988 l 7.1171531387445 0 L 43.77049180327868 69.83260918392193 l -7.1171531387445 0 L 36.65333866453418 70.37970188869988 M 54.446221511395436 77.07661171443141 l 7.1171531387445 0 L 61.563374650139934 63.756075338245154 l -7.1171531387445 0 L 54.446221511395436 77.07661171443141 M 72.23910435825668 66.5062377148536 l 7.1171531387445 0 L 79.35625749700118 53.61013950209906 l -7.1171531387445 0 L 72.23910435825668 66.5062377148536 M 90.03198720511796 54.98937012729513 l 7.1171531387445 0 L 97.14914034386246 49.08436978296217 l -7.1171531387445 0 L 90.03198720511796 54.98937012729513 M 98.92842862854857 49.08436978296217 l 7.1171531387445 0 L 106.04558176729307 45.96441521690497 l -7.1171531387445 0 L 98.92842862854857 49.08436978296217 M 125.61775289884046 54.396000651756935 l 7.1171531387445 0 L 132.73490603758498 44.818045363725844 l -7.1171531387445 0 L 125.61775289884046 54.396000651756935 M 134.51419432227107 44.818045363725844 l 7.1171531387445 0 L 141.63134746101557 41.170549676889635 l -7.1171531387445 0 L 134.51419432227107 44.818045363725844 M 143.4106357457017 41.170549676889635 l 7.1171531387445 0 L 150.5277888844462 33.373124792106154 l -7.1171531387445 0 L 143.4106357457017 41.170549676889635 M 152.30707716913233 33.373124792106154 l 7.1171531387445 0 L 159.42423030787683 31.110626744451366 l -7.1171531387445 0 L 152.30707716913233 33.373124792106154 M 161.20351859256294 31.110626744451366 l 7.1171531387445 0 L 168.32067173130744 29.717330231486244 l -7.1171531387445 0 L 161.20351859256294 31.110626744451366 M 170.09996001599356 29.717330231486244 l 7.1171531387445 0 L 177.21711315473806 13.42558605240066 l -7.1171531387445 0 L 170.09996001599356 29.717330231486244 M 178.9964014394242 13.42558605240066 l 7.1171531387445 0 L 186.1135545781687 11.354735725599483 l -7.1171531387445 0 L 178.9964014394242 13.42558605240066 M 187.89284286285485 11.354735725599483 l 7.1171531387445 0 L 195.00999600159935 9.15630779673279 l -7.1171531387445 0 L 187.89284286285485 11.354735725599483 M 214.5821671331467 22.690856655325433 l 7.1171531387445 0 L 221.6993202718912 17.253406420436335 l -7.1171531387445 0 L 214.5821671331467 22.690856655325433 M 232.37504998000796 20.576472405878945 l 7.1171531387445 0 L 239.49220311875246 16.38230599089789 l -7.1171531387445 0 L 232.37504998000796 20.576472405878945 M 241.2714914034386 16.38223566145902 l 7.1171531387445 0 L 248.3886445421831 15.164481427851854 l -7.1171531387445 0 L 241.2714914034386 16.38223566145902 M 267.9608156737305 39.147101391870194 l 7.1171531387445 0 L 275.07796881247504 37.222043991795374 l -7.1171531387445 0 L 267.9608156737305 39.147101391870194 M 285.7536985205918 45.60650870262103 l 7.1171531387445 0 L 292.8708516593363 42.07632251977887 l -7.1171531387445 0 L 285.7536985205918 45.60650870262103 M 312.4430227908837 64.74715779045383 l 7.1171531387445 0 L 319.5601759296282 60.91779017476355 l -7.1171531387445 0 L 312.4430227908837 64.74715779045383 M 321.3394642143143 60.91771984532474 l 7.1171531387445 0 L 328.45661735305885 53.37249632824063 l -7.1171531387445 0 L 321.3394642143143 60.91771984532474 M 339.13234706117555 61.850147545536316 l 7.1171531387445 0 L 346.2495001999201 57.56335725959593 l -7.1171531387445 0 L 339.13234706117555 61.850147545536316 M 365.8216713314674 63.708673296463445 l 7.1171531387445 0 L 372.93882447021196 55.81053665525343 l -7.1171531387445 0 L 365.8216713314674 63.708673296463445 M 374.7181127548981 55.81053665525343 l 7.1171531387445 0 L 381.8352658936426 50.94338783996122 l -7.1171531387445 0 L 374.7181127548981 55.81053665525343 M 419.20031987205124 65.37196452515585 l 7.1171531387445 0 L 426.31747301079577 65.31204384325963 l -7.1171531387445 0 L 419.20031987205124 65.37196452515585 M 428.0967612954818 65.31211417269847 l 7.1171531387445 0 L 435.21391443422635 58.44824225914809 l -7.1171531387445 0 L 428.0967612954818 65.31211417269847 M 445.8896441423431 74.7185359593858 l 7.1171531387445 0 L 453.00679728108764 66.81997734154268 l -7.1171531387445 0 L 445.8896441423431 74.7185359593858 M 454.7860855657737 66.81997734154268 l 7.1171531387445 0 L 461.90323870451823 63.25884620560859 l -7.1171531387445 0 L 454.7860855657737 66.81997734154268 M 481.47540983606564 78.10728964070992 l 7.1171531387445 0 L 488.59256297481016 72.21684749021802 l -7.1171531387445 0 L 481.47540983606564 78.10728964070992 M 490.3718512594962 72.21684749021802 l 7.1171531387445 0 L 497.48900439824075 71.81730594813754 l -7.1171531387445 0 L 490.3718512594962 72.21684749021802 M 508.16473410635746 77.41700619844289 l 7.1171531387445 0 L 515.281887245102 63.62505159367632 l -7.1171531387445 0 L 508.16473410635746 77.41700619844289 M 561.5433826469413 131.2522224102675 l 7.1171531387445 0 L 568.6605357856857 124.62107060985639 l -7.1171531387445 0 L 561.5433826469413 131.2522224102675 M 588.232706917233 138.598061968225 l 7.1171531387445 0 L 595.3498600559775 136.78841517729546 l -7.1171531387445 0 L 588.232706917233 138.598061968225 M 597.1291483406637 136.78841517729546 l 7.1171531387445 0 L 604.2463014794082 131.16424028227198 l -7.1171531387445 0 L 597.1291483406637 136.78841517729546 M 606.0255897640943 131.16424028227198 l 7.1171531387445 0 L 613.1427429028388 122.42826903609733 l -7.1171531387445 0 L 606.0255897640943 131.16424028227198 M 623.8184726109555 132.66035843482905 l 7.1171531387445 0 L 630.9356257497 128.64511011227052 l -7.1171531387445 0 L 623.8184726109555 132.66035843482905 M 641.6113554578168 140.80928985496155 l 7.1171531387445 0 L 648.7285085965613 129.52915115855654 l -7.1171531387445 0 L 641.6113554578168 140.80928985496155 M 659.4042383046781 137.39352966912082 l 7.1171531387445 0 L 666.5213914434225 135.67713971410012 l -7.1171531387445 0 L 659.4042383046781 137.39352966912082 M 668.3006797281087 135.6770693846613 l 7.1171531387445 0 L 675.4178328668531 129.7070143093964 l -7.1171531387445 0 L 668.3006797281087 135.6770693846613 M 686.09356257497 138.039646223793 l 7.1171531387445 0 L 693.2107157137144 134.20359731141244 l -7.1171531387445 0 L 686.09356257497 138.039646223793 M 721.6793282686924 141.41074721596695 l 7.1171531387445 0 L 728.7964814074369 138.5868795874486 l -7.1171531387445 0 L 721.6793282686924 141.41074721596695 M 730.5757696921231 138.5868795874486 l 7.1171531387445 0 L 737.6929228308676 135.51510068700048 l -7.1171531387445 0 L 730.5757696921231 138.5868795874486 M 739.4722111155537 135.51510068700048 l 7.1171531387445 0 L 746.5893642542982 119.57760589137892 l -7.1171531387445 0 L 739.4722111155537 135.51510068700048 M 748.3686525389844 119.57753556194008 l 7.1171531387445 0 L 755.4858056777289 119.10766458101433 l -7.1171531387445 0 L 748.3686525389844 119.57753556194008 M 766.1615353858456 133.13979421943776 l 7.1171531387445 0 L 773.27868852459 128.59102677379846 l -7.1171531387445 0 L 766.1615353858456 133.13979421943776 M 783.9544182327068 133.88268408196114 l 7.1171531387445 0 L 791.0715713714512 132.73047688535783 l -7.1171531387445 0 L 783.9544182327068 133.88268408196114 M 792.8508596561375 132.73054721479667 l 7.1171531387445 0 L 799.9680127948819 132.34246937124806 l -7.1171531387445 0 L 792.8508596561375 132.73054721479667 M 801.747301079568 132.3425397006869 l 7.1171531387445 0 L 808.8644542183125 122.11734258696208 l -7.1171531387445 0 L 801.747301079568 132.3425397006869"></path><path class="candle body down" d="M 18.860455817672932 47.78897184886978 l 7.1171531387445 0 L 25.977608956417434 65.50988055473158 l -7.1171531387445 0 L 18.860455817672932 47.78897184886978 M 27.75689724110356 65.50981022529271 l 7.1171531387445 0 L 34.87405037984806 70.37970188869988 l -7.1171531387445 0 L 27.75689724110356 65.50981022529271 M 45.54978008796481 69.83267951336077 l 7.1171531387445 0 L 52.66693322670931 77.07668204387028 l -7.1171531387445 0 L 45.54978008796481 69.83267951336077 M 63.342662934826066 63.756075338245154 l 7.1171531387445 0 L 70.45981607357056 66.5062377148536 l -7.1171531387445 0 L 63.342662934826066 63.756075338245154 M 81.13554578168731 53.61006917266019 l 7.1171531387445 0 L 88.25269892043181 54.98929979785626 l -7.1171531387445 0 L 81.13554578168731 53.61006917266019 M 107.82487005197919 45.96441521690497 l 7.1171531387445 0 L 114.94202319072369 52.56849018336064 l -7.1171531387445 0 L 107.82487005197919 45.96441521690497 M 116.72131147540982 52.56849018336064 l 7.1171531387445 0 L 123.83846461415432 54.39607098119578 l -7.1171531387445 0 L 116.72131147540982 52.56849018336064 M 196.78928428628546 9.15637812617166 l 7.1171531387445 0 L 203.90643742502996 11.736061943018939 l -7.1171531387445 0 L 196.78928428628546 9.15637812617166 M 205.68572570971608 11.736061943018939 l 7.1171531387445 0 L 212.80287884846058 22.690926984764275 l -7.1171531387445 0 L 205.68572570971608 11.736061943018939 M 223.47860855657734 17.253406420436335 l 7.1171531387445 0 L 230.59576169532184 20.576402076440075 l -7.1171531387445 0 L 223.47860855657734 17.253406420436335 M 250.16793282686922 15.164551757290695 l 7.1171531387445 0 L 257.28508596561375 22.780878337047426 l -7.1171531387445 0 L 250.16793282686922 15.164551757290695 M 259.06437425029986 22.780948666486267 l 7.1171531387445 0 L 266.1815273890444 39.147101391870194 l -7.1171531387445 0 L 259.06437425029986 22.780948666486267 M 276.85725709716115 37.22197366235659 l 7.1171531387445 0 L 283.9744102359057 45.60657903205981 l -7.1171531387445 0 L 276.85725709716115 37.22197366235659 M 294.65013994402244 42.07639284921771 l 7.1171531387445 0 L 301.76729308276697 46.26176808434309 l -7.1171531387445 0 L 294.65013994402244 42.07639284921771 M 303.54658136745303 46.26176808434309 l 7.1171531387445 0 L 310.66373450619756 64.74715779045383 l -7.1171531387445 0 L 303.54658136745303 46.26176808434309 M 330.23590563774496 53.3725666576795 l 7.1171531387445 0 L 337.3530587764895 61.8500772160975 l -7.1171531387445 0 L 330.23590563774496 53.3725666576795 M 348.02878848460614 57.56335725959593 l 7.1171531387445 0 L 355.14594162335067 58.78139281095852 l -7.1171531387445 0 L 348.02878848460614 57.56335725959593 M 356.9252299080368 58.78146314039736 l 7.1171531387445 0 L 364.0423830467813 63.708602967024575 l -7.1171531387445 0 L 356.9252299080368 58.78146314039736 M 383.61455417832866 50.94331751052238 l 7.1171531387445 0 L 390.7317073170732 51.89276493493452 l -7.1171531387445 0 L 383.61455417832866 50.94331751052238 M 392.5109956017593 51.89276493493452 l 7.1171531387445 0 L 399.62814874050383 58.06895559545512 l -7.1171531387445 0 L 392.5109956017593 51.89276493493452 M 401.40743702518995 58.06895559545512 l 7.1171531387445 0 L 408.5245901639345 63.49015972997094 l -7.1171531387445 0 L 401.40743702518995 58.06895559545512 M 410.3038784486206 63.4900894005321 l 7.1171531387445 0 L 417.4210315873651 65.37203485459472 l -7.1171531387445 0 L 410.3038784486206 63.4900894005321 M 436.99320271891247 58.44824225914809 l 7.1171531387445 0 L 444.110355857657 74.71846562994695 l -7.1171531387445 0 L 436.99320271891247 58.44824225914809 M 463.68252698920435 63.25891653504746 l 7.1171531387445 0 L 470.7996801279489 71.31831857952986 l -7.1171531387445 0 L 463.68252698920435 63.25891653504746 M 472.57896841263494 71.31831857952986 l 7.1171531387445 0 L 479.69612155137946 78.10728964070992 l -7.1171531387445 0 L 472.57896841263494 71.31831857952986 M 499.2682926829268 71.81730594813754 l 7.1171531387445 0 L 506.38544582167134 77.41700619844289 l -7.1171531387445 0 L 499.2682926829268 71.81730594813754 M 517.0611755297881 63.62505159367632 l 7.1171531387445 0 L 524.1783286685326 85.68760754777787 l -7.1171531387445 0 L 517.0611755297881 63.62505159367632 M 525.9576169532187 85.68760754777787 l 7.1171531387445 0 L 533.0747700919632 89.47977089031893 l -7.1171531387445 0 L 525.9576169532187 85.68760754777787 M 534.8540583766493 89.47977089031893 l 7.1171531387445 0 L 541.9712115153937 93.28726605052826 l -7.1171531387445 0 L 534.8540583766493 89.47977089031893 M 543.75049980008 93.2871957210894 l 7.1171531387445 0 L 550.8676529388244 103.37243725151201 l -7.1171531387445 0 L 543.75049980008 93.2871957210894 M 552.6469412235106 103.37250758095087 l 7.1171531387445 0 L 559.764094362255 131.23759388698767 l -7.1171531387445 0 L 552.6469412235106 103.37250758095087 M 570.4398240703717 124.62100028041753 l 7.1171531387445 0 L 577.5569772091162 138.0762175319926 l -7.1171531387445 0 L 570.4398240703717 124.62100028041753 M 579.3362654938024 138.0762175319926 l 7.1171531387445 0 L 586.4534186325469 138.5979916387862 l -7.1171531387445 0 L 579.3362654938024 138.0762175319926 M 614.9220311875249 122.42826903609733 l 7.1171531387445 0 L 622.0391843262694 132.66035843482905 l -7.1171531387445 0 L 614.9220311875249 122.42826903609733 M 632.7149140343862 128.64511011227052 l 7.1171531387445 0 L 639.8320671731307 140.80936018440042 l -7.1171531387445 0 L 632.7149140343862 128.64511011227052 M 650.5077968812475 129.52922148799536 l 7.1171531387445 0 L 657.624950019992 137.39352966912082 l -7.1171531387445 0 L 650.5077968812475 129.52922148799536 M 677.1971211515394 129.70708463883525 l 7.1171531387445 0 L 684.3142742902838 138.03957589435413 l -7.1171531387445 0 L 677.1971211515394 129.70708463883525 M 694.9900039984005 134.20359731141244 l 7.1171531387445 0 L 702.107157137145 134.99431119235066 l -7.1171531387445 0 L 694.9900039984005 134.20359731141244 M 703.8864454218311 134.99438152178953 l 7.1171531387445 0 L 711.0035985605756 137.39113846820007 l -7.1171531387445 0 L 703.8864454218311 134.99438152178953 M 712.7828868452618 137.39113846820007 l 7.1171531387445 0 L 719.9000399840063 141.4108175454058 l -7.1171531387445 0 L 712.7828868452618 137.39113846820007 M 757.265093962415 119.10759425157549 l 7.1171531387445 0 L 764.3822471011595 133.13986454887657 l -7.1171531387445 0 L 757.265093962415 119.10759425157549 M 775.0579768092763 128.59095644435962 l 7.1171531387445 0 L 782.1751299480208 133.88268408196114 l -7.1171531387445 0 L 775.0579768092763 128.59095644435962 M 810.6437425029987 122.11734258696208 l 7.1171531387445 0 L 817.7608956417432 123.85989509323319 l -7.1171531387445 0 L 810.6437425029987 122.11734258696208 M 819.5401839264293 123.85996542267205 l 7.1171531387445 0 L 826.6573370651738 130.33414191558035 l -7.1171531387445 0 L 819.5401839264293 123.85996542267205 M 828.43662534986 130.33414191558035 l 7.1171531387445 0 L 835.5537784886045 131.00114631358963 l -7.1171531387445 0 L 828.43662534986 130.33414191558035 M 837.3330667732906 131.00114631358963 l 7.1171531387445 0 L 844.4502199120351 138.16103483524006 l -7.1171531387445 0 L 837.3330667732906 131.00114631358963 M 846.2295081967213 138.16110516467893 l 7.1171531387445 0 L 853.3466613354658 142.85327433612383 l -7.1171531387445 0 L 846.2295081967213 138.16110516467893 M 855.1259496201519 142.85320400668502 l 7.1171531387445 0 L 862.2431027588964 155.86541612297322 l -7.1171531387445 0 L 855.1259496201519 142.85320400668502 M 864.0223910435824 155.86541612297322 l 7.1171531387445 0 L 871.1395441823269 184.60990173233225 l -7.1171531387445 0 L 864.0223910435824 155.86541612297322 M 872.9188324670131 184.62495223224514 l 7.1171531387445 0 L 880.0359856057576 187.07846503580387 l -7.1171531387445 0 L 872.9188324670131 184.62495223224514 M 881.8152738904437 187.07839470636506 l 7.1171531387445 0 L 888.9324270291881 193.4662769778101 l -7.1171531387445 0 L 881.8152738904437 187.07839470636506"></path><path class="candle body equal"></path><path class="candle wick up" d="M 4.626149540183927 65.93129455229288 L 4.626149540183927 70.37224696818228 M 4.626149540183927 75.59505175571533 L 4.626149540183927 76.44153688165791 M 13.522590963614554 43.20096057635482 L 13.522590963614554 47.78890151943094 M 13.522590963614554 70.37224696818228 L 13.522590963614554 70.89395074553707 M 40.21191523390643 65.05477875596335 L 40.21191523390643 69.83260918392193 M 40.21191523390643 70.37970188869988 L 40.21191523390643 70.86532666392702 M 58.004798080767685 61.81674106208476 L 58.004798080767685 63.756075338245154 M 58.004798080767685 77.07661171443141 L 58.004798080767685 78.64038678715768 M 75.79768092762893 49.36224139584016 L 75.79768092762893 53.61013950209906 M 75.79768092762893 66.5062377148536 L 75.79768092762893 69.68407340908053 M 93.5905637744902 45.09310379905 L 93.5905637744902 49.08436978296217 M 93.5905637744902 54.98937012729513 L 93.5905637744902 60.49511024730302 M 102.48700519792082 44.565773666587575 L 102.48700519792082 45.96441521690497 M 102.48700519792082 49.08436978296217 L 102.48700519792082 50.9004165528267 M 129.1763294682127 37.80711459354981 L 129.1763294682127 44.818045363725844 M 129.1763294682127 54.396000651756935 L 129.1763294682127 55.2874262891217 M 138.07277089164333 40.16343211262429 L 138.07277089164333 41.170549676889635 M 138.07277089164333 44.818045363725844 L 138.07277089164333 49.12684876402477 M 146.96921231507397 31.759556476677375 L 146.96921231507397 33.373124792106154 M 146.96921231507397 41.170549676889635 L 146.96921231507397 43.43726749087514 M 155.8656537385046 25.618038229507533 L 155.8656537385046 31.110626744451366 M 155.8656537385046 33.373124792106154 L 155.8656537385046 36.27393282672128 M 164.7620951619352 27.73600928033514 L 164.7620951619352 29.717330231486244 M 164.7620951619352 31.110626744451366 L 164.7620951619352 32.80690247996225 M 173.65853658536582 12.22126474161297 L 173.65853658536582 13.42558605240066 M 173.65853658536582 29.717330231486244 L 173.65853658536582 30.348958921756292 M 182.55497800879647 3.8461538461538396 L 182.55497800879647 11.354735725599483 M 182.55497800879647 13.42558605240066 L 182.55497800879647 14.580395438241283 M 191.4514194322271 4.502819816652789 L 191.4514194322271 9.15630779673279 M 191.4514194322271 11.354735725599483 L 191.4514194322271 12.559900989653329 M 218.14074370251896 14.182823120448546 L 218.14074370251896 17.253406420436335 M 218.14074370251896 22.690856655325433 L 218.14074370251896 31.90647467442531 M 235.93362654938022 9.090831089167807 L 235.93362654938022 16.38230599089789 M 235.93362654938022 20.576472405878945 L 235.93362654938022 22.54618899962054 M 244.83006797281087 12.98286223486923 L 244.83006797281087 15.164481427851854 M 244.83006797281087 16.38223566145902 L 244.83006797281087 25.450232188422547 M 271.51939224310274 34.00939522534 L 271.51939224310274 37.222043991795374 M 271.51939224310274 39.147101391870194 L 271.51939224310274 42.26353948598518 M 289.31227508996403 41.752596112773745 L 289.31227508996403 42.07632251977887 M 289.31227508996403 45.60650870262103 L 289.31227508996403 46.496457421769975 M 316.0015993602559 56.528811214180905 L 316.0015993602559 60.91779017476355 M 316.0015993602559 64.74715779045383 L 316.0015993602559 66.68698437268617 M 324.89804078368655 50.4642333731079 L 324.89804078368655 53.37249632824063 M 324.89804078368655 60.91771984532474 L 324.89804078368655 64.33861408020118 M 342.6909236305478 55.32364595012706 L 342.6909236305478 57.56335725959593 M 342.6909236305478 61.850147545536316 L 342.6909236305478 63.08773468089785 M 369.38024790083966 53.59093956529426 L 369.38024790083966 55.81053665525343 M 369.38024790083966 63.708673296463445 L 369.38024790083966 71.73748203504812 M 378.2766893242703 49.066857752689714 L 378.2766893242703 50.94338783996122 M 378.2766893242703 55.81053665525343 L 378.2766893242703 57.429028031401344 M 422.7588964414235 61.866815622542646 L 422.7588964414235 65.31204384325963 M 422.7588964414235 65.37196452515585 L 422.7588964414235 68.97276146459873 M 431.65533786485406 57.1125455565973 L 431.65533786485406 58.44824225914809 M 431.65533786485406 65.31211417269847 L 431.65533786485406 74.10413798163287 M 449.44822071171535 65.13910375313893 L 449.44822071171535 66.81997734154268 M 449.44822071171535 74.7185359593858 L 449.44822071171535 76.34546686819522 M 458.34466213514594 58.82415310977649 L 458.34466213514594 63.25884620560859 M 458.34466213514594 66.81997734154268 L 458.34466213514594 69.31167903039446 M 485.0339864054379 70.76348963647891 L 485.0339864054379 72.21684749021802 M 485.0339864054379 78.10728964070992 L 485.0339864054379 79.82628178496792 M 493.93042782886846 67.30089004436718 L 493.93042782886846 71.81730594813754 M 493.93042782886846 72.21684749021802 L 493.93042782886846 75.14501367654398 M 511.7233106757297 61.27766591333523 L 511.7233106757297 63.62505159367632 M 511.7233106757297 77.41700619844289 L 511.7233106757297 77.8315982404362 M 565.1019592163135 113.07375037527787 L 565.1019592163135 124.62107060985639 M 565.1019592163135 131.2522224102675 L 565.1019592163135 133.67035950608704 M 591.7912834866053 124.15499741862828 L 591.7912834866053 136.78841517729546 M 591.7912834866053 138.598061968225 L 591.7912834866053 140.55371267419758 M 600.687724910036 129.36007918757232 L 600.687724910036 131.16424028227198 M 600.687724910036 136.78841517729546 L 600.687724910036 141.4094109566289 M 609.5841663334666 121.506179763396 L 609.5841663334666 122.42826903609733 M 609.5841663334666 131.16424028227198 L 609.5841663334666 135.4314086547745 M 627.3770491803277 126.22971586456599 L 627.3770491803277 128.64511011227052 M 627.3770491803277 132.66035843482905 L 627.3770491803277 135.6397244526344 M 645.169932027189 127.94005748784593 L 645.169932027189 129.52915115855654 M 645.169932027189 140.80928985496155 L 645.169932027189 140.97772886099617 M 662.9628148740503 134.1923446011972 L 662.9628148740503 135.67713971410012 M 662.9628148740503 137.39352966912082 L 662.9628148740503 139.1779985209438 M 671.8592562974809 128.34227154860247 L 671.8592562974809 129.7070143093964 M 671.8592562974809 135.6770693846613 L 671.8592562974809 137.0130474049675 M 689.6521391443422 132.85833580517868 L 689.6521391443422 134.20359731141244 M 689.6521391443422 138.039646223793 L 689.6521391443422 141.13512614513206 M 725.2379048380647 136.93645864606492 L 725.2379048380647 138.5868795874486 M 725.2379048380647 141.41074721596695 L 725.2379048380647 142.67534085584515 M 734.1343462614954 134.67339796289937 L 734.1343462614954 135.51510068700048 M 734.1343462614954 138.5868795874486 L 734.1343462614954 139.93804876654542 M 743.0307876849259 116.14707652338065 L 743.0307876849259 119.57760589137892 M 743.0307876849259 135.51510068700048 L 743.0307876849259 136.70001107266685 M 751.9272291083566 114.90224545581803 L 751.9272291083566 119.10766458101433 M 751.9272291083566 119.57753556194008 L 751.9272291083566 123.33467484393617 M 769.7201119552178 126.92857949837217 L 769.7201119552178 128.59102677379846 M 769.7201119552178 133.13979421943776 L 769.7201119552178 134.62578493280108 M 787.512994802079 131.85248417081255 L 787.512994802079 132.73047688535783 M 787.512994802079 133.88268408196114 L 787.512994802079 135.39624393535183 M 796.4094362255097 130.44505144063947 L 796.4094362255097 132.34246937124806 M 796.4094362255097 132.73054721479667 L 796.4094362255097 135.06977468023175 M 805.3058776489403 119.35663079452686 L 805.3058776489403 122.11734258696208 M 805.3058776489403 132.3425397006869 L 805.3058776489403 132.54628408502188" style="stroke-width: 1px;"></path><path class="candle wick down" d="M 22.41903238704518 47.10023565425732 L 22.41903238704518 47.78897184886978 M 22.41903238704518 65.50988055473158 L 22.41903238704518 71.71483595573991 M 31.315473810475808 59.783235667310436 L 31.315473810475808 65.50981022529271 M 31.315473810475808 70.37970188869988 L 31.315473810475808 73.93816050595785 M 49.10835665733706 66.29757026979945 L 49.10835665733706 69.83267951336077 M 49.10835665733706 77.07668204387028 L 49.10835665733706 78.47504227643225 M 66.90123950419832 62.235271552653415 L 66.90123950419832 63.756075338245154 M 66.90123950419832 66.5062377148536 L 66.90123950419832 74.81917738637347 M 84.69412235105956 51.04438091414315 L 84.69412235105956 53.61006917266019 M 84.69412235105956 54.98929979785626 L 84.69412235105956 57.928367047203295 M 111.38344662135144 45.295371265169194 L 111.38344662135144 45.96441521690497 M 111.38344662135144 52.56849018336064 L 111.38344662135144 55.03782711065958 M 120.27988804478207 50.58442638409457 L 120.27988804478207 52.56849018336064 M 120.27988804478207 54.39607098119578 L 120.27988804478207 58.153843228141454 M 200.34786085565773 7.289623830899643 L 200.34786085565773 9.15637812617166 M 200.34786085565773 11.736061943018939 L 200.34786085565773 16.114561817213655 M 209.24430227908834 7.994465467007672 L 209.24430227908834 11.736061943018939 M 209.24430227908834 22.690926984764275 L 209.24430227908834 24.873530789890708 M 227.0371851259496 10.716214750322592 L 227.0371851259496 17.253406420436335 M 227.0371851259496 20.576402076440075 L 227.0371851259496 21.91969435838618 M 253.72650939624148 10.80764302082153 L 253.72650939624148 15.164551757290695 M 253.72650939624148 22.780878337047426 L 253.72650939624148 23.79179369101047 M 262.6229508196721 22.713432405194766 L 262.6229508196721 22.780948666486267 M 262.6229508196721 39.147101391870194 L 262.6229508196721 39.49502112583815 M 280.4158336665334 33.519691342659854 L 280.4158336665334 37.22197366235659 M 280.4158336665334 45.60657903205981 L 280.4158336665334 46.62544161261238 M 298.2087165133947 37.46039046004225 L 298.2087165133947 42.07639284921771 M 298.2087165133947 46.26176808434309 L 298.2087165133947 48.30729981315997 M 307.10515793682526 44.46231906204608 L 307.10515793682526 46.26176808434309 M 307.10515793682526 64.74715779045383 L 307.10515793682526 67.07119409709827 M 333.7944822071172 50.89542316266872 L 333.7944822071172 53.3725666576795 M 333.7944822071172 61.8500772160975 L 333.7944822071172 64.59601982637514 M 351.5873650539784 56.456020244975974 L 351.5873650539784 57.56335725959593 M 351.5873650539784 58.78139281095852 L 351.5873650539784 61.50426736529488 M 360.483806477409 57.25552530576991 L 360.483806477409 58.78146314039736 M 360.483806477409 63.708602967024575 L 360.483806477409 64.63659991258893 M 387.1731307477009 45.97939538737904 L 387.1731307477009 50.94331751052238 M 387.1731307477009 51.89276493493452 L 387.1731307477009 55.677825004152226 M 396.06957217113154 40.514797989095655 L 396.06957217113154 51.89276493493452 M 396.06957217113154 58.06895559545512 L 396.06957217113154 63.1960420167197 M 404.9660135945622 55.853226624632555 L 404.9660135945622 58.06895559545512 M 404.9660135945622 63.49015972997094 L 404.9660135945622 67.23295180644254 M 413.86245501799283 61.58549786716128 L 413.86245501799283 63.4900894005321 M 413.86245501799283 65.37203485459472 L 413.86245501799283 66.47339386691283 M 440.5517792882847 55.837402500892324 L 440.5517792882847 58.44824225914809 M 440.5517792882847 74.71846562994695 L 440.5517792882847 77.6047154707211 M 467.2411035585766 61.97055154483954 L 467.2411035585766 63.25891653504746 M 467.2411035585766 71.31831857952986 L 467.2411035585766 74.27996157874621 M 476.13754498200717 69.91686385165866 L 476.13754498200717 71.31831857952986 M 476.13754498200717 78.10728964070992 L 476.13754498200717 78.47722248903648 M 502.82686925229905 70.92869348832662 L 502.82686925229905 71.81730594813754 M 502.82686925229905 77.41700619844289 L 502.82686925229905 78.90201229966235 M 520.6197520991603 62.53135849019233 L 520.6197520991603 63.62505159367632 M 520.6197520991603 85.68760754777787 L 520.6197520991603 92.5874178045782 M 529.5161935225909 84.82494665090088 L 529.5161935225909 85.68760754777787 M 529.5161935225909 89.47977089031893 L 529.5161935225909 94.79505888993363 M 538.4126349460215 88.54769483730153 L 538.4126349460215 89.47977089031893 M 538.4126349460215 93.28726605052826 L 538.4126349460215 98.12164134731849 M 547.3090763694522 92.99307800783816 L 547.3090763694522 93.2871957210894 M 547.3090763694522 103.37243725151201 L 547.3090763694522 105.65427589484928 M 556.2055177928828 101.93244199115354 L 556.2055177928828 103.37250758095087 M 556.2055177928828 131.23759388698767 L 556.2055177928828 131.53986981514495 M 573.998400639744 116.56490371956085 L 573.998400639744 124.62100028041753 M 573.998400639744 138.0762175319926 L 573.998400639744 147.35224853906064 M 582.8948420631747 130.06527247087462 L 582.8948420631747 138.0762175319926 M 582.8948420631747 138.5979916387862 L 582.8948420631747 154.98299265378066 M 618.4806077568971 122.42819870665849 L 618.4806077568971 122.42826903609733 M 618.4806077568971 132.66035843482905 L 618.4806077568971 138.1950742836412 M 636.2734906037584 126.78095800623579 L 636.2734906037584 128.64511011227052 M 636.2734906037584 140.80936018440042 L 636.2734906037584 141.23731481977433 M 654.0663734506197 126.30735956505123 L 654.0663734506197 129.52922148799536 M 654.0663734506197 137.39352966912082 L 654.0663734506197 140.70611656817545 M 680.7556977209116 127.05861863079724 L 680.7556977209116 129.70708463883525 M 680.7556977209116 138.03957589435413 L 680.7556977209116 139.74717466951915 M 698.5485805677728 130.20072697009073 L 698.5485805677728 134.20359731141244 M 698.5485805677728 134.99431119235066 L 698.5485805677728 136.73805929908218 M 707.4450219912034 132.57153235356736 L 707.4450219912034 134.99438152178953 M 707.4450219912034 137.39113846820007 L 707.4450219912034 145.70260122150418 M 716.3414634146341 136.01050125422708 L 716.3414634146341 137.39113846820007 M 716.3414634146341 141.4108175454058 L 716.3414634146341 143.85054577895085 M 760.8236705317872 117.82816110010094 L 760.8236705317872 119.10759425157549 M 760.8236705317872 133.13986454887657 L 760.8236705317872 136.69030561010618 M 778.6165533786485 126.85825005952684 L 778.6165533786485 128.59095644435962 M 778.6165533786485 133.88268408196114 L 778.6165533786485 136.8213996841139 M 814.202319072371 120.59471023596033 L 814.202319072371 122.11734258696208 M 814.202319072371 123.85989509323319 L 814.202319072371 137.2672883263934 M 823.0987604958016 122.4400140523845 L 823.0987604958016 123.85996542267205 M 823.0987604958016 130.33414191558035 L 823.0987604958016 132.87226103407005 M 831.9952019192323 126.8512171156423 L 831.9952019192323 130.33414191558035 M 831.9952019192323 131.00114631358963 L 831.9952019192323 132.16741939796202 M 840.8916433426629 129.08206691581665 L 840.8916433426629 131.00114631358963 M 840.8916433426629 138.16103483524006 L 840.8916433426629 139.8621633020313 M 849.7880847660936 135.70984290316323 L 849.7880847660936 138.16110516467893 M 849.7880847660936 142.85327433612383 L 849.7880847660936 145.13694154487106 M 858.6845261895241 142.00749250456974 L 858.6845261895241 142.85320400668502 M 858.6845261895241 155.86541612297322 L 858.6845261895241 155.9676047976155 M 867.5809676129546 153.6056609234334 L 867.5809676129546 155.86541612297322 M 867.5809676129546 184.60990173233225 L 867.5809676129546 188.55988433564224 M 876.4774090363853 178.45277034973873 L 876.4774090363853 184.62495223224514 M 876.4774090363853 187.07846503580387 L 876.4774090363853 196.15384615384616 M 885.3738504598159 185.9464423881492 L 885.3738504598159 187.07839470636506 M 885.3738504598159 193.4662769778101 L 885.3738504598159 195.6087226733559" style="stroke-width: 1px;"></path><path class="candle wick equal" style="stroke-width: 1px;"></path></g></g><g class="x axis" transform="translate(0,200)" fill="none" font-size="10" font-family="sans-serif" text-anchor="middle"><path class="domain" stroke="#000" d="M0.5,6V0.5H890.5V6"></path><g class="tick" opacity="1" transform="translate(58.004798080767685,0)"><line stroke="#000" y2="6" x1="0.5" x2="0.5"></line><text fill="#000" y="9" x="0.5" dy="0.71em">Mar 14</text></g><g class="tick" opacity="1" transform="translate(120.27988804478207,0)"><line stroke="#000" y2="6" x1="0.5" x2="0.5"></line><text fill="#000" y="9" x="0.5" dy="0.71em">Mar 21</text></g><g class="tick" opacity="1" transform="translate(182.55497800879647,0)"><line stroke="#000" y2="6" x1="0.5" x2="0.5"></line><text fill="#000" y="9" x="0.5" dy="0.71em">Mar 28</text></g><g class="tick" opacity="1" transform="translate(244.83006797281087,0)"><line stroke="#000" y2="6" x1="0.5" x2="0.5"></line><text fill="#000" y="9" x="0.5" dy="0.71em">Apr  4</text></g><g class="tick" opacity="1" transform="translate(307.10515793682526,0)"><line stroke="#000" y2="6" x1="0.5" x2="0.5"></line><text fill="#000" y="9" x="0.5" dy="0.71em">Apr 11</text></g><g class="tick" opacity="1" transform="translate(369.38024790083966,0)"><line stroke="#000" y2="6" x1="0.5" x2="0.5"></line><text fill="#000" y="9" x="0.5" dy="0.71em">Apr 18</text></g><g class="tick" opacity="1" transform="translate(431.65533786485406,0)"><line stroke="#000" y2="6" x1="0.5" x2="0.5"></line><text fill="#000" y="9" x="0.5" dy="0.71em">Apr 25</text></g><g class="tick" opacity="1" transform="translate(493.93042782886846,0)"><line stroke="#000" y2="6" x1="0.5" x2="0.5"></line><text fill="#000" y="9" x="0.5" dy="0.71em">May  2</text></g><g class="tick" opacity="1" transform="translate(556.2055177928828,0)"><line stroke="#000" y2="6" x1="0.5" x2="0.5"></line><text fill="#000" y="9" x="0.5" dy="0.71em">May  9</text></g><g class="tick" opacity="1" transform="translate(618.4806077568971,0)"><line stroke="#000" y2="6" x1="0.5" x2="0.5"></line><text fill="#000" y="9" x="0.5" dy="0.71em">May 16</text></g><g class="tick" opacity="1" transform="translate(680.7556977209116,0)"><line stroke="#000" y2="6" x1="0.5" x2="0.5"></line><text fill="#000" y="9" x="0.5" dy="0.71em">May 23</text></g><g class="tick" opacity="1" transform="translate(743.0307876849259,0)"><line stroke="#000" y2="6" x1="0.5" x2="0.5"></line><text fill="#000" y="9" x="0.5" dy="0.71em">May 30</text></g><g class="tick" opacity="1" transform="translate(805.3058776489403,0)"><line stroke="#000" y2="6" x1="0.5" x2="0.5"></line><text fill="#000" y="9" x="0.5" dy="0.71em">Jun  6</text></g><g class="tick" opacity="1" transform="translate(867.5809676129546,0)"><line stroke="#000" y2="6" x1="0.5" x2="0.5"></line><text fill="#000" y="9" x="0.5" dy="0.71em">Jun 13</text></g></g><g class="y axis" fill="none" font-size="10" font-family="sans-serif" text-anchor="end"><path class="domain" stroke="#000" d="M-6,200.5H0.5V0.5H-6"></path><g class="tick" opacity="1" transform="translate(0,188.03782891109324)"><line stroke="#000" x2="-6" y1="0.5" y2="0.5"></line><text fill="#000" x="-9" y="0.5" dy="0.32em">22,000</text></g><g class="tick" opacity="1" transform="translate(0,173.97194114202406)"><line stroke="#000" x2="-6" y1="0.5" y2="0.5"></line><text fill="#000" x="-9" y="0.5" dy="0.32em">24,000</text></g><g class="tick" opacity="1" transform="translate(0,159.9060533729549)"><line stroke="#000" x2="-6" y1="0.5" y2="0.5"></line><text fill="#000" x="-9" y="0.5" dy="0.32em">26,000</text></g><g class="tick" opacity="1" transform="translate(0,145.84016560388568)"><line stroke="#000" x2="-6" y1="0.5" y2="0.5"></line><text fill="#000" x="-9" y="0.5" dy="0.32em">28,000</text></g><g class="tick" opacity="1" transform="translate(0,131.77427783481653)"><line stroke="#000" x2="-6" y1="0.5" y2="0.5"></line><text fill="#000" x="-9" y="0.5" dy="0.32em">30,000</text></g><g class="tick" opacity="1" transform="translate(0,117.70839006574732)"><line stroke="#000" x2="-6" y1="0.5" y2="0.5"></line><text fill="#000" x="-9" y="0.5" dy="0.32em">32,000</text></g><g class="tick" opacity="1" transform="translate(0,103.64250229667815)"><line stroke="#000" x2="-6" y1="0.5" y2="0.5"></line><text fill="#000" x="-9" y="0.5" dy="0.32em">34,000</text></g><g class="tick" opacity="1" transform="translate(0,89.57661452760897)"><line stroke="#000" x2="-6" y1="0.5" y2="0.5"></line><text fill="#000" x="-9" y="0.5" dy="0.32em">36,000</text></g><g class="tick" opacity="1" transform="translate(0,75.51072675853978)"><line stroke="#000" x2="-6" y1="0.5" y2="0.5"></line><text fill="#000" x="-9" y="0.5" dy="0.32em">38,000</text></g><g class="tick" opacity="1" transform="translate(0,61.44483898947058)"><line stroke="#000" x2="-6" y1="0.5" y2="0.5"></line><text fill="#000" x="-9" y="0.5" dy="0.32em">40,000</text></g><g class="tick" opacity="1" transform="translate(0,47.378951220401404)"><line stroke="#000" x2="-6" y1="0.5" y2="0.5"></line><text fill="#000" x="-9" y="0.5" dy="0.32em">42,000</text></g><g class="tick" opacity="1" transform="translate(0,33.313063451332226)"><line stroke="#000" x2="-6" y1="0.5" y2="0.5"></line><text fill="#000" x="-9" y="0.5" dy="0.32em">44,000</text></g><g class="tick" opacity="1" transform="translate(0,19.247175682263048)"><line stroke="#000" x2="-6" y1="0.5" y2="0.5"></line><text fill="#000" x="-9" y="0.5" dy="0.32em">46,000</text></g><g class="tick" opacity="1" transform="translate(0,5.181287913193842)"><line stroke="#000" x2="-6" y1="0.5" y2="0.5"></line><text fill="#000" x="-9" y="0.5" dy="0.32em">48,000</text></g><text transform="rotate(-90)" y="6" dy=".71em" style="text-anchor: end;">Price ($)</text></g></g></svg>