<?xml version="1.0" encoding="utf-8"?>
<!DOCTYPE svg PUBLIC "-//W3C//DTD SVG 1.1//EN" "http://www.w3.org/Graphics/SVG/1.1/DTD/svg11.dtd">
<svg version="1.1" xmlns="http://www.w3.org/2000/svg" width="960" height="250"><g transform="translate(50,20)"><style>.axis path,.axis line{fill:none;stroke:#000;shape-rendering:crispEdges;}path.candle{stroke:#000000;}path.candle.body{stroke-width:0;}path.candle.up{fill:#00AA00;stroke:#00AA00;}path.candle.down{fill:#FF0000;stroke:#FF0000;}</style><g class="candlestick"><g class="data"><path class="candle body up" d="M 9.964014394242305 193.52205999486523 l 7.1171531387445 0 L 17.081167532986804 189.87593033485282 l -7.1171531387445 0 L 9.964014394242305 193.52205999486523 M 36.65333866453418 190.86346079346976 l 7.1171531387445 0 L 43.77049180327868 188.71492004694937 l -7.1171531387445 0 L 36.65333866453418 190.86346079346976 M 45.54978008796481 188.71486453340398 l 7.1171531387445 0 L 52.66693322670931 185.3418060030749 l -7.1171531387445 0 L 45.54978008796481 188.71486453340398 M 54.446221511395436 185.34186151662027 l 7.1171531387445 0 L 61.563374650139934 185.18170493822296 l -7.1171531387445 0 L 54.446221511395436 185.34186151662027 M 81.13554578168731 187.20073258339121 l 7.1171531387445 0 L 88.25269892043181 183.0007442812055 l -7.1171531387445 0 L 81.13554578168731 187.20073258339121 M 90.03198720511796 183.0034644449287 l 7.1171531387445 0 L 97.14914034386246 177.75021764640599 l -7.1171531387445 0 L 90.03198720511796 183.0034644449287 M 98.92842862854857 177.75021764640599 l 7.1171531387445 0 L 106.04558176729307 177.10215251773693 l -7.1171531387445 0 L 98.92842862854857 177.75021764640599 M 107.82487005197919 177.09310380984132 l 7.1171531387445 0 L 114.94202319072369 176.95393135159452 l -7.1171531387445 0 L 107.82487005197919 177.09310380984132 M 116.72131147540982 176.95398686513988 l 7.1171531387445 0 L 123.83846461415432 172.2194586345702 l -7.1171531387445 0 L 116.72131147540982 176.95398686513988 M 125.61775289884046 172.21951414811556 l 7.1171531387445 0 L 132.73490603758498 171.95227194069625 l -7.1171531387445 0 L 125.61775289884046 172.21951414811556 M 152.30707716913233 173.81636128073214 l 7.1171531387445 0 L 159.42423030787683 169.41968848729454 l -7.1171531387445 0 L 152.30707716913233 173.81636128073214 M 187.89284286285485 180.63608930255313 l 7.1171531387445 0 L 195.00999600159935 177.4145272375434 l -7.1171531387445 0 L 187.89284286285485 180.63608930255313 M 196.78928428628546 177.41458275108877 l 7.1171531387445 0 L 203.90643742502996 174.83237018812474 l -7.1171531387445 0 L 196.78928428628546 177.41458275108877 M 205.68572570971608 174.83231467457938 l 7.1171531387445 0 L 212.80287884846058 166.4449396450073 l -7.1171531387445 0 L 205.68572570971608 174.83231467457938 M 223.47860855657734 171.61275109720302 l 7.1171531387445 0 L 230.59576169532184 169.17498477929612 l -7.1171531387445 0 L 223.47860855657734 171.61275109720302 M 232.37504998000796 169.1750402928415 l 7.1171531387445 0 L 239.49220311875246 167.96584424755542 l -7.1171531387445 0 L 232.37504998000796 169.1750402928415 M 250.16793282686922 172.248103623982 l 7.1171531387445 0 L 257.28508596561375 169.48824771582855 l -7.1171531387445 0 L 250.16793282686922 172.248103623982 M 259.06437425029986 169.48824771582855 l 7.1171531387445 0 L 266.1815273890444 168.31280390612847 l -7.1171531387445 0 L 259.06437425029986 169.48824771582855 M 285.7536985205918 174.06006574491383 l 7.1171531387445 0 L 292.8708516593363 172.85447808007692 l -7.1171531387445 0 L 285.7536985205918 174.06006574491383 M 312.4430227908837 175.6565242827128 l 7.1171531387445 0 L 319.5601759296282 171.36999036329263 l -7.1171531387445 0 L 312.4430227908837 175.6565242827128 M 321.3394642143143 171.36999036329263 l 7.1171531387445 0 L 328.45661735305885 169.33652919632772 l -7.1171531387445 0 L 321.3394642143143 171.36999036329263 M 330.23590563774496 169.33652919632772 l 7.1171531387445 0 L 337.3530587764895 168.79166374850462 l -7.1171531387445 0 L 330.23590563774496 169.33652919632772 M 339.13234706117555 168.78861050350918 l 7.1171531387445 0 L 346.2495001999201 167.94069661150203 l -7.1171531387445 0 L 339.13234706117555 168.78861050350918 M 348.02878848460614 167.94069661150203 l 7.1171531387445 0 L 355.14594162335067 157.34266117813866 l -7.1171531387445 0 L 348.02878848460614 167.94069661150203 M 356.9252299080368 157.34266117813866 l 7.1171531387445 0 L 364.0423830467813 149.2285793324314 l -7.1171531387445 0 L 356.9252299080368 157.34266117813866 M 365.8216713314674 149.22863484597679 l 7.1171531387445 0 L 372.93882447021196 147.50638261436558 l -7.1171531387445 0 L 365.8216713314674 149.22863484597679 M 374.7181127548981 147.50638261436558 l 7.1171531387445 0 L 381.8352658936426 143.54149417682893 l -7.1171531387445 0 L 374.7181127548981 147.50638261436558 M 401.40743702518995 149.6575880110638 l 7.1171531387445 0 L 408.5245901639345 143.6015598329211 l -7.1171531387445 0 L 401.40743702518995 149.6575880110638 M 419.20031987205124 146.81246329721947 l 7.1171531387445 0 L 426.31747301079577 144.0544948496087 l -7.1171531387445 0 L 419.20031987205124 146.81246329721947 M 428.0967612954818 144.0556606340615 l 7.1171531387445 0 L 435.21391443422635 138.59601447384682 l -7.1171531387445 0 L 428.0967612954818 144.0556606340615 M 436.99320271891247 138.59601447384682 l 7.1171531387445 0 L 444.110355857657 128.70949615151235 l -7.1171531387445 0 L 436.99320271891247 138.59601447384682 M 454.7860855657737 129.88555061021154 l 7.1171531387445 0 L 461.90323870451823 125.45629136564077 l -7.1171531387445 0 L 454.7860855657737 129.88555061021154 M 463.68252698920435 125.4562358520954 l 7.1171531387445 0 L 470.7996801279489 123.75985293262738 l -7.1171531387445 0 L 463.68252698920435 125.4562358520954 M 472.57896841263494 123.75985293262738 l 7.1171531387445 0 L 479.69612155137946 115.48533694079595 l -7.1171531387445 0 L 472.57896841263494 123.75985293262738 M 481.47540983606564 115.48528142725058 l 7.1171531387445 0 L 488.59256297481016 115.2183723011035 l -7.1171531387445 0 L 481.47540983606564 115.48528142725058 M 490.3718512594962 115.2183723011035 l 7.1171531387445 0 L 497.48900439824075 112.95308656866646 l -7.1171531387445 0 L 490.3718512594962 115.2183723011035 M 499.2682926829268 112.95303105512107 l 7.1171531387445 0 L 506.38544582167134 97.15037868898055 l -7.1171531387445 0 L 499.2682926829268 112.95303105512107 M 508.16473410635746 97.16081523551043 l 7.1171531387445 0 L 515.281887245102 92.58871963869828 l -7.1171531387445 0 L 508.16473410635746 97.16081523551043 M 525.9576169532187 98.19725312759984 l 7.1171531387445 0 L 533.0747700919632 87.31781953274738 l -7.1171531387445 0 L 525.9576169532187 98.19725312759984 M 534.8540583766493 87.31781953274738 l 7.1171531387445 0 L 541.9712115153937 71.66394346820294 l -7.1171531387445 0 L 534.8540583766493 87.31781953274738 M 543.75049980008 71.66394346820294 l 7.1171531387445 0 L 550.8676529388244 56.88113044408573 l -7.1171531387445 0 L 543.75049980008 71.66394346820294 M 552.6469412235106 56.88002017317825 l 7.1171531387445 0 L 559.764094362255 50.494130508436996 l -7.1171531387445 0 L 552.6469412235106 56.88002017317825 M 597.1291483406637 86.76479359375462 l 7.1171531387445 0 L 604.2463014794082 68.3219170097367 l -7.1171531387445 0 L 597.1291483406637 86.76479359375462 M 606.0255897640943 68.3219170097367 l 7.1171531387445 0 L 613.1427429028388 58.4786992527921 l -7.1171531387445 0 L 606.0255897640943 68.3219170097367 M 641.6113554578168 76.90647615246897 l 7.1171531387445 0 L 648.7285085965613 72.4305300162406 l -7.1171531387445 0 L 641.6113554578168 76.90647615246897 M 677.1971211515394 104.51336226580888 l 7.1171531387445 0 L 684.3142742902838 92.89337797569812 l -7.1171531387445 0 L 677.1971211515394 104.51336226580888 M 694.9900039984005 97.7073460896947 l 7.1171531387445 0 L 702.107157137145 96.6975546993837 l -7.1171531387445 0 L 694.9900039984005 97.7073460896947 M 712.7828868452618 96.72925293379096 l 7.1171531387445 0 L 719.9000399840063 95.54359463174245 l -7.1171531387445 0 L 712.7828868452618 96.72925293379096 M 730.5757696921231 107.23241571811411 l 7.1171531387445 0 L 737.6929228308676 90.56352998999377 l -7.1171531387445 0 L 730.5757696921231 107.23241571811411 M 739.4722111155537 90.54509949293039 l 7.1171531387445 0 L 746.5893642542982 85.63759105498252 l -7.1171531387445 0 L 739.4722111155537 90.54509949293039 M 748.3686525389844 85.67045507384256 l 7.1171531387445 0 L 755.4858056777289 85.57830258852557 l -7.1171531387445 0 L 748.3686525389844 85.67045507384256 M 766.1615353858456 92.07288777510459 l 7.1171531387445 0 L 773.27868852459 89.66693071869565 l -7.1171531387445 0 L 766.1615353858456 92.07288777510459 M 775.0579768092763 89.7184472888006 l 7.1171531387445 0 L 782.1751299480208 78.89802459267825 l -7.1171531387445 0 L 775.0579768092763 89.7184472888006 M 783.9544182327068 78.86210732882274 l 7.1171531387445 0 L 791.0715713714512 66.94801227533279 l -7.1171531387445 0 L 783.9544182327068 78.86210732882274 M 801.747301079568 70.73525736767999 l 7.1171531387445 0 L 808.8644542183125 63.220999379713845 l -7.1171531387445 0 L 801.747301079568 70.73525736767999 M 810.6437425029987 63.226106625888036 l 7.1171531387445 0 L 817.7608956417432 58.24309976623465 l -7.1171531387445 0 L 810.6437425029987 63.226106625888036 M 828.43662534986 60.415067228901904 l 7.1171531387445 0 L 835.5537784886045 18.340351947883676 l -7.1171531387445 0 L 828.43662534986 60.415067228901904 M 837.3330667732906 18.340407461429066 l 7.1171531387445 0 L 844.4502199120351 18.08748774871566 l -7.1171531387445 0 L 837.3330667732906 18.340407461429066 M 855.1259496201519 27.040934400442808 l 7.1171531387445 0 L 862.2431027588964 9.487939948733015 l -7.1171531387445 0 L 855.1259496201519 27.040934400442808"></path><path class="candle body down" d="M 1.0675729708116766 189.29398183872144 l 7.1171531387445 0 L 8.184726109556177 193.52205999486523 l -7.1171531387445 0 L 1.0675729708116766 189.29398183872144 M 18.860455817672932 189.87593033485282 l 7.1171531387445 0 L 25.977608956417434 190.6902585319101 l -7.1171531387445 0 L 18.860455817672932 189.87593033485282 M 27.75689724110356 190.6902585319101 l 7.1171531387445 0 L 34.87405037984806 190.86346079346976 l -7.1171531387445 0 L 27.75689724110356 190.6902585319101 M 63.342662934826066 185.1853688322175 l 7.1171531387445 0 L 70.45981607357056 186.57093141114945 l -7.1171531387445 0 L 63.342662934826066 185.1853688322175 M 72.23910435825668 186.57587211668752 l 7.1171531387445 0 L 79.35625749700118 187.20073258339121 l -7.1171531387445 0 L 72.23910435825668 186.57587211668752 M 134.51419432227107 171.95227194069625 l 7.1171531387445 0 L 141.63134746101557 173.55866740311677 l -7.1171531387445 0 L 134.51419432227107 171.95227194069625 M 143.4106357457017 173.56172064811219 l 7.1171531387445 0 L 150.5277888844462 173.8164167942775 l -7.1171531387445 0 L 143.4106357457017 173.56172064811219 M 161.20351859256294 169.4197440008399 l 7.1171531387445 0 L 168.32067173130744 171.8672807027322 l -7.1171531387445 0 L 161.20351859256294 169.4197440008399 M 170.09996001599356 171.8688350820026 l 7.1171531387445 0 L 177.21711315473806 180.58090883845367 l -7.1171531387445 0 L 170.09996001599356 171.8688350820026 M 178.9964014394242 180.58090883845367 l 7.1171531387445 0 L 186.1135545781687 180.6361448160985 l -7.1171531387445 0 L 178.9964014394242 180.58090883845367 M 214.5821671331467 166.4449396450073 l 7.1171531387445 0 L 221.6993202718912 171.61275109720302 l -7.1171531387445 0 L 214.5821671331467 166.4449396450073 M 241.2714914034386 167.96340165155905 l 7.1171531387445 0 L 248.3886445421831 172.2480481104366 l -7.1171531387445 0 L 241.2714914034386 167.96340165155905 M 267.9608156737305 168.3168563949406 l 7.1171531387445 0 L 275.07796881247504 169.38143965453344 l -7.1171531387445 0 L 267.9608156737305 168.3168563949406 M 276.85725709716115 169.38143965453344 l 7.1171531387445 0 L 283.9744102359057 174.06006574491383 l -7.1171531387445 0 L 276.85725709716115 169.38143965453344 M 294.65013994402244 172.85442256653153 l 7.1171531387445 0 L 301.76729308276697 174.44577385815631 l -7.1171531387445 0 L 294.65013994402244 172.85442256653153 M 303.54658136745303 174.44477461433962 l 7.1171531387445 0 L 310.66373450619756 175.6565242827128 l -7.1171531387445 0 L 303.54658136745303 174.44477461433962 M 383.61455417832866 143.54154969037432 l 7.1171531387445 0 L 390.7317073170732 145.573789559341 l -7.1171531387445 0 L 383.61455417832866 143.54154969037432 M 392.5109956017593 145.57367853225026 l 7.1171531387445 0 L 399.62814874050383 149.65853174133514 l -7.1171531387445 0 L 392.5109956017593 145.57367853225026 M 410.3038784486206 143.6015598329211 l 7.1171531387445 0 L 417.4210315873651 146.81040929604075 l -7.1171531387445 0 L 410.3038784486206 143.6015598329211 M 445.8896441423431 128.70944063796696 l 7.1171531387445 0 L 453.00679728108764 129.88488444766708 l -7.1171531387445 0 L 445.8896441423431 128.70944063796696 M 517.0611755297881 92.58871963869828 l 7.1171531387445 0 L 524.1783286685326 98.20302653631849 l -7.1171531387445 0 L 517.0611755297881 92.58871963869828 M 561.5433826469413 50.471092387107774 l 7.1171531387445 0 L 568.6605357856857 53.23977494897528 l -7.1171531387445 0 L 561.5433826469413 50.471092387107774 M 570.4398240703717 53.23977494897528 l 7.1171531387445 0 L 577.5569772091162 63.99941031291564 l -7.1171531387445 0 L 570.4398240703717 53.23977494897528 M 579.3362654938024 63.99941031291564 l 7.1171531387445 0 L 586.4534186325469 79.24093176243913 l -7.1171531387445 0 L 579.3362654938024 63.99941031291564 M 588.232706917233 79.20817877066983 l 7.1171531387445 0 L 595.3498600559775 86.75319126277195 l -7.1171531387445 0 L 588.232706917233 79.20817877066983 M 614.9220311875249 58.474757791070715 l 7.1171531387445 0 L 622.0391843262694 71.81460723034172 l -7.1171531387445 0 L 614.9220311875249 58.474757791070715 M 623.8184726109555 71.84119821857476 l 7.1171531387445 0 L 630.9356257497 75.96280139469565 l -7.1171531387445 0 L 623.8184726109555 71.84119821857476 M 632.7149140343862 75.96280139469565 l 7.1171531387445 0 L 639.8320671731307 76.88638024904442 l -7.1171531387445 0 L 632.7149140343862 75.96280139469565 M 650.5077968812475 72.47943744971306 l 7.1171531387445 0 L 657.624950019992 76.53731107574725 l -7.1171531387445 0 L 650.5077968812475 72.47943744971306 M 659.4042383046781 76.47929942083383 l 7.1171531387445 0 L 666.5213914434225 78.88697739714925 l -7.1171531387445 0 L 659.4042383046781 76.47929942083383 M 668.3006797281087 78.88697739714925 l 7.1171531387445 0 L 675.4178328668531 104.52368778524801 l -7.1171531387445 0 L 668.3006797281087 78.88697739714925 M 686.09356257497 92.86656493328358 l 7.1171531387445 0 L 693.2107157137144 97.7073460896947 l -7.1171531387445 0 L 686.09356257497 92.86656493328358 M 703.8864454218311 96.70005280892542 l 7.1171531387445 0 L 711.0035985605756 96.72919742024557 l -7.1171531387445 0 L 703.8864454218311 96.70005280892542 M 721.6793282686924 95.5644677248022 l 7.1171531387445 0 L 728.7964814074369 107.21043235414692 l -7.1171531387445 0 L 721.6793282686924 95.5644677248022 M 757.265093962415 85.57824707498018 l 7.1171531387445 0 L 764.3822471011595 92.0728322615592 l -7.1171531387445 0 L 757.265093962415 85.57824707498018 M 792.8508596561375 66.94029589252611 l 7.1171531387445 0 L 799.9680127948819 70.73520185413463 l -7.1171531387445 0 L 792.8508596561375 66.94029589252611 M 819.5401839264293 58.27601929864005 l 7.1171531387445 0 L 826.6573370651738 60.415067228901904 l -7.1171531387445 0 L 819.5401839264293 58.27601929864005 M 846.2295081967213 18.08748774871566 l 7.1171531387445 0 L 853.3466613354658 27.040934400442808 l -7.1171531387445 0 L 846.2295081967213 18.08748774871566 M 864.0223910435824 9.492658600089555 l 7.1171531387445 0 L 871.1395441823269 13.273464121173731 l -7.1171531387445 0 L 864.0223910435824 9.492658600089555 M 872.9188324670131 13.214897330806593 l 7.1171531387445 0 L 880.0359856057576 14.016846007245931 l -7.1171531387445 0 L 872.9188324670131 13.214897330806593 M 881.8152738904437 13.999692321726116 l 7.1171531387445 0 L 888.9324270291881 14.081519287603982 l -7.1171531387445 0 L 881.8152738904437 13.999692321726116"></path><path class="candle body equal"></path><path class="candle wick up" d="M 13.522590963614554 188.904998426302 L 13.522590963614554 189.87593033485282 M 13.522590963614554 193.52205999486523 L 13.522590963614554 194.15724598100806 M 40.21191523390643 187.15632174709387 L 40.21191523390643 188.71492004694937 M 40.21191523390643 190.86346079346976 L 40.21191523390643 190.9996355202665 M 49.10835665733706 185.0706778474796 L 49.10835665733706 185.3418060030749 M 49.10835665733706 188.71486453340398 L 49.10835665733706 190.06723001220365 M 58.004798080767685 184.297374160452 L 58.004798080767685 185.18170493822296 M 58.004798080767685 185.34186151662027 L 58.004798080767685 187.22654638198907 M 84.69412235105956 182.07683234558453 L 84.69412235105956 183.0007442812055 M 84.69412235105956 187.20073258339121 L 84.69412235105956 187.71700855534792 M 93.5905637744902 176.64305549751305 L 93.5905637744902 177.75021764640599 M 93.5905637744902 183.0034644449287 L 93.5905637744902 183.9753955972962 M 102.48700519792082 173.2117077445437 L 102.48700519792082 177.10215251773693 M 102.48700519792082 177.75021764640599 L 102.48700519792082 180.22018182062845 M 111.38344662135144 174.86118171817265 L 111.38344662135144 176.95393135159452 M 111.38344662135144 177.09310380984132 L 111.38344662135144 179.5473576507236 M 120.27988804478207 171.33374001816492 L 120.27988804478207 172.2194586345702 M 120.27988804478207 176.95398686513988 L 120.27988804478207 177.30244538943793 M 129.1763294682127 170.49726191650433 L 129.1763294682127 171.95227194069625 M 129.1763294682127 172.21951414811556 L 129.1763294682127 174.14627828087606 M 155.8656537385046 167.9821097163493 L 155.8656537385046 169.41968848729454 M 155.8656537385046 173.81636128073214 L 155.8656537385046 175.75939088228654 M 191.4514194322271 176.5227576446926 L 191.4514194322271 177.4145272375434 M 191.4514194322271 180.63608930255313 L 191.4514194322271 182.15699390510122 M 200.34786085565773 173.860550062848 L 200.34786085565773 174.83237018812474 M 200.34786085565773 177.41458275108877 L 200.34786085565773 178.54061950540807 M 209.24430227908834 165.51625354448436 L 209.24430227908834 166.4449396450073 M 209.24430227908834 174.83231467457938 L 209.24430227908834 174.83237018812474 M 227.0371851259496 168.4093974750752 L 227.0371851259496 169.17498477929612 M 227.0371851259496 171.61275109720302 L 227.0371851259496 174.0273682666899 M 235.93362654938022 166.98825071356 L 235.93362654938022 167.96584424755542 M 235.93362654938022 169.1750402928415 L 235.93362654938022 171.04518060932287 M 253.72650939624148 169.32537097370803 L 253.72650939624148 169.48824771582855 M 253.72650939624148 172.248103623982 L 253.72650939624148 173.08363799537122 M 262.6229508196721 167.97639182117604 L 262.6229508196721 168.31280390612847 M 262.6229508196721 169.48824771582855 L 262.6229508196721 171.101804425602 M 289.31227508996403 172.3088354426186 L 289.31227508996403 172.85447808007692 M 289.31227508996403 174.06006574491383 L 289.31227508996403 177.80228935196462 M 316.0015993602559 170.59296726872512 L 316.0015993602559 171.36999036329263 M 316.0015993602559 175.6565242827128 L 316.0015993602559 175.7444022250362 M 324.89804078368655 168.02635401201056 L 324.89804078368655 169.33652919632772 M 324.89804078368655 171.36999036329263 L 324.89804078368655 171.91163602548417 M 333.7944822071172 168.370537993315 L 333.7944822071172 168.79166374850462 M 333.7944822071172 169.33652919632772 L 333.7944822071172 170.3079607267869 M 342.6909236305478 167.14368864060071 L 342.6909236305478 167.94069661150203 M 342.6909236305478 168.78861050350918 L 342.6909236305478 170.03039299992844 M 351.5873650539784 156.09649311163503 L 351.5873650539784 157.34266117813866 M 351.5873650539784 167.94069661150203 L 351.5873650539784 168.7613533527317 M 360.483806477409 143.66145894837715 L 360.483806477409 149.2285793324314 M 360.483806477409 157.34266117813866 L 360.483806477409 157.9284401089007 M 369.38024790083966 146.51940729120233 L 369.38024790083966 147.50638261436558 M 369.38024790083966 149.22863484597679 L 369.38024790083966 151.71092302727175 M 378.2766893242703 141.59929727845508 L 378.2766893242703 143.54149417682893 M 378.2766893242703 147.50638261436558 L 378.2766893242703 149.4903812124043 M 404.9660135945622 143.4555036950482 L 404.9660135945622 143.6015598329211 M 404.9660135945622 149.6575880110638 L 404.9660135945622 151.69204842184539 M 422.7588964414235 143.6923799931492 L 422.7588964414235 144.0544948496087 M 422.7588964414235 146.81246329721947 L 422.7588964414235 149.74896330674562 M 431.65533786485406 138.16639514621534 L 431.65533786485406 138.59601447384682 M 431.65533786485406 144.0556606340615 L 431.65533786485406 145.69547525079577 M 440.5517792882847 126.63528804224465 L 440.5517792882847 128.70949615151235 M 440.5517792882847 138.59601447384682 L 440.5517792882847 139.77551077235904 M 458.34466213514594 123.12144716085298 L 458.34466213514594 125.45629136564077 M 458.34466213514594 129.88555061021154 L 458.34466213514594 130.887792158352 M 467.2411035585766 123.62106906919817 L 467.2411035585766 123.75985293262738 M 467.2411035585766 125.4562358520954 L 467.2411035585766 132.11464151106628 M 476.13754498200717 114.81662077324862 L 476.13754498200717 115.48533694079595 M 476.13754498200717 123.75985293262738 L 476.13754498200717 124.12069097754335 M 485.0339864054379 113.12900899394933 L 485.0339864054379 115.2183723011035 M 485.0339864054379 115.48528142725058 L 485.0339864054379 121.17847307284394 M 493.93042782886846 111.46360263279873 L 493.93042782886846 112.95308656866646 M 493.93042782886846 115.2183723011035 L 493.93042782886846 116.87856038898919 M 502.82686925229905 90.92359084527455 L 502.82686925229905 97.15037868898055 M 502.82686925229905 112.95303105512107 L 502.82686925229905 115.09124628220235 M 511.7233106757297 82.71807819034012 L 511.7233106757297 92.58871963869828 M 511.7233106757297 97.16081523551043 L 511.7233106757297 98.34580737501446 M 529.5161935225909 85.03915503587574 L 529.5161935225909 87.31781953274738 M 529.5161935225909 98.19725312759984 L 529.5161935225909 109.79819627164811 M 538.4126349460215 70.72104590006487 L 538.4126349460215 71.66394346820294 M 538.4126349460215 87.31781953274738 L 538.4126349460215 90.99020709972056 M 547.3090763694522 51.703271040177725 L 547.3090763694522 56.88113044408573 M 547.3090763694522 71.66394346820294 L 547.3090763694522 74.26952723376846 M 556.2055177928828 42.90437409876532 L 556.2055177928828 50.494130508436996 M 556.2055177928828 56.88002017317825 L 556.2055177928828 73.15925632633473 M 600.687724910036 65.66492770115698 L 600.687724910036 68.3219170097367 M 600.687724910036 86.76479359375462 L 600.687724910036 96.03083701946974 M 609.5841663334666 53.174379992527406 L 609.5841663334666 58.4786992527921 M 609.5841663334666 68.3219170097367 L 609.5841663334666 72.04215725282023 M 645.169932027189 67.77538615555238 L 645.169932027189 72.4305300162406 M 645.169932027189 76.90647615246897 L 645.169932027189 82.5965590395215 M 680.7556977209116 88.00063614081913 L 680.7556977209116 92.89337797569812 M 680.7556977209116 104.51336226580888 L 680.7556977209116 115.62711853567524 M 698.5485805677728 92.19485103428617 L 698.5485805677728 96.6975546993837 M 698.5485805677728 97.7073460896947 L 698.5485805677728 104.24684173447942 M 716.3414634146341 93.0226690228688 L 716.3414634146341 95.54359463174245 M 716.3414634146341 96.72925293379096 L 716.3414634146341 104.5945230691423 M 734.1343462614954 88.23684627637563 L 734.1343462614954 90.56352998999377 M 734.1343462614954 107.23241571811411 L 734.1343462614954 110.11961969935018 M 743.0307876849259 61.87945904226163 L 743.0307876849259 85.63759105498252 M 743.0307876849259 90.54509949293039 L 743.0307876849259 98.60999633743832 M 751.9272291083566 81.85822888607808 L 751.9272291083566 85.57830258852557 M 751.9272291083566 85.67045507384256 L 751.9272291083566 93.56048425042968 M 769.7201119552178 83.05582260038149 L 769.7201119552178 89.66693071869565 M 769.7201119552178 92.07288777510459 L 769.7201119552178 96.49626258386597 M 778.6165533786485 76.02192332051649 L 778.6165533786485 78.89802459267825 M 778.6165533786485 89.7184472888006 L 778.6165533786485 90.26853100988863 M 787.512994802079 66.70508500078628 L 787.512994802079 66.94801227533279 M 787.512994802079 78.86210732882274 L 787.512994802079 79.47458827490858 M 805.3058776489403 63.11063845151489 L 805.3058776489403 63.220999379713845 M 805.3058776489403 70.73525736767999 L 805.3058776489403 72.7706615087329 M 814.202319072371 48.425140672434225 L 814.202319072371 58.24309976623465 M 814.202319072371 63.226106625888036 L 814.202319072371 63.63346502182546 M 831.9952019192323 16.01111461117847 L 831.9952019192323 18.340351947883676 M 831.9952019192323 60.415067228901904 L 831.9952019192323 64.89390006948963 M 840.8916433426629 8.529332047254684 L 840.8916433426629 18.08748774871566 M 840.8916433426629 18.340407461429066 L 840.8916433426629 26.18874596544208 M 858.6845261895241 5.549864553610917 L 858.6845261895241 9.487939948733015 M 858.6845261895241 27.040934400442808 L 858.6845261895241 31.55729439770178" style="stroke-width: 1px;"></path><path class="candle wick down" d="M 4.626149540183927 188.3303222046143 L 4.626149540183927 189.29398183872144 M 4.626149540183927 193.52205999486523 L 4.626149540183927 196.15384615384616 M 22.41903238704518 187.85024106423995 L 22.41903238704518 189.87593033485282 M 22.41903238704518 190.6902585319101 L 22.41903238704518 193.5928952787595 M 31.315473810475808 189.95975578836408 L 31.315473810475808 190.6902585319101 M 31.315473810475808 190.86346079346976 L 31.315473810475808 192.11112772569842 M 66.90123950419832 185.14678691818418 L 66.90123950419832 185.1853688322175 M 66.90123950419832 186.57093141114945 L 66.90123950419832 188.79397133555864 M 75.79768092762893 185.9627805216026 L 75.79768092762893 186.57587211668752 M 75.79768092762893 187.20073258339121 L 75.79768092762893 188.21263348842635 M 138.07277089164333 171.69579936107905 L 138.07277089164333 171.95227194069625 M 138.07277089164333 173.55866740311677 L 138.07277089164333 178.0195693685494 M 146.96921231507397 171.60697768848436 L 146.96921231507397 173.56172064811219 M 146.96921231507397 173.8164167942775 L 146.96921231507397 175.85931526395558 M 164.7620951619352 167.61993934634444 L 164.7620951619352 169.4197440008399 M 164.7620951619352 171.8672807027322 L 164.7620951619352 173.08213912964618 M 173.65853658536582 170.77965932181013 L 173.65853658536582 171.8688350820026 M 173.65853658536582 180.58090883845367 L 173.65853658536582 185.91836968530527 M 182.55497800879647 178.87025893782516 L 182.55497800879647 180.58090883845367 M 182.55497800879647 180.6361448160985 L 182.55497800879647 184.5300869426501 M 218.14074370251896 165.3783578977811 L 218.14074370251896 166.4449396450073 M 218.14074370251896 171.61275109720302 L 218.14074370251896 175.85309774687397 M 244.83006797281087 167.382396885699 L 244.83006797281087 167.96340165155905 M 244.83006797281087 172.2480481104366 L 244.83006797281087 172.72107903054874 M 271.51939224310274 167.9713400885472 L 271.51939224310274 168.3168563949406 M 271.51939224310274 169.38143965453344 L 271.51939224310274 170.8471082794367 M 280.4158336665334 168.67119935504806 L 280.4158336665334 169.38143965453344 M 280.4158336665334 174.06006574491383 L 280.4158336665334 174.74904435652184 M 298.2087165133947 172.76543435330072 L 298.2087165133947 172.85442256653153 M 298.2087165133947 174.44577385815631 L 298.2087165133947 176.35271965521915 M 307.10515793682526 174.2342672502902 L 307.10515793682526 174.44477461433962 M 307.10515793682526 175.6565242827128 L 307.10515793682526 178.2334630588665 M 387.1731307477009 140.91353845247863 L 387.1731307477009 143.54154969037432 M 387.1731307477009 145.573789559341 L 387.1731307477009 147.76946130588198 M 396.06957217113154 141.9806753351586 L 396.06957217113154 145.57367853225026 M 396.06957217113154 149.65853174133514 L 396.06957217113154 154.680897704657 M 413.86245501799283 141.99605258722653 L 413.86245501799283 143.6015598329211 M 413.86245501799283 146.81040929604075 L 413.86245501799283 150.32308439297958 M 449.44822071171535 118.00309827758343 L 449.44822071171535 128.70944063796696 M 449.44822071171535 129.88488444766708 L 449.44822071171535 133.11388532775663 M 520.6197520991603 89.25818448412394 L 520.6197520991603 92.58871963869828 M 520.6197520991603 98.20302653631849 L 520.6197520991603 119.6240938024367 M 565.1019592163135 46.06864618495149 L 565.1019592163135 50.471092387107774 M 565.1019592163135 53.23977494897528 L 565.1019592163135 60.83524925382022 M 573.998400639744 46.23518682106655 L 573.998400639744 53.23977494897528 M 573.998400639744 63.99941031291564 L 573.998400639744 80.86947712946295 M 582.8948420631747 63.36255892041166 L 582.8948420631747 63.99941031291564 M 582.8948420631747 79.24093176243913 L 582.8948420631747 106.91149191232039 M 591.7912834866053 72.44868294557713 L 591.7912834866053 79.20817877066983 M 591.7912834866053 86.75319126277195 L 591.7912834866053 95.19258248435727 M 618.4806077568971 55.12978911469969 L 618.4806077568971 58.474757791070715 M 618.4806077568971 71.81460723034172 L 618.4806077568971 84.77269001809162 M 627.3770491803277 65.10979224744011 L 627.3770491803277 71.84119821857476 M 627.3770491803277 75.96280139469565 L 627.3770491803277 79.50001347868879 M 636.2734906037584 71.20240385198275 L 636.2734906037584 75.96280139469565 M 636.2734906037584 76.88638024904442 L 636.2734906037584 87.87034584983175 M 654.0663734506197 65.66492770115698 L 654.0663734506197 72.47943744971306 M 654.0663734506197 76.53731107574725 L 654.0663734506197 76.80061182144517 M 662.9628148740503 73.62940054208755 L 662.9628148740503 76.47929942083383 M 662.9628148740503 78.88697739714925 L 662.9628148740503 90.36845539155766 M 671.8592562974809 78.15547540978656 L 671.8592562974809 78.88697739714925 M 671.8592562974809 104.52368778524801 L 671.8592562974809 108.84891464579226 M 689.6521391443422 90.05757953747624 L 689.6521391443422 92.86656493328358 M 689.6521391443422 97.7073460896947 L 689.6521391443422 101.52578979454081 M 707.4450219912034 82.18020744923385 L 707.4450219912034 96.70005280892542 M 707.4450219912034 96.72919742024557 L 707.4450219912034 98.63997365193904 M 725.2379048380647 95.04663737357511 L 725.2379048380647 95.5644677248022 M 725.2379048380647 107.21043235414692 L 725.2379048380647 113.45254193637551 M 760.8236705317872 85.1352489829141 L 760.8236705317872 85.57824707498018 M 760.8236705317872 92.0728322615592 L 760.8236705317872 97.1873507101981 M 796.4094362255097 60.9003666425412 L 796.4094362255097 66.94029589252611 M 796.4094362255097 70.73520185413463 L 796.4094362255097 75.03589172762462 M 823.0987604958016 55.394921807394894 L 823.0987604958016 58.27601929864005 M 823.0987604958016 60.415067228901904 L 823.0987604958016 68.43505361520417 M 849.7880847660936 13.149113779541096 L 849.7880847660936 18.08748774871566 M 849.7880847660936 27.040934400442808 L 849.7880847660936 33.039617086216566 M 867.5809676129546 3.8461538461537828 L 867.5809676129546 9.492658600089555 M 867.5809676129546 13.273464121173731 L 867.5809676129546 19.727468906086045 M 876.4774090363853 8.485975968319423 L 876.4774090363853 13.214897330806593 M 876.4774090363853 14.016846007245931 L 876.4774090363853 19.297072388819345 M 885.3738504598159 13.260307410920603 L 885.3738504598159 13.999692321726116 M 885.3738504598159 14.081519287603982 L 885.3738504598159 14.791370992271737" style="stroke-width: 1px;"></path><path class="candle wick equal" style="stroke-width: 1px;"></path></g></g><g class="x axis" transform="translate(0,200)" fill="none" font-size="10" font-family="sans-serif" text-anchor="middle"><path class="domain" stroke="#000" d="M0.5,6V0.5H890.5V6"></path><g class="tick" opacity="1" transform="translate(22.41903238704518,0)"><line stroke="#000" y2="6" x1="0.5" x2="0.5"></line><text fill="#000" y="9" x="0.5" dy="0.71em">Nov  9</text></g><g class="tick" opacity="1" transform="translate(84.69412235105956,0)"><line stroke="#000" y2="6" x1="0.5" x2="0.5"></line><text fill="#000" y="9" x="0.5" dy="0.71em">Nov 16</text></g><g class="tick" opacity="1" transform="translate(146.96921231507397,0)"><line stroke="#000" y2="6" x1="0.5" x2="0.5"></line><text fill="#000" y="9" x="0.5" dy="0.71em">Nov 23</text></g><g class="tick" opacity="1" transform="translate(209.24430227908834,0)"><line stroke="#000" y2="6" x1="0.5" x2="0.5"></line><text fill="#000" y="9" x="0.5" dy="0.71em">Nov 30</text></g><g class="tick" opacity="1" transform="translate(271.51939224310274,0)"><line stroke="#000" y2="6" x1="0.5" x2="0.5"></line><text fill="#000" y="9" x="0.5" dy="0.71em">Dec  7</text></g><g class="tick" opacity="1" transform="translate(333.7944822071172,0)"><line stroke="#000" y2="6" x1="0.5" x2="0.5"></line><text fill="#000" y="9" x="0.5" dy="0.71em">Dec 14</text></g><g class="tick" opacity="1" transform="translate(396.06957217113154,0)"><line stroke="#000" y2="6" x1="0.5" x2="0.5"></line><text fill="#000" y="9" x="0.5" dy="0.71em">Dec 21</text></g><g class="tick" opacity="1" transform="translate(458.34466213514594,0)"><line stroke="#000" y2="6" x1="0.5" x2="0.5"></line><text fill="#000" y="9" x="0.5" dy="0.71em">Dec 28</text></g><g class="tick" opacity="1" transform="translate(520.6197520991603,0)"><line stroke="#000" y2="6" x1="0.5" x2="0.5"></line><text fill="#000" y="9" x="0.5" dy="0.71em">Jan  4</text></g><g class="tick" opacity="1" transform="translate(582.8948420631747,0)"><line stroke="#000" y2="6" x1="0.5" x2="0.5"></line><text fill="#000" y="9" x="0.5" dy="0.71em">Jan 11</text></g><g class="tick" opacity="1" transform="translate(645.169932027189,0)"><line stroke="#000" y2="6" x1="0.5" x2="0.5"></line><text fill="#000" y="9" x="0.5" dy="0.71em">Jan 18</text></g><g class="tick" opacity="1" transform="translate(707.4450219912034,0)"><line stroke="#000" y2="6" x1="0.5" x2="0.5"></line><text fill="#000" y="9" x="0.5" dy="0.71em">Jan 25</text></g><g class="tick" opacity="1" transform="translate(769.7201119552178,0)"><line stroke="#000" y2="6" x1="0.5" x2="0.5"></line><text fill="#000" y="9" x="0.5" dy="0.71em">Feb  1</text></g><g class="tick" opacity="1" transform="translate(831.9952019192323,0)"><line stroke="#000" y2="6" x1="0.5" x2="0.5"></line><text fill="#000" y="9" x="0.5" dy="0.71em">Feb  8</text></g></g><g class="y axis" fill="none" font-size="10" font-family="sans-serif" text-anchor="end"><path class="domain" stroke="#000" d="M-6,200.5H0.5V0.5H-6"></path><g class="tick" opacity="1" transform="translate(0,192.51337887546165)"><line stroke="#000" x2="-6" y1="0.5" y2="0.5"></line><text fill="#000" x="-9" y="0.5" dy="0.32em">15,000</text></g><g class="tick" opacity="1" transform="translate(0,164.7566061896182)"><line stroke="#000" x2="-6" y1="0.5" y2="0.5"></line><text fill="#000" x="-9" y="0.5" dy="0.32em">20,000</text></g><g class="tick" opacity="1" transform="translate(0,136.9998335037747)"><line stroke="#000" x2="-6" y1="0.5" y2="0.5"></line><text fill="#000" x="-9" y="0.5" dy="0.32em">25,000</text></g><g class="tick" opacity="1" transform="translate(0,109.24306081793124)"><line stroke="#000" x2="-6" y1="0.5" y2="0.5"></line><text fill="#000" x="-9" y="0.5" dy="0.32em">30,000</text></g><g class="tick" opacity="1" transform="translate(0,81.48628813208776)"><line stroke="#000" x2="-6" y1="0.5" y2="0.5"></line><text fill="#000" x="-9" y="0.5" dy="0.32em">35,000</text></g><g class="tick" opacity="1" transform="translate(0,53.72951544624428)"><line stroke="#000" x2="-6" y1="0.5" y2="0.5"></line><text fill="#000" x="-9" y="0.5" dy="0.32em">40,000</text></g><g class="tick" opacity="1" transform="translate(0,25.97274276040082)"><line stroke="#000" x2="-6" y1="0.5" y2="0.5"></line><text fill="#000" x="-9" y="0.5" dy="0.32em">45,000</text></g><text transform="rotate(-90)" y="6" dy=".71em" style="text-anchor: end;">Price ($)</text></g></g></svg>