<?xml version="1.0" encoding="utf-8"?>
<!DOCTYPE svg PUBLIC "-//W3C//DTD SVG 1.1//EN" "http://www.w3.org/Graphics/SVG/1.1/DTD/svg11.dtd">
<svg version="1.1" xmlns="http://www.w3.org/2000/svg" width="960" height="250"><g transform="translate(50,20)"><style>.axis path,.axis line{fill:none;stroke:#000;shape-rendering:crispEdges;}path.candle{stroke:#000000;}path.candle.body{stroke-width:0;}path.candle.up{fill:#00AA00;stroke:#00AA00;}path.candle.down{fill:#FF0000;stroke:#FF0000;}</style><g class="candlestick"><g class="data"><path class="candle body up" d="M 18.860455817672932 82.51106848134731 l 7.1171531387445 0 L 25.977608956417434 76.78482731614586 l -7.1171531387445 0 L 18.860455817672932 82.51106848134731 M 27.75689724110356 76.78482731614586 l 7.1171531387445 0 L 34.87405037984806 52.0246289902791 l -7.1171531387445 0 L 27.75689724110356 76.78482731614586 M 54.446221511395436 76.79300083104594 l 7.1171531387445 0 L 61.563374650139934 76.19317278946207 l -7.1171531387445 0 L 54.446221511395436 76.79300083104594 M 72.23910435825668 84.13543890479586 l 7.1171531387445 0 L 79.35625749700118 69.53090995093666 l -7.1171531387445 0 L 72.23910435825668 84.13543890479586 M 90.03198720511796 72.54616586276288 l 7.1171531387445 0 L 97.14914034386246 58.40698749779156 l -7.1171531387445 0 L 90.03198720511796 72.54616586276288 M 107.82487005197919 59.91916486294153 l 7.1171531387445 0 L 114.94202319072369 53.444969975749586 l -7.1171531387445 0 L 107.82487005197919 59.91916486294153 M 116.72131147540982 53.444969975749586 l 7.1171531387445 0 L 123.83846461415432 50.02427688142589 l -7.1171531387445 0 L 116.72131147540982 53.444969975749586 M 143.4106357457017 59.26859934207209 l 7.1171531387445 0 L 150.5277888844462 48.76740619395744 l -7.1171531387445 0 L 143.4106357457017 59.26859934207209 M 152.30707716913233 48.76740619395744 l 7.1171531387445 0 L 159.42423030787683 44.768321257504766 l -7.1171531387445 0 L 152.30707716913233 48.76740619395744 M 161.20351859256294 44.768321257504766 l 7.1171531387445 0 L 168.32067173130744 36.21928732378515 l -7.1171531387445 0 L 161.20351859256294 44.768321257504766 M 170.09996001599356 36.21928732378515 l 7.1171531387445 0 L 177.21711315473806 33.73870266023536 l -7.1171531387445 0 L 170.09996001599356 36.21928732378515 M 178.9964014394242 33.73870266023536 l 7.1171531387445 0 L 186.1135545781687 32.211103568858846 l -7.1171531387445 0 L 178.9964014394242 33.73870266023536 M 187.89284286285485 32.211103568858846 l 7.1171531387445 0 L 195.00999600159935 14.348966275522258 l -7.1171531387445 0 L 187.89284286285485 32.211103568858846 M 196.78928428628546 14.348966275522258 l 7.1171531387445 0 L 203.90643742502996 12.078502631810068 l -7.1171531387445 0 L 196.78928428628546 14.348966275522258 M 205.68572570971608 12.078502631810068 l 7.1171531387445 0 L 212.80287884846058 9.668163931222466 l -7.1171531387445 0 L 205.68572570971608 12.078502631810068 M 232.37504998000796 24.50733444961952 l 7.1171531387445 0 L 239.49220311875246 18.54575774220001 l -7.1171531387445 0 L 232.37504998000796 24.50733444961952 M 250.16793282686922 22.189140563235952 l 7.1171531387445 0 L 257.28508596561375 17.590690236986262 l -7.1171531387445 0 L 250.16793282686922 22.189140563235952 M 259.06437425029986 17.590613128355102 l 7.1171531387445 0 L 266.1815273890444 16.25547718028656 l -7.1171531387445 0 L 259.06437425029986 17.590613128355102 M 285.7536985205918 42.54982883117623 l 7.1171531387445 0 L 292.8708516593363 40.43921137980274 l -7.1171531387445 0 L 285.7536985205918 42.54982883117623 M 303.54658136745303 49.631871057589876 l 7.1171531387445 0 L 310.66373450619756 45.76140331786712 l -7.1171531387445 0 L 303.54658136745303 49.631871057589876 M 330.23590563774496 70.61752478086342 l 7.1171531387445 0 L 337.3530587764895 66.41903692430074 l -7.1171531387445 0 L 330.23590563774496 70.61752478086342 M 339.13234706117555 66.41895981566967 l 7.1171531387445 0 L 346.2495001999201 58.14643743319303 l -7.1171531387445 0 L 339.13234706117555 66.41895981566967 M 356.9252299080368 67.44126604723141 l 7.1171531387445 0 L 364.0423830467813 62.74126365377947 l -7.1171531387445 0 L 356.9252299080368 67.44126604723141 M 383.61455417832866 69.47893873355301 l 7.1171531387445 0 L 390.7317073170732 60.81948524005088 l -7.1171531387445 0 L 383.61455417832866 69.47893873355301 M 392.5109956017593 60.81948524005088 l 7.1171531387445 0 L 399.62814874050383 55.483182422489136 l -7.1171531387445 0 L 392.5109956017593 60.81948524005088 M 436.99320271891247 71.30255785984929 l 7.1171531387445 0 L 444.110355857657 71.23686130612396 l -7.1171531387445 0 L 436.99320271891247 71.30255785984929 M 445.8896441423431 71.23693841475506 l 7.1171531387445 0 L 453.00679728108764 63.71144445069535 l -7.1171531387445 0 L 445.8896441423431 71.23693841475506 M 463.68252698920435 81.55006361153632 l 7.1171531387445 0 L 470.7996801279489 72.89014746624736 l -7.1171531387445 0 L 463.68252698920435 81.55006361153632 M 472.57896841263494 72.89014746624736 l 7.1171531387445 0 L 479.69612155137946 68.98575192882609 l -7.1171531387445 0 L 472.57896841263494 72.89014746624736 M 499.2682926829268 85.26546589405046 l 7.1171531387445 0 L 506.38544582167134 78.80723249350312 l -7.1171531387445 0 L 499.2682926829268 85.26546589405046 M 508.16473410635746 78.80723249350312 l 7.1171531387445 0 L 515.281887245102 78.3691783600363 l -7.1171531387445 0 L 508.16473410635746 78.80723249350312 M 525.9576169532187 84.50864467947976 l 7.1171531387445 0 L 533.0747700919632 69.38725657113582 l -7.1171531387445 0 L 525.9576169532187 84.50864467947976 M 579.3362654938024 143.5331427701467 l 7.1171531387445 0 L 586.4534186325469 136.2628012665062 l -7.1171531387445 0 L 579.3362654938024 143.5331427701467 M 606.0255897640943 151.5870621833611 l 7.1171531387445 0 L 613.1427429028388 149.60297999567698 l -7.1171531387445 0 L 606.0255897640943 151.5870621833611 M 614.9220311875249 149.60297999567698 l 7.1171531387445 0 L 622.0391843262694 143.43667987259923 l -7.1171531387445 0 L 614.9220311875249 149.60297999567698 M 623.8184726109555 143.43667987259923 l 7.1171531387445 0 L 630.9356257497 133.85863125640924 l -7.1171531387445 0 L 623.8184726109555 143.43667987259923 M 641.6113554578168 145.07701178269232 l 7.1171531387445 0 L 648.7285085965613 140.67472581404505 l -7.1171531387445 0 L 641.6113554578168 145.07701178269232 M 659.4042383046781 154.01143465481488 l 7.1171531387445 0 L 666.5213914434225 141.64398130738732 l -7.1171531387445 0 L 659.4042383046781 154.01143465481488 M 677.1971211515394 150.2664226579456 l 7.1171531387445 0 L 684.3142742902838 148.38458651514387 l -7.1171531387445 0 L 677.1971211515394 150.2664226579456 M 686.09356257497 148.38450940651273 l 7.1171531387445 0 L 693.2107157137144 141.83898903552276 l -7.1171531387445 0 L 686.09356257497 148.38450940651273 M 703.8864454218311 150.9748196521648 l 7.1171531387445 0 L 711.0035985605756 146.76900647564452 l -7.1171531387445 0 L 703.8864454218311 150.9748196521648 M 739.4722111155537 154.67086766826458 l 7.1171531387445 0 L 746.5893642542982 151.57480191101092 l -7.1171531387445 0 L 739.4722111155537 154.67086766826458 M 748.3686525389844 151.57480191101092 l 7.1171531387445 0 L 755.4858056777289 148.20692822901339 l -7.1171531387445 0 L 748.3686525389844 151.57480191101092 M 757.265093962415 148.20692822901339 l 7.1171531387445 0 L 764.3822471011595 130.7331871106939 l -7.1171531387445 0 L 757.265093962415 148.20692822901339 M 766.1615353858456 130.7331100020628 l 7.1171531387445 0 L 773.27868852459 130.21794723746297 l -7.1171531387445 0 L 766.1615353858456 130.7331100020628 M 783.9544182327068 145.60266132112622 l 7.1171531387445 0 L 791.0715713714512 140.61542927670376 l -7.1171531387445 0 L 783.9544182327068 145.60266132112622 M 801.747301079568 146.41715979178448 l 7.1171531387445 0 L 808.8644542183125 145.15388908793193 l -7.1171531387445 0 L 801.747301079568 146.41715979178448 M 810.6437425029987 145.1539661965631 l 7.1171531387445 0 L 817.7608956417432 144.728480769971 l -7.1171531387445 0 L 810.6437425029987 145.1539661965631 M 819.5401839264293 144.72855787860212 l 7.1171531387445 0 L 826.6573370651738 133.51773399817012 l -7.1171531387445 0 L 819.5401839264293 144.72855787860212"></path><path class="candle body down" d="M 1.0675729708116766 71.63905992611384 l 7.1171531387445 0 L 8.184726109556177 79.17380692590956 l -7.1171531387445 0 L 1.0675729708116766 71.63905992611384 M 9.964014394242305 79.17388403454066 l 7.1171531387445 0 L 17.081167532986804 82.51114558997845 l -7.1171531387445 0 L 9.964014394242305 79.17388403454066 M 36.65333866453418 52.02470609891026 l 7.1171531387445 0 L 43.77049180327868 71.45376788550118 l -7.1171531387445 0 L 36.65333866453418 52.02470609891026 M 45.54978008796481 71.45369077687002 l 7.1171531387445 0 L 52.66693322670931 76.79300083104594 l -7.1171531387445 0 L 45.54978008796481 71.45369077687002 M 63.342662934826066 76.19324989809321 l 7.1171531387445 0 L 70.45981607357056 84.13551601342701 l -7.1171531387445 0 L 63.342662934826066 76.19324989809321 M 81.13554578168731 69.53090995093666 l 7.1171531387445 0 L 88.25269892043181 72.54616586276288 l -7.1171531387445 0 L 81.13554578168731 69.53090995093666 M 98.92842862854857 58.40691038916043 l 7.1171531387445 0 L 106.04558176729307 59.9190877543104 l -7.1171531387445 0 L 98.92842862854857 58.40691038916043 M 125.61775289884046 50.02427688142589 l 7.1171531387445 0 L 132.73490603758498 57.264931562080164 l -7.1171531387445 0 L 125.61775289884046 50.02427688142589 M 134.51419432227107 57.264931562080164 l 7.1171531387445 0 L 141.63134746101557 59.26867645070325 l -7.1171531387445 0 L 134.51419432227107 57.264931562080164 M 214.5821671331467 9.668241039853626 l 7.1171531387445 0 L 221.6993202718912 12.496585629813382 l -7.1171531387445 0 L 214.5821671331467 9.668241039853626 M 223.47860855657734 12.496585629813382 l 7.1171531387445 0 L 230.59576169532184 24.50741155825068 l -7.1171531387445 0 L 223.47860855657734 12.496585629813382 M 241.2714914034386 18.54575774220001 l 7.1171531387445 0 L 248.3886445421831 22.18906345460482 l -7.1171531387445 0 L 241.2714914034386 18.54575774220001 M 267.9608156737305 16.255554288917722 l 7.1171531387445 0 L 275.07796881247504 24.60603349746978 l -7.1171531387445 0 L 267.9608156737305 16.255554288917722 M 276.85725709716115 24.60611060610094 l 7.1171531387445 0 L 283.9744102359057 42.54982883117623 l -7.1171531387445 0 L 276.85725709716115 24.60611060610094 M 294.65013994402244 40.43913427117167 l 7.1171531387445 0 L 301.76729308276697 49.63194816622098 l -7.1171531387445 0 L 294.65013994402244 40.43913427117167 M 312.4430227908837 45.76148042649828 l 7.1171531387445 0 L 319.5601759296282 50.35029217385636 l -7.1171531387445 0 L 312.4430227908837 45.76148042649828 M 321.3394642143143 50.35029217385636 l 7.1171531387445 0 L 328.45661735305885 70.61752478086342 l -7.1171531387445 0 L 321.3394642143143 50.35029217385636 M 348.02878848460614 58.14651454182419 l 7.1171531387445 0 L 355.14594162335067 67.4411889386003 l -7.1171531387445 0 L 348.02878848460614 58.14651454182419 M 365.8216713314674 62.74126365377947 l 7.1171531387445 0 L 372.93882447021196 64.07670803637254 l -7.1171531387445 0 L 365.8216713314674 62.74126365377947 M 374.7181127548981 64.0767851450037 l 7.1171531387445 0 L 381.8352658936426 69.47886162492185 l -7.1171531387445 0 L 374.7181127548981 64.0767851450037 M 401.40743702518995 55.483105313857976 l 7.1171531387445 0 L 408.5245901639345 56.52407183415394 l -7.1171531387445 0 L 401.40743702518995 55.483105313857976 M 410.3038784486206 56.52407183415394 l 7.1171531387445 0 L 417.4210315873651 63.29559760299489 l -7.1171531387445 0 L 410.3038784486206 56.52407183415394 M 419.20031987205124 63.29559760299489 l 7.1171531387445 0 L 426.31747301079577 69.23936221662265 l -7.1171531387445 0 L 419.20031987205124 63.29559760299489 M 428.0967612954818 69.23928510799152 l 7.1171531387445 0 L 435.21391443422635 71.30263496848045 l -7.1171531387445 0 L 428.0967612954818 69.23928510799152 M 454.7860855657737 63.71144445069535 l 7.1171531387445 0 L 461.90323870451823 81.54998650290517 l -7.1171531387445 0 L 454.7860855657737 63.71144445069535 M 481.47540983606564 68.98582903745725 l 7.1171531387445 0 L 488.59256297481016 77.82209262214744 l -7.1171531387445 0 L 481.47540983606564 68.98582903745725 M 490.3718512594962 77.82209262214744 l 7.1171531387445 0 L 497.48900439824075 85.26546589405046 l -7.1171531387445 0 L 490.3718512594962 77.82209262214744 M 517.0611755297881 78.3691783600363 l 7.1171531387445 0 L 524.1783286685326 84.50864467947976 l -7.1171531387445 0 L 517.0611755297881 78.3691783600363 M 534.8540583766493 69.38725657113582 l 7.1171531387445 0 L 541.9712115153937 93.57646548346243 l -7.1171531387445 0 L 534.8540583766493 69.38725657113582 M 543.75049980008 93.57646548346243 l 7.1171531387445 0 L 550.8676529388244 97.73416287415574 l -7.1171531387445 0 L 543.75049980008 93.57646548346243 M 552.6469412235106 97.73416287415574 l 7.1171531387445 0 L 559.764094362255 101.908669946436 l -7.1171531387445 0 L 552.6469412235106 97.73416287415574 M 561.5433826469413 101.90859283780486 l 7.1171531387445 0 L 568.6605357856857 112.96597054228215 l -7.1171531387445 0 L 561.5433826469413 101.90859283780486 M 570.4398240703717 112.9660476509133 l 7.1171531387445 0 L 577.5569772091162 143.517104174871 l -7.1171531387445 0 L 570.4398240703717 112.9660476509133 M 588.232706917233 136.26272415787503 l 7.1171531387445 0 L 595.3498600559775 151.014916140354 l -7.1171531387445 0 L 588.232706917233 136.26272415787503 M 597.1291483406637 151.014916140354 l 7.1171531387445 0 L 604.2463014794082 151.58698507472997 l -7.1171531387445 0 L 597.1291483406637 151.014916140354 M 632.7149140343862 133.85863125640924 l 7.1171531387445 0 L 639.8320671731307 145.07701178269232 l -7.1171531387445 0 L 632.7149140343862 133.85863125640924 M 650.5077968812475 140.67472581404505 l 7.1171531387445 0 L 657.624950019992 154.011511763446 l -7.1171531387445 0 L 650.5077968812475 140.67472581404505 M 668.3006797281087 141.64405841601842 l 7.1171531387445 0 L 675.4178328668531 150.2664226579456 l -7.1171531387445 0 L 668.3006797281087 141.64405841601842 M 694.9900039984005 141.8390661441539 l 7.1171531387445 0 L 702.107157137145 150.97474254353367 l -7.1171531387445 0 L 694.9900039984005 141.8390661441539 M 712.7828868452618 146.76900647564452 l 7.1171531387445 0 L 719.9000399840063 147.63593881547322 l -7.1171531387445 0 L 712.7828868452618 146.76900647564452 M 721.6793282686924 147.63601592410436 l 7.1171531387445 0 L 728.7964814074369 150.2638009644871 l -7.1171531387445 0 L 721.6793282686924 147.63601592410436 M 730.5757696921231 150.2638009644871 l 7.1171531387445 0 L 737.6929228308676 154.67094477689574 l -7.1171531387445 0 L 730.5757696921231 150.2638009644871 M 775.0579768092763 130.21787012883186 l 7.1171531387445 0 L 782.1751299480208 145.60273842975732 l -7.1171531387445 0 L 775.0579768092763 130.21787012883186 M 792.8508596561375 140.6153521680726 l 7.1171531387445 0 L 799.9680127948819 146.41715979178448 l -7.1171531387445 0 L 792.8508596561375 140.6153521680726 M 828.43662534986 133.51773399817012 l 7.1171531387445 0 L 835.5537784886045 135.4282545517533 l -7.1171531387445 0 L 828.43662534986 133.51773399817012 M 837.3330667732906 135.42833166038446 l 7.1171531387445 0 L 844.4502199120351 142.52656669933603 l -7.1171531387445 0 L 837.3330667732906 135.42833166038446 M 846.2295081967213 142.52656669933603 l 7.1171531387445 0 L 853.3466613354658 143.25786495700174 l -7.1171531387445 0 L 846.2295081967213 142.52656669933603 M 855.1259496201519 143.25786495700174 l 7.1171531387445 0 L 862.2431027588964 151.10790914950041 l -7.1171531387445 0 L 855.1259496201519 143.25786495700174 M 864.0223910435824 151.10798625813158 l 7.1171531387445 0 L 871.1395441823269 156.25244280143428 l -7.1171531387445 0 L 864.0223910435824 151.10798625813158 M 872.9188324670131 156.25236569280315 l 7.1171531387445 0 L 880.0359856057576 170.51885040777512 l -7.1171531387445 0 L 872.9188324670131 156.25236569280315 M 881.8152738904437 170.51885040777512 l 7.1171531387445 0 L 888.9324270291881 195.62287611986406 l -7.1171531387445 0 L 881.8152738904437 170.51885040777512"></path><path class="candle body equal"></path><path class="candle wick up" d="M 22.41903238704518 71.91580280325033 L 22.41903238704518 76.78482731614586 M 22.41903238704518 82.51106848134731 L 22.41903238704518 83.43914796566455 M 31.315473810475808 46.99444743831555 L 31.315473810475808 52.0246289902791 M 31.315473810475808 76.78482731614586 L 31.315473810475808 77.35681914189072 M 58.004798080767685 70.9547979334393 L 58.004798080767685 76.19317278946207 M 58.004798080767685 76.79300083104594 L 58.004798080767685 77.32543592901959 M 75.79768092762893 67.4046394474432 L 75.79768092762893 69.53090995093666 M 75.79768092762893 84.13543890479586 L 75.79768092762893 85.84994931803888 M 93.5905637744902 53.74962617735625 L 93.5905637744902 58.40698749779156 M 93.5905637744902 72.54616586276288 L 93.5905637744902 76.03031936050908 M 111.38344662135144 49.06897805031875 L 111.38344662135144 53.444969975749586 M 111.38344662135144 59.91916486294153 L 111.38344662135144 65.95561405119122 M 120.27988804478207 48.49081753408319 L 120.27988804478207 50.02427688142589 M 120.27988804478207 53.444969975749586 L 120.27988804478207 55.43606904886684 M 146.96921231507397 41.08067808219852 L 146.96921231507397 48.76740619395744 M 146.96921231507397 59.26859934207209 L 146.96921231507397 60.245951241683315 M 155.8656537385046 43.66412565967971 L 155.8656537385046 44.768321257504766 M 155.8656537385046 48.76740619395744 L 155.8656537385046 53.49154358895393 M 164.7620951619352 34.45018399969993 L 164.7620951619352 36.21928732378515 M 164.7620951619352 44.768321257504766 L 164.7620951619352 47.25353243892252 M 173.65853658536582 27.716672786007592 L 173.65853658536582 33.73870266023536 M 173.65853658536582 36.21928732378515 L 173.65853658536582 39.399709923498335 M 182.55497800879647 30.038799212578965 L 182.55497800879647 32.211103568858846 M 182.55497800879647 33.73870266023536 L 182.55497800879647 35.59848573453306 M 191.4514194322271 13.028558076000195 L 191.4514194322271 14.348966275522258 M 191.4514194322271 32.211103568858846 L 191.4514194322271 32.903616185064635 M 200.34786085565773 3.846153846153811 L 200.34786085565773 12.078502631810068 M 200.34786085565773 14.348966275522258 L 200.34786085565773 15.615089998726774 M 209.24430227908834 4.56611713504293 L 209.24430227908834 9.668163931222466 M 209.24430227908834 12.078502631810068 L 209.24430227908834 13.399836134905769 M 235.93362654938022 15.179194906931713 L 235.93362654938022 18.54575774220001 M 235.93362654938022 24.50733444961952 L 235.93362654938022 34.61126393013683 M 253.72650939624148 9.596375795637641 L 253.72650939624148 17.590690236986262 M 253.72650939624148 22.189140563235952 L 253.72650939624148 24.348721995378867 M 262.6229508196721 13.863567442539846 L 262.6229508196721 16.25547718028656 M 262.6229508196721 17.590613128355102 L 262.6229508196721 27.532691592124166 M 289.31227508996403 36.91688910964572 L 289.31227508996403 40.43921137980274 M 289.31227508996403 42.54982883117623 L 289.31227508996403 45.96666649394331 M 307.10515793682526 45.40647228876179 L 307.10515793682526 45.76140331786712 M 307.10515793682526 49.631871057589876 L 307.10515793682526 50.607603675947274 M 333.7944822071172 61.60699568981255 L 333.7944822071172 66.41903692430074 M 333.7944822071172 70.61752478086342 L 333.7944822071172 72.7443350447748 M 342.6909236305478 54.95784131857977 L 342.6909236305478 58.14643743319303 M 342.6909236305478 66.41895981566967 L 342.6909236305478 70.1696007426116 M 360.483806477409 60.28566218671685 L 360.483806477409 62.74126365377947 M 360.483806477409 67.44126604723141 L 360.483806477409 68.79814662927942 M 387.1731307477009 58.385936841492224 L 387.1731307477009 60.81948524005088 M 387.1731307477009 69.47893873355301 L 387.1731307477009 78.28166006370031 M 396.06957217113154 53.425769926597496 L 396.06957217113154 55.483182422489136 M 396.06957217113154 60.81948524005088 L 396.06957217113154 62.59398616831538 M 440.5517792882847 67.45954079280995 L 440.5517792882847 71.23686130612396 M 440.5517792882847 71.30255785984929 L 440.5517792882847 75.25044266522956 M 449.44822071171535 62.246997328216736 L 449.44822071171535 63.71144445069535 M 449.44822071171535 71.23693841475506 L 449.44822071171535 80.8764426099581 M 467.2411035585766 71.0472511821678 L 467.2411035585766 72.89014746624736 M 467.2411035585766 81.55006361153632 L 467.2411035585766 83.33381757553684 M 476.13754498200717 64.12359008410144 L 476.13754498200717 68.98575192882609 M 476.13754498200717 72.89014746624736 L 476.13754498200717 75.62202915865967 M 502.82686925229905 77.21378263113891 L 502.82686925229905 78.80723249350312 M 502.82686925229905 85.26546589405046 L 502.82686925229905 87.15015505620416 M 511.7233106757297 73.41741628593508 L 511.7233106757297 78.3691783600363 M 511.7233106757297 78.80723249350312 L 511.7233106757297 82.01765035072704 M 529.5161935225909 66.81360178980853 L 529.5161935225909 69.38725657113582 M 529.5161935225909 84.50864467947976 L 529.5161935225909 84.96320006000899 M 582.8948420631747 123.6024122294042 L 582.8948420631747 136.2628012665062 M 582.8948420631747 143.5331427701467 L 582.8948420631747 146.18436883439384 M 609.5841663334666 135.75180236798755 L 609.5841663334666 149.60297999567698 M 609.5841663334666 151.5870621833611 L 609.5841663334666 153.73122188927744 M 618.4806077568971 141.4586121581435 L 618.4806077568971 143.43667987259923 M 618.4806077568971 149.60297999567698 L 618.4806077568971 154.66940260427307 M 627.3770491803277 132.847659993624 L 627.3770491803277 133.85863125640924 M 627.3770491803277 143.43667987259923 L 627.3770491803277 148.11516895796504 M 645.169932027189 138.02650698641207 L 645.169932027189 140.67472581404505 M 645.169932027189 145.07701178269232 L 645.169932027189 148.3435647233811 M 662.9628148740503 139.90171178693637 L 662.9628148740503 141.64398130738732 M 662.9628148740503 154.01143465481488 L 662.9628148740503 154.1961098263785 M 680.7556977209116 146.75666909466324 L 680.7556977209116 148.38458651514387 M 680.7556977209116 150.2664226579456 L 680.7556977209116 152.2228999556841 M 689.6521391443422 140.3426960483862 L 689.6521391443422 141.83898903552276 M 689.6521391443422 148.38450940651273 L 689.6521391443422 149.84926496351588 M 707.4450219912034 145.2940725793318 L 707.4450219912034 146.76900647564452 M 707.4450219912034 150.9748196521648 L 707.4450219912034 154.36867894285422 M 743.0307876849259 149.765293664212 L 743.0307876849259 151.57480191101092 M 743.0307876849259 154.67086766826458 L 743.0307876849259 156.0573579646677 M 751.9272291083566 147.2840921316132 L 751.9272291083566 148.20692822901339 M 751.9272291083566 151.57480191101092 L 751.9272291083566 153.05621293233884 M 760.8236705317872 126.97198230128673 L 760.8236705317872 130.7331871106939 M 760.8236705317872 148.20692822901339 L 760.8236705317872 149.50605444634274 M 769.7201119552178 125.607159530232 L 769.7201119552178 130.21794723746297 M 769.7201119552178 130.7331100020628 L 769.7201119552178 134.85240729445184 M 787.512994802079 138.79273545398104 L 787.512994802079 140.61542927670376 M 787.512994802079 145.60266132112622 L 787.512994802079 147.23188958833612 M 805.3058776489403 144.19126493686713 L 805.3058776489403 145.15388908793193 M 805.3058776489403 146.41715979178448 L 805.3058776489403 148.07661464239854 M 814.202319072371 142.64816701063285 L 814.202319072371 144.728480769971 M 814.202319072371 145.1539661965631 L 814.202319072371 147.71867637667899 M 823.0987604958016 130.49091179167394 L 823.0987604958016 133.51773399817012 M 823.0987604958016 144.72855787860212 L 823.0987604958016 144.95194158299455" style="stroke-width: 1px;"></path><path class="candle wick down" d="M 4.626149540183927 69.35741553088732 L 4.626149540183927 71.63905992611384 M 4.626149540183927 79.17380692590956 L 4.626149540183927 81.73566408667352 M 13.522590963614554 70.48551480436365 L 13.522590963614554 79.17388403454066 M 13.522590963614554 82.51114558997845 L 13.522590963614554 88.93429456336033 M 40.21191523390643 51.269581274224436 L 40.21191523390643 52.02470609891026 M 40.21191523390643 71.45376788550118 L 40.21191523390643 78.25683108447548 M 49.10835665733706 65.1751204868626 L 49.10835665733706 71.45369077687002 M 49.10835665733706 76.79300083104594 L 49.10835665733706 80.69446624048415 M 66.90123950419832 72.31738455419116 L 66.90123950419832 76.19324989809321 M 66.90123950419832 84.13551601342701 L 66.90123950419832 85.66866692624511 M 84.69412235105956 67.8635129113159 L 84.69412235105956 69.53090995093666 M 84.69412235105956 72.54616586276288 L 84.69412235105956 81.66040606268767 M 102.48700519792082 55.59391041679618 L 102.48700519792082 58.40691038916043 M 102.48700519792082 59.9190877543104 L 102.48700519792082 63.14145744935996 M 129.1763294682127 49.2907424734573 L 129.1763294682127 50.02427688142589 M 129.1763294682127 57.264931562080164 L 129.1763294682127 59.972292709792185 M 138.07277089164333 55.08961996918612 L 138.07277089164333 57.264931562080164 M 138.07277089164333 59.26867645070325 L 138.07277089164333 63.388667720772446 M 218.14074370251896 7.62154664368947 L 218.14074370251896 9.668241039853626 M 218.14074370251896 12.496585629813382 L 218.14074370251896 17.29713767826277 M 227.0371851259496 8.394329344904747 L 227.0371851259496 12.496585629813382 M 227.0371851259496 24.50741155825068 L 227.0371851259496 26.90040081683327 M 244.83006797281087 11.378433369753225 L 244.83006797281087 18.54575774220001 M 244.83006797281087 22.18906345460482 L 244.83006797281087 23.66183830924578 M 271.51939224310274 11.478674590226177 L 271.51939224310274 16.255554288917722 M 271.51939224310274 24.60603349746978 L 271.51939224310274 25.714392961376063 M 280.4158336665334 24.53208632021321 L 280.4158336665334 24.60611060610094 M 280.4158336665334 42.54982883117623 L 280.4158336665334 42.931285229391364 M 298.2087165133947 36.379981711066364 L 298.2087165133947 40.43913427117167 M 298.2087165133947 49.63194816622098 L 298.2087165133947 50.74902090544529 M 316.0015993602559 40.70053253071262 L 316.0015993602559 45.76148042649828 M 316.0015993602559 50.35029217385636 L 316.0015993602559 52.592996710360694 M 324.89804078368655 48.37739073768651 L 324.89804078368655 50.35029217385636 M 324.89804078368655 70.61752478086342 L 324.89804078368655 73.16557949665456 M 351.5873650539784 55.4305943360564 L 351.5873650539784 58.14651454182419 M 351.5873650539784 67.4411889386003 L 351.5873650539784 70.4518183325585 M 369.38024790083966 61.52718825658988 L 369.38024790083966 62.74126365377947 M 369.38024790083966 64.07670803637254 L 369.38024790083966 67.06204579931912 M 378.2766893242703 62.4037591753102 L 378.2766893242703 64.0767851450037 M 378.2766893242703 69.47886162492185 L 378.2766893242703 70.49631001272229 M 404.9660135945622 50.04070101985724 L 404.9660135945622 55.483105313857976 M 404.9660135945622 56.52407183415394 L 404.9660135945622 60.67398125310282 M 413.86245501799283 44.04936038082036 L 413.86245501799283 56.52407183415394 M 413.86245501799283 63.29559760299489 L 413.86245501799283 68.9168939212243 M 422.7588964414235 60.86629017914862 L 422.7588964414235 63.29559760299489 M 422.7588964414235 69.23936221662265 L 422.7588964414235 73.34292934826054 M 431.65533786485406 67.15110626827777 L 431.65533786485406 69.23928510799152 M 431.65533786485406 71.30263496848045 L 431.65533786485406 72.51015613202377 M 458.34466213514594 60.84894073714369 L 458.34466213514594 63.71144445069535 M 458.34466213514594 81.54998650290517 L 458.34466213514594 84.7144476159738 M 485.0339864054379 67.57327602373115 L 485.0339864054379 68.98582903745725 M 485.0339864054379 77.82209262214744 L 485.0339864054379 81.06921418779069 M 493.93042782886846 76.28554892955945 L 493.93042782886846 77.82209262214744 M 493.93042782886846 85.26546589405046 L 493.93042782886846 85.67105729381028 M 520.6197520991603 77.3949108056704 L 520.6197520991603 78.3691783600363 M 520.6197520991603 84.50864467947976 L 520.6197520991603 86.13679342585377 M 538.4126349460215 68.18814024838596 L 538.4126349460215 69.38725657113582 M 538.4126349460215 93.57646548346243 L 538.4126349460215 101.14136195803115 M 547.3090763694522 92.63065101398466 L 547.3090763694522 93.57646548346243 M 547.3090763694522 97.73416287415574 L 547.3090763694522 103.56180188929714 M 556.2055177928828 96.71224218574959 L 556.2055177928828 97.73416287415574 M 556.2055177928828 101.908669946436 L 556.2055177928828 107.20904014188972 M 565.1019592163135 101.58612454240651 L 565.1019592163135 101.90859283780486 M 565.1019592163135 112.96597054228215 L 565.1019592163135 115.46776007939351 M 573.998400639744 111.38717131983324 L 573.998400639744 112.9660476509133 M 573.998400639744 143.517104174871 L 573.998400639744 143.84851707148079 M 591.7912834866053 127.43008467884808 L 591.7912834866053 136.26272415787503 M 591.7912834866053 151.014916140354 L 591.7912834866053 161.18508193501458 M 600.687724910036 142.23178040251443 L 600.687724910036 151.014916140354 M 600.687724910036 151.58698507472997 L 600.687724910036 169.5513684129489 M 636.2734906037584 133.8585541477781 L 636.2734906037584 133.85863125640924 M 636.2734906037584 145.07701178269232 L 636.2734906037584 151.1452297269688 M 654.0663734506197 138.6308844372328 L 654.0663734506197 140.67472581404505 M 654.0663734506197 154.011511763446 L 654.0663734506197 154.4807177838905 M 671.8592562974809 138.11163491518295 L 671.8592562974809 141.64405841601842 M 671.8592562974809 150.2664226579456 L 671.8592562974809 153.8983162929427 M 698.5485805677728 138.93530931294606 L 698.5485805677728 141.8390661441539 M 698.5485805677728 150.97474254353367 L 698.5485805677728 152.84694010744377 M 716.3414634146341 142.38029162607666 L 716.3414634146341 146.76900647564452 M 716.3414634146341 147.63593881547322 L 716.3414634146341 149.54777021578573 M 725.2379048380647 144.9796235815713 L 725.2379048380647 147.63601592410436 M 725.2379048380647 150.2638009644871 L 725.2379048380647 159.37642188315806 M 734.1343462614954 148.75008142671447 L 734.1343462614954 150.2638009644871 M 734.1343462614954 154.67094477689574 L 734.1343462614954 157.34584319090072 M 778.6165533786485 128.81510991125967 L 778.6165533786485 130.21787012883186 M 778.6165533786485 145.60273842975732 L 778.6165533786485 149.4954134552464 M 796.4094362255097 138.71562682284804 L 796.4094362255097 140.6153521680726 M 796.4094362255097 146.41715979178448 L 796.4094362255097 149.63914394367836 M 831.9952019192323 131.8483321341399 L 831.9952019192323 133.51773399817012 M 831.9952019192323 135.4282545517533 L 831.9952019192323 150.12801266506182 M 840.8916433426629 133.87150839780844 L 840.8916433426629 135.42833166038446 M 840.8916433426629 142.52656669933603 L 840.8916433426629 145.30934008829615 M 849.7880847660936 138.70791595973472 L 849.7880847660936 142.52656669933603 M 849.7880847660936 143.25786495700174 L 849.7880847660936 144.53655738708088 M 858.6845261895241 141.15380173927463 L 858.6845261895241 143.25786495700174 M 858.6845261895241 151.10790914950041 L 858.6845261895241 152.9730127193463 M 867.5809676129546 148.42044202862073 L 867.5809676129546 151.10798625813158 M 867.5809676129546 156.25244280143428 L 867.5809676129546 158.75623716295507 M 876.4774090363853 155.32513440342842 L 876.4774090363853 156.25236569280315 M 876.4774090363853 170.51885040777512 L 876.4774090363853 170.6308892488114 M 885.3738504598159 168.04127298083955 L 885.3738504598159 170.51885040777512 M 885.3738504598159 195.62287611986406 L 885.3738504598159 196.15384615384616" style="stroke-width: 1px;"></path><path class="candle wick equal" style="stroke-width: 1px;"></path></g></g><g class="x axis" transform="translate(0,200)" fill="none" font-size="10" font-family="sans-serif" text-anchor="middle"><path class="domain" stroke="#000" d="M0.5,6V0.5H890.5V6"></path><g class="tick" opacity="1" transform="translate(13.522590963614554,0)"><line stroke="#000" y2="6" x1="0.5" x2="0.5"></line><text fill="#000" y="9" x="0.5" dy="0.71em">Mar  7</text></g><g class="tick" opacity="1" transform="translate(75.79768092762893,0)"><line stroke="#000" y2="6" x1="0.5" x2="0.5"></line><text fill="#000" y="9" x="0.5" dy="0.71em">Mar 14</text></g><g class="tick" opacity="1" transform="translate(138.07277089164333,0)"><line stroke="#000" y2="6" x1="0.5" x2="0.5"></line><text fill="#000" y="9" x="0.5" dy="0.71em">Mar 21</text></g><g class="tick" opacity="1" transform="translate(200.34786085565773,0)"><line stroke="#000" y2="6" x1="0.5" x2="0.5"></line><text fill="#000" y="9" x="0.5" dy="0.71em">Mar 28</text></g><g class="tick" opacity="1" transform="translate(262.6229508196721,0)"><line stroke="#000" y2="6" x1="0.5" x2="0.5"></line><text fill="#000" y="9" x="0.5" dy="0.71em">Apr  4</text></g><g class="tick" opacity="1" transform="translate(324.89804078368655,0)"><line stroke="#000" y2="6" x1="0.5" x2="0.5"></line><text fill="#000" y="9" x="0.5" dy="0.71em">Apr 11</text></g><g class="tick" opacity="1" transform="translate(387.1731307477009,0)"><line stroke="#000" y2="6" x1="0.5" x2="0.5"></line><text fill="#000" y="9" x="0.5" dy="0.71em">Apr 18</text></g><g class="tick" opacity="1" transform="translate(449.44822071171535,0)"><line stroke="#000" y2="6" x1="0.5" x2="0.5"></line><text fill="#000" y="9" x="0.5" dy="0.71em">Apr 25</text></g><g class="tick" opacity="1" transform="translate(511.7233106757297,0)"><line stroke="#000" y2="6" x1="0.5" x2="0.5"></line><text fill="#000" y="9" x="0.5" dy="0.71em">May  2</text></g><g class="tick" opacity="1" transform="translate(573.998400639744,0)"><line stroke="#000" y2="6" x1="0.5" x2="0.5"></line><text fill="#000" y="9" x="0.5" dy="0.71em">May  9</text></g><g class="tick" opacity="1" transform="translate(636.2734906037584,0)"><line stroke="#000" y2="6" x1="0.5" x2="0.5"></line><text fill="#000" y="9" x="0.5" dy="0.71em">May 16</text></g><g class="tick" opacity="1" transform="translate(698.5485805677728,0)"><line stroke="#000" y2="6" x1="0.5" x2="0.5"></line><text fill="#000" y="9" x="0.5" dy="0.71em">May 23</text></g><g class="tick" opacity="1" transform="translate(760.8236705317872,0)"><line stroke="#000" y2="6" x1="0.5" x2="0.5"></line><text fill="#000" y="9" x="0.5" dy="0.71em">May 30</text></g><g class="tick" opacity="1" transform="translate(823.0987604958016,0)"><line stroke="#000" y2="6" x1="0.5" x2="0.5"></line><text fill="#000" y="9" x="0.5" dy="0.71em">Jun  6</text></g><g class="tick" opacity="1" transform="translate(885.3738504598159,0)"><line stroke="#000" y2="6" x1="0.5" x2="0.5"></line><text fill="#000" y="9" x="0.5" dy="0.71em">Jun 13</text></g></g><g class="y axis" fill="none" font-size="10" font-family="sans-serif" text-anchor="end"><path class="domain" stroke="#000" d="M-6,200.5H0.5V0.5H-6"></path><g class="tick" opacity="1" transform="translate(0,190.3706988188685)"><line stroke="#000" x2="-6" y1="0.5" y2="0.5"></line><text fill="#000" x="-9" y="0.5" dy="0.32em">24,000</text></g><g class="tick" opacity="1" transform="translate(0,174.94897259226138)"><line stroke="#000" x2="-6" y1="0.5" y2="0.5"></line><text fill="#000" x="-9" y="0.5" dy="0.32em">26,000</text></g><g class="tick" opacity="1" transform="translate(0,159.5272463656543)"><line stroke="#000" x2="-6" y1="0.5" y2="0.5"></line><text fill="#000" x="-9" y="0.5" dy="0.32em">28,000</text></g><g class="tick" opacity="1" transform="translate(0,144.1055201390472)"><line stroke="#000" x2="-6" y1="0.5" y2="0.5"></line><text fill="#000" x="-9" y="0.5" dy="0.32em">30,000</text></g><g class="tick" opacity="1" transform="translate(0,128.6837939124401)"><line stroke="#000" x2="-6" y1="0.5" y2="0.5"></line><text fill="#000" x="-9" y="0.5" dy="0.32em">32,000</text></g><g class="tick" opacity="1" transform="translate(0,113.26206768583302)"><line stroke="#000" x2="-6" y1="0.5" y2="0.5"></line><text fill="#000" x="-9" y="0.5" dy="0.32em">34,000</text></g><g class="tick" opacity="1" transform="translate(0,97.84034145922591)"><line stroke="#000" x2="-6" y1="0.5" y2="0.5"></line><text fill="#000" x="-9" y="0.5" dy="0.32em">36,000</text></g><g class="tick" opacity="1" transform="translate(0,82.41861523261882)"><line stroke="#000" x2="-6" y1="0.5" y2="0.5"></line><text fill="#000" x="-9" y="0.5" dy="0.32em">38,000</text></g><g class="tick" opacity="1" transform="translate(0,66.99688900601174)"><line stroke="#000" x2="-6" y1="0.5" y2="0.5"></line><text fill="#000" x="-9" y="0.5" dy="0.32em">40,000</text></g><g class="tick" opacity="1" transform="translate(0,51.57516277940465)"><line stroke="#000" x2="-6" y1="0.5" y2="0.5"></line><text fill="#000" x="-9" y="0.5" dy="0.32em">42,000</text></g><g class="tick" opacity="1" transform="translate(0,36.15343655279753)"><line stroke="#000" x2="-6" y1="0.5" y2="0.5"></line><text fill="#000" x="-9" y="0.5" dy="0.32em">44,000</text></g><g class="tick" opacity="1" transform="translate(0,20.731710326190438)"><line stroke="#000" x2="-6" y1="0.5" y2="0.5"></line><text fill="#000" x="-9" y="0.5" dy="0.32em">46,000</text></g><g class="tick" opacity="1" transform="translate(0,5.309984099583346)"><line stroke="#000" x2="-6" y1="0.5" y2="0.5"></line><text fill="#000" x="-9" y="0.5" dy="0.32em">48,000</text></g><text transform="rotate(-90)" y="6" dy=".71em" style="text-anchor: end;">Price ($)</text></g></g></svg>