<?xml version="1.0" encoding="utf-8"?>
<!DOCTYPE svg PUBLIC "-//W3C//DTD SVG 1.1//EN" "http://www.w3.org/Graphics/SVG/1.1/DTD/svg11.dtd">
<svg version="1.1" xmlns="http://www.w3.org/2000/svg" width="960" height="250"><g transform="translate(50,20)"><style>.axis path,.axis line{fill:none;stroke:#000;shape-rendering:crispEdges;}path.candle{stroke:#000000;}path.candle.body{stroke-width:0;}path.candle.up{fill:#00AA00;stroke:#00AA00;}path.candle.down{fill:#FF0000;stroke:#FF0000;}</style><g class="candlestick"><g class="data"><path class="candle body up" d="M 9.964014394242305 174.93222454497837 l 7.1171531387445 0 L 17.081167532986804 169.3869064191437 l -7.1171531387445 0 L 9.964014394242305 174.93222454497837 M 27.75689724110356 171.23282903833174 l 7.1171531387445 0 L 34.87405037984806 166.77274400343538 l -7.1171531387445 0 L 27.75689724110356 171.23282903833174 M 54.446221511395436 175.7969072213597 l 7.1171531387445 0 L 61.563374650139934 175.26072020121467 l -7.1171531387445 0 L 54.446221511395436 175.7969072213597 M 81.13554578168731 183.7321212006814 l 7.1171531387445 0 L 88.25269892043181 182.9286664810559 l -7.1171531387445 0 L 81.13554578168731 183.7321212006814 M 90.03198720511796 182.9286664810559 l 7.1171531387445 0 L 97.14914034386246 181.4039251957171 l -7.1171531387445 0 L 90.03198720511796 182.9286664810559 M 116.72131147540982 193.13173330564902 l 7.1171531387445 0 L 123.83846461415432 179.24531529448407 l -7.1171531387445 0 L 116.72131147540982 193.13173330564902 M 125.61775289884046 179.24531529448407 l 7.1171531387445 0 L 132.73490603758498 178.39992119407492 l -7.1171531387445 0 L 125.61775289884046 179.24531529448407 M 134.51419432227107 178.4013958558465 l 7.1171531387445 0 L 141.63134746101557 170.45880856766695 l -7.1171531387445 0 L 134.51419432227107 178.4013958558465 M 143.4106357457017 170.45874958119606 l 7.1171531387445 0 L 150.5277888844462 166.77775785345872 l -7.1171531387445 0 L 143.4106357457017 170.45874958119606 M 152.30707716913233 166.75787941277787 l 7.1171531387445 0 L 159.42423030787683 160.1542850131894 l -7.1171531387445 0 L 152.30707716913233 166.75787941277787 M 161.20351859256294 160.1542850131894 l 7.1171531387445 0 L 168.32067173130744 149.20297480569857 l -7.1171531387445 0 L 161.20351859256294 160.1542850131894 M 170.09996001599356 149.18097285206665 l 7.1171531387445 0 L 177.21711315473806 136.10638563938974 l -7.1171531387445 0 L 170.09996001599356 149.18097285206665 M 178.9964014394242 136.1138179347185 l 7.1171531387445 0 L 186.1135545781687 132.7931745574835 l -7.1171531387445 0 L 178.9964014394242 136.1138179347185 M 196.78928428628546 132.79948610986585 l 7.1171531387445 0 L 203.90643742502996 119.8939541226824 l -7.1171531387445 0 L 196.78928428628546 132.79948610986585 M 241.2714914034386 143.48459037435174 l 7.1171531387445 0 L 248.3886445421831 134.54141558092235 l -7.1171531387445 0 L 241.2714914034386 143.48459037435174 M 250.16793282686922 134.5414745673932 l 7.1171531387445 0 L 257.28508596561375 127.82120492843761 l -7.1171531387445 0 L 250.16793282686922 134.5414745673932 M 259.06437425029986 127.82120492843761 l 7.1171531387445 0 L 266.1815273890444 116.17485713476755 l -7.1171531387445 0 L 259.06437425029986 127.82120492843761 M 267.9608156737305 116.17485713476755 l 7.1171531387445 0 L 275.07796881247504 105.93675234648181 l -7.1171531387445 0 L 267.9608156737305 116.17485713476755 M 285.7536985205918 110.52696153610208 l 7.1171531387445 0 L 292.8708516593363 96.02195240499638 l -7.1171531387445 0 L 285.7536985205918 110.52696153610208 M 321.3394642143143 106.95415099592759 l 7.1171531387445 0 L 328.45661735305885 86.89910482131818 l -7.1171531387445 0 L 321.3394642143143 106.95415099592759 M 365.8216713314674 105.20880030956101 l 7.1171531387445 0 L 372.93882447021196 105.15370694577491 l -7.1171531387445 0 L 365.8216713314674 105.20880030956101 M 374.7181127548981 105.18862693652582 l 7.1171531387445 0 L 381.8352658936426 93.03004062988111 l -7.1171531387445 0 L 374.7181127548981 105.18862693652582 M 383.61455417832866 93.03004062988111 l 7.1171531387445 0 L 390.7317073170732 77.9185915918325 l -7.1171531387445 0 L 383.61455417832866 93.03004062988111 M 401.40743702518995 80.87139533676557 l 7.1171531387445 0 L 408.5245901639345 78.40965396176733 l -7.1171531387445 0 L 401.40743702518995 80.87139533676557 M 410.3038784486206 78.40965396176733 l 7.1171531387445 0 L 417.4210315873651 76.93717468961322 l -7.1171531387445 0 L 410.3038784486206 78.40965396176733 M 428.0967612954818 87.64227536772165 l 7.1171531387445 0 L 435.21391443422635 79.97810422201563 l -7.1171531387445 0 L 428.0967612954818 87.64227536772165 M 445.8896441423431 92.53903724641717 l 7.1171531387445 0 L 453.00679728108764 79.40841288642035 l -7.1171531387445 0 L 445.8896441423431 92.53903724641717 M 481.47540983606564 91.71883036906654 l 7.1171531387445 0 L 488.59256297481016 91.02290798582438 l -7.1171531387445 0 L 481.47540983606564 91.71883036906654 M 490.3718512594962 91.02290798582438 l 7.1171531387445 0 L 497.48900439824075 80.938403967666 l -7.1171531387445 0 L 490.3718512594962 91.02290798582438 M 499.2682926829268 80.93846295413682 l 7.1171531387445 0 L 506.38544582167134 78.36588600038696 l -7.1171531387445 0 L 499.2682926829268 80.93846295413682 M 508.16473410635746 78.36594498685783 l 7.1171531387445 0 L 515.281887245102 73.927154067943 l -7.1171531387445 0 L 508.16473410635746 78.36594498685783 M 525.9576169532187 74.4084836701854 l 7.1171531387445 0 L 533.0747700919632 63.55886613846249 l -7.1171531387445 0 L 525.9576169532187 74.4084836701854 M 534.8540583766493 63.55886613846249 l 7.1171531387445 0 L 541.9712115153937 58.20867525824275 l -7.1171531387445 0 L 534.8540583766493 63.55886613846249 M 561.5433826469413 97.23170593592656 l 7.1171531387445 0 L 568.6605357856857 95.18587816698363 l -7.1171531387445 0 L 561.5433826469413 97.23170593592656 M 579.3362654938024 104.34612317318901 l 7.1171531387445 0 L 586.4534186325469 102.39078065054997 l -7.1171531387445 0 L 579.3362654938024 104.34612317318901 M 588.232706917233 102.39083963702085 l 7.1171531387445 0 L 595.3498600559775 97.36778772420757 l -7.1171531387445 0 L 588.232706917233 102.39083963702085 M 606.0255897640943 103.7649884622463 l 7.1171531387445 0 L 613.1427429028388 90.960205367297 l -7.1171531387445 0 L 606.0255897640943 103.7649884622463 M 614.9220311875249 91.00881021928811 l 7.1171531387445 0 L 622.0391843262694 85.0032206613091 l -7.1171531387445 0 L 614.9220311875249 91.00881021928811 M 641.6113554578168 89.84854633741205 l 7.1171531387445 0 L 648.7285085965613 83.99260545601261 l -7.1171531387445 0 L 641.6113554578168 89.84854633741205 M 677.1971211515394 128.57841425490653 l 7.1171531387445 0 L 684.3142742902838 112.00604729299287 l -7.1171531387445 0 L 677.1971211515394 128.57841425490653 M 686.09356257497 111.98976702703466 l 7.1171531387445 0 L 693.2107157137144 104.21010037137881 l -7.1171531387445 0 L 686.09356257497 111.98976702703466 M 712.7828868452618 117.15544822639481 l 7.1171531387445 0 L 719.9000399840063 114.26351851939238 l -7.1171531387445 0 L 712.7828868452618 117.15544822639481 M 739.4722111155537 126.86237984455883 l 7.1171531387445 0 L 746.5893642542982 123.91736231377972 l -7.1171531387445 0 L 739.4722111155537 126.86237984455883 M 748.3686525389844 123.91730332730884 l 7.1171531387445 0 L 755.4858056777289 110.3515357717554 l -7.1171531387445 0 L 748.3686525389844 123.91730332730884 M 757.265093962415 110.37566123833837 l 7.1171531387445 0 L 764.3822471011595 84.88406799016576 l -7.1171531387445 0 L 757.265093962415 110.37566123833837 M 775.0579768092763 87.87303044173788 l 7.1171531387445 0 L 782.1751299480208 84.5395870003256 l -7.1171531387445 0 L 775.0579768092763 87.87303044173788 M 783.9544182327068 84.5395870003256 l 7.1171531387445 0 L 791.0715713714512 78.49388664215975 l -7.1171531387445 0 L 783.9544182327068 84.5395870003256 M 792.8508596561375 78.49394562863061 l 7.1171531387445 0 L 799.9680127948819 65.23933170687971 l -7.1171531387445 0 L 792.8508596561375 78.49394562863061 M 801.747301079568 65.23933170687971 l 7.1171531387445 0 L 808.8644542183125 42.57077196774148 l -7.1171531387445 0 L 801.747301079568 65.23933170687971 M 819.5401839264293 51.59440430742805 l 7.1171531387445 0 L 826.6573370651738 50.61399017521342 l -7.1171531387445 0 L 819.5401839264293 51.59440430742805 M 828.43662534986 50.58897991156749 l 7.1171531387445 0 L 835.5537784886045 44.725429775426704 l -7.1171531387445 0 L 828.43662534986 50.58897991156749 M 846.2295081967213 46.44022546988623 l 7.1171531387445 0 L 853.3466613354658 29.851224323189257 l -7.1171531387445 0 L 846.2295081967213 46.44022546988623 M 864.0223910435824 38.54842553311971 l 7.1171531387445 0 L 871.1395441823269 30.466748146645102 l -7.1171531387445 0 L 864.0223910435824 38.54842553311971 M 881.8152738904437 30.57917636011004 l 7.1171531387445 0 L 888.9324270291881 5.148575122809859 l -7.1171531387445 0 L 881.8152738904437 30.57917636011004"></path><path class="candle body down" d="M 1.0675729708116766 169.1137990590478 l 7.1171531387445 0 L 8.184726109556177 174.93222454497837 l -7.1171531387445 0 L 1.0675729708116766 169.1137990590478 M 18.860455817672932 169.3869064191437 l 7.1171531387445 0 L 25.977608956417434 171.23282903833174 l -7.1171531387445 0 L 18.860455817672932 169.3869064191437 M 36.65333866453418 166.77268501696452 l 7.1171531387445 0 L 43.77049180327868 173.68808190153507 l -7.1171531387445 0 L 36.65333866453418 166.77268501696452 M 45.54978008796481 173.6862533209383 l 7.1171531387445 0 L 52.66693322670931 175.79307310075362 l -7.1171531387445 0 L 45.54978008796481 173.6862533209383 M 63.342662934826066 175.26066121474378 l 7.1171531387445 0 L 70.45981607357056 180.8055664352824 l -7.1171531387445 0 L 63.342662934826066 175.26066121474378 M 72.23910435825668 180.83806798072794 l 7.1171531387445 0 L 79.35625749700118 183.73206221421054 l -7.1171531387445 0 L 72.23910435825668 180.83806798072794 M 98.92842862854857 181.40386620924625 l 7.1171531387445 0 L 106.04558176729307 186.94222393151904 l -7.1171531387445 0 L 98.92842862854857 181.40386620924625 M 107.82487005197919 186.94222393151904 l 7.1171531387445 0 L 114.94202319072369 193.13167431917816 l -7.1171531387445 0 L 107.82487005197919 186.94222393151904 M 187.89284286285485 132.79311557101263 l 7.1171531387445 0 L 195.00999600159935 132.8113423905093 l -7.1171531387445 0 L 187.89284286285485 132.79311557101263 M 205.68572570971608 119.89401310915329 l 7.1171531387445 0 L 212.80287884846058 124.28573282431941 l -7.1171531387445 0 L 205.68572570971608 119.89401310915329 M 214.5821671331467 124.28567383784858 l 7.1171531387445 0 L 221.6993202718912 133.82024698815079 l -7.1171531387445 0 L 214.5821671331467 124.28567383784858 M 223.47860855657734 133.79175652272397 l 7.1171531387445 0 L 230.59576169532184 137.93526116849839 l -7.1171531387445 0 L 223.47860855657734 133.79175652272397 M 232.37504998000796 137.94092386970124 l 7.1171531387445 0 L 239.49220311875246 143.48453138788085 l -7.1171531387445 0 L 232.37504998000796 137.94092386970124 M 276.85725709716115 105.93675234648181 l 7.1171531387445 0 L 283.9744102359057 110.5269025496312 l -7.1171531387445 0 L 276.85725709716115 105.93675234648181 M 294.65013994402244 96.04867327629734 l 7.1171531387445 0 L 301.76729308276697 99.96466710395305 l -7.1171531387445 0 L 294.65013994402244 96.04867327629734 M 303.54658136745303 99.96460811748219 l 7.1171531387445 0 L 310.66373450619756 100.40110800186869 l -7.1171531387445 0 L 303.54658136745303 99.96460811748219 M 312.4430227908837 100.40305455540718 l 7.1171531387445 0 L 319.5601759296282 106.96040356183906 l -7.1171531387445 0 L 312.4430227908837 100.40305455540718 M 330.23590563774496 86.89916380778907 l 7.1171531387445 0 L 337.3530587764895 91.2139061784789 l -7.1171531387445 0 L 330.23590563774496 86.89916380778907 M 339.13234706117555 91.21396516494977 l 7.1171531387445 0 L 346.2495001999201 91.77244907108107 l -7.1171531387445 0 L 339.13234706117555 91.21396516494977 M 348.02878848460614 91.77244907108107 l 7.1171531387445 0 L 355.14594162335067 98.098925030555 l -7.1171531387445 0 L 348.02878848460614 91.77244907108107 M 356.9252299080368 98.0988660440841 l 7.1171531387445 0 L 364.0423830467813 105.20880030956101 l -7.1171531387445 0 L 356.9252299080368 98.0988660440841 M 392.5109956017593 77.9185915918325 l 7.1171531387445 0 L 399.62814874050383 80.8714543232364 l -7.1171531387445 0 L 392.5109956017593 77.9185915918325 M 419.20031987205124 76.93717468961322 l 7.1171531387445 0 L 426.31747301079577 87.64227536772165 l -7.1171531387445 0 L 419.20031987205124 76.93717468961322 M 436.99320271891247 79.97810422201563 l 7.1171531387445 0 L 444.110355857657 92.53897825994628 l -7.1171531387445 0 L 436.99320271891247 79.97810422201563 M 454.7860855657737 79.40841288642035 l 7.1171531387445 0 L 461.90323870451823 80.43802173533479 l -7.1171531387445 0 L 454.7860855657737 79.40841288642035 M 463.68252698920435 80.43802173533479 l 7.1171531387445 0 L 470.7996801279489 81.19021721178031 l -7.1171531387445 0 L 463.68252698920435 80.43802173533479 M 472.57896841263494 81.19015822530946 l 7.1171531387445 0 L 479.69612155137946 91.71883036906654 l -7.1171531387445 0 L 472.57896841263494 81.19015822530946 M 517.0611755297881 73.93387852562137 l 7.1171531387445 0 L 524.1783286685326 74.41969109964938 l -7.1171531387445 0 L 517.0611755297881 73.93387852562137 M 543.75049980008 58.19510836994428 l 7.1171531387445 0 L 550.8676529388244 92.42183112881229 l -7.1171531387445 0 L 543.75049980008 58.19510836994428 M 552.6469412235106 92.39328167691458 l 7.1171531387445 0 L 559.764094362255 97.23170593592656 l -7.1171531387445 0 L 552.6469412235106 92.39328167691458 M 570.4398240703717 95.18587816698363 l 7.1171531387445 0 L 577.5569772091162 104.29474595706726 l -7.1171531387445 0 L 570.4398240703717 95.18587816698363 M 597.1291483406637 97.36784671067842 l 7.1171531387445 0 L 604.2463014794082 103.76492947577542 l -7.1171531387445 0 L 597.1291483406637 97.36784671067842 M 623.8184726109555 85.00327964777998 l 7.1171531387445 0 L 630.9356257497 87.26588269714459 l -7.1171531387445 0 L 623.8184726109555 85.00327964777998 M 632.7149140343862 87.26594168361545 l 7.1171531387445 0 L 639.8320671731307 89.84854633741205 l -7.1171531387445 0 L 632.7149140343862 87.26594168361545 M 650.5077968812475 83.99254646954175 l 7.1171531387445 0 L 657.624950019992 90.19202455724755 l -7.1171531387445 0 L 650.5077968812475 83.99254646954175 M 659.4042383046781 90.19202455724755 l 7.1171531387445 0 L 666.5213914434225 115.12047396809066 l -7.1171531387445 0 L 659.4042383046781 90.19202455724755 M 668.3006797281087 115.11445734806264 l 7.1171531387445 0 L 675.4178328668531 128.57670364725146 l -7.1171531387445 0 L 668.3006797281087 115.11445734806264 M 694.9900039984005 104.21010037137881 l 7.1171531387445 0 L 702.107157137145 116.32999155313738 l -7.1171531387445 0 L 694.9900039984005 104.21010037137881 M 703.8864454218311 116.3299325666665 l 7.1171531387445 0 L 711.0035985605756 117.15538923992393 l -7.1171531387445 0 L 703.8864454218311 116.3299325666665 M 721.6793282686924 114.26351851939238 l 7.1171531387445 0 L 728.7964814074369 120.24209227371611 l -7.1171531387445 0 L 721.6793282686924 114.26351851939238 M 730.5757696921231 120.24209227371611 l 7.1171531387445 0 L 737.6929228308676 126.8533549145168 l -7.1171531387445 0 L 730.5757696921231 120.24209227371611 M 766.1615353858456 84.88412697663665 l 7.1171531387445 0 L 773.27868852459 87.872971455267 l -7.1171531387445 0 L 766.1615353858456 84.88412697663665 M 810.6437425029987 42.57077196774148 l 7.1171531387445 0 L 817.7608956417432 51.59440430742805 l -7.1171531387445 0 L 810.6437425029987 42.57077196774148 M 837.3330667732906 44.725429775426704 l 7.1171531387445 0 L 844.4502199120351 46.44028445635709 l -7.1171531387445 0 L 837.3330667732906 44.725429775426704 M 855.1259496201519 29.851224323189257 l 7.1171531387445 0 L 862.2431027588964 38.54830756017799 l -7.1171531387445 0 L 855.1259496201519 29.851224323189257 M 872.9188324670131 30.44415632830453 l 7.1171531387445 0 L 880.0359856057576 30.57917636011004 l -7.1171531387445 0 L 872.9188324670131 30.44415632830453"></path><path class="candle body equal"></path><path class="candle wick up" d="M 13.522590963614554 167.7105699036869 L 13.522590963614554 169.3869064191437 M 13.522590963614554 174.93222454497837 L 13.522590963614554 178.55776899010442 M 31.315473810475808 164.37193565283866 L 31.315473810475808 166.77274400343538 M 31.315473810475808 171.23282903833174 L 31.315473810475808 172.39132332608193 M 58.004798080767685 173.52645897137032 L 58.004798080767685 175.26072020121467 M 58.004798080767685 175.7969072213597 L 58.004798080767685 182.7521199737628 M 84.69412235105956 180.3577411484902 L 84.69412235105956 182.9286664810559 M 84.69412235105956 183.7321212006814 L 84.69412235105956 185.0271691684795 M 93.5905637744902 177.53181730238353 L 93.5905637744902 181.4039251957171 M 93.5905637744902 182.9286664810559 L 93.5905637744902 185.3536002982356 M 120.27988804478207 175.0366895848768 L 120.27988804478207 179.24531529448407 M 120.27988804478207 193.13173330564902 L 120.27988804478207 194.9469239735174 M 129.1763294682127 176.60956383043987 L 129.1763294682127 178.39992119407492 M 129.1763294682127 179.24531529448407 L 129.1763294682127 181.82013373412673 M 138.07277089164333 170.3649610925238 L 138.07277089164333 170.45880856766695 M 138.07277089164333 178.4013958558465 L 138.07277089164333 180.5441383964174 M 146.96921231507397 165.35111106916517 L 146.96921231507397 166.77775785345872 M 146.96921231507397 170.45874958119606 L 146.96921231507397 171.8328984064215 M 155.8656537385046 160.05412598566392 L 155.8656537385046 160.1542850131894 M 155.8656537385046 166.75787941277787 L 155.8656537385046 169.17862519052628 M 164.7620951619352 129.66429619702427 L 164.7620951619352 149.20297480569857 M 164.7620951619352 160.1542850131894 L 164.7620951619352 161.18796392859335 M 173.65853658536582 135.60653428529633 L 173.65853658536582 136.10638563938974 M 173.65853658536582 149.18097285206665 L 173.65853658536582 154.2439586056542 M 182.55497800879647 127.59976971681775 L 182.55497800879647 132.7931745574835 M 182.55497800879647 136.1138179347185 L 182.55497800879647 140.15209071647325 M 200.34786085565773 119.2430974031796 L 200.34786085565773 119.8939541226824 M 200.34786085565773 132.79948610986585 L 200.34786085565773 142.85821304025706 M 244.83006797281087 133.08751704709005 L 244.83006797281087 134.54141558092235 M 244.83006797281087 143.48459037435174 L 244.83006797281087 147.60467739119355 M 253.72650939624148 124.94537852798082 L 253.72650939624148 127.82120492843761 M 253.72650939624148 134.5414745673932 L 253.72650939624148 148.64201346779106 M 262.6229508196721 112.89780475950036 L 262.6229508196721 116.17485713476755 M 262.6229508196721 127.82120492843761 L 262.6229508196721 133.7705803796841 M 271.51939224310274 105.18491078886146 L 271.51939224310274 105.93675234648181 M 271.51939224310274 116.17485713476755 L 271.51939224310274 118.47804287608592 M 289.31227508996403 94.8377990024208 L 289.31227508996403 96.02195240499638 M 289.31227508996403 110.52696153610208 L 289.31227508996403 116.516211841652 M 324.89804078368655 86.39182117189601 L 324.89804078368655 86.89910482131818 M 324.89804078368655 106.95415099592759 L 324.89804078368655 108.03165685918277 M 369.38024790083966 97.51666957666589 L 369.38024790083966 105.15370694577491 M 369.38024790083966 105.20880030956101 L 369.38024790083966 108.11488676957055 M 378.2766893242703 91.42336713651358 L 378.2766893242703 93.03004062988111 M 378.2766893242703 105.18862693652582 L 378.2766893242703 109.74043593361428 M 387.1731307477009 77.56160547016937 L 387.1731307477009 77.9185915918325 M 387.1731307477009 93.03004062988111 L 387.1731307477009 93.84187142836919 M 404.9660135945622 76.8714047746009 L 404.9660135945622 78.40965396176733 M 404.9660135945622 80.87139533676557 L 404.9660135945622 85.42444304974211 M 413.86245501799283 70.97275768829661 L 413.86245501799283 76.93717468961322 M 413.86245501799283 78.40965396176733 L 413.86245501799283 79.64966755225022 M 431.65533786485406 78.26171589284282 L 431.65533786485406 79.97810422201563 M 431.65533786485406 87.64227536772165 L 431.65533786485406 90.8731413363031 M 449.44822071171535 78.93634416010345 L 449.44822071171535 79.40841288642035 M 449.44822071171535 92.53903724641717 L 449.44822071171535 95.46394039063199 M 485.0339864054379 84.26765936964698 L 485.0339864054379 91.02290798582438 M 485.0339864054379 91.71883036906654 L 485.0339864054379 93.3876166162529 M 493.93042782886846 78.90053937228959 L 493.93042782886846 80.938403967666 M 493.93042782886846 91.02290798582438 L 493.93042782886846 94.49656226847812 M 502.82686925229905 71.26692321849063 L 502.82686925229905 78.36588600038696 M 502.82686925229905 80.93846295413682 L 502.82686925229905 82.27421158683046 M 511.7233106757297 68.02343414514448 L 511.7233106757297 73.927154067943 M 511.7233106757297 78.36594498685783 L 511.7233106757297 83.8504480612327 M 529.5161935225909 62.71465176747063 L 529.5161935225909 63.55886613846249 M 529.5161935225909 74.4084836701854 L 529.5161935225909 77.16633712891611 M 538.4126349460215 57.52384233152284 L 538.4126349460215 58.20867525824275 M 538.4126349460215 63.55886613846249 L 538.4126349460215 68.20434565128141 M 565.1019592163135 89.25874061525248 L 565.1019592163135 95.18587816698363 M 565.1019592163135 97.23170593592656 L 565.1019592163135 100.38883881592918 M 582.8948420631747 97.58786624699758 L 582.8948420631747 102.39078065054997 M 582.8948420631747 104.34612317318901 L 582.8948420631747 105.05384285060377 M 591.7912834866053 94.80329191696593 L 591.7912834866053 97.36778772420757 M 591.7912834866053 102.39083963702085 L 591.7912834866053 104.93681369241152 M 609.5841663334666 90.14336071878554 L 609.5841663334666 90.960205367297 M 609.5841663334666 103.7649884622463 L 609.5841663334666 105.80757197529174 M 618.4806077568971 82.77005186090518 L 618.4806077568971 85.0032206613091 M 618.4806077568971 91.00881021928811 L 618.4806077568971 93.49190469673876 M 645.169932027189 80.74563618088557 L 645.169932027189 83.99260545601261 M 645.169932027189 89.84854633741205 L 645.169932027189 91.40826659997265 M 680.7556977209116 109.31071949337698 L 680.7556977209116 112.00604729299287 M 680.7556977209116 128.57841425490653 L 680.7556977209116 129.57351601836604 M 689.6521391443422 103.54508689886887 L 689.6521391443422 104.21010037137881 M 689.6521391443422 111.98976702703466 L 689.6521391443422 114.80507330838601 M 716.3414634146341 109.60889610358969 L 716.3414634146341 114.26351851939238 M 716.3414634146341 117.15544822639481 L 716.3414634146341 128.48456677976338 M 743.0307876849259 117.63105614096351 L 743.0307876849259 123.91736231377972 M 743.0307876849259 126.86237984455883 L 743.0307876849259 128.46168002906853 M 751.9272291083566 108.48007201068361 L 751.9272291083566 110.3515357717554 M 751.9272291083566 123.91730332730884 L 751.9272291083566 124.5904569327979 M 760.8236705317872 82.79954509633671 L 760.8236705317872 84.88406799016576 M 760.8236705317872 110.37566123833837 L 760.8236705317872 113.54311675074206 M 778.6165533786485 78.47536489030875 L 778.6165533786485 84.5395870003256 M 778.6165533786485 87.87303044173788 L 778.6165533786485 91.09894154676684 M 787.512994802079 76.65834564184357 L 787.512994802079 78.49388664215975 M 787.512994802079 84.5395870003256 L 787.512994802079 92.26097502276878 M 796.4094362255097 62.79546323255295 L 796.4094362255097 65.23933170687971 M 796.4094362255097 78.49394562863061 L 796.4094362255097 79.68859862301983 M 805.3058776489403 40.00486048519912 L 805.3058776489403 42.57077196774148 M 805.3058776489403 65.23933170687971 L 805.3058776489403 71.66637959917512 M 823.0987604958016 37.94033400499262 L 823.0987604958016 50.61399017521342 M 823.0987604958016 51.59440430742805 L 823.0987604958016 52.5830765455635 M 831.9952019192323 41.54440737472453 L 831.9952019192323 44.725429775426704 M 831.9952019192323 50.58897991156749 L 831.9952019192323 52.32318215494095 M 849.7880847660936 27.682350776026 L 849.7880847660936 29.851224323189257 M 849.7880847660936 46.44022546988623 L 849.7880847660936 47.87920042659016 M 867.5809676129546 28.04830284126035 L 867.5809676129546 30.466748146645102 M 867.5809676129546 38.54842553311971 L 867.5809676129546 49.34129807987239 M 885.3738504598159 3.846153846153868 L 885.3738504598159 5.148575122809859 M 885.3738504598159 30.57917636011004 L 885.3738504598159 33.51634869026441" style="stroke-width: 1px;"></path><path class="candle wick down" d="M 4.626149540183927 168.7154634213097 L 4.626149540183927 169.1137990590478 M 4.626149540183927 174.93222454497837 L 4.626149540183927 179.64353295928046 M 22.41903238704518 166.7549890757056 L 22.41903238704518 169.3869064191437 M 22.41903238704518 171.23282903833174 L 22.41903238704518 174.17088616554906 M 40.21191523390643 164.2986154695559 L 40.21191523390643 166.77268501696452 M 40.21191523390643 173.68808190153507 L 40.21191523390643 176.21441346212833 M 49.10835665733706 172.19354168927813 L 49.10835665733706 173.6862533209383 M 49.10835665733706 175.79307310075362 L 49.10835665733706 178.90472741172084 M 66.90123950419832 173.10635732588372 L 66.90123950419832 175.26066121474378 M 66.90123950419832 180.8055664352824 L 66.90123950419832 185.2118558087517 M 75.79768092762893 178.62790390396057 L 75.79768092762893 180.83806798072794 M 75.79768092762893 183.73206221421054 L 75.79768092762893 185.8784029295041 M 102.48700519792082 180.6934921406426 L 102.48700519792082 181.40386620924625 M 102.48700519792082 186.94222393151904 L 102.48700519792082 189.49167818869066 M 111.38344662135144 185.62434819949695 L 111.38344662135144 186.94222393151904 M 111.38344662135144 193.13167431917816 L 111.38344662135144 196.15384615384616 M 191.4514194322271 129.13341795925686 L 191.4514194322271 132.79311557101263 M 191.4514194322271 132.8113423905093 L 191.4514194322271 137.62746976353503 M 209.24430227908834 118.46866402721872 L 209.24430227908834 119.89401310915329 M 209.24430227908834 124.28573282431941 L 209.24430227908834 127.00902021112437 M 218.14074370251896 117.57796831718676 L 218.14074370251896 124.28567383784858 M 218.14074370251896 133.82024698815079 L 218.14074370251896 136.3179111239046 M 227.0371851259496 130.07714250659467 L 227.0371851259496 133.79175652272397 M 227.0371851259496 137.93526116849839 L 227.0371851259496 140.63577977755023 M 235.93362654938022 134.20625445347855 L 235.93362654938022 137.94092386970124 M 235.93362654938022 143.48453138788085 L 235.93362654938022 146.81738496458453 M 280.4158336665334 101.58673606621585 L 280.4158336665334 105.93675234648181 M 280.4158336665334 110.5269025496312 L 280.4158336665334 113.67306394605333 M 298.2087165133947 93.3876166162529 L 298.2087165133947 96.04867327629734 M 298.2087165133947 99.96466710395305 L 298.2087165133947 105.83694723778154 M 307.10515793682526 93.13120242741124 L 307.10515793682526 99.96460811748219 M 307.10515793682526 100.40110800186869 L 307.10515793682526 101.40305219594833 M 316.0015993602559 96.2300566742012 L 316.0015993602559 100.40305455540718 M 316.0015993602559 106.96040356183906 L 316.0015993602559 110.67065257912445 M 333.7944822071172 84.8699702236295 L 333.7944822071172 86.89916380778907 M 333.7944822071172 91.2139061784789 L 333.7944822071172 97.68755338275614 M 342.6909236305478 89.42213313954312 L 342.6909236305478 91.21396516494977 M 342.6909236305478 91.77244907108107 L 342.6909236305478 100.46599311981804 M 351.5873650539784 85.40185123140157 L 351.5873650539784 91.77244907108107 M 351.5873650539784 98.098925030555 L 351.5873650539784 99.52220958600935 M 360.483806477409 90.67423895655293 L 360.483806477409 98.0988660440841 M 360.483806477409 105.20880030956101 L 360.483806477409 107.09607244482406 M 396.06957217113154 75.35521652753725 L 396.06957217113154 77.9185915918325 M 396.06957217113154 80.8714543232364 L 396.06957217113154 84.40987575089778 M 422.7588964414235 74.74789182353136 L 422.7588964414235 76.93717468961322 M 422.7588964414235 87.64227536772165 L 422.7588964414235 88.07883423857903 M 440.5517792882847 77.73944967982145 L 440.5517792882847 79.97810422201563 M 440.5517792882847 92.53897825994628 L 440.5517792882847 96.04200780508982 M 458.34466213514594 78.05703283894807 L 458.34466213514594 79.40841288642035 M 458.34466213514594 80.43802173533479 L 458.34466213514594 83.67325270276011 M 467.2411035585766 76.09119072449543 L 467.2411035585766 80.43802173533479 M 467.2411035585766 81.19021721178031 L 467.2411035585766 87.12006814117115 M 476.13754498200717 80.47777861669647 L 476.13754498200717 81.19015822530946 M 476.13754498200717 91.71883036906654 L 476.13754498200717 92.48512361204834 M 520.6197520991603 70.7622349737864 L 520.6197520991603 73.93387852562137 M 520.6197520991603 74.41969109964938 L 520.6197520991603 77.63822889582046 M 547.3090763694522 56.69803173944024 L 547.3090763694522 58.19510836994428 M 547.3090763694522 92.42183112881229 L 547.3090763694522 116.13840349577418 M 556.2055177928828 89.60664282040271 L 556.2055177928828 92.39328167691458 M 556.2055177928828 97.23170593592656 L 556.2055177928828 106.88360317677538 M 573.998400639744 91.42336713651358 L 573.998400639744 95.18587816698363 M 573.998400639744 104.29474595706726 L 573.998400639744 108.53363172622727 M 600.687724910036 92.32586014071813 L 600.687724910036 97.36784671067842 M 600.687724910036 103.76492947577542 L 600.687724910036 113.03011141364617 M 627.3770491803277 82.43382897698584 L 627.3770491803277 85.00327964777998 M 627.3770491803277 87.26588269714459 L 627.3770491803277 91.4935610368406 M 636.2734906037584 84.83457834111168 L 636.2734906037584 87.26594168361545 M 636.2734906037584 89.84854633741205 L 636.2734906037584 93.39021202097089 M 654.0663734506197 83.52018281087048 L 654.0663734506197 83.99254646954175 M 654.0663734506197 90.19202455724755 L 654.0663734506197 92.62562938564412 M 662.9628148740503 89.56971728964245 L 662.9628148740503 90.19202455724755 M 662.9628148740503 115.12047396809066 L 662.9628148740503 118.16193437873089 M 671.8592562974809 111.44337534743032 L 671.8592562974809 115.11445734806264 M 671.8592562974809 128.57670364725146 L 671.8592562974809 135.26801092901331 M 698.5485805677728 102.23558724570933 L 698.5485805677728 104.21010037137881 M 698.5485805677728 116.32999155313738 L 698.5485805677728 128.9269653112362 M 707.4450219912034 115.40820997296062 L 707.4450219912034 116.3299325666665 M 707.4450219912034 117.15538923992393 L 707.4450219912034 123.1977273692506 M 725.2379048380647 107.24943726906797 L 725.2379048380647 114.26351851939238 M 725.2379048380647 120.24209227371611 L 725.2379048380647 120.53319050742522 M 734.1343462614954 116.46678117906878 L 734.1343462614954 120.24209227371611 M 734.1343462614954 126.8533549145168 L 734.1343462614954 127.6705534818534 M 769.7201119552178 83.7339497812782 L 769.7201119552178 84.88412697663665 M 769.7201119552178 87.872971455267 L 769.7201119552178 89.08054248677524 M 814.202319072371 42.46866638667757 L 814.202319072371 42.57077196774148 M 814.202319072371 51.59440430742805 L 814.202319072371 54.120322962725254 M 840.8916433426629 35.219229117609586 L 840.8916433426629 44.725429775426704 M 840.8916433426629 46.44028445635709 L 840.8916433426629 49.855601119327275 M 858.6845261895241 28.620471608631846 L 858.6845261895241 29.851224323189257 M 858.6845261895241 38.54830756017799 L 858.6845261895241 51.04122918367443 M 876.4774090363853 23.591639021673984 L 876.4774090363853 30.44415632830453 M 876.4774090363853 30.57917636011004 L 876.4774090363853 33.70481046467182" style="stroke-width: 1px;"></path><path class="candle wick equal" style="stroke-width: 1px;"></path></g></g><g class="x axis" transform="translate(0,200)" fill="none" font-size="10" font-family="sans-serif" text-anchor="middle"><path class="domain" stroke="#000" d="M0.5,6V0.5H890.5V6"></path><g class="tick" opacity="1" transform="translate(40.21191523390643,0)"><line stroke="#000" y2="6" x1="0.5" x2="0.5"></line><text fill="#000" y="9" x="0.5" dy="0.71em">Jul 12</text></g><g class="tick" opacity="1" transform="translate(102.48700519792082,0)"><line stroke="#000" y2="6" x1="0.5" x2="0.5"></line><text fill="#000" y="9" x="0.5" dy="0.71em">Jul 19</text></g><g class="tick" opacity="1" transform="translate(164.7620951619352,0)"><line stroke="#000" y2="6" x1="0.5" x2="0.5"></line><text fill="#000" y="9" x="0.5" dy="0.71em">Jul 26</text></g><g class="tick" opacity="1" transform="translate(227.0371851259496,0)"><line stroke="#000" y2="6" x1="0.5" x2="0.5"></line><text fill="#000" y="9" x="0.5" dy="0.71em">Aug  2</text></g><g class="tick" opacity="1" transform="translate(289.31227508996403,0)"><line stroke="#000" y2="6" x1="0.5" x2="0.5"></line><text fill="#000" y="9" x="0.5" dy="0.71em">Aug  9</text></g><g class="tick" opacity="1" transform="translate(351.5873650539784,0)"><line stroke="#000" y2="6" x1="0.5" x2="0.5"></line><text fill="#000" y="9" x="0.5" dy="0.71em">Aug 16</text></g><g class="tick" opacity="1" transform="translate(413.86245501799283,0)"><line stroke="#000" y2="6" x1="0.5" x2="0.5"></line><text fill="#000" y="9" x="0.5" dy="0.71em">Aug 23</text></g><g class="tick" opacity="1" transform="translate(476.13754498200717,0)"><line stroke="#000" y2="6" x1="0.5" x2="0.5"></line><text fill="#000" y="9" x="0.5" dy="0.71em">Aug 30</text></g><g class="tick" opacity="1" transform="translate(538.4126349460215,0)"><line stroke="#000" y2="6" x1="0.5" x2="0.5"></line><text fill="#000" y="9" x="0.5" dy="0.71em">Sep  6</text></g><g class="tick" opacity="1" transform="translate(600.687724910036,0)"><line stroke="#000" y2="6" x1="0.5" x2="0.5"></line><text fill="#000" y="9" x="0.5" dy="0.71em">Sep 13</text></g><g class="tick" opacity="1" transform="translate(662.9628148740503,0)"><line stroke="#000" y2="6" x1="0.5" x2="0.5"></line><text fill="#000" y="9" x="0.5" dy="0.71em">Sep 20</text></g><g class="tick" opacity="1" transform="translate(725.2379048380647,0)"><line stroke="#000" y2="6" x1="0.5" x2="0.5"></line><text fill="#000" y="9" x="0.5" dy="0.71em">Sep 27</text></g><g class="tick" opacity="1" transform="translate(787.512994802079,0)"><line stroke="#000" y2="6" x1="0.5" x2="0.5"></line><text fill="#000" y="9" x="0.5" dy="0.71em">Oct  4</text></g><g class="tick" opacity="1" transform="translate(849.7880847660936,0)"><line stroke="#000" y2="6" x1="0.5" x2="0.5"></line><text fill="#000" y="9" x="0.5" dy="0.71em">Oct 11</text></g></g><g class="y axis" fill="none" font-size="10" font-family="sans-serif" text-anchor="end"><path class="domain" stroke="#000" d="M-6,200.5H0.5V0.5H-6"></path><g class="tick" opacity="1" transform="translate(0,191.89502295753445)"><line stroke="#000" x2="-6" y1="0.5" y2="0.5"></line><text fill="#000" x="-9" y="0.5" dy="0.32em">30,000</text></g><g class="tick" opacity="1" transform="translate(0,162.40178752601304)"><line stroke="#000" x2="-6" y1="0.5" y2="0.5"></line><text fill="#000" x="-9" y="0.5" dy="0.32em">35,000</text></g><g class="tick" opacity="1" transform="translate(0,132.9085520944916)"><line stroke="#000" x2="-6" y1="0.5" y2="0.5"></line><text fill="#000" x="-9" y="0.5" dy="0.32em">40,000</text></g><g class="tick" opacity="1" transform="translate(0,103.41531666297018)"><line stroke="#000" x2="-6" y1="0.5" y2="0.5"></line><text fill="#000" x="-9" y="0.5" dy="0.32em">45,000</text></g><g class="tick" opacity="1" transform="translate(0,73.92208123144877)"><line stroke="#000" x2="-6" y1="0.5" y2="0.5"></line><text fill="#000" x="-9" y="0.5" dy="0.32em">50,000</text></g><g class="tick" opacity="1" transform="translate(0,44.42884579992733)"><line stroke="#000" x2="-6" y1="0.5" y2="0.5"></line><text fill="#000" x="-9" y="0.5" dy="0.32em">55,000</text></g><g class="tick" opacity="1" transform="translate(0,14.935610368405918)"><line stroke="#000" x2="-6" y1="0.5" y2="0.5"></line><text fill="#000" x="-9" y="0.5" dy="0.32em">60,000</text></g><text transform="rotate(-90)" y="6" dy=".71em" style="text-anchor: end;">Price ($)</text></g></g></svg>