<?xml version="1.0" encoding="utf-8"?>
<!DOCTYPE svg PUBLIC "-//W3C//DTD SVG 1.1//EN" "http://www.w3.org/Graphics/SVG/1.1/DTD/svg11.dtd">
<svg version="1.1" xmlns="http://www.w3.org/2000/svg" width="960" height="250"><g transform="translate(50,20)"><style>.axis path,.axis line{fill:none;stroke:#000;shape-rendering:crispEdges;}path.candle{stroke:#000000;}path.candle.body{stroke-width:0;}path.candle.up{fill:#00AA00;stroke:#00AA00;}path.candle.down{fill:#FF0000;stroke:#FF0000;}</style><g class="candlestick"><g class="data"><path class="candle body up" d="M 1.0675729708116766 195.71883088154203 l 7.1171531387445 0 L 8.184726109556177 194.0856844815727 l -7.1171531387445 0 L 1.0675729708116766 195.71883088154203 M 9.964014394242305 194.0856844815727 l 7.1171531387445 0 L 17.081167532986804 193.64808328267296 l -7.1171531387445 0 L 9.964014394242305 194.0856844815727 M 18.860455817672932 193.64563111090123 l 7.1171531387445 0 L 25.977608956417434 192.96464071742236 l -7.1171531387445 0 L 18.860455817672932 193.64563111090123 M 27.75689724110356 192.96464071742236 l 7.1171531387445 0 L 34.87405037984806 184.45297415799735 l -7.1171531387445 0 L 27.75689724110356 192.96464071742236 M 36.65333866453418 184.45297415799735 l 7.1171531387445 0 L 43.77049180327868 177.9362607972244 l -7.1171531387445 0 L 36.65333866453418 184.45297415799735 M 45.54978008796481 177.9363053821657 l 7.1171531387445 0 L 52.66693322670931 176.55310216314723 l -7.1171531387445 0 L 45.54978008796481 177.9363053821657 M 54.446221511395436 176.55310216314723 l 7.1171531387445 0 L 61.563374650139934 173.36875648532558 l -7.1171531387445 0 L 54.446221511395436 176.55310216314723 M 81.13554578168731 178.28081322362252 l 7.1171531387445 0 L 88.25269892043181 173.4169973918166 l -7.1171531387445 0 L 81.13554578168731 178.28081322362252 M 98.92842862854857 175.99579039684593 l 7.1171531387445 0 L 106.04558176729307 173.78076592791678 l -7.1171531387445 0 L 98.92842862854857 175.99579039684593 M 107.82487005197919 173.78170221168415 l 7.1171531387445 0 L 114.94202319072369 169.39686240430822 l -7.1171531387445 0 L 107.82487005197919 173.78170221168415 M 116.72131147540982 169.39686240430822 l 7.1171531387445 0 L 123.83846461415432 161.45664103757792 l -7.1171531387445 0 L 116.72131147540982 169.39686240430822 M 134.51419432227107 162.40117301910533 l 7.1171531387445 0 L 141.63134746101557 158.84387430727486 l -7.1171531387445 0 L 134.51419432227107 162.40117301910533 M 143.4106357457017 158.84382972233357 l 7.1171531387445 0 L 150.5277888844462 157.48140308596277 l -7.1171531387445 0 L 143.4106357457017 158.84382972233357 M 152.30707716913233 157.48140308596277 l 7.1171531387445 0 L 159.42423030787683 150.835839244821 l -7.1171531387445 0 L 152.30707716913233 157.48140308596277 M 161.20351859256294 150.8357946598797 l 7.1171531387445 0 L 168.32067173130744 150.62143026208955 l -7.1171531387445 0 L 161.20351859256294 150.8357946598797 M 170.09996001599356 150.62143026208955 l 7.1171531387445 0 L 177.21711315473806 148.80209714723432 l -7.1171531387445 0 L 170.09996001599356 150.62143026208955 M 178.9964014394242 148.802052562293 l 7.1171531387445 0 L 186.1135545781687 136.1103694158431 l -7.1171531387445 0 L 178.9964014394242 148.802052562293 M 187.89284286285485 136.11875138480826 l 7.1171531387445 0 L 195.00999600159935 132.4467356190023 l -7.1171531387445 0 L 187.89284286285485 136.11875138480826 M 205.68572570971608 136.9511522389559 l 7.1171531387445 0 L 212.80287884846058 128.21348461206037 l -7.1171531387445 0 L 205.68572570971608 136.9511522389559 M 214.5821671331467 128.21348461206037 l 7.1171531387445 0 L 221.6993202718912 115.64128910830546 l -7.1171531387445 0 L 214.5821671331467 128.21348461206037 M 223.47860855657734 115.64128910830546 l 7.1171531387445 0 L 230.59576169532184 103.76867591855324 l -7.1171531387445 0 L 223.47860855657734 115.64128910830546 M 232.37504998000796 103.76778421972713 l 7.1171531387445 0 L 239.49220311875246 98.63904466669227 l -7.1171531387445 0 L 232.37504998000796 103.76778421972713 M 276.85725709716115 127.76932942678889 l 7.1171531387445 0 L 283.9744102359057 112.95718647191586 l -7.1171531387445 0 L 276.85725709716115 127.76932942678889 M 285.7536985205918 112.95718647191586 l 7.1171531387445 0 L 292.8708516593363 105.05174135940271 l -7.1171531387445 0 L 285.7536985205918 112.95718647191586 M 321.3394642143143 119.85175721024105 l 7.1171531387445 0 L 328.45661735305885 116.25696256277384 l -7.1171531387445 0 L 321.3394642143143 119.85175721024105 M 356.9252299080368 142.0238485207715 l 7.1171531387445 0 L 364.0423830467813 132.6914177768793 l -7.1171531387445 0 L 356.9252299080368 142.0238485207715 M 374.7181127548981 136.55769013194717 l 7.1171531387445 0 L 381.8352658936426 135.74669004962553 l -7.1171531387445 0 L 374.7181127548981 136.55769013194717 M 392.5109956017593 135.7721480511102 l 7.1171531387445 0 L 399.62814874050383 134.81990287473715 l -7.1171531387445 0 L 392.5109956017593 135.7721480511102 M 410.3038784486206 144.2076189458465 l 7.1171531387445 0 L 417.4210315873651 130.82023237528736 l -7.1171531387445 0 L 410.3038784486206 144.2076189458465 M 419.20031987205124 130.80543017477441 l 7.1171531387445 0 L 426.31747301079577 126.86403219360909 l -7.1171531387445 0 L 419.20031987205124 130.80543017477441 M 428.0967612954818 126.8904264788611 l 7.1171531387445 0 L 435.21391443422635 126.81641547629631 l -7.1171531387445 0 L 428.0967612954818 126.8904264788611 M 445.8896441423431 132.03245234440462 l 7.1171531387445 0 L 453.00679728108764 130.10014098828478 l -7.1171531387445 0 L 445.8896441423431 132.03245234440462 M 454.7860855657737 130.141515813815 l 7.1171531387445 0 L 461.90323870451823 121.45124197952575 l -7.1171531387445 0 L 454.7860855657737 130.141515813815 M 463.68252698920435 121.42239552250199 l 7.1171531387445 0 L 470.7996801279489 111.85375375958058 l -7.1171531387445 0 L 463.68252698920435 121.42239552250199 M 481.47540983606564 114.8954276252291 l 7.1171531387445 0 L 488.59256297481016 108.86045455524703 l -7.1171531387445 0 L 481.47540983606564 114.8954276252291 M 490.3718512594962 108.864556369847 l 7.1171531387445 0 L 497.48900439824075 104.8625228685081 l -7.1171531387445 0 L 490.3718512594962 108.864556369847 M 508.16473410635746 106.60690869703112 l 7.1171531387445 0 L 515.281887245102 72.8151791537079 l -7.1171531387445 0 L 508.16473410635746 106.60690869703112 M 517.0611755297881 72.81522373864921 l 7.1171531387445 0 L 524.1783286685326 72.61209474606774 l -7.1171531387445 0 L 517.0611755297881 72.81522373864921 M 534.8540583766493 79.80293241935867 l 7.1171531387445 0 L 541.9712115153937 65.70548607359041 l -7.1171531387445 0 L 534.8540583766493 79.80293241935867 M 561.5433826469413 69.32903800819878 l 7.1171531387445 0 L 568.6605357856857 62.99347326394442 l -7.1171531387445 0 L 561.5433826469413 69.32903800819878 M 579.3362654938024 65.96590671574768 l 7.1171531387445 0 L 586.4534186325469 60.51606641544066 l -7.1171531387445 0 L 579.3362654938024 65.96590671574768 M 588.232706917233 60.51606641544066 l 7.1171531387445 0 L 595.3498600559775 47.20184373356153 l -7.1171531387445 0 L 588.232706917233 60.51606641544066 M 606.0255897640943 49.730255754917266 l 7.1171531387445 0 L 613.1427429028388 30.3206919925303 l -7.1171531387445 0 L 606.0255897640943 49.730255754917266 M 623.8184726109555 30.609646997122184 l 7.1171531387445 0 L 630.9356257497 23.621492466999655 l -7.1171531387445 0 L 623.8184726109555 30.609646997122184 M 650.5077968812475 61.59702831735862 l 7.1171531387445 0 L 657.624950019992 58.09621872616043 l -7.1171531387445 0 L 650.5077968812475 61.59702831735862 M 694.9900039984005 78.3471003309558 l 7.1171531387445 0 L 702.107157137145 58.49378264776911 l -7.1171531387445 0 L 694.9900039984005 78.3471003309558 M 712.7828868452618 63.62292346527576 l 7.1171531387445 0 L 719.9000399840063 55.09489423239211 l -7.1171531387445 0 L 712.7828868452618 63.62292346527576 M 730.5757696921231 63.90166851830904 l 7.1171531387445 0 L 737.6929228308676 62.218051964783484 l -7.1171531387445 0 L 730.5757696921231 63.90166851830904 M 739.4722111155537 62.23989858602249 l 7.1171531387445 0 L 746.5893642542982 61.63626306570623 l -7.1171531387445 0 L 739.4722111155537 62.23989858602249 M 748.3686525389844 61.63626306570623 l 7.1171531387445 0 L 755.4858056777289 52.320016655507374 l -7.1171531387445 0 L 748.3686525389844 61.63626306570623 M 757.265093962415 52.376372021315746 l 7.1171531387445 0 L 764.3822471011595 46.062876823006945 l -7.1171531387445 0 L 757.265093962415 52.376372021315746 M 766.1615353858456 46.062832238065596 l 7.1171531387445 0 L 773.27868852459 34.87504374674444 l -7.1171531387445 0 L 766.1615353858456 46.062832238065596 M 775.0579768092763 34.91887074404639 l 7.1171531387445 0 L 782.1751299480208 30.563278658165956 l -7.1171531387445 0 L 775.0579768092763 34.91887074404639 M 783.9544182327068 30.563278658165956 l 7.1171531387445 0 L 791.0715713714512 21.99597009199337 l -7.1171531387445 0 L 783.9544182327068 30.563278658165956 M 801.747301079568 24.45456209526685 l 7.1171531387445 0 L 808.8644542183125 6.7691871829921695 l -7.1171531387445 0 L 801.747301079568 24.45456209526685 M 828.43662534986 31.661807026957746 l 7.1171531387445 0 L 835.5537784886045 25.88560495630466 l -7.1171531387445 0 L 828.43662534986 31.661807026957746 M 837.3330667732906 25.885649541245925 l 7.1171531387445 0 L 844.4502199120351 16.914133897210405 l -7.1171531387445 0 L 837.3330667732906 25.885649541245925 M 855.1259496201519 22.585204676268404 l 7.1171531387445 0 L 862.2431027588964 20.850805874597455 l -7.1171531387445 0 L 855.1259496201519 22.585204676268404 M 864.0223910435824 20.850805874597455 l 7.1171531387445 0 L 871.1395441823269 20.528590503792742 l -7.1171531387445 0 L 864.0223910435824 20.850805874597455"></path><path class="candle body down" d="M 63.342662934826066 173.36880107026687 l 7.1171531387445 0 L 70.45981607357056 175.00096660152747 l -7.1171531387445 0 L 63.342662934826066 173.36880107026687 M 72.23910435825668 175.00087743164485 l 7.1171531387445 0 L 79.35625749700118 178.2815711676247 l -7.1171531387445 0 L 72.23910435825668 175.00087743164485 M 90.03198720511796 173.4169973918166 l 7.1171531387445 0 L 97.14914034386246 175.99414075401768 l -7.1171531387445 0 L 90.03198720511796 173.4169973918166 M 125.61775289884046 161.45659645263657 l 7.1171531387445 0 L 132.73490603758498 162.40063799980967 l -7.1171531387445 0 L 125.61775289884046 161.45659645263657 M 196.78928428628546 132.4467356190023 l 7.1171531387445 0 L 203.90643742502996 136.95578907285153 l -7.1171531387445 0 L 196.78928428628546 132.4467356190023 M 241.2714914034386 98.62054191605105 l 7.1171531387445 0 L 248.3886445421831 100.84417127865188 l -7.1171531387445 0 L 241.2714914034386 98.62054191605105 M 250.16793282686922 100.84417127865188 l 7.1171531387445 0 L 257.28508596561375 109.48562460221318 l -7.1171531387445 0 L 250.16793282686922 100.84417127865188 M 259.06437425029986 109.48562460221318 l 7.1171531387445 0 L 266.1815273890444 121.72664316196118 l -7.1171531387445 0 L 259.06437425029986 109.48562460221318 M 267.9608156737305 121.70033804659177 l 7.1171531387445 0 L 275.07796881247504 127.76001117405634 l -7.1171531387445 0 L 267.9608156737305 121.70033804659177 M 294.65013994402244 105.04857582857012 l 7.1171531387445 0 L 301.76729308276697 115.7622926390048 l -7.1171531387445 0 L 294.65013994402244 105.04857582857012 M 303.54658136745303 115.78364882588946 l 7.1171531387445 0 L 310.66373450619756 119.09385779301257 l -7.1171531387445 0 L 303.54658136745303 115.78364882588946 M 312.4430227908837 119.09385779301257 l 7.1171531387445 0 L 319.5601759296282 119.83561746148895 l -7.1171531387445 0 L 312.4430227908837 119.09385779301257 M 330.23590563774496 116.29624189606274 l 7.1171531387445 0 L 337.3530587764895 119.55526735056877 l -7.1171531387445 0 L 330.23590563774496 116.29624189606274 M 339.13234706117555 119.50867608690596 l 7.1171531387445 0 L 346.2495001999201 121.4423695762062 l -7.1171531387445 0 L 339.13234706117555 119.50867608690596 M 348.02878848460614 121.4423695762062 l 7.1171531387445 0 L 355.14594162335067 142.03214131985408 l -7.1171531387445 0 L 348.02878848460614 121.4423695762062 M 365.8216713314674 132.66988325022936 l 7.1171531387445 0 L 372.93882447021196 136.55769013194717 l -7.1171531387445 0 L 365.8216713314674 132.66988325022936 M 383.61455417832866 135.74869637198424 l 7.1171531387445 0 L 390.7317073170732 135.7721034661689 l -7.1171531387445 0 L 383.61455417832866 135.74869637198424 M 401.40743702518995 134.8366668126675 l 7.1171531387445 0 L 408.5245901639345 144.18996330909005 l -7.1171531387445 0 L 401.40743702518995 134.8366668126675 M 436.99320271891247 126.81637089135499 l 7.1171531387445 0 L 444.110355857657 132.0324077594633 l -7.1171531387445 0 L 436.99320271891247 126.81637089135499 M 472.57896841263494 111.84755645273931 l 7.1171531387445 0 L 479.69612155137946 114.8953830402878 l -7.1171531387445 0 L 472.57896841263494 111.84755645273931 M 499.2682926829268 104.88896173870143 l 7.1171531387445 0 L 506.38544582167134 106.60690869703112 l -7.1171531387445 0 L 499.2682926829268 104.88896173870143 M 525.9576169532187 72.61209474606774 l 7.1171531387445 0 L 533.0747700919632 79.80293241935867 l -7.1171531387445 0 L 525.9576169532187 72.61209474606774 M 543.75049980008 65.70927579360125 l 7.1171531387445 0 L 550.8676529388244 68.7457778060585 l -7.1171531387445 0 L 543.75049980008 65.70927579360125 M 552.6469412235106 68.69874069298268 l 7.1171531387445 0 L 559.764094362255 69.34281475506174 l -7.1171531387445 0 L 552.6469412235106 68.69874069298268 M 570.4398240703717 62.98152449967495 l 7.1171531387445 0 L 577.5569772091162 65.96590671574768 l -7.1171531387445 0 L 570.4398240703717 62.98152449967495 M 597.1291483406637 47.210939061587595 l 7.1171531387445 0 L 604.2463014794082 49.73030033985853 l -7.1171531387445 0 L 597.1291483406637 47.210939061587595 M 614.9220311875249 30.3206919925303 l 7.1171531387445 0 L 622.0391843262694 30.609646997122184 l -7.1171531387445 0 L 614.9220311875249 30.3206919925303 M 632.7149140343862 23.604639359186706 l 7.1171531387445 0 L 639.8320671731307 38.427705624679305 l -7.1171531387445 0 L 632.7149140343862 23.604639359186706 M 641.6113554578168 38.427705624679305 l 7.1171531387445 0 L 648.7285085965613 61.59702831735862 l -7.1171531387445 0 L 641.6113554578168 38.427705624679305 M 659.4042383046781 58.09617414121914 l 7.1171531387445 0 L 666.5213914434225 69.69931594572935 l -7.1171531387445 0 L 659.4042383046781 58.09617414121914 M 668.3006797281087 69.69931594572935 l 7.1171531387445 0 L 675.4178328668531 73.25211157848813 l -7.1171531387445 0 L 668.3006797281087 69.69931594572935 M 677.1971211515394 73.25206699354683 l 7.1171531387445 0 L 684.3142742902838 74.01201731807525 l -7.1171531387445 0 L 677.1971211515394 73.25206699354683 M 686.09356257497 74.02432276187521 l 7.1171531387445 0 L 693.2107157137144 78.34018966505366 l -7.1171531387445 0 L 686.09356257497 74.02432276187521 M 703.8864454218311 58.45485999401063 l 7.1171531387445 0 L 711.0035985605756 63.60491114898889 l -7.1171531387445 0 L 703.8864454218311 58.45485999401063 M 721.6793282686924 55.09489423239211 l 7.1171531387445 0 L 728.7964814074369 63.90166851830904 l -7.1171531387445 0 L 721.6793282686924 55.09489423239211 M 792.8508596561375 21.996014676934635 l 7.1171531387445 0 L 799.9680127948819 24.45456209526685 l -7.1171531387445 0 L 792.8508596561375 21.996014676934635 M 810.6437425029987 6.769231767933462 l 7.1171531387445 0 L 817.7608956417432 16.667400832033508 l -7.1171531387445 0 L 810.6437425029987 6.769231767933462 M 819.5401839264293 16.632758332640208 l 7.1171531387445 0 L 826.6573370651738 31.661807026957746 l -7.1171531387445 0 L 819.5401839264293 16.632758332640208 M 846.2295081967213 16.914133897210405 l 7.1171531387445 0 L 853.3466613354658 22.553281858294667 l -7.1171531387445 0 L 846.2295081967213 16.914133897210405 M 872.9188324670131 20.538666700527443 l 7.1171531387445 0 L 880.0359856057576 23.87567121737436 l -7.1171531387445 0 L 872.9188324670131 20.538666700527443 M 881.8152738904437 23.87567121737436 l 7.1171531387445 0 L 888.9324270291881 24.890067801925284 l -7.1171531387445 0 L 881.8152738904437 23.87567121737436"></path><path class="candle body equal"></path><path class="candle wick up" d="M 4.626149540183927 193.0334352818546 L 4.626149540183927 194.0856844815727 M 4.626149540183927 195.71883088154203 L 4.626149540183927 196.15384615384616 M 13.522590963614554 193.30986191794003 L 13.522590963614554 193.64808328267296 M 13.522590963614554 194.0856844815727 L 13.522590963614554 194.86587636945322 M 22.41903238704518 192.32453471511934 L 22.41903238704518 192.96464071742236 M 22.41903238704518 193.64563111090123 L 22.41903238704518 194.64295166293272 M 31.315473810475808 183.45213139560283 L 31.315473810475808 184.45297415799735 M 31.315473810475808 192.96464071742236 L 31.315473810475808 193.6237399047209 M 40.21191523390643 173.46510454348373 L 40.21191523390643 177.9362607972244 M 40.21191523390643 184.45297415799735 L 40.21191523390643 184.92343445863824 M 49.10835665733706 175.76042649170157 L 49.10835665733706 176.55310216314723 M 49.10835665733706 177.9363053821657 L 49.10835665733706 179.92992103257868 M 58.004798080767685 171.80890772886022 L 58.004798080767685 173.36875648532558 M 58.004798080767685 176.55310216314723 L 58.004798080767685 178.14652338041455 M 84.69412235105956 173.29969441124553 L 84.69412235105956 173.4169973918166 M 84.69412235105956 178.28081322362252 L 84.69412235105956 179.91476215253527 M 102.48700519792082 173.48993835579012 L 102.48700519792082 173.78076592791678 M 102.48700519792082 175.99579039684593 L 102.48700519792082 178.3542000370091 M 111.38344662135144 169.05181954355578 L 111.38344662135144 169.39686240430822 M 111.38344662135144 173.78170221168415 L 111.38344662135144 175.09869679286606 M 120.27988804478207 159.7907692906914 L 120.27988804478207 161.45664103757792 M 120.27988804478207 169.39686240430822 L 120.27988804478207 170.3441586521965 M 138.07277089164333 156.9686762609656 L 138.07277089164333 158.84387430727486 M 138.07277089164333 162.40117301910533 L 138.07277089164333 163.2061095494096 M 146.96921231507397 157.3699407327025 L 146.96921231507397 157.48140308596277 M 146.96921231507397 158.84382972233357 L 146.96921231507397 164.1914367522303 M 155.8656537385046 150.29876904187176 L 155.8656537385046 150.835839244821 M 155.8656537385046 157.48140308596277 L 155.8656537385046 157.77120520443944 M 164.7620951619352 148.94338682622703 L 164.7620951619352 150.62143026208955 M 164.7620951619352 150.8357946598797 L 164.7620951619352 155.40820331532197 M 173.65853658536582 147.60583858710393 L 173.65853658536582 148.80209714723432 M 173.65853658536582 150.62143026208955 L 173.65853658536582 151.95478751673005 M 182.55497800879647 131.10941030458577 L 182.55497800879647 136.1103694158431 M 182.55497800879647 148.802052562293 L 182.55497800879647 150.51933074650316 M 191.4514194322271 124.519265545485 L 191.4514194322271 132.4467356190023 M 191.4514194322271 136.11875138480826 L 191.4514194322271 137.07046154188566 M 209.24430227908834 126.38340652635085 L 209.24430227908834 128.21348461206037 M 209.24430227908834 136.9511522389559 L 209.24430227908834 146.26829034798084 M 218.14074370251896 114.88401388025528 L 218.14074370251896 115.64128910830546 M 218.14074370251896 128.21348461206037 L 218.14074370251896 131.1629122341507 M 227.0371851259496 99.61014927323693 L 227.0371851259496 103.76867591855324 M 227.0371851259496 115.64128910830546 L 227.0371851259496 117.73392791335485 M 235.93362654938022 92.5434360765366 L 235.93362654938022 98.63904466669227 M 235.93362654938022 103.76778421972713 L 235.93362654938022 116.84222908727277 M 280.4158336665334 110.82326201121886 L 280.4158336665334 112.95718647191586 M 280.4158336665334 127.76932942678889 L 280.4158336665334 135.21122490456327 M 289.31227508996403 100.79165021779566 L 289.31227508996403 105.05174135940271 M 289.31227508996403 112.95718647191586 L 289.31227508996403 115.9450463134103 M 324.89804078368655 112.51824772477694 L 324.89804078368655 116.25696256277384 M 324.89804078368655 119.85175721024105 L 324.89804078368655 124.4216691089703 M 360.483806477409 128.76187939010083 L 360.483806477409 132.6914177768793 M 360.483806477409 142.0238485207715 L 360.483806477409 150.94970918491165 M 378.2766893242703 132.13040546044974 L 378.2766893242703 135.74669004962553 M 378.2766893242703 136.55769013194717 L 378.2766893242703 141.80979621757052 M 396.06957217113154 132.79525610517652 L 396.06957217113154 134.81990287473715 M 396.06957217113154 135.7721480511102 L 396.06957217113154 142.08903170495813 M 413.86245501799283 128.9515883153498 L 413.86245501799283 130.82023237528736 M 413.86245501799283 144.2076189458465 L 413.86245501799283 146.52643715813159 M 422.7588964414235 107.78301486369206 L 422.7588964414235 126.86403219360909 M 422.7588964414235 130.80543017477441 L 422.7588964414235 137.28264127755187 M 431.65533786485406 123.82868938962574 L 431.65533786485406 126.81641547629631 M 431.65533786485406 126.8904264788611 L 431.65533786485406 133.2271950165307 M 449.44822071171535 124.79052032837917 L 449.44822071171535 130.10014098828478 M 449.44822071171535 132.03245234440462 L 449.44822071171535 135.58502505245687 M 458.34466213514594 119.14134075550146 L 458.34466213514594 121.45124197952575 M 458.34466213514594 130.141515813815 L 458.34466213514594 130.58330799719738 M 467.2411035585766 111.65865005643386 L 467.2411035585766 111.85375375958058 M 467.2411035585766 121.42239552250199 L 467.2411035585766 121.91430117991017 M 485.0339864054379 108.77181969193445 L 485.0339864054379 108.86045455524703 M 485.0339864054379 114.8954276252291 L 485.0339864054379 116.53013449814405 M 493.93042782886846 96.97736390428832 L 493.93042782886846 104.8625228685081 M 493.93042782886846 108.864556369847 L 493.93042782886846 109.1917206691365 M 511.7233106757297 70.94448418647036 L 511.7233106757297 72.8151791537079 M 511.7233106757297 106.60690869703112 L 511.7233106757297 110.20402176144619 M 520.6197520991603 64.93559330715115 L 520.6197520991603 72.61209474606774 M 520.6197520991603 72.81522373864921 L 520.6197520991603 79.11850898539943 M 538.4126349460215 62.54267492241863 L 538.4126349460215 65.70548607359041 M 538.4126349460215 79.80293241935867 L 538.4126349460215 83.43018490409531 M 565.1019592163135 57.95697995446773 L 565.1019592163135 62.99347326394442 M 565.1019592163135 69.32903800819878 L 565.1019592163135 69.96486385613662 M 582.8948420631747 53.579853341937365 L 582.8948420631747 60.51606641544066 M 582.8948420631747 65.96590671574768 L 582.8948420631747 70.0119009692124 M 591.7912834866053 44.97692140766287 L 591.7912834866053 47.20184373356153 M 591.7912834866053 60.51606641544066 L 591.7912834866053 61.34735264605564 M 609.5841663334666 28.26086770428074 L 609.5841663334666 30.3206919925303 M 609.5841663334666 49.730255754917266 L 609.5841663334666 53.486135795316216 M 627.3770491803277 19.411648554242333 L 627.3770491803277 23.621492466999655 M 627.3770491803277 30.609646997122184 L 627.3770491803277 32.230755462939385 M 654.0663734506197 50.5221734823607 L 654.0663734506197 58.09621872616043 M 654.0663734506197 61.59702831735862 L 654.0663734506197 70.07846628657944 M 698.5485805677728 57.58884209411974 L 698.5485805677728 58.49378264776911 M 698.5485805677728 78.3471003309558 L 698.5485805677728 79.16559068341653 M 716.3414634146341 44.882133822450356 L 716.3414634146341 55.09489423239211 M 716.3414634146341 63.62292346527576 L 716.3414634146341 65.12053164368058 M 734.1343462614954 59.10950068717881 L 734.1343462614954 62.218051964783484 M 734.1343462614954 63.90166851830904 L 734.1343462614954 73.14898660925174 M 743.0307876849259 60.219353631061836 L 743.0307876849259 61.63626306570623 M 743.0307876849259 62.23989858602249 L 743.0307876849259 69.71594612883578 M 751.9272291083566 50.18760808281476 L 751.9272291083566 52.320016655507374 M 751.9272291083566 61.63626306570623 L 751.9272291083566 61.63626306570623 M 760.8236705317872 45.93977780006631 L 760.8236705317872 46.062876823006945 M 760.8236705317872 52.376372021315746 L 760.8236705317872 59.8864378743441 M 769.7201119552178 34.828229558375114 L 769.7201119552178 34.87504374674444 M 769.7201119552178 46.062832238065596 L 769.7201119552178 48.67448434483609 M 778.6165533786485 23.714585824442622 L 778.6165533786485 30.563278658165956 M 778.6165533786485 34.91887074404639 L 778.6165533786485 43.25478346485062 M 787.512994802079 20.315831163889555 L 787.512994802079 21.99597009199337 M 787.512994802079 30.563278658165956 L 787.512994802079 37.602215436433795 M 805.3058776489403 3.846153846153868 L 805.3058776489403 6.7691871829921695 M 805.3058776489403 24.45456209526685 L 805.3058776489403 29.55280554844967 M 831.9952019192323 25.718233086649008 L 831.9952019192323 25.88560495630466 M 831.9952019192323 31.661807026957746 L 831.9952019192323 42.06730813815716 M 840.8916433426629 16.638777299716224 L 840.8916433426629 16.914133897210405 M 840.8916433426629 25.885649541245925 L 840.8916433426629 38.2671106661019 M 858.6845261895241 14.439535900008764 L 858.6845261895241 20.850805874597455 M 858.6845261895241 22.585204676268404 L 858.6845261895241 28.694500843404427 M 867.5809676129546 12.602636318279707 L 867.5809676129546 20.528590503792742 M 867.5809676129546 20.850805874597455 L 867.5809676129546 21.786376282922788" style="stroke-width: 1px;"></path><path class="candle wick down" d="M 66.90123950419832 171.25814994893062 L 66.90123950419832 173.36880107026687 M 66.90123950419832 175.00096660152747 L 66.90123950419832 176.76439019998736 M 75.79768092762893 172.11520627561939 L 75.79768092762893 175.00087743164485 M 75.79768092762893 178.2815711676247 L 75.79768092762893 182.3152153923482 M 93.5905637744902 172.12755630436064 L 93.5905637744902 173.4169973918166 M 93.5905637744902 175.99414075401768 L 93.5905637744902 178.8152974999761 M 129.1763294682127 152.85794467272729 L 129.1763294682127 161.45659645263657 M 129.1763294682127 162.40063799980967 L 129.1763294682127 164.99396569570413 M 200.34786085565773 129.7718620654627 L 200.34786085565773 132.4467356190023 M 200.34786085565773 136.95578907285153 L 200.34786085565773 154.1598249588071 M 244.83006797281087 95.08477773087047 L 244.83006797281087 98.62054191605105 M 244.83006797281087 100.84417127865188 L 244.83006797281087 106.94437211776189 M 253.72650939624148 95.21853255478277 L 253.72650939624148 100.84417127865188 M 253.72650939624148 109.48562460221318 L 253.72650939624148 123.03458700005837 M 262.6229508196721 108.9741461555725 L 262.6229508196721 109.48562460221318 M 262.6229508196721 121.72664316196118 L 262.6229508196721 143.94987340016746 M 271.51939224310274 116.27154183858026 L 271.51939224310274 121.70033804659177 M 271.51939224310274 127.76001117405634 L 271.51939224310274 134.5379922908713 M 298.2087165133947 102.36211019029138 L 298.2087165133947 105.04857582857012 M 298.2087165133947 115.7622926390048 L 298.2087165133947 126.16939880809115 M 307.10515793682526 110.37741259817783 L 307.10515793682526 115.78364882588946 M 307.10515793682526 119.09385779301257 L 307.10515793682526 121.93472108302743 M 316.0015993602559 115.27060990630315 L 316.0015993602559 119.09385779301257 M 316.0015993602559 119.83561746148895 L 316.0015993602559 128.6572385328601 M 333.7944822071172 110.82326201121886 L 333.7944822071172 116.29624189606274 M 333.7944822071172 119.55526735056877 L 333.7944822071172 119.76673372717414 M 342.6909236305478 117.21981895517723 L 342.6909236305478 119.50867608690596 M 342.6909236305478 121.4423695762062 L 342.6909236305478 130.66356089154476 M 351.5873650539784 120.85487380464205 L 351.5873650539784 121.4423695762062 M 351.5873650539784 142.03214131985408 L 351.5873650539784 145.50588785168065 M 369.38024790083966 130.41388522024175 L 369.38024790083966 132.66988325022936 M 369.38024790083966 136.55769013194717 L 369.38024790083966 139.6244207346086 M 387.1731307477009 124.08728204918954 L 387.1731307477009 135.74869637198424 M 387.1731307477009 135.7721034661689 L 387.1731307477009 137.3067171458561 M 404.9660135945622 134.42077848018283 L 404.9660135945622 134.8366668126675 M 404.9660135945622 144.18996330909005 L 404.9660135945622 149.20322786414732 M 440.5517792882847 126.46058305974825 L 440.5517792882847 126.81637089135499 M 440.5517792882847 132.0324077594633 L 440.5517792882847 136.14006298675164 M 476.13754498200717 106.99667025391162 L 476.13754498200717 111.84755645273931 M 476.13754498200717 114.8953830402878 L 476.13754498200717 118.349423028058 M 502.82686925229905 102.57504786995979 L 502.82686925229905 104.88896173870143 M 502.82686925229905 106.60690869703112 L 502.82686925229905 113.0480505822936 M 529.5161935225909 68.64590753753731 L 529.5161935225909 72.61209474606774 M 529.5161935225909 79.80293241935867 L 529.5161935225909 84.62069200679747 M 547.3090763694522 61.17436307379572 L 547.3090763694522 65.70927579360125 M 547.3090763694522 68.7457778060585 L 547.3090763694522 73.92922308207352 M 556.2055177928828 64.90077246799265 L 556.2055177928828 68.69874069298268 M 556.2055177928828 69.34281475506174 L 556.2055177928828 73.58355603214284 M 573.998400639744 61.06236570123983 L 573.998400639744 62.98152449967495 M 573.998400639744 65.96590671574768 L 573.998400639744 76.40016511408822 M 600.687724910036 45.37256817679551 L 600.687724910036 47.210939061587595 M 600.687724910036 49.73030033985853 L 600.687724910036 52.631442470516504 M 618.4806077568971 22.32010261527418 L 618.4806077568971 30.3206919925303 M 618.4806077568971 30.609646997122184 L 618.4806077568971 39.42524910141725 M 636.2734906037584 23.176088903371692 L 636.2734906037584 23.604639359186706 M 636.2734906037584 38.427705624679305 L 636.2734906037584 67.25485736884931 M 645.169932027189 38.000046867690344 L 645.169932027189 38.427705624679305 M 645.169932027189 61.59702831735862 L 645.169932027189 79.42404958815644 M 662.9628148740503 47.549517105850924 L 662.9628148740503 58.09617414121914 M 662.9628148740503 69.69931594572935 L 662.9628148740503 71.47999391647394 M 671.8592562974809 63.678654641905865 L 671.8592562974809 69.69931594572935 M 671.8592562974809 73.25211157848813 L 671.8592562974809 82.92744510595026 M 680.7556977209116 63.81289990017254 L 680.7556977209116 73.25206699354683 M 680.7556977209116 74.01201731807525 L 680.7556977209116 78.94502897878513 M 689.6521391443422 71.63996468587305 L 689.6521391443422 74.02432276187521 M 689.6521391443422 78.34018966505366 L 689.6521391443422 87.86201723960576 M 707.4450219912034 55.76085950065152 L 707.4450219912034 58.45485999401063 M 707.4450219912034 63.60491114898889 L 707.4450219912034 69.815816397357 M 725.2379048380647 48.74372475868134 L 725.2379048380647 55.09489423239211 M 725.2379048380647 63.90166851830904 L 725.2379048380647 67.79879365275937 M 796.4094362255097 20.62119342688132 L 796.4094362255097 21.996014676934635 M 796.4094362255097 24.45456209526685 L 796.4094362255097 34.52576531656811 M 814.202319072371 4.3776509314400585 L 814.202319072371 6.769231767933462 M 814.202319072371 16.667400832033508 L 814.202319072371 16.67422232805302 M 823.0987604958016 9.243473085604649 L 823.0987604958016 16.632758332640208 M 823.0987604958016 31.661807026957746 L 823.0987604958016 36.14348532684616 M 849.7880847660936 11.488146540501049 L 849.7880847660936 16.914133897210405 M 849.7880847660936 22.553281858294667 L 849.7880847660936 25.340554048861975 M 876.4774090363853 18.358106391226357 L 876.4774090363853 20.538666700527443 M 876.4774090363853 23.87567121737436 L 876.4774090363853 32.353274881643046 M 885.3738504598159 19.064198106659433 L 885.3738504598159 23.87567121737436 M 885.3738504598159 24.890067801925284 L 885.3738504598159 29.049174051478587" style="stroke-width: 1px;"></path><path class="candle wick equal" style="stroke-width: 1px;"></path></g></g><g class="x axis" transform="translate(0,200)" fill="none" font-size="10" font-family="sans-serif" text-anchor="middle"><path class="domain" stroke="#000" d="M0.5,6V0.5H890.5V6"></path><g class="tick" opacity="1" transform="translate(13.522590963614554,0)"><line stroke="#000" y2="6" x1="0.5" x2="0.5"></line><text fill="#000" y="9" x="0.5" dy="0.71em">Dec 14</text></g><g class="tick" opacity="1" transform="translate(75.79768092762893,0)"><line stroke="#000" y2="6" x1="0.5" x2="0.5"></line><text fill="#000" y="9" x="0.5" dy="0.71em">Dec 21</text></g><g class="tick" opacity="1" transform="translate(138.07277089164333,0)"><line stroke="#000" y2="6" x1="0.5" x2="0.5"></line><text fill="#000" y="9" x="0.5" dy="0.71em">Dec 28</text></g><g class="tick" opacity="1" transform="translate(200.34786085565773,0)"><line stroke="#000" y2="6" x1="0.5" x2="0.5"></line><text fill="#000" y="9" x="0.5" dy="0.71em">Jan  4</text></g><g class="tick" opacity="1" transform="translate(262.6229508196721,0)"><line stroke="#000" y2="6" x1="0.5" x2="0.5"></line><text fill="#000" y="9" x="0.5" dy="0.71em">Jan 11</text></g><g class="tick" opacity="1" transform="translate(324.89804078368655,0)"><line stroke="#000" y2="6" x1="0.5" x2="0.5"></line><text fill="#000" y="9" x="0.5" dy="0.71em">Jan 18</text></g><g class="tick" opacity="1" transform="translate(387.1731307477009,0)"><line stroke="#000" y2="6" x1="0.5" x2="0.5"></line><text fill="#000" y="9" x="0.5" dy="0.71em">Jan 25</text></g><g class="tick" opacity="1" transform="translate(449.44822071171535,0)"><line stroke="#000" y2="6" x1="0.5" x2="0.5"></line><text fill="#000" y="9" x="0.5" dy="0.71em">Feb  1</text></g><g class="tick" opacity="1" transform="translate(511.7233106757297,0)"><line stroke="#000" y2="6" x1="0.5" x2="0.5"></line><text fill="#000" y="9" x="0.5" dy="0.71em">Feb  8</text></g><g class="tick" opacity="1" transform="translate(573.998400639744,0)"><line stroke="#000" y2="6" x1="0.5" x2="0.5"></line><text fill="#000" y="9" x="0.5" dy="0.71em">Feb 15</text></g><g class="tick" opacity="1" transform="translate(636.2734906037584,0)"><line stroke="#000" y2="6" x1="0.5" x2="0.5"></line><text fill="#000" y="9" x="0.5" dy="0.71em">Feb 22</text></g><g class="tick" opacity="1" transform="translate(698.5485805677728,0)"><line stroke="#000" y2="6" x1="0.5" x2="0.5"></line><text fill="#000" y="9" x="0.5" dy="0.71em">Mar  1</text></g><g class="tick" opacity="1" transform="translate(760.8236705317872,0)"><line stroke="#000" y2="6" x1="0.5" x2="0.5"></line><text fill="#000" y="9" x="0.5" dy="0.71em">Mar  8</text></g><g class="tick" opacity="1" transform="translate(823.0987604958016,0)"><line stroke="#000" y2="6" x1="0.5" x2="0.5"></line><text fill="#000" y="9" x="0.5" dy="0.71em">Mar 15</text></g><g class="tick" opacity="1" transform="translate(885.3738504598159,0)"><line stroke="#000" y2="6" x1="0.5" x2="0.5"></line><text fill="#000" y="9" x="0.5" dy="0.71em">Mar 22</text></g></g><g class="y axis" fill="none" font-size="10" font-family="sans-serif" text-anchor="end"><path class="domain" stroke="#000" d="M-6,200.5H0.5V0.5H-6"></path><g class="tick" opacity="1" transform="translate(0,190.4073822390429)"><line stroke="#000" x2="-6" y1="0.5" y2="0.5"></line><text fill="#000" x="-9" y="0.5" dy="0.32em">20,000</text></g><g class="tick" opacity="1" transform="translate(0,168.11491158699135)"><line stroke="#000" x2="-6" y1="0.5" y2="0.5"></line><text fill="#000" x="-9" y="0.5" dy="0.32em">25,000</text></g><g class="tick" opacity="1" transform="translate(0,145.8224409349398)"><line stroke="#000" x2="-6" y1="0.5" y2="0.5"></line><text fill="#000" x="-9" y="0.5" dy="0.32em">30,000</text></g><g class="tick" opacity="1" transform="translate(0,123.52997028288824)"><line stroke="#000" x2="-6" y1="0.5" y2="0.5"></line><text fill="#000" x="-9" y="0.5" dy="0.32em">35,000</text></g><g class="tick" opacity="1" transform="translate(0,101.2374996308367)"><line stroke="#000" x2="-6" y1="0.5" y2="0.5"></line><text fill="#000" x="-9" y="0.5" dy="0.32em">40,000</text></g><g class="tick" opacity="1" transform="translate(0,78.94502897878513)"><line stroke="#000" x2="-6" y1="0.5" y2="0.5"></line><text fill="#000" x="-9" y="0.5" dy="0.32em">45,000</text></g><g class="tick" opacity="1" transform="translate(0,56.65255832673358)"><line stroke="#000" x2="-6" y1="0.5" y2="0.5"></line><text fill="#000" x="-9" y="0.5" dy="0.32em">50,000</text></g><g class="tick" opacity="1" transform="translate(0,34.360087674682035)"><line stroke="#000" x2="-6" y1="0.5" y2="0.5"></line><text fill="#000" x="-9" y="0.5" dy="0.32em">55,000</text></g><g class="tick" opacity="1" transform="translate(0,12.067617022630486)"><line stroke="#000" x2="-6" y1="0.5" y2="0.5"></line><text fill="#000" x="-9" y="0.5" dy="0.32em">60,000</text></g><text transform="rotate(-90)" y="6" dy=".71em" style="text-anchor: end;">Price ($)</text></g></g></svg>