<?xml version="1.0" encoding="utf-8"?>
<!DOCTYPE svg PUBLIC "-//W3C//DTD SVG 1.1//EN" "http://www.w3.org/Graphics/SVG/1.1/DTD/svg11.dtd">
<svg version="1.1" xmlns="http://www.w3.org/2000/svg" width="960" height="250"><g transform="translate(50,20)"><style>.axis path,.axis line{fill:none;stroke:#000;shape-rendering:crispEdges;}path.candle{stroke:#000000;}path.candle.body{stroke-width:0;}path.candle.up{fill:#00AA00;stroke:#00AA00;}path.candle.down{fill:#FF0000;stroke:#FF0000;}</style><g class="candlestick"><g class="data"><path class="candle body up" d="M 18.860455817672932 176.6342868554417 l 7.1171531387445 0 L 25.977608956417434 176.12015580806437 l -7.1171531387445 0 L 18.860455817672932 176.6342868554417 M 45.54978008796481 184.24308699619937 l 7.1171531387445 0 L 52.66693322670931 183.4726822661304 l -7.1171531387445 0 L 45.54978008796481 184.24308699619937 M 54.446221511395436 183.4726822661304 l 7.1171531387445 0 L 61.563374650139934 182.01066098519996 l -7.1171531387445 0 L 54.446221511395436 183.4726822661304 M 81.13554578168731 193.25604746503078 l 7.1171531387445 0 L 88.25269892043181 179.94084517895413 l -7.1171531387445 0 L 81.13554578168731 193.25604746503078 M 90.03198720511796 179.94084517895413 l 7.1171531387445 0 L 97.14914034386246 179.1302262382487 l -7.1171531387445 0 L 90.03198720511796 179.94084517895413 M 98.92842862854857 179.13164024002916 l 7.1171531387445 0 L 106.04558176729307 171.5157700903692 l -7.1171531387445 0 L 98.92842862854857 179.13164024002916 M 107.82487005197919 171.51571353029797 l 7.1171531387445 0 L 114.94202319072369 167.98613884597046 l -7.1171531387445 0 L 107.82487005197919 171.51571353029797 M 116.72131147540982 167.96707810196978 l 7.1171531387445 0 L 123.83846461415432 161.63512156897275 l -7.1171531387445 0 L 116.72131147540982 167.96707810196978 M 125.61775289884046 161.63512156897275 l 7.1171531387445 0 L 132.73490603758498 151.134291866664 l -7.1171531387445 0 L 125.61775289884046 161.63512156897275 M 134.51419432227107 151.11319496009946 l 7.1171531387445 0 L 141.63134746101557 138.57642893420484 l -7.1171531387445 0 L 134.51419432227107 151.11319496009946 M 143.4106357457017 138.5835555031784 l 7.1171531387445 0 L 150.5277888844462 135.39950629392553 l -7.1171531387445 0 L 143.4106357457017 138.5835555031784 M 161.20351859256294 135.40555822154593 l 7.1171531387445 0 L 168.32067173130744 123.03089335976391 l -7.1171531387445 0 L 161.20351859256294 135.40555822154593 M 205.68572570971608 145.65113232244497 l 7.1171531387445 0 L 212.80287884846058 137.07583368470333 l -7.1171531387445 0 L 205.68572570971608 145.65113232244497 M 214.5821671331467 137.07589024477457 l 7.1171531387445 0 L 221.6993202718912 130.63205789090705 l -7.1171531387445 0 L 214.5821671331467 137.07589024477457 M 223.47860855657734 130.63205789090705 l 7.1171531387445 0 L 230.59576169532184 119.46478086942916 l -7.1171531387445 0 L 223.47860855657734 130.63205789090705 M 232.37504998000796 119.46478086942916 l 7.1171531387445 0 L 239.49220311875246 109.64781898822493 l -7.1171531387445 0 L 232.37504998000796 119.46478086942916 M 250.16793282686922 114.04921061031641 l 7.1171531387445 0 L 257.28508596561375 100.14086285736997 l -7.1171531387445 0 L 250.16793282686922 114.04921061031641 M 285.7536985205918 110.6233670966039 l 7.1171531387445 0 L 292.8708516593363 91.3932822426964 l -7.1171531387445 0 L 285.7536985205918 110.6233670966039 M 330.23590563774496 108.9498111493158 l 7.1171531387445 0 L 337.3530587764895 108.89698404279758 l -7.1171531387445 0 L 330.23590563774496 108.9498111493158 M 339.13234706117555 108.930467604959 l 7.1171531387445 0 L 346.2495001999201 97.27202292501853 l -7.1171531387445 0 L 339.13234706117555 108.930467604959 M 348.02878848460614 97.27202292501853 l 7.1171531387445 0 L 355.14594162335067 82.78218107987337 l -7.1171531387445 0 L 348.02878848460614 97.27202292501853 M 365.8216713314674 85.61352168500687 l 7.1171531387445 0 L 372.93882447021196 83.25304367276847 l -7.1171531387445 0 L 365.8216713314674 85.61352168500687 M 374.7181127548981 83.25304367276847 l 7.1171531387445 0 L 381.8352658936426 81.84113461493779 l -7.1171531387445 0 L 374.7181127548981 83.25304367276847 M 392.5109956017593 92.10588257997992 l 7.1171531387445 0 L 399.62814874050383 84.7569759664719 l -7.1171531387445 0 L 392.5109956017593 92.10588257997992 M 410.3038784486206 96.80121689219465 l 7.1171531387445 0 L 417.4210315873651 84.21071879864235 l -7.1171531387445 0 L 410.3038784486206 96.80121689219465 M 445.8896441423431 96.01474910189955 l 7.1171531387445 0 L 453.00679728108764 95.34745338166218 l -7.1171531387445 0 L 445.8896441423431 96.01474910189955 M 454.7860855657737 95.34745338166218 l 7.1171531387445 0 L 461.90323870451823 85.67777392591123 l -7.1171531387445 0 L 454.7860855657737 95.34745338166218 M 463.68252698920435 85.67783048598243 l 7.1171531387445 0 L 470.7996801279489 83.21107609992427 l -7.1171531387445 0 L 463.68252698920435 85.67783048598243 M 472.57896841263494 83.21113265999549 l 7.1171531387445 0 L 479.69612155137946 78.95493074072222 l -7.1171531387445 0 L 472.57896841263494 83.21113265999549 M 490.3718512594962 79.41646092186625 l 7.1171531387445 0 L 497.48900439824075 69.01314078233844 l -7.1171531387445 0 L 490.3718512594962 79.41646092186625 M 499.2682926829268 69.01314078233844 l 7.1171531387445 0 L 506.38544582167134 63.88302920266608 l -7.1171531387445 0 L 499.2682926829268 69.01314078233844 M 525.9576169532187 101.30085335799292 l 7.1171531387445 0 L 533.0747700919632 99.3391804079171 l -7.1171531387445 0 L 525.9576169532187 101.30085335799292 M 543.75049980008 108.12262010774332 l 7.1171531387445 0 L 550.8676529388244 106.24771030691687 l -7.1171531387445 0 L 543.75049980008 108.12262010774332 M 552.6469412235106 106.24776686698809 l 7.1171531387445 0 L 559.764094362255 101.4313374422943 l -7.1171531387445 0 L 552.6469412235106 106.24776686698809 M 570.4398240703717 107.56539028609733 l 7.1171531387445 0 L 577.5569772091162 95.28733002595678 l -7.1171531387445 0 L 570.4398240703717 107.56539028609733 M 579.3362654938024 95.3339355246409 l 7.1171531387445 0 L 586.4534186325469 89.57538499365833 l -7.1171531387445 0 L 579.3362654938024 95.3339355246409 M 606.0255897640943 94.2213989237704 l 7.1171531387445 0 L 613.1427429028388 88.60634129346954 l -7.1171531387445 0 L 606.0255897640943 94.2213989237704 M 641.6113554578168 131.35811952514064 l 7.1171531387445 0 L 648.7285085965613 115.46745439612359 l -7.1171531387445 0 L 641.6113554578168 131.35811952514064 M 650.5077968812475 115.45184381646725 l 7.1171531387445 0 L 657.624950019992 107.99219258351313 l -7.1171531387445 0 L 650.5077968812475 115.45184381646725 M 677.1971211515394 120.40503549336773 l 7.1171531387445 0 L 684.3142742902838 117.63206488173185 l -7.1171531387445 0 L 677.1971211515394 120.40503549336773 M 703.8864454218311 129.7126739332482 l 7.1171531387445 0 L 711.0035985605756 126.88879925751557 l -7.1171531387445 0 L 703.8864454218311 129.7126739332482 M 712.7828868452618 126.88874269744434 l 7.1171531387445 0 L 719.9000399840063 113.8810009585122 l -7.1171531387445 0 L 712.7828868452618 126.88874269744434 M 721.6793282686924 113.90413402764061 l 7.1171531387445 0 L 728.7964814074369 89.46113364979671 l -7.1171531387445 0 L 721.6793282686924 113.90413402764061 M 739.4722111155537 92.32714557858723 l 7.1171531387445 0 L 746.5893642542982 89.1308228338799 l -7.1171531387445 0 L 739.4722111155537 92.32714557858723 M 748.3686525389844 89.1308228338799 l 7.1171531387445 0 L 755.4858056777289 83.33381145446867 l -7.1171531387445 0 L 748.3686525389844 89.1308228338799 M 757.265093962415 83.3338680145399 l 7.1171531387445 0 L 764.3822471011595 70.62448065128604 l -7.1171531387445 0 L 757.265093962415 83.3338680145399 M 766.1615353858456 70.62448065128604 l 7.1171531387445 0 L 773.27868852459 48.888388721894614 l -7.1171531387445 0 L 766.1615353858456 70.62448065128604 M 783.9544182327068 57.54083529677848 l 7.1171531387445 0 L 791.0715713714512 56.6007503530536 l -7.1171531387445 0 L 783.9544182327068 57.54083529677848 M 792.8508596561375 56.576768882856896 l 7.1171531387445 0 L 799.9680127948819 50.95441500336878 l -7.1171531387445 0 L 792.8508596561375 56.576768882856896 M 810.6437425029987 52.59867283376565 l 7.1171531387445 0 L 817.7608956417432 36.69205776466498 l -7.1171531387445 0 L 810.6437425029987 52.59867283376565 M 828.43662534986 45.031500905424906 l 7.1171531387445 0 L 835.5537784886045 37.2822621078314 l -7.1171531387445 0 L 828.43662534986 45.031500905424906 M 846.2295081967213 37.3900656035741 l 7.1171531387445 0 L 853.3466613354658 12.930775925219251 l -7.1171531387445 0 L 846.2295081967213 37.3900656035741 M 864.0223910435824 17.43776520027592 l 7.1171531387445 0 L 871.1395441823269 13.745749991408502 l -7.1171531387445 0 L 864.0223910435824 17.43776520027592 M 872.9188324670131 13.745806551479689 l 7.1171531387445 0 L 880.0359856057576 11.022326002160185 l -7.1171531387445 0 L 872.9188324670131 13.745806551479689 M 881.8152738904437 11.04630747235683 l 7.1171531387445 0 L 888.9324270291881 7.718256321781325 l -7.1171531387445 0 L 881.8152738904437 11.04630747235683"></path><path class="candle body down" d="M 1.0675729708116766 167.98127467984568 l 7.1171531387445 0 L 8.184726109556177 174.61220774930442 l -7.1171531387445 0 L 1.0675729708116766 167.98127467984568 M 9.964014394242305 174.6104543870966 l 7.1171531387445 0 L 17.081167532986804 176.6306104508125 l -7.1171531387445 0 L 9.964014394242305 174.6104543870966 M 27.75689724110356 176.12009924799312 l 7.1171531387445 0 L 34.87405037984806 181.43691562275816 l -7.1171531387445 0 L 27.75689724110356 176.12009924799312 M 36.65333866453418 181.46808022199963 l 7.1171531387445 0 L 43.77049180327868 184.24303043612815 l -7.1171531387445 0 L 36.65333866453418 181.46808022199963 M 63.342662934826066 182.01060442512875 l 7.1171531387445 0 L 70.45981607357056 187.32114263198852 l -7.1171531387445 0 L 63.342662934826066 182.01060442512875 M 72.23910435825668 187.32114263198852 l 7.1171531387445 0 L 79.35625749700118 193.25599090495956 l -7.1171531387445 0 L 72.23910435825668 187.32114263198852 M 152.30707716913233 135.3994497338543 l 7.1171531387445 0 L 159.42423030787683 135.41692679586083 l -7.1171531387445 0 L 152.30707716913233 135.3994497338543 M 170.09996001599356 123.03094991983514 l 7.1171531387445 0 L 177.21711315473806 127.2420169022759 l -7.1171531387445 0 L 170.09996001599356 123.03094991983514 M 178.9964014394242 127.24196034220473 l 7.1171531387445 0 L 186.1135545781687 136.38433025398433 l -7.1171531387445 0 L 178.9964014394242 127.24196034220473 M 187.89284286285485 136.35701173958577 l 7.1171531387445 0 L 195.00999600159935 140.33007394233852 l -7.1171531387445 0 L 187.89284286285485 136.35701173958577 M 196.78928428628546 140.3355037091755 l 7.1171531387445 0 L 203.90643742502996 145.65107576237375 l -7.1171531387445 0 L 196.78928428628546 140.3355037091755 M 241.2714914034386 109.64781898822493 l 7.1171531387445 0 L 248.3886445421831 114.04915405024518 l -7.1171531387445 0 L 241.2714914034386 109.64781898822493 M 259.06437425029986 100.166484569632 l 7.1171531387445 0 L 266.1815273890444 103.92139457769456 l -7.1171531387445 0 L 259.06437425029986 100.166484569632 M 267.9608156737305 103.92133801762333 l 7.1171531387445 0 L 275.07796881247504 104.3398825446412 l -7.1171531387445 0 L 267.9608156737305 103.92133801762333 M 276.85725709716115 104.34174902699142 l 7.1171531387445 0 L 283.9744102359057 110.62936246415306 l -7.1171531387445 0 L 276.85725709716115 104.34174902699142 M 294.65013994402244 91.39333880276763 l 7.1171531387445 0 L 301.76729308276697 95.53059489226807 l -7.1171531387445 0 L 294.65013994402244 91.39333880276763 M 303.54658136745303 95.5306514523393 l 7.1171531387445 0 L 310.66373450619756 96.0661622066373 l -7.1171531387445 0 L 303.54658136745303 95.5306514523393 M 312.4430227908837 96.0661622066373 l 7.1171531387445 0 L 319.5601759296282 102.13239952504922 l -7.1171531387445 0 L 312.4430227908837 96.0661622066373 M 321.3394642143143 102.132342964978 l 7.1171531387445 0 L 328.45661735305885 108.9498111493158 l -7.1171531387445 0 L 321.3394642143143 102.132342964978 M 356.9252299080368 82.78218107987337 l 7.1171531387445 0 L 364.0423830467813 85.61357824507805 l -7.1171531387445 0 L 356.9252299080368 82.78218107987337 M 383.61455417832866 81.84113461493779 l 7.1171531387445 0 L 390.7317073170732 92.10588257997992 l -7.1171531387445 0 L 383.61455417832866 81.84113461493779 M 401.40743702518995 84.7569759664719 l 7.1171531387445 0 L 408.5245901639345 96.80116033212343 l -7.1171531387445 0 L 401.40743702518995 84.7569759664719 M 419.20031987205124 84.21071879864235 l 7.1171531387445 0 L 426.31747301079577 85.19797484176357 l -7.1171531387445 0 L 419.20031987205124 84.21071879864235 M 428.0967612954818 85.19797484176357 l 7.1171531387445 0 L 435.21391443422635 85.91922886994354 l -7.1171531387445 0 L 428.0967612954818 85.19797484176357 M 436.99320271891247 85.91917230987237 l 7.1171531387445 0 L 444.110355857657 96.01474910189955 l -7.1171531387445 0 L 436.99320271891247 85.91917230987237 M 481.47540983606564 78.96137858884114 l 7.1171531387445 0 L 488.59256297481016 79.42720733539778 l -7.1171531387445 0 L 481.47540983606564 78.96137858884114 M 508.16473410635746 63.87002038628583 l 7.1171531387445 0 L 515.281887245102 96.68883203068322 l -7.1171531387445 0 L 508.16473410635746 63.87002038628583 M 517.0611755297881 96.66145695621341 l 7.1171531387445 0 L 524.1783286685326 101.30085335799292 l -7.1171531387445 0 L 517.0611755297881 96.66145695621341 M 534.8540583766493 99.3391804079171 l 7.1171531387445 0 L 541.9712115153937 108.07335628571185 l -7.1171531387445 0 L 534.8540583766493 99.3391804079171 M 561.5433826469413 101.43139400236548 l 7.1171531387445 0 L 568.6605357856857 107.5653337260261 l -7.1171531387445 0 L 561.5433826469413 101.43139400236548 M 588.232706917233 89.57544155372956 l 7.1171531387445 0 L 595.3498600559775 91.74497276553384 l -7.1171531387445 0 L 588.232706917233 89.57544155372956 M 597.1291483406637 91.74502932560509 l 7.1171531387445 0 L 604.2463014794082 94.2213989237704 l -7.1171531387445 0 L 597.1291483406637 91.74502932560509 M 614.9220311875249 88.60628473339831 l 7.1171531387445 0 L 622.0391843262694 94.55074821847651 l -7.1171531387445 0 L 614.9220311875249 88.60628473339831 M 623.8184726109555 94.55074821847651 l 7.1171531387445 0 L 630.9356257497 118.45376959639611 l -7.1171531387445 0 L 623.8184726109555 94.55074821847651 M 632.7149140343862 118.44800046913184 l 7.1171531387445 0 L 639.8320671731307 131.35647928307532 l -7.1171531387445 0 L 632.7149140343862 118.44800046913184 M 659.4042383046781 107.99219258351313 l 7.1171531387445 0 L 666.5213914434225 119.6135338567342 l -7.1171531387445 0 L 659.4042383046781 107.99219258351313 M 668.3006797281087 119.61347729666295 l 7.1171531387445 0 L 675.4178328668531 120.4049789332965 l -7.1171531387445 0 L 668.3006797281087 119.61347729666295 M 686.09356257497 117.63206488173185 l 7.1171531387445 0 L 693.2107157137144 123.36471090009628 l -7.1171531387445 0 L 686.09356257497 117.63206488173185 M 694.9900039984005 123.36471090009628 l 7.1171531387445 0 L 702.107157137145 129.70402024235173 l -7.1171531387445 0 L 694.9900039984005 123.36471090009628 M 730.5757696921231 89.46119020986794 l 7.1171531387445 0 L 737.6929228308676 92.327089018516 l -7.1171531387445 0 L 730.5757696921231 89.46119020986794 M 775.0579768092763 48.888388721894614 l 7.1171531387445 0 L 782.1751299480208 57.54083529677848 l -7.1171531387445 0 L 775.0579768092763 48.888388721894614 M 801.747301079568 50.95441500336878 l 7.1171531387445 0 L 808.8644542183125 52.59872939383686 l -7.1171531387445 0 L 801.747301079568 50.95441500336878 M 819.5401839264293 36.69205776466498 l 7.1171531387445 0 L 826.6573370651738 45.03138778528245 l -7.1171531387445 0 L 819.5401839264293 36.69205776466498 M 837.3330667732906 37.26059960055463 l 7.1171531387445 0 L 844.4502199120351 37.3900656035741 l -7.1171531387445 0 L 837.3330667732906 37.26059960055463 M 855.1259496201519 12.930775925219251 l 7.1171531387445 0 L 862.2431027588964 17.43776520027592 l -7.1171531387445 0 L 855.1259496201519 12.930775925219251"></path><path class="candle body equal"></path><path class="candle wick up" d="M 22.41903238704518 174.45723315416535 L 22.41903238704518 176.12015580806437 M 22.41903238704518 176.6342868554417 L 22.41903238704518 183.30339797297302 M 49.10835665733706 181.00751156206633 L 49.10835665733706 183.4726822661304 M 49.10835665733706 184.24308699619937 L 49.10835665733706 185.48486335980442 M 58.004798080767685 178.2978316701241 L 58.004798080767685 182.01066098519996 M 58.004798080767685 183.4726822661304 L 58.004798080767685 185.79786679392834 M 84.69412235105956 175.90534065757598 L 84.69412235105956 179.94084517895413 M 84.69412235105956 193.25604746503078 L 84.69412235105956 194.9965705366417 M 93.5905637744902 177.4135149566208 L 93.5905637744902 179.1302262382487 M 93.5905637744902 179.94084517895413 L 93.5905637744902 182.40974884771862 M 102.48700519792082 171.42578301706033 L 102.48700519792082 171.5157700903692 M 102.48700519792082 179.13164024002916 L 102.48700519792082 181.18624138711718 M 111.38344662135144 166.61817696347663 L 111.38344662135144 167.98613884597046 M 111.38344662135144 171.51571353029797 L 111.38344662135144 172.83333694940723 M 120.27988804478207 161.5390825680435 L 120.27988804478207 161.63512156897275 M 120.27988804478207 167.96707810196978 L 120.27988804478207 170.2882468647112 M 129.1763294682127 132.39933387620442 L 129.1763294682127 151.134291866664 M 129.1763294682127 161.63512156897275 L 129.1763294682127 162.62628025700806 M 138.07277089164333 138.09713889069818 L 138.07277089164333 138.57642893420484 M 138.07277089164333 151.11319496009946 L 138.07277089164333 155.96791555300828 M 146.96921231507397 130.4197313835523 L 146.96921231507397 135.39950629392553 M 146.96921231507397 138.5835555031784 L 146.96921231507397 142.45571453887715 M 164.7620951619352 122.40680953393753 L 164.7620951619352 123.03089335976391 M 164.7620951619352 135.40555822154593 L 164.7620951619352 145.0505209261743 M 209.24430227908834 135.68174104930648 L 209.24430227908834 137.07583368470333 M 209.24430227908834 145.65113232244497 L 209.24430227908834 149.60174017692398 M 218.14074370251896 127.87452817871389 L 218.14074370251896 130.63205789090705 M 218.14074370251896 137.07589024477457 L 218.14074370251896 150.59640558937485 M 227.0371851259496 116.32252955280687 L 227.0371851259496 119.46478086942916 M 227.0371851259496 130.63205789090705 L 227.0371851259496 136.33670667401825 M 235.93362654938022 108.92690432047225 L 235.93362654938022 109.64781898822493 M 235.93362654938022 119.46478086942916 L 235.93362654938022 121.67322541023185 M 253.72650939624148 99.00541942765595 L 253.72650939624148 100.14086285736997 M 253.72650939624148 114.04921061031641 L 253.72650939624148 119.7920940015714 M 289.31227508996403 90.90686563021617 L 289.31227508996403 91.3932822426964 M 289.31227508996403 110.6233670966039 L 289.31227508996403 111.65654991755464 M 333.7944822071172 101.5740950620501 L 333.7944822071172 108.89698404279758 M 333.7944822071172 108.9498111493158 L 333.7944822071172 111.73635617804413 M 342.6909236305478 95.73143970516544 L 342.6909236305478 97.27202292501853 M 342.6909236305478 108.930467604959 L 342.6909236305478 113.2950386206872 M 351.5873650539784 82.4398795288582 L 351.5873650539784 82.78218107987337 M 351.5873650539784 97.27202292501853 L 351.5873650539784 98.0504591852006 M 369.38024790083966 81.778070135529 L 369.38024790083966 83.25304367276847 M 369.38024790083966 85.61352168500687 L 369.38024790083966 89.9792804622306 M 378.2766893242703 76.12206301366582 L 378.2766893242703 81.84113461493779 M 378.2766893242703 83.25304367276847 L 378.2766893242703 84.44204948992655 M 396.06957217113154 83.11119101415213 L 396.06957217113154 84.7569759664719 M 396.06957217113154 92.10588257997992 L 396.06957217113154 95.20384736083807 M 413.86245501799283 83.75806854867965 L 413.86245501799283 84.21071879864235 M 413.86245501799283 96.80121689219465 L 413.86245501799283 99.60580458364173 M 449.44822071171535 88.870080905562 L 449.44822071171535 95.34745338166218 M 449.44822071171535 96.01474910189955 L 449.44822071171535 97.61489007674588 M 458.34466213514594 83.72373658544994 L 458.34466213514594 85.67777392591123 M 458.34466213514594 95.34745338166218 L 458.34466213514594 98.67821941565617 M 467.2411035585766 76.40412808883315 L 467.2411035585766 83.21107609992427 M 467.2411035585766 85.67783048598243 L 467.2411035585766 86.95863329872837 M 476.13754498200717 73.29405945273425 L 476.13754498200717 78.95493074072222 M 476.13754498200717 83.21113265999549 L 476.13754498200717 88.47003152183265 M 493.93042782886846 68.20365304305739 L 493.93042782886846 69.01314078233844 M 493.93042782886846 79.41646092186625 L 493.93042782886846 82.06087049162217 M 502.82686925229905 63.22636677581778 L 502.82686925229905 63.88302920266608 M 502.82686925229905 69.01314078233844 L 502.82686925229905 73.46752919116177 M 529.5161935225909 93.65585477165533 L 529.5161935225909 99.3391804079171 M 529.5161935225909 101.30085335799292 L 529.5161935225909 104.32811804982772 M 547.3090763694522 101.642363068011 L 547.3090763694522 106.24771030691687 M 547.3090763694522 108.12262010774332 L 547.3090763694522 108.80122784222443 M 556.2055177928828 98.97233178599305 L 556.2055177928828 101.4313374422943 M 556.2055177928828 106.24776686698809 L 556.2055177928828 108.68901266092669 M 573.998400639744 94.50408615972114 L 573.998400639744 95.28733002595678 M 573.998400639744 107.56539028609733 L 573.998400639744 109.52395243225611 M 582.8948420631747 87.43407725739216 L 582.8948420631747 89.57538499365833 M 582.8948420631747 95.3339355246409 L 582.8948420631747 97.71488828266044 M 609.5841663334666 85.49293561316875 L 609.5841663334666 88.60634129346954 M 609.5841663334666 94.2213989237704 L 609.5841663334666 95.71696032693349 M 645.169932027189 112.88299850185942 L 645.169932027189 115.46745439612359 M 645.169932027189 131.35811952514064 L 645.169932027189 132.31228792659894 M 654.0663734506197 107.35453434059427 L 654.0663734506197 107.99219258351313 M 654.0663734506197 115.45184381646725 L 654.0663734506197 118.15134289559013 M 680.7556977209116 113.16890966186962 L 680.7556977209116 117.63206488173185 M 680.7556977209116 120.40503549336773 L 680.7556977209116 131.26813245183178 M 707.4450219912034 120.86107934760354 L 707.4450219912034 126.88879925751557 M 707.4450219912034 129.7126739332482 L 707.4450219912034 131.24618714419898 M 716.3414634146341 112.08651957895866 L 716.3414634146341 113.8810009585122 M 716.3414634146341 126.88874269744434 L 716.3414634146341 127.53420623019139 M 725.2379048380647 87.46235729300149 L 725.2379048380647 89.46113364979671 M 725.2379048380647 113.90413402764061 L 725.2379048380647 116.94129673193872 M 743.0307876849259 83.31605159210602 L 743.0307876849259 89.1308228338799 M 743.0307876849259 92.32714557858723 L 743.0307876849259 95.42035931346298 M 751.9272291083566 81.57377515828728 L 751.9272291083566 83.33381145446867 M 751.9272291083566 89.1308228338799 L 751.9272291083566 96.53459271647003 M 760.8236705317872 68.28114034062688 L 760.8236705317872 70.62448065128604 M 760.8236705317872 83.3338680145399 L 760.8236705317872 84.47937913693085 M 769.7201119552178 46.42802562388414 L 769.7201119552178 48.888388721894614 M 769.7201119552178 70.62448065128604 L 769.7201119552178 76.7871528911257 M 787.512994802079 44.44842313123203 L 787.512994802079 56.6007503530536 M 787.512994802079 57.54083529677848 L 787.512994802079 58.48883865047395 M 796.4094362255097 47.90424348269042 L 796.4094362255097 50.95441500336878 M 796.4094362255097 56.576768882856896 L 796.4094362255097 58.23963497668467 M 814.202319072371 34.612400506027086 L 814.202319072371 36.69205776466498 M 814.202319072371 52.59867283376565 L 814.202319072371 53.97845577114418 M 831.9952019192323 34.963299187867506 L 831.9952019192323 37.2822621078314 M 831.9952019192323 45.031500905424906 L 831.9952019192323 55.38041025644037 M 849.7880847660936 5.800926467540961 L 849.7880847660936 12.930775925219251 M 849.7880847660936 37.3900656035741 L 849.7880847660936 40.20641778983466 M 867.5809676129546 12.67076927782719 L 867.5809676129546 13.745749991408502 M 867.5809676129546 17.43776520027592 L 867.5809676129546 28.255274741337757 M 876.4774090363853 7.1426444769893465 L 876.4774090363853 11.022326002160185 M 876.4774090363853 13.745806551479689 L 876.4774090363853 23.269787263771462 M 885.3738504598159 3.8461538461538396 L 885.3738504598159 7.718256321781325 M 885.3738504598159 11.04630747235683 L 885.3738504598159 14.911509619295714" style="stroke-width: 1px;"></path><path class="candle wick down" d="M 4.626149540183927 165.6089756127226 L 4.626149540183927 167.98127467984568 M 4.626149540183927 174.61220774930442 L 4.626149540183927 177.03461903952717 M 13.522590963614554 173.17914522483792 L 13.522590963614554 174.6104543870966 M 13.522590963614554 176.6306104508125 L 13.522590963614554 179.61426732773776 M 31.315473810475808 174.05441232694625 L 31.315473810475808 176.12009924799312 M 31.315473810475808 181.43691562275816 L 31.315473810475808 185.66195294278995 M 40.21191523390643 179.34883091350872 L 40.21191523390643 181.46808022199963 M 40.21191523390643 184.24303043612815 L 40.21191523390643 186.3010817475605 M 66.90123950419832 181.32945148744275 L 66.90123950419832 182.01060442512875 M 66.90123950419832 187.32114263198852 L 66.90123950419832 189.765725470129 M 75.79768092762893 186.05747752082186 L 75.79768092762893 187.32114263198852 M 75.79768092762893 193.25599090495956 L 75.79768092762893 196.15384615384616 M 155.8656537385046 131.89029323523673 L 155.8656537385046 135.3994497338543 M 155.8656537385046 135.41692679586083 L 155.8656537385046 140.0349434907197 M 173.65853658536582 121.66423235890812 L 173.65853658536582 123.03094991983514 M 173.65853658536582 127.2420169022759 L 173.65853658536582 129.8532822702977 M 182.55497800879647 120.81017528350677 L 182.55497800879647 127.24196034220473 M 182.55497800879647 136.38433025398433 L 182.55497800879647 138.77925334959485 M 191.4514194322271 132.7951978146636 L 191.4514194322271 136.35701173958577 M 191.4514194322271 140.33007394233852 L 191.4514194322271 142.91950712286993 M 200.34786085565773 136.75445936003908 L 200.34786085565773 140.3355037091755 M 200.34786085565773 145.65107576237375 L 200.34786085565773 148.8468329063689 M 244.83006797281087 105.4767399761357 L 244.83006797281087 109.64781898822493 M 244.83006797281087 114.04915405024518 L 244.83006797281087 117.06589856883335 M 262.6229508196721 97.61489007674588 L 262.6229508196721 100.166484569632 M 262.6229508196721 103.92139457769456 L 262.6229508196721 109.55211934772299 M 271.51939224310274 97.3690234471585 L 271.51939224310274 103.92133801762333 M 271.51939224310274 104.3398825446412 L 271.51939224310274 105.30061191436089 M 280.4158336665334 100.3404067886293 L 280.4158336665334 104.34174902699142 M 280.4158336665334 110.62936246415306 L 280.4158336665334 114.186990943805 M 298.2087165133947 89.44761579277547 L 298.2087165133947 91.39333880276763 M 298.2087165133947 95.53059489226807 L 298.2087165133947 101.7379495883705 M 307.10515793682526 93.81252616893094 L 307.10515793682526 95.5306514523393 M 307.10515793682526 96.0661622066373 L 307.10515793682526 104.4020986229817 M 316.0015993602559 89.95761795495385 L 316.0015993602559 96.0661622066373 M 316.0015993602559 102.13239952504922 L 316.0015993602559 103.4971374834836 M 324.89804078368655 95.01312680068882 L 324.89804078368655 102.132342964978 M 324.89804078368655 108.9498111493158 L 324.89804078368655 110.75945062795591 M 360.483806477409 80.32425006492528 L 360.483806477409 82.78218107987337 M 360.483806477409 85.61357824507805 L 360.483806477409 89.00644723727014 M 387.1731307477009 79.74190757165825 L 387.1731307477009 81.84113461493779 M 387.1731307477009 92.10588257997992 L 387.1731307477009 92.52448366706902 M 404.9660135945622 82.6104081435824 L 404.9660135945622 84.7569759664719 M 404.9660135945622 96.80116033212343 L 404.9660135945622 100.16009328158432 M 422.7588964414235 82.9149275670235 L 422.7588964414235 84.21071879864235 M 422.7588964414235 85.19797484176357 L 422.7588964414235 88.30012506789187 M 431.65533786485406 81.02995007352017 L 431.65533786485406 85.19797484176357 M 431.65533786485406 85.91922886994354 L 431.65533786485406 91.60515626948138 M 440.5517792882847 85.23609632976492 L 440.5517792882847 85.91917230987237 M 440.5517792882847 96.01474910189955 L 440.5517792882847 96.74952098710081 M 485.0339864054379 75.92020011948651 L 485.0339864054379 78.96137858884114 M 485.0339864054379 79.42720733539778 L 485.0339864054379 82.51335106137121 M 511.7233106757297 62.43452577875692 L 511.7233106757297 63.87002038628583 M 511.7233106757297 96.68883203068322 L 511.7233106757297 119.42982674541605 M 520.6197520991603 93.98944607170283 L 520.6197520991603 96.66145695621341 M 520.6197520991603 101.30085335799292 L 520.6197520991603 110.55572125142642 M 538.4126349460215 95.73143970516544 L 538.4126349460215 99.3391804079171 M 538.4126349460215 108.07335628571185 L 538.4126349460215 112.13787612362518 M 565.1019592163135 96.59680879481051 L 565.1019592163135 101.43139400236548 M 565.1019592163135 107.5653337260261 L 565.1019592163135 116.44939379255027 M 591.7912834866053 87.11168485144599 L 591.7912834866053 89.57544155372956 M 591.7912834866053 91.74497276553384 L 591.7912834866053 95.79874618991565 M 600.687724910036 89.41367975004428 L 600.687724910036 91.74502932560509 M 600.687724910036 94.2213989237704 L 600.687724910036 97.61737871987953 M 618.4806077568971 88.15335168307949 L 618.4806077568971 88.60628473339831 M 618.4806077568971 94.55074821847651 L 618.4806077568971 96.8842470767436 M 627.3770491803277 93.95403946711996 L 627.3770491803277 94.55074821847651 M 627.3770491803277 118.45376959639611 L 627.3770491803277 121.37011998857123 M 636.2734906037584 114.92792787676908 L 636.2734906037584 118.44800046913184 M 636.2734906037584 131.35647928307532 L 636.2734906037584 137.77254064197444 M 662.9628148740503 106.09890075954065 L 662.9628148740503 107.99219258351313 M 662.9628148740503 119.6135338567342 L 662.9628148740503 131.69233298597152 M 671.8592562974809 118.72966962380065 L 671.8592562974809 119.61347729666295 M 671.8592562974809 120.4049789332965 L 671.8592562974809 126.19876638864827 M 689.6521391443422 110.90650681312435 L 689.6521391443422 117.63206488173185 M 689.6521391443422 123.36471090009628 L 689.6521391443422 123.64383485156023 M 698.5485805677728 119.7446966618902 L 698.5485805677728 123.36471090009628 M 698.5485805677728 129.70402024235173 L 698.5485805677728 130.4876034690147 M 734.1343462614954 88.35832538117585 L 734.1343462614954 89.46119020986794 M 734.1343462614954 92.327089018516 L 734.1343462614954 93.48498679650383 M 778.6165533786485 48.790483238615195 L 778.6165533786485 48.888388721894614 M 778.6165533786485 57.54083529677848 L 778.6165533786485 59.96285066650273 M 805.3058776489403 41.83925048584533 L 805.3058776489403 50.95441500336878 M 805.3058776489403 52.59872939383686 L 805.3058776489403 55.87355751739565 M 823.0987604958016 35.511931878688216 L 823.0987604958016 36.69205776466498 M 823.0987604958016 45.03138778528245 L 823.0987604958016 57.010414948890144 M 840.8916433426629 30.689959567014967 L 840.8916433426629 37.26059960055463 M 840.8916433426629 37.3900656035741 L 840.8916433426629 40.38712721737815 M 858.6845261895241 8.93763489718387 L 858.6845261895241 12.930775925219251 M 858.6845261895241 17.43776520027592 L 858.6845261895241 21.541594287686166" style="stroke-width: 1px;"></path><path class="candle wick equal" style="stroke-width: 1px;"></path></g></g><g class="x axis" transform="translate(0,200)" fill="none" font-size="10" font-family="sans-serif" text-anchor="middle"><path class="domain" stroke="#000" d="M0.5,6V0.5H890.5V6"></path><g class="tick" opacity="1" transform="translate(4.626149540183927,0)"><line stroke="#000" y2="6" x1="0.5" x2="0.5"></line><text fill="#000" y="9" x="0.5" dy="0.71em">Jul 12</text></g><g class="tick" opacity="1" transform="translate(66.90123950419832,0)"><line stroke="#000" y2="6" x1="0.5" x2="0.5"></line><text fill="#000" y="9" x="0.5" dy="0.71em">Jul 19</text></g><g class="tick" opacity="1" transform="translate(129.1763294682127,0)"><line stroke="#000" y2="6" x1="0.5" x2="0.5"></line><text fill="#000" y="9" x="0.5" dy="0.71em">Jul 26</text></g><g class="tick" opacity="1" transform="translate(191.4514194322271,0)"><line stroke="#000" y2="6" x1="0.5" x2="0.5"></line><text fill="#000" y="9" x="0.5" dy="0.71em">Aug  2</text></g><g class="tick" opacity="1" transform="translate(253.72650939624148,0)"><line stroke="#000" y2="6" x1="0.5" x2="0.5"></line><text fill="#000" y="9" x="0.5" dy="0.71em">Aug  9</text></g><g class="tick" opacity="1" transform="translate(316.0015993602559,0)"><line stroke="#000" y2="6" x1="0.5" x2="0.5"></line><text fill="#000" y="9" x="0.5" dy="0.71em">Aug 16</text></g><g class="tick" opacity="1" transform="translate(378.2766893242703,0)"><line stroke="#000" y2="6" x1="0.5" x2="0.5"></line><text fill="#000" y="9" x="0.5" dy="0.71em">Aug 23</text></g><g class="tick" opacity="1" transform="translate(440.5517792882847,0)"><line stroke="#000" y2="6" x1="0.5" x2="0.5"></line><text fill="#000" y="9" x="0.5" dy="0.71em">Aug 30</text></g><g class="tick" opacity="1" transform="translate(502.82686925229905,0)"><line stroke="#000" y2="6" x1="0.5" x2="0.5"></line><text fill="#000" y="9" x="0.5" dy="0.71em">Sep  6</text></g><g class="tick" opacity="1" transform="translate(565.1019592163135,0)"><line stroke="#000" y2="6" x1="0.5" x2="0.5"></line><text fill="#000" y="9" x="0.5" dy="0.71em">Sep 13</text></g><g class="tick" opacity="1" transform="translate(627.3770491803277,0)"><line stroke="#000" y2="6" x1="0.5" x2="0.5"></line><text fill="#000" y="9" x="0.5" dy="0.71em">Sep 20</text></g><g class="tick" opacity="1" transform="translate(689.6521391443422,0)"><line stroke="#000" y2="6" x1="0.5" x2="0.5"></line><text fill="#000" y="9" x="0.5" dy="0.71em">Sep 27</text></g><g class="tick" opacity="1" transform="translate(751.9272291083566,0)"><line stroke="#000" y2="6" x1="0.5" x2="0.5"></line><text fill="#000" y="9" x="0.5" dy="0.71em">Oct  4</text></g><g class="tick" opacity="1" transform="translate(814.202319072371,0)"><line stroke="#000" y2="6" x1="0.5" x2="0.5"></line><text fill="#000" y="9" x="0.5" dy="0.71em">Oct 11</text></g><g class="tick" opacity="1" transform="translate(876.4774090363853,0)"><line stroke="#000" y2="6" x1="0.5" x2="0.5"></line><text fill="#000" y="9" x="0.5" dy="0.71em">Oct 18</text></g></g><g class="y axis" fill="none" font-size="10" font-family="sans-serif" text-anchor="end"><path class="domain" stroke="#000" d="M-6,200.5H0.5V0.5H-6"></path><g class="tick" opacity="1" transform="translate(0,192.07020901186092)"><line stroke="#000" x2="-6" y1="0.5" y2="0.5"></line><text fill="#000" x="-9" y="0.5" dy="0.32em">30,000</text></g><g class="tick" opacity="1" transform="translate(0,163.79017340254507)"><line stroke="#000" x2="-6" y1="0.5" y2="0.5"></line><text fill="#000" x="-9" y="0.5" dy="0.32em">35,000</text></g><g class="tick" opacity="1" transform="translate(0,135.51013779322915)"><line stroke="#000" x2="-6" y1="0.5" y2="0.5"></line><text fill="#000" x="-9" y="0.5" dy="0.32em">40,000</text></g><g class="tick" opacity="1" transform="translate(0,107.23010218391329)"><line stroke="#000" x2="-6" y1="0.5" y2="0.5"></line><text fill="#000" x="-9" y="0.5" dy="0.32em">45,000</text></g><g class="tick" opacity="1" transform="translate(0,78.9500665745974)"><line stroke="#000" x2="-6" y1="0.5" y2="0.5"></line><text fill="#000" x="-9" y="0.5" dy="0.32em">50,000</text></g><g class="tick" opacity="1" transform="translate(0,50.67003096528154)"><line stroke="#000" x2="-6" y1="0.5" y2="0.5"></line><text fill="#000" x="-9" y="0.5" dy="0.32em">55,000</text></g><g class="tick" opacity="1" transform="translate(0,22.389995355965652)"><line stroke="#000" x2="-6" y1="0.5" y2="0.5"></line><text fill="#000" x="-9" y="0.5" dy="0.32em">60,000</text></g><text transform="rotate(-90)" y="6" dy=".71em" style="text-anchor: end;">Price ($)</text></g></g></svg>