<?xml version="1.0" encoding="utf-8"?>
<!DOCTYPE svg PUBLIC "-//W3C//DTD SVG 1.1//EN" "http://www.w3.org/Graphics/SVG/1.1/DTD/svg11.dtd">
<svg version="1.1" xmlns="http://www.w3.org/2000/svg" width="960" height="250"><g transform="translate(50,20)"><style>.axis path,.axis line{fill:none;stroke:#000;shape-rendering:crispEdges;}path.candle{stroke:#000000;}path.candle.body{stroke-width:0;}path.candle.up{fill:#00AA00;stroke:#00AA00;}path.candle.down{fill:#FF0000;stroke:#FF0000;}</style><g class="candlestick"><g class="data"><path class="candle body up" d="M 1.0675729708116766 181.63711219702734 l 7.1171531387445 0 L 8.184726109556177 174.71848538737729 l -7.1171531387445 0 L 1.0675729708116766 181.63711219702734 M 9.964014394242305 174.71848538737729 l 7.1171531387445 0 L 17.081167532986804 162.72838105990917 l -7.1171531387445 0 L 9.964014394242305 174.71848538737729 M 18.860455817672932 162.72838105990917 l 7.1171531387445 0 L 25.977608956417434 152.18808579294 l -7.1171531387445 0 L 18.860455817672932 162.72838105990917 M 36.65333866453418 156.91378075272502 l 7.1171531387445 0 L 43.77049180327868 141.98063812003113 l -7.1171531387445 0 L 36.65333866453418 156.91378075272502 M 72.23910435825668 153.2355142370837 l 7.1171531387445 0 L 79.35625749700118 132.58851827012043 l -7.1171531387445 0 L 72.23910435825668 153.2355142370837 M 116.72131147540982 151.43864734041352 l 7.1171531387445 0 L 123.83846461415432 151.3819278270305 l -7.1171531387445 0 L 116.72131147540982 151.43864734041352 M 125.61775289884046 151.41787852502057 l 7.1171531387445 0 L 132.73490603758498 138.90041632365734 l -7.1171531387445 0 L 125.61775289884046 151.41787852502057 M 134.51419432227107 138.90041632365734 l 7.1171531387445 0 L 141.63134746101557 123.34293395103758 l -7.1171531387445 0 L 134.51419432227107 138.90041632365734 M 152.30707716913233 126.38289339476371 l 7.1171531387445 0 L 159.42423030787683 123.8484906415232 l -7.1171531387445 0 L 152.30707716913233 126.38289339476371 M 161.20351859256294 123.8484906415232 l 7.1171531387445 0 L 168.32067173130744 122.33254930043101 l -7.1171531387445 0 L 161.20351859256294 123.8484906415232 M 178.9964014394242 133.3536244254872 l 7.1171531387445 0 L 186.1135545781687 125.46323567455777 l -7.1171531387445 0 L 178.9964014394242 133.3536244254872 M 196.78928428628546 138.3949203607021 l 7.1171531387445 0 L 203.90643742502996 124.87672918606405 l -7.1171531387445 0 L 196.78928428628546 138.3949203607021 M 232.37504998000796 137.5505040506477 l 7.1171531387445 0 L 239.49220311875246 136.8340406471223 l -7.1171531387445 0 L 232.37504998000796 137.5505040506477 M 241.2714914034386 136.8340406471223 l 7.1171531387445 0 L 248.3886445421831 126.45187986928524 l -7.1171531387445 0 L 241.2714914034386 136.8340406471223 M 250.16793282686922 126.45194059681559 l 7.1171531387445 0 L 257.28508596561375 123.80343081397483 l -7.1171531387445 0 L 250.16793282686922 126.45194059681559 M 259.06437425029986 123.80349154150522 l 7.1171531387445 0 L 266.1815273890444 119.23368415222791 l -7.1171531387445 0 L 259.06437425029986 123.80349154150522 M 276.85725709716115 119.72922080019939 l 7.1171531387445 0 L 283.9744102359057 108.55936322569097 l -7.1171531387445 0 L 276.85725709716115 119.72922080019939 M 285.7536985205918 108.55936322569097 l 7.1171531387445 0 L 292.8708516593363 103.0512547643784 l -7.1171531387445 0 L 285.7536985205918 108.55936322569097 M 312.4430227908837 143.22609904077223 l 7.1171531387445 0 L 319.5601759296282 141.11988610430222 l -7.1171531387445 0 L 312.4430227908837 143.22609904077223 M 330.23590563774496 150.55050720847933 l 7.1171531387445 0 L 337.3530587764895 148.5374503036255 l -7.1171531387445 0 L 330.23590563774496 150.55050720847933 M 339.13234706117555 148.5375110311559 l 7.1171531387445 0 L 346.2495001999201 143.3661974533789 l -7.1171531387445 0 L 339.13234706117555 148.5375110311559 M 356.9252299080368 149.95221957909018 l 7.1171531387445 0 L 364.0423830467813 136.76948728231915 l -7.1171531387445 0 L 356.9252299080368 149.95221957909018 M 365.8216713314674 136.8195267673594 l 7.1171531387445 0 L 372.93882447021196 130.63667471589838 l -7.1171531387445 0 L 365.8216713314674 136.8195267673594 M 392.5109956017593 135.62501624461436 l 7.1171531387445 0 L 399.62814874050383 129.59622993774946 l -7.1171531387445 0 L 392.5109956017593 135.62501624461436 M 428.0967612954818 175.49804469497656 l 7.1171531387445 0 L 435.21391443422635 158.43652357722075 l -7.1171531387445 0 L 428.0967612954818 175.49804469497656 M 436.99320271891247 158.41976277883347 l 7.1171531387445 0 L 444.110355857657 150.41046952340304 l -7.1171531387445 0 L 436.99320271891247 158.41976277883347 M 463.68252698920435 163.73791552509033 l 7.1171531387445 0 L 470.7996801279489 160.7606268927253 l -7.1171531387445 0 L 463.68252698920435 163.73791552509033 M 490.3718512594962 173.73135938090954 l 7.1171531387445 0 L 497.48900439824075 170.69941597119475 l -7.1171531387445 0 L 490.3718512594962 173.73135938090954 M 499.2682926829268 170.69935524366434 l 7.1171531387445 0 L 506.38544582167134 156.73317707734915 l -7.1171531387445 0 L 499.2682926829268 170.69935524366434 M 508.16473410635746 156.7580146372781 l 7.1171531387445 0 L 515.281887245102 130.5140051045133 l -7.1171531387445 0 L 508.16473410635746 156.7580146372781 M 525.9576169532187 133.59119052436768 l 7.1171531387445 0 L 533.0747700919632 130.1593563270435 l -7.1171531387445 0 L 525.9576169532187 133.59119052436768 M 534.8540583766493 130.1593563270435 l 7.1171531387445 0 L 541.9712115153937 123.93520955491822 l -7.1171531387445 0 L 534.8540583766493 130.1593563270435 M 543.75049980008 123.93527028244861 l 7.1171531387445 0 L 550.8676529388244 110.2894298389336 l -7.1171531387445 0 L 543.75049980008 123.93527028244861 M 552.6469412235106 110.2894298389336 l 7.1171531387445 0 L 559.764094362255 86.95177918303985 l -7.1171531387445 0 L 552.6469412235106 110.2894298389336 M 570.4398240703717 96.24175532683678 l 7.1171531387445 0 L 577.5569772091162 95.23240304424682 l -7.1171531387445 0 L 570.4398240703717 96.24175532683678 M 579.3362654938024 95.20665457136204 l 7.1171531387445 0 L 586.4534186325469 89.17003441307693 l -7.1171531387445 0 L 579.3362654938024 95.20665457136204 M 597.1291483406637 90.93544444900576 l 7.1171531387445 0 L 604.2463014794082 73.85679816768041 l -7.1171531387445 0 L 597.1291483406637 90.93544444900576 M 614.9220311875249 82.81070815830647 l 7.1171531387445 0 L 622.0391843262694 74.4904899472861 l -7.1171531387445 0 L 614.9220311875249 82.81070815830647 M 632.7149140343862 74.60623662020687 l 7.1171531387445 0 L 639.8320671731307 48.344737558690156 l -7.1171531387445 0 L 632.7149140343862 74.60623662020687 M 650.5077968812475 53.18381081771079 l 7.1171531387445 0 L 657.624950019992 49.21976054406039 l -7.1171531387445 0 L 650.5077968812475 53.18381081771079 M 659.4042383046781 49.2198212715908 l 7.1171531387445 0 L 666.5213914434225 46.29566922831586 l -7.1171531387445 0 L 659.4042383046781 49.2198212715908 M 668.3006797281087 46.32141770120066 l 7.1171531387445 0 L 675.4178328668531 32.505965265310124 l -7.1171531387445 0 L 668.3006797281087 46.32141770120066 M 677.1971211515394 32.505965265310124 l 7.1171531387445 0 L 684.3142742902838 22.05585038096808 l -7.1171531387445 0 L 677.1971211515394 32.505965265310124 M 703.8864454218311 54.32148037201199 l 7.1171531387445 0 L 711.0035985605756 50.68681622318974 l -7.1171531387445 0 L 703.8864454218311 54.32148037201199 M 721.6793282686924 53.32560960116831 l 7.1171531387445 0 L 728.7964814074369 39.80426059495008 l -7.1171531387445 0 L 721.6793282686924 53.32560960116831 M 748.3686525389844 68.1357182572948 l 7.1171531387445 0 L 755.4858056777289 55.00369344839825 l -7.1171531387445 0 L 748.3686525389844 68.1357182572948 M 757.265093962415 55.00363272086787 l 7.1171531387445 0 L 764.3822471011595 44.81470694472753 l -7.1171531387445 0 L 757.265093962415 55.00363272086787 M 792.8508596561375 52.96792444717909 l 7.1171531387445 0 L 799.9680127948819 38.94672713833177 l -7.1171531387445 0 L 792.8508596561375 52.96792444717909 M 828.43662534986 52.79145024386963 l 7.1171531387445 0 L 835.5537784886045 49.57027984946376 l -7.1171531387445 0 L 828.43662534986 52.79145024386963 M 837.3330667732906 49.57021912193335 l 7.1171531387445 0 L 844.4502199120351 38.62122757544856 l -7.1171531387445 0 L 837.3330667732906 49.57021912193335 M 846.2295081967213 38.62128830297888 l 7.1171531387445 0 L 853.3466613354658 12.798424193459482 l -7.1171531387445 0 L 846.2295081967213 38.62128830297888 M 881.8152738904437 29.50809000014334 l 7.1171531387445 0 L 888.9324270291881 28.810512858568757 l -7.1171531387445 0 L 881.8152738904437 29.50809000014334"></path><path class="candle body down" d="M 27.75689724110356 152.18808579294 l 7.1171531387445 0 L 34.87405037984806 156.91372002519464 l -7.1171531387445 0 L 27.75689724110356 152.18808579294 M 45.54978008796481 142.00814769129718 l 7.1171531387445 0 L 52.66693322670931 146.0397269787398 l -7.1171531387445 0 L 45.54978008796481 142.00814769129718 M 54.446221511395436 146.03966625120938 l 7.1171531387445 0 L 61.563374650139934 146.4890499760855 l -7.1171531387445 0 L 54.446221511395436 146.03966625120938 M 63.342662934826066 146.49105398458835 l 7.1171531387445 0 L 70.45981607357056 153.24195135530488 l -7.1171531387445 0 L 63.342662934826066 146.49105398458835 M 81.13554578168731 132.58857899765084 l 7.1171531387445 0 L 88.25269892043181 137.03067639052077 l -7.1171531387445 0 L 81.13554578168731 132.58857899765084 M 90.03198720511796 137.03073711805118 l 7.1171531387445 0 L 97.14914034386246 137.60570537577104 l -7.1171531387445 0 L 90.03198720511796 137.03073711805118 M 98.92842862854857 137.60570537577104 l 7.1171531387445 0 L 106.04558176729307 144.11891519254635 l -7.1171531387445 0 L 98.92842862854857 137.60570537577104 M 107.82487005197919 144.11885446501594 l 7.1171531387445 0 L 114.94202319072369 151.43864734041352 l -7.1171531387445 0 L 107.82487005197919 144.11885446501594 M 143.4106357457017 123.34293395103758 l 7.1171531387445 0 L 150.5277888844462 126.38295412229407 l -7.1171531387445 0 L 143.4106357457017 123.34293395103758 M 170.09996001599356 122.33254930043101 l 7.1171531387445 0 L 177.21711315473806 133.3536244254872 l -7.1171531387445 0 L 170.09996001599356 122.33254930043101 M 187.89284286285485 125.46323567455777 l 7.1171531387445 0 L 195.00999600159935 138.3948596331717 l -7.1171531387445 0 L 187.89284286285485 125.46323567455777 M 205.68572570971608 124.87672918606405 l 7.1171531387445 0 L 212.80287884846058 125.93672822899819 l -7.1171531387445 0 L 205.68572570971608 124.87672918606405 M 214.5821671331467 125.93672822899819 l 7.1171531387445 0 L 221.6993202718912 126.7111256965144 l -7.1171531387445 0 L 214.5821671331467 125.93672822899819 M 223.47860855657734 126.71106496898406 l 7.1171531387445 0 L 230.59576169532184 137.5505040506477 l -7.1171531387445 0 L 223.47860855657734 126.71106496898406 M 267.9608156737305 119.24060709069221 l 7.1171531387445 0 L 275.07796881247504 119.74075903097324 l -7.1171531387445 0 L 267.9608156737305 119.24060709069221 M 294.65013994402244 103.03728743238904 l 7.1171531387445 0 L 301.76729308276697 138.27425475781982 l -7.1171531387445 0 L 294.65013994402244 103.03728743238904 M 303.54658136745303 138.24486263311172 l 7.1171531387445 0 L 310.66373450619756 143.22609904077223 l -7.1171531387445 0 L 303.54658136745303 138.24486263311172 M 321.3394642143143 141.11988610430222 l 7.1171531387445 0 L 328.45661735305885 150.49761352951077 l -7.1171531387445 0 L 321.3394642143143 141.11988610430222 M 348.02878848460614 143.36625818090926 l 7.1171531387445 0 L 355.14594162335067 149.9521588515598 l -7.1171531387445 0 L 348.02878848460614 143.36625818090926 M 374.7181127548981 130.6367354434288 l 7.1171531387445 0 L 381.8352658936426 132.96612205407715 l -7.1171531387445 0 L 374.7181127548981 130.6367354434288 M 383.61455417832866 132.96618278160753 l 7.1171531387445 0 L 390.7317073170732 135.62501624461436 l -7.1171531387445 0 L 383.61455417832866 132.96618278160753 M 401.40743702518995 129.59616921021905 l 7.1171531387445 0 L 408.5245901639345 135.97863265406758 l -7.1171531387445 0 L 401.40743702518995 129.59616921021905 M 410.3038784486206 135.97863265406758 l 7.1171531387445 0 L 417.4210315873651 161.6428764542118 l -7.1171531387445 0 L 410.3038784486206 135.97863265406758 M 419.20031987205124 161.63668224611217 l 7.1171531387445 0 L 426.31747301079577 175.49628359659528 l -7.1171531387445 0 L 419.20031987205124 161.63668224611217 M 445.8896441423431 150.41046952340304 l 7.1171531387445 0 L 453.00679728108764 162.88809446483134 l -7.1171531387445 0 L 445.8896441423431 150.41046952340304 M 454.7860855657737 162.88803373730096 l 7.1171531387445 0 L 461.90323870451823 163.73785479755992 l -7.1171531387445 0 L 454.7860855657737 162.88803373730096 M 472.57896841263494 160.7606268927253 l 7.1171531387445 0 L 479.69612155137946 166.9156657352683 l -7.1171531387445 0 L 472.57896841263494 160.7606268927253 M 481.47540983606564 166.9156657352683 l 7.1171531387445 0 L 488.59256297481016 173.72206806876008 l -7.1171531387445 0 L 481.47540983606564 166.9156657352683 M 517.0611755297881 130.51406583204368 l 7.1171531387445 0 L 524.1783286685326 133.59112979683727 l -7.1171531387445 0 L 517.0611755297881 130.51406583204368 M 561.5433826469413 86.95177918303985 l 7.1171531387445 0 L 568.6605357856857 96.24175532683678 l -7.1171531387445 0 L 561.5433826469413 86.95177918303985 M 588.232706917233 89.17003441307693 l 7.1171531387445 0 L 595.3498600559775 90.93550517653617 l -7.1171531387445 0 L 588.232706917233 89.17003441307693 M 606.0255897640943 73.85679816768041 l 7.1171531387445 0 L 613.1427429028388 82.8105867032457 l -7.1171531387445 0 L 606.0255897640943 73.85679816768041 M 623.8184726109555 74.46723130314723 l 7.1171531387445 0 L 630.9356257497 74.60623662020687 l -7.1171531387445 0 L 623.8184726109555 74.46723130314723 M 641.6113554578168 48.344737558690156 l 7.1171531387445 0 L 648.7285085965613 53.18381081771079 l -7.1171531387445 0 L 641.6113554578168 48.344737558690156 M 686.09356257497 22.05591110849855 l 7.1171531387445 0 L 693.2107157137144 45.182472868761266 l -7.1171531387445 0 L 686.09356257497 22.05591110849855 M 694.9900039984005 45.182472868761266 l 7.1171531387445 0 L 702.107157137145 54.3215410995424 l -7.1171531387445 0 L 694.9900039984005 45.182472868761266 M 712.7828868452618 50.68681622318974 l 7.1171531387445 0 L 719.9000399840063 53.32560960116831 l -7.1171531387445 0 L 712.7828868452618 50.68681622318974 M 730.5757696921231 39.80426059495008 l 7.1171531387445 0 L 737.6929228308676 56.50414926924137 l -7.1171531387445 0 L 730.5757696921231 39.80426059495008 M 739.4722111155537 56.50414926924137 l 7.1171531387445 0 L 746.5893642542982 68.1357182572948 l -7.1171531387445 0 L 739.4722111155537 56.50414926924137 M 766.1615353858456 44.81476767225794 l 7.1171531387445 0 L 773.27868852459 47.21052947362105 l -7.1171531387445 0 L 766.1615353858456 44.81476767225794 M 775.0579768092763 47.21052947362105 l 7.1171531387445 0 L 782.1751299480208 50.6075667960325 l -7.1171531387445 0 L 775.0579768092763 47.21052947362105 M 783.9544182327068 50.60750606850215 l 7.1171531387445 0 L 791.0715713714512 52.9679851747095 l -7.1171531387445 0 L 783.9544182327068 50.60750606850215 M 801.747301079568 38.943204941569206 l 7.1171531387445 0 L 808.8644542183125 40.91132347393537 l -7.1171531387445 0 L 801.747301079568 38.943204941569206 M 810.6437425029987 40.911262746405015 l 7.1171531387445 0 L 817.7608956417432 50.02937997920205 l -7.1171531387445 0 L 810.6437425029987 40.911262746405015 M 819.5401839264293 50.02937997920205 l 7.1171531387445 0 L 826.6573370651738 52.81003286816855 l -7.1171531387445 0 L 819.5401839264293 50.02937997920205 M 855.1259496201519 12.798484920989836 l 7.1171531387445 0 L 862.2431027588964 16.309507817940812 l -7.1171531387445 0 L 855.1259496201519 12.798484920989836 M 864.0223910435824 16.30944709041046 l 7.1171531387445 0 L 871.1395441823269 28.851139576398765 l -7.1171531387445 0 L 864.0223910435824 16.30944709041046 M 872.9188324670131 28.851200303929176 l 7.1171531387445 0 L 880.0359856057576 29.50802927261293 l -7.1171531387445 0 L 872.9188324670131 28.851200303929176"></path><path class="candle body equal"></path><path class="candle wick up" d="M 4.626149540183927 171.75777537080836 L 4.626149540183927 174.71848538737729 M 4.626149540183927 181.63711219702734 L 4.626149540183927 196.15384615384616 M 13.522590963614554 159.3546023816366 L 13.522590963614554 162.72838105990917 M 13.522590963614554 174.71848538737729 L 13.522590963614554 180.84346410237788 M 22.41903238704518 151.41405269060613 L 22.41903238704518 152.18808579294 M 22.41903238704518 162.72838105990917 L 22.41903238704518 165.0995482114649 M 40.21191523390643 140.7615329474787 L 40.21191523390643 141.98063812003113 M 40.21191523390643 156.91378075272502 L 40.21191523390643 163.07981127826838 M 75.79768092762893 132.06626150877793 L 75.79768092762893 132.58851827012043 M 75.79768092762893 153.2355142370837 L 75.79768092762893 154.3448240346934 M 120.27988804478207 143.51947374007986 L 120.27988804478207 151.3819278270305 M 120.27988804478207 151.43864734041352 L 120.27988804478207 154.43051058007183 M 129.1763294682127 137.24631985093092 L 129.1763294682127 138.90041632365734 M 129.1763294682127 151.41787852502057 L 129.1763294682127 156.1040398625226 M 138.07277089164333 122.9754109371254 L 138.07277089164333 123.34293395103758 M 138.07277089164333 138.90041632365734 L 138.07277089164333 139.73620932439653 M 155.8656537385046 122.26483810404764 L 155.8656537385046 123.8484906415232 M 155.8656537385046 126.38289339476371 L 155.8656537385046 131.07033001040384 M 164.7620951619352 116.19208506518129 L 164.7620951619352 122.33254930043101 M 164.7620951619352 123.8484906415232 L 164.7620951619352 125.12510478535368 M 182.55497800879647 123.69618599530843 L 182.55497800879647 125.46323567455777 M 182.55497800879647 133.3536244254872 L 182.55497800879647 136.6798534474655 M 200.34786085565773 124.39072676036359 L 200.34786085565773 124.87672918606405 M 200.34786085565773 138.3949203607021 L 200.34786085565773 141.40615568255436 M 235.93362654938022 129.87940241195176 L 235.93362654938022 136.8340406471223 M 235.93362654938022 137.5505040506477 L 235.93362654938022 139.26854661287342 M 244.83006797281087 124.35386514941766 L 244.83006797281087 126.45187986928524 M 244.83006797281087 136.8340406471223 L 244.83006797281087 140.4102241841803 M 253.72650939624148 116.49493325922958 L 253.72650939624148 123.80343081397483 M 253.72650939624148 126.45194059681559 L 253.72650939624148 127.82711552246691 M 262.6229508196721 113.15570854574813 L 262.6229508196721 119.23368415222791 M 262.6229508196721 123.80349154150522 L 262.6229508196721 129.44987658951277 M 280.4158336665334 107.69023081076841 L 280.4158336665334 108.55936322569097 M 280.4158336665334 119.72922080019939 L 280.4158336665334 122.56847575599096 M 289.31227508996403 102.34620813656603 L 289.31227508996403 103.0512547643784 M 289.31227508996403 108.55936322569097 L 289.31227508996403 113.34195988145015 M 316.0015993602559 135.01780166825813 L 316.0015993602559 141.11988610430222 M 316.0015993602559 143.22609904077223 L 316.0015993602559 146.47641864976464 M 333.7944822071172 143.59277186925897 L 333.7944822071172 148.5374503036255 M 333.7944822071172 150.55050720847933 L 333.7944822071172 151.2791161180825 M 342.6909236305478 140.72600734220134 L 342.6909236305478 143.3661974533789 M 342.6909236305478 148.5375110311559 L 342.6909236305478 151.1586326977914 M 360.483806477409 135.92853244149694 L 360.483806477409 136.76948728231915 M 360.483806477409 149.95221957909018 L 360.483806477409 152.05509250138883 M 369.38024790083966 128.337591142914 L 369.38024790083966 130.63667471589838 M 369.38024790083966 136.8195267673594 L 369.38024790083966 139.3759128866006 M 396.06957217113154 126.25342229997509 L 396.06957217113154 129.59622993774946 M 396.06957217113154 135.62501624461436 L 396.06957217113154 137.23077360315142 M 431.65533786485406 155.66163980364115 L 431.65533786485406 158.43652357722075 M 431.65533786485406 175.49804469497656 L 431.65533786485406 176.5225181326333 M 440.5517792882847 149.72582734580126 L 440.5517792882847 150.41046952340304 M 440.5517792882847 158.41976277883347 L 440.5517792882847 161.31816634922365 M 467.2411035585766 155.96861746975588 L 467.2411035585766 160.7606268927253 M 467.2411035585766 163.73791552509033 L 467.2411035585766 175.4014271941282 M 493.93042782886846 164.22756160261412 L 493.93042782886846 170.69941597119475 M 493.93042782886846 173.73135938090954 L 493.93042782886846 175.3778649123374 M 502.82686925229905 154.806474720708 L 502.82686925229905 156.73317707734915 M 502.82686925229905 170.69935524366434 L 502.82686925229905 171.39237782045979 M 511.7233106757297 128.36795490810835 L 511.7233106757297 130.5140051045133 M 511.7233106757297 156.7580146372781 L 511.7233106757297 160.01896156408856 M 529.5161935225909 123.91614111037617 L 529.5161935225909 130.1593563270435 M 529.5161935225909 133.59119052436768 L 529.5161935225909 136.91231843379327 M 538.4126349460215 122.04549026428377 L 538.4126349460215 123.93520955491822 M 538.4126349460215 130.1593563270435 L 538.4126349460215 138.10865078244996 M 547.3090763694522 107.77342752740087 L 547.3090763694522 110.2894298389336 M 547.3090763694522 123.93527028244861 L 547.3090763694522 125.1651849554102 M 556.2055177928828 84.31013161113296 L 556.2055177928828 86.95177918303985 M 556.2055177928828 110.2894298389336 L 556.2055177928828 116.90618009502157 M 573.998400639744 82.18466804752975 L 573.998400639744 95.23240304424682 M 573.998400639744 96.24175532683678 L 573.998400639744 97.25960946368117 M 582.8948420631747 85.8951201542771 L 582.8948420631747 89.17003441307693 M 582.8948420631747 95.20665457136204 L 582.8948420631747 96.99204396478875 M 600.687724910036 71.62390760281963 L 600.687724910036 73.85679816768041 M 600.687724910036 90.93544444900576 L 600.687724910036 92.41689255283723 M 618.4806077568971 72.0006612013509 L 618.4806077568971 74.4904899472861 M 618.4806077568971 82.81070815830647 L 618.4806077568971 93.92214584858101 M 636.2734906037584 40.689546532956 L 636.2734906037584 48.344737558690156 M 636.2734906037584 74.60623662020687 L 636.2734906037584 77.63010326838 M 654.0663734506197 48.06557310149347 L 654.0663734506197 49.21976054406039 M 654.0663734506197 53.18381081771079 L 654.0663734506197 64.79837609725541 M 662.9628148740503 42.130125008835876 L 662.9628148740503 46.29566922831586 M 662.9628148740503 49.2198212715908 L 662.9628148740503 59.44554793114668 M 671.8592562974809 31.258561063596574 L 671.8592562974809 32.505965265310124 M 671.8592562974809 46.32141770120066 L 671.8592562974809 50.47141567290112 M 680.7556977209116 15.991659923886573 L 680.7556977209116 22.05585038096808 M 680.7556977209116 32.505965265310124 L 680.7556977209116 37.35924876644171 M 707.4450219912034 47.88794507510664 L 707.4450219912034 50.68681622318974 M 707.4450219912034 54.32148037201199 L 707.4450219912034 61.159886114018605 M 725.2379048380647 35.96719158734237 L 725.2379048380647 39.80426059495008 M 725.2379048380647 53.32560960116831 L 725.2379048380647 54.55364172068789 M 751.9272291083566 43.32512135182401 L 751.9272291083566 55.00369344839825 M 751.9272291083566 68.1357182572948 L 751.9272291083566 71.73953282067964 M 760.8236705317872 40.404127140129276 L 760.8236705317872 44.81470694472753 M 760.8236705317872 55.00363272086787 L 760.8236705317872 57.43935323722681 M 796.4094362255097 32.570275719991685 L 796.4094362255097 38.94672713833177 M 796.4094362255097 52.96792444717909 L 796.4094362255097 54.707403827631964 M 831.9952019192323 49.02446080633047 L 831.9952019192323 49.57027984946376 M 831.9952019192323 52.79145024386963 L 831.9952019192323 58.19729354400769 M 840.8916433426629 38.54373924667257 L 840.8916433426629 38.62122757544856 M 840.8916433426629 49.57021912193335 L 840.8916433426629 50.46801493119938 M 849.7880847660936 11.200257776221036 L 849.7880847660936 12.798424193459482 M 849.7880847660936 38.62128830297888 L 849.7880847660936 38.62128830297888 M 885.3738504598159 25.400176207002204 L 885.3738504598159 28.810512858568757 M 885.3738504598159 29.50809000014334 L 885.3738504598159 33.89413588246458" style="stroke-width: 1px;"></path><path class="candle wick down" d="M 31.315473810475808 147.70967333689765 L 31.315473810475808 152.18808579294 M 31.315473810475808 156.91372002519464 L 31.315473810475808 160.15274431353478 M 49.10835665733706 139.26854661287342 L 49.10835665733706 142.00814769129718 M 49.10835665733706 146.0397269787398 L 49.10835665733706 152.08533481152242 M 58.004798080767685 139.00456403827388 L 58.004798080767685 146.03966625120938 M 58.004798080767685 146.4890499760855 L 58.004798080767685 147.52056780726735 M 66.90123950419832 142.19488484724232 L 66.90123950419832 146.49105398458835 M 66.90123950419832 153.24195135530488 L 66.90123950419832 157.0617130167518 M 84.69412235105956 130.49949122475041 L 84.69412235105956 132.58857899765084 M 84.69412235105956 137.03067639052077 L 84.69412235105956 143.69540139561582 M 93.5905637744902 135.18601692743476 L 93.5905637744902 137.03073711805118 M 93.5905637744902 137.60570537577104 L 93.5905637744902 146.55585025951302 M 102.48700519792082 131.04707136626496 L 102.48700519792082 137.60570537577104 M 102.48700519792082 144.11891519254635 L 102.48700519792082 145.58420977329442 M 111.38344662135144 136.47508021499488 L 111.38344662135144 144.11885446501594 M 111.38344662135144 151.43864734041352 L 111.38344662135144 153.3816246751988 M 146.96921231507397 120.70389766293744 L 146.96921231507397 123.34293395103758 M 146.96921231507397 126.38295412229407 L 146.96921231507397 130.02581648771883 M 173.65853658536582 120.07864701005576 L 173.65853658536582 122.33254930043101 M 173.65853658536582 133.3536244254872 L 173.65853658536582 133.8030688778937 M 191.4514194322271 123.15850444124725 L 191.4514194322271 125.46323567455777 M 191.4514194322271 138.3948596331717 L 191.4514194322271 142.00128548036326 M 209.24430227908834 123.48546146485978 L 209.24430227908834 124.87672918606405 M 209.24430227908834 125.93672822899819 L 209.24430227908834 129.26745108822524 M 218.14074370251896 121.46159505959682 L 218.14074370251896 125.93672822899819 M 218.14074370251896 126.7111256965144 L 218.14074370251896 132.81600359895637 M 227.0371851259496 125.97765858448014 L 227.0371851259496 126.71106496898406 M 227.0371851259496 137.5505040506477 L 227.0371851259496 138.33941539792687 M 271.51939224310274 115.97534850922415 L 271.51939224310274 119.24060709069221 M 271.51939224310274 119.74075903097324 L 271.51939224310274 123.05429599910028 M 298.2087165133947 101.49602271112474 L 298.2087165133947 103.03728743238904 M 298.2087165133947 138.27425475781982 L 298.2087165133947 162.69085144612896 M 307.10515793682526 135.3759726424905 L 307.10515793682526 138.24486263311172 M 307.10515793682526 143.22609904077223 L 307.10515793682526 153.16288411073884 M 324.89804078368655 137.24631985093092 L 324.89804078368655 141.11988610430222 M 324.89804078368655 150.49761352951077 L 324.89804078368655 154.86161531830092 M 351.5873650539784 138.17545106587747 L 351.5873650539784 143.36625818090926 M 351.5873650539784 149.9521588515598 L 351.5873650539784 159.49081423229836 M 378.2766893242703 127.99144421969861 L 378.2766893242703 130.6367354434288 M 378.2766893242703 132.96612205407715 L 378.2766893242703 137.31858561209344 M 387.1731307477009 130.4630547065172 L 387.1731307477009 132.96618278160753 M 387.1731307477009 135.62501624461436 L 387.1731307477009 139.27121862421052 M 404.9660135945622 129.10986314686662 L 404.9660135945622 129.59616921021905 M 404.9660135945622 135.97863265406758 L 404.9660135945622 138.48406837531266 M 413.86245501799283 135.33795720846717 L 413.86245501799283 135.97863265406758 M 413.86245501799283 161.6428764542118 L 413.86245501799283 164.77410937611208 M 422.7588964414235 157.8572436648433 L 422.7588964414235 161.63668224611217 M 422.7588964414235 175.49628359659528 L 422.7588964414235 182.38509318882447 M 449.44822071171535 148.37767617117294 L 449.44822071171535 150.41046952340304 M 449.44822071171535 162.88809446483134 L 449.44822071171535 175.85688367204315 M 458.34466213514594 161.93910534744774 L 458.34466213514594 162.88803373730096 M 458.34466213514594 163.73785479755992 L 458.34466213514594 169.95854010045306 M 476.13754498200717 153.53951625420933 L 476.13754498200717 160.7606268927253 M 476.13754498200717 166.9156657352683 L 476.13754498200717 167.21535609773633 M 485.0339864054379 163.0289216078027 L 485.0339864054379 166.9156657352683 M 485.0339864054379 173.72206806876008 L 485.0339864054379 174.56338727476464 M 520.6197520991603 129.32993971699517 L 520.6197520991603 130.51406583204368 M 520.6197520991603 133.59112979683727 L 520.6197520991603 134.83434379895397 M 565.1019592163135 86.84665982793706 L 565.1019592163135 86.95177918303985 M 565.1019592163135 96.24175532683678 L 565.1019592163135 98.84222963314015 M 591.7912834866053 79.38324634317033 L 591.7912834866053 89.17003441307693 M 591.7912834866053 90.93550517653617 L 591.7912834866053 94.45162918603978 M 609.5841663334666 72.58971824612092 L 609.5841663334666 73.85679816768041 M 609.5841663334666 82.8105867032457 L 609.5841663334666 95.67225254685192 M 627.3770491803277 67.41245337036582 L 627.3770491803277 74.46723130314723 M 627.3770491803277 74.60623662020687 L 627.3770491803277 77.82412772797176 M 645.169932027189 44.0573739132505 L 645.169932027189 48.344737558690156 M 645.169932027189 53.18381081771079 L 645.169932027189 57.590018240121054 M 689.6521391443422 18.17942993366853 L 689.6521391443422 22.05591110849855 M 689.6521391443422 45.182472868761266 L 689.6521391443422 46.35542511821831 M 698.5485805677728 35.83504848121663 L 698.5485805677728 45.182472868761266 M 698.5485805677728 54.3215410995424 L 698.5485805677728 58.50093119595098 M 716.3414634146341 49.3918016376515 L 716.3414634146341 50.68681622318974 M 716.3414634146341 53.32560960116831 L 716.3414634146341 61.47275435058103 M 734.1343462614954 38.50044051750544 L 734.1343462614954 39.80426059495008 M 734.1343462614954 56.50414926924137 L 734.1343462614954 59.608904987892146 M 743.0307876849259 49.416092649806956 L 743.0307876849259 56.50414926924137 M 743.0307876849259 68.1357182572948 L 743.0307876849259 70.64643727368369 M 769.7201119552178 44.17378858900557 L 769.7201119552178 44.81476767225794 M 769.7201119552178 47.21052947362105 L 769.7201119552178 54.41396840079395 M 778.6165533786485 43.89413831156577 L 778.6165533786485 47.21052947362105 M 778.6165533786485 50.6075667960325 L 778.6165533786485 58.83274642199464 M 787.512994802079 43.697138202984945 L 787.512994802079 50.60750606850215 M 787.512994802079 52.9679851747095 L 787.512994802079 62.11421925407649 M 805.3058776489403 37.24629555991879 L 805.3058776489403 38.943204941569206 M 805.3058776489403 40.91132347393537 L 805.3058776489403 56.1765242427945 M 814.202319072371 39.758532764567434 L 814.202319072371 40.911262746405015 M 814.202319072371 50.02937997920205 L 814.202319072371 54.38961666110808 M 823.0987604958016 42.737764677904835 L 823.0987604958016 50.02937997920205 M 823.0987604958016 52.81003286816855 L 823.0987604958016 54.12247625492836 M 858.6845261895241 6.7352661043945545 L 858.6845261895241 12.798484920989836 M 858.6845261895241 16.309507817940812 L 858.6845261895241 20.713832686909086 M 867.5809676129546 3.846153846153868 L 867.5809676129546 16.30944709041046 M 867.5809676129546 28.851139576398765 L 867.5809676129546 41.358156642535164 M 876.4774090363853 24.49308908558669 L 876.4774090363853 28.851200303929176 M 876.4774090363853 29.50802927261293 L 876.4774090363853 33.60264373659899" style="stroke-width: 1px;"></path><path class="candle wick equal" style="stroke-width: 1px;"></path></g></g><g class="x axis" transform="translate(0,200)" fill="none" font-size="10" font-family="sans-serif" text-anchor="middle"><path class="domain" stroke="#000" d="M0.5,6V0.5H890.5V6"></path><g class="tick" opacity="1" transform="translate(40.21191523390643,0)"><line stroke="#000" y2="6" x1="0.5" x2="0.5"></line><text fill="#000" y="9" x="0.5" dy="0.71em">Aug  9</text></g><g class="tick" opacity="1" transform="translate(102.48700519792082,0)"><line stroke="#000" y2="6" x1="0.5" x2="0.5"></line><text fill="#000" y="9" x="0.5" dy="0.71em">Aug 16</text></g><g class="tick" opacity="1" transform="translate(164.7620951619352,0)"><line stroke="#000" y2="6" x1="0.5" x2="0.5"></line><text fill="#000" y="9" x="0.5" dy="0.71em">Aug 23</text></g><g class="tick" opacity="1" transform="translate(227.0371851259496,0)"><line stroke="#000" y2="6" x1="0.5" x2="0.5"></line><text fill="#000" y="9" x="0.5" dy="0.71em">Aug 30</text></g><g class="tick" opacity="1" transform="translate(289.31227508996403,0)"><line stroke="#000" y2="6" x1="0.5" x2="0.5"></line><text fill="#000" y="9" x="0.5" dy="0.71em">Sep  6</text></g><g class="tick" opacity="1" transform="translate(351.5873650539784,0)"><line stroke="#000" y2="6" x1="0.5" x2="0.5"></line><text fill="#000" y="9" x="0.5" dy="0.71em">Sep 13</text></g><g class="tick" opacity="1" transform="translate(413.86245501799283,0)"><line stroke="#000" y2="6" x1="0.5" x2="0.5"></line><text fill="#000" y="9" x="0.5" dy="0.71em">Sep 20</text></g><g class="tick" opacity="1" transform="translate(476.13754498200717,0)"><line stroke="#000" y2="6" x1="0.5" x2="0.5"></line><text fill="#000" y="9" x="0.5" dy="0.71em">Sep 27</text></g><g class="tick" opacity="1" transform="translate(538.4126349460215,0)"><line stroke="#000" y2="6" x1="0.5" x2="0.5"></line><text fill="#000" y="9" x="0.5" dy="0.71em">Oct  4</text></g><g class="tick" opacity="1" transform="translate(600.687724910036,0)"><line stroke="#000" y2="6" x1="0.5" x2="0.5"></line><text fill="#000" y="9" x="0.5" dy="0.71em">Oct 11</text></g><g class="tick" opacity="1" transform="translate(662.9628148740503,0)"><line stroke="#000" y2="6" x1="0.5" x2="0.5"></line><text fill="#000" y="9" x="0.5" dy="0.71em">Oct 18</text></g><g class="tick" opacity="1" transform="translate(725.2379048380647,0)"><line stroke="#000" y2="6" x1="0.5" x2="0.5"></line><text fill="#000" y="9" x="0.5" dy="0.71em">Oct 25</text></g><g class="tick" opacity="1" transform="translate(787.512994802079,0)"><line stroke="#000" y2="6" x1="0.5" x2="0.5"></line><text fill="#000" y="9" x="0.5" dy="0.71em">Nov  1</text></g><g class="tick" opacity="1" transform="translate(849.7880847660936,0)"><line stroke="#000" y2="6" x1="0.5" x2="0.5"></line><text fill="#000" y="9" x="0.5" dy="0.71em">Nov  8</text></g></g><g class="y axis" fill="none" font-size="10" font-family="sans-serif" text-anchor="end"><path class="domain" stroke="#000" d="M-6,200.5H0.5V0.5H-6"></path><g class="tick" opacity="1" transform="translate(0,179.95599197327795)"><line stroke="#000" x2="-6" y1="0.5" y2="0.5"></line><text fill="#000" x="-9" y="0.5" dy="0.32em">40,000</text></g><g class="tick" opacity="1" transform="translate(0,149.5922267789462)"><line stroke="#000" x2="-6" y1="0.5" y2="0.5"></line><text fill="#000" x="-9" y="0.5" dy="0.32em">45,000</text></g><g class="tick" opacity="1" transform="translate(0,119.22846158461448)"><line stroke="#000" x2="-6" y1="0.5" y2="0.5"></line><text fill="#000" x="-9" y="0.5" dy="0.32em">50,000</text></g><g class="tick" opacity="1" transform="translate(0,88.86469639028275)"><line stroke="#000" x2="-6" y1="0.5" y2="0.5"></line><text fill="#000" x="-9" y="0.5" dy="0.32em">55,000</text></g><g class="tick" opacity="1" transform="translate(0,58.50093119595098)"><line stroke="#000" x2="-6" y1="0.5" y2="0.5"></line><text fill="#000" x="-9" y="0.5" dy="0.32em">60,000</text></g><g class="tick" opacity="1" transform="translate(0,28.13716600161925)"><line stroke="#000" x2="-6" y1="0.5" y2="0.5"></line><text fill="#000" x="-9" y="0.5" dy="0.32em">65,000</text></g><text transform="rotate(-90)" y="6" dy=".71em" style="text-anchor: end;">Price ($)</text></g></g></svg>