<?xml version="1.0" encoding="utf-8"?>
<!DOCTYPE svg PUBLIC "-//W3C//DTD SVG 1.1//EN" "http://www.w3.org/Graphics/SVG/1.1/DTD/svg11.dtd">
<svg version="1.1" xmlns="http://www.w3.org/2000/svg" width="960" height="250"><g transform="translate(50,20)"><style>.axis path,.axis line{fill:none;stroke:#000;shape-rendering:crispEdges;}path.candle{stroke:#000000;}path.candle.body{stroke-width:0;}path.candle.up{fill:#00AA00;stroke:#00AA00;}path.candle.down{fill:#FF0000;stroke:#FF0000;}</style><g class="candlestick"><g class="data"><path class="candle body up" d="M 18.860455817672932 185.62121650140364 l 7.1171531387445 0 L 25.977608956417434 183.67423099295232 l -7.1171531387445 0 L 18.860455817672932 185.62121650140364 M 45.54978008796481 192.4463097425066 l 7.1171531387445 0 L 52.66693322670931 190.96025404610694 l -7.1171531387445 0 L 45.54978008796481 192.4463097425066 M 63.342662934826066 194.77026337894398 l 7.1171531387445 0 L 70.45981607357056 188.22706983930237 l -7.1171531387445 0 L 63.342662934826066 194.77026337894398 M 81.13554578168731 188.88487988375368 l 7.1171531387445 0 L 88.25269892043181 188.32914609142625 l -7.1171531387445 0 L 81.13554578168731 188.88487988375368 M 90.03198720511796 188.32927831455078 l 7.1171531387445 0 L 97.14914034386246 187.72554752802523 l -7.1171531387445 0 L 90.03198720511796 188.32927831455078 M 107.82487005197919 188.75873902296843 l 7.1171531387445 0 L 114.94202319072369 186.8498337743768 l -7.1171531387445 0 L 107.82487005197919 188.75873902296843 M 152.30707716913233 190.79550403296398 l 7.1171531387445 0 L 159.42423030787683 189.14853279403223 l -7.1171531387445 0 L 152.30707716913233 190.79550403296398 M 161.20351859256294 189.14866501715673 l 7.1171531387445 0 L 168.32067173130744 187.4880747964002 l -7.1171531387445 0 L 161.20351859256294 189.14866501715673 M 178.9964014394242 190.03416328201914 l 7.1171531387445 0 L 186.1135545781687 189.15170614902055 l -7.1171531387445 0 L 178.9964014394242 190.03416328201914 M 187.89284286285485 189.15157392589603 l 7.1171531387445 0 L 195.00999600159935 185.72474720789717 l -7.1171531387445 0 L 187.89284286285485 189.15157392589603 M 196.78928428628546 185.72646610851584 l 7.1171531387445 0 L 203.90643742502996 184.0710325896153 l -7.1171531387445 0 L 196.78928428628546 185.72646610851584 M 205.68572570971608 184.0710325896153 l 7.1171531387445 0 L 212.80287884846058 180.8635640351832 l -7.1171531387445 0 L 205.68572570971608 184.0710325896153 M 214.5821671331467 180.8635640351832 l 7.1171531387445 0 L 221.6993202718912 179.861312751376 l -7.1171531387445 0 L 214.5821671331467 180.8635640351832 M 223.47860855657734 179.861312751376 l 7.1171531387445 0 L 230.59576169532184 177.7559239397583 l -7.1171531387445 0 L 223.47860855657734 179.861312751376 M 250.16793282686922 179.21513834188184 l 7.1171531387445 0 L 257.28508596561375 178.06175602675646 l -7.1171531387445 0 L 250.16793282686922 179.21513834188184 M 267.9608156737305 180.51951946520083 l 7.1171531387445 0 L 275.07796881247504 179.9779335471963 l -7.1171531387445 0 L 267.9608156737305 180.51951946520083 M 276.85725709716115 179.97647909282668 l 7.1171531387445 0 L 283.9744102359057 178.08793620541002 l -7.1171531387445 0 L 276.85725709716115 179.97647909282668 M 285.7536985205918 178.08793620541002 l 7.1171531387445 0 L 292.8708516593363 174.80443935438308 l -7.1171531387445 0 L 285.7536985205918 178.08793620541002 M 294.65013994402244 174.80457157750757 l 7.1171531387445 0 L 301.76729308276697 172.70843838460576 l -7.1171531387445 0 L 294.65013994402244 174.80457157750757 M 303.54658136745303 172.70830616148126 l 7.1171531387445 0 L 310.66373450619756 161.19220090891235 l -7.1171531387445 0 L 303.54658136745303 172.70830616148126 M 312.4430227908837 161.1949775945271 l 7.1171531387445 0 L 319.5601759296282 158.71222398554983 l -7.1171531387445 0 L 312.4430227908837 161.1949775945271 M 330.23590563774496 159.31331030958512 l 7.1171531387445 0 L 337.3530587764895 156.81865661940168 l -7.1171531387445 0 L 330.23590563774496 159.31331030958512 M 348.02878848460614 157.90407624852745 l 7.1171531387445 0 L 355.14594162335067 157.605913102751 l -7.1171531387445 0 L 348.02878848460614 157.90407624852745 M 356.9252299080368 157.60644199524907 l 7.1171531387445 0 L 364.0423830467813 149.88434707745114 l -7.1171531387445 0 L 356.9252299080368 157.60644199524907 M 374.7181127548981 154.77356155256183 l 7.1171531387445 0 L 381.8352658936426 152.27057780553406 l -7.1171531387445 0 L 374.7181127548981 154.77356155256183 M 383.61455417832866 152.27071002865858 l 7.1171531387445 0 L 390.7317073170732 150.89016838562017 l -7.1171531387445 0 L 383.61455417832866 152.27071002865858 M 392.5109956017593 150.89016838562017 l 7.1171531387445 0 L 399.62814874050383 147.83713644061908 l -7.1171531387445 0 L 392.5109956017593 150.89016838562017 M 419.20031987205124 151.0286059969851 l 7.1171531387445 0 L 426.31747301079577 144.76255212632236 l -7.1171531387445 0 L 419.20031987205124 151.0286059969851 M 428.0967612954818 144.76255212632236 l 7.1171531387445 0 L 435.21391443422635 143.1695279221919 l -7.1171531387445 0 L 428.0967612954818 144.76255212632236 M 436.99320271891247 143.1695279221919 l 7.1171531387445 0 L 444.110355857657 124.04993189451304 l -7.1171531387445 0 L 436.99320271891247 143.1695279221919 M 463.68252698920435 134.2538548594167 l 7.1171531387445 0 L 470.7996801279489 125.56944004141441 l -7.1171531387445 0 L 463.68252698920435 134.2538548594167 M 490.3718512594962 127.92155720337306 l 7.1171531387445 0 L 497.48900439824075 122.80412561535321 l -7.1171531387445 0 L 490.3718512594962 127.92155720337306 M 499.2682926829268 122.80399339222869 l 7.1171531387445 0 L 506.38544582167134 114.76998412370499 l -7.1171531387445 0 L 499.2682926829268 122.80399339222869 M 508.16473410635746 114.77011634682951 l 7.1171531387445 0 L 515.281887245102 114.38865263261 l -7.1171531387445 0 L 508.16473410635746 114.77011634682951 M 534.8540583766493 119.19760767114143 l 7.1171531387445 0 L 541.9712115153937 109.1940027398747 l -7.1171531387445 0 L 534.8540583766493 119.19760767114143 M 543.75049980008 109.20048167297581 l 7.1171531387445 0 L 550.8676529388244 96.68820740032729 l -7.1171531387445 0 L 543.75049980008 109.20048167297581 M 552.6469412235106 96.68820740032729 l 7.1171531387445 0 L 559.764094362255 95.14463464476461 l -7.1171531387445 0 L 552.6469412235106 96.68820740032729 M 561.5433826469413 95.12308227546902 l 7.1171531387445 0 L 568.6605357856857 94.79159890231537 l -7.1171531387445 0 L 561.5433826469413 95.12308227546902 M 570.4398240703717 94.79173112543987 l 7.1171531387445 0 L 577.5569772091162 83.5149497282392 l -7.1171531387445 0 L 570.4398240703717 94.79173112543987 M 579.3362654938024 83.5150819513637 l 7.1171531387445 0 L 586.4534186325469 82.87855982995897 l -7.1171531387445 0 L 579.3362654938024 83.5150819513637 M 606.0255897640943 87.31848012797509 l 7.1171531387445 0 L 613.1427429028388 76.84640866655943 l -7.1171531387445 0 L 606.0255897640943 87.31848012797509 M 641.6113554578168 103.56182652812647 l 7.1171531387445 0 L 648.7285085965613 95.8886541663983 l -7.1171531387445 0 L 641.6113554578168 103.56182652812647 M 650.5077968812475 95.88878638952278 l 7.1171531387445 0 L 657.624950019992 89.73842775280876 l -7.1171531387445 0 L 650.5077968812475 95.88878638952278 M 659.4042383046781 89.73829552968427 l 7.1171531387445 0 L 666.5213914434225 69.76110031641525 l -7.1171531387445 0 L 659.4042383046781 89.73829552968427 M 677.1971211515394 82.06988320043853 l 7.1171531387445 0 L 684.3142742902838 76.26356913370688 l -7.1171531387445 0 L 677.1971211515394 82.06988320043853 M 686.09356257497 76.26370135683138 l 7.1171531387445 0 L 693.2107157137144 73.38361725869305 l -7.1171531387445 0 L 686.09356257497 76.26370135683138 M 703.8864454218311 83.58317686048781 l 7.1171531387445 0 L 711.0035985605756 77.00970422533275 l -7.1171531387445 0 L 703.8864454218311 83.58317686048781 M 712.7828868452618 77.00970422533275 l 7.1171531387445 0 L 719.9000399840063 74.2100117868982 l -7.1171531387445 0 L 712.7828868452618 77.00970422533275 M 739.4722111155537 87.89893964458635 l 7.1171531387445 0 L 746.5893642542982 85.02745004954137 l -7.1171531387445 0 L 739.4722111155537 87.89893964458635 M 766.1615353858456 91.70141225932618 l 7.1171531387445 0 L 773.27868852459 81.49167147694396 l -7.1171531387445 0 L 766.1615353858456 91.70141225932618 M 775.0579768092763 81.49167147694396 l 7.1171531387445 0 L 782.1751299480208 76.6483384260392 l -7.1171531387445 0 L 775.0579768092763 81.49167147694396 M 783.9544182327068 76.6483384260392 l 7.1171531387445 0 L 791.0715713714512 75.35056845894586 l -7.1171531387445 0 L 783.9544182327068 76.6483384260392 M 792.8508596561375 75.34329618709765 l 7.1171531387445 0 L 799.9680127948819 73.32372018328877 l -7.1171531387445 0 L 792.8508596561375 75.34329618709765 M 801.747301079568 73.32372018328877 l 7.1171531387445 0 L 808.8644542183125 48.08113570567005 l -7.1171531387445 0 L 801.747301079568 73.32372018328877 M 810.6437425029987 48.08113570567005 l 7.1171531387445 0 L 817.7608956417432 28.754874934377682 l -7.1171531387445 0 L 810.6437425029987 48.08113570567005 M 819.5401839264293 28.755007157502178 l 7.1171531387445 0 L 826.6573370651738 24.652916942616343 l -7.1171531387445 0 L 819.5401839264293 28.755007157502178 M 828.43662534986 24.652916942616343 l 7.1171531387445 0 L 835.5537784886045 15.209276943661422 l -7.1171531387445 0 L 828.43662534986 24.652916942616343 M 855.1259496201519 29.77669524061278 l 7.1171531387445 0 L 862.2431027588964 15.352342364384299 l -7.1171531387445 0 L 855.1259496201519 29.77669524061278 M 872.9188324670131 23.00012788620606 l 7.1171531387445 0 L 880.0359856057576 16.431150837284434 l -7.1171531387445 0 L 872.9188324670131 23.00012788620606 M 881.8152738904437 16.433927522899182 l 7.1171531387445 0 L 888.9324270291881 6.257639191018768 l -7.1171531387445 0 L 881.8152738904437 16.433927522899182"></path><path class="candle body down" d="M 1.0675729708116766 185.34870464178272 l 7.1171531387445 0 L 8.184726109556177 185.5340814623497 l -7.1171531387445 0 L 1.0675729708116766 185.34870464178272 M 9.964014394242305 185.53394923922517 l 7.1171531387445 0 L 17.081167532986804 185.62134872452816 l -7.1171531387445 0 L 9.964014394242305 185.53394923922517 M 27.75689724110356 183.6743632160768 l 7.1171531387445 0 L 34.87405037984806 185.79469324076445 l -7.1171531387445 0 L 27.75689724110356 183.6743632160768 M 36.65333866453418 185.79469324076445 l 7.1171531387445 0 L 43.77049180327868 192.4463097425066 l -7.1171531387445 0 L 36.65333866453418 185.79469324076445 M 54.446221511395436 190.96025404610694 l 7.1171531387445 0 L 61.563374650139934 194.77026337894398 l -7.1171531387445 0 L 54.446221511395436 190.96025404610694 M 72.23910435825668 188.22693761617785 l 7.1171531387445 0 L 79.35625749700118 188.88355765250853 l -7.1171531387445 0 L 72.23910435825668 188.22693761617785 M 98.92842862854857 187.7254153049007 l 7.1171531387445 0 L 106.04558176729307 188.7586067998439 l -7.1171531387445 0 L 98.92842862854857 187.7254153049007 M 116.72131147540982 186.84851154313168 l 7.1171531387445 0 L 123.83846461415432 187.69460731688923 l -7.1171531387445 0 L 116.72131147540982 186.84851154313168 M 125.61775289884046 187.69460731688923 l 7.1171531387445 0 L 132.73490603758498 189.77659263546815 l -7.1171531387445 0 L 125.61775289884046 187.69460731688923 M 134.51419432227107 189.77659263546815 l 7.1171531387445 0 L 141.63134746101557 190.42091592121915 l -7.1171531387445 0 L 134.51419432227107 189.77659263546815 M 143.4106357457017 190.42091592121915 l 7.1171531387445 0 L 150.5277888844462 190.7956362560885 l -7.1171531387445 0 L 143.4106357457017 190.42091592121915 M 170.09996001599356 187.4882070195247 l 7.1171531387445 0 L 177.21711315473806 190.0340310588946 l -7.1171531387445 0 L 170.09996001599356 187.4882070195247 M 232.37504998000796 177.75605616288283 l 7.1171531387445 0 L 239.49220311875246 179.17983476763692 l -7.1171531387445 0 L 232.37504998000796 177.75605616288283 M 241.2714914034386 179.1797025445124 l 7.1171531387445 0 L 248.3886445421831 179.21513834188184 l -7.1171531387445 0 L 241.2714914034386 179.1797025445124 M 259.06437425029986 178.06162380363196 l 7.1171531387445 0 L 266.1815273890444 180.51846168020475 l -7.1171531387445 0 L 259.06437425029986 178.06162380363196 M 321.3394642143143 158.7079928455654 l 7.1171531387445 0 L 328.45661735305885 159.3131780864606 l -7.1171531387445 0 L 321.3394642143143 158.7079928455654 M 339.13234706117555 156.81865661940168 l 7.1171531387445 0 L 346.2495001999201 157.91478632161298 l -7.1171531387445 0 L 339.13234706117555 156.81865661940168 M 365.8216713314674 149.88447930057566 l 7.1171531387445 0 L 372.93882447021196 154.77356155256183 l -7.1171531387445 0 L 365.8216713314674 149.88447930057566 M 401.40743702518995 147.83713644061908 l 7.1171531387445 0 L 408.5245901639345 148.2271946579319 l -7.1171531387445 0 L 401.40743702518995 147.83713644061908 M 410.3038784486206 148.22732688105643 l 7.1171531387445 0 L 417.4210315873651 151.03204379822245 l -7.1171531387445 0 L 410.3038784486206 148.22732688105643 M 445.8896441423431 124.04993189451304 l 7.1171531387445 0 L 453.00679728108764 124.183477250271 l -7.1171531387445 0 L 445.8896441423431 124.04993189451304 M 454.7860855657737 124.18334502714647 l 7.1171531387445 0 L 461.90323870451823 134.2538548594167 l -7.1171531387445 0 L 454.7860855657737 124.18334502714647 M 472.57896841263494 125.56944004141441 l 7.1171531387445 0 L 479.69612155137946 127.50902105489303 l -7.1171531387445 0 L 472.57896841263494 125.56944004141441 M 481.47540983606564 127.50902105489303 l 7.1171531387445 0 L 488.59256297481016 127.92155720337306 l -7.1171531387445 0 L 481.47540983606564 127.50902105489303 M 517.0611755297881 114.39737935882786 l 7.1171531387445 0 L 524.1783286685326 117.69753632354343 l -7.1171531387445 0 L 517.0611755297881 114.39737935882786 M 525.9576169532187 117.70930418162509 l 7.1171531387445 0 L 533.0747700919632 119.19760767114143 l -7.1171531387445 0 L 525.9576169532187 117.70930418162509 M 588.232706917233 82.87855982995897 l 7.1171531387445 0 L 595.3498600559775 86.70470038398655 l -7.1171531387445 0 L 588.232706917233 82.87855982995897 M 597.1291483406637 86.71197265583473 l 7.1171531387445 0 L 604.2463014794082 87.31861235109959 l -7.1171531387445 0 L 597.1291483406637 86.71197265583473 M 614.9220311875249 76.84654088968392 l 7.1171531387445 0 L 622.0391843262694 82.67612622632983 l -7.1171531387445 0 L 614.9220311875249 76.84654088968392 M 623.8184726109555 82.67982847381616 l 7.1171531387445 0 L 630.9356257497 103.4303967423607 l -7.1171531387445 0 L 623.8184726109555 82.67982847381616 M 632.7149140343862 103.4303967423607 l 7.1171531387445 0 L 639.8320671731307 103.56195875125097 l -7.1171531387445 0 L 632.7149140343862 103.4303967423607 M 668.3006797281087 69.76110031641525 l 7.1171531387445 0 L 675.4178328668531 82.06988320043853 l -7.1171531387445 0 L 668.3006797281087 69.76110031641525 M 694.9900039984005 73.37779944121449 l 7.1171531387445 0 L 702.107157137145 83.58304463736329 l -7.1171531387445 0 L 694.9900039984005 73.37779944121449 M 721.6793282686924 74.21966407498768 l 7.1171531387445 0 L 728.7964814074369 76.75530693377006 l -7.1171531387445 0 L 721.6793282686924 74.21966407498768 M 730.5757696921231 76.75530693377006 l 7.1171531387445 0 L 737.6929228308676 87.89893964458635 l -7.1171531387445 0 L 730.5757696921231 76.75530693377006 M 748.3686525389844 85.02731782641683 l 7.1171531387445 0 L 755.4858056777289 88.81762591370146 l -7.1171531387445 0 L 748.3686525389844 85.02731782641683 M 757.265093962415 88.81524589746022 l 7.1171531387445 0 L 764.3822471011595 91.70141225932618 l -7.1171531387445 0 L 757.265093962415 88.81524589746022 M 837.3330667732906 15.209409166785974 l 7.1171531387445 0 L 844.4502199120351 20.049833308951406 l -7.1171531387445 0 L 837.3330667732906 15.209409166785974 M 846.2295081967213 20.04956886270236 l 7.1171531387445 0 L 853.3466613354658 29.77894303372949 l -7.1171531387445 0 L 846.2295081967213 20.04956886270236 M 864.0223910435824 15.352342364384299 l 7.1171531387445 0 L 871.1395441823269 22.995235630599097 l -7.1171531387445 0 L 864.0223910435824 15.352342364384299"></path><path class="candle body equal"></path><path class="candle wick up" d="M 22.41903238704518 182.36337093653216 L 22.41903238704518 183.67423099295232 M 22.41903238704518 185.62121650140364 L 22.41903238704518 186.22983954353614 M 49.10835665733706 190.3903723794567 L 49.10835665733706 190.96025404610694 M 49.10835665733706 192.4463097425066 L 49.10835665733706 193.29544664812792 M 66.90123950419832 187.44801118967283 L 66.90123950419832 188.22706983930237 M 66.90123950419832 194.77026337894398 L 66.90123950419832 195.43838682710728 M 84.69412235105956 187.10819775967485 L 84.69412235105956 188.32914609142625 M 84.69412235105956 188.88487988375368 L 84.69412235105956 189.4387625523379 M 93.5905637744902 187.39829529485598 L 93.5905637744902 187.72554752802523 M 93.5905637744902 188.32927831455078 L 93.5905637744902 190.09802705115882 M 111.38344662135144 186.49203799944507 L 111.38344662135144 186.8498337743768 M 111.38344662135144 188.75873902296843 L 111.38344662135144 189.55525112503366 M 155.8656537385046 188.74869006550546 L 155.8656537385046 189.14853279403223 M 155.8656537385046 190.79550403296398 L 155.8656537385046 191.115483994285 M 164.7620951619352 187.41151760730727 L 164.7620951619352 187.4880747964002 M 164.7620951619352 189.14866501715673 L 164.7620951619352 189.82273850592313 M 182.55497800879647 188.94702475227467 L 182.55497800879647 189.15170614902055 M 182.55497800879647 190.03416328201914 L 182.55497800879647 190.74129255191372 M 191.4514194322271 185.40172611471235 L 191.4514194322271 185.72474720789717 M 191.4514194322271 189.15157392589603 L 191.4514194322271 190.94967619614593 M 200.34786085565773 183.35702771724604 L 200.34786085565773 184.0710325896153 M 200.34786085565773 185.72646610851584 L 200.34786085565773 187.00162592131753 M 209.24430227908834 178.24845507856858 L 209.24430227908834 180.8635640351832 M 209.24430227908834 184.0710325896153 L 209.24430227908834 184.07275149023394 M 218.14074370251896 178.85668145132757 L 218.14074370251896 179.861312751376 M 218.14074370251896 180.8635640351832 L 218.14074370251896 181.81847944041482 M 227.0371851259496 175.2204133041004 L 227.0371851259496 177.7559239397583 M 227.0371851259496 179.861312751376 L 227.0371851259496 182.46637275052765 M 253.72650939624148 176.57794812347356 L 253.72650939624148 178.06175602675646 M 253.72650939624148 179.21513834188184 L 253.72650939624148 181.42405785999307 M 271.51939224310274 179.41968751550317 L 271.51939224310274 179.9779335471963 M 271.51939224310274 180.51951946520083 L 271.51939224310274 181.36892081707123 M 280.4158336665334 178.06334270425063 L 280.4158336665334 178.08793620541002 M 280.4158336665334 179.97647909282668 L 280.4158336665334 180.16278147526526 M 289.31227508996403 173.84555725541605 L 289.31227508996403 174.80443935438308 M 289.31227508996403 178.08793620541002 L 289.31227508996403 179.34643590452308 M 298.2087165133947 171.01082568898562 L 298.2087165133947 172.70843838460576 M 298.2087165133947 174.80457157750757 L 298.2087165133947 175.7813037982838 M 307.10515793682526 155.4177526151883 L 307.10515793682526 161.19220090891235 M 307.10515793682526 172.70830616148126 L 307.10515793682526 173.0130804634833 M 316.0015993602559 155.8498577860962 L 316.0015993602559 158.71222398554983 M 316.0015993602559 161.1949775945271 L 316.0015993602559 162.55251241390027 M 333.7944822071172 156.09142943458113 L 333.7944822071172 156.81865661940168 M 333.7944822071172 159.31331030958512 L 333.7944822071172 160.01488620825018 M 351.5873650539784 155.1383651530927 L 351.5873650539784 157.605913102751 M 351.5873650539784 157.90407624852745 L 351.5873650539784 161.4032290156348 M 360.483806477409 147.85974659491075 L 360.483806477409 149.88434707745114 M 360.483806477409 157.60644199524907 L 360.483806477409 158.03325824117644 M 378.2766893242703 149.7952286915295 L 378.2766893242703 152.27057780553406 M 378.2766893242703 154.77356155256183 L 378.2766893242703 159.34358940509856 M 387.1731307477009 149.43730069347328 L 387.1731307477009 150.89016838562017 M 387.1731307477009 152.27071002865858 L 387.1731307477009 156.77541965768597 M 396.06957217113154 143.75144189317282 L 396.06957217113154 147.83713644061908 M 396.06957217113154 150.89016838562017 L 396.06957217113154 152.85500401588075 M 422.7588964414235 144.1995460621468 L 422.7588964414235 144.76255212632236 M 422.7588964414235 151.0286059969851 L 422.7588964414235 154.52775876409248 M 431.65533786485406 141.64909421341892 L 431.65533786485406 143.1695279221919 M 431.65533786485406 144.76255212632236 L 431.65533786485406 151.35427155266018 M 440.5517792882847 121.93462634855688 L 440.5517792882847 124.04993189451304 M 440.5517792882847 143.1695279221919 L 440.5517792882847 143.83659358535908 M 467.2411035585766 123.25685759368513 L 467.2411035585766 125.56944004141441 M 467.2411035585766 134.2538548594167 L 467.2411035585766 135.76675185009242 M 493.93042782886846 119.09182917153116 L 493.93042782886846 122.80412561535321 M 493.93042782886846 127.92155720337306 L 493.93042782886846 128.24590052780297 M 502.82686925229905 114.12420638358437 L 502.82686925229905 114.76998412370499 M 502.82686925229905 122.80399339222869 L 502.82686925229905 126.02508092848561 M 511.7233106757297 112.28233825912073 L 511.7233106757297 114.38865263261 M 511.7233106757297 114.77011634682951 L 511.7233106757297 119.25909142403988 M 538.4126349460215 106.99341327860778 L 538.4126349460215 109.1940027398747 M 538.4126349460215 119.19760767114143 L 538.4126349460215 120.42728272911069 M 547.3090763694522 94.05114940504356 L 547.3090763694522 96.68820740032729 M 547.3090763694522 109.20048167297581 L 547.3090763694522 111.51544413694636 M 556.2055177928828 85.87830585578138 L 556.2055177928828 95.14463464476461 M 556.2055177928828 96.68820740032729 L 556.2055177928828 102.57121087927638 M 565.1019592163135 89.80705155443094 L 565.1019592163135 94.79159890231537 M 565.1019592163135 95.12308227546902 L 565.1019592163135 100.96866661018093 M 573.998400639744 81.40532977663706 L 573.998400639744 83.5149497282392 M 573.998400639744 94.79173112543987 L 573.998400639744 95.62169567800687 M 582.8948420631747 79.41299173647782 L 582.8948420631747 82.87855982995897 M 582.8948420631747 83.5150819513637 L 582.8948420631747 88.10428215695477 M 609.5841663334666 73.42235863417532 L 609.5841663334666 76.84640866655943 M 609.5841663334666 87.31848012797509 L 609.5841663334666 91.94642170904841 M 645.169932027189 93.76462189422423 L 645.169932027189 95.8886541663983 M 645.169932027189 103.56182652812647 L 645.169932027189 107.18434347040427 M 654.0663734506197 87.42372973508729 L 654.0663734506197 89.73842775280876 M 654.0663734506197 95.88878638952278 L 654.0663734506197 98.5708002471409 M 662.9628148740503 67.5491396664402 L 662.9628148740503 69.76110031641525 M 662.9628148740503 89.73829552968427 L 662.9628148740503 89.73842775280876 M 680.7556977209116 74.44008002355054 L 680.7556977209116 76.26356913370688 M 680.7556977209116 82.06988320043853 L 680.7556977209116 87.82106022424831 M 689.6521391443422 71.05516803602225 L 689.6521391443422 73.38361725869305 M 689.6521391443422 76.26370135683138 L 689.6521391443422 80.71803397541942 M 707.4450219912034 76.62176157801213 L 707.4450219912034 77.00970422533275 M 707.4450219912034 83.58317686048781 L 707.4450219912034 85.5732671075303 M 716.3414634146341 73.4087396523505 L 716.3414634146341 74.2100117868982 M 716.3414634146341 77.00970422533275 L 716.3414634146341 80.85290156242249 M 743.0307876849259 83.72782895870483 L 743.0307876849259 85.02745004954137 M 743.0307876849259 87.89893964458635 L 743.0307876849259 96.81223269112034 M 769.7201119552178 79.64094440313796 L 769.7201119552178 81.49167147694396 M 769.7201119552178 91.70141225932618 L 769.7201119552178 91.91072146542996 M 778.6165533786485 73.52774046441206 L 778.6165533786485 76.6483384260392 M 778.6165533786485 81.49167147694396 L 778.6165533786485 82.78177250281557 M 787.512994802079 74.34752383639156 L 787.512994802079 75.35056845894586 M 787.512994802079 76.6483384260392 L 787.512994802079 78.96211088188912 M 796.4094362255097 71.42539278465816 L 796.4094362255097 73.32372018328877 M 796.4094362255097 75.34329618709765 L 796.4094362255097 78.30099525932499 M 805.3058776489403 45.112991006606194 L 805.3058776489403 48.08113570567005 M 805.3058776489403 73.32372018328877 L 805.3058776489403 75.27837463296186 M 814.202319072371 15.495011115733632 L 814.202319072371 28.754874934377682 M 814.202319072371 48.08113570567005 L 814.202319072371 49.476354115529375 M 823.0987604958016 22.30212201190284 L 823.0987604958016 24.652916942616343 M 823.0987604958016 28.755007157502178 L 823.0987604958016 34.667364170093094 M 831.9952019192323 10.583318709455767 L 831.9952019192323 15.209276943661422 M 831.9952019192323 24.652916942616343 L 831.9952019192323 29.37843918958015 M 858.6845261895241 15.004463323791072 L 858.6845261895241 15.352342364384299 M 858.6845261895241 29.77669524061278 L 858.6845261895241 34.62240830775875 M 876.4774090363853 15.568659396087298 L 876.4774090363853 16.431150837284434 M 876.4774090363853 23.00012788620606 L 876.4774090363853 29.994334503560907 M 885.3738504598159 3.846153846153868 L 885.3738504598159 6.257639191018768 M 885.3738504598159 16.433927522899182 L 885.3738504598159 20.339666397883548" style="stroke-width: 1px;"></path><path class="candle wick down" d="M 4.626149540183927 184.13952416811293 L 4.626149540183927 185.34870464178272 M 4.626149540183927 185.5340814623497 L 4.626149540183927 188.10132564789066 M 13.522590963614554 184.23776594962595 L 13.522590963614554 185.53394923922517 M 13.522590963614554 185.62134872452816 L 13.522590963614554 187.21529849053024 M 31.315473810475808 183.6743632160768 L 31.315473810475808 183.6743632160768 M 31.315473810475808 185.79469324076445 L 31.315473810475808 188.40319104115343 M 40.21191523390643 184.8879070528555 L 40.21191523390643 185.79469324076445 M 40.21191523390643 192.4463097425066 L 40.21191523390643 194.04449064849308 M 58.004798080767685 190.8605578102243 L 58.004798080767685 190.96025404610694 M 58.004798080767685 194.77026337894398 L 58.004798080767685 196.15384615384616 M 75.79768092762893 187.90695765485683 L 75.79768092762893 188.22693761617785 M 75.79768092762893 188.88355765250853 L 75.79768092762893 190.6081438655293 M 102.48700519792082 185.40172611471235 L 102.48700519792082 187.7254153049007 M 102.48700519792082 188.7586067998439 L 102.48700519792082 189.68575534892784 M 120.27988804478207 186.73268408605844 L 120.27988804478207 186.84851154313168 M 120.27988804478207 187.69460731688923 L 120.27988804478207 189.16836626270918 M 129.1763294682127 185.79839548825083 L 129.1763294682127 187.69460731688923 M 129.1763294682127 189.77659263546815 L 129.1763294682127 192.1847724022202 M 138.07277089164333 189.1748451958103 L 138.07277089164333 189.77659263546815 M 138.07277089164333 190.42091592121915 L 138.07277089164333 193.017778086651 M 146.96921231507397 189.98246404033463 L 146.96921231507397 190.42091592121915 M 146.96921231507397 190.7956362560885 L 146.96921231507397 191.398573703867 M 173.65853658536582 187.3850729824047 L 173.65853658536582 187.4882070195247 M 173.65853658536582 190.0340310588946 L 173.65853658536582 191.02120890650735 M 235.93362654938022 177.37578245678395 L 235.93362654938022 177.75605616288283 M 235.93362654938022 179.17983476763692 L 235.93362654938022 180.77391675676353 M 244.83006797281087 177.4950477150945 L 244.83006797281087 179.1797025445124 M 244.83006797281087 179.21513834188184 L 244.83006797281087 181.03836300578917 M 262.6229508196721 177.58535610913677 L 262.6229508196721 178.06162380363196 M 262.6229508196721 180.51846168020475 L 262.6229508196721 182.09614800189175 M 324.89804078368655 157.92985975780744 L 324.89804078368655 158.7079928455654 M 324.89804078368655 159.3131780864606 L 324.89804078368655 161.99717529094642 M 342.6909236305478 153.66817623163462 L 342.6909236305478 156.81865661940168 M 342.6909236305478 157.91478632161298 L 342.6909236305478 159.77688458412706 M 369.38024790083966 146.93167248395525 L 369.38024790083966 149.88447930057566 M 369.38024790083966 154.77356155256183 L 369.38024790083966 159.77688458412706 M 404.9660135945622 146.46201594568572 L 404.9660135945622 147.83713644061908 M 404.9660135945622 148.2271946579319 L 404.9660135945622 150.32293118146018 M 413.86245501799283 147.32146625501906 L 413.86245501799283 148.22732688105643 M 413.86245501799283 151.03204379822245 L 413.86245501799283 155.71697354596083 M 449.44822071171535 119.15794073378758 L 449.44822071171535 124.04993189451304 M 449.44822071171535 124.183477250271 L 449.44822071171535 129.6564568201058 M 458.34466213514594 121.88808380872835 L 458.34466213514594 124.18334502714647 M 458.34466213514594 134.2538548594167 L 458.34466213514594 140.52228874632064 M 476.13754498200717 120.74461822794146 L 476.13754498200717 125.56944004141441 M 476.13754498200717 127.50902105489303 L 476.13754498200717 134.42257156629503 M 485.0339864054379 125.76909695942877 L 485.0339864054379 127.50902105489303 M 485.0339864054379 127.92155720337306 L 485.0339864054379 130.89327192679877 M 520.6197520991603 114.30548428729146 L 520.6197520991603 114.39737935882786 M 520.6197520991603 117.69753632354343 L 520.6197520991603 122.99241134465947 M 529.5161935225909 116.24903199450544 L 529.5161935225909 117.70930418162509 M 529.5161935225909 119.19760767114143 L 529.5161935225909 121.60777078476119 M 591.7912834866053 82.26768899470972 L 591.7912834866053 82.87855982995897 M 591.7912834866053 86.70470038398655 L 591.7912834866053 97.32975400046354 M 600.687724910036 82.0561319954892 L 600.687724910036 86.71197265583473 M 600.687724910036 87.31861235109959 L 600.687724910036 92.1844233331715 M 618.4806077568971 72.55973496985368 L 618.4806077568971 76.84654088968392 M 618.4806077568971 82.67612622632983 L 618.4806077568971 85.56969708316846 M 627.3770491803277 80.0856107708746 L 627.3770491803277 82.67982847381616 M 627.3770491803277 103.4303967423607 L 627.3770491803277 116.14325349489519 M 636.2734906037584 99.35594116049806 L 636.2734906037584 103.4303967423607 M 636.2734906037584 103.56195875125097 L 636.2734906037584 112.83661759707847 M 671.8592562974809 67.22069742515035 L 671.8592562974809 69.76110031641525 M 671.8592562974809 82.06988320043853 L 671.8592562974809 92.16961434322609 M 698.5485805677728 71.99395222006328 L 698.5485805677728 73.37779944121449 M 698.5485805677728 83.58304463736329 L 698.5485805677728 84.70971788133703 M 725.2379048380647 73.39670734801985 L 725.2379048380647 74.21966407498768 M 725.2379048380647 76.75530693377006 L 725.2379048380647 80.24626186715764 M 734.1343462614954 75.063644278753 L 734.1343462614954 76.75530693377006 M 734.1343462614954 87.89893964458635 L 734.1343462614954 89.53996084291502 M 751.9272291083566 84.8153641578228 L 751.9272291083566 85.02731782641683 M 751.9272291083566 88.81762591370146 L 751.9272291083566 93.35962246384149 M 760.8236705317872 88.31385580930761 L 760.8236705317872 88.81524589746022 M 760.8236705317872 91.70141225932618 L 760.8236705317872 97.83920969921142 M 840.8916433426629 8.94996645234886 L 840.8916433426629 15.209409166785974 M 840.8916433426629 20.049833308951406 L 840.8916433426629 25.279522329682607 M 849.7880847660936 11.491691574858862 L 849.7880847660936 20.04956886270236 M 849.7880847660936 29.77894303372949 L 849.7880847660936 41.74130133152917 M 867.5809676129546 11.52831738034891 L 867.5809676129546 15.352342364384299 M 867.5809676129546 22.995235630599097 L 867.5809676129546 31.361786057272525" style="stroke-width: 1px;"></path><path class="candle wick equal" style="stroke-width: 1px;"></path></g></g><g class="x axis" transform="translate(0,200)" fill="none" font-size="10" font-family="sans-serif" text-anchor="middle"><path class="domain" stroke="#000" d="M0.5,6V0.5H890.5V6"></path><g class="tick" opacity="1" transform="translate(40.21191523390643,0)"><line stroke="#000" y2="6" x1="0.5" x2="0.5"></line><text fill="#000" y="9" x="0.5" dy="0.71em">Sep 21</text></g><g class="tick" opacity="1" transform="translate(102.48700519792082,0)"><line stroke="#000" y2="6" x1="0.5" x2="0.5"></line><text fill="#000" y="9" x="0.5" dy="0.71em">Sep 28</text></g><g class="tick" opacity="1" transform="translate(164.7620951619352,0)"><line stroke="#000" y2="6" x1="0.5" x2="0.5"></line><text fill="#000" y="9" x="0.5" dy="0.71em">Oct  5</text></g><g class="tick" opacity="1" transform="translate(227.0371851259496,0)"><line stroke="#000" y2="6" x1="0.5" x2="0.5"></line><text fill="#000" y="9" x="0.5" dy="0.71em">Oct 12</text></g><g class="tick" opacity="1" transform="translate(289.31227508996403,0)"><line stroke="#000" y2="6" x1="0.5" x2="0.5"></line><text fill="#000" y="9" x="0.5" dy="0.71em">Oct 19</text></g><g class="tick" opacity="1" transform="translate(351.5873650539784,0)"><line stroke="#000" y2="6" x1="0.5" x2="0.5"></line><text fill="#000" y="9" x="0.5" dy="0.71em">Oct 26</text></g><g class="tick" opacity="1" transform="translate(413.86245501799283,0)"><line stroke="#000" y2="6" x1="0.5" x2="0.5"></line><text fill="#000" y="9" x="0.5" dy="0.71em">Nov  2</text></g><g class="tick" opacity="1" transform="translate(476.13754498200717,0)"><line stroke="#000" y2="6" x1="0.5" x2="0.5"></line><text fill="#000" y="9" x="0.5" dy="0.71em">Nov  9</text></g><g class="tick" opacity="1" transform="translate(538.4126349460215,0)"><line stroke="#000" y2="6" x1="0.5" x2="0.5"></line><text fill="#000" y="9" x="0.5" dy="0.71em">Nov 16</text></g><g class="tick" opacity="1" transform="translate(600.687724910036,0)"><line stroke="#000" y2="6" x1="0.5" x2="0.5"></line><text fill="#000" y="9" x="0.5" dy="0.71em">Nov 23</text></g><g class="tick" opacity="1" transform="translate(662.9628148740503,0)"><line stroke="#000" y2="6" x1="0.5" x2="0.5"></line><text fill="#000" y="9" x="0.5" dy="0.71em">Nov 30</text></g><g class="tick" opacity="1" transform="translate(725.2379048380647,0)"><line stroke="#000" y2="6" x1="0.5" x2="0.5"></line><text fill="#000" y="9" x="0.5" dy="0.71em">Dec  7</text></g><g class="tick" opacity="1" transform="translate(787.512994802079,0)"><line stroke="#000" y2="6" x1="0.5" x2="0.5"></line><text fill="#000" y="9" x="0.5" dy="0.71em">Dec 14</text></g><g class="tick" opacity="1" transform="translate(849.7880847660936,0)"><line stroke="#000" y2="6" x1="0.5" x2="0.5"></line><text fill="#000" y="9" x="0.5" dy="0.71em">Dec 21</text></g></g><g class="y axis" fill="none" font-size="10" font-family="sans-serif" text-anchor="end"><path class="domain" stroke="#000" d="M-6,200.5H0.5V0.5H-6"></path><g class="tick" opacity="1" transform="translate(0,197.9629229434306)"><line stroke="#000" x2="-6" y1="0.5" y2="0.5"></line><text fill="#000" x="-9" y="0.5" dy="0.32em">10,000</text></g><g class="tick" opacity="1" transform="translate(0,171.51829804086583)"><line stroke="#000" x2="-6" y1="0.5" y2="0.5"></line><text fill="#000" x="-9" y="0.5" dy="0.32em">12,000</text></g><g class="tick" opacity="1" transform="translate(0,145.07367313830105)"><line stroke="#000" x2="-6" y1="0.5" y2="0.5"></line><text fill="#000" x="-9" y="0.5" dy="0.32em">14,000</text></g><g class="tick" opacity="1" transform="translate(0,118.62904823573628)"><line stroke="#000" x2="-6" y1="0.5" y2="0.5"></line><text fill="#000" x="-9" y="0.5" dy="0.32em">16,000</text></g><g class="tick" opacity="1" transform="translate(0,92.1844233331715)"><line stroke="#000" x2="-6" y1="0.5" y2="0.5"></line><text fill="#000" x="-9" y="0.5" dy="0.32em">18,000</text></g><g class="tick" opacity="1" transform="translate(0,65.73979843060673)"><line stroke="#000" x2="-6" y1="0.5" y2="0.5"></line><text fill="#000" x="-9" y="0.5" dy="0.32em">20,000</text></g><g class="tick" opacity="1" transform="translate(0,39.29517352804194)"><line stroke="#000" x2="-6" y1="0.5" y2="0.5"></line><text fill="#000" x="-9" y="0.5" dy="0.32em">22,000</text></g><g class="tick" opacity="1" transform="translate(0,12.85054862547716)"><line stroke="#000" x2="-6" y1="0.5" y2="0.5"></line><text fill="#000" x="-9" y="0.5" dy="0.32em">24,000</text></g><text transform="rotate(-90)" y="6" dy=".71em" style="text-anchor: end;">Price ($)</text></g></g></svg>