<?xml version="1.0" encoding="utf-8"?>
<!DOCTYPE svg PUBLIC "-//W3C//DTD SVG 1.1//EN" "http://www.w3.org/Graphics/SVG/1.1/DTD/svg11.dtd">
<svg version="1.1" xmlns="http://www.w3.org/2000/svg" width="960" height="250"><g transform="translate(50,20)"><style>.axis path,.axis line{fill:none;stroke:#000;shape-rendering:crispEdges;}path.candle{stroke:#000000;}path.candle.body{stroke-width:0;}path.candle.up{fill:#00AA00;stroke:#00AA00;}path.candle.down{fill:#FF0000;stroke:#FF0000;}</style><g class="candlestick"><g class="data"><path class="candle body up" d="M 27.75689724110356 78.83142679652086 l 7.1171531387445 0 L 34.87405037984806 75.27315881480958 l -7.1171531387445 0 L 27.75689724110356 78.83142679652086 M 54.446221511395436 111.23609289907594 l 7.1171531387445 0 L 61.563374650139934 65.15557257878723 l -7.1171531387445 0 L 54.446221511395436 111.23609289907594 M 63.342662934826066 65.1050891428911 l 7.1171531387445 0 L 70.45981607357056 40.98649193535252 l -7.1171531387445 0 L 63.342662934826066 65.1050891428911 M 134.51419432227107 74.11339687080864 l 7.1171531387445 0 L 141.63134746101557 55.38539923495341 l -7.1171531387445 0 L 134.51419432227107 74.11339687080864 M 152.30707716913233 65.10780330611138 l 7.1171531387445 0 L 159.42423030787683 59.13175872782611 l -7.1171531387445 0 L 152.30707716913233 65.10780330611138 M 161.20351859256294 59.13175872782611 l 7.1171531387445 0 L 168.32067173130744 41.8802658837717 l -7.1171531387445 0 L 161.20351859256294 59.13175872782611 M 178.9964014394242 59.75791618273135 l 7.1171531387445 0 L 186.1135545781687 37.97051376504163 l -7.1171531387445 0 L 178.9964014394242 59.75791618273135 M 196.78928428628546 38.53940237600017 l 7.1171531387445 0 L 203.90643742502996 25.76682167795647 l -7.1171531387445 0 L 196.78928428628546 38.53940237600017 M 205.68572570971608 25.82056210971686 l 7.1171531387445 0 L 212.80287884846058 24.743582143932684 l -7.1171531387445 0 L 205.68572570971608 25.82056210971686 M 267.9608156737305 122.64317808102582 l 7.1171531387445 0 L 275.07796881247504 114.34652394945056 l -7.1171531387445 0 L 267.9608156737305 122.64317808102582 M 276.85725709716115 114.34652394945056 l 7.1171531387445 0 L 283.9744102359057 104.15375539222805 l -7.1171531387445 0 L 276.85725709716115 114.34652394945056 M 294.65013994402244 107.27124326697529 l 7.1171531387445 0 L 301.76729308276697 103.78707194117607 l -7.1171531387445 0 L 294.65013994402244 107.27124326697529 M 312.4430227908837 108.15877463998798 l 7.1171531387445 0 L 319.5601759296282 102.97499430568553 l -7.1171531387445 0 L 312.4430227908837 108.15877463998798 M 348.02878848460614 157.35135450858337 l 7.1171531387445 0 L 355.14594162335067 137.53470600509698 l -7.1171531387445 0 L 348.02878848460614 157.35135450858337 M 365.8216713314674 150.36455554708738 l 7.1171531387445 0 L 372.93882447021196 143.93226013148274 l -7.1171531387445 0 L 365.8216713314674 150.36455554708738 M 374.7181127548981 143.9751439103623 l 7.1171531387445 0 L 381.8352658936426 141.72184560493378 l -7.1171531387445 0 L 374.7181127548981 143.9751439103623 M 401.40743702518995 149.83746504972018 l 7.1171531387445 0 L 408.5245901639345 145.28174208457725 l -7.1171531387445 0 L 401.40743702518995 149.83746504972018 M 428.0967612954818 178.11470314328326 l 7.1171531387445 0 L 435.21391443422635 164.48336120236127 l -7.1171531387445 0 L 428.0967612954818 178.11470314328326 M 436.99320271891247 164.48308978603927 l 7.1171531387445 0 L 444.110355857657 163.7524370471554 l -7.1171531387445 0 L 436.99320271891247 164.48308978603927 M 445.8896441423431 163.7315379903597 l 7.1171531387445 0 L 453.00679728108764 108.37427919967358 l -7.1171531387445 0 L 445.8896441423431 163.7315379903597 M 454.7860855657737 108.33329533504826 l 7.1171531387445 0 L 461.90323870451823 100.55124655002712 l -7.1171531387445 0 L 454.7860855657737 108.33329533504826 M 463.68252698920435 100.58191659441566 l 7.1171531387445 0 L 470.7996801279489 95.70565095296443 l -7.1171531387445 0 L 463.68252698920435 100.58191659441566 M 472.57896841263494 95.70565095296443 l 7.1171531387445 0 L 479.69612155137946 80.2655906420863 l -7.1171531387445 0 L 472.57896841263494 95.70565095296443 M 490.3718512594962 140.57755439128812 l 7.1171531387445 0 L 497.48900439824075 139.13660513767215 l -7.1171531387445 0 L 490.3718512594962 140.57755439128812 M 508.16473410635746 153.3813479663643 l 7.1171531387445 0 L 515.281887245102 150.628643628415 l -7.1171531387445 0 L 508.16473410635746 153.3813479663643 M 517.0611755297881 150.628643628415 l 7.1171531387445 0 L 524.1783286685326 142.20605232342143 l -7.1171531387445 0 L 517.0611755297881 150.628643628415 M 534.8540583766493 161.10124241364235 l 7.1171531387445 0 L 541.9712115153937 157.85591745122267 l -7.1171531387445 0 L 534.8540583766493 161.10124241364235 M 561.5433826469413 187.05108554586488 l 7.1171531387445 0 L 568.6605357856857 161.5306230350815 l -7.1171531387445 0 L 561.5433826469413 187.05108554586488 M 597.1291483406637 177.6120401148981 l 7.1171531387445 0 L 604.2463014794082 166.24811012814976 l -7.1171531387445 0 L 597.1291483406637 177.6120401148981 M 614.9220311875249 170.3117553014665 l 7.1171531387445 0 L 622.0391843262694 161.22690817073868 l -7.1171531387445 0 L 614.9220311875249 170.3117553014665 M 623.8184726109555 161.22690817073868 l 7.1171531387445 0 L 630.9356257497 156.37696991252363 l -7.1171531387445 0 L 623.8184726109555 161.22690817073868 M 659.4042383046781 170.86435893310363 l 7.1171531387445 0 L 666.5213914434225 155.35725879068607 l -7.1171531387445 0 L 659.4042383046781 170.86435893310363 M 668.3006797281087 155.35725879068607 l 7.1171531387445 0 L 675.4178328668531 136.12089838368323 l -7.1171531387445 0 L 668.3006797281087 155.35725879068607 M 712.7828868452618 161.12648413159042 l 7.1171531387445 0 L 719.9000399840063 160.51579740704042 l -7.1171531387445 0 L 712.7828868452618 161.12648413159042 M 739.4722111155537 170.80301884432666 l 7.1171531387445 0 L 746.5893642542982 168.21017872004842 l -7.1171531387445 0 L 739.4722111155537 170.80301884432666 M 748.3686525389844 168.2218496218954 l 7.1171531387445 0 L 755.4858056777289 162.2498762884404 l -7.1171531387445 0 L 748.3686525389844 168.2218496218954 M 775.0579768092763 170.57502913382797 l 7.1171531387445 0 L 782.1751299480208 165.29381033991962 l -7.1171531387445 0 L 775.0579768092763 170.57502913382797 M 783.9544182327068 165.29381033991962 l 7.1171531387445 0 L 791.0715713714512 157.50741889374615 l -7.1171531387445 0 L 783.9544182327068 165.29381033991962 M 819.5401839264293 171.2937395545429 l 7.1171531387445 0 L 826.6573370651738 167.97024669138077 l -7.1171531387445 0 L 819.5401839264293 171.2937395545429 M 828.43662534986 167.97024669138077 l 7.1171531387445 0 L 835.5537784886045 166.88512423593593 l -7.1171531387445 0 L 828.43662534986 167.97024669138077 M 837.3330667732906 166.886752733868 l 7.1171531387445 0 L 844.4502199120351 156.94992976831247 l -7.1171531387445 0 L 837.3330667732906 166.886752733868 M 855.1259496201519 163.4584931704054 l 7.1171531387445 0 L 862.2431027588964 143.11665408380597 l -7.1171531387445 0 L 855.1259496201519 163.4584931704054 M 864.0223910435824 143.1451527976183 l 7.1171531387445 0 L 871.1395441823269 124.34767258332535 l -7.1171531387445 0 L 864.0223910435824 143.1451527976183 M 881.8152738904437 137.28011749504012 l 7.1171531387445 0 L 888.9324270291881 128.11357405138367 l -7.1171531387445 0 L 881.8152738904437 137.28011749504012"></path><path class="candle body down" d="M 1.0675729708116766 57.80426149681543 l 7.1171531387445 0 L 8.184726109556177 59.73430296271545 l -7.1171531387445 0 L 1.0675729708116766 57.80426149681543 M 9.964014394242305 59.73430296271545 l 7.1171531387445 0 L 17.081167532986804 72.41921618874589 l -7.1171531387445 0 L 9.964014394242305 59.73430296271545 M 18.860455817672932 72.41921618874589 l 7.1171531387445 0 L 25.977608956417434 78.7638441323374 l -7.1171531387445 0 L 18.860455817672932 72.41921618874589 M 36.65333866453418 75.34236997692523 l 7.1171531387445 0 L 43.77049180327868 109.7099189203449 l -7.1171531387445 0 L 36.65333866453418 75.34236997692523 M 45.54978008796481 109.7099189203449 l 7.1171531387445 0 L 52.66693322670931 111.23609289907594 l -7.1171531387445 0 L 45.54978008796481 109.7099189203449 M 72.23910435825668 40.923523348643386 l 7.1171531387445 0 L 79.35625749700118 42.86415005110226 l -7.1171531387445 0 L 72.23910435825668 40.923523348643386 M 81.13554578168731 42.76834008942845 l 7.1171531387445 0 L 88.25269892043181 46.399076229119686 l -7.1171531387445 0 L 81.13554578168731 42.76834008942845 M 90.03198720511796 46.36840618473116 l 7.1171531387445 0 L 97.14914034386246 55.90380441001582 l -7.1171531387445 0 L 90.03198720511796 46.36840618473116 M 98.92842862854857 55.82129384812106 l 7.1171531387445 0 L 106.04558176729307 56.590759121054106 l -7.1171531387445 0 L 98.92842862854857 55.82129384812106 M 107.82487005197919 56.620886332798506 l 7.1171531387445 0 L 114.94202319072369 64.19638729676072 l -7.1171531387445 0 L 107.82487005197919 56.620886332798506 M 116.72131147540982 64.24687073265687 l 7.1171531387445 0 L 123.83846461415432 68.79472262446123 l -7.1171531387445 0 L 116.72131147540982 64.24687073265687 M 125.61775289884046 68.83434940747645 l 7.1171531387445 0 L 132.73490603758498 74.09792614045338 l -7.1171531387445 0 L 125.61775289884046 68.83434940747645 M 143.4106357457017 55.3544577742428 l 7.1171531387445 0 L 150.5277888844462 65.10780330611138 l -7.1171531387445 0 L 143.4106357457017 55.3544577742428 M 170.09996001599356 41.853667084213555 l 7.1171531387445 0 L 177.21711315473806 59.795100218848376 l -7.1171531387445 0 L 170.09996001599356 41.853667084213555 M 187.89284286285485 37.97051376504163 l 7.1171531387445 0 L 195.00999600159935 38.504118254137296 l -7.1171531387445 0 L 187.89284286285485 37.97051376504163 M 214.5821671331467 24.697984201832952 l 7.1171531387445 0 L 221.6993202718912 28.43864395194319 l -7.1171531387445 0 L 214.5821671331467 24.697984201832952 M 223.47860855657734 28.4383725356212 l 7.1171531387445 0 L 230.59576169532184 34.149786199934795 l -7.1171531387445 0 L 223.47860855657734 28.4383725356212 M 232.37504998000796 34.198098305254746 l 7.1171531387445 0 L 239.49220311875246 40.665949259044254 l -7.1171531387445 0 L 232.37504998000796 34.198098305254746 M 241.2714914034386 40.62767955763911 l 7.1171531387445 0 L 248.3886445421831 54.56463627715817 l -7.1171531387445 0 L 241.2714914034386 40.62767955763911 M 250.16793282686922 54.56463627715817 l 7.1171531387445 0 L 257.28508596561375 58.675507890506736 l -7.1171531387445 0 L 250.16793282686922 54.56463627715817 M 259.06437425029986 58.66872248245616 l 7.1171531387445 0 L 266.1815273890444 122.64317808102582 l -7.1171531387445 0 L 259.06437425029986 58.66872248245616 M 285.7536985205918 104.12417101312762 l 7.1171531387445 0 L 292.8708516593363 107.29621356860129 l -7.1171531387445 0 L 285.7536985205918 104.12417101312762 M 303.54658136745303 103.78734335749805 l 7.1171531387445 0 L 310.66373450619756 108.15796039102183 l -7.1171531387445 0 L 303.54658136745303 103.78734335749805 M 321.3394642143143 102.97499430568553 l 7.1171531387445 0 L 328.45661735305885 138.7473941318923 l -7.1171531387445 0 L 321.3394642143143 102.97499430568553 M 330.23590563774496 138.7992346493985 l 7.1171531387445 0 L 337.3530587764895 144.26935920343436 l -7.1171531387445 0 L 330.23590563774496 138.7992346493985 M 339.13234706117555 144.26935920343436 l 7.1171531387445 0 L 346.2495001999201 157.35135450858337 l -7.1171531387445 0 L 339.13234706117555 144.26935920343436 M 356.9252299080368 137.4948078057597 l 7.1171531387445 0 L 364.0423830467813 150.4017395832044 l -7.1171531387445 0 L 356.9252299080368 137.4948078057597 M 383.61455417832866 141.68981847893517 l 7.1171531387445 0 L 390.7317073170732 146.59648274845284 l -7.1171531387445 0 L 383.61455417832866 141.68981847893517 M 392.5109956017593 146.62036738479082 l 7.1171531387445 0 L 399.62814874050383 149.85239294743138 l -7.1171531387445 0 L 392.5109956017593 146.62036738479082 M 410.3038784486206 145.28174208457725 l 7.1171531387445 0 L 417.4210315873651 150.80397857244134 l -7.1171531387445 0 L 410.3038784486206 145.28174208457725 M 419.20031987205124 150.84469102074468 l 7.1171531387445 0 L 426.31747301079577 178.11470314328326 l -7.1171531387445 0 L 419.20031987205124 150.84469102074468 M 481.47540983606564 80.27373313174704 l 7.1171531387445 0 L 488.59256297481016 140.5789114728982 l -7.1171531387445 0 L 481.47540983606564 80.27373313174704 M 499.2682926829268 139.12411998685914 l 7.1171531387445 0 L 506.38544582167134 153.3813479663643 l -7.1171531387445 0 L 499.2682926829268 139.12411998685914 M 525.9576169532187 142.23346537194564 l 7.1171531387445 0 L 533.0747700919632 161.1357122865392 l -7.1171531387445 0 L 525.9576169532187 142.23346537194564 M 543.75049980008 157.85591745122267 l 7.1171531387445 0 L 550.8676529388244 175.82422080173774 l -7.1171531387445 0 L 543.75049980008 157.85591745122267 M 552.6469412235106 175.84294852795725 l 7.1171531387445 0 L 559.764094362255 187.05108554586488 l -7.1171531387445 0 L 552.6469412235106 175.84294852795725 M 570.4398240703717 161.5306230350815 l 7.1171531387445 0 L 577.5569772091162 164.5628861847138 l -7.1171531387445 0 L 570.4398240703717 161.5306230350815 M 579.3362654938024 164.59925597186475 l 7.1171531387445 0 L 586.4534186325469 174.58927653653663 l -7.1171531387445 0 L 579.3362654938024 164.59925597186475 M 588.232706917233 174.54883550455529 l 7.1171531387445 0 L 595.3498600559775 177.65953797125198 l -7.1171531387445 0 L 588.232706917233 174.54883550455529 M 606.0255897640943 166.27905158886028 l 7.1171531387445 0 L 613.1427429028388 170.28379942029812 l -7.1171531387445 0 L 606.0255897640943 166.27905158886028 M 632.7149140343862 156.40329729575973 l 7.1171531387445 0 L 639.8320671731307 160.9611915914789 l -7.1171531387445 0 L 632.7149140343862 156.40329729575973 M 641.6113554578168 160.9611915914789 l 7.1171531387445 0 L 648.7285085965613 163.991826243179 l -7.1171531387445 0 L 641.6113554578168 160.9611915914789 M 650.5077968812475 163.9568135376381 l 7.1171531387445 0 L 657.624950019992 170.8898720673738 l -7.1171531387445 0 L 650.5077968812475 163.9568135376381 M 677.1971211515394 136.12089838368323 l 7.1171531387445 0 L 684.3142742902838 140.99444986191426 l -7.1171531387445 0 L 677.1971211515394 136.12089838368323 M 686.09356257497 140.99444986191426 l 7.1171531387445 0 L 693.2107157137144 146.35736496875134 l -7.1171531387445 0 L 686.09356257497 140.99444986191426 M 694.9900039984005 146.35736496875134 l 7.1171531387445 0 L 702.107157137145 158.04400896238408 l -7.1171531387445 0 L 694.9900039984005 146.35736496875134 M 703.8864454218311 158.04400896238408 l 7.1171531387445 0 L 711.0035985605756 161.08740018121927 l -7.1171531387445 0 L 703.8864454218311 158.04400896238408 M 721.6793282686924 160.4902842727704 l 7.1171531387445 0 L 728.7964814074369 168.85234973795298 l -7.1171531387445 0 L 721.6793282686924 160.4902842727704 M 730.5757696921231 168.85234973795298 l 7.1171531387445 0 L 737.6929228308676 170.80301884432666 l -7.1171531387445 0 L 730.5757696921231 168.85234973795298 M 757.265093962415 162.23766255394935 l 7.1171531387445 0 L 764.3822471011595 167.62934779092083 l -7.1171531387445 0 L 757.265093962415 162.23766255394935 M 766.1615353858456 167.62934779092083 l 7.1171531387445 0 L 773.27868852459 170.5481589179478 l -7.1171531387445 0 L 766.1615353858456 167.62934779092083 M 792.8508596561375 157.54487434618522 l 7.1171531387445 0 L 799.9680127948819 163.54426072816443 l -7.1171531387445 0 L 792.8508596561375 157.54487434618522 M 801.747301079568 163.54426072816443 l 7.1171531387445 0 L 808.8644542183125 169.0667686323505 l -7.1171531387445 0 L 801.747301079568 163.54426072816443 M 810.6437425029987 169.08359644431593 l 7.1171531387445 0 L 817.7608956417432 171.2937395545429 l -7.1171531387445 0 L 810.6437425029987 169.08359644431593 M 846.2295081967213 156.94992976831247 l 7.1171531387445 0 L 853.3466613354658 163.48237780674327 l -7.1171531387445 0 L 846.2295081967213 156.94992976831247 M 872.9188324670131 124.34712975068129 l 7.1171531387445 0 L 880.0359856057576 137.28011749504012 l -7.1171531387445 0 L 872.9188324670131 124.34712975068129"></path><path class="candle body equal"></path><path class="candle wick up" d="M 31.315473810475808 63.467634472131095 L 31.315473810475808 75.27315881480958 M 31.315473810475808 78.83142679652086 L 31.315473810475808 84.02714944899226 M 58.004798080767685 60.8080259326353 L 58.004798080767685 65.15557257878723 M 58.004798080767685 111.23609289907594 L 58.004798080767685 116.99391875445532 M 66.90123950419832 31.302628981921686 L 66.90123950419832 40.98649193535252 M 66.90123950419832 65.1050891428911 L 66.90123950419832 75.20666181591412 M 138.07277089164333 51.03079576442883 L 138.07277089164333 55.38539923495341 M 138.07277089164333 74.11339687080864 L 138.07277089164333 75.07583914869942 M 155.8656537385046 52.95405182227833 L 155.8656537385046 59.13175872782611 M 155.8656537385046 65.10780330611138 L 155.8656537385046 68.08225477915292 M 164.7620951619352 30.073655875805088 L 164.7620951619352 41.8802658837717 M 164.7620951619352 59.13175872782611 L 164.7620951619352 59.678391200378826 M 182.55497800879647 30.58934688764731 L 182.55497800879647 37.97051376504163 M 182.55497800879647 59.75791618273135 L 182.55497800879647 72.96584866129874 M 200.34786085565773 24.333200665035122 L 200.34786085565773 25.76682167795647 M 200.34786085565773 38.53940237600017 L 200.34786085565773 48.041416393676116 M 209.24430227908834 12.621586369776281 L 209.24430227908834 24.743582143932684 M 209.24430227908834 25.82056210971686 L 209.24430227908834 28.819169635418348 M 271.51939224310274 107.7570784833951 L 271.51939224310274 114.34652394945056 M 271.51939224310274 122.64317808102582 L 271.51939224310274 124.61067499936483 M 280.4158336665334 96.43494661023813 L 280.4158336665334 104.15375539222805 M 280.4158336665334 114.34652394945056 L 280.4158336665334 116.27249417052022 M 298.2087165133947 99.55976272567997 L 298.2087165133947 103.78707194117607 M 298.2087165133947 107.27124326697529 L 298.2087165133947 121.13003208575192 M 316.0015993602559 95.89537096205791 L 316.0015993602559 102.97499430568553 M 316.0015993602559 108.15877463998798 L 316.0015993602559 109.73027514449657 M 351.5873650539784 133.52073001871037 L 351.5873650539784 137.53470600509698 M 351.5873650539784 157.35135450858337 L 351.5873650539784 157.48217717579806 M 369.38024790083966 131.9904847951491 L 369.38024790083966 143.93226013148274 M 369.38024790083966 150.36455554708738 L 369.38024790083966 150.77412277701893 M 378.2766893242703 139.6343826722609 L 378.2766893242703 141.72184560493378 M 378.2766893242703 143.9751439103623 L 378.2766893242703 157.07858110495104 M 404.9660135945622 144.49653466496693 L 404.9660135945622 145.28174208457725 M 404.9660135945622 149.83746504972018 L 404.9660135945622 156.60523103934432 M 431.65533786485406 159.83617093669676 L 431.65533786485406 164.48336120236127 M 431.65533786485406 178.11470314328326 L 431.65533786485406 185.7100174987531 M 440.5517792882847 159.99386381979173 L 440.5517792882847 163.7524370471554 M 440.5517792882847 164.48308978603927 L 440.5517792882847 172.10581719003332 M 449.44822071171535 101.93872678820468 L 449.44822071171535 108.37427919967358 M 449.44822071171535 163.7315379903597 L 449.44822071171535 164.51294558146168 M 458.34466213514594 96.14181698245415 L 458.34466213514594 100.55124655002712 M 458.34466213514594 108.33329533504826 L 458.34466213514594 115.13200278538282 M 467.2411035585766 94.8064486781048 L 467.2411035585766 95.70565095296443 M 467.2411035585766 100.58191659441566 L 467.2411035585766 108.64868110123807 M 476.13754498200717 77.76150365510932 L 476.13754498200717 80.2655906420863 M 476.13754498200717 95.70565095296443 L 476.13754498200717 103.53221201479722 M 493.93042782886846 130.5932335693787 L 493.93042782886846 139.13660513767215 M 493.93042782886846 140.57755439128812 L 493.93042782886846 155.6683018957236 M 511.7233106757297 148.27546411648234 L 511.7233106757297 150.628643628415 M 511.7233106757297 153.3813479663643 L 511.7233106757297 163.74592305542694 M 520.6197520991603 140.1601160880179 L 520.6197520991603 142.20605232342143 M 520.6197520991603 150.628643628415 L 520.6197520991603 152.12740455862163 M 538.4126349460215 153.80692875929515 L 538.4126349460215 157.85591745122267 M 538.4126349460215 161.10124241364235 L 538.4126349460215 193.2610909937333 M 565.1019592163135 157.4990049877635 L 565.1019592163135 161.5306230350815 M 565.1019592163135 187.05108554586488 L 565.1019592163135 189.90014267813217 M 600.687724910036 163.77442176923927 L 600.687724910036 166.24811012814976 M 600.687724910036 177.6120401148981 L 600.687724910036 181.09729710598543 M 618.4806077568971 150.98962733670453 L 618.4806077568971 161.22690817073868 M 618.4806077568971 170.3117553014665 L 618.4806077568971 186.7818405544189 M 627.3770491803277 154.91105035728157 L 627.3770491803277 156.37696991252363 M 627.3770491803277 161.22690817073868 L 627.3770491803277 176.6924816158869 M 662.9628148740503 152.91396905984212 L 662.9628148740503 155.35725879068607 M 662.9628148740503 170.86435893310363 L 662.9628148740503 173.52586738685358 M 671.8592562974809 132.3976092781824 L 671.8592562974809 136.12089838368323 M 671.8592562974809 155.35725879068607 L 671.8592562974809 159.11583201804987 M 716.3414634146341 157.28648600762006 L 716.3414634146341 160.51579740704042 M 716.3414634146341 161.12648413159042 L 716.3414634146341 163.85367533526968 M 743.0307876849259 165.9633944063484 L 743.0307876849259 168.21017872004842 M 743.0307876849259 170.80301884432666 L 743.0307876849259 173.35758926719978 M 751.9272291083566 158.48641756728028 L 751.9272291083566 162.2498762884404 M 751.9272291083566 168.2218496218954 L 751.9272291083566 194.41623886025988 M 778.6165533786485 160.87352411946574 L 778.6165533786485 165.29381033991962 M 778.6165533786485 170.57502913382797 L 778.6165533786485 170.7015091398903 M 787.512994802079 154.05771744084373 L 787.512994802079 157.50741889374615 M 787.512994802079 165.29381033991962 L 787.512994802079 168.3051744327562 M 823.0987604958016 165.64610872590447 L 823.0987604958016 167.97024669138077 M 823.0987604958016 171.2937395545429 L 823.0987604958016 181.93108804723772 M 831.9952019192323 165.4561173004889 L 831.9952019192323 166.88512423593593 M 831.9952019192323 167.97024669138077 L 831.9952019192323 169.37211199462547 M 840.8916433426629 153.56808239591564 L 840.8916433426629 156.94992976831247 M 840.8916433426629 166.886752733868 L 840.8916433426629 170.52861694276217 M 858.6845261895241 134.00249399029983 L 858.6845261895241 143.11665408380597 M 858.6845261895241 163.4584931704054 L 858.6845261895241 165.99894994453336 M 867.5809676129546 117.60541972797135 L 867.5809676129546 124.34767258332535 M 867.5809676129546 143.1451527976183 L 867.5809676129546 143.92167489492388 M 885.3738504598159 124.93366042257132 L 885.3738504598159 128.11357405138367 M 885.3738504598159 137.28011749504012 L 885.3738504598159 145.2874418273397" style="stroke-width: 1px;"></path><path class="candle wick down" d="M 4.626149540183927 51.84748747739371 L 4.626149540183927 57.80426149681543 M 4.626149540183927 59.73430296271545 L 4.626149540183927 81.73883843802297 M 13.522590963614554 43.33261462291256 L 13.522590963614554 59.73430296271545 M 13.522590963614554 72.41921618874589 L 13.522590963614554 77.43580406868264 M 22.41903238704518 63.844088910775895 L 22.41903238704518 72.41921618874589 M 22.41903238704518 78.7638441323374 L 22.41903238704518 92.7824971647851 M 40.21191523390643 72.93029312311378 L 40.21191523390643 75.34236997692523 M 40.21191523390643 109.7099189203449 L 40.21191523390643 111.36284432146027 M 49.10835665733706 108.70784985943891 L 49.10835665733706 109.7099189203449 M 49.10835665733706 111.23609289907594 L 49.10835665733706 126.11432142336798 M 75.79768092762893 24.708840854713884 L 75.79768092762893 40.923523348643386 M 75.79768092762893 42.86415005110226 L 75.79768092762893 52.62753798688561 M 84.69412235105956 18.592745454265156 L 84.69412235105956 42.76834008942845 M 84.69412235105956 46.399076229119686 L 84.69412235105956 50.233103194005565 M 93.5905637744902 31.435622979712605 L 93.5905637744902 46.36840618473116 M 93.5905637744902 55.90380441001582 L 93.5905637744902 57.695423551684456 M 102.48700519792082 50.031440866743026 L 102.48700519792082 55.82129384812106 M 102.48700519792082 56.590759121054106 L 102.48700519792082 67.93623279790492 M 111.38344662135144 51.38282273409169 L 111.38344662135144 56.620886332798506 M 111.38344662135144 64.19638729676072 L 111.38344662135144 73.24595030562566 M 120.27988804478207 46.28589562283639 L 120.27988804478207 64.24687073265687 M 120.27988804478207 68.79472262446123 L 120.27988804478207 72.51719748099592 M 129.1763294682127 57.803718664171384 L 129.1763294682127 68.83434940747645 M 129.1763294682127 74.09792614045338 L 129.1763294682127 80.14996728890486 M 146.96921231507397 54.24707918039215 L 146.96921231507397 55.3544577742428 M 146.96921231507397 65.10780330611138 L 146.96921231507397 66.32076284922866 M 173.65853658536582 38.53505971484782 L 173.65853658536582 41.853667084213555 M 173.65853658536582 59.795100218848376 L 173.65853658536582 67.52910831487156 M 191.4514194322271 11.792680922320386 L 191.4514194322271 37.97051376504163 M 191.4514194322271 38.504118254137296 L 191.4514194322271 40.73678891909208 M 218.14074370251896 8.290867535589683 L 218.14074370251896 24.697984201832952 M 218.14074370251896 28.43864395194319 L 218.14074370251896 32.81496072822952 M 227.0371851259496 3.846153846153868 L 227.0371851259496 28.4383725356212 M 227.0371851259496 34.149786199934795 L 227.0371851259496 42.87853511616939 M 235.93362654938022 30.006073211621526 L 235.93362654938022 34.198098305254746 M 235.93362654938022 40.665949259044254 L 235.93362654938022 45.64698160079607 M 244.83006797281087 24.59891724429491 L 244.83006797281087 40.62767955763911 M 244.83006797281087 54.56463627715817 L 244.83006797281087 58.96863751829068 M 253.72650939624148 47.580008646238355 L 253.72650939624148 54.56463627715817 M 253.72650939624148 58.675507890506736 L 253.72650939624148 60.85118112783684 M 262.6229508196721 58.20134357593395 L 262.6229508196721 58.66872248245616 M 262.6229508196721 122.64317808102582 L 262.6229508196721 124.02251582954274 M 289.31227508996403 103.25536736633453 L 289.31227508996403 104.12417101312762 M 289.31227508996403 107.29621356860129 L 289.31227508996403 121.12894642046382 M 307.10515793682526 93.72078339001591 L 307.10515793682526 103.78734335749805 M 307.10515793682526 108.15796039102183 L 307.10515793682526 114.21271570269359 M 324.89804078368655 94.0798671840513 L 324.89804078368655 102.97499430568553 M 324.89804078368655 138.7473941318923 L 324.89804078368655 142.3613024596181 M 333.7944822071172 134.35370671099653 L 333.7944822071172 138.7992346493985 M 333.7944822071172 144.26935920343436 L 333.7944822071172 150.7182110146823 M 342.6909236305478 140.6437799738615 L 342.6909236305478 144.26935920343436 M 342.6909236305478 157.35135450858337 L 342.6909236305478 158.3178680313045 M 360.483806477409 129.6495190177074 L 360.483806477409 137.4948078057597 M 360.483806477409 150.4017395832044 L 360.483806477409 157.77503538726006 M 387.1731307477009 133.31336794868542 L 387.1731307477009 141.68981847893517 M 387.1731307477009 146.59648274845284 L 387.1731307477009 151.93171339044363 M 396.06957217113154 143.7718530851676 L 396.06957217113154 146.62036738479082 M 396.06957217113154 149.85239294743138 L 396.06957217113154 154.71563060542553 M 413.86245501799283 143.73548329801662 L 413.86245501799283 145.28174208457725 M 413.86245501799283 150.80397857244134 L 413.86245501799283 155.2283360377255 M 422.7588964414235 140.40439077783793 L 422.7588964414235 150.84469102074468 M 422.7588964414235 178.11470314328326 L 422.7588964414235 181.94438744701685 M 485.0339864054379 69.32045604021823 L 485.0339864054379 80.27373313174704 M 485.0339864054379 140.5789114728982 L 485.0339864054379 149.089713082549 M 502.82686925229905 136.326631955776 L 502.82686925229905 139.12411998685914 M 502.82686925229905 153.3813479663643 L 502.82686925229905 158.94212557195561 M 529.5161935225909 142.10725678220535 L 529.5161935225909 142.23346537194564 M 529.5161935225909 161.1357122865392 L 529.5161935225909 163.32224217675025 M 547.3090763694522 155.2068941482858 L 547.3090763694522 157.85591745122267 M 547.3090763694522 175.82422080173774 L 547.3090763694522 180.25183526288626 M 556.2055177928828 146.48411639113567 L 556.2055177928828 175.84294852795725 M 556.2055177928828 187.05108554586488 L 556.2055177928828 196.15384615384616 M 573.998400639744 158.86070067534894 L 573.998400639744 161.5306230350815 M 573.998400639744 164.5628861847138 L 573.998400639744 185.14954279377727 M 582.8948420631747 163.8509611720495 L 582.8948420631747 164.59925597186475 M 582.8948420631747 174.58927653653663 L 582.8948420631747 177.71490690094453 M 591.7912834866053 167.54032323729757 L 591.7912834866053 174.54883550455529 M 591.7912834866053 177.65953797125198 L 591.7912834866053 182.4956339970439 M 609.5841663334666 134.81701437268845 L 609.5841663334666 166.27905158886028 M 609.5841663334666 170.28379942029812 L 609.5841663334666 177.41689177936416 M 636.2734906037584 140.2686826168268 L 636.2734906037584 156.40329729575973 M 636.2734906037584 160.9611915914789 L 636.2734906037584 168.21479279752273 M 645.169932027189 159.29496679058448 L 645.169932027189 160.9611915914789 M 645.169932027189 163.991826243179 L 645.169932027189 168.1045977707818 M 654.0663734506197 161.68587317127825 L 654.0663734506197 163.9568135376381 M 654.0663734506197 170.8898720673738 L 654.0663734506197 174.59334778136702 M 680.7556977209116 135.36690384110554 L 680.7556977209116 136.12089838368323 M 680.7556977209116 140.99444986191426 L 680.7556977209116 152.61812526883784 M 689.6521391443422 132.89701531070332 L 689.6521391443422 140.99444986191426 M 689.6521391443422 146.35736496875134 L 689.6521391443422 149.27970450796454 M 698.5485805677728 143.42199744608098 L 698.5485805677728 146.35736496875134 M 698.5485805677728 158.04400896238408 L 698.5485805677728 163.74619447174894 M 707.4450219912034 155.40339956542988 L 707.4450219912034 158.04400896238408 M 707.4450219912034 161.08740018121927 L 707.4450219912034 165.99515011602506 M 725.2379048380647 158.1821598702934 L 725.2379048380647 160.4902842727704 M 725.2379048380647 168.85234973795298 L 725.2379048380647 171.881898724365 M 734.1343462614954 165.15511659936627 L 734.1343462614954 168.85234973795298 M 734.1343462614954 170.80301884432666 L 734.1343462614954 176.23134528477107 M 760.8236705317872 146.59621133213085 L 760.8236705317872 162.23766255394935 M 760.8236705317872 167.62934779092083 L 760.8236705317872 170.52156011838966 M 769.7201119552178 166.25190995665804 L 769.7201119552178 167.62934779092083 M 769.7201119552178 170.5481589179478 L 769.7201119552178 173.10517208771913 M 796.4094362255097 153.25161096443773 L 796.4094362255097 157.54487434618522 M 796.4094362255097 163.54426072816443 L 796.4094362255097 169.96162824605778 M 805.3058776489403 162.65618652250768 L 805.3058776489403 163.54426072816443 M 805.3058776489403 169.0667686323505 L 805.3058776489403 170.64098330007937 M 814.202319072371 162.9911142638831 L 814.202319072371 169.08359644431593 M 814.202319072371 171.2937395545429 L 814.202319072371 175.1456799966822 M 849.7880847660936 156.11532457809415 L 849.7880847660936 156.94992976831247 M 849.7880847660936 163.48237780674327 L 849.7880847660936 168.17028052071112 M 876.4774090363853 121.61668155113779 L 876.4774090363853 124.34712975068129 M 876.4774090363853 137.28011749504012 L 876.4774090363853 139.86155813379347" style="stroke-width: 1px;"></path><path class="candle wick equal" style="stroke-width: 1px;"></path></g></g><g class="x axis" transform="translate(0,200)" fill="none" font-size="10" font-family="sans-serif" text-anchor="middle"><path class="domain" stroke="#000" d="M0.5,6V0.5H890.5V6"></path><g class="tick" opacity="1" transform="translate(40.21191523390643,0)"><line stroke="#000" y2="6" x1="0.5" x2="0.5"></line><text fill="#000" y="9" x="0.5" dy="0.71em">Jul 25</text></g><g class="tick" opacity="1" transform="translate(102.48700519792082,0)"><line stroke="#000" y2="6" x1="0.5" x2="0.5"></line><text fill="#000" y="9" x="0.5" dy="0.71em">Aug  1</text></g><g class="tick" opacity="1" transform="translate(164.7620951619352,0)"><line stroke="#000" y2="6" x1="0.5" x2="0.5"></line><text fill="#000" y="9" x="0.5" dy="0.71em">Aug  8</text></g><g class="tick" opacity="1" transform="translate(227.0371851259496,0)"><line stroke="#000" y2="6" x1="0.5" x2="0.5"></line><text fill="#000" y="9" x="0.5" dy="0.71em">Aug 15</text></g><g class="tick" opacity="1" transform="translate(289.31227508996403,0)"><line stroke="#000" y2="6" x1="0.5" x2="0.5"></line><text fill="#000" y="9" x="0.5" dy="0.71em">Aug 22</text></g><g class="tick" opacity="1" transform="translate(351.5873650539784,0)"><line stroke="#000" y2="6" x1="0.5" x2="0.5"></line><text fill="#000" y="9" x="0.5" dy="0.71em">Aug 29</text></g><g class="tick" opacity="1" transform="translate(413.86245501799283,0)"><line stroke="#000" y2="6" x1="0.5" x2="0.5"></line><text fill="#000" y="9" x="0.5" dy="0.71em">Sep  5</text></g><g class="tick" opacity="1" transform="translate(476.13754498200717,0)"><line stroke="#000" y2="6" x1="0.5" x2="0.5"></line><text fill="#000" y="9" x="0.5" dy="0.71em">Sep 12</text></g><g class="tick" opacity="1" transform="translate(538.4126349460215,0)"><line stroke="#000" y2="6" x1="0.5" x2="0.5"></line><text fill="#000" y="9" x="0.5" dy="0.71em">Sep 19</text></g><g class="tick" opacity="1" transform="translate(600.687724910036,0)"><line stroke="#000" y2="6" x1="0.5" x2="0.5"></line><text fill="#000" y="9" x="0.5" dy="0.71em">Sep 26</text></g><g class="tick" opacity="1" transform="translate(662.9628148740503,0)"><line stroke="#000" y2="6" x1="0.5" x2="0.5"></line><text fill="#000" y="9" x="0.5" dy="0.71em">Oct  3</text></g><g class="tick" opacity="1" transform="translate(725.2379048380647,0)"><line stroke="#000" y2="6" x1="0.5" x2="0.5"></line><text fill="#000" y="9" x="0.5" dy="0.71em">Oct 10</text></g><g class="tick" opacity="1" transform="translate(787.512994802079,0)"><line stroke="#000" y2="6" x1="0.5" x2="0.5"></line><text fill="#000" y="9" x="0.5" dy="0.71em">Oct 17</text></g><g class="tick" opacity="1" transform="translate(849.7880847660936,0)"><line stroke="#000" y2="6" x1="0.5" x2="0.5"></line><text fill="#000" y="9" x="0.5" dy="0.71em">Oct 24</text></g></g><g class="y axis" fill="none" font-size="10" font-family="sans-serif" text-anchor="end"><path class="domain" stroke="#000" d="M-6,200.5H0.5V0.5H-6"></path><g class="tick" opacity="1" transform="translate(0,199.57314897868207)"><line stroke="#000" x2="-6" y1="0.5" y2="0.5"></line><text fill="#000" x="-9" y="0.5" dy="0.32em">18,000</text></g><g class="tick" opacity="1" transform="translate(0,172.43151677646)"><line stroke="#000" x2="-6" y1="0.5" y2="0.5"></line><text fill="#000" x="-9" y="0.5" dy="0.32em">19,000</text></g><g class="tick" opacity="1" transform="translate(0,145.2898845742379)"><line stroke="#000" x2="-6" y1="0.5" y2="0.5"></line><text fill="#000" x="-9" y="0.5" dy="0.32em">20,000</text></g><g class="tick" opacity="1" transform="translate(0,118.14825237201579)"><line stroke="#000" x2="-6" y1="0.5" y2="0.5"></line><text fill="#000" x="-9" y="0.5" dy="0.32em">21,000</text></g><g class="tick" opacity="1" transform="translate(0,91.0066201697937)"><line stroke="#000" x2="-6" y1="0.5" y2="0.5"></line><text fill="#000" x="-9" y="0.5" dy="0.32em">22,000</text></g><g class="tick" opacity="1" transform="translate(0,63.86498796757161)"><line stroke="#000" x2="-6" y1="0.5" y2="0.5"></line><text fill="#000" x="-9" y="0.5" dy="0.32em">23,000</text></g><g class="tick" opacity="1" transform="translate(0,36.72335576534951)"><line stroke="#000" x2="-6" y1="0.5" y2="0.5"></line><text fill="#000" x="-9" y="0.5" dy="0.32em">24,000</text></g><g class="tick" opacity="1" transform="translate(0,9.581723563127412)"><line stroke="#000" x2="-6" y1="0.5" y2="0.5"></line><text fill="#000" x="-9" y="0.5" dy="0.32em">25,000</text></g><text transform="rotate(-90)" y="6" dy=".71em" style="text-anchor: end;">Price ($)</text></g></g></svg>