<?xml version="1.0" encoding="utf-8"?>
<!DOCTYPE svg PUBLIC "-//W3C//DTD SVG 1.1//EN" "http://www.w3.org/Graphics/SVG/1.1/DTD/svg11.dtd">
<svg version="1.1" xmlns="http://www.w3.org/2000/svg" width="960" height="250"><g transform="translate(50,20)"><style>.axis path,.axis line{fill:none;stroke:#000;shape-rendering:crispEdges;}path.candle{stroke:#000000;}path.candle.body{stroke-width:0;}path.candle.up{fill:#00AA00;stroke:#00AA00;}path.candle.down{fill:#FF0000;stroke:#FF0000;}</style><g class="candlestick"><g class="data"><path class="candle body up" d="M 1.0675729708116766 101.49094464381089 l 7.1171531387445 0 L 8.184726109556177 93.65049150080998 l -7.1171531387445 0 L 1.0675729708116766 101.49094464381089 M 18.860455817672932 97.32896787036915 l 7.1171531387445 0 L 25.977608956417434 90.58462553685484 l -7.1171531387445 0 L 18.860455817672932 97.32896787036915 M 27.75689724110356 90.58462553685484 l 7.1171531387445 0 L 34.87405037984806 74.10787195819044 l -7.1171531387445 0 L 27.75689724110356 90.58462553685484 M 45.54978008796481 77.23685836743161 l 7.1171531387445 0 L 52.66693322670931 53.21693570101215 l -7.1171531387445 0 L 45.54978008796481 77.23685836743161 M 63.342662934826066 53.57452626560905 l 7.1171531387445 0 L 70.45981607357056 44.926473509276065 l -7.1171531387445 0 L 63.342662934826066 53.57452626560905 M 90.03198720511796 91.9223486102467 l 7.1171531387445 0 L 97.14914034386246 87.58999077470418 l -7.1171531387445 0 L 90.03198720511796 91.9223486102467 M 134.51419432227107 112.651069737057 l 7.1171531387445 0 L 141.63134746101557 88.08198816160599 l -7.1171531387445 0 L 134.51419432227107 112.651069737057 M 152.30707716913233 94.4294551778628 l 7.1171531387445 0 L 159.42423030787683 83.87576086620672 l -7.1171531387445 0 L 152.30707716913233 94.4294551778628 M 170.09996001599356 94.77441061835967 l 7.1171531387445 0 L 177.21711315473806 92.69088417177589 l -7.1171531387445 0 L 170.09996001599356 94.77441061835967 M 178.9964014394242 92.71792002683723 l 7.1171531387445 0 L 186.1135545781687 91.97090279892831 l -7.1171531387445 0 L 178.9964014394242 92.71792002683723 M 187.89284286285485 91.97090279892831 l 7.1171531387445 0 L 195.00999600159935 80.44176587170217 l -7.1171531387445 0 L 187.89284286285485 91.97090279892831 M 196.78928428628546 80.51150734271752 l 7.1171531387445 0 L 203.90643742502996 72.69836593085002 l -7.1171531387445 0 L 196.78928428628546 80.51150734271752 M 205.68572570971608 72.6983107556356 l 7.1171531387445 0 L 212.80287884846058 58.85308385308386 l -7.1171531387445 0 L 205.68572570971608 72.6983107556356 M 214.5821671331467 58.907321088849784 l 7.1171531387445 0 L 221.6993202718912 53.517144042621766 l -7.1171531387445 0 L 214.5821671331467 58.907321088849784 M 223.47860855657734 53.517144042621766 l 7.1171531387445 0 L 230.59576169532184 42.914840367069644 l -7.1171531387445 0 L 223.47860855657734 53.517144042621766 M 241.2714914034386 45.9574223905434 l 7.1171531387445 0 L 248.3886445421831 24.071235615821593 l -7.1171531387445 0 L 241.2714914034386 45.9574223905434 M 267.9608156737305 54.87660615049151 l 7.1171531387445 0 L 275.07796881247504 47.72838124748952 l -7.1171531387445 0 L 267.9608156737305 54.87660615049151 M 276.85725709716115 47.728436422703936 l 7.1171531387445 0 L 283.9744102359057 36.625914253302795 l -7.1171531387445 0 L 276.85725709716115 47.728436422703936 M 294.65013994402244 43.6440360007239 l 7.1171531387445 0 L 301.76729308276697 41.49766498492613 l -7.1171531387445 0 L 294.65013994402244 43.6440360007239 M 303.54658136745303 41.49766498492613 l 7.1171531387445 0 L 310.66373450619756 41.09891371037867 l -7.1171531387445 0 L 303.54658136745303 41.49766498492613 M 330.23590563774496 63.27399790775587 l 7.1171531387445 0 L 337.3530587764895 61.852463683673875 l -7.1171531387445 0 L 330.23590563774496 63.27399790775587 M 356.9252299080368 78.66495844202852 l 7.1171531387445 0 L 364.0423830467813 58.074616752960736 l -7.1171531387445 0 L 356.9252299080368 78.66495844202852 M 365.8216713314674 58.074616752960736 l 7.1171531387445 0 L 372.93882447021196 53.70722265626725 l -7.1171531387445 0 L 365.8216713314674 58.074616752960736 M 383.61455417832866 53.92510957797583 l 7.1171531387445 0 L 390.7317073170732 43.67454789429311 l -7.1171531387445 0 L 383.61455417832866 53.92510957797583 M 392.5109956017593 43.674603069507555 l 7.1171531387445 0 L 399.62814874050383 37.54402982109991 l -7.1171531387445 0 L 392.5109956017593 43.674603069507555 M 419.20031987205124 37.68814748114113 l 7.1171531387445 0 L 426.31747301079577 36.421545259124855 l -7.1171531387445 0 L 419.20031987205124 37.68814748114113 M 436.99320271891247 46.89413200559699 l 7.1171531387445 0 L 444.110355857657 40.54865129705894 l -7.1171531387445 0 L 436.99320271891247 46.89413200559699 M 445.8896441423431 40.54865129705894 l 7.1171531387445 0 L 453.00679728108764 35.42850175015781 l -7.1171531387445 0 L 445.8896441423431 40.54865129705894 M 472.57896841263494 52.95518448384689 l 7.1171531387445 0 L 479.69612155137946 41.23552754126004 l -7.1171531387445 0 L 472.57896841263494 52.95518448384689 M 481.47540983606564 41.23552754126004 l 7.1171531387445 0 L 488.59256297481016 40.876778297160456 l -7.1171531387445 0 L 481.47540983606564 41.23552754126004 M 490.3718512594962 40.87672312194604 l 7.1171531387445 0 L 497.48900439824075 31.90203309630064 l -7.1171531387445 0 L 490.3718512594962 40.87672312194604 M 499.2682926829268 31.90203309630064 l 7.1171531387445 0 L 506.38544582167134 30.614795344094716 l -7.1171531387445 0 L 499.2682926829268 31.90203309630064 M 517.0611755297881 31.4006007477345 l 7.1171531387445 0 L 524.1783286685326 10.903063769305817 l -7.1171531387445 0 L 517.0611755297881 31.4006007477345 M 534.8540583766493 14.298932690652464 l 7.1171531387445 0 L 541.9712115153937 13.192945517786256 l -7.1171531387445 0 L 534.8540583766493 14.298932690652464 M 579.3362654938024 54.72244660142752 l 7.1171531387445 0 L 586.4534186325469 50.353342073087305 l -7.1171531387445 0 L 579.3362654938024 54.72244660142752 M 632.7149140343862 90.952589041761 l 7.1171531387445 0 L 639.8320671731307 63.72566221292337 l -7.1171531387445 0 L 632.7149140343862 90.952589041761 M 641.6113554578168 63.72571738813778 l 7.1171531387445 0 L 648.7285085965613 58.14976539498832 l -7.1171531387445 0 L 641.6113554578168 63.72571738813778 M 668.3006797281087 66.18862860901078 l 7.1171531387445 0 L 675.4178328668531 43.35011763355715 l -7.1171531387445 0 L 668.3006797281087 66.18862860901078 M 677.1971211515394 43.33367541966268 l 7.1171531387445 0 L 684.3142742902838 42.764708608657656 l -7.1171531387445 0 L 677.1971211515394 43.33367541966268 M 694.9900039984005 49.50800261309814 l 7.1171531387445 0 L 702.107157137145 46.246154287555555 l -7.1171531387445 0 L 694.9900039984005 49.50800261309814 M 712.7828868452618 68.11948523731962 l 7.1171531387445 0 L 719.9000399840063 44.774520968788494 l -7.1171531387445 0 L 712.7828868452618 68.11948523731962 M 730.5757696921231 50.52615084462218 l 7.1171531387445 0 L 737.6929228308676 45.44412737087896 l -7.1171531387445 0 L 730.5757696921231 50.52615084462218 M 739.4722111155537 45.44004440501257 l 7.1171531387445 0 L 746.5893642542982 36.90686644508298 l -7.1171531387445 0 L 739.4722111155537 45.44004440501257 M 766.1615353858456 53.712740177708326 l 7.1171531387445 0 L 773.27868852459 49.001438969591845 l -7.1171531387445 0 L 766.1615353858456 53.712740177708326 M 783.9544182327068 88.35720213108746 l 7.1171531387445 0 L 791.0715713714512 87.61884741184103 l -7.1171531387445 0 L 783.9544182327068 88.35720213108746 M 792.8508596561375 87.61360576647202 l 7.1171531387445 0 L 799.9680127948819 86.67822035656431 l -7.1171531387445 0 L 792.8508596561375 87.61360576647202 M 846.2295081967213 159.34519159041452 l 7.1171531387445 0 L 853.3466613354658 138.0728842512282 l -7.1171531387445 0 L 846.2295081967213 159.34519159041452 M 864.0223910435824 156.0781567947173 l 7.1171531387445 0 L 871.1395441823269 155.04980114852725 l -7.1171531387445 0 L 864.0223910435824 156.0781567947173 M 881.8152738904437 170.32390057867764 l 7.1171531387445 0 L 888.9324270291881 157.21609041672735 l -7.1171531387445 0 L 881.8152738904437 170.32390057867764"></path><path class="candle body down" d="M 9.964014394242305 93.63570454334784 l 7.1171531387445 0 L 17.081167532986804 97.32896787036915 l -7.1171531387445 0 L 9.964014394242305 93.63570454334784 M 36.65333866453418 74.11912770193025 l 7.1171531387445 0 L 43.77049180327868 77.23691354264604 l -7.1171531387445 0 L 36.65333866453418 74.11912770193025 M 54.446221511395436 53.21693570101215 l 7.1171531387445 0 L 61.563374650139934 53.57452626560905 l -7.1171531387445 0 L 54.446221511395436 53.21693570101215 M 72.23910435825668 44.90561727822876 l 7.1171531387445 0 L 79.35625749700118 63.24961046298628 l -7.1171531387445 0 L 72.23910435825668 44.90561727822876 M 81.13554578168731 63.24961046298628 l 7.1171531387445 0 L 88.25269892043181 91.9223486102467 l -7.1171531387445 0 L 81.13554578168731 63.24961046298628 M 98.92842862854857 87.58993559948975 l 7.1171531387445 0 L 106.04558176729307 101.94917479949326 l -7.1171531387445 0 L 98.92842862854857 87.58993559948975 M 107.82487005197919 101.94917479949326 l 7.1171531387445 0 L 114.94202319072369 106.34586693503888 l -7.1171531387445 0 L 107.82487005197919 101.94917479949326 M 116.72131147540982 106.34581175982451 l 7.1171531387445 0 L 123.83846461415432 107.286273289458 l -7.1171531387445 0 L 116.72131147540982 106.34581175982451 M 125.61775289884046 107.30150164863541 l 7.1171531387445 0 L 132.73490603758498 112.64251757882329 l -7.1171531387445 0 L 125.61775289884046 107.30150164863541 M 143.4106357457017 88.03382019942529 l 7.1171531387445 0 L 150.5277888844462 94.40716439124081 l -7.1171531387445 0 L 143.4106357457017 88.03382019942529 M 161.20351859256294 83.87576086620672 l 7.1171531387445 0 L 168.32067173130744 94.77441061835967 l -7.1171531387445 0 L 161.20351859256294 83.87576086620672 M 232.37504998000796 42.91489554228406 l 7.1171531387445 0 L 239.49220311875246 45.9574223905434 l -7.1171531387445 0 L 232.37504998000796 42.91489554228406 M 250.16793282686922 24.071290791036034 l 7.1171531387445 0 L 257.28508596561375 36.320574616752964 l -7.1171531387445 0 L 250.16793282686922 24.071290791036034 M 259.06437425029986 36.277703475155704 l 7.1171531387445 0 L 266.1815273890444 54.87660615049151 l -7.1171531387445 0 L 259.06437425029986 36.277703475155704 M 285.7536985205918 36.625914253302795 l 7.1171531387445 0 L 292.8708516593363 43.60453054720571 l -7.1171531387445 0 L 285.7536985205918 36.625914253302795 M 312.4430227908837 41.11138330883557 l 7.1171531387445 0 L 319.5601759296282 45.241027406632526 l -7.1171531387445 0 L 312.4430227908837 41.11138330883557 M 321.3394642143143 45.241027406632526 l 7.1171531387445 0 L 328.45661735305885 63.27399790775587 l -7.1171531387445 0 L 321.3394642143143 45.241027406632526 M 339.13234706117555 61.84192521772138 l 7.1171531387445 0 L 346.2495001999201 73.09297906431664 l -7.1171531387445 0 L 339.13234706117555 61.84192521772138 M 348.02878848460614 73.09292388910222 l 7.1171531387445 0 L 355.14594162335067 78.66495844202852 l -7.1171531387445 0 L 348.02878848460614 73.09292388910222 M 374.7181127548981 53.70722265626725 l 7.1171531387445 0 L 381.8352658936426 53.92521992840466 l -7.1171531387445 0 L 374.7181127548981 53.70722265626725 M 401.40743702518995 37.54402982109991 l 7.1171531387445 0 L 408.5245901639345 37.577245300175235 l -7.1171531387445 0 L 401.40743702518995 37.54402982109991 M 410.3038784486206 37.58325939854603 l 7.1171531387445 0 L 417.4210315873651 37.688202656355514 l -7.1171531387445 0 L 410.3038784486206 37.58325939854603 M 428.0967612954818 36.421545259124855 l 7.1171531387445 0 L 435.21391443422635 46.89418718081137 l -7.1171531387445 0 L 428.0967612954818 36.421545259124855 M 454.7860855657737 35.42850175015781 l 7.1171531387445 0 L 461.90323870451823 41.71207586812682 l -7.1171531387445 0 L 454.7860855657737 35.42850175015781 M 463.68252698920435 41.718255492140855 l 7.1171531387445 0 L 470.7996801279489 52.95512930863251 l -7.1171531387445 0 L 463.68252698920435 41.718255492140855 M 508.16473410635746 30.63482394692585 l 7.1171531387445 0 L 515.281887245102 31.400655922948914 l -7.1171531387445 0 L 508.16473410635746 30.63482394692585 M 525.9576169532187 10.903008594091403 l 7.1171531387445 0 L 533.0747700919632 14.298932690652464 l -7.1171531387445 0 L 525.9576169532187 10.903008594091403 M 543.75049980008 13.199787244373255 l 7.1171531387445 0 L 550.8676529388244 23.263415301631852 l -7.1171531387445 0 L 543.75049980008 13.199787244373255 M 552.6469412235106 23.263360126417467 l 7.1171531387445 0 L 559.764094362255 30.591456228398897 l -7.1171531387445 0 L 552.6469412235106 23.263360126417467 M 561.5433826469413 30.591401053184512 l 7.1171531387445 0 L 568.6605357856857 51.87060529417215 l -7.1171531387445 0 L 561.5433826469413 30.591401053184512 M 570.4398240703717 51.87060529417215 l 7.1171531387445 0 L 577.5569772091162 54.72244660142752 l -7.1171531387445 0 L 570.4398240703717 51.87060529417215 M 588.232706917233 50.353342073087305 l 7.1171531387445 0 L 595.3498600559775 64.90508759617043 l -7.1171531387445 0 L 588.232706917233 50.353342073087305 M 597.1291483406637 64.90514277138479 l 7.1171531387445 0 L 604.2463014794082 76.47350927605704 l -7.1171531387445 0 L 597.1291483406637 64.90514277138479 M 606.0255897640943 76.47356445127147 l 7.1171531387445 0 L 613.1427429028388 79.59543325785366 l -7.1171531387445 0 L 606.0255897640943 76.47356445127147 M 614.9220311875249 79.67587872046474 l 7.1171531387445 0 L 622.0391843262694 85.53945910633811 l -7.1171531387445 0 L 614.9220311875249 79.67587872046474 M 623.8184726109555 85.53945910633811 l 7.1171531387445 0 L 630.9356257497 90.95253386654663 l -7.1171531387445 0 L 623.8184726109555 85.53945910633811 M 650.5077968812475 58.14976539498832 l 7.1171531387445 0 L 657.624950019992 59.06429457384871 l -7.1171531387445 0 L 650.5077968812475 58.14976539498832 M 659.4042383046781 59.0642393986343 l 7.1171531387445 0 L 666.5213914434225 66.18862860901078 l -7.1171531387445 0 L 659.4042383046781 59.0642393986343 M 686.09356257497 42.781371523409746 l 7.1171531387445 0 L 693.2107157137144 49.50800261309814 l -7.1171531387445 0 L 686.09356257497 42.781371523409746 M 703.8864454218311 46.246154287555555 l 7.1171531387445 0 L 711.0035985605756 68.14729354538272 l -7.1171531387445 0 L 703.8864454218311 46.246154287555555 M 721.6793282686924 44.774520968788494 l 7.1171531387445 0 L 728.7964814074369 50.52615084462218 l -7.1171531387445 0 L 721.6793282686924 44.774520968788494 M 748.3686525389844 36.882147949026944 l 7.1171531387445 0 L 755.4858056777289 40.334405939501494 l -7.1171531387445 0 L 748.3686525389844 36.882147949026944 M 757.265093962415 40.33446111471588 l 7.1171531387445 0 L 764.3822471011595 53.712740177708326 l -7.1171531387445 0 L 757.265093962415 40.33446111471588 M 775.0579768092763 49.001438969591845 l 7.1171531387445 0 L 782.1751299480208 87.8376171369802 l -7.1171531387445 0 L 775.0579768092763 49.001438969591845 M 801.747301079568 86.66326787345895 l 7.1171531387445 0 L 808.8644542183125 103.66368941209707 l -7.1171531387445 0 L 801.747301079568 86.66326787345895 M 810.6437425029987 103.66368941209707 l 7.1171531387445 0 L 817.7608956417432 105.49269259460343 l -7.1171531387445 0 L 810.6437425029987 103.66368941209707 M 819.5401839264293 105.51845941973329 l 7.1171531387445 0 L 826.6573370651738 121.45742018353482 l -7.1171531387445 0 L 819.5401839264293 105.51845941973329 M 828.43662534986 121.45753053396368 l 7.1171531387445 0 L 835.5537784886045 125.25490949057829 l -7.1171531387445 0 L 828.43662534986 121.45753053396368 M 837.3330667732906 125.25490949057829 l 7.1171531387445 0 L 844.4502199120351 159.24113113603562 l -7.1171531387445 0 L 837.3330667732906 125.25490949057829 M 855.1259496201519 138.07978115302956 l 7.1171531387445 0 L 862.2431027588964 156.14072548785924 l -7.1171531387445 0 L 855.1259496201519 138.07978115302956 M 872.9188324670131 155.0013573102745 l 7.1171531387445 0 L 880.0359856057576 170.46840446521975 l -7.1171531387445 0 L 872.9188324670131 155.0013573102745"></path><path class="candle body equal"></path><path class="candle wick up" d="M 4.626149540183927 87.41767858009896 L 4.626149540183927 93.65049150080998 M 4.626149540183927 101.49094464381089 L 4.626149540183927 102.2777983765245 M 22.41903238704518 82.0008519053105 L 22.41903238704518 90.58462553685484 M 22.41903238704518 97.32896787036915 L 22.41903238704518 102.33600822772796 M 31.315473810475808 71.35446323344414 L 31.315473810475808 74.10787195819044 M 31.315473810475808 90.58462553685484 L 31.315473810475808 91.61336740954576 M 49.10835665733706 50.667840795229324 L 49.10835665733706 53.21693570101215 M 49.10835665733706 77.23685836743161 L 49.10835665733706 81.88487360461885 M 66.90123950419832 39.716664238957236 L 66.90123950419832 44.926473509276065 M 66.90123950419832 53.57452626560905 L 66.90123950419832 55.58069706158881 M 93.5905637744902 78.21688052579773 L 93.5905637744902 87.58999077470418 M 93.5905637744902 91.9223486102467 L 93.5905637744902 102.41838482284341 M 138.07277089164333 86.9620968347083 L 138.07277089164333 88.08198816160599 M 138.07277089164333 112.651069737057 L 138.07277089164333 113.663976323212 M 155.8656537385046 71.23716072760661 L 155.8656537385046 83.87576086620672 M 155.8656537385046 94.4294551778628 L 155.8656537385046 96.28279062992439 M 173.65853658536582 88.8439578726203 L 173.65853658536582 92.69088417177589 M 173.65853658536582 94.77441061835967 L 173.65853658536582 106.21824666410654 M 182.55497800879647 90.21743448495042 L 182.55497800879647 91.97090279892831 M 182.55497800879647 92.71792002683723 L 182.55497800879647 101.96975515446853 M 191.4514194322271 77.80284571685847 L 191.4514194322271 80.44176587170217 M 191.4514194322271 91.97090279892831 L 191.4514194322271 91.97090279892831 M 200.34786085565773 72.54602716386157 L 200.34786085565773 72.69836593085002 M 200.34786085565773 80.51150734271752 L 200.34786085565773 89.80544115894435 M 209.24430227908834 58.79514987795241 L 209.24430227908834 58.85308385308386 M 209.24430227908834 72.6983107556356 L 209.24430227908834 75.93030929018187 M 218.14074370251896 45.04167935696597 L 218.14074370251896 53.517144042621766 M 218.14074370251896 58.907321088849784 L 218.14074370251896 69.22326540160935 M 227.0371851259496 40.83561758720995 L 227.0371851259496 42.914840367069644 M 227.0371851259496 53.517144042621766 L 227.0371851259496 62.22804136816876 M 244.83006797281087 20.453893383829694 L 244.83006797281087 24.071235615821593 M 244.83006797281087 45.9574223905434 L 244.83006797281087 52.266652983213504 M 271.51939224310274 47.52125349259106 L 271.51939224310274 47.72838124748952 M 271.51939224310274 54.87660615049151 L 271.51939224310274 67.75372874098991 M 280.4158336665334 36.285152129101164 L 280.4158336665334 36.625914253302795 M 280.4158336665334 47.728436422703936 L 280.4158336665334 63.05086934067825 M 298.2087165133947 33.56352432785553 L 298.2087165133947 41.49766498492613 M 298.2087165133947 43.6440360007239 L 298.2087165133947 51.20447493058958 M 307.10515793682526 31.290305494127153 L 307.10515793682526 41.09891371037867 M 307.10515793682526 41.49766498492613 L 307.10515793682526 42.655461684124134 M 333.7944822071172 53.63130156123785 L 333.7944822071172 61.852463683673875 M 333.7944822071172 63.27399790775587 L 333.7944822071172 69.2508530088148 M 360.483806477409 57.81049300157582 L 360.483806477409 58.074616752960736 M 360.483806477409 78.66495844202852 L 360.483806477409 79.10183578973388 M 369.38024790083966 48.83403736906922 L 369.38024790083966 53.70722265626725 M 369.38024790083966 58.074616752960736 L 369.38024790083966 64.0092076397809 M 387.1731307477009 39.42412525215073 L 387.1731307477009 43.67454789429311 M 387.1731307477009 53.92510957797583 L 387.1731307477009 59.31925923964141 M 396.06957217113154 34.115276471964364 L 396.06957217113154 37.54402982109991 M 396.06957217113154 43.674603069507555 L 396.06957217113154 46.787092089639884 M 422.7588964414235 29.524698632978897 L 422.7588964414235 36.421545259124855 M 422.7588964414235 37.68814748114113 L 422.7588964414235 39.298601639365984 M 440.5517792882847 38.943935361132844 L 440.5517792882847 40.54865129705894 M 440.5517792882847 46.89413200559699 L 440.5517792882847 50.55749036640756 M 449.44822071171535 34.644958530308855 L 449.44822071171535 35.42850175015781 M 449.44822071171535 40.54865129705894 L 449.44822071171535 48.40692603431461 M 476.13754498200717 40.81735459123996 L 476.13754498200717 41.23552754126004 M 476.13754498200717 52.95518448384689 L 476.13754498200717 54.35354511787634 M 485.0339864054379 36.725615865743265 L 485.0339864054379 40.876778297160456 M 485.0339864054379 41.23552754126004 L 485.0339864054379 43.57230822198977 M 493.93042782886846 22.35192075956408 L 493.93042782886846 31.90203309630064 M 493.93042782886846 40.87672312194604 L 493.93042782886846 42.21494277226759 M 502.82686925229905 26.771455433875815 L 502.82686925229905 30.614795344094716 M 502.82686925229905 31.90203309630064 L 502.82686925229905 34.862790276803025 M 520.6197520991603 9.78427594669634 L 520.6197520991603 10.903063769305817 M 520.6197520991603 31.4006007477345 L 520.6197520991603 31.703291973992634 M 538.4126349460215 9.661621445060945 L 538.4126349460215 13.192945517786256 M 538.4126349460215 14.298932690652464 L 538.4126349460215 19.48280961019816 M 582.8948420631747 46.760111409792955 L 582.8948420631747 50.353342073087305 M 582.8948420631747 54.72244660142752 L 582.8948420631747 67.4302916341133 M 636.2734906037584 61.76567307140556 L 636.2734906037584 63.72566221292337 M 636.2734906037584 90.952589041761 L 636.2734906037584 92.6813388596828 M 645.169932027189 55.67775026373752 L 645.169932027189 58.14976539498832 M 645.169932027189 63.72571738813778 L 645.169932027189 68.02596324889319 M 671.8592562974809 41.86739409669346 L 671.8592562974809 43.35011763355715 M 671.8592562974809 66.18862860901078 L 671.8592562974809 69.17907005486623 M 680.7556977209116 39.13583475685388 L 680.7556977209116 42.764708608657656 M 680.7556977209116 43.33367541966268 L 680.7556977209116 47.42276573486765 M 698.5485805677728 36.24812956023146 L 698.5485805677728 46.246154287555555 M 698.5485805677728 49.50800261309814 L 698.5485805677728 50.29816685867641 M 716.3414634146341 41.27801245635641 L 716.3414634146341 44.774520968788494 M 716.3414634146341 68.11948523731962 L 716.3414634146341 69.80260515292363 M 734.1343462614954 38.07685686666579 L 734.1343462614954 45.44412737087896 M 734.1343462614954 50.52615084462218 L 734.1343462614954 56.882611420828 M 743.0307876849259 33.38696364174072 L 743.0307876849259 36.90686644508298 M 743.0307876849259 45.44004440501257 L 743.0307876849259 47.73251938857035 M 769.7201119552178 47.93981266911203 L 769.7201119552178 49.001438969591845 M 769.7201119552178 53.712740177708326 L 769.7201119552178 61.69184863452381 M 787.512994802079 78.25991719303819 L 787.512994802079 87.61884741184103 M 787.512994802079 88.35720213108746 L 787.512994802079 107.87350309643303 M 796.4094362255097 77.62093303494578 L 796.4094362255097 86.67822035656431 M 796.4094362255097 87.61360576647202 L 796.4094362255097 92.42582244174602 M 849.7880847660936 127.45148995148996 L 849.7880847660936 138.0728842512282 M 849.7880847660936 159.34519159041452 L 849.7880847660936 169.3938671645678 M 867.5809676129546 147.43964935047737 L 867.5809676129546 155.04980114852725 M 867.5809676129546 156.0781567947173 L 867.5809676129546 167.4593137968934 M 885.3738504598159 155.60988475001213 L 885.3738504598159 157.21609041672735 M 885.3738504598159 170.32390057867764 L 885.3738504598159 173.91271722481912" style="stroke-width: 1px;"></path><path class="candle wick down" d="M 13.522590963614554 91.2606874390314 L 13.522590963614554 93.63570454334784 M 13.522590963614554 97.32896787036915 L 13.522590963614554 110.24167847416254 M 40.21191523390643 71.8440880861263 L 40.21191523390643 74.11912770193025 M 40.21191523390643 77.23691354264604 L 40.21191523390643 80.82716474436221 M 58.004798080767685 43.3159641758368 L 58.004798080767685 53.21693570101215 M 58.004798080767685 53.57452626560905 L 58.004798080767685 64.48410071021536 M 75.79768092762893 44.37527311731134 L 75.79768092762893 44.90561727822876 M 75.79768092762893 63.24961046298628 L 75.79768092762893 98.92408331898778 M 84.69412235105956 62.7203698063571 L 84.69412235105956 63.24961046298628 M 84.69412235105956 91.9223486102467 L 84.69412235105956 113.9838270411519 M 102.48700519792082 74.53812828016649 L 102.48700519792082 87.58993559948975 M 102.48700519792082 101.94917479949326 L 102.48700519792082 104.15281768784955 M 111.38344662135144 94.49842419587642 L 111.38344662135144 101.94917479949326 M 111.38344662135144 106.34586693503888 L 111.38344662135144 118.31938503913027 M 120.27988804478207 94.66455676646758 L 120.27988804478207 106.34581175982451 M 120.27988804478207 107.286273289458 L 120.27988804478207 113.39102453752136 M 129.1763294682127 104.35078635715578 L 129.1763294682127 107.30150164863541 M 129.1763294682127 112.64251757882329 L 129.1763294682127 124.426067419698 M 146.96921231507397 84.69991304386208 L 146.96921231507397 88.03382019942529 M 146.96921231507397 94.40716439124081 L 146.96921231507397 102.09334763474892 M 164.7620951619352 76.01599639816202 L 164.7620951619352 83.87576086620672 M 164.7620951619352 94.77441061835967 L 164.7620951619352 99.59722093480055 M 235.93362654938022 41.213512630710056 L 235.93362654938022 42.91489554228406 M 235.93362654938022 45.9574223905434 L 235.93362654938022 58.42084122338903 M 253.72650939624148 21.111637114821832 L 253.72650939624148 24.071290791036034 M 253.72650939624148 36.320574616752964 L 253.72650939624148 36.329016424557835 M 262.6229508196721 27.13323931476799 L 262.6229508196721 36.277703475155704 M 262.6229508196721 54.87660615049151 L 262.6229508196721 60.42281870307349 M 289.31227508996403 29.911090659498313 L 289.31227508996403 36.625914253302795 M 289.31227508996403 43.60453054720571 L 289.31227508996403 47.05386425131647 M 316.0015993602559 38.412873922428076 L 316.0015993602559 41.11138330883557 M 316.0015993602559 45.241027406632526 L 316.0015993602559 55.73231855078987 M 324.89804078368655 39.286683793053214 L 324.89804078368655 45.241027406632526 M 324.89804078368655 63.27399790775587 L 324.89804078368655 65.66446407210739 M 342.6909236305478 46.07726295624386 L 342.6909236305478 61.84192521772138 M 342.6909236305478 73.09297906431664 L 342.6909236305478 76.42363088222962 M 351.5873650539784 67.66732435522243 L 351.5873650539784 73.09292388910222 M 351.5873650539784 78.66495844202852 L 351.5873650539784 83.44434586472804 M 378.2766893242703 49.60985605890065 L 378.2766893242703 53.70722265626725 M 378.2766893242703 53.92521992840466 L 378.2766893242703 59.91608953392395 M 404.9660135945622 31.731707209414225 L 404.9660135945622 37.54402982109991 M 404.9660135945622 37.577245300175235 L 404.9660135945622 48.45531469735292 M 413.86245501799283 33.44213885615159 L 413.86245501799283 37.58325939854603 M 413.86245501799283 37.688202656355514 L 413.86245501799283 42.01940181239547 M 431.65533786485406 31.777392286946423 L 431.65533786485406 36.421545259124855 M 431.65533786485406 46.89418718081137 L 431.65533786485406 47.84286981739211 M 458.34466213514594 33.41322704380033 L 458.34466213514594 35.42850175015781 M 458.34466213514594 41.71207586812682 L 458.34466213514594 44.90192053886324 M 467.2411035585766 38.049269259460345 L 467.2411035585766 41.718255492140855 M 467.2411035585766 52.95512930863251 L 467.2411035585766 55.606022485003365 M 511.7233106757297 23.455425047781745 L 511.7233106757297 30.63482394692585 M 511.7233106757297 31.400655922948914 L 511.7233106757297 34.21133652025375 M 529.5161935225909 3.846153846153868 L 529.5161935225909 10.903008594091403 M 529.5161935225909 14.298932690652464 L 529.5161935225909 23.449907526340667 M 547.3090763694522 11.203161760486609 L 547.3090763694522 13.199787244373255 M 547.3090763694522 23.263415301631852 L 547.3090763694522 30.62820292119656 M 556.2055177928828 16.80101831375714 L 556.2055177928828 23.263360126417467 M 556.2055177928828 30.591456228398897 L 556.2055177928828 32.940540981942235 M 565.1019592163135 27.87495972209348 L 565.1019592163135 30.591401053184512 M 565.1019592163135 51.87060529417215 L 565.1019592163135 80.6649496139942 M 573.998400639744 44.27408177408179 L 573.998400639744 51.87060529417215 M 573.998400639744 54.72244660142752 L 573.998400639744 62.51075916681012 M 591.7912834866053 48.516504010134554 L 591.7912834866053 50.353342073087305 M 591.7912834866053 64.90508759617043 L 591.7912834866053 66.29335116596263 M 600.687724910036 55.33853304553941 L 600.687724910036 64.90514277138479 M 600.687724910036 76.47350927605704 L 600.687724910036 83.0446566115356 M 609.5841663334666 74.04088924789562 L 609.5841663334666 76.47356445127147 M 609.5841663334666 79.59543325785366 L 609.5841663334666 99.59722093480055 M 618.4806077568971 79.36877347705374 L 618.4806077568971 79.67587872046474 M 618.4806077568971 85.53945910633811 L 618.4806077568971 93.2126761744596 M 627.3770491803277 82.66996173047127 L 627.3770491803277 85.53945910633811 M 627.3770491803277 90.95253386654663 L 627.3770491803277 102.7422081562209 M 654.0663734506197 50.33678950876404 L 654.0663734506197 58.14976539498832 M 654.0663734506197 59.06429457384871 L 654.0663734506197 64.7642252737794 M 662.9628148740503 57.13525872761545 L 662.9628148740503 59.0642393986343 M 662.9628148740503 66.18862860901078 L 662.9628148740503 72.94240590418933 M 689.6521391443422 42.15419486120123 L 689.6521391443422 42.781371523409746 M 689.6521391443422 49.50800261309814 L 689.6521391443422 52.50379605475149 M 707.4450219912034 46.07726295624386 L 707.4450219912034 46.246154287555555 M 707.4450219912034 68.14729354538272 L 707.4450219912034 68.99323993273038 M 725.2379048380647 39.676938084581394 L 725.2379048380647 44.774520968788494 M 725.2379048380647 50.52615084462218 L 725.2379048380647 57.1123058384205 M 751.9272291083566 34.490467929958385 L 751.9272291083566 36.882147949026944 M 751.9272291083566 40.334405939501494 L 751.9272291083566 51.398029582742964 M 760.8236705317872 33.38696364174072 L 760.8236705317872 40.33446111471588 M 760.8236705317872 53.712740177708326 L 760.8236705317872 67.04384443237947 M 778.6165533786485 41.66319062815879 L 778.6165533786485 49.001438969591845 M 778.6165533786485 87.8376171369802 L 778.6165533786485 93.5279473496034 M 805.3058776489403 81.94115232331794 L 805.3058776489403 86.66326787345895 M 805.3058776489403 103.66368941209707 L 805.3058776489403 104.81127869662902 M 814.202319072371 86.92959863342028 L 814.202319072371 103.66368941209707 M 814.202319072371 105.49269259460343 L 814.202319072371 119.8719603974381 M 823.0987604958016 104.08848338784644 L 823.0987604958016 105.51845941973329 M 823.0987604958016 121.45742018353482 L 823.0987604958016 129.9380713393452 M 831.9952019192323 108.98092482487385 L 831.9952019192323 121.45753053396368 M 831.9952019192323 125.25490949057829 L 831.9952019192323 128.56409815008544 M 840.8916433426629 121.19886912880543 L 840.8916433426629 125.25490949057829 M 840.8916433426629 159.24113113603562 L 840.8916433426629 196.15384615384613 M 858.6845261895241 128.84008457256863 L 858.6845261895241 138.07978115302956 M 858.6845261895241 156.14072548785924 L 858.6845261895241 176.9087313673301 M 876.4774090363853 150.52041262232345 L 876.4774090363853 155.0013573102745 M 876.4774090363853 170.46840446521975 L 876.4774090363853 190.02382465758262" style="stroke-width: 1px;"></path><path class="candle wick equal" style="stroke-width: 1px;"></path></g></g><g class="x axis" transform="translate(0,200)" fill="none" font-size="10" font-family="sans-serif" text-anchor="middle"><path class="domain" stroke="#000" d="M0.5,6V0.5H890.5V6"></path><g class="tick" opacity="1" transform="translate(13.522590963614554,0)"><line stroke="#000" y2="6" x1="0.5" x2="0.5"></line><text fill="#000" y="9" x="0.5" dy="0.71em">Feb 15</text></g><g class="tick" opacity="1" transform="translate(75.79768092762893,0)"><line stroke="#000" y2="6" x1="0.5" x2="0.5"></line><text fill="#000" y="9" x="0.5" dy="0.71em">Feb 22</text></g><g class="tick" opacity="1" transform="translate(138.07277089164333,0)"><line stroke="#000" y2="6" x1="0.5" x2="0.5"></line><text fill="#000" y="9" x="0.5" dy="0.71em">Mar  1</text></g><g class="tick" opacity="1" transform="translate(200.34786085565773,0)"><line stroke="#000" y2="6" x1="0.5" x2="0.5"></line><text fill="#000" y="9" x="0.5" dy="0.71em">Mar  8</text></g><g class="tick" opacity="1" transform="translate(262.6229508196721,0)"><line stroke="#000" y2="6" x1="0.5" x2="0.5"></line><text fill="#000" y="9" x="0.5" dy="0.71em">Mar 15</text></g><g class="tick" opacity="1" transform="translate(324.89804078368655,0)"><line stroke="#000" y2="6" x1="0.5" x2="0.5"></line><text fill="#000" y="9" x="0.5" dy="0.71em">Mar 22</text></g><g class="tick" opacity="1" transform="translate(387.1731307477009,0)"><line stroke="#000" y2="6" x1="0.5" x2="0.5"></line><text fill="#000" y="9" x="0.5" dy="0.71em">Mar 29</text></g><g class="tick" opacity="1" transform="translate(449.44822071171535,0)"><line stroke="#000" y2="6" x1="0.5" x2="0.5"></line><text fill="#000" y="9" x="0.5" dy="0.71em">Apr  5</text></g><g class="tick" opacity="1" transform="translate(511.7233106757297,0)"><line stroke="#000" y2="6" x1="0.5" x2="0.5"></line><text fill="#000" y="9" x="0.5" dy="0.71em">Apr 12</text></g><g class="tick" opacity="1" transform="translate(573.998400639744,0)"><line stroke="#000" y2="6" x1="0.5" x2="0.5"></line><text fill="#000" y="9" x="0.5" dy="0.71em">Apr 19</text></g><g class="tick" opacity="1" transform="translate(636.2734906037584,0)"><line stroke="#000" y2="6" x1="0.5" x2="0.5"></line><text fill="#000" y="9" x="0.5" dy="0.71em">Apr 26</text></g><g class="tick" opacity="1" transform="translate(698.5485805677728,0)"><line stroke="#000" y2="6" x1="0.5" x2="0.5"></line><text fill="#000" y="9" x="0.5" dy="0.71em">May  3</text></g><g class="tick" opacity="1" transform="translate(760.8236705317872,0)"><line stroke="#000" y2="6" x1="0.5" x2="0.5"></line><text fill="#000" y="9" x="0.5" dy="0.71em">May 10</text></g><g class="tick" opacity="1" transform="translate(823.0987604958016,0)"><line stroke="#000" y2="6" x1="0.5" x2="0.5"></line><text fill="#000" y="9" x="0.5" dy="0.71em">May 17</text></g><g class="tick" opacity="1" transform="translate(885.3738504598159,0)"><line stroke="#000" y2="6" x1="0.5" x2="0.5"></line><text fill="#000" y="9" x="0.5" dy="0.71em">May 24</text></g></g><g class="y axis" fill="none" font-size="10" font-family="sans-serif" text-anchor="end"><path class="domain" stroke="#000" d="M-6,200.5H0.5V0.5H-6"></path><g class="tick" opacity="1" transform="translate(0,196.15384615384613)"><line stroke="#000" x2="-6" y1="0.5" y2="0.5"></line><text fill="#000" x="-9" y="0.5" dy="0.32em">30,000</text></g><g class="tick" opacity="1" transform="translate(0,168.56623894840453)"><line stroke="#000" x2="-6" y1="0.5" y2="0.5"></line><text fill="#000" x="-9" y="0.5" dy="0.32em">35,000</text></g><g class="tick" opacity="1" transform="translate(0,140.97863174296293)"><line stroke="#000" x2="-6" y1="0.5" y2="0.5"></line><text fill="#000" x="-9" y="0.5" dy="0.32em">40,000</text></g><g class="tick" opacity="1" transform="translate(0,113.39102453752136)"><line stroke="#000" x2="-6" y1="0.5" y2="0.5"></line><text fill="#000" x="-9" y="0.5" dy="0.32em">45,000</text></g><g class="tick" opacity="1" transform="translate(0,85.80341733207975)"><line stroke="#000" x2="-6" y1="0.5" y2="0.5"></line><text fill="#000" x="-9" y="0.5" dy="0.32em">50,000</text></g><g class="tick" opacity="1" transform="translate(0,58.21581012663813)"><line stroke="#000" x2="-6" y1="0.5" y2="0.5"></line><text fill="#000" x="-9" y="0.5" dy="0.32em">55,000</text></g><g class="tick" opacity="1" transform="translate(0,30.62820292119656)"><line stroke="#000" x2="-6" y1="0.5" y2="0.5"></line><text fill="#000" x="-9" y="0.5" dy="0.32em">60,000</text></g><g class="tick" opacity="1" transform="translate(0,3.040595715754961)"><line stroke="#000" x2="-6" y1="0.5" y2="0.5"></line><text fill="#000" x="-9" y="0.5" dy="0.32em">65,000</text></g><text transform="rotate(-90)" y="6" dy=".71em" style="text-anchor: end;">Price ($)</text></g></g></svg>