<?xml version="1.0" encoding="utf-8"?>
<!DOCTYPE svg PUBLIC "-//W3C//DTD SVG 1.1//EN" "http://www.w3.org/Graphics/SVG/1.1/DTD/svg11.dtd">
<svg version="1.1" xmlns="http://www.w3.org/2000/svg" width="960" height="250"><g transform="translate(50,20)"><style>.axis path,.axis line{fill:none;stroke:#000;shape-rendering:crispEdges;}path.candle{stroke:#000000;}path.candle.body{stroke-width:0;}path.candle.up{fill:#00AA00;stroke:#00AA00;}path.candle.down{fill:#FF0000;stroke:#FF0000;}</style><g class="candlestick"><g class="data"><path class="candle body up" d="M 18.860455817672932 194.01221040413387 l 7.1171531387445 0 L 25.977608956417434 191.14989109173993 l -7.1171531387445 0 L 18.860455817672932 194.01221040413387 M 27.75689724110356 191.14989109173993 l 7.1171531387445 0 L 34.87405037984806 190.4222012188612 l -7.1171531387445 0 L 27.75689724110356 191.14989109173993 M 36.65333866453418 190.4222012188612 l 7.1171531387445 0 L 43.77049180327868 181.6884127636707 l -7.1171531387445 0 L 36.65333866453418 190.4222012188612 M 63.342662934826066 186.3495418199287 l 7.1171531387445 0 L 70.45981607357056 182.3825206669843 l -7.1171531387445 0 L 63.342662934826066 186.3495418199287 M 90.03198720511796 183.45696249539063 l 7.1171531387445 0 L 97.14914034386246 181.11933125783875 l -7.1171531387445 0 L 90.03198720511796 183.45696249539063 M 98.92842862854857 181.11927085861294 l 7.1171531387445 0 L 106.04558176729307 177.4493534975585 l -7.1171531387445 0 L 98.92842862854857 181.11927085861294 M 107.82487005197919 177.44941389678434 l 7.1171531387445 0 L 114.94202319072369 177.27516213024592 l -7.1171531387445 0 L 107.82487005197919 177.44941389678434 M 134.51419432227107 179.4718819739211 l 7.1171531387445 0 L 141.63134746101557 174.9022577448055 l -7.1171531387445 0 L 134.51419432227107 179.4718819739211 M 143.4106357457017 174.90521730687146 l 7.1171531387445 0 L 150.5277888844462 169.18963856595906 l -7.1171531387445 0 L 143.4106357457017 174.90521730687146 M 152.30707716913233 169.18963856595906 l 7.1171531387445 0 L 159.42423030787683 168.4845380035432 l -7.1171531387445 0 L 152.30707716913233 169.18963856595906 M 161.20351859256294 168.47469292973184 l 7.1171531387445 0 L 168.32067173130744 168.32327207055965 l -7.1171531387445 0 L 161.20351859256294 168.47469292973184 M 170.09996001599356 168.32333246978547 l 7.1171531387445 0 L 177.21711315473806 163.17212409508977 l -7.1171531387445 0 L 170.09996001599356 168.32333246978547 M 178.9964014394242 163.1721844943156 l 7.1171531387445 0 L 186.1135545781687 162.88142262113846 l -7.1171531387445 0 L 178.9964014394242 163.1721844943156 M 205.68572570971608 164.90956822550385 l 7.1171531387445 0 L 212.80287884846058 160.12594953924935 l -7.1171531387445 0 L 205.68572570971608 164.90956822550385 M 241.2714914034386 172.32949232107194 l 7.1171531387445 0 L 248.3886445421831 168.82440444732546 l -7.1171531387445 0 L 241.2714914034386 172.32949232107194 M 250.16793282686922 168.8244648465513 l 7.1171531387445 0 L 257.28508596561375 166.0149948567643 l -7.1171531387445 0 L 250.16793282686922 168.8244648465513 M 259.06437425029986 166.0149344575385 l 7.1171531387445 0 L 266.1815273890444 156.88939662357217 l -7.1171531387445 0 L 259.06437425029986 166.0149344575385 M 276.85725709716115 162.51202095592214 l 7.1171531387445 0 L 283.9744102359057 159.85970975176184 l -7.1171531387445 0 L 276.85725709716115 162.51202095592214 M 285.7536985205918 159.85977015098769 l 7.1171531387445 0 L 292.8708516593363 158.544154213816 l -7.1171531387445 0 L 285.7536985205918 159.85977015098769 M 303.54658136745303 163.2032900956214 l 7.1171531387445 0 L 310.66373450619756 160.20054258315747 l -7.1171531387445 0 L 303.54658136745303 163.2032900956214 M 312.4430227908837 160.20054258315747 l 7.1171531387445 0 L 319.5601759296282 158.92164937529444 l -7.1171531387445 0 L 312.4430227908837 160.20054258315747 M 339.13234706117555 165.1747208269263 l 7.1171531387445 0 L 346.2495001999201 163.863030839434 l -7.1171531387445 0 L 339.13234706117555 165.1747208269263 M 365.8216713314674 166.9116817635337 l 7.1171531387445 0 L 372.93882447021196 162.24789514133892 l -7.1171531387445 0 L 365.8216713314674 166.9116817635337 M 374.7181127548981 162.24789514133892 l 7.1171531387445 0 L 381.8352658936426 160.03547149894618 l -7.1171531387445 0 L 374.7181127548981 162.24789514133892 M 383.61455417832866 160.03547149894618 l 7.1171531387445 0 L 390.7317073170732 159.4426530973605 l -7.1171531387445 0 L 383.61455417832866 160.03547149894618 M 392.5109956017593 159.4393311399395 l 7.1171531387445 0 L 399.62814874050383 158.51679336451207 l -7.1171531387445 0 L 392.5109956017593 159.4393311399395 M 401.40743702518995 158.51679336451207 l 7.1171531387445 0 L 408.5245901639345 146.98603755928275 l -7.1171531387445 0 L 401.40743702518995 158.51679336451207 M 410.3038784486206 146.98603755928275 l 7.1171531387445 0 L 417.4210315873651 138.15784511410973 l -7.1171531387445 0 L 410.3038784486206 146.98603755928275 M 419.20031987205124 138.15790551333555 l 7.1171531387445 0 L 426.31747301079577 136.28407993098253 l -7.1171531387445 0 L 419.20031987205124 138.15790551333555 M 428.0967612954818 136.28407993098253 l 7.1171531387445 0 L 435.21391443422635 131.9702464232847 l -7.1171531387445 0 L 428.0967612954818 136.28407993098253 M 454.7860855657737 138.62461033137456 l 7.1171531387445 0 L 461.90323870451823 132.03559838563984 l -7.1171531387445 0 L 454.7860855657737 138.62461033137456 M 472.57896841263494 135.5290896080257 l 7.1171531387445 0 L 479.69612155137946 132.5283956692402 l -7.1171531387445 0 L 472.57896841263494 135.5290896080257 M 481.47540983606564 132.52966405298278 l 7.1171531387445 0 L 488.59256297481016 126.5895209904101 l -7.1171531387445 0 L 481.47540983606564 132.52966405298278 M 490.3718512594962 126.5895209904101 l 7.1171531387445 0 L 497.48900439824075 115.83290206272781 l -7.1171531387445 0 L 490.3718512594962 126.5895209904101 M 508.16473410635746 117.11245966207504 l 7.1171531387445 0 L 515.281887245102 112.29338663025449 l -7.1171531387445 0 L 508.16473410635746 117.11245966207504 M 517.0611755297881 112.29332623102866 l 7.1171531387445 0 L 524.1783286685326 110.44764668791545 l -7.1171531387445 0 L 517.0611755297881 112.29332623102866 M 525.9576169532187 110.44764668791545 l 7.1171531387445 0 L 533.0747700919632 101.4449004800748 l -7.1171531387445 0 L 525.9576169532187 110.44764668791545 M 534.8540583766493 101.44484008084898 l 7.1171531387445 0 L 541.9712115153937 101.15444060302686 l -7.1171531387445 0 L 534.8540583766493 101.44484008084898 M 543.75049980008 101.15444060302686 l 7.1171531387445 0 L 550.8676529388244 98.68978979354073 l -7.1171531387445 0 L 543.75049980008 101.15444060302686 M 552.6469412235106 98.68972939431488 l 7.1171531387445 0 L 559.764094362255 81.49630457000596 l -7.1171531387445 0 L 552.6469412235106 98.68972939431488 M 561.5433826469413 81.50765962446324 l 7.1171531387445 0 L 568.6605357856857 76.53317938456523 l -7.1171531387445 0 L 561.5433826469413 81.50765962446324 M 579.3362654938024 82.63531317083157 l 7.1171531387445 0 L 586.4534186325469 70.79839368983681 l -7.1171531387445 0 L 579.3362654938024 82.63531317083157 M 588.232706917233 70.79839368983681 l 7.1171531387445 0 L 595.3498600559775 53.76683879076984 l -7.1171531387445 0 L 588.232706917233 70.79839368983681 M 597.1291483406637 53.76683879076984 l 7.1171531387445 0 L 604.2463014794082 37.683008144304125 l -7.1171531387445 0 L 597.1291483406637 53.76683879076984 M 606.0255897640943 37.68180015978737 l 7.1171531387445 0 L 613.1427429028388 30.733896014131915 l -7.1171531387445 0 L 606.0255897640943 37.68180015978737 M 650.5077968812475 70.19669660205312 l 7.1171531387445 0 L 657.624950019992 50.130684596958076 l -7.1171531387445 0 L 650.5077968812475 70.19669660205312 M 659.4042383046781 50.130684596958076 l 7.1171531387445 0 L 666.5213914434225 39.42117706542828 l -7.1171531387445 0 L 659.4042383046781 50.130684596958076 M 694.9900039984005 59.470760481095795 l 7.1171531387445 0 L 702.107157137145 54.60089170034675 l -7.1171531387445 0 L 694.9900039984005 59.470760481095795 M 730.5757696921231 89.50729548961051 l 7.1171531387445 0 L 737.6929228308676 76.86465033595624 l -7.1171531387445 0 L 730.5757696921231 89.50729548961051 M 748.3686525389844 82.10229000282405 l 7.1171531387445 0 L 755.4858056777289 81.00362808485725 l -7.1171531387445 0 L 748.3686525389844 82.10229000282405 M 766.1615353858456 81.03811604280995 l 7.1171531387445 0 L 773.27868852459 79.74810937739296 l -7.1171531387445 0 L 766.1615353858456 81.03811604280995 M 783.9544182327068 92.46564957108458 l 7.1171531387445 0 L 791.0715713714512 74.32975522682219 l -7.1171531387445 0 L 783.9544182327068 92.46564957108458 M 792.8508596561375 74.30970268384445 l 7.1171531387445 0 L 799.9680127948819 68.97029032144206 l -7.1171531387445 0 L 792.8508596561375 74.30970268384445 M 801.747301079568 69.00604666313731 l 7.1171531387445 0 L 808.8644542183125 68.90578394824863 l -7.1171531387445 0 L 801.747301079568 69.00604666313731 M 819.5401839264293 75.97194977809205 l 7.1171531387445 0 L 826.6573370651738 73.35424733033611 l -7.1171531387445 0 L 819.5401839264293 75.97194977809205 M 828.43662534986 73.41029781191246 l 7.1171531387445 0 L 835.5537784886045 61.63758270798195 l -7.1171531387445 0 L 828.43662534986 73.41029781191246 M 837.3330667732906 61.598504408865665 l 7.1171531387445 0 L 844.4502199120351 48.635864156729326 l -7.1171531387445 0 L 837.3330667732906 61.598504408865665 M 855.1259496201519 52.756420141750226 l 7.1171531387445 0 L 862.2431027588964 44.58084133174111 l -7.1171531387445 0 L 855.1259496201519 52.756420141750226 M 864.0223910435824 44.586398060518064 l 7.1171531387445 0 L 871.1395441823269 39.164842750977954 l -7.1171531387445 0 L 864.0223910435824 44.586398060518064 M 881.8152738904437 41.52796246183283 l 7.1171531387445 0 L 888.9324270291881 4.948137721541684 l -7.1171531387445 0 L 881.8152738904437 41.52796246183283"></path><path class="candle body down" d="M 1.0675729708116766 192.55435429011715 l 7.1171531387445 0 L 8.184726109556177 192.73253200633496 l -7.1171531387445 0 L 1.0675729708116766 192.55435429011715 M 9.964014394242305 192.7325924055608 l 7.1171531387445 0 L 17.081167532986804 194.01378078400563 l -7.1171531387445 0 L 9.964014394242305 192.7325924055608 M 45.54978008796481 181.6884127636707 l 7.1171531387445 0 L 52.66693322670931 181.74941598176562 l -7.1171531387445 0 L 45.54978008796481 181.6884127636707 M 54.446221511395436 181.74935558253978 l 7.1171531387445 0 L 61.563374650139934 186.3495418199287 l -7.1171531387445 0 L 54.446221511395436 181.74935558253978 M 72.23910435825668 182.3825206669843 l 7.1171531387445 0 L 79.35625749700118 183.26851691078062 l -7.1171531387445 0 L 72.23910435825668 182.3825206669843 M 81.13554578168731 183.26851691078062 l 7.1171531387445 0 L 88.25269892043181 183.45696249539063 l -7.1171531387445 0 L 81.13554578168731 183.26851691078062 M 116.72131147540982 177.2791484791511 l 7.1171531387445 0 L 123.83846461415432 178.7866527568055 l -7.1171531387445 0 L 116.72131147540982 177.2791484791511 M 125.61775289884046 178.79202828790494 l 7.1171531387445 0 L 132.73490603758498 179.4718819739211 l -7.1171531387445 0 L 125.61775289884046 178.79202828790494 M 187.89284286285485 162.88142262113846 l 7.1171531387445 0 L 195.00999600159935 164.6291950191706 l -7.1171531387445 0 L 187.89284286285485 162.88142262113846 M 196.78928428628546 164.6325169765916 l 7.1171531387445 0 L 203.90643742502996 164.9096286247297 l -7.1171531387445 0 L 196.78928428628546 164.6325169765916 M 214.5821671331467 160.1260099384752 l 7.1171531387445 0 L 221.6993202718912 162.7889514063827 l -7.1171531387445 0 L 214.5821671331467 160.1260099384752 M 223.47860855657734 162.79064258470612 l 7.1171531387445 0 L 230.59576169532184 172.26945549059042 l -7.1171531387445 0 L 223.47860855657734 162.79064258470612 M 232.37504998000796 172.26945549059042 l 7.1171531387445 0 L 239.49220311875246 172.32955272029778 l -7.1171531387445 0 L 232.37504998000796 172.26945549059042 M 267.9608156737305 156.88939662357217 l 7.1171531387445 0 L 275.07796881247504 162.51202095592214 l -7.1171531387445 0 L 267.9608156737305 156.88939662357217 M 294.65013994402244 158.5414966478792 l 7.1171531387445 0 L 301.76729308276697 163.20322969639557 l -7.1171531387445 0 L 294.65013994402244 158.5414966478792 M 321.3394642143143 158.9260585187805 l 7.1171531387445 0 L 328.45661735305885 160.08433447264795 l -7.1171531387445 0 L 321.3394642143143 158.9260585187805 M 330.23590563774496 160.08433447264795 l 7.1171531387445 0 L 337.3530587764895 165.1747208269263 l -7.1171531387445 0 L 330.23590563774496 160.08433447264795 M 348.02878848460614 163.86297044020816 l 7.1171531387445 0 L 355.14594162335067 165.5943746480386 l -7.1171531387445 0 L 348.02878848460614 163.86297044020816 M 356.9252299080368 165.59328746197355 l 7.1171531387445 0 L 364.0423830467813 166.9116817635337 l -7.1171531387445 0 L 356.9252299080368 165.59328746197355 M 436.99320271891247 131.97030682251054 l 7.1171531387445 0 L 444.110355857657 134.18140168193483 l -7.1171531387445 0 L 436.99320271891247 131.97030682251054 M 445.8896441423431 134.18128088348317 l 7.1171531387445 0 L 453.00679728108764 138.6256371182138 l -7.1171531387445 0 L 445.8896441423431 134.18128088348317 M 463.68252698920435 132.03559838563984 l 7.1171531387445 0 L 470.7996801279489 135.52685483666977 l -7.1171531387445 0 L 463.68252698920435 132.03559838563984 M 499.2682926829268 115.83284166350195 l 7.1171531387445 0 L 506.38544582167134 117.111734871365 l -7.1171531387445 0 L 499.2682926829268 115.83284166350195 M 570.4398240703717 76.53317938456523 l 7.1171531387445 0 L 577.5569772091162 82.64159469031857 l -7.1171531387445 0 L 570.4398240703717 76.53317938456523 M 614.9220311875249 30.708830335409743 l 7.1171531387445 0 L 622.0391843262694 33.72118132478167 l -7.1171531387445 0 L 614.9220311875249 30.708830335409743 M 623.8184726109555 33.72118132478167 l 7.1171531387445 0 L 630.9356257497 45.4277592764212 l -7.1171531387445 0 L 623.8184726109555 33.72118132478167 M 632.7149140343862 45.4277592764212 l 7.1171531387445 0 L 639.8320671731307 62.010668725974284 l -7.1171531387445 0 L 632.7149140343862 45.4277592764212 M 641.6113554578168 61.9750331827307 l 7.1171531387445 0 L 648.7285085965613 70.1840731638533 l -7.1171531387445 0 L 641.6113554578168 61.9750331827307 M 668.3006797281087 39.41688872039387 l 7.1171531387445 0 L 675.4178328668531 53.93076228969022 l -7.1171531387445 0 L 668.3006797281087 39.41688872039387 M 677.1971211515394 53.95969351886595 l 7.1171531387445 0 L 684.3142742902838 58.44403404110034 l -7.1171531387445 0 L 677.1971211515394 53.95969351886595 M 686.09356257497 58.44403404110034 l 7.1171531387445 0 L 693.2107157137144 59.44889596134297 l -7.1171531387445 0 L 686.09356257497 58.44403404110034 M 703.8864454218311 54.65410341830872 l 7.1171531387445 0 L 711.0035985605756 59.069105629282774 l -7.1171531387445 0 L 703.8864454218311 54.65410341830872 M 712.7828868452618 59.005988438283566 l 7.1171531387445 0 L 719.9000399840063 61.62556326204043 l -7.1171531387445 0 L 712.7828868452618 59.005988438283566 M 721.6793282686924 61.62556326204043 l 7.1171531387445 0 L 728.7964814074369 89.51852974561612 l -7.1171531387445 0 L 721.6793282686924 61.62556326204043 M 739.4722111155537 76.83547750987717 l 7.1171531387445 0 L 746.5893642542982 82.10229000282405 l -7.1171531387445 0 L 739.4722111155537 76.83547750987717 M 757.265093962415 81.0063460500199 l 7.1171531387445 0 L 764.3822471011595 81.03805564358409 l -7.1171531387445 0 L 757.265093962415 81.0063460500199 M 775.0579768092763 79.77081948630752 l 7.1171531387445 0 L 782.1751299480208 92.4417314776533 l -7.1171531387445 0 L 775.0579768092763 79.77081948630752 M 810.6437425029987 68.90572354902278 l 7.1171531387445 0 L 817.7608956417432 75.97188937886621 l -7.1171531387445 0 L 810.6437425029987 68.90572354902278 M 846.2295081967213 48.62746866433807 l 7.1171531387445 0 L 853.3466613354658 52.75635974252438 l -7.1171531387445 0 L 846.2295081967213 48.62746866433807 M 872.9188324670131 39.20065949189902 l 7.1171531387445 0 L 880.0359856057576 41.52796246183283 l -7.1171531387445 0 L 872.9188324670131 39.20065949189902"></path><path class="candle body equal"></path><path class="candle wick up" d="M 22.41903238704518 190.8927111881279 L 22.41903238704518 191.14989109173993 M 22.41903238704518 194.01221040413387 L 22.41903238704518 195.61061551667225 M 31.315473810475808 189.72767052096677 L 31.315473810475808 190.4222012188612 M 31.315473810475808 191.14989109173993 L 31.315473810475808 194.1609736973693 M 40.21191523390643 180.72214594873762 L 40.21191523390643 181.6884127636707 M 40.21191523390643 190.4222012188612 L 40.21191523390643 190.72691531320658 M 66.90123950419832 181.3261382071031 L 66.90123950419832 182.3825206669843 M 66.90123950419832 186.3495418199287 L 66.90123950419832 187.04062976195047 M 93.5905637744902 179.4235625932519 L 93.5905637744902 181.11933125783875 M 93.5905637744902 183.45696249539063 L 93.5905637744902 183.60512179636768 M 102.48700519792082 177.15436367857282 L 102.48700519792082 177.4493534975585 M 102.48700519792082 181.11927085861294 L 102.48700519792082 182.59065639921704 M 111.38344662135144 176.31300246266971 L 111.38344662135144 177.27516213024592 M 111.38344662135144 177.44941389678434 L 111.38344662135144 179.4999676139351 M 138.07277089164333 173.89703342920785 L 138.07277089164333 174.9022577448055 M 138.07277089164333 179.4718819739211 L 138.07277089164333 180.033594774201 M 146.96921231507397 167.98503640587498 L 146.96921231507397 169.18963856595906 M 146.96921231507397 174.90521730687146 L 146.96921231507397 175.96268695281773 M 155.8656537385046 164.2516998576922 L 155.8656537385046 168.4845380035432 M 155.8656537385046 169.18963856595906 L 155.8656537385046 171.87698132110452 M 164.7620951619352 166.0463420549735 L 164.7620951619352 168.32327207055965 M 164.7620951619352 168.47469292973184 L 164.7620951619352 171.14494270396557 M 173.65853658536582 162.20845444686762 L 173.65853658536582 163.17212409508977 M 173.65853658536582 168.32333246978547 L 173.65853658536582 168.7024584103615 M 182.55497800879647 161.29835891196254 L 182.55497800879647 162.88142262113846 M 182.55497800879647 163.1721844943156 L 182.55497800879647 165.26852082465044 M 209.24430227908834 158.56185118698613 L 209.24430227908834 160.12594953924935 M 209.24430227908834 164.90956822550385 L 209.24430227908834 167.02360152900883 M 244.83006797281087 167.85415128348717 L 244.83006797281087 168.82440444732546 M 244.83006797281087 172.32949232107194 L 244.83006797281087 173.98424991131583 M 253.72650939624148 164.95764600926975 L 253.72650939624148 166.0149948567643 M 253.72650939624148 168.8244648465513 L 253.72650939624148 170.04960274341983 M 262.6229508196721 155.87897797455255 L 262.6229508196721 156.88939662357217 M 262.6229508196721 166.0149344575385 L 262.6229508196721 166.0149948567643 M 280.4158336665334 159.02674402825002 L 280.4158336665334 159.85970975176184 M 280.4158336665334 162.51202095592214 L 280.4158336665334 165.13914568290858 M 289.31227508996403 157.48052384683444 L 289.31227508996403 158.544154213816 M 289.31227508996403 159.85977015098769 L 289.31227508996403 161.89449927096928 M 307.10515793682526 160.02333125455306 L 307.10515793682526 160.20054258315747 M 307.10515793682526 163.2032900956214 L 307.10515793682526 164.11235884368728 M 316.0015993602559 158.55563006672497 L 316.0015993602559 158.92164937529444 M 316.0015993602559 160.20054258315747 L 316.0015993602559 161.95610648132254 M 342.6909236305478 163.2693668486866 L 342.6909236305478 163.863030839434 M 342.6909236305478 165.1747208269263 L 342.6909236305478 169.24629303979376 M 369.38024790083966 161.40248717730475 L 369.38024790083966 162.24789514133892 M 369.38024790083966 166.9116817635337 L 369.38024790083966 167.00729373803296 M 378.2766893242703 158.60998936997785 L 378.2766893242703 160.03547149894618 M 378.2766893242703 162.24789514133892 L 378.2766893242703 162.8372103878261 M 387.1731307477009 158.98446457016445 L 387.1731307477009 159.4426530973605 M 387.1731307477009 160.03547149894618 L 387.1731307477009 161.09239755185993 M 396.06957217113154 157.64964167917677 L 396.06957217113154 158.51679336451207 M 396.06957217113154 159.4393311399395 L 396.06957217113154 160.79040142267718 M 404.9660135945622 145.63019573770396 L 404.9660135945622 146.98603755928275 M 404.9660135945622 158.51679336451207 L 404.9660135945622 159.40967512005375 M 413.86245501799283 132.1007691503175 L 413.86245501799283 138.15784511410973 M 413.86245501799283 146.98603755928275 L 413.86245501799283 147.62337019031 M 422.7588964414235 135.21024209483457 L 422.7588964414235 136.28407993098253 M 422.7588964414235 138.15790551333555 L 422.7588964414235 140.85865689661676 M 431.65533786485406 129.85711910816727 L 431.65533786485406 131.9702464232847 M 431.65533786485406 136.28407993098253 L 431.65533786485406 138.4426878631549 M 458.34466213514594 131.8766880224639 L 458.34466213514594 132.03559838563984 M 458.34466213514594 138.62461033137456 L 458.34466213514594 140.83812115983233 M 476.13754498200717 132.13441151910843 L 476.13754498200717 132.5283956692402 M 476.13754498200717 135.5290896080257 L 476.13754498200717 138.72402745710153 M 485.0339864054379 126.12209138166105 L 485.0339864054379 126.5895209904101 M 485.0339864054379 132.52966405298278 L 485.0339864054379 134.31379678496856 M 493.93042782886846 113.57614538857106 L 493.93042782886846 115.83290206272781 M 493.93042782886846 126.5895209904101 L 493.93042782886846 127.8728233417592 M 511.7233106757297 109.75305559079517 L 511.7233106757297 112.29338663025449 M 511.7233106757297 117.11245966207504 L 511.7233106757297 118.20290728532807 M 520.6197520991603 110.29664862332409 L 520.6197520991603 110.44764668791545 M 520.6197520991603 112.29332623102866 L 520.6197520991603 119.53773017631575 M 529.5161935225909 100.71733140564777 L 529.5161935225909 101.4449004800748 M 529.5161935225909 110.44764668791545 L 529.5161935225909 110.840241655853 M 538.4126349460215 98.88119494021674 L 538.4126349460215 101.15444060302686 M 538.4126349460215 101.44484008084898 L 538.4126349460215 107.63908268651603 M 547.3090763694522 97.06921816512033 L 547.3090763694522 98.68978979354073 M 547.3090763694522 101.15444060302686 L 547.3090763694522 102.96073985089463 M 556.2055177928828 74.72150460559803 L 556.2055177928828 81.49630457000596 M 556.2055177928828 98.68972939431488 L 556.2055177928828 101.01612637586118 M 565.1019592163135 65.79383463547222 L 565.1019592163135 76.53317938456523 M 565.1019592163135 81.50765962446324 L 565.1019592163135 82.79694149917016 M 582.8948420631747 68.31918666692408 L 582.8948420631747 70.79839368983681 M 582.8948420631747 82.63531317083157 L 582.8948420631747 95.25724139002394 M 591.7912834866053 52.740957939936095 L 591.7912834866053 53.76683879076984 M 591.7912834866053 70.79839368983681 L 591.7912834866053 74.79398367660188 M 600.687724910036 32.04945155207773 L 600.687724910036 37.683008144304125 M 600.687724910036 53.76683879076984 L 600.687724910036 56.601736854634 M 609.5841663334666 22.476174256985075 L 609.5841663334666 30.733896014131915 M 609.5841663334666 37.68180015978737 L 609.5841663334666 55.39375233790307 M 654.0663734506197 47.23985684996924 L 654.0663734506197 50.130684596958076 M 654.0663734506197 70.19669660205312 L 654.0663734506197 80.27823338256033 M 662.9628148740503 33.65003103674621 L 662.9628148740503 39.42117706542828 M 662.9628148740503 50.130684596958076 L 662.9628148740503 54.17833871639422 M 698.5485805677728 49.53605421859723 L 698.5485805677728 54.60089170034675 M 698.5485805677728 59.470760481095795 L 698.5485805677728 65.661620730116 M 734.1343462614954 71.54130416762635 L 734.1343462614954 76.86465033595624 M 734.1343462614954 89.50729548961051 L 734.1343462614954 101.59916010286135 M 751.9272291083566 76.10464687725495 L 751.9272291083566 81.00362808485725 M 751.9272291083566 82.10229000282405 L 751.9272291083566 89.21731880636925 M 769.7201119552178 77.00532013292955 L 769.7201119552178 79.74810937739296 M 769.7201119552178 81.03811604280995 L 769.7201119552178 89.59559915778357 M 787.512994802079 71.79830287356083 L 787.512994802079 74.32975522682219 M 787.512994802079 92.46564957108458 L 787.512994802079 95.60695290761755 M 796.4094362255097 43.12123364017509 L 796.4094362255097 68.97029032144206 M 796.4094362255097 74.30970268384445 L 796.4094362255097 83.08438141492628 M 805.3058776489403 64.85831102648993 L 805.3058776489403 68.90578394824863 M 805.3058776489403 69.00604666313731 L 805.3058776489403 77.59046783283401 M 823.0987604958016 66.16130352546179 L 823.0987604958016 73.35424733033611 M 823.0987604958016 75.97194977809205 L 823.0987604958016 80.78462049197395 M 831.9952019192323 58.50835921661627 L 831.9952019192323 61.63758270798195 M 831.9952019192323 73.41029781191246 L 831.9952019192323 74.00879374072677 M 840.8916433426629 48.371557144468625 L 840.8916433426629 48.635864156729326 M 840.8916433426629 61.598504408865665 L 840.8916433426629 62.26488906752033 M 858.6845261895241 44.46076767077804 L 858.6845261895241 44.58084133174111 M 858.6845261895241 52.756420141750226 L 858.6845261895241 54.970957757047245 M 867.5809676129546 28.48281686720381 L 867.5809676129546 39.164842750977954 M 867.5809676129546 44.586398060518064 L 867.5809676129546 45.029607579706635 M 885.3738504598159 3.846153846153868 L 885.3738504598159 4.948137721541684 M 885.3738504598159 41.52796246183283 L 885.3738504598159 46.40097200232546" style="stroke-width: 1px;"></path><path class="candle wick down" d="M 4.626149540183927 191.92620234141705 L 4.626149540183927 192.55435429011715 M 4.626149540183927 192.73253200633496 L 4.626149540183927 193.68985973584424 M 13.522590963614554 192.3187973093546 L 13.522590963614554 192.7325924055608 M 13.522590963614554 194.01378078400563 L 13.522590963614554 196.15384615384616 M 49.10835665733706 179.45376220617015 L 49.10835665733706 181.6884127636707 M 49.10835665733706 181.74941598176562 L 49.10835665733706 184.24946073759196 M 58.004798080767685 180.70088542124316 L 58.004798080767685 181.74935558253978 M 58.004798080767685 186.3495418199287 L 58.004798080767685 189.2129483183877 M 75.79768092762893 180.1785529162087 L 75.79768092762893 182.3825206669843 M 75.79768092762893 183.26851691078062 L 75.79768092762893 186.42661123209612 M 84.69412235105956 182.4737234979975 L 84.69412235105956 183.26851691078062 M 84.69412235105956 183.45696249539063 L 84.69412235105956 184.81443509606703 M 120.27988804478207 177.23717101719473 L 120.27988804478207 177.2791484791511 M 120.27988804478207 178.7866527568055 L 120.27988804478207 181.20533975543 M 129.1763294682127 178.12497923776613 L 129.1763294682127 178.79202828790494 M 129.1763294682127 179.4718819739211 L 129.1763294682127 180.57283906246968 M 191.4514194322271 162.6023781977736 L 191.4514194322271 162.88142262113846 M 191.4514194322271 164.6291950191706 L 191.4514194322271 169.48269560971798 M 200.34786085565773 162.50573943643514 L 200.34786085565773 164.6325169765916 M 200.34786085565773 164.9096286247297 L 200.34786085565773 167.1323201355146 M 218.14074370251896 158.1678066376285 L 218.14074370251896 160.1260099384752 M 218.14074370251896 162.7889514063827 L 218.14074370251896 164.1107280645897 M 227.0371851259496 161.60560977379308 L 227.0371851259496 162.79064258470612 M 227.0371851259496 172.26945549059042 L 227.0371851259496 178.07665985709687 M 235.93362654938022 170.40825334643725 L 235.93362654938022 172.26945549059042 M 235.93362654938022 172.32955272029778 L 235.93362654938022 176.5661960173765 M 271.51939224310274 155.72894629757457 L 271.51939224310274 156.88939662357217 M 271.51939224310274 162.51202095592214 L 271.51939224310274 167.1255554222209 M 298.2087165133947 157.90935835027392 L 298.2087165133947 158.5414966478792 M 298.2087165133947 163.20322969639557 L 298.2087165133947 163.71789149974876 M 324.89804078368655 158.55013373717384 L 324.89804078368655 158.9260585187805 M 324.89804078368655 160.08433447264795 L 324.89804078368655 161.67899483318445 M 333.7944822071172 159.3115867772952 L 333.7944822071172 160.08433447264795 M 333.7944822071172 165.1747208269263 L 333.7944822071172 165.9243356187837 M 351.5873650539784 163.76615048119217 L 351.5873650539784 163.86297044020816 M 351.5873650539784 165.5943746480386 L 351.5873650539784 167.66914845474983 M 360.483806477409 165.36425359760136 L 360.483806477409 165.59328746197355 M 360.483806477409 166.9116817635337 L 360.483806477409 169.71541382686618 M 440.5517792882847 129.1110074714084 L 440.5517792882847 131.97030682251054 M 440.5517792882847 134.18140168193483 L 440.5517792882847 136.57031186222193 M 449.44822071171535 130.27206178966435 L 449.44822071171535 134.18128088348317 M 449.44822071171535 138.6256371182138 L 449.44822071171535 144.090015478872 M 467.2411035585766 130.28879237522108 L 467.2411035585766 132.03559838563984 M 467.2411035585766 135.52685483666977 L 467.2411035585766 139.34867625070308 M 502.82686925229905 104.18424696866555 L 502.82686925229905 115.83284166350195 M 502.82686925229905 117.111734871365 L 502.82686925229905 120.62491624137358 M 573.998400639744 72.90952783050162 L 573.998400639744 76.53317938456523 M 573.998400639744 82.64159469031857 L 573.998400639744 105.94790436309272 M 618.4806077568971 25.91893012966824 L 618.4806077568971 30.708830335409743 M 618.4806077568971 33.72118132478167 L 618.4806077568971 41.98512420218967 M 627.3770491803277 26.10012780717787 L 627.3770491803277 33.72118132478167 M 627.3770491803277 45.4277592764212 L 627.3770491803277 63.78254041511519 M 636.2734906037584 44.734859357624316 L 636.2734906037584 45.4277592764212 M 636.2734906037584 62.010668725974284 L 636.2734906037584 92.11648164652351 M 645.169932027189 54.62064224719526 L 645.169932027189 61.9750331827307 M 645.169932027189 70.1840731638533 L 645.169932027189 79.36620507242849 M 671.8592562974809 35.77753336761273 L 671.8592562974809 39.41688872039387 M 671.8592562974809 53.93076228969022 L 671.8592562974809 68.02927038290863 M 680.7556977209116 46.63586459160379 L 680.7556977209116 53.95969351886595 M 680.7556977209116 58.44403404110034 L 680.7556977209116 62.29255191295343 M 689.6521391443422 53.26467962716478 L 689.6521391443422 58.44403404110034 M 689.6521391443422 59.44889596134297 L 689.6521391443422 71.39954718458796 M 707.4450219912034 47.23985684996924 L 707.4450219912034 54.65410341830872 M 707.4450219912034 59.069105629282774 L 707.4450219912034 59.355579157425524 M 716.3414634146341 55.905273381512785 L 716.3414634146341 59.005988438283566 M 716.3414634146341 61.62556326204043 L 716.3414634146341 74.11751234723256 M 725.2379048380647 60.82968266319227 L 725.2379048380647 61.62556326204043 M 725.2379048380647 89.51852974561612 L 725.2379048380647 94.22441462821898 M 743.0307876849259 73.77927668254792 L 743.0307876849259 76.83547750987717 M 743.0307876849259 82.10229000282405 L 743.0307876849259 86.25679035276508 M 760.8236705317872 65.20862653634191 L 760.8236705317872 81.0063460500199 M 760.8236705317872 81.03805564358409 L 760.8236705317872 83.11699699687804 M 778.6165533786485 79.20741550770418 L 778.6165533786485 79.77081948630752 M 778.6165533786485 92.4417314776533 L 778.6165533786485 99.23320162839214 M 814.202319072371 68.42373772684712 L 814.202319072371 68.90572354902278 M 814.202319072371 75.97188937886621 L 814.202319072371 81.53653045441314 M 849.7880847660936 42.055972494095954 L 849.7880847660936 48.62746866433807 M 849.7880847660936 52.75635974252438 L 849.7880847660936 57.43554816730753 M 876.4774090363853 36.06600007020808 L 876.4774090363853 39.20065949189902 M 876.4774090363853 41.52796246183283 L 876.4774090363853 50.25377821921293" style="stroke-width: 1px;"></path><path class="candle wick equal" style="stroke-width: 1px;"></path></g></g><g class="x axis" transform="translate(0,200)" fill="none" font-size="10" font-family="sans-serif" text-anchor="middle"><path class="domain" stroke="#000" d="M0.5,6V0.5H890.5V6"></path><g class="tick" opacity="1" transform="translate(13.522590963614554,0)"><line stroke="#000" y2="6" x1="0.5" x2="0.5"></line><text fill="#000" y="9" x="0.5" dy="0.71em">Nov  2</text></g><g class="tick" opacity="1" transform="translate(75.79768092762893,0)"><line stroke="#000" y2="6" x1="0.5" x2="0.5"></line><text fill="#000" y="9" x="0.5" dy="0.71em">Nov  9</text></g><g class="tick" opacity="1" transform="translate(138.07277089164333,0)"><line stroke="#000" y2="6" x1="0.5" x2="0.5"></line><text fill="#000" y="9" x="0.5" dy="0.71em">Nov 16</text></g><g class="tick" opacity="1" transform="translate(200.34786085565773,0)"><line stroke="#000" y2="6" x1="0.5" x2="0.5"></line><text fill="#000" y="9" x="0.5" dy="0.71em">Nov 23</text></g><g class="tick" opacity="1" transform="translate(262.6229508196721,0)"><line stroke="#000" y2="6" x1="0.5" x2="0.5"></line><text fill="#000" y="9" x="0.5" dy="0.71em">Nov 30</text></g><g class="tick" opacity="1" transform="translate(324.89804078368655,0)"><line stroke="#000" y2="6" x1="0.5" x2="0.5"></line><text fill="#000" y="9" x="0.5" dy="0.71em">Dec  7</text></g><g class="tick" opacity="1" transform="translate(387.1731307477009,0)"><line stroke="#000" y2="6" x1="0.5" x2="0.5"></line><text fill="#000" y="9" x="0.5" dy="0.71em">Dec 14</text></g><g class="tick" opacity="1" transform="translate(449.44822071171535,0)"><line stroke="#000" y2="6" x1="0.5" x2="0.5"></line><text fill="#000" y="9" x="0.5" dy="0.71em">Dec 21</text></g><g class="tick" opacity="1" transform="translate(511.7233106757297,0)"><line stroke="#000" y2="6" x1="0.5" x2="0.5"></line><text fill="#000" y="9" x="0.5" dy="0.71em">Dec 28</text></g><g class="tick" opacity="1" transform="translate(573.998400639744,0)"><line stroke="#000" y2="6" x1="0.5" x2="0.5"></line><text fill="#000" y="9" x="0.5" dy="0.71em">Jan  4</text></g><g class="tick" opacity="1" transform="translate(636.2734906037584,0)"><line stroke="#000" y2="6" x1="0.5" x2="0.5"></line><text fill="#000" y="9" x="0.5" dy="0.71em">Jan 11</text></g><g class="tick" opacity="1" transform="translate(698.5485805677728,0)"><line stroke="#000" y2="6" x1="0.5" x2="0.5"></line><text fill="#000" y="9" x="0.5" dy="0.71em">Jan 18</text></g><g class="tick" opacity="1" transform="translate(760.8236705317872,0)"><line stroke="#000" y2="6" x1="0.5" x2="0.5"></line><text fill="#000" y="9" x="0.5" dy="0.71em">Jan 25</text></g><g class="tick" opacity="1" transform="translate(823.0987604958016,0)"><line stroke="#000" y2="6" x1="0.5" x2="0.5"></line><text fill="#000" y="9" x="0.5" dy="0.71em">Feb  1</text></g><g class="tick" opacity="1" transform="translate(885.3738504598159,0)"><line stroke="#000" y2="6" x1="0.5" x2="0.5"></line><text fill="#000" y="9" x="0.5" dy="0.71em">Feb  8</text></g></g><g class="y axis" fill="none" font-size="10" font-family="sans-serif" text-anchor="end"><path class="domain" stroke="#000" d="M-6,200.5H0.5V0.5H-6"></path><g class="tick" opacity="1" transform="translate(0,185.25208788647865)"><line stroke="#000" x2="-6" y1="0.5" y2="0.5"></line><text fill="#000" x="-9" y="0.5" dy="0.32em">15,000</text></g><g class="tick" opacity="1" transform="translate(0,155.05247496820525)"><line stroke="#000" x2="-6" y1="0.5" y2="0.5"></line><text fill="#000" x="-9" y="0.5" dy="0.32em">20,000</text></g><g class="tick" opacity="1" transform="translate(0,124.85286204993186)"><line stroke="#000" x2="-6" y1="0.5" y2="0.5"></line><text fill="#000" x="-9" y="0.5" dy="0.32em">25,000</text></g><g class="tick" opacity="1" transform="translate(0,94.65324913165847)"><line stroke="#000" x2="-6" y1="0.5" y2="0.5"></line><text fill="#000" x="-9" y="0.5" dy="0.32em">30,000</text></g><g class="tick" opacity="1" transform="translate(0,64.4536362133851)"><line stroke="#000" x2="-6" y1="0.5" y2="0.5"></line><text fill="#000" x="-9" y="0.5" dy="0.32em">35,000</text></g><g class="tick" opacity="1" transform="translate(0,34.25402329511169)"><line stroke="#000" x2="-6" y1="0.5" y2="0.5"></line><text fill="#000" x="-9" y="0.5" dy="0.32em">40,000</text></g><g class="tick" opacity="1" transform="translate(0,4.054410376838291)"><line stroke="#000" x2="-6" y1="0.5" y2="0.5"></line><text fill="#000" x="-9" y="0.5" dy="0.32em">45,000</text></g><text transform="rotate(-90)" y="6" dy=".71em" style="text-anchor: end;">Price ($)</text></g></g></svg>