<?xml version="1.0" encoding="utf-8"?>
<!DOCTYPE svg PUBLIC "-//W3C//DTD SVG 1.1//EN" "http://www.w3.org/Graphics/SVG/1.1/DTD/svg11.dtd">
<svg version="1.1" xmlns="http://www.w3.org/2000/svg" width="960" height="250"><g transform="translate(50,20)"><style>.axis path,.axis line{fill:none;stroke:#000;shape-rendering:crispEdges;}path.candle{stroke:#000000;}path.candle.body{stroke-width:0;}path.candle.up{fill:#00AA00;stroke:#00AA00;}path.candle.down{fill:#FF0000;stroke:#FF0000;}</style><g class="candlestick"><g class="data"><path class="candle body up" d="M 1.0675729708116766 70.6164403735587 l 7.1171531387445 0 L 8.184726109556177 45.835691846514436 l -7.1171531387445 0 L 1.0675729708116766 70.6164403735587 M 18.860455817672932 50.40191471348925 l 7.1171531387445 0 L 25.977608956417434 46.66137679713549 l -7.1171531387445 0 L 18.860455817672932 50.40191471348925 M 27.75689724110356 46.66143410055355 l 7.1171531387445 0 L 34.87405037984806 43.90215991481509 l -7.1171531387445 0 L 27.75689724110356 46.66143410055355 M 36.65333866453418 43.926456564066456 l 7.1171531387445 0 L 43.77049180327868 30.889986262078622 l -7.1171531387445 0 L 36.65333866453418 43.926456564066456 M 45.54978008796481 30.889986262078622 l 7.1171531387445 0 L 52.66693322670931 21.02909947793151 l -7.1171531387445 0 L 45.54978008796481 30.889986262078622 M 72.23910435825668 51.47543694715813 l 7.1171531387445 0 L 79.35625749700118 48.045712770284496 l -7.1171531387445 0 L 72.23910435825668 51.47543694715813 M 90.03198720511796 50.53571819462604 l 7.1171531387445 0 L 97.14914034386246 37.77676834623372 l -7.1171531387445 0 L 90.03198720511796 50.53571819462604 M 116.72131147540982 64.51076118078507 l 7.1171531387445 0 L 123.83846461415432 52.11918354548399 l -7.1171531387445 0 L 116.72131147540982 64.51076118078507 M 125.61775289884046 52.1191262420659 l 7.1171531387445 0 L 132.73490603758498 42.504701458933596 l -7.1171531387445 0 L 125.61775289884046 52.1191262420659 M 161.20351859256294 50.19820106233661 l 7.1171531387445 0 L 168.32067173130744 36.96758678000981 l -7.1171531387445 0 L 161.20351859256294 50.19820106233661 M 196.78928428628546 50.03167732949572 l 7.1171531387445 0 L 203.90643742502996 46.9921321260955 l -7.1171531387445 0 L 196.78928428628546 50.03167732949572 M 205.68572570971608 46.99207482267744 l 7.1171531387445 0 L 212.80287884846058 36.660440459284644 l -7.1171531387445 0 L 205.68572570971608 46.99207482267744 M 214.5821671331467 36.66049776270265 l 7.1171531387445 0 L 221.6993202718912 12.293651824202755 l -7.1171531387445 0 L 214.5821671331467 36.66049776270265 M 259.06437425029986 31.797500493668963 l 7.1171531387445 0 L 266.1815273890444 30.32033298328588 l -7.1171531387445 0 L 259.06437425029986 31.797500493668963 M 267.9608156737305 30.32027567986782 l 7.1171531387445 0 L 275.07796881247504 23.79290063369561 l -7.1171531387445 0 L 267.9608156737305 30.32027567986782 M 294.65013994402244 55.08188486528482 l 7.1171531387445 0 L 301.76729308276697 53.443007109176676 l -7.1171531387445 0 L 294.65013994402244 55.08188486528482 M 312.4430227908837 73.23130994582192 l 7.1171531387445 0 L 319.5601759296282 66.58056064059724 l -7.1171531387445 0 L 312.4430227908837 73.23130994582192 M 321.3394642143143 66.552711179427 l 7.1171531387445 0 L 328.45661735305885 57.09529776173997 l -7.1171531387445 0 L 321.3394642143143 66.552711179427 M 348.02878848460614 76.94336806340694 l 7.1171531387445 0 L 355.14594162335067 69.50859339248044 l -7.1171531387445 0 L 348.02878848460614 76.94336806340694 M 365.8216713314674 71.81780653288766 l 7.1171531387445 0 L 372.93882447021196 61.37672264102744 l -7.1171531387445 0 L 365.8216713314674 71.81780653288766 M 383.61455417832866 91.38445974853198 l 7.1171531387445 0 L 390.7317073170732 85.66953256341228 l -7.1171531387445 0 L 383.61455417832866 91.38445974853198 M 392.5109956017593 85.69566292204112 l 7.1171531387445 0 L 399.62814874050383 71.0350991458009 l -7.1171531387445 0 L 392.5109956017593 85.69566292204112 M 401.40743702518995 71.03504184238284 l 7.1171531387445 0 L 408.5245901639345 68.16207767524162 l -7.1171531387445 0 L 401.40743702518995 71.03504184238284 M 419.20031987205124 72.89356359986034 l 7.1171531387445 0 L 426.31747301079577 71.55547148507426 l -7.1171531387445 0 L 419.20031987205124 72.89356359986034 M 454.7860855657737 117.57934202610906 l 7.1171531387445 0 L 461.90323870451823 116.18188357022757 l -7.1171531387445 0 L 454.7860855657737 117.57934202610906 M 463.68252698920435 116.18194087364563 l 7.1171531387445 0 L 470.7996801279489 110.19029548278304 l -7.1171531387445 0 L 463.68252698920435 116.18194087364563 M 472.57896841263494 110.19035278620105 l 7.1171531387445 0 L 479.69612155137946 109.34776332725652 l -7.1171531387445 0 L 472.57896841263494 110.19035278620105 M 508.16473410635746 129.10833130956763 l 7.1171531387445 0 L 515.281887245102 116.21821393726859 l -7.1171531387445 0 L 508.16473410635746 129.10833130956763 M 517.0611755297881 116.21821393726859 l 7.1171531387445 0 L 524.1783286685326 112.41378270979384 l -7.1171531387445 0 L 517.0611755297881 116.21821393726859 M 534.8540583766493 131.61696034477404 l 7.1171531387445 0 L 541.9712115153937 122.21622000753428 l -7.1171531387445 0 L 534.8540583766493 131.61696034477404 M 543.75049980008 122.25249307115723 l 7.1171531387445 0 L 550.8676529388244 119.22670068808797 l -7.1171531387445 0 L 543.75049980008 122.25249307115723 M 570.4398240703717 134.87712370765036 l 7.1171531387445 0 L 577.5569772091162 130.86215972227552 l -7.1171531387445 0 L 570.4398240703717 134.87712370765036 M 588.232706917233 131.74027730040848 l 7.1171531387445 0 L 595.3498600559775 130.40556608728707 l -7.1171531387445 0 L 588.232706917233 131.74027730040848 M 597.1291483406637 130.40550878386907 l 7.1171531387445 0 L 604.2463014794082 119.08401517715411 l -7.1171531387445 0 L 597.1291483406637 130.40550878386907 M 614.9220311875249 120.81291660301213 l 7.1171531387445 0 L 622.0391843262694 107.91598012396565 l -7.1171531387445 0 L 614.9220311875249 120.81291660301213 M 641.6113554578168 110.4324024240263 l 7.1171531387445 0 L 648.7285085965613 108.27882536703129 l -7.1171531387445 0 L 641.6113554578168 110.4324024240263 M 677.1971211515394 132.9813547284431 l 7.1171531387445 0 L 684.3142742902838 129.2210471328636 l -7.1171531387445 0 L 677.1971211515394 132.9813547284431 M 694.9900039984005 134.40093230369024 l 7.1171531387445 0 L 702.107157137145 125.77264204170703 l -7.1171531387445 0 L 694.9900039984005 134.40093230369024 M 757.265093962415 161.0496003487715 l 7.1171531387445 0 L 764.3822471011595 160.40058183598546 l -7.1171531387445 0 L 757.265093962415 161.0496003487715 M 766.1615353858456 160.40058183598546 l 7.1171531387445 0 L 773.27868852459 159.3411562431558 l -7.1171531387445 0 L 766.1615353858456 160.40058183598546 M 783.9544182327068 159.58257554338255 l 7.1171531387445 0 L 791.0715713714512 154.3863015949948 l -7.1171531387445 0 L 783.9544182327068 159.58257554338255 M 792.8508596561375 154.3863015949948 l 7.1171531387445 0 L 799.9680127948819 147.66249043176174 l -7.1171531387445 0 L 792.8508596561375 154.3863015949948 M 810.6437425029987 155.3658462230687 l 7.1171531387445 0 L 817.7608956417432 152.4914494704763 l -7.1171531387445 0 L 810.6437425029987 155.3658462230687 M 819.5401839264293 152.4914494704763 l 7.1171531387445 0 L 826.6573370651738 152.35203025437102 l -7.1171531387445 0 L 819.5401839264293 152.4914494704763 M 846.2295081967213 157.40997375159634 l 7.1171531387445 0 L 853.3466613354658 156.54761461342596 l -7.1171531387445 0 L 846.2295081967213 157.40997375159634"></path><path class="candle body down" d="M 9.964014394242305 45.835691846514436 l 7.1171531387445 0 L 17.081167532986804 50.40191471348925 l -7.1171531387445 0 L 9.964014394242305 45.835691846514436 M 54.446221511395436 21.02915678134957 l 7.1171531387445 0 L 61.563374650139934 42.85173095861859 l -7.1171531387445 0 L 54.446221511395436 21.02915678134957 M 63.342662934826066 42.85173095861859 l 7.1171531387445 0 L 70.45981607357056 51.47549425057619 l -7.1171531387445 0 L 63.342662934826066 42.85173095861859 M 81.13554578168731 48.045712770284496 l 7.1171531387445 0 L 88.25269892043181 50.53571819462604 l -7.1171531387445 0 L 81.13554578168731 48.045712770284496 M 98.92842862854857 37.77676834623372 l 7.1171531387445 0 L 106.04558176729307 53.535036398558134 l -7.1171531387445 0 L 98.92842862854857 37.77676834623372 M 107.82487005197919 53.535036398558134 l 7.1171531387445 0 L 114.94202319072369 64.51076118078507 l -7.1171531387445 0 L 107.82487005197919 53.535036398558134 M 134.51419432227107 42.504758762351656 l 7.1171531387445 0 L 141.63134746101557 44.76543590767412 l -7.1171531387445 0 L 134.51419432227107 42.504758762351656 M 143.4106357457017 44.76543590767412 l 7.1171531387445 0 L 150.5277888844462 47.970931809734765 l -7.1171531387445 0 L 143.4106357457017 44.76543590767412 M 152.30707716913233 47.97087450631676 l 7.1171531387445 0 L 159.42423030787683 50.19825836575467 l -7.1171531387445 0 L 152.30707716913233 47.97087450631676 M 170.09996001599356 36.96426318176316 l 7.1171531387445 0 L 177.21711315473806 38.82140965720754 l -7.1171531387445 0 L 170.09996001599356 36.96426318176316 M 178.9964014394242 38.82135235378951 l 7.1171531387445 0 L 186.1135545781687 47.42534596652129 l -7.1171531387445 0 L 178.9964014394242 38.82135235378951 M 187.89284286285485 47.42534596652129 l 7.1171531387445 0 L 195.00999600159935 50.04921217541769 l -7.1171531387445 0 L 187.89284286285485 47.42534596652129 M 223.47860855657734 12.293709127620787 l 7.1171531387445 0 L 230.59576169532184 15.606763545353317 l -7.1171531387445 0 L 223.47860855657734 12.293709127620787 M 232.37504998000796 15.606706241935285 l 7.1171531387445 0 L 239.49220311875246 27.441237350413758 l -7.1171531387445 0 L 232.37504998000796 15.606706241935285 M 241.2714914034386 27.441294653831818 l 7.1171531387445 0 L 248.3886445421831 28.061088423414503 l -7.1171531387445 0 L 241.2714914034386 27.441294653831818 M 250.16793282686922 28.061145726832592 l 7.1171531387445 0 L 257.28508596561375 31.797443190250902 l -7.1171531387445 0 L 250.16793282686922 28.061145726832592 M 276.85725709716115 23.79284333027755 l 7.1171531387445 0 L 283.9744102359057 34.75137708709079 l -7.1171531387445 0 L 276.85725709716115 23.79284333027755 M 285.7536985205918 34.75143439050882 l 7.1171531387445 0 L 292.8708516593363 55.08188486528482 l -7.1171531387445 0 L 285.7536985205918 34.75143439050882 M 303.54658136745303 53.44306441259471 l 7.1171531387445 0 L 310.66373450619756 73.23130994582192 l -7.1171531387445 0 L 303.54658136745303 53.44306441259471 M 330.23590563774496 57.09524045832194 l 7.1171531387445 0 L 337.3530587764895 63.31552648718707 l -7.1171531387445 0 L 330.23590563774496 57.09524045832194 M 339.13234706117555 63.34028156378281 l 7.1171531387445 0 L 346.2495001999201 76.92417141836161 l -7.1171531387445 0 L 339.13234706117555 63.34028156378281 M 356.9252299080368 69.50865069589844 l 7.1171531387445 0 L 364.0423830467813 71.81780653288766 l -7.1171531387445 0 L 356.9252299080368 69.50865069589844 M 374.7181127548981 61.37666533760938 l 7.1171531387445 0 L 381.8352658936426 91.36835748806114 l -7.1171531387445 0 L 374.7181127548981 61.37666533760938 M 410.3038784486206 68.16207767524162 l 7.1171531387445 0 L 417.4210315873651 72.89356359986034 l -7.1171531387445 0 L 410.3038784486206 68.16207767524162 M 428.0967612954818 71.55547148507426 l 7.1171531387445 0 L 435.21391443422635 75.58808492320715 l -7.1171531387445 0 L 428.0967612954818 71.55547148507426 M 436.99320271891247 75.56562198333319 l 7.1171531387445 0 L 444.110355857657 92.08740077769906 l -7.1171531387445 0 L 436.99320271891247 75.56562198333319 M 445.8896441423431 92.08740077769906 l 7.1171531387445 0 L 453.00679728108764 117.579284722691 l -7.1171531387445 0 L 445.8896441423431 92.08740077769906 M 481.47540983606564 109.34776332725652 l 7.1171531387445 0 L 488.59256297481016 110.02256837816313 l -7.1171531387445 0 L 481.47540983606564 109.34776332725652 M 490.3718512594962 110.02256837816313 l 7.1171531387445 0 L 497.48900439824075 126.78725636162494 l -7.1171531387445 0 L 490.3718512594962 110.02256837816313 M 499.2682926829268 126.84278337371123 l 7.1171531387445 0 L 506.38544582167134 129.10833130956763 l -7.1171531387445 0 L 499.2682926829268 126.84278337371123 M 525.9576169532187 112.41378270979384 l 7.1171531387445 0 L 533.0747700919632 131.61701764819207 l -7.1171531387445 0 L 525.9576169532187 112.41378270979384 M 552.6469412235106 119.22670068808797 l 7.1171531387445 0 L 559.764094362255 126.28991999640596 l -7.1171531387445 0 L 552.6469412235106 119.22670068808797 M 561.5433826469413 126.28991999640596 l 7.1171531387445 0 L 568.6605357856857 134.89219450659638 l -7.1171531387445 0 L 561.5433826469413 126.28991999640596 M 579.3362654938024 130.8622170256936 l 7.1171531387445 0 L 586.4534186325469 131.7403346038265 l -7.1171531387445 0 L 579.3362654938024 130.8622170256936 M 606.0255897640943 119.09713765988658 l 7.1171531387445 0 L 613.1427429028388 120.81297390643016 l -7.1171531387445 0 L 606.0255897640943 119.09713765988658 M 623.8184726109555 107.91592282054759 l 7.1171531387445 0 L 630.9356257497 108.02376785330968 l -7.1171531387445 0 L 623.8184726109555 107.91592282054759 M 632.7149140343862 108.02382515672774 l 7.1171531387445 0 L 639.8320671731307 110.43245972744431 l -7.1171531387445 0 L 632.7149140343862 108.02382515672774 M 650.5077968812475 108.27888267044929 l 7.1171531387445 0 L 657.624950019992 108.70315717765996 l -7.1171531387445 0 L 650.5077968812475 108.27888267044929 M 659.4042383046781 108.70315717765996 l 7.1171531387445 0 L 666.5213914434225 126.79785749396338 l -7.1171531387445 0 L 659.4042383046781 108.70315717765996 M 668.3006797281087 126.79785749396338 l 7.1171531387445 0 L 675.4178328668531 132.9813547284431 l -7.1171531387445 0 L 668.3006797281087 126.79785749396338 M 686.09356257497 129.22098982944556 l 7.1171531387445 0 L 693.2107157137144 134.40093230369024 l -7.1171531387445 0 L 686.09356257497 129.22098982944556 M 703.8864454218311 125.77258473828897 l 7.1171531387445 0 L 711.0035985605756 128.27376432914946 l -7.1171531387445 0 L 703.8864454218311 125.77258473828897 M 712.7828868452618 128.27376432914946 l 7.1171531387445 0 L 719.9000399840063 133.087709872336 l -7.1171531387445 0 L 712.7828868452618 128.27376432914946 M 721.6793282686924 133.087709872336 l 7.1171531387445 0 L 728.7964814074369 136.60665547110688 l -7.1171531387445 0 L 721.6793282686924 133.087709872336 M 730.5757696921231 136.60665547110688 l 7.1171531387445 0 L 737.6929228308676 150.2499116667811 l -7.1171531387445 0 L 730.5757696921231 136.60665547110688 M 739.4722111155537 150.24985436336306 l 7.1171531387445 0 L 746.5893642542982 152.36337633114408 l -7.1171531387445 0 L 739.4722111155537 150.24985436336306 M 748.3686525389844 152.3634336345621 l 7.1171531387445 0 L 755.4858056777289 161.0496003487715 l -7.1171531387445 0 L 748.3686525389844 152.3634336345621 M 775.0579768092763 159.3411562431558 l 7.1171531387445 0 L 782.1751299480208 159.58257554338255 l -7.1171531387445 0 L 775.0579768092763 159.3411562431558 M 801.747301079568 147.6625477351798 l 7.1171531387445 0 L 808.8644542183125 155.35576082149262 l -7.1171531387445 0 L 801.747301079568 147.6625477351798 M 828.43662534986 152.35203025437102 l 7.1171531387445 0 L 835.5537784886045 152.42440447136278 l -7.1171531387445 0 L 828.43662534986 152.35203025437102 M 837.3330667732906 152.42440447136278 l 7.1171531387445 0 L 844.4502199120351 157.41003105501437 l -7.1171531387445 0 L 837.3330667732906 152.42440447136278 M 855.1259496201519 156.54761461342596 l 7.1171531387445 0 L 862.2431027588964 160.5136414797897 l -7.1171531387445 0 L 855.1259496201519 156.54761461342596 M 864.0223910435824 160.51369878320776 l 7.1171531387445 0 L 871.1395441823269 166.1242191406481 l -7.1171531387445 0 L 864.0223910435824 160.51369878320776 M 872.9188324670131 166.1241618372301 l 7.1171531387445 0 L 880.0359856057576 190.3956548881019 l -7.1171531387445 0 L 872.9188324670131 166.1241618372301 M 881.8152738904437 190.3956548881019 l 7.1171531387445 0 L 888.9324270291881 191.90353703055752 l -7.1171531387445 0 L 881.8152738904437 190.3956548881019"></path><path class="candle body equal"></path><path class="candle wick up" d="M 4.626149540183927 38.612137574504516 L 4.626149540183927 45.835691846514436 M 4.626149540183927 70.6164403735587 L 4.626149540183927 73.4698067717283 M 22.41903238704518 45.57226803375815 L 22.41903238704518 46.66137679713549 M 22.41903238704518 50.40191471348925 L 22.41903238704518 61.36159453866338 M 31.315473810475808 39.97148925738557 L 31.315473810475808 43.90215991481509 M 31.315473810475808 46.66143410055355 L 31.315473810475808 56.31058475502161 M 40.21191523390643 29.712916752001036 L 40.21191523390643 30.889986262078622 M 40.21191523390643 43.926456564066456 L 40.21191523390643 47.842457546476254 M 49.10835665733706 15.306837455301917 L 49.10835665733706 21.02909947793151 M 49.10835665733706 30.889986262078622 L 49.10835665733706 35.46961812887611 M 75.79768092762893 45.40465553597437 L 75.79768092762893 48.045712770284496 M 75.79768092762893 51.47543694715813 L 75.79768092762893 57.92826024645285 M 93.5905637744902 34.156051877013596 L 93.5905637744902 37.77676834623372 M 93.5905637744902 50.53571819462604 L 93.5905637744902 51.694507914346985 M 120.27988804478207 41.09910591768963 L 120.27988804478207 52.11918354548399 M 120.27988804478207 64.51076118078507 L 120.27988804478207 67.91137522129148 M 129.1763294682127 38.34281150968951 L 129.1763294682127 42.504701458933596 M 129.1763294682127 52.1191262420659 L 129.1763294682127 54.41750903646255 M 164.7620951619352 30.950670581789012 L 164.7620951619352 36.96758678000981 M 164.7620951619352 50.19820106233661 L 164.7620951619352 51.839600168838814 M 200.34786085565773 46.47708900470039 L 200.34786085565773 46.9921321260955 M 200.34786085565773 50.03167732949572 L 200.34786085565773 55.1327129970914 M 209.24430227908834 36.58732129785827 L 209.24430227908834 36.660440459284644 M 209.24430227908834 46.99207482267744 L 209.24430227908834 47.839248555065694 M 218.14074370251896 10.78559777149303 L 218.14074370251896 12.293651824202755 M 218.14074370251896 36.66049776270265 L 218.14074370251896 36.66049776270265 M 262.6229508196721 26.767521064449994 L 262.6229508196721 30.32033298328588 M 262.6229508196721 31.797500493668963 L 262.6229508196721 36.16402094875437 M 271.51939224310274 23.61291059761396 L 271.51939224310274 23.79290063369561 M 271.51939224310274 30.32027567986782 L 271.51939224310274 34.92598060187618 M 298.2087165133947 50.604424992862874 L 298.2087165133947 53.443007109176676 M 298.2087165133947 55.08188486528482 L 298.2087165133947 64.74249620336207 M 316.0015993602559 65.04620431900449 L 316.0015993602559 66.58056064059724 M 316.0015993602559 73.23130994582192 L 316.0015993602559 80.63273402744584 M 324.89804078368655 56.30743306702911 L 324.89804078368655 57.09529776173997 M 324.89804078368655 66.552711179427 L 324.89804078368655 70.58744484402757 M 351.5873650539784 66.82266758184048 L 351.5873650539784 69.50859339248044 M 351.5873650539784 76.94336806340694 L 351.5873650539784 82.25442075814028 M 369.38024790083966 58.86373854604955 L 369.38024790083966 61.37672264102744 M 369.38024790083966 71.81780653288766 L 369.38024790083966 72.61025550104219 M 387.1731307477009 82.46644340490951 L 387.1731307477009 85.66953256341228 M 387.1731307477009 91.38445974853198 L 387.1731307477009 92.03611421854814 M 396.06957217113154 70.0599668809165 L 396.06957217113154 71.0350991458009 M 396.06957217113154 85.69566292204112 L 396.06957217113154 94.06098779861243 M 404.9660135945622 61.91760960396121 L 404.9660135945622 68.16207767524162 M 404.9660135945622 71.03504184238284 L 404.9660135945622 74.52035033476088 M 422.7588964414235 60.84271208825919 L 422.7588964414235 71.55547148507426 M 422.7588964414235 72.89356359986034 L 422.7588964414235 75.71604345570326 M 458.34466213514594 114.44719449914692 L 458.34466213514594 116.18188357022757 M 458.34466213514594 117.57934202610906 L 458.34466213514594 125.74651168307818 M 467.2411035585766 107.61628324758642 L 467.2411035585766 110.19029548278304 M 467.2411035585766 116.18194087364563 L 467.2411035585766 129.34063936632506 M 476.13754498200717 101.62681538660955 L 476.13754498200717 109.34776332725652 M 476.13754498200717 110.19035278620105 L 476.13754498200717 112.49492434974661 M 511.7233106757297 115.66970561973477 L 511.7233106757297 116.21821393726859 M 511.7233106757297 129.10833130956763 L 511.7233106757297 131.3405286561214 M 520.6197520991603 108.27017255090637 L 520.6197520991603 112.41378270979384 M 520.6197520991603 116.21821393726859 L 520.6197520991603 120.5273736708902 M 538.4126349460215 120.16974303886671 L 538.4126349460215 122.21622000753428 M 538.4126349460215 131.61696034477404 L 538.4126349460215 133.98221622803 M 547.3090763694522 115.5878190353474 L 547.3090763694522 119.22670068808797 M 547.3090763694522 122.25249307115723 L 547.3090763694522 132.50951838425448 M 573.998400639744 127.66525933292174 L 573.998400639744 130.86215972227552 M 573.998400639744 134.87712370765036 L 573.998400639744 138.5091862536435 M 591.7912834866053 126.8332137028976 L 591.7912834866053 130.40556608728707 M 591.7912834866053 131.74027730040848 L 591.7912834866053 138.17195563844433 M 600.687724910036 116.56793669760174 L 600.687724910036 119.08401517715411 M 600.687724910036 130.40550878386907 L 600.687724910036 132.03390001447485 M 618.4806077568971 104.84342815177109 L 618.4806077568971 107.91598012396565 M 618.4806077568971 120.81291660301213 L 618.4806077568971 124.63935234301644 M 645.169932027189 105.38781062320562 L 645.169932027189 108.27882536703129 M 645.169932027189 110.4324024240263 L 645.169932027189 116.09208911414991 M 680.7556977209116 124.75636592266584 L 680.7556977209116 129.2210471328636 M 680.7556977209116 132.9813547284431 L 680.7556977209116 136.21704953181387 M 698.5485805677728 124.44331734988198 L 698.5485805677728 125.77264204170703 M 698.5485805677728 134.40093230369024 L 698.5485805677728 134.4499840295374 M 760.8236705317872 156.84628002828038 L 760.8236705317872 160.40058183598546 M 760.8236705317872 161.0496003487715 L 760.8236705317872 167.15516493470906 M 769.7201119552178 154.05732267199423 L 769.7201119552178 159.3411562431558 M 769.7201119552178 160.40058183598546 L 769.7201119552178 163.14954140647575 M 787.512994802079 152.26200658462116 L 787.512994802079 154.3863015949948 M 787.512994802079 159.58257554338255 L 787.512994802079 162.75466355272252 M 796.4094362255097 145.2595288994317 L 796.4094362255097 147.66249043176174 M 796.4094362255097 154.3863015949948 L 796.4094362255097 155.98672875759428 M 814.202319072371 150.26337797002185 L 814.202319072371 152.4914494704763 M 814.202319072371 155.3658462230687 L 814.202319072371 160.13578274119612 M 823.0987604958016 148.25076732141935 L 823.0987604958016 152.35203025437102 M 823.0987604958016 152.4914494704763 L 823.0987604958016 155.385042868114 M 849.7880847660936 154.60571638269192 L 849.7880847660936 156.54761461342596 M 849.7880847660936 157.40997375159634 L 849.7880847660936 162.8631389230831" style="stroke-width: 1px;"></path><path class="candle wick down" d="M 13.522590963614554 41.790070532485174 L 13.522590963614554 45.835691846514436 M 13.522590963614554 50.40191471348925 L 13.522590963614554 54.559678816634005 M 58.004798080767685 17.371250393817746 L 58.004798080767685 21.02915678134957 M 58.004798080767685 42.85173095861859 L 58.004798080767685 43.95854647817205 M 66.90123950419832 34.03135963934608 L 66.90123950419832 42.85173095861859 M 66.90123950419832 51.47549425057619 L 66.90123950419832 55.41923008732013 M 84.69412235105956 46.82371738045907 L 84.69412235105956 48.045712770284496 M 84.69412235105956 50.53571819462604 L 84.69412235105956 58.22348745622452 M 102.48700519792082 36.54646396079164 L 102.48700519792082 37.77676834623372 M 102.48700519792082 53.535036398558134 L 102.48700519792082 56.464730949564625 M 111.38344662135144 46.84663874767739 L 111.38344662135144 53.535036398558134 M 111.38344662135144 64.51076118078507 L 111.38344662135144 66.87991369646818 M 138.07277089164333 41.89992118487885 L 138.07277089164333 42.504758762351656 M 138.07277089164333 44.76543590767412 L 138.07277089164333 51.562710052841794 M 146.96921231507397 41.63603894477819 L 146.96921231507397 44.76543590767412 M 146.96921231507397 47.970931809734765 L 146.96921231507397 55.73233596352202 M 155.8656537385046 41.450146656637855 L 155.8656537385046 47.97087450631676 M 155.8656537385046 50.19825836575467 L 155.8656537385046 58.82878346104167 M 173.65853658536582 35.363033771311024 L 173.65853658536582 36.96426318176316 M 173.65853658536582 38.82140965720754 L 173.65853658536582 53.225884458201364 M 182.55497800879647 37.73361887244528 L 182.55497800879647 38.82135235378951 M 182.55497800879647 47.42534596652129 L 182.55497800879647 51.539731382205446 M 191.4514194322271 40.54486725835122 L 191.4514194322271 47.42534596652129 M 191.4514194322271 50.04921217541769 L 191.4514194322271 51.28765364622225 M 227.0371851259496 6.5723639596799615 L 227.0371851259496 12.293709127620787 M 227.0371851259496 15.606763545353317 L 227.0371851259496 19.762751242538712 M 235.93362654938022 3.846153846153868 L 235.93362654938022 15.606706241935285 M 235.93362654938022 27.441237350413758 L 235.93362654938022 39.24304820718808 M 244.83006797281087 23.32891485777921 L 244.83006797281087 27.441294653831818 M 244.83006797281087 28.061088423414503 L 244.83006797281087 31.924828688566606 M 253.72650939624148 24.184856013128496 L 253.72650939624148 28.061145726832592 M 253.72650939624148 31.797443190250902 L 253.72650939624148 42.365511456500485 M 280.4158336665334 18.73461331596198 L 280.4158336665334 23.79284333027755 M 280.4158336665334 34.75137708709079 L 280.4158336665334 35.93606795176842 M 289.31227508996403 34.69080737421646 L 289.31227508996403 34.75143439050882 M 289.31227508996403 55.08188486528482 L 289.31227508996403 63.59029637671637 M 307.10515793682526 49.82641648605585 L 307.10515793682526 53.44306441259471 M 307.10515793682526 73.23130994582192 L 307.10515793682526 75.62292540137894 M 333.7944822071172 55.24869511521598 L 333.7944822071172 57.09524045832194 M 333.7944822071172 63.31552648718707 L 333.7944822071172 64.09124285727222 M 342.6909236305478 58.60530013066327 L 342.6909236305478 63.34028156378281 M 342.6909236305478 76.92417141836161 L 342.6909236305478 80.57543060940009 M 360.483806477409 68.39845427468026 L 360.483806477409 69.50865069589844 M 360.483806477409 71.81780653288766 L 360.483806477409 79.2746430197618 M 378.2766893242703 60.29002062120804 L 378.2766893242703 61.37666533760938 M 378.2766893242703 91.36835748806114 L 378.2766893242703 92.66645181705128 M 413.86245501799283 60.135358695902596 L 413.86245501799283 68.16207767524162 M 413.86245501799283 72.89356359986034 L 413.86245501799283 79.05373834319545 M 431.65533786485406 70.45868406367879 L 431.65533786485406 71.55547148507426 M 431.65533786485406 75.58808492320715 L 431.65533786485406 79.61405116484673 M 440.5517792882847 69.17205041829777 L 440.5517792882847 75.56562198333319 M 440.5517792882847 92.08740077769906 L 440.5517792882847 103.09567390137602 M 449.44822071171535 90.60868607502877 L 449.44822071171535 92.08740077769906 M 449.44822071171535 117.579284722691 L 449.44822071171535 158.5636634671112 M 485.0339864054379 105.84623796757154 L 485.0339864054379 109.34776332725652 M 485.0339864054379 110.02256837816313 L 485.0339864054379 120.74512665946402 M 493.93042782886846 108.1512106550434 L 493.93042782886846 110.02256837816313 M 493.93042782886846 126.78725636162494 L 493.93042782886846 128.07996416931877 M 502.82686925229905 112.00635540748863 L 502.82686925229905 126.84278337371123 M 502.82686925229905 129.10833130956763 L 502.82686925229905 130.7617641338594 M 529.5161935225909 111.63405510044545 L 529.5161935225909 112.41378270979384 M 529.5161935225909 131.61701764819207 L 529.5161935225909 137.51926970690334 M 556.2055177928828 115.95209686386416 L 556.2055177928828 119.22670068808797 M 556.2055177928828 126.28991999640596 L 556.2055177928828 126.98546888464513 M 565.1019592163135 124.20648232309892 L 565.1019592163135 126.28991999640596 M 565.1019592163135 134.89219450659638 L 565.1019592163135 138.76132129304477 M 582.8948420631747 122.46417189741817 L 582.8948420631747 130.8622170256936 M 582.8948420631747 131.7403346038265 L 582.8948420631747 133.31228196765727 M 609.5841663334666 115.1515681137652 L 609.5841663334666 119.09713765988658 M 609.5841663334666 120.81297390643016 L 609.5841663334666 121.76587244511278 M 627.3770491803277 102.35072946678139 L 627.3770491803277 107.91592282054759 M 627.3770491803277 108.02376785330968 L 627.3770491803277 110.51973283312797 M 636.2734906037584 106.09705502835773 L 636.2734906037584 108.02382515672774 M 636.2734906037584 110.43245972744431 L 636.2734906037584 111.90710588743342 M 654.0663734506197 100.75769444510982 L 654.0663734506197 108.27888267044929 M 654.0663734506197 108.70315717765996 L 654.0663734506197 110.14972466280665 M 662.9628148740503 108.68820098555003 L 662.9628148740503 108.70315717765996 M 662.9628148740503 126.79785749396338 L 662.9628148740503 128.12001925853275 M 671.8592562974809 123.38635580402827 L 671.8592562974809 126.79785749396338 M 671.8592562974809 132.9813547284431 L 671.8592562974809 135.08822949973086 M 689.6521391443422 121.04161454443266 L 689.6521391443422 129.22098982944556 M 689.6521391443422 134.40093230369024 L 689.6521391443422 137.48918541242932 M 707.4450219912034 124.24063516025417 L 707.4450219912034 125.77258473828897 M 707.4450219912034 128.27376432914946 L 707.4450219912034 131.89637181116507 M 716.3414634146341 126.64737871817526 L 716.3414634146341 128.27376432914946 M 716.3414634146341 133.087709872336 L 716.3414634146341 137.38603925994698 M 725.2379048380647 126.71877877706025 L 725.2379048380647 133.087709872336 M 725.2379048380647 136.60665547110688 L 725.2379048380647 138.5091862536435 M 734.1343462614954 129.51254962046227 L 734.1343462614954 136.60665547110688 M 734.1343462614954 150.2499116667811 L 734.1343462614954 155.70021166736558 M 743.0307876849259 148.15908185254617 L 743.0307876849259 150.24985436336306 M 743.0307876849259 152.36337633114408 L 743.0307876849259 156.0980119954391 M 751.9272291083566 151.99938501971752 L 751.9272291083566 152.3634336345621 M 751.9272291083566 161.0496003487715 L 751.9272291083566 166.5305576780105 M 778.6165533786485 157.14139263121595 L 778.6165533786485 159.3411562431558 M 778.6165533786485 159.58257554338255 L 778.6165533786485 172.03168581040154 M 805.3058776489403 144.23952805821753 L 805.3058776489403 147.6625477351798 M 805.3058776489403 155.35576082149262 L 805.3058776489403 156.78198559323306 M 831.9952019192323 150.1131284079059 L 831.9952019192323 152.35203025437102 M 831.9952019192323 152.42440447136278 L 831.9952019192323 155.23152701116948 M 840.8916433426629 151.82546914594872 L 840.8916433426629 152.42440447136278 M 840.8916433426629 157.41003105501437 L 840.8916433426629 161.1989330561987 M 858.6845261895241 155.36137655646112 L 858.6845261895241 156.54761461342596 M 858.6845261895241 160.5136414797897 L 858.6845261895241 163.50172821378484 M 867.5809676129546 149.9412181537687 L 867.5809676129546 160.51369878320776 M 867.5809676129546 166.1242191406481 L 867.5809676129546 166.85541075491182 M 876.4774090363853 163.7226901937692 L 876.4774090363853 166.1241618372301 M 876.4774090363853 190.3956548881019 L 876.4774090363853 196.15384615384616 M 885.3738504598159 188.16133731508043 L 885.3738504598159 190.3956548881019 M 885.3738504598159 191.90353703055752 L 885.3738504598159 192.89024458588707" style="stroke-width: 1px;"></path><path class="candle wick equal" style="stroke-width: 1px;"></path></g></g><g class="x axis" transform="translate(0,200)" fill="none" font-size="10" font-family="sans-serif" text-anchor="middle"><path class="domain" stroke="#000" d="M0.5,6V0.5H890.5V6"></path><g class="tick" opacity="1" transform="translate(31.315473810475808,0)"><line stroke="#000" y2="6" x1="0.5" x2="0.5"></line><text fill="#000" y="9" x="0.5" dy="0.71em">Oct 18</text></g><g class="tick" opacity="1" transform="translate(93.5905637744902,0)"><line stroke="#000" y2="6" x1="0.5" x2="0.5"></line><text fill="#000" y="9" x="0.5" dy="0.71em">Oct 25</text></g><g class="tick" opacity="1" transform="translate(155.8656537385046,0)"><line stroke="#000" y2="6" x1="0.5" x2="0.5"></line><text fill="#000" y="9" x="0.5" dy="0.71em">Nov  1</text></g><g class="tick" opacity="1" transform="translate(218.14074370251896,0)"><line stroke="#000" y2="6" x1="0.5" x2="0.5"></line><text fill="#000" y="9" x="0.5" dy="0.71em">Nov  8</text></g><g class="tick" opacity="1" transform="translate(280.4158336665334,0)"><line stroke="#000" y2="6" x1="0.5" x2="0.5"></line><text fill="#000" y="9" x="0.5" dy="0.71em">Nov 15</text></g><g class="tick" opacity="1" transform="translate(342.6909236305478,0)"><line stroke="#000" y2="6" x1="0.5" x2="0.5"></line><text fill="#000" y="9" x="0.5" dy="0.71em">Nov 22</text></g><g class="tick" opacity="1" transform="translate(404.9660135945622,0)"><line stroke="#000" y2="6" x1="0.5" x2="0.5"></line><text fill="#000" y="9" x="0.5" dy="0.71em">Nov 29</text></g><g class="tick" opacity="1" transform="translate(467.2411035585766,0)"><line stroke="#000" y2="6" x1="0.5" x2="0.5"></line><text fill="#000" y="9" x="0.5" dy="0.71em">Dec  6</text></g><g class="tick" opacity="1" transform="translate(529.5161935225909,0)"><line stroke="#000" y2="6" x1="0.5" x2="0.5"></line><text fill="#000" y="9" x="0.5" dy="0.71em">Dec 13</text></g><g class="tick" opacity="1" transform="translate(591.7912834866053,0)"><line stroke="#000" y2="6" x1="0.5" x2="0.5"></line><text fill="#000" y="9" x="0.5" dy="0.71em">Dec 20</text></g><g class="tick" opacity="1" transform="translate(654.0663734506197,0)"><line stroke="#000" y2="6" x1="0.5" x2="0.5"></line><text fill="#000" y="9" x="0.5" dy="0.71em">Dec 27</text></g><g class="tick" opacity="1" transform="translate(716.3414634146341,0)"><line stroke="#000" y2="6" x1="0.5" x2="0.5"></line><text fill="#000" y="9" x="0.5" dy="0.71em">Jan  3</text></g><g class="tick" opacity="1" transform="translate(778.6165533786485,0)"><line stroke="#000" y2="6" x1="0.5" x2="0.5"></line><text fill="#000" y="9" x="0.5" dy="0.71em">Jan 10</text></g><g class="tick" opacity="1" transform="translate(840.8916433426629,0)"><line stroke="#000" y2="6" x1="0.5" x2="0.5"></line><text fill="#000" y="9" x="0.5" dy="0.71em">Jan 17</text></g></g><g class="y axis" fill="none" font-size="10" font-family="sans-serif" text-anchor="end"><path class="domain" stroke="#000" d="M-6,200.5H0.5V0.5H-6"></path><g class="tick" opacity="1" transform="translate(0,198.67777520167078)"><line stroke="#000" x2="-6" y1="0.5" y2="0.5"></line><text fill="#000" x="-9" y="0.5" dy="0.32em">35,000</text></g><g class="tick" opacity="1" transform="translate(0,170.02606617880065)"><line stroke="#000" x2="-6" y1="0.5" y2="0.5"></line><text fill="#000" x="-9" y="0.5" dy="0.32em">40,000</text></g><g class="tick" opacity="1" transform="translate(0,141.3743571559305)"><line stroke="#000" x2="-6" y1="0.5" y2="0.5"></line><text fill="#000" x="-9" y="0.5" dy="0.32em">45,000</text></g><g class="tick" opacity="1" transform="translate(0,112.72264813306037)"><line stroke="#000" x2="-6" y1="0.5" y2="0.5"></line><text fill="#000" x="-9" y="0.5" dy="0.32em">50,000</text></g><g class="tick" opacity="1" transform="translate(0,84.07093911019025)"><line stroke="#000" x2="-6" y1="0.5" y2="0.5"></line><text fill="#000" x="-9" y="0.5" dy="0.32em">55,000</text></g><g class="tick" opacity="1" transform="translate(0,55.41923008732013)"><line stroke="#000" x2="-6" y1="0.5" y2="0.5"></line><text fill="#000" x="-9" y="0.5" dy="0.32em">60,000</text></g><g class="tick" opacity="1" transform="translate(0,26.767521064449994)"><line stroke="#000" x2="-6" y1="0.5" y2="0.5"></line><text fill="#000" x="-9" y="0.5" dy="0.32em">65,000</text></g><text transform="rotate(-90)" y="6" dy=".71em" style="text-anchor: end;">Price ($)</text></g></g></svg>