<?xml version="1.0" encoding="utf-8"?>
<!DOCTYPE svg PUBLIC "-//W3C//DTD SVG 1.1//EN" "http://www.w3.org/Graphics/SVG/1.1/DTD/svg11.dtd">
<svg version="1.1" xmlns="http://www.w3.org/2000/svg" width="960" height="250"><g transform="translate(50,20)"><style>.axis path,.axis line{fill:none;stroke:#000;shape-rendering:crispEdges;}path.candle{stroke:#000000;}path.candle.body{stroke-width:0;}path.candle.up{fill:#00AA00;stroke:#00AA00;}path.candle.down{fill:#FF0000;stroke:#FF0000;}</style><g class="candlestick"><g class="data"><path class="candle body up" d="M 1.0675729708116766 193.49134618237002 l 7.1171531387445 0 L 8.184726109556177 188.88772861614004 l -7.1171531387445 0 L 1.0675729708116766 193.49134618237002 M 9.964014394242305 188.88772861614004 l 7.1171531387445 0 L 17.081167532986804 187.34553778478917 l -7.1171531387445 0 L 9.964014394242305 188.88772861614004 M 18.860455817672932 187.34662440859142 l 7.1171531387445 0 L 25.977608956417434 185.05411984178323 l -7.1171531387445 0 L 18.860455817672932 187.34662440859142 M 45.54978008796481 185.33406129883926 l 7.1171531387445 0 L 52.66693322670931 183.33399436281303 l -7.1171531387445 0 L 45.54978008796481 185.33406129883926 M 72.23910435825668 192.34522972694123 l 7.1171531387445 0 L 79.35625749700118 190.81865911274775 l -7.1171531387445 0 L 72.23910435825668 192.34522972694123 M 90.03198720511796 194.73254222049619 l 7.1171531387445 0 L 97.14914034386246 188.01095903569527 l -7.1171531387445 0 L 90.03198720511796 194.73254222049619 M 107.82487005197919 188.6867032127228 l 7.1171531387445 0 L 114.94202319072369 188.1158182326129 l -7.1171531387445 0 L 107.82487005197919 188.6867032127228 M 116.72131147540982 188.1159540605882 l 7.1171531387445 0 L 123.83846461415432 187.49576352545097 l -7.1171531387445 0 L 116.72131147540982 188.1159540605882 M 134.51419432227107 188.55712332430383 l 7.1171531387445 0 L 141.63134746101557 186.59617484515883 l -7.1171531387445 0 L 134.51419432227107 188.55712332430383 M 178.9964014394242 190.64941745554648 l 7.1171531387445 0 L 186.1135545781687 188.95754419543496 l -7.1171531387445 0 L 178.9964014394242 190.64941745554648 M 187.89284286285485 188.9576800234102 l 7.1171531387445 0 L 195.00999600159935 187.25181648184466 l -7.1171531387445 0 L 187.89284286285485 188.9576800234102 M 205.68572570971608 189.8673199738732 l 7.1171531387445 0 L 212.80287884846058 188.96080406684172 l -7.1171531387445 0 L 205.68572570971608 189.8673199738732 M 214.5821671331467 188.96066823886642 l 7.1171531387445 0 L 221.6993202718912 185.440414603485 l -7.1171531387445 0 L 214.5821671331467 188.96066823886642 M 223.47860855657734 185.44218036716364 l 7.1171531387445 0 L 230.59576169532184 183.74161411663408 l -7.1171531387445 0 L 223.47860855657734 185.44218036716364 M 232.37504998000796 183.74161411663408 l 7.1171531387445 0 L 239.49220311875246 180.44669909224535 l -7.1171531387445 0 L 232.37504998000796 183.74161411663408 M 241.2714914034386 180.44669909224535 l 7.1171531387445 0 L 248.3886445421831 179.4171230396084 l -7.1171531387445 0 L 241.2714914034386 180.44669909224535 M 250.16793282686922 179.4171230396084 l 7.1171531387445 0 L 257.28508596561375 177.25433418919445 l -7.1171531387445 0 L 250.16793282686922 179.4171230396084 M 276.85725709716115 178.75333172440568 l 7.1171531387445 0 L 283.9744102359057 177.56850429602153 l -7.1171531387445 0 L 276.85725709716115 178.75333172440568 M 294.65013994402244 180.0932747005618 l 7.1171531387445 0 L 301.76729308276697 179.53692331380705 l -7.1171531387445 0 L 294.65013994402244 180.0932747005618 M 303.54658136745303 179.53542920607896 l 7.1171531387445 0 L 310.66373450619756 177.59539823512736 l -7.1171531387445 0 L 303.54658136745303 179.53542920607896 M 312.4430227908837 177.59539823512736 l 7.1171531387445 0 L 319.5601759296282 174.22238212495154 l -7.1171531387445 0 L 312.4430227908837 177.59539823512736 M 321.3394642143143 174.2225179529268 l 7.1171531387445 0 L 328.45661735305885 172.0692370607826 l -7.1171531387445 0 L 321.3394642143143 174.2225179529268 M 330.23590563774496 172.0691012328073 l 7.1171531387445 0 L 337.3530587764895 160.23902789765353 l -7.1171531387445 0 L 330.23590563774496 172.0691012328073 M 339.13234706117555 160.2418802851344 l 7.1171531387445 0 L 346.2495001999201 157.69143839326588 l -7.1171531387445 0 L 339.13234706117555 160.2418802851344 M 356.9252299080368 158.3089123688975 l 7.1171531387445 0 L 364.0423830467813 155.74624595925357 l -7.1171531387445 0 L 356.9252299080368 158.3089123688975 M 374.7181127548981 156.86125780834283 l 7.1171531387445 0 L 381.8352658936426 156.55496572408208 l -7.1171531387445 0 L 374.7181127548981 156.86125780834283 M 383.61455417832866 156.55550903598322 l 7.1171531387445 0 L 390.7317073170732 148.62288362356873 l -7.1171531387445 0 L 383.61455417832866 156.55550903598322 M 401.40743702518995 153.64539466556818 l 7.1171531387445 0 L 408.5245901639345 151.07417109348148 l -7.1171531387445 0 L 401.40743702518995 153.64539466556818 M 410.3038784486206 151.07430692145675 l 7.1171531387445 0 L 417.4210315873651 149.65612703153826 l -7.1171531387445 0 L 410.3038784486206 151.07430692145675 M 419.20031987205124 149.65612703153826 l 7.1171531387445 0 L 426.31747301079577 146.51985908227883 l -7.1171531387445 0 L 419.20031987205124 149.65612703153826 M 445.8896441423431 149.79833892165846 l 7.1171531387445 0 L 453.00679728108764 143.3614511730484 l -7.1171531387445 0 L 445.8896441423431 149.79833892165846 M 454.7860855657737 143.3614511730484 l 7.1171531387445 0 L 461.90323870451823 141.7249957268519 l -7.1171531387445 0 L 454.7860855657737 143.3614511730484 M 463.68252698920435 141.7249957268519 l 7.1171531387445 0 L 470.7996801279489 122.08413467311149 l -7.1171531387445 0 L 463.68252698920435 141.7249957268519 M 490.3718512594962 132.56625118156757 l 7.1171531387445 0 L 497.48900439824075 123.64506976505129 l -7.1171531387445 0 L 490.3718512594962 132.56625118156757 M 517.0611755297881 126.06131361734131 l 7.1171531387445 0 L 524.1783286685326 120.80436349000529 l -7.1171531387445 0 L 517.0611755297881 126.06131361734131 M 525.9576169532187 120.80422766203 l 7.1171531387445 0 L 533.0747700919632 112.55118405592548 l -7.1171531387445 0 L 525.9576169532187 120.80422766203 M 534.8540583766493 112.55131988390076 l 7.1171531387445 0 L 541.9712115153937 112.15945617521243 l -7.1171531387445 0 L 534.8540583766493 112.55131988390076 M 561.5433826469413 117.09951963621573 l 7.1171531387445 0 L 568.6605357856857 106.82318251031178 l -7.1171531387445 0 L 561.5433826469413 117.09951963621573 M 570.4398240703717 106.82983808110058 l 7.1171531387445 0 L 577.5569772091162 93.97643678017285 l -7.1171531387445 0 L 570.4398240703717 106.82983808110058 M 579.3362654938024 93.97643678017285 l 7.1171531387445 0 L 586.4534186325469 92.39078099673176 l -7.1171531387445 0 L 579.3362654938024 93.97643678017285 M 588.232706917233 92.3686410367608 l 7.1171531387445 0 L 595.3498600559775 92.02812030272905 l -7.1171531387445 0 L 588.232706917233 92.3686410367608 M 597.1291483406637 92.0282561307043 l 7.1171531387445 0 L 604.2463014794082 80.44403143081082 l -7.1171531387445 0 L 597.1291483406637 92.0282561307043 M 606.0255897640943 80.4441672587861 l 7.1171531387445 0 L 613.1427429028388 79.79029138577896 l -7.1171531387445 0 L 606.0255897640943 80.4441672587861 M 632.7149140343862 84.35125896777042 l 7.1171531387445 0 L 639.8320671731307 73.59368332544265 l -7.1171531387445 0 L 632.7149140343862 84.35125896777042 M 668.3006797281087 101.03745407520329 l 7.1171531387445 0 L 675.4178328668531 93.15508501364312 l -7.1171531387445 0 L 668.3006797281087 101.03745407520329 M 677.1971211515394 93.15522084161839 l 7.1171531387445 0 L 684.3142742902838 86.83718257138003 l -7.1171531387445 0 L 677.1971211515394 93.15522084161839 M 686.09356257497 86.83704674340476 l 7.1171531387445 0 L 693.2107157137144 66.31520544198588 l -7.1171531387445 0 L 686.09356257497 86.83704674340476 M 703.8864454218311 78.95956748895475 l 7.1171531387445 0 L 711.0035985605756 72.99495361039993 l -7.1171531387445 0 L 703.8864454218311 78.95956748895475 M 712.7828868452618 72.9950894383752 l 7.1171531387445 0 L 719.9000399840063 70.03648448078451 l -7.1171531387445 0 L 712.7828868452618 72.9950894383752 M 730.5757696921231 80.51411866605629 l 7.1171531387445 0 L 737.6929228308676 73.7614308749158 l -7.1171531387445 0 L 730.5757696921231 80.51411866605629 M 739.4722111155537 73.7614308749158 l 7.1171531387445 0 L 746.5893642542982 70.88540932629647 l -7.1171531387445 0 L 739.4722111155537 73.7614308749158 M 766.1615353858456 84.94754377925801 l 7.1171531387445 0 L 773.27868852459 81.99776764006066 l -7.1171531387445 0 L 766.1615353858456 84.94754377925801 M 792.8508596561375 88.85368469241538 l 7.1171531387445 0 L 799.9680127948819 78.36559175304694 l -7.1171531387445 0 L 792.8508596561375 88.85368469241538 M 801.747301079568 78.36559175304694 l 7.1171531387445 0 L 808.8644542183125 73.3902130184703 l -7.1171531387445 0 L 801.747301079568 78.36559175304694 M 810.6437425029987 73.3902130184703 l 7.1171531387445 0 L 817.7608956417432 72.05706144107833 l -7.1171531387445 0 L 810.6437425029987 73.3902130184703 M 819.5401839264293 72.04959090243783 l 7.1171531387445 0 L 826.6573370651738 69.97495440798181 l -7.1171531387445 0 L 819.5401839264293 72.04959090243783 M 828.43662534986 69.97495440798181 l 7.1171531387445 0 L 835.5537784886045 44.04417147488644 l -7.1171531387445 0 L 828.43662534986 69.97495440798181 M 837.3330667732906 44.04417147488644 l 7.1171531387445 0 L 844.4502199120351 24.191011295780413 l -7.1171531387445 0 L 837.3330667732906 44.04417147488644 M 846.2295081967213 24.191147123755684 l 7.1171531387445 0 L 853.3466613354658 19.97722001860953 l -7.1171531387445 0 L 846.2295081967213 24.191147123755684 M 855.1259496201519 19.97722001860953 l 7.1171531387445 0 L 862.2431027588964 10.27611436802448 l -7.1171531387445 0 L 855.1259496201519 19.97722001860953 M 881.8152738904437 25.24068988875905 l 7.1171531387445 0 L 888.9324270291881 15.595273708039628 l -7.1171531387445 0 L 881.8152738904437 25.24068988875905"></path><path class="candle body down" d="M 27.75689724110356 185.05411984178323 l 7.1171531387445 0 L 34.87405037984806 185.24455066312848 l -7.1171531387445 0 L 27.75689724110356 185.05411984178323 M 36.65333866453418 185.24441483515318 l 7.1171531387445 0 L 43.77049180327868 185.33419712681456 l -7.1171531387445 0 L 36.65333866453418 185.24441483515318 M 54.446221511395436 183.33413019078833 l 7.1171531387445 0 L 61.563374650139934 185.5122676024091 l -7.1171531387445 0 L 54.446221511395436 183.33413019078833 M 63.342662934826066 185.5122676024091 l 7.1171531387445 0 L 70.45981607357056 192.34522972694123 l -7.1171531387445 0 L 63.342662934826066 185.5122676024091 M 81.13554578168731 190.81865911274775 l 7.1171531387445 0 L 88.25269892043181 194.73254222049619 l -7.1171531387445 0 L 81.13554578168731 190.81865911274775 M 98.92842862854857 188.01082320772 l 7.1171531387445 0 L 106.04558176729307 188.68534493296997 l -7.1171531387445 0 L 98.92842862854857 188.01082320772 M 125.61775289884046 187.49562769747567 l 7.1171531387445 0 L 132.73490603758498 188.55698749632856 l -7.1171531387445 0 L 125.61775289884046 187.49562769747567 M 143.4106357457017 186.594816565406 l 7.1171531387445 0 L 150.5277888844462 187.463979779235 l -7.1171531387445 0 L 143.4106357457017 186.594816565406 M 152.30707716913233 187.463979779235 l 7.1171531387445 0 L 159.42423030787683 189.60272707802406 l -7.1171531387445 0 L 152.30707716913233 187.463979779235 M 161.20351859256294 189.60272707802406 l 7.1171531387445 0 L 168.32067173130744 190.26461680157283 l -7.1171531387445 0 L 161.20351859256294 189.60272707802406 M 170.09996001599356 190.26461680157283 l 7.1171531387445 0 L 177.21711315473806 190.64955328352178 l -7.1171531387445 0 L 170.09996001599356 190.26461680157283 M 196.78928428628546 187.2519523098199 l 7.1171531387445 0 L 203.90643742502996 189.86718414589794 l -7.1171531387445 0 L 196.78928428628546 187.2519523098199 M 259.06437425029986 177.25447001716975 l 7.1171531387445 0 L 266.1815273890444 178.71706565500543 l -7.1171531387445 0 L 259.06437425029986 177.25447001716975 M 267.9608156737305 178.71692982703013 l 7.1171531387445 0 L 275.07796881247504 178.75333172440568 l -7.1171531387445 0 L 267.9608156737305 178.71692982703013 M 285.7536985205918 177.56836846804626 l 7.1171531387445 0 L 292.8708516593363 180.09218807675956 l -7.1171531387445 0 L 285.7536985205918 177.56836846804626 M 348.02878848460614 157.68709189805685 l 7.1171531387445 0 L 355.14594162335067 158.3087765409222 l -7.1171531387445 0 L 348.02878848460614 157.68709189805685 M 365.8216713314674 155.74624595925357 l 7.1171531387445 0 L 372.93882447021196 156.87225987434064 l -7.1171531387445 0 L 365.8216713314674 155.74624595925357 M 392.5109956017593 148.62301945154402 l 7.1171531387445 0 L 399.62814874050383 153.64539466556818 l -7.1171531387445 0 L 392.5109956017593 148.62301945154402 M 428.0967612954818 146.51985908227883 l 7.1171531387445 0 L 435.21391443422635 146.92055160936047 l -7.1171531387445 0 L 428.0967612954818 146.51985908227883 M 436.99320271891247 146.92068743733577 l 7.1171531387445 0 L 444.110355857657 149.80187044901575 l -7.1171531387445 0 L 436.99320271891247 146.92068743733577 M 472.57896841263494 122.08413467311149 l 7.1171531387445 0 L 479.69612155137946 122.22132092814624 l -7.1171531387445 0 L 472.57896841263494 122.08413467311149 M 481.47540983606564 122.22118510017094 l 7.1171531387445 0 L 488.59256297481016 132.56625118156757 l -7.1171531387445 0 L 481.47540983606564 122.22118510017094 M 499.2682926829268 123.64506976505129 l 7.1171531387445 0 L 506.38544582167134 125.63753033446173 l -7.1171531387445 0 L 499.2682926829268 123.64506976505129 M 508.16473410635746 125.63753033446173 l 7.1171531387445 0 L 515.281887245102 126.06131361734131 l -7.1171531387445 0 L 508.16473410635746 125.63753033446173 M 543.75049980008 112.16842082158102 l 7.1171531387445 0 L 550.8676529388244 115.55855125664239 l -7.1171531387445 0 L 543.75049980008 112.16842082158102 M 552.6469412235106 115.57063994644248 l 7.1171531387445 0 L 559.764094362255 117.09951963621573 l -7.1171531387445 0 L 552.6469412235106 115.57063994644248 M 614.9220311875249 79.79029138577896 l 7.1171531387445 0 L 622.0391843262694 83.72074550651175 l -7.1171531387445 0 L 614.9220311875249 79.79029138577896 M 623.8184726109555 83.72821604515224 l 7.1171531387445 0 L 630.9356257497 84.35139479574569 l -7.1171531387445 0 L 623.8184726109555 83.72821604515224 M 641.6113554578168 73.59381915341791 l 7.1171531387445 0 L 648.7285085965613 79.58233875562233 l -7.1171531387445 0 L 641.6113554578168 73.59381915341791 M 650.5077968812475 79.58614193893018 l 7.1171531387445 0 L 657.624950019992 100.90244106777303 l -7.1171531387445 0 L 650.5077968812475 79.58614193893018 M 659.4042383046781 100.90244106777303 l 7.1171531387445 0 L 666.5213914434225 101.03758990317854 l -7.1171531387445 0 L 659.4042383046781 100.90244106777303 M 694.9900039984005 66.31520544198588 l 7.1171531387445 0 L 702.107157137145 78.95956748895475 l -7.1171531387445 0 L 694.9900039984005 66.31520544198588 M 721.6793282686924 70.03050804987211 l 7.1171531387445 0 L 728.7964814074369 80.51398283808098 l -7.1171531387445 0 L 721.6793282686924 70.03050804987211 M 748.3686525389844 70.89532476849209 l 7.1171531387445 0 L 755.4858056777289 73.50009785047338 l -7.1171531387445 0 L 748.3686525389844 70.89532476849209 M 757.265093962415 73.50009785047338 l 7.1171531387445 0 L 764.3822471011595 84.94754377925801 l -7.1171531387445 0 L 757.265093962415 73.50009785047338 M 775.0579768092763 81.99763181208534 l 7.1171531387445 0 L 782.1751299480208 85.89127655151675 l -7.1171531387445 0 L 775.0579768092763 81.99763181208534 M 783.9544182327068 85.88883164796168 l 7.1171531387445 0 L 791.0715713714512 88.85368469241538 l -7.1171531387445 0 L 783.9544182327068 85.88883164796168 M 864.0223910435824 10.27625019599978 l 7.1171531387445 0 L 871.1395441823269 15.24864071512016 l -7.1171531387445 0 L 864.0223910435824 10.27625019599978 M 872.9188324670131 15.248369059169562 l 7.1171531387445 0 L 880.0359856057576 25.242998964338852 l -7.1171531387445 0 L 872.9188324670131 15.248369059169562"></path><path class="candle body equal"></path><path class="candle wick up" d="M 4.626149540183927 187.8251463655096 L 4.626149540183927 188.88772861614004 M 4.626149540183927 193.49134618237002 L 4.626149540183927 195.12807328451711 M 13.522590963614554 185.37969949853397 L 13.522590963614554 187.34553778478917 M 13.522590963614554 188.88772861614004 L 13.522590963614554 189.77454946675567 M 22.41903238704518 183.16624681333988 L 22.41903238704518 185.05411984178323 M 22.41903238704518 187.34662440859142 L 22.41903238704518 189.03102713006245 M 49.10835665733706 181.9873958158681 L 49.10835665733706 183.33399436281303 M 49.10835665733706 185.33406129883926 L 49.10835665733706 185.9592774690619 M 75.79768092762893 190.23324053928272 L 75.79768092762893 190.81865911274775 M 75.79768092762893 192.34522972694123 L 75.79768092762893 193.2175169842017 M 93.5905637744902 187.21066060533423 L 93.5905637744902 188.01095903569527 M 93.5905637744902 194.73254222049619 L 93.5905637744902 195.41888097959568 M 111.38344662135144 186.8615827088597 L 111.38344662135144 188.1158182326129 M 111.38344662135144 188.6867032127228 L 111.38344662135144 189.25568660117875 M 120.27988804478207 187.1595892866282 L 120.27988804478207 187.49576352545097 M 120.27988804478207 188.1159540605882 L 120.27988804478207 189.93292488593437 M 138.07277089164333 186.22862434404595 L 138.07277089164333 186.59617484515883 M 138.07277089164333 188.55712332430383 L 138.07277089164333 189.3753510474021 M 182.55497800879647 188.54680039818243 L 182.55497800879647 188.95754419543496 M 182.55497800879647 190.64941745554648 L 182.55497800879647 190.97812115572873 M 191.4514194322271 187.1731720841564 L 191.4514194322271 187.25181648184466 M 191.4514194322271 188.9576800234102 L 191.4514194322271 189.65013104139743 M 209.24430227908834 188.7505423611053 L 209.24430227908834 188.96080406684172 M 209.24430227908834 189.8673199738732 L 209.24430227908834 190.5937279856809 M 218.14074370251896 185.10858685987128 L 218.14074370251896 185.440414603485 M 218.14074370251896 188.96066823886642 L 218.14074370251896 190.8077928747252 M 227.0371851259496 183.00814305011173 L 227.0371851259496 183.74161411663408 M 227.0371851259496 185.44218036716364 L 227.0371851259496 186.75210536078245 M 235.93362654938022 177.7602933971196 L 235.93362654938022 180.44669909224535 M 235.93362654938022 183.74161411663408 L 235.93362654938022 183.74337988031272 M 244.83006797281087 178.38510208341643 L 244.83006797281087 179.4171230396084 M 244.83006797281087 180.44669909224535 L 244.83006797281087 181.42764872973135 M 253.72650939624148 174.64969693518842 L 253.72650939624148 177.25433418919445 M 253.72650939624148 179.4171230396084 L 253.72650939624148 182.09320580861274 M 280.4158336665334 176.04424275740786 L 280.4158336665334 177.56850429602153 M 280.4158336665334 178.75333172440568 L 280.4158336665334 181.0224738794654 M 298.2087165133947 178.9634576021668 L 298.2087165133947 179.53692331380705 M 298.2087165133947 180.0932747005618 L 298.2087165133947 180.96583361377282 M 307.10515793682526 177.57013423172492 L 307.10515793682526 177.59539823512736 M 307.10515793682526 179.53542920607896 L 307.10515793682526 179.72681082325118 M 316.0015993602559 173.23735764820708 L 316.0015993602559 174.22238212495154 M 316.0015993602559 177.59539823512736 L 316.0015993602559 178.88820890386063 M 324.89804078368655 170.32534168613807 L 324.89804078368655 172.0692370607826 M 324.89804078368655 174.2225179529268 L 324.89804078368655 175.22587920633433 M 333.7944822071172 154.30714856114164 L 333.7944822071172 160.23902789765353 M 333.7944822071172 172.0691012328073 L 333.7944822071172 172.38218471583212 M 342.6909236305478 154.75103438436295 L 342.6909236305478 157.69143839326588 M 342.6909236305478 160.2418802851344 L 342.6909236305478 161.63642610735386 M 360.483806477409 154.99919209520303 L 360.483806477409 155.74624595925357 M 360.483806477409 158.3089123688975 L 360.483806477409 159.02961560574332 M 378.2766893242703 154.02014404937097 L 378.2766893242703 156.55496572408208 M 378.2766893242703 156.86125780834283 L 378.2766893242703 160.45580934620347 M 387.1731307477009 146.54308566605204 L 387.1731307477009 148.62288362356873 M 387.1731307477009 156.55550903598322 L 387.1731307477009 156.99396174019324 M 404.9660135945622 148.5313355682287 L 404.9660135945622 151.07417109348148 M 404.9660135945622 153.64539466556818 L 404.9660135945622 158.34001697523703 M 413.86245501799283 148.16364923914057 L 413.86245501799283 149.65612703153826 M 413.86245501799283 151.07430692145675 L 413.86245501799283 155.70183021133636 M 422.7588964414235 142.32277464606761 L 422.7588964414235 146.51985908227883 M 422.7588964414235 149.65612703153826 L 422.7588964414235 151.67453074422755 M 449.44822071171535 142.78309565429802 L 449.44822071171535 143.3614511730484 M 449.44822071171535 149.79833892165846 L 449.44822071171535 153.3928904595191 M 458.34466213514594 140.16310983908514 L 458.34466213514594 141.7249957268519 M 458.34466213514594 143.3614511730484 L 458.34466213514594 150.1328832247778 M 467.2411035585766 119.9111587245514 L 467.2411035585766 122.08413467311149 M 467.2411035585766 141.7249957268519 L 467.2411035585766 142.41024786214916 M 493.93042782886846 121.26943847737057 L 493.93042782886846 123.64506976505129 M 493.93042782886846 132.56625118156757 L 493.93042782886846 134.12039487474325 M 520.6197520991603 116.99085725599019 L 520.6197520991603 120.80436349000529 M 520.6197520991603 126.06131361734131 L 520.6197520991603 126.39449964070783 M 529.5161935225909 111.88780022464859 L 529.5161935225909 112.55118405592548 M 529.5161935225909 120.80422766203 L 529.5161935225909 124.11313296787277 M 538.4126349460215 109.99571652897151 L 538.4126349460215 112.15945617521243 M 538.4126349460215 112.55131988390076 L 538.4126349460215 117.16267964472182 M 565.1019592163135 104.56259751769485 L 565.1019592163135 106.82318251031178 M 565.1019592163135 117.09951963621573 L 565.1019592163135 118.36271980633755 M 573.998400639744 91.26748364115032 L 573.998400639744 93.97643678017285 M 573.998400639744 106.82983808110058 L 573.998400639744 109.2079142723364 M 582.8948420631747 82.87182066099976 L 582.8948420631747 92.39078099673176 M 582.8948420631747 93.97643678017285 L 582.8948420631747 100.01983088439115 M 591.7912834866053 86.90767729055138 L 591.7912834866053 92.02812030272905 M 591.7912834866053 92.3686410367608 L 591.7912834866053 98.37359582397431 M 600.687724910036 78.27689608518781 L 600.687724910036 80.44403143081082 M 600.687724910036 92.0282561307043 L 600.687724910036 92.8808483315489 M 609.5841663334666 76.23024015363988 L 609.5841663334666 79.79029138577896 M 609.5841663334666 80.4441672587861 L 609.5841663334666 85.15848462487081 M 636.2734906037584 70.07628207754212 L 636.2734906037584 73.59368332544265 M 636.2734906037584 84.35125896777042 L 636.2734906037584 89.10537393061277 M 671.8592562974809 90.97314441871438 L 671.8592562974809 93.15508501364312 M 671.8592562974809 101.03745407520329 L 671.8592562974809 104.75873311400193 M 680.7556977209116 84.45937803609482 L 680.7556977209116 86.83718257138003 M 680.7556977209116 93.15522084161839 L 680.7556977209116 95.91035549223679 M 689.6521391443422 64.04293924349469 L 689.6521391443422 66.31520544198588 M 689.6521391443422 86.83704674340476 L 689.6521391443422 86.83718257138003 M 707.4450219912034 71.12175000328705 L 707.4450219912034 72.99495361039993 M 707.4450219912034 78.95956748895475 L 707.4450219912034 84.86754110181698 M 716.3414634146341 67.64455383606997 L 716.3414634146341 70.03648448078451 M 716.3414634146341 72.9950894383752 L 716.3414634146341 77.57086226967243 M 734.1343462614954 73.36291159543866 L 734.1343462614954 73.7614308749158 M 734.1343462614954 80.51411866605629 L 734.1343462614954 82.55846552202439 M 743.0307876849259 70.06229179608809 L 743.0307876849259 70.88540932629647 M 743.0307876849259 73.7614308749158 L 743.0307876849259 77.70940680445999 M 769.7201119552178 80.6627144710147 L 769.7201119552178 81.99776764006066 M 769.7201119552178 84.94754377925801 L 769.7201119552178 94.1038434209873 M 796.4094362255097 76.46440758302593 L 796.4094362255097 78.36559175304694 M 796.4094362255097 88.85368469241538 L 796.4094362255097 89.06870037728665 M 805.3058776489403 70.18453697384183 L 805.3058776489403 73.3902130184703 M 805.3058776489403 78.36559175304694 L 805.3058776489403 79.6908653078726 M 814.202319072371 71.02667042058971 L 814.202319072371 72.05706144107833 M 814.202319072371 73.3902130184703 L 814.202319072371 75.76706675792857 M 823.0987604958016 68.02487216685935 L 823.0987604958016 69.97495440798181 M 823.0987604958016 72.04959090243783 L 823.0987604958016 75.087926881519 M 831.9952019192323 40.995105085757984 L 831.9952019192323 44.04417147488644 M 831.9952019192323 69.97495440798181 L 831.9952019192323 71.9828993665744 M 840.8916433426629 10.569638622608721 L 840.8916433426629 24.191011295780413 M 840.8916433426629 44.04417147488644 L 840.8916433426629 45.47742827006124 M 849.7880847660936 17.562334446072327 L 849.7880847660936 19.97722001860953 M 849.7880847660936 24.191147123755684 L 849.7880847660936 30.264695038486593 M 858.6845261895241 5.524036824811361 L 858.6845261895241 10.27611436802448 M 858.6845261895241 19.97722001860953 L 858.6845261895241 24.831576027209934 M 885.3738504598159 12.893791107657592 L 885.3738504598159 15.595273708039628 M 885.3738504598159 25.24068988875905 L 885.3738504598159 30.218513526890717" style="stroke-width: 1px;"></path><path class="candle wick down" d="M 31.315473810475808 183.81197300783012 L 31.315473810475808 185.05411984178323 M 31.315473810475808 185.24455066312848 L 31.315473810475808 187.88178663120217 M 40.21191523390643 183.91289319346455 L 40.21191523390643 185.24441483515318 M 40.21191523390643 185.33419712681456 L 40.21191523390643 186.97160336883803 M 58.004798080767685 183.33413019078833 L 58.004798080767685 183.33413019078833 M 58.004798080767685 185.5122676024091 L 58.004798080767685 188.1918818987708 M 66.90123950419832 184.58075934792575 L 66.90123950419832 185.5122676024091 M 66.90123950419832 192.34522972694123 L 66.90123950419832 193.98698246417374 M 84.69412235105956 190.7162448193852 L 84.69412235105956 190.81865911274775 M 84.69412235105956 194.73254222049619 L 84.69412235105956 196.15384615384616 M 102.48700519792082 187.68211950753772 L 102.48700519792082 188.01082320772 M 102.48700519792082 188.68534493296997 L 102.48700519792082 190.456949214572 M 129.1763294682127 185.10858685987128 L 129.1763294682127 187.49562769747567 M 129.1763294682127 188.55698749632856 L 129.1763294682127 189.50941325900536 M 146.96921231507397 186.47583125905905 L 146.96921231507397 186.594816565406 M 146.96921231507397 187.463979779235 L 146.96921231507397 188.97791839172723 M 155.8656537385046 185.51607078571703 L 155.8656537385046 187.463979779235 M 155.8656537385046 189.60272707802406 L 155.8656537385046 192.0765619918336 M 164.7620951619352 188.98457396251604 L 164.7620951619352 189.60272707802406 M 164.7620951619352 190.26461680157283 L 164.7620951619352 192.93227823610965 M 173.65853658536582 189.81421123553798 L 173.65853658536582 190.26461680157283 M 173.65853658536582 190.64955328352178 L 173.65853658536582 191.26892885080733 M 200.34786085565773 187.14600648910002 L 200.34786085565773 187.2519523098199 M 200.34786085565773 189.86718414589794 L 200.34786085565773 190.88127580935273 M 262.6229508196721 176.86382876025894 L 262.6229508196721 177.25447001716975 M 262.6229508196721 178.71706565500543 L 262.6229508196721 180.3546077250042 M 271.51939224310274 176.98634559396325 L 271.51939224310274 178.71692982703013 M 271.51939224310274 178.75333172440568 L 271.51939224310274 180.62626367556803 M 289.31227508996403 177.07911610108079 L 289.31227508996403 177.56836846804626 M 289.31227508996403 180.09218807675956 L 289.31227508996403 181.71288747782336 M 351.5873650539784 156.8877442635228 L 351.5873650539784 157.68709189805685 M 351.5873650539784 158.3087765409222 L 351.5873650539784 161.0659486111698 M 369.38024790083966 152.50987279221135 L 369.38024790083966 155.74624595925357 M 369.38024790083966 156.87225987434064 L 369.38024790083966 158.78512525023586 M 396.06957217113154 145.5897091075483 L 396.06957217113154 148.62301945154402 M 396.06957217113154 153.64539466556818 L 396.06957217113154 158.78512525023586 M 431.65533786485406 145.1072481393469 L 431.65533786485406 146.51985908227883 M 431.65533786485406 146.92055160936047 L 431.65533786485406 149.07342501757887 M 440.5517792882847 145.99012997867936 L 440.5517792882847 146.92068743733577 M 440.5517792882847 149.80187044901575 L 440.5517792882847 154.61452726920464 M 476.13754498200717 117.05877124363117 L 476.13754498200717 122.08413467311149 M 476.13754498200717 122.22132092814624 L 476.13754498200717 127.84351248101532 M 485.0339864054379 119.86334727725216 L 485.0339864054379 122.22118510017094 M 485.0339864054379 132.56625118156757 L 485.0339864054379 139.00558383373266 M 502.82686925229905 118.68870694701415 L 502.82686925229905 123.64506976505129 M 502.82686925229905 125.63753033446173 L 502.82686925229905 132.73956767802727 M 511.7233106757297 123.85017000772697 L 511.7233106757297 125.63753033446173 M 511.7233106757297 126.06131361734131 L 511.7233106757297 129.11404736180236 M 547.3090763694522 112.07402037876011 L 547.3090763694522 112.16842082158102 M 547.3090763694522 115.55855125664239 L 547.3090763694522 120.99778252680674 M 556.2055177928828 114.070555787429 L 556.2055177928828 115.57063994644248 M 556.2055177928828 117.09951963621573 L 556.2055177928828 119.57539196965452 M 618.4806077568971 79.16276613997648 L 618.4806077568971 79.79029138577896 M 618.4806077568971 83.72074550651175 L 618.4806077568971 94.63547411624069 M 627.3770491803277 78.94544137952542 L 627.3770491803277 83.72821604515224 M 627.3770491803277 84.35139479574569 L 627.3770491803277 89.34986428612022 M 645.169932027189 69.19014036680292 L 645.169932027189 73.59381915341791 M 645.169932027189 79.58233875562233 L 645.169932027189 82.55479816669178 M 654.0663734506197 76.92119706389904 L 654.0663734506197 79.58614193893018 M 654.0663734506197 100.90244106777303 L 654.0663734506197 113.96189340720346 M 662.9628148740503 96.71690200946081 L 662.9628148740503 100.90244106777303 M 662.9628148740503 101.03758990317854 L 662.9628148740503 110.56510740135327 M 698.5485805677728 63.7055425528944 L 698.5485805677728 66.31520544198588 M 698.5485805677728 78.95956748895475 L 698.5485805677728 89.33465155288864 M 725.2379048380647 68.6089324605716 L 725.2379048380647 70.03050804987211 M 725.2379048380647 80.51398283808098 L 725.2379048380647 81.67137301545817 M 751.9272291083566 70.04993145033745 L 751.9272291083566 70.89532476849209 M 751.9272291083566 73.50009785047338 L 751.9272291083566 77.08622805386653 M 760.8236705317872 71.76231473471654 L 760.8236705317872 73.50009785047338 M 760.8236705317872 84.94754377925801 L 760.8236705317872 86.63330478048188 M 778.6165533786485 81.77989956770845 L 778.6165533786485 81.99763181208534 M 778.6165533786485 85.89127655151675 L 778.6165533786485 90.5571033304259 M 787.512994802079 85.3737719656927 L 787.512994802079 85.88883164796168 M 787.512994802079 88.85368469241538 L 787.512994802079 95.15881930500191 M 867.5809676129546 3.846153846153868 L 867.5809676129546 10.27625019599978 M 867.5809676129546 15.24864071512016 L 867.5809676129546 20.620908793470505 M 876.4774090363853 6.457175014998114 L 876.4774090363853 15.248369059169562 M 876.4774090363853 25.242998964338852 L 876.4774090363853 37.5314917160691" style="stroke-width: 1px;"></path><path class="candle wick equal" style="stroke-width: 1px;"></path></g></g><g class="x axis" transform="translate(0,200)" fill="none" font-size="10" font-family="sans-serif" text-anchor="middle"><path class="domain" stroke="#000" d="M0.5,6V0.5H890.5V6"></path><g class="tick" opacity="1" transform="translate(4.626149540183927,0)"><line stroke="#000" y2="6" x1="0.5" x2="0.5"></line><text fill="#000" y="9" x="0.5" dy="0.71em">Sep 14</text></g><g class="tick" opacity="1" transform="translate(66.90123950419832,0)"><line stroke="#000" y2="6" x1="0.5" x2="0.5"></line><text fill="#000" y="9" x="0.5" dy="0.71em">Sep 21</text></g><g class="tick" opacity="1" transform="translate(129.1763294682127,0)"><line stroke="#000" y2="6" x1="0.5" x2="0.5"></line><text fill="#000" y="9" x="0.5" dy="0.71em">Sep 28</text></g><g class="tick" opacity="1" transform="translate(191.4514194322271,0)"><line stroke="#000" y2="6" x1="0.5" x2="0.5"></line><text fill="#000" y="9" x="0.5" dy="0.71em">Oct  5</text></g><g class="tick" opacity="1" transform="translate(253.72650939624148,0)"><line stroke="#000" y2="6" x1="0.5" x2="0.5"></line><text fill="#000" y="9" x="0.5" dy="0.71em">Oct 12</text></g><g class="tick" opacity="1" transform="translate(316.0015993602559,0)"><line stroke="#000" y2="6" x1="0.5" x2="0.5"></line><text fill="#000" y="9" x="0.5" dy="0.71em">Oct 19</text></g><g class="tick" opacity="1" transform="translate(378.2766893242703,0)"><line stroke="#000" y2="6" x1="0.5" x2="0.5"></line><text fill="#000" y="9" x="0.5" dy="0.71em">Oct 26</text></g><g class="tick" opacity="1" transform="translate(440.5517792882847,0)"><line stroke="#000" y2="6" x1="0.5" x2="0.5"></line><text fill="#000" y="9" x="0.5" dy="0.71em">Nov  2</text></g><g class="tick" opacity="1" transform="translate(502.82686925229905,0)"><line stroke="#000" y2="6" x1="0.5" x2="0.5"></line><text fill="#000" y="9" x="0.5" dy="0.71em">Nov  9</text></g><g class="tick" opacity="1" transform="translate(565.1019592163135,0)"><line stroke="#000" y2="6" x1="0.5" x2="0.5"></line><text fill="#000" y="9" x="0.5" dy="0.71em">Nov 16</text></g><g class="tick" opacity="1" transform="translate(627.3770491803277,0)"><line stroke="#000" y2="6" x1="0.5" x2="0.5"></line><text fill="#000" y="9" x="0.5" dy="0.71em">Nov 23</text></g><g class="tick" opacity="1" transform="translate(689.6521391443422,0)"><line stroke="#000" y2="6" x1="0.5" x2="0.5"></line><text fill="#000" y="9" x="0.5" dy="0.71em">Nov 30</text></g><g class="tick" opacity="1" transform="translate(751.9272291083566,0)"><line stroke="#000" y2="6" x1="0.5" x2="0.5"></line><text fill="#000" y="9" x="0.5" dy="0.71em">Dec  7</text></g><g class="tick" opacity="1" transform="translate(814.202319072371,0)"><line stroke="#000" y2="6" x1="0.5" x2="0.5"></line><text fill="#000" y="9" x="0.5" dy="0.71em">Dec 14</text></g><g class="tick" opacity="1" transform="translate(876.4774090363853,0)"><line stroke="#000" y2="6" x1="0.5" x2="0.5"></line><text fill="#000" y="9" x="0.5" dy="0.71em">Dec 21</text></g></g><g class="y axis" fill="none" font-size="10" font-family="sans-serif" text-anchor="end"><path class="domain" stroke="#000" d="M-6,200.5H0.5V0.5H-6"></path><g class="tick" opacity="1" transform="translate(0,198.01224451165334)"><line stroke="#000" x2="-6" y1="0.5" y2="0.5"></line><text fill="#000" x="-9" y="0.5" dy="0.32em">10,000</text></g><g class="tick" opacity="1" transform="translate(0,170.84664945527004)"><line stroke="#000" x2="-6" y1="0.5" y2="0.5"></line><text fill="#000" x="-9" y="0.5" dy="0.32em">12,000</text></g><g class="tick" opacity="1" transform="translate(0,143.68105439888677)"><line stroke="#000" x2="-6" y1="0.5" y2="0.5"></line><text fill="#000" x="-9" y="0.5" dy="0.32em">14,000</text></g><g class="tick" opacity="1" transform="translate(0,116.51545934250349)"><line stroke="#000" x2="-6" y1="0.5" y2="0.5"></line><text fill="#000" x="-9" y="0.5" dy="0.32em">16,000</text></g><g class="tick" opacity="1" transform="translate(0,89.34986428612022)"><line stroke="#000" x2="-6" y1="0.5" y2="0.5"></line><text fill="#000" x="-9" y="0.5" dy="0.32em">18,000</text></g><g class="tick" opacity="1" transform="translate(0,62.18426922973694)"><line stroke="#000" x2="-6" y1="0.5" y2="0.5"></line><text fill="#000" x="-9" y="0.5" dy="0.32em">20,000</text></g><g class="tick" opacity="1" transform="translate(0,35.018674173353645)"><line stroke="#000" x2="-6" y1="0.5" y2="0.5"></line><text fill="#000" x="-9" y="0.5" dy="0.32em">22,000</text></g><g class="tick" opacity="1" transform="translate(0,7.8530791169703775)"><line stroke="#000" x2="-6" y1="0.5" y2="0.5"></line><text fill="#000" x="-9" y="0.5" dy="0.32em">24,000</text></g><text transform="rotate(-90)" y="6" dy=".71em" style="text-anchor: end;">Price ($)</text></g></g></svg>