<?xml version="1.0" encoding="utf-8"?>
<!DOCTYPE svg PUBLIC "-//W3C//DTD SVG 1.1//EN" "http://www.w3.org/Graphics/SVG/1.1/DTD/svg11.dtd">
<svg version="1.1" xmlns="http://www.w3.org/2000/svg" width="960" height="250"><g transform="translate(50,20)"><style>.axis path,.axis line{fill:none;stroke:#000;shape-rendering:crispEdges;}path.candle{stroke:#000000;}path.candle.body{stroke-width:0;}path.candle.up{fill:#00AA00;stroke:#00AA00;}path.candle.down{fill:#FF0000;stroke:#FF0000;}</style><g class="candlestick"><g class="data"><path class="candle body up" d="M 9.964014394242305 17.25117650379508 l 7.1171531387445 0 L 17.081167532986804 12.29151377676962 l -7.1171531387445 0 L 9.964014394242305 17.25117650379508 M 27.75689724110356 15.322582714503454 l 7.1171531387445 0 L 34.87405037984806 11.496956742636911 l -7.1171531387445 0 L 27.75689724110356 15.322582714503454 M 36.65333866453418 11.496892593029742 l 7.1171531387445 0 L 43.77049180327868 10.386142145265467 l -7.1171531387445 0 L 36.65333866453418 11.496892593029742 M 63.342662934826066 32.26141478109585 l 7.1171531387445 0 L 70.45981607357056 30.505511734246113 l -7.1171531387445 0 L 63.342662934826066 32.26141478109585 M 81.13554578168731 38.153235449586106 l 7.1171531387445 0 L 88.25269892043181 34.93324591880199 l -7.1171531387445 0 L 81.13554578168731 38.153235449586106 M 107.82487005197919 55.61200008211151 l 7.1171531387445 0 L 114.94202319072369 52.119118122520604 l -7.1171531387445 0 L 107.82487005197919 55.61200008211151 M 116.72131147540982 52.11905397291346 l 7.1171531387445 0 L 123.83846461415432 45.23682751966825 l -7.1171531387445 0 L 116.72131147540982 52.11905397291346 M 134.51419432227107 52.96954946447906 l 7.1171531387445 0 L 141.63134746101557 49.05943845999886 l -7.1171531387445 0 L 134.51419432227107 52.96954946447906 M 161.20351859256294 54.664766982966995 l 7.1171531387445 0 L 168.32067173130744 47.460637801054105 l -7.1171531387445 0 L 161.20351859256294 54.664766982966995 M 170.09996001599356 47.460637801054105 l 7.1171531387445 0 L 177.21711315473806 43.021164238390185 l -7.1171531387445 0 L 170.09996001599356 47.460637801054105 M 214.5821671331467 56.18190519201258 l 7.1171531387445 0 L 221.6993202718912 56.12724972672268 l -7.1171531387445 0 L 214.5821671331467 56.18190519201258 M 223.47860855657734 56.127313876329794 l 7.1171531387445 0 L 230.59576169532184 49.86656881713253 l -7.1171531387445 0 L 223.47860855657734 56.127313876329794 M 241.2714914034386 64.70719553313455 l 7.1171531387445 0 L 248.3886445421831 57.50268145357876 l -7.1171531387445 0 L 241.2714914034386 64.70719553313455 M 250.16793282686922 57.50268145357876 l 7.1171531387445 0 L 257.28508596561375 54.254466095649605 l -7.1171531387445 0 L 250.16793282686922 57.50268145357876 M 276.85725709716115 67.79818020394438 l 7.1171531387445 0 L 283.9744102359057 62.42532985727996 l -7.1171531387445 0 L 276.85725709716115 67.79818020394438 M 285.7536985205918 62.42532985727996 l 7.1171531387445 0 L 292.8708516593363 62.06089593907322 l -7.1171531387445 0 L 285.7536985205918 62.42532985727996 M 303.54658136745303 67.16855180978871 l 7.1171531387445 0 L 310.66373450619756 54.588493100068234 l -7.1171531387445 0 L 303.54658136745303 67.16855180978871 M 356.9252299080368 116.27327989243393 l 7.1171531387445 0 L 364.0423830467813 110.22480588328877 l -7.1171531387445 0 L 356.9252299080368 116.27327989243393 M 383.61455417832866 122.97364220941509 l 7.1171531387445 0 L 390.7317073170732 121.32300866789491 l -7.1171531387445 0 L 383.61455417832866 122.97364220941509 M 392.5109956017593 121.32300866789491 l 7.1171531387445 0 L 399.62814874050383 116.193028733892 l -7.1171531387445 0 L 392.5109956017593 121.32300866789491 M 401.40743702518995 116.193028733892 l 7.1171531387445 0 L 408.5245901639345 108.22468528202732 l -7.1171531387445 0 L 401.40743702518995 116.193028733892 M 419.20031987205124 117.55768332674731 l 7.1171531387445 0 L 426.31747301079577 113.89525395546475 l -7.1171531387445 0 L 419.20031987205124 117.55768332674731 M 436.99320271891247 124.99057000774924 l 7.1171531387445 0 L 444.110355857657 114.70161451731269 l -7.1171531387445 0 L 436.99320271891247 124.99057000774924 M 454.7860855657737 121.87495188779464 l 7.1171531387445 0 L 461.90323870451823 120.30938072535243 l -7.1171531387445 0 L 454.7860855657737 121.87495188779464 M 463.68252698920435 120.30931657574529 l 7.1171531387445 0 L 470.7996801279489 114.8638488737895 l -7.1171531387445 0 L 463.68252698920435 120.30931657574529 M 481.47540983606564 122.46429432866152 l 7.1171531387445 0 L 488.59256297481016 118.96531815639159 l -7.1171531387445 0 L 481.47540983606564 122.46429432866152 M 517.0611755297881 125.53917744807728 l 7.1171531387445 0 L 524.1783286685326 122.96344242187858 l -7.1171531387445 0 L 517.0611755297881 125.53917744807728 M 525.9576169532187 122.96344242187858 l 7.1171531387445 0 L 533.0747700919632 120.16158003048389 l -7.1171531387445 0 L 525.9576169532187 122.96344242187858 M 534.8540583766493 120.16158003048389 l 7.1171531387445 0 L 541.9712115153937 105.6245092555053 l -7.1171531387445 0 L 534.8540583766493 120.16158003048389 M 543.75049980008 105.62444510589816 l 7.1171531387445 0 L 550.8676529388244 105.19586158054366 l -7.1171531387445 0 L 543.75049980008 105.62444510589816 M 561.5433826469413 117.99499119867389 l 7.1171531387445 0 L 568.6605357856857 113.84592290756811 l -7.1171531387445 0 L 561.5433826469413 117.99499119867389 M 579.3362654938024 118.67260349897617 l 7.1171531387445 0 L 586.4534186325469 117.62164048507366 l -7.1171531387445 0 L 579.3362654938024 118.67260349897617 M 588.232706917233 117.62170463468081 l 7.1171531387445 0 L 595.3498600559775 117.26772710243922 l -7.1171531387445 0 L 588.232706917233 117.62170463468081 M 597.1291483406637 117.26779125204637 l 7.1171531387445 0 L 604.2463014794082 107.94107986882689 l -7.1171531387445 0 L 597.1291483406637 117.26779125204637 M 677.1971211515394 167.1940192038264 l 7.1171531387445 0 L 684.3142742902838 164.324607276105 l -7.1171531387445 0 L 677.1971211515394 167.1940192038264 M 694.9900039984005 178.32923631175683 l 7.1171531387445 0 L 702.107157137145 177.89167184140163 l -7.1171531387445 0 L 694.9900039984005 178.32923631175683 M 712.7828868452618 187.50141129135724 l 7.1171531387445 0 L 719.9000399840063 177.21688212381386 l -7.1171531387445 0 L 712.7828868452618 187.50141129135724 M 730.5757696921231 177.21752361988533 l 7.1171531387445 0 L 737.6929228308676 176.25771719773988 l -7.1171531387445 0 L 730.5757696921231 177.21752361988533 M 748.3686525389844 180.9760491026753 l 7.1171531387445 0 L 755.4858056777289 173.77762923579854 l -7.1171531387445 0 L 748.3686525389844 180.9760491026753 M 757.265093962415 173.7776933854057 l 7.1171531387445 0 L 764.3822471011595 172.95933684702115 l -7.1171531387445 0 L 757.265093962415 173.7776933854057 M 766.1615353858456 172.9594009966283 l 7.1171531387445 0 L 773.27868852459 171.33314430582428 l -7.1171531387445 0 L 766.1615353858456 172.9594009966283 M 837.3330667732906 185.69219992096768 l 7.1171531387445 0 L 844.4502199120351 185.28799324632934 l -7.1171531387445 0 L 837.3330667732906 185.69219992096768 M 846.2295081967213 185.28799324632934 l 7.1171531387445 0 L 853.3466613354658 179.3805842233022 l -7.1171531387445 0 L 846.2295081967213 185.28799324632934 M 864.0223910435824 179.7710628820109 l 7.1171531387445 0 L 871.1395441823269 177.27776010099714 l -7.1171531387445 0 L 864.0223910435824 179.7710628820109 M 872.9188324670131 177.27776010099714 l 7.1171531387445 0 L 880.0359856057576 170.47488671179377 l -7.1171531387445 0 L 872.9188324670131 177.27776010099714 M 881.8152738904437 170.4748225621866 l 7.1171531387445 0 L 888.9324270291881 170.20661305470165 l -7.1171531387445 0 L 881.8152738904437 170.4748225621866"></path><path class="candle body down" d="M 1.0675729708116766 7.258977096024267 l 7.1171531387445 0 L 8.184726109556177 17.25124065340225 l -7.1171531387445 0 L 1.0675729708116766 7.258977096024267 M 18.860455817672932 12.29151377676962 l 7.1171531387445 0 L 25.977608956417434 15.322518564896313 l -7.1171531387445 0 L 18.860455817672932 12.29151377676962 M 45.54978008796481 10.386206294872636 l 7.1171531387445 0 L 52.66693322670931 17.333288000944236 l -7.1171531387445 0 L 45.54978008796481 10.386206294872636 M 54.446221511395436 17.333352150551406 l 7.1171531387445 0 L 61.563374650139934 32.26141478109585 l -7.1171531387445 0 L 54.446221511395436 17.333352150551406 M 72.23910435825668 30.505447584639 l 7.1171531387445 0 L 79.35625749700118 38.15329959919322 l -7.1171531387445 0 L 72.23910435825668 30.505447584639 M 90.03198720511796 34.93331006840913 l 7.1171531387445 0 L 97.14914034386246 38.7509173393822 l -7.1171531387445 0 L 90.03198720511796 34.93331006840913 M 98.92842862854857 38.7509173393822 l 7.1171531387445 0 L 106.04558176729307 55.61200008211151 l -7.1171531387445 0 L 98.92842862854857 38.7509173393822 M 125.61775289884046 45.236891669275394 l 7.1171531387445 0 L 132.73490603758498 52.969485314871946 l -7.1171531387445 0 L 125.61775289884046 45.236891669275394 M 143.4106357457017 49.05943845999886 l 7.1171531387445 0 L 150.5277888844462 50.170445506191726 l -7.1171531387445 0 L 143.4106357457017 49.05943845999886 M 152.30707716913233 50.17050965579887 l 7.1171531387445 0 L 159.42423030787683 54.664702833359826 l -7.1171531387445 0 L 152.30707716913233 50.17050965579887 M 178.9964014394242 43.021100088783044 l 7.1171531387445 0 L 186.1135545781687 43.88711978527843 l -7.1171531387445 0 L 178.9964014394242 43.021100088783044 M 187.89284286285485 43.88711978527843 l 7.1171531387445 0 L 195.00999600159935 49.52060998578443 l -7.1171531387445 0 L 187.89284286285485 43.88711978527843 M 196.78928428628546 49.52060998578443 l 7.1171531387445 0 L 203.90643742502996 54.46545415355874 l -7.1171531387445 0 L 196.78928428628546 49.52060998578443 M 205.68572570971608 54.4653900039516 l 7.1171531387445 0 L 212.80287884846058 56.18196934161975 l -7.1171531387445 0 L 205.68572570971608 54.4653900039516 M 232.37504998000796 49.86656881713253 l 7.1171531387445 0 L 239.49220311875246 64.70713138352738 l -7.1171531387445 0 L 232.37504998000796 49.86656881713253 M 259.06437425029986 54.254530245256774 l 7.1171531387445 0 L 266.1815273890444 61.60575447635955 l -7.1171531387445 0 L 259.06437425029986 54.254530245256774 M 267.9608156737305 61.60575447635955 l 7.1171531387445 0 L 275.07796881247504 67.79818020394438 l -7.1171531387445 0 L 267.9608156737305 61.60575447635955 M 294.65013994402244 62.06089593907322 l 7.1171531387445 0 L 301.76729308276697 67.16855180978871 l -7.1171531387445 0 L 294.65013994402244 62.06089593907322 M 312.4430227908837 54.588493100068234 l 7.1171531387445 0 L 319.5601759296282 74.71241731115637 l -7.1171531387445 0 L 312.4430227908837 54.588493100068234 M 321.3394642143143 74.71241731115637 l 7.1171531387445 0 L 328.45661735305885 78.1713641285661 l -7.1171531387445 0 L 321.3394642143143 74.71241731115637 M 330.23590563774496 78.1713641285661 l 7.1171531387445 0 L 337.3530587764895 81.64429556033399 l -7.1171531387445 0 L 330.23590563774496 78.1713641285661 M 339.13234706117555 81.6442314107268 l 7.1171531387445 0 L 346.2495001999201 90.84328507572216 l -7.1171531387445 0 L 339.13234706117555 81.6442314107268 M 348.02878848460614 90.84334922532933 l 7.1171531387445 0 L 355.14594162335067 116.25993677414718 l -7.1171531387445 0 L 348.02878848460614 90.84334922532933 M 365.8216713314674 110.22474173368161 l 7.1171531387445 0 L 372.93882447021196 122.49765212437839 l -7.1171531387445 0 L 365.8216713314674 110.22474173368161 M 374.7181127548981 122.49765212437839 l 7.1171531387445 0 L 381.8352658936426 122.97357805980795 l -7.1171531387445 0 L 374.7181127548981 122.49765212437839 M 410.3038784486206 108.22468528202732 l 7.1171531387445 0 L 417.4210315873651 117.55768332674731 l -7.1171531387445 0 L 410.3038784486206 108.22468528202732 M 428.0967612954818 113.89525395546475 l 7.1171531387445 0 L 435.21391443422635 124.99063415735641 l -7.1171531387445 0 L 428.0967612954818 113.89525395546475 M 445.8896441423431 114.70167866691983 l 7.1171531387445 0 L 453.00679728108764 121.87495188779464 l -7.1171531387445 0 L 445.8896441423431 114.70167866691983 M 472.57896841263494 114.86391302339663 l 7.1171531387445 0 L 479.69612155137946 122.46423017905437 l -7.1171531387445 0 L 472.57896841263494 114.86391302339663 M 490.3718512594962 118.96531815639159 l 7.1171531387445 0 L 497.48900439824075 119.68655218955438 l -7.1171531387445 0 L 490.3718512594962 118.96531815639159 M 499.2682926829268 119.68661633916153 l 7.1171531387445 0 L 506.38544582167134 121.8727708011516 l -7.1171531387445 0 L 499.2682926829268 119.68661633916153 M 508.16473410635746 121.8727708011516 l 7.1171531387445 0 L 515.281887245102 125.53924159768445 l -7.1171531387445 0 L 508.16473410635746 121.8727708011516 M 552.6469412235106 105.19579743093652 l 7.1171531387445 0 L 559.764094362255 117.99505534828101 l -7.1171531387445 0 L 552.6469412235106 105.19579743093652 M 570.4398240703717 113.84585875796095 l 7.1171531387445 0 L 577.5569772091162 118.67260349897617 l -7.1171531387445 0 L 570.4398240703717 113.84585875796095 M 606.0255897640943 107.94107986882689 l 7.1171531387445 0 L 613.1427429028388 109.53051468512804 l -7.1171531387445 0 L 606.0255897640943 107.94107986882689 M 614.9220311875249 109.53057883473521 l 7.1171531387445 0 L 622.0391843262694 115.43587092072647 l -7.1171531387445 0 L 614.9220311875249 109.53057883473521 M 623.8184726109555 115.43587092072647 l 7.1171531387445 0 L 630.9356257497 116.04426579491626 l -7.1171531387445 0 L 623.8184726109555 115.43587092072647 M 632.7149140343862 116.04426579491626 l 7.1171531387445 0 L 639.8320671731307 122.57501655059862 l -7.1171531387445 0 L 632.7149140343862 116.04426579491626 M 641.6113554578168 122.57508070020579 l 7.1171531387445 0 L 648.7285085965613 126.85495004028594 l -7.1171531387445 0 L 641.6113554578168 122.57508070020579 M 650.5077968812475 126.8548858906788 l 7.1171531387445 0 L 657.624950019992 138.72371790595153 l -7.1171531387445 0 L 650.5077968812475 126.8548858906788 M 659.4042383046781 138.72371790595153 l 7.1171531387445 0 L 666.5213914434225 164.94243214254556 l -7.1171531387445 0 L 659.4042383046781 138.72371790595153 M 668.3006797281087 164.95616015847517 l 7.1171531387445 0 L 675.4178328668531 167.19408335343354 l -7.1171531387445 0 L 668.3006797281087 164.95616015847517 M 686.09356257497 164.324607276105 l 7.1171531387445 0 L 693.2107157137144 178.3246816896493 l -7.1171531387445 0 L 686.09356257497 164.324607276105 M 703.8864454218311 177.89167184140163 l 7.1171531387445 0 L 711.0035985605756 187.50141129135724 l -7.1171531387445 0 L 703.8864454218311 177.89167184140163 M 721.6793282686924 177.21688212381386 l 7.1171531387445 0 L 728.7964814074369 177.2175877694925 l -7.1171531387445 0 L 721.6793282686924 177.21688212381386 M 739.4722111155537 176.25778134734702 l 7.1171531387445 0 L 746.5893642542982 180.97611325228243 l -7.1171531387445 0 L 739.4722111155537 176.25778134734702 M 775.0579768092763 171.33320845543142 l 7.1171531387445 0 L 782.1751299480208 174.23989130490565 l -7.1171531387445 0 L 775.0579768092763 171.33320845543142 M 783.9544182327068 174.23982715529849 l 7.1171531387445 0 L 791.0715713714512 176.13557634573044 l -7.1171531387445 0 L 783.9544182327068 174.23982715529849 M 792.8508596561375 176.1355121961233 l 7.1171531387445 0 L 799.9680127948819 179.09460527463727 l -7.1171531387445 0 L 792.8508596561375 176.1355121961233 M 801.747301079568 179.09466942424444 l 7.1171531387445 0 L 808.8644542183125 180.10996525657276 l -7.1171531387445 0 L 801.747301079568 179.09466942424444 M 810.6437425029987 180.1100294061799 l 7.1171531387445 0 L 817.7608956417432 181.2697901538051 l -7.1171531387445 0 L 810.6437425029987 180.1100294061799 M 819.5401839264293 181.2697901538051 l 7.1171531387445 0 L 826.6573370651738 185.5191242808829 l -7.1171531387445 0 L 819.5401839264293 181.2697901538051 M 828.43662534986 185.5191242808829 l 7.1171531387445 0 L 835.5537784886045 185.69226407057482 l -7.1171531387445 0 L 828.43662534986 185.5191242808829 M 855.1259496201519 179.3805842233022 l 7.1171531387445 0 L 862.2431027588964 179.77112703161805 l -7.1171531387445 0 L 855.1259496201519 179.3805842233022"></path><path class="candle body equal"></path><path class="candle wick up" d="M 13.522590963614554 9.490741928696423 L 13.522590963614554 12.29151377676962 M 13.522590963614554 17.25117650379508 L 13.522590963614554 25.65702027640782 M 31.315473810475808 4.846182071980962 L 31.315473810475808 11.496956742636911 M 31.315473810475808 15.322582714503454 L 31.315473810475808 17.119220761892052 M 40.21191523390643 8.396221331540573 L 40.21191523390643 10.386142145265467 M 40.21191523390643 11.496892593029742 L 40.21191523390643 19.768086340239222 M 66.90123950419832 27.57515767973439 L 66.90123950419832 30.505511734246113 M 66.90123950419832 32.26141478109585 L 66.90123950419832 35.104012173029446 M 84.69412235105956 34.63796527710065 L 84.69412235105956 34.93324591880199 M 84.69412235105956 38.153235449586106 L 84.69412235105956 38.96498457843441 M 111.38344662135144 48.11579773885464 L 111.38344662135144 52.119118122520604 M 111.38344662135144 55.61200008211151 L 111.38344662135144 57.38137454646227 M 120.27988804478207 42.5841129648922 L 120.27988804478207 45.23682751966825 M 120.27988804478207 52.11905397291346 L 120.27988804478207 55.2393550141899 M 138.07277089164333 47.01653007076982 L 138.07277089164333 49.05943845999886 M 138.07277089164333 52.96954946447906 L 138.07277089164333 54.09839010145902 M 164.7620951619352 45.43607619946931 L 164.7620951619352 47.460637801054105 M 164.7620951619352 54.664766982966995 L 164.7620951619352 61.98808613496047 M 173.65853658536582 41.30952442047246 L 173.65853658536582 43.021164238390185 M 173.65853658536582 47.460637801054105 L 173.65853658536582 48.93691271034655 M 218.14074370251896 52.984752921373115 L 218.14074370251896 56.12724972672268 M 218.14074370251896 56.18190519201258 L 218.14074370251896 59.46630092837307 M 227.0371851259496 48.64823947818141 L 227.0371851259496 49.86656881713253 M 227.0371851259496 56.127313876329794 L 227.0371851259496 64.14678456509131 M 244.83006797281087 55.9695058427462 L 244.83006797281087 57.50268145357876 M 244.83006797281087 64.70719553313455 L 244.83006797281087 66.19116839528473 M 253.72650939624148 50.20944846733758 L 253.72650939624148 54.254466095649605 M 253.72650939624148 57.50268145357876 L 253.72650939624148 59.775437885218366 M 280.4158336665334 61.09967822557053 L 280.4158336665334 62.42532985727996 M 280.4158336665334 67.79818020394438 L 280.4158336665334 69.3661249018511 M 289.31227508996403 57.94133646725547 L 289.31227508996403 62.06089593907322 M 289.31227508996403 62.42532985727996 L 289.31227508996403 65.09619875087884 M 307.10515793682526 52.44737166229595 L 307.10515793682526 54.588493100068234 M 307.10515793682526 67.16855180978871 L 307.10515793682526 67.54671374392501 M 360.483806477409 99.69214603529765 L 360.483806477409 110.22480588328877 M 360.483806477409 116.27327989243393 L 360.483806477409 118.47893583499692 M 387.1731307477009 109.79968643672025 L 387.1731307477009 121.32300866789491 M 387.1731307477009 122.97364220941509 L 387.1731307477009 124.75745033537414 M 396.06957217113154 114.54739886172935 L 396.06957217113154 116.193028733892 M 396.06957217113154 121.32300866789491 L 396.06957217113154 125.53795860554149 M 404.9660135945622 107.38361978271243 L 404.9660135945622 108.22468528202732 M 404.9660135945622 116.193028733892 L 404.9660135945622 120.085241997978 M 422.7588964414235 111.69209984758052 L 422.7588964414235 113.89525395546475 M 422.7588964414235 117.55768332674731 L 422.7588964414235 120.2752531343498 M 440.5517792882847 113.25215414380801 L 440.5517792882847 114.70161451731269 M 440.5517792882847 124.99057000774924 L 440.5517792882847 125.14420831686826 M 458.34466213514594 118.95505421924794 L 458.34466213514594 120.30938072535243 M 458.34466213514594 121.87495188779464 L 458.34466213514594 123.50261986995591 M 467.2411035585766 113.6190257470863 L 467.2411035585766 114.8638488737895 M 467.2411035585766 120.30931657574529 L 467.2411035585766 121.527902513125 M 485.0339864054379 117.73826447086837 L 485.0339864054379 118.96531815639159 M 485.0339864054379 122.46429432866152 L 485.0339864054379 125.28777513766505 M 520.6197520991603 121.45804359094103 L 520.6197520991603 122.96344242187858 M 520.6197520991603 125.53917744807728 L 520.6197520991603 126.692651534202 M 529.5161935225909 119.39383753213895 L 529.5161935225909 120.16158003048389 M 529.5161935225909 122.96344242187858 L 529.5161935225909 124.19588467440225 M 538.4126349460215 102.49541971804963 L 538.4126349460215 105.6245092555053 M 538.4126349460215 120.16158003048389 L 538.4126349460215 121.24237261171012 M 547.3090763694522 101.35997167153347 L 547.3090763694522 105.19586158054366 M 547.3090763694522 105.62444510589816 L 547.3090763694522 109.05144541894826 M 565.1019592163135 112.32955449380827 L 565.1019592163135 113.84592290756811 M 565.1019592163135 117.99499119867389 L 565.1019592163135 119.35040824809988 M 582.8948420631747 116.82079678944044 L 582.8948420631747 117.62164048507366 M 582.8948420631747 118.67260349897617 L 582.8948420631747 120.05316719440408 M 591.7912834866053 115.53703485119856 L 591.7912834866053 117.26772710243922 M 591.7912834866053 117.62170463468081 L 591.7912834866053 119.75538471802398 M 600.687724910036 105.4229511898469 L 600.687724910036 107.94107986882689 M 600.687724910036 117.26779125204637 L 600.687724910036 117.45363266395356 M 680.7556977209116 162.9371795727123 L 680.7556977209116 164.324607276105 M 680.7556977209116 167.1940192038264 L 680.7556977209116 180.1830316591141 M 698.5485805677728 172.13988976531508 L 698.5485805677728 177.89167184140163 M 698.5485805677728 178.32923631175683 L 698.5485805677728 179.31675536419016 M 716.3414634146341 175.6647823788727 L 716.3414634146341 177.21688212381386 M 716.3414634146341 187.50141129135724 L 716.3414634146341 193.98295929835726 M 734.1343462614954 169.846092262531 L 734.1343462614954 176.25771719773988 M 734.1343462614954 177.21752361988533 L 734.1343462614954 178.66409726106835 M 751.9272291083566 172.98942301277344 L 751.9272291083566 173.77762923579854 M 751.9272291083566 180.9760491026753 L 751.9272291083566 181.60426620547375 M 760.8236705317872 170.90193064657672 L 760.8236705317872 172.95933684702115 M 760.8236705317872 173.7776933854057 L 760.8236705317872 176.17303971630477 M 769.7201119552178 170.54211550008466 L 769.7201119552178 171.33314430582428 M 769.7201119552178 172.9594009966283 L 769.7201119552178 175.08313789086355 M 840.8916433426629 183.15950928116516 L 840.8916433426629 185.28799324632934 M 840.8916433426629 185.69219992096768 L 840.8916433426629 188.71890668541545 M 849.7880847660936 178.62810933145846 L 849.7880847660936 179.3805842233022 M 849.7880847660936 185.28799324632934 L 849.7880847660936 186.959218811744 M 867.5809676129546 176.56755980026378 L 867.5809676129546 177.27776010099714 M 867.5809676129546 179.7710628820109 L 867.5809676129546 182.43064144475179 M 876.4774090363853 169.10773028425973 L 876.4774090363853 170.47488671179377 M 876.4774090363853 177.27776010099714 L 876.4774090363853 179.28455226140193 M 885.3738504598159 164.68609031238293 L 885.3738504598159 170.20661305470165 M 885.3738504598159 170.4748225621866 L 885.3738504598159 172.4505663127319" style="stroke-width: 1px;"></path><path class="candle wick down" d="M 4.626149540183927 3.8461538461538396 L 4.626149540183927 7.258977096024267 M 4.626149540183927 17.25124065340225 L 4.626149540183927 19.24205956162723 M 22.41903238704518 6.328743642773929 L 22.41903238704518 12.29151377676962 M 22.41903238704518 15.322518564896313 L 22.41903238704518 16.5477760614194 M 49.10835665733706 6.412138132066076 L 49.10835665733706 10.386206294872636 M 49.10835665733706 17.333288000944236 L 49.10835665733706 18.255374454086848 M 58.004798080767685 17.271768527689517 L 58.004798080767685 17.333352150551406 M 58.004798080767685 32.26141478109585 L 58.004798080767685 32.57876288765607 M 75.79768092762893 27.12848396516415 L 75.79768092762893 30.505447584639 M 75.79768092762893 38.15329959919322 L 75.79768092762893 39.0826349579435 M 93.5905637744902 30.722914752870025 L 93.5905637744902 34.93331006840913 M 93.5905637744902 38.7509173393822 L 93.5905637744902 40.61670866327614 M 102.48700519792082 37.10958549089844 L 102.48700519792082 38.7509173393822 M 102.48700519792082 55.61200008211151 L 102.48700519792082 57.73182385031072 M 129.1763294682127 42.97741420631539 L 129.1763294682127 45.236891669275394 M 129.1763294682127 52.969485314871946 L 129.1763294682127 55.47414257635083 M 146.96921231507397 48.049402895456666 L 146.96921231507397 49.05943845999886 M 146.96921231507397 50.170445506191726 L 146.96921231507397 52.65406169652613 M 155.8656537385046 48.77865562951291 L 155.8656537385046 50.17050965579887 M 155.8656537385046 54.664702833359826 L 155.8656537385046 55.51115689967514 M 182.55497800879647 38.49335666668375 L 182.55497800879647 43.021100088783044 M 182.55497800879647 43.88711978527843 L 182.55497800879647 47.33958749236618 M 191.4514194322271 33.50893219129924 L 191.4514194322271 43.88711978527843 M 191.4514194322271 49.52060998578443 L 191.4514194322271 54.197180496466615 M 200.34786085565773 47.49957661259282 L 200.34786085565773 49.52060998578443 M 200.34786085565773 54.46545415355874 L 200.34786085565773 57.879367946750676 M 209.24430227908834 52.72815449278187 L 209.24430227908834 54.4653900039516 M 209.24430227908834 56.18196934161975 L 209.24430227908834 57.18655218955436 M 235.93362654938022 47.48514295098457 L 235.93362654938022 49.86656881713253 M 235.93362654938022 64.70713138352738 L 235.93362654938022 67.33976711126618 M 262.6229508196721 53.079373591916095 L 262.6229508196721 54.254530245256774 M 262.6229508196721 61.60575447635955 L 262.6229508196721 64.30715858296082 M 271.51939224310274 60.32744525472526 L 271.51939224310274 61.60575447635955 M 271.51939224310274 67.79818020394438 L 271.51939224310274 68.13560713754191 M 298.2087165133947 61.250365652760706 L 298.2087165133947 62.06089593907322 M 298.2087165133947 67.16855180978871 L 298.2087165133947 68.52307076471459 M 316.0015993602559 53.590902559312696 L 316.0015993602559 54.588493100068234 M 316.0015993602559 74.71241731115637 L 316.0015993602559 81.00594281960616 M 324.89804078368655 73.9255582298814 L 324.89804078368655 74.71241731115637 M 324.89804078368655 78.1713641285661 L 324.89804078368655 83.0195989879758 M 333.7944822071172 77.32118938503618 L 333.7944822071172 78.1713641285661 M 333.7944822071172 81.64429556033399 L 333.7944822071172 86.053875406067 M 342.6909236305478 81.37595775363468 L 342.6909236305478 81.6442314107268 M 342.6909236305478 90.84328507572216 L 342.6909236305478 92.92461907963276 M 351.5873650539784 89.52982186937083 L 351.5873650539784 90.84334922532933 M 351.5873650539784 116.25993677414718 L 351.5873650539784 116.53565178566843 M 369.38024790083966 102.87653253411474 L 369.38024790083966 110.22474173368161 M 369.38024790083966 122.49765212437839 L 369.38024790083966 130.95860040953107 M 378.2766893242703 115.19062697260041 L 378.2766893242703 122.49765212437839 M 378.2766893242703 122.97357805980795 L 378.2766893242703 137.91883278506802 M 413.86245501799283 108.22462113242017 L 413.86245501799283 108.22468528202732 M 413.86245501799283 117.55768332674731 L 413.86245501799283 122.60606496045816 M 431.65533786485406 112.19490446840501 L 431.65533786485406 113.89525395546475 M 431.65533786485406 124.99063415735641 L 431.65533786485406 125.3809845168508 M 449.44822071171535 111.76292101387169 L 449.44822071171535 114.70167866691983 M 449.44822071171535 121.87495188779464 L 449.44822071171535 124.89646253406343 M 476.13754498200717 112.44816711742457 L 476.13754498200717 114.86391302339663 M 476.13754498200717 122.46423017905437 L 476.13754498200717 124.0217826406031 M 493.93042782886846 115.31417911596708 L 493.93042782886846 118.96531815639159 M 493.93042782886846 119.68655218955438 L 493.93042782886846 121.27707754917708 M 502.82686925229905 117.47666237291962 L 502.82686925229905 119.68661633916153 M 502.82686925229905 121.8727708011516 L 502.82686925229905 129.45390722427214 M 511.7233106757297 120.61344986323303 L 511.7233106757297 121.8727708011516 M 511.7233106757297 125.53924159768445 L 511.7233106757297 127.76459146964181 M 556.2055177928828 104.02878777770364 L 556.2055177928828 105.19579743093652 M 556.2055177928828 117.99505534828101 L 556.2055177928828 121.23351996592372 M 573.998400639744 112.26540488666046 L 573.998400639744 113.84585875796095 M 573.998400639744 118.67260349897617 L 573.998400639744 121.35309483364722 M 609.5841663334666 106.55224087407689 L 609.5841663334666 107.94107986882689 M 609.5841663334666 109.53051468512804 L 609.5841663334666 121.75980334296432 M 618.4806077568971 108.235398266421 L 618.4806077568971 109.53057883473521 M 618.4806077568971 115.43587092072647 L 618.4806077568971 117.75096609308363 M 627.3770491803277 112.25898992594568 L 627.3770491803277 115.43587092072647 M 627.3770491803277 116.04426579491626 L 627.3770491803277 117.10805873024833 M 636.2734906037584 114.29381546467408 L 636.2734906037584 116.04426579491626 M 636.2734906037584 122.57501655059862 L 636.2734906037584 124.12666724828976 M 645.169932027189 120.33921029267616 L 645.169932027189 122.57508070020579 M 645.169932027189 126.85495004028594 L 645.169932027189 128.93795193398233 M 654.0663734506197 126.08348686472644 L 654.0663734506197 126.8548858906788 M 654.0663734506197 138.72371790595153 L 654.0663734506197 138.8169272851373 M 662.9628148740503 136.66252687868538 L 662.9628148740503 138.72371790595153 M 662.9628148740503 164.94243214254556 L 662.9628148740503 168.54533067839492 M 671.8592562974809 159.3263264855766 L 671.8592562974809 164.95616015847517 M 671.8592562974809 167.19408335343354 L 671.8592562974809 175.47201280939356 M 689.6521391443422 161.6815793120083 L 689.6521391443422 164.324607276105 M 689.6521391443422 178.3246816896493 L 689.6521391443422 179.4107986882688 M 707.4450219912034 175.8180357903488 L 707.4450219912034 177.89167184140163 M 707.4450219912034 187.50141129135724 L 707.4450219912034 196.15384615384613 M 725.2379048380647 173.90676239498708 L 725.2379048380647 177.21688212381386 M 725.2379048380647 177.2175877694925 L 725.2379048380647 183.22750786474182 M 743.0307876849259 175.1256049307954 L 743.0307876849259 176.25778134734702 M 743.0307876849259 180.97611325228243 L 743.0307876849259 182.37123890853292 M 778.6165533786485 168.78762374459217 L 778.6165533786485 171.33320845543142 M 778.6165533786485 174.23989130490565 L 778.6165533786485 174.71036452372766 M 787.512994802079 171.02099231744305 L 787.512994802079 174.23982715529849 M 787.512994802079 176.13557634573044 L 787.512994802079 177.62743960955981 M 796.4094362255097 173.12349569171238 L 796.4094362255097 176.1355121961233 M 796.4094362255097 179.09460527463727 L 796.4094362255097 179.6031833601051 M 805.3058776489403 178.12581790749113 L 805.3058776489403 179.09466942424444 M 805.3058776489403 180.10996525657276 L 805.3058776489403 181.8297520745983 M 814.202319072371 179.750278409295 L 814.202319072371 180.1100294061799 M 814.202319072371 181.2697901538051 L 814.202319072371 189.71322559620643 M 823.0987604958016 175.0078904016792 L 823.0987604958016 181.2697901538051 M 823.0987604958016 185.5191242808829 L 823.0987604958016 187.47440430674803 M 831.9952019192323 184.3157418003972 L 831.9952019192323 185.5191242808829 M 831.9952019192323 185.69226407057482 L 831.9952019192323 187.46151023571133 M 858.6845261895241 176.08784903801248 L 858.6845261895241 179.3805842233022 M 858.6845261895241 179.77112703161805 L 858.6845261895241 185.36131624729927" style="stroke-width: 1px;"></path><path class="candle wick equal" style="stroke-width: 1px;"></path></g></g><g class="x axis" transform="translate(0,200)" fill="none" font-size="10" font-family="sans-serif" text-anchor="middle"><path class="domain" stroke="#000" d="M0.5,6V0.5H890.5V6"></path><g class="tick" opacity="1" transform="translate(40.21191523390643,0)"><line stroke="#000" y2="6" x1="0.5" x2="0.5"></line><text fill="#000" y="9" x="0.5" dy="0.71em">Apr  4</text></g><g class="tick" opacity="1" transform="translate(102.48700519792082,0)"><line stroke="#000" y2="6" x1="0.5" x2="0.5"></line><text fill="#000" y="9" x="0.5" dy="0.71em">Apr 11</text></g><g class="tick" opacity="1" transform="translate(164.7620951619352,0)"><line stroke="#000" y2="6" x1="0.5" x2="0.5"></line><text fill="#000" y="9" x="0.5" dy="0.71em">Apr 18</text></g><g class="tick" opacity="1" transform="translate(227.0371851259496,0)"><line stroke="#000" y2="6" x1="0.5" x2="0.5"></line><text fill="#000" y="9" x="0.5" dy="0.71em">Apr 25</text></g><g class="tick" opacity="1" transform="translate(289.31227508996403,0)"><line stroke="#000" y2="6" x1="0.5" x2="0.5"></line><text fill="#000" y="9" x="0.5" dy="0.71em">May  2</text></g><g class="tick" opacity="1" transform="translate(351.5873650539784,0)"><line stroke="#000" y2="6" x1="0.5" x2="0.5"></line><text fill="#000" y="9" x="0.5" dy="0.71em">May  9</text></g><g class="tick" opacity="1" transform="translate(413.86245501799283,0)"><line stroke="#000" y2="6" x1="0.5" x2="0.5"></line><text fill="#000" y="9" x="0.5" dy="0.71em">May 16</text></g><g class="tick" opacity="1" transform="translate(476.13754498200717,0)"><line stroke="#000" y2="6" x1="0.5" x2="0.5"></line><text fill="#000" y="9" x="0.5" dy="0.71em">May 23</text></g><g class="tick" opacity="1" transform="translate(538.4126349460215,0)"><line stroke="#000" y2="6" x1="0.5" x2="0.5"></line><text fill="#000" y="9" x="0.5" dy="0.71em">May 30</text></g><g class="tick" opacity="1" transform="translate(600.687724910036,0)"><line stroke="#000" y2="6" x1="0.5" x2="0.5"></line><text fill="#000" y="9" x="0.5" dy="0.71em">Jun  6</text></g><g class="tick" opacity="1" transform="translate(662.9628148740503,0)"><line stroke="#000" y2="6" x1="0.5" x2="0.5"></line><text fill="#000" y="9" x="0.5" dy="0.71em">Jun 13</text></g><g class="tick" opacity="1" transform="translate(725.2379048380647,0)"><line stroke="#000" y2="6" x1="0.5" x2="0.5"></line><text fill="#000" y="9" x="0.5" dy="0.71em">Jun 20</text></g><g class="tick" opacity="1" transform="translate(787.512994802079,0)"><line stroke="#000" y2="6" x1="0.5" x2="0.5"></line><text fill="#000" y="9" x="0.5" dy="0.71em">Jun 27</text></g><g class="tick" opacity="1" transform="translate(849.7880847660936,0)"><line stroke="#000" y2="6" x1="0.5" x2="0.5"></line><text fill="#000" y="9" x="0.5" dy="0.71em">Jul  4</text></g></g><g class="y axis" fill="none" font-size="10" font-family="sans-serif" text-anchor="end"><path class="domain" stroke="#000" d="M-6,200.5H0.5V0.5H-6"></path><g class="tick" opacity="1" transform="translate(0,193.72899100365908)"><line stroke="#000" x2="-6" y1="0.5" y2="0.5"></line><text fill="#000" x="-9" y="0.5" dy="0.32em">18,000</text></g><g class="tick" opacity="1" transform="translate(0,180.89906957409792)"><line stroke="#000" x2="-6" y1="0.5" y2="0.5"></line><text fill="#000" x="-9" y="0.5" dy="0.32em">20,000</text></g><g class="tick" opacity="1" transform="translate(0,168.06914814453674)"><line stroke="#000" x2="-6" y1="0.5" y2="0.5"></line><text fill="#000" x="-9" y="0.5" dy="0.32em">22,000</text></g><g class="tick" opacity="1" transform="translate(0,155.2392267149756)"><line stroke="#000" x2="-6" y1="0.5" y2="0.5"></line><text fill="#000" x="-9" y="0.5" dy="0.32em">24,000</text></g><g class="tick" opacity="1" transform="translate(0,142.4093052854144)"><line stroke="#000" x2="-6" y1="0.5" y2="0.5"></line><text fill="#000" x="-9" y="0.5" dy="0.32em">26,000</text></g><g class="tick" opacity="1" transform="translate(0,129.57938385585325)"><line stroke="#000" x2="-6" y1="0.5" y2="0.5"></line><text fill="#000" x="-9" y="0.5" dy="0.32em">28,000</text></g><g class="tick" opacity="1" transform="translate(0,116.7494624262921)"><line stroke="#000" x2="-6" y1="0.5" y2="0.5"></line><text fill="#000" x="-9" y="0.5" dy="0.32em">30,000</text></g><g class="tick" opacity="1" transform="translate(0,103.91954099673092)"><line stroke="#000" x2="-6" y1="0.5" y2="0.5"></line><text fill="#000" x="-9" y="0.5" dy="0.32em">32,000</text></g><g class="tick" opacity="1" transform="translate(0,91.08961956716976)"><line stroke="#000" x2="-6" y1="0.5" y2="0.5"></line><text fill="#000" x="-9" y="0.5" dy="0.32em">34,000</text></g><g class="tick" opacity="1" transform="translate(0,78.25969813760861)"><line stroke="#000" x2="-6" y1="0.5" y2="0.5"></line><text fill="#000" x="-9" y="0.5" dy="0.32em">36,000</text></g><g class="tick" opacity="1" transform="translate(0,65.42977670804743)"><line stroke="#000" x2="-6" y1="0.5" y2="0.5"></line><text fill="#000" x="-9" y="0.5" dy="0.32em">38,000</text></g><g class="tick" opacity="1" transform="translate(0,52.599855278486245)"><line stroke="#000" x2="-6" y1="0.5" y2="0.5"></line><text fill="#000" x="-9" y="0.5" dy="0.32em">40,000</text></g><g class="tick" opacity="1" transform="translate(0,39.76993384892509)"><line stroke="#000" x2="-6" y1="0.5" y2="0.5"></line><text fill="#000" x="-9" y="0.5" dy="0.32em">42,000</text></g><g class="tick" opacity="1" transform="translate(0,26.94001241936391)"><line stroke="#000" x2="-6" y1="0.5" y2="0.5"></line><text fill="#000" x="-9" y="0.5" dy="0.32em">44,000</text></g><g class="tick" opacity="1" transform="translate(0,14.110090989802757)"><line stroke="#000" x2="-6" y1="0.5" y2="0.5"></line><text fill="#000" x="-9" y="0.5" dy="0.32em">46,000</text></g><g class="tick" opacity="1" transform="translate(0,1.2801695602416032)"><line stroke="#000" x2="-6" y1="0.5" y2="0.5"></line><text fill="#000" x="-9" y="0.5" dy="0.32em">48,000</text></g><text transform="rotate(-90)" y="6" dy=".71em" style="text-anchor: end;">Price ($)</text></g></g></svg>