<?xml version="1.0" encoding="utf-8"?>
<!DOCTYPE svg PUBLIC "-//W3C//DTD SVG 1.1//EN" "http://www.w3.org/Graphics/SVG/1.1/DTD/svg11.dtd">
<svg version="1.1" xmlns="http://www.w3.org/2000/svg" width="960" height="250"><g transform="translate(50,20)"><style>.axis path,.axis line{fill:none;stroke:#000;shape-rendering:crispEdges;}path.candle{stroke:#000000;}path.candle.body{stroke-width:0;}path.candle.up{fill:#00AA00;stroke:#00AA00;}path.candle.down{fill:#FF0000;stroke:#FF0000;}</style><g class="candlestick"><g class="data"><path class="candle body up" d="M 9.964014394242305 175.04166261534453 l 7.1171531387445 0 L 17.081167532986804 164.32199552418976 l -7.1171531387445 0 L 9.964014394242305 175.04166261534453 M 18.860455817672932 164.32199552418976 l 7.1171531387445 0 L 25.977608956417434 148.89799953808364 l -7.1171531387445 0 L 18.860455817672932 164.32199552418976 M 27.75689724110356 148.89799953808364 l 7.1171531387445 0 L 34.87405037984806 134.33227486981582 l -7.1171531387445 0 L 27.75689724110356 148.89799953808364 M 36.65333866453418 134.3311809034429 l 7.1171531387445 0 L 43.77049180327868 128.03906921490236 l -7.1171531387445 0 L 36.65333866453418 134.3311809034429 M 81.13554578168731 163.7770908738612 l 7.1171531387445 0 L 88.25269892043181 145.6050513590957 l -7.1171531387445 0 L 81.13554578168731 163.7770908738612 M 90.03198720511796 145.6050513590957 l 7.1171531387445 0 L 97.14914034386246 135.90638308374417 l -7.1171531387445 0 L 90.03198720511796 145.6050513590957 M 125.61775289884046 154.06354465583863 l 7.1171531387445 0 L 132.73490603758498 149.6533286202345 l -7.1171531387445 0 L 125.61775289884046 154.06354465583863 M 161.20351859256294 181.26501851735 l 7.1171531387445 0 L 168.32067173130744 169.81567585548828 l -7.1171531387445 0 L 161.20351859256294 181.26501851735 M 178.9964014394242 174.55894995331388 l 7.1171531387445 0 L 186.1135545781687 173.563987537185 l -7.1171531387445 0 L 178.9964014394242 174.55894995331388 M 196.78928428628546 173.59522027713058 l 7.1171531387445 0 L 203.90643742502996 172.42697358753844 l -7.1171531387445 0 L 196.78928428628546 173.59522027713058 M 214.5821671331467 183.94414216451838 l 7.1171531387445 0 L 221.6993202718912 167.52004212033088 l -7.1171531387445 0 L 214.5821671331467 183.94414216451838 M 223.47860855657734 167.50188227854116 l 7.1171531387445 0 L 230.59576169532184 162.66644151380092 l -7.1171531387445 0 L 223.47860855657734 167.50188227854116 M 232.37504998000796 162.698822918438 l 7.1171531387445 0 L 239.49220311875246 162.60802370948946 l -7.1171531387445 0 L 232.37504998000796 162.698822918438 M 250.16793282686922 169.0072347059344 l 7.1171531387445 0 L 257.28508596561375 166.63660957591648 l -7.1171531387445 0 L 250.16793282686922 169.0072347059344 M 259.06437425029986 166.68736961561785 l 7.1171531387445 0 L 266.1815273890444 156.02584683718132 l -7.1171531387445 0 L 259.06437425029986 166.68736961561785 M 267.9608156737305 155.99045702501883 l 7.1171531387445 0 L 275.07796881247504 144.25132267098277 l -7.1171531387445 0 L 267.9608156737305 155.99045702501883 M 285.7536985205918 147.9829513654932 l 7.1171531387445 0 L 292.8708516593363 140.5790416522008 l -7.1171531387445 0 L 285.7536985205918 147.9829513654932 M 294.65013994402244 140.58407389751602 l 7.1171531387445 0 L 301.76729308276697 135.6742434194203 l -7.1171531387445 0 L 294.65013994402244 140.58407389751602 M 312.4430227908837 137.81431513635502 l 7.1171531387445 0 L 319.5601759296282 96.35747486656014 l -7.1171531387445 0 L 312.4430227908837 137.81431513635502 M 321.3394642143143 96.3575295648788 l 7.1171531387445 0 L 328.45661735305885 96.10832402513812 l -7.1171531387445 0 L 321.3394642143143 96.3575295648788 M 339.13234706117555 104.93028764926842 l 7.1171531387445 0 L 346.2495001999201 87.63506218236137 l -7.1171531387445 0 L 339.13234706117555 104.93028764926842 M 365.8216713314674 92.08055863349071 l 7.1171531387445 0 L 372.93882447021196 84.30787285590246 l -7.1171531387445 0 L 365.8216713314674 92.08055863349071 M 383.61455417832866 87.95455506155925 l 7.1171531387445 0 L 390.7317073170732 81.26850608214673 l -7.1171531387445 0 L 383.61455417832866 87.95455506155925 M 392.5109956017593 81.26850608214673 l 7.1171531387445 0 L 399.62814874050383 64.93416597885354 l -7.1171531387445 0 L 392.5109956017593 81.26850608214673 M 410.3038784486206 68.03610762913769 l 7.1171531387445 0 L 417.4210315873651 44.22379628910852 l -7.1171531387445 0 L 410.3038784486206 68.03610762913769 M 428.0967612954818 44.578296092238304 l 7.1171531387445 0 L 435.21391443422635 36.004991024662274 l -7.1171531387445 0 L 428.0967612954818 44.578296092238304 M 454.7860855657737 82.59466681766318 l 7.1171531387445 0 L 461.90323870451823 78.29975483775998 l -7.1171531387445 0 L 454.7860855657737 82.59466681766318 M 499.2682926829268 103.14422345059573 l 7.1171531387445 0 L 506.38544582167134 78.78749974510583 l -7.1171531387445 0 L 499.2682926829268 103.14422345059573 M 517.0611755297881 85.08010371851422 l 7.1171531387445 0 L 524.1783286685326 74.61762812162208 l -7.1171531387445 0 L 517.0611755297881 85.08010371851422 M 534.8540583766493 85.42207760667463 l 7.1171531387445 0 L 541.9712115153937 83.35655969805127 l -7.1171531387445 0 L 534.8540583766493 85.42207760667463 M 543.75049980008 83.38336187418669 l 7.1171531387445 0 L 550.8676529388244 82.64280133806965 l -7.1171531387445 0 L 543.75049980008 83.38336187418669 M 552.6469412235106 82.64280133806965 l 7.1171531387445 0 L 559.764094362255 71.21331416587557 l -7.1171531387445 0 L 552.6469412235106 82.64280133806965 M 561.5433826469413 71.28245284064121 l 7.1171531387445 0 L 568.6605357856857 63.536842730781615 l -7.1171531387445 0 L 561.5433826469413 71.28245284064121 M 570.4398240703717 63.536788032462965 l 7.1171531387445 0 L 577.5569772091162 49.811229538562344 l -7.1171531387445 0 L 570.4398240703717 63.536788032462965 M 579.3362654938024 49.8649979857891 l 7.1171531387445 0 L 586.4534186325469 44.52140984084889 l -7.1171531387445 0 L 579.3362654938024 49.8649979857891 M 588.232706917233 44.52140984084889 l 7.1171531387445 0 L 595.3498600559775 34.01074502523164 l -7.1171531387445 0 L 588.232706917233 44.52140984084889 M 606.0255897640943 37.02702910851977 l 7.1171531387445 0 L 613.1427429028388 15.330011147079745 l -7.1171531387445 0 L 606.0255897640943 37.02702910851977 M 632.7149140343862 45.869121713911 l 7.1171531387445 0 L 639.8320671731307 38.78268104202658 l -7.1171531387445 0 L 632.7149140343862 45.869121713911 M 641.6113554578168 38.78273574034523 l 7.1171531387445 0 L 648.7285085965613 27.776175967904237 l -7.1171531387445 0 L 641.6113554578168 38.78273574034523 M 659.4042383046781 34.73363800442678 l 7.1171531387445 0 L 666.5213914434225 32.60581871086825 l -7.1171531387445 0 L 659.4042383046781 34.73363800442678 M 668.3006797281087 32.60581871086825 l 7.1171531387445 0 L 675.4178328668531 32.21051396203026 l -7.1171531387445 0 L 668.3006797281087 32.60581871086825 M 694.9900039984005 54.19393231988872 l 7.1171531387445 0 L 702.107157137145 52.78468483835246 l -7.1171531387445 0 L 694.9900039984005 54.19393231988872 M 721.6793282686924 69.45186421059256 l 7.1171531387445 0 L 728.7964814074369 49.0394909608184 l -7.1171531387445 0 L 721.6793282686924 69.45186421059256 M 730.5757696921231 49.0394909608184 l 7.1171531387445 0 L 737.6929228308676 44.709845548576425 l -7.1171531387445 0 L 730.5757696921231 49.0394909608184 M 748.3686525389844 44.92584920890039 l 7.1171531387445 0 L 755.4858056777289 34.76388617463675 l -7.1171531387445 0 L 748.3686525389844 44.92584920890039 M 757.265093962415 34.7639408729554 l 7.1171531387445 0 L 764.3822471011595 28.686355990135382 l -7.1171531387445 0 L 757.265093962415 34.7639408729554 M 783.9544182327068 28.829227998432742 l 7.1171531387445 0 L 791.0715713714512 27.57357339564797 l -7.1171531387445 0 L 783.9544182327068 28.829227998432742 M 801.747301079568 37.95564246413389 l 7.1171531387445 0 L 808.8644542183125 31.66500763019664 l -7.1171531387445 0 L 801.747301079568 37.95564246413389 M 810.6437425029987 31.66500763019664 l 7.1171531387445 0 L 817.7608956417432 26.589113056698693 l -7.1171531387445 0 L 810.6437425029987 31.66500763019664 M 837.3330667732906 43.96430746546281 l 7.1171531387445 0 L 844.4502199120351 32.345946998992076 l -7.1171531387445 0 L 837.3330667732906 43.96430746546281 M 846.2295081967213 32.345946998992076 l 7.1171531387445 0 L 853.3466613354658 31.99029853117071 l -7.1171531387445 0 L 846.2295081967213 32.345946998992076 M 855.1259496201519 31.99024383285206 l 7.1171531387445 0 L 862.2431027588964 23.093124718905358 l -7.1171531387445 0 L 855.1259496201519 31.99024383285206 M 864.0223910435824 23.093124718905358 l 7.1171531387445 0 L 871.1395441823269 21.817012944947834 l -7.1171531387445 0 L 864.0223910435824 23.093124718905358 M 881.8152738904437 22.596026399071377 l 7.1171531387445 0 L 888.9324270291881 5.0561353528711095 l -7.1171531387445 0 L 881.8152738904437 22.596026399071377"></path><path class="candle body down" d="M 1.0675729708116766 169.51549148277164 l 7.1171531387445 0 L 8.184726109556177 175.0473512404835 l -7.1171531387445 0 L 1.0675729708116766 169.51549148277164 M 45.54978008796481 128.0163694126652 l 7.1171531387445 0 L 52.66693322670931 130.74439335670104 l -7.1171531387445 0 L 45.54978008796481 128.0163694126652 M 54.446221511395436 130.74439335670104 l 7.1171531387445 0 L 61.563374650139934 141.34602147622275 l -7.1171531387445 0 L 54.446221511395436 130.74439335670104 M 63.342662934826066 141.34602147622275 l 7.1171531387445 0 L 70.45981607357056 156.36371835144342 l -7.1171531387445 0 L 63.342662934826066 141.34602147622275 M 72.23910435825668 156.33144634344364 l 7.1171531387445 0 L 79.35625749700118 163.7656589252647 l -7.1171531387445 0 L 72.23910435825668 156.33144634344364 M 98.92842862854857 135.90249950312048 l 7.1171531387445 0 L 106.04558176729307 149.04645077488263 l -7.1171531387445 0 L 98.92842862854857 135.90249950312048 M 107.82487005197919 149.07265126951296 l 7.1171531387445 0 L 114.94202319072369 153.13372793721436 l -7.1171531387445 0 L 107.82487005197919 149.07265126951296 M 116.72131147540982 153.13372793721436 l 7.1171531387445 0 L 123.83846461415432 154.0437438644896 l -7.1171531387445 0 L 116.72131147540982 153.13372793721436 M 134.51419432227107 149.70151783895957 l 7.1171531387445 0 L 141.63134746101557 153.69980083685803 l -7.1171531387445 0 L 134.51419432227107 149.70151783895957 M 143.4106357457017 153.64264109387534 l 7.1171531387445 0 L 150.5277888844462 156.0149618717712 l -7.1171531387445 0 L 143.4106357457017 153.64264109387534 M 152.30707716913233 156.0149618717712 l 7.1171531387445 0 L 159.42423030787683 181.2751924046177 l -7.1171531387445 0 L 152.30707716913233 156.0149618717712 M 170.09996001599356 169.78925656758335 l 7.1171531387445 0 L 177.21711315473806 174.55894995331388 l -7.1171531387445 0 L 170.09996001599356 169.78925656758335 M 187.89284286285485 173.56644896152397 l 7.1171531387445 0 L 195.00999600159935 173.59516557881193 l -7.1171531387445 0 L 187.89284286285485 173.56644896152397 M 205.68572570971608 172.4475401553485 l 7.1171531387445 0 L 212.80287884846058 183.92248163033545 l -7.1171531387445 0 L 205.68572570971608 172.4475401553485 M 241.2714914034386 162.6079690111708 l 7.1171531387445 0 L 248.3886445421831 169.00718000761574 l -7.1171531387445 0 L 241.2714914034386 162.6079690111708 M 276.85725709716115 144.2437196046913 l 7.1171531387445 0 L 283.9744102359057 147.98289666717454 l -7.1171531387445 0 L 276.85725709716115 144.2437196046913 M 303.54658136745303 135.70667952237602 l 7.1171531387445 0 L 310.66373450619756 137.81431513635502 l -7.1171531387445 0 L 303.54658136745303 135.70667952237602 M 330.23590563774496 96.10832402513812 l 7.1171531387445 0 L 337.3530587764895 104.93028764926842 l -7.1171531387445 0 L 330.23590563774496 96.10832402513812 M 348.02878848460614 87.63971153944607 l 7.1171531387445 0 L 355.14594162335067 91.36499522899386 l -7.1171531387445 0 L 348.02878848460614 87.63971153944607 M 356.9252299080368 91.30728850282475 l 7.1171531387445 0 L 364.0423830467813 92.0974604139516 l -7.1171531387445 0 L 356.9252299080368 91.30728850282475 M 374.7181127548981 84.29321370650595 l 7.1171531387445 0 L 381.8352658936426 87.95455506155925 l -7.1171531387445 0 L 374.7181127548981 84.29321370650595 M 401.40743702518995 64.94532443585686 l 7.1171531387445 0 L 408.5245901639345 68.03616232745634 l -7.1171531387445 0 L 401.40743702518995 64.94532443585686 M 419.20031987205124 44.22379628910852 l 7.1171531387445 0 L 426.31747301079577 44.578296092238304 l -7.1171531387445 0 L 419.20031987205124 44.22379628910852 M 436.99320271891247 35.98431506021495 l 7.1171531387445 0 L 444.110355857657 54.16975566304819 l -7.1171531387445 0 L 436.99320271891247 35.98431506021495 M 445.8896441423431 54.16975566304819 l 7.1171531387445 0 L 453.00679728108764 82.59466681766318 l -7.1171531387445 0 L 445.8896441423431 54.16975566304819 M 463.68252698920435 78.29970013944131 l 7.1171531387445 0 L 470.7996801279489 92.53482816982661 l -7.1171531387445 0 L 463.68252698920435 78.29970013944131 M 472.57896841263494 92.53482816982661 l 7.1171531387445 0 L 479.69612155137946 96.89351838926838 l -7.1171531387445 0 L 472.57896841263494 92.53482816982661 M 481.47540983606564 96.89346369094977 l 7.1171531387445 0 L 488.59256297481016 97.8257965322316 l -7.1171531387445 0 L 481.47540983606564 96.89346369094977 M 490.3718512594962 97.84089326817728 l 7.1171531387445 0 L 497.48900439824075 103.13574521120593 l -7.1171531387445 0 L 490.3718512594962 97.84089326817728 M 508.16473410635746 78.73974811292987 l 7.1171531387445 0 L 515.281887245102 85.05800559778216 l -7.1171531387445 0 L 508.16473410635746 78.73974811292987 M 525.9576169532187 74.61762812162208 l 7.1171531387445 0 L 533.0747700919632 85.42207760667463 l -7.1171531387445 0 L 525.9576169532187 74.61762812162208 M 597.1291483406637 34.01079972355029 l 7.1171531387445 0 L 604.2463014794082 37.02702910851977 l -7.1171531387445 0 L 597.1291483406637 34.01079972355029 M 614.9220311875249 15.330065845398394 l 7.1171531387445 0 L 622.0391843262694 27.473475472530026 l -7.1171531387445 0 L 614.9220311875249 15.330065845398394 M 623.8184726109555 27.43097487894383 l 7.1171531387445 0 L 630.9356257497 45.869121713911 l -7.1171531387445 0 L 623.8184726109555 27.43097487894383 M 650.5077968812475 27.776175967904237 l 7.1171531387445 0 L 657.624950019992 34.694474008277865 l -7.1171531387445 0 L 650.5077968812475 27.776175967904237 M 677.1971211515394 32.22287578204376 l 7.1171531387445 0 L 684.3142742902838 36.31682613925 l -7.1171531387445 0 L 677.1971211515394 32.22287578204376 M 686.09356257497 36.31682613925 l 7.1171531387445 0 L 693.2107157137144 54.19393231988872 l -7.1171531387445 0 L 686.09356257497 36.31682613925 M 703.8864454218311 52.774237459491474 l 7.1171531387445 0 L 711.0035985605756 63.92804510572131 l -7.1171531387445 0 L 703.8864454218311 52.774237459491474 M 712.7828868452618 63.92799040740266 l 7.1171531387445 0 L 719.9000399840063 69.45186421059256 l -7.1171531387445 0 L 712.7828868452618 63.92799040740266 M 739.4722111155537 44.709845548576425 l 7.1171531387445 0 L 746.5893642542982 44.92595860553769 l -7.1171531387445 0 L 739.4722111155537 44.709845548576425 M 766.1615353858456 28.686355990135382 l 7.1171531387445 0 L 773.27868852459 28.71928437795887 l -7.1171531387445 0 L 766.1615353858456 28.686355990135382 M 775.0579768092763 28.72524649469105 l 7.1171531387445 0 L 782.1751299480208 28.829282696751363 l -7.1171531387445 0 L 775.0579768092763 28.72524649469105 M 792.8508596561375 27.57357339564797 l 7.1171531387445 0 L 799.9680127948819 37.95569716245248 l -7.1171531387445 0 L 792.8508596561375 27.57357339564797 M 819.5401839264293 26.589113056698693 l 7.1171531387445 0 L 826.6573370651738 32.81837637711766 l -7.1171531387445 0 L 819.5401839264293 26.589113056698693 M 828.43662534986 32.824502588805785 l 7.1171531387445 0 L 835.5537784886045 43.96425276714416 l -7.1171531387445 0 L 828.43662534986 32.824502588805785 M 872.9188324670131 21.836868434615468 l 7.1171531387445 0 L 880.0359856057576 22.596081097390055 l -7.1171531387445 0 L 872.9188324670131 21.836868434615468"></path><path class="candle body equal"></path><path class="candle wick up" d="M 13.522590963614554 162.07679363882184 L 13.522590963614554 164.32199552418976 M 13.522590963614554 175.04166261534453 L 13.522590963614554 186.47224375391147 M 22.41903238704518 147.96894859592044 L 22.41903238704518 148.89799953808364 M 22.41903238704518 164.32199552418976 L 22.41903238704518 167.94045339742635 M 31.315473810475808 129.23045329328073 L 31.315473810475808 134.33227486981582 M 31.315473810475808 148.89799953808364 L 31.315473810475808 151.4653198219443 M 40.21191523390643 120.56076978825449 L 40.21191523390643 128.03906921490236 M 40.21191523390643 134.3311809034429 L 40.21191523390643 150.3713534490703 M 84.69412235105956 142.98708043217098 L 84.69412235105956 145.6050513590957 M 84.69412235105956 163.7770908738612 L 84.69412235105956 172.9070607302742 M 93.5905637744902 130.67995873733878 L 93.5905637744902 135.90638308374417 M 93.5905637744902 145.6050513590957 L 93.5905637744902 149.27065918300315 M 129.1763294682127 145.06654641204847 L 129.1763294682127 149.6533286202345 M 129.1763294682127 154.06354465583863 L 129.1763294682127 159.6700676184991 M 164.7620951619352 164.99478484350723 L 164.7620951619352 169.81567585548828 M 164.7620951619352 181.26501851735 L 164.7620951619352 192.21556721149986 M 182.55497800879647 169.1274069119946 L 182.55497800879647 173.563987537185 M 182.55497800879647 174.55894995331388 L 182.55497800879647 181.0024118895416 M 200.34786085565773 169.94306823960946 L 200.34786085565773 172.42697358753844 M 200.34786085565773 173.59522027713058 L 200.34786085565773 181.3449874592071 M 218.14074370251896 165.22752618933617 L 218.14074370251896 167.52004212033088 M 218.14074370251896 183.94414216451838 L 218.14074370251896 186.7889470188585 M 227.0371851259496 139.25720208385715 L 227.0371851259496 162.66644151380092 M 227.0371851259496 167.50188227854116 L 227.0371851259496 175.44834461446044 M 235.93362654938022 158.94257998053791 L 235.93362654938022 162.60802370948946 M 235.93362654938022 162.698822918438 L 235.93362654938022 170.4729855506296 M 253.72650939624148 160.12258680863843 L 253.72650939624148 166.63660957591648 M 253.72650939624148 169.0072347059344 L 253.72650939624148 173.36565143378297 M 262.6229508196721 153.1919816465699 L 262.6229508196721 156.02584683718132 M 262.6229508196721 166.68736961561785 L 262.6229508196721 167.22937525505824 M 271.51939224310274 144.01196282859797 L 271.51939224310274 144.25132267098277 M 271.51939224310274 155.99045702501883 L 271.51939224310274 156.5939435746148 M 289.31227508996403 140.4703013947371 L 289.31227508996403 140.5790416522008 M 289.31227508996403 147.9829513654932 L 289.31227508996403 149.98846521856441 M 298.2087165133947 126.00046287905168 L 298.2087165133947 135.6742434194203 M 298.2087165133947 140.58407389751602 L 298.2087165133947 140.98545015972346 M 316.0015993602559 94.06244281290788 L 316.0015993602559 96.35747486656014 M 316.0015993602559 137.81431513635502 L 316.0015993602559 142.22737548452864 M 324.89804078368655 86.69053161602199 L 324.89804078368655 96.10832402513812 M 324.89804078368655 96.3575295648788 L 324.89804078368655 104.09061375976903 M 342.6909236305478 83.75481815609602 L 342.6909236305478 87.63506218236137 M 342.6909236305478 104.93028764926842 L 342.6909236305478 109.3803240608452 M 369.38024790083966 78.12893198863569 L 369.38024790083966 84.30787285590246 M 369.38024790083966 92.08055863349071 L 369.38024790083966 92.86061135566852 M 387.1731307477009 72.75892455579056 L 387.1731307477009 81.26850608214673 M 387.1731307477009 87.95455506155925 L 387.1731307477009 92.9183180818376 M 396.06957217113154 62.204555783577035 L 396.06957217113154 64.93416597885354 M 396.06957217113154 81.26850608214673 L 396.06957217113154 82.28835623325847 M 413.86245501799283 41.69673396776963 L 413.86245501799283 44.22379628910852 M 413.86245501799283 68.03610762913769 L 413.86245501799283 72.64394869000152 M 431.65533786485406 30.840211683368295 L 431.65533786485406 36.004991024662274 M 431.65533786485406 44.578296092238304 L 431.65533786485406 46.567126958123254 M 458.34466213514594 69.00765916488706 L 458.34466213514594 78.29975483775998 M 458.34466213514594 82.59466681766318 L 458.34466213514594 92.99998267157264 M 502.82686925229905 77.67728797159468 L 502.82686925229905 78.78749974510583 M 502.82686925229905 103.14422345059573 L 502.82686925229905 104.14837518425676 M 520.6197520991603 62.088267158140525 L 520.6197520991603 74.61762812162208 M 520.6197520991603 85.08010371851422 L 520.6197520991603 86.91742024175606 M 538.4126349460215 79.5428835255753 L 538.4126349460215 83.35655969805127 M 538.4126349460215 85.42207760667463 L 538.4126349460215 96.76700117824552 M 547.3090763694522 80.9044887715729 L 547.3090763694522 82.64280133806965 M 547.3090763694522 83.38336187418669 L 547.3090763694522 92.55523064268074 M 556.2055177928828 68.59720298178476 L 556.2055177928828 71.21331416587557 M 556.2055177928828 82.64280133806965 L 556.2055177928828 82.64280133806965 M 565.1019592163135 63.38582067300635 L 565.1019592163135 63.536842730781615 M 565.1019592163135 71.28245284064121 L 565.1019592163135 80.49605642626041 M 573.998400639744 49.75379630398646 L 573.998400639744 49.811229538562344 M 573.998400639744 63.536788032462965 L 573.998400639744 66.74085144365489 M 582.8948420631747 36.1192011139903 L 582.8948420631747 44.52140984084889 M 582.8948420631747 49.8649979857891 L 582.8948420631747 60.091778527645545 M 591.7912834866053 31.949493585462506 L 591.7912834866053 34.01074502523164 M 591.7912834866053 44.52140984084889 L 591.7912834866053 53.15701629336013 M 609.5841663334666 11.743934678480201 L 609.5841663334666 15.330011147079745 M 609.5841663334666 37.02702910851977 L 609.5841663334666 43.281727147108086 M 636.2734906037584 38.57734355383812 L 636.2734906037584 38.78268104202658 M 636.2734906037584 45.869121713911 L 636.2734906037584 58.63494350888928 M 645.169932027189 27.438359151960725 L 645.169932027189 27.776175967904237 M 645.169932027189 38.78273574034523 L 645.169932027189 53.972732319293584 M 662.9628148740503 24.740255188223017 L 662.9628148740503 32.60581871086825 M 662.9628148740503 34.73363800442678 L 662.9628148740503 42.22872981489826 M 671.8592562974809 22.486684460102623 L 671.8592562974809 32.21051396203026 M 671.8592562974809 32.60581871086825 L 671.8592562974809 33.753608229287636 M 698.5485805677728 44.63458066212269 L 698.5485805677728 52.78468483835246 M 698.5485805677728 54.19393231988872 L 698.5485805677728 60.119127686967374 M 725.2379048380647 48.77765010947101 L 725.2379048380647 49.0394909608184 M 725.2379048380647 69.45186421059256 L 725.2379048380647 69.88496549761336 M 734.1343462614954 39.878780649327666 L 734.1343462614954 44.709845548576425 M 734.1343462614954 49.0394909608184 L 734.1343462614954 54.922787415816 M 751.9272291083566 30.55020119791942 L 751.9272291083566 34.76388617463675 M 751.9272291083566 44.92584920890039 L 751.9272291083566 50.273375632782944 M 760.8236705317872 25.287238374660006 L 760.8236705317872 28.686355990135382 M 760.8236705317872 34.7639408729554 L 760.8236705317872 37.84952772596509 M 787.512994802079 20.73633826350428 L 787.512994802079 27.57357339564797 M 787.512994802079 28.829227998432742 L 787.512994802079 30.425762523005005 M 805.3058776489403 30.074161730763308 L 805.3058776489403 31.66500763019664 M 805.3058776489403 37.95564246413389 L 805.3058776489403 41.58733733048223 M 814.202319072371 25.812342233639498 L 814.202319072371 26.589113056698693 M 814.202319072371 31.66500763019664 L 814.202319072371 39.45536096470681 M 840.8916433426629 31.93138844199146 L 840.8916433426629 32.345946998992076 M 840.8916433426629 43.96430746546281 L 840.8916433426629 45.35058165316872 M 849.7880847660936 27.875015829693382 L 849.7880847660936 31.99029853117071 M 849.7880847660936 32.345946998992076 L 849.7880847660936 34.662530190189955 M 858.6845261895241 13.625556839823417 L 858.6845261895241 23.093124718905358 M 858.6845261895241 31.99024383285206 L 858.6845261895241 33.31689685323633 M 867.5809676129546 18.006892163183693 L 867.5809676129546 21.817012944947834 M 867.5809676129546 23.093124718905358 L 867.5809676129546 26.02829119564484 M 885.3738504598159 3.8461538461538396 L 885.3738504598159 5.0561353528711095 M 885.3738504598159 22.596026399071377 L 885.3738504598159 22.896101375150693" style="stroke-width: 1px;"></path><path class="candle wick down" d="M 4.626149540183927 166.23386585574295 L 4.626149540183927 169.51549148277164 M 4.626149540183927 175.0473512404835 L 4.626149540183927 196.15384615384616 M 49.10835665733706 123.67857395094532 L 49.10835665733706 128.0163694126652 M 49.10835665733706 130.74439335670104 L 49.10835665733706 138.2283267101692 M 58.004798080767685 123.84266890687641 L 58.004798080767685 130.74439335670104 M 58.004798080767685 141.34602147622275 L 58.004798080767685 157.968348227175 M 66.90123950419832 140.71852236474223 L 66.90123950419832 141.34602147622275 M 66.90123950419832 156.36371835144342 L 66.90123950419832 183.62793118443915 M 75.79768092762893 149.67121497043098 L 75.79768092762893 156.33144634344364 M 75.79768092762893 163.7656589252647 L 75.79768092762893 172.08111611875435 M 102.48700519792082 132.60665231324438 L 102.48700519792082 135.90249950312048 M 102.48700519792082 149.04645077488263 L 102.48700519792082 161.8142417093321 M 111.38344662135144 142.440097245734 L 111.38344662135144 149.07265126951296 M 111.38344662135144 153.13372793721436 L 111.38344662135144 156.61899540455357 M 120.27988804478207 148.44323771687993 L 120.27988804478207 153.13372793721436 M 120.27988804478207 154.0437438644896 L 120.27988804478207 164.86640788965047 M 138.07277089164333 142.98708043217098 L 138.07277089164333 149.70151783895957 M 138.07277089164333 153.69980083685803 L 138.07277089164333 153.9592349621851 M 146.96921231507397 150.83459350966382 L 146.96921231507397 153.64264109387534 M 146.96921231507397 156.0149618717712 L 146.96921231507397 167.32783222861693 M 155.8656537385046 155.2942021270032 L 155.8656537385046 156.0149618717712 M 155.8656537385046 181.2751924046177 L 155.8656537385046 185.53690250510422 M 173.65853658536582 167.0215216442122 L 173.65853658536582 169.78925656758335 M 173.65853658536582 174.55894995331388 L 173.65853658536582 178.32131910290207 M 191.4514194322271 159.25983022867135 L 191.4514194322271 173.56644896152397 M 191.4514194322271 173.59516557881193 L 191.4514194322271 175.47788170652802 M 209.24430227908834 171.93731423904006 L 209.24430227908834 172.4475401553485 M 209.24430227908834 183.92248163033545 L 209.24430227908834 190.0729246735889 M 244.83006797281087 162.17147642839407 L 244.83006797281087 162.6079690111708 M 244.83006797281087 169.00718000761574 L 244.83006797281087 174.04659080257838 M 280.4158336665334 138.29248783793827 L 280.4158336665334 144.2437196046913 M 280.4158336665334 147.98289666717454 L 280.4158336665334 152.22043011082056 M 307.10515793682526 132.8678914830867 L 307.10515793682526 135.70667952237602 M 307.10515793682526 137.81431513635502 L 307.10515793682526 145.71652653249154 M 333.7944822071172 91.24247099523195 L 333.7944822071172 96.10832402513812 M 333.7944822071172 104.93028764926842 L 333.7944822071172 110.84087856526922 M 351.5873650539784 82.07612675692091 L 351.5873650539784 87.63971153944607 M 351.5873650539784 91.36499522899386 L 351.5873650539784 97.72422175451025 M 360.483806477409 86.64781222916127 L 360.483806477409 91.30728850282475 M 360.483806477409 92.0974604139516 L 360.483806477409 97.30014569006566 M 378.2766893242703 81.93872458048797 L 378.2766893242703 84.29321370650595 M 378.2766893242703 87.95455506155925 L 378.2766893242703 100.75565727206268 M 404.9660135945622 62.68994866322123 L 404.9660135945622 64.94532443585686 M 404.9660135945622 68.03616232745634 L 404.9660135945622 71.59538192160178 M 422.7588964414235 34.40840180177136 L 422.7588964414235 44.22379628910852 M 422.7588964414235 44.578296092238304 L 422.7588964414235 55.393575844382326 M 440.5517792882847 35.458554821411724 L 440.5517792882847 35.98431506021495 M 440.5517792882847 54.16975566304819 L 440.5517792882847 89.53588345354856 M 449.44822071171535 53.64508939061784 L 449.44822071171535 54.16975566304819 M 449.44822071171535 82.59466681766318 L 449.44822071171535 104.46546133743428 M 467.2411035585766 65.36070346763708 L 467.2411035585766 78.29970013944131 M 467.2411035585766 92.53482816982661 L 467.2411035585766 94.71942431813733 M 476.13754498200717 85.14847661681884 L 476.13754498200717 92.53482816982661 M 476.13754498200717 96.89351838926838 L 476.13754498200717 108.76354581981884 M 485.0339864054379 85.31317325425502 L 485.0339864054379 96.89346369094977 M 485.0339864054379 97.8257965322316 L 485.0339864054379 103.87778260192637 M 493.93042782886846 94.91568188543091 L 493.93042782886846 97.84089326817728 M 493.93042782886846 103.13574521120593 L 493.93042782886846 114.81744633066612 M 511.7233106757297 75.434656907203 L 511.7233106757297 78.73974811292987 M 511.7233106757297 85.05800559778216 L 511.7233106757297 92.67775487644263 M 529.5161935225909 66.82579793250858 L 529.5161935225909 74.61762812162208 M 529.5161935225909 85.42207760667463 L 529.5161935225909 90.20320294100168 M 600.687724910036 32.3241223698532 L 600.687724910036 34.01079972355029 M 600.687724910036 37.02702910851977 L 600.687724910036 49.38272291030762 M 618.4806077568971 12.395993335031733 L 618.4806077568971 15.330065845398394 M 618.4806077568971 27.473475472530026 L 618.4806077568971 27.4818443152825 M 627.3770491803277 18.365549038530446 L 627.3770491803277 27.43097487894383 M 627.3770491803277 45.869121713911 L 627.3770491803277 51.36739670397557 M 654.0663734506197 21.11939058896607 L 654.0663734506197 27.776175967904237 M 654.0663734506197 34.694474008277865 L 654.0663734506197 38.11399409660737 M 680.7556977209116 29.54769041381772 L 680.7556977209116 32.22287578204376 M 680.7556977209116 36.31682613925 L 680.7556977209116 46.7174379377561 M 689.6521391443422 30.41394768617795 L 689.6521391443422 36.31682613925 M 689.6521391443422 54.19393231988872 L 689.6521391443422 56.56373697512694 M 707.4450219912034 37.145833856613905 L 707.4450219912034 52.774237459491474 M 707.4450219912034 63.92804510572131 L 707.4450219912034 67.22990911064821 M 716.3414634146341 58.5492859418932 L 716.3414634146341 63.92799040740266 M 716.3414634146341 69.45186421059256 L 716.3414634146341 74.18994196814704 M 743.0307876849259 40.64789370777672 L 743.0307876849259 44.709845548576425 M 743.0307876849259 44.92595860553769 L 743.0307876849259 50.86504734555186 M 769.7201119552178 22.924271009252237 L 769.7201119552178 28.686355990135382 M 769.7201119552178 28.71928437795887 L 769.7201119552178 39.503331390157314 M 778.6165533786485 24.619918887206893 L 778.6165533786485 28.72524649469105 M 778.6165533786485 28.829282696751363 L 778.6165533786485 33.12304601196308 M 796.4094362255097 22.969561217089193 L 796.4094362255097 27.57357339564797 M 796.4094362255097 37.95569716245248 L 796.4094362255097 38.89618005321225 M 823.0987604958016 24.591256968237616 L 823.0987604958016 26.589113056698693 M 823.0987604958016 32.81837637711766 L 823.0987604958016 35.98065027286586 M 831.9952019192323 29.18722849395573 L 831.9952019192323 32.824502588805785 M 831.9952019192323 43.96425276714416 L 831.9952019192323 46.59223348638065 M 876.4774090363853 14.719523212697396 L 876.4774090363853 21.836868434615468 M 876.4774090363853 22.596081097390055 L 876.4774090363853 25.382468147418706" style="stroke-width: 1px;"></path><path class="candle wick equal" style="stroke-width: 1px;"></path></g></g><g class="x axis" transform="translate(0,200)" fill="none" font-size="10" font-family="sans-serif" text-anchor="middle"><path class="domain" stroke="#000" d="M0.5,6V0.5H890.5V6"></path><g class="tick" opacity="1" transform="translate(4.626149540183927,0)"><line stroke="#000" y2="6" x1="0.5" x2="0.5"></line><text fill="#000" y="9" x="0.5" dy="0.71em">Jan  4</text></g><g class="tick" opacity="1" transform="translate(66.90123950419832,0)"><line stroke="#000" y2="6" x1="0.5" x2="0.5"></line><text fill="#000" y="9" x="0.5" dy="0.71em">Jan 11</text></g><g class="tick" opacity="1" transform="translate(129.1763294682127,0)"><line stroke="#000" y2="6" x1="0.5" x2="0.5"></line><text fill="#000" y="9" x="0.5" dy="0.71em">Jan 18</text></g><g class="tick" opacity="1" transform="translate(191.4514194322271,0)"><line stroke="#000" y2="6" x1="0.5" x2="0.5"></line><text fill="#000" y="9" x="0.5" dy="0.71em">Jan 25</text></g><g class="tick" opacity="1" transform="translate(253.72650939624148,0)"><line stroke="#000" y2="6" x1="0.5" x2="0.5"></line><text fill="#000" y="9" x="0.5" dy="0.71em">Feb  1</text></g><g class="tick" opacity="1" transform="translate(316.0015993602559,0)"><line stroke="#000" y2="6" x1="0.5" x2="0.5"></line><text fill="#000" y="9" x="0.5" dy="0.71em">Feb  8</text></g><g class="tick" opacity="1" transform="translate(378.2766893242703,0)"><line stroke="#000" y2="6" x1="0.5" x2="0.5"></line><text fill="#000" y="9" x="0.5" dy="0.71em">Feb 15</text></g><g class="tick" opacity="1" transform="translate(440.5517792882847,0)"><line stroke="#000" y2="6" x1="0.5" x2="0.5"></line><text fill="#000" y="9" x="0.5" dy="0.71em">Feb 22</text></g><g class="tick" opacity="1" transform="translate(502.82686925229905,0)"><line stroke="#000" y2="6" x1="0.5" x2="0.5"></line><text fill="#000" y="9" x="0.5" dy="0.71em">Mar  1</text></g><g class="tick" opacity="1" transform="translate(565.1019592163135,0)"><line stroke="#000" y2="6" x1="0.5" x2="0.5"></line><text fill="#000" y="9" x="0.5" dy="0.71em">Mar  8</text></g><g class="tick" opacity="1" transform="translate(627.3770491803277,0)"><line stroke="#000" y2="6" x1="0.5" x2="0.5"></line><text fill="#000" y="9" x="0.5" dy="0.71em">Mar 15</text></g><g class="tick" opacity="1" transform="translate(689.6521391443422,0)"><line stroke="#000" y2="6" x1="0.5" x2="0.5"></line><text fill="#000" y="9" x="0.5" dy="0.71em">Mar 22</text></g><g class="tick" opacity="1" transform="translate(751.9272291083566,0)"><line stroke="#000" y2="6" x1="0.5" x2="0.5"></line><text fill="#000" y="9" x="0.5" dy="0.71em">Mar 29</text></g><g class="tick" opacity="1" transform="translate(814.202319072371,0)"><line stroke="#000" y2="6" x1="0.5" x2="0.5"></line><text fill="#000" y="9" x="0.5" dy="0.71em">Apr  5</text></g><g class="tick" opacity="1" transform="translate(876.4774090363853,0)"><line stroke="#000" y2="6" x1="0.5" x2="0.5"></line><text fill="#000" y="9" x="0.5" dy="0.71em">Apr 12</text></g></g><g class="y axis" fill="none" font-size="10" font-family="sans-serif" text-anchor="end"><path class="domain" stroke="#000" d="M-6,200.5H0.5V0.5H-6"></path><g class="tick" opacity="1" transform="translate(0,185.92526056747448)"><line stroke="#000" x2="-6" y1="0.5" y2="0.5"></line><text fill="#000" x="-9" y="0.5" dy="0.32em">30,000</text></g><g class="tick" opacity="1" transform="translate(0,158.57610124562513)"><line stroke="#000" x2="-6" y1="0.5" y2="0.5"></line><text fill="#000" x="-9" y="0.5" dy="0.32em">35,000</text></g><g class="tick" opacity="1" transform="translate(0,131.22694192377574)"><line stroke="#000" x2="-6" y1="0.5" y2="0.5"></line><text fill="#000" x="-9" y="0.5" dy="0.32em">40,000</text></g><g class="tick" opacity="1" transform="translate(0,103.87778260192637)"><line stroke="#000" x2="-6" y1="0.5" y2="0.5"></line><text fill="#000" x="-9" y="0.5" dy="0.32em">45,000</text></g><g class="tick" opacity="1" transform="translate(0,76.52862328007699)"><line stroke="#000" x2="-6" y1="0.5" y2="0.5"></line><text fill="#000" x="-9" y="0.5" dy="0.32em">50,000</text></g><g class="tick" opacity="1" transform="translate(0,49.17946395822764)"><line stroke="#000" x2="-6" y1="0.5" y2="0.5"></line><text fill="#000" x="-9" y="0.5" dy="0.32em">55,000</text></g><g class="tick" opacity="1" transform="translate(0,21.83030463637826)"><line stroke="#000" x2="-6" y1="0.5" y2="0.5"></line><text fill="#000" x="-9" y="0.5" dy="0.32em">60,000</text></g><text transform="rotate(-90)" y="6" dy=".71em" style="text-anchor: end;">Price ($)</text></g></g></svg>