<?xml version="1.0" encoding="utf-8"?>
<!DOCTYPE svg PUBLIC "-//W3C//DTD SVG 1.1//EN" "http://www.w3.org/Graphics/SVG/1.1/DTD/svg11.dtd">
<svg version="1.1" xmlns="http://www.w3.org/2000/svg" width="960" height="250"><g transform="translate(50,20)"><style>.axis path,.axis line{fill:none;stroke:#000;shape-rendering:crispEdges;}path.candle{stroke:#000000;}path.candle.body{stroke-width:0;}path.candle.up{fill:#00AA00;stroke:#00AA00;}path.candle.down{fill:#FF0000;stroke:#FF0000;}</style><g class="candlestick"><g class="data"><path class="candle body up" d="M 18.860455817672932 41.09226007743683 l 7.1171531387445 0 L 25.977608956417434 15.159259212851026 l -7.1171531387445 0 L 18.860455817672932 41.09226007743683 M 27.75689724110356 15.14058917137595 l 7.1171531387445 0 L 34.87405037984806 14.49453055496383 l -7.1171531387445 0 L 27.75689724110356 15.14058917137595 M 45.54978008796481 22.15150300098989 l 7.1171531387445 0 L 52.66693322670931 18.447692558296893 l -7.1171531387445 0 L 45.54978008796481 22.15150300098989 M 63.342662934826066 43.284736927838395 l 7.1171531387445 0 L 70.45981607357056 16.776661195133272 l -7.1171531387445 0 L 63.342662934826066 43.284736927838395 M 81.13554578168731 23.307604596088083 l 7.1171531387445 0 L 88.25269892043181 17.536995501647738 l -7.1171531387445 0 L 81.13554578168731 23.307604596088083 M 90.03198720511796 17.532359316851938 l 7.1171531387445 0 L 97.14914034386246 7.842983698171821 l -7.1171531387445 0 L 90.03198720511796 17.532359316851938 M 116.72131147540982 26.92595887578787 l 7.1171531387445 0 L 123.83846461415432 21.57630283057881 l -7.1171531387445 0 L 116.72131147540982 26.92595887578787 M 134.51419432227107 66.26455072863283 l 7.1171531387445 0 L 141.63134746101557 65.4261530943401 l -7.1171531387445 0 L 134.51419432227107 66.26455072863283 M 143.4106357457017 65.42020123548059 l 7.1171531387445 0 L 150.5277888844462 64.35807635921662 l -7.1171531387445 0 L 143.4106357457017 65.42020123548059 M 196.78928428628546 146.87101382084276 l 7.1171531387445 0 L 203.90643742502996 122.71642838347515 l -7.1171531387445 0 L 196.78928428628546 146.87101382084276 M 214.5821671331467 143.16131417043619 l 7.1171531387445 0 L 221.6993202718912 141.99362211334844 l -7.1171531387445 0 L 214.5821671331467 143.16131417043619 M 232.37504998000796 159.33727617878128 l 7.1171531387445 0 L 239.49220311875246 133.55726941245754 l -7.1171531387445 0 L 232.37504998000796 159.33727617878128 M 250.16793282686922 136.51170949916673 l 7.1171531387445 0 L 257.28508596561375 130.76540904933148 l -7.1171531387445 0 L 250.16793282686922 136.51170949916673 M 285.7536985205918 159.81524177077196 l 7.1171531387445 0 L 292.8708516593363 153.32383124287344 l -7.1171531387445 0 L 285.7536985205918 159.81524177077196 M 294.65013994402244 153.3238938940193 l 7.1171531387445 0 L 301.76729308276697 143.22108336361472 l -7.1171531387445 0 L 294.65013994402244 153.3238938940193 M 312.4430227908837 146.7230318142519 l 7.1171531387445 0 L 319.5601759296282 141.24838673299334 l -7.1171531387445 0 L 312.4430227908837 146.7230318142519 M 321.3394642143143 141.24838673299334 l 7.1171531387445 0 L 328.45661735305885 130.73483529013745 l -7.1171531387445 0 L 321.3394642143143 141.24838673299334 M 348.02878848460614 154.10822358940945 l 7.1171531387445 0 L 355.14594162335067 152.35248787700328 l -7.1171531387445 0 L 348.02878848460614 154.10822358940945 M 374.7181127548981 167.4859348177478 l 7.1171531387445 0 L 381.8352658936426 142.3800543811946 l -7.1171531387445 0 L 374.7181127548981 167.4859348177478 M 392.5109956017593 146.82966406455571 l 7.1171531387445 0 L 399.62814874050383 142.7313393561968 l -7.1171531387445 0 L 392.5109956017593 146.82966406455571 M 410.3038784486206 153.9199568960116 l 7.1171531387445 0 L 417.4210315873651 132.15212951244877 l -7.1171531387445 0 L 410.3038784486206 153.9199568960116 M 419.20031987205124 132.1521921635947 l 7.1171531387445 0 L 426.31747301079577 122.78127231947072 l -7.1171531387445 0 L 419.20031987205124 132.1521921635947 M 472.57896841263494 154.31090004636184 l 7.1171531387445 0 L 479.69612155137946 153.58139010362498 l -7.1171531387445 0 L 472.57896841263494 154.31090004636184 M 490.3718512594962 178.55438745974664 l 7.1171531387445 0 L 497.48900439824075 172.94435325222096 l -7.1171531387445 0 L 490.3718512594962 178.55438745974664 M 499.2682926829268 172.94435325222096 l 7.1171531387445 0 L 506.38544582167134 165.62350420389188 l -7.1171531387445 0 L 499.2682926829268 172.94435325222096 M 508.16473410635746 165.64229954765872 l 7.1171531387445 0 L 515.281887245102 159.45224103148848 l -7.1171531387445 0 L 508.16473410635746 165.64229954765872 M 525.9576169532187 178.79264976756423 l 7.1171531387445 0 L 533.0747700919632 174.35970528900972 l -7.1171531387445 0 L 525.9576169532187 178.79264976756423 M 534.8540583766493 174.35970528900972 l 7.1171531387445 0 L 541.9712115153937 159.21886551305025 l -7.1171531387445 0 L 534.8540583766493 174.35970528900972 M 552.6469412235106 160.50603330534915 l 7.1171531387445 0 L 559.764094362255 151.62936835114712 l -7.1171531387445 0 L 552.6469412235106 160.50603330534915 M 579.3362654938024 166.7245354417532 l 7.1171531387445 0 L 586.4534186325469 164.943864573283 l -7.1171531387445 0 L 579.3362654938024 166.7245354417532 M 588.232706917233 164.94392722442893 l 7.1171531387445 0 L 595.3498600559775 159.41439973937125 l -7.1171531387445 0 L 588.232706917233 164.94392722442893 M 597.1291483406637 159.4144623905171 l 7.1171531387445 0 L 604.2463014794082 155.54644329444784 l -7.1171531387445 0 L 597.1291483406637 159.4144623905171 M 614.9220311875249 165.5478216196574 l 7.1171531387445 0 L 622.0391843262694 162.22818800355856 l -7.1171531387445 0 L 614.9220311875249 165.5478216196574 M 641.6113554578168 170.65038154547847 l 7.1171531387445 0 L 648.7285085965613 164.7605473204105 l -7.1171531387445 0 L 641.6113554578168 170.65038154547847 M 659.4042383046781 166.72115227987518 l 7.1171531387445 0 L 666.5213914434225 161.9839738368815 l -7.1171531387445 0 L 659.4042383046781 166.72115227987518 M 686.09356257497 171.56878469307205 l 7.1171531387445 0 L 693.2107157137144 170.99928577693686 l -7.1171531387445 0 L 686.09356257497 171.56878469307205 M 712.7828868452618 179.9969927449973 l 7.1171531387445 0 L 719.9000399840063 179.143621486837 l -7.1171531387445 0 L 712.7828868452618 179.9969927449973 M 721.6793282686924 179.143621486837 l 7.1171531387445 0 L 728.7964814074369 177.52415201674037 l -7.1171531387445 0 L 721.6793282686924 179.143621486837 M 748.3686525389844 189.98057814477426 l 7.1171531387445 0 L 755.4858056777289 175.23143333291566 l -7.1171531387445 0 L 748.3686525389844 189.98057814477426 M 757.265093962415 175.23143333291566 l 7.1171531387445 0 L 764.3822471011595 174.3335171100279 l -7.1171531387445 0 L 757.265093962415 175.23143333291566 M 766.1615353858456 174.33508338867517 l 7.1171531387445 0 L 773.27868852459 165.89904394351373 l -7.1171531387445 0 L 766.1615353858456 174.33508338867517 M 775.0579768092763 165.89898129236784 l 7.1171531387445 0 L 782.1751299480208 161.98929918428206 l -7.1171531387445 0 L 775.0579768092763 165.89898129236784 M 783.9544182327068 161.96818574811732 l 7.1171531387445 0 L 791.0715713714512 154.9543273146466 l -7.1171531387445 0 L 783.9544182327068 161.96818574811732 M 792.8508596561375 154.9543273146466 l 7.1171531387445 0 L 799.9680127948819 143.32264087110153 l -7.1171531387445 0 L 792.8508596561375 154.9543273146466 M 801.747301079568 143.29927199368475 l 7.1171531387445 0 L 808.8644542183125 129.41239490270277 l -7.1171531387445 0 L 801.747301079568 143.29927199368475 M 810.6437425029987 129.42028894708483 l 7.1171531387445 0 L 817.7608956417432 125.8933426892378 l -7.1171531387445 0 L 810.6437425029987 129.42028894708483 M 828.43662534986 125.90004636184797 l 7.1171531387445 0 L 835.5537784886045 112.19272745498513 l -7.1171531387445 0 L 828.43662534986 125.90004636184797 M 872.9188324670131 137.24898818399387 l 7.1171531387445 0 L 880.0359856057576 127.75019735110955 l -7.1171531387445 0 L 872.9188324670131 137.24898818399387 M 881.8152738904437 127.75026000225544 l 7.1171531387445 0 L 888.9324270291881 120.46531006052102 l -7.1171531387445 0 L 881.8152738904437 127.75026000225544"></path><path class="candle body down" d="M 1.0675729708116766 31.964176074780426 l 7.1171531387445 0 L 8.184726109556177 33.002618817898195 l -7.1171531387445 0 L 1.0675729708116766 31.964176074780426 M 9.964014394242305 33.00255616675227 l 7.1171531387445 0 L 17.081167532986804 41.09226007743683 l -7.1171531387445 0 L 9.964014394242305 33.00255616675227 M 36.65333866453418 14.513451201022463 l 7.1171531387445 0 L 43.77049180327868 22.15150300098989 l -7.1171531387445 0 L 36.65333866453418 14.513451201022463 M 54.446221511395436 18.447692558296893 l 7.1171531387445 0 L 61.563374650139934 43.3163131053667 l -7.1171531387445 0 L 54.446221511395436 18.447692558296893 M 72.23910435825668 16.776661195133272 l 7.1171531387445 0 L 79.35625749700118 23.307604596088083 l -7.1171531387445 0 L 72.23910435825668 16.776661195133272 M 98.92842862854857 7.814915984813382 l 7.1171531387445 0 L 106.04558176729307 11.734935531970905 l -7.1171531387445 0 L 98.92842862854857 7.814915984813382 M 107.82487005197919 11.734998183116772 l 7.1171531387445 0 L 114.94202319072369 26.92595887578787 l -7.1171531387445 0 L 107.82487005197919 11.734998183116772 M 125.61775289884046 21.57630283057881 l 7.1171531387445 0 L 132.73490603758498 65.6745648877918 l -7.1171531387445 0 L 125.61775289884046 21.57630283057881 M 152.30707716913233 64.34109789868054 l 7.1171531387445 0 L 159.42423030787683 83.64498101670281 l -7.1171531387445 0 L 152.30707716913233 64.34109789868054 M 161.20351859256294 83.64498101670281 l 7.1171531387445 0 L 168.32067173130744 85.72180385179244 l -7.1171531387445 0 L 161.20351859256294 83.64498101670281 M 170.09996001599356 85.75106193692281 l 7.1171531387445 0 L 177.21711315473806 103.84966231032365 l -7.1171531387445 0 L 170.09996001599356 85.75106193692281 M 178.9964014394242 103.84978761261546 l 7.1171531387445 0 L 186.1135545781687 108.16169007731152 l -7.1171531387445 0 L 178.9964014394242 103.84978761261546 M 187.89284286285485 108.16169007731152 l 7.1171531387445 0 L 195.00999600159935 146.75285375969528 l -7.1171531387445 0 L 187.89284286285485 108.16169007731152 M 205.68572570971608 122.72425977671132 l 7.1171531387445 0 L 212.80287884846058 143.2323605698748 l -7.1171531387445 0 L 205.68572570971608 122.72425977671132 M 223.47860855657734 141.9386144072575 l 7.1171531387445 0 L 230.59576169532184 159.5013595298658 l -7.1171531387445 0 L 223.47860855657734 141.9386144072575 M 241.2714914034386 133.46517222800006 l 7.1171531387445 0 L 248.3886445421831 136.51170949916673 l -7.1171531387445 0 L 241.2714914034386 133.46517222800006 M 259.06437425029986 130.7653463981856 l 7.1171531387445 0 L 266.1815273890444 135.22573207863968 l -7.1171531387445 0 L 259.06437425029986 130.7653463981856 M 267.9608156737305 135.2256694274938 l 7.1171531387445 0 L 275.07796881247504 153.18462039670706 l -7.1171531387445 0 L 267.9608156737305 135.2256694274938 M 276.85725709716115 153.19527109150826 l 7.1171531387445 0 L 283.9744102359057 159.81524177077196 l -7.1171531387445 0 L 276.85725709716115 153.19527109150826 M 303.54658136745303 143.22102071246883 l 7.1171531387445 0 L 310.66373450619756 146.73405841592844 l -7.1171531387445 0 L 303.54658136745303 143.22102071246883 M 330.23590563774496 130.73489794128335 l 7.1171531387445 0 L 337.3530587764895 145.8825666921448 l -7.1171531387445 0 L 330.23590563774496 130.73489794128335 M 339.13234706117555 145.88162692495644 l 7.1171531387445 0 L 346.2495001999201 154.12620446827975 l -7.1171531387445 0 L 339.13234706117555 145.88162692495644 M 356.9252299080368 152.35248787700328 l 7.1171531387445 0 L 364.0423830467813 166.408397759595 l -7.1171531387445 0 L 356.9252299080368 152.35248787700328 M 365.8216713314674 166.38227223175912 l 7.1171531387445 0 L 372.93882447021196 167.48587216660195 l -7.1171531387445 0 L 365.8216713314674 166.38227223175912 M 383.61455417832866 142.3800543811946 l 7.1171531387445 0 L 390.7317073170732 146.8428834563384 l -7.1171531387445 0 L 383.61455417832866 142.3800543811946 M 401.40743702518995 142.7313393561968 l 7.1171531387445 0 L 408.5245901639345 153.9200195471575 l -7.1171531387445 0 L 401.40743702518995 142.7313393561968 M 428.0967612954818 122.78133497061661 l 7.1171531387445 0 L 435.21391443422635 125.1134612252058 l -7.1171531387445 0 L 428.0967612954818 122.78133497061661 M 436.99320271891247 125.11496485270713 l 7.1171531387445 0 L 444.110355857657 136.35952986580122 l -7.1171531387445 0 L 436.99320271891247 125.11496485270713 M 445.8896441423431 136.35959251694715 l 7.1171531387445 0 L 453.00679728108764 137.96364980515494 l -7.1171531387445 0 L 445.8896441423431 136.35959251694715 M 454.7860855657737 137.96364980515494 l 7.1171531387445 0 L 461.90323870451823 152.2050697307254 l -7.1171531387445 0 L 454.7860855657737 137.96364980515494 M 463.68252698920435 152.20106005738842 l 7.1171531387445 0 L 470.7996801279489 154.31090004636184 l -7.1171531387445 0 L 463.68252698920435 152.20106005738842 M 481.47540983606564 153.58132745247912 l 7.1171531387445 0 L 488.59256297481016 178.58690340446327 l -7.1171531387445 0 L 481.47540983606564 153.58132745247912 M 517.0611755297881 159.45230368263435 l 7.1171531387445 0 L 524.1783286685326 178.74027340960066 l -7.1171531387445 0 L 517.0611755297881 159.45230368263435 M 543.75049980008 159.205395516684 l 7.1171531387445 0 L 550.8676529388244 160.50603330534915 l -7.1171531387445 0 L 543.75049980008 159.205395516684 M 561.5433826469413 151.62943100229302 l 7.1171531387445 0 L 568.6605357856857 157.05953111882417 l -7.1171531387445 0 L 561.5433826469413 151.62943100229302 M 570.4398240703717 157.05953111882417 l 7.1171531387445 0 L 577.5569772091162 166.7097497713233 l -7.1171531387445 0 L 570.4398240703717 157.05953111882417 M 606.0255897640943 155.53629380881378 l 7.1171531387445 0 L 613.1427429028388 165.5478842708033 l -7.1171531387445 0 L 606.0255897640943 155.53629380881378 M 623.8184726109555 162.22812535241272 l 7.1171531387445 0 L 630.9356257497 164.4704098637964 l -7.1171531387445 0 L 623.8184726109555 162.22812535241272 M 632.7149140343862 164.4704725149423 l 7.1171531387445 0 L 639.8320671731307 170.65038154547847 l -7.1171531387445 0 L 632.7149140343862 164.4704725149423 M 650.5077968812475 164.7605473204105 l 7.1171531387445 0 L 657.624950019992 166.72115227987518 l -7.1171531387445 0 L 650.5077968812475 164.7605473204105 M 668.3006797281087 161.98391118573556 l 7.1171531387445 0 L 675.4178328668531 169.32894357637804 l -7.1171531387445 0 L 668.3006797281087 161.98391118573556 M 677.1971211515394 169.32700139085543 l 7.1171531387445 0 L 684.3142742902838 171.5647123685892 l -7.1171531387445 0 L 677.1971211515394 169.32700139085543 M 694.9900039984005 170.99922312579096 l 7.1171531387445 0 L 702.107157137145 176.88861879283772 l -7.1171531387445 0 L 694.9900039984005 170.99922312579096 M 703.8864454218311 176.9231395742228 l 7.1171531387445 0 L 711.0035985605756 179.9969300938514 l -7.1171531387445 0 L 703.8864454218311 176.9231395742228 M 730.5757696921231 177.52408936559448 l 7.1171531387445 0 L 737.6929228308676 183.4065307554475 l -7.1171531387445 0 L 730.5757696921231 177.52408936559448 M 739.4722111155537 183.4065307554475 l 7.1171531387445 0 L 746.5893642542982 189.9805154936284 l -7.1171531387445 0 L 739.4722111155537 183.4065307554475 M 819.5401839264293 125.89328003809189 l 7.1171531387445 0 L 826.6573370651738 125.91263924217172 l -7.1171531387445 0 L 819.5401839264293 125.89328003809189 M 837.3330667732906 112.19279010613104 l 7.1171531387445 0 L 844.4502199120351 116.85735587103888 l -7.1171531387445 0 L 837.3330667732906 112.19279010613104 M 846.2295081967213 116.85729321989301 l 7.1171531387445 0 L 853.3466613354658 126.98422444146502 l -7.1171531387445 0 L 846.2295081967213 116.85729321989301 M 855.1259496201519 126.95396393800044 l 7.1171531387445 0 L 862.2431027588964 131.35489368100542 l -7.1171531387445 0 L 855.1259496201519 126.95396393800044 M 864.0223910435824 131.36090819101082 l 7.1171531387445 0 L 871.1395441823269 137.24892553284798 l -7.1171531387445 0 L 864.0223910435824 131.36090819101082"></path><path class="candle body equal"></path><path class="candle wick up" d="M 22.41903238704518 13.475634969363597 L 22.41903238704518 15.159259212851026 M 22.41903238704518 41.09226007743683 L 22.41903238704518 44.487889533499555 M 31.315473810475808 10.373964689814187 L 31.315473810475808 14.49453055496383 M 31.315473810475808 15.14058917137595 L 31.315473810475808 19.783728244389607 M 49.10835665733706 7.094991667397608 L 49.10835665733706 18.447692558296893 M 49.10835665733706 22.15150300098989 L 49.10835665733706 23.048730061272835 M 66.90123950419832 12.806395428972394 L 66.90123950419832 16.776661195133272 M 66.90123950419832 43.284736927838395 L 66.90123950419832 45.19591013319635 M 84.69412235105956 9.1715012467578 L 84.69412235105956 17.536995501647738 M 84.69412235105956 23.307604596088083 L 84.69412235105956 30.52532985828313 M 93.5905637744902 3.846153846153868 L 93.5905637744902 7.842983698171821 M 93.5905637744902 17.532359316851938 L 93.5905637744902 20.13545177741304 M 120.27988804478207 20.370832132519723 L 120.27988804478207 21.57630283057881 M 120.27988804478207 26.92595887578787 L 120.27988804478207 35.98619168744597 M 138.07277089164333 54.79914042627837 L 138.07277089164333 65.4261530943401 M 138.07277089164333 66.26455072863283 L 138.07277089164333 88.42520079692258 M 146.96921231507397 54.07357750573257 L 146.96921231507397 64.35807635921662 M 146.96921231507397 65.42020123548059 L 146.96921231507397 70.88444622652148 M 200.34786085565773 110.65589484631676 L 200.34786085565773 122.71642838347515 M 200.34786085565773 146.87101382084276 L 200.34786085565773 158.28122846366858 M 218.14074370251896 133.35233751425312 L 218.14074370251896 141.99362211334844 M 218.14074370251896 143.16131417043619 L 218.14074370251896 156.08455398649238 M 235.93362654938022 126.51709749771322 L 235.93362654938022 133.55726941245754 M 235.93362654938022 159.33727617878128 L 235.93362654938022 163.41235731201522 M 253.72650939624148 120.74692696129412 L 253.72650939624148 130.76540904933148 M 253.72650939624148 136.51170949916673 L 253.72650939624148 139.79638377585925 M 289.31227508996403 148.01897076697531 L 289.31227508996403 153.32383124287344 M 289.31227508996403 159.81524177077196 L 289.31227508996403 167.49721202400792 M 298.2087165133947 141.6849399175511 L 298.2087165133947 143.22108336361472 M 298.2087165133947 153.3238938940193 L 298.2087165133947 162.64275063590915 M 316.0015993602559 137.13646672597642 L 316.0015993602559 141.24838673299334 M 316.0015993602559 146.7230318142519 L 316.0015993602559 151.57755585349656 M 324.89804078368655 129.29880837520517 L 324.89804078368655 130.73483529013745 M 324.89804078368655 141.24838673299334 L 324.89804078368655 143.74616261731427 M 351.5873650539784 148.0690916836869 L 351.5873650539784 152.35248787700328 M 351.5873650539784 154.10822358940945 L 351.5873650539784 155.95060583658073 M 378.2766893242703 141.4607114664127 L 378.2766893242703 142.3800543811946 M 378.2766893242703 167.4859348177478 L 378.2766893242703 173.65068227097873 M 396.06957217113154 140.54844813111632 L 396.06957217113154 142.7313393561968 M 396.06957217113154 146.82966406455571 L 396.06957217113154 151.47248988183995 M 413.86245501799283 129.90025937574399 L 413.86245501799283 132.15212951244877 M 413.86245501799283 153.9199568960116 L 413.86245501799283 158.86388412044056 M 422.7588964414235 119.34949315222974 L 422.7588964414235 122.78127231947072 M 422.7588964414235 132.1521921635947 L 422.7588964414235 133.97258385855878 M 476.13754498200717 150.21351510519128 L 476.13754498200717 153.58139010362498 M 476.13754498200717 154.31090004636184 L 476.13754498200717 167.76661195133258 M 493.93042782886846 167.99979951633316 L 493.93042782886846 172.94435325222096 M 493.93042782886846 178.55438745974664 L 493.93042782886846 196.15384615384613 M 502.82686925229905 158.08700991141126 L 502.82686925229905 165.62350420389188 M 502.82686925229905 172.94435325222096 L 502.82686925229905 178.12284636686005 M 511.7233106757297 155.47445712782087 L 511.7233106757297 159.45224103148848 M 511.7233106757297 165.64229954765872 L 511.7233106757297 174.34141115441 M 529.5161935225909 171.56327139223376 L 529.5161935225909 174.35970528900972 M 529.5161935225909 178.79264976756423 L 529.5161935225909 187.72100191712505 M 538.4126349460215 158.91400503715212 L 538.4126349460215 159.21886551305025 M 538.4126349460215 174.35970528900972 L 538.4126349460215 176.30314383450073 M 556.2055177928828 147.3172779330134 L 556.2055177928828 151.62936835114712 M 556.2055177928828 160.50603330534915 L 556.2055177928828 162.19423108248648 M 582.8948420631747 163.75042289523475 L 582.8948420631747 164.943864573283 M 582.8948420631747 166.7245354417532 L 582.8948420631747 171.75748994449108 M 591.7912834866053 157.6822208578195 L 591.7912834866053 159.41439973937125 M 591.7912834866053 164.94392722442893 L 591.7912834866053 167.88734070946157 M 600.687724910036 151.2777701204155 L 600.687724910036 155.54644329444784 M 600.687724910036 159.4144623905171 L 600.687724910036 161.36899018883054 M 618.4806077568971 156.59666445299285 L 618.4806077568971 162.22818800355856 M 618.4806077568971 165.5478216196574 L 618.4806077568971 166.5386494918992 M 645.169932027189 162.98006440537796 L 645.169932027189 164.7605473204105 M 645.169932027189 170.65038154547847 L 645.169932027189 174.50117157642813 M 662.9628148740503 159.43400954803462 L 662.9628148740503 161.9839738368815 M 662.9628148740503 166.72115227987518 L 662.9628148740503 167.95162078514414 M 689.6521391443422 169.1572794366409 L 689.6521391443422 170.99928577693686 M 689.6521391443422 171.56878469307205 L 689.6521391443422 178.95610660718984 M 716.3414634146341 176.41297129324496 L 716.3414634146341 179.143621486837 M 716.3414634146341 179.9969927449973 L 716.3414634146341 181.37249865300035 M 725.2379048380647 173.41148019597279 L 725.2379048380647 177.52415201674037 M 725.2379048380647 179.143621486837 L 725.2379048380647 181.7192100943526 M 751.9272291083566 170.7613367248487 L 751.9272291083566 175.23143333291566 M 751.9272291083566 189.98057814477426 L 751.9272291083566 191.90854185723055 M 760.8236705317872 172.4319295299911 L 760.8236705317872 174.3335171100279 M 760.8236705317872 175.23143333291566 L 760.8236705317872 177.9662185021364 M 769.7201119552178 165.79936597040358 L 769.7201119552178 165.89904394351373 M 769.7201119552178 174.33508338867517 L 769.7201119552178 176.61094891425563 M 778.6165533786485 160.47401856979963 L 778.6165533786485 161.98929918428206 M 778.6165533786485 165.89898129236784 L 778.6165533786485 167.35850238700866 M 787.512994802079 154.8479456689263 L 787.512994802079 154.9543273146466 M 787.512994802079 161.96818574811732 L 787.512994802079 164.5393261242748 M 796.4094362255097 122.57007530667737 L 796.4094362255097 143.32264087110153 M 796.4094362255097 154.9543273146466 L 796.4094362255097 156.05222599521346 M 805.3058776489403 128.88148909243552 L 805.3058776489403 129.41239490270277 M 805.3058776489403 143.29927199368475 L 805.3058776489403 148.67680779881465 M 814.202319072371 120.37728520054631 L 814.202319072371 125.8933426892378 M 814.202319072371 129.42028894708483 L 814.202319072371 133.70944904582305 M 831.9952019192323 111.50143471124088 L 831.9952019192323 112.19272745498513 M 831.9952019192323 125.90004636184797 L 831.9952019192323 136.5836956657937 M 876.4774090363853 126.20597190722616 L 876.4774090363853 127.75019735110955 M 876.4774090363853 137.24898818399387 L 876.4774090363853 141.62504542208077 M 885.3738504598159 120.1580061899332 L 885.3738504598159 120.46531006052102 M 885.3738504598159 127.75026000225544 L 885.3738504598159 142.72682847369282" style="stroke-width: 1px;"></path><path class="candle wick down" d="M 4.626149540183927 23.092585863395442 L 4.626149540183927 31.964176074780426 M 4.626149540183927 33.002618817898195 L 4.626149540183927 39.47485809515453 M 13.522590963614554 30.81220945531095 L 13.522590963614554 33.00255616675227 M 13.522590963614554 41.09226007743683 L 13.522590963614554 48.761136241181845 M 40.21191523390643 13.801295625697037 L 40.21191523390643 14.513451201022463 M 40.21191523390643 22.15150300098989 L 40.21191523390643 25.553209618203937 M 58.004798080767685 18.25591740072926 L 58.004798080767685 18.447692558296893 M 58.004798080767685 43.3163131053667 L 58.004798080767685 44.276880474143866 M 75.79768092762893 10.988384477552103 L 75.79768092762893 16.776661195133272 M 75.79768092762893 23.307604596088083 L 75.79768092762893 30.78614657862093 M 102.48700519792082 5.099176763943035 L 102.48700519792082 7.814915984813382 M 102.48700519792082 11.734935531970905 L 102.48700519792082 24.297618003433257 M 111.38344662135144 3.846153846153868 L 111.38344662135144 11.734998183116772 M 111.38344662135144 26.92595887578787 L 111.38344662135144 42.06335283872343 M 129.1763294682127 13.243763078426696 L 129.1763294682127 21.57630283057881 M 129.1763294682127 65.6745648877918 L 129.1763294682127 72.13590286566343 M 155.8656537385046 58.979162228877186 L 155.8656537385046 64.34109789868054 M 155.8656537385046 83.64498101670281 L 155.8656537385046 84.94806220005763 M 164.7620951619352 64.64351497988898 L 164.7620951619352 83.64498101670281 M 164.7620951619352 85.72180385179244 L 164.7620951619352 102.04938163319007 M 173.65853658536582 84.12733218890574 L 173.65853658536582 85.75106193692281 M 173.65853658536582 103.84966231032365 L 173.65853658536582 113.47939403811695 M 182.55497800879647 89.68267194606989 L 182.55497800879647 103.84978761261546 M 182.55497800879647 108.16169007731152 L 182.55497800879647 111.91925520317768 M 191.4514194322271 103.55607904068565 L 191.4514194322271 108.16169007731152 M 191.4514194322271 146.75285375969528 L 191.4514194322271 188.66703422005588 M 209.24430227908834 112.23263623491674 L 209.24430227908834 122.72425977671132 M 209.24430227908834 143.2323605698748 L 209.24430227908834 166.81431453381282 M 227.0371851259496 136.85052689613693 L 227.0371851259496 141.9386144072575 M 227.0371851259496 159.5013595298658 L 227.0371851259496 181.70642926059116 M 244.83006797281087 127.32047314145377 L 244.83006797281087 133.46517222800006 M 244.83006797281087 136.51170949916673 L 244.83006797281087 148.4473793025674 M 262.6229508196721 123.44004911849838 L 262.6229508196721 130.7653463981856 M 262.6229508196721 135.22573207863968 L 262.6229508196721 143.97001516157732 M 271.51939224310274 133.0464119688749 L 271.51939224310274 135.2256694274938 M 271.51939224310274 153.18462039670706 L 271.51939224310274 159.3212374854336 M 280.4158336665334 142.68998959990978 L 280.4158336665334 153.19527109150826 M 280.4158336665334 159.81524177077196 L 280.4158336665334 165.907376545917 M 307.10515793682526 139.20514491210045 L 307.10515793682526 143.22102071246883 M 307.10515793682526 146.73405841592844 L 307.10515793682526 153.1688949590888 M 333.7944822071172 130.4699462453168 L 333.7944822071172 130.73489794128335 M 333.7944822071172 145.8825666921448 L 333.7944822071172 153.86338291127345 M 342.6909236305478 139.01600110266017 L 342.6909236305478 145.88162692495644 M 342.6909236305478 154.12620446827975 L 342.6909236305478 158.59448419311587 M 360.483806477409 145.43774355632965 L 360.483806477409 152.35248787700328 M 360.483806477409 166.408397759595 L 360.483806477409 167.99215607653463 M 369.38024790083966 163.18048542107834 L 369.38024790083966 166.38227223175912 M 369.38024790083966 167.48587216660195 L 369.38024790083966 182.40191963111005 M 387.1731307477009 135.4699462453168 L 387.1731307477009 142.3800543811946 M 387.1731307477009 146.8428834563384 L 387.1731307477009 152.44214166677108 M 404.9660135945622 141.90653702056213 L 404.9660135945622 142.7313393561968 M 404.9660135945622 153.9200195471575 L 404.9660135945622 159.845251669653 M 431.65533786485406 117.68328592729961 L 431.65533786485406 122.78133497061661 M 431.65533786485406 125.1134612252058 L 431.65533786485406 129.1083488917012 M 440.5517792882847 122.71329582618066 L 440.5517792882847 125.11496485270713 M 440.5517792882847 136.35952986580122 L 440.5517792882847 137.81930156502563 M 449.44822071171535 128.7732905634844 L 449.44822071171535 136.35959251694715 M 449.44822071171535 137.96364980515494 L 449.44822071171535 142.52446527246983 M 458.34466213514594 137.27530166526748 L 458.34466213514594 137.96364980515494 M 458.34466213514594 152.2050697307254 L 458.34466213514594 156.53144461012192 M 467.2411035585766 148.21318931923264 L 467.2411035585766 152.20106005738842 M 467.2411035585766 154.31090004636184 L 467.2411035585766 158.57243098976284 M 485.0339864054379 152.64262533361733 L 485.0339864054379 153.58132745247912 M 485.0339864054379 178.58690340446327 L 485.0339864054379 180.8279348929292 M 520.6197520991603 154.2089039808538 L 520.6197520991603 159.45230368263435 M 520.6197520991603 178.74027340960066 L 520.6197520991603 180.67901311914994 M 547.3090763694522 155.47627401105166 L 547.3090763694522 159.205395516684 M 547.3090763694522 160.50603330534915 L 547.3090763694522 164.46665079504302 M 565.1019592163135 150.4498352274863 L 565.1019592163135 151.62943100229302 M 565.1019592163135 157.05953111882417 L 565.1019592163135 163.49662310323652 M 573.998400639744 156.9807786284411 L 573.998400639744 157.05953111882417 M 573.998400639744 166.7097497713233 L 573.998400639744 171.68230856942372 M 609.5841663334666 155.50089591138624 L 609.5841663334666 155.53629380881378 M 609.5841663334666 165.5478842708033 L 609.5841663334666 169.08510531657623 M 627.3770491803277 156.97125565426592 L 627.3770491803277 162.22812535241272 M 627.3770491803277 164.4704098637964 L 627.3770491803277 164.998872279374 M 636.2734906037584 164.0473893267508 L 636.2734906037584 164.4704725149423 M 636.2734906037584 170.65038154547847 L 636.2734906037584 175.6543912188154 M 654.0663734506197 161.96511584196875 L 654.0663734506197 164.7605473204105 M 654.0663734506197 166.72115227987518 L 654.0663734506197 169.84174320548323 M 671.8592562974809 159.35613417369404 L 671.8592562974809 161.98391118573556 M 671.8592562974809 169.32894357637804 L 671.8592562974809 172.01222950367762 M 680.7556977209116 167.74155149297678 L 680.7556977209116 169.32700139085543 M 680.7556977209116 171.5647123685892 L 680.7556977209116 174.86968561654993 M 698.5485805677728 168.71107797561618 L 698.5485805677728 170.99922312579096 M 698.5485805677728 176.88861879283772 L 698.5485805677728 181.56865939078025 M 707.4450219912034 174.5756637888907 L 707.4450219912034 176.9231395742228 M 707.4450219912034 179.9969300938514 L 707.4450219912034 182.27661733933112 M 734.1343462614954 176.76958161564775 L 734.1343462614954 177.52408936559448 M 734.1343462614954 183.4065307554475 L 734.1343462614954 186.1143759319358 M 743.0307876849259 182.00677885398522 L 743.0307876849259 183.4065307554475 M 743.0307876849259 189.9805154936284 L 743.0307876849259 193.19044695327477 M 823.0987604958016 122.00621499367223 L 823.0987604958016 125.89328003809189 M 823.0987604958016 125.91263924217172 L 823.0987604958016 131.02798000175423 M 840.8916433426629 110.67888781685818 L 840.8916433426629 112.19279010613104 M 840.8916433426629 116.85735587103888 L 840.8916433426629 119.74983397446339 M 849.7880847660936 109.73285551392735 L 849.7880847660936 116.85729321989301 M 849.7880847660936 126.98422444146502 L 849.7880847660936 129.63706191186236 M 858.6845261895241 123.00857067675767 L 858.6845261895241 126.95396393800044 M 858.6845261895241 131.35489368100542 L 858.6845261895241 134.22318844211662 M 867.5809676129546 127.39421354016565 L 867.5809676129546 131.36090819101082 M 867.5809676129546 137.24892553284798 L 867.5809676129546 140.78884057789418" style="stroke-width: 1px;"></path><path class="candle wick equal" style="stroke-width: 1px;"></path></g></g><g class="x axis" transform="translate(0,200)" fill="none" font-size="10" font-family="sans-serif" text-anchor="middle"><path class="domain" stroke="#000" d="M0.5,6V0.5H890.5V6"></path><g class="tick" opacity="1" transform="translate(49.10835665733706,0)"><line stroke="#000" y2="6" x1="0.5" x2="0.5"></line><text fill="#000" y="9" x="0.5" dy="0.71em">May  3</text></g><g class="tick" opacity="1" transform="translate(111.38344662135144,0)"><line stroke="#000" y2="6" x1="0.5" x2="0.5"></line><text fill="#000" y="9" x="0.5" dy="0.71em">May 10</text></g><g class="tick" opacity="1" transform="translate(173.65853658536582,0)"><line stroke="#000" y2="6" x1="0.5" x2="0.5"></line><text fill="#000" y="9" x="0.5" dy="0.71em">May 17</text></g><g class="tick" opacity="1" transform="translate(235.93362654938022,0)"><line stroke="#000" y2="6" x1="0.5" x2="0.5"></line><text fill="#000" y="9" x="0.5" dy="0.71em">May 24</text></g><g class="tick" opacity="1" transform="translate(298.2087165133947,0)"><line stroke="#000" y2="6" x1="0.5" x2="0.5"></line><text fill="#000" y="9" x="0.5" dy="0.71em">May 31</text></g><g class="tick" opacity="1" transform="translate(360.483806477409,0)"><line stroke="#000" y2="6" x1="0.5" x2="0.5"></line><text fill="#000" y="9" x="0.5" dy="0.71em">Jun  7</text></g><g class="tick" opacity="1" transform="translate(422.7588964414235,0)"><line stroke="#000" y2="6" x1="0.5" x2="0.5"></line><text fill="#000" y="9" x="0.5" dy="0.71em">Jun 14</text></g><g class="tick" opacity="1" transform="translate(485.0339864054379,0)"><line stroke="#000" y2="6" x1="0.5" x2="0.5"></line><text fill="#000" y="9" x="0.5" dy="0.71em">Jun 21</text></g><g class="tick" opacity="1" transform="translate(547.3090763694522,0)"><line stroke="#000" y2="6" x1="0.5" x2="0.5"></line><text fill="#000" y="9" x="0.5" dy="0.71em">Jun 28</text></g><g class="tick" opacity="1" transform="translate(609.5841663334666,0)"><line stroke="#000" y2="6" x1="0.5" x2="0.5"></line><text fill="#000" y="9" x="0.5" dy="0.71em">Jul  5</text></g><g class="tick" opacity="1" transform="translate(671.8592562974809,0)"><line stroke="#000" y2="6" x1="0.5" x2="0.5"></line><text fill="#000" y="9" x="0.5" dy="0.71em">Jul 12</text></g><g class="tick" opacity="1" transform="translate(734.1343462614954,0)"><line stroke="#000" y2="6" x1="0.5" x2="0.5"></line><text fill="#000" y="9" x="0.5" dy="0.71em">Jul 19</text></g><g class="tick" opacity="1" transform="translate(796.4094362255097,0)"><line stroke="#000" y2="6" x1="0.5" x2="0.5"></line><text fill="#000" y="9" x="0.5" dy="0.71em">Jul 26</text></g><g class="tick" opacity="1" transform="translate(858.6845261895241,0)"><line stroke="#000" y2="6" x1="0.5" x2="0.5"></line><text fill="#000" y="9" x="0.5" dy="0.71em">Aug  2</text></g></g><g class="y axis" fill="none" font-size="10" font-family="sans-serif" text-anchor="end"><path class="domain" stroke="#000" d="M-6,200.5H0.5V0.5H-6"></path><g class="tick" opacity="1" transform="translate(0,188.66703422005588)"><line stroke="#000" x2="-6" y1="0.5" y2="0.5"></line><text fill="#000" x="-9" y="0.5" dy="0.32em">30,000</text></g><g class="tick" opacity="1" transform="translate(0,157.3414612753267)"><line stroke="#000" x2="-6" y1="0.5" y2="0.5"></line><text fill="#000" x="-9" y="0.5" dy="0.32em">35,000</text></g><g class="tick" opacity="1" transform="translate(0,126.01588833059758)"><line stroke="#000" x2="-6" y1="0.5" y2="0.5"></line><text fill="#000" x="-9" y="0.5" dy="0.32em">40,000</text></g><g class="tick" opacity="1" transform="translate(0,94.6903153858684)"><line stroke="#000" x2="-6" y1="0.5" y2="0.5"></line><text fill="#000" x="-9" y="0.5" dy="0.32em">45,000</text></g><g class="tick" opacity="1" transform="translate(0,63.36474244113924)"><line stroke="#000" x2="-6" y1="0.5" y2="0.5"></line><text fill="#000" x="-9" y="0.5" dy="0.32em">50,000</text></g><g class="tick" opacity="1" transform="translate(0,32.039169496410096)"><line stroke="#000" x2="-6" y1="0.5" y2="0.5"></line><text fill="#000" x="-9" y="0.5" dy="0.32em">55,000</text></g><g class="tick" opacity="1" transform="translate(0,0.7135965516809222)"><line stroke="#000" x2="-6" y1="0.5" y2="0.5"></line><text fill="#000" x="-9" y="0.5" dy="0.32em">60,000</text></g><text transform="rotate(-90)" y="6" dy=".71em" style="text-anchor: end;">Price ($)</text></g></g></svg>