<?xml version="1.0" encoding="utf-8"?>
<!DOCTYPE svg PUBLIC "-//W3C//DTD SVG 1.1//EN" "http://www.w3.org/Graphics/SVG/1.1/DTD/svg11.dtd">
<svg version="1.1" xmlns="http://www.w3.org/2000/svg" width="960" height="250"><g transform="translate(50,20)"><style>.axis path,.axis line{fill:none;stroke:#000;shape-rendering:crispEdges;}path.candle{stroke:#000000;}path.candle.body{stroke-width:0;}path.candle.up{fill:#00AA00;stroke:#00AA00;}path.candle.down{fill:#FF0000;stroke:#FF0000;}</style><g class="candlestick"><g class="data"><path class="candle body up" d="M 1.0675729708116766 194.79118198874298 l 7.1171531387445 0 L 8.184726109556177 194.2456535334584 l -7.1171531387445 0 L 1.0675729708116766 194.79118198874298 M 18.860455817672932 195.4081300813008 l 7.1171531387445 0 L 25.977608956417434 195.15196998123827 l -7.1171531387445 0 L 18.860455817672932 195.4081300813008 M 27.75689724110356 195.15128205128207 l 7.1171531387445 0 L 34.87405037984806 194.2580362726704 l -7.1171531387445 0 L 27.75689724110356 195.15128205128207 M 36.65333866453418 194.2580362726704 l 7.1171531387445 0 L 43.77049180327868 192.70500312695435 l -7.1171531387445 0 L 36.65333866453418 194.2580362726704 M 45.54978008796481 192.7050656660413 l 7.1171531387445 0 L 52.66693322670931 191.7136335209506 l -7.1171531387445 0 L 45.54978008796481 192.7050656660413 M 54.446221511395436 191.71357098186365 l 7.1171531387445 0 L 61.563374650139934 186.26666666666668 l -7.1171531387445 0 L 54.446221511395436 191.71357098186365 M 63.342662934826066 186.2679799874922 l 7.1171531387445 0 L 70.45981607357056 185.09368355222014 l -7.1171531387445 0 L 63.342662934826066 186.2679799874922 M 81.13554578168731 185.3779862414009 l 7.1171531387445 0 L 88.25269892043181 184.19806128830518 l -7.1171531387445 0 L 81.13554578168731 185.3779862414009 M 98.92842862854857 184.71144465290809 l 7.1171531387445 0 L 106.04558176729307 184.57041901188242 l -7.1171531387445 0 L 98.92842862854857 184.71144465290809 M 107.82487005197919 184.57066916823015 l 7.1171531387445 0 L 114.94202319072369 180.91826141338336 l -7.1171531387445 0 L 107.82487005197919 184.57066916823015 M 125.61775289884046 183.23076923076923 l 7.1171531387445 0 L 132.73490603758498 182.046904315197 l -7.1171531387445 0 L 125.61775289884046 183.23076923076923 M 134.51419432227107 182.04696685428394 l 7.1171531387445 0 L 141.63134746101557 181.3939962476548 l -7.1171531387445 0 L 134.51419432227107 182.04696685428394 M 143.4106357457017 181.3939962476548 l 7.1171531387445 0 L 150.5277888844462 179.94996873045653 l -7.1171531387445 0 L 143.4106357457017 181.3939962476548 M 170.09996001599356 181.4594746716698 l 7.1171531387445 0 L 177.21711315473806 178.4957473420888 l -7.1171531387445 0 L 170.09996001599356 181.4594746716698 M 178.9964014394242 178.4957473420888 l 7.1171531387445 0 L 186.1135545781687 177.74227642276423 l -7.1171531387445 0 L 178.9964014394242 178.4957473420888 M 187.89284286285485 177.74227642276423 l 7.1171531387445 0 L 195.00999600159935 168.69906191369606 l -7.1171531387445 0 L 187.89284286285485 177.74227642276423 M 214.5821671331467 173.52532833020638 l 7.1171531387445 0 L 221.6993202718912 169.41776110068793 l -7.1171531387445 0 L 214.5821671331467 173.52532833020638 M 241.2714914034386 170.5302689180738 l 7.1171531387445 0 L 248.3886445421831 168.1098186366479 l -7.1171531387445 0 L 241.2714914034386 170.5302689180738 M 250.16793282686922 168.109756097561 l 7.1171531387445 0 L 257.28508596561375 164.3098186366479 l -7.1171531387445 0 L 250.16793282686922 168.109756097561 M 259.06437425029986 164.30988117573483 l 7.1171531387445 0 L 266.1815273890444 164.12945590994372 l -7.1171531387445 0 L 259.06437425029986 164.30988117573483 M 285.7536985205918 166.40400250156347 l 7.1171531387445 0 L 292.8708516593363 161.6724828017511 l -7.1171531387445 0 L 285.7536985205918 166.40400250156347 M 294.65013994402244 161.67554721701063 l 7.1171531387445 0 L 301.76729308276697 155.75747342088806 l -7.1171531387445 0 L 294.65013994402244 161.67554721701063 M 303.54658136745303 155.75747342088806 l 7.1171531387445 0 L 310.66373450619756 155.02739212007504 l -7.1171531387445 0 L 303.54658136745303 155.75747342088806 M 312.4430227908837 155.01719824890557 l 7.1171531387445 0 L 319.5601759296282 154.86041275797373 l -7.1171531387445 0 L 312.4430227908837 155.01719824890557 M 321.3394642143143 154.86047529706065 l 7.1171531387445 0 L 328.45661735305885 149.52676672920575 l -7.1171531387445 0 L 321.3394642143143 154.86047529706065 M 330.23590563774496 149.5268292682927 l 7.1171531387445 0 L 337.3530587764895 149.2257661038149 l -7.1171531387445 0 L 330.23590563774496 149.5268292682927 M 356.9252299080368 151.32576610381489 l 7.1171531387445 0 L 364.0423830467813 146.3726704190119 l -7.1171531387445 0 L 356.9252299080368 151.32576610381489 M 392.5109956017593 159.00856785490933 l 7.1171531387445 0 L 399.62814874050383 155.3792995622264 l -7.1171531387445 0 L 392.5109956017593 159.00856785490933 M 401.40743702518995 155.37936210131332 l 7.1171531387445 0 L 408.5245901639345 152.4703564727955 l -7.1171531387445 0 L 401.40743702518995 155.37936210131332 M 410.3038784486206 152.47029393370858 l 7.1171531387445 0 L 417.4210315873651 143.02145090681677 l -7.1171531387445 0 L 410.3038784486206 152.47029393370858 M 428.0967612954818 148.8432770481551 l 7.1171531387445 0 L 435.21391443422635 146.0969981238274 l -7.1171531387445 0 L 428.0967612954818 148.8432770481551 M 436.99320271891247 146.09706066291432 l 7.1171531387445 0 L 444.110355857657 144.73483427141963 l -7.1171531387445 0 L 436.99320271891247 146.09706066291432 M 454.7860855657737 149.5590368980613 l 7.1171531387445 0 L 461.90323870451823 146.44990619136962 l -7.1171531387445 0 L 454.7860855657737 149.5590368980613 M 463.68252698920435 146.44990619136962 l 7.1171531387445 0 L 470.7996801279489 145.12570356472796 l -7.1171531387445 0 L 463.68252698920435 146.44990619136962 M 490.3718512594962 151.60031269543464 l 7.1171531387445 0 L 497.48900439824075 150.24215134459038 l -7.1171531387445 0 L 490.3718512594962 151.60031269543464 M 517.0611755297881 153.39881175734837 l 7.1171531387445 0 L 524.1783286685326 148.56979362101316 l -7.1171531387445 0 L 517.0611755297881 153.39881175734837 M 525.9576169532187 148.56979362101316 l 7.1171531387445 0 L 533.0747700919632 146.27898686679174 l -7.1171531387445 0 L 525.9576169532187 148.56979362101316 M 534.8540583766493 146.27898686679174 l 7.1171531387445 0 L 541.9712115153937 145.66516572858038 l -7.1171531387445 0 L 534.8540583766493 146.27898686679174 M 543.75049980008 145.66172607879926 l 7.1171531387445 0 L 550.8676529388244 144.70650406504066 l -7.1171531387445 0 L 543.75049980008 145.66172607879926 M 552.6469412235106 144.70650406504066 l 7.1171531387445 0 L 559.764094362255 132.76722951844903 l -7.1171531387445 0 L 552.6469412235106 144.70650406504066 M 561.5433826469413 132.76722951844903 l 7.1171531387445 0 L 568.6605357856857 123.62626641651032 l -7.1171531387445 0 L 561.5433826469413 132.76722951844903 M 570.4398240703717 123.62632895559724 l 7.1171531387445 0 L 577.5569772091162 121.6861163227017 l -7.1171531387445 0 L 570.4398240703717 123.62632895559724 M 579.3362654938024 121.6861163227017 l 7.1171531387445 0 L 586.4534186325469 117.21944965603501 l -7.1171531387445 0 L 579.3362654938024 121.6861163227017 M 606.0255897640943 124.10956848030018 l 7.1171531387445 0 L 613.1427429028388 117.28711694809255 l -7.1171531387445 0 L 606.0255897640943 124.10956848030018 M 623.8184726109555 120.90437773608505 l 7.1171531387445 0 L 630.9356257497 117.79737335834896 l -7.1171531387445 0 L 623.8184726109555 120.90437773608505 M 632.7149140343862 117.79868667917447 l 7.1171531387445 0 L 639.8320671731307 111.64809255784864 l -7.1171531387445 0 L 632.7149140343862 117.79868667917447 M 641.6113554578168 111.64809255784864 l 7.1171531387445 0 L 648.7285085965613 100.51038148843027 l -7.1171531387445 0 L 641.6113554578168 111.64809255784864 M 659.4042383046781 101.83527204502813 l 7.1171531387445 0 L 666.5213914434225 96.84546591619763 l -7.1171531387445 0 L 659.4042383046781 101.83527204502813 M 668.3006797281087 96.8454033771107 l 7.1171531387445 0 L 675.4178328668531 94.9343339587242 l -7.1171531387445 0 L 668.3006797281087 96.8454033771107 M 677.1971211515394 94.9343339587242 l 7.1171531387445 0 L 684.3142742902838 85.61263289555971 l -7.1171531387445 0 L 677.1971211515394 94.9343339587242 M 686.09356257497 85.6125703564728 l 7.1171531387445 0 L 693.2107157137144 85.31188242651658 l -7.1171531387445 0 L 686.09356257497 85.6125703564728 M 694.9900039984005 85.31188242651658 l 7.1171531387445 0 L 702.107157137145 82.75991244527832 l -7.1171531387445 0 L 694.9900039984005 85.31188242651658 M 703.8864454218311 82.75984990619136 l 7.1171531387445 0 L 711.0035985605756 64.95728580362726 l -7.1171531387445 0 L 703.8864454218311 82.75984990619136 M 712.7828868452618 64.96904315197 l 7.1171531387445 0 L 719.9000399840063 59.81832395247025 l -7.1171531387445 0 L 712.7828868452618 64.96904315197 M 730.5757696921231 66.13664790494059 l 7.1171531387445 0 L 737.6929228308676 53.88036272670419 l -7.1171531387445 0 L 730.5757696921231 66.13664790494059 M 739.4722111155537 53.88036272670419 l 7.1171531387445 0 L 746.5893642542982 36.24540337711068 l -7.1171531387445 0 L 739.4722111155537 53.88036272670419 M 748.3686525389844 36.24540337711068 l 7.1171531387445 0 L 755.4858056777289 19.591744840525337 l -7.1171531387445 0 L 748.3686525389844 36.24540337711068 M 757.265093962415 19.59049405878673 l 7.1171531387445 0 L 764.3822471011595 12.39643527204504 l -7.1171531387445 0 L 757.265093962415 19.59049405878673 M 801.747301079568 53.25734834271418 l 7.1171531387445 0 L 808.8644542183125 32.480425265791126 l -7.1171531387445 0 L 801.747301079568 53.25734834271418 M 810.6437425029987 32.480425265791126 l 7.1171531387445 0 L 817.7608956417432 21.391494684177616 l -7.1171531387445 0 L 810.6437425029987 32.480425265791126 M 846.2295081967213 42.15140712945592 l 7.1171531387445 0 L 853.3466613354658 37.10900562851785 l -7.1171531387445 0 L 846.2295081967213 42.15140712945592 M 881.8152738904437 73.25209505941213 l 7.1171531387445 0 L 888.9324270291881 66.49399624765476 l -7.1171531387445 0 L 881.8152738904437 73.25209505941213"></path><path class="candle body down" d="M 9.964014394242305 194.2455909943715 l 7.1171531387445 0 L 17.081167532986804 195.40762976860537 l -7.1171531387445 0 L 9.964014394242305 194.2455909943715 M 72.23910435825668 185.0916823014384 l 7.1171531387445 0 L 79.35625749700118 185.37792370231395 l -7.1171531387445 0 L 72.23910435825668 185.0916823014384 M 90.03198720511796 184.19806128830518 l 7.1171531387445 0 L 97.14914034386246 184.71651031894933 l -7.1171531387445 0 L 90.03198720511796 184.19806128830518 M 116.72131147540982 180.9183239524703 l 7.1171531387445 0 L 123.83846461415432 183.23076923076923 l -7.1171531387445 0 L 116.72131147540982 180.9183239524703 M 152.30707716913233 179.94996873045653 l 7.1171531387445 0 L 159.42423030787683 180.13445903689805 l -7.1171531387445 0 L 152.30707716913233 179.94996873045653 M 161.20351859256294 180.134521575985 l 7.1171531387445 0 L 168.32067173130744 181.46110068792996 l -7.1171531387445 0 L 161.20351859256294 180.134521575985 M 196.78928428628546 168.69906191369606 l 7.1171531387445 0 L 203.90643742502996 168.7622263914947 l -7.1171531387445 0 L 196.78928428628546 168.69906191369606 M 205.68572570971608 168.76216385240775 l 7.1171531387445 0 L 212.80287884846058 173.52532833020638 l -7.1171531387445 0 L 205.68572570971608 168.76216385240775 M 223.47860855657734 169.41776110068793 l 7.1171531387445 0 L 230.59576169532184 170.3351469668543 l -7.1171531387445 0 L 223.47860855657734 169.41776110068793 M 232.37504998000796 170.3351469668543 l 7.1171531387445 0 L 239.49220311875246 170.5302689180738 l -7.1171531387445 0 L 232.37504998000796 170.3351469668543 M 267.9608156737305 164.13358348968103 l 7.1171531387445 0 L 275.07796881247504 165.69449656035022 l -7.1171531387445 0 L 267.9608156737305 164.13358348968103 M 276.85725709716115 165.70006253908693 l 7.1171531387445 0 L 283.9744102359057 166.40400250156347 l -7.1171531387445 0 L 276.85725709716115 165.70006253908693 M 339.13234706117555 149.2257661038149 l 7.1171531387445 0 L 346.2495001999201 151.03545966228893 l -7.1171531387445 0 L 339.13234706117555 149.2257661038149 M 348.02878848460614 151.03889931207004 l 7.1171531387445 0 L 355.14594162335067 151.32582864290183 l -7.1171531387445 0 L 348.02878848460614 151.03889931207004 M 365.8216713314674 146.37273295809882 l 7.1171531387445 0 L 372.93882447021196 149.1300187617261 l -7.1171531387445 0 L 365.8216713314674 146.37273295809882 M 374.7181127548981 149.13176985616008 l 7.1171531387445 0 L 381.8352658936426 158.94640400250157 l -7.1171531387445 0 L 374.7181127548981 149.13176985616008 M 383.61455417832866 158.94640400250157 l 7.1171531387445 0 L 390.7317073170732 159.00863039399624 l -7.1171531387445 0 L 383.61455417832866 158.94640400250157 M 419.20031987205124 143.02145090681677 l 7.1171531387445 0 L 426.31747301079577 148.8432770481551 l -7.1171531387445 0 L 419.20031987205124 143.02145090681677 M 445.8896441423431 144.73208255159474 l 7.1171531387445 0 L 453.00679728108764 149.55897435897435 l -7.1171531387445 0 L 445.8896441423431 144.73208255159474 M 472.57896841263494 145.1302689180738 l 7.1171531387445 0 L 479.69612155137946 146.32958098811758 l -7.1171531387445 0 L 472.57896841263494 145.1302689180738 M 481.47540983606564 146.32958098811758 l 7.1171531387445 0 L 488.59256297481016 151.60031269543464 l -7.1171531387445 0 L 481.47540983606564 146.32958098811758 M 499.2682926829268 150.24208880550344 l 7.1171531387445 0 L 506.38544582167134 152.03483427141964 l -7.1171531387445 0 L 499.2682926829268 150.24208880550344 M 508.16473410635746 152.0337085678549 l 7.1171531387445 0 L 515.281887245102 153.39881175734837 l -7.1171531387445 0 L 508.16473410635746 152.0337085678549 M 588.232706917233 117.21951219512195 l 7.1171531387445 0 L 595.3498600559775 119.5089430894309 l -7.1171531387445 0 L 588.232706917233 117.21951219512195 M 597.1291483406637 119.50881801125703 l 7.1171531387445 0 L 604.2463014794082 124.110631644778 l -7.1171531387445 0 L 597.1291483406637 119.50881801125703 M 614.9220311875249 117.28711694809255 l 7.1171531387445 0 L 622.0391843262694 120.90206378986868 l -7.1171531387445 0 L 614.9220311875249 117.28711694809255 M 650.5077968812475 100.51031894934333 l 7.1171531387445 0 L 657.624950019992 101.834521575985 l -7.1171531387445 0 L 650.5077968812475 100.51031894934333 M 721.6793282686924 59.81832395247025 l 7.1171531387445 0 L 728.7964814074369 66.14315196998123 l -7.1171531387445 0 L 721.6793282686924 59.81832395247025 M 766.1615353858456 12.370481550969373 l 7.1171531387445 0 L 773.27868852459 15.489555972482805 l -7.1171531387445 0 L 766.1615353858456 12.370481550969373 M 775.0579768092763 15.489555972482805 l 7.1171531387445 0 L 782.1751299480208 27.610881801125714 l -7.1171531387445 0 L 775.0579768092763 15.489555972482805 M 783.9544182327068 27.610881801125714 l 7.1171531387445 0 L 791.0715713714512 44.78130081300813 l -7.1171531387445 0 L 783.9544182327068 27.610881801125714 M 792.8508596561375 44.744402751719804 l 7.1171531387445 0 L 799.9680127948819 53.24427767354598 l -7.1171531387445 0 L 792.8508596561375 44.744402751719804 M 819.5401839264293 21.38705440900563 l 7.1171531387445 0 L 826.6573370651738 36.41513445903689 l -7.1171531387445 0 L 819.5401839264293 21.38705440900563 M 828.43662534986 36.44509068167605 l 7.1171531387445 0 L 835.5537784886045 41.088305190744194 l -7.1171531387445 0 L 828.43662534986 36.44509068167605 M 837.3330667732906 41.088305190744194 l 7.1171531387445 0 L 844.4502199120351 42.12876797998749 l -7.1171531387445 0 L 837.3330667732906 41.088305190744194 M 855.1259496201519 37.16410256410256 l 7.1171531387445 0 L 862.2431027588964 41.73552220137586 l -7.1171531387445 0 L 855.1259496201519 37.16410256410256 M 864.0223910435824 41.67016885553468 l 7.1171531387445 0 L 871.1395441823269 44.3825515947467 l -7.1171531387445 0 L 864.0223910435824 41.67016885553468 M 872.9188324670131 44.3825515947467 l 7.1171531387445 0 L 880.0359856057576 73.26372732958097 l -7.1171531387445 0 L 872.9188324670131 44.3825515947467"></path><path class="candle body equal"></path><path class="candle wick up" d="M 4.626149540183927 193.54383989993747 L 4.626149540183927 194.2456535334584 M 4.626149540183927 194.79118198874298 L 4.626149540183927 195.83595997498438 M 22.41903238704518 194.88792995622265 L 22.41903238704518 195.15196998123827 M 22.41903238704518 195.4081300813008 L 22.41903238704518 195.80988117573483 M 31.315473810475808 194.24640400250155 L 31.315473810475808 194.2580362726704 M 31.315473810475808 195.15128205128207 L 31.315473810475808 195.2393996247655 M 40.21191523390643 192.25146966854285 L 40.21191523390643 192.70500312695435 M 40.21191523390643 194.2580362726704 L 40.21191523390643 194.8532833020638 M 49.10835665733706 190.91069418386493 L 49.10835665733706 191.7136335209506 M 49.10835665733706 192.7050656660413 L 49.10835665733706 193.16704190118824 M 58.004798080767685 183.53545966228893 L 58.004798080767685 186.26666666666668 M 58.004798080767685 191.71357098186365 L 58.004798080767685 191.85772357723576 M 66.90123950419832 183.739837398374 L 66.90123950419832 185.09368355222014 M 66.90123950419832 186.2679799874922 L 66.90123950419832 186.91006879299562 M 84.69412235105956 183.85409631019388 L 84.69412235105956 184.19806128830518 M 84.69412235105956 185.3779862414009 L 84.69412235105956 185.7098186366479 M 102.48700519792082 183.40331457160727 L 102.48700519792082 184.57041901188242 M 102.48700519792082 184.71144465290809 L 102.48700519792082 186.36647904940588 M 111.38344662135144 179.96066291432146 L 111.38344662135144 180.91826141338336 M 111.38344662135144 184.57066916823015 L 111.38344662135144 184.772545340838 M 129.1763294682127 180.876110068793 L 129.1763294682127 182.046904315197 M 129.1763294682127 183.23076923076923 L 129.1763294682127 185.3923076923077 M 138.07277089164333 180.7068167604753 L 138.07277089164333 181.3939962476548 M 138.07277089164333 182.04696685428394 L 138.07277089164333 184.1776110068793 M 146.96921231507397 178.01751094434022 L 146.96921231507397 179.94996873045653 M 146.96921231507397 181.3939962476548 L 146.96921231507397 182.32332707942464 M 173.65853658536582 178.2294559099437 L 173.65853658536582 178.4957473420888 M 173.65853658536582 181.4594746716698 L 173.65853658536582 183.1145090681676 M 182.55497800879647 177.02313946216384 L 182.55497800879647 177.74227642276423 M 182.55497800879647 178.4957473420888 L 182.55497800879647 181.61350844277675 M 191.4514194322271 167.69856160100062 L 191.4514194322271 168.69906191369606 M 191.4514194322271 177.74227642276423 L 191.4514194322271 178.05778611632272 M 218.14074370251896 168.32395247029393 L 218.14074370251896 169.41776110068793 M 218.14074370251896 173.52532833020638 L 218.14074370251896 174.24090056285178 M 244.83006797281087 166.35397123202 L 244.83006797281087 168.1098186366479 M 244.83006797281087 170.5302689180738 L 244.83006797281087 170.68367729831144 M 253.72650939624148 164.00437773608505 L 253.72650939624148 164.3098186366479 M 253.72650939624148 168.109756097561 L 253.72650939624148 169.6332707942464 M 262.6229508196721 163.13320825515947 L 262.6229508196721 164.12945590994372 M 262.6229508196721 164.30988117573483 L 262.6229508196721 166.4330831769856 M 289.31227508996403 160.63164477798625 L 289.31227508996403 161.6724828017511 M 289.31227508996403 166.40400250156347 L 289.31227508996403 166.98561601000625 M 298.2087165133947 154.5101938711695 L 298.2087165133947 155.75747342088806 M 298.2087165133947 161.67554721701063 L 298.2087165133947 162.77048155096935 M 307.10515793682526 150.64459036898063 L 307.10515793682526 155.02739212007504 M 307.10515793682526 155.75747342088806 L 307.10515793682526 158.54002501563477 M 316.0015993602559 152.50281425891183 L 316.0015993602559 154.86041275797373 M 316.0015993602559 155.01719824890557 L 316.0015993602559 157.78205128205127 M 324.89804078368655 148.52895559724828 L 324.89804078368655 149.52676672920575 M 324.89804078368655 154.86047529706065 L 324.89804078368655 155.25303314571607 M 333.7944822071172 147.58661663539712 L 333.7944822071172 149.2257661038149 M 333.7944822071172 149.5268292682927 L 333.7944822071172 151.69743589743587 M 360.483806477409 144.75315822388993 L 360.483806477409 146.3726704190119 M 360.483806477409 151.32576610381489 L 360.483806477409 153.5146966854284 M 396.06957217113154 154.3746716697936 L 396.06957217113154 155.3792995622264 M 396.06957217113154 159.00856785490933 L 396.06957217113154 160.7219512195122 M 404.9660135945622 151.37554721701065 L 404.9660135945622 152.4703564727955 M 404.9660135945622 155.37936210131332 L 404.9660135945622 156.64790494058786 M 413.86245501799283 141.975234521576 L 413.86245501799283 143.02145090681677 M 413.86245501799283 152.47029393370858 L 413.86245501799283 152.4703564727955 M 431.65533786485406 145.23452157598499 L 431.65533786485406 146.0969981238274 M 431.65533786485406 148.8432770481551 L 431.65533786485406 151.56347717323325 M 440.5517792882847 143.63352095059412 L 440.5517792882847 144.73483427141963 M 440.5517792882847 146.09706066291432 L 440.5517792882847 148.20387742338963 M 458.34466213514594 146.26641651031895 L 458.34466213514594 146.44990619136962 M 458.34466213514594 149.5590368980613 L 458.34466213514594 150.50031269543464 M 467.2411035585766 144.74671669793622 L 467.2411035585766 145.12570356472796 M 467.2411035585766 146.44990619136962 L 467.2411035585766 148.26766729205752 M 493.93042782886846 149.62745465916197 L 493.93042782886846 150.24215134459038 M 493.93042782886846 151.60031269543464 L 493.93042782886846 155.81613508442777 M 520.6197520991603 147.6944340212633 L 520.6197520991603 148.56979362101316 M 520.6197520991603 153.39881175734837 L 520.6197520991603 153.49781113195746 M 529.5161935225909 144.8030018761726 L 529.5161935225909 146.27898686679174 M 529.5161935225909 148.56979362101316 L 529.5161935225909 149.17998749218262 M 538.4126349460215 145.19074421513446 L 538.4126349460215 145.66516572858038 M 538.4126349460215 146.27898686679174 L 538.4126349460215 147.3733583489681 M 547.3090763694522 143.80863039399625 L 547.3090763694522 144.70650406504066 M 547.3090763694522 145.66172607879926 L 547.3090763694522 147.06066291432145 M 556.2055177928828 131.3633520950594 L 556.2055177928828 132.76722951844903 M 556.2055177928828 144.70650406504066 L 556.2055177928828 145.63101938711696 M 565.1019592163135 117.3545966228893 L 565.1019592163135 123.62626641651032 M 565.1019592163135 132.76722951844903 L 565.1019592163135 133.4271419637273 M 573.998400639744 120.5742338961851 L 573.998400639744 121.6861163227017 M 573.998400639744 123.62632895559724 L 573.998400639744 126.42276422764228 M 582.8948420631747 115.03145716072545 L 582.8948420631747 117.21944965603501 M 582.8948420631747 121.6861163227017 L 582.8948420631747 123.92120075046904 M 609.5841663334666 117.1225766103815 L 609.5841663334666 117.28711694809255 M 609.5841663334666 124.10956848030018 L 609.5841663334666 126.4015009380863 M 627.3770491803277 117.38943089430894 L 627.3770491803277 117.79737335834896 M 627.3770491803277 120.90437773608505 L 627.3770491803277 124.21250781738587 M 636.2734906037584 111.16410256410256 L 636.2734906037584 111.64809255784864 M 636.2734906037584 117.79868667917447 L 636.2734906037584 119.64602876798 M 645.169932027189 98.17367104440275 L 645.169932027189 100.51038148843027 M 645.169932027189 111.64809255784864 L 645.169932027189 112.97686053783615 M 662.9628148740503 94.2151344590369 L 662.9628148740503 96.84546591619763 M 662.9628148740503 101.83527204502813 L 662.9628148740503 102.96435272045028 M 671.8592562974809 94.77798624140088 L 671.8592562974809 94.9343339587242 M 671.8592562974809 96.8454033771107 L 671.8592562974809 104.34646654158848 M 680.7556977209116 84.85928705440901 L 680.7556977209116 85.61263289555971 M 680.7556977209116 94.9343339587242 L 680.7556977209116 95.34083802376485 M 689.6521391443422 82.95809881175735 L 689.6521391443422 85.31188242651658 M 689.6521391443422 85.6125703564728 L 689.6521391443422 92.02626641651032 M 698.5485805677728 81.08192620387742 L 698.5485805677728 82.75991244527832 M 698.5485805677728 85.31188242651658 L 698.5485805677728 87.18217636022514 M 707.4450219912034 57.942464040025015 L 707.4450219912034 64.95728580362726 M 707.4450219912034 82.75984990619136 L 707.4450219912034 85.16866791744842 M 716.3414634146341 48.69849906191371 L 716.3414634146341 59.81832395247025 M 716.3414634146341 64.96904315197 L 716.3414634146341 66.30400250156347 M 734.1343462614954 51.313320825515945 L 734.1343462614954 53.88036272670419 M 734.1343462614954 66.13664790494059 L 734.1343462614954 79.2057535959975 M 743.0307876849259 35.18317698561603 L 743.0307876849259 36.24540337711068 M 743.0307876849259 53.88036272670419 L 743.0307876849259 58.017510944340216 M 751.9272291083566 13.758599124452786 L 751.9272291083566 19.591744840525337 M 751.9272291083566 36.24540337711068 L 751.9272291083566 39.18073796122576 M 760.8236705317872 3.846153846153868 L 760.8236705317872 12.39643527204504 M 760.8236705317872 19.59049405878673 L 760.8236705317872 37.92995622263916 M 805.3058776489403 29.487179487179503 L 805.3058776489403 32.480425265791126 M 805.3058776489403 53.25734834271418 L 805.3058776489403 63.696060037523466 M 814.202319072371 15.415884928080061 L 814.202319072371 21.391494684177616 M 814.202319072371 32.480425265791126 L 814.202319072371 36.6714821763602 M 849.7880847660936 31.86472795497184 L 849.7880847660936 37.10900562851785 M 849.7880847660936 42.15140712945592 L 849.7880847660936 48.56160100062539 M 885.3738504598159 65.11632270168855 L 885.3738504598159 66.49399624765476 M 885.3738504598159 73.25209505941213 L 885.3738504598159 85.77235772357723" style="stroke-width: 1px;"></path><path class="candle wick down" d="M 13.522590963614554 194.02032520325204 L 13.522590963614554 194.2455909943715 M 13.522590963614554 195.40762976860537 L 13.522590963614554 196.15384615384616 M 75.79768092762893 184.7236397748593 L 75.79768092762893 185.0916823014384 M 75.79768092762893 185.37792370231395 L 75.79768092762893 186.64740462789243 M 93.5905637744902 182.70794246404003 L 93.5905637744902 184.19806128830518 M 93.5905637744902 184.71651031894933 L 93.5905637744902 185.5972482801751 M 120.27988804478207 179.52170106316447 L 120.27988804478207 180.9183239524703 M 120.27988804478207 183.23076923076923 L 120.27988804478207 185.5972482801751 M 155.8656537385046 179.2995622263915 L 155.8656537385046 179.94996873045653 M 155.8656537385046 180.13445903689805 L 155.8656537385046 181.12570356472796 M 164.7620951619352 179.70606629143214 L 164.7620951619352 180.134521575985 M 164.7620951619352 181.46110068792996 L 164.7620951619352 183.67698561601 M 200.34786085565773 166.38524077548468 L 200.34786085565773 168.69906191369606 M 200.34786085565773 168.7622263914947 L 200.34786085565773 171.35084427767356 M 209.24430227908834 167.6765478424015 L 209.24430227908834 168.76216385240775 M 209.24430227908834 173.52532833020638 L 209.24430227908834 176.4901813633521 M 227.0371851259496 167.13570981863666 L 227.0371851259496 169.41776110068793 M 227.0371851259496 170.3351469668543 L 227.0371851259496 173.6051282051282 M 235.93362654938022 169.5121951219512 L 235.93362654938022 170.3351469668543 M 235.93362654938022 170.5302689180738 L 235.93362654938022 171.93583489681052 M 271.51939224310274 164.09011882426518 L 271.51939224310274 164.13358348968103 M 271.51939224310274 165.69449656035022 L 271.51939224310274 168.19887429643526 M 280.4158336665334 165.0093808630394 L 280.4158336665334 165.70006253908693 M 280.4158336665334 166.40400250156347 L 280.4158336665334 167.54396497811132 M 342.6909236305478 148.93683552220136 L 342.6909236305478 149.2257661038149 M 342.6909236305478 151.03545966228893 L 342.6909236305478 156.06091307066916 M 351.5873650539784 148.83677298311446 L 351.5873650539784 151.03889931207004 M 351.5873650539784 151.32582864290183 L 351.5873650539784 153.62726704190118 M 369.38024790083966 144.345153220763 L 369.38024790083966 146.37273295809882 M 369.38024790083966 149.1300187617261 L 369.38024790083966 150.49862414008754 M 378.2766893242703 147.90475297060664 L 378.2766893242703 149.13176985616008 M 378.2766893242703 158.94640400250157 L 378.2766893242703 164.95934959349594 M 387.1731307477009 157.01926203877423 L 387.1731307477009 158.94640400250157 M 387.1731307477009 159.00863039399624 L 387.1731307477009 163.39537210756723 M 422.7588964414235 141.81988742964353 L 422.7588964414235 143.02145090681677 M 422.7588964414235 148.8432770481551 L 422.7588964414235 153.62026266416512 M 449.44822071171535 144.07754846779238 L 449.44822071171535 144.73208255159474 M 449.44822071171535 149.55897435897435 L 449.44822071171535 150.09186991869916 M 476.13754498200717 144.74102564102566 L 476.13754498200717 145.1302689180738 M 476.13754498200717 146.32958098811758 L 476.13754498200717 147.98073796122577 M 485.0339864054379 145.52945590994372 L 485.0339864054379 146.32958098811758 M 485.0339864054379 151.60031269543464 L 485.0339864054379 152.37648530331458 M 502.82686925229905 150.14183864915572 L 502.82686925229905 150.24208880550344 M 502.82686925229905 152.03483427141964 L 502.82686925229905 154.1831144465291 M 511.7233106757297 151.7965603502189 L 511.7233106757297 152.0337085678549 M 511.7233106757297 153.39881175734837 L 511.7233106757297 156.30187617260788 M 591.7912834866053 114.25891181988743 L 591.7912834866053 117.21951219512195 M 591.7912834866053 119.5089430894309 L 591.7912834866053 121.98248905565978 M 600.687724910036 115.46110068792996 L 600.687724910036 119.50881801125703 M 600.687724910036 124.110631644778 L 600.687724910036 129.76860537836149 M 618.4806077568971 115.47842401500938 L 618.4806077568971 117.28711694809255 M 618.4806077568971 120.90206378986868 L 618.4806077568971 124.85928705440901 M 654.0663734506197 88.4490306441526 L 654.0663734506197 100.51031894934333 M 654.0663734506197 101.834521575985 L 654.0663734506197 105.47217010631644 M 725.2379048380647 56.06629143214511 L 725.2379048380647 59.81832395247025 M 725.2379048380647 66.14315196998123 L 725.2379048380647 90.27517198248907 M 769.7201119552178 7.410881801125697 L 769.7201119552178 12.370481550969373 M 769.7201119552178 15.489555972482805 L 769.7201119552178 24.04627892432771 M 778.6165533786485 7.598499061913685 L 778.6165533786485 15.489555972482805 M 778.6165533786485 27.610881801125714 L 778.6165533786485 46.61594746716696 M 787.512994802079 26.89343339587242 L 787.512994802079 27.610881801125714 M 787.512994802079 44.78130081300813 L 787.512994802079 75.95372107567229 M 796.4094362255097 37.129455909943715 L 796.4094362255097 44.744402751719804 M 796.4094362255097 53.24427767354598 L 796.4094362255097 62.75171982489056 M 823.0987604958016 17.618761726078787 L 823.0987604958016 21.38705440900563 M 823.0987604958016 36.41513445903689 L 823.0987604958016 51.01313320825517 M 831.9952019192323 28.861788617886162 L 831.9952019192323 36.44509068167605 M 831.9952019192323 41.088305190744194 L 831.9952019192323 45.07317073170728 M 840.8916433426629 35.72545340838025 L 840.8916433426629 41.088305190744194 M 840.8916433426629 42.12876797998749 L 840.8916433426629 54.502814258911826 M 858.6845261895241 29.487179487179503 L 858.6845261895241 37.16410256410256 M 858.6845261895241 41.73552220137586 L 858.6845261895241 42.032145090681695 M 867.5809676129546 38.459599749843676 L 867.5809676129546 41.67016885553468 M 867.5809676129546 44.3825515947467 L 867.5809676129546 57.3170731707317 M 876.4774090363853 43.55847404627892 L 876.4774090363853 44.3825515947467 M 876.4774090363853 73.26372732958097 L 876.4774090363853 78.13633520950593" style="stroke-width: 1px;"></path><path class="candle wick equal" style="stroke-width: 1px;"></path></g></g><g class="x axis" transform="translate(0,200)" fill="none" font-size="10" font-family="sans-serif" text-anchor="middle"><path class="domain" stroke="#000" d="M0.5,6V0.5H890.5V6"></path><g class="tick" opacity="1" transform="translate(40.21191523390643,0)"><line stroke="#000" y2="6" x1="0.5" x2="0.5"></line><text fill="#000" y="9" x="0.5" dy="0.71em">Oct 19</text></g><g class="tick" opacity="1" transform="translate(102.48700519792082,0)"><line stroke="#000" y2="6" x1="0.5" x2="0.5"></line><text fill="#000" y="9" x="0.5" dy="0.71em">Oct 26</text></g><g class="tick" opacity="1" transform="translate(164.7620951619352,0)"><line stroke="#000" y2="6" x1="0.5" x2="0.5"></line><text fill="#000" y="9" x="0.5" dy="0.71em">Nov  2</text></g><g class="tick" opacity="1" transform="translate(227.0371851259496,0)"><line stroke="#000" y2="6" x1="0.5" x2="0.5"></line><text fill="#000" y="9" x="0.5" dy="0.71em">Nov  9</text></g><g class="tick" opacity="1" transform="translate(289.31227508996403,0)"><line stroke="#000" y2="6" x1="0.5" x2="0.5"></line><text fill="#000" y="9" x="0.5" dy="0.71em">Nov 16</text></g><g class="tick" opacity="1" transform="translate(351.5873650539784,0)"><line stroke="#000" y2="6" x1="0.5" x2="0.5"></line><text fill="#000" y="9" x="0.5" dy="0.71em">Nov 23</text></g><g class="tick" opacity="1" transform="translate(413.86245501799283,0)"><line stroke="#000" y2="6" x1="0.5" x2="0.5"></line><text fill="#000" y="9" x="0.5" dy="0.71em">Nov 30</text></g><g class="tick" opacity="1" transform="translate(476.13754498200717,0)"><line stroke="#000" y2="6" x1="0.5" x2="0.5"></line><text fill="#000" y="9" x="0.5" dy="0.71em">Dec  7</text></g><g class="tick" opacity="1" transform="translate(538.4126349460215,0)"><line stroke="#000" y2="6" x1="0.5" x2="0.5"></line><text fill="#000" y="9" x="0.5" dy="0.71em">Dec 14</text></g><g class="tick" opacity="1" transform="translate(600.687724910036,0)"><line stroke="#000" y2="6" x1="0.5" x2="0.5"></line><text fill="#000" y="9" x="0.5" dy="0.71em">Dec 21</text></g><g class="tick" opacity="1" transform="translate(662.9628148740503,0)"><line stroke="#000" y2="6" x1="0.5" x2="0.5"></line><text fill="#000" y="9" x="0.5" dy="0.71em">Dec 28</text></g><g class="tick" opacity="1" transform="translate(725.2379048380647,0)"><line stroke="#000" y2="6" x1="0.5" x2="0.5"></line><text fill="#000" y="9" x="0.5" dy="0.71em">Jan  4</text></g><g class="tick" opacity="1" transform="translate(787.512994802079,0)"><line stroke="#000" y2="6" x1="0.5" x2="0.5"></line><text fill="#000" y="9" x="0.5" dy="0.71em">Jan 11</text></g><g class="tick" opacity="1" transform="translate(849.7880847660936,0)"><line stroke="#000" y2="6" x1="0.5" x2="0.5"></line><text fill="#000" y="9" x="0.5" dy="0.71em">Jan 18</text></g></g><g class="y axis" fill="none" font-size="10" font-family="sans-serif" text-anchor="end"><path class="domain" stroke="#000" d="M-6,200.5H0.5V0.5H-6"></path><g class="tick" opacity="1" transform="translate(0,172.38899312070043)"><line stroke="#000" x2="-6" y1="0.5" y2="0.5"></line><text fill="#000" x="-9" y="0.5" dy="0.32em">15,000</text></g><g class="tick" opacity="1" transform="translate(0,141.11944965603502)"><line stroke="#000" x2="-6" y1="0.5" y2="0.5"></line><text fill="#000" x="-9" y="0.5" dy="0.32em">20,000</text></g><g class="tick" opacity="1" transform="translate(0,109.84990619136961)"><line stroke="#000" x2="-6" y1="0.5" y2="0.5"></line><text fill="#000" x="-9" y="0.5" dy="0.32em">25,000</text></g><g class="tick" opacity="1" transform="translate(0,78.5803627267042)"><line stroke="#000" x2="-6" y1="0.5" y2="0.5"></line><text fill="#000" x="-9" y="0.5" dy="0.32em">30,000</text></g><g class="tick" opacity="1" transform="translate(0,47.31081926203876)"><line stroke="#000" x2="-6" y1="0.5" y2="0.5"></line><text fill="#000" x="-9" y="0.5" dy="0.32em">35,000</text></g><g class="tick" opacity="1" transform="translate(0,16.041275797373345)"><line stroke="#000" x2="-6" y1="0.5" y2="0.5"></line><text fill="#000" x="-9" y="0.5" dy="0.32em">40,000</text></g><text transform="rotate(-90)" y="6" dy=".71em" style="text-anchor: end;">Price ($)</text></g></g></svg>