<?xml version="1.0" encoding="utf-8"?>
<!DOCTYPE svg PUBLIC "-//W3C//DTD SVG 1.1//EN" "http://www.w3.org/Graphics/SVG/1.1/DTD/svg11.dtd">
<svg version="1.1" xmlns="http://www.w3.org/2000/svg" width="960" height="250"><g transform="translate(50,20)"><style>.axis path,.axis line{fill:none;stroke:#000;shape-rendering:crispEdges;}path.candle{stroke:#000000;}path.candle.body{stroke-width:0;}path.candle.up{fill:#00AA00;stroke:#00AA00;}path.candle.down{fill:#FF0000;stroke:#FF0000;}</style><g class="candlestick"><g class="data"><path class="candle body up" d="M 27.75689724110356 56.79769215715663 l 7.1171531387445 0 L 34.87405037984806 42.6847678183519 l -7.1171531387445 0 L 27.75689724110356 56.79769215715663 M 45.54978008796481 50.011314719705865 l 7.1171531387445 0 L 52.66693322670931 45.507925376191935 l -7.1171531387445 0 L 45.54978008796481 50.011314719705865 M 54.446221511395436 45.507925376191935 l 7.1171531387445 0 L 61.563374650139934 32.507656048228995 l -7.1171531387445 0 L 54.446221511395436 45.507925376191935 M 72.23910435825668 45.97978109494417 l 7.1171531387445 0 L 79.35625749700118 29.561370123380357 l -7.1171531387445 0 L 72.23910435825668 45.97978109494417 M 90.03198720511796 29.990069554028196 l 7.1171531387445 0 L 97.14914034386246 20.364990113732972 l -7.1171531387445 0 L 90.03198720511796 29.990069554028196 M 98.92842862854857 20.40548748361286 l 7.1171531387445 0 L 106.04558176729307 19.593903828645864 l -7.1171531387445 0 L 98.92842862854857 20.40548748361286 M 161.20351859256294 93.36845341607997 l 7.1171531387445 0 L 168.32067173130744 87.11631400957015 l -7.1171531387445 0 L 161.20351859256294 93.36845341607997 M 170.09996001599356 87.11631400957015 l 7.1171531387445 0 L 177.21711315473806 79.43531285568142 l -7.1171531387445 0 L 170.09996001599356 87.11631400957015 M 187.89284286285485 81.78456937305816 l 7.1171531387445 0 L 195.00999600159935 79.158989892511 l -7.1171531387445 0 L 187.89284286285485 81.78456937305816 M 205.68572570971608 82.45338957258994 l 7.1171531387445 0 L 212.80287884846058 78.54702963654793 l -7.1171531387445 0 L 205.68572570971608 82.45338957258994 M 241.2714914034386 119.52361839336542 l 7.1171531387445 0 L 248.3886445421831 104.59031551623593 l -7.1171531387445 0 L 241.2714914034386 119.52361839336542 M 259.06437425029986 114.25855124463556 l 7.1171531387445 0 L 266.1815273890444 109.41134332148464 l -7.1171531387445 0 L 259.06437425029986 114.25855124463556 M 267.9608156737305 109.44365940452016 l 7.1171531387445 0 L 275.07796881247504 107.74563331995968 l -7.1171531387445 0 L 267.9608156737305 109.44365940452016 M 294.65013994402244 113.86134976833867 l 7.1171531387445 0 L 301.76729308276697 110.42827727624672 l -7.1171531387445 0 L 294.65013994402244 113.86134976833867 M 321.3394642143143 135.17032948332883 l 7.1171531387445 0 L 328.45661735305885 124.89811025363953 l -7.1171531387445 0 L 321.3394642143143 135.17032948332883 M 330.23590563774496 124.89790572146845 l 7.1171531387445 0 L 337.3530587764895 124.3473051168386 l -7.1171531387445 0 L 330.23590563774496 124.89790572146845 M 339.13234706117555 124.33155613966306 l 7.1171531387445 0 L 346.2495001999201 82.61578811645177 l -7.1171531387445 0 L 339.13234706117555 124.33155613966306 M 348.02878848460614 82.58490375861409 l 7.1171531387445 0 L 355.14594162335067 76.72055734853001 l -7.1171531387445 0 L 348.02878848460614 82.58490375861409 M 356.9252299080368 76.74366948386553 l 7.1171531387445 0 L 364.0423830467813 73.06904449769192 l -7.1171531387445 0 L 356.9252299080368 76.74366948386553 M 365.8216713314674 73.06904449769192 l 7.1171531387445 0 L 372.93882447021196 61.433822879721305 l -7.1171531387445 0 L 365.8216713314674 73.06904449769192 M 383.61455417832866 106.88332568655726 l 7.1171531387445 0 L 390.7317073170732 105.7974643901309 l -7.1171531387445 0 L 383.61455417832866 106.88332568655726 M 401.40743702518995 116.53192632653018 l 7.1171531387445 0 L 408.5245901639345 114.45756104712619 l -7.1171531387445 0 L 401.40743702518995 116.53192632653018 M 410.3038784486206 114.45756104712619 l 7.1171531387445 0 L 417.4210315873651 108.11051871322105 l -7.1171531387445 0 L 410.3038784486206 114.45756104712619 M 428.0967612954818 122.34943486942991 l 7.1171531387445 0 L 435.21391443422635 119.90384369946008 l -7.1171531387445 0 L 428.0967612954818 122.34943486942991 M 454.7860855657737 141.9045512171464 l 7.1171531387445 0 L 461.90323870451823 122.67300476412693 l -7.1171531387445 0 L 454.7860855657737 141.9045512171464 M 490.3718512594962 134.79153590243192 l 7.1171531387445 0 L 497.48900439824075 126.22797843020088 l -7.1171531387445 0 L 490.3718512594962 134.79153590243192 M 508.16473410635746 129.2902340960693 l 7.1171531387445 0 L 515.281887245102 122.44413326465417 l -7.1171531387445 0 L 508.16473410635746 129.2902340960693 M 517.0611755297881 122.44413326465417 l 7.1171531387445 0 L 524.1783286685326 118.78934789907831 l -7.1171531387445 0 L 517.0611755297881 122.44413326465417 M 552.6469412235106 129.7066615964505 l 7.1171531387445 0 L 559.764094362255 118.02092053221558 l -7.1171531387445 0 L 552.6469412235106 129.7066615964505 M 561.5433826469413 118.02092053221558 l 7.1171531387445 0 L 568.6605357856857 103.52490743692064 l -7.1171531387445 0 L 561.5433826469413 118.02092053221558 M 606.0255897640943 122.36845636134322 l 7.1171531387445 0 L 613.1427429028388 121.9082589763443 l -7.1171531387445 0 L 606.0255897640943 122.36845636134322 M 632.7149140343862 129.6604373257795 l 7.1171531387445 0 L 639.8320671731307 127.70654149515966 l -7.1171531387445 0 L 632.7149140343862 129.6604373257795 M 641.6113554578168 127.7153363785174 l 7.1171531387445 0 L 648.7285085965613 123.21501501757012 l -7.1171531387445 0 L 641.6113554578168 127.7153363785174 M 668.3006797281087 129.48863030204654 l 7.1171531387445 0 L 675.4178328668531 125.50884331657589 l -7.1171531387445 0 L 668.3006797281087 129.48863030204654 M 677.1971211515394 125.50884331657589 l 7.1171531387445 0 L 684.3142742902838 119.64122439175404 l -7.1171531387445 0 L 677.1971211515394 125.50884331657589 M 712.7828868452618 130.03023149114756 l 7.1171531387445 0 L 719.9000399840063 127.52573505589785 l -7.1171531387445 0 L 712.7828868452618 130.03023149114756 M 721.6793282686924 127.52573505589785 l 7.1171531387445 0 L 728.7964814074369 126.70801543579755 l -7.1171531387445 0 L 721.6793282686924 127.52573505589785 M 730.5757696921231 126.70924262882416 l 7.1171531387445 0 L 737.6929228308676 119.22111531229278 l -7.1171531387445 0 L 730.5757696921231 126.70924262882416 M 748.3686525389844 124.12579677552581 l 7.1171531387445 0 L 755.4858056777289 108.7967241472972 l -7.1171531387445 0 L 748.3686525389844 124.12579677552581 M 757.265093962415 108.8182000252638 l 7.1171531387445 0 L 764.3822471011595 94.65291545065473 l -7.1171531387445 0 L 757.265093962415 108.8182000252638 M 775.0579768092763 104.39846433973415 l 7.1171531387445 0 L 782.1751299480208 98.32938122636834 l -7.1171531387445 0 L 775.0579768092763 104.39846433973415 M 783.9544182327068 98.32938122636834 l 7.1171531387445 0 L 791.0715713714512 93.87405694306548 l -7.1171531387445 0 L 783.9544182327068 98.32938122636834 M 828.43662534986 107.32879675523618 l 7.1171531387445 0 L 835.5537784886045 106.18382566135887 l -7.1171531387445 0 L 828.43662534986 107.32879675523618 M 837.3330667732906 106.19814291333662 l 7.1171531387445 0 L 844.4502199120351 86.94348432498164 l -7.1171531387445 0 L 837.3330667732906 106.19814291333662 M 846.2295081967213 86.94348432498164 l 7.1171531387445 0 L 853.3466613354658 83.85811652377777 l -7.1171531387445 0 L 846.2295081967213 86.94348432498164"></path><path class="candle body down" d="M 1.0675729708116766 43.61579826124742 l 7.1171531387445 0 L 8.184726109556177 49.324495689116304 l -7.1171531387445 0 L 1.0675729708116766 43.61579826124742 M 9.964014394242305 49.36253867294289 l 7.1171531387445 0 L 17.081167532986804 52.7896797320727 l -7.1171531387445 0 L 9.964014394242305 49.36253867294289 M 18.860455817672932 52.81954142905482 l 7.1171531387445 0 L 25.977608956417434 56.78603382340333 l -7.1171531387445 0 L 18.860455817672932 52.81954142905482 M 36.65333866453418 42.66145115084521 l 7.1171531387445 0 L 43.77049180327868 50.011314719705865 l -7.1171531387445 0 L 36.65333866453418 42.66145115084521 M 63.342662934826066 32.48761189546016 l 7.1171531387445 0 L 70.45981607357056 46.00780200238631 l -7.1171531387445 0 L 63.342662934826066 32.48761189546016 M 81.13554578168731 29.561370123380357 l 7.1171531387445 0 L 88.25269892043181 29.963480371783845 l -7.1171531387445 0 L 81.13554578168731 29.561370123380357 M 107.82487005197919 19.559542423899245 l 7.1171531387445 0 L 114.94202319072369 22.378404806145994 l -7.1171531387445 0 L 107.82487005197919 19.559542423899245 M 116.72131147540982 22.378200273974926 l 7.1171531387445 0 L 123.83846461415432 26.682170750655985 l -7.1171531387445 0 L 116.72131147540982 22.378200273974926 M 125.61775289884046 26.718577477113627 l 7.1171531387445 0 L 132.73490603758498 31.592579114679978 l -7.1171531387445 0 L 125.61775289884046 26.718577477113627 M 134.51419432227107 31.563740078553394 l 7.1171531387445 0 L 141.63134746101557 42.0662625329133 l -7.1171531387445 0 L 134.51419432227107 31.563740078553394 M 143.4106357457017 42.0662625329133 l 7.1171531387445 0 L 150.5277888844462 45.16410679655493 l -7.1171531387445 0 L 143.4106357457017 42.0662625329133 M 152.30707716913233 45.158993492277176 l 7.1171531387445 0 L 159.42423030787683 93.36845341607997 l -7.1171531387445 0 L 152.30707716913233 45.158993492277176 M 178.9964014394242 79.41301884903037 l 7.1171531387445 0 L 186.1135545781687 81.80338633280032 l -7.1171531387445 0 L 178.9964014394242 79.41301884903037 M 196.78928428628546 79.15919442468207 l 7.1171531387445 0 L 203.90643742502996 82.45277597607657 l -7.1171531387445 0 L 196.78928428628546 79.15919442468207 M 214.5821671331467 78.54702963654793 l 7.1171531387445 0 L 221.6993202718912 105.50416525675824 l -7.1171531387445 0 L 214.5821671331467 78.54702963654793 M 223.47860855657734 105.54323090144038 l 7.1171531387445 0 L 230.59576169532184 109.66537227800409 l -7.1171531387445 0 L 223.47860855657734 105.54323090144038 M 232.37504998000796 109.66537227800409 l 7.1171531387445 0 L 239.49220311875246 119.52361839336542 l -7.1171531387445 0 L 232.37504998000796 109.66537227800409 M 250.16793282686922 104.56024928708266 l 7.1171531387445 0 L 257.28508596561375 114.2865721520777 l -7.1171531387445 0 L 250.16793282686922 104.56024928708266 M 276.85725709716115 107.72149852376862 l 7.1171531387445 0 L 283.9744102359057 111.4190311131066 l -7.1171531387445 0 L 276.85725709716115 107.72149852376862 M 285.7536985205918 111.43702994416435 l 7.1171531387445 0 L 292.8708516593363 113.87259903774974 l -7.1171531387445 0 L 285.7536985205918 111.43702994416435 M 303.54658136745303 110.42827727624672 l 7.1171531387445 0 L 310.66373450619756 114.58968882966364 l -7.1171531387445 0 L 303.54658136745303 110.42827727624672 M 312.4430227908837 114.62036865533024 l 7.1171531387445 0 L 319.5601759296282 135.17032948332883 l -7.1171531387445 0 L 312.4430227908837 114.62036865533024 M 374.7181127548981 61.43995884485466 l 7.1171531387445 0 L 381.8352658936426 106.88434834741278 l -7.1171531387445 0 L 374.7181127548981 61.43995884485466 M 392.5109956017593 105.78805591025983 l 7.1171531387445 0 L 399.62814874050383 116.53192632653018 l -7.1171531387445 0 L 392.5109956017593 105.78805591025983 M 419.20031987205124 108.13117646250319 l 7.1171531387445 0 L 426.31747301079577 122.37541045516099 l -7.1171531387445 0 L 419.20031987205124 108.13117646250319 M 436.99320271891247 119.90384369946008 l 7.1171531387445 0 L 444.110355857657 133.4442824913262 l -7.1171531387445 0 L 436.99320271891247 119.90384369946008 M 445.8896441423431 133.45839521113282 l 7.1171531387445 0 L 453.00679728108764 141.9045512171464 l -7.1171531387445 0 L 445.8896441423431 133.45839521113282 M 463.68252698920435 122.67300476412693 l 7.1171531387445 0 L 470.7996801279489 124.95803817977495 l -7.1171531387445 0 L 463.68252698920435 122.67300476412693 M 472.57896841263494 124.98544549070377 l 7.1171531387445 0 L 479.69612155137946 132.5136611127728 l -7.1171531387445 0 L 472.57896841263494 124.98544549070377 M 481.47540983606564 132.4831858192773 l 7.1171531387445 0 L 488.59256297481016 134.82732903237627 l -7.1171531387445 0 L 481.47540983606564 132.4831858192773 M 499.2682926829268 126.25129509770747 l 7.1171531387445 0 L 506.38544582167134 129.26916728244484 l -7.1171531387445 0 L 499.2682926829268 126.25129509770747 M 525.9576169532187 118.80918751967597 l 7.1171531387445 0 L 533.0747700919632 122.24389626913684 l -7.1171531387445 0 L 525.9576169532187 118.80918751967597 M 534.8540583766493 122.24389626913684 l 7.1171531387445 0 L 541.9712115153937 124.52770249175816 l -7.1171531387445 0 L 534.8540583766493 122.24389626913684 M 543.75049980008 124.50131784168487 l 7.1171531387445 0 L 550.8676529388244 129.72588762053493 l -7.1171531387445 0 L 543.75049980008 124.50131784168487 M 570.4398240703717 103.52490743692064 l 7.1171531387445 0 L 577.5569772091162 107.19748710138319 l -7.1171531387445 0 L 570.4398240703717 103.52490743692064 M 579.3362654938024 107.19748710138319 l 7.1171531387445 0 L 586.4534186325469 111.23883827035819 l -7.1171531387445 0 L 579.3362654938024 107.19748710138319 M 588.232706917233 111.23883827035819 l 7.1171531387445 0 L 595.3498600559775 120.04558449403977 l -7.1171531387445 0 L 588.232706917233 111.23883827035819 M 597.1291483406637 120.04558449403977 l 7.1171531387445 0 L 604.2463014794082 122.3390037287033 l -7.1171531387445 0 L 597.1291483406637 120.04558449403977 M 614.9220311875249 121.88903295225992 l 7.1171531387445 0 L 622.0391843262694 128.19046461200742 l -7.1171531387445 0 L 614.9220311875249 121.88903295225992 M 623.8184726109555 128.19046461200742 l 7.1171531387445 0 L 630.9356257497 129.6604373257795 l -7.1171531387445 0 L 623.8184726109555 128.19046461200742 M 650.5077968812475 123.20581106987012 l 7.1171531387445 0 L 657.624950019992 127.26884264898285 l -7.1171531387445 0 L 650.5077968812475 123.20581106987012 M 659.4042383046781 127.26884264898285 l 7.1171531387445 0 L 666.5213914434225 129.46838161710662 l -7.1171531387445 0 L 659.4042383046781 127.26884264898285 M 686.09356257497 119.66944983136733 l 7.1171531387445 0 L 693.2107157137144 124.19042894159676 l -7.1171531387445 0 L 686.09356257497 119.66944983136733 M 694.9900039984005 124.19042894159676 l 7.1171531387445 0 L 702.107157137145 128.35204502718477 l -7.1171531387445 0 L 694.9900039984005 124.19042894159676 M 703.8864454218311 128.36472602179367 l 7.1171531387445 0 L 711.0035985605756 130.03023149114756 l -7.1171531387445 0 L 703.8864454218311 128.36472602179367 M 739.4722111155537 119.22111531229278 l 7.1171531387445 0 L 746.5893642542982 124.1437956065835 l -7.1171531387445 0 L 739.4722111155537 119.22111531229278 M 766.1615353858456 94.65250638631248 l 7.1171531387445 0 L 773.27868852459 104.39846433973415 l -7.1171531387445 0 L 766.1615353858456 94.65250638631248 M 792.8508596561375 93.87385241089432 l 7.1171531387445 0 L 799.9680127948819 97.60042856853006 l -7.1171531387445 0 L 792.8508596561375 93.87385241089432 M 801.747301079568 97.60042856853006 l 7.1171531387445 0 L 808.8644542183125 100.39720147629681 l -7.1171531387445 0 L 801.747301079568 97.60042856853006 M 810.6437425029987 100.39720147629681 l 7.1171531387445 0 L 817.7608956417432 100.54282838212764 l -7.1171531387445 0 L 810.6437425029987 100.39720147629681 M 819.5401839264293 100.55939548798754 l 7.1171531387445 0 L 826.6573370651738 107.32879675523618 l -7.1171531387445 0 L 819.5401839264293 100.55939548798754 M 855.1259496201519 83.85811652377777 l 7.1171531387445 0 L 862.2431027588964 91.91238888994333 l -7.1171531387445 0 L 855.1259496201519 83.85811652377777 M 864.0223910435824 91.91238888994333 l 7.1171531387445 0 L 871.1395441823269 98.34390301051718 l -7.1171531387445 0 L 864.0223910435824 91.91238888994333 M 872.9188324670131 98.35331149038834 l 7.1171531387445 0 L 880.0359856057576 140.14823346381942 l -7.1171531387445 0 L 872.9188324670131 98.35331149038834 M 881.8152738904437 140.18607191547486 l 7.1171531387445 0 L 888.9324270291881 190.87977958958737 l -7.1171531387445 0 L 881.8152738904437 140.18607191547486"></path><path class="candle body equal"></path><path class="candle wick up" d="M 31.315473810475808 39.40325366505286 L 31.315473810475808 42.6847678183519 M 31.315473810475808 56.79769215715663 L 31.315473810475808 57.522963235914915 M 49.10835665733706 40.852568629542816 L 49.10835665733706 45.507925376191935 M 49.10835665733706 50.011314719705865 L 49.10835665733706 52.252782782907275 M 58.004798080767685 23.61050660491648 L 58.004798080767685 32.507656048228995 M 58.004798080767685 45.507925376191935 L 58.004798080767685 45.91985316880874 M 75.79768092762893 23.999117730026683 L 75.79768092762893 29.561370123380357 M 75.79768092762893 45.97978109494417 L 75.79768092762893 55.93293013770088 M 93.5905637744902 19.284651185926606 L 93.5905637744902 20.364990113732972 M 93.5905637744902 29.990069554028196 L 93.5905637744902 37.15053633244037 M 102.48700519792082 10.459088002502796 L 102.48700519792082 19.593903828645864 M 102.48700519792082 20.40548748361286 L 102.48700519792082 22.66515891004309 M 164.7620951619352 82.15068195934623 L 164.7620951619352 87.11631400957015 M 164.7620951619352 93.36845341607997 L 164.7620951619352 94.8511071244609 M 173.65853658536582 73.61862244146616 L 173.65853658536582 79.43531285568142 M 173.65853658536582 87.11631400957015 L 173.65853658536582 88.56767429577117 M 191.4514194322271 75.97340132746288 L 191.4514194322271 79.158989892511 M 191.4514194322271 81.78456937305816 L 191.4514194322271 92.22818656213818 M 209.24430227908834 73.2120124852982 L 209.24430227908834 78.54702963654793 M 209.24430227908834 82.45338957258994 L 209.24430227908834 83.63763084332048 M 244.83006797281087 101.5654892376808 L 244.83006797281087 104.59031551623593 M 244.83006797281087 119.52361839336542 L 244.83006797281087 119.62220289984074 M 262.6229508196721 100.41233685695903 L 262.6229508196721 109.41134332148464 M 262.6229508196721 114.25855124463556 L 262.6229508196721 114.56719029084151 M 271.51939224310274 106.1725763919478 L 271.51939224310274 107.74563331995968 M 271.51939224310274 109.44365940452016 L 271.51939224310274 119.31806356139926 M 298.2087165133947 109.83656570522366 L 298.2087165133947 110.42827727624672 M 298.2087165133947 113.86134976833867 L 298.2087165133947 118.96135945498234 M 324.89804078368655 121.39611041988326 L 324.89804078368655 124.89811025363953 M 324.89804078368655 135.17032948332883 L 324.89804078368655 140.89395775968876 M 333.7944822071172 121.51494361129855 L 333.7944822071172 124.3473051168386 M 333.7944822071172 124.89790572146845 L 333.7944822071172 130.64219174711053 M 342.6909236305478 77.76612580724753 L 342.6909236305478 82.61578811645177 M 342.6909236305478 124.33155613966306 L 342.6909236305478 124.92040426029058 M 351.5873650539784 73.39772769666668 L 351.5873650539784 76.72055734853001 M 351.5873650539784 82.58490375861409 L 351.5873650539784 87.7082301127643 M 360.483806477409 72.39142941480236 L 360.483806477409 73.06904449769192 M 360.483806477409 76.74366948386553 L 360.483806477409 82.82257014144463 M 369.38024790083966 59.54680906905463 L 369.38024790083966 61.433822879721305 M 369.38024790083966 73.06904449769192 L 369.38024790083966 78.96693418383813 M 387.1731307477009 99.35940524008151 L 387.1731307477009 105.7974643901309 M 387.1731307477009 106.88332568655726 L 387.1731307477009 118.25531440030842 M 404.9660135945622 112.684267123597 L 404.9660135945622 114.45756104712619 M 404.9660135945622 116.53192632653018 L 404.9660135945622 124.34239634473198 M 413.86245501799283 106.56875520738907 L 413.86245501799283 108.11051871322105 M 413.86245501799283 114.45756104712619 L 413.86245501799283 115.58698769599906 M 431.65533786485406 116.85263277083166 L 431.65533786485406 119.90384369946008 M 431.65533786485406 122.34943486942991 L 431.65533786485406 146.58424729215767 M 458.34466213514594 119.63488389444964 L 458.34466213514594 122.67300476412693 M 458.34466213514594 141.9045512171464 L 458.34466213514594 144.05152541729473 M 493.93042782886846 124.36387222269857 L 493.93042782886846 126.22797843020088 M 493.93042782886846 134.79153590243192 L 493.93042782886846 137.41793351166353 M 511.7233106757297 114.72958883470332 L 511.7233106757297 122.44413326465417 M 511.7233106757297 129.2902340960693 L 511.7233106757297 141.7016553034047 M 520.6197520991603 117.68466964290972 L 520.6197520991603 118.78934789907831 M 520.6197520991603 122.44413326465417 L 520.6197520991603 134.09858090670917 M 556.2055177928828 116.17972192787774 L 556.2055177928828 118.02092053221558 M 556.2055177928828 129.7066615964505 L 556.2055177928828 131.71230406636136 M 565.1019592163135 100.71913511362499 L 565.1019592163135 103.52490743692064 M 565.1019592163135 118.02092053221558 L 565.1019592163135 120.85328203775568 M 609.5841663334666 119.47473520447 L 609.5841663334666 121.9082589763443 M 609.5841663334666 122.36845636134322 L 609.5841663334666 124.42359561666284 M 636.2734906037584 126.01342418270578 L 636.2734906037584 127.70654149515966 M 636.2734906037584 129.6604373257795 L 636.2734906037584 131.58549412027276 M 645.169932027189 120.37897193295008 L 645.169932027189 123.21501501757012 M 645.169932027189 127.7153363785174 L 645.169932027189 147.45473621240453 M 671.8592562974809 122.17783237786811 L 671.8592562974809 125.50884331657589 M 671.8592562974809 129.48863030204654 L 671.8592562974809 129.5839422937841 M 680.7556977209116 117.04162049693792 L 680.7556977209116 119.64122439175404 M 680.7556977209116 125.50884331657589 L 680.7556977209116 127.77812775504836 M 716.3414634146341 125.77432607467748 L 716.3414634146341 127.52573505589785 M 716.3414634146341 130.03023149114756 L 716.3414634146341 138.04625634131543 M 725.2379048380647 125.63115355490004 L 725.2379048380647 126.70801543579755 M 725.2379048380647 127.52573505589785 L 725.2379048380647 128.5821437196842 M 734.1343462614954 116.67264446025433 L 734.1343462614954 119.22111531229278 M 734.1343462614954 126.70924262882416 L 734.1343462614954 129.45365530078664 M 751.9272291083566 101.92853384140217 L 751.9272291083566 108.7967241472972 M 751.9272291083566 124.12579677552581 L 751.9272291083566 126.0402178971213 M 760.8236705317872 89.5721317880955 L 760.8236705317872 94.65291545065473 M 760.8236705317872 108.8182000252638 L 760.8236705317872 109.40336656681133 M 778.6165533786485 95.09450040808258 L 778.6165533786485 98.32938122636834 M 778.6165533786485 104.39846433973415 L 778.6165533786485 110.43257245184003 M 787.512994802079 88.2426726758764 L 787.512994802079 93.87405694306548 M 787.512994802079 98.32938122636834 L 787.512994802079 99.10312642967992 M 831.9952019192323 102.38975388725663 L 831.9952019192323 106.18382566135887 M 831.9952019192323 107.32879675523618 L 831.9952019192323 109.79545473883037 M 840.8916433426629 83.80330190192014 L 840.8916433426629 86.94348432498164 M 840.8916433426629 106.19814291333662 L 840.8916433426629 106.73319907296204 M 849.7880847660936 80.15035732588419 L 849.7880847660936 83.85811652377777 M 849.7880847660936 86.94348432498164 L 849.7880847660936 88.33164417030947" style="stroke-width: 1px;"></path><path class="candle wick down" d="M 4.626149540183927 39.66853189098336 L 4.626149540183927 43.61579826124742 M 4.626149540183927 49.324495689116304 L 4.626149540183927 56.144007338287054 M 13.522590963614554 35.82762224969679 L 13.522590963614554 49.36253867294289 M 13.522590963614554 52.7896797320727 L 13.522590963614554 55.59483845885495 M 22.41903238704518 44.50714946294761 L 22.41903238704518 52.81954142905482 M 22.41903238704518 56.78603382340333 L 22.41903238704518 61.346692174828206 M 40.21191523390643 41.82695989271386 L 40.21191523390643 42.66145115084521 M 40.21191523390643 50.011314719705865 L 40.21191523390643 50.92536899239923 M 66.90123950419832 29.98679703929045 L 66.90123950419832 32.48761189546016 M 66.90123950419832 46.00780200238631 L 66.90123950419832 51.83594621818378 M 84.69412235105956 9.834446751930898 L 84.69412235105956 29.561370123380357 M 84.69412235105956 29.963480371783845 L 84.69412235105956 31.64596201133989 M 111.38344662135144 7.195572680261506 L 111.38344662135144 19.559542423899245 M 111.38344662135144 22.378404806145994 L 111.38344662135144 25.676281533133874 M 120.27988804478207 3.8461538461538396 L 120.27988804478207 22.378200273974926 M 120.27988804478207 26.682170750655985 L 120.27988804478207 33.25992537357388 M 129.1763294682127 23.5595780943099 L 129.1763294682127 26.718577477113627 M 129.1763294682127 31.592579114679978 L 129.1763294682127 35.34615351890233 M 138.07277089164333 19.48488818144392 L 138.07277089164333 31.563740078553394 M 138.07277089164333 42.0662625329133 L 138.07277089164333 45.3850015413544 M 146.96921231507397 36.8028316415523 L 146.96921231507397 42.0662625329133 M 146.96921231507397 45.16410679655493 L 146.96921231507397 46.80363668017776 M 155.8656537385046 44.8067890936247 L 155.8656537385046 45.158993492277176 M 155.8656537385046 93.36845341607997 L 155.8656537385046 94.4078859096642 M 182.55497800879647 78.75831136930526 L 182.55497800879647 79.41301884903037 M 182.55497800879647 81.80338633280032 L 182.55497800879647 92.22736843345373 M 200.34786085565773 71.57330073035985 L 200.34786085565773 79.15919442468207 M 200.34786085565773 82.45277597607657 L 200.34786085565773 87.0154796492126 M 218.14074370251896 71.8438967927392 L 218.14074370251896 78.54702963654793 M 218.14074370251896 105.50416525675824 L 218.14074370251896 108.22751111509628 M 227.0371851259496 102.1931984708193 L 227.0371851259496 105.54323090144038 M 227.0371851259496 109.66537227800409 L 227.0371851259496 114.52505666359268 M 235.93362654938022 106.93323153630821 L 235.93362654938022 109.66537227800409 M 235.93362654938022 119.52361839336542 L 235.93362654938022 120.2519574546904 M 253.72650939624148 98.64824688112984 L 253.72650939624148 104.56024928708266 M 253.72650939624148 114.2865721520777 L 253.72650939624148 119.84289311246913 M 280.4158336665334 101.40922665895229 L 280.4158336665334 107.72149852376862 M 280.4158336665334 111.4190311131066 L 280.4158336665334 115.4395200006283 M 289.31227508996403 109.29046480835825 L 289.31227508996403 111.43702994416435 M 289.31227508996403 113.87259903774974 L 289.31227508996403 117.53740647971006 M 307.10515793682526 109.26305749742943 L 307.10515793682526 110.42827727624672 M 307.10515793682526 114.58968882966364 L 307.10515793682526 117.92376775093804 M 316.0015993602559 106.75283416138865 L 316.0015993602559 114.62036865533024 M 316.0015993602559 135.17032948332883 L 316.0015993602559 138.0562784176999 M 378.2766893242703 53.18585854751396 L 378.2766893242703 61.43995884485466 M 378.2766893242703 106.88434834741278 L 378.2766893242703 113.29786363692888 M 396.06957217113154 103.67994282262246 L 396.06957217113154 105.78805591025983 M 396.06957217113154 116.53192632653018 L 396.06957217113154 120.72238144824485 M 422.7588964414235 108.03606900293678 L 422.7588964414235 108.13117646250319 M 422.7588964414235 122.37541045516099 L 422.7588964414235 124.02312162562826 M 440.5517792882847 117.90760970942034 L 440.5517792882847 119.90384369946008 M 440.5517792882847 133.4442824913262 L 440.5517792882847 136.78081579865398 M 449.44822071171535 111.33435479426682 L 449.44822071171535 133.45839521113282 M 449.44822071171535 141.9045512171464 L 449.44822071171535 148.76415117185482 M 467.2411035585766 120.66102179691165 L 467.2411035585766 122.67300476412693 M 467.2411035585766 124.95803817977495 L 467.2411035585766 140.47159882634537 M 476.13754498200717 124.42155029495177 L 476.13754498200717 124.98544549070377 M 476.13754498200717 132.5136611127728 L 476.13754498200717 134.86905359528288 M 485.0339864054379 127.2017560968586 L 485.0339864054379 132.4831858192773 M 485.0339864054379 134.82732903237627 L 485.0339864054379 138.47168325722555 M 502.82686925229905 102.54233488690515 L 502.82686925229905 126.25129509770747 M 502.82686925229905 129.26916728244484 L 502.82686925229905 134.6444772714034 M 529.5161935225909 106.65056807583333 L 529.5161935225909 118.80918751967597 M 529.5161935225909 122.24389626913684 L 529.5161935225909 127.7100185420685 M 538.4126349460215 120.98827327068868 L 538.4126349460215 122.24389626913684 M 538.4126349460215 124.52770249175816 L 538.4126349460215 127.62697848059763 M 547.3090763694522 122.78999716600224 L 547.3090763694522 124.50131784168487 M 547.3090763694522 129.72588762053493 L 547.3090763694522 132.5167290953395 M 573.998400639744 102.95671706557533 L 573.998400639744 103.52490743692064 M 573.998400639744 107.19748710138319 L 573.998400639744 115.9567818613671 M 582.8948420631747 101.09547430846858 L 582.8948420631747 107.19748710138319 M 582.8948420631747 111.23883827035819 L 582.8948420631747 113.44103615670633 M 591.7912834866053 109.02682283979667 L 591.7912834866053 111.23883827035819 M 591.7912834866053 120.04558449403977 L 591.7912834866053 124.34260087690305 M 600.687724910036 118.05569100130441 L 600.687724910036 120.04558449403977 M 600.687724910036 122.3390037287033 L 600.687724910036 126.03735444672577 M 618.4806077568971 120.14969136913508 L 618.4806077568971 121.88903295225992 M 618.4806077568971 128.19046461200742 L 618.4806077568971 130.47345270594425 M 627.3770491803277 125.40432737713834 L 627.3770491803277 128.19046461200742 M 627.3770491803277 129.6604373257795 L 627.3770491803277 133.75108074799215 M 654.0663734506197 111.41882658093553 L 654.0663734506197 123.20581106987012 M 654.0663734506197 127.26884264898285 L 654.0663734506197 129.44833746433778 M 662.9628148740503 126.2308418805964 L 662.9628148740503 127.26884264898285 M 662.9628148740503 129.46838161710662 L 662.9628148740503 131.39527920113989 M 689.6521391443422 116.43415994873934 L 689.6521391443422 119.66944983136733 M 689.6521391443422 124.19042894159676 L 689.6521391443422 129.02638759533653 M 698.5485805677728 123.52119967772275 L 698.5485805677728 124.19042894159676 M 698.5485805677728 128.35204502718477 L 698.5485805677728 129.53833161962643 M 707.4450219912034 123.77359237687328 L 707.4450219912034 128.36472602179367 M 707.4450219912034 130.03023149114756 L 707.4450219912034 132.93295206354964 M 743.0307876849259 118.59217888612758 L 743.0307876849259 119.22111531229278 M 743.0307876849259 124.1437956065835 L 743.0307876849259 127.67647526600636 M 769.7201119552178 92.59491274493956 L 769.7201119552178 94.65250638631248 M 769.7201119552178 104.39846433973415 L 769.7201119552178 106.34376981916738 M 796.4094362255097 91.38817293538683 L 796.4094362255097 93.87385241089432 M 796.4094362255097 97.60042856853006 L 796.4094362255097 99.90100642918244 M 805.3058776489403 93.13262782278943 L 805.3058776489403 97.60042856853006 M 805.3058776489403 100.39720147629681 L 805.3058776489403 105.56757022980251 M 814.202319072371 96.11716126363574 L 814.202319072371 100.39720147629681 M 814.202319072371 100.54282838212764 L 814.202319072371 103.66971621406694 M 823.0987604958016 94.07183955252943 L 823.0987604958016 100.55939548798754 M 823.0987604958016 107.32879675523618 L 823.0987604958016 109.45184069136454 M 858.6845261895241 82.51024951615868 L 858.6845261895241 83.85811652377777 M 858.6845261895241 91.91238888994333 L 858.6845261895241 92.31020396275352 M 867.5809676129546 88.55417517247788 L 867.5809676129546 91.91238888994333 M 867.5809676129546 98.34390301051718 L 867.5809676129546 102.5621745075029 M 876.4774090363853 96.09916243257798 L 876.4774090363853 98.35331149038834 M 876.4774090363853 140.14823346381942 L 876.4774090363853 168.3818543639311 M 885.3738504598159 139.31926457430805 L 885.3738504598159 140.18607191547486 M 885.3738504598159 190.87977958958737 L 885.3738504598159 196.15384615384616" style="stroke-width: 1px;"></path><path class="candle wick equal" style="stroke-width: 1px;"></path></g></g><g class="x axis" transform="translate(0,200)" fill="none" font-size="10" font-family="sans-serif" text-anchor="middle"><path class="domain" stroke="#000" d="M0.5,6V0.5H890.5V6"></path><g class="tick" opacity="1" transform="translate(58.004798080767685,0)"><line stroke="#000" y2="6" x1="0.5" x2="0.5"></line><text fill="#000" y="9" x="0.5" dy="0.71em">Aug  8</text></g><g class="tick" opacity="1" transform="translate(120.27988804478207,0)"><line stroke="#000" y2="6" x1="0.5" x2="0.5"></line><text fill="#000" y="9" x="0.5" dy="0.71em">Aug 15</text></g><g class="tick" opacity="1" transform="translate(182.55497800879647,0)"><line stroke="#000" y2="6" x1="0.5" x2="0.5"></line><text fill="#000" y="9" x="0.5" dy="0.71em">Aug 22</text></g><g class="tick" opacity="1" transform="translate(244.83006797281087,0)"><line stroke="#000" y2="6" x1="0.5" x2="0.5"></line><text fill="#000" y="9" x="0.5" dy="0.71em">Aug 29</text></g><g class="tick" opacity="1" transform="translate(307.10515793682526,0)"><line stroke="#000" y2="6" x1="0.5" x2="0.5"></line><text fill="#000" y="9" x="0.5" dy="0.71em">Sep  5</text></g><g class="tick" opacity="1" transform="translate(369.38024790083966,0)"><line stroke="#000" y2="6" x1="0.5" x2="0.5"></line><text fill="#000" y="9" x="0.5" dy="0.71em">Sep 12</text></g><g class="tick" opacity="1" transform="translate(431.65533786485406,0)"><line stroke="#000" y2="6" x1="0.5" x2="0.5"></line><text fill="#000" y="9" x="0.5" dy="0.71em">Sep 19</text></g><g class="tick" opacity="1" transform="translate(493.93042782886846,0)"><line stroke="#000" y2="6" x1="0.5" x2="0.5"></line><text fill="#000" y="9" x="0.5" dy="0.71em">Sep 26</text></g><g class="tick" opacity="1" transform="translate(556.2055177928828,0)"><line stroke="#000" y2="6" x1="0.5" x2="0.5"></line><text fill="#000" y="9" x="0.5" dy="0.71em">Oct  3</text></g><g class="tick" opacity="1" transform="translate(618.4806077568971,0)"><line stroke="#000" y2="6" x1="0.5" x2="0.5"></line><text fill="#000" y="9" x="0.5" dy="0.71em">Oct 10</text></g><g class="tick" opacity="1" transform="translate(680.7556977209116,0)"><line stroke="#000" y2="6" x1="0.5" x2="0.5"></line><text fill="#000" y="9" x="0.5" dy="0.71em">Oct 17</text></g><g class="tick" opacity="1" transform="translate(743.0307876849259,0)"><line stroke="#000" y2="6" x1="0.5" x2="0.5"></line><text fill="#000" y="9" x="0.5" dy="0.71em">Oct 24</text></g><g class="tick" opacity="1" transform="translate(805.3058776489403,0)"><line stroke="#000" y2="6" x1="0.5" x2="0.5"></line><text fill="#000" y="9" x="0.5" dy="0.71em">Oct 31</text></g><g class="tick" opacity="1" transform="translate(867.5809676129546,0)"><line stroke="#000" y2="6" x1="0.5" x2="0.5"></line><text fill="#000" y="9" x="0.5" dy="0.71em">Nov  7</text></g></g><g class="y axis" fill="none" font-size="10" font-family="sans-serif" text-anchor="end"><path class="domain" stroke="#000" d="M-6,200.5H0.5V0.5H-6"></path><g class="tick" opacity="1" transform="translate(0,192.24728168563308)"><line stroke="#000" x2="-6" y1="0.5" y2="0.5"></line><text fill="#000" x="-9" y="0.5" dy="0.32em">16,000</text></g><g class="tick" opacity="1" transform="translate(0,171.79406457456983)"><line stroke="#000" x2="-6" y1="0.5" y2="0.5"></line><text fill="#000" x="-9" y="0.5" dy="0.32em">17,000</text></g><g class="tick" opacity="1" transform="translate(0,151.34084746350655)"><line stroke="#000" x2="-6" y1="0.5" y2="0.5"></line><text fill="#000" x="-9" y="0.5" dy="0.32em">18,000</text></g><g class="tick" opacity="1" transform="translate(0,130.8876303524433)"><line stroke="#000" x2="-6" y1="0.5" y2="0.5"></line><text fill="#000" x="-9" y="0.5" dy="0.32em">19,000</text></g><g class="tick" opacity="1" transform="translate(0,110.43441324138004)"><line stroke="#000" x2="-6" y1="0.5" y2="0.5"></line><text fill="#000" x="-9" y="0.5" dy="0.32em">20,000</text></g><g class="tick" opacity="1" transform="translate(0,89.98119613031676)"><line stroke="#000" x2="-6" y1="0.5" y2="0.5"></line><text fill="#000" x="-9" y="0.5" dy="0.32em">21,000</text></g><g class="tick" opacity="1" transform="translate(0,69.52797901925351)"><line stroke="#000" x2="-6" y1="0.5" y2="0.5"></line><text fill="#000" x="-9" y="0.5" dy="0.32em">22,000</text></g><g class="tick" opacity="1" transform="translate(0,49.074761908190254)"><line stroke="#000" x2="-6" y1="0.5" y2="0.5"></line><text fill="#000" x="-9" y="0.5" dy="0.32em">23,000</text></g><g class="tick" opacity="1" transform="translate(0,28.621544797126973)"><line stroke="#000" x2="-6" y1="0.5" y2="0.5"></line><text fill="#000" x="-9" y="0.5" dy="0.32em">24,000</text></g><g class="tick" opacity="1" transform="translate(0,8.16832768606372)"><line stroke="#000" x2="-6" y1="0.5" y2="0.5"></line><text fill="#000" x="-9" y="0.5" dy="0.32em">25,000</text></g><text transform="rotate(-90)" y="6" dy=".71em" style="text-anchor: end;">Price ($)</text></g></g></svg>