<?xml version="1.0" encoding="utf-8"?>
<!DOCTYPE svg PUBLIC "-//W3C//DTD SVG 1.1//EN" "http://www.w3.org/Graphics/SVG/1.1/DTD/svg11.dtd">
<svg version="1.1" xmlns="http://www.w3.org/2000/svg" width="960" height="250"><g transform="translate(50,20)"><style>.axis path,.axis line{fill:none;stroke:#000;shape-rendering:crispEdges;}path.candle{stroke:#000000;}path.candle.body{stroke-width:0;}path.candle.up{fill:#00AA00;stroke:#00AA00;}path.candle.down{fill:#FF0000;stroke:#FF0000;}</style><g class="candlestick"><g class="data"><path class="candle body up" d="M 1.0675729708116766 147.07430664573522 l 7.1171531387445 0 L 8.184726109556177 140.41463893249605 l -7.1171531387445 0 L 1.0675729708116766 147.07430664573522 M 27.75689724110356 145.78767660910515 l 7.1171531387445 0 L 34.87405037984806 139.29395604395606 l -7.1171531387445 0 L 27.75689724110356 145.78767660910515 M 63.342662934826066 188.7356750392465 l 7.1171531387445 0 L 70.45981607357056 170.35838566195707 l -7.1171531387445 0 L 63.342662934826066 188.7356750392465 M 72.23910435825668 170.34033228676083 l 7.1171531387445 0 L 79.35625749700118 161.71336996336996 l -7.1171531387445 0 L 72.23910435825668 170.34033228676083 M 98.92842862854857 176.06861590790163 l 7.1171531387445 0 L 106.04558176729307 172.8617216117216 l -7.1171531387445 0 L 98.92842862854857 176.06861590790163 M 125.61775289884046 186.83274463631605 l 7.1171531387445 0 L 132.73490603758498 183.5669806384092 l -7.1171531387445 0 L 125.61775289884046 186.83274463631605 M 134.51419432227107 183.56691522762952 l 7.1171531387445 0 L 141.63134746101557 168.52367870225015 l -7.1171531387445 0 L 134.51419432227107 183.56691522762952 M 143.4106357457017 168.550431711146 l 7.1171531387445 0 L 150.5277888844462 140.28250915750914 l -7.1171531387445 0 L 143.4106357457017 168.550431711146 M 161.20351859256294 143.5970041862899 l 7.1171531387445 0 L 168.32067173130744 139.90051020408163 l -7.1171531387445 0 L 161.20351859256294 143.5970041862899 M 170.09996001599356 139.90051020408163 l 7.1171531387445 0 L 177.21711315473806 133.19636316064884 l -7.1171531387445 0 L 170.09996001599356 139.90051020408163 M 178.9964014394242 133.19642857142856 l 7.1171531387445 0 L 186.1135545781687 118.49823390894821 l -7.1171531387445 0 L 178.9964014394242 133.19642857142856 M 187.89284286285485 118.49823390894821 l 7.1171531387445 0 L 195.00999600159935 93.36080586080587 l -7.1171531387445 0 L 187.89284286285485 118.49823390894821 M 205.68572570971608 103.36721611721612 l 7.1171531387445 0 L 212.80287884846058 102.28002354788069 l -7.1171531387445 0 L 205.68572570971608 103.36721611721612 M 214.5821671331467 102.25228937728939 l 7.1171531387445 0 L 221.6993202718912 95.75013082155938 l -7.1171531387445 0 L 214.5821671331467 102.25228937728939 M 232.37504998000796 97.65168759811615 l 7.1171531387445 0 L 239.49220311875246 79.2559523809524 l -7.1171531387445 0 L 232.37504998000796 97.65168759811615 M 250.16793282686922 88.90037938252222 l 7.1171531387445 0 L 257.28508596561375 79.9385138670853 l -7.1171531387445 0 L 250.16793282686922 88.90037938252222 M 267.9608156737305 80.0631868131868 l 7.1171531387445 0 L 275.07796881247504 51.77642595499739 l -7.1171531387445 0 L 267.9608156737305 80.0631868131868 M 285.7536985205918 56.988683935112505 l 7.1171531387445 0 L 292.8708516593363 52.71892987964415 l -7.1171531387445 0 L 285.7536985205918 56.988683935112505 M 294.65013994402244 52.71899529042386 l 7.1171531387445 0 L 301.76729308276697 49.56933542647829 l -7.1171531387445 0 L 294.65013994402244 52.71899529042386 M 303.54658136745303 49.597069597069606 l 7.1171531387445 0 L 310.66373450619756 34.71618262689694 l -7.1171531387445 0 L 303.54658136745303 49.597069597069606 M 312.4430227908837 34.71618262689694 l 7.1171531387445 0 L 319.5601759296282 23.460164835164818 l -7.1171531387445 0 L 312.4430227908837 34.71618262689694 M 339.13234706117555 58.21408948194659 l 7.1171531387445 0 L 346.2495001999201 54.29912349555207 l -7.1171531387445 0 L 339.13234706117555 58.21408948194659 M 356.9252299080368 57.14141810570382 l 7.1171531387445 0 L 364.0423830467813 42.57731554160128 l -7.1171531387445 0 L 356.9252299080368 57.14141810570382 M 383.61455417832866 73.09366823652536 l 7.1171531387445 0 L 390.7317073170732 58.948914181057035 l -7.1171531387445 0 L 383.61455417832866 73.09366823652536 M 392.5109956017593 58.94884877027732 l 7.1171531387445 0 L 399.62814874050383 47.9741627420199 l -7.1171531387445 0 L 392.5109956017593 58.94884877027732 M 428.0967612954818 56.75614861329146 l 7.1171531387445 0 L 435.21391443422635 41.65364992150708 l -7.1171531387445 0 L 428.0967612954818 56.75614861329146 M 463.68252698920435 56.56606488749344 l 7.1171531387445 0 L 470.7996801279489 53.09648090005231 l -7.1171531387445 0 L 463.68252698920435 56.56606488749344 M 472.57896841263494 53.09641548927263 l 7.1171531387445 0 L 479.69612155137946 41.303048142333864 l -7.1171531387445 0 L 472.57896841263494 53.09641548927263 M 481.47540983606564 41.30311355311355 l 7.1171531387445 0 L 488.59256297481016 13.4888147566719 l -7.1171531387445 0 L 481.47540983606564 41.30311355311355 M 525.9576169532187 35.752093144950265 l 7.1171531387445 0 L 533.0747700919632 34.065934065934044 l -7.1171531387445 0 L 525.9576169532187 35.752093144950265 M 534.8540583766493 34.06586865515436 l 7.1171531387445 0 L 541.9712115153937 26.614992150706428 l -7.1171531387445 0 L 534.8540583766493 34.06586865515436 M 561.5433826469413 62.33078231292515 l 7.1171531387445 0 L 568.6605357856857 60.46003401360542 l -7.1171531387445 0 L 561.5433826469413 62.33078231292515 M 579.3362654938024 83.04801151229722 l 7.1171531387445 0 L 586.4534186325469 75.45630559916276 l -7.1171531387445 0 L 579.3362654938024 83.04801151229722 M 588.232706917233 75.42451596023025 l 7.1171531387445 0 L 595.3498600559775 64.62905546834116 l -7.1171531387445 0 L 588.232706917233 75.42451596023025 M 614.9220311875249 87.2852564102564 l 7.1171531387445 0 L 622.0391843262694 78.7986002093145 l -7.1171531387445 0 L 614.9220311875249 87.2852564102564 M 632.7149140343862 81.43452380952381 l 7.1171531387445 0 L 639.8320671731307 69.51622187336471 l -7.1171531387445 0 L 632.7149140343862 81.43452380952381 M 650.5077968812475 103.76949241234955 l 7.1171531387445 0 L 657.624950019992 97.24600994243853 l -7.1171531387445 0 L 650.5077968812475 103.76949241234955 M 659.4042383046781 97.2758372579801 l 7.1171531387445 0 L 666.5213914434225 80.54107796964942 l -7.1171531387445 0 L 659.4042383046781 97.2758372579801 M 668.3006797281087 80.5410125588697 l 7.1171531387445 0 L 675.4178328668531 77.26157770800629 l -7.1171531387445 0 L 668.3006797281087 80.5410125588697 M 686.09356257497 82.66248037676611 l 7.1171531387445 0 L 693.2107157137144 81.13507326007326 l -7.1171531387445 0 L 686.09356257497 82.66248037676611 M 721.6793282686924 133.67046049188906 l 7.1171531387445 0 L 728.7964814074369 132.07528780743064 l -7.1171531387445 0 L 721.6793282686924 133.67046049188906 M 730.5757696921231 132.07535321821035 l 7.1171531387445 0 L 737.6929228308676 125.23600209314496 l -7.1171531387445 0 L 730.5757696921231 132.07535321821035 M 739.4722111155537 125.23606750392462 l 7.1171531387445 0 L 746.5893642542982 124.27426739926742 l -7.1171531387445 0 L 739.4722111155537 125.23606750392462 M 775.0579768092763 146.83058608058607 l 7.1171531387445 0 L 782.1751299480208 132.11675824175825 l -7.1171531387445 0 L 775.0579768092763 146.83058608058607 M 783.9544182327068 132.11675824175825 l 7.1171531387445 0 L 791.0715713714512 127.77407116692831 l -7.1171531387445 0 L 783.9544182327068 132.11675824175825 M 801.747301079568 149.69413919413918 l 7.1171531387445 0 L 808.8644542183125 138.96336996336998 l -7.1171531387445 0 L 801.747301079568 149.69413919413918 M 810.6437425029987 139.00477498691788 l 7.1171531387445 0 L 817.7608956417432 135.55088958660383 l -7.1171531387445 0 L 810.6437425029987 139.00477498691788 M 837.3330667732906 153.4155546834118 l 7.1171531387445 0 L 844.4502199120351 148.83254840397694 l -7.1171531387445 0 L 837.3330667732906 153.4155546834118 M 855.1259496201519 149.83490319204606 l 7.1171531387445 0 L 862.2431027588964 148.31135531135527 l -7.1171531387445 0 L 855.1259496201519 149.83490319204606 M 864.0223910435824 148.31128990057562 l 7.1171531387445 0 L 871.1395441823269 135.38801674515963 l -7.1171531387445 0 L 864.0223910435824 148.31128990057562"></path><path class="candle body down" d="M 9.964014394242305 140.41470434327576 l 7.1171531387445 0 L 17.081167532986804 142.92373103087388 l -7.1171531387445 0 L 9.964014394242305 140.41470434327576 M 18.860455817672932 142.9237964416536 l 7.1171531387445 0 L 25.977608956417434 145.78767660910515 l -7.1171531387445 0 L 18.860455817672932 142.9237964416536 M 36.65333866453418 139.29389063317635 l 7.1171531387445 0 L 43.77049180327868 146.16856357927787 l -7.1171531387445 0 L 36.65333866453418 139.29389063317635 M 45.54978008796481 146.16856357927787 l 7.1171531387445 0 L 52.66693322670931 173.81200941915225 l -7.1171531387445 0 L 45.54978008796481 146.16856357927787 M 54.446221511395436 173.80533751962324 l 7.1171531387445 0 L 61.563374650139934 188.7337781266353 l -7.1171531387445 0 L 54.446221511395436 173.80533751962324 M 81.13554578168731 161.71336996336996 l 7.1171531387445 0 L 88.25269892043181 175.1532574568289 l -7.1171531387445 0 L 81.13554578168731 161.71336996336996 M 90.03198720511796 175.15319204604918 l 7.1171531387445 0 L 97.14914034386246 176.06855049712192 l -7.1171531387445 0 L 90.03198720511796 175.15319204604918 M 107.82487005197919 172.8617216117216 l 7.1171531387445 0 L 114.94202319072369 179.49143118785977 l -7.1171531387445 0 L 107.82487005197919 172.8617216117216 M 116.72131147540982 179.49143118785977 l 7.1171531387445 0 L 123.83846461415432 186.8227367870225 l -7.1171531387445 0 L 116.72131147540982 179.49143118785977 M 152.30707716913233 140.28257456828885 l 7.1171531387445 0 L 159.42423030787683 143.59693877551018 l -7.1171531387445 0 L 152.30707716913233 140.28257456828885 M 196.78928428628546 93.36080586080587 l 7.1171531387445 0 L 203.90643742502996 103.36721611721612 l -7.1171531387445 0 L 196.78928428628546 93.36080586080587 M 223.47860855657734 95.75013082155938 l 7.1171531387445 0 L 230.59576169532184 97.65175300889585 l -7.1171531387445 0 L 223.47860855657734 95.75013082155938 M 241.2714914034386 79.2559523809524 l 7.1171531387445 0 L 248.3886445421831 88.90024856096284 l -7.1171531387445 0 L 241.2714914034386 79.2559523809524 M 259.06437425029986 79.91346153846153 l 7.1171531387445 0 L 266.1815273890444 80.0631868131868 l -7.1171531387445 0 L 259.06437425029986 79.91346153846153 M 276.85725709716115 51.77642595499739 l 7.1171531387445 0 L 283.9744102359057 56.988683935112505 l -7.1171531387445 0 L 276.85725709716115 51.77642595499739 M 321.3394642143143 23.460230245944558 l 7.1171531387445 0 L 328.45661735305885 48.37029042386186 l -7.1171531387445 0 L 321.3394642143143 23.460230245944558 M 330.23590563774496 48.37029042386186 l 7.1171531387445 0 L 337.3530587764895 58.21415489272633 l -7.1171531387445 0 L 330.23590563774496 48.37029042386186 M 348.02878848460614 54.29912349555207 l 7.1171531387445 0 L 355.14594162335067 57.14141810570382 l -7.1171531387445 0 L 348.02878848460614 54.29912349555207 M 365.8216713314674 42.57731554160128 l 7.1171531387445 0 L 372.93882447021196 60.56508372579802 l -7.1171531387445 0 L 365.8216713314674 42.57731554160128 M 374.7181127548981 60.56508372579802 l 7.1171531387445 0 L 381.8352658936426 73.09366823652536 l -7.1171531387445 0 L 374.7181127548981 60.56508372579802 M 401.40743702518995 47.97422815279958 l 7.1171531387445 0 L 408.5245901639345 50.554748822605944 l -7.1171531387445 0 L 401.40743702518995 47.97422815279958 M 410.3038784486206 50.554748822605944 l 7.1171531387445 0 L 417.4210315873651 54.21376242804811 l -7.1171531387445 0 L 410.3038784486206 50.554748822605944 M 419.20031987205124 54.21369701726846 l 7.1171531387445 0 L 426.31747301079577 56.75621402407117 l -7.1171531387445 0 L 419.20031987205124 54.21369701726846 M 436.99320271891247 41.64985609628468 l 7.1171531387445 0 L 444.110355857657 43.769754055468326 l -7.1171531387445 0 L 436.99320271891247 41.64985609628468 M 445.8896441423431 43.76968864468867 l 7.1171531387445 0 L 453.00679728108764 53.5909863945578 l -7.1171531387445 0 L 445.8896441423431 43.76968864468867 M 454.7860855657737 53.5909863945578 l 7.1171531387445 0 L 461.90323870451823 56.586080586080556 l -7.1171531387445 0 L 454.7860855657737 53.5909863945578 M 490.3718512594962 13.488880167451555 l 7.1171531387445 0 L 497.48900439824075 17.270669806384063 l -7.1171531387445 0 L 490.3718512594962 13.488880167451555 M 499.2682926829268 17.27060439560441 l 7.1171531387445 0 L 506.38544582167134 30.779500261643108 l -7.1171531387445 0 L 499.2682926829268 17.27060439560441 M 508.16473410635746 30.779565672422848 l 7.1171531387445 0 L 515.281887245102 31.48704866562008 l -7.1171531387445 0 L 508.16473410635746 30.779565672422848 M 517.0611755297881 31.48711407639979 l 7.1171531387445 0 L 524.1783286685326 35.752027734170554 l -7.1171531387445 0 L 517.0611755297881 31.48711407639979 M 543.75049980008 26.614926739926744 l 7.1171531387445 0 L 550.8676529388244 39.123888016745184 l -7.1171531387445 0 L 543.75049980008 26.614926739926744 M 552.6469412235106 39.12395342752484 l 7.1171531387445 0 L 559.764094362255 62.33078231292515 l -7.1171531387445 0 L 552.6469412235106 39.12395342752484 M 570.4398240703717 60.460099424385135 l 7.1171531387445 0 L 577.5569772091162 83.04801151229722 l -7.1171531387445 0 L 570.4398240703717 60.460099424385135 M 597.1291483406637 64.62899005756151 l 7.1171531387445 0 L 604.2463014794082 71.72933019361594 l -7.1171531387445 0 L 597.1291483406637 64.62899005756151 M 606.0255897640943 71.75758765044483 l 7.1171531387445 0 L 613.1427429028388 87.26334379905809 l -7.1171531387445 0 L 606.0255897640943 71.75758765044483 M 623.8184726109555 78.79866562009418 l 7.1171531387445 0 L 630.9356257497 81.43452380952381 l -7.1171531387445 0 L 623.8184726109555 78.79866562009418 M 641.6113554578168 69.51615646258503 l 7.1171531387445 0 L 648.7285085965613 103.75111198325484 l -7.1171531387445 0 L 641.6113554578168 69.51615646258503 M 677.1971211515394 77.26157770800629 l 7.1171531387445 0 L 684.3142742902838 82.66248037676611 l -7.1171531387445 0 L 677.1971211515394 77.26157770800629 M 694.9900039984005 81.13507326007326 l 7.1171531387445 0 L 702.107157137145 85.73822605965464 l -7.1171531387445 0 L 694.9900039984005 81.13507326007326 M 703.8864454218311 85.7125850340136 l 7.1171531387445 0 L 711.0035985605756 104.57188644688642 l -7.1171531387445 0 L 703.8864454218311 85.7125850340136 M 712.7828868452618 104.57188644688642 l 7.1171531387445 0 L 719.9000399840063 133.67039508110935 l -7.1171531387445 0 L 712.7828868452618 104.57188644688642 M 748.3686525389844 124.27426739926742 l 7.1171531387445 0 L 755.4858056777289 125.0445447409733 l -7.1171531387445 0 L 748.3686525389844 124.27426739926742 M 757.265093962415 125.0445447409733 l 7.1171531387445 0 L 764.3822471011595 144.1811224489796 l -7.1171531387445 0 L 757.265093962415 125.0445447409733 M 766.1615353858456 144.2445054945055 l 7.1171531387445 0 L 773.27868852459 146.83058608058607 l -7.1171531387445 0 L 766.1615353858456 144.2445054945055 M 792.8508596561375 127.77407116692831 l 7.1171531387445 0 L 799.9680127948819 149.6942046049189 l -7.1171531387445 0 L 792.8508596561375 127.77407116692831 M 819.5401839264293 135.55088958660383 l 7.1171531387445 0 L 826.6573370651738 143.61342229199374 l -7.1171531387445 0 L 819.5401839264293 135.55088958660383 M 828.43662534986 143.61342229199374 l 7.1171531387445 0 L 835.5537784886045 153.43275771847203 l -7.1171531387445 0 L 828.43662534986 143.61342229199374 M 846.2295081967213 148.83261381475666 l 7.1171531387445 0 L 853.3466613354658 149.8349686028257 l -7.1171531387445 0 L 846.2295081967213 148.83261381475666 M 872.9188324670131 135.4029958137101 l 7.1171531387445 0 L 880.0359856057576 137.36159079016218 l -7.1171531387445 0 L 872.9188324670131 135.4029958137101 M 881.8152738904437 137.36152537938253 l 7.1171531387445 0 L 888.9324270291881 137.83437990580848 l -7.1171531387445 0 L 881.8152738904437 137.36152537938253"></path><path class="candle body equal"></path><path class="candle wick up" d="M 4.626149540183927 137.93825222396651 L 4.626149540183927 140.41463893249605 M 4.626149540183927 147.07430664573522 L 4.626149540183927 149.82783882783883 M 31.315473810475808 135.69335426478284 L 31.315473810475808 139.29395604395606 M 31.315473810475808 145.78767660910515 L 31.315473810475808 147.51726844583987 M 66.90123950419832 167.36950549450546 L 66.90123950419832 170.35838566195707 M 66.90123950419832 188.7356750392465 L 66.90123950419832 189.83915489272633 M 75.79768092762893 160.9759288330717 L 75.79768092762893 161.71336996336996 M 75.79768092762893 170.34033228676083 L 75.79768092762893 173.46225798011514 M 102.48700519792082 167.70015698587127 L 102.48700519792082 172.8617216117216 M 102.48700519792082 176.06861590790163 L 102.48700519792082 188.63160648874936 M 129.1763294682127 176.59602302459444 L 129.1763294682127 183.5669806384092 M 129.1763294682127 186.83274463631605 L 129.1763294682127 188.60622710622712 M 138.07277089164333 166.44839089481945 L 138.07277089164333 168.52367870225015 M 138.07277089164333 183.56691522762952 L 138.07277089164333 184.3133830455259 M 146.96921231507397 137.97095761381476 L 146.96921231507397 140.28250915750914 M 146.96921231507397 168.550431711146 L 146.96921231507397 172.06285975928833 M 164.7620951619352 133.17582417582418 L 164.7620951619352 139.90051020408163 M 164.7620951619352 143.5970041862899 L 164.7620951619352 147.17425431711146 M 173.65853658536582 131.16091051805336 L 173.65853658536582 133.19636316064884 M 173.65853658536582 139.90051020408163 L 173.65853658536582 148.4628466771324 M 182.55497800879647 115.78819989534274 L 182.55497800879647 118.49823390894821 M 182.55497800879647 133.19642857142856 L 182.55497800879647 134.52119309262164 M 191.4514194322271 90.51543694400837 L 191.4514194322271 93.36080586080587 M 191.4514194322271 118.49823390894821 L 191.4514194322271 125.62526164311876 M 209.24430227908834 88.22605965463109 L 209.24430227908834 102.28002354788069 M 209.24430227908834 103.36721611721612 L 209.24430227908834 104.46356619570905 M 218.14074370251896 92.22265829408687 L 218.14074370251896 95.75013082155938 M 218.14074370251896 102.25228937728939 L 218.14074370251896 104.1753663003663 M 235.93362654938022 76.850863422292 L 235.93362654938022 79.2559523809524 M 235.93362654938022 97.65168759811615 L 235.93362654938022 99.24738356881215 M 253.72650939624148 77.25667189952905 L 253.72650939624148 79.9385138670853 M 253.72650939624148 88.90037938252222 L 253.72650939624148 100.86872056514912 M 271.51939224310274 43.53087388801674 L 271.51939224310274 51.77642595499739 M 271.51939224310274 80.0631868131868 L 271.51939224310274 83.32025117739403 M 289.31227508996403 51.47573260073261 L 289.31227508996403 52.71892987964415 M 289.31227508996403 56.988683935112505 L 289.31227508996403 69.49895342752487 M 298.2087165133947 45.08254840397697 L 298.2087165133947 49.56933542647829 M 298.2087165133947 52.71899529042386 L 298.2087165133947 63.73332025117742 M 307.10515793682526 33.37257980115123 L 307.10515793682526 34.71618262689694 M 307.10515793682526 49.597069597069606 L 307.10515793682526 54.0671114599686 M 316.0015993602559 16.928309785452626 L 316.0015993602559 23.460164835164818 M 316.0015993602559 34.71618262689694 L 316.0015993602559 39.943746729461026 M 342.6909236305478 51.28440607012038 L 342.6909236305478 54.29912349555207 M 342.6909236305478 58.21408948194659 L 342.6909236305478 65.57986656200941 M 360.483806477409 38.44433542647829 L 360.483806477409 42.57731554160128 M 360.483806477409 57.14141810570382 L 360.483806477409 58.46415489272633 M 387.1731307477009 46.36970172684457 L 387.1731307477009 58.948914181057035 M 387.1731307477009 73.09366823652536 L 387.1731307477009 76.97540554683411 M 396.06957217113154 43.22344322344321 L 396.06957217113154 47.9741627420199 M 396.06957217113154 58.94884877027732 L 396.06957217113154 61.57240973312403 M 431.65533786485406 34.78545264259549 L 431.65533786485406 41.65364992150708 M 431.65533786485406 56.75614861329146 L 431.65533786485406 58.62977498691782 M 467.2411035585766 52.508568812140254 L 467.2411035585766 53.09648090005231 M 467.2411035585766 56.56606488749344 L 467.2411035585766 62.388801674515975 M 476.13754498200717 41.219583987441155 L 476.13754498200717 41.303048142333864 M 476.13754498200717 53.09641548927263 L 476.13754498200717 54.06344845630559 M 485.0339864054379 11.76739926739927 L 485.0339864054379 13.4888147566719 M 485.0339864054379 41.30311355311355 L 485.0339864054379 41.30311355311355 M 529.5161935225909 30.01046572475144 L 529.5161935225909 34.065934065934044 M 529.5161935225909 35.752093144950265 L 529.5161935225909 40.73639455782313 M 538.4126349460215 26.409536891679778 L 538.4126349460215 26.614992150706428 M 538.4126349460215 34.06586865515436 L 538.4126349460215 39.323194662480404 M 565.1019592163135 57.21984563055989 L 565.1019592163135 60.46003401360542 M 565.1019592163135 62.33078231292515 L 565.1019592163135 73.35818942961801 M 582.8948420631747 73.70486656200943 L 582.8948420631747 75.45630559916276 M 582.8948420631747 83.04801151229722 L 582.8948420631747 91.49659863945578 M 591.7912834866053 63.729722658294094 L 591.7912834866053 64.62905546834116 M 591.7912834866053 75.42451596023025 L 591.7912834866053 80.0300889586604 M 618.4806077568971 75.73266614338043 L 618.4806077568971 78.7986002093145 M 618.4806077568971 87.2852564102564 L 618.4806077568971 93.34772370486657 M 636.2734906037584 66.64769754055467 L 636.2734906037584 69.51622187336471 M 636.2734906037584 81.43452380952381 L 636.2734906037584 82.33908948194662 M 654.0663734506197 93.58974358974359 L 654.0663734506197 97.24600994243853 M 654.0663734506197 103.76949241234955 L 654.0663734506197 104.51334379905809 M 662.9628148740503 79.42798273155414 L 662.9628148740503 80.54107796964942 M 662.9628148740503 97.2758372579801 L 662.9628148740503 106.8246991104134 M 671.8592562974809 70.13363422291994 L 671.8592562974809 77.26157770800629 M 671.8592562974809 80.5410125588697 L 671.8592562974809 84.51942700156987 M 689.6521391443422 68.90665881737308 L 689.6521391443422 81.13507326007326 M 689.6521391443422 82.66248037676611 L 689.6521391443422 85.88428833071688 M 725.2379048380647 130.09517268445836 L 725.2379048380647 132.07528780743064 M 725.2379048380647 133.67046049188906 L 725.2379048380647 142.99313186813188 M 734.1343462614954 122.29781527995813 L 734.1343462614954 125.23600209314496 M 734.1343462614954 132.07535321821035 L 734.1343462614954 147.09576138147565 M 743.0307876849259 115.46094976452117 L 743.0307876849259 124.27426739926742 M 743.0307876849259 125.23606750392462 L 743.0307876849259 127.86669283097855 M 778.6165533786485 131.4906462585034 L 778.6165533786485 132.11675824175825 M 778.6165533786485 146.83058608058607 L 778.6165533786485 149.3785975928833 M 787.512994802079 123.04421768707483 L 787.512994802079 127.77407116692831 M 787.512994802079 132.11675824175825 L 787.512994802079 137.0355834641549 M 805.3058776489403 136.62735478806906 L 805.3058776489403 138.96336996336998 M 805.3058776489403 149.69413919413918 L 805.3058776489403 152.3940345368917 M 814.202319072371 131.39717425431712 L 814.202319072371 135.55088958660383 M 814.202319072371 139.00477498691788 L 814.202319072371 150.71297749869177 M 840.8916433426629 145.18334641548927 L 840.8916433426629 148.83254840397694 M 840.8916433426629 153.4155546834118 L 840.8916433426629 157.5614861329147 M 858.6845261895241 144.23358189429618 L 858.6845261895241 148.31135531135527 M 858.6845261895241 149.83490319204606 L 858.6845261895241 157.17654369440083 M 867.5809676129546 132.51596023024595 L 867.5809676129546 135.38801674515963 M 867.5809676129546 148.31128990057562 L 867.5809676129546 150.17006802721087" style="stroke-width: 1px;"></path><path class="candle wick down" d="M 13.522590963614554 137.5654107796965 L 13.522590963614554 140.41470434327576 M 13.522590963614554 142.92373103087388 L 13.522590963614554 147.611852433281 M 22.41903238704518 140.2276295133438 L 22.41903238704518 142.9237964416536 M 22.41903238704518 145.78767660910515 L 22.41903238704518 149.7150706436421 M 40.21191523390643 138.7700811093668 L 40.21191523390643 139.29389063317635 M 40.21191523390643 146.16856357927787 L 40.21191523390643 148.86721611721612 M 49.10835665733706 145.47847985347985 L 49.10835665733706 146.16856357927787 M 49.10835665733706 173.81200941915225 L 49.10835665733706 177.1847200418629 M 58.004798080767685 169.73443223443223 L 58.004798080767685 173.80533751962324 M 58.004798080767685 188.7337781266353 L 58.004798080767685 196.15384615384616 M 84.69412235105956 159.52380952380952 L 84.69412235105956 161.71336996336996 M 84.69412235105956 175.1532574568289 L 84.69412235105956 189.12218733647305 M 93.5905637744902 174.1310832025118 L 93.5905637744902 175.15319204604918 M 93.5905637744902 176.06855049712192 L 93.5905637744902 182.76896912611198 M 111.38344662135144 165.0837257980115 L 111.38344662135144 172.8617216117216 M 111.38344662135144 179.49143118785977 L 111.38344662135144 179.81423338566196 M 120.27988804478207 175.30494505494508 L 120.27988804478207 179.49143118785977 M 120.27988804478207 186.8227367870225 L 120.27988804478207 187.72893772893772 M 155.8656537385046 139.00712977498694 L 155.8656537385046 140.28257456828885 M 155.8656537385046 143.59693877551018 L 155.8656537385046 144.93602825745683 M 200.34786085565773 93.24757980115123 L 200.34786085565773 93.36080586080587 M 200.34786085565773 103.36721611721612 L 200.34786085565773 106.16823652537938 M 227.0371851259496 85.20859497645215 L 227.0371851259496 95.75013082155938 M 227.0371851259496 97.65175300889585 L 227.0371851259496 101.43903715332286 M 244.83006797281087 77.89115646258504 L 244.83006797281087 79.2559523809524 M 244.83006797281087 88.90024856096284 L 244.83006797281087 102.75379382522239 M 262.6229508196721 72.31462585034012 L 262.6229508196721 79.91346153846153 M 262.6229508196721 80.0631868131868 L 262.6229508196721 83.5292386185243 M 280.4158336665334 47.158424908424934 L 280.4158336665334 51.77642595499739 M 280.4158336665334 56.988683935112505 L 280.4158336665334 61.734693877551024 M 324.89804078368655 19.284798534798483 L 324.89804078368655 23.460230245944558 M 324.89804078368655 48.37029042386186 L 324.89804078368655 49.63369963369962 M 333.7944822071172 38.30200156985873 L 333.7944822071172 48.37029042386186 M 333.7944822071172 58.21415489272633 L 333.7944822071172 62.715855572998436 M 351.5873650539784 52.904238618524346 L 351.5873650539784 54.29912349555207 M 351.5873650539784 57.14141810570382 L 351.5873650539784 65.91686289900579 M 369.38024790083966 41.17294610151751 L 369.38024790083966 42.57731554160128 M 369.38024790083966 60.56508372579802 L 369.38024790083966 63.90927524856093 M 378.2766893242703 52.93040293040292 L 378.2766893242703 60.56508372579802 M 378.2766893242703 73.09366823652536 L 378.2766893242703 75.79801151229724 M 404.9660135945622 47.28381737310309 L 404.9660135945622 47.97422815279958 M 404.9660135945622 50.554748822605944 L 404.9660135945622 58.313710099424384 M 413.86245501799283 46.98260073260073 L 413.86245501799283 50.554748822605944 M 413.86245501799283 54.21376242804811 L 413.86245501799283 63.07326007326006 M 422.7588964414235 46.77040816326533 L 422.7588964414235 54.21369701726846 M 422.7588964414235 56.75621402407117 L 422.7588964414235 66.60779696493981 M 440.5517792882847 39.82208267922553 L 440.5517792882847 41.64985609628468 M 440.5517792882847 43.769754055468326 L 440.5517792882847 60.2121925693354 M 449.44822071171535 42.52806122448982 L 449.44822071171535 43.76968864468867 M 449.44822071171535 53.5909863945578 L 449.44822071171535 58.28748037676607 M 458.34466213514594 45.73704866562011 L 458.34466213514594 53.5909863945578 M 458.34466213514594 56.586080586080556 L 458.34466213514594 57.99973835688121 M 493.93042782886846 6.9580716902145525 L 493.93042782886846 13.488880167451555 M 493.93042782886846 17.270669806384063 L 493.93042782886846 22.014652014652057 M 502.82686925229905 3.846153846153868 L 502.82686925229905 17.27060439560441 M 502.82686925229905 30.779500261643108 L 502.82686925229905 44.25104657247513 M 511.7233106757297 26.085361067503868 L 511.7233106757297 30.779565672422848 M 511.7233106757297 31.48704866562008 L 511.7233106757297 35.89743589743591 M 520.6197520991603 27.06240188383046 L 520.6197520991603 31.48711407639979 M 520.6197520991603 35.752027734170554 L 520.6197520991603 47.8152799581371 M 547.3090763694522 20.841051805337486 L 547.3090763694522 26.614926739926744 M 547.3090763694522 39.123888016745184 L 547.3090763694522 40.47619047619045 M 556.2055177928828 39.05474882260597 L 556.2055177928828 39.12395342752484 M 556.2055177928828 62.33078231292515 L 556.2055177928828 72.0429748822606 M 573.998400639744 56.3317634746206 L 573.998400639744 60.460099424385135 M 573.998400639744 83.04801151229722 L 573.998400639744 85.77799581371008 M 600.687724910036 62.521193092621644 L 600.687724910036 64.62899005756151 M 600.687724910036 71.72933019361594 L 600.687724910036 72.61479591836735 M 609.5841663334666 66.35269492412351 L 609.5841663334666 71.75758765044483 M 609.5841663334666 87.26334379905809 L 609.5841663334666 91.43118785975928 M 627.3770491803277 77.53139717425432 L 627.3770491803277 78.79866562009418 M 627.3770491803277 81.43452380952381 L 627.3770491803277 89.94636316064887 M 645.169932027189 68.27577184720042 L 645.169932027189 69.51615646258503 M 645.169932027189 103.75111198325484 L 645.169932027189 105.23286237571952 M 680.7556977209116 68.09922815279958 L 680.7556977209116 77.26157770800629 M 680.7556977209116 82.66248037676611 L 680.7556977209116 89.69420460491888 M 698.5485805677728 79.88311093668237 L 698.5485805677728 81.13507326007326 M 698.5485805677728 85.73822605965464 L 698.5485805677728 90.33379120879124 M 707.4450219912034 78.41444270015698 L 707.4450219912034 85.7125850340136 M 707.4450219912034 104.57188644688642 L 707.4450219912034 117.13762428048142 M 716.3414634146341 102.88396127681843 L 716.3414634146341 104.57188644688642 M 716.3414634146341 133.67039508110935 L 716.3414634146341 180.45329670329667 M 751.9272291083566 120.27734170591313 L 751.9272291083566 124.27426739926742 M 751.9272291083566 125.0445447409733 L 751.9272291083566 137.2841444270016 M 760.8236705317872 122.90842490842489 L 760.8236705317872 125.0445447409733 M 760.8236705317872 144.1811224489796 L 760.8236705317872 145.6567242281528 M 769.7201119552178 127.30900052328624 L 769.7201119552178 144.2445054945055 M 769.7201119552178 146.83058608058607 L 769.7201119552178 148.71794871794873 M 796.4094362255097 126.88402668759811 L 796.4094362255097 127.77407116692831 M 796.4094362255097 149.6942046049189 L 796.4094362255097 156.43151491365776 M 823.0987604958016 131.81299058084772 L 823.0987604958016 135.55088958660383 M 823.0987604958016 143.61342229199374 L 823.0987604958016 144.40737833594977 M 831.9952019192323 141.2352171637886 L 831.9952019192323 143.61342229199374 M 831.9952019192323 153.43275771847203 L 831.9952019192323 157.8492935635793 M 849.7880847660936 139.24640240711668 L 849.7880847660936 148.83261381475666 M 849.7880847660936 149.8349686028257 L 849.7880847660936 151.62931711145995 M 876.4774090363853 130.89920198848773 L 876.4774090363853 135.4029958137101 M 876.4774090363853 137.36159079016218 L 876.4774090363853 138.4493066457352 M 885.3738504598159 136.42261904761904 L 885.3738504598159 137.36152537938253 M 885.3738504598159 137.83437990580848 L 885.3738504598159 141.7293301936159" style="stroke-width: 1px;"></path><path class="candle wick equal" style="stroke-width: 1px;"></path></g></g><g class="x axis" transform="translate(0,200)" fill="none" font-size="10" font-family="sans-serif" text-anchor="middle"><path class="domain" stroke="#000" d="M0.5,6V0.5H890.5V6"></path><g class="tick" opacity="1" transform="translate(49.10835665733706,0)"><line stroke="#000" y2="6" x1="0.5" x2="0.5"></line><text fill="#000" y="9" x="0.5" dy="0.71em">Sep 20</text></g><g class="tick" opacity="1" transform="translate(111.38344662135144,0)"><line stroke="#000" y2="6" x1="0.5" x2="0.5"></line><text fill="#000" y="9" x="0.5" dy="0.71em">Sep 27</text></g><g class="tick" opacity="1" transform="translate(173.65853658536582,0)"><line stroke="#000" y2="6" x1="0.5" x2="0.5"></line><text fill="#000" y="9" x="0.5" dy="0.71em">Oct  4</text></g><g class="tick" opacity="1" transform="translate(235.93362654938022,0)"><line stroke="#000" y2="6" x1="0.5" x2="0.5"></line><text fill="#000" y="9" x="0.5" dy="0.71em">Oct 11</text></g><g class="tick" opacity="1" transform="translate(298.2087165133947,0)"><line stroke="#000" y2="6" x1="0.5" x2="0.5"></line><text fill="#000" y="9" x="0.5" dy="0.71em">Oct 18</text></g><g class="tick" opacity="1" transform="translate(360.483806477409,0)"><line stroke="#000" y2="6" x1="0.5" x2="0.5"></line><text fill="#000" y="9" x="0.5" dy="0.71em">Oct 25</text></g><g class="tick" opacity="1" transform="translate(422.7588964414235,0)"><line stroke="#000" y2="6" x1="0.5" x2="0.5"></line><text fill="#000" y="9" x="0.5" dy="0.71em">Nov  1</text></g><g class="tick" opacity="1" transform="translate(485.0339864054379,0)"><line stroke="#000" y2="6" x1="0.5" x2="0.5"></line><text fill="#000" y="9" x="0.5" dy="0.71em">Nov  8</text></g><g class="tick" opacity="1" transform="translate(547.3090763694522,0)"><line stroke="#000" y2="6" x1="0.5" x2="0.5"></line><text fill="#000" y="9" x="0.5" dy="0.71em">Nov 15</text></g><g class="tick" opacity="1" transform="translate(609.5841663334666,0)"><line stroke="#000" y2="6" x1="0.5" x2="0.5"></line><text fill="#000" y="9" x="0.5" dy="0.71em">Nov 22</text></g><g class="tick" opacity="1" transform="translate(671.8592562974809,0)"><line stroke="#000" y2="6" x1="0.5" x2="0.5"></line><text fill="#000" y="9" x="0.5" dy="0.71em">Nov 29</text></g><g class="tick" opacity="1" transform="translate(734.1343462614954,0)"><line stroke="#000" y2="6" x1="0.5" x2="0.5"></line><text fill="#000" y="9" x="0.5" dy="0.71em">Dec  6</text></g><g class="tick" opacity="1" transform="translate(796.4094362255097,0)"><line stroke="#000" y2="6" x1="0.5" x2="0.5"></line><text fill="#000" y="9" x="0.5" dy="0.71em">Dec 13</text></g><g class="tick" opacity="1" transform="translate(858.6845261895241,0)"><line stroke="#000" y2="6" x1="0.5" x2="0.5"></line><text fill="#000" y="9" x="0.5" dy="0.71em">Dec 20</text></g></g><g class="y axis" fill="none" font-size="10" font-family="sans-serif" text-anchor="end"><path class="domain" stroke="#000" d="M-6,200.5H0.5V0.5H-6"></path><g class="tick" opacity="1" transform="translate(0,193.5374149659864)"><line stroke="#000" x2="-6" y1="0.5" y2="0.5"></line><text fill="#000" x="-9" y="0.5" dy="0.32em">40,000</text></g><g class="tick" opacity="1" transform="translate(0,180.4552590266876)"><line stroke="#000" x2="-6" y1="0.5" y2="0.5"></line><text fill="#000" x="-9" y="0.5" dy="0.32em">42,000</text></g><g class="tick" opacity="1" transform="translate(0,167.3731030873888)"><line stroke="#000" x2="-6" y1="0.5" y2="0.5"></line><text fill="#000" x="-9" y="0.5" dy="0.32em">44,000</text></g><g class="tick" opacity="1" transform="translate(0,154.29094714809)"><line stroke="#000" x2="-6" y1="0.5" y2="0.5"></line><text fill="#000" x="-9" y="0.5" dy="0.32em">46,000</text></g><g class="tick" opacity="1" transform="translate(0,141.2087912087912)"><line stroke="#000" x2="-6" y1="0.5" y2="0.5"></line><text fill="#000" x="-9" y="0.5" dy="0.32em">48,000</text></g><g class="tick" opacity="1" transform="translate(0,128.1266352694924)"><line stroke="#000" x2="-6" y1="0.5" y2="0.5"></line><text fill="#000" x="-9" y="0.5" dy="0.32em">50,000</text></g><g class="tick" opacity="1" transform="translate(0,115.04447933019361)"><line stroke="#000" x2="-6" y1="0.5" y2="0.5"></line><text fill="#000" x="-9" y="0.5" dy="0.32em">52,000</text></g><g class="tick" opacity="1" transform="translate(0,101.96232339089481)"><line stroke="#000" x2="-6" y1="0.5" y2="0.5"></line><text fill="#000" x="-9" y="0.5" dy="0.32em">54,000</text></g><g class="tick" opacity="1" transform="translate(0,88.88016745159601)"><line stroke="#000" x2="-6" y1="0.5" y2="0.5"></line><text fill="#000" x="-9" y="0.5" dy="0.32em">56,000</text></g><g class="tick" opacity="1" transform="translate(0,75.79801151229724)"><line stroke="#000" x2="-6" y1="0.5" y2="0.5"></line><text fill="#000" x="-9" y="0.5" dy="0.32em">58,000</text></g><g class="tick" opacity="1" transform="translate(0,62.715855572998436)"><line stroke="#000" x2="-6" y1="0.5" y2="0.5"></line><text fill="#000" x="-9" y="0.5" dy="0.32em">60,000</text></g><g class="tick" opacity="1" transform="translate(0,49.63369963369962)"><line stroke="#000" x2="-6" y1="0.5" y2="0.5"></line><text fill="#000" x="-9" y="0.5" dy="0.32em">62,000</text></g><g class="tick" opacity="1" transform="translate(0,36.551543694400834)"><line stroke="#000" x2="-6" y1="0.5" y2="0.5"></line><text fill="#000" x="-9" y="0.5" dy="0.32em">64,000</text></g><g class="tick" opacity="1" transform="translate(0,23.469387755102048)"><line stroke="#000" x2="-6" y1="0.5" y2="0.5"></line><text fill="#000" x="-9" y="0.5" dy="0.32em">66,000</text></g><g class="tick" opacity="1" transform="translate(0,10.387231815803261)"><line stroke="#000" x2="-6" y1="0.5" y2="0.5"></line><text fill="#000" x="-9" y="0.5" dy="0.32em">68,000</text></g><text transform="rotate(-90)" y="6" dy=".71em" style="text-anchor: end;">Price ($)</text></g></g></svg>