<?xml version="1.0" encoding="utf-8"?>
<!DOCTYPE svg PUBLIC "-//W3C//DTD SVG 1.1//EN" "http://www.w3.org/Graphics/SVG/1.1/DTD/svg11.dtd">
<svg version="1.1" xmlns="http://www.w3.org/2000/svg" width="960" height="250"><g transform="translate(50,20)"><style>.axis path,.axis line{fill:none;stroke:#000;shape-rendering:crispEdges;}path.candle{stroke:#000000;}path.candle.body{stroke-width:0;}path.candle.up{fill:#00AA00;stroke:#00AA00;}path.candle.down{fill:#FF0000;stroke:#FF0000;}</style><g class="candlestick"><g class="data"><path class="candle body up" d="M 1.0675729708116766 187.67198082773123 l 7.1171531387445 0 L 8.184726109556177 182.51074610148768 l -7.1171531387445 0 L 1.0675729708116766 187.67198082773123 M 9.964014394242305 182.54530924437964 l 7.1171531387445 0 L 17.081167532986804 182.44839232343256 l -7.1171531387445 0 L 9.964014394242305 182.54530924437964 M 27.75689724110356 189.27875828639674 l 7.1171531387445 0 L 34.87405037984806 186.74840927805533 l -7.1171531387445 0 L 27.75689724110356 189.27875828639674 M 36.65333866453418 186.80258933988603 l 7.1171531387445 0 L 43.77049180327868 175.42273292639126 l -7.1171531387445 0 L 36.65333866453418 186.80258933988603 M 45.54978008796481 175.38495868069683 l 7.1171531387445 0 L 52.66693322670931 162.85488524335955 l -7.1171531387445 0 L 45.54978008796481 175.38495868069683 M 63.342662934826066 166.83793715953553 l 7.1171531387445 0 L 70.45981607357056 158.9351796279231 l -7.1171531387445 0 L 63.342662934826066 166.83793715953553 M 72.23910435825668 158.94055092715632 l 7.1171531387445 0 L 79.35625749700118 153.6999143861609 l -7.1171531387445 0 L 72.23910435825668 158.94055092715632 M 90.03198720511796 155.98417615245896 l 7.1171531387445 0 L 97.14914034386246 111.73412862813747 l -7.1171531387445 0 L 90.03198720511796 155.98417615245896 M 98.92842862854857 111.7341870118248 l 7.1171531387445 0 L 106.04558176729307 111.46819093240619 l -7.1171531387445 0 L 98.92842862854857 111.7341870118248 M 116.72131147540982 120.88454555772535 l 7.1171531387445 0 L 123.83846461415432 102.42403231373618 l -7.1171531387445 0 L 116.72131147540982 120.88454555772535 M 143.4106357457017 107.16904973309315 l 7.1171531387445 0 L 150.5277888844462 98.87266938158596 l -7.1171531387445 0 L 143.4106357457017 107.16904973309315 M 161.20351859256294 102.76505143135785 l 7.1171531387445 0 L 168.32067173130744 95.62852141210058 l -7.1171531387445 0 L 161.20351859256294 102.76505143135785 M 170.09996001599356 95.62852141210058 l 7.1171531387445 0 L 177.21711315473806 78.19363440321831 l -7.1171531387445 0 L 170.09996001599356 95.62852141210058 M 187.89284286285485 81.50457331099497 l 7.1171531387445 0 L 195.00999600159935 56.08787725787235 l -7.1171531387445 0 L 187.89284286285485 81.50457331099497 M 205.68572570971608 56.46626193537719 l 7.1171531387445 0 L 212.80287884846058 47.31531955260348 l -7.1171531387445 0 L 205.68572570971608 56.46626193537719 M 232.37504998000796 97.04403391111387 l 7.1171531387445 0 L 239.49220311875246 92.45974678294209 l -7.1171531387445 0 L 232.37504998000796 97.04403391111387 M 276.85725709716115 118.97814301574631 l 7.1171531387445 0 L 283.9744102359057 92.9803541227524 l -7.1171531387445 0 L 276.85725709716115 118.97814301574631 M 294.65013994402244 99.69693027913476 l 7.1171531387445 0 L 301.76729308276697 88.52953210378844 l -7.1171531387445 0 L 294.65013994402244 99.69693027913476 M 312.4430227908837 100.06194509224392 l 7.1171531387445 0 L 319.5601759296282 97.85726029175964 l -7.1171531387445 0 L 312.4430227908837 100.06194509224392 M 321.3394642143143 97.88586829854525 l 7.1171531387445 0 L 328.45661735305885 97.09541155595332 l -7.1171531387445 0 L 321.3394642143143 97.88586829854525 M 330.23590563774496 97.09541155595332 l 7.1171531387445 0 L 337.3530587764895 84.89584817252054 l -7.1171531387445 0 L 330.23590563774496 97.09541155595332 M 339.13234706117555 84.96964515328989 l 7.1171531387445 0 L 346.2495001999201 76.70216472700491 l -7.1171531387445 0 L 339.13234706117555 84.96964515328989 M 348.02878848460614 76.70210634331758 l 7.1171531387445 0 L 355.14594162335067 62.051770917357175 l -7.1171531387445 0 L 348.02878848460614 76.70210634331758 M 356.9252299080368 62.10916208199032 l 7.1171531387445 0 L 364.0423830467813 56.40554290056701 l -7.1171531387445 0 L 356.9252299080368 62.10916208199032 M 365.8216713314674 56.40554290056701 l 7.1171531387445 0 L 372.93882447021196 45.18670869669393 l -7.1171531387445 0 L 365.8216713314674 56.40554290056701 M 383.61455417832866 48.40621875013136 l 7.1171531387445 0 L 390.7317073170732 25.247336652951958 l -7.1171531387445 0 L 383.61455417832866 48.40621875013136 M 410.3038784486206 57.8440585723834 l 7.1171531387445 0 L 417.4210315873651 50.28015996196186 l -7.1171531387445 0 L 410.3038784486206 57.8440585723834 M 419.20031987205124 50.28021834564919 l 7.1171531387445 0 L 426.31747301079577 38.532077632555485 l -7.1171531387445 0 L 419.20031987205124 50.28021834564919 M 436.99320271891247 45.9583075082823 l 7.1171531387445 0 L 444.110355857657 43.6871236879434 l -7.1171531387445 0 L 436.99320271891247 45.9583075082823 M 445.8896441423431 43.6871236879434 l 7.1171531387445 0 L 453.00679728108764 43.265184779699666 l -7.1171531387445 0 L 445.8896441423431 43.6871236879434 M 472.57896841263494 66.72976386367361 l 7.1171531387445 0 L 479.69612155137946 65.22556654362498 l -7.1171531387445 0 L 472.57896841263494 66.72976386367361 M 499.2682926829268 83.01571828983438 l 7.1171531387445 0 L 506.38544582167134 61.22803547299429 l -7.1171531387445 0 L 499.2682926829268 83.01571828983438 M 508.16473410635746 61.22803547299429 l 7.1171531387445 0 L 515.281887245102 56.60667470337583 l -7.1171531387445 0 L 508.16473410635746 61.22803547299429 M 525.9576169532187 56.83723188459274 l 7.1171531387445 0 L 533.0747700919632 45.990593687368914 l -7.1171531387445 0 L 525.9576169532187 56.83723188459274 M 534.8540583766493 45.990652071056246 l 7.1171531387445 0 L 541.9712115153937 39.50358218951905 l -7.1171531387445 0 L 534.8540583766493 45.990652071056246 M 561.5433826469413 39.656080380792446 l 7.1171531387445 0 L 568.6605357856857 38.3158244547314 l -7.1171531387445 0 L 561.5433826469413 39.656080380792446 M 579.3362654938024 49.39739860972094 l 7.1171531387445 0 L 586.4534186325469 42.68292426608201 l -7.1171531387445 0 L 579.3362654938024 49.39739860972094 M 588.232706917233 42.68292426608201 l 7.1171531387445 0 L 595.3498600559775 37.26503485039066 l -7.1171531387445 0 L 588.232706917233 42.68292426608201 M 614.9220311875249 55.810905045238 l 7.1171531387445 0 L 622.0391843262694 43.40974278949787 l -7.1171531387445 0 L 614.9220311875249 55.810905045238 M 623.8184726109555 43.40974278949787 l 7.1171531387445 0 L 630.9356257497 43.03013205455932 l -7.1171531387445 0 L 623.8184726109555 43.40974278949787 M 632.7149140343862 43.030073670871985 l 7.1171531387445 0 L 639.8320671731307 33.53349985917856 l -7.1171531387445 0 L 632.7149140343862 43.030073670871985 M 641.6113554578168 33.53349985917856 l 7.1171531387445 0 L 648.7285085965613 32.171408434060766 l -7.1171531387445 0 L 641.6113554578168 33.53349985917856 M 659.4042383046781 33.0029089088369 l 7.1171531387445 0 L 666.5213914434225 11.313427454064907 l -7.1171531387445 0 L 659.4042383046781 33.0029089088369 M 677.1971211515394 14.906768257396408 l 7.1171531387445 0 L 684.3142742902838 13.736467245116671 l -7.1171531387445 0 L 677.1971211515394 14.906768257396408 M 721.6793282686924 57.680934550018236 l 7.1171531387445 0 L 728.7964814074369 53.05776388609297 l -7.1171531387445 0 L 721.6793282686924 57.680934550018236 M 775.0579768092763 96.0178822228211 l 7.1171531387445 0 L 782.1751299480208 67.20769272805487 l -7.1171531387445 0 L 775.0579768092763 96.0178822228211 M 783.9544182327068 67.2077511117422 l 7.1171531387445 0 L 791.0715713714512 61.30755405512073 l -7.1171531387445 0 L 783.9544182327068 67.2077511117422 M 810.6437425029987 69.81388214622172 l 7.1171531387445 0 L 817.7608956417432 45.6472976059419 l -7.1171531387445 0 L 810.6437425029987 69.81388214622172 M 819.5401839264293 45.62989926712126 l 7.1171531387445 0 L 826.6573370651738 45.02784668350296 l -7.1171531387445 0 L 819.5401839264293 45.62989926712126 M 837.3330667732906 52.1632674127012 l 7.1171531387445 0 L 844.4502199120351 48.711740585863964 l -7.1171531387445 0 L 837.3330667732906 52.1632674127012 M 855.1259496201519 71.85701928389838 l 7.1171531387445 0 L 862.2431027588964 47.15453087773099 l -7.1171531387445 0 L 855.1259496201519 71.85701928389838 M 872.9188324670131 53.240621594771426 l 7.1171531387445 0 L 880.0359856057576 47.86307530701646 l -7.1171531387445 0 L 872.9188324670131 53.240621594771426 M 881.8152738904437 47.858754914154986 l 7.1171531387445 0 L 888.9324270291881 38.62397355639325 l -7.1171531387445 0 L 881.8152738904437 47.858754914154986"></path><path class="candle body down" d="M 18.860455817672932 182.44833393974523 l 7.1171531387445 0 L 25.977608956417434 189.2786999027094 l -7.1171531387445 0 L 18.860455817672932 182.44833393974523 M 54.446221511395436 162.84676991082242 l 7.1171531387445 0 L 61.563374650139934 166.8378787758482 l -7.1171531387445 0 L 54.446221511395436 162.84676991082242 M 81.13554578168731 153.7345359127402 l 7.1171531387445 0 L 88.25269892043181 155.98417615245896 l -7.1171531387445 0 L 81.13554578168731 153.7345359127402 M 107.82487005197919 111.46819093240619 l 7.1171531387445 0 L 114.94202319072369 120.88454555772535 l -7.1171531387445 0 L 107.82487005197919 111.46819093240619 M 125.61775289884046 102.42899492715816 l 7.1171531387445 0 L 132.73490603758498 106.40527433560533 l -7.1171531387445 0 L 125.61775289884046 102.42899492715816 M 134.51419432227107 106.34367954548533 l 7.1171531387445 0 L 141.63134746101557 107.18709029247424 l -7.1171531387445 0 L 134.51419432227107 106.34367954548533 M 152.30707716913233 98.85702255338487 l 7.1171531387445 0 L 159.42423030787683 102.76505143135785 l -7.1171531387445 0 L 152.30707716913233 98.85702255338487 M 178.9964014394242 78.20554467543109 l 7.1171531387445 0 L 186.1135545781687 81.50463169468229 l -7.1171531387445 0 L 178.9964014394242 78.20554467543109 M 196.78928428628546 56.08787725787235 l 7.1171531387445 0 L 203.90643742502996 56.46626193537719 l -7.1171531387445 0 L 196.78928428628546 56.08787725787235 M 214.5821671331467 47.293250518797464 l 7.1171531387445 0 L 221.6993202718912 66.7039582738793 l -7.1171531387445 0 L 214.5821671331467 47.293250518797464 M 223.47860855657734 66.7039582738793 l 7.1171531387445 0 L 230.59576169532184 97.04403391111387 l -7.1171531387445 0 L 223.47860855657734 66.7039582738793 M 241.2714914034386 92.45968839925476 l 7.1171531387445 0 L 248.3886445421831 107.65392625626514 l -7.1171531387445 0 L 241.2714914034386 92.45968839925476 M 250.16793282686922 107.65392625626514 l 7.1171531387445 0 L 257.28508596561375 112.30628876384918 l -7.1171531387445 0 L 250.16793282686922 107.65392625626514 M 259.06437425029986 112.30623038016189 l 7.1171531387445 0 L 266.1815273890444 113.30138033048904 l -7.1171531387445 0 L 259.06437425029986 112.30623038016189 M 267.9608156737305 113.31749422818869 l 7.1171531387445 0 L 275.07796881247504 118.96909354421209 l -7.1171531387445 0 L 267.9608156737305 113.31749422818869 M 285.7536985205918 92.92938516372419 l 7.1171531387445 0 L 292.8708516593363 99.67334326945847 l -7.1171531387445 0 L 285.7536985205918 92.92938516372419 M 303.54658136745303 88.52953210378844 l 7.1171531387445 0 L 310.66373450619756 100.06194509224392 l -7.1171531387445 0 L 303.54658136745303 88.52953210378844 M 374.7181127548981 45.18676708038126 l 7.1171531387445 0 L 381.8352658936426 48.40621875013136 l -7.1171531387445 0 L 374.7181127548981 45.18676708038126 M 392.5109956017593 25.24739503663929 l 7.1171531387445 0 L 399.62814874050383 38.20898230694036 l -7.1171531387445 0 L 392.5109956017593 25.24739503663929 M 401.40743702518995 38.163618181894606 l 7.1171531387445 0 L 408.5245901639345 57.8440585723834 l -7.1171531387445 0 L 401.40743702518995 38.163618181894606 M 428.0967612954818 38.532077632555485 l 7.1171531387445 0 L 435.21391443422635 45.91650478816297 l -7.1171531387445 0 L 428.0967612954818 38.532077632555485 M 454.7860855657737 43.27837949303347 l 7.1171531387445 0 L 461.90323870451823 47.64816495400069 l -7.1171531387445 0 L 454.7860855657737 43.27837949303347 M 463.68252698920435 47.64816495400069 l 7.1171531387445 0 L 470.7996801279489 66.72976386367361 l -7.1171531387445 0 L 463.68252698920435 47.64816495400069 M 481.47540983606564 65.21441525934733 l 7.1171531387445 0 L 488.59256297481016 77.1197248586998 l -7.1171531387445 0 L 481.47540983606564 65.21441525934733 M 490.3718512594962 77.11966647501247 l 7.1171531387445 0 L 497.48900439824075 83.01571828983438 l -7.1171531387445 0 L 490.3718512594962 77.11966647501247 M 517.0611755297881 56.60667470337583 l 7.1171531387445 0 L 524.1783286685326 56.8373486519674 l -7.1171531387445 0 L 517.0611755297881 56.60667470337583 M 543.75049980008 39.50358218951905 l 7.1171531387445 0 L 550.8676529388244 39.53872916928418 l -7.1171531387445 0 L 543.75049980008 39.50358218951905 M 552.6469412235106 39.54509299120181 l 7.1171531387445 0 L 559.764094362255 39.65613876447972 l -7.1171531387445 0 L 552.6469412235106 39.54509299120181 M 570.4398240703717 38.3158244547314 l 7.1171531387445 0 L 577.5569772091162 49.39745699340824 l -7.1171531387445 0 L 570.4398240703717 38.3158244547314 M 597.1291483406637 37.26503485039066 l 7.1171531387445 0 L 604.2463014794082 43.914002696859285 l -7.1171531387445 0 L 597.1291483406637 37.26503485039066 M 606.0255897640943 43.920541669838855 l 7.1171531387445 0 L 613.1427429028388 55.81084666155073 l -7.1171531387445 0 L 606.0255897640943 43.920541669838855 M 650.5077968812475 32.19260171255701 l 7.1171531387445 0 L 657.624950019992 33.00296729252423 l -7.1171531387445 0 L 650.5077968812475 32.19260171255701 M 668.3006797281087 11.313369070377576 l 7.1171531387445 0 L 675.4178328668531 14.906768257396408 l -7.1171531387445 0 L 668.3006797281087 11.313369070377576 M 686.09356257497 13.74370682234408 l 7.1171531387445 0 L 693.2107157137144 24.39254108693609 l -7.1171531387445 0 L 686.09356257497 13.74370682234408 M 694.9900039984005 24.392482703248817 l 7.1171531387445 0 L 702.107157137145 32.14671213432544 l -7.1171531387445 0 L 694.9900039984005 24.392482703248817 M 703.8864454218311 32.14665375063814 l 7.1171531387445 0 L 711.0035985605756 54.66325690363749 l -7.1171531387445 0 L 703.8864454218311 32.14665375063814 M 712.7828868452618 54.66325690363749 l 7.1171531387445 0 L 719.9000399840063 57.680934550018236 l -7.1171531387445 0 L 712.7828868452618 54.66325690363749 M 730.5757696921231 53.05776388609297 l 7.1171531387445 0 L 737.6929228308676 68.45570242815421 l -7.1171531387445 0 L 730.5757696921231 53.05776388609297 M 739.4722111155537 68.45576081184151 l 7.1171531387445 0 L 746.5893642542982 80.69683499695705 l -7.1171531387445 0 L 739.4722111155537 68.45576081184151 M 748.3686525389844 80.69689338064438 l 7.1171531387445 0 L 755.4858056777289 84.00030079275706 l -7.1171531387445 0 L 748.3686525389844 80.69689338064438 M 757.265093962415 84.08542420886602 l 7.1171531387445 0 L 764.3822471011595 90.2899754274737 l -7.1171531387445 0 L 757.265093962415 84.08542420886602 M 766.1615353858456 90.2899754274737 l 7.1171531387445 0 L 773.27868852459 96.01782383913383 l -7.1171531387445 0 L 766.1615353858456 90.2899754274737 M 792.8508596561375 61.30755405512073 l 7.1171531387445 0 L 799.9680127948819 62.27526367240864 l -7.1171531387445 0 L 792.8508596561375 61.30755405512073 M 801.747301079568 62.27520528872134 l 7.1171531387445 0 L 808.8644542183125 69.81388214622172 l -7.1171531387445 0 L 801.747301079568 62.27520528872134 M 828.43662534986 45.04547855707287 l 7.1171531387445 0 L 835.5537784886045 52.1632674127012 l -7.1171531387445 0 L 828.43662534986 45.04547855707287 M 846.2295081967213 48.711740585863964 l 7.1171531387445 0 L 853.3466613354658 71.88644466230642 l -7.1171531387445 0 L 846.2295081967213 48.711740585863964 M 864.0223910435824 47.15453087773099 l 7.1171531387445 0 L 871.1395441823269 53.240621594771426 l -7.1171531387445 0 L 864.0223910435824 47.15453087773099"></path><path class="candle body equal"></path><path class="candle wick up" d="M 4.626149540183927 157.52427944020786 L 4.626149540183927 182.51074610148768 M 4.626149540183927 187.67198082773123 L 4.626149540183927 196.15384615384616 M 13.522590963614554 178.53598466891077 L 13.522590963614554 182.44839232343256 M 13.522590963614554 182.54530924437964 L 13.522590963614554 190.84326595544437 M 31.315473810475808 179.7954959554117 L 31.315473810475808 186.74840927805533 M 31.315473810475808 189.27875828639674 L 31.315473810475808 193.9308288755442 M 40.21191523390643 172.39793247015774 L 40.21191523390643 175.42273292639126 M 40.21191523390643 186.80258933988603 L 40.21191523390643 187.38111329751533 M 49.10835665733706 162.5993982276581 L 49.10835665733706 162.85488524335955 M 49.10835665733706 175.38495868069683 L 49.10835665733706 176.02910590287104 M 66.90123950419832 158.81911285753586 L 66.90123950419832 158.9351796279231 M 66.90123950419832 166.83793715953553 L 66.90123950419832 168.97857505503248 M 75.79768092762893 143.37435059824597 L 75.79768092762893 153.6999143861609 M 75.79768092762893 158.94055092715632 L 75.79768092762893 159.36897042469226 M 93.5905637744902 109.28446587566893 L 93.5905637744902 111.73412862813747 M 93.5905637744902 155.98417615245896 L 93.5905637744902 160.6945720452366 M 102.48700519792082 101.41586280113721 L 102.48700519792082 111.46819093240619 M 102.48700519792082 111.7341870118248 L 102.48700519792082 119.98829757371409 M 120.27988804478207 98.28235191911851 L 120.27988804478207 102.42403231373618 M 120.27988804478207 120.88454555772535 L 120.27988804478207 125.63440882312968 M 146.96921231507397 92.27741452744944 L 146.96921231507397 98.87266938158596 M 146.96921231507397 107.16904973309315 L 146.96921231507397 108.00165949792833 M 164.7620951619352 86.54559602505174 L 164.7620951619352 95.62852141210058 M 164.7620951619352 102.76505143135785 L 164.7620951619352 108.06325428804828 M 173.65853658536582 75.28011325501203 L 173.65853658536582 78.19363440321831 M 173.65853658536582 95.62852141210058 L 173.65853658536582 96.71708526213575 M 191.4514194322271 53.39055090380285 L 191.4514194322271 56.08787725787235 M 191.4514194322271 81.50457331099497 L 191.4514194322271 86.42287351431033 M 209.24430227908834 41.8025566450211 L 209.24430227908834 47.31531955260348 M 209.24430227908834 56.46626193537719 L 209.24430227908834 58.58909280624232 M 235.93362654938022 82.5415843651288 L 235.93362654938022 92.45974678294209 M 235.93362654938022 97.04403391111387 L 235.93362654938022 108.15042113321334 M 280.4158336665334 91.79534042126866 L 280.4158336665334 92.9803541227524 M 280.4158336665334 118.97814301574631 L 280.4158336665334 120.0499507475214 M 298.2087165133947 75.15598953577496 L 298.2087165133947 88.52953210378844 M 298.2087165133947 99.69693027913476 L 298.2087165133947 101.6580383361303 M 316.0015993602559 93.78663284460738 L 316.0015993602559 97.85726029175964 M 316.0015993602559 100.06194509224392 L 316.0015993602559 112.17124729508377 M 324.89804078368655 95.23997797300245 L 324.89804078368655 97.09541155595332 M 324.89804078368655 97.88586829854525 L 324.89804078368655 107.6757033716346 M 333.7944822071172 82.10347317549811 L 333.7944822071172 84.89584817252054 M 333.7944822071172 97.09541155595332 L 333.7944822071172 97.09541155595332 M 342.6909236305478 76.54096736632121 L 342.6909236305478 76.70216472700491 M 342.6909236305478 84.96964515328989 L 342.6909236305478 94.80402697980253 M 351.5873650539784 61.99046804567379 L 351.5873650539784 62.051770917357175 M 351.5873650539784 76.70210634331758 L 351.5873650539784 80.12204759531602 M 360.483806477409 47.437224691722434 L 360.483806477409 56.40554290056701 M 360.483806477409 62.10916208199032 L 360.483806477409 73.02498494868541 M 369.38024790083966 42.986577823820454 L 369.38024790083966 45.18670869669393 M 369.38024790083966 56.40554290056701 L 369.38024790083966 65.62298430319538 M 387.1731307477009 21.41964372872792 L 387.1731307477009 25.247336652951958 M 387.1731307477009 48.40621875013136 L 387.1731307477009 55.082335011202645 M 413.86245501799283 50.06098759977189 L 413.86245501799283 50.28015996196186 M 413.86245501799283 57.8440585723834 L 413.86245501799283 71.46999382067057 M 422.7588964414235 38.171499979682466 L 422.7588964414235 38.532077632555485 M 422.7588964414235 50.28021834564919 L 422.7588964414235 66.49366023216157 M 440.5517792882847 35.29160783537108 L 440.5517792882847 43.6871236879434 M 440.5517792882847 45.9583075082823 L 440.5517792882847 53.95839064665307 M 449.44822071171535 32.8861999178892 L 449.44822071171535 43.265184779699666 M 449.44822071171535 43.6871236879434 L 449.44822071171535 44.91224698261428 M 476.13754498200717 56.526338749626916 L 476.13754498200717 65.22556654362498 M 476.13754498200717 66.72976386367361 L 476.13754498200717 73.05417679234418 M 502.82686925229905 60.9485527618053 L 502.82686925229905 61.22803547299429 M 502.82686925229905 83.01571828983438 L 502.82686925229905 83.47800032601451 M 511.7233106757297 51.45011067211769 L 511.7233106757297 56.60667470337583 M 511.7233106757297 61.22803547299429 L 511.7233106757297 67.50772649717959 M 529.5161935225909 41.49300633486362 L 529.5161935225909 45.990593687368914 M 529.5161935225909 56.83723188459274 L 529.5161935225909 62.54505469150294 M 538.4126349460215 35.8754447085463 L 538.4126349460215 39.50358218951905 M 538.4126349460215 45.990652071056246 L 538.4126349460215 49.28413425632493 M 565.1019592163135 31.017921923728494 L 565.1019592163135 38.3158244547314 M 565.1019592163135 39.656080380792446 L 565.1019592163135 41.36018344621627 M 582.8948420631747 40.98489310413922 L 582.8948420631747 42.68292426608201 M 582.8948420631747 49.39739860972094 L 582.8948420631747 53.27378352916779 M 591.7912834866053 36.435928106794506 L 591.7912834866053 37.26503485039066 M 591.7912834866053 42.68292426608201 L 591.7912834866053 50.998162548592774 M 618.4806077568971 42.967252823318375 L 618.4806077568971 43.40974278949787 M 618.4806077568971 55.810905045238 L 618.4806077568971 57.290581216613305 M 627.3770491803277 38.637576955538236 L 627.3770491803277 43.03013205455932 M 627.3770491803277 43.40974278949787 L 627.3770491803277 45.882408714769554 M 636.2734906037584 23.428042572450664 L 636.2734906037584 33.53349985917856 M 636.2734906037584 43.030073670871985 L 636.2734906037584 44.446111623071175 M 645.169932027189 28.104575926584147 L 645.169932027189 32.171408434060766 M 645.169932027189 33.53349985917856 L 645.169932027189 36.66642690432411 M 662.9628148740503 10.129581426327519 L 662.9628148740503 11.313427454064907 M 662.9628148740503 33.0029089088369 L 662.9628148740503 33.32320181746081 M 680.7556977209116 9.999794489420651 L 680.7556977209116 13.736467245116671 M 680.7556977209116 14.906768257396408 L 680.7556977209116 20.392090831939527 M 725.2379048380647 49.255584633226675 L 725.2379048380647 53.05776388609297 M 725.2379048380647 57.680934550018236 L 725.2379048380647 71.12774864561524 M 778.6165533786485 65.13372900347451 L 778.6165533786485 67.20769272805487 M 778.6165533786485 96.0178822228211 L 778.6165533786485 97.84715991385369 M 787.512994802079 58.6917897122338 L 787.512994802079 61.30755405512073 M 787.512994802079 67.2077511117422 L 787.512994802079 71.7580589338952 M 814.202319072371 44.07835277665811 L 814.202319072371 45.6472976059419 M 814.202319072371 69.81388214622172 L 814.202319072371 72.97821961514406 M 823.0987604958016 41.18795156862956 L 823.0987604958016 45.02784668350296 M 823.0987604958016 45.62989926712126 L 823.0987604958016 49.95677271791013 M 840.8916433426629 38.13232452549241 L 840.8916433426629 48.711740585863964 M 840.8916433426629 52.1632674127012 L 840.8916433426629 52.99938019877544 M 858.6845261895241 43.454698228732354 L 858.6845261895241 47.15453087773099 M 858.6845261895241 71.85701928389838 L 858.6845261895241 73.63801366551938 M 876.4774090363853 40.06739345794438 L 876.4774090363853 47.86307530701646 M 876.4774090363853 53.240621594771426 L 876.4774090363853 59.966714292186566 M 885.3738504598159 35.463022341335346 L 885.3738504598159 38.62397355639325 M 885.3738504598159 47.858754914154986 L 885.3738504598159 50.28453873851069" style="stroke-width: 1px;"></path><path class="candle wick down" d="M 22.41903238704518 181.9824321149514 L 22.41903238704518 182.44833393974523 M 22.41903238704518 189.2786999027094 L 22.41903238704518 194.65764739896002 M 58.004798080767685 156.49456634698876 L 58.004798080767685 162.84676991082242 M 58.004798080767685 166.8378787758482 L 58.004798080767685 171.36092141602396 M 84.69412235105956 150.70448092464815 L 84.69412235105956 153.7345359127402 M 84.69412235105956 155.98417615245896 L 84.69412235105956 164.418809075534 M 111.38344662135144 106.27449487601407 L 111.38344662135144 111.46819093240619 M 111.38344662135144 120.88454555772535 L 111.38344662135144 127.19337004188212 M 129.1763294682127 96.49055655534376 L 129.1763294682127 102.42899492715816 M 129.1763294682127 106.40527433560533 L 129.1763294682127 113.19296182314041 M 138.07277089164333 101.37026514134224 L 138.07277089164333 106.34367954548533 M 138.07277089164333 107.18709029247424 L 138.07277089164333 112.74031309536767 M 155.8656537385046 96.34389673280216 L 155.8656537385046 98.85702255338487 M 155.8656537385046 102.76505143135785 L 155.8656537385046 116.42864415796477 M 182.55497800879647 75.79821009626771 L 182.55497800879647 78.20554467543109 M 182.55497800879647 81.50463169468229 L 182.55497800879647 85.30365822843342 M 200.34786085565773 45.61115810349236 L 200.34786085565773 56.08787725787235 M 200.34786085565773 56.46626193537719 L 200.34786085565773 68.0102348939215 M 218.14074370251896 46.732066516301416 L 218.14074370251896 47.293250518797464 M 218.14074370251896 66.7039582738793 L 218.14074370251896 104.4529238317074 M 227.0371851259496 66.14394194512963 L 227.0371851259496 66.7039582738793 M 227.0371851259496 97.04403391111387 L 227.0371851259496 120.38840098290106 M 244.83006797281087 78.64891039692033 L 244.83006797281087 92.45968839925476 M 244.83006797281087 107.65392625626514 L 244.83006797281087 109.98571234403968 M 253.72650939624148 99.76990988828165 L 253.72650939624148 107.65392625626514 M 253.72650939624148 112.30628876384918 L 253.72650939624148 124.97607436493729 M 262.6229508196721 99.94570317079472 L 262.6229508196721 112.30623038016189 M 262.6229508196721 113.30138033048904 L 262.6229508196721 119.7611266463616 M 271.51939224310274 110.19519301413493 L 271.51939224310274 113.31749422818869 M 271.51939224310274 118.96909354421209 L 271.51939224310274 131.43786410986598 M 289.31227508996403 89.40160924125027 L 289.31227508996403 92.92938516372419 M 289.31227508996403 99.67334326945847 L 289.31227508996403 107.80648283122585 M 307.10515793682526 80.21271746172016 L 307.10515793682526 88.52953210378844 M 307.10515793682526 100.06194509224392 L 307.10515793682526 105.16520481698116 M 378.2766893242703 43.38644769825814 L 378.2766893242703 45.18676708038126 M 378.2766893242703 48.40621875013136 L 378.2766893242703 61.59439311091174 M 396.06957217113154 22.11563566524009 L 396.06957217113154 25.24739503663929 M 396.06957217113154 38.20898230694036 L 396.06957217113154 38.21791501109993 M 404.9660135945622 28.487397764325152 L 404.9660135945622 38.163618181894606 M 404.9660135945622 57.8440585723834 L 404.9660135945622 63.7127868215407 M 431.65533786485406 31.426782886013086 L 431.65533786485406 38.532077632555485 M 431.65533786485406 45.91650478816297 L 431.65533786485406 49.56641938450517 M 458.34466213514594 40.42295011370808 L 458.34466213514594 43.27837949303347 M 458.34466213514594 47.64816495400069 L 458.34466213514594 58.74953117899085 M 467.2411035585766 41.34757256975564 L 467.2411035585766 47.64816495400069 M 467.2411035585766 66.72976386367361 L 467.2411035585766 69.25923711670526 M 485.0339864054379 48.533028118985044 L 485.0339864054379 65.21441525934733 M 485.0339864054379 77.1197248586998 L 485.0339864054379 80.644056143622 M 493.93042782886846 71.37856496633131 L 493.93042782886846 77.11966647501247 M 493.93042782886846 83.01571828983438 L 493.93042782886846 88.07303005265277 M 520.6197520991603 52.271043699489354 L 520.6197520991603 56.60667470337583 M 520.6197520991603 56.8373486519674 L 520.6197520991603 63.17659103721661 M 547.3090763694522 33.353269416429356 L 547.3090763694522 39.50358218951905 M 547.3090763694522 39.53872916928418 L 547.3090763694522 51.0493650423702 M 556.2055177928828 35.16316372327253 L 556.2055177928828 39.54509299120181 M 556.2055177928828 39.65613876447972 L 556.2055177928828 44.2391998352179 M 573.998400639744 33.40161110952826 L 573.998400639744 38.3158244547314 M 573.998400639744 49.39745699340824 L 573.998400639744 50.40130611314572 M 600.687724910036 35.132570671118174 L 600.687724910036 37.26503485039066 M 600.687724910036 43.914002696859285 L 600.687724910036 47.2893388117472 M 609.5841663334666 40.03820161428558 L 609.5841663334666 43.920541669838855 M 609.5841663334666 55.81084666155073 L 609.5841663334666 58.61589091872105 M 654.0663734506197 24.595716318801095 L 654.0663734506197 32.19260171255701 M 654.0663734506197 33.00296729252423 L 654.0663734506197 35.977090708166116 M 671.8592562974809 3.8461538461538396 L 671.8592562974809 11.313369070377576 M 671.8592562974809 14.906768257396408 L 671.8592562974809 24.589877950069337 M 689.6521391443422 11.630976329384879 L 689.6521391443422 13.74370682234408 M 689.6521391443422 24.39254108693609 L 689.6521391443422 32.185595670078925 M 698.5485805677728 17.554351709871355 L 698.5485805677728 24.392482703248817 M 698.5485805677728 32.14671213432544 L 698.5485805677728 34.632397621868904 M 707.4450219912034 29.272249672934578 L 707.4450219912034 32.14665375063814 M 707.4450219912034 54.66325690363749 L 707.4450219912034 85.1320101877199 M 716.3414634146341 46.6249908337611 L 716.3414634146341 54.66325690363749 M 716.3414634146341 57.680934550018236 L 716.3414634146341 65.92214231701035 M 734.1343462614954 51.11411255160533 L 734.1343462614954 53.05776388609297 M 734.1343462614954 68.45570242815421 L 734.1343462614954 69.92469438475041 M 743.0307876849259 58.33284680260567 L 743.0307876849259 68.45576081184151 M 743.0307876849259 80.69683499695705 L 743.0307876849259 87.65009862172461 M 751.9272291083566 78.12275660681485 L 751.9272291083566 80.69689338064438 M 751.9272291083566 84.00030079275706 L 751.9272291083566 105.16520481698116 M 760.8236705317872 83.76046060525668 L 760.8236705317872 84.08542420886602 M 760.8236705317872 90.2899754274737 L 760.8236705317872 98.40939482272144 M 769.7201119552178 87.25361500115132 L 769.7201119552178 90.2899754274737 M 769.7201119552178 96.01782383913383 L 769.7201119552178 108.49307499407989 M 796.4094362255097 53.040248779897695 L 796.4094362255097 61.30755405512073 M 796.4094362255097 62.27526367240864 L 796.4094362255097 68.30664887443257 M 805.3058776489403 60.23405319641347 L 805.3058776489403 62.27520528872134 M 805.3058776489403 69.81388214622172 L 805.3058776489403 76.96039577601029 M 831.9952019192323 44.38183118333461 L 831.9952019192323 45.04547855707287 M 831.9952019192323 52.1632674127012 L 831.9952019192323 55.33326809929338 M 849.7880847660936 48.533028118985044 L 849.7880847660936 48.711740585863964 M 849.7880847660936 71.88644466230642 L 849.7880847660936 72.78158335625866 M 867.5809676129546 41.76052039015249 L 867.5809676129546 47.15453087773099 M 867.5809676129546 53.240621594771426 L 867.5809676129546 60.20976558248938" style="stroke-width: 1px;"></path><path class="candle wick equal" style="stroke-width: 1px;"></path></g></g><g class="x axis" transform="translate(0,200)" fill="none" font-size="10" font-family="sans-serif" text-anchor="middle"><path class="domain" stroke="#000" d="M0.5,6V0.5H890.5V6"></path><g class="tick" opacity="1" transform="translate(31.315473810475808,0)"><line stroke="#000" y2="6" x1="0.5" x2="0.5"></line><text fill="#000" y="9" x="0.5" dy="0.71em">Feb  1</text></g><g class="tick" opacity="1" transform="translate(93.5905637744902,0)"><line stroke="#000" y2="6" x1="0.5" x2="0.5"></line><text fill="#000" y="9" x="0.5" dy="0.71em">Feb  8</text></g><g class="tick" opacity="1" transform="translate(155.8656537385046,0)"><line stroke="#000" y2="6" x1="0.5" x2="0.5"></line><text fill="#000" y="9" x="0.5" dy="0.71em">Feb 15</text></g><g class="tick" opacity="1" transform="translate(218.14074370251896,0)"><line stroke="#000" y2="6" x1="0.5" x2="0.5"></line><text fill="#000" y="9" x="0.5" dy="0.71em">Feb 22</text></g><g class="tick" opacity="1" transform="translate(280.4158336665334,0)"><line stroke="#000" y2="6" x1="0.5" x2="0.5"></line><text fill="#000" y="9" x="0.5" dy="0.71em">Mar  1</text></g><g class="tick" opacity="1" transform="translate(342.6909236305478,0)"><line stroke="#000" y2="6" x1="0.5" x2="0.5"></line><text fill="#000" y="9" x="0.5" dy="0.71em">Mar  8</text></g><g class="tick" opacity="1" transform="translate(404.9660135945622,0)"><line stroke="#000" y2="6" x1="0.5" x2="0.5"></line><text fill="#000" y="9" x="0.5" dy="0.71em">Mar 15</text></g><g class="tick" opacity="1" transform="translate(467.2411035585766,0)"><line stroke="#000" y2="6" x1="0.5" x2="0.5"></line><text fill="#000" y="9" x="0.5" dy="0.71em">Mar 22</text></g><g class="tick" opacity="1" transform="translate(529.5161935225909,0)"><line stroke="#000" y2="6" x1="0.5" x2="0.5"></line><text fill="#000" y="9" x="0.5" dy="0.71em">Mar 29</text></g><g class="tick" opacity="1" transform="translate(591.7912834866053,0)"><line stroke="#000" y2="6" x1="0.5" x2="0.5"></line><text fill="#000" y="9" x="0.5" dy="0.71em">Apr  5</text></g><g class="tick" opacity="1" transform="translate(654.0663734506197,0)"><line stroke="#000" y2="6" x1="0.5" x2="0.5"></line><text fill="#000" y="9" x="0.5" dy="0.71em">Apr 12</text></g><g class="tick" opacity="1" transform="translate(716.3414634146341,0)"><line stroke="#000" y2="6" x1="0.5" x2="0.5"></line><text fill="#000" y="9" x="0.5" dy="0.71em">Apr 19</text></g><g class="tick" opacity="1" transform="translate(778.6165533786485,0)"><line stroke="#000" y2="6" x1="0.5" x2="0.5"></line><text fill="#000" y="9" x="0.5" dy="0.71em">Apr 26</text></g><g class="tick" opacity="1" transform="translate(840.8916433426629,0)"><line stroke="#000" y2="6" x1="0.5" x2="0.5"></line><text fill="#000" y="9" x="0.5" dy="0.71em">May  3</text></g></g><g class="y axis" fill="none" font-size="10" font-family="sans-serif" text-anchor="end"><path class="domain" stroke="#000" d="M-6,200.5H0.5V0.5H-6"></path><g class="tick" opacity="1" transform="translate(0,178.1448139638834)"><line stroke="#000" x2="-6" y1="0.5" y2="0.5"></line><text fill="#000" x="-9" y="0.5" dy="0.32em">35,000</text></g><g class="tick" opacity="1" transform="translate(0,148.9529703051225)"><line stroke="#000" x2="-6" y1="0.5" y2="0.5"></line><text fill="#000" x="-9" y="0.5" dy="0.32em">40,000</text></g><g class="tick" opacity="1" transform="translate(0,119.7611266463616)"><line stroke="#000" x2="-6" y1="0.5" y2="0.5"></line><text fill="#000" x="-9" y="0.5" dy="0.32em">45,000</text></g><g class="tick" opacity="1" transform="translate(0,90.56928298760072)"><line stroke="#000" x2="-6" y1="0.5" y2="0.5"></line><text fill="#000" x="-9" y="0.5" dy="0.32em">50,000</text></g><g class="tick" opacity="1" transform="translate(0,61.37743932883981)"><line stroke="#000" x2="-6" y1="0.5" y2="0.5"></line><text fill="#000" x="-9" y="0.5" dy="0.32em">55,000</text></g><g class="tick" opacity="1" transform="translate(0,32.185595670078925)"><line stroke="#000" x2="-6" y1="0.5" y2="0.5"></line><text fill="#000" x="-9" y="0.5" dy="0.32em">60,000</text></g><g class="tick" opacity="1" transform="translate(0,2.9937520113180085)"><line stroke="#000" x2="-6" y1="0.5" y2="0.5"></line><text fill="#000" x="-9" y="0.5" dy="0.32em">65,000</text></g><text transform="rotate(-90)" y="6" dy=".71em" style="text-anchor: end;">Price ($)</text></g></g></svg>