<?xml version="1.0" encoding="utf-8"?>
<!DOCTYPE svg PUBLIC "-//W3C//DTD SVG 1.1//EN" "http://www.w3.org/Graphics/SVG/1.1/DTD/svg11.dtd">
<svg version="1.1" xmlns="http://www.w3.org/2000/svg" width="960" height="250"><g transform="translate(50,20)"><style>.axis path,.axis line{fill:none;stroke:#000;shape-rendering:crispEdges;}path.candle{stroke:#000000;}path.candle.body{stroke-width:0;}path.candle.up{fill:#00AA00;stroke:#00AA00;}path.candle.down{fill:#FF0000;stroke:#FF0000;}</style><g class="candlestick"><g class="data"><path class="candle body up" d="M 9.964014394242305 172.89682501203995 l 7.1171531387445 0 L 17.081167532986804 166.81964659148576 l -7.1171531387445 0 L 9.964014394242305 172.89682501203995 M 27.75689724110356 168.8426145894947 l 7.1171531387445 0 L 34.87405037984806 163.9547556943246 l -7.1171531387445 0 L 27.75689724110356 168.8426145894947 M 54.446221511395436 173.8444407812869 l 7.1171531387445 0 L 61.563374650139934 173.2568272099345 l -7.1171531387445 0 L 54.446221511395436 173.8444407812869 M 81.13554578168731 182.54073377355869 l 7.1171531387445 0 L 88.25269892043181 181.66021843193153 l -7.1171531387445 0 L 81.13554578168731 182.54073377355869 M 90.03198720511796 181.66021843193153 l 7.1171531387445 0 L 97.14914034386246 179.9892367811188 l -7.1171531387445 0 L 90.03198720511796 181.66021843193153 M 116.72131147540982 192.84187764838214 l 7.1171531387445 0 L 123.83846461415432 177.6235911657568 l -7.1171531387445 0 L 116.72131147540982 192.84187764838214 M 125.61775289884046 177.6235911657568 l 7.1171531387445 0 L 132.73490603758498 176.69711397052882 l -7.1171531387445 0 L 125.61775289884046 177.6235911657568 M 134.51419432227107 176.69873006945994 l 7.1171531387445 0 L 141.63134746101557 167.9943565825326 l -7.1171531387445 0 L 134.51419432227107 176.69873006945994 M 143.4106357457017 167.99429193857532 l 7.1171531387445 0 L 150.5277888844462 163.96025043069037 l -7.1171531387445 0 L 143.4106357457017 167.99429193857532 M 152.30707716913233 163.93846541709897 l 7.1171531387445 0 L 159.42423030787683 156.70150975962147 l -7.1171531387445 0 L 152.30707716913233 163.93846541709897 M 161.20351859256294 156.70150975962147 l 7.1171531387445 0 L 168.32067173130744 144.69984194552455 l -7.1171531387445 0 L 161.20351859256294 156.70150975962147 M 170.09996001599356 144.67572974947234 l 7.1171531387445 0 L 177.21711315473806 130.34713805040286 l -7.1171531387445 0 L 170.09996001599356 144.67572974947234 M 178.9964014394242 130.35528318901572 l 7.1171531387445 0 L 186.1135545781687 126.71615161593733 l -7.1171531387445 0 L 178.9964014394242 130.35528318901572 M 196.78928428628546 126.72306851936249 l 7.1171531387445 0 L 203.90643742502996 112.57974640175571 l -7.1171531387445 0 L 196.78928428628546 126.72306851936249 M 241.2714914034386 138.43299815441503 l 7.1171531387445 0 L 248.3886445421831 128.63206922074943 l -7.1171531387445 0 L 241.2714914034386 138.43299815441503 M 250.16793282686922 128.63213386470667 l 7.1171531387445 0 L 257.28508596561375 121.26731245979954 l -7.1171531387445 0 L 250.16793282686922 128.63213386470667 M 259.06437425029986 121.26731245979954 l 7.1171531387445 0 L 266.1815273890444 108.50394489749084 l -7.1171531387445 0 L 259.06437425029986 121.26731245979954 M 267.9608156737305 108.50394489749084 l 7.1171531387445 0 L 275.07796881247504 97.28388717043701 l -7.1171531387445 0 L 267.9608156737305 108.50394489749084 M 285.7536985205918 102.31435063528849 l 7.1171531387445 0 L 292.8708516593363 86.41814297304022 l -7.1171531387445 0 L 285.7536985205918 102.31435063528849 M 321.3394642143143 98.39886614498994 l 7.1171531387445 0 L 328.45661735305885 76.42030854560792 l -7.1171531387445 0 L 321.3394642143143 98.39886614498994 M 365.8216713314674 96.48611609408285 l 7.1171531387445 0 L 372.93882447021196 96.42573863801647 l -7.1171531387445 0 L 365.8216713314674 96.48611609408285 M 374.7181127548981 96.4640078607052 l 7.1171531387445 0 L 381.8352658936426 83.13927217368537 l -7.1171531387445 0 L 374.7181127548981 96.4640078607052 M 383.61455417832866 83.13927217368537 l 7.1171531387445 0 L 390.7317073170732 66.57845998700657 l -7.1171531387445 0 L 383.61455417832866 83.13927217368537 M 401.40743702518995 69.81447184270834 l 7.1171531387445 0 L 408.5245901639345 67.1166209310669 l -7.1171531387445 0 L 401.40743702518995 69.81447184270834 M 410.3038784486206 67.1166209310669 l 7.1171531387445 0 L 417.4210315873651 65.5029138263728 l -7.1171531387445 0 L 410.3038784486206 67.1166209310669 M 428.0967612954818 77.23475776293121 l 7.1171531387445 0 L 435.21391443422635 68.83550375419782 l -7.1171531387445 0 L 428.0967612954818 77.23475776293121 M 445.8896441423431 82.60117587358226 l 7.1171531387445 0 L 453.00679728108764 68.21117241513056 l -7.1171531387445 0 L 445.8896441423431 82.60117587358226 M 481.47540983606564 81.70230164809766 l 7.1171531387445 0 L 488.59256297481016 80.93963224052725 l -7.1171531387445 0 L 481.47540983606564 81.70230164809766 M 490.3718512594962 80.93963224052725 l 7.1171531387445 0 L 497.48900439824075 69.8879073781381 l -7.1171531387445 0 L 490.3718512594962 80.93963224052725 M 499.2682926829268 69.88797202209528 l 7.1171531387445 0 L 506.38544582167134 67.06865511479151 l -7.1171531387445 0 L 499.2682926829268 69.88797202209528 M 508.16473410635746 67.06871975874878 l 7.1171531387445 0 L 515.281887245102 62.20419733214388 l -7.1171531387445 0 L 508.16473410635746 67.06871975874878 M 525.9576169532187 62.73169202325889 l 7.1171531387445 0 L 533.0747700919632 50.84147039145151 l -7.1171531387445 0 L 525.9576169532187 62.73169202325889 M 534.8540583766493 50.84147039145151 l 7.1171531387445 0 L 541.9712115153937 44.978134181462025 l -7.1171531387445 0 L 534.8540583766493 50.84147039145151 M 561.5433826469413 87.74392589216743 l 7.1171531387445 0 L 568.6605357856857 85.50187952305689 l -7.1171531387445 0 L 561.5433826469413 87.74392589216743 M 579.3362654938024 95.54069821938222 l 7.1171531387445 0 L 586.4534186325469 93.3978156806847 l -7.1171531387445 0 L 579.3362654938024 95.54069821938222 M 588.232706917233 93.39788032464196 l 7.1171531387445 0 L 595.3498600559775 87.89305950153046 l -7.1171531387445 0 L 588.232706917233 93.39788032464196 M 606.0255897640943 94.90382595260951 l 7.1171531387445 0 L 613.1427429028388 80.87091571397636 l -7.1171531387445 0 L 606.0255897640943 94.90382595260951 M 614.9220311875249 80.92418233474581 l 7.1171531387445 0 L 622.0391843262694 74.34258711581285 l -7.1171531387445 0 L 614.9220311875249 80.92418233474581 M 641.6113554578168 79.65263569574672 l 7.1171531387445 0 L 648.7285085965613 73.23504219634309 l -7.1171531387445 0 L 641.6113554578168 79.65263569574672 M 677.1971211515394 122.09714693894705 l 7.1171531387445 0 L 684.3142742902838 103.93529786319398 l -7.1171531387445 0 L 677.1971211515394 122.09714693894705 M 686.09356257497 103.9174561309945 l 7.1171531387445 0 L 693.2107157137144 95.39162925397639 l -7.1171531387445 0 L 686.09356257497 103.9174561309945 M 712.7828868452618 109.57858604272322 l 7.1171531387445 0 L 719.9000399840063 106.40928675089773 l -7.1171531387445 0 L 712.7828868452618 109.57858604272322 M 739.4722111155537 120.21652493479039 l 7.1171531387445 0 L 746.5893642542982 116.98904608144494 l -7.1171531387445 0 L 739.4722111155537 120.21652493479039 M 748.3686525389844 116.98898143748767 l 7.1171531387445 0 L 755.4858056777289 102.12209950644339 l -7.1171531387445 0 L 748.3686525389844 116.98898143748767 M 757.265093962415 102.14853888495637 l 7.1171531387445 0 L 764.3822471011595 74.21200632217901 l -7.1171531387445 0 L 757.265093962415 102.14853888495637 M 775.0579768092763 77.48764492367164 l 7.1171531387445 0 L 782.1751299480208 73.8344856118712 l -7.1171531387445 0 L 775.0579768092763 77.48764492367164 M 783.9544182327068 73.8344856118712 l 7.1171531387445 0 L 791.0715713714512 67.20893250201203 l -7.1171531387445 0 L 783.9544182327068 73.8344856118712 M 792.8508596561375 67.20899714596928 l 7.1171531387445 0 L 799.9680127948819 52.68311208938968 l -7.1171531387445 0 L 792.8508596561375 67.20899714596928 M 801.747301079568 52.68311208938968 l 7.1171531387445 0 L 808.8644542183125 27.8403746763762 l -7.1171531387445 0 L 801.747301079568 52.68311208938968 M 819.5401839264293 37.729477967723255 l 7.1171531387445 0 L 826.6573370651738 36.655030754362656 l -7.1171531387445 0 L 819.5401839264293 37.729477967723255 M 828.43662534986 36.62762171649101 l 7.1171531387445 0 L 835.5537784886045 30.201689146602803 l -7.1171531387445 0 L 828.43662534986 36.62762171649101 M 846.2295081967213 32.080953627657266 l 7.1171531387445 0 L 853.3466613354658 13.900874955961314 l -7.1171531387445 0 L 846.2295081967213 32.080953627657266 M 864.0223910435824 23.432238587917368 l 7.1171531387445 0 L 871.1395441823269 14.575434649807505 l -7.1171531387445 0 L 864.0223910435824 23.432238587917368 M 881.8152738904437 14.698646032315509 l 7.1171531387445 0 L 888.9324270291881 5.486364973318217 l -7.1171531387445 0 L 881.8152738904437 14.698646032315509"></path><path class="candle body down" d="M 1.0675729708116766 166.52034506944378 l 7.1171531387445 0 L 8.184726109556177 172.89682501203995 l -7.1171531387445 0 L 1.0675729708116766 166.52034506944378 M 18.860455817672932 166.81964659148576 l 7.1171531387445 0 L 25.977608956417434 168.8426145894947 l -7.1171531387445 0 L 18.860455817672932 166.81964659148576 M 36.65333866453418 163.95469105036733 l 7.1171531387445 0 L 43.77049180327868 171.53335466583925 l -7.1171531387445 0 L 36.65333866453418 163.95469105036733 M 45.54978008796481 171.53135070316463 l 7.1171531387445 0 L 52.66693322670931 173.84023892406597 l -7.1171531387445 0 L 45.54978008796481 171.53135070316463 M 63.342662934826066 173.25676256597725 l 7.1171531387445 0 L 70.45981607357056 179.33348847883073 l -7.1171531387445 0 L 63.342662934826066 173.25676256597725 M 72.23910435825668 179.36910729927243 l 7.1171531387445 0 L 79.35625749700118 182.54066912960144 l -7.1171531387445 0 L 72.23910435825668 179.36910729927243 M 98.92842862854857 179.98917213716155 l 7.1171531387445 0 L 106.04558176729307 186.0587225707609 l -7.1171531387445 0 L 98.92842862854857 179.98917213716155 M 107.82487005197919 186.0587225707609 l 7.1171531387445 0 L 114.94202319072369 192.8418130044249 l -7.1171531387445 0 L 107.82487005197919 186.0587225707609 M 187.89284286285485 126.71608697198008 l 7.1171531387445 0 L 195.00999600159935 126.73606195476862 l -7.1171531387445 0 L 187.89284286285485 126.71608697198008 M 205.68572570971608 112.57981104571297 l 7.1171531387445 0 L 212.80287884846058 117.39274759443673 l -7.1171531387445 0 L 205.68572570971608 112.57981104571297 M 214.5821671331467 117.39268295047953 l 7.1171531387445 0 L 221.6993202718912 127.84173219947832 l -7.1171531387445 0 L 214.5821671331467 117.39268295047953 M 223.47860855657734 127.81050916812926 l 7.1171531387445 0 L 230.59576169532184 132.35142394476821 l -7.1171531387445 0 L 223.47860855657734 127.81050916812926 M 232.37504998000796 132.35762976466367 l 7.1171531387445 0 L 239.49220311875246 138.43293351045776 l -7.1171531387445 0 L 232.37504998000796 132.35762976466367 M 276.85725709716115 97.28388717043701 l 7.1171531387445 0 L 283.9744102359057 102.31428599133123 l -7.1171531387445 0 L 276.85725709716115 97.28388717043701 M 294.65013994402244 86.44742668567199 l 7.1171531387445 0 L 301.76729308276697 90.73900971921898 l -7.1171531387445 0 L 294.65013994402244 86.44742668567199 M 303.54658136745303 90.73894507526173 l 7.1171531387445 0 L 310.66373450619756 91.21731035887093 l -7.1171531387445 0 L 303.54658136745303 90.73894507526173 M 312.4430227908837 91.21944360946001 l 7.1171531387445 0 L 319.5601759296282 98.40571840445784 l -7.1171531387445 0 L 312.4430227908837 91.21944360946001 M 330.23590563774496 76.42037318956518 l 7.1171531387445 0 L 337.3530587764895 81.14894937408488 l -7.1171531387445 0 L 330.23590563774496 76.42037318956518 M 339.13234706117555 81.14901401804214 l 7.1171531387445 0 L 346.2495001999201 81.76106300523294 l -7.1171531387445 0 L 339.13234706117555 81.14901401804214 M 348.02878848460614 81.76106300523294 l 7.1171531387445 0 L 355.14594162335067 88.69432135157584 l -7.1171531387445 0 L 348.02878848460614 81.76106300523294 M 356.9252299080368 88.69425670761859 l 7.1171531387445 0 L 364.0423830467813 96.48611609408285 l -7.1171531387445 0 L 356.9252299080368 88.69425670761859 M 392.5109956017593 66.57845998700657 l 7.1171531387445 0 L 399.62814874050383 69.81453648666556 l -7.1171531387445 0 L 392.5109956017593 66.57845998700657 M 419.20031987205124 65.5029138263728 l 7.1171531387445 0 L 426.31747301079577 77.23475776293121 l -7.1171531387445 0 L 419.20031987205124 65.5029138263728 M 436.99320271891247 68.83550375419782 l 7.1171531387445 0 L 444.110355857657 82.60111122962502 l -7.1171531387445 0 L 436.99320271891247 68.83550375419782 M 454.7860855657737 68.21117241513056 l 7.1171531387445 0 L 461.90323870451823 69.33953268883309 l -7.1171531387445 0 L 454.7860855657737 68.21117241513056 M 463.68252698920435 69.33953268883309 l 7.1171531387445 0 L 470.7996801279489 70.16387243161475 l -7.1171531387445 0 L 463.68252698920435 69.33953268883309 M 472.57896841263494 70.16380778765753 l 7.1171531387445 0 L 479.69612155137946 81.70230164809766 l -7.1171531387445 0 L 472.57896841263494 70.16380778765753 M 517.0611755297881 62.21156674326974 l 7.1171531387445 0 L 524.1783286685326 62.74397437513534 l -7.1171531387445 0 L 517.0611755297881 62.21156674326974 M 543.75049980008 44.963266071295834 l 7.1171531387445 0 L 550.8676529388244 82.47272833053746 l -7.1171531387445 0 L 543.75049980008 44.963266071295834 M 552.6469412235106 82.44144065523116 l 7.1171531387445 0 L 559.764094362255 87.74392589216743 l -7.1171531387445 0 L 552.6469412235106 82.44144065523116 M 570.4398240703717 85.50187952305689 l 7.1171531387445 0 L 577.5569772091162 95.48439333262222 l -7.1171531387445 0 L 570.4398240703717 85.50187952305689 M 597.1291483406637 87.89312414548766 l 7.1171531387445 0 L 604.2463014794082 94.90376130865226 l -7.1171531387445 0 L 597.1291483406637 87.89312414548766 M 623.8184726109555 74.3426517597701 l 7.1171531387445 0 L 630.9356257497 76.82226467175414 l -7.1171531387445 0 L 623.8184726109555 74.3426517597701 M 632.7149140343862 76.8223293157114 l 7.1171531387445 0 L 639.8320671731307 79.65263569574672 l -7.1171531387445 0 L 632.7149140343862 76.8223293157114 M 650.5077968812475 73.23497755238584 l 7.1171531387445 0 L 657.624950019992 80.0290574587814 l -7.1171531387445 0 L 650.5077968812475 73.23497755238584 M 659.4042383046781 80.0290574587814 l 7.1171531387445 0 L 666.5213914434225 107.34843416174563 l -7.1171531387445 0 L 659.4042383046781 80.0290574587814 M 668.3006797281087 107.3418404781067 l 7.1171531387445 0 L 675.4178328668531 122.09527226418693 l -7.1171531387445 0 L 668.3006797281087 107.3418404781067 M 694.9900039984005 95.39162925397639 l 7.1171531387445 0 L 702.107157137145 108.67395850504384 l -7.1171531387445 0 L 694.9900039984005 95.39162925397639 M 703.8864454218311 108.67389386108658 l 7.1171531387445 0 L 711.0035985605756 109.57852139876594 l -7.1171531387445 0 L 703.8864454218311 108.67389386108658 M 721.6793282686924 106.40928675089773 l 7.1171531387445 0 L 728.7964814074369 112.9612750374127 l -7.1171531387445 0 L 721.6793282686924 106.40928675089773 M 730.5757696921231 112.9612750374127 l 7.1171531387445 0 L 737.6929228308676 120.206634409332 l -7.1171531387445 0 L 730.5757696921231 112.9612750374127 M 766.1615353858456 74.21207096613627 l 7.1171531387445 0 L 773.27868852459 77.48758027971438 l -7.1171531387445 0 L 766.1615353858456 74.21207096613627 M 810.6437425029987 27.8403746763762 l 7.1171531387445 0 L 817.7608956417432 37.729477967723255 l -7.1171531387445 0 L 810.6437425029987 27.8403746763762 M 837.3330667732906 30.201689146602803 l 7.1171531387445 0 L 844.4502199120351 32.08101827161451 l -7.1171531387445 0 L 837.3330667732906 30.201689146602803 M 855.1259496201519 13.900874955961314 l 7.1171531387445 0 L 862.2431027588964 23.432109300002907 l -7.1171531387445 0 L 855.1259496201519 13.900874955961314 M 872.9188324670131 14.55067601418287 l 7.1171531387445 0 L 880.0359856057576 14.698646032315509 l -7.1171531387445 0 L 872.9188324670131 14.55067601418287"></path><path class="candle body equal"></path><path class="candle wick up" d="M 13.522590963614554 164.98252997055468 L 13.522590963614554 166.81964659148576 M 13.522590963614554 172.89682501203995 L 13.522590963614554 176.87010120011507 M 31.315473810475808 161.32368199051675 L 31.315473810475808 163.9547556943246 M 31.315473810475808 168.8426145894947 L 31.315473810475808 170.11222190977642 M 58.004798080767685 171.35623022298935 L 58.004798080767685 173.2568272099345 M 58.004798080767685 173.8444407812869 L 58.004798080767685 181.4667390678988 M 84.69412235105956 178.84271155543058 L 84.69412235105956 181.66021843193153 M 84.69412235105956 182.54073377355869 L 84.69412235105956 183.95999185486139 M 93.5905637744902 175.7457488517617 L 93.5905637744902 179.9892367811188 M 93.5905637744902 181.66021843193153 L 93.5905637744902 184.3177315142524 M 120.27988804478207 173.01130946031992 L 120.27988804478207 177.6235911657568 M 120.27988804478207 192.84187764838214 L 120.27988804478207 194.83116614466672 M 129.1763294682127 174.73504058024417 L 129.1763294682127 176.69711397052882 M 129.1763294682127 177.6235911657568 L 129.1763294682127 180.44536454343591 M 138.07277089164333 167.8915080465566 L 138.07277089164333 167.9943565825326 M 138.07277089164333 176.69873006945994 L 138.07277089164333 179.04698646032315 M 146.96921231507397 162.3967716807752 L 146.96921231507397 163.96025043069037 M 146.96921231507397 167.99429193857532 L 146.96921231507397 169.5002375665429 M 155.8656537385046 156.5917443202203 L 155.8656537385046 156.70150975962147 M 155.8656537385046 163.93846541709897 L 155.8656537385046 166.59138877845544 M 164.7620951619352 123.28717754786076 L 164.7620951619352 144.69984194552455 M 164.7620951619352 156.70150975962147 L 164.7620951619352 157.83433046637384 M 173.65853658536582 129.79934515671312 L 173.65853658536582 130.34713805040286 M 173.65853658536582 144.67572974947234 L 173.65853658536582 150.22431453163838 M 182.55497800879647 121.02463904430374 L 182.55497800879647 126.71615161593733 M 182.55497800879647 130.35528318901572 L 182.55497800879647 134.7808731459305 M 200.34786085565773 111.86646497752008 L 200.34786085565773 112.57974640175571 M 200.34786085565773 126.72306851936249 L 200.34786085565773 137.7465439724358 M 244.83006797281087 127.0387249625873 L 244.83006797281087 128.63206922074943 M 244.83006797281087 138.43299815441503 L 244.83006797281087 142.94824928002794 M 253.72650939624148 118.11566096830184 L 253.72650939624148 121.26731245979954 M 253.72650939624148 128.63213386470667 L 253.72650939624148 144.0850779121295 M 262.6229508196721 104.91258520881614 L 262.6229508196721 108.50394489749084 M 262.6229508196721 121.26731245979954 L 262.6229508196721 127.78730198747846 M 271.51939224310274 96.4599352913988 L 271.51939224310274 97.28388717043701 M 271.51939224310274 108.50394489749084 L 271.51939224310274 111.02803285205906 M 289.31227508996403 85.12041553135717 L 289.31227508996403 86.41814297304022 M 289.31227508996403 102.31435063528849 L 289.31227508996403 108.8780394780647 M 324.89804078368655 75.86437051330535 L 324.89804078368655 76.42030854560792 M 324.89804078368655 98.39886614498994 L 324.89804078368655 99.57971731197497 M 369.38024790083966 88.05622084961553 L 369.38024790083966 96.42573863801647 M 369.38024790083966 96.48611609408285 L 369.38024790083966 99.67092993564694 M 378.2766893242703 81.37850006626006 L 378.2766893242703 83.13927217368537 M 378.2766893242703 96.4640078607052 L 378.2766893242703 101.45238810939053 M 387.1731307477009 66.18723475776292 L 387.1731307477009 66.57845998700657 M 387.1731307477009 83.13927217368537 L 387.1731307477009 84.02896695724127 M 404.9660135945622 65.4308358140452 L 404.9660135945622 67.1166209310669 M 404.9660135945622 69.81447184270834 L 404.9660135945622 74.80420961449576 M 413.86245501799283 58.96644008959652 L 413.86245501799283 65.5029138263728 M 413.86245501799283 67.1166209310669 L 413.86245501799283 68.47556620026052 M 431.65533786485406 66.95449388629774 L 431.65533786485406 68.83550375419782 M 431.65533786485406 77.23475776293121 L 431.65533786485406 80.77550123308347 M 449.44822071171535 67.69382682530295 L 449.44822071171535 68.21117241513056 M 449.44822071171535 82.60117587358226 L 449.44822071171535 85.80661113750739 M 485.0339864054379 73.53647696897411 L 485.0339864054379 80.93963224052725 M 485.0339864054379 81.70230164809766 L 485.0339864054379 83.53114384250146 M 493.93042782886846 67.65458794325554 L 493.93042782886846 69.8879073781381 M 493.93042782886846 80.93963224052725 L 493.93042782886846 84.7464502386978 M 502.82686925229905 59.2888195043748 L 502.82686925229905 67.06865511479151 M 502.82686925229905 69.88797202209528 L 502.82686925229905 71.35183443389673 M 511.7233106757297 55.734242227372164 L 511.7233106757297 62.20419733214388 M 511.7233106757297 67.06871975874878 L 511.7233106757297 73.07925025938388 M 529.5161935225909 49.91628607536839 L 529.5161935225909 50.84147039145151 M 529.5161935225909 62.73169202325889 L 529.5161935225909 65.7540556002676 M 538.4126349460215 44.22761783785356 L 538.4126349460215 44.978134181462025 M 538.4126349460215 50.84147039145151 L 538.4126349460215 55.932505244241014 M 565.1019592163135 79.00626076725912 L 565.1019592163135 85.50187952305689 M 565.1019592163135 87.74392589216743 L 565.1019592163135 91.20386441576407 M 582.8948420631747 88.13424610600961 L 582.8948420631747 93.3978156806847 M 582.8948420631747 95.54069821938222 L 582.8948420631747 96.31629641840154 M 591.7912834866053 85.08259881636914 L 591.7912834866053 87.89305950153046 M 591.7912834866053 93.39788032464196 L 591.7912834866053 96.1880428072285 M 609.5841663334666 79.97572619405469 L 609.5841663334666 80.87091571397636 M 609.5841663334666 94.90382595260951 L 609.5841663334666 97.14231690407158 M 618.4806077568971 71.89523153849387 L 618.4806077568971 74.34258711581285 M 618.4806077568971 80.92418233474581 L 618.4806077568971 83.64543435890972 M 645.169932027189 69.6766509258631 L 645.169932027189 73.23504219634309 M 645.169932027189 79.65263569574672 L 645.169932027189 81.36195121320549 M 680.7556977209116 100.9814568808644 L 680.7556977209116 103.93529786319398 M 680.7556977209116 122.09714693894705 L 680.7556977209116 123.1876904976615 M 689.6521391443422 94.66283328000206 L 689.6521391443422 95.39162925397639 M 689.6521391443422 103.9174561309945 L 689.6521391443422 107.0027829223594 M 716.3414634146341 101.3082320847353 L 716.3414634146341 106.40928675089773 M 716.3414634146341 109.57858604272322 L 716.3414634146341 121.99429840297104 M 743.0307876849259 110.09981026998548 L 743.0307876849259 116.98904608144494 M 743.0307876849259 120.21652493479039 L 743.0307876849259 121.9692165475602 M 751.9272291083566 100.07114067494754 L 751.9272291083566 102.12209950644339 M 751.9272291083566 116.98898143748767 L 751.9272291083566 117.72669827756177 M 760.8236705317872 71.92755351711611 L 760.8236705317872 74.21200632217901 M 760.8236705317872 102.14853888495637 L 760.8236705317872 105.61979010107083 M 778.6165533786485 67.18863429943727 L 778.6165533786485 73.8344856118712 M 778.6165533786485 77.48764492367164 L 778.6165533786485 81.02295830141537 M 787.512994802079 65.19734184047809 L 787.512994802079 67.20893250201203 M 787.512994802079 73.8344856118712 L 787.512994802079 82.29644425913176 M 796.4094362255097 50.00484829679331 L 796.4094362255097 52.68311208938968 M 796.4094362255097 67.20899714596928 L 796.4094362255097 68.51823121204185 M 805.3058776489403 25.02836253624102 L 805.3058776489403 27.8403746763762 M 805.3058776489403 52.68311208938968 L 805.3058776489403 59.72658838283442 M 823.0987604958016 22.76582403268398 L 823.0987604958016 36.655030754362656 M 823.0987604958016 37.729477967723255 L 823.0987604958016 38.812975335098116 M 831.9952019192323 26.715569820322116 L 831.9952019192323 30.201689146602803 M 831.9952019192323 36.62762171649101 L 831.9952019192323 38.52815405947891 M 849.7880847660936 11.52398129203874 L 849.7880847660936 13.900874955961314 M 849.7880847660936 32.080953627657266 L 849.7880847660936 33.65794296463653 M 867.5809676129546 11.925032402783557 L 867.5809676129546 14.575434649807505 M 867.5809676129546 23.432238587917368 L 867.5809676129546 35.26027273285558 M 885.3738504598159 3.8461538461538396 L 885.3738504598159 5.486364973318217 M 885.3738504598159 14.698646032315509 L 885.3738504598159 17.917527239347464" style="stroke-width: 1px;"></path><path class="candle wick down" d="M 4.626149540183927 166.08380442617175 L 4.626149540183927 166.52034506944378 M 4.626149540183927 172.89682501203995 L 4.626149540183927 178.06000252111434 M 22.41903238704518 163.935297863194 L 22.41903238704518 166.81964659148576 M 22.41903238704518 168.8426145894947 L 22.41903238704518 172.06246545588536 M 40.21191523390643 161.24332955166184 L 40.21191523390643 163.95469105036733 M 40.21191523390643 171.53335466583925 L 40.21191523390643 174.30199071066335 M 49.10835665733706 169.89547072113567 L 49.10835665733706 171.53135070316463 M 49.10835665733706 173.84023892406597 L 49.10835665733706 177.25033695662714 M 66.90123950419832 170.8958359594941 L 66.90123950419832 173.25676256597725 M 66.90123950419832 179.33348847883073 L 66.90123950419832 184.16239208499388 M 75.79768092762893 176.94696286527878 L 75.79768092762893 179.36910729927243 M 75.79768092762893 182.54066912960144 L 75.79768092762893 184.8928688018566 M 102.48700519792082 179.2106649600662 L 102.48700519792082 179.98917213716155 M 102.48700519792082 186.0587225707609 L 102.48700519792082 188.85269904682485 M 111.38344662135144 184.61444727800458 L 111.38344662135144 186.0587225707609 M 111.38344662135144 192.8418130044249 L 111.38344662135144 196.15384615384616 M 191.4514194322271 122.7053819326604 L 191.4514194322271 126.71608697198008 M 191.4514194322271 126.73606195476862 L 191.4514194322271 132.01411177586647 M 209.24430227908834 111.0177544628572 L 209.24430227908834 112.57981104571297 M 209.24430227908834 117.39274759443673 L 209.24430227908834 120.3772298125002 M 218.14074370251896 110.04163070846545 L 218.14074370251896 117.39268295047953 M 218.14074370251896 127.84173219947832 L 218.14074370251896 130.57895128108163 M 227.0371851259496 123.73962060461491 L 227.0371851259496 127.81050916812926 M 227.0371851259496 132.35142394476821 L 227.0371851259496 135.3109535953353 M 235.93362654938022 128.26476225568626 L 235.93362654938022 132.35762976466367 M 235.93362654938022 138.43293351045776 L 235.93362654938022 142.08544638268577 M 280.4158336665334 92.5166538994851 L 280.4158336665334 97.28388717043701 M 280.4158336665334 102.31428599133123 L 280.4158336665334 105.76220073888042 M 298.2087165133947 83.53114384250146 L 298.2087165133947 86.44742668567199 M 298.2087165133947 90.73900971921898 L 298.2087165133947 97.17450959477935 M 307.10515793682526 83.25013656035966 L 307.10515793682526 90.73894507526173 M 307.10515793682526 91.21731035887093 L 307.10515793682526 92.31535261662577 M 316.0015993602559 86.64620685419877 L 316.0015993602559 91.21944360946001 M 316.0015993602559 98.40571840445784 L 316.0015993602559 102.47182331513606 M 333.7944822071172 74.19655641639757 L 333.7944822071172 76.42037318956518 M 333.7944822071172 81.14894937408488 L 333.7944822071172 88.24349439375281 M 342.6909236305478 79.18532452882638 L 342.6909236305478 81.14901401804214 M 342.6909236305478 81.76106300523294 L 342.6909236305478 91.28841871183985 M 351.5873650539784 74.77945097887111 L 351.5873650539784 81.76106300523294 M 351.5873650539784 88.69432135157584 L 351.5873650539784 90.25411539592807 M 360.483806477409 80.55752180925508 L 360.483806477409 88.69425670761859 M 360.483806477409 96.48611609408285 L 360.483806477409 98.55439950612018 M 396.06957217113154 63.76922753703289 L 396.06957217113154 66.57845998700657 M 396.06957217113154 69.81453648666556 L 396.06957217113154 73.6923335498906 M 422.7588964414235 63.10365335324366 L 422.7588964414235 65.5029138263728 M 422.7588964414235 77.23475776293121 L 422.7588964414235 77.71318769049766 M 440.5517792882847 66.38213628885507 L 440.5517792882847 68.83550375419782 M 440.5517792882847 82.60111122962502 L 440.5517792882847 86.44012191850337 M 458.34466213514594 66.73017935465936 L 458.34466213514594 68.21117241513056 M 458.34466213514594 69.33953268883309 L 458.34466213514594 72.88505981182145 M 467.2411035585766 64.57579019157237 L 467.2411035585766 69.33953268883309 M 467.2411035585766 70.16387243161475 L 467.2411035585766 76.66246480944577 M 476.13754498200717 69.38310271601586 L 476.13754498200717 70.16380778765753 M 476.13754498200717 81.70230164809766 L 476.13754498200717 82.54209129666081 M 520.6197520991603 58.73572580619094 L 520.6197520991603 62.21156674326974 M 520.6197520991603 62.74397437513534 L 520.6197520991603 66.27120725822351 M 547.3090763694522 43.32260243643074 L 547.3090763694522 44.963266071295834 M 547.3090763694522 82.47272833053746 L 547.3090763694522 108.46399493191373 M 556.2055177928828 79.38753082708712 L 556.2055177928828 82.44144065523116 M 556.2055177928828 87.74392589216743 L 556.2055177928828 98.32155197212555 M 573.998400639744 81.37850006626006 L 573.998400639744 85.50187952305689 M 573.998400639744 95.48439333262222 L 573.998400639744 100.12983738812554 M 600.687724910036 82.3675526121007 L 600.687724910036 87.89312414548766 M 600.687724910036 94.90376130865226 L 600.687724910036 105.05758160491553 M 627.3770491803277 71.52676098220027 L 627.3770491803277 74.3426517597701 M 627.3770491803277 76.82226467175414 L 627.3770491803277 81.45542637538101 M 636.2734906037584 74.15777004205088 L 636.2734906037584 76.8223293157114 M 636.2734906037584 79.65263569574672 L 636.2734906037584 83.53398817662023 M 654.0663734506197 72.71730874277198 L 654.0663734506197 73.23497755238584 M 654.0663734506197 80.0290574587814 L 654.0663734506197 82.69607320281717 M 662.9628148740503 79.34706370985205 L 662.9628148740503 80.0290574587814 M 662.9628148740503 107.34843416174563 L 662.9628148740503 110.68160588518586 M 671.8592562974809 103.31865915503884 L 671.8592562974809 107.3418404781067 M 671.8592562974809 122.09527226418693 L 671.8592562974809 129.42835348608702 M 698.5485805677728 93.22773742917447 L 698.5485805677728 95.39162925397639 M 698.5485805677728 108.67395850504384 L 698.5485805677728 122.47912808230468 M 707.4450219912034 107.66376738518427 L 707.4450219912034 108.67389386108658 M 707.4450219912034 109.57852139876594 L 707.4450219912034 116.2003898030622 M 725.2379048380647 98.72247379495582 L 725.2379048380647 106.40928675089773 M 725.2379048380647 112.9612750374127 L 725.2379048380647 113.28029296641424 M 734.1343462614954 108.82386784189383 L 734.1343462614954 112.9612750374127 M 734.1343462614954 120.206634409332 L 734.1343462614954 121.10221179299712 M 769.7201119552178 72.95157844382602 L 769.7201119552178 74.21207096613627 M 769.7201119552178 77.48758027971438 L 769.7201119552178 78.81097137242352 M 814.202319072371 27.728475986386 L 814.202319072371 27.8403746763762 M 814.202319072371 37.729477967723255 L 814.202319072371 40.49766150484669 M 840.8916433426629 19.783733641038594 L 840.8916433426629 30.201689146602803 M 840.8916433426629 32.08101827161451 L 840.8916433426629 35.82390339607028 M 858.6845261895241 12.552078788055098 L 858.6845261895241 13.900874955961314 M 858.6845261895241 23.432109300002907 L 858.6845261895241 37.12324693668447 M 876.4774090363853 7.040922857133609 L 876.4774090363853 14.55067601418287 M 876.4774090363853 14.698646032315509 L 876.4774090363853 18.12406468274358" style="stroke-width: 1px;"></path><path class="candle wick equal" style="stroke-width: 1px;"></path></g></g><g class="x axis" transform="translate(0,200)" fill="none" font-size="10" font-family="sans-serif" text-anchor="middle"><path class="domain" stroke="#000" d="M0.5,6V0.5H890.5V6"></path><g class="tick" opacity="1" transform="translate(40.21191523390643,0)"><line stroke="#000" y2="6" x1="0.5" x2="0.5"></line><text fill="#000" y="9" x="0.5" dy="0.71em">Jul 12</text></g><g class="tick" opacity="1" transform="translate(102.48700519792082,0)"><line stroke="#000" y2="6" x1="0.5" x2="0.5"></line><text fill="#000" y="9" x="0.5" dy="0.71em">Jul 19</text></g><g class="tick" opacity="1" transform="translate(164.7620951619352,0)"><line stroke="#000" y2="6" x1="0.5" x2="0.5"></line><text fill="#000" y="9" x="0.5" dy="0.71em">Jul 26</text></g><g class="tick" opacity="1" transform="translate(227.0371851259496,0)"><line stroke="#000" y2="6" x1="0.5" x2="0.5"></line><text fill="#000" y="9" x="0.5" dy="0.71em">Aug  2</text></g><g class="tick" opacity="1" transform="translate(289.31227508996403,0)"><line stroke="#000" y2="6" x1="0.5" x2="0.5"></line><text fill="#000" y="9" x="0.5" dy="0.71em">Aug  9</text></g><g class="tick" opacity="1" transform="translate(351.5873650539784,0)"><line stroke="#000" y2="6" x1="0.5" x2="0.5"></line><text fill="#000" y="9" x="0.5" dy="0.71em">Aug 16</text></g><g class="tick" opacity="1" transform="translate(413.86245501799283,0)"><line stroke="#000" y2="6" x1="0.5" x2="0.5"></line><text fill="#000" y="9" x="0.5" dy="0.71em">Aug 23</text></g><g class="tick" opacity="1" transform="translate(476.13754498200717,0)"><line stroke="#000" y2="6" x1="0.5" x2="0.5"></line><text fill="#000" y="9" x="0.5" dy="0.71em">Aug 30</text></g><g class="tick" opacity="1" transform="translate(538.4126349460215,0)"><line stroke="#000" y2="6" x1="0.5" x2="0.5"></line><text fill="#000" y="9" x="0.5" dy="0.71em">Sep  6</text></g><g class="tick" opacity="1" transform="translate(600.687724910036,0)"><line stroke="#000" y2="6" x1="0.5" x2="0.5"></line><text fill="#000" y="9" x="0.5" dy="0.71em">Sep 13</text></g><g class="tick" opacity="1" transform="translate(662.9628148740503,0)"><line stroke="#000" y2="6" x1="0.5" x2="0.5"></line><text fill="#000" y="9" x="0.5" dy="0.71em">Sep 20</text></g><g class="tick" opacity="1" transform="translate(725.2379048380647,0)"><line stroke="#000" y2="6" x1="0.5" x2="0.5"></line><text fill="#000" y="9" x="0.5" dy="0.71em">Sep 27</text></g><g class="tick" opacity="1" transform="translate(787.512994802079,0)"><line stroke="#000" y2="6" x1="0.5" x2="0.5"></line><text fill="#000" y="9" x="0.5" dy="0.71em">Oct  4</text></g><g class="tick" opacity="1" transform="translate(849.7880847660936,0)"><line stroke="#000" y2="6" x1="0.5" x2="0.5"></line><text fill="#000" y="9" x="0.5" dy="0.71em">Oct 11</text></g></g><g class="y axis" fill="none" font-size="10" font-family="sans-serif" text-anchor="end"><path class="domain" stroke="#000" d="M-6,200.5H0.5V0.5H-6"></path><g class="tick" opacity="1" transform="translate(0,191.4865524407942)"><line stroke="#000" x2="-6" y1="0.5" y2="0.5"></line><text fill="#000" x="-9" y="0.5" dy="0.32em">30,000</text></g><g class="tick" opacity="1" transform="translate(0,178.55776099189688)"><line stroke="#000" x2="-6" y1="0.5" y2="0.5"></line><text fill="#000" x="-9" y="0.5" dy="0.32em">32,000</text></g><g class="tick" opacity="1" transform="translate(0,165.62896954299956)"><line stroke="#000" x2="-6" y1="0.5" y2="0.5"></line><text fill="#000" x="-9" y="0.5" dy="0.32em">34,000</text></g><g class="tick" opacity="1" transform="translate(0,152.70017809410223)"><line stroke="#000" x2="-6" y1="0.5" y2="0.5"></line><text fill="#000" x="-9" y="0.5" dy="0.32em">36,000</text></g><g class="tick" opacity="1" transform="translate(0,139.77138664520487)"><line stroke="#000" x2="-6" y1="0.5" y2="0.5"></line><text fill="#000" x="-9" y="0.5" dy="0.32em">38,000</text></g><g class="tick" opacity="1" transform="translate(0,126.84259519630754)"><line stroke="#000" x2="-6" y1="0.5" y2="0.5"></line><text fill="#000" x="-9" y="0.5" dy="0.32em">40,000</text></g><g class="tick" opacity="1" transform="translate(0,113.9138037474102)"><line stroke="#000" x2="-6" y1="0.5" y2="0.5"></line><text fill="#000" x="-9" y="0.5" dy="0.32em">42,000</text></g><g class="tick" opacity="1" transform="translate(0,100.98501229851287)"><line stroke="#000" x2="-6" y1="0.5" y2="0.5"></line><text fill="#000" x="-9" y="0.5" dy="0.32em">44,000</text></g><g class="tick" opacity="1" transform="translate(0,88.05622084961553)"><line stroke="#000" x2="-6" y1="0.5" y2="0.5"></line><text fill="#000" x="-9" y="0.5" dy="0.32em">46,000</text></g><g class="tick" opacity="1" transform="translate(0,75.1274294007182)"><line stroke="#000" x2="-6" y1="0.5" y2="0.5"></line><text fill="#000" x="-9" y="0.5" dy="0.32em">48,000</text></g><g class="tick" opacity="1" transform="translate(0,62.19863795182084)"><line stroke="#000" x2="-6" y1="0.5" y2="0.5"></line><text fill="#000" x="-9" y="0.5" dy="0.32em">50,000</text></g><g class="tick" opacity="1" transform="translate(0,49.269846502923514)"><line stroke="#000" x2="-6" y1="0.5" y2="0.5"></line><text fill="#000" x="-9" y="0.5" dy="0.32em">52,000</text></g><g class="tick" opacity="1" transform="translate(0,36.341055054026185)"><line stroke="#000" x2="-6" y1="0.5" y2="0.5"></line><text fill="#000" x="-9" y="0.5" dy="0.32em">54,000</text></g><g class="tick" opacity="1" transform="translate(0,23.412263605128857)"><line stroke="#000" x2="-6" y1="0.5" y2="0.5"></line><text fill="#000" x="-9" y="0.5" dy="0.32em">56,000</text></g><g class="tick" opacity="1" transform="translate(0,10.4834721562315)"><line stroke="#000" x2="-6" y1="0.5" y2="0.5"></line><text fill="#000" x="-9" y="0.5" dy="0.32em">58,000</text></g><text transform="rotate(-90)" y="6" dy=".71em" style="text-anchor: end;">Price ($)</text></g></g></svg>