<?xml version="1.0" encoding="utf-8"?>
<!DOCTYPE svg PUBLIC "-//W3C//DTD SVG 1.1//EN" "http://www.w3.org/Graphics/SVG/1.1/DTD/svg11.dtd">
<svg version="1.1" xmlns="http://www.w3.org/2000/svg" width="960" height="250"><g transform="translate(50,20)"><style>.axis path,.axis line{fill:none;stroke:#000;shape-rendering:crispEdges;}path.candle{stroke:#000000;}path.candle.body{stroke-width:0;}path.candle.up{fill:#00AA00;stroke:#00AA00;}path.candle.down{fill:#FF0000;stroke:#FF0000;}</style><g class="candlestick"><g class="data"><path class="candle body up" d="M 1.0675729708116766 193.28608246052 l 7.1171531387445 0 L 8.184726109556177 192.136624680588 l -7.1171531387445 0 L 1.0675729708116766 193.28608246052 M 18.860455817672932 195.08365074418265 l 7.1171531387445 0 L 25.977608956417434 190.02251828598224 l -7.1171531387445 0 L 18.860455817672932 195.08365074418265 M 36.65333866453418 190.53133156609272 l 7.1171531387445 0 L 43.77049180327868 190.10147383417222 l -7.1171531387445 0 L 36.65333866453418 190.53133156609272 M 45.54978008796481 190.1015761081984 l 7.1171531387445 0 L 52.66693322670931 189.63459290478443 l -7.1171531387445 0 L 45.54978008796481 190.1015761081984 M 63.342662934826066 190.43376214514288 l 7.1171531387445 0 L 70.45981607357056 188.95723202957404 l -7.1171531387445 0 L 63.342662934826066 190.43376214514288 M 107.82487005197919 192.00919124400153 l 7.1171531387445 0 L 114.94202319072369 190.7352659742415 l -7.1171531387445 0 L 107.82487005197919 192.00919124400153 M 116.72131147540982 190.73536824826766 l 7.1171531387445 0 L 123.83846461415432 189.4509087538139 l -7.1171531387445 0 L 116.72131147540982 190.73536824826766 M 134.51419432227107 191.42029740141336 l 7.1171531387445 0 L 141.63134746101557 190.7377205508692 l -7.1171531387445 0 L 134.51419432227107 191.42029740141336 M 143.4106357457017 190.73761827684302 l 7.1171531387445 0 L 150.5277888844462 188.08698234103937 l -7.1171531387445 0 L 143.4106357457017 190.73761827684302 M 152.30707716913233 188.08831190337935 l 7.1171531387445 0 L 159.42423030787683 186.80784109594558 l -7.1171531387445 0 L 152.30707716913233 188.08831190337935 M 161.20351859256294 186.80784109594558 l 7.1171531387445 0 L 168.32067173130744 184.3268777695295 l -7.1171531387445 0 L 161.20351859256294 186.80784109594558 M 170.09996001599356 184.3268777695295 l 7.1171531387445 0 L 177.21711315473806 183.55164065129082 l -7.1171531387445 0 L 170.09996001599356 184.3268777695295 M 178.9964014394242 183.55164065129082 l 7.1171531387445 0 L 186.1135545781687 181.92313133285884 l -7.1171531387445 0 L 178.9964014394242 183.55164065129082 M 205.68572570971608 183.0518274854818 l 7.1171531387445 0 L 212.80287884846058 182.1596911553504 l -7.1171531387445 0 L 205.68572570971608 183.0518274854818 M 223.47860855657734 184.06076075347977 l 7.1171531387445 0 L 230.59576169532184 183.64184634235764 l -7.1171531387445 0 L 223.47860855657734 184.06076075347977 M 232.37504998000796 183.64072132806996 l 7.1171531387445 0 L 239.49220311875246 182.17994141252868 l -7.1171531387445 0 L 232.37504998000796 183.64072132806996 M 241.2714914034386 182.17994141252868 l 7.1171531387445 0 L 248.3886445421831 179.6401705210747 l -7.1171531387445 0 L 241.2714914034386 182.17994141252868 M 250.16793282686922 179.64027279510088 l 7.1171531387445 0 L 257.28508596561375 178.0189226584996 l -7.1171531387445 0 L 250.16793282686922 179.64027279510088 M 259.06437425029986 178.01882038447343 l 7.1171531387445 0 L 266.1815273890444 169.11116180266401 l -7.1171531387445 0 L 259.06437425029986 178.01882038447343 M 267.9608156737305 169.1133095572132 l 7.1171531387445 0 L 275.07796881247504 167.19291016814094 l -7.1171531387445 0 L 267.9608156737305 169.1133095572132 M 285.7536985205918 167.65784789103185 l 7.1171531387445 0 L 292.8708516593363 165.72824383960585 l -7.1171531387445 0 L 285.7536985205918 167.65784789103185 M 303.54658136745303 166.56781132029468 l 7.1171531387445 0 L 310.66373450619756 166.33718339131997 l -7.1171531387445 0 L 303.54658136745303 166.56781132029468 M 312.4430227908837 166.33759248742462 l 7.1171531387445 0 L 319.5601759296282 160.3645848120453 l -7.1171531387445 0 L 312.4430227908837 166.33759248742462 M 330.23590563774496 164.1463714770996 l 7.1171531387445 0 L 337.3530587764895 162.21032416202596 l -7.1171531387445 0 L 330.23590563774496 164.1463714770996 M 339.13234706117555 162.2104264360521 l 7.1171531387445 0 L 346.2495001999201 161.1425833289901 l -7.1171531387445 0 L 339.13234706117555 162.2104264360521 M 348.02878848460614 161.1425833289901 l 7.1171531387445 0 L 355.14594162335067 158.78107606512057 l -7.1171531387445 0 L 348.02878848460614 161.1425833289901 M 374.7181127548981 161.24966423437218 l 7.1171531387445 0 L 381.8352658936426 156.40289813498813 l -7.1171531387445 0 L 374.7181127548981 161.24966423437218 M 383.61455417832866 156.40289813498813 l 7.1171531387445 0 L 390.7317073170732 155.17070066789847 l -7.1171531387445 0 L 383.61455417832866 156.40289813498813 M 392.5109956017593 155.17070066789847 l 7.1171531387445 0 L 399.62814874050383 140.38177421216886 l -7.1171531387445 0 L 392.5109956017593 155.17070066789847 M 419.20031987205124 148.27446535843734 l 7.1171531387445 0 L 426.31747301079577 141.55710732071753 l -7.1171531387445 0 L 419.20031987205124 148.27446535843734 M 445.8896441423431 143.37645997195074 l 7.1171531387445 0 L 453.00679728108764 139.41814833775663 l -7.1171531387445 0 L 445.8896441423431 143.37645997195074 M 454.7860855657737 139.41804606373046 l 7.1171531387445 0 L 461.90323870451823 133.20377396065658 l -7.1171531387445 0 L 454.7860855657737 139.41804606373046 M 463.68252698920435 133.20387623468275 l 7.1171531387445 0 L 470.7996801279489 132.90881566923173 l -7.1171531387445 0 L 463.68252698920435 133.20387623468275 M 490.3718512594962 136.62852200041124 l 7.1171531387445 0 L 497.48900439824075 128.89077600376436 l -7.1171531387445 0 L 490.3718512594962 136.62852200041124 M 499.2682926829268 128.89578743104585 l 7.1171531387445 0 L 506.38544582167134 119.21759633620074 l -7.1171531387445 0 L 499.2682926829268 128.89578743104585 M 508.16473410635746 119.21759633620074 l 7.1171531387445 0 L 515.281887245102 118.02364935489229 l -7.1171531387445 0 L 508.16473410635746 119.21759633620074 M 517.0611755297881 118.00697868862936 l 7.1171531387445 0 L 524.1783286685326 117.75057770506415 l -7.1171531387445 0 L 517.0611755297881 118.00697868862936 M 525.9576169532187 117.75067997909028 l 7.1171531387445 0 L 533.0747700919632 109.02813738461754 l -7.1171531387445 0 L 525.9576169532187 117.75067997909028 M 534.8540583766493 109.02823965864368 l 7.1171531387445 0 L 541.9712115153937 108.53589249674383 l -7.1171531387445 0 L 534.8540583766493 109.02823965864368 M 561.5433826469413 111.9701520209307 l 7.1171531387445 0 L 568.6605357856857 103.87004914962424 l -7.1171531387445 0 L 561.5433826469413 111.9701520209307 M 597.1291483406637 124.53431158575717 l 7.1171531387445 0 L 604.2463014794082 118.59914530005443 l -7.1171531387445 0 L 597.1291483406637 124.53431158575717 M 606.0255897640943 118.59924757408056 l 7.1171531387445 0 L 613.1427429028388 113.8419712475803 l -7.1171531387445 0 L 606.0255897640943 118.59924757408056 M 614.9220311875249 113.84186897355416 l 7.1171531387445 0 L 622.0391843262694 98.38959318419711 l -7.1171531387445 0 L 614.9220311875249 113.84186897355416 M 632.7149140343862 107.91038455279293 l 7.1171531387445 0 L 639.8320671731307 103.41922524234242 l -7.1171531387445 0 L 632.7149140343862 107.91038455279293 M 641.6113554578168 103.41932751636854 l 7.1171531387445 0 L 648.7285085965613 101.19159467870696 l -7.1171531387445 0 L 641.6113554578168 103.41932751636854 M 659.4042383046781 109.08091078211241 l 7.1171531387445 0 L 666.5213914434225 103.996357571923 l -7.1171531387445 0 L 659.4042383046781 109.08091078211241 M 668.3006797281087 103.996357571923 l 7.1171531387445 0 L 675.4178328668531 101.83080734216234 l -7.1171531387445 0 L 668.3006797281087 103.996357571923 M 694.9900039984005 112.41913499574173 l 7.1171531387445 0 L 702.107157137145 110.1980499697801 l -7.1171531387445 0 L 694.9900039984005 112.41913499574173 M 721.6793282686924 115.36033143984568 l 7.1171531387445 0 L 728.7964814074369 107.4631402364265 l -7.1171531387445 0 L 721.6793282686924 115.36033143984568 M 730.5757696921231 107.4631402364265 l 7.1171531387445 0 L 737.6929228308676 103.71684265844722 l -7.1171531387445 0 L 730.5757696921231 107.4631402364265 M 739.4722111155537 103.71684265844722 l 7.1171531387445 0 L 746.5893642542982 102.71302309175692 l -7.1171531387445 0 L 739.4722111155537 103.71684265844722 M 748.3686525389844 102.70739802031854 l 7.1171531387445 0 L 755.4858056777289 101.14526454485974 l -7.1171531387445 0 L 748.3686525389844 102.70739802031854 M 757.265093962415 101.14526454485974 l 7.1171531387445 0 L 764.3822471011595 81.62023248604349 l -7.1171531387445 0 L 757.265093962415 101.14526454485974 M 766.1615353858456 81.62023248604349 l 7.1171531387445 0 L 773.27868852459 66.67145172743696 l -7.1171531387445 0 L 766.1615353858456 81.62023248604349 M 775.0579768092763 66.67155400146311 l 7.1171531387445 0 L 782.1751299480208 63.49860461409679 l -7.1171531387445 0 L 775.0579768092763 66.67155400146311 M 783.9544182327068 63.49860461409679 l 7.1171531387445 0 L 791.0715713714512 56.19398911820727 l -7.1171531387445 0 L 783.9544182327068 63.49860461409679 M 810.6437425029987 67.46182540154624 l 7.1171531387445 0 L 817.7608956417432 56.304649614504655 l -7.1171531387445 0 L 810.6437425029987 67.46182540154624 M 828.43662534986 62.220179287186056 l 7.1171531387445 0 L 835.5537784886045 57.13910339388585 l -7.1171531387445 0 L 828.43662534986 62.220179287186056 M 837.3330667732906 57.14125114843506 l 7.1171531387445 0 L 844.4502199120351 47.08280522435365 l -7.1171531387445 0 L 837.3330667732906 57.14125114843506 M 846.2295081967213 47.08280522435365 l 7.1171531387445 0 L 853.3466613354658 28.868619358738584 l -7.1171531387445 0 L 846.2295081967213 47.08280522435365 M 864.0223910435824 31.035294602786905 l 7.1171531387445 0 L 871.1395441823269 22.875156878128763 l -7.1171531387445 0 L 864.0223910435824 31.035294602786905 M 872.9188324670131 22.875054604102587 l 7.1171531387445 0 L 880.0359856057576 19.749764912923496 l -7.1171531387445 0 L 872.9188324670131 22.875054604102587 M 881.8152738904437 19.749764912923496 l 7.1171531387445 0 L 888.9324270291881 4.554299203236326 l -7.1171531387445 0 L 881.8152738904437 19.749764912923496"></path><path class="candle body down" d="M 9.964014394242305 192.136624680588 l 7.1171531387445 0 L 17.081167532986804 195.08365074418265 l -7.1171531387445 0 L 9.964014394242305 192.136624680588 M 27.75689724110356 190.02241601195607 l 7.1171531387445 0 L 34.87405037984806 190.53030882583118 l -7.1171531387445 0 L 27.75689724110356 190.02241601195607 M 54.446221511395436 189.63449063075828 l 7.1171531387445 0 L 61.563374650139934 190.43365987111673 l -7.1171531387445 0 L 54.446221511395436 189.63449063075828 M 72.23910435825668 188.9562092893125 l 7.1171531387445 0 L 79.35625749700118 189.61066078266467 l -7.1171531387445 0 L 72.23910435825668 188.9562092893125 M 81.13554578168731 189.61066078266467 l 7.1171531387445 0 L 88.25269892043181 191.2210675984676 l -7.1171531387445 0 L 81.13554578168731 189.61066078266467 M 90.03198720511796 191.2210675984676 l 7.1171531387445 0 L 97.14914034386246 191.7194489279105 l -7.1171531387445 0 L 90.03198720511796 191.2210675984676 M 98.92842862854857 191.7194489279105 l 7.1171531387445 0 L 106.04558176729307 192.00929351802768 l -7.1171531387445 0 L 98.92842862854857 191.7194489279105 M 125.61775289884046 189.45101102784005 l 7.1171531387445 0 L 132.73490603758498 191.42019512738722 l -7.1171531387445 0 L 125.61775289884046 189.45101102784005 M 187.89284286285485 181.923233606885 l 7.1171531387445 0 L 195.00999600159935 183.024520320499 l -7.1171531387445 0 L 187.89284286285485 181.923233606885 M 196.78928428628546 183.02441804647285 l 7.1171531387445 0 L 203.90643742502996 183.0518274854818 l -7.1171531387445 0 L 196.78928428628546 183.02441804647285 M 214.5821671331467 182.15958888132425 l 7.1171531387445 0 L 221.6993202718912 184.05994256127053 l -7.1171531387445 0 L 214.5821671331467 182.15958888132425 M 276.85725709716115 167.18963739930408 l 7.1171531387445 0 L 283.9744102359057 167.6577456170057 l -7.1171531387445 0 L 276.85725709716115 167.18963739930408 M 294.65013994402244 165.72824383960585 l 7.1171531387445 0 L 301.76729308276697 166.57609551641306 l -7.1171531387445 0 L 294.65013994402244 165.72824383960585 M 321.3394642143143 160.36468708607146 l 7.1171531387445 0 L 328.45661735305885 164.1463714770996 l -7.1171531387445 0 L 321.3394642143143 160.36468708607146 M 356.9252299080368 158.78107606512057 l 7.1171531387445 0 L 364.0423830467813 159.08278444227153 l -7.1171531387445 0 L 356.9252299080368 158.78107606512057 M 365.8216713314674 159.08288671629768 l 7.1171531387445 0 L 372.93882447021196 161.25232335905213 l -7.1171531387445 0 L 365.8216713314674 159.08288671629768 M 401.40743702518995 140.38177421216886 l 7.1171531387445 0 L 408.5245901639345 140.48507097858325 l -7.1171531387445 0 L 401.40743702518995 140.38177421216886 M 410.3038784486206 140.4849687045571 l 7.1171531387445 0 L 417.4210315873651 148.27446535843734 l -7.1171531387445 0 L 410.3038784486206 140.4849687045571 M 428.0967612954818 141.55710732071753 l 7.1171531387445 0 L 435.21391443422635 143.0573650103538 l -7.1171531387445 0 L 428.0967612954818 141.55710732071753 M 436.99320271891247 143.0573650103538 l 7.1171531387445 0 L 444.110355857657 143.37645997195074 l -7.1171531387445 0 L 436.99320271891247 143.0573650103538 M 472.57896841263494 132.9155657549578 l 7.1171531387445 0 L 479.69612155137946 135.46822317370703 l -7.1171531387445 0 L 472.57896841263494 132.9155657549578 M 481.47540983606564 135.47732556203465 l 7.1171531387445 0 L 488.59256297481016 136.62852200041124 l -7.1171531387445 0 L 481.47540983606564 135.47732556203465 M 543.75049980008 108.53589249674383 l 7.1171531387445 0 L 550.8676529388244 111.4953959915291 l -7.1171531387445 0 L 543.75049980008 108.53589249674383 M 552.6469412235106 111.50102106296751 l 7.1171531387445 0 L 559.764094362255 111.97025429495685 l -7.1171531387445 0 L 552.6469412235106 111.50102106296751 M 570.4398240703717 103.87015142365037 l 7.1171531387445 0 L 577.5569772091162 108.37931096270378 l -7.1171531387445 0 L 570.4398240703717 103.87015142365037 M 579.3362654938024 108.38217463543604 l 7.1171531387445 0 L 586.4534186325469 124.4326512037612 l -7.1171531387445 0 L 579.3362654938024 108.38217463543604 M 588.232706917233 124.4326512037612 l 7.1171531387445 0 L 595.3498600559775 124.5344138597833 l -7.1171531387445 0 L 588.232706917233 124.4326512037612 M 623.8184726109555 98.38959318419711 l 7.1171531387445 0 L 630.9356257497 107.91038455279293 l -7.1171531387445 0 L 623.8184726109555 98.38959318419711 M 650.5077968812475 101.18709462155626 l 7.1171531387445 0 L 657.624950019992 109.08080850808625 l -7.1171531387445 0 L 650.5077968812475 101.18709462155626 M 677.1971211515394 101.83827334607153 l 7.1171531387445 0 L 684.3142742902838 103.79958234560488 l -7.1171531387445 0 L 677.1971211515394 101.83827334607153 M 686.09356257497 103.79958234560488 l 7.1171531387445 0 L 693.2107157137144 112.41913499574173 l -7.1171531387445 0 L 686.09356257497 103.79958234560488 M 703.8864454218311 110.19794769575392 l 7.1171531387445 0 L 711.0035985605756 113.12973492945179 l -7.1171531387445 0 L 703.8864454218311 110.19794769575392 M 712.7828868452618 113.12789399698103 l 7.1171531387445 0 L 719.9000399840063 115.36033143984568 l -7.1171531387445 0 L 712.7828868452618 113.12789399698103 M 792.8508596561375 56.194091392233446 l 7.1171531387445 0 L 799.9680127948819 59.938138941637305 l -7.1171531387445 0 L 792.8508596561375 56.194091392233446 M 801.747301079568 59.93793439358498 l 7.1171531387445 0 L 808.8644542183125 67.46356405999086 l -7.1171531387445 0 L 801.747301079568 59.93793439358498 M 819.5401839264293 56.304649614504655 l 7.1171531387445 0 L 826.6573370651738 62.216395148218425 l -7.1171531387445 0 L 819.5401839264293 56.304649614504655 M 855.1259496201519 28.868517084712437 l 7.1171531387445 0 L 862.2431027588964 31.034067314473106 l -7.1171531387445 0 L 855.1259496201519 28.868517084712437"></path><path class="candle body equal"></path><path class="candle wick up" d="M 4.626149540183927 191.69582362786917 L 4.626149540183927 192.136624680588 M 4.626149540183927 193.28608246052 L 4.626149540183927 193.94288625647363 M 22.41903238704518 189.4199197238896 L 22.41903238704518 190.02251828598224 M 22.41903238704518 195.08365074418265 L 22.41903238704518 195.60044139833303 M 40.21191523390643 189.15707547667674 L 40.21191523390643 190.10147383417222 M 40.21191523390643 190.53133156609272 L 40.21191523390643 190.95975746164703 M 49.10835665733706 189.3814646900561 L 49.10835665733706 189.63459290478443 M 49.10835665733706 190.1015761081984 L 49.10835665733706 191.4696957560452 M 66.90123950419832 188.6804785148044 L 66.90123950419832 188.95723202957404 M 66.90123950419832 190.43376214514288 L 66.90123950419832 191.0498608786877 M 111.38344662135144 190.42598931915526 L 111.38344662135144 190.7352659742415 M 111.38344662135144 192.00919124400153 L 111.38344662135144 192.25669438729145 M 120.27988804478207 189.3916920926714 L 120.27988804478207 189.4509087538139 M 120.27988804478207 190.73536824826766 L 120.27988804478207 191.25676123359494 M 138.07277089164333 190.57940035838453 L 138.07277089164333 190.7377205508692 M 138.07277089164333 191.42029740141336 L 138.07277089164333 191.96725889327885 M 146.96921231507397 187.83712689514795 L 146.96921231507397 188.08698234103937 M 146.96921231507397 190.73761827684302 L 146.96921231507397 192.12844275849577 M 155.8656537385046 186.25556135472013 L 155.8656537385046 186.80784109594558 M 155.8656537385046 188.08831190337935 L 155.8656537385046 189.07464261159754 M 164.7620951619352 182.30410208027826 L 164.7620951619352 184.3268777695295 M 164.7620951619352 186.80784109594558 L 164.7620951619352 186.80917065828555 M 173.65853658536582 182.7745626005814 L 173.65853658536582 183.55164065129082 M 173.65853658536582 184.3268777695295 L 173.65853658536582 185.06550078640544 M 182.55497800879647 179.9619246073516 L 182.55497800879647 181.92313133285884 M 182.55497800879647 183.55164065129082 L 182.55497800879647 185.56664351455447 M 209.24430227908834 181.011972033863 L 209.24430227908834 182.1596911553504 M 209.24430227908834 183.0518274854818 L 209.24430227908834 184.76041736639147 M 227.0371851259496 183.21004540394028 L 227.0371851259496 183.64184634235764 M 227.0371851259496 184.06076075347977 L 227.0371851259496 184.71776909748573 M 235.93362654938022 182.16091844366423 L 235.93362654938022 182.17994141252868 M 235.93362654938022 183.64072132806996 L 235.93362654938022 183.78482543091934 M 244.83006797281087 178.8984792834142 L 244.83006797281087 179.6401705210747 M 244.83006797281087 182.17994141252868 L 244.83006797281087 183.1533855934516 M 253.72650939624148 176.70582643672304 L 253.72650939624148 178.0189226584996 M 253.72650939624148 179.64027279510088 L 253.72650939624148 180.39577102629204 M 262.6229508196721 164.64465053251632 L 262.6229508196721 169.11116180266401 M 262.6229508196721 178.01882038447343 L 262.6229508196721 178.25456201475578 M 271.51939224310274 164.97888204998387 L 271.51939224310274 167.19291016814094 M 271.51939224310274 169.1133095572132 L 271.51939224310274 170.1633569837246 M 289.31227508996403 165.16573669576513 L 289.31227508996403 165.72824383960585 M 289.31227508996403 167.65784789103185 L 289.31227508996403 168.20051387379894 M 307.10515793682526 164.42854551525534 L 307.10515793682526 166.33718339131997 M 307.10515793682526 166.56781132029468 L 307.10515793682526 169.27439114840396 M 316.0015993602559 158.79856492359272 L 316.0015993602559 160.3645848120453 M 316.0015993602559 166.33759248742462 L 316.0015993602559 166.66773304384603 M 333.7944822071172 160.29565211841827 L 333.7944822071172 162.21032416202596 M 333.7944822071172 164.1463714770996 L 333.7944822071172 167.68126864302087 M 342.6909236305478 160.0187963296225 L 342.6909236305478 161.1425833289901 M 342.6909236305478 162.2104264360521 L 342.6909236305478 165.69480023305388 M 351.5873650539784 155.6208086569972 L 351.5873650539784 158.78107606512057 M 351.5873650539784 161.1425833289901 L 351.5873650539784 162.6623753576216 M 378.2766893242703 155.96741533162927 L 378.2766893242703 156.40289813498813 M 378.2766893242703 161.24966423437218 L 378.2766893242703 163.95624406248143 M 387.1731307477009 153.99465164116677 L 387.1731307477009 155.17070066789847 M 387.1731307477009 156.40289813498813 L 387.1731307477009 161.50156516078664 M 396.06957217113154 138.74559434177542 L 396.06957217113154 140.38177421216886 M 396.06957217113154 155.17070066789847 L 396.06957217113154 155.68667312983968 M 422.7588964414235 139.76833460330403 L 422.7588964414235 141.55710732071753 M 422.7588964414235 148.27446535843734 L 422.7588964414235 149.44468476567835 M 449.44822071171535 136.54670277948895 L 449.44822071171535 139.41814833775663 M 449.44822071171535 143.37645997195074 L 449.44822071171535 143.6273381581037 M 458.34466213514594 132.70426761692602 L 458.34466213514594 133.20377396065658 M 458.34466213514594 139.41804606373046 L 458.34466213514594 141.9095436148403 M 467.2411035585766 131.2795904326167 L 467.2411035585766 132.90881566923173 M 467.2411035585766 133.20387623468275 L 467.2411035585766 136.67607942257231 M 493.93042782886846 127.18862938650231 L 493.93042782886846 128.89077600376436 M 493.93042782886846 136.62852200041124 L 493.93042782886846 137.57967044363284 M 502.82686925229905 117.17784315860813 L 502.82686925229905 119.21759633620074 M 502.82686925229905 128.89578743104585 L 502.82686925229905 130.6864010809301 M 511.7233106757297 110.85618332807373 L 511.7233106757297 118.02364935489229 M 511.7233106757297 119.21759633620074 L 511.7233106757297 123.76807458181992 M 520.6197520991603 113.89505146715365 L 520.6197520991603 117.75057770506415 M 520.6197520991603 118.00697868862936 L 520.6197520991603 122.52851338484726 M 529.5161935225909 107.39635529734865 L 529.5161935225909 109.02813738461754 M 529.5161935225909 117.75067997909028 L 529.5161935225909 118.39265404125179 M 538.4126349460215 105.85529027127735 L 538.4126349460215 108.53589249674383 M 538.4126349460215 109.02823965864368 L 538.4126349460215 112.57796655835712 M 565.1019592163135 101.22156096836976 L 565.1019592163135 103.87004914962424 M 565.1019592163135 111.9701520209307 L 565.1019592163135 115.54984521030691 M 600.687724910036 116.95621534393487 L 600.687724910036 118.59914530005443 M 600.687724910036 124.53431158575717 L 600.687724910036 127.33631308026703 M 609.5841663334666 112.05156214574836 L 609.5841663334666 113.8419712475803 M 609.5841663334666 118.59924757408056 L 609.5841663334666 120.67377392056517 M 618.4806077568971 96.67865100068592 L 618.4806077568971 98.38959318419711 M 618.4806077568971 113.84186897355416 L 618.4806077568971 113.8419712475803 M 636.2734906037584 102.00876414766833 L 636.2734906037584 103.41922524234242 M 636.2734906037584 107.91038455279293 L 636.2734906037584 112.35889559433771 M 645.169932027189 99.39054907815512 L 645.169932027189 101.19159467870696 M 645.169932027189 103.41932751636854 L 645.169932027189 106.8647349094061 M 662.9628148740503 103.6962855791905 L 662.9628148740503 103.996357571923 M 662.9628148740503 109.08091078211241 L 662.9628148740503 110.62023714973908 M 671.8592562974809 101.21102674367603 L 671.8592562974809 101.83080734216234 M 671.8592562974809 103.996357571923 L 671.8592562974809 106.96905441608202 M 698.5485805677728 109.19279856672364 L 698.5485805677728 110.1980499697801 M 698.5485805677728 112.41913499574173 L 698.5485805677728 119.31352937273215 M 725.2379048380647 106.0316106923649 L 725.2379048380647 107.4631402364265 M 725.2379048380647 115.36033143984568 L 725.2379048380647 115.52223122324563 M 734.1343462614954 101.3030733672136 L 734.1343462614954 103.71684265844722 M 734.1343462614954 107.4631402364265 L 734.1343462614954 108.46102790959992 M 743.0307876849259 101.93717232936133 L 743.0307876849259 102.71302309175692 M 743.0307876849259 103.71684265844722 L 743.0307876849259 105.50653584209611 M 751.9272291083566 99.67691635138314 L 751.9272291083566 101.14526454485974 M 751.9272291083566 102.70739802031854 L 751.9272291083566 104.99516571133182 M 760.8236705317872 79.32438514696412 L 760.8236705317872 81.62023248604349 M 760.8236705317872 101.14526454485974 L 760.8236705317872 102.65718147347748 M 769.7201119552178 56.415003288723625 L 769.7201119552178 66.67145172743696 M 769.7201119552178 81.62023248604349 L 769.7201119552178 82.69942801000848 M 778.6165533786485 61.68027470312512 L 778.6165533786485 63.49860461409679 M 778.6165533786485 66.67155400146311 L 778.6165533786485 71.24473708088823 M 787.512994802079 52.61583003922331 L 787.512994802079 56.19398911820727 M 787.512994802079 63.49860461409679 L 787.512994802079 67.15377603477384 M 814.202319072371 56.03556665169651 L 814.202319072371 56.304649614504655 M 814.202319072371 67.46182540154624 L 814.202319072371 71.20996391199623 M 831.9952019192323 56.471969921290764 L 831.9952019192323 57.13910339388585 M 831.9952019192323 62.220179287186056 L 831.9952019192323 67.63016844859388 M 840.8916433426629 46.291306535956664 L 840.8916433426629 47.08280522435365 M 840.8916433426629 57.14125114843506 L 840.8916433426629 60.16232360696438 M 849.7880847660936 25.047252645563162 L 849.7880847660936 28.868619358738584 M 849.7880847660936 47.08280522435365 L 849.7880847660936 49.25582145802346 M 867.5809676129546 18.573613612165616 L 867.5809676129546 22.875156878128763 M 867.5809676129546 31.035294602786905 L 867.5809676129546 32.88174987095067 M 876.4774090363853 19.494079847541343 L 876.4774090363853 19.749764912923496 M 876.4774090363853 22.875054604102587 L 876.4774090363853 35.14200584892885 M 885.3738504598159 3.846153846153868 L 885.3738504598159 4.554299203236326 M 885.3738504598159 19.749764912923496 L 885.3738504598159 20.41454608291707" style="stroke-width: 1px;"></path><path class="candle wick down" d="M 13.522590963614554 192.05951006486873 L 13.522590963614554 192.136624680588 M 13.522590963614554 195.08365074418265 L 13.522590963614554 196.15384615384616 M 31.315473810475808 189.77491286866615 L 31.315473810475808 190.02241601195607 M 31.315473810475808 190.53030882583118 L 31.315473810475808 191.86426894894294 M 58.004798080767685 187.83712689514795 L 58.004798080767685 189.63449063075828 M 58.004798080767685 190.43365987111673 L 58.004798080767685 191.15080534250058 M 75.79768092762893 188.8666172424026 L 75.79768092762893 188.9562092893125 M 75.79768092762893 189.61066078266467 L 75.79768092762893 190.75060707816445 M 84.69412235105956 188.1439489736065 L 84.69412235105956 189.61066078266467 M 84.69412235105956 191.2210675984676 L 84.69412235105956 193.0837844367896 M 93.5905637744902 190.75561850544594 L 93.5905637744902 191.2210675984676 M 93.5905637744902 191.7194489279105 L 93.5905637744902 193.72811080155265 M 102.48700519792082 191.3803082571876 L 102.48700519792082 191.7194489279105 M 102.48700519792082 192.00929351802768 L 102.48700519792082 192.47566307728474 M 129.1763294682127 189.37123728744083 L 129.1763294682127 189.45101102784005 M 129.1763294682127 191.42019512738722 L 129.1763294682127 192.18377300664446 M 191.4514194322271 181.62909350766938 L 191.4514194322271 181.923233606885 M 191.4514194322271 183.024520320499 L 191.4514194322271 184.25753597979786 M 200.34786085565773 181.72134467925926 L 200.34786085565773 183.02441804647285 M 200.34786085565773 183.0518274854818 L 200.34786085565773 184.46208403210358 M 218.14074370251896 181.79119783912165 L 218.14074370251896 182.15958888132425 M 218.14074370251896 184.05994256127053 L 218.14074370251896 185.28027624132645 M 280.4158336665334 166.58775475539449 L 280.4158336665334 167.18963739930408 M 280.4158336665334 167.6577456170057 L 280.4158336665334 169.7338060738826 M 298.2087165133947 163.29136061846168 L 298.2087165133947 165.72824383960585 M 298.2087165133947 166.57609551641306 L 298.2087165133947 168.01642062672377 M 324.89804078368655 158.08070353402582 L 324.89804078368655 160.36468708607146 M 324.89804078368655 164.1463714770996 L 324.89804078368655 168.01642062672377 M 360.483806477409 157.71742619313085 L 360.483806477409 158.78107606512057 M 360.483806477409 159.08278444227153 L 360.483806477409 160.70382775679434 M 369.38024790083966 158.38220736312442 L 369.38024790083966 159.08288671629768 M 369.38024790083966 161.25232335905213 L 369.38024790083966 164.87609665370024 M 404.9660135945622 136.59783979256537 L 404.9660135945622 140.38177421216886 M 404.9660135945622 140.48507097858325 L 404.9660135945622 144.7183974691024 M 413.86245501799283 138.7095938845696 L 413.86245501799283 140.4849687045571 M 413.86245501799283 148.27446535843734 L 413.86245501799283 153.1230723902921 M 431.65533786485406 137.8251281063997 L 431.65533786485406 141.55710732071753 M 431.65533786485406 143.0573650103538 L 431.65533786485406 148.40496701580838 M 440.5517792882847 141.71154110020836 L 440.5517792882847 143.0573650103538 M 440.5517792882847 143.37645997195074 L 440.5517792882847 145.67506870973625 M 476.13754498200717 132.8444853067816 L 476.13754498200717 132.9155657549578 M 476.13754498200717 135.46822317370703 L 476.13754498200717 139.56378655099832 M 485.0339864054379 134.3478112172025 L 485.0339864054379 135.47732556203465 M 485.0339864054379 136.62852200041124 L 485.0339864054379 138.49277294912557 M 547.3090763694522 108.0633864959176 L 547.3090763694522 108.53589249674383 M 547.3090763694522 111.4953959915291 L 547.3090763694522 119.71382991109442 M 556.2055177928828 107.89974805407303 L 556.2055177928828 111.50102106296751 M 556.2055177928828 111.97025429495685 L 556.2055177928828 115.73393845738205 M 573.998400639744 100.55432522174851 L 573.998400639744 103.87015142365037 M 573.998400639744 108.37931096270378 L 573.998400639744 110.61747575103296 M 582.8948420631747 106.37555824231698 L 582.8948420631747 108.38217463543604 M 582.8948420631747 124.4326512037612 L 582.8948420631747 134.2659919962802 M 591.7912834866053 121.28107708786085 L 591.7912834866053 124.4326512037612 M 591.7912834866053 124.5344138597833 L 591.7912834866053 131.70832315024944 M 627.3770491803277 96.42460231972221 L 627.3770491803277 98.38959318419711 M 627.3770491803277 107.91038455279293 L 627.3770491803277 115.72248376645295 M 654.0663734506197 100.11669466384043 L 654.0663734506197 101.18709462155626 M 654.0663734506197 109.08080850808625 L 654.0663734506197 109.95228548493475 M 680.7556977209116 101.20171980729612 L 680.7556977209116 101.83827334607153 M 680.7556977209116 103.79958234560488 L 680.7556977209116 106.49982118409268 M 689.6521391443422 102.49108845500521 L 689.6521391443422 103.79958234560488 M 689.6521391443422 112.41913499574173 L 689.6521391443422 113.68845793432487 M 707.4450219912034 110.0340024318309 L 707.4450219912034 110.19794769575392 M 707.4450219912034 113.12973492945179 L 707.4450219912034 116.64295000182868 M 716.3414634146341 112.7400708898094 L 716.3414634146341 113.12789399698103 M 716.3414634146341 115.36033143984568 L 716.3414634146341 120.10789173386138 M 796.4094362255097 51.35243899415707 L 796.4094362255097 56.194091392233446 M 796.4094362255097 59.938138941637305 L 796.4094362255097 63.98328122403521 M 805.3058776489403 53.31845259889349 L 805.3058776489403 59.93793439358498 M 805.3058776489403 67.46356405999086 L 805.3058776489403 76.7163974800662 M 823.0987604958016 53.34678250413782 L 823.0987604958016 56.304649614504655 M 823.0987604958016 62.216395148218425 L 823.0987604958016 68.68788642706673 M 858.6845261895241 9.143948400871977 L 858.6845261895241 28.868517084712437 M 858.6845261895241 31.034067314473106 L 858.6845261895241 36.9829383196803" style="stroke-width: 1px;"></path><path class="candle wick equal" style="stroke-width: 1px;"></path></g></g><g class="x axis" transform="translate(0,200)" fill="none" font-size="10" font-family="sans-serif" text-anchor="middle"><path class="domain" stroke="#000" d="M0.5,6V0.5H890.5V6"></path><g class="tick" opacity="1" transform="translate(58.004798080767685,0)"><line stroke="#000" y2="6" x1="0.5" x2="0.5"></line><text fill="#000" y="9" x="0.5" dy="0.71em">Sep 28</text></g><g class="tick" opacity="1" transform="translate(120.27988804478207,0)"><line stroke="#000" y2="6" x1="0.5" x2="0.5"></line><text fill="#000" y="9" x="0.5" dy="0.71em">Oct  5</text></g><g class="tick" opacity="1" transform="translate(182.55497800879647,0)"><line stroke="#000" y2="6" x1="0.5" x2="0.5"></line><text fill="#000" y="9" x="0.5" dy="0.71em">Oct 12</text></g><g class="tick" opacity="1" transform="translate(244.83006797281087,0)"><line stroke="#000" y2="6" x1="0.5" x2="0.5"></line><text fill="#000" y="9" x="0.5" dy="0.71em">Oct 19</text></g><g class="tick" opacity="1" transform="translate(307.10515793682526,0)"><line stroke="#000" y2="6" x1="0.5" x2="0.5"></line><text fill="#000" y="9" x="0.5" dy="0.71em">Oct 26</text></g><g class="tick" opacity="1" transform="translate(369.38024790083966,0)"><line stroke="#000" y2="6" x1="0.5" x2="0.5"></line><text fill="#000" y="9" x="0.5" dy="0.71em">Nov  2</text></g><g class="tick" opacity="1" transform="translate(431.65533786485406,0)"><line stroke="#000" y2="6" x1="0.5" x2="0.5"></line><text fill="#000" y="9" x="0.5" dy="0.71em">Nov  9</text></g><g class="tick" opacity="1" transform="translate(493.93042782886846,0)"><line stroke="#000" y2="6" x1="0.5" x2="0.5"></line><text fill="#000" y="9" x="0.5" dy="0.71em">Nov 16</text></g><g class="tick" opacity="1" transform="translate(556.2055177928828,0)"><line stroke="#000" y2="6" x1="0.5" x2="0.5"></line><text fill="#000" y="9" x="0.5" dy="0.71em">Nov 23</text></g><g class="tick" opacity="1" transform="translate(618.4806077568971,0)"><line stroke="#000" y2="6" x1="0.5" x2="0.5"></line><text fill="#000" y="9" x="0.5" dy="0.71em">Nov 30</text></g><g class="tick" opacity="1" transform="translate(680.7556977209116,0)"><line stroke="#000" y2="6" x1="0.5" x2="0.5"></line><text fill="#000" y="9" x="0.5" dy="0.71em">Dec  7</text></g><g class="tick" opacity="1" transform="translate(743.0307876849259,0)"><line stroke="#000" y2="6" x1="0.5" x2="0.5"></line><text fill="#000" y="9" x="0.5" dy="0.71em">Dec 14</text></g><g class="tick" opacity="1" transform="translate(805.3058776489403,0)"><line stroke="#000" y2="6" x1="0.5" x2="0.5"></line><text fill="#000" y="9" x="0.5" dy="0.71em">Dec 21</text></g><g class="tick" opacity="1" transform="translate(867.5809676129546,0)"><line stroke="#000" y2="6" x1="0.5" x2="0.5"></line><text fill="#000" y="9" x="0.5" dy="0.71em">Dec 28</text></g></g><g class="y axis" fill="none" font-size="10" font-family="sans-serif" text-anchor="end"><path class="domain" stroke="#000" d="M-6,200.5H0.5V0.5H-6"></path><g class="tick" opacity="1" transform="translate(0,197.55315937966958)"><line stroke="#000" x2="-6" y1="0.5" y2="0.5"></line><text fill="#000" x="-9" y="0.5" dy="0.32em">10,000</text></g><g class="tick" opacity="1" transform="translate(0,177.0983541490977)"><line stroke="#000" x2="-6" y1="0.5" y2="0.5"></line><text fill="#000" x="-9" y="0.5" dy="0.32em">12,000</text></g><g class="tick" opacity="1" transform="translate(0,156.64354891852582)"><line stroke="#000" x2="-6" y1="0.5" y2="0.5"></line><text fill="#000" x="-9" y="0.5" dy="0.32em">14,000</text></g><g class="tick" opacity="1" transform="translate(0,136.18874368795395)"><line stroke="#000" x2="-6" y1="0.5" y2="0.5"></line><text fill="#000" x="-9" y="0.5" dy="0.32em">16,000</text></g><g class="tick" opacity="1" transform="translate(0,115.73393845738205)"><line stroke="#000" x2="-6" y1="0.5" y2="0.5"></line><text fill="#000" x="-9" y="0.5" dy="0.32em">18,000</text></g><g class="tick" opacity="1" transform="translate(0,95.27913322681019)"><line stroke="#000" x2="-6" y1="0.5" y2="0.5"></line><text fill="#000" x="-9" y="0.5" dy="0.32em">20,000</text></g><g class="tick" opacity="1" transform="translate(0,74.82432799623831)"><line stroke="#000" x2="-6" y1="0.5" y2="0.5"></line><text fill="#000" x="-9" y="0.5" dy="0.32em">22,000</text></g><g class="tick" opacity="1" transform="translate(0,54.36952276566643)"><line stroke="#000" x2="-6" y1="0.5" y2="0.5"></line><text fill="#000" x="-9" y="0.5" dy="0.32em">24,000</text></g><g class="tick" opacity="1" transform="translate(0,33.91471753509455)"><line stroke="#000" x2="-6" y1="0.5" y2="0.5"></line><text fill="#000" x="-9" y="0.5" dy="0.32em">26,000</text></g><g class="tick" opacity="1" transform="translate(0,13.459912304522646)"><line stroke="#000" x2="-6" y1="0.5" y2="0.5"></line><text fill="#000" x="-9" y="0.5" dy="0.32em">28,000</text></g><text transform="rotate(-90)" y="6" dy=".71em" style="text-anchor: end;">Price ($)</text></g></g></svg>