<?xml version="1.0" encoding="utf-8"?>
<!DOCTYPE svg PUBLIC "-//W3C//DTD SVG 1.1//EN" "http://www.w3.org/Graphics/SVG/1.1/DTD/svg11.dtd">
<svg version="1.1" xmlns="http://www.w3.org/2000/svg" width="960" height="250"><g transform="translate(50,20)"><style>.axis path,.axis line{fill:none;stroke:#000;shape-rendering:crispEdges;}path.candle{stroke:#000000;}path.candle.body{stroke-width:0;}path.candle.up{fill:#00AA00;stroke:#00AA00;}path.candle.down{fill:#FF0000;stroke:#FF0000;}</style><g class="candlestick"><g class="data"><path class="candle body up" d="M 9.964014394242305 52.08080575744671 l 7.1171531387445 0 L 17.081167532986804 41.171743878686584 l -7.1171531387445 0 L 9.964014394242305 52.08080575744671 M 36.65333866453418 64.16561706944745 l 7.1171531387445 0 L 43.77049180327868 61.188525092797704 l -7.1171531387445 0 L 36.65333866453418 64.16561706944745 M 45.54978008796481 61.188525092797704 l 7.1171531387445 0 L 52.66693322670931 51.936064314720454 l -7.1171531387445 0 L 45.54978008796481 61.188525092797704 M 54.446221511395436 51.936064314720454 l 7.1171531387445 0 L 61.563374650139934 37.564315067526366 l -7.1171531387445 0 L 54.446221511395436 51.936064314720454 M 72.23910435825668 54.397363044628776 l 7.1171531387445 0 L 79.35625749700118 47.791784748764286 l -7.1171531387445 0 L 72.23910435825668 54.397363044628776 M 90.03198720511796 67.80335943615862 l 7.1171531387445 0 L 97.14914034386246 49.24614121164905 l -7.1171531387445 0 L 90.03198720511796 67.80335943615862 M 107.82487005197919 62.18401300104438 l 7.1171531387445 0 L 114.94202319072369 59.36034001164876 l -7.1171531387445 0 L 107.82487005197919 62.18401300104438 M 116.72131147540982 59.36022431105508 l 7.1171531387445 0 L 123.83846461415432 49.538748013131595 l -7.1171531387445 0 L 116.72131147540982 59.36022431105508 M 134.51419432227107 63.24695435542162 l 7.1171531387445 0 L 141.63134746101557 56.93618117232009 l -7.1171531387445 0 L 134.51419432227107 63.24695435542162 M 170.09996001599356 68.79283091353255 l 7.1171531387445 0 L 177.21711315473806 64.14722067504817 l -7.1171531387445 0 L 170.09996001599356 68.79283091353255 M 178.9964014394242 64.14722067504817 l 7.1171531387445 0 L 186.1135545781687 59.093765843750106 l -7.1171531387445 0 L 178.9964014394242 64.14722067504817 M 187.89284286285485 59.093765843750106 l 7.1171531387445 0 L 195.00999600159935 32.87462290284 l -7.1171531387445 0 L 187.89284286285485 59.093765843750106 M 196.78928428628546 32.87450720224629 l 7.1171531387445 0 L 203.90643742502996 32.10151153569632 l -7.1171531387445 0 L 196.78928428628546 32.87450720224629 M 214.5821671331467 55.186093991922746 l 7.1171531387445 0 L 221.6993202718912 47.70281099220438 l -7.1171531387445 0 L 214.5821671331467 55.186093991922746 M 232.37504998000796 56.40823936323952 l 7.1171531387445 0 L 239.49220311875246 54.512716536553654 l -7.1171531387445 0 L 232.37504998000796 56.40823936323952 M 241.2714914034386 54.51283223714739 l 7.1171531387445 0 L 248.3886445421831 53.874396361077544 l -7.1171531387445 0 L 241.2714914034386 54.51283223714739 M 250.16793282686922 53.874512061671226 l 7.1171531387445 0 L 257.28508596561375 37.05280274275205 l -7.1171531387445 0 L 250.16793282686922 53.874512061671226 M 330.23590563774496 143.92173873001016 l 7.1171531387445 0 L 337.3530587764895 138.74645117353955 l -7.1171531387445 0 L 330.23590563774496 143.92173873001016 M 348.02878848460614 164.00527918668965 l 7.1171531387445 0 L 355.14594162335067 163.2160854370208 l -7.1171531387445 0 L 348.02878848460614 164.00527918668965 M 365.8216713314674 180.54826577537102 l 7.1171531387445 0 L 372.93882447021196 161.99903089182715 l -7.1171531387445 0 L 365.8216713314674 180.54826577537102 M 383.61455417832866 162.0001878977642 l 7.1171531387445 0 L 390.7317073170732 160.26907561473462 l -7.1171531387445 0 L 383.61455417832866 162.0001878977642 M 401.40743702518995 168.7790856830003 l 7.1171531387445 0 L 408.5245901639345 155.79597496146593 l -7.1171531387445 0 L 401.40743702518995 168.7790856830003 M 410.3038784486206 155.79609066205967 l 7.1171531387445 0 L 417.4210315873651 154.32009818815186 l -7.1171531387445 0 L 410.3038784486206 155.79609066205967 M 419.20031987205124 154.32021388874557 l 7.1171531387445 0 L 426.31747301079577 151.3870881377041 l -7.1171531387445 0 L 419.20031987205124 154.32021388874557 M 490.3718512594962 177.28516193107995 l 7.1171531387445 0 L 497.48900439824075 176.55613249013825 l -7.1171531387445 0 L 490.3718512594962 177.28516193107995 M 499.2682926829268 176.55613249013825 l 7.1171531387445 0 L 506.38544582167134 165.90149621693772 l -7.1171531387445 0 L 499.2682926829268 176.55613249013825 M 517.0611755297881 166.6057657308263 l 7.1171531387445 0 L 524.1783286685326 162.1088307552542 l -7.1171531387445 0 L 517.0611755297881 166.6057657308263 M 525.9576169532187 162.1088307552542 l 7.1171531387445 0 L 533.0747700919632 149.83912989451116 l -7.1171531387445 0 L 525.9576169532187 162.1088307552542 M 579.3362654938024 176.3773750728625 l 7.1171531387445 0 L 586.4534186325469 165.92278512617963 l -7.1171531387445 0 L 579.3362654938024 176.3773750728625 M 588.232706917233 165.92278512617963 l 7.1171531387445 0 L 595.3498600559775 161.8273312107674 l -7.1171531387445 0 L 588.232706917233 165.92278512617963 M 597.1291483406637 161.8273312107674 l 7.1171531387445 0 L 604.2463014794082 159.036632890578 l -7.1171531387445 0 L 597.1291483406637 161.8273312107674 M 606.0255897640943 159.036632890578 l 7.1171531387445 0 L 613.1427429028388 154.80708198706054 l -7.1171531387445 0 L 606.0255897640943 159.036632890578 M 623.8184726109555 159.38905689900656 l 7.1171531387445 0 L 630.9356257497 140.49514994681243 l -7.1171531387445 0 L 623.8184726109555 159.38905689900656 M 632.7149140343862 140.49514994681243 l 7.1171531387445 0 L 639.8320671731307 129.34114991117667 l -7.1171531387445 0 L 632.7149140343862 140.49514994681243 M 677.1971211515394 140.3100289968828 l 7.1171531387445 0 L 684.3142742902838 138.79319421339682 l -7.1171531387445 0 L 677.1971211515394 140.3100289968828 M 703.8864454218311 154.12363858003906 l 7.1171531387445 0 L 711.0035985605756 134.48022318181725 l -7.1171531387445 0 L 703.8864454218311 154.12363858003906 M 712.7828868452618 134.4587028713879 l 7.1171531387445 0 L 719.9000399840063 124.17731671348301 l -7.1171531387445 0 L 712.7828868452618 134.4587028713879 M 783.9544182327068 138.29880557649096 l 7.1171531387445 0 L 791.0715713714512 130.31534891018146 l -7.1171531387445 0 L 783.9544182327068 138.29880557649096 M 801.747301079568 134.45985987732502 l 7.1171531387445 0 L 808.8644542183125 131.91236420510572 l -7.1171531387445 0 L 801.747301079568 134.45985987732502 M 810.6437425029987 131.91236420510572 l 7.1171531387445 0 L 817.7608956417432 124.55831876855696 l -7.1171531387445 0 L 810.6437425029987 131.91236420510572 M 828.43662534986 132.1792854747855 l 7.1171531387445 0 L 835.5537784886045 122.89165171622165 l -7.1171531387445 0 L 828.43662534986 132.1792854747855 M 846.2295081967213 123.13416016062946 l 7.1171531387445 0 L 853.3466613354658 117.68940592141757 l -7.1171531387445 0 L 846.2295081967213 123.13416016062946 M 855.1259496201519 117.71231463897136 l 7.1171531387445 0 L 862.2431027588964 117.25321468314584 l -7.1171531387445 0 L 855.1259496201519 117.71231463897136"></path><path class="candle body down" d="M 1.0675729708116766 6.215239202878507 l 7.1171531387445 0 L 8.184726109556177 52.05674003395583 l -7.1171531387445 0 L 1.0675729708116766 6.215239202878507 M 18.860455817672932 41.171628178092845 l 7.1171531387445 0 L 25.977608956417434 63.30711866414876 l -7.1171531387445 0 L 18.860455817672932 41.171628178092845 M 27.75689724110356 63.30711866414876 l 7.1171531387445 0 L 34.87405037984806 64.16550136885374 l -7.1171531387445 0 L 27.75689724110356 63.30711866414876 M 63.342662934826066 37.564315067526366 l 7.1171531387445 0 L 70.45981607357056 54.397363044628776 l -7.1171531387445 0 L 63.342662934826066 37.564315067526366 M 81.13554578168731 47.791784748764286 l 7.1171531387445 0 L 88.25269892043181 67.80347513675235 l -7.1171531387445 0 L 81.13554578168731 47.791784748764286 M 98.92842862854857 49.24625691224273 l 7.1171531387445 0 L 106.04558176729307 62.18401300104438 l -7.1171531387445 0 L 98.92842862854857 49.24625691224273 M 125.61775289884046 49.53886371372528 l 7.1171531387445 0 L 132.73490603758498 63.24683865482791 l -7.1171531387445 0 L 125.61775289884046 49.53886371372528 M 143.4106357457017 56.93618117232009 l 7.1171531387445 0 L 150.5277888844462 58.23700294735693 l -7.1171531387445 0 L 143.4106357457017 56.93618117232009 M 152.30707716913233 58.237118647950666 l 7.1171531387445 0 L 159.42423030787683 62.18007918085837 l -7.1171531387445 0 L 152.30707716913233 58.237118647950666 M 161.20351859256294 62.18007918085837 l 7.1171531387445 0 L 168.32067173130744 68.7929466141263 l -7.1171531387445 0 L 161.20351859256294 62.18007918085837 M 205.68572570971608 32.101395835102636 l 7.1171531387445 0 L 212.80287884846058 55.18620969251643 l -7.1171531387445 0 L 205.68572570971608 32.101395835102636 M 223.47860855657734 47.70269529161064 l 7.1171531387445 0 L 230.59576169532184 56.40823936323952 l -7.1171531387445 0 L 223.47860855657734 47.70269529161064 M 259.06437425029986 37.05280274275205 l 7.1171531387445 0 L 266.1815273890444 39.91951635300623 l -7.1171531387445 0 L 259.06437425029986 37.05280274275205 M 267.9608156737305 39.91963205359997 l 7.1171531387445 0 L 275.07796881247504 50.57045020720824 l -7.1171531387445 0 L 267.9608156737305 39.91963205359997 M 276.85725709716115 50.57045020720824 l 7.1171531387445 0 L 283.9744102359057 51.667754637916175 l -7.1171531387445 0 L 276.85725709716115 50.57045020720824 M 285.7536985205918 51.667754637916175 l 7.1171531387445 0 L 292.8708516593363 63.4466535801582 l -7.1171531387445 0 L 285.7536985205918 51.667754637916175 M 294.65013994402244 63.44676928075194 l 7.1171531387445 0 L 301.76729308276697 71.16596579103688 l -7.1171531387445 0 L 294.65013994402244 63.44676928075194 M 303.54658136745303 71.1658500904432 l 7.1171531387445 0 L 310.66373450619756 92.5725425367448 l -7.1171531387445 0 L 303.54658136745303 71.1658500904432 M 312.4430227908837 92.5725425367448 l 7.1171531387445 0 L 319.5601759296282 139.86076359152233 l -7.1171531387445 0 L 312.4430227908837 92.5725425367448 M 321.3394642143143 139.8855235185754 l 7.1171531387445 0 L 328.45661735305885 143.92185443060384 l -7.1171531387445 0 L 321.3394642143143 139.8855235185754 M 339.13234706117555 138.74645117353955 l 7.1171531387445 0 L 346.2495001999201 163.99706444453648 l -7.1171531387445 0 L 339.13234706117555 138.74645117353955 M 356.9252299080368 163.2160854370208 l 7.1171531387445 0 L 364.0423830467813 180.54826577537102 l -7.1171531387445 0 L 356.9252299080368 163.2160854370208 M 374.7181127548981 161.99903089182715 l 7.1171531387445 0 L 381.8352658936426 162.0003035983579 l -7.1171531387445 0 L 374.7181127548981 161.99903089182715 M 392.5109956017593 160.26919131532836 l 7.1171531387445 0 L 399.62814874050383 168.77920138359397 l -7.1171531387445 0 L 392.5109956017593 160.26919131532836 M 428.0967612954818 151.3872038382978 l 7.1171531387445 0 L 435.21391443422635 156.62971343971157 l -7.1171531387445 0 L 428.0967612954818 151.3872038382978 M 436.99320271891247 156.62959773911783 l 7.1171531387445 0 L 444.110355857657 160.04878168431833 l -7.1171531387445 0 L 436.99320271891247 156.62959773911783 M 445.8896441423431 160.04866598372465 l 7.1171531387445 0 L 453.00679728108764 165.38570297019623 l -7.1171531387445 0 L 445.8896441423431 160.04866598372465 M 454.7860855657737 165.38581867078994 l 7.1171531387445 0 L 461.90323870451823 167.21701196737524 l -7.1171531387445 0 L 454.7860855657737 165.38581867078994 M 463.68252698920435 167.21712766796892 l 7.1171531387445 0 L 470.7996801279489 169.3088787015802 l -7.1171531387445 0 L 463.68252698920435 167.21712766796892 M 472.57896841263494 169.3088787015802 l 7.1171531387445 0 L 479.69612155137946 176.9730017292611 l -7.1171531387445 0 L 472.57896841263494 169.3088787015802 M 481.47540983606564 176.9730017292611 l 7.1171531387445 0 L 488.59256297481016 177.28527763167364 l -7.1171531387445 0 L 481.47540983606564 176.9730017292611 M 508.16473410635746 165.90149621693772 l 7.1171531387445 0 L 515.281887245102 166.60588143142 l -7.1171531387445 0 L 508.16473410635746 165.90149621693772 M 534.8540583766493 149.83901419391745 l 7.1171531387445 0 L 541.9712115153937 150.18889278928447 l -7.1171531387445 0 L 534.8540583766493 149.83901419391745 M 543.75049980008 150.18889278928447 l 7.1171531387445 0 L 550.8676529388244 150.2226773626466 l -7.1171531387445 0 L 543.75049980008 150.18889278928447 M 552.6469412235106 150.21897494364802 l 7.1171531387445 0 L 559.764094362255 158.66141586518938 l -7.1171531387445 0 L 552.6469412235106 150.21897494364802 M 561.5433826469413 158.6771511459334 l 7.1171531387445 0 L 568.6605357856857 169.0612794310493 l -7.1171531387445 0 L 561.5433826469413 158.6771511459334 M 570.4398240703717 169.0612794310493 l 7.1171531387445 0 L 577.5569772091162 176.4066473230701 l -7.1171531387445 0 L 570.4398240703717 169.0612794310493 M 614.9220311875249 154.80708198706054 l 7.1171531387445 0 L 622.0391843262694 159.40548638331285 l -7.1171531387445 0 L 614.9220311875249 154.80708198706054 M 641.6113554578168 129.31962960074736 l 7.1171531387445 0 L 648.7285085965613 131.34647260128955 l -7.1171531387445 0 L 641.6113554578168 129.31962960074736 M 650.5077968812475 131.34647260128955 l 7.1171531387445 0 L 657.624950019992 132.1692195231331 l -7.1171531387445 0 L 650.5077968812475 131.34647260128955 M 659.4042383046781 132.1692195231331 l 7.1171531387445 0 L 666.5213914434225 137.57660247057794 l -7.1171531387445 0 L 659.4042383046781 132.1692195231331 M 668.3006797281087 137.57660247057794 l 7.1171531387445 0 L 675.4178328668531 140.28121954905004 l -7.1171531387445 0 L 668.3006797281087 137.57660247057794 M 686.09356257497 138.82269786479185 l 7.1171531387445 0 L 693.2107157137144 153.47305414163003 l -7.1171531387445 0 L 686.09356257497 138.82269786479185 M 694.9900039984005 153.47305414163003 l 7.1171531387445 0 L 702.107157137145 154.12363858003906 l -7.1171531387445 0 L 694.9900039984005 153.47305414163003 M 721.6793282686924 124.15047417574321 l 7.1171531387445 0 L 728.7964814074369 124.9777334207413 l -7.1171531387445 0 L 721.6793282686924 124.15047417574321 M 730.5757696921231 124.93689111116308 l 7.1171531387445 0 L 737.6929228308676 126.48461795316861 l -7.1171531387445 0 L 730.5757696921231 124.93689111116308 M 739.4722111155537 126.47154378607982 l 7.1171531387445 0 L 746.5893642542982 130.53633704415995 l -7.1171531387445 0 L 739.4722111155537 126.47154378607982 M 748.3686525389844 130.5011640636733 l 7.1171531387445 0 L 755.4858056777289 130.8291752468299 l -7.1171531387445 0 L 748.3686525389844 130.5011640636733 M 757.265093962415 130.84201801273124 l 7.1171531387445 0 L 764.3822471011595 134.07133728366017 l -7.1171531387445 0 L 757.265093962415 130.84201801273124 M 766.1615353858456 134.09285759408948 l 7.1171531387445 0 L 773.27868852459 136.03153674222767 l -7.1171531387445 0 L 766.1615353858456 134.09285759408948 M 775.0579768092763 136.04842902890874 l 7.1171531387445 0 L 782.1751299480208 138.2922106426497 l -7.1171531387445 0 L 775.0579768092763 136.04842902890874 M 792.8508596561375 130.30215904249894 l 7.1171531387445 0 L 799.9680127948819 134.45985987732502 l -7.1171531387445 0 L 792.8508596561375 130.30215904249894 M 819.5401839264293 124.54698011037377 l 7.1171531387445 0 L 826.6573370651738 132.19513645612324 l -7.1171531387445 0 L 819.5401839264293 124.54698011037377 M 837.3330667732906 122.89165171622165 l 7.1171531387445 0 L 844.4502199120351 123.11911908344769 l -7.1171531387445 0 L 837.3330667732906 122.89165171622165 M 864.0223910435824 117.23377698340323 l 7.1171531387445 0 L 871.1395441823269 118.82836256585968 l -7.1171531387445 0 L 864.0223910435824 117.23377698340323 M 872.9188324670131 118.828246865266 l 7.1171531387445 0 L 880.0359856057576 121.26293445862191 l -7.1171531387445 0 L 872.9188324670131 118.828246865266 M 881.8152738904437 121.28352916430157 l 7.1171531387445 0 L 888.9324270291881 124.25437330889122 l -7.1171531387445 0 L 881.8152738904437 121.28352916430157"></path><path class="candle body equal"></path><path class="candle wick up" d="M 13.522590963614554 22.17497909868777 L 13.522590963614554 41.171743878686584 M 13.522590963614554 52.08080575744671 L 13.522590963614554 56.058939270840995 M 40.21191523390643 40.404996044196764 L 40.21191523390643 61.188525092797704 M 40.21191523390643 64.16561706944745 L 40.21191523390643 67.38290347863096 M 49.10835665733706 48.967996984379766 L 49.10835665733706 51.936064314720454 M 49.10835665733706 61.188525092797704 L 49.10835665733706 68.79063260225217 M 58.004798080767685 36.047364583446665 L 58.004798080767685 37.564315067526366 M 58.004798080767685 51.936064314720454 L 58.004798080767685 58.95608213723992 M 75.79768092762893 43.81816355852453 L 75.79768092762893 47.791784748764286 M 75.79768092762893 54.397363044628776 L 75.79768092762893 59.298787295797155 M 93.5905637744902 46.63188629686138 L 93.5905637744902 49.24614121164905 M 93.5905637744902 67.80335943615862 L 93.5905637744902 68.08046235808456 M 111.38344662135144 56.91766907732713 L 111.38344662135144 59.36034001164876 M 111.38344662135144 62.18401300104438 L 111.38344662135144 65.11968416514736 M 120.27988804478207 47.29357799226614 L 120.27988804478207 49.538748013131595 M 120.27988804478207 59.36022431105508 L 120.27988804478207 61.55807278909472 M 138.07277089164333 54.72306021591123 L 138.07277089164333 56.93618117232009 M 138.07277089164333 63.24695435542162 L 138.07277089164333 68.33940028679865 M 173.65853658536582 61.4320748425489 L 173.65853658536582 64.14722067504817 M 173.65853658536582 68.79283091353255 L 173.65853658536582 70.87324328896065 M 182.55497800879647 57.70906113827638 L 182.55497800879647 59.093765843750106 M 182.55497800879647 64.14722067504817 L 182.55497800879647 66.37006048132841 M 191.4514194322271 27.230979343047437 L 191.4514194322271 32.87462290284 M 191.4514194322271 59.093765843750106 L 191.4514194322271 61.043089446509214 M 200.34786085565773 25.183078834450754 L 200.34786085565773 32.10151153569632 M 200.34786085565773 32.87450720224629 L 200.34786085565773 39.055464319209676 M 218.14074370251896 44.967880358181304 L 218.14074370251896 47.70281099220438 M 218.14074370251896 55.186093991922746 L 218.14074370251896 57.63073183633739 M 235.93362654938022 53.06831032472763 L 235.93362654938022 54.512716536553654 M 235.93362654938022 56.40823936323952 L 235.93362654938022 58.8982318403869 M 244.83006797281087 50.75291004348264 L 244.83006797281087 53.874396361077544 M 244.83006797281087 54.51283223714739 L 244.83006797281087 58.36114968440356 M 253.72650939624148 32.51109163741569 L 253.72650939624148 37.05280274275205 M 253.72650939624148 53.874512061671226 L 253.72650939624148 54.20969668163761 M 333.7944822071172 136.24407873286563 L 333.7944822071172 138.74645117353955 M 333.7944822071172 143.92173873001016 L 333.7944822071172 167.3487949436064 M 351.5873650539784 152.8421388041511 L 351.5873650539784 163.2160854370208 M 351.5873650539784 164.00527918668965 L 351.5873650539784 165.7863741262002 M 369.38024790083966 159.19965502710983 L 369.38024790083966 161.99903089182715 M 369.38024790083966 180.54826577537102 L 369.38024790083966 192.23842236224053 M 387.1731307477009 148.7050326750047 L 387.1731307477009 160.26907561473462 M 387.1731307477009 162.0001878977642 L 387.1731307477009 164.6092362858351 M 404.9660135945622 154.37436176659997 L 404.9660135945622 155.79597496146593 M 404.9660135945622 168.7790856830003 L 404.9660135945622 169.9121415971634 M 413.86245501799283 150.60934874681217 L 413.86245501799283 154.32009818815186 M 413.86245501799283 155.79609066205967 L 413.86245501799283 160.11635083104267 M 422.7588964414235 149.9603841167151 L 422.7588964414235 151.3870881377041 M 422.7588964414235 154.32021388874557 L 422.7588964414235 158.1505977439773 M 493.93042782886846 172.7171867909723 L 493.93042782886846 176.55613249013825 M 493.93042782886846 177.28516193107995 L 493.93042782886846 182.7441473433177 M 502.82686925229905 164.54432825276604 L 502.82686925229905 165.90149621693772 M 502.82686925229905 176.55613249013825 L 502.82686925229905 179.57036435736768 M 520.6197520991603 160.82790948233472 L 520.6197520991603 162.1088307552542 M 520.6197520991603 166.6057657308263 L 520.6197520991603 171.40259664528443 M 529.5161935225909 147.37331884144834 L 529.5161935225909 149.83912989451116 M 529.5161935225909 162.1088307552542 L 529.5161935225909 165.72829242815976 M 582.8948420631747 164.39854550469641 L 582.8948420631747 165.92278512617963 M 582.8948420631747 176.3773750728625 L 582.8948420631747 181.2407338287016 M 591.7912834866053 158.22719153701067 L 591.7912834866053 161.8273312107674 M 591.7912834866053 165.92278512617963 L 591.7912834866053 173.08233786470853 M 600.687724910036 154.75617372582988 L 600.687724910036 159.036632890578 M 600.687724910036 161.8273312107674 L 600.687724910036 164.21712697376535 M 609.5841663334666 150.2561148342277 L 609.5841663334666 154.80708198706054 M 609.5841663334666 159.036632890578 L 609.5841663334666 163.10269885518892 M 627.3770491803277 136.502900960986 L 627.3770491803277 140.49514994681243 M 627.3770491803277 159.38905689900656 L 627.3770491803277 159.81865320343707 M 636.2734906037584 124.67401936226298 L 636.2734906037584 129.34114991117667 M 636.2734906037584 140.49514994681243 L 636.2734906037584 150.36487339231132 M 680.7556977209116 133.76068118955948 L 680.7556977209116 138.79319421339682 M 680.7556977209116 140.3100289968828 L 680.7556977209116 142.52488546219726 M 707.4450219912034 132.62693107183412 L 707.4450219912034 134.48022318181725 M 707.4450219912034 154.12363858003906 L 707.4450219912034 156.57811097491867 M 716.3414634146341 120.04923523064568 L 716.3414634146341 124.17731671348301 M 716.3414634146341 134.4587028713879 L 716.3414634146341 138.76484756793883 M 787.512994802079 128.45904858476194 L 787.512994802079 130.31534891018146 M 787.512994802079 138.29880557649096 L 787.512994802079 138.70907988177254 M 805.3058776489403 129.27890299176283 L 805.3058776489403 131.91236420510572 M 805.3058776489403 134.45985987732502 L 805.3058776489403 135.72782268374937 M 814.202319072371 119.5253429423448 L 814.202319072371 124.55831876855696 M 814.202319072371 131.91236420510572 L 814.202319072371 132.14538520082965 M 831.9952019192323 119.74517407038626 L 831.9952019192323 122.89165171622165 M 831.9952019192323 132.1792854747855 L 831.9952019192323 137.8096234663019 M 849.7880847660936 117.07827538546233 L 849.7880847660936 117.68940592141757 M 849.7880847660936 123.13416016062946 L 849.7880847660936 127.18472224568376 M 858.6845261895241 112.0857947670473 L 858.6845261895241 117.25321468314584 M 858.6845261895241 117.71231463897136 L 858.6845261895241 118.99057479823554" style="stroke-width: 1px;"></path><path class="candle wick down" d="M 4.626149540183927 3.846153846153868 L 4.626149540183927 6.215239202878507 M 4.626149540183927 52.05674003395583 L 4.626149540183927 52.55402118570433 M 22.41903238704518 27.918356570254957 L 22.41903238704518 41.171628178092845 M 22.41903238704518 63.30711866414876 L 22.41903238704518 78.56733277041141 M 31.315473810475808 50.12812683747009 L 31.315473810475808 63.30711866414876 M 31.315473810475808 64.16550136885374 L 31.315473810475808 91.1208471875153 M 66.90123950419832 37.564199366932655 L 66.90123950419832 37.564315067526366 M 66.90123950419832 54.397363044628776 L 66.90123950419832 63.50265266751191 M 84.69412235105956 44.72502481199234 L 84.69412235105956 47.791784748764286 M 84.69412235105956 67.80347513675235 L 84.69412235105956 68.5075132494535 M 102.48700519792082 43.94589701397595 L 102.48700519792082 49.24625691224273 M 102.48700519792082 62.18401300104438 L 102.48700519792082 67.63362666519191 M 129.1763294682127 45.18181075594376 L 129.1763294682127 49.53886371372528 M 129.1763294682127 63.24683865482791 L 129.1763294682127 66.05604907001026 M 146.96921231507397 50.350966180947864 L 146.96921231507397 56.93618117232009 M 146.96921231507397 58.23700294735693 L 146.96921231507397 61.10568346770421 M 155.8656537385046 54.25123319477808 L 155.8656537385046 58.237118647950666 M 155.8656537385046 62.18007918085837 L 155.8656537385046 75.85345964444284 M 164.7620951619352 59.908760825815335 L 164.7620951619352 62.18007918085837 M 164.7620951619352 68.7929466141263 L 164.7620951619352 72.80660020978833 M 209.24430227908834 29.996570634402588 L 209.24430227908834 32.101395835102636 M 209.24430227908834 55.18620969251643 L 209.24430227908834 61.02712276457777 M 227.0371851259496 44.852179764475295 L 227.0371851259496 47.70269529161064 M 227.0371851259496 56.40823936323952 L 227.0371851259496 61.24278867124582 M 262.6229508196721 34.54788488901656 L 262.6229508196721 37.05280274275205 M 262.6229508196721 39.91951635300623 L 262.6229508196721 61.97633043534202 M 271.51939224310274 37.583637066675266 L 271.51939224310274 39.91963205359997 M 271.51939224310274 50.57045020720824 L 271.51939224310274 54.74596893346501 M 280.4158336665334 44.8406097051047 L 280.4158336665334 50.57045020720824 M 280.4158336665334 51.667754637916175 L 280.4158336665334 53.586417583343234 M 289.31227508996403 48.510632537459855 L 289.31227508996403 51.667754637916175 M 289.31227508996403 63.4466535801582 L 289.31227508996403 66.24521954071957 M 298.2087165133947 59.41414078772206 L 298.2087165133947 63.44676928075194 M 298.2087165133947 71.16596579103688 L 298.2087165133947 74.92287976926526 M 307.10515793682526 69.77455045112825 L 307.10515793682526 71.1658500904432 M 307.10515793682526 92.5725425367448 L 307.10515793682526 92.74065549939967 M 316.0015993602559 88.85496676037647 L 316.0015993602559 92.5725425367448 M 316.0015993602559 139.86076359152233 L 316.0015993602559 146.35897173642758 M 324.89804078368655 129.7315237143408 L 324.89804078368655 139.8855235185754 M 324.89804078368655 143.92185443060384 L 324.89804078368655 158.85197474302322 M 342.6909236305478 133.9794710122576 L 342.6909236305478 138.74645117353955 M 342.6909236305478 163.99706444453648 L 342.6909236305478 165.95599119657325 M 360.483806477409 159.4760637454735 L 360.483806477409 163.2160854370208 M 360.483806477409 180.54826577537102 L 360.483806477409 196.15384615384616 M 378.2766893242703 156.02888025659615 L 378.2766893242703 161.99903089182715 M 378.2766893242703 162.0003035983579 L 378.2766893242703 172.8398294203007 M 396.06957217113154 158.22719153701067 L 396.06957217113154 160.26919131532836 M 396.06957217113154 168.77920138359397 L 396.06957217113154 171.2954578955127 M 431.65533786485406 146.79597287885525 L 431.65533786485406 151.3872038382978 M 431.65533786485406 156.62971343971157 L 431.65533786485406 157.47826159395157 M 440.5517792882847 150.82408904873057 L 440.5517792882847 156.62959773911783 M 440.5517792882847 160.04878168431833 L 440.5517792882847 162.7395146915457 M 449.44822071171535 154.6161760074456 L 449.44822071171535 160.04866598372465 M 449.44822071171535 165.38570297019623 L 449.44822071171535 166.30297727709763 M 458.34466213514594 163.6383926040478 L 458.34466213514594 165.38581867078994 M 458.34466213514594 167.21701196737524 L 458.34466213514594 170.3188291840401 M 467.2411035585766 166.56827873846552 L 467.2411035585766 167.21712766796892 M 467.2411035585766 169.3088787015802 L 467.2411035585766 184.53750654576112 M 476.13754498200717 158.01488094756013 L 476.13754498200717 169.3088787015802 M 476.13754498200717 176.9730017292611 L 476.13754498200717 180.49955582542077 M 485.0339864054379 174.80257429192974 L 485.0339864054379 176.9730017292611 M 485.0339864054379 177.28527763167364 L 485.0339864054379 180.4763000060859 M 511.7233106757297 159.96270044260106 L 511.7233106757297 165.90149621693772 M 511.7233106757297 166.60588143142 L 511.7233106757297 176.68837826874426 M 538.4126349460215 139.39842401907305 L 538.4126349460215 149.83901419391745 M 538.4126349460215 150.18889278928447 L 538.4126349460215 154.88043616347016 M 547.3090763694522 145.7315274167598 L 547.3090763694522 150.18889278928447 M 547.3090763694522 150.2226773626466 L 547.3090763694522 153.3432380754919 M 556.2055177928828 150.03963902340368 L 556.2055177928828 150.21897494364802 M 556.2055177928828 158.66141586518938 L 556.2055177928828 161.06185608280833 M 565.1019592163135 158.59187980837208 L 565.1019592163135 158.6771511459334 M 565.1019592163135 169.0612794310493 L 565.1019592163135 170.08384127822316 M 573.998400639744 167.95275204275185 L 573.998400639744 169.0612794310493 M 573.998400639744 176.4066473230701 L 573.998400639744 177.4334900922111 M 618.4806077568971 149.15001715839807 L 618.4806077568971 154.80708198706054 M 618.4806077568971 159.40548638331285 L 618.4806077568971 159.96258474200738 M 645.169932027189 119.15810925792185 L 645.169932027189 129.31962960074736 M 645.169932027189 131.34647260128955 L 645.169932027189 135.01545412830134 M 654.0663734506197 128.80719167122336 L 654.0663734506197 131.34647260128955 M 654.0663734506197 132.1692195231331 L 654.0663734506197 141.54941375666178 M 662.9628148740503 125.17743264547788 L 662.9628148740503 132.1692195231331 M 662.9628148740503 137.57660247057794 L 662.9628148740503 139.71509654404642 M 671.8592562974809 133.92115791302973 L 671.8592562974809 137.57660247057794 M 671.8592562974809 140.28121954905004 L 671.8592562974809 146.25715521396629 M 689.6521391443422 137.79446668852637 L 689.6521391443422 138.82269786479185 M 689.6521391443422 153.47305414163003 L 689.6521391443422 154.17767075729975 M 698.5485805677728 153.04588754966738 L 698.5485805677728 153.47305414163003 M 698.5485805677728 154.12363858003906 L 698.5485805677728 160.4659980252223 M 725.2379048380647 117.23840500715148 L 725.2379048380647 124.15047417574321 M 725.2379048380647 124.9777334207413 L 725.2379048380647 129.1397151775345 M 734.1343462614954 114.63120782857989 L 734.1343462614954 124.93689111116308 M 734.1343462614954 126.48461795316861 L 734.1343462614954 128.11900453985993 M 743.0307876849259 120.10592852156165 L 743.0307876849259 126.47154378607982 M 743.0307876849259 130.53633704415995 L 743.0307876849259 131.3000766632134 M 751.9272291083566 128.03303899873634 L 751.9272291083566 130.5011640636733 M 751.9272291083566 130.8291752468299 L 751.9272291083566 135.6655757643355 M 760.8236705317872 128.60911225479865 L 760.8236705317872 130.84201801273124 M 760.8236705317872 134.07133728366017 L 760.8236705317872 137.9290264790065 M 769.7201119552178 126.43637080559319 L 769.7201119552178 134.09285759408948 M 769.7201119552178 136.03153674222767 L 769.7201119552178 137.6183703849058 M 778.6165533786485 131.34624120010213 L 778.6165533786485 136.04842902890874 M 778.6165533786485 138.2922106426497 L 778.6165533786485 140.8721024811067 M 796.4094362255097 129.8301006201783 L 796.4094362255097 130.30215904249894 M 796.4094362255097 134.45985987732502 L 796.4094362255097 134.97692583059722 M 823.0987604958016 123.13230895113017 L 823.0987604958016 124.54698011037377 M 823.0987604958016 132.19513645612324 L 823.0987604958016 135.49202487377647 M 840.8916433426629 111.73244515386908 L 840.8916433426629 122.89165171622165 M 840.8916433426629 123.11911908344769 L 840.8916433426629 124.07087216727345 M 867.5809676129546 110.23967609387391 L 867.5809676129546 117.23377698340323 M 867.5809676129546 118.82836256585968 L 867.5809676129546 120.69391893877567 M 876.4774090363853 108.34496317134405 L 876.4774090363853 118.828246865266 M 876.4774090363853 121.26293445862191 L 876.4774090363853 124.9838655522077 M 885.3738504598159 119.49653349451198 L 885.3738504598159 121.28352916430157 M 885.3738504598159 124.25437330889122 L 885.3738504598159 126.16401160800918" style="stroke-width: 1px;"></path><path class="candle wick equal" style="stroke-width: 1px;"></path></g></g><g class="x axis" transform="translate(0,200)" fill="none" font-size="10" font-family="sans-serif" text-anchor="middle"><path class="domain" stroke="#000" d="M0.5,6V0.5H890.5V6"></path><g class="tick" opacity="1" transform="translate(4.626149540183927,0)"><line stroke="#000" y2="6" x1="0.5" x2="0.5"></line><text fill="#000" y="9" x="0.5" dy="0.71em">May  9</text></g><g class="tick" opacity="1" transform="translate(66.90123950419832,0)"><line stroke="#000" y2="6" x1="0.5" x2="0.5"></line><text fill="#000" y="9" x="0.5" dy="0.71em">May 16</text></g><g class="tick" opacity="1" transform="translate(129.1763294682127,0)"><line stroke="#000" y2="6" x1="0.5" x2="0.5"></line><text fill="#000" y="9" x="0.5" dy="0.71em">May 23</text></g><g class="tick" opacity="1" transform="translate(191.4514194322271,0)"><line stroke="#000" y2="6" x1="0.5" x2="0.5"></line><text fill="#000" y="9" x="0.5" dy="0.71em">May 30</text></g><g class="tick" opacity="1" transform="translate(253.72650939624148,0)"><line stroke="#000" y2="6" x1="0.5" x2="0.5"></line><text fill="#000" y="9" x="0.5" dy="0.71em">Jun  6</text></g><g class="tick" opacity="1" transform="translate(316.0015993602559,0)"><line stroke="#000" y2="6" x1="0.5" x2="0.5"></line><text fill="#000" y="9" x="0.5" dy="0.71em">Jun 13</text></g><g class="tick" opacity="1" transform="translate(378.2766893242703,0)"><line stroke="#000" y2="6" x1="0.5" x2="0.5"></line><text fill="#000" y="9" x="0.5" dy="0.71em">Jun 20</text></g><g class="tick" opacity="1" transform="translate(440.5517792882847,0)"><line stroke="#000" y2="6" x1="0.5" x2="0.5"></line><text fill="#000" y="9" x="0.5" dy="0.71em">Jun 27</text></g><g class="tick" opacity="1" transform="translate(502.82686925229905,0)"><line stroke="#000" y2="6" x1="0.5" x2="0.5"></line><text fill="#000" y="9" x="0.5" dy="0.71em">Jul  4</text></g><g class="tick" opacity="1" transform="translate(565.1019592163135,0)"><line stroke="#000" y2="6" x1="0.5" x2="0.5"></line><text fill="#000" y="9" x="0.5" dy="0.71em">Jul 11</text></g><g class="tick" opacity="1" transform="translate(627.3770491803277,0)"><line stroke="#000" y2="6" x1="0.5" x2="0.5"></line><text fill="#000" y="9" x="0.5" dy="0.71em">Jul 18</text></g><g class="tick" opacity="1" transform="translate(689.6521391443422,0)"><line stroke="#000" y2="6" x1="0.5" x2="0.5"></line><text fill="#000" y="9" x="0.5" dy="0.71em">Jul 25</text></g><g class="tick" opacity="1" transform="translate(751.9272291083566,0)"><line stroke="#000" y2="6" x1="0.5" x2="0.5"></line><text fill="#000" y="9" x="0.5" dy="0.71em">Aug  1</text></g><g class="tick" opacity="1" transform="translate(814.202319072371,0)"><line stroke="#000" y2="6" x1="0.5" x2="0.5"></line><text fill="#000" y="9" x="0.5" dy="0.71em">Aug  8</text></g><g class="tick" opacity="1" transform="translate(876.4774090363853,0)"><line stroke="#000" y2="6" x1="0.5" x2="0.5"></line><text fill="#000" y="9" x="0.5" dy="0.71em">Aug 15</text></g></g><g class="y axis" fill="none" font-size="10" font-family="sans-serif" text-anchor="end"><path class="domain" stroke="#000" d="M-6,200.5H0.5V0.5H-6"></path><g class="tick" opacity="1" transform="translate(0,191.78036371175835)"><line stroke="#000" x2="-6" y1="0.5" y2="0.5"></line><text fill="#000" x="-9" y="0.5" dy="0.32em">18,000</text></g><g class="tick" opacity="1" transform="translate(0,168.64024497055306)"><line stroke="#000" x2="-6" y1="0.5" y2="0.5"></line><text fill="#000" x="-9" y="0.5" dy="0.32em">20,000</text></g><g class="tick" opacity="1" transform="translate(0,145.50012622934776)"><line stroke="#000" x2="-6" y1="0.5" y2="0.5"></line><text fill="#000" x="-9" y="0.5" dy="0.32em">22,000</text></g><g class="tick" opacity="1" transform="translate(0,122.36000748814246)"><line stroke="#000" x2="-6" y1="0.5" y2="0.5"></line><text fill="#000" x="-9" y="0.5" dy="0.32em">24,000</text></g><g class="tick" opacity="1" transform="translate(0,99.21988874693714)"><line stroke="#000" x2="-6" y1="0.5" y2="0.5"></line><text fill="#000" x="-9" y="0.5" dy="0.32em">26,000</text></g><g class="tick" opacity="1" transform="translate(0,76.07977000573185)"><line stroke="#000" x2="-6" y1="0.5" y2="0.5"></line><text fill="#000" x="-9" y="0.5" dy="0.32em">28,000</text></g><g class="tick" opacity="1" transform="translate(0,52.93965126452653)"><line stroke="#000" x2="-6" y1="0.5" y2="0.5"></line><text fill="#000" x="-9" y="0.5" dy="0.32em">30,000</text></g><g class="tick" opacity="1" transform="translate(0,29.799532523321233)"><line stroke="#000" x2="-6" y1="0.5" y2="0.5"></line><text fill="#000" x="-9" y="0.5" dy="0.32em">32,000</text></g><g class="tick" opacity="1" transform="translate(0,6.659413782115905)"><line stroke="#000" x2="-6" y1="0.5" y2="0.5"></line><text fill="#000" x="-9" y="0.5" dy="0.32em">34,000</text></g><text transform="rotate(-90)" y="6" dy=".71em" style="text-anchor: end;">Price ($)</text></g></g></svg>