<?xml version="1.0" encoding="utf-8"?>
<!DOCTYPE svg PUBLIC "-//W3C//DTD SVG 1.1//EN" "http://www.w3.org/Graphics/SVG/1.1/DTD/svg11.dtd">
<svg version="1.1" xmlns="http://www.w3.org/2000/svg" width="960" height="250"><g transform="translate(50,20)"><style>.axis path,.axis line{fill:none;stroke:#000;shape-rendering:crispEdges;}path.candle{stroke:#000000;}path.candle.body{stroke-width:0;}path.candle.up{fill:#00AA00;stroke:#00AA00;}path.candle.down{fill:#FF0000;stroke:#FF0000;}</style><g class="candlestick"><g class="data"><path class="candle body up" d="M 18.860455817672932 87.24500139036687 l 7.1171531387445 0 L 25.977608956417434 85.81887424751835 l -7.1171531387445 0 L 18.860455817672932 87.24500139036687 M 27.75689724110356 85.81887424751835 l 7.1171531387445 0 L 34.87405037984806 83.49093511481614 l -7.1171531387445 0 L 27.75689724110356 85.81887424751835 M 45.54978008796481 84.02142016274318 l 7.1171531387445 0 L 52.66693322670931 72.60333705189119 l -7.1171531387445 0 L 45.54978008796481 84.02142016274318 M 54.446221511395436 72.60333705189119 l 7.1171531387445 0 L 61.563374650139934 57.82870518182017 l -7.1171531387445 0 L 54.446221511395436 72.60333705189119 M 72.23910435825668 74.75574896958975 l 7.1171531387445 0 L 79.35625749700118 68.43966530259101 l -7.1171531387445 0 L 72.23910435825668 74.75574896958975 M 81.13554578168731 68.43966530259101 l 7.1171531387445 0 L 88.25269892043181 68.13331113178484 l -7.1171531387445 0 L 81.13554578168731 68.43966530259101 M 107.82487005197919 79.2474324800696 l 7.1171531387445 0 L 114.94202319072369 77.35251923861375 l -7.1171531387445 0 L 107.82487005197919 79.2474324800696 M 152.30707716913233 169.02834379218666 l 7.1171531387445 0 L 159.42423030787683 154.25673391147006 l -7.1171531387445 0 L 152.30707716913233 169.02834379218666 M 161.20351859256294 154.25673391147006 l 7.1171531387445 0 L 168.32067173130744 149.0211373549061 l -7.1171531387445 0 L 161.20351859256294 154.25673391147006 M 170.09996001599356 149.0211373549061 l 7.1171531387445 0 L 177.21711315473806 145.2692116551481 l -7.1171531387445 0 L 170.09996001599356 149.0211373549061 M 187.89284286285485 147.1715539537669 l 7.1171531387445 0 L 195.00999600159935 142.72847410540427 l -7.1171531387445 0 L 187.89284286285485 147.1715539537669 M 196.78928428628546 142.72834818918113 l 7.1171531387445 0 L 203.90643742502996 135.72173995469333 l -7.1171531387445 0 L 196.78928428628546 142.72834818918113 M 205.68572570971608 135.7216140384702 l 7.1171531387445 0 L 212.80287884846058 130.05198426087506 l -7.1171531387445 0 L 205.68572570971608 135.7216140384702 M 223.47860855657734 133.6417298652782 l 7.1171531387445 0 L 230.59576169532184 126.27374207048877 l -7.1171531387445 0 L 223.47860855657734 133.6417298652782 M 232.37504998000796 126.27374207048877 l 7.1171531387445 0 L 239.49220311875246 123.40675558668877 l -7.1171531387445 0 L 232.37504998000796 126.27374207048877 M 250.16793282686922 146.04926265726237 l 7.1171531387445 0 L 257.28508596561375 140.82071740919207 l -7.1171531387445 0 L 250.16793282686922 146.04926265726237 M 259.06437425029986 140.8160585089373 l 7.1171531387445 0 L 266.1815273890444 87.14716448501696 l -7.1171531387445 0 L 259.06437425029986 140.8160585089373 M 276.85725709716115 89.5603489007589 l 7.1171531387445 0 L 283.9744102359057 76.99051009719669 l -7.1171531387445 0 L 276.85725709716115 89.5603489007589 M 285.7536985205918 76.99051009719669 l 7.1171531387445 0 L 292.8708516593363 58.6178221519979 l -7.1171531387445 0 L 285.7536985205918 76.99051009719669 M 294.65013994402244 58.6178221519979 l 7.1171531387445 0 L 301.76729308276697 56.061722823035666 l -7.1171531387445 0 L 294.65013994402244 58.6178221519979 M 303.54658136745303 56.061596906812525 l 7.1171531387445 0 L 310.66373450619756 51.90988719870697 l -7.1171531387445 0 L 303.54658136745303 56.061596906812525 M 348.02878848460614 81.11074074952684 l 7.1171531387445 0 L 355.14594162335067 75.03792722556035 l -7.1171531387445 0 L 348.02878848460614 81.11074074952684 M 356.9252299080368 75.03792722556035 l 7.1171531387445 0 L 364.0423830467813 49.74236533423624 l -7.1171531387445 0 L 356.9252299080368 75.03792722556035 M 392.5109956017593 107.29124185680898 l 7.1171531387445 0 L 399.62814874050383 105.97264716848915 l -7.1171531387445 0 L 392.5109956017593 107.29124185680898 M 419.20031987205124 144.64164519920973 l 7.1171531387445 0 L 426.31747301079577 129.252542160403 l -7.1171531387445 0 L 419.20031987205124 144.64164519920973 M 436.99320271891247 141.5962354272748 l 7.1171531387445 0 L 444.110355857657 128.03266579099488 l -7.1171531387445 0 L 436.99320271891247 141.5962354272748 M 445.8896441423431 128.01415610619893 l 7.1171531387445 0 L 453.00679728108764 116.80144235522567 l -7.1171531387445 0 L 445.8896441423431 128.01415610619893 M 472.57896841263494 135.94184151267484 l 7.1171531387445 0 L 479.69612155137946 67.17999940668273 l -7.1171531387445 0 L 472.57896841263494 135.94184151267484 M 481.47540983606564 67.17999940668273 l 7.1171531387445 0 L 488.59256297481016 51.29944534911053 l -7.1171531387445 0 L 481.47540983606564 67.17999940668273 M 517.0611755297881 117.68940356053803 l 7.1171531387445 0 L 524.1783286685326 114.55018620239238 l -7.1171531387445 0 L 517.0611755297881 117.68940356053803 M 543.75049980008 132.3037440786007 l 7.1171531387445 0 L 550.8676529388244 122.95295351863065 l -7.1171531387445 0 L 543.75049980008 132.3037440786007 M 552.6469412235106 122.95295351863065 l 7.1171531387445 0 L 559.764094362255 82.52024695092604 l -7.1171531387445 0 L 552.6469412235106 122.95295351863065 M 579.3362654938024 122.96630063827939 l 7.1171531387445 0 L 586.4534186325469 121.98679833877213 l -7.1171531387445 0 L 579.3362654938024 122.96630063827939 M 597.1291483406637 134.95629523445876 l 7.1171531387445 0 L 604.2463014794082 111.10751074657183 l -7.1171531387445 0 L 597.1291483406637 134.95629523445876 M 614.9220311875249 116.03133873473632 l 7.1171531387445 0 L 622.0391843262694 92.94245865326754 l -7.1171531387445 0 L 614.9220311875249 116.03133873473632 M 632.7149140343862 95.41180170451278 l 7.1171531387445 0 L 639.8320671731307 84.83962378045725 l -7.1171531387445 0 L 632.7149140343862 95.41180170451278 M 641.6113554578168 84.83962378045725 l 7.1171531387445 0 L 648.7285085965613 79.25372829122468 l -7.1171531387445 0 L 641.6113554578168 84.83962378045725 M 668.3006797281087 94.34944653020465 l 7.1171531387445 0 L 675.4178328668531 77.2012938546688 l -7.1171531387445 0 L 668.3006797281087 94.34944653020465 M 677.1971211515394 77.2012938546688 l 7.1171531387445 0 L 684.3142742902838 70.67090077595111 l -7.1171531387445 0 L 677.1971211515394 77.2012938546688 M 686.09356257497 70.67090077595111 l 7.1171531387445 0 L 693.2107157137144 56.710569120678144 l -7.1171531387445 0 L 686.09356257497 70.67090077595111 M 694.9900039984005 56.710569120678144 l 7.1171531387445 0 L 702.107157137145 52.65984422349999 l -7.1171531387445 0 L 694.9900039984005 56.710569120678144 M 703.8864454218311 52.65984422349999 l 7.1171531387445 0 L 711.0035985605756 50.16531792763453 l -7.1171531387445 0 L 703.8864454218311 52.65984422349999 M 712.7828868452618 50.16531792763453 l 7.1171531387445 0 L 719.9000399840063 20.99695076237481 l -7.1171531387445 0 L 712.7828868452618 50.16531792763453 M 721.6793282686924 20.99695076237481 l 7.1171531387445 0 L 728.7964814074369 17.289347573148603 l -7.1171531387445 0 L 721.6793282686924 20.99695076237481 M 730.5757696921231 17.289347573148603 l 7.1171531387445 0 L 737.6929228308676 13.353332355215997 l -7.1171531387445 0 L 730.5757696921231 17.289347573148603 M 757.265093962415 37.58527991000108 l 7.1171531387445 0 L 764.3822471011595 27.85019303712494 l -7.1171531387445 0 L 757.265093962415 37.58527991000108 M 775.0579768092763 33.799734578674986 l 7.1171531387445 0 L 782.1751299480208 26.29059469778869 l -7.1171531387445 0 L 775.0579768092763 33.799734578674986 M 783.9544182327068 26.29046878156555 l 7.1171531387445 0 L 791.0715713714512 24.11022937856154 l -7.1171531387445 0 L 783.9544182327068 26.29046878156555 M 810.6437425029987 67.04816512109534 l 7.1171531387445 0 L 817.7608956417432 63.601586262358666 l -7.1171531387445 0 L 810.6437425029987 67.04816512109534 M 828.43662534986 78.61294063186071 l 7.1171531387445 0 L 835.5537784886045 72.29257581327646 l -7.1171531387445 0 L 828.43662534986 78.61294063186071 M 855.1259496201519 112.88192216251947 l 7.1171531387445 0 L 862.2431027588964 106.02590973086107 l -7.1171531387445 0 L 855.1259496201519 112.88192216251947 M 864.0223910435824 106.02578381463803 l 7.1171531387445 0 L 871.1395441823269 92.51698773540727 l -7.1171531387445 0 L 864.0223910435824 106.02578381463803 M 881.8152738904437 107.69518110051881 l 7.1171531387445 0 L 888.9324270291881 101.2669060787366 l -7.1171531387445 0 L 881.8152738904437 107.69518110051881"></path><path class="candle body down" d="M 1.0675729708116766 63.514074487303105 l 7.1171531387445 0 L 8.184726109556177 68.15824254395898 l -7.1171531387445 0 L 1.0675729708116766 63.514074487303105 M 9.964014394242305 68.158368460182 l 7.1171531387445 0 L 17.081167532986804 87.24500139036687 l -7.1171531387445 0 L 9.964014394242305 68.158368460182 M 36.65333866453418 83.49093511481614 l 7.1171531387445 0 L 43.77049180327868 84.02142016274318 l -7.1171531387445 0 L 36.65333866453418 83.49093511481614 M 63.342662934826066 57.82883109804328 l 7.1171531387445 0 L 70.45981607357056 74.73358771432383 l -7.1171531387445 0 L 63.342662934826066 57.82883109804328 M 90.03198720511796 68.13331113178484 l 7.1171531387445 0 L 97.14914034386246 68.2923433215621 l -7.1171531387445 0 L 90.03198720511796 68.13331113178484 M 98.92842862854857 68.2923433215621 l 7.1171531387445 0 L 106.04558176729307 79.24755839629263 l -7.1171531387445 0 L 98.92842862854857 68.2923433215621 M 116.72131147540982 77.35251923861375 l 7.1171531387445 0 L 123.83846461415432 86.06730695569773 l -7.1171531387445 0 L 116.72131147540982 77.35251923861375 M 125.61775289884046 86.06743287192084 l 7.1171531387445 0 L 132.73490603758498 98.39576435957416 l -7.1171531387445 0 L 125.61775289884046 86.06743287192084 M 134.51419432227107 98.3956384433511 l 7.1171531387445 0 L 141.63134746101557 151.72883981648266 l -7.1171531387445 0 L 134.51419432227107 98.3956384433511 M 143.4106357457017 151.72883981648266 l 7.1171531387445 0 L 150.5277888844462 169.02834379218666 l -7.1171531387445 0 L 143.4106357457017 151.72883981648266 M 178.9964014394242 145.2692116551481 l 7.1171531387445 0 L 186.1135545781687 147.1451115469156 l -7.1171531387445 0 L 178.9964014394242 145.2692116551481 M 214.5821671331467 130.0521101770981 l 7.1171531387445 0 L 221.6993202718912 133.64160394905505 l -7.1171531387445 0 L 214.5821671331467 130.0521101770981 M 241.2714914034386 123.40675558668877 l 7.1171531387445 0 L 248.3886445421831 146.04938857348552 l -7.1171531387445 0 L 241.2714914034386 123.40675558668877 M 267.9608156737305 87.1792731219079 l 7.1171531387445 0 L 275.07796881247504 89.56047481698204 l -7.1171531387445 0 L 267.9608156737305 87.1792731219079 M 312.4430227908837 51.91001311493008 l 7.1171531387445 0 L 319.5601759296282 62.956265618963045 l -7.1171531387445 0 L 312.4430227908837 51.91001311493008 M 321.3394642143143 62.956265618963045 l 7.1171531387445 0 L 328.45661735305885 77.0804142804912 l -7.1171531387445 0 L 321.3394642143143 62.956265618963045 M 330.23590563774496 77.0804142804912 l 7.1171531387445 0 L 337.3530587764895 79.04294453375256 l -7.1171531387445 0 L 330.23590563774496 77.0804142804912 M 339.13234706117555 79.04294453375256 l 7.1171531387445 0 L 346.2495001999201 81.11061483330371 l -7.1171531387445 0 L 339.13234706117555 79.04294453375256 M 365.8216713314674 49.74249125045938 l 7.1171531387445 0 L 372.93882447021196 58.19512139104586 l -7.1171531387445 0 L 365.8216713314674 49.74249125045938 M 374.7181127548981 58.19512139104586 l 7.1171531387445 0 L 381.8352658936426 100.47602628143557 l -7.1171531387445 0 L 374.7181127548981 58.19512139104586 M 383.61455417832866 100.47590036521242 l 7.1171531387445 0 L 390.7317073170732 107.29136777303202 l -7.1171531387445 0 L 383.61455417832866 100.47590036521242 M 401.40743702518995 105.97264716848915 l 7.1171531387445 0 L 408.5245901639345 127.28119777152459 l -7.1171531387445 0 L 401.40743702518995 105.97264716848915 M 410.3038784486206 127.28119777152459 l 7.1171531387445 0 L 417.4210315873651 144.64164519920973 l -7.1171531387445 0 L 410.3038784486206 127.28119777152459 M 428.0967612954818 129.252542160403 l 7.1171531387445 0 L 435.21391443422635 141.59636134349785 l -7.1171531387445 0 L 428.0967612954818 129.252542160403 M 454.7860855657737 116.8015682714487 l 7.1171531387445 0 L 461.90323870451823 118.0914540609014 l -7.1171531387445 0 L 454.7860855657737 116.8015682714487 M 463.68252698920435 118.09132814467827 l 7.1171531387445 0 L 470.7996801279489 135.941967428898 l -7.1171531387445 0 L 463.68252698920435 118.09132814467827 M 490.3718512594962 51.29944534911053 l 7.1171531387445 0 L 497.48900439824075 57.95059208578252 l -7.1171531387445 0 L 490.3718512594962 51.29944534911053 M 499.2682926829268 57.95046616955949 l 7.1171531387445 0 L 506.38544582167134 76.06968475765478 l -7.1171531387445 0 L 499.2682926829268 57.95046616955949 M 508.16473410635746 76.06968475765478 l 7.1171531387445 0 L 515.281887245102 117.6892776443149 l -7.1171531387445 0 L 508.16473410635746 76.06968475765478 M 525.9576169532187 114.55006028616926 l 7.1171531387445 0 L 533.0747700919632 126.85408994276402 l -7.1171531387445 0 L 525.9576169532187 114.55006028616926 M 534.8540583766493 126.85421585898706 l 7.1171531387445 0 L 541.9712115153937 132.3038699948238 l -7.1171531387445 0 L 534.8540583766493 126.85421585898706 M 561.5433826469413 82.52037286714918 l 7.1171531387445 0 L 568.6605357856857 114.24748360205615 l -7.1171531387445 0 L 561.5433826469413 82.52037286714918 M 570.4398240703717 114.24735768583302 l 7.1171531387445 0 L 577.5569772091162 122.96630063827939 l -7.1171531387445 0 L 570.4398240703717 114.24735768583302 M 588.232706917233 121.98692425499526 l 7.1171531387445 0 L 595.3498600559775 134.9564211506819 l -7.1171531387445 0 L 588.232706917233 121.98692425499526 M 606.0255897640943 111.10751074657183 l 7.1171531387445 0 L 613.1427429028388 116.03133873473632 l -7.1171531387445 0 L 606.0255897640943 111.10751074657183 M 623.8184726109555 92.9423327370444 l 7.1171531387445 0 L 630.9356257497 95.41167578828964 l -7.1171531387445 0 L 623.8184726109555 92.9423327370444 M 650.5077968812475 79.25372829122468 l 7.1171531387445 0 L 657.624950019992 91.07751347290991 l -7.1171531387445 0 L 650.5077968812475 79.25372829122468 M 659.4042383046781 91.07751347290991 l 7.1171531387445 0 L 666.5213914434225 94.34957244642777 l -7.1171531387445 0 L 659.4042383046781 91.07751347290991 M 739.4722111155537 13.353458271439138 l 7.1171531387445 0 L 746.5893642542982 17.97206533480542 l -7.1171531387445 0 L 739.4722111155537 13.353458271439138 M 748.3686525389844 17.97206533480542 l 7.1171531387445 0 L 755.4858056777289 37.58540582622422 l -7.1171531387445 0 L 748.3686525389844 17.97206533480542 M 766.1615353858456 27.85019303712494 l 7.1171531387445 0 L 773.27868852459 33.799608662451845 l -7.1171531387445 0 L 766.1615353858456 27.85019303712494 M 792.8508596561375 24.110355294784682 l 7.1171531387445 0 L 799.9680127948819 37.74645267557105 l -7.1171531387445 0 L 792.8508596561375 24.110355294784682 M 801.747301079568 37.74657859179419 l 7.1171531387445 0 L 808.8644542183125 67.04816512109534 l -7.1171531387445 0 L 801.747301079568 37.74657859179419 M 819.5401839264293 63.60146034613564 l 7.1171531387445 0 L 826.6573370651738 78.61306654808374 l -7.1171531387445 0 L 819.5401839264293 63.60146034613564 M 837.3330667732906 72.2927017294996 l 7.1171531387445 0 L 844.4502199120351 79.78610208249816 l -7.1171531387445 0 L 837.3330667732906 72.2927017294996 M 846.2295081967213 79.78610208249816 l 7.1171531387445 0 L 853.3466613354658 112.88192216251947 l -7.1171531387445 0 L 846.2295081967213 79.78610208249816 M 872.9188324670131 92.51711365163038 l 7.1171531387445 0 L 880.0359856057576 107.69505518429577 l -7.1171531387445 0 L 872.9188324670131 92.51711365163038"></path><path class="candle body equal"></path><path class="candle wick up" d="M 22.41903238704518 78.00879459341925 L 22.41903238704518 85.81887424751835 M 22.41903238704518 87.24500139036687 L 22.41903238704518 100.66112312939485 M 31.315473810475808 71.880452015065 L 31.315473810475808 83.49093511481614 M 31.315473810475808 85.81887424751835 L 31.315473810475808 91.85932730214772 M 49.10835665733706 67.93549674529226 L 49.10835665733706 72.60333705189119 M 49.10835665733706 84.02142016274318 L 49.10835665733706 90.99163860875463 M 58.004798080767685 52.54853428227824 L 58.004798080767685 57.82870518182017 M 58.004798080767685 72.60333705189119 L 58.004798080767685 76.12005124689543 M 75.79768092762893 63.54379071595508 L 75.79768092762893 68.43966530259101 M 75.79768092762893 74.75574896958975 L 75.79768092762893 85.23701538056592 M 84.69412235105956 59.12136112818112 L 84.69412235105956 68.13331113178484 M 84.69412235105956 68.43966530259101 L 84.69412235105956 74.79793090432875 M 111.38344662135144 73.08547027014718 L 111.38344662135144 77.35251923861375 M 111.38344662135144 79.2474324800696 L 111.38344662135144 91.22999801908594 M 155.8656537385046 151.0527956146502 L 155.8656537385046 154.25673391147006 M 155.8656537385046 169.02834379218666 L 155.8656537385046 174.9515688431084 M 164.7620951619352 137.81900056667334 L 164.7620951619352 149.0211373549061 M 164.7620951619352 154.25673391147006 L 164.7620951619352 196.15384615384616 M 173.65853658536582 137.88019585110072 L 173.65853658536582 145.2692116551481 M 173.65853658536582 149.0211373549061 L 173.65853658536582 161.1009102181569 M 191.4514194322271 141.79203515419772 L 191.4514194322271 142.72847410540427 M 191.4514194322271 147.1715539537669 L 191.4514194322271 163.54355903010457 M 200.34786085565773 132.1527705271019 L 200.34786085565773 135.72173995469333 M 200.34786085565773 142.72834818918113 L 200.34786085565773 155.38418777312168 M 209.24430227908834 123.07748466327811 L 209.24430227908834 130.05198426087506 M 209.24430227908834 135.7216140384702 L 209.24430227908834 141.36429774432162 M 227.0371851259496 122.7846035283438 L 227.0371851259496 126.27374207048877 M 227.0371851259496 133.6417298652782 L 227.0371851259496 149.3704289577899 M 235.93362654938022 116.22184998028908 L 235.93362654938022 123.40675558668877 M 235.93362654938022 126.27374207048877 L 235.93362654938022 132.1527705271019 M 253.72650939624148 139.87143500322924 L 253.72650939624148 140.82071740919207 M 253.72650939624148 146.04926265726237 L 253.72650939624148 154.18810956987974 M 262.6229508196721 84.65301593782068 L 262.6229508196721 87.14716448501696 M 262.6229508196721 140.8160585089373 L 262.6229508196721 144.40781877291008 M 280.4158336665334 73.52617705100273 L 280.4158336665334 76.99051009719669 M 280.4158336665334 89.5603489007589 L 280.4158336665334 92.91022410015356 M 289.31227508996403 50.30092969991492 L 289.31227508996403 58.6178221519979 M 289.31227508996403 76.99051009719669 L 289.31227508996403 86.24560432760961 M 298.2087165133947 37.81633617939249 L 298.2087165133947 56.061722823035666 M 298.2087165133947 58.6178221519979 L 298.2087165133947 73.40026082790115 M 307.10515793682526 46.542330440332506 L 307.10515793682526 51.90988719870697 M 307.10515793682526 56.061596906812525 L 307.10515793682526 67.70985487349421 M 351.5873650539784 71.17909865238911 L 351.5873650539784 75.03792722556035 M 351.5873650539784 81.11074074952684 L 351.5873650539784 87.44546001754465 M 360.483806477409 47.14169166229604 L 360.483806477409 49.74236533423624 M 360.483806477409 75.03792722556035 L 360.483806477409 76.4092808113598 M 396.06957217113154 101.37481628193466 L 396.06957217113154 105.97264716848915 M 396.06957217113154 107.29124185680898 L 396.06957217113154 111.51472381208242 M 422.7588964414235 126.7509645560438 L 422.7588964414235 129.252542160403 M 422.7588964414235 144.64164519920973 L 422.7588964414235 152.92894733886385 M 440.5517792882847 108.94641060947932 L 440.5517792882847 128.03266579099488 M 440.5517792882847 141.5962354272748 L 440.5517792882847 178.461231729619 M 449.44822071171535 110.95439661928035 L 449.44822071171535 116.80144235522567 M 449.44822071171535 128.01415610619893 L 449.44822071171535 131.9718289145049 M 476.13754498200717 53.75934468362317 L 476.13754498200717 67.17999940668273 M 476.13754498200717 135.94184151267484 L 476.13754498200717 139.07602222189652 M 485.0339864054379 44.65358709380868 L 485.0339864054379 51.29944534911053 M 485.0339864054379 67.17999940668273 L 485.0339864054379 71.58731904768445 M 520.6197520991603 111.83946175146143 L 520.6197520991603 114.55018620239238 M 520.6197520991603 117.68940356053803 L 520.6197520991603 127.02055118970435 M 547.3090763694522 115.00197361088085 L 547.3090763694522 122.95295351863065 M 547.3090763694522 132.3037440786007 L 547.3090763694522 133.8192717398514 M 556.2055177928828 74.306102136894 L 556.2055177928828 82.52024695092604 M 556.2055177928828 122.95295351863065 L 556.2055177928828 123.88700006159823 M 582.8948420631747 113.43267972236579 L 582.8948420631747 121.98679833877213 M 582.8948420631747 122.96630063827939 L 582.8948420631747 123.83575215879588 M 600.687724910036 107.63537089454556 L 600.687724910036 111.10751074657183 M 600.687724910036 134.95629523445876 L 600.687724910036 137.75604245512255 M 618.4806077568971 85.33711877793164 L 618.4806077568971 92.94245865326754 M 618.4806077568971 116.03133873473632 L 618.4806077568971 121.72086327558154 M 636.2734906037584 77.69375220321912 L 636.2734906037584 84.83962378045725 M 636.2734906037584 95.41180170451278 L 636.2734906037584 105.26915323002054 M 645.169932027189 76.74963236240337 L 645.169932027189 79.25372829122468 M 645.169932027189 84.83962378045725 L 645.169932027189 88.09103249338645 M 671.8592562974809 64.6490833223408 L 671.8592562974809 77.2012938546688 M 671.8592562974809 94.34944653020465 L 671.8592562974809 95.94543465801728 M 680.7556977209116 68.86778046113639 L 680.7556977209116 70.67090077595111 M 680.7556977209116 77.2012938546688 L 680.7556977209116 84.91567717921062 M 689.6521391443422 53.82167321405839 L 689.6521391443422 56.710569120678144 M 689.6521391443422 70.67090077595111 L 689.6521391443422 74.7291806465153 M 698.5485805677728 42.82603903171227 L 698.5485805677728 52.65984422349999 M 698.5485805677728 56.710569120678144 L 698.5485805677728 61.904109658726185 M 707.4450219912034 46.6180060904166 L 707.4450219912034 50.16531792763453 M 707.4450219912034 52.65984422349999 L 707.4450219912034 55.69681760848721 M 716.3414634146341 18.84076135798324 L 716.3414634146341 20.99695076237481 M 716.3414634146341 50.16531792763453 L 716.3414634146341 51.296171527309866 M 725.2379048380647 3.8461538461538396 L 725.2379048380647 17.289347573148603 M 725.2379048380647 20.99695076237481 L 725.2379048380647 23.06449514570292 M 734.1343462614954 5.0218336212533075 L 734.1343462614954 13.353332355215997 M 734.1343462614954 17.289347573148603 L 734.1343462614954 19.447047972217405 M 760.8236705317872 22.352690736509686 L 760.8236705317872 27.85019303712494 M 760.8236705317872 37.58527991000108 L 760.8236705317872 54.08471220411761 M 778.6165533786485 13.236104351508459 L 778.6165533786485 26.29059469778869 M 778.6165533786485 33.799734578674986 L 778.6165533786485 37.32627023908114 M 787.512994802079 20.204308137950335 L 787.512994802079 24.11022937856154 M 787.512994802079 26.29046878156555 L 787.512994802079 42.52560292339186 M 814.202319072371 57.8497331910782 L 814.202319072371 63.601586262358666 M 814.202319072371 67.04816512109534 L 814.202319072371 72.62776479917292 M 831.9952019192323 71.71298343833988 L 831.9952019192323 72.29257581327646 M 831.9952019192323 78.61294063186071 L 831.9952019192323 80.2062845189881 M 858.6845261895241 98.16798191198342 L 858.6845261895241 106.02590973086107 M 858.6845261895241 112.88192216251947 L 858.6845261895241 116.35494342810746 M 867.5809676129546 87.31010007771044 L 867.5809676129546 92.51698773540727 M 867.5809676129546 106.02578381463803 L 867.5809676129546 112.15047482252231 M 885.3738504598159 96.0102815129146 L 885.3738504598159 101.2669060787366 M 885.3738504598159 107.69518110051881 L 885.3738504598159 109.91092887843746" style="stroke-width: 1px;"></path><path class="candle wick down" d="M 4.626149540183927 58.91989517121857 L 4.626149540183927 63.514074487303105 M 4.626149540183927 68.15824254395898 L 4.626149540183927 76.36458055215869 M 13.522590963614554 67.35842269481765 L 13.522590963614554 68.158368460182 M 13.522590963614554 87.24500139036687 L 13.522590963614554 99.28863629758754 M 40.21191523390643 78.65726314239242 L 40.21191523390643 83.49093511481614 M 40.21191523390643 84.02142016274318 L 40.21191523390643 111.37659371533995 M 66.90123950419832 50.30722551106999 L 66.90123950419832 57.82883109804328 M 66.90123950419832 74.73358771432383 L 66.90123950419832 77.86751659109925 M 93.5905637744902 63.213638378982694 L 93.5905637744902 68.13331113178484 M 93.5905637744902 68.2923433215621 L 93.5905637744902 74.4606013426396 M 102.48700519792082 66.97626695770433 L 102.48700519792082 68.2923433215621 M 102.48700519792082 79.24755839629263 L 102.48700519792082 87.57313906776967 M 120.27988804478207 74.74592750418785 L 120.27988804478207 77.35251923861375 M 120.27988804478207 86.06730695569773 L 120.27988804478207 92.63320840933007 M 129.1763294682127 62.83588970967796 L 129.1763294682127 86.06743287192084 M 129.1763294682127 98.39576435957416 L 129.1763294682127 100.00245536635047 M 138.07277089164333 93.11874136560976 L 138.07277089164333 98.3956384433511 M 138.07277089164333 151.72883981648266 L 138.07277089164333 164.3816574110688 M 146.96921231507397 146.8192403615286 L 146.96921231507397 151.72883981648266 M 146.96921231507397 169.02834379218666 L 146.96921231507397 182.41852678925568 M 182.55497800879647 120.56872983420202 L 182.55497800879647 145.2692116551481 M 182.55497800879647 147.1451115469156 L 182.55497800879647 154.3816428047869 M 218.14074370251896 127.62910429595425 L 218.14074370251896 130.0521101770981 M 218.14074370251896 133.64160394905505 L 218.14074370251896 140.31680068433957 M 244.83006797281087 121.37534915939085 L 244.83006797281087 123.40675558668877 M 244.83006797281087 146.04938857348552 L 244.83006797281087 149.94536243247177 M 271.51939224310274 82.87306420805665 L 271.51939224310274 87.1792731219079 M 271.51939224310274 89.56047481698204 L 271.51939224310274 96.35466238309742 M 316.0015993602559 33.67369243935025 L 316.0015993602559 51.91001311493008 M 316.0015993602559 62.956265618963045 L 316.0015993602559 67.00359077811737 M 324.89804078368655 57.61036645096203 L 324.89804078368655 62.956265618963045 M 324.89804078368655 77.0804142804912 L 324.89804078368655 82.5605401423185 M 333.7944822071172 68.19375091887363 L 333.7944822071172 77.0804142804912 M 333.7944822071172 79.04294453375256 L 333.7944822071172 85.7037868196035 M 342.6909236305478 72.21664833074621 L 342.6909236305478 79.04294453375256 M 342.6909236305478 81.11061483330371 L 342.6909236305478 83.4231921867875 M 369.38024790083966 49.678022144231335 L 369.38024790083966 49.74249125045938 M 369.38024790083966 58.19512139104586 L 369.38024790083966 65.32903092708938 M 378.2766893242703 54.52907055544313 L 378.2766893242703 58.19512139104586 M 378.2766893242703 100.47602628143557 L 378.2766893242703 106.04769323745768 M 387.1731307477009 94.88307948370924 L 387.1731307477009 100.47590036521242 M 387.1731307477009 107.29136777303202 L 387.1731307477009 113.89491817737171 M 404.9660135945622 105.39003280419804 L 404.9660135945622 105.97264716848915 M 404.9660135945622 127.28119777152459 L 404.9660135945622 132.1527705271019 M 413.86245501799283 113.33647972791618 L 413.86245501799283 127.28119777152459 M 413.86245501799283 144.64164519920973 L 413.86245501799283 147.26271729929243 M 431.65533786485406 116.41412405296516 L 431.65533786485406 129.252542160403 M 431.65533786485406 141.59636134349785 L 431.65533786485406 144.28114705246992 M 458.34466213514594 102.58197511280962 L 458.34466213514594 116.8015682714487 M 458.34466213514594 118.0914540609014 L 458.34466213514594 124.9355044513651 M 467.2411035585766 108.78649700614034 L 467.2411035585766 118.09132814467827 M 467.2411035585766 135.941967428898 L 467.2411035585766 144.74439283726065 M 493.93042782886846 38.974765431927096 L 493.93042782886846 51.29944534911053 M 493.93042782886846 57.95059208578252 L 493.93042782886846 64.98792387870722 M 502.82686925229905 55.32977181814607 L 502.82686925229905 57.95046616955949 M 502.82686925229905 76.06968475765478 L 502.82686925229905 83.89814818032673 M 511.7233106757297 75.14671884232011 L 511.7233106757297 76.06968475765478 M 511.7233106757297 117.6892776443149 L 511.7233106757297 125.22737825651458 M 529.5161935225909 110.82419924459326 L 529.5161935225909 114.55006028616926 M 529.5161935225909 126.85408994276402 L 529.5161935225909 131.03753053909116 M 538.4126349460215 112.66635358856952 L 538.4126349460215 126.85421585898706 M 538.4126349460215 132.3038699948238 L 538.4126349460215 142.79269137918607 M 565.1019592163135 81.28727529431532 L 565.1019592163135 82.52037286714918 M 565.1019592163135 114.24748360205615 L 565.1019592163135 125.35669421763988 M 573.998400639744 103.99462921978626 L 573.998400639744 114.24735768583302 M 573.998400639744 122.96630063827939 L 573.998400639744 129.33728377855044 M 591.7912834866053 115.65774530079393 L 591.7912834866053 121.98692425499526 M 591.7912834866053 134.9564211506819 L 591.7912834866053 137.4600134146107 M 609.5841663334666 108.38469833822313 L 609.5841663334666 111.10751074657183 M 609.5841663334666 116.03133873473632 L 609.5841663334666 130.91463630534398 M 627.3770491803277 88.34878300207542 L 627.3770491803277 92.9423327370444 M 627.3770491803277 95.41167578828964 L 627.3770491803277 100.673714751705 M 654.0663734506197 78.05588726085921 L 654.0663734506197 79.25372829122468 M 654.0663734506197 91.07751347290991 L 654.0663734506197 95.49855798222977 M 662.9628148740503 87.52529090299102 L 662.9628148740503 91.07751347290991 M 662.9628148740503 94.34957244642777 L 662.9628148740503 101.07740216296868 M 743.0307876849259 10.011263961653697 L 743.0307876849259 13.353458271439138 M 743.0307876849259 17.97206533480542 L 743.0307876849259 25.811231636440937 M 751.9272291083566 11.27319634957783 L 751.9272291083566 17.97206533480542 M 751.9272291083566 37.58540582622422 L 751.9272291083566 41.49308989395885 M 769.7201119552178 16.14615418360927 L 769.7201119552178 27.85019303712494 M 769.7201119552178 33.799608662451845 L 769.7201119552178 36.20460852369217 M 796.4094362255097 16.309845273641315 L 796.4094362255097 24.110355294784682 M 796.4094362255097 37.74645267557105 L 796.4094362255097 39.556372466433345 M 805.3058776489403 37.62569901761671 L 805.3058776489403 37.74657859179419 M 805.3058776489403 67.04816512109534 L 805.3058776489403 67.67107267677889 M 823.0987604958016 56.9729785296218 L 823.0987604958016 63.60146034613564 M 823.0987604958016 78.61306654808374 L 823.0987604958016 80.43721487215647 M 840.8916433426629 64.02831634244995 L 840.8916433426629 72.2927017294996 M 840.8916433426629 79.78610208249816 L 840.8916433426629 83.44837543140784 M 849.7880847660936 76.56440959822095 L 849.7880847660936 79.78610208249816 M 849.7880847660936 112.88192216251947 L 849.7880847660936 117.0428237549114 M 876.4774090363853 88.08209244154625 L 876.4774090363853 92.51711365163038 M 876.4774090363853 107.69505518429577 L 876.4774090363853 112.6113281990741" style="stroke-width: 1px;"></path><path class="candle wick equal" style="stroke-width: 1px;"></path></g></g><g class="x axis" transform="translate(0,200)" fill="none" font-size="10" font-family="sans-serif" text-anchor="middle"><path class="domain" stroke="#000" d="M0.5,6V0.5H890.5V6"></path><g class="tick" opacity="1" transform="translate(40.21191523390643,0)"><line stroke="#000" y2="6" x1="0.5" x2="0.5"></line><text fill="#000" y="9" x="0.5" dy="0.71em">Jan 10</text></g><g class="tick" opacity="1" transform="translate(102.48700519792082,0)"><line stroke="#000" y2="6" x1="0.5" x2="0.5"></line><text fill="#000" y="9" x="0.5" dy="0.71em">Jan 17</text></g><g class="tick" opacity="1" transform="translate(164.7620951619352,0)"><line stroke="#000" y2="6" x1="0.5" x2="0.5"></line><text fill="#000" y="9" x="0.5" dy="0.71em">Jan 24</text></g><g class="tick" opacity="1" transform="translate(227.0371851259496,0)"><line stroke="#000" y2="6" x1="0.5" x2="0.5"></line><text fill="#000" y="9" x="0.5" dy="0.71em">Jan 31</text></g><g class="tick" opacity="1" transform="translate(289.31227508996403,0)"><line stroke="#000" y2="6" x1="0.5" x2="0.5"></line><text fill="#000" y="9" x="0.5" dy="0.71em">Feb  7</text></g><g class="tick" opacity="1" transform="translate(351.5873650539784,0)"><line stroke="#000" y2="6" x1="0.5" x2="0.5"></line><text fill="#000" y="9" x="0.5" dy="0.71em">Feb 14</text></g><g class="tick" opacity="1" transform="translate(413.86245501799283,0)"><line stroke="#000" y2="6" x1="0.5" x2="0.5"></line><text fill="#000" y="9" x="0.5" dy="0.71em">Feb 21</text></g><g class="tick" opacity="1" transform="translate(476.13754498200717,0)"><line stroke="#000" y2="6" x1="0.5" x2="0.5"></line><text fill="#000" y="9" x="0.5" dy="0.71em">Feb 28</text></g><g class="tick" opacity="1" transform="translate(538.4126349460215,0)"><line stroke="#000" y2="6" x1="0.5" x2="0.5"></line><text fill="#000" y="9" x="0.5" dy="0.71em">Mar  7</text></g><g class="tick" opacity="1" transform="translate(600.687724910036,0)"><line stroke="#000" y2="6" x1="0.5" x2="0.5"></line><text fill="#000" y="9" x="0.5" dy="0.71em">Mar 14</text></g><g class="tick" opacity="1" transform="translate(662.9628148740503,0)"><line stroke="#000" y2="6" x1="0.5" x2="0.5"></line><text fill="#000" y="9" x="0.5" dy="0.71em">Mar 21</text></g><g class="tick" opacity="1" transform="translate(725.2379048380647,0)"><line stroke="#000" y2="6" x1="0.5" x2="0.5"></line><text fill="#000" y="9" x="0.5" dy="0.71em">Mar 28</text></g><g class="tick" opacity="1" transform="translate(787.512994802079,0)"><line stroke="#000" y2="6" x1="0.5" x2="0.5"></line><text fill="#000" y="9" x="0.5" dy="0.71em">Apr  4</text></g><g class="tick" opacity="1" transform="translate(849.7880847660936,0)"><line stroke="#000" y2="6" x1="0.5" x2="0.5"></line><text fill="#000" y="9" x="0.5" dy="0.71em">Apr 11</text></g></g><g class="y axis" fill="none" font-size="10" font-family="sans-serif" text-anchor="end"><path class="domain" stroke="#000" d="M-6,200.5H0.5V0.5H-6"></path><g class="tick" opacity="1" transform="translate(0,182.51925976773694)"><line stroke="#000" x2="-6" y1="0.5" y2="0.5"></line><text fill="#000" x="-9" y="0.5" dy="0.32em">34,000</text></g><g class="tick" opacity="1" transform="translate(0,157.33601514741943)"><line stroke="#000" x2="-6" y1="0.5" y2="0.5"></line><text fill="#000" x="-9" y="0.5" dy="0.32em">36,000</text></g><g class="tick" opacity="1" transform="translate(0,132.1527705271019)"><line stroke="#000" x2="-6" y1="0.5" y2="0.5"></line><text fill="#000" x="-9" y="0.5" dy="0.32em">38,000</text></g><g class="tick" opacity="1" transform="translate(0,106.96952590678438)"><line stroke="#000" x2="-6" y1="0.5" y2="0.5"></line><text fill="#000" x="-9" y="0.5" dy="0.32em">40,000</text></g><g class="tick" opacity="1" transform="translate(0,81.78628128646687)"><line stroke="#000" x2="-6" y1="0.5" y2="0.5"></line><text fill="#000" x="-9" y="0.5" dy="0.32em">42,000</text></g><g class="tick" opacity="1" transform="translate(0,56.603036666149364)"><line stroke="#000" x2="-6" y1="0.5" y2="0.5"></line><text fill="#000" x="-9" y="0.5" dy="0.32em">44,000</text></g><g class="tick" opacity="1" transform="translate(0,31.419792045831826)"><line stroke="#000" x2="-6" y1="0.5" y2="0.5"></line><text fill="#000" x="-9" y="0.5" dy="0.32em">46,000</text></g><g class="tick" opacity="1" transform="translate(0,6.236547425514317)"><line stroke="#000" x2="-6" y1="0.5" y2="0.5"></line><text fill="#000" x="-9" y="0.5" dy="0.32em">48,000</text></g><text transform="rotate(-90)" y="6" dy=".71em" style="text-anchor: end;">Price ($)</text></g></g></svg>