<?xml version="1.0" encoding="utf-8"?>
<!DOCTYPE svg PUBLIC "-//W3C//DTD SVG 1.1//EN" "http://www.w3.org/Graphics/SVG/1.1/DTD/svg11.dtd">
<svg version="1.1" xmlns="http://www.w3.org/2000/svg" width="960" height="250"><g transform="translate(50,20)"><style>.axis path,.axis line{fill:none;stroke:#000;shape-rendering:crispEdges;}path.candle{stroke:#000000;}path.candle.body{stroke-width:0;}path.candle.up{fill:#00AA00;stroke:#00AA00;}path.candle.down{fill:#FF0000;stroke:#FF0000;}</style><g class="candlestick"><g class="data"><path class="candle body up" d="M 45.54978008796481 90.3063120836137 l 7.1171531387445 0 L 52.66693322670931 84.26802927579482 l -7.1171531387445 0 L 45.54978008796481 90.3063120836137 M 54.446221511395436 84.26802927579482 l 7.1171531387445 0 L 61.563374650139934 76.84975943266372 l -7.1171531387445 0 L 54.446221511395436 84.26802927579482 M 72.23910435825668 79.11865881537139 l 7.1171531387445 0 L 79.35625749700118 76.58288819236792 l -7.1171531387445 0 L 72.23910435825668 79.11865881537139 M 90.03198720511796 79.76460178781213 l 7.1171531387445 0 L 97.14914034386246 75.99186024938848 l -7.1171531387445 0 L 90.03198720511796 79.76460178781213 M 125.61775289884046 115.56683056366681 l 7.1171531387445 0 L 132.73490603758498 101.14432649521379 l -7.1171531387445 0 L 125.61775289884046 115.56683056366681 M 143.4106357457017 110.4818568644103 l 7.1171531387445 0 L 150.5277888844462 105.80044937087129 l -7.1171531387445 0 L 143.4106357457017 110.4818568644103 M 152.30707716913233 105.83166007106877 l 7.1171531387445 0 L 159.42423030787683 104.1917155581627 l -7.1171531387445 0 L 152.30707716913233 105.83166007106877 M 178.9964014394242 110.09824180248982 l 7.1171531387445 0 L 186.1135545781687 106.78259874670472 l -7.1171531387445 0 L 178.9964014394242 110.09824180248982 M 205.68572570971608 130.67834046938998 l 7.1171531387445 0 L 212.80287884846058 120.75748606422482 l -7.1171531387445 0 L 205.68572570971608 130.67834046938998 M 214.5821671331467 120.75728852814765 l 7.1171531387445 0 L 221.6993202718912 120.22552140832794 l -7.1171531387445 0 L 214.5821671331467 120.75728852814765 M 223.47860855657734 120.2103111303836 l 7.1171531387445 0 L 230.59576169532184 79.9214454331081 l -7.1171531387445 0 L 223.47860855657734 120.2103111303836 M 232.37504998000796 79.89161748545108 l 7.1171531387445 0 L 239.49220311875246 74.22786308000147 l -7.1171531387445 0 L 232.37504998000796 79.89161748545108 M 241.2714914034386 74.25018465672497 l 7.1171531387445 0 L 248.3886445421831 70.70125149376781 l -7.1171531387445 0 L 241.2714914034386 74.25018465672497 M 250.16793282686922 70.70125149376781 l 7.1171531387445 0 L 257.28508596561375 59.46401667014854 l -7.1171531387445 0 L 250.16793282686922 70.70125149376781 M 267.9608156737305 103.35890345669173 l 7.1171531387445 0 L 275.07796881247504 102.31018442284227 l -7.1171531387445 0 L 267.9608156737305 103.35890345669173 M 285.7536985205918 112.67747036247711 l 7.1171531387445 0 L 292.8708516593363 110.67405946752493 l -7.1171531387445 0 L 285.7536985205918 112.67747036247711 M 294.65013994402244 110.67405946752493 l 7.1171531387445 0 L 301.76729308276697 104.5441199198857 l -7.1171531387445 0 L 294.65013994402244 110.67405946752493 M 312.4430227908837 118.29598900624813 l 7.1171531387445 0 L 319.5601759296282 115.93405013117975 l -7.1171531387445 0 L 312.4430227908837 118.29598900624813 M 339.13234706117555 137.18221581116688 l 7.1171531387445 0 L 346.2495001999201 118.60849108037694 l -7.1171531387445 0 L 339.13234706117555 137.18221581116688 M 374.7181127548981 130.3125036544174 l 7.1171531387445 0 L 381.8352658936426 122.0418656381727 l -7.1171531387445 0 L 374.7181127548981 130.3125036544174 M 392.5109956017593 124.99937578599608 l 7.1171531387445 0 L 399.62814874050383 118.38744820999129 l -7.1171531387445 0 L 392.5109956017593 124.99937578599608 M 401.40743702518995 118.38744820999129 l 7.1171531387445 0 L 408.5245901639345 114.85767604652246 l -7.1171531387445 0 L 401.40743702518995 118.38744820999129 M 436.99320271891247 125.40155923917318 l 7.1171531387445 0 L 444.110355857657 114.11553300448577 l -7.1171531387445 0 L 436.99320271891247 125.40155923917318 M 445.8896441423431 114.11553300448577 l 7.1171531387445 0 L 453.00679728108764 100.11536106908422 l -7.1171531387445 0 L 445.8896441423431 114.11553300448577 M 490.3718512594962 118.31435986142765 l 7.1171531387445 0 L 497.48900439824075 117.8699036877299 l -7.1171531387445 0 L 490.3718512594962 118.31435986142765 M 517.0611755297881 125.35691608572623 l 7.1171531387445 0 L 524.1783286685326 123.46985394024426 l -7.1171531387445 0 L 517.0611755297881 125.35691608572623 M 525.9576169532187 123.47834799156382 l 7.1171531387445 0 L 533.0747700919632 119.13196168495428 l -7.1171531387445 0 L 525.9576169532187 123.47834799156382 M 552.6469412235106 125.19098578087905 l 7.1171531387445 0 L 559.764094362255 121.34732879074105 l -7.1171531387445 0 L 552.6469412235106 125.19098578087905 M 561.5433826469413 121.34732879074105 l 7.1171531387445 0 L 568.6605357856857 115.68041380805624 l -7.1171531387445 0 L 561.5433826469413 121.34732879074105 M 597.1291483406637 125.71406131330205 l 7.1171531387445 0 L 604.2463014794082 123.29523204800033 l -7.1171531387445 0 L 597.1291483406637 125.71406131330205 M 606.0255897640943 123.29523204800033 l 7.1171531387445 0 L 613.1427429028388 122.50548281135877 l -7.1171531387445 0 L 606.0255897640943 123.29523204800033 M 614.9220311875249 122.50666802782192 l 7.1171531387445 0 L 622.0391843262694 115.27467470548949 l -7.1171531387445 0 L 614.9220311875249 122.50666802782192 M 632.7149140343862 120.01158983672144 l 7.1171531387445 0 L 639.8320671731307 105.20685345888832 l -7.1171531387445 0 L 632.7149140343862 120.01158983672144 M 641.6113554578168 105.2275947469942 l 7.1171531387445 0 L 648.7285085965613 91.54683864842339 l -7.1171531387445 0 L 641.6113554578168 105.2275947469942 M 659.4042383046781 100.95903765480111 l 7.1171531387445 0 L 666.5213914434225 95.09754963607533 l -7.1171531387445 0 L 659.4042383046781 100.95903765480111 M 668.3006797281087 95.09754963607533 l 7.1171531387445 0 L 675.4178328668531 90.79462126644967 l -7.1171531387445 0 L 668.3006797281087 95.09754963607533 M 712.7828868452618 103.78913703283112 l 7.1171531387445 0 L 719.9000399840063 102.68333007267115 l -7.1171531387445 0 L 712.7828868452618 103.78913703283112 M 721.6793282686924 102.6971575980751 l 7.1171531387445 0 L 728.7964814074369 84.10111129056166 l -7.1171531387445 0 L 721.6793282686924 102.6971575980751 M 730.5757696921231 84.10111129056166 l 7.1171531387445 0 L 737.6929228308676 81.12127956601482 l -7.1171531387445 0 L 730.5757696921231 84.10111129056166 M 775.0579768092763 187.33030465752145 l 7.1171531387445 0 L 782.1751299480208 154.17446670790164 l -7.1171531387445 0 L 775.0579768092763 187.33030465752145 M 810.6437425029987 179.24910373931053 l 7.1171531387445 0 L 817.7608956417432 173.56638587044986 l -7.1171531387445 0 L 810.6437425029987 179.24910373931053 M 819.5401839264293 173.60075714788246 l 7.1171531387445 0 L 826.6573370651738 168.0134492043089 l -7.1171531387445 0 L 819.5401839264293 173.60075714788246 M 837.3330667732906 172.73377130505608 l 7.1171531387445 0 L 844.4502199120351 172.12239714612517 l -7.1171531387445 0 L 837.3330667732906 172.73377130505608 M 846.2295081967213 172.12239714612517 l 7.1171531387445 0 L 853.3466613354658 171.96654118121518 l -7.1171531387445 0 L 846.2295081967213 172.12239714612517 M 855.1259496201519 171.98668986108947 l 7.1171531387445 0 L 862.2431027588964 171.9619978514396 l -7.1171531387445 0 L 855.1259496201519 171.98668986108947 M 881.8152738904437 190.12326725303802 l 7.1171531387445 0 L 888.9324270291881 182.33441972908165 l -7.1171531387445 0 L 881.8152738904437 190.12326725303802"></path><path class="candle body down" d="M 1.0675729708116766 21.74430519292318 l 7.1171531387445 0 L 8.184726109556177 25.90105686542165 l -7.1171531387445 0 L 1.0675729708116766 21.74430519292318 M 9.964014394242305 25.936218287163058 l 7.1171531387445 0 L 17.081167532986804 30.64350300681511 l -7.1171531387445 0 L 9.964014394242305 25.936218287163058 M 18.860455817672932 30.615650419930034 l 7.1171531387445 0 L 25.977608956417434 40.75893044802129 l -7.1171531387445 0 L 18.860455817672932 30.615650419930034 M 27.75689724110356 40.75893044802129 l 7.1171531387445 0 L 34.87405037984806 43.75081187327726 l -7.1171531387445 0 L 27.75689724110356 40.75893044802129 M 36.65333866453418 43.745873471347295 l 7.1171531387445 0 L 43.77049180327868 90.3063120836137 l -7.1171531387445 0 L 36.65333866453418 43.745873471347295 M 63.342662934826066 76.82822800024903 l 7.1171531387445 0 L 70.45981607357056 79.13683213447366 l -7.1171531387445 0 L 63.342662934826066 76.82822800024903 M 81.13554578168731 76.58308572844507 l 7.1171531387445 0 L 88.25269892043181 79.76400917958048 l -7.1171531387445 0 L 81.13554578168731 76.58308572844507 M 98.92842862854857 75.99186024938848 l 7.1171531387445 0 L 106.04558176729307 102.02691768813891 l -7.1171531387445 0 L 98.92842862854857 75.99186024938848 M 107.82487005197919 102.06464707888391 l 7.1171531387445 0 L 114.94202319072369 106.04578917875249 l -7.1171531387445 0 L 107.82487005197919 102.06464707888391 M 116.72131147540982 106.04578917875249 l 7.1171531387445 0 L 123.83846461415432 115.56683056366681 l -7.1171531387445 0 L 116.72131147540982 106.04578917875249 M 134.51419432227107 101.11528869186552 l 7.1171531387445 0 L 141.63134746101557 110.50891930698656 l -7.1171531387445 0 L 134.51419432227107 101.11528869186552 M 161.20351859256294 104.16840630105321 l 7.1171531387445 0 L 168.32067173130744 107.73946350465661 l -7.1171531387445 0 L 161.20351859256294 104.16840630105321 M 170.09996001599356 107.75684667945016 l 7.1171531387445 0 L 177.21711315473806 110.10910628673575 l -7.1171531387445 0 L 170.09996001599356 107.75684667945016 M 187.89284286285485 106.78259874670472 l 7.1171531387445 0 L 195.00999600159935 110.80166777339547 l -7.1171531387445 0 L 187.89284286285485 106.78259874670472 M 196.78928428628546 110.8312981849753 l 7.1171531387445 0 L 203.90643742502996 130.67834046938998 l -7.1171531387445 0 L 196.78928428628546 110.8312981849753 M 259.06437425029986 59.46994275246456 l 7.1171531387445 0 L 266.1815273890444 103.35989113707772 l -7.1171531387445 0 L 259.06437425029986 59.46994275246456 M 276.85725709716115 102.30109776329112 l 7.1171531387445 0 L 283.9744102359057 112.67747036247711 l -7.1171531387445 0 L 276.85725709716115 102.30109776329112 M 303.54658136745303 104.56407106368277 l 7.1171531387445 0 L 310.66373450619756 118.32107608805241 l -7.1171531387445 0 L 303.54658136745303 104.56407106368277 M 321.3394642143143 115.93405013117975 l 7.1171531387445 0 L 328.45661735305885 129.01133351390763 l -7.1171531387445 0 L 321.3394642143143 115.93405013117975 M 330.23590563774496 129.02496350323435 l 7.1171531387445 0 L 337.3530587764895 137.18221581116688 l -7.1171531387445 0 L 330.23590563774496 129.02496350323435 M 348.02878848460614 118.60849108037694 l 7.1171531387445 0 L 355.14594162335067 120.81536413484415 l -7.1171531387445 0 L 348.02878848460614 118.60849108037694 M 356.9252299080368 120.84183396918881 l 7.1171531387445 0 L 364.0423830467813 128.11254436265222 l -7.1171531387445 0 L 356.9252299080368 120.84183396918881 M 365.8216713314674 128.08311148714955 l 7.1171531387445 0 L 372.93882447021196 130.34707246792723 l -7.1171531387445 0 L 365.8216713314674 128.08311148714955 M 383.61455417832866 122.06438475097337 l 7.1171531387445 0 L 390.7317073170732 124.97902957004455 l -7.1171531387445 0 L 383.61455417832866 122.06438475097337 M 410.3038784486206 114.87683704601072 l 7.1171531387445 0 L 417.4210315873651 118.19406039041345 l -7.1171531387445 0 L 410.3038784486206 114.87683704601072 M 419.20031987205124 118.19406039041345 l 7.1171531387445 0 L 426.31747301079577 120.39974822841744 l -7.1171531387445 0 L 419.20031987205124 118.19406039041345 M 428.0967612954818 120.37426607445875 l 7.1171531387445 0 L 435.21391443422635 125.42012763042992 l -7.1171531387445 0 L 428.0967612954818 120.37426607445875 M 454.7860855657737 100.11536106908422 l 7.1171531387445 0 L 461.90323870451823 103.6623188712694 l -7.1171531387445 0 L 454.7860855657737 100.11536106908422 M 463.68252698920435 103.6623188712694 l 7.1171531387445 0 L 470.7996801279489 107.56543422064435 l -7.1171531387445 0 L 463.68252698920435 103.6623188712694 M 472.57896841263494 107.56543422064435 l 7.1171531387445 0 L 479.69612155137946 116.07094263267867 l -7.1171531387445 0 L 472.57896841263494 107.56543422064435 M 481.47540983606564 116.07094263267867 l 7.1171531387445 0 L 488.59256297481016 118.28591466631102 l -7.1171531387445 0 L 481.47540983606564 116.07094263267867 M 499.2682926829268 117.85133529647322 l 7.1171531387445 0 L 506.38544582167134 123.93722429889708 l -7.1171531387445 0 L 499.2682926829268 117.85133529647322 M 508.16473410635746 123.93722429889708 l 7.1171531387445 0 L 515.281887245102 125.35691608572623 l -7.1171531387445 0 L 508.16473410635746 123.93722429889708 M 534.8540583766493 119.1230725614803 l 7.1171531387445 0 L 541.9712115153937 123.04712673503838 l -7.1171531387445 0 L 534.8540583766493 119.1230725614803 M 543.75049980008 123.04712673503838 l 7.1171531387445 0 L 550.8676529388244 125.17142970923639 l -7.1171531387445 0 L 543.75049980008 123.04712673503838 M 570.4398240703717 115.70767378670972 l 7.1171531387445 0 L 577.5569772091162 120.07401123711632 l -7.1171531387445 0 L 570.4398240703717 115.70767378670972 M 579.3362654938024 120.07401123711632 l 7.1171531387445 0 L 586.4534186325469 124.09327779988423 l -7.1171531387445 0 L 579.3362654938024 120.07401123711632 M 588.232706917233 124.10552503667063 l 7.1171531387445 0 L 595.3498600559775 125.71406131330205 l -7.1171531387445 0 L 588.232706917233 124.10552503667063 M 623.8184726109555 115.27467470548949 l 7.1171531387445 0 L 630.9356257497 120.0289730115149 l -7.1171531387445 0 L 623.8184726109555 115.27467470548949 M 650.5077968812475 91.54644357626897 l 7.1171531387445 0 L 657.624950019992 100.95903765480111 l -7.1171531387445 0 L 650.5077968812475 91.54644357626897 M 677.1971211515394 90.79442373037242 l 7.1171531387445 0 L 684.3142742902838 94.39353105693813 l -7.1171531387445 0 L 677.1971211515394 90.79442373037242 M 686.09356257497 94.39353105693813 l 7.1171531387445 0 L 693.2107157137144 97.09463937655714 l -7.1171531387445 0 L 686.09356257497 94.39353105693813 M 694.9900039984005 97.09463937655714 l 7.1171531387445 0 L 702.107157137145 97.23528506352288 l -7.1171531387445 0 L 694.9900039984005 97.09463937655714 M 703.8864454218311 97.25128548577595 l 7.1171531387445 0 L 711.0035985605756 103.78913703283112 l -7.1171531387445 0 L 703.8864454218311 97.25128548577595 M 739.4722111155537 81.12127956601482 l 7.1171531387445 0 L 746.5893642542982 88.900052750034 l -7.1171531387445 0 L 739.4722111155537 81.12127956601482 M 748.3686525389844 88.900052750034 l 7.1171531387445 0 L 755.4858056777289 95.11157469755645 l -7.1171531387445 0 L 748.3686525389844 88.900052750034 M 757.265093962415 95.12066135710764 l 7.1171531387445 0 L 764.3822471011595 135.48597351625912 l -7.1171531387445 0 L 757.265093962415 95.12066135710764 M 766.1615353858456 135.5225176905409 l 7.1171531387445 0 L 773.27868852459 187.32773668851786 l -7.1171531387445 0 L 766.1615353858456 135.5225176905409 M 783.9544182327068 154.1487870178658 l 7.1171531387445 0 L 791.0715713714512 164.6604718299331 l -7.1171531387445 0 L 783.9544182327068 154.1487870178658 M 792.8508596561375 164.6669905204807 l 7.1171531387445 0 L 799.9680127948819 169.76144595144277 l -7.1171531387445 0 L 792.8508596561375 164.6669905204807 M 801.747301079568 169.7401120551053 l 7.1171531387445 0 L 808.8644542183125 179.28722820220995 l -7.1171531387445 0 L 801.747301079568 169.7401120551053 M 828.43662534986 168.0134492043089 l 7.1171531387445 0 L 835.5537784886045 172.71105465617822 l -7.1171531387445 0 L 828.43662534986 168.0134492043089 M 864.0223910435824 171.9619978514396 l 7.1171531387445 0 L 871.1395441823269 180.26740221727138 l -7.1171531387445 0 L 864.0223910435824 171.9619978514396 M 872.9188324670131 180.2818223509069 l 7.1171531387445 0 L 880.0359856057576 190.12326725303802 l -7.1171531387445 0 L 872.9188324670131 180.2818223509069"></path><path class="candle body equal"></path><path class="candle wick up" d="M 49.10835665733706 79.47224839355762 L 49.10835665733706 84.26802927579482 M 49.10835665733706 90.3063120836137 L 49.10835665733706 91.73825110722919 M 58.004798080767685 71.23203093320151 L 58.004798080767685 76.84975943266372 M 58.004798080767685 84.26802927579482 L 58.004798080767685 85.66974527959887 M 75.79768092762893 73.50626378999357 L 75.79768092762893 76.58288819236792 M 75.79768092762893 79.11865881537139 L 75.79768092762893 89.20504845322932 M 93.5905637744902 70.83932921172988 L 93.5905637744902 75.99186024938848 M 93.5905637744902 79.76460178781213 L 93.5905637744902 80.90833567479427 M 129.1763294682127 98.22296544951786 L 129.1763294682127 101.14432649521379 M 129.1763294682127 115.56683056366681 L 129.1763294682127 115.66204295287672 M 146.96921231507397 97.10925704626989 L 146.96921231507397 105.80044937087129 M 146.96921231507397 110.4818568644103 L 146.96921231507397 110.7799388049036 M 155.8656537385046 102.67246558842523 L 155.8656537385046 104.1917155581627 M 155.8656537385046 105.83166007106877 L 155.8656537385046 115.36830680608185 M 182.55497800879647 106.21112687536801 L 182.55497800879647 106.78259874670472 M 182.55497800879647 110.09824180248982 L 182.55497800879647 115.02380388744682 M 209.24430227908834 117.3752733504236 L 209.24430227908834 120.75748606422482 M 209.24430227908834 130.67834046938998 L 209.24430227908834 136.20619005372666 M 218.14074370251896 117.49004181127624 L 218.14074370251896 120.22552140832794 M 218.14074370251896 120.75728852814765 L 218.14074370251896 126.3050892562814 M 227.0371851259496 75.23766750664271 L 227.0371851259496 79.9214454331081 M 227.0371851259496 120.2103111303836 L 227.0371851259496 120.77901749663951 M 235.93362654938022 71.01869196982659 L 235.93362654938022 74.22786308000147 M 235.93362654938022 79.89161748545108 L 235.93362654938022 84.83969868320868 M 244.83006797281087 70.04681447000755 L 244.83006797281087 70.70125149376781 M 244.83006797281087 74.25018465672497 L 244.83006797281087 80.1211544071563 M 253.72650939624148 57.641548821910646 L 253.72650939624148 59.46401667014854 M 253.72650939624148 70.70125149376781 L 253.72650939624148 76.39740181587807 M 271.51939224310274 96.09234132084947 L 271.51939224310274 102.31018442284227 M 271.51939224310274 103.35890345669173 L 271.51939224310274 114.34190934895587 M 289.31227508996403 108.96142167820962 L 289.31227508996403 110.67405946752493 M 289.31227508996403 112.67747036247711 L 289.31227508996403 120.2207805424752 M 298.2087165133947 103.05509296995966 L 298.2087165133947 104.5441199198857 M 298.2087165133947 110.67405946752493 L 298.2087165133947 111.76485368581773 M 316.0015993602559 112.98720693152514 L 316.0015993602559 115.93405013117975 M 316.0015993602559 118.29598900624813 L 316.0015993602559 141.70184125747988 M 342.6909236305478 115.67429018966311 L 342.6909236305478 118.60849108037694 M 342.6909236305478 137.18221581116688 L 342.6909236305478 139.25575201352476 M 378.2766893242703 120.24152183058106 L 378.2766893242703 122.0418656381727 M 378.2766893242703 130.3125036544174 L 378.2766893242703 132.8490644217297 M 396.06957217113154 110.93678245019957 L 396.06957217113154 118.38744820999129 M 396.06957217113154 124.99937578599608 L 396.06957217113154 136.9862600225855 M 404.9660135945622 113.79078369357065 L 404.9660135945622 114.85767604652246 M 404.9660135945622 118.38744820999129 L 404.9660135945622 129.6432514248673 M 440.5517792882847 112.33731323754049 L 440.5517792882847 114.11553300448577 M 440.5517792882847 125.40155923917318 L 440.5517792882847 127.33859801218655 M 449.44822071171535 97.4055611620684 L 449.44822071171535 100.11536106908422 M 449.44822071171535 114.11553300448577 L 449.44822071171535 116.85101260153752 M 493.93042782886846 115.51961944121626 L 493.93042782886846 117.8699036877299 M 493.93042782886846 118.31435986142765 L 493.93042782886846 120.29920236512314 M 520.6197520991603 121.83465029319093 L 520.6197520991603 123.46985394024426 M 520.6197520991603 125.35691608572623 L 520.6197520991603 127.21612564432317 M 529.5161935225909 116.39292643851302 L 529.5161935225909 119.13196168495428 M 529.5161935225909 123.47834799156382 L 529.5161935225909 142.54255480203884 M 556.2055177928828 118.13025623747818 L 556.2055177928828 121.34732879074105 M 556.2055177928828 125.19098578087905 L 556.2055177928828 125.28303759285377 M 565.1019592163135 113.16973026685704 L 565.1019592163135 115.68041380805624 M 565.1019592163135 121.34732879074105 L 565.1019592163135 123.5389915672639 M 600.687724910036 121.60373061894532 L 600.687724910036 123.29523204800033 M 600.687724910036 125.71406131330205 L 600.687724910036 133.45589525088505 M 609.5841663334666 121.46545536490603 L 609.5841663334666 122.50548281135877 M 609.5841663334666 123.29523204800033 L 609.5841663334666 124.3155058867331 M 618.4806077568971 112.81337518359003 L 618.4806077568971 115.27467470548949 M 618.4806077568971 122.50666802782192 L 618.4806077568971 125.15720711167803 M 636.2734906037584 98.57359198654608 L 636.2734906037584 105.20685345888832 M 636.2734906037584 120.01158983672144 L 636.2734906037584 121.86052751930401 M 645.169932027189 86.63984495472315 L 645.169932027189 91.54683864842339 M 645.169932027189 105.2275947469942 L 645.169932027189 105.79274546386054 M 662.9628148740503 91.97331903909603 L 662.9628148740503 95.09754963607533 M 662.9628148740503 100.95903765480111 L 662.9628148740503 106.78674700432587 M 671.8592562974809 85.35586045292966 L 671.8592562974809 90.79462126644967 M 671.8592562974809 95.09754963607533 L 671.8592562974809 95.84482861611916 M 716.3414634146341 99.01903584062978 L 716.3414634146341 102.68333007267115 M 716.3414634146341 103.78913703283112 L 716.3414634146341 106.17142212385097 M 725.2379048380647 81.06833989732549 L 725.2379048380647 84.10111129056166 M 725.2379048380647 102.6971575980751 L 725.2379048380647 103.21391197602767 M 734.1343462614954 77.54034555855141 L 734.1343462614954 81.12127956601482 M 734.1343462614954 84.10111129056166 L 734.1343462614954 85.44178864651121 M 778.6165533786485 142.36477233255974 L 778.6165533786485 154.17446670790164 M 778.6165533786485 187.33030465752145 L 778.6165533786485 190.65720726970693 M 814.202319072371 162.29616252193836 L 814.202319072371 173.56638587044986 M 814.202319072371 179.24910373931053 L 814.202319072371 189.45322487917906 M 823.0987604958016 163.38873456492604 L 823.0987604958016 168.0134492043089 M 823.0987604958016 173.60075714788246 L 823.0987604958016 175.3785818426734 M 840.8916433426629 170.96799631097426 L 840.8916433426629 172.12239714612517 M 840.8916433426629 172.73377130505608 L 840.8916433426629 177.68935887374724 M 849.7880847660936 165.83205830380038 L 849.7880847660936 171.96654118121518 M 849.7880847660936 172.12239714612517 L 849.7880847660936 175.01669574924486 M 858.6845261895241 169.55739118369624 L 858.6845261895241 171.9619978514396 M 858.6845261895241 171.98668986108947 L 858.6845261895241 174.86874122742284 M 885.3738504598159 179.58056927685047 L 885.3738504598159 182.33441972908165 M 885.3738504598159 190.12326725303802 L 885.3738504598159 193.3758963001967" style="stroke-width: 1px;"></path><path class="candle wick down" d="M 4.626149540183927 3.8461538461538396 L 4.626149540183927 21.74430519292318 M 4.626149540183927 25.90105686542165 L 4.626149540183927 32.253817108141334 M 13.522590963614554 22.885273574824566 L 13.522590963614554 25.936218287163058 M 13.522590963614554 30.64350300681511 L 13.522590963614554 34.26868509557107 M 22.41903238704518 18.949959844866214 L 22.41903238704518 30.615650419930034 M 22.41903238704518 40.75893044802129 L 22.41903238704518 43.96415083665215 M 31.315473810475808 35.675537037382355 L 31.315473810475808 40.75893044802129 M 31.315473810475808 43.75081187327726 L 31.315473810475808 45.33426106810441 M 40.21191523390643 43.40571634641066 L 40.21191523390643 43.745873471347295 M 40.21191523390643 90.3063120836137 L 40.21191523390643 91.31019042793899 M 66.90123950419832 76.19591501713508 L 66.90123950419832 76.82822800024903 M 66.90123950419832 79.13683213447366 L 66.90123950419832 89.20425830892049 M 84.69412235105956 69.25667016121156 L 84.69412235105956 76.58308572844507 M 84.69412235105956 79.76400917958048 L 84.69412235105956 84.17064398973571 M 102.48700519792082 69.51801039134583 L 102.48700519792082 75.99186024938848 M 102.48700519792082 102.02691768813891 L 102.48700519792082 104.65711055604349 M 111.38344662135144 98.82920367044154 L 111.38344662135144 102.06464707888391 M 111.38344662135144 106.04578917875249 L 111.38344662135144 110.73924637300058 M 120.27988804478207 103.40710225952826 L 120.27988804478207 106.04578917875249 M 120.27988804478207 115.56683056366681 L 120.27988804478207 116.27025653457245 M 138.07277089164333 95.40550838042856 L 138.07277089164333 101.11528869186552 M 138.07277089164333 110.50891930698656 L 138.07277089164333 115.87518438017446 M 164.7620951619352 98.07204788653783 L 164.7620951619352 104.16840630105321 M 164.7620951619352 107.73946350465661 L 164.7620951619352 111.62243017415727 M 173.65853658536582 105.68370554924668 L 173.65853658536582 107.75684667945016 M 173.65853658536582 110.10910628673575 L 173.65853658536582 113.64855771798736 M 191.4514194322271 105.65723571490201 L 191.4514194322271 106.78259874670472 M 191.4514194322271 110.80166777339547 L 191.4514194322271 114.02170336781626 M 200.34786085565773 103.23287543943876 L 200.34786085565773 110.8312981849753 M 200.34786085565773 130.67834046938998 L 200.34786085565773 133.46557451866784 M 262.6229508196721 51.49817682102187 L 262.6229508196721 59.46994275246456 M 262.6229508196721 103.35989113707772 L 262.6229508196721 109.5540299098066 M 280.4158336665334 100.26509341560102 L 280.4158336665334 102.30109776329112 M 280.4158336665334 112.67747036247711 L 280.4158336665334 116.72458951213014 M 307.10515793682526 104.47221678778529 L 307.10515793682526 104.56407106368277 M 307.10515793682526 118.32107608805241 L 307.10515793682526 119.91242672596755 M 324.89804078368655 114.00609801771758 L 324.89804078368655 115.93405013117975 M 324.89804078368655 129.01133351390763 L 324.89804078368655 132.23373954125486 M 333.7944822071172 107.65768356869626 L 333.7944822071172 129.02496350323435 M 333.7944822071172 137.18221581116688 L 333.7944822071172 143.8071807682668 M 351.5873650539784 116.66532868897043 L 351.5873650539784 118.60849108037694 M 351.5873650539784 120.81536413484415 L 351.5873650539784 135.79827805431074 M 360.483806477409 120.29722700435119 L 360.483806477409 120.84183396918881 M 360.483806477409 128.11254436265222 L 360.483806477409 130.38736982767585 M 369.38024790083966 122.98233490171712 L 369.38024790083966 128.08311148714955 M 369.38024790083966 130.34707246792723 L 369.38024790083966 133.86677029145892 M 387.1731307477009 99.16639775422023 L 387.1731307477009 122.06438475097337 M 387.1731307477009 124.97902957004455 L 387.1731307477009 130.17047521491136 M 413.86245501799283 103.13410740083926 L 413.86245501799283 114.87683704601072 M 413.86245501799283 118.19406039041345 L 413.86245501799283 123.47321205355661 M 422.7588964414235 116.98138641248883 L 422.7588964414235 118.19406039041345 M 422.7588964414235 120.39974822841744 L 422.7588964414235 123.39301240621386 M 431.65533786485406 118.72148171653478 L 431.65533786485406 120.37426607445875 M 431.65533786485406 125.42012763042992 L 431.65533786485406 128.11550740381023 M 458.34466213514594 99.56660584662542 L 458.34466213514594 100.11536106908422 M 458.34466213514594 103.6623188712694 L 458.34466213514594 112.12199891339355 M 467.2411035585766 97.76902754411456 L 467.2411035585766 103.6623188712694 M 467.2411035585766 107.56543422064435 L 467.2411035585766 109.6923051638459 M 476.13754498200717 105.42908154573719 L 476.13754498200717 107.56543422064435 M 476.13754498200717 116.07094263267867 L 476.13754498200717 120.22097807855235 M 485.0339864054379 114.14911413760962 L 485.0339864054379 116.07094263267867 M 485.0339864054379 118.28591466631102 L 485.0339864054379 121.85776201422325 M 502.82686925229905 116.17148849597295 L 502.82686925229905 117.85133529647322 M 502.82686925229905 123.93722429889708 L 502.82686925229905 126.14212199259224 M 511.7233106757297 121.24638785529234 L 511.7233106757297 123.93722429889708 M 511.7233106757297 125.35691608572623 L 511.7233106757297 129.30763762970614 M 538.4126349460215 107.73926596857946 L 538.4126349460215 119.1230725614803 M 538.4126349460215 123.04712673503838 L 538.4126349460215 125.1520711736709 M 547.3090763694522 122.04463114325348 L 547.3090763694522 123.04712673503838 M 547.3090763694522 125.17142970923639 L 547.3090763694522 127.0324170925281 M 573.998400639744 112.583048117576 L 573.998400639744 115.70767378670972 M 573.998400639744 120.07401123711632 L 573.998400639744 124.74455424640935 M 582.8948420631747 119.42767319252118 L 582.8948420631747 120.07401123711632 M 582.8948420631747 124.09327779988423 L 582.8948420631747 125.23898704763842 M 591.7912834866053 119.67143271178475 L 591.7912834866053 124.10552503667063 M 591.7912834866053 125.71406131330205 L 591.7912834866053 128.51749332091015 M 627.3770491803277 114.66725126810258 L 627.3770491803277 115.27467470548949 M 627.3770491803277 120.0289730115149 L 627.3770491803277 123.44081613689598 M 654.0663734506197 89.55923063964713 L 654.0663734506197 91.54644357626897 M 654.0663734506197 100.95903765480111 L 654.0663734506197 102.83780328504076 M 680.7556977209116 88.39376778417305 L 680.7556977209116 90.79442373037242 M 680.7556977209116 94.39353105693813 L 680.7556977209116 96.61541685327242 M 689.6521391443422 90.0785529866033 L 689.6521391443422 94.39353105693813 M 689.6521391443422 97.09463937655714 L 689.6521391443422 102.08815387207056 M 698.5485805677728 92.96099942509099 L 698.5485805677728 97.09463937655714 M 698.5485805677728 97.23528506352288 L 698.5485805677728 100.25521661174108 M 707.4450219912034 90.98563865310105 L 707.4450219912034 97.25128548577595 M 707.4450219912034 103.78913703283112 L 707.4450219912034 105.83956151415667 M 743.0307876849259 79.81951681727341 L 743.0307876849259 81.12127956601482 M 743.0307876849259 88.900052750034 L 743.0307876849259 89.28426042018607 M 751.9272291083566 85.65670789850375 L 751.9272291083566 88.900052750034 M 751.9272291083566 95.11157469755645 L 751.9272291083566 99.18555875370856 M 760.8236705317872 92.94361625029745 L 760.8236705317872 95.12066135710764 M 760.8236705317872 135.48597351625912 L 760.8236705317872 162.7538536128084 M 769.7201119552178 134.68535979537162 L 769.7201119552178 135.5225176905409 M 769.7201119552178 187.32773668851786 L 769.7201119552178 193.94144208921742 M 787.512994802079 152.3205906233891 L 787.512994802079 154.1487870178658 M 787.512994802079 164.6604718299331 L 787.512994802079 178.66005115710314 M 796.4094362255097 163.69669330927928 L 796.4094362255097 164.6669905204807 M 796.4094362255097 169.76144595144277 L 796.4094362255097 173.33072533035147 M 805.3058776489403 166.9524829336731 L 805.3058776489403 169.7401120551053 M 805.3058776489403 179.28722820220995 L 805.3058776489403 181.27937954076182 M 831.9952019192323 165.73487055381852 L 831.9952019192323 168.0134492043089 M 831.9952019192323 172.71105465617822 L 831.9952019192323 178.32404228978766 M 867.5809676129546 170.92197040498687 L 867.5809676129546 171.9619978514396 M 867.5809676129546 180.26740221727138 L 867.5809676129546 182.2473063190369 M 876.4774090363853 179.50155484597087 L 876.4774090363853 180.2818223509069 M 876.4774090363853 190.12326725303802 L 876.4774090363853 196.15384615384616" style="stroke-width: 1px;"></path><path class="candle wick equal" style="stroke-width: 1px;"></path></g></g><g class="x axis" transform="translate(0,200)" fill="none" font-size="10" font-family="sans-serif" text-anchor="middle"><path class="domain" stroke="#000" d="M0.5,6V0.5H890.5V6"></path><g class="tick" opacity="1" transform="translate(4.626149540183927,0)"><line stroke="#000" y2="6" x1="0.5" x2="0.5"></line><text fill="#000" y="9" x="0.5" dy="0.71em">Aug 15</text></g><g class="tick" opacity="1" transform="translate(66.90123950419832,0)"><line stroke="#000" y2="6" x1="0.5" x2="0.5"></line><text fill="#000" y="9" x="0.5" dy="0.71em">Aug 22</text></g><g class="tick" opacity="1" transform="translate(129.1763294682127,0)"><line stroke="#000" y2="6" x1="0.5" x2="0.5"></line><text fill="#000" y="9" x="0.5" dy="0.71em">Aug 29</text></g><g class="tick" opacity="1" transform="translate(191.4514194322271,0)"><line stroke="#000" y2="6" x1="0.5" x2="0.5"></line><text fill="#000" y="9" x="0.5" dy="0.71em">Sep  5</text></g><g class="tick" opacity="1" transform="translate(253.72650939624148,0)"><line stroke="#000" y2="6" x1="0.5" x2="0.5"></line><text fill="#000" y="9" x="0.5" dy="0.71em">Sep 12</text></g><g class="tick" opacity="1" transform="translate(316.0015993602559,0)"><line stroke="#000" y2="6" x1="0.5" x2="0.5"></line><text fill="#000" y="9" x="0.5" dy="0.71em">Sep 19</text></g><g class="tick" opacity="1" transform="translate(378.2766893242703,0)"><line stroke="#000" y2="6" x1="0.5" x2="0.5"></line><text fill="#000" y="9" x="0.5" dy="0.71em">Sep 26</text></g><g class="tick" opacity="1" transform="translate(440.5517792882847,0)"><line stroke="#000" y2="6" x1="0.5" x2="0.5"></line><text fill="#000" y="9" x="0.5" dy="0.71em">Oct  3</text></g><g class="tick" opacity="1" transform="translate(502.82686925229905,0)"><line stroke="#000" y2="6" x1="0.5" x2="0.5"></line><text fill="#000" y="9" x="0.5" dy="0.71em">Oct 10</text></g><g class="tick" opacity="1" transform="translate(565.1019592163135,0)"><line stroke="#000" y2="6" x1="0.5" x2="0.5"></line><text fill="#000" y="9" x="0.5" dy="0.71em">Oct 17</text></g><g class="tick" opacity="1" transform="translate(627.3770491803277,0)"><line stroke="#000" y2="6" x1="0.5" x2="0.5"></line><text fill="#000" y="9" x="0.5" dy="0.71em">Oct 24</text></g><g class="tick" opacity="1" transform="translate(689.6521391443422,0)"><line stroke="#000" y2="6" x1="0.5" x2="0.5"></line><text fill="#000" y="9" x="0.5" dy="0.71em">Oct 31</text></g><g class="tick" opacity="1" transform="translate(751.9272291083566,0)"><line stroke="#000" y2="6" x1="0.5" x2="0.5"></line><text fill="#000" y="9" x="0.5" dy="0.71em">Nov  7</text></g><g class="tick" opacity="1" transform="translate(814.202319072371,0)"><line stroke="#000" y2="6" x1="0.5" x2="0.5"></line><text fill="#000" y="9" x="0.5" dy="0.71em">Nov 14</text></g><g class="tick" opacity="1" transform="translate(876.4774090363853,0)"><line stroke="#000" y2="6" x1="0.5" x2="0.5"></line><text fill="#000" y="9" x="0.5" dy="0.71em">Nov 21</text></g></g><g class="y axis" fill="none" font-size="10" font-family="sans-serif" text-anchor="end"><path class="domain" stroke="#000" d="M-6,200.5H0.5V0.5H-6"></path><g class="tick" opacity="1" transform="translate(0,185.8029557086188)"><line stroke="#000" x2="-6" y1="0.5" y2="0.5"></line><text fill="#000" x="-9" y="0.5" dy="0.32em">16,000</text></g><g class="tick" opacity="1" transform="translate(0,166.04934798871926)"><line stroke="#000" x2="-6" y1="0.5" y2="0.5"></line><text fill="#000" x="-9" y="0.5" dy="0.32em">17,000</text></g><g class="tick" opacity="1" transform="translate(0,146.29574026881974)"><line stroke="#000" x2="-6" y1="0.5" y2="0.5"></line><text fill="#000" x="-9" y="0.5" dy="0.32em">18,000</text></g><g class="tick" opacity="1" transform="translate(0,126.54213254892021)"><line stroke="#000" x2="-6" y1="0.5" y2="0.5"></line><text fill="#000" x="-9" y="0.5" dy="0.32em">19,000</text></g><g class="tick" opacity="1" transform="translate(0,106.78852482902067)"><line stroke="#000" x2="-6" y1="0.5" y2="0.5"></line><text fill="#000" x="-9" y="0.5" dy="0.32em">20,000</text></g><g class="tick" opacity="1" transform="translate(0,87.03491710912115)"><line stroke="#000" x2="-6" y1="0.5" y2="0.5"></line><text fill="#000" x="-9" y="0.5" dy="0.32em">21,000</text></g><g class="tick" opacity="1" transform="translate(0,67.2813093892216)"><line stroke="#000" x2="-6" y1="0.5" y2="0.5"></line><text fill="#000" x="-9" y="0.5" dy="0.32em">22,000</text></g><g class="tick" opacity="1" transform="translate(0,47.527701669322084)"><line stroke="#000" x2="-6" y1="0.5" y2="0.5"></line><text fill="#000" x="-9" y="0.5" dy="0.32em">23,000</text></g><g class="tick" opacity="1" transform="translate(0,27.774093949422536)"><line stroke="#000" x2="-6" y1="0.5" y2="0.5"></line><text fill="#000" x="-9" y="0.5" dy="0.32em">24,000</text></g><g class="tick" opacity="1" transform="translate(0,8.020486229522987)"><line stroke="#000" x2="-6" y1="0.5" y2="0.5"></line><text fill="#000" x="-9" y="0.5" dy="0.32em">25,000</text></g><text transform="rotate(-90)" y="6" dy=".71em" style="text-anchor: end;">Price ($)</text></g></g></svg>