<?xml version="1.0" encoding="utf-8"?>
<!DOCTYPE svg PUBLIC "-//W3C//DTD SVG 1.1//EN" "http://www.w3.org/Graphics/SVG/1.1/DTD/svg11.dtd">
<svg version="1.1" xmlns="http://www.w3.org/2000/svg" width="960" height="250"><g transform="translate(50,20)"><style>.axis path,.axis line{fill:none;stroke:#000;shape-rendering:crispEdges;}path.candle{stroke:#000000;}path.candle.body{stroke-width:0;}path.candle.up{fill:#00AA00;stroke:#00AA00;}path.candle.down{fill:#FF0000;stroke:#FF0000;}</style><g class="candlestick"><g class="data"><path class="candle body up" d="M 9.964014394242305 68.63953078770115 l 7.1171531387445 0 L 17.081167532986804 68.10674717874673 l -7.1171531387445 0 L 9.964014394242305 68.63953078770115 M 27.75689724110356 75.16128433081147 l 7.1171531387445 0 L 34.87405037984806 62.189143811055715 l -7.1171531387445 0 L 27.75689724110356 75.16128433081147 M 45.54978008796481 64.86737626311287 l 7.1171531387445 0 L 52.66693322670931 52.308572814965316 l -7.1171531387445 0 L 45.54978008796481 64.86737626311287 M 63.342662934826066 53.65172995022752 l 7.1171531387445 0 L 70.45981607357056 47.901173660854994 l -7.1171531387445 0 L 63.342662934826066 53.65172995022752 M 72.23910435825668 47.901173660854994 l 7.1171531387445 0 L 79.35625749700118 44.862820857096864 l -7.1171531387445 0 L 72.23910435825668 47.901173660854994 M 98.92842862854857 53.07387992982021 l 7.1171531387445 0 L 106.04558176729307 43.74643406882632 l -7.1171531387445 0 L 98.92842862854857 53.07387992982021 M 107.82487005197919 43.74643406882632 l 7.1171531387445 0 L 114.94202319072369 40.19433787250264 l -7.1171531387445 0 L 107.82487005197919 43.74643406882632 M 116.72131147540982 40.19433787250264 l 7.1171531387445 0 L 123.83846461415432 32.600853012652635 l -7.1171531387445 0 L 116.72131147540982 40.19433787250264 M 125.61775289884046 32.600853012652635 l 7.1171531387445 0 L 132.73490603758498 30.397530130526007 l -7.1171531387445 0 L 125.61775289884046 32.600853012652635 M 134.51419432227107 30.397530130526007 l 7.1171531387445 0 L 141.63134746101557 29.04067499786177 l -7.1171531387445 0 L 134.51419432227107 30.397530130526007 M 143.4106357457017 29.04067499786177 l 7.1171531387445 0 L 150.5277888844462 13.175037996874977 l -7.1171531387445 0 L 143.4106357457017 29.04067499786177 M 152.30707716913233 13.175037996874977 l 7.1171531387445 0 L 159.42423030787683 11.158350329351919 l -7.1171531387445 0 L 152.30707716913233 13.175037996874977 M 161.20351859256294 11.158350329351919 l 7.1171531387445 0 L 168.32067173130744 9.017421825391835 l -7.1171531387445 0 L 161.20351859256294 11.158350329351919 M 187.89284286285485 22.19797737562041 l 7.1171531387445 0 L 195.00999600159935 16.90274251989348 l -7.1171531387445 0 L 187.89284286285485 22.19797737562041 M 205.68572570971608 20.138894406137865 l 7.1171531387445 0 L 212.80287884846058 16.054425540781864 l -7.1171531387445 0 L 205.68572570971608 20.138894406137865 M 214.5821671331467 16.054357050794863 l 7.1171531387445 0 L 221.6993202718912 14.868452925708652 l -7.1171531387445 0 L 214.5821671331467 16.054357050794863 M 241.2714914034386 38.22381245622461 l 7.1171531387445 0 L 248.3886445421831 36.3491045317742 l -7.1171531387445 0 L 241.2714914034386 38.22381245622461 M 259.06437425029986 44.51427531320061 l 7.1171531387445 0 L 266.1815273890444 41.07642041521041 l -7.1171531387445 0 L 259.06437425029986 44.51427531320061 M 285.7536985205918 63.1543047080072 l 7.1171531387445 0 L 292.8708516593363 59.42509340527445 l -7.1171531387445 0 L 285.7536985205918 63.1543047080072 M 294.65013994402244 59.42502491528751 l 7.1171531387445 0 L 301.76729308276697 52.07714514885694 l -7.1171531387445 0 L 294.65013994402244 59.42502491528751 M 312.4430227908837 60.33306516307218 l 7.1171531387445 0 L 319.5601759296282 56.15839498482342 l -7.1171531387445 0 L 312.4430227908837 60.33306516307218 M 339.13234706117555 62.14298155981069 l 7.1171531387445 0 L 346.2495001999201 54.45141903856168 l -7.1171531387445 0 L 339.13234706117555 62.14298155981069 M 348.02878848460614 54.45141903856168 l 7.1171531387445 0 L 355.14594162335067 49.71156948750257 l -7.1171531387445 0 L 348.02878848460614 54.45141903856168 M 392.5109956017593 63.762769752608136 l 7.1171531387445 0 L 399.62814874050383 63.70441628367524 l -7.1171531387445 0 L 392.5109956017593 63.762769752608136 M 401.40743702518995 63.704484773662216 l 7.1171531387445 0 L 408.5245901639345 57.02013600138906 l -7.1171531387445 0 L 401.40743702518995 63.704484773662216 M 419.20031987205124 72.86488355633765 l 7.1171531387445 0 L 426.31747301079577 65.17291009516654 l -7.1171531387445 0 L 419.20031987205124 72.86488355633765 M 428.0967612954818 65.17291009516654 l 7.1171531387445 0 L 435.21391443422635 61.70491960289178 l -7.1171531387445 0 L 428.0967612954818 65.17291009516654 M 454.7860855657737 76.16500509044977 l 7.1171531387445 0 L 461.90323870451823 70.42862622838848 l -7.1171531387445 0 L 454.7860855657737 76.16500509044977 M 463.68252698920435 70.42862622838848 l 7.1171531387445 0 L 470.7996801279489 70.039534612182 l -7.1171531387445 0 L 463.68252698920435 70.42862622838848 M 481.47540983606564 75.49277586794211 l 7.1171531387445 0 L 488.59256297481016 62.061546965255246 l -7.1171531387445 0 L 481.47540983606564 75.49277586794211 M 534.8540583766493 127.91994320481525 l 7.1171531387445 0 L 541.9712115153937 121.46222779955973 l -7.1171531387445 0 L 534.8540583766493 127.91994320481525 M 561.5433826469413 135.07365385807108 l 7.1171531387445 0 L 568.6605357856857 133.31133800230486 l -7.1171531387445 0 L 561.5433826469413 135.07365385807108 M 570.4398240703717 133.31133800230486 l 7.1171531387445 0 L 577.5569772091162 127.83426223106514 l -7.1171531387445 0 L 570.4398240703717 133.31133800230486 M 579.3362654938024 127.83426223106514 l 7.1171531387445 0 L 586.4534186325469 119.3267784945605 l -7.1171531387445 0 L 579.3362654938024 127.83426223106514 M 597.1291483406637 129.29124972473875 l 7.1171531387445 0 L 604.2463014794082 125.38101938633737 l -7.1171531387445 0 L 597.1291483406637 129.29124972473875 M 614.9220311875249 137.22704753966707 l 7.1171531387445 0 L 622.0391843262694 126.2419385230589 l -7.1171531387445 0 L 614.9220311875249 137.22704753966707 M 632.7149140343862 133.9006258505429 l 7.1171531387445 0 L 639.8320671731307 132.22912771755256 l -7.1171531387445 0 L 632.7149140343862 133.9006258505429 M 641.6113554578168 132.22905922756553 l 7.1171531387445 0 L 648.7285085965613 126.41514970020837 l -7.1171531387445 0 L 641.6113554578168 132.22905922756553 M 659.4042383046781 134.529843361208 l 7.1171531387445 0 L 666.5213914434225 130.79412550970932 l -7.1171531387445 0 L 659.4042383046781 134.529843361208 M 694.9900039984005 137.81277390858054 l 7.1171531387445 0 L 702.107157137145 135.06276395013643 l -7.1171531387445 0 L 694.9900039984005 137.81277390858054 M 703.8864454218311 135.06276395013643 l 7.1171531387445 0 L 711.0035985605756 132.07132678748047 l -7.1171531387445 0 L 703.8864454218311 135.06276395013643 M 712.7828868452618 132.07132678748047 l 7.1171531387445 0 L 719.9000399840063 116.55067385106538 l -7.1171531387445 0 L 712.7828868452618 132.07132678748047 M 721.6793282686924 116.55060536107838 l 7.1171531387445 0 L 728.7964814074369 116.09302375786147 l -7.1171531387445 0 L 721.6793282686924 116.55060536107838 M 739.4722111155537 129.75814596618906 l 7.1171531387445 0 L 746.5893642542982 125.32835058632634 l -7.1171531387445 0 L 739.4722111155537 129.75814596618906 M 757.265093962415 130.48160569898062 l 7.1171531387445 0 L 764.3822471011595 129.35953424178817 l -7.1171531387445 0 L 757.265093962415 130.48160569898062 M 766.1615353858456 129.3596027317752 l 7.1171531387445 0 L 773.27868852459 128.98167498345146 l -7.1171531387445 0 L 766.1615353858456 129.3596027317752 M 775.0579768092763 128.98174347343843 l 7.1171531387445 0 L 782.1751299480208 119.02398426198725 l -7.1171531387445 0 L 775.0579768092763 128.98174347343843 M 855.1259496201519 182.2859935839676 l 7.1171531387445 0 L 862.2431027588964 179.22243646498958 l -7.1171531387445 0 L 855.1259496201519 182.2859935839676 M 872.9188324670131 194.1746225092178 l 7.1171531387445 0 L 880.0359856057576 193.7074523078194 l -7.1171531387445 0 L 872.9188324670131 194.1746225092178"></path><path class="candle body down" d="M 1.0675729708116766 63.89701012714863 l 7.1171531387445 0 L 8.184726109556177 68.63953078770115 l -7.1171531387445 0 L 1.0675729708116766 63.89701012714863 M 18.860455817672932 68.10681566873379 l 7.1171531387445 0 L 25.977608956417434 75.1613528207985 l -7.1171531387445 0 L 18.860455817672932 68.10681566873379 M 36.65333866453418 62.189143811055715 l 7.1171531387445 0 L 43.77049180327868 64.86737626311287 l -7.1171531387445 0 L 36.65333866453418 62.189143811055715 M 54.446221511395436 52.30850432497829 l 7.1171531387445 0 L 61.563374650139934 53.65166146024046 l -7.1171531387445 0 L 54.446221511395436 52.30850432497829 M 81.13554578168731 44.862820857096864 l 7.1171531387445 0 L 88.25269892043181 51.29416761735334 l -7.1171531387445 0 L 81.13554578168731 44.862820857096864 M 90.03198720511796 51.29416761735334 l 7.1171531387445 0 L 97.14914034386246 53.07394841980724 l -7.1171531387445 0 L 90.03198720511796 51.29416761735334 M 170.09996001599356 9.017490315378836 l 7.1171531387445 0 L 177.21711315473806 11.529703038922634 l -7.1171531387445 0 L 170.09996001599356 9.017490315378836 M 178.9964014394242 11.529703038922634 l 7.1171531387445 0 L 186.1135545781687 22.19804586560744 l -7.1171531387445 0 L 178.9964014394242 11.529703038922634 M 196.78928428628546 16.90274251989348 l 7.1171531387445 0 L 203.90643742502996 20.138825916150836 l -7.1171531387445 0 L 196.78928428628546 16.90274251989348 M 223.47860855657734 14.86852141569571 l 7.1171531387445 0 L 230.59576169532184 22.285644558993766 l -7.1171531387445 0 L 223.47860855657734 14.86852141569571 M 232.37504998000796 22.285713048980796 l 7.1171531387445 0 L 239.49220311875246 38.22381245622461 l -7.1171531387445 0 L 232.37504998000796 22.285713048980796 M 250.16793282686922 36.34903604178723 l 7.1171531387445 0 L 257.28508596561375 44.514343803187586 l -7.1171531387445 0 L 250.16793282686922 36.34903604178723 M 267.9608156737305 41.07648890519741 l 7.1171531387445 0 L 275.07796881247504 45.15239652217707 l -7.1171531387445 0 L 267.9608156737305 41.07648890519741 M 276.85725709716115 45.15239652217707 l 7.1171531387445 0 L 283.9744102359057 63.1543047080072 l -7.1171531387445 0 L 276.85725709716115 45.15239652217707 M 303.54658136745303 52.07721363884397 l 7.1171531387445 0 L 310.66373450619756 60.332996673085205 l -7.1171531387445 0 L 303.54658136745303 52.07721363884397 M 321.3394642143143 56.15839498482342 l 7.1171531387445 0 L 328.45661735305885 57.34457306985766 l -7.1171531387445 0 L 321.3394642143143 56.15839498482342 M 330.23590563774496 57.34464155984466 l 7.1171531387445 0 L 337.3530587764895 62.142913069823635 l -7.1171531387445 0 L 330.23590563774496 57.34464155984466 M 356.9252299080368 49.71150099751554 l 7.1171531387445 0 L 364.0423830467813 50.636115822156796 l -7.1171531387445 0 L 356.9252299080368 49.71150099751554 M 365.8216713314674 50.636115822156796 l 7.1171531387445 0 L 372.93882447021196 56.65076950144163 l -7.1171531387445 0 L 365.8216713314674 50.636115822156796 M 374.7181127548981 56.65076950144163 l 7.1171531387445 0 L 381.8352658936426 61.93018317016919 l -7.1171531387445 0 L 374.7181127548981 56.65076950144163 M 383.61455417832866 61.93011468018216 l 7.1171531387445 0 L 390.7317073170732 63.762838242595166 l -7.1171531387445 0 L 383.61455417832866 61.93011468018216 M 410.3038784486206 57.02013600138906 l 7.1171531387445 0 L 417.4210315873651 72.86481506635063 l -7.1171531387445 0 L 410.3038784486206 57.02013600138906 M 436.99320271891247 61.70498809287878 l 7.1171531387445 0 L 444.110355857657 69.55359815434278 l -7.1171531387445 0 L 436.99320271891247 61.70498809287878 M 445.8896441423431 69.55359815434278 l 7.1171531387445 0 L 453.00679728108764 76.16500509044977 l -7.1171531387445 0 L 445.8896441423431 69.55359815434278 M 472.57896841263494 70.039534612182 l 7.1171531387445 0 L 479.69612155137946 75.49277586794211 l -7.1171531387445 0 L 472.57896841263494 70.039534612182 M 490.3718512594962 62.061546965255246 l 7.1171531387445 0 L 497.48900439824075 83.54706136039852 l -7.1171531387445 0 L 490.3718512594962 62.061546965255246 M 499.2682926829268 83.54706136039852 l 7.1171531387445 0 L 506.38544582167134 87.24004146000273 l -7.1171531387445 0 L 499.2682926829268 83.54706136039852 M 508.16473410635746 87.24004146000273 l 7.1171531387445 0 L 515.281887245102 90.94795237677515 l -7.1171531387445 0 L 508.16473410635746 87.24004146000273 M 517.0611755297881 90.94788388678812 l 7.1171531387445 0 L 524.1783286685326 100.76934802408853 l -7.1171531387445 0 L 517.0611755297881 90.94788388678812 M 525.9576169532187 100.76941651407554 l 7.1171531387445 0 L 533.0747700919632 127.90569728751706 l -7.1171531387445 0 L 525.9576169532187 100.76941651407554 M 543.75049980008 121.4621593095727 l 7.1171531387445 0 L 550.8676529388244 134.5654581544535 l -7.1171531387445 0 L 543.75049980008 121.4621593095727 M 552.6469412235106 134.5654581544535 l 7.1171531387445 0 L 559.764094362255 135.07358536808408 l -7.1171531387445 0 L 552.6469412235106 134.5654581544535 M 588.232706917233 119.3267784945605 l 7.1171531387445 0 L 595.3498600559775 129.29124972473875 l -7.1171531387445 0 L 588.232706917233 119.3267784945605 M 606.0255897640943 125.38101938633737 l 7.1171531387445 0 L 613.1427429028388 137.2271160296541 l -7.1171531387445 0 L 606.0255897640943 125.38101938633737 M 623.8184726109555 126.2420070130459 l 7.1171531387445 0 L 630.9356257497 133.9006258505429 l -7.1171531387445 0 L 623.8184726109555 126.2420070130459 M 650.5077968812475 126.41521819019538 l 7.1171531387445 0 L 657.624950019992 134.529774871221 l -7.1171531387445 0 L 650.5077968812475 126.41521819019538 M 668.3006797281087 130.79412550970932 l 7.1171531387445 0 L 675.4178328668531 131.56415843366796 l -7.1171531387445 0 L 668.3006797281087 130.79412550970932 M 677.1971211515394 131.56422692365499 l 7.1171531387445 0 L 684.3142742902838 133.89829719098455 l -7.1171531387445 0 L 677.1971211515394 131.56422692365499 M 686.09356257497 133.89829719098455 l 7.1171531387445 0 L 693.2107157137144 137.81284239856757 l -7.1171531387445 0 L 686.09356257497 133.89829719098455 M 730.5757696921231 116.09295526787447 l 7.1171531387445 0 L 737.6929228308676 129.75821445617606 l -7.1171531387445 0 L 730.5757696921231 116.09295526787447 M 748.3686525389844 125.32828209633932 l 7.1171531387445 0 L 755.4858056777289 130.48160569898062 l -7.1171531387445 0 L 748.3686525389844 125.32828209633932 M 783.9544182327068 119.02398426198725 l 7.1171531387445 0 L 791.0715713714512 120.72096067014547 l -7.1171531387445 0 L 783.9544182327068 119.02398426198725 M 792.8508596561375 120.7210291601325 l 7.1171531387445 0 L 799.9680127948819 127.02587491438067 l -7.1171531387445 0 L 792.8508596561375 120.7210291601325 M 801.747301079568 127.02587491438067 l 7.1171531387445 0 L 808.8644542183125 127.67543395118788 l -7.1171531387445 0 L 801.747301079568 127.02587491438067 M 810.6437425029987 127.67543395118788 l 7.1171531387445 0 L 817.7608956417432 134.64805707878807 l -7.1171531387445 0 L 810.6437425029987 127.67543395118788 M 819.5401839264293 134.6481255687751 l 7.1171531387445 0 L 826.6573370651738 139.21757203215213 l -7.1171531387445 0 L 819.5401839264293 134.6481255687751 M 828.43662534986 139.21750354216516 l 7.1171531387445 0 L 835.5537784886045 151.889383958867 l -7.1171531387445 0 L 828.43662534986 139.21750354216516 M 837.3330667732906 151.889383958867 l 7.1171531387445 0 L 844.4502199120351 179.88206352988735 l -7.1171531387445 0 L 837.3330667732906 151.889383958867 M 846.2295081967213 179.8967203871076 l 7.1171531387445 0 L 853.3466613354658 182.2860620739546 l -7.1171531387445 0 L 846.2295081967213 179.8967203871076 M 864.0223910435824 179.22243646498958 l 7.1171531387445 0 L 871.1395441823269 194.16975972014004 l -7.1171531387445 0 L 864.0223910435824 179.22243646498958 M 881.8152738904437 193.7074523078194 l 7.1171531387445 0 L 888.9324270291881 193.9325104051358 l -7.1171531387445 0 L 881.8152738904437 193.7074523078194"></path><path class="candle body equal"></path><path class="candle wick up" d="M 13.522590963614554 63.45387991119097 L 13.522590963614554 68.10674717874673 M 13.522590963614554 68.63953078770115 L 13.522590963614554 69.11245414800842 M 31.315473810475808 60.30053241924222 L 31.315473810475808 62.189143811055715 M 31.315473810475808 75.16128433081147 L 31.315473810475808 76.6841591919891 M 49.10835665733706 48.17177759953336 L 49.10835665733706 52.308572814965316 M 49.10835665733706 64.86737626311287 L 49.10835665733706 67.96209632618064 M 66.90123950419832 44.014298408024246 L 66.90123950419832 47.901173660854994 M 66.90123950419832 53.65172995022752 L 66.90123950419832 59.01346858334159 M 75.79768092762893 43.50076048541979 L 75.79768092762893 44.862820857096864 M 75.79768092762893 47.901173660854994 L 75.79768092762893 49.66972210543918 M 102.48700519792082 36.91887273371427 L 102.48700519792082 43.74643406882632 M 102.48700519792082 53.07387992982021 L 102.48700519792082 53.94199051517782 M 111.38344662135144 39.21356125851284 L 111.38344662135144 40.19433787250264 M 111.38344662135144 43.74643406882632 L 111.38344662135144 47.942541613009325 M 120.27988804478207 31.029487240671557 L 120.27988804478207 32.600853012652635 M 120.27988804478207 40.19433787250264 L 120.27988804478207 42.40177015384987 M 129.1763294682127 25.0485991249829 L 129.1763294682127 30.397530130526007 M 129.1763294682127 32.600853012652635 L 129.1763294682127 35.425791016886166 M 138.07277089164333 27.111175083802976 L 138.07277089164333 29.04067499786177 M 138.07277089164333 30.397530130526007 L 138.07277089164333 32.04944012723138 M 146.96921231507397 12.00221545930782 L 146.96921231507397 13.175037996874977 M 146.96921231507397 29.04067499786177 L 146.96921231507397 29.655783571202704 M 155.8656537385046 3.846153846153868 L 155.8656537385046 11.158350329351919 M 155.8656537385046 13.175037996874977 L 155.8656537385046 14.299643583586828 M 164.7620951619352 4.485644854870543 L 164.7620951619352 9.017421825391835 M 164.7620951619352 11.158350329351919 L 164.7620951619352 12.3319947467632 M 191.4514194322271 13.912469687016682 L 191.4514194322271 16.90274251989348 M 191.4514194322271 22.19797737562041 L 191.4514194322271 31.172562823536424 M 209.24430227908834 8.953657647485102 L 209.24430227908834 16.054425540781864 M 209.24430227908834 20.138894406137865 L 209.24430227908834 22.057093472339886 M 218.14074370251896 12.743893528644122 L 218.14074370251896 14.868452925708652 M 218.14074370251896 16.054357050794863 L 218.14074370251896 24.885182015975914 M 244.83006797281087 33.22048192513628 L 244.83006797281087 36.3491045317742 M 244.83006797281087 38.22381245622461 L 244.83006797281087 41.258740760632264 M 262.6229508196721 40.76116100500124 L 262.6229508196721 41.07642041521041 M 262.6229508196721 44.51427531320061 L 262.6229508196721 45.38094760883098 M 289.31227508996403 55.15090727589953 L 289.31227508996403 59.42509340527445 M 289.31227508996403 63.1543047080072 L 289.31227508996403 65.04339552972979 M 298.2087165133947 49.24494720600029 L 298.2087165133947 52.07714514885694 M 298.2087165133947 59.42502491528751 L 298.2087165133947 62.756446373463405 M 316.0015993602559 53.97726285848822 L 316.0015993602559 56.15839498482342 M 316.0015993602559 60.33306516307218 L 316.0015993602559 61.538283464495294 M 342.6909236305478 52.28987504851145 L 342.6909236305478 54.45141903856168 M 342.6909236305478 62.14298155981069 L 342.6909236305478 69.96179847692514 M 351.5873650539784 47.8841196540894 L 351.5873650539784 49.71156948750257 M 351.5873650539784 54.45141903856168 L 351.5873650539784 56.02757910963345 M 396.06957217113154 60.34929728999367 L 396.06957217113154 63.70441628367524 M 396.06957217113154 63.762769752608136 L 396.06957217113154 67.26938859755683 M 404.9660135945622 55.719374168086375 L 404.9660135945622 57.02013600138906 M 404.9660135945622 63.704484773662216 L 404.9660135945622 72.26655502981423 M 422.7588964414235 63.53599940561651 L 422.7588964414235 65.17291009516654 M 422.7588964414235 72.86488355633765 L 422.7588964414235 74.4492624258507 M 431.65533786485406 57.38621498196002 L 431.65533786485406 61.70491960289178 M 431.65533786485406 65.17291009516654 L 431.65533786485406 67.59944184496024 M 458.34466213514594 69.01328064681724 L 458.34466213514594 70.42862622838848 M 458.34466213514594 76.16500509044977 L 458.34466213514594 77.83903735295954 M 467.2411035585766 65.64124462634413 L 467.2411035585766 70.039534612182 M 467.2411035585766 70.42862622838848 L 467.2411035585766 73.28020683756908 M 485.0339864054379 59.77555666880704 L 485.0339864054379 62.061546965255246 M 485.0339864054379 75.49277586794211 L 485.0339864054379 75.89652434136877 M 538.4126349460215 110.21692532229879 L 538.4126349460215 121.46222779955973 M 538.4126349460215 127.91994320481525 L 538.4126349460215 130.274834428196 M 565.1019592163135 121.00834465564138 L 565.1019592163135 133.31133800230486 M 565.1019592163135 135.07365385807108 L 565.1019592163135 136.97815492687107 M 573.998400639744 126.07728859428575 L 573.998400639744 127.83426223106514 M 573.998400639744 133.31133800230486 L 573.998400639744 137.81147259882735 M 582.8948420631747 118.42880627486632 L 582.8948420631747 119.3267784945605 M 582.8948420631747 127.83426223106514 L 582.8948420631747 131.989823702938 M 600.687724910036 123.02879927245004 L 600.687724910036 125.38101938633737 M 600.687724910036 129.29124972473875 L 600.687724910036 132.19269104446298 M 618.4806077568971 124.69440726655749 L 618.4806077568971 126.2419385230589 M 618.4806077568971 137.22704753966707 L 618.4806077568971 137.39108105855712 M 636.2734906037584 130.78316711178766 L 636.2734906037584 132.22912771755256 M 636.2734906037584 133.9006258505429 L 636.2734906037584 135.6384222909594 M 645.169932027189 125.08610150227032 L 645.169932027189 126.41514970020837 M 645.169932027189 132.22905922756553 L 645.169932027189 133.5300950208163 M 662.9628148740503 129.48404903817317 L 662.9628148740503 130.79412550970932 M 662.9628148740503 134.529843361208 L 662.9628148740503 137.54436164948655 M 698.5485805677728 133.45550942496192 L 698.5485805677728 135.06276395013643 M 698.5485805677728 137.81277390858054 L 698.5485805677728 139.04429236501568 M 707.4450219912034 131.25163862293923 L 707.4450219912034 132.07132678748047 M 707.4450219912034 135.06276395013643 L 707.4450219912034 136.37859358058148 M 716.3414634146341 113.20986926466902 L 716.3414634146341 116.55067385106538 M 716.3414634146341 132.07132678748047 L 716.3414634146341 133.22524608863273 M 725.2379048380647 111.99759649458385 L 725.2379048380647 116.09302375786147 M 725.2379048380647 116.55060536107838 L 725.2379048380647 120.20947744715136 M 743.0307876849259 123.70938427337302 L 743.0307876849259 125.32835058632634 M 743.0307876849259 129.75814596618906 L 743.0307876849259 131.20527090173314 M 760.8236705317872 128.50450524394955 L 760.8236705317872 129.35953424178817 M 760.8236705317872 130.48160569898062 L 760.8236705317872 131.95557870943276 M 769.7201119552178 127.13388362389615 L 769.7201119552178 128.98167498345146 M 769.7201119552178 129.3596027317752 L 769.7201119552178 131.6376481897302 M 778.6165533786485 116.33547831187853 L 778.6165533786485 119.02398426198725 M 778.6165533786485 128.98174347343843 L 778.6165533786485 129.18015896580778 M 858.6845261895241 177.7411350259273 L 858.6845261895241 179.22243646498958 M 858.6845261895241 182.2859935839676 L 858.6845261895241 196.15384615384616 M 876.4774090363853 187.5665030924873 L 876.4774090363853 193.7074523078194 M 876.4774090363853 194.1746225092178 L 876.4774090363853 195.22895736925685" style="stroke-width: 1px;"></path><path class="candle wick down" d="M 4.626149540183927 58.32021293482168 L 4.626149540183927 63.89701012714863 M 4.626149540183927 68.63953078770115 L 4.626149540183927 72.10491866046955 M 22.41903238704518 64.66416647165286 L 22.41903238704518 68.10681566873379 M 22.41903238704518 75.1613528207985 L 22.41903238704518 76.5231392325275 M 40.21191523390643 60.70811633194148 L 40.21191523390643 62.189143811055715 M 40.21191523390643 64.86737626311287 L 40.21191523390643 72.9628927277496 M 58.004798080767685 49.80992110884961 L 58.004798080767685 52.30850432497829 M 58.004798080767685 53.65166146024046 L 58.004798080767685 56.51385801740773 M 84.69412235105956 44.21127561066629 L 84.69412235105956 44.862820857096864 M 84.69412235105956 51.29416761735334 L 84.69412235105956 53.6989195512777 M 93.5905637744902 49.361996593801166 L 93.5905637744902 51.29416761735334 M 93.5905637744902 53.07394841980724 L 93.5905637744902 56.733436915763264 M 173.65853658536582 7.199560590160104 L 173.65853658536582 9.017490315378836 M 173.65853658536582 11.529703038922634 L 173.65853658536582 15.793684160233028 M 182.55497800879647 7.8859672399789815 L 182.55497800879647 11.529703038922634 M 182.55497800879647 22.19804586560744 L 182.55497800879647 24.323564122490126 M 200.34786085565773 10.536529737283928 L 200.34786085565773 16.90274251989348 M 200.34786085565773 20.138825916150836 L 200.34786085565773 21.446984668050675 M 227.0371851259496 10.62556672039753 L 227.0371851259496 14.86852141569571 M 227.0371851259496 22.285644558993766 L 227.0371851259496 23.270119632282217 M 235.93362654938022 22.21996266145078 L 235.93362654938022 22.285713048980796 M 235.93362654938022 38.22381245622461 L 235.93362654938022 38.56263242196539 M 253.72650939624148 32.74358614558241 L 253.72650939624148 36.34903604178723 M 253.72650939624148 44.514343803187586 L 253.72650939624148 45.50655824500819 M 271.51939224310274 36.58121709775267 L 271.51939224310274 41.07648890519741 M 271.51939224310274 45.15239652217707 L 271.51939224310274 47.144427794376384 M 280.4158336665334 43.40001171452738 L 280.4158336665334 45.15239652217707 M 280.4158336665334 63.1543047080072 L 280.4158336665334 65.41755632876794 M 307.10515793682526 49.66485931636143 L 307.10515793682526 52.07721363884397 M 307.10515793682526 60.332996673085205 L 307.10515793682526 63.00711972592168 M 324.89804078368655 55.0800201393437 L 324.89804078368655 56.15839498482342 M 324.89804078368655 57.34457306985766 L 324.89804078368655 59.996231406954706 M 333.7944822071172 55.85861431167865 L 333.7944822071172 57.34464155984466 M 333.7944822071172 62.142913069823635 L 333.7944822071172 63.04663844842676 M 360.483806477409 44.87740922433008 L 360.483806477409 49.71150099751554 M 360.483806477409 50.636115822156796 L 360.483806477409 54.32217843307291 M 369.38024790083966 39.555737233617094 L 369.38024790083966 50.636115822156796 M 369.38024790083966 56.65076950144163 L 369.38024790083966 61.64375804449142 M 378.2766893242703 54.492992460677016 L 378.2766893242703 56.65076950144163 M 378.2766893242703 61.93018317016919 L 378.2766893242703 65.575083298892 M 387.1731307477009 60.07533734195184 L 387.1731307477009 61.93011468018216 M 387.1731307477009 63.762838242595166 L 387.1731307477009 64.835391439179 M 413.86245501799283 54.477582213599675 L 413.86245501799283 57.02013600138906 M 413.86245501799283 72.86481506635063 L 413.86245501799283 75.675575643273 M 440.5517792882847 60.45032002083411 L 440.5517792882847 61.70498809287878 M 440.5517792882847 69.55359815434278 L 440.5517792882847 72.4377799973404 M 449.44822071171535 68.1887981831853 L 449.44822071171535 69.55359815434278 M 449.44822071171535 76.16500509044977 L 449.44822071171535 76.52526242212485 M 476.13754498200717 69.17416362630479 L 476.13754498200717 70.039534612182 M 476.13754498200717 75.49277586794211 L 476.13754498200717 76.938941943668 M 493.93042782886846 60.9964591772555 L 493.93042782886846 62.061546965255246 M 493.93042782886846 83.54706136039852 L 493.93042782886846 90.266408516034 M 502.82686925229905 82.7069631797282 L 502.82686925229905 83.54706136039852 M 502.82686925229905 87.24004146000273 L 502.82686925229905 92.41630920829247 M 511.7233106757297 86.33234366215301 L 511.7233106757297 87.24004146000273 M 511.7233106757297 90.94795237677515 L 511.7233106757297 95.65588559388736 M 520.6197520991603 90.66145876111035 L 520.6197520991603 90.94788388678812 M 520.6197520991603 100.76934802408853 L 520.6197520991603 102.99150565264303 M 529.5161935225909 99.3670155400493 L 529.5161935225909 100.76941651407554 M 529.5161935225909 127.90569728751706 L 529.5161935225909 128.20006725168804 M 547.3090763694522 113.6167682774982 L 547.3090763694522 121.4621593095727 M 547.3090763694522 134.5654581544535 L 547.3090763694522 143.59887650121146 M 556.2055177928828 126.76403769403967 L 556.2055177928828 134.5654581544535 M 556.2055177928828 135.07358536808408 L 556.2055177928828 151.03004009184673 M 591.7912834866053 119.32671000457347 L 591.7912834866053 119.3267784945605 M 591.7912834866053 129.29124972473875 L 591.7912834866053 134.68120623250115 M 609.5841663334666 123.56562379063804 L 609.5841663334666 125.38101938633737 M 609.5841663334666 137.2271160296541 L 609.5841663334666 137.64387760061274 M 627.3770491803277 123.10441221810959 L 627.3770491803277 126.2420070130459 M 627.3770491803277 133.9006258505429 L 627.3770491803277 137.12657272872272 M 654.0663734506197 123.83602225935537 L 654.0663734506197 126.41521819019538 M 654.0663734506197 134.529774871221 L 654.0663734506197 136.19271175583506 M 671.8592562974809 126.8959494090218 L 671.8592562974809 130.79412550970932 M 671.8592562974809 131.56415843366796 L 671.8592562974809 133.26229917160538 M 680.7556977209116 129.20474687114452 L 680.7556977209116 131.56422692365499 M 680.7556977209116 133.89829719098455 L 680.7556977209116 141.99237536589405 M 689.6521391443422 132.55377025598216 L 689.6521391443422 133.89829719098455 M 689.6521391443422 137.81284239856757 L 689.6521391443422 140.1887600479605 M 734.1343462614954 114.84698542418013 L 734.1343462614954 116.09295526787447 M 734.1343462614954 129.75821445617606 L 734.1343462614954 133.2157944704253 M 751.9272291083566 123.64089428636255 L 751.9272291083566 125.32828209633932 M 751.9272291083566 130.48160569898062 L 751.9272291083566 133.34345980621276 M 787.512994802079 117.54117604321073 L 787.512994802079 119.02398426198725 M 787.512994802079 120.72096067014547 L 787.512994802079 133.77768632385914 M 796.4094362255097 119.33821632239123 L 796.4094362255097 120.7210291601325 M 796.4094362255097 127.02587491438067 L 796.4094362255097 129.49761005560126 M 805.3058776489403 123.63404528766151 L 805.3058776489403 127.02587491438067 M 805.3058776489403 127.67543395118788 L 805.3058776489403 128.8112034057824 M 814.202319072371 125.8065476756334 L 814.202319072371 127.67543395118788 M 814.202319072371 134.64805707878807 L 814.202319072371 136.30469288459716 M 823.0987604958016 132.26097556151242 L 823.0987604958016 134.6481255687751 M 823.0987604958016 139.21757203215213 L 823.0987604958016 141.44151040036888 M 831.9952019192323 138.39391144836435 L 831.9952019192323 139.21750354216516 M 831.9952019192323 151.889383958867 L 831.9952019192323 151.9888999099932 M 840.8916433426629 149.6887321862338 L 840.8916433426629 151.889383958867 M 840.8916433426629 179.88206352988735 L 840.8916433426629 183.728735160343 M 849.7880847660936 173.88597063708235 L 849.7880847660936 179.8967203871076 M 849.7880847660936 182.2860620739546 L 849.7880847660936 191.12407848777175 M 867.5809676129546 176.4005805101715 L 867.5809676129546 179.22243646498958 M 867.5809676129546 194.16975972014004 L 867.5809676129546 195.3293636902142 M 885.3738504598159 191.4935134777062 L 885.3738504598159 193.7074523078194 M 885.3738504598159 193.9325104051358 L 885.3738504598159 194.71240588722392" style="stroke-width: 1px;"></path><path class="candle wick equal" style="stroke-width: 1px;"></path></g></g><g class="x axis" transform="translate(0,200)" fill="none" font-size="10" font-family="sans-serif" text-anchor="middle"><path class="domain" stroke="#000" d="M0.5,6V0.5H890.5V6"></path><g class="tick" opacity="1" transform="translate(31.315473810475808,0)"><line stroke="#000" y2="6" x1="0.5" x2="0.5"></line><text fill="#000" y="9" x="0.5" dy="0.71em">Mar 14</text></g><g class="tick" opacity="1" transform="translate(93.5905637744902,0)"><line stroke="#000" y2="6" x1="0.5" x2="0.5"></line><text fill="#000" y="9" x="0.5" dy="0.71em">Mar 21</text></g><g class="tick" opacity="1" transform="translate(155.8656537385046,0)"><line stroke="#000" y2="6" x1="0.5" x2="0.5"></line><text fill="#000" y="9" x="0.5" dy="0.71em">Mar 28</text></g><g class="tick" opacity="1" transform="translate(218.14074370251896,0)"><line stroke="#000" y2="6" x1="0.5" x2="0.5"></line><text fill="#000" y="9" x="0.5" dy="0.71em">Apr  4</text></g><g class="tick" opacity="1" transform="translate(280.4158336665334,0)"><line stroke="#000" y2="6" x1="0.5" x2="0.5"></line><text fill="#000" y="9" x="0.5" dy="0.71em">Apr 11</text></g><g class="tick" opacity="1" transform="translate(342.6909236305478,0)"><line stroke="#000" y2="6" x1="0.5" x2="0.5"></line><text fill="#000" y="9" x="0.5" dy="0.71em">Apr 18</text></g><g class="tick" opacity="1" transform="translate(404.9660135945622,0)"><line stroke="#000" y2="6" x1="0.5" x2="0.5"></line><text fill="#000" y="9" x="0.5" dy="0.71em">Apr 25</text></g><g class="tick" opacity="1" transform="translate(467.2411035585766,0)"><line stroke="#000" y2="6" x1="0.5" x2="0.5"></line><text fill="#000" y="9" x="0.5" dy="0.71em">May  2</text></g><g class="tick" opacity="1" transform="translate(529.5161935225909,0)"><line stroke="#000" y2="6" x1="0.5" x2="0.5"></line><text fill="#000" y="9" x="0.5" dy="0.71em">May  9</text></g><g class="tick" opacity="1" transform="translate(591.7912834866053,0)"><line stroke="#000" y2="6" x1="0.5" x2="0.5"></line><text fill="#000" y="9" x="0.5" dy="0.71em">May 16</text></g><g class="tick" opacity="1" transform="translate(654.0663734506197,0)"><line stroke="#000" y2="6" x1="0.5" x2="0.5"></line><text fill="#000" y="9" x="0.5" dy="0.71em">May 23</text></g><g class="tick" opacity="1" transform="translate(716.3414634146341,0)"><line stroke="#000" y2="6" x1="0.5" x2="0.5"></line><text fill="#000" y="9" x="0.5" dy="0.71em">May 30</text></g><g class="tick" opacity="1" transform="translate(778.6165533786485,0)"><line stroke="#000" y2="6" x1="0.5" x2="0.5"></line><text fill="#000" y="9" x="0.5" dy="0.71em">Jun  6</text></g><g class="tick" opacity="1" transform="translate(840.8916433426629,0)"><line stroke="#000" y2="6" x1="0.5" x2="0.5"></line><text fill="#000" y="9" x="0.5" dy="0.71em">Jun 13</text></g></g><g class="y axis" fill="none" font-size="10" font-family="sans-serif" text-anchor="end"><path class="domain" stroke="#000" d="M-6,200.5H0.5V0.5H-6"></path><g class="tick" opacity="1" transform="translate(0,196.91833138885693)"><line stroke="#000" x2="-6" y1="0.5" y2="0.5"></line><text fill="#000" x="-9" y="0.5" dy="0.32em">20,000</text></g><g class="tick" opacity="1" transform="translate(0,183.22033398676433)"><line stroke="#000" x2="-6" y1="0.5" y2="0.5"></line><text fill="#000" x="-9" y="0.5" dy="0.32em">22,000</text></g><g class="tick" opacity="1" transform="translate(0,169.52233658467173)"><line stroke="#000" x2="-6" y1="0.5" y2="0.5"></line><text fill="#000" x="-9" y="0.5" dy="0.32em">24,000</text></g><g class="tick" opacity="1" transform="translate(0,155.82433918257914)"><line stroke="#000" x2="-6" y1="0.5" y2="0.5"></line><text fill="#000" x="-9" y="0.5" dy="0.32em">26,000</text></g><g class="tick" opacity="1" transform="translate(0,142.1263417804865)"><line stroke="#000" x2="-6" y1="0.5" y2="0.5"></line><text fill="#000" x="-9" y="0.5" dy="0.32em">28,000</text></g><g class="tick" opacity="1" transform="translate(0,128.42834437839392)"><line stroke="#000" x2="-6" y1="0.5" y2="0.5"></line><text fill="#000" x="-9" y="0.5" dy="0.32em">30,000</text></g><g class="tick" opacity="1" transform="translate(0,114.7303469763013)"><line stroke="#000" x2="-6" y1="0.5" y2="0.5"></line><text fill="#000" x="-9" y="0.5" dy="0.32em">32,000</text></g><g class="tick" opacity="1" transform="translate(0,101.0323495742087)"><line stroke="#000" x2="-6" y1="0.5" y2="0.5"></line><text fill="#000" x="-9" y="0.5" dy="0.32em">34,000</text></g><g class="tick" opacity="1" transform="translate(0,87.3343521721161)"><line stroke="#000" x2="-6" y1="0.5" y2="0.5"></line><text fill="#000" x="-9" y="0.5" dy="0.32em">36,000</text></g><g class="tick" opacity="1" transform="translate(0,73.6363547700235)"><line stroke="#000" x2="-6" y1="0.5" y2="0.5"></line><text fill="#000" x="-9" y="0.5" dy="0.32em">38,000</text></g><g class="tick" opacity="1" transform="translate(0,59.938357367930905)"><line stroke="#000" x2="-6" y1="0.5" y2="0.5"></line><text fill="#000" x="-9" y="0.5" dy="0.32em">40,000</text></g><g class="tick" opacity="1" transform="translate(0,46.24035996583828)"><line stroke="#000" x2="-6" y1="0.5" y2="0.5"></line><text fill="#000" x="-9" y="0.5" dy="0.32em">42,000</text></g><g class="tick" opacity="1" transform="translate(0,32.542362563745684)"><line stroke="#000" x2="-6" y1="0.5" y2="0.5"></line><text fill="#000" x="-9" y="0.5" dy="0.32em">44,000</text></g><g class="tick" opacity="1" transform="translate(0,18.844365161653087)"><line stroke="#000" x2="-6" y1="0.5" y2="0.5"></line><text fill="#000" x="-9" y="0.5" dy="0.32em">46,000</text></g><g class="tick" opacity="1" transform="translate(0,5.146367759560491)"><line stroke="#000" x2="-6" y1="0.5" y2="0.5"></line><text fill="#000" x="-9" y="0.5" dy="0.32em">48,000</text></g><text transform="rotate(-90)" y="6" dy=".71em" style="text-anchor: end;">Price ($)</text></g></g></svg>