<?xml version="1.0" encoding="utf-8"?>
<!DOCTYPE svg PUBLIC "-//W3C//DTD SVG 1.1//EN" "http://www.w3.org/Graphics/SVG/1.1/DTD/svg11.dtd">
<svg version="1.1" xmlns="http://www.w3.org/2000/svg" width="960" height="250"><g transform="translate(50,20)"><style>.axis path,.axis line{fill:none;stroke:#000;shape-rendering:crispEdges;}path.candle{stroke:#000000;}path.candle.body{stroke-width:0;}path.candle.up{fill:#00AA00;stroke:#00AA00;}path.candle.down{fill:#FF0000;stroke:#FF0000;}</style><g class="candlestick"><g class="data"><path class="candle body up" d="M 18.860455817672932 30.6994888295863 l 7.1171531387445 0 L 25.977608956417434 21.49683824151296 l -7.1171531387445 0 L 18.860455817672932 30.6994888295863 M 36.65333866453418 24.355147014158916 l 7.1171531387445 0 L 43.77049180327868 11.43133276686359 l -7.1171531387445 0 L 36.65333866453418 24.355147014158916 M 54.446221511395436 48.57445165908871 l 7.1171531387445 0 L 61.563374650139934 41.500602033679115 l -7.1171531387445 0 L 54.446221511395436 48.57445165908871 M 63.342662934826066 41.53294579268268 l 7.1171531387445 0 L 70.45981607357056 23.386323759268578 l -7.1171531387445 0 L 63.342662934826066 41.53294579268268 M 72.23910435825668 23.386252829972534 l 7.1171531387445 0 L 79.35625749700118 19.830141642683344 l -7.1171531387445 0 L 72.23910435825668 23.386252829972534 M 90.03198720511796 25.686702689102702 l 7.1171531387445 0 L 97.14914034386246 24.03043269679398 l -7.1171531387445 0 L 90.03198720511796 25.686702689102702 M 125.61775289884046 80.99807705004037 l 7.1171531387445 0 L 132.73490603758498 79.26832430701296 l -7.1171531387445 0 L 125.61775289884046 80.99807705004037 M 134.51419432227107 79.26839523630902 l 7.1171531387445 0 L 141.63134746101557 71.85202804022327 l -7.1171531387445 0 L 134.51419432227107 79.26839523630902 M 143.4106357457017 71.85209896951929 l 7.1171531387445 0 L 150.5277888844462 70.80915460024576 l -7.1171531387445 0 L 143.4106357457017 71.85209896951929 M 178.9964014394242 95.26848398304423 l 7.1171531387445 0 L 186.1135545781687 79.31329348071534 l -7.1171531387445 0 L 178.9964014394242 95.26848398304423 M 187.89284286285485 79.31329348071534 l 7.1171531387445 0 L 195.00999600159935 74.60422658596273 l -7.1171531387445 0 L 187.89284286285485 79.31329348071534 M 205.68572570971608 98.37362670598075 l 7.1171531387445 0 L 212.80287884846058 86.7375338286638 l -7.1171531387445 0 L 205.68572570971608 98.37362670598075 M 214.5821671331467 86.78243207307013 l 7.1171531387445 0 L 221.6993202718912 83.03715245318755 l -7.1171531387445 0 L 214.5821671331467 86.78243207307013 M 241.2714914034386 102.40900714675072 l 7.1171531387445 0 L 248.3886445421831 97.43934601827186 l -7.1171531387445 0 L 241.2714914034386 102.40900714675072 M 259.06437425029986 98.52626655110299 l 7.1171531387445 0 L 266.1815273890444 96.8741813872618 l -7.1171531387445 0 L 259.06437425029986 98.52626655110299 M 267.9608156737305 96.87411045796578 l 7.1171531387445 0 L 275.07796881247504 82.86053850599696 l -7.1171531387445 0 L 267.9608156737305 96.87411045796578 M 285.7536985205918 85.00054629743825 l 7.1171531387445 0 L 292.8708516593363 69.03691520887813 l -7.1171531387445 0 L 285.7536985205918 85.00054629743825 M 312.4430227908837 72.15170431607886 l 7.1171531387445 0 L 319.5601759296282 69.48603951153319 l -7.1171531387445 0 L 312.4430227908837 72.15170431607886 M 348.02878848460614 100.06245324518123 l 7.1171531387445 0 L 355.14594162335067 95.40800190839525 l -7.1171531387445 0 L 348.02878848460614 100.06245324518123 M 365.8216713314674 101.819584696488 l 7.1171531387445 0 L 372.93882447021196 91.13961873006656 l -7.1171531387445 0 L 365.8216713314674 101.819584696488 M 428.0967612954818 134.8048991829427 l 7.1171531387445 0 L 435.21391443422635 134.00155397576154 l -7.1171531387445 0 L 428.0967612954818 134.8048991829427 M 436.99320271891247 134.00155397576154 l 7.1171531387445 0 L 444.110355857657 132.690213150195 l -7.1171531387445 0 L 436.99320271891247 134.00155397576154 M 454.7860855657737 132.9890382744979 l 7.1171531387445 0 L 461.90323870451823 126.55716970773184 l -7.1171531387445 0 L 454.7860855657737 132.9890382744979 M 463.68252698920435 126.55716970773184 l 7.1171531387445 0 L 470.7996801279489 118.23453889588106 l -7.1171531387445 0 L 463.68252698920435 126.55716970773184 M 481.47540983606564 127.76963509459003 l 7.1171531387445 0 L 488.59256297481016 124.21175067489933 l -7.1171531387445 0 L 481.47540983606564 127.76963509459003 M 490.3718512594962 124.21175067489933 l 7.1171531387445 0 L 497.48900439824075 124.03917969758413 l -7.1171531387445 0 L 490.3718512594962 124.21175067489933 M 517.0611755297881 130.29982494366016 l 7.1171531387445 0 L 524.1783286685326 129.23240996724564 l -7.1171531387445 0 L 517.0611755297881 130.29982494366016 M 561.5433826469413 180.87390255001316 l 7.1171531387445 0 L 568.6605357856857 172.55297404126782 l -7.1171531387445 0 L 561.5433826469413 180.87390255001316 M 570.4398240703717 172.55297404126782 l 7.1171531387445 0 L 577.5569772091162 169.6037339110723 l -7.1171531387445 0 L 570.4398240703717 172.55297404126782 M 579.3362654938024 169.6037339110723 l 7.1171531387445 0 L 586.4534186325469 167.4902536763576 l -7.1171531387445 0 L 579.3362654938024 169.6037339110723 M 597.1291483406637 168.56185348123964 l 7.1171531387445 0 L 604.2463014794082 166.05904234044885 l -7.1171531387445 0 L 597.1291483406637 168.56185348123964 M 606.0255897640943 166.05897141115278 l 7.1171531387445 0 L 613.1427429028388 162.11211073186635 l -7.1171531387445 0 L 606.0255897640943 166.05897141115278 M 614.9220311875249 162.11203980257028 l 7.1171531387445 0 L 622.0391843262694 158.9183063888542 l -7.1171531387445 0 L 614.9220311875249 162.11203980257028 M 632.7149140343862 160.94042969024295 l 7.1171531387445 0 L 639.8320671731307 156.79000193126285 l -7.1171531387445 0 L 632.7149140343862 160.94042969024295 M 641.6113554578168 156.79000193126285 l 7.1171531387445 0 L 648.7285085965613 155.1750127892614 l -7.1171531387445 0 L 641.6113554578168 156.79000193126285 M 659.4042383046781 167.9296606654524 l 7.1171531387445 0 L 666.5213914434225 164.98439257583624 l -7.1171531387445 0 L 659.4042383046781 167.9296606654524 M 668.3006797281087 164.98176819188197 l 7.1171531387445 0 L 675.4178328668531 134.74978711990371 l -7.1171531387445 0 L 668.3006797281087 164.98176819188197 M 686.09356257497 136.1091470789032 l 7.1171531387445 0 L 693.2107157137144 129.02848824107173 l -7.1171531387445 0 L 686.09356257497 136.1091470789032 M 694.9900039984005 129.02848824107173 l 7.1171531387445 0 L 702.107157137145 118.67905279429225 l -7.1171531387445 0 L 694.9900039984005 129.02848824107173 M 703.8864454218311 118.67905279429225 l 7.1171531387445 0 L 711.0035985605756 117.23918808426411 l -7.1171531387445 0 L 703.8864454218311 118.67905279429225 M 712.7828868452618 117.23911715496804 l 7.1171531387445 0 L 719.9000399840063 114.90043640526126 l -7.1171531387445 0 L 712.7828868452618 117.23911715496804 M 757.265093962415 131.34943666676338 l 7.1171531387445 0 L 764.3822471011595 127.92858764706158 l -7.1171531387445 0 L 757.265093962415 131.34943666676338 M 766.1615353858456 127.92858764706158 l 7.1171531387445 0 L 773.27868852459 113.67945950287583 l -7.1171531387445 0 L 766.1615353858456 127.92858764706158 M 801.747301079568 146.09705590366235 l 7.1171531387445 0 L 808.8644542183125 145.35428431531682 l -7.1171531387445 0 L 801.747301079568 146.09705590366235 M 828.43662534986 167.13674206479203 l 7.1171531387445 0 L 835.5537784886045 158.46797628816606 l -7.1171531387445 0 L 828.43662534986 167.13674206479203 M 846.2295081967213 165.42124611027288 l 7.1171531387445 0 L 853.3466613354658 157.78081326793196 l -7.1171531387445 0 L 846.2295081967213 165.42124611027288 M 855.1259496201519 157.77038666141107 l 7.1171531387445 0 L 862.2431027588964 151.4542037765197 l -7.1171531387445 0 L 855.1259496201519 157.77038666141107 M 881.8152738904437 162.23609514138008 l 7.1171531387445 0 L 888.9324270291881 161.52183713005087 l -7.1171531387445 0 L 881.8152738904437 162.23609514138008"></path><path class="candle body down" d="M 1.0675729708116766 6.13177948240741 l 7.1171531387445 0 L 8.184726109556177 13.831154569774554 l -7.1171531387445 0 L 1.0675729708116766 6.13177948240741 M 9.964014394242305 13.861796025672675 l 7.1171531387445 0 L 17.081167532986804 30.675727515406066 l -7.1171531387445 0 L 9.964014394242305 13.861796025672675 M 27.75689724110356 21.496909170809005 l 7.1171531387445 0 L 34.87405037984806 24.355147014158916 l -7.1171531387445 0 L 27.75689724110356 21.496909170809005 M 45.54978008796481 11.431261837567519 l 7.1171531387445 0 L 52.66693322670931 48.554520526895715 l -7.1171531387445 0 L 45.54978008796481 11.431261837567519 M 81.13554578168731 19.830141642683344 l 7.1171531387445 0 L 88.25269892043181 25.686702689102702 l -7.1171531387445 0 L 81.13554578168731 19.830141642683344 M 98.92842862854857 24.03043269679398 l 7.1171531387445 0 L 106.04558176729307 29.02194004845947 l -7.1171531387445 0 L 98.92842862854857 24.03043269679398 M 107.82487005197919 28.994135764403723 l 7.1171531387445 0 L 114.94202319072369 49.444541333862844 l -7.1171531387445 0 L 107.82487005197919 28.994135764403723 M 116.72131147540982 49.444541333862844 l 7.1171531387445 0 L 123.83846461415432 80.99800612074428 l -7.1171531387445 0 L 116.72131147540982 49.444541333862844 M 152.30707716913233 70.80915460024576 l 7.1171531387445 0 L 159.42423030787683 71.64441799065415 l -7.1171531387445 0 L 152.30707716913233 70.80915460024576 M 161.20351859256294 71.64441799065415 l 7.1171531387445 0 L 168.32067173130744 92.39549284611377 l -7.1171531387445 0 L 161.20351859256294 71.64441799065415 M 170.09996001599356 92.46422333399636 l 7.1171531387445 0 L 177.21711315473806 95.26848398304423 l -7.1171531387445 0 L 170.09996001599356 92.46422333399636 M 196.78928428628546 74.60422658596273 l 7.1171531387445 0 L 203.90643742502996 98.37369763527684 l -7.1171531387445 0 L 196.78928428628546 74.60422658596273 M 223.47860855657734 83.03715245318755 l 7.1171531387445 0 L 230.59576169532184 91.77989748560469 l -7.1171531387445 0 L 223.47860855657734 83.03715245318755 M 232.37504998000796 91.77989748560469 l 7.1171531387445 0 L 239.49220311875246 102.42766155161468 l -7.1171531387445 0 L 232.37504998000796 91.77989748560469 M 250.16793282686922 97.43941694756795 l 7.1171531387445 0 L 257.28508596561375 98.52633748039901 l -7.1171531387445 0 L 250.16793282686922 97.43941694756795 M 276.85725709716115 82.87678131479481 l 7.1171531387445 0 L 283.9744102359057 85.00061722673429 l -7.1171531387445 0 L 276.85725709716115 82.87678131479481 M 294.65013994402244 69.03684427958206 l 7.1171531387445 0 L 301.76729308276697 69.17033321476791 l -7.1171531387445 0 L 294.65013994402244 69.03684427958206 M 303.54658136745303 69.17040414406398 l 7.1171531387445 0 L 310.66373450619756 72.1517752453749 l -7.1171531387445 0 L 303.54658136745303 69.17040414406398 M 321.3394642143143 69.48611044082924 l 7.1171531387445 0 L 328.45661735305885 70.01127094886118 l -7.1171531387445 0 L 321.3394642143143 69.48611044082924 M 330.23590563774496 70.01127094886118 l 7.1171531387445 0 L 337.3530587764895 92.40861476588495 l -7.1171531387445 0 L 330.23590563774496 70.01127094886118 M 339.13234706117555 92.40861476588495 l 7.1171531387445 0 L 346.2495001999201 100.06245324518123 l -7.1171531387445 0 L 339.13234706117555 92.40861476588495 M 356.9252299080368 95.4079309790992 l 7.1171531387445 0 L 364.0423830467813 101.819584696488 l -7.1171531387445 0 L 356.9252299080368 95.4079309790992 M 374.7181127548981 91.13954780077047 l 7.1171531387445 0 L 381.8352658936426 94.23546971521914 l -7.1171531387445 0 L 374.7181127548981 91.13954780077047 M 383.61455417832866 94.23546971521914 l 7.1171531387445 0 L 390.7317073170732 100.19409801866955 l -7.1171531387445 0 L 383.61455417832866 94.23546971521914 M 392.5109956017593 100.19409801866955 l 7.1171531387445 0 L 399.62814874050383 104.54979516044871 l -7.1171531387445 0 L 392.5109956017593 100.19409801866955 M 401.40743702518995 104.54979516044871 l 7.1171531387445 0 L 408.5245901639345 121.43720940090081 l -7.1171531387445 0 L 401.40743702518995 104.54979516044871 M 410.3038784486206 121.43713847160473 l 7.1171531387445 0 L 417.4210315873651 124.05322369820414 l -7.1171531387445 0 L 410.3038784486206 121.43713847160473 M 419.20031987205124 124.05329462750015 l 7.1171531387445 0 L 426.31747301079577 134.8048991829427 l -7.1171531387445 0 L 419.20031987205124 124.05329462750015 M 445.8896441423431 132.690213150195 l 7.1171531387445 0 L 453.00679728108764 132.9890382744979 l -7.1171531387445 0 L 445.8896441423431 132.690213150195 M 472.57896841263494 118.23460982517715 l 7.1171531387445 0 L 479.69612155137946 127.75715153848336 l -7.1171531387445 0 L 472.57896841263494 118.23460982517715 M 499.2682926829268 124.03917969758413 l 7.1171531387445 0 L 506.38544582167134 124.12876339850853 l -7.1171531387445 0 L 499.2682926829268 124.03917969758413 M 508.16473410635746 124.12876339850853 l 7.1171531387445 0 L 515.281887245102 130.29989587295617 l -7.1171531387445 0 L 508.16473410635746 124.12876339850853 M 525.9576169532187 129.23240996724564 l 7.1171531387445 0 L 533.0747700919632 134.14149747688884 l -7.1171531387445 0 L 525.9576169532187 129.23240996724564 M 534.8540583766493 134.14156840618494 l 7.1171531387445 0 L 541.9712115153937 141.0861848541723 l -7.1171531387445 0 L 534.8540583766493 134.14156840618494 M 543.75049980008 141.0861139248763 l 7.1171531387445 0 L 550.8676529388244 171.12899749355728 l -7.1171531387445 0 L 543.75049980008 141.0861139248763 M 552.6469412235106 171.12899749355728 l 7.1171531387445 0 L 559.764094362255 180.87390255001316 l -7.1171531387445 0 L 552.6469412235106 171.12899749355728 M 588.232706917233 167.4902536763576 l 7.1171531387445 0 L 595.3498600559775 168.54695832906694 l -7.1171531387445 0 L 588.232706917233 167.4902536763576 M 623.8184726109555 158.91837731815025 l 7.1171531387445 0 L 630.9356257497 160.94035876094688 l -7.1171531387445 0 L 623.8184726109555 158.91837731815025 M 650.5077968812475 155.1750127892614 l 7.1171531387445 0 L 657.624950019992 167.92973159474843 l -7.1171531387445 0 L 650.5077968812475 155.1750127892614 M 677.1971211515394 134.76787409039918 l 7.1171531387445 0 L 684.3142742902838 136.10921800819926 l -7.1171531387445 0 L 677.1971211515394 134.76787409039918 M 721.6793282686924 114.90050733455733 l 7.1171531387445 0 L 728.7964814074369 121.1229216900567 l -7.1171531387445 0 L 721.6793282686924 114.90050733455733 M 730.5757696921231 121.1229216900567 l 7.1171531387445 0 L 737.6929228308676 129.0791317584589 l -7.1171531387445 0 L 730.5757696921231 121.1229216900567 M 739.4722111155537 129.0791317584589 l 7.1171531387445 0 L 746.5893642542982 130.18463576685787 l -7.1171531387445 0 L 739.4722111155537 129.0791317584589 M 748.3686525389844 130.18463576685787 l 7.1171531387445 0 L 755.4858056777289 131.3493657374673 l -7.1171531387445 0 L 748.3686525389844 130.18463576685787 M 775.0579768092763 113.67953043217192 l 7.1171531387445 0 L 782.1751299480208 118.44094314741716 l -7.1171531387445 0 L 775.0579768092763 113.67953043217192 M 783.9544182327068 118.44094314741716 l 7.1171531387445 0 L 791.0715713714512 142.25800775438785 l -7.1171531387445 0 L 783.9544182327068 118.44094314741716 M 792.8508596561375 142.25793682509178 l 7.1171531387445 0 L 799.9680127948819 146.0971268329584 l -7.1171531387445 0 L 792.8508596561375 142.25793682509178 M 810.6437425029987 145.35428431531682 l 7.1171531387445 0 L 817.7608956417432 157.3575072290429 l -7.1171531387445 0 L 810.6437425029987 145.35428431531682 M 819.5401839264293 157.3575072290429 l 7.1171531387445 0 L 826.6573370651738 167.13674206479203 l -7.1171531387445 0 L 819.5401839264293 157.3575072290429 M 837.3330667732906 158.46797628816606 l 7.1171531387445 0 L 844.4502199120351 165.4213170395689 l -7.1171531387445 0 L 837.3330667732906 158.46797628816606 M 864.0223910435824 151.45427470581575 l 7.1171531387445 0 L 871.1395441823269 152.1808744146595 l -7.1171531387445 0 L 864.0223910435824 151.45427470581575 M 872.9188324670131 152.18080348536344 l 7.1171531387445 0 L 880.0359856057576 162.23616607067615 l -7.1171531387445 0 L 872.9188324670131 152.18080348536344"></path><path class="candle body equal"></path><path class="candle wick up" d="M 22.41903238704518 18.172240276565248 L 22.41903238704518 21.49683824151296 M 22.41903238704518 30.6994888295863 L 22.41903238704518 37.273428776361555 M 40.21191523390643 8.320799417426485 L 40.21191523390643 11.43133276686359 M 40.21191523390643 24.355147014158916 L 40.21191523390643 25.33602824937958 M 58.004798080767685 37.535867171785384 L 58.004798080767685 41.500602033679115 M 58.004798080767685 48.57445165908871 L 58.004798080767685 49.38105961388871 M 66.90123950419832 22.179319928207065 L 66.90123950419832 23.386323759268578 M 66.90123950419832 41.53294579268268 L 66.90123950419832 51.8874172194825 M 75.79768092762893 12.10083439237863 L 75.79768092762893 19.830141642683344 M 75.79768092762893 23.386252829972534 L 75.79768092762893 27.700314474964188 M 93.5905637744902 10.770342656875812 L 93.5905637744902 24.03043269679398 M 93.5905637744902 25.686702689102702 L 93.5905637744902 29.18032516656254 M 129.1763294682127 77.12115265666952 L 129.1763294682127 79.26832430701296 M 129.1763294682127 80.99807705004037 L 129.1763294682127 91.10727497106296 M 138.07277089164333 68.66595499048168 L 138.07277089164333 71.85202804022327 M 138.07277089164333 79.26839523630902 L 138.07277089164333 95.55603134927352 M 146.96921231507397 61.252283107646235 L 146.96921231507397 70.80915460024576 M 146.96921231507397 71.85209896951929 L 146.96921231507397 74.70466246918441 M 182.55497800879647 78.63435825882424 L 182.55497800879647 79.31329348071534 M 182.55497800879647 95.26848398304423 L 182.55497800879647 98.03146378178494 M 191.4514194322271 69.47532918782807 L 191.4514194322271 74.60422658596273 M 191.4514194322271 79.31329348071534 L 191.4514194322271 84.64710561516877 M 209.24430227908834 84.20443587845519 L 209.24430227908834 86.7375338286638 M 209.24430227908834 98.37362670598075 L 209.24430227908834 101.30130433017393 M 218.14074370251896 78.53300029475376 L 218.14074370251896 83.03715245318755 M 218.14074370251896 86.78243207307013 L 218.14074370251896 99.47842142141911 M 244.83006797281087 93.48227152035268 L 244.83006797281087 97.43934601827186 M 244.83006797281087 102.40900714675072 L 244.83006797281087 106.90471871895335 M 262.6229508196721 92.45237814155428 L 262.6229508196721 96.8741813872618 M 262.6229508196721 98.52626655110299 L 262.6229508196721 106.48729981163733 M 271.51939224310274 79.74617497457255 L 271.51939224310274 82.86053850599696 M 271.51939224310274 96.87411045796578 L 271.51939224310274 98.88970826411696 M 289.31227508996403 65.23375728341023 L 289.31227508996403 69.03691520887813 M 289.31227508996403 85.00054629743825 L 289.31227508996403 89.73685004187809 M 316.0015993602559 65.90758559598498 L 316.0015993602559 69.48603951153319 M 316.0015993602559 72.15170431607886 L 316.0015993602559 79.15717810008616 M 351.5873650539784 89.88168766443361 L 351.5873650539784 95.40800190839525 M 351.5873650539784 100.06245324518123 L 351.5873650539784 104.06754687653338 M 369.38024790083966 89.4942009200551 L 369.38024790083966 91.13961873006656 M 369.38024790083966 101.819584696488 L 369.38024790083966 101.88030017391576 M 431.65533786485406 129.602093458313 L 431.65533786485406 134.00155397576154 M 431.65533786485406 134.8048991829427 L 431.65533786485406 142.36227381959677 M 440.5517792882847 126.14996461904855 L 440.5517792882847 132.690213150195 M 440.5517792882847 134.00155397576154 L 440.5517792882847 137.40417416637578 M 458.34466213514594 123.9277497734731 L 458.34466213514594 126.55716970773184 M 458.34466213514594 132.9890382744979 L 458.34466213514594 136.91540038722286 M 467.2411035585766 115.26018979488012 L 467.2411035585766 118.23453889588106 M 467.2411035585766 126.55716970773184 L 467.2411035585766 128.53815401740553 M 485.0339864054379 121.45387778547502 L 485.0339864054379 124.21175067489933 M 485.0339864054379 127.76963509459003 L 485.0339864054379 133.67378969866598 M 493.93042782886846 118.96269904923817 L 493.93042782886846 124.03917969758413 M 493.93042782886846 124.21175067489933 L 493.93042782886846 127.79339640877029 M 520.6197520991603 126.8287579823475 L 520.6197520991603 129.23240996724564 M 520.6197520991603 130.29982494366016 L 520.6197520991603 137.0496695446654 M 565.1019592163135 170.74817810300846 L 565.1019592163135 172.55297404126782 M 565.1019592163135 180.87390255001316 L 565.1019592163135 184.21048756599507 M 573.998400639744 163.29350908704998 L 573.998400639744 169.6037339110723 M 573.998400639744 172.55297404126782 L 573.998400639744 196.15384615384613 M 582.8948420631747 163.3279807249354 L 582.8948420631747 167.4902536763576 M 582.8948420631747 169.6037339110723 L 582.8948420631747 176.40833592863626 M 600.687724910036 165.5315411656469 L 600.687724910036 166.05904234044885 M 600.687724910036 168.56185348123964 L 600.687724910036 177.78429334291386 M 609.5841663334666 160.10169076432754 L 609.5841663334666 162.11211073186635 M 609.5841663334666 166.05897141115278 L 609.5841663334666 173.18807495819354 M 618.4806077568971 154.98953268006318 L 618.4806077568971 158.9183063888542 M 618.4806077568971 162.11203980257028 L 618.4806077568971 165.2905943469294 M 636.2734906037584 154.82455113742643 L 636.2734906037584 156.79000193126285 M 636.2734906037584 160.94042969024295 L 636.2734906037584 169.8004917783441 M 645.169932027189 151.12771622675325 L 645.169932027189 155.1750127892614 M 645.169932027189 156.79000193126285 L 645.169932027189 160.10169076432754 M 662.9628148740503 164.44965661283612 L 662.9628148740503 164.98439257583624 M 662.9628148740503 167.9296606654524 L 662.9628148740503 172.51431757491486 M 671.8592562974809 133.34481962353735 L 671.8592562974809 134.74978711990371 M 671.8592562974809 164.98176819188197 L 671.8592562974809 167.0050263620077 M 689.6521391443422 127.07701051855923 L 689.6521391443422 129.02848824107173 M 689.6521391443422 136.1091470789032 L 689.6521391443422 137.9961500712967 M 698.5485805677728 113.99410186020022 L 698.5485805677728 118.67905279429225 M 698.5485805677728 129.02848824107173 L 698.5485805677728 134.24193336011055 M 707.4450219912034 106.96146215580174 L 707.4450219912034 117.23918808426411 M 707.4450219912034 118.67905279429225 L 707.4450219912034 127.00608122249875 M 716.3414634146341 111.87686237279433 L 716.3414634146341 114.90043640526126 M 716.3414634146341 117.23911715496804 L 716.3414634146341 123.80064447493268 M 760.8236705317872 125.75488843999153 L 760.8236705317872 127.92858764706158 M 760.8236705317872 131.34943666676338 L 760.8236705317872 134.91781862227106 M 769.7201119552178 112.21448582204229 L 769.7201119552178 113.67945950287583 M 769.7201119552178 127.92858764706158 L 769.7201119552178 128.7010786104565 M 805.3058776489403 142.76430106966768 L 805.3058776489403 145.35428431531682 M 805.3058776489403 146.09705590366235 L 805.3058776489403 148.47616635212358 M 831.9952019192323 157.05882396333215 L 831.9952019192323 158.46797628816606 M 831.9952019192323 167.13674206479203 L 831.9952019192323 171.80502461430987 M 849.7880847660936 147.0294215003776 L 849.7880847660936 157.78081326793196 M 849.7880847660936 165.42124611027288 L 849.7880847660936 186.18749983508937 M 858.6845261895241 148.16053098465437 L 858.6845261895241 151.4542037765197 M 858.6845261895241 157.77038666141107 L 858.6845261895241 159.9997653658886 M 885.3738504598159 156.67204651191426 L 885.3738504598159 161.52183713005087 M 885.3738504598159 162.23609514138008 L 885.3738504598159 164.00159624962197" style="stroke-width: 1px;"></path><path class="candle wick down" d="M 4.626149540183927 3.8461538461538396 L 4.626149540183927 6.13177948240741 M 4.626149540183927 13.831154569774554 L 4.626149540183927 14.791324450545488 M 13.522590963614554 8.000908292193628 L 13.522590963614554 13.861796025672675 M 13.522590963614554 30.675727515406066 L 13.522590963614554 35.195200401788924 M 31.315473810475808 20.1227249889329 L 31.315473810475808 21.496909170809005 M 31.315473810475808 24.355147014158916 L 31.315473810475808 33.585105381215584 M 49.10835665733706 10.086229596372306 L 49.10835665733706 11.431261837567519 M 49.10835665733706 48.554520526895715 L 49.10835665733706 50.161281870554205 M 84.69412235105956 9.894791426305034 L 84.69412235105956 19.830141642683344 M 84.69412235105956 25.686702689102702 L 84.69412235105956 33.31167294490237 M 102.48700519792082 22.672845970196022 L 102.48700519792082 24.03043269679398 M 102.48700519792082 29.02194004845947 L 102.48700519792082 34.00521960178196 M 111.38344662135144 21.080270485749622 L 111.38344662135144 28.994135764403723 M 111.38344662135144 49.444541333862844 L 111.38344662135144 63.07041375356502 M 120.27988804478207 47.614210849021674 L 120.27988804478207 49.444541333862844 M 120.27988804478207 80.99800612074428 L 120.27988804478207 131.72784446124615 M 155.8656537385046 66.47501996446897 L 155.8656537385046 70.80915460024576 M 155.8656537385046 71.64441799065415 L 155.8656537385046 84.91663694019869 M 164.7620951619352 69.32807996920644 L 164.7620951619352 71.64441799065415 M 164.7620951619352 92.39549284611377 L 164.7620951619352 93.99558683594253 M 173.65853658536582 74.0999192909726 L 173.65853658536582 92.46422333399636 M 173.65853658536582 95.26848398304423 L 173.65853658536582 97.31507789157389 M 200.34786085565773 73.63909165446752 L 200.34786085565773 74.60422658596273 M 200.34786085565773 98.37369763527684 L 200.34786085565773 105.67941512950823 M 227.0371851259496 78.98389782981037 L 227.0371851259496 83.03715245318755 M 227.0371851259496 91.77989748560469 L 227.0371851259496 92.64083728118702 M 235.93362654938022 89.20105013943707 L 235.93362654938022 91.77989748560469 M 235.93362654938022 102.42766155161468 L 235.93362654938022 107.21680762161955 M 253.72650939624148 87.04444489271756 L 253.72650939624148 97.43941694756795 M 253.72650939624148 98.52633748039901 L 253.72650939624148 100.47206992993061 M 280.4158336665334 77.99301556384522 L 280.4158336665334 82.87678131479481 M 280.4158336665334 85.00061722673429 L 280.4158336665334 86.18010049092433 M 298.2087165133947 62.14833290477853 L 298.2087165133947 69.03684427958206 M 298.2087165133947 69.17033321476791 L 298.2087165133947 72.25980056327505 M 307.10515793682526 66.78547749332574 L 307.10515793682526 69.17040414406398 M 307.10515793682526 72.1517752453749 L 307.10515793682526 73.9770697501958 M 324.89804078368655 60.176498474296636 L 324.89804078368655 69.48611044082924 M 324.89804078368655 70.01127094886118 L 324.89804078368655 71.8018100986124 M 333.7944822071172 69.99275840258937 L 333.7944822071172 70.01127094886118 M 333.7944822071172 92.40861476588495 L 333.7944822071172 94.04516641388882 M 342.6909236305478 88.18591005421919 L 342.6909236305478 92.40861476588495 M 342.6909236305478 100.06245324518123 L 342.6909236305478 102.67031067343764 M 360.483806477409 85.28362511801568 L 360.483806477409 95.4079309790992 M 360.483806477409 101.819584696488 L 360.483806477409 105.64217724907647 M 378.2766893242703 89.24332399988913 L 378.2766893242703 91.13954780077047 M 378.2766893242703 94.23546971521914 L 378.2766893242703 98.71947795357177 M 387.1731307477009 92.22235443443007 L 387.1731307477009 94.23546971521914 M 387.1731307477009 100.19409801866955 L 387.1731307477009 105.51450451616758 M 396.06957217113154 92.31073233732144 L 396.06957217113154 100.19409801866955 M 396.06957217113154 104.54979516044871 L 396.06957217113154 106.90471871895335 M 404.9660135945622 95.76881923745502 L 404.9660135945622 104.54979516044871 M 404.9660135945622 121.43720940090081 L 404.9660135945622 128.18350753710303 M 413.86245501799283 118.84921217554137 L 413.86245501799283 121.43713847160473 M 413.86245501799283 124.05322369820414 L 413.86245501799283 128.675898710355 M 422.7588964414235 123.60268080962781 L 422.7588964414235 124.05329462750015 M 422.7588964414235 134.8048991829427 L 422.7588964414235 141.58914449253732 M 449.44822071171535 129.96737933302458 L 449.44822071171535 132.690213150195 M 449.44822071171535 132.9890382744979 L 449.44822071171535 148.39835691434521 M 476.13754498200717 113.99764832500324 L 476.13754498200717 118.23460982517715 M 476.13754498200717 127.75715153848336 L 476.13754498200717 129.5225107881331 M 502.82686925229905 121.26790117120439 L 502.82686925229905 124.03917969758413 M 502.82686925229905 124.12876339850853 L 502.82686925229905 127.6033768246242 M 511.7233106757297 123.3874103960842 L 511.7233106757297 124.12876339850853 M 511.7233106757297 130.29989587295617 L 511.7233106757297 134.9897409284764 M 529.5161935225909 127.76410260949731 L 529.5161935225909 129.23240996724564 M 529.5161935225909 134.14149747688884 L 529.5161935225909 137.84010561996362 M 538.4126349460215 121.05511328302289 L 538.4126349460215 134.14156840618494 M 538.4126349460215 141.0861848541723 L 538.4126349460215 141.99124267190433 M 547.3090763694522 138.11360898557288 L 547.3090763694522 141.0861139248763 M 547.3090763694522 171.12899749355728 L 547.3090763694522 178.2563987374926 M 556.2055177928828 168.36339331086234 L 556.2055177928828 171.12899749355728 M 556.2055177928828 180.87390255001316 L 556.2055177928828 188.41666575167872 M 591.7912834866053 153.57633738535375 L 591.7912834866053 167.4902536763576 M 591.7912834866053 168.54695832906694 L 591.7912834866053 172.62333590295987 M 627.3770491803277 157.55348487405806 L 627.3770491803277 158.91837731815025 M 627.3770491803277 160.94035876094688 L 627.3770491803277 164.70053353300213 M 654.0663734506197 154.03071045591733 L 654.0663734506197 155.1750127892614 M 654.0663734506197 167.92973159474843 L 654.0663734506197 170.12435494415638 M 680.7556977209116 132.34216309442613 L 680.7556977209116 134.76787409039918 M 680.7556977209116 136.10921800819926 L 680.7556977209116 139.93642096503163 M 725.2379048380647 104.62788831541133 L 725.2379048380647 114.90050733455733 M 725.2379048380647 121.1229216900567 L 725.2379048380647 123.40280205332932 M 734.1343462614954 118.11154749651219 L 734.1343462614954 121.1229216900567 M 734.1343462614954 129.0791317584589 L 734.1343462614954 132.16611658160394 M 743.0307876849259 124.0732257596932 L 743.0307876849259 129.0791317584589 M 743.0307876849259 130.18463576685787 L 743.0307876849259 133.93672459916223 M 751.9272291083566 126.33934583953005 L 751.9272291083566 130.18463576685787 M 751.9272291083566 131.3493657374673 L 751.9272291083566 132.65205318891446 M 778.6165533786485 113.64321463258892 L 778.6165533786485 113.67953043217192 M 778.6165533786485 118.44094314741716 L 778.6165533786485 122.45951334502077 M 787.512994802079 116.37583669261572 L 787.512994802079 118.44094314741716 M 787.512994802079 142.25800775438785 L 787.512994802079 145.39655817576886 M 796.4094362255097 139.1074702819726 L 796.4094362255097 142.25793682509178 M 796.4094362255097 146.0971268329584 L 796.4094362255097 149.8169428355552 M 814.202319072371 145.02609446244486 L 814.202319072371 145.35428431531682 M 814.202319072371 157.3575072290429 L 814.202319072371 160.10169076432754 M 823.0987604958016 149.5023714075269 L 823.0987604958016 157.3575072290429 M 823.0987604958016 167.13674206479203 L 823.0987604958016 168.61320629158743 M 840.8916433426629 151.2360252618376 L 840.8916433426629 158.46797628816606 M 840.8916433426629 165.4213170395689 L 840.8916433426629 166.93367149017087 M 867.5809676129546 143.44430023099972 L 867.5809676129546 151.45427470581575 M 867.5809676129546 152.1808744146595 L 867.5809676129546 156.03616537273186 M 876.4774090363853 146.9393412943808 L 876.4774090363853 152.18080348536344 M 876.4774090363853 162.23616607067615 L 876.4774090363853 167.19462037037744" style="stroke-width: 1px;"></path><path class="candle wick equal" style="stroke-width: 1px;"></path></g></g><g class="x axis" transform="translate(0,200)" fill="none" font-size="10" font-family="sans-serif" text-anchor="middle"><path class="domain" stroke="#000" d="M0.5,6V0.5H890.5V6"></path><g class="tick" opacity="1" transform="translate(13.522590963614554,0)"><line stroke="#000" y2="6" x1="0.5" x2="0.5"></line><text fill="#000" y="9" x="0.5" dy="0.71em">Nov 22</text></g><g class="tick" opacity="1" transform="translate(75.79768092762893,0)"><line stroke="#000" y2="6" x1="0.5" x2="0.5"></line><text fill="#000" y="9" x="0.5" dy="0.71em">Nov 29</text></g><g class="tick" opacity="1" transform="translate(138.07277089164333,0)"><line stroke="#000" y2="6" x1="0.5" x2="0.5"></line><text fill="#000" y="9" x="0.5" dy="0.71em">Dec  6</text></g><g class="tick" opacity="1" transform="translate(200.34786085565773,0)"><line stroke="#000" y2="6" x1="0.5" x2="0.5"></line><text fill="#000" y="9" x="0.5" dy="0.71em">Dec 13</text></g><g class="tick" opacity="1" transform="translate(262.6229508196721,0)"><line stroke="#000" y2="6" x1="0.5" x2="0.5"></line><text fill="#000" y="9" x="0.5" dy="0.71em">Dec 20</text></g><g class="tick" opacity="1" transform="translate(324.89804078368655,0)"><line stroke="#000" y2="6" x1="0.5" x2="0.5"></line><text fill="#000" y="9" x="0.5" dy="0.71em">Dec 27</text></g><g class="tick" opacity="1" transform="translate(387.1731307477009,0)"><line stroke="#000" y2="6" x1="0.5" x2="0.5"></line><text fill="#000" y="9" x="0.5" dy="0.71em">Jan  3</text></g><g class="tick" opacity="1" transform="translate(449.44822071171535,0)"><line stroke="#000" y2="6" x1="0.5" x2="0.5"></line><text fill="#000" y="9" x="0.5" dy="0.71em">Jan 10</text></g><g class="tick" opacity="1" transform="translate(511.7233106757297,0)"><line stroke="#000" y2="6" x1="0.5" x2="0.5"></line><text fill="#000" y="9" x="0.5" dy="0.71em">Jan 17</text></g><g class="tick" opacity="1" transform="translate(573.998400639744,0)"><line stroke="#000" y2="6" x1="0.5" x2="0.5"></line><text fill="#000" y="9" x="0.5" dy="0.71em">Jan 24</text></g><g class="tick" opacity="1" transform="translate(636.2734906037584,0)"><line stroke="#000" y2="6" x1="0.5" x2="0.5"></line><text fill="#000" y="9" x="0.5" dy="0.71em">Jan 31</text></g><g class="tick" opacity="1" transform="translate(698.5485805677728,0)"><line stroke="#000" y2="6" x1="0.5" x2="0.5"></line><text fill="#000" y="9" x="0.5" dy="0.71em">Feb  7</text></g><g class="tick" opacity="1" transform="translate(760.8236705317872,0)"><line stroke="#000" y2="6" x1="0.5" x2="0.5"></line><text fill="#000" y="9" x="0.5" dy="0.71em">Feb 14</text></g><g class="tick" opacity="1" transform="translate(823.0987604958016,0)"><line stroke="#000" y2="6" x1="0.5" x2="0.5"></line><text fill="#000" y="9" x="0.5" dy="0.71em">Feb 21</text></g><g class="tick" opacity="1" transform="translate(885.3738504598159,0)"><line stroke="#000" y2="6" x1="0.5" x2="0.5"></line><text fill="#000" y="9" x="0.5" dy="0.71em">Feb 28</text></g></g><g class="y axis" fill="none" font-size="10" font-family="sans-serif" text-anchor="end"><path class="domain" stroke="#000" d="M-6,200.5H0.5V0.5H-6"></path><g class="tick" opacity="1" transform="translate(0,188.4734091885271)"><line stroke="#000" x2="-6" y1="0.5" y2="0.5"></line><text fill="#000" x="-9" y="0.5" dy="0.32em">34,000</text></g><g class="tick" opacity="1" transform="translate(0,174.28754997642733)"><line stroke="#000" x2="-6" y1="0.5" y2="0.5"></line><text fill="#000" x="-9" y="0.5" dy="0.32em">36,000</text></g><g class="tick" opacity="1" transform="translate(0,160.10169076432754)"><line stroke="#000" x2="-6" y1="0.5" y2="0.5"></line><text fill="#000" x="-9" y="0.5" dy="0.32em">38,000</text></g><g class="tick" opacity="1" transform="translate(0,145.91583155222776)"><line stroke="#000" x2="-6" y1="0.5" y2="0.5"></line><text fill="#000" x="-9" y="0.5" dy="0.32em">40,000</text></g><g class="tick" opacity="1" transform="translate(0,131.72997234012797)"><line stroke="#000" x2="-6" y1="0.5" y2="0.5"></line><text fill="#000" x="-9" y="0.5" dy="0.32em">42,000</text></g><g class="tick" opacity="1" transform="translate(0,117.54411312802819)"><line stroke="#000" x2="-6" y1="0.5" y2="0.5"></line><text fill="#000" x="-9" y="0.5" dy="0.32em">44,000</text></g><g class="tick" opacity="1" transform="translate(0,103.3582539159284)"><line stroke="#000" x2="-6" y1="0.5" y2="0.5"></line><text fill="#000" x="-9" y="0.5" dy="0.32em">46,000</text></g><g class="tick" opacity="1" transform="translate(0,89.1723947038286)"><line stroke="#000" x2="-6" y1="0.5" y2="0.5"></line><text fill="#000" x="-9" y="0.5" dy="0.32em">48,000</text></g><g class="tick" opacity="1" transform="translate(0,74.98653549172883)"><line stroke="#000" x2="-6" y1="0.5" y2="0.5"></line><text fill="#000" x="-9" y="0.5" dy="0.32em">50,000</text></g><g class="tick" opacity="1" transform="translate(0,60.800676279629045)"><line stroke="#000" x2="-6" y1="0.5" y2="0.5"></line><text fill="#000" x="-9" y="0.5" dy="0.32em">52,000</text></g><g class="tick" opacity="1" transform="translate(0,46.61481706752926)"><line stroke="#000" x2="-6" y1="0.5" y2="0.5"></line><text fill="#000" x="-9" y="0.5" dy="0.32em">54,000</text></g><g class="tick" opacity="1" transform="translate(0,32.42895785542947)"><line stroke="#000" x2="-6" y1="0.5" y2="0.5"></line><text fill="#000" x="-9" y="0.5" dy="0.32em">56,000</text></g><g class="tick" opacity="1" transform="translate(0,18.24309864332966)"><line stroke="#000" x2="-6" y1="0.5" y2="0.5"></line><text fill="#000" x="-9" y="0.5" dy="0.32em">58,000</text></g><g class="tick" opacity="1" transform="translate(0,4.057239431229874)"><line stroke="#000" x2="-6" y1="0.5" y2="0.5"></line><text fill="#000" x="-9" y="0.5" dy="0.32em">60,000</text></g><text transform="rotate(-90)" y="6" dy=".71em" style="text-anchor: end;">Price ($)</text></g></g></svg>