<?xml version="1.0" encoding="utf-8"?>
<!DOCTYPE svg PUBLIC "-//W3C//DTD SVG 1.1//EN" "http://www.w3.org/Graphics/SVG/1.1/DTD/svg11.dtd">
<svg version="1.1" xmlns="http://www.w3.org/2000/svg" width="960" height="250"><g transform="translate(50,20)"><style>.axis path,.axis line{fill:none;stroke:#000;shape-rendering:crispEdges;}path.candle{stroke:#000000;}path.candle.body{stroke-width:0;}path.candle.up{fill:#00AA00;stroke:#00AA00;}path.candle.down{fill:#FF0000;stroke:#FF0000;}</style><g class="candlestick"><g class="data"><path class="candle body up" d="M 1.0675729708116766 193.89846021790325 l 7.1171531387445 0 L 8.184726109556177 192.46548105887712 l -7.1171531387445 0 L 1.0675729708116766 193.89846021790325 M 9.964014394242305 192.46408741154286 l 7.1171531387445 0 L 17.081167532986804 190.64336459418504 l -7.1171531387445 0 L 9.964014394242305 192.46408741154286 M 18.860455817672932 190.64351944388886 l 7.1171531387445 0 L 25.977608956417434 189.85332140536389 l -7.1171531387445 0 L 18.860455817672932 190.64351944388886 M 27.75689724110356 189.85332140536389 l 7.1171531387445 0 L 34.87405037984806 189.03215342607757 l -7.1171531387445 0 L 27.75689724110356 189.85332140536389 M 45.54978008796481 190.70576902481912 l 7.1171531387445 0 L 52.66693322670931 185.45744801370256 l -7.1171531387445 0 L 45.54978008796481 190.70576902481912 M 54.446221511395436 185.45744801370256 l 7.1171531387445 0 L 61.563374650139934 183.69928447668264 l -7.1171531387445 0 L 54.446221511395436 185.45744801370256 M 63.342662934826066 183.7005232743131 l 7.1171531387445 0 L 70.45981607357056 181.08696997346556 l -7.1171531387445 0 L 63.342662934826066 183.7005232743131 M 90.03198720511796 181.40611521301093 l 7.1171531387445 0 L 97.14914034386246 179.125953324459 l -7.1171531387445 0 L 90.03198720511796 181.40611521301093 M 116.72131147540982 189.39914722409918 l 7.1171531387445 0 L 123.83846461415432 187.65879140301698 l -7.1171531387445 0 L 116.72131147540982 189.39914722409918 M 134.51419432227107 192.12078561820368 l 7.1171531387445 0 L 141.63134746101557 184.45789317563109 l -7.1171531387445 0 L 134.51419432227107 192.12078561820368 M 152.30707716913233 185.22827045206884 l 7.1171531387445 0 L 159.42423030787683 184.57743714696977 l -7.1171531387445 0 L 152.30707716913233 185.22827045206884 M 161.20351859256294 184.57759199667356 l 7.1171531387445 0 L 168.32067173130744 183.8705482490927 l -7.1171531387445 0 L 161.20351859256294 184.57759199667356 M 178.9964014394242 185.08054383463735 l 7.1171531387445 0 L 186.1135545781687 182.84497866078172 l -7.1171531387445 0 L 178.9964014394242 185.08054383463735 M 223.47860855657734 187.46584867207397 l 7.1171531387445 0 L 230.59576169532184 185.53704076145917 l -7.1171531387445 0 L 223.47860855657734 187.46584867207397 M 232.37504998000796 185.53719561116296 l 7.1171531387445 0 L 239.49220311875246 183.5924381810561 l -7.1171531387445 0 L 232.37504998000796 185.53719561116296 M 250.16793282686922 186.57422407755567 l 7.1171531387445 0 L 257.28508596561375 185.54075715435053 l -7.1171531387445 0 L 250.16793282686922 186.57422407755567 M 259.06437425029986 185.5406023046467 l 7.1171531387445 0 L 266.1815273890444 181.5273625310915 l -7.1171531387445 0 L 259.06437425029986 185.5406023046467 M 267.9608156737305 181.52937557724096 l 7.1171531387445 0 L 275.07796881247504 179.59065728558255 l -7.1171531387445 0 L 267.9608156737305 181.52937557724096 M 276.85725709716115 179.59065728558255 l 7.1171531387445 0 L 283.9744102359057 175.83431317064245 l -7.1171531387445 0 L 276.85725709716115 179.59065728558255 M 285.7536985205918 175.83431317064245 l 7.1171531387445 0 L 292.8708516593363 174.66055241578854 l -7.1171531387445 0 L 285.7536985205918 175.83431317064245 M 294.65013994402244 174.66055241578854 l 7.1171531387445 0 L 301.76729308276697 172.1948805820763 l -7.1171531387445 0 L 294.65013994402244 174.66055241578854 M 321.3394642143143 173.90380191328578 l 7.1171531387445 0 L 328.45661735305885 172.55304794698094 l -7.1171531387445 0 L 321.3394642143143 173.90380191328578 M 339.13234706117555 175.43139424133773 l 7.1171531387445 0 L 346.2495001999201 174.79712985454594 l -7.1171531387445 0 L 339.13234706117555 175.43139424133773 M 348.02878848460614 174.79542650780408 l 7.1171531387445 0 L 355.14594162335067 172.58370818833464 l -7.1171531387445 0 L 348.02878848460614 174.79542650780408 M 356.9252299080368 172.58370818833464 l 7.1171531387445 0 L 364.0423830467813 168.73832549370576 l -7.1171531387445 0 L 356.9252299080368 172.58370818833464 M 365.8216713314674 168.73848034340958 l 7.1171531387445 0 L 372.93882447021196 166.2836479889638 l -7.1171531387445 0 L 365.8216713314674 168.73848034340958 M 374.7181127548981 166.28349313925997 l 7.1171531387445 0 L 381.8352658936426 152.7967033365218 l -7.1171531387445 0 L 374.7181127548981 166.28349313925997 M 383.61455417832866 152.7999551803017 l 7.1171531387445 0 L 390.7317073170732 149.8923422919255 l -7.1171531387445 0 L 383.61455417832866 152.7999551803017 M 401.40743702518995 150.59628904543024 l 7.1171531387445 0 L 408.5245901639345 147.67473968371144 l -7.1171531387445 0 L 401.40743702518995 150.59628904543024 M 419.20031987205124 148.94590090225967 l 7.1171531387445 0 L 426.31747301079577 148.5967148201758 l -7.1171531387445 0 L 419.20031987205124 148.94590090225967 M 428.0967612954818 148.59733421899105 l 7.1171531387445 0 L 435.21391443422635 139.55380181727895 l -7.1171531387445 0 L 428.0967612954818 148.59733421899105 M 445.8896441423431 145.27967931493498 l 7.1171531387445 0 L 453.00679728108764 142.34837442187637 l -7.1171531387445 0 L 445.8896441423431 145.27967931493498 M 454.7860855657737 142.34852927158016 l 7.1171531387445 0 L 461.90323870451823 140.73174351413562 l -7.1171531387445 0 L 454.7860855657737 142.34852927158016 M 463.68252698920435 140.73174351413562 l 7.1171531387445 0 L 470.7996801279489 137.15626385324163 l -7.1171531387445 0 L 463.68252698920435 140.73174351413562 M 490.3718512594962 140.89387115402113 l 7.1171531387445 0 L 497.48900439824075 133.55554369062713 l -7.1171531387445 0 L 490.3718512594962 140.89387115402113 M 499.2682926829268 133.55554369062713 l 7.1171531387445 0 L 506.38544582167134 131.6899144591654 l -7.1171531387445 0 L 499.2682926829268 133.55554369062713 M 508.16473410635746 131.6899144591654 l 7.1171531387445 0 L 515.281887245102 109.29849243902962 l -7.1171531387445 0 L 508.16473410635746 131.6899144591654 M 534.8540583766493 121.2485537811913 l 7.1171531387445 0 L 541.9712115153937 111.07802523517488 l -7.1171531387445 0 L 534.8540583766493 121.2485537811913 M 561.5433826469413 113.8326466161902 l 7.1171531387445 0 L 568.6605357856857 107.83949852976399 l -7.1171531387445 0 L 561.5433826469413 113.8326466161902 M 570.4398240703717 107.83934368006018 l 7.1171531387445 0 L 577.5569772091162 98.43052082706836 l -7.1171531387445 0 L 570.4398240703717 107.83934368006018 M 579.3362654938024 98.43067567677215 l 7.1171531387445 0 L 586.4534186325469 97.98393428129015 l -7.1171531387445 0 L 579.3362654938024 98.43067567677215 M 606.0255897640943 103.61581800873562 l 7.1171531387445 0 L 613.1427429028388 91.90035396784093 l -7.1171531387445 0 L 606.0255897640943 103.61581800873562 M 614.9220311875249 91.90794160332743 l 7.1171531387445 0 L 622.0391843262694 77.25451413211042 l -7.1171531387445 0 L 614.9220311875249 91.90794160332743 M 623.8184726109555 77.25451413211042 l 7.1171531387445 0 L 630.9356257497 75.44679868987241 l -7.1171531387445 0 L 623.8184726109555 77.25451413211042 M 632.7149140343862 75.4215581881519 l 7.1171531387445 0 L 639.8320671731307 75.0333499807088 l -7.1171531387445 0 L 632.7149140343862 75.4215581881519 M 641.6113554578168 75.0335048304126 l 7.1171531387445 0 L 648.7285085965613 61.82699299156437 l -7.1171531387445 0 L 641.6113554578168 75.0335048304126 M 650.5077968812475 61.82714784126816 l 7.1171531387445 0 L 657.624950019992 61.08170136714327 l -7.1171531387445 0 L 650.5077968812475 61.82714784126816 M 677.1971211515394 66.28139957126453 l 7.1171531387445 0 L 684.3142742902838 54.01730302978311 l -7.1171531387445 0 L 677.1971211515394 66.28139957126453 M 712.7828868452618 85.30437598449572 l 7.1171531387445 0 L 719.9000399840063 76.31813797319205 l -7.1171531387445 0 L 712.7828868452618 85.30437598449572 M 721.6793282686924 76.31829282289584 l 7.1171531387445 0 L 728.7964814074369 69.1154588503326 l -7.1171531387445 0 L 721.6793282686924 76.31829282289584 M 730.5757696921231 69.11530400062878 l 7.1171531387445 0 L 737.6929228308676 45.71952680160351 l -7.1171531387445 0 L 730.5757696921231 69.11530400062878 M 748.3686525389844 60.134640578662214 l 7.1171531387445 0 L 755.4858056777289 53.33472553540369 l -7.1171531387445 0 L 748.3686525389844 60.134640578662214 M 757.265093962415 53.33488038510745 l 7.1171531387445 0 L 764.3822471011595 49.961944136792454 l -7.1171531387445 0 L 757.265093962415 53.33488038510745 M 775.0579768092763 61.906895438728554 l 7.1171531387445 0 L 782.1751299480208 54.20854241398422 l -7.1171531387445 0 L 775.0579768092763 61.906895438728554 M 783.9544182327068 54.20854241398422 l 7.1171531387445 0 L 791.0715713714512 50.92975478558361 l -7.1171531387445 0 L 783.9544182327068 54.20854241398422 M 810.6437425029987 66.96118977097541 l 7.1171531387445 0 L 817.7608956417432 63.59831875340788 l -7.1171531387445 0 L 810.6437425029987 66.96118977097541 M 837.3330667732906 71.41435755304516 l 7.1171531387445 0 L 844.4502199120351 59.457482823915996 l -7.1171531387445 0 L 837.3330667732906 71.41435755304516 M 846.2295081967213 59.457482823915996 l 7.1171531387445 0 L 853.3466613354658 53.785338173480824 l -7.1171531387445 0 L 846.2295081967213 59.457482823915996 M 855.1259496201519 53.785338173480824 l 7.1171531387445 0 L 862.2431027588964 52.265488330619206 l -7.1171531387445 0 L 855.1259496201519 53.785338173480824 M 864.0223910435824 52.256971596909864 l 7.1171531387445 0 L 871.1395441823269 49.89179722096807 l -7.1171531387445 0 L 864.0223910435824 52.256971596909864 M 872.9188324670131 49.89179722096807 l 7.1171531387445 0 L 880.0359856057576 20.329595116957023 l -7.1171531387445 0 L 872.9188324670131 49.89179722096807 M 881.8152738904437 20.329595116957023 l 7.1171531387445 0 L 888.9324270291881 8.14261372797128 l -7.1171531387445 0 L 881.8152738904437 20.329595116957023"></path><path class="candle body down" d="M 36.65333866453418 189.03602466867272 l 7.1171531387445 0 L 43.77049180327868 190.70592387452294 l -7.1171531387445 0 L 36.65333866453418 189.03602466867272 M 72.23910435825668 181.08696997346556 l 7.1171531387445 0 L 79.35625749700118 181.3040692582024 l -7.1171531387445 0 L 72.23910435825668 181.08696997346556 M 81.13554578168731 181.3039144084986 l 7.1171531387445 0 L 88.25269892043181 181.40627006271475 l -7.1171531387445 0 L 81.13554578168731 181.3039144084986 M 98.92842862854857 179.1261081741628 l 7.1171531387445 0 L 106.04558176729307 181.60927802440517 l -7.1171531387445 0 L 98.92842862854857 179.1261081741628 M 107.82487005197919 181.60927802440517 l 7.1171531387445 0 L 114.94202319072369 189.39914722409918 l -7.1171531387445 0 L 107.82487005197919 181.60927802440517 M 125.61775289884046 187.65879140301698 l 7.1171531387445 0 L 132.73490603758498 192.12078561820368 l -7.1171531387445 0 L 125.61775289884046 187.65879140301698 M 143.4106357457017 184.45773832592727 l 7.1171531387445 0 L 150.5277888844462 185.22672195503077 l -7.1171531387445 0 L 143.4106357457017 184.45773832592727 M 170.09996001599356 183.8703933993889 l 7.1171531387445 0 L 177.21711315473806 185.08038898493353 l -7.1171531387445 0 L 170.09996001599356 183.8703933993889 M 187.89284286285485 182.84343016374365 l 7.1171531387445 0 L 195.00999600159935 183.83431341840196 l -7.1171531387445 0 L 187.89284286285485 182.84343016374365 M 196.78928428628546 183.83431341840196 l 7.1171531387445 0 L 203.90643742502996 186.27257685454046 l -7.1171531387445 0 L 196.78928428628546 183.83431341840196 M 205.68572570971608 186.27257685454046 l 7.1171531387445 0 L 212.80287884846058 187.0271594611899 l -7.1171531387445 0 L 205.68572570971608 186.27257685454046 M 214.5821671331467 187.0271594611899 l 7.1171531387445 0 L 221.6993202718912 187.4660035217778 l -7.1171531387445 0 L 214.5821671331467 187.0271594611899 M 241.2714914034386 183.59259303075987 l 7.1171531387445 0 L 248.3886445421831 186.57406922785185 l -7.1171531387445 0 L 241.2714914034386 183.59259303075987 M 303.54658136745303 172.19503543178013 l 7.1171531387445 0 L 310.66373450619756 173.8624570423694 l -7.1171531387445 0 L 303.54658136745303 172.19503543178013 M 312.4430227908837 173.8623021926656 l 7.1171531387445 0 L 319.5601759296282 173.90380191328578 l -7.1171531387445 0 L 312.4430227908837 173.8623021926656 M 330.23590563774496 172.55289309727715 l 7.1171531387445 0 L 337.3530587764895 175.43015544370726 l -7.1171531387445 0 L 330.23590563774496 172.55289309727715 M 392.5109956017593 149.8873871014037 l 7.1171531387445 0 L 399.62814874050383 150.59613419572642 l -7.1171531387445 0 L 392.5109956017593 149.8873871014037 M 410.3038784486206 147.67473968371144 l 7.1171531387445 0 L 417.4210315873651 148.95844372826798 l -7.1171531387445 0 L 410.3038784486206 147.67473968371144 M 436.99320271891247 139.55395666698274 l 7.1171531387445 0 L 444.110355857657 145.27967931493498 l -7.1171531387445 0 L 436.99320271891247 139.55395666698274 M 472.57896841263494 137.15626385324163 l 7.1171531387445 0 L 479.69612155137946 137.61307047947105 l -7.1171531387445 0 L 472.57896841263494 137.15626385324163 M 481.47540983606564 137.61322532917484 l 7.1171531387445 0 L 488.59256297481016 140.89789724632007 l -7.1171531387445 0 L 481.47540983606564 137.61322532917484 M 517.0611755297881 109.29849243902962 l 7.1171531387445 0 L 524.1783286685326 109.45489063987426 l -7.1171531387445 0 L 517.0611755297881 109.29849243902962 M 525.9576169532187 109.45473579017046 l 7.1171531387445 0 L 533.0747700919632 121.2485537811913 l -7.1171531387445 0 L 525.9576169532187 109.45473579017046 M 543.75049980008 111.07802523517488 l 7.1171531387445 0 L 550.8676529388244 113.34951554031365 l -7.1171531387445 0 L 543.75049980008 111.07802523517488 M 552.6469412235106 113.34951554031365 l 7.1171531387445 0 L 559.764094362255 113.8326466161902 l -7.1171531387445 0 L 552.6469412235106 113.34951554031365 M 588.232706917233 97.9941543617414 l 7.1171531387445 0 L 595.3498600559775 101.85904811904992 l -7.1171531387445 0 L 588.232706917233 97.9941543617414 M 597.1291483406637 101.87282974268872 l 7.1171531387445 0 L 604.2463014794082 103.61581800873562 l -7.1171531387445 0 L 597.1291483406637 101.87282974268872 M 659.4042383046781 61.08170136714327 l 7.1171531387445 0 L 666.5213914434225 65.56258724619434 l -7.1171531387445 0 L 659.4042383046781 61.08170136714327 M 668.3006797281087 65.57110397990368 l 7.1171531387445 0 L 675.4178328668531 66.28155442096832 l -7.1171531387445 0 L 668.3006797281087 65.57110397990368 M 686.09356257497 54.0174578794869 l 7.1171531387445 0 L 693.2107157137144 60.84462647061534 l -7.1171531387445 0 L 686.09356257497 54.0174578794869 M 694.9900039984005 60.84896226232192 l 7.1171531387445 0 L 702.107157137145 85.15045537891193 l -7.1171531387445 0 L 694.9900039984005 60.84896226232192 M 703.8864454218311 85.15045537891193 l 7.1171531387445 0 L 711.0035985605756 85.30453083419948 l -7.1171531387445 0 L 703.8864454218311 85.15045537891193 M 739.4722111155537 45.71952680160351 l 7.1171531387445 0 L 746.5893642542982 60.134640578662214 l -7.1171531387445 0 L 739.4722111155537 45.71952680160351 M 766.1615353858456 49.955130749824974 l 7.1171531387445 0 L 773.27868852459 61.906740589024736 l -7.1171531387445 0 L 766.1615353858456 49.955130749824974 M 792.8508596561375 50.94105881396155 l 7.1171531387445 0 L 799.9680127948819 53.910611583860344 l -7.1171531387445 0 L 792.8508596561375 50.94105881396155 M 801.747301079568 53.910611583860344 l 7.1171531387445 0 L 808.8644542183125 66.96118977097541 l -7.1171531387445 0 L 801.747301079568 53.910611583860344 M 819.5401839264293 63.598163903704034 l 7.1171531387445 0 L 826.6573370651738 68.03708551302356 l -7.1171531387445 0 L 819.5401839264293 63.598163903704034 M 828.43662534986 68.03429821835502 l 7.1171531387445 0 L 835.5537784886045 71.41435755304516 l -7.1171531387445 0 L 828.43662534986 68.03429821835502"></path><path class="candle body equal"></path><path class="candle wick up" d="M 4.626149540183927 190.54844172575162 L 4.626149540183927 192.46548105887712 M 4.626149540183927 193.89846021790325 L 4.626149540183927 196.15384615384613 M 13.522590963614554 188.3751261328262 L 13.522590963614554 190.64336459418504 M 13.522590963614554 192.46408741154286 L 13.522590963614554 194.76298611425543 M 22.41903238704518 189.70296234296768 L 22.41903238704518 189.85332140536389 M 22.41903238704518 190.64351944388886 L 22.41903238704518 192.76279249018577 M 31.315473810475808 188.45843527347418 L 31.315473810475808 189.03215342607757 M 31.315473810475808 189.85332140536389 L 31.315473810475808 191.69045829132517 M 49.10835665733706 184.2460587808237 L 49.10835665733706 185.45744801370256 M 49.10835665733706 190.70576902481912 L 49.10835665733706 192.57170795568845 M 58.004798080767685 181.45814471348993 L 58.004798080767685 183.69928447668264 M 58.004798080767685 185.45744801370256 L 58.004798080767685 186.46846172985576 M 66.90123950419832 178.93471394025786 L 66.90123950419832 181.08696997346556 M 66.90123950419832 183.7005232743131 L 66.90123950419832 185.62081445121854 M 93.5905637744902 177.5907733609205 L 93.5905637744902 179.125953324459 M 93.5905637744902 181.40611521301093 L 93.5905637744902 182.11888839963262 M 120.27988804478207 186.99138917961062 L 120.27988804478207 187.65879140301698 M 120.27988804478207 189.39914722409918 L 120.27988804478207 190.39359202194504 M 138.07277089164333 183.5455187208027 L 138.07277089164333 184.45789317563109 M 138.07277089164333 192.12078561820368 L 138.07277089164333 192.90324117153835 M 155.8656537385046 183.14755498201976 L 155.8656537385046 184.57743714696977 M 155.8656537385046 185.22827045206884 L 155.8656537385046 185.87693586131462 M 164.7620951619352 183.48729523217142 L 164.7620951619352 183.8705482490927 M 164.7620951619352 184.57759199667356 L 164.7620951619352 186.64901648449424 M 182.55497800879647 182.4259553622811 L 182.55497800879647 182.84497866078172 M 182.55497800879647 185.08054383463735 L 182.55497800879647 186.0133584503682 M 227.0371851259496 185.06877525714805 L 227.0371851259496 185.53704076145917 M 227.0371851259496 187.46584867207397 L 227.0371851259496 187.8405849552859 M 235.93362654938022 183.5027802025521 L 235.93362654938022 183.5924381810561 M 235.93362654938022 185.53719561116296 L 235.93362654938022 186.32661940116895 M 253.72650939624148 185.3010498128579 L 253.72650939624148 185.54075715435053 M 253.72650939624148 186.57422407755567 L 253.72650939624148 187.40236029351328 M 262.6229508196721 181.149064704692 L 262.6229508196721 181.5273625310915 M 262.6229508196721 185.5406023046467 L 262.6229508196721 187.64640342671245 M 271.51939224310274 178.754468885027 L 271.51939224310274 179.59065728558255 M 271.51939224310274 181.52937557724096 L 271.51939224310274 183.02274612075166 M 280.4158336665334 172.77169572875584 L 280.4158336665334 175.83431317064245 M 280.4158336665334 179.59065728558255 L 280.4158336665334 179.59267033173202 M 289.31227508996403 173.4840043662661 L 289.31227508996403 174.66055241578854 M 289.31227508996403 175.83431317064245 L 289.31227508996403 176.9526377315336 M 298.2087165133947 169.22548266188124 L 298.2087165133947 172.1948805820763 M 298.2087165133947 174.66055241578854 L 298.2087165133947 177.71140128018584 M 324.89804078368655 170.81532457086345 L 324.89804078368655 172.55304794698094 M 324.89804078368655 173.90380191328578 L 324.89804078368655 176.49072106507856 M 342.6909236305478 174.14335440507455 L 342.6909236305478 174.79712985454594 M 342.6909236305478 175.43139424133773 L 342.6909236305478 176.4261487385912 M 351.5873650539784 172.55490614342662 L 351.5873650539784 172.58370818833464 M 351.5873650539784 174.79542650780408 L 351.5873650539784 175.01360974046756 M 360.483806477409 167.61535544170042 L 360.483806477409 168.73832549370576 M 360.483806477409 172.58370818833464 L 360.483806477409 174.05756766916573 M 369.38024790083966 164.29553264179108 L 369.38024790083966 166.2836479889638 M 369.38024790083966 168.73848034340958 L 369.38024790083966 169.8823551054288 M 378.2766893242703 146.03410707188067 L 378.2766893242703 152.7967033365218 M 378.2766893242703 166.28349313925997 L 378.2766893242703 166.64042170653414 M 387.1731307477009 146.54015590392058 L 387.1731307477009 149.8923422919255 M 387.1731307477009 152.7999551803017 L 387.1731307477009 154.38979708928392 M 404.9660135945622 146.8230663127752 L 404.9660135945622 147.67473968371144 M 404.9660135945622 150.59628904543024 L 404.9660135945622 151.41792157382795 M 422.7588964414235 145.70690964773735 L 422.7588964414235 148.5967148201758 M 422.7588964414235 148.94590090225967 L 422.7588964414235 153.0438434637971 M 431.65533786485406 137.18274315259254 L 431.65533786485406 139.55380181727895 M 431.65533786485406 148.59733421899105 L 431.65533786485406 149.0971890628787 M 449.44822071171535 139.44943311691333 L 449.44822071171535 142.34837442187637 M 449.44822071171535 145.27967931493498 L 449.44822071171535 150.63174962760192 M 458.34466213514594 139.0302549687089 L 458.34466213514594 140.73174351413562 M 458.34466213514594 142.34852927158016 L 458.34466213514594 147.62410383056667 M 467.2411035585766 132.37140800561818 L 467.2411035585766 137.15626385324163 M 467.2411035585766 140.73174351413562 L 467.2411035585766 143.03281011270144 M 493.93042782886846 132.8961936518187 L 493.93042782886846 133.55554369062713 M 493.93042782886846 140.89387115402113 L 493.93042782886846 144.99181371555855 M 502.82686925229905 129.9092977150935 L 502.82686925229905 131.6899144591654 M 502.82686925229905 133.55554369062713 L 502.82686925229905 141.27526597449673 M 511.7233106757297 106.82120687753189 L 511.7233106757297 109.29849243902962 M 511.7233106757297 131.6899144591654 L 511.7233106757297 132.47113121486962 M 538.4126349460215 108.36970391559774 L 538.4126349460215 111.07802523517488 M 538.4126349460215 121.2485537811913 L 538.4126349460215 123.02034409214623 M 565.1019592163135 103.49193824569035 L 565.1019592163135 107.83949852976399 M 565.1019592163135 113.8326466161902 L 565.1019592163135 114.21249293962774 M 573.998400639744 97.674234873677 L 573.998400639744 98.43052082706836 M 573.998400639744 107.83934368006018 L 573.998400639744 111.61163731449237 M 582.8948420631747 95.5171784996513 L 582.8948420631747 97.98393428129015 M 582.8948420631747 98.43067567677215 L 582.8948420631747 103.68782312100568 M 609.5841663334666 89.32319034738796 L 609.5841663334666 91.90035396784093 M 609.5841663334666 103.61581800873562 L 609.5841663334666 105.05592025413685 M 618.4806077568971 74.16619163939195 L 618.4806077568971 77.25451413211042 M 618.4806077568971 91.90794160332743 L 618.4806077568971 94.6190502175731 M 627.3770491803277 64.59477659740321 L 627.3770491803277 75.44679868987241 M 627.3770491803277 77.25451413211042 L 627.3770491803277 84.14424200357675 M 636.2734906037584 69.19582584660824 L 636.2734906037584 75.0333499807088 M 636.2734906037584 75.4215581881519 L 636.2734906037584 82.26746359344095 M 645.169932027189 59.35636596733028 L 645.169932027189 61.82699299156437 M 645.169932027189 75.0335048304126 L 645.169932027189 76.00549642120653 M 654.0663734506197 57.02309063037268 L 654.0663734506197 61.08170136714327 M 654.0663734506197 61.82714784126816 L 654.0663734506197 67.201671360987 M 680.7556977209116 50.00731510000779 L 680.7556977209116 54.01730302978311 M 680.7556977209116 66.28139957126453 L 680.7556977209116 71.70129405419874 M 716.3414634146341 73.83063233124305 L 716.3414634146341 76.31813797319205 M 716.3414634146341 85.30437598449572 L 716.3414634146341 89.54679331968465 M 725.2379048380647 66.40465993549455 L 725.2379048380647 69.1154588503326 M 725.2379048380647 76.31829282289584 L 725.2379048380647 79.45926421490859 M 734.1343462614954 43.12904610662318 L 734.1343462614954 45.71952680160351 M 734.1343462614954 69.11530400062878 L 734.1343462614954 69.1154588503326 M 751.9272291083566 51.199193270207076 L 751.9272291083566 53.33472553540369 M 751.9272291083566 60.134640578662214 L 751.9272291083566 66.86998329543334 M 760.8236705317872 47.235040852758544 L 760.8236705317872 49.961944136792454 M 760.8236705317872 53.33488038510745 L 760.8236705317872 58.55145720694367 M 778.6165533786485 53.754213383015724 L 778.6165533786485 54.20854241398422 M 778.6165533786485 61.906895438728554 L 778.6165533786485 64.2375383307214 M 787.512994802079 49.99136558051575 L 787.512994802079 50.92975478558361 M 787.512994802079 54.20854241398422 L 787.512994802079 58.70940390482639 M 814.202319072371 62.076301014692916 L 814.202319072371 63.59831875340788 M 814.202319072371 66.96118977097541 L 814.202319072371 77.399763154281 M 840.8916433426629 57.29005151973524 L 840.8916433426629 59.457482823915996 M 840.8916433426629 71.41435755304516 L 840.8916433426629 71.65948463417095 M 849.7880847660936 50.130730313941655 L 849.7880847660936 53.785338173480824 M 849.7880847660936 59.457482823915996 L 849.7880847660936 60.96835138395684 M 858.6845261895241 51.09079847754248 L 858.6845261895241 52.265488330619206 M 858.6845261895241 53.785338173480824 L 858.6845261895241 56.49505314039226 M 867.5809676129546 47.66862002341699 L 867.5809676129546 49.89179722096807 M 867.5809676129546 52.256971596909864 L 867.5809676129546 55.72080462135932 M 876.4774090363853 16.853528965906833 L 876.4774090363853 20.329595116957023 M 876.4774090363853 49.89179722096807 L 876.4774090363853 52.18094039234086 M 885.3738504598159 3.8461538461538396 L 885.3738504598159 8.14261372797128 M 885.3738504598159 20.329595116957023 L 885.3738504598159 21.9635691915241" style="stroke-width: 1px;"></path><path class="candle wick down" d="M 40.21191523390643 186.8768003987937 L 40.21191523390643 189.03602466867272 M 40.21191523390643 190.70592387452294 L 40.21191523390643 192.76279249018577 M 75.79768092762893 179.67086943215438 L 75.79768092762893 181.08696997346556 M 75.79768092762893 181.3040692582024 L 75.79768092762893 184.31063110731102 M 84.69412235105956 179.78592276208263 L 84.69412235105956 181.3039144084986 M 84.69412235105956 181.40627006271475 L 84.69412235105956 183.2729832421031 M 102.48700519792082 179.1261081741628 L 102.48700519792082 179.1261081741628 M 102.48700519792082 181.60927802440517 L 102.48700519792082 184.66415298110147 M 111.38344662135144 180.54731875569962 L 111.38344662135144 181.60927802440517 M 111.38344662135144 189.39914722409918 L 111.38344662135144 191.27081559400932 M 129.1763294682127 187.54203472634683 L 129.1763294682127 187.65879140301698 M 129.1763294682127 192.12078561820368 L 129.1763294682127 193.74113291883577 M 146.96921231507397 184.08300204271535 L 146.96921231507397 184.45773832592727 M 146.96921231507397 185.22672195503077 L 146.96921231507397 187.24642664178003 M 173.65853658536582 181.149064704692 L 173.65853658536582 183.8703933993889 M 173.65853658536582 185.08038898493353 L 173.65853658536582 186.1661951080253 M 191.4514194322271 182.70778182320907 L 191.4514194322271 182.84343016374365 M 191.4514194322271 183.83431341840196 L 191.4514194322271 185.56026821703017 M 200.34786085565773 181.61361381611175 L 200.34786085565773 183.83431341840196 M 200.34786085565773 186.27257685454046 L 200.34786085565773 189.09285450996975 M 209.24430227908834 185.5678558525167 L 209.24430227908834 186.27257685454046 M 209.24430227908834 187.0271594611899 L 209.24430227908834 190.06840764395122 M 218.14074370251896 186.5136778433673 L 218.14074370251896 187.0271594611899 M 218.14074370251896 187.4660035217778 L 218.14074370251896 188.17211817113582 M 244.83006797281087 183.47181026179075 L 244.83006797281087 183.59259303075987 M 244.83006797281087 186.57406922785185 L 244.83006797281087 187.7301771164718 M 307.10515793682526 171.74968768363237 L 307.10515793682526 172.19503543178013 M 307.10515793682526 173.8624570423694 L 307.10515793682526 175.72932507146157 M 316.0015993602559 171.88936211646592 L 316.0015993602559 173.8623021926656 M 316.0015993602559 173.90380191328578 L 316.0015993602559 176.03902447907475 M 333.7944822071172 171.99512446416583 L 333.7944822071172 172.55289309727715 M 333.7944822071172 175.43015544370726 L 333.7944822071172 177.27782210952742 M 396.06957217113154 148.97609659450194 L 396.06957217113154 149.8873871014037 M 396.06957217113154 150.59613419572642 L 396.06957217113154 153.73942833329625 M 413.86245501799283 143.98513579111196 L 413.86245501799283 147.67473968371144 M 413.86245501799283 148.95844372826798 L 413.86245501799283 151.1391921069761 M 440.5517792882847 136.09585308157415 L 440.5517792882847 139.55395666698274 M 440.5517792882847 145.27967931493498 L 440.5517792882847 151.1391921069761 M 476.13754498200717 135.54582693365313 L 476.13754498200717 137.15626385324163 M 476.13754498200717 137.61307047947105 L 476.13754498200717 140.0674382848054 M 485.0339864054379 136.55235000839593 L 485.0339864054379 137.61322532917484 M 485.0339864054379 140.89789724632007 L 485.0339864054379 146.38453195159497 M 520.6197520991603 103.56936309759365 L 520.6197520991603 109.29849243902962 M 520.6197520991603 109.45489063987426 L 520.6197520991603 115.86442957983638 M 529.5161935225909 106.76669978179197 L 529.5161935225909 109.45473579017046 M 529.5161935225909 121.2485537811913 L 529.5161935225909 128.5896685392538 M 547.3090763694522 105.42755954327264 L 547.3090763694522 111.07802523517488 M 547.3090763694522 113.34951554031365 L 547.3090763694522 121.44614200324847 M 556.2055177928828 111.31184828792283 L 556.2055177928828 113.34951554031365 M 556.2055177928828 113.8326466161902 L 556.2055177928828 117.31289370924317 M 591.7912834866053 97.88653381759585 L 591.7912834866053 97.9941543617414 M 591.7912834866053 101.85904811904992 L 591.7912834866053 108.06000450798456 M 600.687724910036 100.16266961384879 L 600.687724910036 101.87282974268872 M 600.687724910036 103.61581800873562 L 600.687724910036 106.43841840972203 M 662.9628148740503 60.36629573555683 L 662.9628148740503 61.08170136714327 M 662.9628148740503 65.56258724619434 L 662.9628148740503 78.00584489497997 M 671.8592562974809 60.1185362094663 L 671.8592562974809 65.57110397990368 M 671.8592562974809 66.28155442096832 L 671.8592562974809 71.98002352105058 M 689.6521391443422 48.99707563237368 L 689.6521391443422 54.0174578794869 M 689.6521391443422 60.84462647061534 L 689.6521391443422 64.23335738871862 M 698.5485805677728 57.810811073636785 L 698.5485805677728 60.84896226232192 M 698.5485805677728 85.15045537891193 L 698.5485805677728 100.03878985080354 M 707.4450219912034 80.3787617561121 L 707.4450219912034 85.15045537891193 M 707.4450219912034 85.30453083419948 L 707.4450219912034 96.16630845800846 M 743.0307876849259 42.74439944236761 L 743.0307876849259 45.71952680160351 M 743.0307876849259 60.134640578662214 L 743.0307876849259 71.96268035422429 M 769.7201119552178 48.334473749785275 L 769.7201119552178 49.955130749824974 M 769.7201119552178 61.906740589024736 L 769.7201119552178 63.2262149151606 M 796.4094362255097 49.97727425746933 L 796.4094362255097 50.94105881396155 M 796.4094362255097 53.910611583860344 L 796.4094362255097 57.99895346376175 M 805.3058776489403 51.929464473358934 L 805.3058776489403 53.910611583860344 M 805.3058776489403 66.96118977097541 L 805.3058776489403 68.88302944491892 M 823.0987604958016 63.34993982850207 L 823.0987604958016 63.598163903704034 M 823.0987604958016 68.03708551302356 L 823.0987604958016 73.35632768848353 M 831.9952019192323 67.44710814152049 L 831.9952019192323 68.03429821835502 M 831.9952019192323 71.41435755304516 L 831.9952019192323 78.60248080374672" style="stroke-width: 1px;"></path><path class="candle wick equal" style="stroke-width: 1px;"></path></g></g><g class="x axis" transform="translate(0,200)" fill="none" font-size="10" font-family="sans-serif" text-anchor="middle"><path class="domain" stroke="#000" d="M0.5,6V0.5H890.5V6"></path><g class="tick" opacity="1" transform="translate(49.10835665733706,0)"><line stroke="#000" y2="6" x1="0.5" x2="0.5"></line><text fill="#000" y="9" x="0.5" dy="0.71em">Sep 14</text></g><g class="tick" opacity="1" transform="translate(111.38344662135144,0)"><line stroke="#000" y2="6" x1="0.5" x2="0.5"></line><text fill="#000" y="9" x="0.5" dy="0.71em">Sep 21</text></g><g class="tick" opacity="1" transform="translate(173.65853658536582,0)"><line stroke="#000" y2="6" x1="0.5" x2="0.5"></line><text fill="#000" y="9" x="0.5" dy="0.71em">Sep 28</text></g><g class="tick" opacity="1" transform="translate(235.93362654938022,0)"><line stroke="#000" y2="6" x1="0.5" x2="0.5"></line><text fill="#000" y="9" x="0.5" dy="0.71em">Oct  5</text></g><g class="tick" opacity="1" transform="translate(298.2087165133947,0)"><line stroke="#000" y2="6" x1="0.5" x2="0.5"></line><text fill="#000" y="9" x="0.5" dy="0.71em">Oct 12</text></g><g class="tick" opacity="1" transform="translate(360.483806477409,0)"><line stroke="#000" y2="6" x1="0.5" x2="0.5"></line><text fill="#000" y="9" x="0.5" dy="0.71em">Oct 19</text></g><g class="tick" opacity="1" transform="translate(422.7588964414235,0)"><line stroke="#000" y2="6" x1="0.5" x2="0.5"></line><text fill="#000" y="9" x="0.5" dy="0.71em">Oct 26</text></g><g class="tick" opacity="1" transform="translate(485.0339864054379,0)"><line stroke="#000" y2="6" x1="0.5" x2="0.5"></line><text fill="#000" y="9" x="0.5" dy="0.71em">Nov  2</text></g><g class="tick" opacity="1" transform="translate(547.3090763694522,0)"><line stroke="#000" y2="6" x1="0.5" x2="0.5"></line><text fill="#000" y="9" x="0.5" dy="0.71em">Nov  9</text></g><g class="tick" opacity="1" transform="translate(609.5841663334666,0)"><line stroke="#000" y2="6" x1="0.5" x2="0.5"></line><text fill="#000" y="9" x="0.5" dy="0.71em">Nov 16</text></g><g class="tick" opacity="1" transform="translate(671.8592562974809,0)"><line stroke="#000" y2="6" x1="0.5" x2="0.5"></line><text fill="#000" y="9" x="0.5" dy="0.71em">Nov 23</text></g><g class="tick" opacity="1" transform="translate(734.1343462614954,0)"><line stroke="#000" y2="6" x1="0.5" x2="0.5"></line><text fill="#000" y="9" x="0.5" dy="0.71em">Nov 30</text></g><g class="tick" opacity="1" transform="translate(796.4094362255097,0)"><line stroke="#000" y2="6" x1="0.5" x2="0.5"></line><text fill="#000" y="9" x="0.5" dy="0.71em">Dec  7</text></g><g class="tick" opacity="1" transform="translate(858.6845261895241,0)"><line stroke="#000" y2="6" x1="0.5" x2="0.5"></line><text fill="#000" y="9" x="0.5" dy="0.71em">Dec 14</text></g></g><g class="y axis" fill="none" font-size="10" font-family="sans-serif" text-anchor="end"><path class="domain" stroke="#000" d="M-6,200.5H0.5V0.5H-6"></path><g class="tick" opacity="1" transform="translate(0,195.85978656631744)"><line stroke="#000" x2="-6" y1="0.5" y2="0.5"></line><text fill="#000" x="-9" y="0.5" dy="0.32em">10,000</text></g><g class="tick" opacity="1" transform="translate(0,180.37481618565909)"><line stroke="#000" x2="-6" y1="0.5" y2="0.5"></line><text fill="#000" x="-9" y="0.5" dy="0.32em">11,000</text></g><g class="tick" opacity="1" transform="translate(0,164.88984580500073)"><line stroke="#000" x2="-6" y1="0.5" y2="0.5"></line><text fill="#000" x="-9" y="0.5" dy="0.32em">12,000</text></g><g class="tick" opacity="1" transform="translate(0,149.40487542434238)"><line stroke="#000" x2="-6" y1="0.5" y2="0.5"></line><text fill="#000" x="-9" y="0.5" dy="0.32em">13,000</text></g><g class="tick" opacity="1" transform="translate(0,133.91990504368403)"><line stroke="#000" x2="-6" y1="0.5" y2="0.5"></line><text fill="#000" x="-9" y="0.5" dy="0.32em">14,000</text></g><g class="tick" opacity="1" transform="translate(0,118.43493466302566)"><line stroke="#000" x2="-6" y1="0.5" y2="0.5"></line><text fill="#000" x="-9" y="0.5" dy="0.32em">15,000</text></g><g class="tick" opacity="1" transform="translate(0,102.94996428236732)"><line stroke="#000" x2="-6" y1="0.5" y2="0.5"></line><text fill="#000" x="-9" y="0.5" dy="0.32em">16,000</text></g><g class="tick" opacity="1" transform="translate(0,87.46499390170894)"><line stroke="#000" x2="-6" y1="0.5" y2="0.5"></line><text fill="#000" x="-9" y="0.5" dy="0.32em">17,000</text></g><g class="tick" opacity="1" transform="translate(0,71.98002352105058)"><line stroke="#000" x2="-6" y1="0.5" y2="0.5"></line><text fill="#000" x="-9" y="0.5" dy="0.32em">18,000</text></g><g class="tick" opacity="1" transform="translate(0,56.49505314039226)"><line stroke="#000" x2="-6" y1="0.5" y2="0.5"></line><text fill="#000" x="-9" y="0.5" dy="0.32em">19,000</text></g><g class="tick" opacity="1" transform="translate(0,41.010082759733876)"><line stroke="#000" x2="-6" y1="0.5" y2="0.5"></line><text fill="#000" x="-9" y="0.5" dy="0.32em">20,000</text></g><g class="tick" opacity="1" transform="translate(0,25.525112379075523)"><line stroke="#000" x2="-6" y1="0.5" y2="0.5"></line><text fill="#000" x="-9" y="0.5" dy="0.32em">21,000</text></g><g class="tick" opacity="1" transform="translate(0,10.04014199841717)"><line stroke="#000" x2="-6" y1="0.5" y2="0.5"></line><text fill="#000" x="-9" y="0.5" dy="0.32em">22,000</text></g><text transform="rotate(-90)" y="6" dy=".71em" style="text-anchor: end;">Price ($)</text></g></g></svg>