<?xml version="1.0" encoding="utf-8"?>
<!DOCTYPE svg PUBLIC "-//W3C//DTD SVG 1.1//EN" "http://www.w3.org/Graphics/SVG/1.1/DTD/svg11.dtd">
<svg version="1.1" xmlns="http://www.w3.org/2000/svg" width="960" height="250"><g transform="translate(50,20)"><style>.axis path,.axis line{fill:none;stroke:#000;shape-rendering:crispEdges;}path.candle{stroke:#000000;}path.candle.body{stroke-width:0;}path.candle.up{fill:#00AA00;stroke:#00AA00;}path.candle.down{fill:#FF0000;stroke:#FF0000;}</style><g class="candlestick"><g class="data"><path class="candle body up" d="M 9.964014394242305 42.324763089555404 l 7.1171531387445 0 L 17.081167532986804 40.24954282312319 l -7.1171531387445 0 L 9.964014394242305 42.324763089555404 M 18.860455817672932 40.24954282312319 l 7.1171531387445 0 L 25.977608956417434 39.864009883982675 l -7.1171531387445 0 L 18.860455817672932 40.24954282312319 M 45.54978008796481 61.304005018809846 l 7.1171531387445 0 L 52.66693322670931 59.92959369405315 l -7.1171531387445 0 L 45.54978008796481 61.304005018809846 M 72.23910435825668 76.18476560749576 l 7.1171531387445 0 L 79.35625749700118 56.27697983727276 l -7.1171531387445 0 L 72.23910435825668 76.18476560749576 M 81.13554578168731 56.27697983727276 l 7.1171531387445 0 L 88.25269892043181 52.05436190484315 l -7.1171531387445 0 L 81.13554578168731 56.27697983727276 M 98.92842862854857 52.26502602227308 l 7.1171531387445 0 L 106.04558176729307 42.35426353446269 l -7.1171531387445 0 L 98.92842862854857 52.26502602227308 M 107.82487005197919 42.354316880656 l 7.1171531387445 0 L 114.94202319072369 36.42696799441782 l -7.1171531387445 0 L 107.82487005197919 42.354316880656 M 134.51419432227107 36.5663082513758 l 7.1171531387445 0 L 141.63134746101557 35.34169303746819 l -7.1171531387445 0 L 134.51419432227107 36.5663082513758 M 152.30707716913233 45.467120607207704 l 7.1171531387445 0 L 159.42423030787683 39.331988297978995 l -7.1171531387445 0 L 152.30707716913233 45.467120607207704 M 161.20351859256294 39.331988297978995 l 7.1171531387445 0 L 168.32067173130744 34.381568250052794 l -7.1171531387445 0 L 161.20351859256294 39.331988297978995 M 187.89284286285485 51.3272532898597 l 7.1171531387445 0 L 195.00999600159935 39.99609505864879 l -7.1171531387445 0 L 187.89284286285485 51.3272532898597 M 196.78928428628546 39.99609505864879 l 7.1171531387445 0 L 203.90643742502996 39.64923810966695 l -7.1171531387445 0 L 196.78928428628546 39.99609505864879 M 205.68572570971608 39.64918476347361 l 7.1171531387445 0 L 212.80287884846058 30.971999650048957 l -7.1171531387445 0 L 205.68572570971608 39.64918476347361 M 214.5821671331467 30.971999650048957 l 7.1171531387445 0 L 221.6993202718912 29.727432959838808 l -7.1171531387445 0 L 214.5821671331467 30.971999650048957 M 232.37504998000796 30.487189445135527 l 7.1171531387445 0 L 239.49220311875246 10.66913197208072 l -7.1171531387445 0 L 232.37504998000796 30.487189445135527 M 250.16793282686922 13.952430132490576 l 7.1171531387445 0 L 257.28508596561375 12.883105687344312 l -7.1171531387445 0 L 250.16793282686922 13.952430132490576 M 294.65013994402244 53.03593186197418 l 7.1171531387445 0 L 301.76729308276697 48.81166019755159 l -7.1171531387445 0 L 294.65013994402244 53.03593186197418 M 348.02878848460614 88.06506955276683 l 7.1171531387445 0 L 355.14594162335067 61.7406969573465 l -7.1171531387445 0 L 348.02878848460614 88.06506955276683 M 356.9252299080368 61.74075030353981 l 7.1171531387445 0 L 364.0423830467813 56.34963735257776 l -7.1171531387445 0 L 356.9252299080368 61.74075030353981 M 383.61455417832866 64.12201768106229 l 7.1171531387445 0 L 390.7317073170732 42.04058791772735 l -7.1171531387445 0 L 383.61455417832866 64.12201768106229 M 392.5109956017593 42.024690752117266 l 7.1171531387445 0 L 399.62814874050383 41.474584806577326 l -7.1171531387445 0 L 392.5109956017593 42.024690752117266 M 410.3038784486206 47.994343169660056 l 7.1171531387445 0 L 417.4210315873651 44.840622912830156 l -7.1171531387445 0 L 410.3038784486206 47.994343169660056 M 428.0967612954818 65.98886771637746 l 7.1171531387445 0 L 435.21391443422635 43.41777324453676 l -7.1171531387445 0 L 428.0967612954818 65.98886771637746 M 445.8896441423431 48.97874047503714 l 7.1171531387445 0 L 453.00679728108764 44.065182646696655 l -7.1171531387445 0 L 445.8896441423431 48.97874047503714 M 454.7860855657737 44.061235028390826 l 7.1171531387445 0 L 461.90323870451823 35.81092615393146 l -7.1171531387445 0 L 454.7860855657737 44.061235028390826 M 481.47540983606564 52.05969652417539 l 7.1171531387445 0 L 488.59256297481016 47.504571768767704 l -7.1171531387445 0 L 481.47540983606564 52.05969652417539 M 499.2682926829268 85.55571796507742 l 7.1171531387445 0 L 506.38544582167134 84.84183920603792 l -7.1171531387445 0 L 499.2682926829268 85.55571796507742 M 508.16473410635746 84.83677131767232 l 7.1171531387445 0 L 515.281887245102 83.93239330227873 l -7.1171531387445 0 L 508.16473410635746 84.83677131767232 M 561.5433826469413 154.19050352404952 l 7.1171531387445 0 L 568.6605357856857 133.62335880436243 l -7.1171531387445 0 L 561.5433826469413 154.19050352404952 M 579.3362654938024 151.0317687250473 l 7.1171531387445 0 L 586.4534186325469 150.03750237390557 l -7.1171531387445 0 L 579.3362654938024 151.0317687250473 M 597.1291483406637 164.80527572513478 l 7.1171531387445 0 L 604.2463014794082 142.854117365893 l -7.1171531387445 0 L 597.1291483406637 164.80527572513478 M 614.9220311875249 145.36976380439444 l 7.1171531387445 0 L 622.0391843262694 140.476904299063 l -7.1171531387445 0 L 614.9220311875249 145.36976380439444 M 650.5077968812475 165.2122538339909 l 7.1171531387445 0 L 657.624950019992 159.68494805147697 l -7.1171531387445 0 L 650.5077968812475 165.2122538339909 M 659.4042383046781 159.68500139767025 l 7.1171531387445 0 L 666.5213914434225 151.08266099347682 l -7.1171531387445 0 L 659.4042383046781 159.68500139767025 M 677.1971211515394 154.06449981542218 l 7.1171531387445 0 L 684.3142742902838 149.4029494043364 l -7.1171531387445 0 L 677.1971211515394 154.06449981542218 M 686.09356257497 149.4029494043364 l 7.1171531387445 0 L 693.2107157137144 140.4508713567217 l -7.1171531387445 0 L 686.09356257497 149.4029494043364 M 712.7828868452618 160.3528423918726 l 7.1171531387445 0 L 719.9000399840063 158.85786867020744 l -7.1171531387445 0 L 712.7828868452618 160.3528423918726 M 739.4722111155537 171.7436950134112 l 7.1171531387445 0 L 746.5893642542982 150.36654169431776 l -7.1171531387445 0 L 739.4722111155537 171.7436950134112 M 757.265093962415 154.15529503645678 l 7.1171531387445 0 L 764.3822471011595 150.6656538002761 l -7.1171531387445 0 L 757.265093962415 154.15529503645678 M 775.0579768092763 160.19253708093896 l 7.1171531387445 0 L 782.1751299480208 141.65766894205962 l -7.1171531387445 0 L 775.0579768092763 160.19253708093896 M 783.9544182327068 141.65772228825296 l 7.1171531387445 0 L 791.0715713714512 133.67857211445104 l -7.1171531387445 0 L 783.9544182327068 141.65772228825296 M 837.3330667732906 160.52541732727036 l 7.1171531387445 0 L 844.4502199120351 159.90425425222503 l -7.1171531387445 0 L 837.3330667732906 160.52541732727036 M 855.1259496201519 181.16826029528184 l 7.1171531387445 0 L 862.2431027588964 176.3914287604265 l -7.1171531387445 0 L 855.1259496201519 181.16826029528184 M 864.0223910435824 176.3914287604265 l 7.1171531387445 0 L 871.1395441823269 170.1578727245181 l -7.1171531387445 0 L 864.0223910435824 176.3914287604265 M 872.9188324670131 170.17387658251482 l 7.1171531387445 0 L 880.0359856057576 164.9031659898813 l -7.1171531387445 0 L 872.9188324670131 170.17387658251482 M 881.8152738904437 164.90321933607459 l 7.1171531387445 0 L 888.9324270291881 162.58575400576564 l -7.1171531387445 0 L 881.8152738904437 164.90321933607459"></path><path class="candle body down" d="M 1.0675729708116766 35.53928733753412 l 7.1171531387445 0 L 8.184726109556177 42.286567215136614 l -7.1171531387445 0 L 1.0675729708116766 35.53928733753412 M 27.75689724110356 39.876066123673525 l 7.1171531387445 0 L 34.87405037984806 43.86881530907715 l -7.1171531387445 0 L 27.75689724110356 39.876066123673525 M 36.65333866453418 43.86881530907715 l 7.1171531387445 0 L 43.77049180327868 61.304005018809846 l -7.1171531387445 0 L 36.65333866453418 43.86881530907715 M 54.446221511395436 59.91940457112855 l 7.1171531387445 0 L 61.563374650139934 70.79749358245292 l -7.1171531387445 0 L 54.446221511395436 59.91940457112855 M 63.342662934826066 70.79744023625958 l 7.1171531387445 0 L 70.45981607357056 76.18476560749576 l -7.1171531387445 0 L 63.342662934826066 70.79744023625958 M 90.03198720511796 52.05436190484315 l 7.1171531387445 0 L 97.14914034386246 52.26513271465973 l -7.1171531387445 0 L 90.03198720511796 52.05436190484315 M 116.72131147540982 36.42696799441782 l 7.1171531387445 0 L 123.83846461415432 36.45908240279786 l -7.1171531387445 0 L 116.72131147540982 36.42696799441782 M 125.61775289884046 36.46489713787 l 7.1171531387445 0 L 132.73490603758498 36.566361597569085 l -7.1171531387445 0 L 125.61775289884046 36.46489713787 M 143.4106357457017 35.34169303746819 l 7.1171531387445 0 L 150.5277888844462 45.46717395340099 l -7.1171531387445 0 L 143.4106357457017 35.34169303746819 M 170.09996001599356 34.381568250052794 l 7.1171531387445 0 L 177.21711315473806 40.456846130373805 l -7.1171531387445 0 L 170.09996001599356 34.381568250052794 M 178.9964014394242 40.462820904025904 l 7.1171531387445 0 L 186.1135545781687 51.327199943666415 l -7.1171531387445 0 L 178.9964014394242 40.462820904025904 M 223.47860855657734 29.746797628014832 l 7.1171531387445 0 L 230.59576169532184 30.487242791328867 l -7.1171531387445 0 L 223.47860855657734 29.746797628014832 M 241.2714914034386 10.669078625887352 l 7.1171531387445 0 L 248.3886445421831 13.952430132490576 l -7.1171531387445 0 L 241.2714914034386 10.669078625887352 M 259.06437425029986 12.889720615316293 l 7.1171531387445 0 L 266.1815273890444 22.619746200150615 l -7.1171531387445 0 L 259.06437425029986 12.889720615316293 M 267.9608156737305 22.619692853957332 l 7.1171531387445 0 L 275.07796881247504 29.70486752006346 l -7.1171531387445 0 L 267.9608156737305 22.619692853957332 M 276.85725709716115 29.704814173870176 l 7.1171531387445 0 L 283.9744102359057 50.27862716772253 l -7.1171531387445 0 L 276.85725709716115 29.704814173870176 M 285.7536985205918 50.27862716772253 l 7.1171531387445 0 L 292.8708516593363 53.03593186197418 l -7.1171531387445 0 L 285.7536985205918 50.27862716772253 M 303.54658136745303 48.81166019755159 l 7.1171531387445 0 L 310.66373450619756 62.88102518580479 l -7.1171531387445 0 L 303.54658136745303 48.81166019755159 M 312.4430227908837 62.88107853199807 l 7.1171531387445 0 L 319.5601759296282 74.06596150111919 l -7.1171531387445 0 L 312.4430227908837 62.88107853199807 M 321.3394642143143 74.06601484731252 l 7.1171531387445 0 L 328.45661735305885 77.08439581168365 l -7.1171531387445 0 L 321.3394642143143 74.06601484731252 M 330.23590563774496 77.16217456154763 l 7.1171531387445 0 L 337.3530587764895 82.83138121829903 l -7.1171531387445 0 L 330.23590563774496 77.16217456154763 M 339.13234706117555 82.83138121829903 l 7.1171531387445 0 L 346.2495001999201 88.06501620657352 l -7.1171531387445 0 L 339.13234706117555 82.83138121829903 M 365.8216713314674 56.34963735257776 l 7.1171531387445 0 L 372.93882447021196 57.23385050689549 l -7.1171531387445 0 L 365.8216713314674 56.34963735257776 M 374.7181127548981 57.23379716070215 l 7.1171531387445 0 L 381.8352658936426 64.12201768106229 l -7.1171531387445 0 L 374.7181127548981 57.23379716070215 M 401.40743702518995 41.490695356960686 l 7.1171531387445 0 L 408.5245901639345 47.994343169660056 l -7.1171531387445 0 L 401.40743702518995 41.490695356960686 M 419.20031987205124 44.840622912830156 l 7.1171531387445 0 L 426.31747301079577 66.01575419781193 l -7.1171531387445 0 L 419.20031987205124 44.840622912830156 M 436.99320271891247 43.41777324453676 l 7.1171531387445 0 L 444.110355857657 48.97874047503714 l -7.1171531387445 0 L 436.99320271891247 43.41777324453676 M 463.68252698920435 35.787027059323094 l 7.1171531387445 0 L 470.7996801279489 39.124845029308375 l -7.1171531387445 0 L 463.68252698920435 35.787027059323094 M 472.57896841263494 39.12489837550169 l 7.1171531387445 0 L 479.69612155137946 52.05969652417539 l -7.1171531387445 0 L 472.57896841263494 39.12489837550169 M 490.3718512594962 47.504571768767704 l 7.1171531387445 0 L 497.48900439824075 85.05335686256097 l -7.1171531387445 0 L 490.3718512594962 47.504571768767704 M 517.0611755297881 83.91793648388834 l 7.1171531387445 0 L 524.1783286685326 100.35480553178685 l -7.1171531387445 0 L 517.0611755297881 83.91793648388834 M 525.9576169532187 100.35480553178685 l 7.1171531387445 0 L 533.0747700919632 102.123178494229 l -7.1171531387445 0 L 525.9576169532187 100.35480553178685 M 534.8540583766493 102.14809116651051 l 7.1171531387445 0 L 541.9712115153937 117.55868614727389 l -7.1171531387445 0 L 534.8540583766493 102.14809116651051 M 543.75049980008 117.55879283966055 l 7.1171531387445 0 L 550.8676529388244 121.23029124887705 l -7.1171531387445 0 L 543.75049980008 117.55879283966055 M 552.6469412235106 121.23029124887705 l 7.1171531387445 0 L 559.764094362255 154.08989260344362 l -7.1171531387445 0 L 552.6469412235106 121.23029124887705 M 570.4398240703717 133.63002707852772 l 7.1171531387445 0 L 577.5569772091162 151.09226330827482 l -7.1171531387445 0 L 570.4398240703717 133.63002707852772 M 588.232706917233 149.99066441616856 l 7.1171531387445 0 L 595.3498600559775 164.944989405446 l -7.1171531387445 0 L 588.232706917233 149.99066441616856 M 606.0255897640943 142.77569846170917 l 7.1171531387445 0 L 613.1427429028388 145.36976380439444 l -7.1171531387445 0 L 606.0255897640943 142.77569846170917 M 623.8184726109555 140.4768509528697 l 7.1171531387445 0 L 630.9356257497 144.27477984026012 l -7.1171531387445 0 L 623.8184726109555 140.4768509528697 M 632.7149140343862 144.27472649406684 l 7.1171531387445 0 L 639.8320671731307 159.5664128099147 l -7.1171531387445 0 L 632.7149140343862 144.27472649406684 M 641.6113554578168 159.5754816627795 l 7.1171531387445 0 L 648.7285085965613 165.2122538339909 l -7.1171531387445 0 L 641.6113554578168 159.5754816627795 M 668.3006797281087 151.0826076472835 l 7.1171531387445 0 L 675.4178328668531 154.0738887454469 l -7.1171531387445 0 L 668.3006797281087 151.0826076472835 M 694.9900039984005 140.45092470291505 l 7.1171531387445 0 L 702.107157137145 153.348860632003 l -7.1171531387445 0 L 694.9900039984005 140.45092470291505 M 703.8864454218311 153.34806043910316 l 7.1171531387445 0 L 711.0035985605756 160.3681527493561 l -7.1171531387445 0 L 703.8864454218311 153.34806043910316 M 721.6793282686924 158.85786867020744 l 7.1171531387445 0 L 728.7964814074369 170.82619383446035 l -7.1171531387445 0 L 721.6793282686924 158.85786867020744 M 730.5757696921231 170.80394847184493 l 7.1171531387445 0 L 737.6929228308676 171.7436416672179 l -7.1171531387445 0 L 730.5757696921231 170.80394847184493 M 748.3686525389844 150.36654169431776 l 7.1171531387445 0 L 755.4858056777289 154.16655108324778 l -7.1171531387445 0 L 748.3686525389844 150.36654169431776 M 766.1615353858456 150.6656538002761 l 7.1171531387445 0 L 773.27868852459 160.1925904271323 l -7.1171531387445 0 L 766.1615353858456 150.6656538002761 M 792.8508596561375 133.67862546064435 l 7.1171531387445 0 L 799.9680127948819 135.66438416087504 l -7.1171531387445 0 L 792.8508596561375 133.67862546064435 M 801.747301079568 135.66566446951475 l 7.1171531387445 0 L 808.8644542183125 145.24018590081448 l -7.1171531387445 0 L 801.747301079568 135.66566446951475 M 810.6437425029987 145.24023924700782 l 7.1171531387445 0 L 817.7608956417432 146.6060618346396 l -7.1171531387445 0 L 810.6437425029987 145.24023924700782 M 819.5401839264293 146.6060618346396 l 7.1171531387445 0 L 826.6573370651738 158.73234507732 l -7.1171531387445 0 L 819.5401839264293 146.6060618346396 M 828.43662534986 158.72893092094733 l 7.1171531387445 0 L 835.5537784886045 160.52541732727036 l -7.1171531387445 0 L 828.43662534986 158.72893092094733 M 846.2295081967213 159.90420090603175 l 7.1171531387445 0 L 853.3466613354658 181.19594696961613 l -7.1171531387445 0 L 846.2295081967213 159.90420090603175"></path><path class="candle body equal"></path><path class="candle wick up" d="M 13.522590963614554 32.578413569564475 L 13.522590963614554 40.24954282312319 M 13.522590963614554 42.324763089555404 L 13.522590963614554 49.63457857574198 M 22.41903238704518 30.380550404684186 L 22.41903238704518 39.864009883982675 M 22.41903238704518 40.24954282312319 L 22.41903238704518 41.368959343799105 M 49.10835665733706 51.98095754283162 L 49.10835665733706 59.92959369405315 M 49.10835665733706 61.304005018809846 L 49.10835665733706 67.08273141045197 M 75.79768092762893 56.021611609838715 L 75.79768092762893 56.27697983727276 M 75.79768092762893 76.18476560749576 L 75.79768092762893 76.60716076622202 M 84.69412235105956 47.342719418227716 L 84.69412235105956 52.05436190484315 M 84.69412235105956 56.27697983727276 L 84.69412235105956 62.01484304482997 M 102.48700519792082 38.24473953187646 L 102.48700519792082 42.35426353446269 M 102.48700519792082 52.26502602227308 L 102.48700519792082 57.48036326623799 M 111.38344662135144 33.11187550278785 L 111.38344662135144 36.42696799441782 M 111.38344662135144 42.354316880656 L 111.38344662135144 45.36362899216235 M 138.07277089164333 28.673472218369398 L 138.07277089164333 35.34169303746819 M 138.07277089164333 36.5663082513758 L 138.07277089164333 38.12337694206812 M 155.8656537385046 37.78046761139217 L 155.8656537385046 39.331988297978995 M 155.8656537385046 45.467120607207704 L 155.8656537385046 49.009041112844244 M 164.7620951619352 33.62399895868228 L 164.7620951619352 34.381568250052794 M 164.7620951619352 39.331988297978995 L 164.7620951619352 46.92976653571952 M 191.4514194322271 39.59178425945879 L 191.4514194322271 39.99609505864879 M 191.4514194322271 51.3272532898597 L 191.4514194322271 52.679259213421034 M 200.34786085565773 35.635683908867605 L 200.34786085565773 39.64923810966695 M 200.34786085565773 39.99609505864879 L 200.34786085565773 42.255413038236384 M 209.24430227908834 21.73846708646562 L 209.24430227908834 30.971999650048957 M 209.24430227908834 39.64918476347361 L 209.24430227908834 40.943043336313565 M 218.14074370251896 26.011497171584807 L 218.14074370251896 29.727432959838808 M 218.14074370251896 30.971999650048957 L 218.14074370251896 33.83460972991887 M 235.93362654938022 9.587431210083679 L 235.93362654938022 10.66913197208072 M 235.93362654938022 30.487189445135527 L 235.93362654938022 30.779846661701868 M 253.72650939624148 9.46884262232814 L 253.72650939624148 12.883105687344312 M 253.72650939624148 13.952430132490576 L 253.72650939624148 18.9644650337041 M 298.2087165133947 45.33754270362772 L 298.2087165133947 48.81166019755159 M 298.2087165133947 53.03593186197418 L 298.2087165133947 65.32252041558817 M 351.5873650539784 59.845680131957096 L 351.5873650539784 61.7406969573465 M 351.5873650539784 88.06506955276683 L 351.5873650539784 89.73651248194227 M 360.483806477409 53.9595678531571 L 360.483806477409 56.34963735257776 M 360.483806477409 61.74075030353981 L 360.483806477409 65.89844591869613 M 387.1731307477009 40.60701566457618 L 387.1731307477009 42.04058791772735 M 387.1731307477009 64.12201768106229 L 387.1731307477009 67.01332801293961 M 396.06957217113154 37.96600567176725 L 396.06957217113154 41.474584806577326 M 396.06957217113154 42.024690752117266 L 396.06957217113154 45.97823048542898 M 413.86245501799283 35.174025951856095 L 413.86245501799283 44.840622912830156 M 413.86245501799283 47.994343169660056 L 413.86245501799283 48.75831400422925 M 431.65533786485406 40.03717162750698 L 431.65533786485406 43.41777324453676 M 431.65533786485406 65.98886771637746 L 431.65533786485406 67.61619334367535 M 449.44822071171535 36.94213218333161 L 449.44822071171535 44.065182646696655 M 449.44822071171535 48.97874047503714 L 449.44822071171535 55.12448867673697 M 458.34466213514594 32.40770575093299 L 458.34466213514594 35.81092615393146 M 458.34466213514594 44.061235028390826 L 458.34466213514594 46.277716014740605 M 485.0339864054379 46.47813766305259 L 485.0339864054379 47.504571768767704 M 485.0339864054379 52.05969652417539 L 485.0339864054379 59.774302925291835 M 502.82686925229905 75.79315120231647 L 502.82686925229905 84.84183920603792 M 502.82686925229905 85.55571796507742 L 502.82686925229905 104.42506673608783 M 511.7233106757297 75.17534893745051 L 511.7233106757297 83.93239330227873 M 511.7233106757297 84.83677131767232 L 511.7233106757297 89.48946626066655 M 565.1019592163135 123.35405655123262 L 565.1019592163135 133.62335880436243 M 565.1019592163135 154.19050352404952 L 565.1019592163135 163.90607229049348 M 582.8948420631747 142.67962196753564 L 582.8948420631747 150.03750237390557 M 582.8948420631747 151.0317687250473 L 582.8948420631747 162.0356480602257 M 600.687724910036 136.85955227606868 L 600.687724910036 142.854117365893 M 600.687724910036 164.80527572513478 L 600.687724910036 168.2751255235929 M 618.4806077568971 131.94636787108143 L 618.4806077568971 140.476904299063 M 618.4806077568971 145.36976380439444 L 618.4806077568971 148.1665980278979 M 654.0663734506197 155.1679658242947 L 654.0663734506197 159.68494805147697 M 654.0663734506197 165.2122538339909 L 654.0663734506197 171.75329732820924 M 662.9628148740503 149.77466567940644 L 662.9628148740503 151.08266099347682 M 662.9628148740503 159.68500139767025 L 662.9628148740503 167.6198208848213 M 680.7556977209116 145.90173204420478 L 680.7556977209116 149.4029494043364 M 680.7556977209116 154.06449981542218 L 680.7556977209116 158.19802960500343 M 689.6521391443422 139.22812325958043 L 689.6521391443422 140.4508713567217 M 689.6521391443422 149.4029494043364 L 689.6521391443422 151.52975543971132 M 716.3414634146341 155.21064277895258 L 716.3414634146341 158.85786867020744 M 716.3414634146341 160.3528423918726 L 716.3414634146341 161.92159389890256 M 743.0307876849259 149.5837396535058 L 743.0307876849259 150.36654169431776 M 743.0307876849259 171.7436950134112 L 743.0307876849259 176.99285374394253 M 760.8236705317872 148.80696573253925 L 760.8236705317872 150.6656538002761 M 760.8236705317872 154.15529503645678 L 760.8236705317872 158.1085680388019 M 778.6165533786485 139.74024671547488 L 778.6165533786485 141.65766894205962 M 778.6165533786485 160.19253708093896 L 778.6165533786485 164.40219188839123 M 787.512994802079 130.7564810290267 L 787.512994802079 133.67857211445104 M 787.512994802079 141.65772228825296 L 787.512994802079 143.20774928142677 M 840.8916433426629 157.03657628398952 L 840.8916433426629 159.90425425222503 M 840.8916433426629 160.52541732727036 L 840.8916433426629 171.98268595949529 M 858.6845261895241 172.18124049104105 L 858.6845261895241 176.3914287604265 M 858.6845261895241 181.16826029528184 L 858.6845261895241 196.15384615384616 M 867.5809676129546 163.74069909119424 L 867.5809676129546 170.1578727245181 M 867.5809676129546 176.3914287604265 L 867.5809676129546 180.80081171567758 M 876.4774090363853 161.51616282965279 L 876.4774090363853 164.9031659898813 M 876.4774090363853 170.17387658251482 L 876.4774090363853 177.5809955253213 M 885.3738504598159 160.4385697245416 L 885.3738504598159 162.58575400576564 M 885.3738504598159 164.90321933607459 L 885.3738504598159 167.10150927050148" style="stroke-width: 1px;"></path><path class="candle wick down" d="M 4.626149540183927 29.047055610205717 L 4.626149540183927 35.53928733753412 M 4.626149540183927 42.286567215136614 L 4.626149540183927 45.62155783687584 M 31.315473810475808 37.26701050066467 L 31.315473810475808 39.876066123673525 M 31.315473810475808 43.86881530907715 L 31.315473810475808 54.012327238352896 M 40.21191523390643 38.1118541643105 L 40.21191523390643 43.86881530907715 M 40.21191523390643 61.304005018809846 L 40.21191523390643 63.61522884450008 M 58.004798080767685 44.67733021507047 L 58.004798080767685 59.91940457112855 M 58.004798080767685 70.79749358245292 L 58.004798080767685 74.01773654235579 M 66.90123950419832 65.55169566210091 L 66.90123950419832 70.79744023625958 M 66.90123950419832 76.18476560749576 L 66.90123950419832 80.80571956546324 M 93.5905637744902 48.092820242533094 L 93.5905637744902 52.05436190484315 M 93.5905637744902 52.26513271465973 L 93.5905637744902 58.05740903940574 M 120.27988804478207 30.807319951262883 L 120.27988804478207 36.42696799441782 M 120.27988804478207 36.45908240279786 L 120.27988804478207 46.976551147263194 M 129.1763294682127 32.46105194425533 L 129.1763294682127 36.46489713787 M 129.1763294682127 36.566361597569085 L 129.1763294682127 40.75398442717923 M 146.96921231507397 30.851490599333772 L 146.96921231507397 35.34169303746819 M 146.96921231507397 45.46717395340099 L 146.96921231507397 46.38440840138526 M 173.65853658536582 32.433098538954454 L 173.65853658536582 34.381568250052794 M 173.65853658536582 40.456846130373805 L 173.65853658536582 43.54094960491807 M 182.55497800879647 36.91545908667047 L 182.55497800879647 40.462820904025904 M 182.55497800879647 51.327199943666415 L 182.55497800879647 53.89021780183808 M 227.0371851259496 22.805390952912376 L 227.0371851259496 29.746797628014832 M 227.0371851259496 30.487242791328867 L 227.0371851259496 33.20475122536203 M 244.83006797281087 3.8461538461538396 L 244.83006797281087 10.669078625887352 M 244.83006797281087 13.952430132490576 L 244.83006797281087 22.80005633358013 M 262.6229508196721 10.9592819175609 L 262.6229508196721 12.889720615316293 M 262.6229508196721 22.619746200150615 L 262.6229508196721 29.740396084816126 M 271.51939224310274 16.371573307271916 L 271.51939224310274 22.619692853957332 M 271.51939224310274 29.70486752006346 L 271.51939224310274 31.976081700761938 M 280.4158336665334 27.078421038031536 L 280.4158336665334 29.704814173870176 M 280.4158336665334 50.27862716772253 L 280.4158336665334 78.11845842304382 M 289.31227508996403 42.9339232711032 L 289.31227508996403 50.27862716772253 M 289.31227508996403 53.03593186197418 L 289.31227508996403 60.56606712658194 M 307.10515793682526 47.03571207565767 L 307.10515793682526 48.81166019755159 M 307.10515793682526 62.88102518580479 L 307.10515793682526 64.2232687559881 M 316.0015993602559 53.631595456611365 L 316.0015993602559 62.88107853199807 M 316.0015993602559 74.06596150111919 L 316.0015993602559 80.41927974103622 M 324.89804078368655 71.71398118373068 L 324.89804078368655 74.06601484731252 M 324.89804078368655 77.08439581168365 L 324.89804078368655 96.42313773773729 M 333.7944822071172 76.86524964951549 L 333.7944822071172 77.16217456154763 M 333.7944822071172 82.83138121829903 L 333.7944822071172 90.2502363236364 M 342.6909236305478 80.05700574218422 L 342.6909236305478 82.83138121829903 M 342.6909236305478 88.06501620657352 L 342.6909236305478 99.4638707571105 M 369.38024790083966 48.79565633955488 L 369.38024790083966 56.34963735257776 M 369.38024790083966 57.23385050689549 L 369.38024790083966 62.74483235425282 M 378.2766893242703 55.36876089595998 L 378.2766893242703 57.23379716070215 M 378.2766893242703 64.12201768106229 L 378.2766893242703 70.65191182087625 M 404.9660135945622 40.884309177465695 L 404.9660135945622 41.490695356960686 M 404.9660135945622 47.994343169660056 L 404.9660135945622 50.89082808228966 M 422.7588964414235 44.67733021507047 L 422.7588964414235 44.840622912830156 M 422.7588964414235 66.01575419781193 L 422.7588964414235 66.83365803382998 M 440.5517792882847 38.489171789679375 L 440.5517792882847 43.41777324453676 M 440.5517792882847 48.97874047503714 L 440.5517792882847 55.34656887953787 M 467.2411035585766 33.47462961737972 L 467.2411035585766 35.787027059323094 M 467.2411035585766 39.124845029308375 L 467.2411035585766 49.8217170219167 M 476.13754498200717 32.40770575093299 L 476.13754498200717 39.12489837550169 M 476.13754498200717 52.05969652417539 L 476.13754498200717 64.94888367755851 M 493.93042782886846 40.409581403090186 L 493.93042782886846 47.504571768767704 M 493.93042782886846 85.05335686256097 L 493.93042782886846 90.55505647228024 M 520.6197520991603 79.35235587458949 L 520.6197520991603 83.91793648388834 M 520.6197520991603 100.35480553178685 L 520.6197520991603 101.46435300669813 M 529.5161935225909 84.1754385590553 L 529.5161935225909 100.35480553178685 M 529.5161935225909 102.123178494229 L 529.5161935225909 116.02578328215654 M 538.4126349460215 100.76551787417552 L 538.4126349460215 102.14809116651051 M 538.4126349460215 117.55868614727389 L 538.4126349460215 125.75820944569035 M 547.3090763694522 105.49577818226045 L 547.3090763694522 117.55879283966055 M 547.3090763694522 121.23029124887705 L 547.3090763694522 124.42978253957754 M 556.2055177928828 117.3087058853654 L 556.2055177928828 121.23029124887705 M 556.2055177928828 154.08989260344362 L 556.2055177928828 189.7789760518269 M 573.998400639744 124.69662019857586 L 573.998400639744 133.63002707852772 M 573.998400639744 151.09226330827482 L 573.998400639744 171.17182382099577 M 591.7912834866053 145.65826001788164 L 591.7912834866053 149.99066441616856 M 591.7912834866053 164.944989405446 L 591.7912834866053 183.85216062752195 M 609.5841663334666 137.54361051304102 L 609.5841663334666 142.77569846170917 M 609.5841663334666 145.36976380439444 L 609.5841663334666 155.53274709423283 M 627.3770491803277 134.2395073372354 L 627.3770491803277 140.4768509528697 M 627.3770491803277 144.27477984026012 L 627.3770491803277 151.72036138845206 M 636.2734906037584 142.41913250554265 L 636.2734906037584 144.27472649406684 M 636.2734906037584 159.5664128099147 L 636.2734906037584 164.79161909964427 M 645.169932027189 150.63044531268335 L 645.169932027189 159.5754816627795 M 645.169932027189 165.2122538339909 L 645.169932027189 170.39958432646162 M 671.8592562974809 147.66317000151503 L 671.8592562974809 151.0826076472835 M 671.8592562974809 154.0738887454469 L 671.8592562974809 159.55302291539078 M 698.5485805677728 140.22532365135487 L 698.5485805677728 140.45092470291505 M 698.5485805677728 153.348860632003 L 698.5485805677728 160.1443654683689 M 707.4450219912034 147.50211784387488 L 707.4450219912034 153.34806043910316 M 707.4450219912034 160.3681527493561 L 707.4450219912034 164.1728032571052 M 725.2379048380647 152.9701026594144 L 725.2379048380647 158.85786867020744 M 725.2379048380647 170.82619383446035 L 725.2379048380647 172.1747322554557 M 734.1343462614954 168.0776912621069 L 734.1343462614954 170.80394847184493 M 734.1343462614954 171.7436416672179 L 734.1343462614954 184.4443567195932 M 751.9272291083566 144.48272330183062 L 751.9272291083566 150.36654169431776 M 751.9272291083566 154.16655108324778 L 751.9272291083566 158.93420707285168 M 769.7201119552178 149.96335116518756 L 769.7201119552178 150.6656538002761 M 769.7201119552178 160.1925904271323 L 769.7201119552178 165.2378066605923 M 796.4094362255097 129.33773901761919 L 796.4094362255097 133.67862546064435 M 796.4094362255097 135.66438416087504 L 796.4094362255097 139.0659508318805 M 805.3058776489403 133.6206914946963 L 805.3058776489403 135.66566446951475 M 805.3058776489403 145.24018590081448 L 805.3058776489403 146.4831522052249 M 814.202319072371 138.7806553899927 L 814.202319072371 145.24023924700782 M 814.202319072371 146.6060618346396 L 814.202319072371 150.48950466992576 M 823.0987604958016 146.0199472086071 L 823.0987604958016 146.6060618346396 M 823.0987604958016 158.73234507732 L 823.0987604958016 162.41616645719392 M 831.9952019192323 155.33333902359396 L 831.9952019192323 158.72893092094733 M 831.9952019192323 160.52541732727036 L 831.9952019192323 164.15402539705573 M 849.7880847660936 159.10491489148316 L 849.7880847660936 159.90420090603175 M 849.7880847660936 181.19594696961613 L 849.7880847660936 183.10414030475613" style="stroke-width: 1px;"></path><path class="candle wick equal" style="stroke-width: 1px;"></path></g></g><g class="x axis" transform="translate(0,200)" fill="none" font-size="10" font-family="sans-serif" text-anchor="middle"><path class="domain" stroke="#000" d="M0.5,6V0.5H890.5V6"></path><g class="tick" opacity="1" transform="translate(40.21191523390643,0)"><line stroke="#000" y2="6" x1="0.5" x2="0.5"></line><text fill="#000" y="9" x="0.5" dy="0.71em">Mar 22</text></g><g class="tick" opacity="1" transform="translate(102.48700519792082,0)"><line stroke="#000" y2="6" x1="0.5" x2="0.5"></line><text fill="#000" y="9" x="0.5" dy="0.71em">Mar 29</text></g><g class="tick" opacity="1" transform="translate(164.7620951619352,0)"><line stroke="#000" y2="6" x1="0.5" x2="0.5"></line><text fill="#000" y="9" x="0.5" dy="0.71em">Apr  5</text></g><g class="tick" opacity="1" transform="translate(227.0371851259496,0)"><line stroke="#000" y2="6" x1="0.5" x2="0.5"></line><text fill="#000" y="9" x="0.5" dy="0.71em">Apr 12</text></g><g class="tick" opacity="1" transform="translate(289.31227508996403,0)"><line stroke="#000" y2="6" x1="0.5" x2="0.5"></line><text fill="#000" y="9" x="0.5" dy="0.71em">Apr 19</text></g><g class="tick" opacity="1" transform="translate(351.5873650539784,0)"><line stroke="#000" y2="6" x1="0.5" x2="0.5"></line><text fill="#000" y="9" x="0.5" dy="0.71em">Apr 26</text></g><g class="tick" opacity="1" transform="translate(413.86245501799283,0)"><line stroke="#000" y2="6" x1="0.5" x2="0.5"></line><text fill="#000" y="9" x="0.5" dy="0.71em">May  3</text></g><g class="tick" opacity="1" transform="translate(476.13754498200717,0)"><line stroke="#000" y2="6" x1="0.5" x2="0.5"></line><text fill="#000" y="9" x="0.5" dy="0.71em">May 10</text></g><g class="tick" opacity="1" transform="translate(538.4126349460215,0)"><line stroke="#000" y2="6" x1="0.5" x2="0.5"></line><text fill="#000" y="9" x="0.5" dy="0.71em">May 17</text></g><g class="tick" opacity="1" transform="translate(600.687724910036,0)"><line stroke="#000" y2="6" x1="0.5" x2="0.5"></line><text fill="#000" y="9" x="0.5" dy="0.71em">May 24</text></g><g class="tick" opacity="1" transform="translate(662.9628148740503,0)"><line stroke="#000" y2="6" x1="0.5" x2="0.5"></line><text fill="#000" y="9" x="0.5" dy="0.71em">May 31</text></g><g class="tick" opacity="1" transform="translate(725.2379048380647,0)"><line stroke="#000" y2="6" x1="0.5" x2="0.5"></line><text fill="#000" y="9" x="0.5" dy="0.71em">Jun  7</text></g><g class="tick" opacity="1" transform="translate(787.512994802079,0)"><line stroke="#000" y2="6" x1="0.5" x2="0.5"></line><text fill="#000" y="9" x="0.5" dy="0.71em">Jun 14</text></g><g class="tick" opacity="1" transform="translate(849.7880847660936,0)"><line stroke="#000" y2="6" x1="0.5" x2="0.5"></line><text fill="#000" y="9" x="0.5" dy="0.71em">Jun 21</text></g></g><g class="y axis" fill="none" font-size="10" font-family="sans-serif" text-anchor="end"><path class="domain" stroke="#000" d="M-6,200.5H0.5V0.5H-6"></path><g class="tick" opacity="1" transform="translate(0,189.7789760518269)"><line stroke="#000" x2="-6" y1="0.5" y2="0.5"></line><text fill="#000" x="-9" y="0.5" dy="0.32em">30,000</text></g><g class="tick" opacity="1" transform="translate(0,163.10587939065843)"><line stroke="#000" x2="-6" y1="0.5" y2="0.5"></line><text fill="#000" x="-9" y="0.5" dy="0.32em">35,000</text></g><g class="tick" opacity="1" transform="translate(0,136.43278272949)"><line stroke="#000" x2="-6" y1="0.5" y2="0.5"></line><text fill="#000" x="-9" y="0.5" dy="0.32em">40,000</text></g><g class="tick" opacity="1" transform="translate(0,109.75968606832151)"><line stroke="#000" x2="-6" y1="0.5" y2="0.5"></line><text fill="#000" x="-9" y="0.5" dy="0.32em">45,000</text></g><g class="tick" opacity="1" transform="translate(0,83.08658940715306)"><line stroke="#000" x2="-6" y1="0.5" y2="0.5"></line><text fill="#000" x="-9" y="0.5" dy="0.32em">50,000</text></g><g class="tick" opacity="1" transform="translate(0,56.4134927459846)"><line stroke="#000" x2="-6" y1="0.5" y2="0.5"></line><text fill="#000" x="-9" y="0.5" dy="0.32em">55,000</text></g><g class="tick" opacity="1" transform="translate(0,29.740396084816126)"><line stroke="#000" x2="-6" y1="0.5" y2="0.5"></line><text fill="#000" x="-9" y="0.5" dy="0.32em">60,000</text></g><g class="tick" opacity="1" transform="translate(0,3.0672994236476825)"><line stroke="#000" x2="-6" y1="0.5" y2="0.5"></line><text fill="#000" x="-9" y="0.5" dy="0.32em">65,000</text></g><text transform="rotate(-90)" y="6" dy=".71em" style="text-anchor: end;">Price ($)</text></g></g></svg>