<?xml version="1.0" encoding="utf-8"?>
<!DOCTYPE svg PUBLIC "-//W3C//DTD SVG 1.1//EN" "http://www.w3.org/Graphics/SVG/1.1/DTD/svg11.dtd">
<svg version="1.1" xmlns="http://www.w3.org/2000/svg" width="960" height="250"><g transform="translate(50,20)"><style>.axis path,.axis line{fill:none;stroke:#000;shape-rendering:crispEdges;}path.candle{stroke:#000000;}path.candle.body{stroke-width:0;}path.candle.up{fill:#00AA00;stroke:#00AA00;}path.candle.down{fill:#FF0000;stroke:#FF0000;}</style><g class="candlestick"><g class="data"><path class="candle body up" d="M 9.964014394242305 194.9403387380551 l 7.1171531387445 0 L 17.081167532986804 192.8506222747242 l -7.1171531387445 0 L 9.964014394242305 194.9403387380551 M 18.860455817672932 192.85056828106835 l 7.1171531387445 0 L 25.977608956417434 189.56985975644628 l -7.1171531387445 0 L 18.860455817672932 192.85056828106835 M 27.75689724110356 189.56991375010216 l 7.1171531387445 0 L 34.87405037984806 189.41414205290272 l -7.1171531387445 0 L 27.75689724110356 189.56991375010216 M 54.446221511395436 191.37789131707717 l 7.1171531387445 0 L 61.563374650139934 187.29289329454082 l -7.1171531387445 0 L 54.446221511395436 191.37789131707717 M 63.342662934826066 187.2955389836787 l 7.1171531387445 0 L 70.45981607357056 182.1861193282256 l -7.1171531387445 0 L 63.342662934826066 187.2955389836787 M 72.23910435825668 182.1861193282256 l 7.1171531387445 0 L 79.35625749700118 181.55579738954066 l -7.1171531387445 0 L 72.23910435825668 182.1861193282256 M 81.13554578168731 181.546996423633 l 7.1171531387445 0 L 88.25269892043181 181.41163432835435 l -7.1171531387445 0 L 81.13554578168731 181.546996423633 M 90.03198720511796 181.4116883220102 l 7.1171531387445 0 L 97.14914034386246 176.8067853870533 l -7.1171531387445 0 L 90.03198720511796 181.4116883220102 M 98.92842862854857 176.80683938070916 l 7.1171531387445 0 L 106.04558176729307 176.54691392132685 l -7.1171531387445 0 L 98.92842862854857 176.80683938070916 M 125.61775289884046 178.35996689195412 l 7.1171531387445 0 L 132.73490603758498 174.08366934665258 l -7.1171531387445 0 L 125.61775289884046 178.35996689195412 M 161.20351859256294 184.9929795288885 l 7.1171531387445 0 L 168.32067173130744 181.8596196911494 l -7.1171531387445 0 L 161.20351859256294 184.9929795288885 M 170.09996001599356 181.85967368480524 l 7.1171531387445 0 L 177.21711315473806 179.34815878177872 l -7.1171531387445 0 L 170.09996001599356 181.85967368480524 M 178.9964014394242 179.34810478812284 l 7.1171531387445 0 L 186.1135545781687 171.1903653029338 l -7.1171531387445 0 L 178.9964014394242 179.34810478812284 M 196.78928428628546 176.2166887219952 l 7.1171531387445 0 L 203.90643742502996 173.84566531155548 l -7.1171531387445 0 L 196.78928428628546 176.2166887219952 M 205.68572570971608 173.84571930521136 l 7.1171531387445 0 L 212.80287884846058 172.66962949294168 l -7.1171531387445 0 L 205.68572570971608 173.84571930521136 M 223.47860855657734 176.83464611348484 l 7.1171531387445 0 L 230.59576169532184 174.15035151165822 l -7.1171531387445 0 L 223.47860855657734 176.83464611348484 M 232.37504998000796 174.15035151165822 l 7.1171531387445 0 L 239.49220311875246 173.00708984216055 l -7.1171531387445 0 L 232.37504998000796 174.15035151165822 M 259.06437425029986 178.59699904124545 l 7.1171531387445 0 L 266.1815273890444 177.42441881660767 l -7.1171531387445 0 L 259.06437425029986 178.59699904124545 M 285.7536985205918 180.14974859689926 l 7.1171531387445 0 L 292.8708516593363 175.98057446485376 l -7.1171531387445 0 L 285.7536985205918 180.14974859689926 M 294.65013994402244 175.98057446485376 l 7.1171531387445 0 L 301.76729308276697 174.00278685015178 l -7.1171531387445 0 L 294.65013994402244 175.98057446485376 M 303.54658136745303 174.00278685015178 l 7.1171531387445 0 L 310.66373450619756 173.4728391177385 l -7.1171531387445 0 L 303.54658136745303 174.00278685015178 M 312.4430227908837 173.46986946666536 l 7.1171531387445 0 L 319.5601759296282 172.6451703668303 l -7.1171531387445 0 L 312.4430227908837 173.46986946666536 M 321.3394642143143 172.6451703668303 l 7.1171531387445 0 L 328.45661735305885 162.33729551738622 l -7.1171531387445 0 L 321.3394642143143 172.6451703668303 M 330.23590563774496 162.33729551738622 l 7.1171531387445 0 L 337.3530587764895 154.44536680006988 l -7.1171531387445 0 L 330.23590563774496 162.33729551738622 M 339.13234706117555 154.44542079372573 l 7.1171531387445 0 L 346.2495001999201 152.77032161385915 l -7.1171531387445 0 L 339.13234706117555 154.44542079372573 M 348.02878848460614 152.77032161385915 l 7.1171531387445 0 L 355.14594162335067 148.91398672395349 l -7.1171531387445 0 L 348.02878848460614 152.77032161385915 M 374.7181127548981 154.86262977267202 l 7.1171531387445 0 L 381.8352658936426 148.97240785961026 l -7.1171531387445 0 L 374.7181127548981 154.86262977267202 M 392.5109956017593 152.0954009154214 l 7.1171531387445 0 L 399.62814874050383 149.41294209789456 l -7.1171531387445 0 L 392.5109956017593 152.0954009154214 M 401.40743702518995 149.41407596466792 l 7.1171531387445 0 L 408.5245901639345 144.1039078966715 l -7.1171531387445 0 L 401.40743702518995 149.41407596466792 M 410.3038784486206 144.1039078966715 l 7.1171531387445 0 L 417.4210315873651 134.48806973457755 l -7.1171531387445 0 L 410.3038784486206 144.1039078966715 M 428.0967612954818 135.63192533428983 l 7.1171531387445 0 L 435.21391443422635 131.32393351298967 l -7.1171531387445 0 L 428.0967612954818 135.63192533428983 M 436.99320271891247 131.3238795193338 l 7.1171531387445 0 L 444.110355857657 129.67394138310493 l -7.1171531387445 0 L 436.99320271891247 131.3238795193338 M 445.8896441423431 129.67394138310493 l 7.1171531387445 0 L 453.00679728108764 121.62597100030979 l -7.1171531387445 0 L 445.8896441423431 129.67394138310493 M 454.7860855657737 121.62591700665392 l 7.1171531387445 0 L 461.90323870451823 121.36631550920681 l -7.1171531387445 0 L 454.7860855657737 121.62591700665392 M 463.68252698920435 121.36631550920681 l 7.1171531387445 0 L 470.7996801279489 119.16305038757079 l -7.1171531387445 0 L 463.68252698920435 121.36631550920681 M 472.57896841263494 119.1629963939149 l 7.1171531387445 0 L 479.69612155137946 103.79300033156423 l -7.1171531387445 0 L 472.57896841263494 119.1629963939149 M 481.47540983606564 103.80315113886874 l 7.1171531387445 0 L 488.59256297481016 99.35623364100212 l -7.1171531387445 0 L 481.47540983606564 103.80315113886874 M 499.2682926829268 104.81121269405536 l 7.1171531387445 0 L 506.38544582167134 94.22964400298079 l -7.1171531387445 0 L 499.2682926829268 104.81121269405536 M 508.16473410635746 94.22964400298079 l 7.1171531387445 0 L 515.281887245102 79.00435093837518 l -7.1171531387445 0 L 508.16473410635746 94.22964400298079 M 517.0611755297881 79.00435093837518 l 7.1171531387445 0 L 524.1783286685326 64.6262723281045 l -7.1171531387445 0 L 517.0611755297881 79.00435093837518 M 525.9576169532187 64.625192454987 l 7.1171531387445 0 L 533.0747700919632 58.4141402387159 l -7.1171531387445 0 L 525.9576169532187 64.625192454987 M 570.4398240703717 93.69175920315385 l 7.1171531387445 0 L 577.5569772091162 75.75382486738727 l -7.1171531387445 0 L 570.4398240703717 93.69175920315385 M 579.3362654938024 75.75382486738727 l 7.1171531387445 0 L 586.4534186325469 66.18010175687581 l -7.1171531387445 0 L 579.3362654938024 75.75382486738727 M 614.9220311875249 84.10334981824441 l 7.1171531387445 0 L 622.0391843262694 79.74994933235335 l -7.1171531387445 0 L 614.9220311875249 84.10334981824441 M 650.5077968812475 110.95439488489156 l 7.1171531387445 0 L 657.624950019992 99.65255082444426 l -7.1171531387445 0 L 650.5077968812475 110.95439488489156 M 668.3006797281087 104.33471868095832 l 7.1171531387445 0 L 675.4178328668531 103.3525740805917 l -7.1171531387445 0 L 668.3006797281087 104.33471868095832 M 686.09356257497 103.38340445809635 l 7.1171531387445 0 L 693.2107157137144 102.23020795591768 l -7.1171531387445 0 L 686.09356257497 103.38340445809635 M 703.8864454218311 113.59900414965003 l 7.1171531387445 0 L 711.0035985605756 97.38649108102555 l -7.1171531387445 0 L 703.8864454218311 113.59900414965003 M 712.7828868452618 97.36856518727505 l 7.1171531387445 0 L 719.9000399840063 92.5954180206116 l -7.1171531387445 0 L 712.7828868452618 97.36856518727505 M 721.6793282686924 92.6273822648896 l 7.1171531387445 0 L 728.7964814074369 92.53775279613707 l -7.1171531387445 0 L 721.6793282686924 92.6273822648896 M 739.4722111155537 98.85452459061146 l 7.1171531387445 0 L 746.5893642542982 96.51443954498811 l -7.1171531387445 0 L 739.4722111155537 98.85452459061146 M 748.3686525389844 96.56454565764014 l 7.1171531387445 0 L 755.4858056777289 86.04037222276074 l -7.1171531387445 0 L 748.3686525389844 96.56454565764014 M 757.265093962415 86.00543832740959 l 7.1171531387445 0 L 764.3822471011595 74.41753587813639 l -7.1171531387445 0 L 757.265093962415 86.00543832740959 M 775.0579768092763 78.10109106924197 l 7.1171531387445 0 L 782.1751299480208 70.79256380365524 l -7.1171531387445 0 L 775.0579768092763 78.10109106924197 M 783.9544182327068 70.79753121999573 l 7.1171531387445 0 L 791.0715713714512 65.95095268134222 l -7.1171531387445 0 L 783.9544182327068 70.79753121999573 M 801.747301079568 68.06345446745235 l 7.1171531387445 0 L 808.8644542183125 27.140690793969355 l -7.1171531387445 0 L 801.747301079568 68.06345446745235 M 810.6437425029987 27.140744787625238 l 7.1171531387445 0 L 817.7608956417432 26.894749691458657 l -7.1171531387445 0 L 810.6437425029987 27.140744787625238 M 828.43662534986 35.60306248560528 l 7.1171531387445 0 L 835.5537784886045 18.53064645351526 l -7.1171531387445 0 L 828.43662534986 35.60306248560528 M 855.1259496201519 22.918872847445726 l 7.1171531387445 0 L 862.2431027588964 15.246320353949585 l -7.1171531387445 0 L 855.1259496201519 22.918872847445726 M 872.9188324670131 18.846023397481275 l 7.1171531387445 0 L 880.0359856057576 12.246108871598267 l -7.1171531387445 0 L 872.9188324670131 18.846023397481275 M 881.8152738904437 12.246108871598267 l 7.1171531387445 0 L 888.9324270291881 8.382700812772981 l -7.1171531387445 0 L 881.8152738904437 12.246108871598267"></path><path class="candle body down" d="M 1.0675729708116766 194.77187853172504 l 7.1171531387445 0 L 8.184726109556177 194.9403387380551 l -7.1171531387445 0 L 1.0675729708116766 194.77187853172504 M 36.65333866453418 189.41770563419047 l 7.1171531387445 0 L 43.77049180327868 190.76533329117507 l -7.1171531387445 0 L 36.65333866453418 189.41770563419047 M 45.54978008796481 190.77013872654797 l 7.1171531387445 0 L 52.66693322670931 191.37789131707717 l -7.1171531387445 0 L 45.54978008796481 190.77013872654797 M 107.82487005197919 176.54691392132685 l 7.1171531387445 0 L 114.94202319072369 178.10932834138228 l -7.1171531387445 0 L 107.82487005197919 176.54691392132685 M 116.72131147540982 178.11229799245538 l 7.1171531387445 0 L 123.83846461415432 178.36002088561 l -7.1171531387445 0 L 116.72131147540982 178.11229799245538 M 134.51419432227107 174.08372334030844 l 7.1171531387445 0 L 141.63134746101557 176.46424963418218 l -7.1171531387445 0 L 134.51419432227107 174.08372334030844 M 143.4106357457017 176.46576145654666 l 7.1171531387445 0 L 150.5277888844462 184.93930983494872 l -7.1171531387445 0 L 143.4106357457017 176.46576145654666 M 152.30707716913233 184.93930983494872 l 7.1171531387445 0 L 159.42423030787683 184.99303352254438 l -7.1171531387445 0 L 152.30707716913233 184.93930983494872 M 187.89284286285485 171.1903653029338 l 7.1171531387445 0 L 195.00999600159935 176.2166887219952 l -7.1171531387445 0 L 187.89284286285485 171.1903653029338 M 214.5821671331467 172.6672537720832 l 7.1171531387445 0 L 221.6993202718912 176.83459211982893 l -7.1171531387445 0 L 214.5821671331467 172.6672537720832 M 241.2714914034386 173.01103137903945 l 7.1171531387445 0 L 248.3886445421831 174.04646771775467 l -7.1171531387445 0 L 241.2714914034386 173.01103137903945 M 250.16793282686922 174.04646771775467 l 7.1171531387445 0 L 257.28508596561375 178.59699904124545 l -7.1171531387445 0 L 250.16793282686922 174.04646771775467 M 267.9608156737305 177.42436482295176 l 7.1171531387445 0 L 275.07796881247504 178.97214696226507 l -7.1171531387445 0 L 267.9608156737305 177.42436482295176 M 276.85725709716115 178.97117507645933 l 7.1171531387445 0 L 283.9744102359057 180.14974859689926 l -7.1171531387445 0 L 276.85725709716115 178.97117507645933 M 356.9252299080368 148.9140407176094 l 7.1171531387445 0 L 364.0423830467813 150.89064047188208 l -7.1171531387445 0 L 356.9252299080368 148.9140407176094 M 365.8216713314674 150.89053248457034 l 7.1171531387445 0 L 372.93882447021196 154.8635476648219 l -7.1171531387445 0 L 365.8216713314674 150.89053248457034 M 383.61455417832866 148.97240785961026 l 7.1171531387445 0 L 390.7317073170732 152.09340315015402 l -7.1171531387445 0 L 383.61455417832866 148.97240785961026 M 419.20031987205124 134.48801574092167 l 7.1171531387445 0 L 426.31747301079577 135.63127741041933 l -7.1171531387445 0 L 419.20031987205124 134.48801574092167 M 490.3718512594962 99.35623364100212 l 7.1171531387445 0 L 497.48900439824075 104.81682803426636 l -7.1171531387445 0 L 490.3718512594962 99.35623364100212 M 534.8540583766493 58.39173287152778 l 7.1171531387445 0 L 541.9712115153937 61.08461246463847 l -7.1171531387445 0 L 534.8540583766493 58.39173287152778 M 543.75049980008 61.08461246463847 l 7.1171531387445 0 L 550.8676529388244 71.54966284633477 l -7.1171531387445 0 L 543.75049980008 61.08461246463847 M 552.6469412235106 71.54966284633477 l 7.1171531387445 0 L 559.764094362255 86.37389103510071 l -7.1171531387445 0 L 552.6469412235106 71.54966284633477 M 561.5433826469413 86.34203477813445 l 7.1171531387445 0 L 568.6605357856857 93.68047452907598 l -7.1171531387445 0 L 561.5433826469413 86.34203477813445 M 588.232706917233 66.17626820730868 l 7.1171531387445 0 L 595.3498600559775 79.15088972041997 l -7.1171531387445 0 L 588.232706917233 66.17626820730868 M 597.1291483406637 79.17675268158413 l 7.1171531387445 0 L 604.2463014794082 83.18551166202492 l -7.1171531387445 0 L 597.1291483406637 79.17675268158413 M 606.0255897640943 83.18551166202492 l 7.1171531387445 0 L 613.1427429028388 84.08380411481764 l -7.1171531387445 0 L 606.0255897640943 83.18551166202492 M 623.8184726109555 79.79751774317923 l 7.1171531387445 0 L 630.9356257497 83.74429200667552 l -7.1171531387445 0 L 623.8184726109555 79.79751774317923 M 632.7149140343862 83.6878686362861 l 7.1171531387445 0 L 639.8320671731307 86.02962748524156 l -7.1171531387445 0 L 632.7149140343862 83.6878686362861 M 641.6113554578168 86.02962748524156 l 7.1171531387445 0 L 648.7285085965613 110.96443770488432 l -7.1171531387445 0 L 641.6113554578168 86.02962748524156 M 659.4042383046781 99.62647188865661 l 7.1171531387445 0 L 666.5213914434225 104.33471868095832 l -7.1171531387445 0 L 659.4042383046781 99.62647188865661 M 677.1971211515394 103.35500379510609 l 7.1171531387445 0 L 684.3142742902838 103.38335046444045 l -7.1171531387445 0 L 677.1971211515394 103.35500379510609 M 694.9900039984005 102.25050957052669 l 7.1171531387445 0 L 702.107157137145 113.5776226619235 l -7.1171531387445 0 L 694.9900039984005 102.25050957052669 M 730.5757696921231 92.53769880248119 l 7.1171531387445 0 L 737.6929228308676 98.85447059695558 l -7.1171531387445 0 L 730.5757696921231 92.53769880248119 M 766.1615353858456 74.41003075996977 l 7.1171531387445 0 L 773.27868852459 78.10103707558609 l -7.1171531387445 0 L 766.1615353858456 74.41003075996977 M 792.8508596561375 65.98297091927608 l 7.1171531387445 0 L 799.9680127948819 68.06345446745235 l -7.1171531387445 0 L 792.8508596561375 65.98297091927608 M 819.5401839264293 26.894749691458657 l 7.1171531387445 0 L 826.6573370651738 35.60306248560528 l -7.1171531387445 0 L 819.5401839264293 26.894749691458657 M 837.3330667732906 18.535235914264632 l 7.1171531387445 0 L 844.4502199120351 22.212527841288733 l -7.1171531387445 0 L 837.3330667732906 18.535235914264632 M 846.2295081967213 22.155564534340556 l 7.1171531387445 0 L 853.3466613354658 22.93555688711109 l -7.1171531387445 0 L 846.2295081967213 22.155564534340556 M 864.0223910435824 15.231850054175055 l 7.1171531387445 0 L 871.1395441823269 18.846023397481275 l -7.1171531387445 0 L 864.0223910435824 15.231850054175055"></path><path class="candle body equal"></path><path class="candle wick up" d="M 13.522590963614554 191.33469639237717 L 13.522590963614554 192.8506222747242 M 13.522590963614554 194.9403387380551 L 13.522590963614554 195.07278517591652 M 22.41903238704518 189.30615474115268 L 22.41903238704518 189.56985975644628 M 22.41903238704518 192.85056828106835 L 22.41903238704518 194.1659077318397 M 31.315473810475808 188.55402311481367 L 31.315473810475808 189.41414205290272 M 31.315473810475808 189.56991375010216 L 31.315473810475808 191.40299836705907 M 58.004798080767685 186.39427687981288 L 58.004798080767685 187.29289329454082 M 58.004798080767685 191.37789131707717 L 58.004798080767685 191.88003231671485 M 66.90123950419832 181.10926985545422 L 66.90123950419832 182.1861193282256 M 66.90123950419832 187.2955389836787 L 66.90123950419832 188.24085991073855 M 75.79768092762893 177.7718679921634 L 75.79768092762893 181.55579738954066 M 75.79768092762893 182.1861193282256 L 75.79768092762893 184.58845905907285 M 84.69412235105956 179.37618148917787 L 84.69412235105956 181.41163432835435 M 84.69412235105956 181.546996423633 L 84.69412235105956 183.93405594986763 M 93.5905637744902 175.94531660756735 L 93.5905637744902 176.8067853870533 M 93.5905637744902 181.4116883220102 L 93.5905637744902 181.7506064999377 M 102.48700519792082 175.13174020084256 L 102.48700519792082 176.54691392132685 M 102.48700519792082 176.80683938070916 L 102.48700519792082 178.68085118881936 M 129.1763294682127 172.68544963411307 L 129.1763294682127 174.08366934665258 M 129.1763294682127 178.35996689195412 L 129.1763294682127 180.24979884123567 M 164.7620951619352 180.99226560317305 L 164.7620951619352 181.8596196911494 M 164.7620951619352 184.9929795288885 L 164.7620951619352 186.4722437188964 M 173.65853658536582 178.40294584203065 L 173.65853658536582 179.34815878177872 M 173.65853658536582 181.85967368480524 L 173.65853658536582 182.95488100057415 M 182.55497800879647 170.28710543380058 L 182.55497800879647 171.1903653029338 M 182.55497800879647 179.34810478812284 L 182.55497800879647 179.34815878177872 M 200.34786085565773 173.1010388033831 L 200.34786085565773 173.84566531155548 M 200.34786085565773 176.2166887219952 L 200.34786085565773 178.56519677793506 M 209.24430227908834 171.7188012129826 L 209.24430227908834 172.66962949294168 M 209.24430227908834 173.84571930521136 L 209.24430227908834 175.664657584329 M 227.0371851259496 173.9919341253209 L 227.0371851259496 174.15035151165822 M 227.0371851259496 176.83464611348484 L 227.0371851259496 177.64730462805974 M 235.93362654938022 172.67988828755796 L 235.93362654938022 173.00708984216055 M 235.93362654938022 174.15035151165822 L 235.93362654938022 175.71973111332153 M 262.6229508196721 176.89371517301208 L 262.6229508196721 177.42441881660767 M 262.6229508196721 178.59699904124545 L 262.6229508196721 182.23676537743637 M 289.31227508996403 175.22482526357112 L 289.31227508996403 175.98057446485376 M 289.31227508996403 180.14974859689926 L 289.31227508996403 180.2352205541494 M 298.2087165133947 172.72848257784545 L 298.2087165133947 174.00278685015178 M 298.2087165133947 175.98057446485376 L 298.2087165133947 176.50739056522633 M 307.10515793682526 173.06324324427058 L 307.10515793682526 173.4728391177385 M 307.10515793682526 174.00278685015178 L 307.10515793682526 174.94762183430876 M 316.0015993602559 171.86998344943265 L 316.0015993602559 172.6451703668303 M 316.0015993602559 173.46986946666536 L 316.0015993602559 174.67765355493367 M 324.89804078368655 161.12524593030378 L 324.89804078368655 162.33729551738622 M 324.89804078368655 172.6451703668303 L 324.89804078368655 173.44335858163072 M 333.7944822071172 149.0306670142994 L 333.7944822071172 154.44536680006988 M 333.7944822071172 162.33729551738622 L 333.7944822071172 162.90703657417941 M 342.6909236305478 151.81036840605717 L 342.6909236305478 152.77032161385915 M 342.6909236305478 154.44542079372573 L 342.6909236305478 156.85974711617723 M 351.5873650539784 147.02496467951005 L 351.5873650539784 148.91398672395349 M 351.5873650539784 152.77032161385915 L 351.5873650539784 154.70000088117646 M 378.2766893242703 148.8303505510031 L 378.2766893242703 148.97240785961026 M 378.2766893242703 154.86262977267202 L 378.2766893242703 156.84138927317974 M 396.06957217113154 149.0607414806218 L 396.06957217113154 149.41294209789456 M 396.06957217113154 152.0954009154214 L 396.06957217113154 154.9515033302423 M 404.9660135945622 143.68605099385474 L 404.9660135945622 144.1039078966715 M 404.9660135945622 149.41407596466792 L 404.9660135945622 151.00899456556013 M 413.86245501799283 132.47065077646334 L 413.86245501799283 134.48806973457755 M 413.86245501799283 144.1039078966715 L 413.86245501799283 145.25111110304806 M 431.65533786485406 129.05301434054223 L 431.65533786485406 131.32393351298967 M 431.65533786485406 135.63192533428983 L 431.65533786485406 136.60672679745744 M 440.5517792882847 129.5389572434174 L 440.5517792882847 129.67394138310493 M 440.5517792882847 131.3238795193338 L 440.5517792882847 137.79998659229537 M 449.44822071171535 120.97556342163931 L 449.44822071171535 121.62597100030979 M 449.44822071171535 129.67394138310493 L 449.44822071171535 130.02490014629257 M 458.34466213514594 119.33415628303872 L 458.34466213514594 121.36631550920681 M 458.34466213514594 121.62591700665392 L 458.34466213514594 127.16323638491653 M 467.2411035585766 117.71434660678814 L 467.2411035585766 119.16305038757079 M 467.2411035585766 121.36631550920681 L 467.2411035585766 122.98104978180515 M 476.13754498200717 97.73669393303092 L 476.13754498200717 103.79300033156423 M 476.13754498200717 119.1629963939149 L 476.13754498200717 121.24267003725303 M 485.0339864054379 89.75583766448842 L 485.0339864054379 99.35623364100212 M 485.0339864054379 103.80315113886874 L 485.0339864054379 104.9556997171769 M 502.82686925229905 92.01336641027886 L 502.82686925229905 94.22964400298079 M 502.82686925229905 104.81121269405536 L 502.82686925229905 116.09453693053754 M 511.7233106757297 78.08726869333798 L 511.7233106757297 79.00435093837518 M 511.7233106757297 94.22964400298079 L 511.7233106757297 97.80148632008097 M 520.6197520991603 59.59017605732967 L 520.6197520991603 64.6262723281045 M 520.6197520991603 79.00435093837518 L 520.6197520991603 81.5385971705251 M 529.5161935225909 51.03218160113909 L 529.5161935225909 58.4141402387159 M 529.5161935225909 64.625192454987 L 529.5161935225909 80.4587240530247 M 573.998400639744 73.16958050989709 L 573.998400639744 75.75382486738727 M 573.998400639744 93.69175920315385 L 573.998400639744 102.70411027353272 M 582.8948420631747 61.0210079380177 L 582.8948420631747 66.18010175687581 M 582.8948420631747 75.75382486738727 L 582.8948420631747 79.37220971585168 M 618.4806077568971 75.22225732529768 L 618.4806077568971 79.74994933235335 M 618.4806077568971 84.10334981824441 L 618.4806077568971 89.63764555177802 M 654.0663734506197 94.89376597024355 L 654.0663734506197 99.65255082444426 M 654.0663734506197 110.95439488489156 L 654.0663734506197 121.7638707974146 M 671.8592562974809 98.97314865256888 L 671.8592562974809 103.3525740805917 M 671.8592562974809 104.33471868095832 L 671.8592562974809 110.6951713430356 M 689.6521391443422 99.77830204897717 L 689.6521391443422 102.23020795591768 M 689.6521391443422 103.38340445809635 L 689.6521391443422 111.03333360978085 M 707.4450219912034 95.12350897599174 L 707.4450219912034 97.38649108102555 M 707.4450219912034 113.59900414965003 L 707.4450219912034 116.40716019805392 M 716.3414634146341 69.4877531157795 L 716.3414634146341 92.5954180206116 M 716.3414634146341 97.36856518727505 L 716.3414634146341 105.21265552548613 M 725.2379048380647 88.91952992864024 L 725.2379048380647 92.53775279613707 M 725.2379048380647 92.6273822648896 L 725.2379048380647 100.30139258709437 M 743.0307876849259 90.08433506683207 L 743.0307876849259 96.51443954498811 M 743.0307876849259 98.85452459061146 L 743.0307876849259 103.15679308438888 M 751.9272291083566 83.24301490553184 L 751.9272291083566 86.04037222276074 M 751.9272291083566 96.56454565764014 L 751.9272291083566 97.09956879370569 M 760.8236705317872 74.18125964002733 L 760.8236705317872 74.41753587813639 M 760.8236705317872 86.00543832740959 L 760.8236705317872 86.60115033267869 M 778.6165533786485 70.68522441577568 L 778.6165533786485 70.79256380365524 M 778.6165533786485 78.10109106924197 L 778.6165533786485 80.08076846189958 M 787.512994802079 56.401796684253895 L 787.512994802079 65.95095268134222 M 787.512994802079 70.79753121999573 L 787.512994802079 71.19373666680659 M 805.3058776489403 24.875224980765296 L 805.3058776489403 27.140690793969355 M 805.3058776489403 68.06345446745235 L 805.3058776489403 72.41966262344894 M 814.202319072371 17.598284003865416 L 814.202319072371 26.894749691458657 M 814.202319072371 27.140744787625238 L 814.202319072371 34.77420587426789 M 831.9952019192323 14.70039049939723 L 831.9952019192323 18.53064645351526 M 831.9952019192323 35.60306248560528 L 831.9952019192323 39.99577035297338 M 858.6845261895241 9.146981011683863 L 858.6845261895241 15.246320353949585 M 858.6845261895241 22.918872847445726 L 858.6845261895241 23.688876373879367 M 876.4774090363853 3.846153846153868 L 876.4774090363853 12.246108871598267 M 876.4774090363853 18.846023397481275 L 876.4774090363853 23.745839680827515 M 885.3738504598159 6.083111009055926 L 885.3738504598159 8.382700812772981 M 885.3738504598159 12.246108871598267 L 885.3738504598159 13.25282058538798" style="stroke-width: 1px;"></path><path class="candle wick down" d="M 4.626149540183927 194.06137601406564 L 4.626149540183927 194.77187853172504 M 4.626149540183927 194.9403387380551 L 4.626149540183927 196.15384615384616 M 40.21191523390643 189.38018004335734 L 40.21191523390643 189.41770563419047 M 40.21191523390643 190.76533329117507 L 40.21191523390643 192.92750924069023 M 49.10835665733706 190.17383279106426 L 49.10835665733706 190.77013872654797 M 49.10835665733706 191.37789131707717 L 49.10835665733706 192.36208767636703 M 111.38344662135144 176.29746323118425 L 111.38344662135144 176.54691392132685 M 111.38344662135144 178.10932834138228 L 111.38344662135144 182.44809654653122 M 120.27988804478207 176.21107338178422 L 120.27988804478207 178.11229799245538 M 120.27988804478207 178.36002088561 L 120.27988804478207 180.3469874218107 M 138.07277089164333 172.33319502318443 L 138.07277089164333 174.08372334030844 M 138.07277089164333 176.46424963418218 L 138.07277089164333 177.6458467993511 M 146.96921231507397 175.40640592827882 L 146.96921231507397 176.46576145654666 M 146.96921231507397 184.93930983494872 L 146.96921231507397 190.13063786636422 M 155.8656537385046 183.27549532916 L 155.8656537385046 184.93930983494872 M 155.8656537385046 184.99303352254438 L 155.8656537385046 188.78036452024173 M 191.4514194322271 170.15298519260702 L 191.4514194322271 171.1903653029338 M 191.4514194322271 176.2166887219952 L 191.4514194322271 180.3409401323527 M 218.14074370251896 172.10215616969523 L 218.14074370251896 172.6672537720832 M 218.14074370251896 176.83459211982893 L 218.14074370251896 177.29467206153998 M 244.83006797281087 172.67497486487332 L 244.83006797281087 173.01103137903945 M 244.83006797281087 174.04646771775467 L 244.83006797281087 175.47200822016694 M 253.72650939624148 173.35567288448968 L 253.72650939624148 174.04646771775467 M 253.72650939624148 178.59699904124545 L 253.72650939624148 179.26711430431033 M 271.51939224310274 177.33781299258413 L 271.51939224310274 177.42436482295176 M 271.51939224310274 178.97214696226507 L 271.51939224310274 180.8268830352279 M 280.4158336665334 178.76643113338127 L 280.4158336665334 178.97117507645933 M 280.4158336665334 180.14974859689926 L 280.4158336665334 182.65613410261764 M 360.483806477409 146.35798104848595 L 360.483806477409 148.9140407176094 M 360.483806477409 150.89064047188208 L 360.483806477409 153.02619754905086 M 369.38024790083966 147.39590109537144 L 369.38024790083966 150.89053248457034 M 369.38024790083966 154.8635476648219 L 369.38024790083966 159.74840770549076 M 387.1731307477009 147.41085733804886 L 387.1731307477009 148.97240785961026 M 387.1731307477009 152.09340315015402 L 387.1731307477009 155.50990571930174 M 422.7588964414235 124.07479926886542 L 422.7588964414235 134.48801574092167 M 422.7588964414235 135.63127741041933 L 422.7588964414235 138.77187239804573 M 493.93042782886846 96.11688425678035 L 493.93042782886846 99.35623364100212 M 493.93042782886846 104.81682803426636 L 493.93042782886846 125.651414020416 M 538.4126349460215 54.1098199860152 L 538.4126349460215 58.39173287152778 M 538.4126349460215 61.08461246463847 L 538.4126349460215 68.4721324487704 M 547.3090763694522 54.27180095364025 L 547.3090763694522 61.08461246463847 M 547.3090763694522 71.54966284633477 L 547.3090763694522 87.95784892385028 M 556.2055177928828 70.93024762613652 L 556.2055177928828 71.54966284633477 M 556.2055177928828 86.37389103510071 L 556.2055177928828 113.28686682503654 M 565.1019592163135 79.76760525782444 L 565.1019592163135 86.34203477813445 M 565.1019592163135 93.68047452907598 L 565.1019592163135 101.88880606981992 M 591.7912834866053 62.92288047255937 L 591.7912834866053 66.17626820730868 M 591.7912834866053 79.15088972041997 L 591.7912834866053 91.75419686207877 M 600.687724910036 72.62964395114689 L 600.687724910036 79.17675268158413 M 600.687724910036 83.18551166202492 L 600.687724910036 86.6258794270694 M 609.5841663334666 78.55544768343027 L 609.5841663334666 83.18551166202492 M 609.5841663334666 84.08380411481764 L 609.5841663334666 94.76704285990488 M 627.3770491803277 73.16958050989709 L 627.3770491803277 79.79751774317923 M 627.3770491803277 83.74429200667552 L 627.3770491803277 84.00038391649073 M 636.2734906037584 80.91599632463027 L 636.2734906037584 83.6878686362861 M 636.2734906037584 86.02962748524156 L 636.2734906037584 97.19675737428074 M 645.169932027189 85.31815308177646 L 645.169932027189 86.02962748524156 M 645.169932027189 110.96443770488432 L 645.169932027189 115.17124541507472 M 662.9628148740503 96.89439290138063 L 662.9628148740503 99.62647188865661 M 662.9628148740503 104.33471868095832 L 662.9628148740503 108.04861830666565 M 680.7556977209116 89.23269313271535 L 680.7556977209116 103.35500379510609 M 680.7556977209116 103.38335046444045 L 680.7556977209116 105.24181209965863 M 698.5485805677728 101.7468567485245 L 698.5485805677728 102.25050957052669 M 698.5485805677728 113.5776226619235 L 698.5485805677728 119.64883130947833 M 734.1343462614954 92.10682942859852 L 734.1343462614954 92.53769880248119 M 734.1343462614954 98.85447059695558 L 734.1343462614954 103.82896010637701 M 769.7201119552178 68.5354670071118 L 769.7201119552178 74.41003075996977 M 769.7201119552178 78.10103707558609 L 769.7201119552178 82.28397958987976 M 796.4094362255097 63.18075417301847 L 796.4094362255097 65.98297091927608 M 796.4094362255097 68.06345446745235 L 796.4094362255097 75.86386393806055 M 823.0987604958016 22.091582052128672 L 823.0987604958016 26.894749691458657 M 823.0987604958016 35.60306248560528 L 823.0987604958016 41.437508952148164 M 840.8916433426629 13.043325200592903 L 840.8916433426629 18.535235914264632 M 840.8916433426629 22.212527841288733 L 840.8916433426629 28.48983027331849 M 849.7880847660936 17.556114958627035 L 849.7880847660936 22.155564534340556 M 849.7880847660936 22.93555688711109 L 849.7880847660936 28.071217459319456 M 867.5809676129546 12.907693137034869 L 867.5809676129546 15.231850054175055 M 867.5809676129546 18.846023397481275 L 867.5809676129546 31.482212675567922" style="stroke-width: 1px;"></path><path class="candle wick equal" style="stroke-width: 1px;"></path></g></g><g class="x axis" transform="translate(0,200)" fill="none" font-size="10" font-family="sans-serif" text-anchor="middle"><path class="domain" stroke="#000" d="M0.5,6V0.5H890.5V6"></path><g class="tick" opacity="1" transform="translate(58.004798080767685,0)"><line stroke="#000" y2="6" x1="0.5" x2="0.5"></line><text fill="#000" y="9" x="0.5" dy="0.71em">Nov 16</text></g><g class="tick" opacity="1" transform="translate(120.27988804478207,0)"><line stroke="#000" y2="6" x1="0.5" x2="0.5"></line><text fill="#000" y="9" x="0.5" dy="0.71em">Nov 23</text></g><g class="tick" opacity="1" transform="translate(182.55497800879647,0)"><line stroke="#000" y2="6" x1="0.5" x2="0.5"></line><text fill="#000" y="9" x="0.5" dy="0.71em">Nov 30</text></g><g class="tick" opacity="1" transform="translate(244.83006797281087,0)"><line stroke="#000" y2="6" x1="0.5" x2="0.5"></line><text fill="#000" y="9" x="0.5" dy="0.71em">Dec  7</text></g><g class="tick" opacity="1" transform="translate(307.10515793682526,0)"><line stroke="#000" y2="6" x1="0.5" x2="0.5"></line><text fill="#000" y="9" x="0.5" dy="0.71em">Dec 14</text></g><g class="tick" opacity="1" transform="translate(369.38024790083966,0)"><line stroke="#000" y2="6" x1="0.5" x2="0.5"></line><text fill="#000" y="9" x="0.5" dy="0.71em">Dec 21</text></g><g class="tick" opacity="1" transform="translate(431.65533786485406,0)"><line stroke="#000" y2="6" x1="0.5" x2="0.5"></line><text fill="#000" y="9" x="0.5" dy="0.71em">Dec 28</text></g><g class="tick" opacity="1" transform="translate(493.93042782886846,0)"><line stroke="#000" y2="6" x1="0.5" x2="0.5"></line><text fill="#000" y="9" x="0.5" dy="0.71em">Jan  4</text></g><g class="tick" opacity="1" transform="translate(556.2055177928828,0)"><line stroke="#000" y2="6" x1="0.5" x2="0.5"></line><text fill="#000" y="9" x="0.5" dy="0.71em">Jan 11</text></g><g class="tick" opacity="1" transform="translate(618.4806077568971,0)"><line stroke="#000" y2="6" x1="0.5" x2="0.5"></line><text fill="#000" y="9" x="0.5" dy="0.71em">Jan 18</text></g><g class="tick" opacity="1" transform="translate(680.7556977209116,0)"><line stroke="#000" y2="6" x1="0.5" x2="0.5"></line><text fill="#000" y="9" x="0.5" dy="0.71em">Jan 25</text></g><g class="tick" opacity="1" transform="translate(743.0307876849259,0)"><line stroke="#000" y2="6" x1="0.5" x2="0.5"></line><text fill="#000" y="9" x="0.5" dy="0.71em">Feb  1</text></g><g class="tick" opacity="1" transform="translate(805.3058776489403,0)"><line stroke="#000" y2="6" x1="0.5" x2="0.5"></line><text fill="#000" y="9" x="0.5" dy="0.71em">Feb  8</text></g><g class="tick" opacity="1" transform="translate(867.5809676129546,0)"><line stroke="#000" y2="6" x1="0.5" x2="0.5"></line><text fill="#000" y="9" x="0.5" dy="0.71em">Feb 15</text></g></g><g class="y axis" fill="none" font-size="10" font-family="sans-serif" text-anchor="end"><path class="domain" stroke="#000" d="M-6,200.5H0.5V0.5H-6"></path><g class="tick" opacity="1" transform="translate(0,196.54508418431655)"><line stroke="#000" x2="-6" y1="0.5" y2="0.5"></line><text fill="#000" x="-9" y="0.5" dy="0.32em">15,000</text></g><g class="tick" opacity="1" transform="translate(0,169.5482562468068)"><line stroke="#000" x2="-6" y1="0.5" y2="0.5"></line><text fill="#000" x="-9" y="0.5" dy="0.32em">20,000</text></g><g class="tick" opacity="1" transform="translate(0,142.55142830929708)"><line stroke="#000" x2="-6" y1="0.5" y2="0.5"></line><text fill="#000" x="-9" y="0.5" dy="0.32em">25,000</text></g><g class="tick" opacity="1" transform="translate(0,115.55460037178736)"><line stroke="#000" x2="-6" y1="0.5" y2="0.5"></line><text fill="#000" x="-9" y="0.5" dy="0.32em">30,000</text></g><g class="tick" opacity="1" transform="translate(0,88.55777243427762)"><line stroke="#000" x2="-6" y1="0.5" y2="0.5"></line><text fill="#000" x="-9" y="0.5" dy="0.32em">35,000</text></g><g class="tick" opacity="1" transform="translate(0,61.56094449676789)"><line stroke="#000" x2="-6" y1="0.5" y2="0.5"></line><text fill="#000" x="-9" y="0.5" dy="0.32em">40,000</text></g><g class="tick" opacity="1" transform="translate(0,34.56411655925817)"><line stroke="#000" x2="-6" y1="0.5" y2="0.5"></line><text fill="#000" x="-9" y="0.5" dy="0.32em">45,000</text></g><g class="tick" opacity="1" transform="translate(0,7.567288621748446)"><line stroke="#000" x2="-6" y1="0.5" y2="0.5"></line><text fill="#000" x="-9" y="0.5" dy="0.32em">50,000</text></g><text transform="rotate(-90)" y="6" dy=".71em" style="text-anchor: end;">Price ($)</text></g></g></svg>