<?xml version="1.0" encoding="utf-8"?>
<!DOCTYPE svg PUBLIC "-//W3C//DTD SVG 1.1//EN" "http://www.w3.org/Graphics/SVG/1.1/DTD/svg11.dtd">
<svg version="1.1" xmlns="http://www.w3.org/2000/svg" width="960" height="250"><g transform="translate(50,20)"><style>.axis path,.axis line{fill:none;stroke:#000;shape-rendering:crispEdges;}path.candle{stroke:#000000;}path.candle.body{stroke-width:0;}path.candle.up{fill:#00AA00;stroke:#00AA00;}path.candle.down{fill:#FF0000;stroke:#FF0000;}</style><g class="candlestick"><g class="data"><path class="candle body up" d="M 18.860455817672932 174.7984461268194 l 7.1171531387445 0 L 25.977608956417434 169.64598267718557 l -7.1171531387445 0 L 18.860455817672932 174.7984461268194 M 27.75689724110356 169.64598267718557 l 7.1171531387445 0 L 34.87405037984806 169.18598618421896 l -7.1171531387445 0 L 27.75689724110356 169.64598267718557 M 45.54978008796481 192.36226850362283 l 7.1171531387445 0 L 52.66693322670931 183.20205418849173 l -7.1171531387445 0 L 45.54978008796481 192.36226850362283 M 63.342662934826066 186.18574728767965 l 7.1171531387445 0 L 70.45981607357056 167.93318699244537 l -7.1171531387445 0 L 63.342662934826066 186.18574728767965 M 72.23910435825668 167.93318699244537 l 7.1171531387445 0 L 79.35625749700118 149.24073934054903 l -7.1171531387445 0 L 72.23910435825668 167.93318699244537 M 90.03198720511796 156.7459717378154 l 7.1171531387445 0 L 97.14914034386246 143.11599915059008 l -7.1171531387445 0 L 90.03198720511796 156.7459717378154 M 107.82487005197919 155.6565592785163 l 7.1171531387445 0 L 114.94202319072369 117.82624660557775 l -7.1171531387445 0 L 107.82487005197919 155.6565592785163 M 125.61775289884046 152.15002863541002 l 7.1171531387445 0 L 132.73490603758498 144.6985881777583 l -7.1171531387445 0 L 125.61775289884046 152.15002863541002 M 134.51419432227107 144.69456635049738 l 7.1171531387445 0 L 141.63134746101557 138.5240778754456 l -7.1171531387445 0 L 134.51419432227107 144.69456635049738 M 152.30707716913233 146.9643851108737 l 7.1171531387445 0 L 159.42423030787683 144.69557180731266 l -7.1171531387445 0 L 152.30707716913233 146.9643851108737 M 161.20351859256294 144.66792174489382 l 7.1171531387445 0 L 168.32067173130744 140.63905628627685 l -7.1171531387445 0 L 161.20351859256294 144.66792174489382 M 170.09996001599356 140.63905628627685 l 7.1171531387445 0 L 177.21711315473806 138.8785014028133 l -7.1171531387445 0 L 170.09996001599356 140.63905628627685 M 187.89284286285485 139.3596124888997 l 7.1171531387445 0 L 195.00999600159935 133.70090153279878 l -7.1171531387445 0 L 187.89284286285485 139.3596124888997 M 205.68572570971608 164.17227577508655 l 7.1171531387445 0 L 212.80287884846058 154.8089591832795 l -7.1171531387445 0 L 205.68572570971608 164.17227577508655 M 214.5821671331467 154.81750556620892 l 7.1171531387445 0 L 221.6993202718912 154.3962191606285 l -7.1171531387445 0 L 214.5821671331467 154.81750556620892 M 232.37504998000796 160.99402678215205 l 7.1171531387445 0 L 239.49220311875246 156.775129985457 l -7.1171531387445 0 L 232.37504998000796 160.99402678215205 M 241.2714914034386 156.77362180023422 l 7.1171531387445 0 L 248.3886445421831 151.7694632308464 l -7.1171531387445 0 L 241.2714914034386 156.77362180023422 M 276.85725709716115 162.59622221721725 l 7.1171531387445 0 L 283.9744102359057 160.14692941532277 l -7.1171531387445 0 L 276.85725709716115 162.59622221721725 M 294.65013994402244 163.37746216264907 l 7.1171531387445 0 L 301.76729308276697 143.72078142494942 l -7.1171531387445 0 L 294.65013994402244 163.37746216264907 M 348.02878848460614 177.58909151748364 l 7.1171531387445 0 L 355.14594162335067 172.3431205840336 l -7.1171531387445 0 L 348.02878848460614 177.58909151748364 M 356.9252299080368 172.3526724237783 l 7.1171531387445 0 L 364.0423830467813 168.51182738960887 l -7.1171531387445 0 L 356.9252299080368 172.3526724237783 M 374.7181127548981 171.25069175428882 l 7.1171531387445 0 L 381.8352658936426 166.52906654998 l -7.1171531387445 0 L 374.7181127548981 171.25069175428882 M 401.40743702518995 175.28709813902 l 7.1171531387445 0 L 408.5245901639345 171.3824065970837 l -7.1171531387445 0 L 401.40743702518995 175.28709813902 M 419.20031987205124 174.70292772937282 l 7.1171531387445 0 L 426.31747301079577 160.88845381655312 l -7.1171531387445 0 L 419.20031987205124 174.70292772937282 M 436.99320271891247 165.25213639464098 l 7.1171531387445 0 L 444.110355857657 156.2703906642128 l -7.1171531387445 0 L 436.99320271891247 165.25213639464098 M 454.7860855657737 166.5079519568602 l 7.1171531387445 0 L 461.90323870451823 163.69669470148386 l -7.1171531387445 0 L 454.7860855657737 166.5079519568602 M 472.57896841263494 166.427515411642 l 7.1171531387445 0 L 479.69612155137946 162.97226306611236 l -7.1171531387445 0 L 472.57896841263494 166.427515411642 M 490.3718512594962 165.99567170950172 l 7.1171531387445 0 L 497.48900439824075 165.33005929782107 l -7.1171531387445 0 L 490.3718512594962 165.99567170950172 M 517.0611755297881 171.4698813400085 l 7.1171531387445 0 L 524.1783286685326 170.43426082032403 l -7.1171531387445 0 L 517.0611755297881 171.4698813400085 M 525.9576169532187 170.43476354873167 l 7.1171531387445 0 L 533.0747700919632 169.63190628177236 l -7.1171531387445 0 L 525.9576169532187 170.43476354873167 M 534.8540583766493 169.6309008249572 l 7.1171531387445 0 L 541.9712115153937 167.68584461589938 l -7.1171531387445 0 L 534.8540583766493 169.6309008249572 M 552.6469412235106 170.10949826900548 l 7.1171531387445 0 L 559.764094362255 158.58595770968196 l -7.1171531387445 0 L 552.6469412235106 170.10949826900548 M 561.5433826469413 158.58595770968196 l 7.1171531387445 0 L 568.6605357856857 152.14299043770347 l -7.1171531387445 0 L 561.5433826469413 158.58595770968196 M 570.4398240703717 152.14299043770347 l 7.1171531387445 0 L 577.5569772091162 147.8642689605024 l -7.1171531387445 0 L 570.4398240703717 152.14299043770347 M 588.232706917233 151.14054999292154 l 7.1171531387445 0 L 595.3498600559775 142.98026248053432 l -7.1171531387445 0 L 588.232706917233 151.14054999292154 M 597.1291483406637 142.98026248053432 l 7.1171531387445 0 L 604.2463014794082 131.36120352376412 l -7.1171531387445 0 L 597.1291483406637 142.98026248053432 M 606.0255897640943 131.36120352376412 l 7.1171531387445 0 L 613.1427429028388 76.14050977464902 l -7.1171531387445 0 L 606.0255897640943 131.36120352376412 M 623.8184726109555 82.35875744842404 l 7.1171531387445 0 L 630.9356257497 72.59275540211834 l -7.1171531387445 0 L 623.8184726109555 82.35875744842404 M 641.6113554578168 72.62995730428175 l 7.1171531387445 0 L 648.7285085965613 60.78215692204739 l -7.1171531387445 0 L 641.6113554578168 72.62995730428175 M 650.5077968812475 60.78215692204739 l 7.1171531387445 0 L 657.624950019992 37.36959225106497 l -7.1171531387445 0 L 650.5077968812475 60.78215692204739 M 668.3006797281087 74.05921416712779 l 7.1171531387445 0 L 675.4178328668531 66.59621095610098 l -7.1171531387445 0 L 668.3006797281087 74.05921416712779 M 686.09356257497 67.99480138608257 l 7.1171531387445 0 L 693.2107157137144 40.19794227230025 l -7.1171531387445 0 L 686.09356257497 67.99480138608257 M 694.9900039984005 40.19794227230025 l 7.1171531387445 0 L 702.107157137145 39.31565391693806 l -7.1171531387445 0 L 694.9900039984005 40.19794227230025 M 712.7828868452618 47.76651844892598 l 7.1171531387445 0 L 719.9000399840063 39.368440399737466 l -7.1171531387445 0 L 712.7828868452618 47.76651844892598 M 730.5757696921231 43.37619126523467 l 7.1171531387445 0 L 737.6929228308676 32.75705911120838 l -7.1171531387445 0 L 730.5757696921231 43.37619126523467 M 748.3686525389844 57.935205949730374 l 7.1171531387445 0 L 755.4858056777289 49.27621185699027 l -7.1171531387445 0 L 748.3686525389844 57.935205949730374 M 757.265093962415 49.27570912858263 l 7.1171531387445 0 L 764.3822471011595 38.43386828998342 l -7.1171531387445 0 L 757.265093962415 49.27570912858263 M 775.0579768092763 39.4116750427923 l 7.1171531387445 0 L 782.1751299480208 34.79411461885951 l -7.1171531387445 0 L 775.0579768092763 39.4116750427923 M 783.9544182327068 34.79411461885951 l 7.1171531387445 0 L 791.0715713714512 31.848126150242592 l -7.1171531387445 0 L 783.9544182327068 34.79411461885951 M 792.8508596561375 31.84862887865023 l 7.1171531387445 0 L 799.9680127948819 13.24063959923302 l -7.1171531387445 0 L 792.8508596561375 31.84862887865023 M 819.5401839264293 39.72185847028999 l 7.1171531387445 0 L 826.6573370651738 34.73630085198394 l -7.1171531387445 0 L 819.5401839264293 39.72185847028999 M 837.3330667732906 50.94024288619195 l 7.1171531387445 0 L 844.4502199120351 44.31780157269537 l -7.1171531387445 0 L 837.3330667732906 50.94024288619195 M 855.1259496201519 45.06385052959419 l 7.1171531387445 0 L 862.2431027588964 40.03254462619526 l -7.1171531387445 0 L 855.1259496201519 45.06385052959419 M 872.9188324670131 61.63880612862124 l 7.1171531387445 0 L 880.0359856057576 54.449287171336266 l -7.1171531387445 0 L 872.9188324670131 61.63880612862124"></path><path class="candle body down" d="M 1.0675729708116766 139.22437854725166 l 7.1171531387445 0 L 8.184726109556177 152.48132665602753 l -7.1171531387445 0 L 1.0675729708116766 139.22437854725166 M 9.964014394242305 152.48132665602753 l 7.1171531387445 0 L 17.081167532986804 174.74113508835148 l -7.1171531387445 0 L 9.964014394242305 152.48132665602753 M 36.65333866453418 169.19302438192554 l 7.1171531387445 0 L 43.77049180327868 192.25166825394777 l -7.1171531387445 0 L 36.65333866453418 169.19302438192554 M 54.446221511395436 183.20205418849173 l 7.1171531387445 0 L 61.563374650139934 186.1766981763426 l -7.1171531387445 0 L 54.446221511395436 183.20205418849173 M 81.13554578168731 149.2417447973642 l 7.1171531387445 0 L 88.25269892043181 156.7223435026576 l -7.1171531387445 0 L 81.13554578168731 149.2417447973642 M 98.92842862854857 143.11599915059008 l 7.1171531387445 0 L 106.04558176729307 155.6565592785163 l -7.1171531387445 0 L 98.92842862854857 143.11599915059008 M 116.72131147540982 117.72871729450074 l 7.1171531387445 0 L 123.83846461415432 152.1490231785948 l -7.1171531387445 0 L 116.72131147540982 117.72871729450074 M 143.4106357457017 138.57032888894608 l 7.1171531387445 0 L 150.5277888844462 146.96488783928132 l -7.1171531387445 0 L 143.4106357457017 138.57032888894608 M 178.9964014394242 138.87900413122094 l 7.1171531387445 0 L 186.1135545781687 139.36011521730734 l -7.1171531387445 0 L 178.9964014394242 138.87900413122094 M 196.78928428628546 133.68984150783132 l 7.1171531387445 0 L 203.90643742502996 164.09586105712924 l -7.1171531387445 0 L 196.78928428628546 133.68984150783132 M 223.47860855657734 154.3962191606285 l 7.1171531387445 0 L 230.59576169532184 160.99402678215205 l -7.1171531387445 0 L 223.47860855657734 154.3962191606285 M 250.16793282686922 151.70008671059574 l 7.1171531387445 0 L 257.28508596561375 154.80845645487187 l -7.1171531387445 0 L 250.16793282686922 151.70008671059574 M 259.06437425029986 154.8089591832795 l 7.1171531387445 0 L 266.1815273890444 158.77096176368383 l -7.1171531387445 0 L 259.06437425029986 154.8089591832795 M 267.9608156737305 158.77096176368383 l 7.1171531387445 0 L 275.07796881247504 162.59622221721725 l -7.1171531387445 0 L 267.9608156737305 158.77096176368383 M 285.7536985205918 160.14692941532277 l 7.1171531387445 0 L 292.8708516593363 163.37746216264907 l -7.1171531387445 0 L 285.7536985205918 160.14692941532277 M 303.54658136745303 143.72078142494942 l 7.1171531387445 0 L 310.66373450619756 146.7773701432414 l -7.1171531387445 0 L 303.54658136745303 143.72078142494942 M 312.4430227908837 146.80552293406774 l 7.1171531387445 0 L 319.5601759296282 163.28697104927863 l -7.1171531387445 0 L 312.4430227908837 146.80552293406774 M 321.3394642143143 163.19446902227767 l 7.1171531387445 0 L 328.45661735305885 165.64979456506347 l -7.1171531387445 0 L 321.3394642143143 163.19446902227767 M 330.23590563774496 165.64979456506347 l 7.1171531387445 0 L 337.3530587764895 170.0376081067168 l -7.1171531387445 0 L 330.23590563774496 165.64979456506347 M 339.13234706117555 170.0376081067168 l 7.1171531387445 0 L 346.2495001999201 177.58909151748364 l -7.1171531387445 0 L 339.13234706117555 170.0376081067168 M 365.8216713314674 168.49322643852713 l 7.1171531387445 0 L 372.93882447021196 171.22706351913104 l -7.1171531387445 0 L 365.8216713314674 168.49322643852713 M 383.61455417832866 166.52956927838764 l 7.1171531387445 0 L 390.7317073170732 173.84175396713033 l -7.1171531387445 0 L 383.61455417832866 166.52956927838764 M 392.5109956017593 173.84175396713033 l 7.1171531387445 0 L 399.62814874050383 175.2634699038622 l -7.1171531387445 0 L 392.5109956017593 173.84175396713033 M 410.3038784486206 171.40553210383388 l 7.1171531387445 0 L 417.4210315873651 174.70292772937282 l -7.1171531387445 0 L 410.3038784486206 171.40553210383388 M 428.0967612954818 160.97542583107037 l 7.1171531387445 0 L 435.21391443422635 165.2526391230486 l -7.1171531387445 0 L 428.0967612954818 160.97542583107037 M 445.8896441423431 156.2703906642128 l 7.1171531387445 0 L 453.00679728108764 166.5074492284526 l -7.1171531387445 0 L 445.8896441423431 156.2703906642128 M 463.68252698920435 163.69669470148386 l 7.1171531387445 0 L 470.7996801279489 166.42701268323438 l -7.1171531387445 0 L 463.68252698920435 163.69669470148386 M 481.47540983606564 162.94411027528602 l 7.1171531387445 0 L 488.59256297481016 165.9951689810941 l -7.1171531387445 0 L 481.47540983606564 162.94411027528602 M 499.2682926829268 165.33005929782107 l 7.1171531387445 0 L 506.38544582167134 168.25845227217147 l -7.1171531387445 0 L 499.2682926829268 165.33005929782107 M 508.16473410635746 168.25845227217147 l 7.1171531387445 0 L 515.281887245102 171.4698813400085 l -7.1171531387445 0 L 508.16473410635746 168.25845227217147 M 543.75049980008 167.68584461589938 l 7.1171531387445 0 L 550.8676529388244 170.10949826900548 l -7.1171531387445 0 L 543.75049980008 167.68584461589938 M 579.3362654938024 147.8642689605024 l 7.1171531387445 0 L 586.4534186325469 151.15563184515 l -7.1171531387445 0 L 579.3362654938024 147.8642689605024 M 614.9220311875249 76.14050977464902 l 7.1171531387445 0 L 622.0391843262694 82.35875744842404 l -7.1171531387445 0 L 614.9220311875249 76.14050977464902 M 632.7149140343862 72.59325813052597 l 7.1171531387445 0 L 639.8320671731307 72.6390064156188 l -7.1171531387445 0 L 632.7149140343862 72.59325813052597 M 659.4042383046781 37.36959225106497 l 7.1171531387445 0 L 666.5213914434225 74.05971689553543 l -7.1171531387445 0 L 659.4042383046781 37.36959225106497 M 677.1971211515394 66.60274642539991 l 7.1171531387445 0 L 684.3142742902838 67.99580684289782 l -7.1171531387445 0 L 677.1971211515394 66.60274642539991 M 703.8864454218311 39.31515118853045 l 7.1171531387445 0 L 711.0035985605756 47.773053918225 l -7.1171531387445 0 L 703.8864454218311 39.31515118853045 M 721.6793282686924 39.38804680763437 l 7.1171531387445 0 L 728.7964814074369 43.37669399364228 l -7.1171531387445 0 L 721.6793282686924 39.38804680763437 M 739.4722111155537 32.75806456802363 l 7.1171531387445 0 L 746.5893642542982 57.935708678137985 l -7.1171531387445 0 L 739.4722111155537 32.75806456802363 M 766.1615353858456 38.4454310433585 l 7.1171531387445 0 L 773.27868852459 39.41217777119982 l -7.1171531387445 0 L 766.1615353858456 38.4454310433585 M 801.747301079568 13.239634142417742 l 7.1171531387445 0 L 808.8644542183125 30.138346835948056 l -7.1171531387445 0 L 801.747301079568 13.239634142417742 M 810.6437425029987 30.13382228027953 l 7.1171531387445 0 L 817.7608956417432 39.71130117373008 l -7.1171531387445 0 L 810.6437425029987 30.13382228027953 M 828.43662534986 34.73680358039147 l 7.1171531387445 0 L 835.5537784886045 50.93471287370818 l -7.1171531387445 0 L 828.43662534986 34.73680358039147 M 846.2295081967213 44.29015151027659 l 7.1171531387445 0 L 853.3466613354658 45.06334780118664 l -7.1171531387445 0 L 846.2295081967213 44.29015151027659 M 864.0223910435824 40.0330473546029 l 7.1171531387445 0 L 871.1395441823269 61.63880612862124 l -7.1171531387445 0 L 864.0223910435824 40.0330473546029 M 881.8152738904437 54.449789899743905 l 7.1171531387445 0 L 888.9324270291881 63.70501988391399 l -7.1171531387445 0 L 881.8152738904437 54.449789899743905"></path><path class="candle body equal"></path><path class="candle wick up" d="M 22.41903238704518 164.56842576028617 L 22.41903238704518 169.64598267718557 M 22.41903238704518 174.7984461268194 L 22.41903238704518 181.53450406043675 M 31.315473810475808 162.71587157822933 L 31.315473810475808 169.18598618421896 M 31.315473810475808 169.64598267718557 L 31.315473810475808 174.6732667533236 M 49.10835665733706 179.21491518770668 L 49.10835665733706 183.20205418849173 M 49.10835665733706 192.36226850362283 L 49.10835665733706 196.15384615384613 M 66.90123950419832 166.88097643530966 L 66.90123950419832 167.93318699244537 M 66.90123950419832 186.18574728767965 L 66.90123950419832 187.65723333676527 M 75.79768092762893 146.7482118955998 L 75.79768092762893 149.24073934054903 M 75.79768092762893 167.93318699244537 L 75.79768092762893 172.66235312286838 M 93.5905637744902 140.9904634431989 L 93.5905637744902 143.11599915059008 M 93.5905637744902 156.7459717378154 L 93.5905637744902 161.5404925612283 M 111.38344662135144 108.81584535591561 L 111.38344662135144 117.82624660557775 M 111.38344662135144 155.6565592785163 L 111.38344662135144 156.99381684276904 M 129.1763294682127 143.5041054812679 L 129.1763294682127 144.6985881777583 M 129.1763294682127 152.15002863541002 L 129.1763294682127 159.83222143215662 M 138.07277089164333 133.87032100616466 L 138.07277089164333 138.5240778754456 M 138.07277089164333 144.69456635049738 L 138.07277089164333 155.56958726399915 M 155.8656537385046 141.2418276470058 L 155.8656537385046 144.69557180731266 M 155.8656537385046 146.9643851108737 L 155.8656537385046 151.4949735202893 M 164.7620951619352 137.87354731599333 L 164.7620951619352 140.63905628627685 M 164.7620951619352 144.66792174489382 L 164.7620951619352 159.4677433366366 M 173.65853658536582 137.9740929975161 L 173.65853658536582 138.8785014028133 M 173.65853658536582 140.63905628627685 L 173.65853658536582 146.36965740466658 M 191.4514194322271 128.28551112598294 L 191.4514194322271 133.70090153279878 M 191.4514194322271 139.3596124888997 L 191.4514194322271 142.7912365992715 M 209.24430227908834 150.18436056164006 L 209.24430227908834 154.8089591832795 M 209.24430227908834 164.17227577508655 L 209.24430227908834 166.5034274011917 M 218.14074370251896 153.32088309674262 L 218.14074370251896 154.3962191606285 M 218.14074370251896 154.81750556620892 L 218.14074370251896 160.54659849937576 M 235.93362654938022 153.30730942973702 L 235.93362654938022 156.775129985457 M 235.93362654938022 160.99402678215205 L 235.93362654938022 182.69429849680176 M 244.83006797281087 148.5816623981673 L 244.83006797281087 151.7694632308464 M 244.83006797281087 156.77362180023422 L 244.83006797281087 159.43607144695687 M 280.4158336665334 158.33459350587503 L 280.4158336665334 160.14692941532277 M 280.4158336665334 162.59622221721725 L 280.4158336665334 169.59822347846224 M 298.2087165133947 138.9795498127437 L 298.2087165133947 143.72078142494942 M 298.2087165133947 163.37746216264907 L 298.2087165133947 164.26226416004937 M 351.5873650539784 168.5902530211966 L 351.5873650539784 172.3431205840336 M 351.5873650539784 177.58909151748364 L 351.5873650539784 180.8035369557663 M 360.483806477409 166.22742950541172 L 360.483806477409 168.51182738960887 M 360.483806477409 172.3526724237783 L 360.483806477409 176.95213462503696 M 378.2766893242703 163.5126961042972 L 378.2766893242703 166.52906654998 M 378.2766893242703 171.25069175428882 L 378.2766893242703 174.16551106163365 M 404.9660135945622 168.64052586195797 L 404.9660135945622 171.3824065970837 M 404.9660135945622 175.28709813902 L 404.9660135945622 176.1794410625345 M 422.7588964414235 159.34005032110264 L 422.7588964414235 160.88845381655312 M 422.7588964414235 174.70292772937282 L 422.7588964414235 175.38110835124382 M 440.5517792882847 154.56413044877155 L 440.5517792882847 156.2703906642128 M 440.5517792882847 165.25213639464098 L 440.5517792882847 166.57933939074138 M 458.34466213514594 162.23174412169726 L 458.34466213514594 163.69669470148386 M 458.34466213514594 166.5079519568602 L 458.34466213514594 171.90826051144768 M 476.13754498200717 160.84823554394404 L 476.13754498200717 162.97226306611236 M 476.13754498200717 166.427515411642 L 476.13754498200717 170.27439318670284 M 493.93042782886846 164.13909570018396 L 493.93042782886846 165.33005929782107 M 493.93042782886846 165.99567170950172 L 493.93042782886846 172.51153460058424 M 520.6197520991603 168.79989076717155 L 520.6197520991603 170.43426082032403 M 520.6197520991603 171.4698813400085 L 520.6197520991603 173.67736177784067 M 529.5161935225909 167.16753162764957 L 529.5161935225909 169.63190628177236 M 529.5161935225909 170.43476354873167 L 529.5161935225909 172.10432459041704 M 538.4126349460215 166.5154928829744 L 538.4126349460215 167.68584461589938 M 538.4126349460215 169.6309008249572 L 538.4126349460215 173.09721319545432 M 556.2055177928828 156.1864350201413 L 556.2055177928828 158.58595770968196 M 556.2055177928828 170.10949826900548 L 556.2055177928828 170.51067553828136 M 565.1019592163135 150.84394023242942 L 565.1019592163135 152.14299043770347 M 565.1019592163135 158.58595770968196 L 565.1019592163135 165.07115416789998 M 573.998400639744 144.8111993410638 L 573.998400639744 147.8642689605024 M 573.998400639744 152.14299043770347 L 573.998400639744 156.0557256341617 M 591.7912834866053 141.3474006126047 L 591.7912834866053 142.98026248053432 M 591.7912834866053 151.14054999292154 L 591.7912834866053 152.40239829603217 M 600.687724910036 122.33923952072686 L 600.687724910036 131.36120352376412 M 600.687724910036 142.98026248053432 L 600.687724910036 145.51501911172312 M 609.5841663334666 57.795950180821336 L 609.5841663334666 76.14050977464902 M 609.5841663334666 131.36120352376412 L 609.5841663334666 132.08161333187476 M 627.3770491803277 60.412148814043604 L 627.3770491803277 72.59275540211834 M 627.3770491803277 82.35875744842404 L 627.3770491803277 87.09797814699938 M 645.169932027189 55.32554278580713 L 645.169932027189 60.78215692204739 M 645.169932027189 72.62995730428175 L 645.169932027189 79.65759771431513 M 654.0663734506197 34.3617681883116 L 654.0663734506197 37.36959225106497 M 654.0663734506197 60.78215692204739 L 654.0663734506197 66.58665911635629 M 671.8592562974809 53.867630403727105 L 671.8592562974809 66.59621095610098 M 671.8592562974809 74.05921416712779 L 671.8592562974809 80.86414589258824 M 689.6521391443422 38.38711454807532 L 689.6521391443422 40.19794227230025 M 689.6521391443422 67.99480138608257 L 689.6521391443422 72.97130989305157 M 698.5485805677728 32.401127398617774 L 698.5485805677728 39.31565391693806 M 698.5485805677728 40.19794227230025 L 698.5485805677728 49.368211155583595 M 716.3414634146341 37.012655081659176 L 716.3414634146341 39.368440399737466 M 716.3414634146341 47.76651844892598 L 716.3414634146341 51.90698961403328 M 734.1343462614954 23.9879674972008 L 734.1343462614954 32.75705911120838 M 734.1343462614954 43.37619126523467 L 734.1343462614954 55.02390574123885 M 751.9272291083566 46.602199456892436 L 751.9272291083566 49.27621185699027 M 751.9272291083566 57.935205949730374 L 751.9272291083566 70.1057579696529 M 760.8236705317872 37.78233227371598 L 760.8236705317872 38.43386828998342 M 760.8236705317872 49.27570912858263 L 760.8236705317872 64.05491885561315 M 778.6165533786485 28.37930013770739 L 778.6165533786485 34.79411461885951 M 778.6165533786485 39.4116750427923 L 778.6165533786485 43.46115236612144 M 787.512994802079 30.80647288966685 L 787.512994802079 31.848126150242592 M 787.512994802079 34.79411461885951 L 787.512994802079 43.15951532155313 M 796.4094362255097 3.846153846153868 L 796.4094362255097 13.24063959923302 M 796.4094362255097 31.84862887865023 L 796.4094362255097 38.94765672256469 M 823.0987604958016 33.004401487754336 L 823.0987604958016 34.73630085198394 M 823.0987604958016 39.72185847028999 L 823.0987604958016 44.064426455258 M 840.8916433426629 43.15951532155313 L 840.8916433426629 44.31780157269537 M 840.8916433426629 50.94024288619195 L 840.8916433426629 58.70337495656429 M 858.6845261895241 36.17661773979745 L 858.6845261895241 40.03254462619526 M 858.6845261895241 45.06385052959419 L 858.6845261895241 48.232547682784 M 876.4774090363853 50.53353560443239 L 876.4774090363853 54.449287171336266 M 876.4774090363853 61.63880612862124 L 876.4774090363853 65.38011093808316" style="stroke-width: 1px;"></path><path class="candle wick down" d="M 4.626149540183927 135.86263368553813 L 4.626149540183927 139.22437854725166 M 4.626149540183927 152.48132665602753 L 4.626149540183927 161.8034195184103 M 13.522590963614554 149.11103541138465 L 13.522590963614554 152.48132665602753 M 13.522590963614554 174.74113508835148 L 13.522590963614554 187.49284114747553 M 40.21191523390643 163.2110590597289 L 40.21191523390643 169.19302438192554 M 40.21191523390643 192.25166825394777 L 40.21191523390643 193.27421783503425 M 58.004798080767685 177.30404451036662 L 58.004798080767685 183.20205418849173 M 58.004798080767685 186.1766981763426 L 58.004798080767685 193.27421783503425 M 84.69412235105956 147.76422600738724 L 84.69412235105956 149.2417447973642 M 84.69412235105956 156.7223435026576 L 84.69412235105956 161.60232815536475 M 102.48700519792082 143.0013770736541 L 102.48700519792082 143.11599915059008 M 102.48700519792082 155.6565592785163 L 102.48700519792082 159.0178014118222 M 120.27988804478207 116.40754703929164 L 120.27988804478207 117.72871729450074 M 120.27988804478207 152.1490231785948 L 120.27988804478207 164.81978996409308 M 146.96921231507397 135.2216549658305 L 146.96921231507397 138.57032888894608 M 146.96921231507397 146.96488783928132 L 146.96921231507397 148.98384512425832 M 182.55497800879647 134.10308425888982 L 182.55497800879647 138.87900413122094 M 182.55497800879647 139.36011521730734 L 182.55497800879647 149.53684637263353 M 200.34786085565773 129.72934711264975 L 200.34786085565773 133.68984150783132 M 200.34786085565773 164.09586105712924 L 200.34786085565773 172.51153460058424 M 227.0371851259496 154.01163192880398 L 227.0371851259496 154.3962191606285 M 227.0371851259496 160.99402678215205 L 227.0371851259496 165.87551962008206 M 253.72650939624148 149.78821057644043 L 253.72650939624148 151.70008671059574 M 253.72650939624148 154.80845645487187 L 253.72650939624148 166.29730875407 M 262.6229508196721 153.6089464743053 L 262.6229508196721 154.8089591832795 M 262.6229508196721 158.77096176368383 L 262.6229508196721 164.11597019343375 M 271.51939224310274 156.15777950090734 L 271.51939224310274 158.77096176368383 M 271.51939224310274 162.59622221721725 L 271.51939224310274 167.34398929872194 M 289.31227508996403 156.9772268053178 L 289.31227508996403 160.14692941532277 M 289.31227508996403 163.37746216264907 L 289.31227508996403 164.0385500186612 M 307.10515793682526 141.9959202584265 L 307.10515793682526 143.72078142494942 M 307.10515793682526 146.7773701432414 L 307.10515793682526 149.18342830208098 M 316.0015993602559 144.50956229649552 L 316.0015993602559 146.80552293406774 M 316.0015993602559 163.28697104927863 L 316.0015993602559 167.73561472825313 M 324.89804078368655 161.09959974775097 L 324.89804078368655 163.19446902227767 M 324.89804078368655 165.64979456506347 L 324.89804078368655 177.70522177964241 M 333.7944822071172 163.2110590597289 L 333.7944822071172 165.64979456506347 M 333.7944822071172 170.0376081067168 L 333.7944822071172 175.90746499401544 M 342.6909236305478 168.32682333560697 L 342.6909236305478 170.0376081067168 M 342.6909236305478 177.58909151748364 L 342.6909236305478 186.5879300137707 M 369.38024790083966 167.88643325053727 L 369.38024790083966 168.49322643852713 M 369.38024790083966 171.22706351913104 L 369.38024790083966 174.93016096961426 M 387.1731307477009 165.0228922407691 L 387.1731307477009 166.52956927838764 M 387.1731307477009 173.84175396713033 L 387.1731307477009 181.208736052303 M 396.06957217113154 171.90826051144768 L 396.06957217113154 173.84175396713033 M 396.06957217113154 175.2634699038622 L 396.06957217113154 176.30864226329132 M 413.86245501799283 170.89073821443736 L 413.86245501799283 171.40553210383388 M 413.86245501799283 174.70292772937282 L 413.86245501799283 183.57005138286502 M 431.65533786485406 159.11784436493735 L 431.65533786485406 160.97542583107037 M 431.65533786485406 165.2526391230486 L 431.65533786485406 167.98697893206003 M 449.44822071171535 156.0326001274114 L 449.44822071171535 156.2703906642128 M 449.44822071171535 166.5074492284526 L 449.44822071171535 170.14871108479937 M 467.2411035585766 163.14670982355432 L 467.2411035585766 163.69669470148386 M 467.2411035585766 166.42701268323438 L 467.2411035585766 169.2312317409042 M 485.0339864054379 160.9075574960425 L 485.0339864054379 162.94411027528602 M 485.0339864054379 165.9951689810941 L 485.0339864054379 168.0930546260666 M 502.82686925229905 164.2924278645062 L 502.82686925229905 165.33005929782107 M 502.82686925229905 168.25845227217147 L 502.82686925229905 170.1200555655654 M 511.7233106757297 166.82316266843412 L 511.7233106757297 168.25845227217147 M 511.7233106757297 171.4698813400085 L 511.7233106757297 175.81697388064498 M 547.3090763694522 167.05592592115926 L 547.3090763694522 167.68584461589938 M 547.3090763694522 170.10949826900548 L 547.3090763694522 171.6066234668794 M 582.8948420631747 146.16856604162103 L 582.8948420631747 147.8642689605024 M 582.8948420631747 151.15563184515 L 582.8948420631747 154.89392028416617 M 618.4806077568971 65.46909386623082 L 618.4806077568971 76.14050977464902 M 618.4806077568971 82.35875744842404 L 618.4806077568971 99.51536981506028 M 636.2734906037584 69.1003011544253 L 636.2734906037584 72.59325813052597 M 636.2734906037584 72.6390064156188 L 636.2734906037584 86.14279417253317 M 662.9628148740503 21.16715840207982 L 662.9628148740503 37.36959225106497 M 662.9628148740503 74.05971689553543 L 662.9628148740503 101.85305691046446 M 680.7556977209116 56.784460624702405 L 680.7556977209116 66.60274642539991 M 680.7556977209116 67.99580684289782 L 680.7556977209116 77.64668408385991 M 707.4450219912034 31.901415361449637 L 707.4450219912034 39.31515118853045 M 707.4450219912034 47.773053918225 L 707.4450219912034 61.45882935869551 M 725.2379048380647 37.57369998455616 L 725.2379048380647 39.38804680763437 M 725.2379048380647 43.37669399364228 L 725.2379048380647 51.405769391642366 M 743.0307876849259 30.641577971969497 L 743.0307876849259 32.75806456802363 M 743.0307876849259 57.935708678137985 L 743.0307876849259 71.3625789886874 M 769.7201119552178 34.91476943668678 L 769.7201119552178 38.4454310433585 M 769.7201119552178 39.41217777119982 L 769.7201119552178 45.77219485592204 M 805.3058776489403 7.879543860439355 L 805.3058776489403 13.239634142417742 M 805.3058776489403 30.138346835948056 L 805.3058776489403 36.52701943990425 M 814.202319072371 26.36436467999127 L 814.202319072371 30.13382228027953 M 814.202319072371 39.71130117373008 L 814.202319072371 49.44362041672565 M 831.9952019192323 33.50712989536814 L 831.9952019192323 34.73680358039147 M 831.9952019192323 50.93471287370818 L 831.9952019192323 53.22363531357385 M 849.7880847660936 41.54726531833569 L 849.7880847660936 44.29015151027659 M 849.7880847660936 45.06334780118664 L 849.7880847660936 51.79990846321158 M 867.5809676129546 39.04468330523417 L 867.5809676129546 40.0330473546029 M 867.5809676129546 61.63880612862124 L 867.5809676129546 71.73258709669119 M 885.3738504598159 47.87510778497054 L 885.3738504598159 54.449789899743905 M 885.3738504598159 63.70501988391399 L 885.3738504598159 71.3625789886874" style="stroke-width: 1px;"></path><path class="candle wick equal" style="stroke-width: 1px;"></path></g></g><g class="x axis" transform="translate(0,200)" fill="none" font-size="10" font-family="sans-serif" text-anchor="middle"><path class="domain" stroke="#000" d="M0.5,6V0.5H890.5V6"></path><g class="tick" opacity="1" transform="translate(49.10835665733706,0)"><line stroke="#000" y2="6" x1="0.5" x2="0.5"></line><text fill="#000" y="9" x="0.5" dy="0.71em">May 25</text></g><g class="tick" opacity="1" transform="translate(111.38344662135144,0)"><line stroke="#000" y2="6" x1="0.5" x2="0.5"></line><text fill="#000" y="9" x="0.5" dy="0.71em">Jun  1</text></g><g class="tick" opacity="1" transform="translate(173.65853658536582,0)"><line stroke="#000" y2="6" x1="0.5" x2="0.5"></line><text fill="#000" y="9" x="0.5" dy="0.71em">Jun  8</text></g><g class="tick" opacity="1" transform="translate(235.93362654938022,0)"><line stroke="#000" y2="6" x1="0.5" x2="0.5"></line><text fill="#000" y="9" x="0.5" dy="0.71em">Jun 15</text></g><g class="tick" opacity="1" transform="translate(298.2087165133947,0)"><line stroke="#000" y2="6" x1="0.5" x2="0.5"></line><text fill="#000" y="9" x="0.5" dy="0.71em">Jun 22</text></g><g class="tick" opacity="1" transform="translate(360.483806477409,0)"><line stroke="#000" y2="6" x1="0.5" x2="0.5"></line><text fill="#000" y="9" x="0.5" dy="0.71em">Jun 29</text></g><g class="tick" opacity="1" transform="translate(422.7588964414235,0)"><line stroke="#000" y2="6" x1="0.5" x2="0.5"></line><text fill="#000" y="9" x="0.5" dy="0.71em">Jul  6</text></g><g class="tick" opacity="1" transform="translate(485.0339864054379,0)"><line stroke="#000" y2="6" x1="0.5" x2="0.5"></line><text fill="#000" y="9" x="0.5" dy="0.71em">Jul 13</text></g><g class="tick" opacity="1" transform="translate(547.3090763694522,0)"><line stroke="#000" y2="6" x1="0.5" x2="0.5"></line><text fill="#000" y="9" x="0.5" dy="0.71em">Jul 20</text></g><g class="tick" opacity="1" transform="translate(609.5841663334666,0)"><line stroke="#000" y2="6" x1="0.5" x2="0.5"></line><text fill="#000" y="9" x="0.5" dy="0.71em">Jul 27</text></g><g class="tick" opacity="1" transform="translate(671.8592562974809,0)"><line stroke="#000" y2="6" x1="0.5" x2="0.5"></line><text fill="#000" y="9" x="0.5" dy="0.71em">Aug  3</text></g><g class="tick" opacity="1" transform="translate(734.1343462614954,0)"><line stroke="#000" y2="6" x1="0.5" x2="0.5"></line><text fill="#000" y="9" x="0.5" dy="0.71em">Aug 10</text></g><g class="tick" opacity="1" transform="translate(796.4094362255097,0)"><line stroke="#000" y2="6" x1="0.5" x2="0.5"></line><text fill="#000" y="9" x="0.5" dy="0.71em">Aug 17</text></g><g class="tick" opacity="1" transform="translate(858.6845261895241,0)"><line stroke="#000" y2="6" x1="0.5" x2="0.5"></line><text fill="#000" y="9" x="0.5" dy="0.71em">Aug 24</text></g></g><g class="y axis" fill="none" font-size="10" font-family="sans-serif" text-anchor="end"><path class="domain" stroke="#000" d="M-6,200.5H0.5V0.5H-6"></path><g class="tick" opacity="1" transform="translate(0,178.1923656066202)"><line stroke="#000" x2="-6" y1="0.5" y2="0.5"></line><text fill="#000" x="-9" y="0.5" dy="0.32em">9,000</text></g><g class="tick" opacity="1" transform="translate(0,153.05594522593015)"><line stroke="#000" x2="-6" y1="0.5" y2="0.5"></line><text fill="#000" x="-9" y="0.5" dy="0.32em">9,500</text></g><g class="tick" opacity="1" transform="translate(0,127.91952484524006)"><line stroke="#000" x2="-6" y1="0.5" y2="0.5"></line><text fill="#000" x="-9" y="0.5" dy="0.32em">10,000</text></g><g class="tick" opacity="1" transform="translate(0,102.78310446455)"><line stroke="#000" x2="-6" y1="0.5" y2="0.5"></line><text fill="#000" x="-9" y="0.5" dy="0.32em">10,500</text></g><g class="tick" opacity="1" transform="translate(0,77.64668408385991)"><line stroke="#000" x2="-6" y1="0.5" y2="0.5"></line><text fill="#000" x="-9" y="0.5" dy="0.32em">11,000</text></g><g class="tick" opacity="1" transform="translate(0,52.51026370316984)"><line stroke="#000" x2="-6" y1="0.5" y2="0.5"></line><text fill="#000" x="-9" y="0.5" dy="0.32em">11,500</text></g><g class="tick" opacity="1" transform="translate(0,27.373843322479757)"><line stroke="#000" x2="-6" y1="0.5" y2="0.5"></line><text fill="#000" x="-9" y="0.5" dy="0.32em">12,000</text></g><g class="tick" opacity="1" transform="translate(0,2.2374229417897027)"><line stroke="#000" x2="-6" y1="0.5" y2="0.5"></line><text fill="#000" x="-9" y="0.5" dy="0.32em">12,500</text></g><text transform="rotate(-90)" y="6" dy=".71em" style="text-anchor: end;">Price ($)</text></g></g></svg>