<?xml version="1.0" encoding="utf-8"?>
<!DOCTYPE svg PUBLIC "-//W3C//DTD SVG 1.1//EN" "http://www.w3.org/Graphics/SVG/1.1/DTD/svg11.dtd">
<svg version="1.1" xmlns="http://www.w3.org/2000/svg" width="960" height="250"><g transform="translate(50,20)"><style>.axis path,.axis line{fill:none;stroke:#000;shape-rendering:crispEdges;}path.candle{stroke:#000000;}path.candle.body{stroke-width:0;}path.candle.up{fill:#00AA00;stroke:#00AA00;}path.candle.down{fill:#FF0000;stroke:#FF0000;}</style><g class="candlestick"><g class="data"><path class="candle body up" d="M 18.860455817672932 168.38369454675976 l 7.1171531387445 0 L 25.977608956417434 150.6387110833839 l -7.1171531387445 0 L 18.860455817672932 168.38369454675976 M 27.75689724110356 150.6387110833839 l 7.1171531387445 0 L 34.87405037984806 141.1679685163187 l -7.1171531387445 0 L 27.75689724110356 150.6387110833839 M 63.342662934826066 158.89842367942023 l 7.1171531387445 0 L 70.45981607357056 154.59185090545498 l -7.1171531387445 0 L 63.342662934826066 158.89842367942023 M 98.92842862854857 185.4606432618598 l 7.1171531387445 0 L 106.04558176729307 174.28036842060285 l -7.1171531387445 0 L 98.92842862854857 185.4606432618598 M 116.72131147540982 178.91217215181217 l 7.1171531387445 0 L 123.83846461415432 177.94059207096646 l -7.1171531387445 0 L 116.72131147540982 178.91217215181217 M 134.51419432227107 177.97109081896883 l 7.1171531387445 0 L 141.63134746101557 176.8302987702221 l -7.1171531387445 0 L 134.51419432227107 177.97109081896883 M 152.30707716913233 188.07680556861203 l 7.1171531387445 0 L 159.42423030787683 172.03868373599514 l -7.1171531387445 0 L 152.30707716913233 188.07680556861203 M 161.20351859256294 172.02095066360147 l 7.1171531387445 0 L 168.32067173130744 167.29914624870742 l -7.1171531387445 0 L 161.20351859256294 172.02095066360147 M 170.09996001599356 167.33076666695155 l 7.1171531387445 0 L 177.21711315473806 167.2421013049832 l -7.1171531387445 0 L 170.09996001599356 167.33076666695155 M 187.89284286285485 173.49092622187277 l 7.1171531387445 0 L 195.00999600159935 171.1760124943382 l -7.1171531387445 0 L 187.89284286285485 173.49092622187277 M 196.78928428628546 171.22557963645068 l 7.1171531387445 0 L 203.90643742502996 160.81461034244057 l -7.1171531387445 0 L 196.78928428628546 171.22557963645068 M 205.68572570971608 160.78005221642042 l 7.1171531387445 0 L 212.80287884846058 149.31679599702596 l -7.1171531387445 0 L 205.68572570971608 160.78005221642042 M 223.47860855657734 152.96072872244963 l 7.1171531387445 0 L 230.59576169532184 145.73081623409365 l -7.1171531387445 0 L 223.47860855657734 152.96072872244963 M 232.37504998000796 145.73573021800996 l 7.1171531387445 0 L 239.49220311875246 140.94128430174425 l -7.1171531387445 0 L 232.37504998000796 145.73573021800996 M 250.16793282686922 143.03106278789534 l 7.1171531387445 0 L 257.28508596561375 102.54848820216556 l -7.1171531387445 0 L 250.16793282686922 143.03106278789534 M 259.06437425029986 102.54854161503422 l 7.1171531387445 0 L 266.1815273890444 102.30519258543923 l -7.1171531387445 0 L 259.06437425029986 102.54854161503422 M 276.85725709716115 110.91983369369214 l 7.1171531387445 0 L 283.9744102359057 94.03105851486586 l -7.1171531387445 0 L 276.85725709716115 110.91983369369214 M 303.54658136745303 98.37208258911403 l 7.1171531387445 0 L 310.66373450619756 90.78206054028183 l -7.1171531387445 0 L 303.54658136745303 98.37208258911403 M 321.3394642143143 94.34304308068336 l 7.1171531387445 0 L 328.45661735305885 87.81412108056372 l -7.1171531387445 0 L 321.3394642143143 94.34304308068336 M 330.23590563774496 87.81412108056372 l 7.1171531387445 0 L 337.3530587764895 71.86364976541068 l -7.1171531387445 0 L 330.23590563774496 87.81412108056372 M 348.02878848460614 74.89269354687087 l 7.1171531387445 0 L 355.14594162335067 51.63998871920214 l -7.1171531387445 0 L 348.02878848460614 74.89269354687087 M 365.8216713314674 51.98615752095921 l 7.1171531387445 0 L 372.93882447021196 43.61433131361474 l -7.1171531387445 0 L 365.8216713314674 51.98615752095921 M 392.5109956017593 89.1091160811192 l 7.1171531387445 0 L 399.62814874050383 84.91513763427996 l -7.1171531387445 0 L 392.5109956017593 89.1091160811192 M 436.99320271891247 109.17574329348021 l 7.1171531387445 0 L 444.110355857657 85.39142018408212 l -7.1171531387445 0 L 436.99320271891247 109.17574329348021 M 454.7860855657737 91.53614341996187 l 7.1171531387445 0 L 461.90323870451823 81.31954355498961 l -7.1171531387445 0 L 454.7860855657737 91.53614341996187 M 472.57896841263494 91.87008067479682 l 7.1171531387445 0 L 479.69612155137946 89.85310392862331 l -7.1171531387445 0 L 472.57896841263494 91.87008067479682 M 481.47540983606564 89.87927623426457 l 7.1171531387445 0 L 488.59256297481016 89.15611940553616 l -7.1171531387445 0 L 481.47540983606564 89.87927623426457 M 490.3718512594962 89.15611940553616 l 7.1171531387445 0 L 497.48900439824075 77.99523343560118 l -7.1171531387445 0 L 490.3718512594962 89.15611940553616 M 499.2682926829268 78.06274730158187 l 7.1171531387445 0 L 506.38544582167134 70.49916462273424 l -7.1171531387445 0 L 499.2682926829268 78.06274730158187 M 508.16473410635746 70.49911120986556 l 7.1171531387445 0 L 515.281887245102 57.09611325237367 l -7.1171531387445 0 L 508.16473410635746 70.49911120986556 M 517.0611755297881 57.14861810226216 l 7.1171531387445 0 L 524.1783286685326 51.930608137557385 l -7.1171531387445 0 L 517.0611755297881 57.14861810226216 M 525.9576169532187 51.930608137557385 l 7.1171531387445 0 L 533.0747700919632 41.66695153529949 l -7.1171531387445 0 L 525.9576169532187 51.930608137557385 M 543.75049980008 44.61235076444498 l 7.1171531387445 0 L 550.8676529388244 23.42522839342638 l -7.1171531387445 0 L 543.75049980008 44.61235076444498 M 570.4398240703717 53.24664780836318 l 7.1171531387445 0 L 577.5569772091162 46.3267436096844 l -7.1171531387445 0 L 570.4398240703717 53.24664780836318 M 579.3362654938024 46.32679702255308 l 7.1171531387445 0 L 586.4534186325469 35.57889935306332 l -7.1171531387445 0 L 579.3362654938024 46.32679702255308 M 597.1291483406637 42.372856007452185 l 7.1171531387445 0 L 604.2463014794082 40.2950420038799 l -7.1171531387445 0 L 597.1291483406637 42.372856007452185 M 606.0255897640943 40.2950420038799 l 7.1171531387445 0 L 613.1427429028388 39.90902720210576 l -7.1171531387445 0 L 606.0255897640943 40.2950420038799 M 632.7149140343862 61.37581935340518 l 7.1171531387445 0 L 639.8320671731307 59.99969020536179 l -7.1171531387445 0 L 632.7149140343862 61.37581935340518 M 659.4042383046781 76.27517882628428 l 7.1171531387445 0 L 666.5213914434225 56.34251108851157 l -7.1171531387445 0 L 659.4042383046781 76.27517882628428 M 668.3006797281087 56.34251108851157 l 7.1171531387445 0 L 675.4178328668531 52.11461547007599 l -7.1171531387445 0 L 668.3006797281087 56.34251108851157 M 686.09356257497 52.325542888397024 l 7.1171531387445 0 L 693.2107157137144 42.40239332381873 l -7.1171531387445 0 L 686.09356257497 52.325542888397024 M 694.9900039984005 42.40244673668738 l 7.1171531387445 0 L 702.107157137145 36.46768948749286 l -7.1171531387445 0 L 694.9900039984005 42.40244673668738 M 721.6793282686924 36.607203900421325 l 7.1171531387445 0 L 728.7964814074369 35.381058087562906 l -7.1171531387445 0 L 721.6793282686924 36.607203900421325 M 739.4722111155537 45.519141035611455 l 7.1171531387445 0 L 746.5893642542982 39.37634066300325 l -7.1171531387445 0 L 739.4722111155537 45.519141035611455 M 748.3686525389844 39.37634066300325 l 7.1171531387445 0 L 755.4858056777289 34.41973327749909 l -7.1171531387445 0 L 748.3686525389844 39.37634066300325 M 775.0579768092763 51.3865980702999 l 7.1171531387445 0 L 782.1751299480208 40.04127746489709 l -7.1171531387445 0 L 775.0579768092763 51.3865980702999 M 783.9544182327068 40.04127746489709 l 7.1171531387445 0 L 791.0715713714512 39.69398699289823 l -7.1171531387445 0 L 783.9544182327068 40.04127746489709 M 792.8508596561375 39.69393358002955 l 7.1171531387445 0 L 799.9680127948819 31.005903190243828 l -7.1171531387445 0 L 792.8508596561375 39.69393358002955 M 801.747301079568 31.005903190243828 l 7.1171531387445 0 L 808.8644542183125 29.759780964508224 l -7.1171531387445 0 L 801.747301079568 31.005903190243828 M 819.5401839264293 30.520487039901553 l 7.1171531387445 0 L 826.6573370651738 10.67765974720757 l -7.1171531387445 0 L 819.5401839264293 30.520487039901553 M 837.3330667732906 13.96506157435499 l 7.1171531387445 0 L 844.4502199120351 12.894400622153086 l -7.1171531387445 0 L 837.3330667732906 13.96506157435499 M 881.8152738904437 53.09741225333937 l 7.1171531387445 0 L 888.9324270291881 48.24175518959433 l -7.1171531387445 0 L 881.8152738904437 53.09741225333937"></path><path class="candle body down" d="M 1.0675729708116766 146.47977147838276 l 7.1171531387445 0 L 8.184726109556177 161.14454163212633 l -7.1171531387445 0 L 1.0675729708116766 146.47977147838276 M 9.964014394242305 161.1130280396195 l 7.1171531387445 0 L 17.081167532986804 168.37253125721074 l -7.1171531387445 0 L 9.964014394242305 161.1130280396195 M 36.65333866453418 141.16417620264417 l 7.1171531387445 0 L 43.77049180327868 153.99923512772085 l -7.1171531387445 0 L 36.65333866453418 141.16417620264417 M 45.54978008796481 154.02481989180689 l 7.1171531387445 0 L 52.66693322670931 157.99045832514335 l -7.1171531387445 0 L 45.54978008796481 154.02481989180689 M 54.446221511395436 157.99045832514335 l 7.1171531387445 0 L 61.563374650139934 158.87908822096688 l -7.1171531387445 0 L 54.446221511395436 157.99045832514335 M 72.23910435825668 154.63890764274055 l 7.1171531387445 0 L 79.35625749700118 158.54322810286038 l -7.1171531387445 0 L 72.23910435825668 154.63890764274055 M 81.13554578168731 158.48741165511524 l 7.1171531387445 0 L 88.25269892043181 160.80398118157808 l -7.1171531387445 0 L 81.13554578168731 158.48741165511524 M 90.03198720511796 160.80398118157808 l 7.1171531387445 0 L 97.14914034386246 185.4705780554297 l -7.1171531387445 0 L 90.03198720511796 160.80398118157808 M 107.82487005197919 174.25457000504218 l 7.1171531387445 0 L 114.94202319072369 178.91217215181217 l -7.1171531387445 0 L 107.82487005197919 174.25457000504218 M 125.61775289884046 177.94299565005596 l 7.1171531387445 0 L 132.73490603758498 177.97103740610015 l -7.1171531387445 0 L 125.61775289884046 177.94299565005596 M 143.4106357457017 176.85038200883662 l 7.1171531387445 0 L 150.5277888844462 188.0556540726244 l -7.1171531387445 0 L 143.4106357457017 176.85038200883662 M 178.9964014394242 167.24204789211456 l 7.1171531387445 0 L 186.1135545781687 173.4908728090041 l -7.1171531387445 0 L 178.9964014394242 167.24204789211456 M 214.5821671331467 149.30937160828282 l 7.1171531387445 0 L 221.6993202718912 152.96067530958095 l -7.1171531387445 0 L 214.5821671331467 149.30937160828282 M 241.2714914034386 140.972958132857 l 7.1171531387445 0 L 248.3886445421831 143.03106278789534 l -7.1171531387445 0 L 241.2714914034386 140.972958132857 M 267.9608156737305 102.30519258543923 l 7.1171531387445 0 L 275.07796881247504 110.91983369369214 l -7.1171531387445 0 L 267.9608156737305 102.30519258543923 M 285.7536985205918 94.03559860870159 l 7.1171531387445 0 L 292.8708516593363 97.67333544136123 l -7.1171531387445 0 L 285.7536985205918 94.03559860870159 M 294.65013994402244 97.61698486492953 l 7.1171531387445 0 L 301.76729308276697 98.3885871655286 l -7.1171531387445 0 L 294.65013994402244 97.61698486492953 M 312.4430227908837 90.76774589148214 l 7.1171531387445 0 L 319.5601759296282 94.34304308068336 l -7.1171531387445 0 L 312.4430227908837 90.76774589148214 M 339.13234706117555 71.87454599061644 l 7.1171531387445 0 L 346.2495001999201 74.89274695973953 l -7.1171531387445 0 L 339.13234706117555 71.87454599061644 M 356.9252299080368 51.63998871920214 l 7.1171531387445 0 L 364.0423830467813 51.98615752095921 l -7.1171531387445 0 L 356.9252299080368 51.63998871920214 M 374.7181127548981 43.59414124926292 l 7.1171531387445 0 L 381.8352658936426 61.3522108654594 l -7.1171531387445 0 L 374.7181127548981 43.59414124926292 M 383.61455417832866 61.3522108654594 l 7.1171531387445 0 L 390.7317073170732 89.1091160811192 l -7.1171531387445 0 L 383.61455417832866 61.3522108654594 M 401.40743702518995 84.91508422141129 l 7.1171531387445 0 L 408.5245901639345 98.81567646329894 l -7.1171531387445 0 L 401.40743702518995 84.91508422141129 M 410.3038784486206 98.81567646329894 l 7.1171531387445 0 L 417.4210315873651 103.07193431499063 l -7.1171531387445 0 L 410.3038784486206 98.81567646329894 M 419.20031987205124 103.071880902122 l 7.1171531387445 0 L 426.31747301079577 103.98230324835703 l -7.1171531387445 0 L 419.20031987205124 103.071880902122 M 428.0967612954818 103.99704520010597 l 7.1171531387445 0 L 435.21391443422635 109.16746429883857 l -7.1171531387445 0 L 428.0967612954818 103.99704520010597 M 445.8896441423431 85.34479074974574 l 7.1171531387445 0 L 453.00679728108764 91.514564621025 l -7.1171531387445 0 L 445.8896441423431 85.34479074974574 M 463.68252698920435 81.31954355498961 l 7.1171531387445 0 L 470.7996801279489 91.87008067479682 l -7.1171531387445 0 L 463.68252698920435 81.31954355498961 M 534.8540583766493 41.66700494816814 l 7.1171531387445 0 L 541.9712115153937 44.61235076444498 l -7.1171531387445 0 L 534.8540583766493 41.66700494816814 M 552.6469412235106 23.425281806295033 l 7.1171531387445 0 L 559.764094362255 35.283312537923166 l -7.1171531387445 0 L 552.6469412235106 23.425281806295033 M 561.5433826469413 35.24181073897773 l 7.1171531387445 0 L 568.6605357856857 53.24664780836318 l -7.1171531387445 0 L 561.5433826469413 35.24181073897773 M 588.232706917233 35.57889935306332 l 7.1171531387445 0 L 595.3498600559775 42.33461239349472 l -7.1171531387445 0 L 588.232706917233 35.57889935306332 M 614.9220311875249 39.92109851042193 l 7.1171531387445 0 L 622.0391843262694 43.918838077820425 l -7.1171531387445 0 L 614.9220311875249 39.92109851042193 M 623.8184726109555 43.918838077820425 l 7.1171531387445 0 L 630.9356257497 61.37581935340518 l -7.1171531387445 0 L 623.8184726109555 43.918838077820425 M 641.6113554578168 59.98948834744857 l 7.1171531387445 0 L 648.7285085965613 70.88117345935922 l -7.1171531387445 0 L 641.6113554578168 59.98948834744857 M 650.5077968812475 70.88112004649054 l 7.1171531387445 0 L 657.624950019992 76.27517882628428 l -7.1171531387445 0 L 650.5077968812475 70.88112004649054 M 677.1971211515394 52.11461547007599 l 7.1171531387445 0 L 684.3142742902838 52.32564971413433 l -7.1171531387445 0 L 677.1971211515394 52.11461547007599 M 703.8864454218311 36.46768948749286 l 7.1171531387445 0 L 711.0035985605756 36.49984403442352 l -7.1171531387445 0 L 703.8864454218311 36.46768948749286 M 712.7828868452618 36.505666037107005 l 7.1171531387445 0 L 719.9000399840063 36.60725731328998 l -7.1171531387445 0 L 712.7828868452618 36.505666037107005 M 730.5757696921231 35.381058087562906 l 7.1171531387445 0 L 737.6929228308676 45.51919444848008 l -7.1171531387445 0 L 730.5757696921231 35.381058087562906 M 757.265093962415 34.41973327749909 l 7.1171531387445 0 L 764.3822471011595 40.50260441147563 l -7.1171531387445 0 L 757.265093962415 34.41973327749909 M 766.1615353858456 40.508586652765075 l 7.1171531387445 0 L 773.27868852459 51.386544657431244 l -7.1171531387445 0 L 766.1615353858456 40.508586652765075 M 810.6437425029987 29.779169835830203 l 7.1171531387445 0 L 817.7608956417432 30.520540452770206 l -7.1171531387445 0 L 810.6437425029987 29.779169835830203 M 828.43662534986 10.677606334338918 l 7.1171531387445 0 L 835.5537784886045 13.96506157435499 l -7.1171531387445 0 L 828.43662534986 10.677606334338918 M 846.2295081967213 12.901023817866417 l 7.1171531387445 0 L 853.3466613354658 22.64321058343944 l -7.1171531387445 0 L 846.2295081967213 12.901023817866417 M 855.1259496201519 22.643157170570817 l 7.1171531387445 0 L 862.2431027588964 29.73718732106687 l -7.1171531387445 0 L 855.1259496201519 22.643157170570817 M 864.0223910435824 29.737133908198246 l 7.1171531387445 0 L 871.1395441823269 50.33666131113637 l -7.1171531387445 0 L 864.0223910435824 29.737133908198246 M 872.9188324670131 50.33666131113637 l 7.1171531387445 0 L 880.0359856057576 53.09741225333937 l -7.1171531387445 0 L 872.9188324670131 50.33666131113637"></path><path class="candle body equal"></path><path class="candle wick up" d="M 22.41903238704518 148.08226436378862 L 22.41903238704518 150.6387110833839 M 22.41903238704518 168.38369454675976 L 22.41903238704518 177.29910351841247 M 31.315473810475808 136.06436891627425 L 31.315473810475808 141.1679685163187 M 31.315473810475808 150.6387110833839 L 31.315473810475808 154.2181744763402 M 66.90123950419832 150.11286139146932 L 66.90123950419832 154.59185090545498 M 66.90123950419832 158.89842367942023 L 66.90123950419832 164.37318930375255 M 102.48700519792082 169.57277182877115 L 102.48700519792082 174.28036842060285 M 102.48700519792082 185.4606432618598 L 102.48700519792082 196.15384615384613 M 120.27988804478207 173.60827429430918 L 120.27988804478207 177.94059207096646 M 120.27988804478207 178.91217215181217 L 120.27988804478207 185.20420807944416 M 138.07277089164333 174.4047669917018 L 138.07277089164333 176.8302987702221 M 138.07277089164333 177.97109081896883 L 138.07277089164333 185.5387328758343 M 155.8656537385046 169.8000435849008 L 155.8656537385046 172.03868373599514 M 155.8656537385046 188.07680556861203 L 155.8656537385046 190.85475545452215 M 164.7620951619352 144.44004085016195 L 164.7620951619352 167.29914624870742 M 164.7620951619352 172.02095066360147 L 164.7620951619352 179.78066539615256 M 173.65853658536582 163.66279815063282 L 173.65853658536582 167.2421013049832 M 173.65853658536582 167.33076666695155 L 173.65853658536582 174.92223086323742 M 191.4514194322271 164.81507396614052 L 191.4514194322271 171.1760124943382 M 191.4514194322271 173.49092622187277 L 191.4514194322271 177.7469170092212 M 200.34786085565773 158.04734303026157 L 200.34786085565773 160.81461034244057 M 200.34786085565773 171.22557963645068 L 200.34786085565773 171.75484775195918 M 209.24430227908834 149.083061283789 L 209.24430227908834 149.31679599702596 M 209.24430227908834 160.78005221642042 L 209.24430227908834 161.36935639629786 M 227.0371851259496 145.62463145120626 L 227.0371851259496 145.73081623409365 M 227.0371851259496 152.96072872244963 L 227.0371851259496 154.9191115517079 M 235.93362654938022 131.49484458991736 L 235.93362654938022 140.94128430174425 M 235.93362654938022 145.73573021800996 L 235.93362654938022 146.1276738482049 M 253.72650939624148 100.3073910591131 L 253.72650939624148 102.54848820216556 M 253.72650939624148 143.03106278789534 L 253.72650939624148 147.34041303103072 M 262.6229508196721 93.10872509892063 L 262.6229508196721 102.30519258543923 M 262.6229508196721 102.54854161503422 L 262.6229508196721 110.09989274695975 M 280.4158336665334 90.24200302530487 L 280.4158336665334 94.03105851486586 M 280.4158336665334 110.91983369369214 L 280.4158336665334 115.26529103603875 M 307.10515793682526 84.74832924546844 L 307.10515793682526 90.78206054028183 M 307.10515793682526 98.37208258911403 L 307.10515793682526 99.13380350901181 M 324.89804078368655 79.504520865203 L 324.89804078368655 87.81412108056372 M 324.89804078368655 94.34304308068336 L 324.89804078368655 99.1901540854435 M 333.7944822071172 69.19818738088932 L 333.7944822071172 71.86364976541068 M 333.7944822071172 87.81412108056372 L 333.7944822071172 88.81000401664771 M 351.5873650539784 49.17231418731251 L 351.5873650539784 51.63998871920214 M 351.5873650539784 74.89269354687087 L 351.5873650539784 79.3922470152889 M 369.38024790083966 38.57092801654517 L 369.38024790083966 43.61433131361474 M 369.38024790083966 51.98615752095921 L 369.38024790083966 53.928249425277556 M 396.06957217113154 75.84141291993198 L 396.06957217113154 84.91513763427996 M 396.06957217113154 89.1091160811192 L 396.06957217113154 99.26989949834632 M 440.5517792882847 84.30729918897902 L 440.5517792882847 85.39142018408212 M 440.5517792882847 109.17574329348021 L 440.5517792882847 110.15629673626009 M 458.34466213514594 69.08463162212746 L 458.34466213514594 81.31954355498961 M 458.34466213514594 91.53614341996187 L 458.34466213514594 93.33028167810416 M 476.13754498200717 86.12905190021623 L 476.13754498200717 89.85310392862331 M 476.13754498200717 91.87008067479682 L 476.13754498200717 102.9483903497902 M 485.0339864054379 87.45865843966054 L 485.0339864054379 89.15611940553616 M 485.0339864054379 89.87927623426457 L 485.0339864054379 98.83559946330749 M 493.93042782886846 75.4406027535402 L 493.93042782886846 77.99523343560118 M 493.93042782886846 89.15611940553616 L 493.93042782886846 89.15611940553616 M 502.82686925229905 70.35169169237608 L 502.82686925229905 70.49916462273424 M 502.82686925229905 78.06274730158187 L 502.82686925229905 87.05982454940906 M 511.7233106757297 57.04002974028529 L 511.7233106757297 57.09611325237367 M 511.7233106757297 70.49911120986556 L 511.7233106757297 73.62787681710579 M 520.6197520991603 43.72585738336764 L 520.6197520991603 51.930608137557385 M 520.6197520991603 57.14861810226216 L 520.6197520991603 67.13506191619734 M 529.5161935225909 39.65414099288114 L 529.5161935225909 41.66695153529949 M 529.5161935225909 51.930608137557385 L 529.5161935225909 60.363271602300586 M 547.3090763694522 19.92342731149529 L 547.3090763694522 23.42522839342638 M 547.3090763694522 44.61235076444498 L 547.3090763694522 50.72005888234639 M 573.998400639744 46.12623170075122 L 573.998400639744 46.3267436096844 M 573.998400639744 53.24664780836318 L 573.998400639744 65.71246357242359 M 582.8948420631747 35.24902147624621 L 582.8948420631747 35.57889935306332 M 582.8948420631747 46.32679702255308 L 582.8948420631747 61.159817712561846 M 600.687724910036 32.614324904070514 L 600.687724910036 40.2950420038799 M 600.687724910036 42.372856007452185 L 600.687724910036 49.6918077478571 M 609.5841663334666 30.41371471545898 L 609.5841663334666 39.90902720210576 M 609.5841663334666 40.2950420038799 L 609.5841663334666 41.41585763974945 M 636.2734906037584 52.04111936280583 L 636.2734906037584 59.99969020536179 M 636.2734906037584 61.37581935340518 L 636.2734906037584 67.16176835052516 M 662.9628148740503 56.08682368625708 L 662.9628148740503 56.34251108851157 M 662.9628148740503 76.27517882628428 L 662.9628148740503 76.69810192029946 M 671.8592562974809 47.39708408467436 L 671.8592562974809 52.11461547007599 M 671.8592562974809 56.34251108851157 L 671.8592562974809 62.08754582824133 M 689.6521391443422 38.287732986933094 L 689.6521391443422 42.40239332381873 M 689.6521391443422 52.325542888397024 L 689.6521391443422 57.547398579645005 M 698.5485805677728 33.14845359062667 L 698.5485805677728 36.46768948749286 M 698.5485805677728 42.40244673668738 L 698.5485805677728 45.41552007041955 M 725.2379048380647 28.704502918479136 L 725.2379048380647 35.381058087562906 M 725.2379048380647 36.607203900421325 L 725.2379048380647 38.16621871074156 M 743.0307876849259 37.82288079102324 L 743.0307876849259 39.37634066300325 M 743.0307876849259 45.519141035611455 L 743.0307876849259 49.06548845000128 M 751.9272291083566 33.661217129720626 L 751.9272291083566 34.41973327749909 M 751.9272291083566 39.37634066300325 L 751.9272291083566 46.98361506841121 M 778.6165533786485 39.63646133335615 L 778.6165533786485 40.04127746489709 M 778.6165533786485 51.3865980702999 L 778.6165533786485 52.74029381350792 M 787.512994802079 35.675416406724054 L 787.512994802079 39.69398699289823 M 787.512994802079 40.04127746489709 L 787.512994802079 42.30341927819987 M 796.4094362255097 21.76082999324862 L 796.4094362255097 31.005903190243828 M 796.4094362255097 39.69393358002955 L 796.4094362255097 40.989409296402954 M 805.3058776489403 26.03920077256373 L 805.3058776489403 29.759780964508224 M 805.3058776489403 31.005903190243828 L 805.3058776489403 33.87209113517304 M 823.0987604958016 9.594607009477613 L 823.0987604958016 10.67765974720757 M 823.0987604958016 30.520487039901553 L 823.0987604958016 30.813510037346276 M 840.8916433426629 9.47587020245615 L 840.8916433426629 12.894400622153086 M 840.8916433426629 13.96506157435499 L 840.8916433426629 18.983360823156403 M 885.3738504598159 45.38940117764693 L 885.3738504598159 48.24175518959433 M 885.3738504598159 53.09741225333937 L 885.3738504598159 65.39935733636435" style="stroke-width: 1px;"></path><path class="candle wick down" d="M 4.626149540183927 145.8670190491655 L 4.626149540183927 146.47977147838276 M 4.626149540183927 161.14454163212633 L 4.626149540183927 187.7680257749139 M 13.522590963614554 154.60931691350532 L 13.522590963614554 161.1130280396195 M 13.522590963614554 168.37253125721074 L 13.522590963614554 176.49256920171263 M 40.21191523390643 137.9457838017998 L 40.21191523390643 141.16417620264417 M 40.21191523390643 153.99923512772085 L 40.21191523390643 166.46697375505283 M 49.10835665733706 147.54813567723244 L 49.10835665733706 154.02481989180689 M 49.10835665733706 157.99045832514335 L 49.10835665733706 161.3938194901421 M 58.004798080767685 153.41019801218667 L 58.004798080767685 157.99045832514335 M 58.004798080767685 158.87908822096688 L 58.004798080767685 169.44741182603642 M 75.79768092762893 148.08226436378862 L 75.79768092762893 154.63890764274055 M 75.79768092762893 158.54322810286038 L 75.79768092762893 158.79656533889397 M 84.69412235105956 155.74535521694173 L 84.69412235105956 158.48741165511524 M 84.69412235105956 160.80398118157808 L 84.69412235105956 171.85099091553928 M 93.5905637744902 160.100159811303 L 93.5905637744902 160.80398118157808 M 93.5905637744902 185.4705780554297 L 93.5905637744902 189.63213489099502 M 111.38344662135144 171.5518788510678 L 111.38344662135144 174.25457000504218 M 111.38344662135144 178.91217215181217 L 111.38344662135144 182.5861229094203 M 129.1763294682127 163.9725927888354 L 129.1763294682127 177.94299565005596 M 129.1763294682127 177.97103740610015 L 129.1763294682127 179.8095083452266 M 146.96921231507397 176.352146770017 L 146.96921231507397 176.85038200883662 M 146.96921231507397 188.0556540726244 L 146.96921231507397 194.0615572628682 M 182.55497800879647 166.8158132002427 L 182.55497800879647 167.24204789211456 M 182.55497800879647 173.4908728090041 L 182.55497800879647 178.411853811115 M 218.14074370251896 143.4979980856828 L 218.14074370251896 149.30937160828282 M 218.14074370251896 152.96067530958095 L 218.14074370251896 157.0986236572005 M 244.83006797281087 138.20088366249902 L 244.83006797281087 140.972958132857 M 244.83006797281087 143.03106278789534 L 244.83006797281087 150.74756650970403 M 271.51939224310274 97.55369061557262 L 271.51939224310274 102.30519258543923 M 271.51939224310274 110.91983369369214 L 271.51939224310274 116.69152145488107 M 289.31227508996403 88.6027620862639 L 289.31227508996403 94.03559860870159 M 289.31227508996403 97.67333544136123 L 289.31227508996403 103.88311555126354 M 298.2087165133947 93.06700964850059 L 298.2087165133947 97.61698486492953 M 298.2087165133947 98.3885871655286 L 298.2087165133947 103.46900558057652 M 316.0015993602559 88.46858896020102 L 316.0015993602559 90.76774589148214 M 316.0015993602559 94.34304308068336 L 316.0015993602559 106.84331014502662 M 342.6909236305478 69.67217317733926 L 342.6909236305478 71.87454599061644 M 342.6909236305478 74.89274695973953 L 342.6909236305478 78.36832232316067 M 360.483806477409 42.05526309042585 L 360.483806477409 51.63998871920214 M 360.483806477409 51.98615752095921 L 360.483806477409 62.54727038876021 M 378.2766893242703 43.08073675574508 L 378.2766893242703 43.59414124926292 M 378.2766893242703 61.3522108654594 L 378.2766893242703 95.88720911351729 M 387.1731307477009 60.83987462931469 L 387.1731307477009 61.3522108654594 M 387.1731307477009 89.1091160811192 L 387.1731307477009 110.4659311358567 M 404.9660135945622 72.28016331518718 L 404.9660135945622 84.91508422141129 M 404.9660135945622 98.81567646329894 L 404.9660135945622 100.94893302453576 M 413.86245501799283 91.60290950578141 L 413.86245501799283 98.81567646329894 M 413.86245501799283 103.07193431499063 L 413.86245501799283 114.66300752907797 M 422.7588964414235 91.76373565330348 L 422.7588964414235 103.071880902122 M 422.7588964414235 103.98230324835703 L 422.7588964414235 109.89206327502072 M 431.65533786485406 101.14057839727211 L 431.65533786485406 103.99704520010597 M 431.65533786485406 109.16746429883857 L 431.65533786485406 120.57463700614461 M 449.44822071171535 82.1173715740986 L 449.44822071171535 85.34479074974574 M 449.44822071171535 91.514564621025 L 449.44822071171535 98.9552442890961 M 467.2411035585766 73.71082700212798 L 467.2411035585766 81.31954355498961 M 467.2411035585766 91.87008067479682 L 467.2411035585766 96.53884611111584 M 538.4126349460215 40.019965730303454 L 538.4126349460215 41.66700494816814 M 538.4126349460215 44.61235076444498 L 538.4126349460215 56.67767683932556 M 556.2055177928828 20.56016211873896 L 556.2055177928828 23.425281806295033 M 556.2055177928828 35.283312537923166 L 556.2055177928828 35.29148470682745 M 565.1019592163135 26.389428952338648 L 565.1019592163135 35.24181073897773 M 565.1019592163135 53.24664780836318 L 565.1019592163135 58.61570936562606 M 591.7912834866053 29.07855323767444 L 591.7912834866053 35.57889935306332 M 591.7912834866053 42.33461239349472 L 591.7912834866053 45.673771290369444 M 618.4806077568971 37.30878193021289 L 618.4806077568971 39.92109851042193 M 618.4806077568971 43.918838077820425 L 618.4806077568971 54.07502798834318 M 627.3770491803277 38.15468153111192 L 627.3770491803277 43.918838077820425 M 627.3770491803277 61.37581935340518 L 627.3770491803277 63.68993188790989 M 645.169932027189 44.72836351516497 L 645.169932027189 59.98948834744857 M 645.169932027189 70.88117345935922 L 645.169932027189 74.1054412757557 M 654.0663734506197 65.62881902010889 L 654.0663734506197 70.88112004649054 M 654.0663734506197 76.27517882628428 L 654.0663734506197 80.90190833497135 M 680.7556977209116 48.148122430841 L 680.7556977209116 52.11461547007599 M 680.7556977209116 52.32564971413433 L 680.7556977209116 58.12516557989284 M 707.4450219912034 30.84101766470394 L 707.4450219912034 36.46768948749286 M 707.4450219912034 36.49984403442352 L 707.4450219912034 47.030458154222174 M 716.3414634146341 32.496816593028115 L 716.3414634146341 36.505666037107005 M 716.3414634146341 36.60725731328998 L 716.3414634146341 40.80011408988747 M 734.1343462614954 30.885243519950762 L 734.1343462614954 35.381058087562906 M 734.1343462614954 45.51919444848008 L 734.1343462614954 46.437575312144816 M 760.8236705317872 32.468828249852606 L 760.8236705317872 34.41973327749909 M 760.8236705317872 40.50260441147563 L 760.8236705317872 43.590562587063005 M 769.7201119552178 36.956791125772355 L 769.7201119552178 40.508586652765075 M 769.7201119552178 51.386544657431244 L 769.7201119552178 53.952765931990484 M 814.202319072371 22.829087366360994 L 814.202319072371 29.779169835830203 M 814.202319072371 30.520540452770206 L 814.202319072371 33.241445394956145 M 831.9952019192323 3.846153846153868 L 831.9952019192323 10.677606334338918 M 831.9952019192323 13.96506157435499 L 831.9952019192323 22.823746079495436 M 849.7880847660936 10.968172339825486 L 849.7880847660936 12.901023817866417 M 849.7880847660936 22.64321058343944 L 849.7880847660936 29.77276029159154 M 858.6845261895241 16.387228342149996 L 858.6845261895241 22.643157170570817 M 858.6845261895241 29.73718732106687 L 858.6845261895241 32.01124020407988 M 867.5809676129546 27.107458145676134 L 867.5809676129546 29.737133908198246 M 867.5809676129546 50.33666131113637 L 867.5809676129546 78.21128848931313 M 876.4774090363853 42.9827775546307 L 876.4774090363853 50.33666131113637 M 876.4774090363853 53.09741225333937 L 876.4774090363853 60.63695914129198" style="stroke-width: 1px;"></path><path class="candle wick equal" style="stroke-width: 1px;"></path></g></g><g class="x axis" transform="translate(0,200)" fill="none" font-size="10" font-family="sans-serif" text-anchor="middle"><path class="domain" stroke="#000" d="M0.5,6V0.5H890.5V6"></path><g class="tick" opacity="1" transform="translate(4.626149540183927,0)"><line stroke="#000" y2="6" x1="0.5" x2="0.5"></line><text fill="#000" y="9" x="0.5" dy="0.71em">Jan 11</text></g><g class="tick" opacity="1" transform="translate(66.90123950419832,0)"><line stroke="#000" y2="6" x1="0.5" x2="0.5"></line><text fill="#000" y="9" x="0.5" dy="0.71em">Jan 18</text></g><g class="tick" opacity="1" transform="translate(129.1763294682127,0)"><line stroke="#000" y2="6" x1="0.5" x2="0.5"></line><text fill="#000" y="9" x="0.5" dy="0.71em">Jan 25</text></g><g class="tick" opacity="1" transform="translate(191.4514194322271,0)"><line stroke="#000" y2="6" x1="0.5" x2="0.5"></line><text fill="#000" y="9" x="0.5" dy="0.71em">Feb  1</text></g><g class="tick" opacity="1" transform="translate(253.72650939624148,0)"><line stroke="#000" y2="6" x1="0.5" x2="0.5"></line><text fill="#000" y="9" x="0.5" dy="0.71em">Feb  8</text></g><g class="tick" opacity="1" transform="translate(316.0015993602559,0)"><line stroke="#000" y2="6" x1="0.5" x2="0.5"></line><text fill="#000" y="9" x="0.5" dy="0.71em">Feb 15</text></g><g class="tick" opacity="1" transform="translate(378.2766893242703,0)"><line stroke="#000" y2="6" x1="0.5" x2="0.5"></line><text fill="#000" y="9" x="0.5" dy="0.71em">Feb 22</text></g><g class="tick" opacity="1" transform="translate(440.5517792882847,0)"><line stroke="#000" y2="6" x1="0.5" x2="0.5"></line><text fill="#000" y="9" x="0.5" dy="0.71em">Mar  1</text></g><g class="tick" opacity="1" transform="translate(502.82686925229905,0)"><line stroke="#000" y2="6" x1="0.5" x2="0.5"></line><text fill="#000" y="9" x="0.5" dy="0.71em">Mar  8</text></g><g class="tick" opacity="1" transform="translate(565.1019592163135,0)"><line stroke="#000" y2="6" x1="0.5" x2="0.5"></line><text fill="#000" y="9" x="0.5" dy="0.71em">Mar 15</text></g><g class="tick" opacity="1" transform="translate(627.3770491803277,0)"><line stroke="#000" y2="6" x1="0.5" x2="0.5"></line><text fill="#000" y="9" x="0.5" dy="0.71em">Mar 22</text></g><g class="tick" opacity="1" transform="translate(689.6521391443422,0)"><line stroke="#000" y2="6" x1="0.5" x2="0.5"></line><text fill="#000" y="9" x="0.5" dy="0.71em">Mar 29</text></g><g class="tick" opacity="1" transform="translate(751.9272291083566,0)"><line stroke="#000" y2="6" x1="0.5" x2="0.5"></line><text fill="#000" y="9" x="0.5" dy="0.71em">Apr  5</text></g><g class="tick" opacity="1" transform="translate(814.202319072371,0)"><line stroke="#000" y2="6" x1="0.5" x2="0.5"></line><text fill="#000" y="9" x="0.5" dy="0.71em">Apr 12</text></g><g class="tick" opacity="1" transform="translate(876.4774090363853,0)"><line stroke="#000" y2="6" x1="0.5" x2="0.5"></line><text fill="#000" y="9" x="0.5" dy="0.71em">Apr 19</text></g></g><g class="y axis" fill="none" font-size="10" font-family="sans-serif" text-anchor="end"><path class="domain" stroke="#000" d="M-6,200.5H0.5V0.5H-6"></path><g class="tick" opacity="1" transform="translate(0,190.0113662584499)"><line stroke="#000" x2="-6" y1="0.5" y2="0.5"></line><text fill="#000" x="-9" y="0.5" dy="0.32em">30,000</text></g><g class="tick" opacity="1" transform="translate(0,163.30493193064018)"><line stroke="#000" x2="-6" y1="0.5" y2="0.5"></line><text fill="#000" x="-9" y="0.5" dy="0.32em">35,000</text></g><g class="tick" opacity="1" transform="translate(0,136.59849760283043)"><line stroke="#000" x2="-6" y1="0.5" y2="0.5"></line><text fill="#000" x="-9" y="0.5" dy="0.32em">40,000</text></g><g class="tick" opacity="1" transform="translate(0,109.89206327502072)"><line stroke="#000" x2="-6" y1="0.5" y2="0.5"></line><text fill="#000" x="-9" y="0.5" dy="0.32em">45,000</text></g><g class="tick" opacity="1" transform="translate(0,83.185628947211)"><line stroke="#000" x2="-6" y1="0.5" y2="0.5"></line><text fill="#000" x="-9" y="0.5" dy="0.32em">50,000</text></g><g class="tick" opacity="1" transform="translate(0,56.479194619401284)"><line stroke="#000" x2="-6" y1="0.5" y2="0.5"></line><text fill="#000" x="-9" y="0.5" dy="0.32em">55,000</text></g><g class="tick" opacity="1" transform="translate(0,29.77276029159154)"><line stroke="#000" x2="-6" y1="0.5" y2="0.5"></line><text fill="#000" x="-9" y="0.5" dy="0.32em">60,000</text></g><g class="tick" opacity="1" transform="translate(0,3.066325963781793)"><line stroke="#000" x2="-6" y1="0.5" y2="0.5"></line><text fill="#000" x="-9" y="0.5" dy="0.32em">65,000</text></g><text transform="rotate(-90)" y="6" dy=".71em" style="text-anchor: end;">Price ($)</text></g></g></svg>