<?xml version="1.0" encoding="utf-8"?>
<!DOCTYPE svg PUBLIC "-//W3C//DTD SVG 1.1//EN" "http://www.w3.org/Graphics/SVG/1.1/DTD/svg11.dtd">
<svg version="1.1" xmlns="http://www.w3.org/2000/svg" width="960" height="250"><g transform="translate(50,20)"><style>.axis path,.axis line{fill:none;stroke:#000;shape-rendering:crispEdges;}path.candle{stroke:#000000;}path.candle.body{stroke-width:0;}path.candle.up{fill:#00AA00;stroke:#00AA00;}path.candle.down{fill:#FF0000;stroke:#FF0000;}</style><g class="candlestick"><g class="data"><path class="candle body up" d="M 1.0675729708116766 141.63734668814493 l 7.1171531387445 0 L 8.184726109556177 128.77789119443696 l -7.1171531387445 0 L 1.0675729708116766 141.63734668814493 M 18.860455817672932 133.23537855468192 l 7.1171531387445 0 L 25.977608956417434 126.26692610727444 l -7.1171531387445 0 L 18.860455817672932 133.23537855468192 M 27.75689724110356 126.26692610727444 l 7.1171531387445 0 L 34.87405037984806 112.88465525765962 l -7.1171531387445 0 L 27.75689724110356 126.26692610727444 M 54.446221511395436 142.6356879695051 l 7.1171531387445 0 L 61.563374650139934 140.40088358666011 l -7.1171531387445 0 L 54.446221511395436 142.6356879695051 M 81.13554578168731 159.6636309988995 l 7.1171531387445 0 L 88.25269892043181 127.70737970302555 l -7.1171531387445 0 L 81.13554578168731 159.6636309988995 M 98.92842862854857 133.37110639723122 l 7.1171531387445 0 L 106.04558176729307 128.15451602098915 l -7.1171531387445 0 L 98.92842862854857 133.37110639723122 M 116.72131147540982 142.39605097369974 l 7.1171531387445 0 L 123.83846461415432 114.68867127067419 l -7.1171531387445 0 L 116.72131147540982 142.39605097369974 M 125.61775289884046 114.68875101676265 l 7.1171531387445 0 L 132.73490603758498 102.76088932837844 l -7.1171531387445 0 L 125.61775289884046 114.68875101676265 M 178.9964014394242 142.89366656565494 l 7.1171531387445 0 L 186.1135545781687 141.96510311169237 l -7.1171531387445 0 L 178.9964014394242 142.89366656565494 M 196.78928428628546 173.75221295395463 l 7.1171531387445 0 L 203.90643742502996 166.61142920939727 l -7.1171531387445 0 L 196.78928428628546 173.75221295395463 M 205.68572570971608 166.61142920939727 l 7.1171531387445 0 L 212.80287884846058 157.29301902741673 l -7.1171531387445 0 L 205.68572570971608 166.61142920939727 M 214.5821671331467 157.31694285395304 l 7.1171531387445 0 L 221.6993202718912 149.43786982248525 l -7.1171531387445 0 L 214.5821671331467 157.31694285395304 M 232.37504998000796 174.05548732834654 l 7.1171531387445 0 L 239.49220311875246 168.41297309366976 l -7.1171531387445 0 L 232.37504998000796 174.05548732834654 M 241.2714914034386 168.41297309366976 l 7.1171531387445 0 L 248.3886445421831 149.14081564299275 l -7.1171531387445 0 L 241.2714914034386 168.41297309366976 M 259.06437425029986 150.77919903028757 l 7.1171531387445 0 L 266.1815273890444 139.48045423371983 l -7.1171531387445 0 L 259.06437425029986 150.77919903028757 M 285.7536985205918 158.69447678591365 l 7.1171531387445 0 L 292.8708516593363 156.42793345986377 l -7.1171531387445 0 L 285.7536985205918 158.69447678591365 M 294.65013994402244 156.42801320595225 l 7.1171531387445 0 L 301.76729308276697 149.3897031850588 l -7.1171531387445 0 L 294.65013994402244 156.42801320595225 M 303.54658136745303 149.3897829311472 l 7.1171531387445 0 L 310.66373450619756 144.4663391760634 l -7.1171531387445 0 L 303.54658136745303 149.3897829311472 M 321.3394642143143 157.19668575256384 l 7.1171531387445 0 L 328.45661735305885 152.97125950972105 l -7.1171531387445 0 L 321.3394642143143 157.19668575256384 M 348.02878848460614 163.69152618064086 l 7.1171531387445 0 L 355.14594162335067 156.19459640504635 l -7.1171531387445 0 L 348.02878848460614 163.69152618064086 M 365.8216713314674 158.6901704971371 l 7.1171531387445 0 L 372.93882447021196 152.66040925692596 l -7.1171531387445 0 L 365.8216713314674 158.6901704971371 M 392.5109956017593 164.86052409129334 l 7.1171531387445 0 L 399.62814874050383 164.1356321472432 l -7.1171531387445 0 L 392.5109956017593 164.86052409129334 M 419.20031987205124 175.58844638670473 l 7.1171531387445 0 L 426.31747301079577 174.50222491586788 l -7.1171531387445 0 L 419.20031987205124 175.58844638670473 M 428.0967612954818 174.50222491586788 l 7.1171531387445 0 L 435.21391443422635 172.4408682754111 l -7.1171531387445 0 L 428.0967612954818 174.50222491586788 M 454.7860855657737 188.2961450740841 l 7.1171531387445 0 L 461.90323870451823 169.52256016842375 l -7.1171531387445 0 L 454.7860855657737 188.2961450740841 M 463.68252698920435 169.52256016842375 l 7.1171531387445 0 L 470.7996801279489 168.37963922869582 l -7.1171531387445 0 L 463.68252698920435 169.52256016842375 M 472.57896841263494 168.38163288090718 l 7.1171531387445 0 L 479.69612155137946 157.64374232443902 l -7.1171531387445 0 L 472.57896841263494 168.38163288090718 M 481.47540983606564 157.64366257835056 l 7.1171531387445 0 L 488.59256297481016 152.6671876744446 l -7.1171531387445 0 L 481.47540983606564 157.64366257835056 M 490.3718512594962 152.64031324263544 l 7.1171531387445 0 L 497.48900439824075 143.71265889408127 l -7.1171531387445 0 L 490.3718512594962 152.64031324263544 M 499.2682926829268 143.71265889408127 l 7.1171531387445 0 L 506.38544582167134 128.90715960382147 l -7.1171531387445 0 L 499.2682926829268 143.71265889408127 M 508.16473410635746 128.87741431282797 l 7.1171531387445 0 L 515.281887245102 111.20137482256494 l -7.1171531387445 0 L 508.16473410635746 128.87741431282797 M 517.0611755297881 111.21142282971022 l 7.1171531387445 0 L 524.1783286685326 106.72211678017196 l -7.1171531387445 0 L 517.0611755297881 111.21142282971022 M 534.8540583766493 106.73064961163658 l 7.1171531387445 0 L 541.9712115153937 89.28316241088375 l -7.1171531387445 0 L 534.8540583766493 106.73064961163658 M 579.3362654938024 121.17625480470183 l 7.1171531387445 0 L 586.4534186325469 109.0856313497823 l -7.1171531387445 0 L 579.3362654938024 121.17625480470183 M 588.232706917233 109.08571109587078 l 7.1171531387445 0 L 595.3498600559775 100.00031898435384 l -7.1171531387445 0 L 588.232706917233 109.08571109587078 M 597.1291483406637 100.00031898435384 l 7.1171531387445 0 L 604.2463014794082 84.25517153383626 l -7.1171531387445 0 L 597.1291483406637 100.00031898435384 M 606.0255897640943 84.25517153383626 l 7.1171531387445 0 L 613.1427429028388 70.41388219907813 l -7.1171531387445 0 L 606.0255897640943 84.25517153383626 M 623.8184726109555 76.61956331041964 l 7.1171531387445 0 L 630.9356257497 57.009681175138354 l -7.1171531387445 0 L 623.8184726109555 76.61956331041964 M 659.4042383046781 71.78934273273902 l 7.1171531387445 0 L 666.5213914434225 44.67615113478686 l -7.1171531387445 0 L 659.4042383046781 71.78934273273902 M 703.8864454218311 69.42973572146289 l 7.1171531387445 0 L 711.0035985605756 69.35525287484649 l -7.1171531387445 0 L 703.8864454218311 69.42973572146289 M 712.7828868452618 69.40246255921147 l 7.1171531387445 0 L 719.9000399840063 52.96480007655623 l -7.1171531387445 0 L 712.7828868452618 69.40246255921147 M 721.6793282686924 52.96480007655623 l 7.1171531387445 0 L 728.7964814074369 32.5350484058757 l -7.1171531387445 0 L 721.6793282686924 52.96480007655623 M 739.4722111155537 36.527057847812614 l 7.1171531387445 0 L 746.5893642542982 33.19893459225827 l -7.1171531387445 0 L 739.4722111155537 36.527057847812614 M 748.3686525389844 33.19893459225827 l 7.1171531387445 0 L 755.4858056777289 31.20823298617205 l -7.1171531387445 0 L 748.3686525389844 33.19893459225827 M 766.1615353858456 45.68087210322332 l 7.1171531387445 0 L 773.27868852459 35.319383084259755 l -7.1171531387445 0 L 766.1615353858456 45.68087210322332 M 783.9544182327068 52.30099363626215 l 7.1171531387445 0 L 791.0715713714512 34.54919536196749 l -7.1171531387445 0 L 783.9544182327068 52.30099363626215 M 819.5401839264293 51.19212427630424 l 7.1171531387445 0 L 826.6573370651738 50.25127992471971 l -7.1171531387445 0 L 819.5401839264293 51.19212427630424 M 828.43662534986 50.25127992471971 l 7.1171531387445 0 L 835.5537784886045 36.61764940429677 l -7.1171531387445 0 L 828.43662534986 50.25127992471971 M 837.3330667732906 36.61772915038517 l 7.1171531387445 0 L 844.4502199120351 33.13976299462513 l -7.1171531387445 0 L 837.3330667732906 36.61772915038517 M 846.2295081967213 33.13984274071359 l 7.1171531387445 0 L 853.3466613354658 27.13886983843446 l -7.1171531387445 0 L 846.2295081967213 33.13984274071359 M 864.0223910435824 27.789597920222008 l 7.1171531387445 0 L 871.1395441823269 13.121580886457565 l -7.1171531387445 0 L 864.0223910435824 27.789597920222008 M 872.9188324670131 13.121580886457565 l 7.1171531387445 0 L 880.0359856057576 5.888451171470052 l -7.1171531387445 0 L 872.9188324670131 13.121580886457565"></path><path class="candle body down" d="M 9.964014394242305 128.77781144834847 l 7.1171531387445 0 L 17.081167532986804 133.24941386624988 l -7.1171531387445 0 L 9.964014394242305 128.77781144834847 M 36.65333866453418 112.88473500374809 l 7.1171531387445 0 L 43.77049180327868 132.16558477806666 l -7.1171531387445 0 L 36.65333866453418 112.88473500374809 M 45.54978008796481 132.16438858673982 l 7.1171531387445 0 L 52.66693322670931 142.65857509689152 l -7.1171531387445 0 L 45.54978008796481 132.16438858673982 M 63.342662934826066 140.40088358666011 l 7.1171531387445 0 L 70.45981607357056 158.29207802357294 l -7.1171531387445 0 L 63.342662934826066 140.40088358666011 M 72.23910435825668 158.2588239046875 l 7.1171531387445 0 L 79.35625749700118 159.6635512528111 l -7.1171531387445 0 L 72.23910435825668 158.2588239046875 M 90.03198720511796 127.70737970302555 l 7.1171531387445 0 L 97.14914034386246 133.38793282189508 l -7.1171531387445 0 L 90.03198720511796 127.70737970302555 M 107.82487005197919 128.15451602098915 l 7.1171531387445 0 L 114.94202319072369 142.3961307197882 l -7.1171531387445 0 L 107.82487005197919 128.15451602098915 M 134.51419432227107 102.76096907446693 l 7.1171531387445 0 L 141.63134746101557 105.72943747109204 l -7.1171531387445 0 L 134.51419432227107 102.76096907446693 M 143.4106357457017 105.73135137721495 l 7.1171531387445 0 L 150.5277888844462 120.04409958691525 l -7.1171531387445 0 L 143.4106357457017 105.73135137721495 M 152.30707716913233 120.04417933300373 l 7.1171531387445 0 L 159.42423030787683 122.08591843570073 l -7.1171531387445 0 L 152.30707716913233 120.04417933300373 M 161.20351859256294 122.08591843570073 l 7.1171531387445 0 L 168.32067173130744 140.213241040527 l -7.1171531387445 0 L 161.20351859256294 122.08591843570073 M 170.09996001599356 140.20813729086586 l 7.1171531387445 0 L 177.21711315473806 142.89366656565494 l -7.1171531387445 0 L 170.09996001599356 140.20813729086586 M 187.89284286285485 141.96502336560394 l 7.1171531387445 0 L 195.00999600159935 173.79360117386244 l -7.1171531387445 0 L 187.89284286285485 141.96502336560394 M 223.47860855657734 149.43794956857366 l 7.1171531387445 0 L 230.59576169532184 173.9888195983987 l -7.1171531387445 0 L 223.47860855657734 149.43794956857366 M 250.16793282686922 149.12367023397505 l 7.1171531387445 0 L 257.28508596561375 150.77919903028757 l -7.1171531387445 0 L 250.16793282686922 149.12367023397505 M 267.9608156737305 139.48053397980829 l 7.1171531387445 0 L 275.07796881247504 146.3922869583247 l -7.1171531387445 0 L 267.9608156737305 139.48053397980829 M 276.85725709716115 146.3922869583247 l 7.1171531387445 0 L 283.9744102359057 158.6756567090384 l -7.1171531387445 0 L 276.85725709716115 146.3922869583247 M 312.4430227908837 144.45342030973384 l 7.1171531387445 0 L 319.5601759296282 157.1967654986523 l -7.1171531387445 0 L 312.4430227908837 144.45342030973384 M 330.23590563774496 152.97117976363262 l 7.1171531387445 0 L 337.3530587764895 155.82529226941418 l -7.1171531387445 0 L 330.23590563774496 152.97117976363262 M 339.13234706117555 155.82537201550264 l 7.1171531387445 0 L 346.2495001999201 163.69152618064086 l -7.1171531387445 0 L 339.13234706117555 155.82537201550264 M 356.9252299080368 156.19459640504635 l 7.1171531387445 0 L 364.0423830467813 158.6901704971371 l -7.1171531387445 0 L 356.9252299080368 156.19459640504635 M 374.7181127548981 152.6603295108375 l 7.1171531387445 0 L 381.8352658936426 162.0095216829615 l -7.1171531387445 0 L 374.7181127548981 152.6603295108375 M 383.61455417832866 162.00704955421935 l 7.1171531387445 0 L 390.7317073170732 164.8553405955438 l -7.1171531387445 0 L 383.61455417832866 162.00704955421935 M 401.40743702518995 164.13555240115474 l 7.1171531387445 0 L 408.5245901639345 171.63192395413006 l -7.1171531387445 0 L 401.40743702518995 164.13555240115474 M 410.3038784486206 171.6758640488684 l 7.1171531387445 0 L 417.4210315873651 175.5883666406163 l -7.1171531387445 0 L 410.3038784486206 171.6758640488684 M 436.99320271891247 172.44078852932265 l 7.1171531387445 0 L 444.110355857657 179.92830826647952 l -7.1171531387445 0 L 436.99320271891247 172.44078852932265 M 445.8896441423431 179.92830826647952 l 7.1171531387445 0 L 453.00679728108764 188.29606532799568 l -7.1171531387445 0 L 445.8896441423431 179.92830826647952 M 525.9576169532187 106.7220370340835 l 7.1171531387445 0 L 533.0747700919632 106.74667857541587 l -7.1171531387445 0 L 525.9576169532187 106.7220370340835 M 543.75049980008 89.28324215697221 l 7.1171531387445 0 L 550.8676529388244 95.22057768066476 l -7.1171531387445 0 L 543.75049980008 89.28324215697221 M 552.6469412235106 95.22049793457634 l 7.1171531387445 0 L 559.764094362255 108.11065567233926 l -7.1171531387445 0 L 552.6469412235106 95.22049793457634 M 561.5433826469413 108.07213831161584 l 7.1171531387445 0 L 568.6605357856857 113.67390229509245 l -7.1171531387445 0 L 561.5433826469413 108.07213831161584 M 570.4398240703717 113.68155791958405 l 7.1171531387445 0 L 577.5569772091162 121.17617505861337 l -7.1171531387445 0 L 570.4398240703717 113.68155791958405 M 614.9220311875249 70.41388219907813 l 7.1171531387445 0 L 622.0391843262694 76.61948356433118 l -7.1171531387445 0 L 614.9220311875249 70.41388219907813 M 632.7149140343862 57.04580615320819 l 7.1171531387445 0 L 639.8320671731307 62.33998947351637 l -7.1171531387445 0 L 632.7149140343862 57.04580615320819 M 641.6113554578168 62.33990972742788 l 7.1171531387445 0 L 648.7285085965613 62.930030781990155 l -7.1171531387445 0 L 641.6113554578168 62.33990972742788 M 650.5077968812475 62.93266240290919 l 7.1171531387445 0 L 657.624950019992 71.79779581811513 l -7.1171531387445 0 L 650.5077968812475 62.93266240290919 M 668.3006797281087 44.67623088087532 l 7.1171531387445 0 L 675.4178328668531 50.509497759134916 l -7.1171531387445 0 L 668.3006797281087 44.67623088087532 M 677.1971211515394 50.509577505223376 l 7.1171531387445 0 L 684.3142742902838 51.264613470709264 l -7.1171531387445 0 L 677.1971211515394 50.509577505223376 M 686.09356257497 51.264613470709264 l 7.1171531387445 0 L 693.2107157137144 59.817620695704875 l -7.1171531387445 0 L 686.09356257497 51.264613470709264 M 694.9900039984005 59.817540949616415 l 7.1171531387445 0 L 702.107157137145 69.42973572146289 l -7.1171531387445 0 L 694.9900039984005 59.817540949616415 M 730.5757696921231 32.5350484058757 l 7.1171531387445 0 L 737.6929228308676 36.52713759390102 l -7.1171531387445 0 L 730.5757696921231 32.5350484058757 M 757.265093962415 31.20823298617205 l 7.1171531387445 0 L 764.3822471011595 45.68087210322332 l -7.1171531387445 0 L 757.265093962415 31.20823298617205 M 775.0579768092763 35.319383084259755 l 7.1171531387445 0 L 782.1751299480208 52.30091389017369 l -7.1171531387445 0 L 775.0579768092763 35.319383084259755 M 792.8508596561375 34.54919536196749 l 7.1171531387445 0 L 799.9680127948819 35.9411633359384 l -7.1171531387445 0 L 792.8508596561375 34.54919536196749 M 801.747301079568 35.9411633359384 l 7.1171531387445 0 L 808.8644542183125 36.95808545590839 l -7.1171531387445 0 L 801.747301079568 35.9411633359384 M 810.6437425029987 36.958005709819986 l 7.1171531387445 0 L 817.7608956417432 51.19212427630424 l -7.1171531387445 0 L 810.6437425029987 36.958005709819986 M 855.1259496201519 27.147960892518256 l 7.1171531387445 0 L 862.2431027588964 27.804749677028383 l -7.1171531387445 0 L 855.1259496201519 27.147960892518256 M 881.8152738904437 5.870109571125596 l 7.1171531387445 0 L 888.9324270291881 53.567042536563605 l -7.1171531387445 0 L 881.8152738904437 5.870109571125596"></path><path class="candle body equal"></path><path class="candle wick up" d="M 4.626149540183927 126.82259685162444 L 4.626149540183927 128.77789119443696 M 4.626149540183927 141.63734668814493 L 4.626149540183927 153.4989393770236 M 22.41903238704518 121.03303082983781 L 22.41903238704518 126.26692610727444 M 22.41903238704518 133.23537855468192 L 22.41903238704518 139.41450421856808 M 31.315473810475808 111.05679516419721 L 31.315473810475808 112.88465525765962 M 31.315473810475808 126.26692610727444 L 31.315473810475808 129.44624316177294 M 58.004798080767685 134.94872326512387 L 58.004798080767685 140.40088358666011 M 58.004798080767685 142.6356879695051 L 58.004798080767685 144.9807811926825 M 84.69412235105956 126.53718560104627 L 84.69412235105956 127.70737970302555 M 84.69412235105956 159.6636309988995 L 84.69412235105956 167.51048661063174 M 102.48700519792082 125.37600280706232 L 102.48700519792082 128.15451602098915 M 102.48700519792082 133.37110639723122 L 102.48700519792082 139.28077002823017 M 120.27988804478207 111.82235761335907 L 120.27988804478207 114.68867127067419 M 120.27988804478207 142.39605097369974 L 120.27988804478207 148.6889743058103 M 129.1763294682127 98.39271758720234 L 129.1763294682127 102.76088932837844 M 129.1763294682127 114.68875101676265 L 129.1763294682127 117.00585336289257 M 182.55497800879647 137.6782723807397 L 182.55497800879647 141.96510311169237 M 182.55497800879647 142.89366656565494 L 182.55497800879647 160.02089347517506 M 200.34786085565773 160.31770841640218 L 200.34786085565773 166.61142920939727 M 200.34786085565773 173.75221295395463 L 200.34786085565773 196.15384615384616 M 209.24430227908834 147.70012280897623 L 209.24430227908834 157.29301902741673 M 209.24430227908834 166.61142920939727 L 209.24430227908834 173.20292189668098 M 218.14074370251896 144.37471092042935 L 218.14074370251896 149.43786982248525 M 218.14074370251896 157.31694285395304 L 218.14074370251896 168.38968723584108 M 235.93362654938022 164.85350643550936 L 235.93362654938022 168.41297309366976 M 235.93362654938022 174.05548732834654 L 235.93362654938022 185.42002264788914 M 244.83006797281087 148.7527711765738 L 244.83006797281087 149.14081564299275 M 244.83006797281087 168.41297309366976 L 244.83006797281087 170.88669675752405 M 262.6229508196721 133.99177020367154 L 262.6229508196721 139.48045423371983 M 262.6229508196721 150.77919903028757 L 262.6229508196721 152.9280371297788 M 289.31227508996403 154.90885022089668 L 289.31227508996403 156.42793345986377 M 289.31227508996403 158.69447678591365 L 289.31227508996403 165.10071930971787 M 298.2087165133947 147.18488333147258 L 298.2087165133947 149.3897031850588 M 298.2087165133947 156.42801320595225 L 298.2087165133947 160.17456418762657 M 307.10515793682526 139.03291918531397 L 307.10515793682526 144.4663391760634 M 307.10515793682526 149.3897829311472 L 307.10515793682526 151.87762165265792 M 324.89804078368655 145.8031228568239 L 324.89804078368655 152.97125950972105 M 324.89804078368655 157.19668575256384 L 324.89804078368655 158.45787014146958 M 351.5873650539784 153.92829231726185 L 351.5873650539784 156.19459640504635 M 351.5873650539784 163.69152618064086 L 351.5873650539784 168.59303976139972 M 369.38024790083966 149.414663710745 L 369.38024790083966 152.66040925692596 M 369.38024790083966 158.6901704971371 L 369.38024790083966 160.25638367438077 M 396.06957217113154 161.79101740059653 L 396.06957217113154 164.1356321472432 M 396.06957217113154 164.86052409129334 L 396.06957217113154 174.26354487312398 M 422.7588964414235 171.02649165058455 L 422.7588964414235 174.50222491586788 M 422.7588964414235 175.58844638670473 L 422.7588964414235 177.33927175872023 M 431.65533786485406 167.206016044913 L 431.65533786485406 172.4408682754111 M 431.65533786485406 174.50222491586788 L 431.65533786485406 177.78058661222667 M 458.34466213514594 163.83275650329352 L 458.34466213514594 169.52256016842375 M 458.34466213514594 188.2961450740841 L 458.34466213514594 190.75017145409018 M 467.2411035585766 165.95918595192907 L 467.2411035585766 168.37963922869582 M 467.2411035585766 169.52256016842375 L 467.2411035585766 173.00355667554507 M 476.13754498200717 157.5168662977081 L 476.13754498200717 157.64374232443902 M 476.13754498200717 168.38163288090718 L 476.13754498200717 171.27848929010034 M 485.0339864054379 150.7384487790874 L 485.0339864054379 152.6671876744446 M 485.0339864054379 157.64366257835056 L 485.0339864054379 159.50142745498334 M 493.93042782886846 143.57725003588575 L 493.93042782886846 143.71265889408127 M 493.93042782886846 152.64031324263544 L 493.93042782886846 155.91301296671398 M 502.82686925229905 102.4920652641988 L 502.82686925229905 128.90715960382147 M 502.82686925229905 143.71265889408127 L 502.82686925229905 145.11012934815548 M 511.7233106757297 110.5256064690027 L 511.7233106757297 111.20137482256494 M 511.7233106757297 128.87741431282797 L 511.7233106757297 135.72226032313117 M 520.6197520991603 99.70095216829615 L 520.6197520991603 106.72211678017196 M 520.6197520991603 111.21142282971022 L 520.6197520991603 116.67091979138424 M 538.4126349460215 88.40324407087834 L 538.4126349460215 89.28316241088375 M 538.4126349460215 106.73064961163658 L 538.4126349460215 120.32943109140496 M 582.8948420631747 107.12004976155917 L 582.8948420631747 109.0856313497823 M 582.8948420631747 121.17625480470183 L 582.8948420631747 126.74635959106209 M 591.7912834866053 96.1123781878499 L 591.7912834866053 100.00031898435384 M 591.7912834866053 109.08571109587078 L 591.7912834866053 128.1487743026205 M 600.687724910036 79.82479784366578 L 600.687724910036 84.25517153383626 M 600.687724910036 100.00031898435384 L 600.687724910036 108.04350946586071 M 609.5841663334666 69.39743855563887 L 609.5841663334666 70.41388219907813 M 609.5841663334666 84.25517153383626 L 609.5841663334666 87.36893730362524 M 627.3770491803277 55.40877844941707 L 627.3770491803277 57.009681175138354 M 627.3770491803277 76.61956331041964 L 627.3770491803277 84.71666214772166 M 662.9628148740503 43.990334774079344 L 662.9628148740503 44.67615113478686 M 662.9628148740503 71.78934273273902 L 662.9628148740503 73.2460645305348 M 707.4450219912034 59.03044705657189 L 707.4450219912034 69.35525287484649 M 707.4450219912034 69.42973572146289 L 707.4450219912034 73.3585862613439 M 716.3414634146341 50.792676119236376 L 716.3414634146341 52.96480007655623 M 716.3414634146341 69.40246255921147 L 716.3414634146341 75.5562289669692 M 725.2379048380647 32.05242507854993 L 725.2379048380647 32.5350484058757 M 725.2379048380647 52.96480007655623 L 725.2379048380647 54.062345491953664 M 743.0307876849259 31.119316097545436 L 743.0307876849259 33.19893459225827 M 743.0307876849259 36.527057847812614 L 743.0307876849259 42.68249892342783 M 751.9272291083566 23.1447072521093 L 751.9272291083566 31.20823298617205 M 751.9272291083566 33.19893459225827 L 751.9272291083566 34.87535686374585 M 769.7201119552178 32.99893140241471 L 769.7201119552178 35.319383084259755 M 769.7201119552178 45.68087210322332 L 769.7201119552178 50.0488046061341 M 787.512994802079 33.91098741606726 L 787.512994802079 34.54919536196749 M 787.512994802079 52.30099363626215 L 787.512994802079 56.255283178360116 M 823.0987604958016 41.118598382749326 L 823.0987604958016 50.25127992471971 M 823.0987604958016 51.19212427630424 L 823.0987604958016 53.4482208647666 M 831.9952019192323 33.86258154037546 L 831.9952019192323 36.61764940429677 M 831.9952019192323 50.25127992471971 L 831.9952019192323 54.9474473277086 M 840.8916433426629 23.54240099523122 L 840.8916433426629 33.13976299462513 M 840.8916433426629 36.61772915038517 L 840.8916433426629 38.42357932343424 M 849.7880847660936 19.15740282939126 L 849.7880847660936 27.13886983843446 M 849.7880847660936 33.13984274071359 L 849.7880847660936 40.554554299111686 M 867.5809676129546 11.980254868498719 L 867.5809676129546 13.121580886457565 M 867.5809676129546 27.789597920222008 L 867.5809676129546 31.51804653981725 M 876.4774090363853 4.96259908451492 L 876.4774090363853 5.888451171470052 M 876.4774090363853 13.121580886457565 L 876.4774090363853 19.40198408268074" style="stroke-width: 1px;"></path><path class="candle wick down" d="M 13.522590963614554 123.66616692451238 L 13.522590963614554 128.77781144834847 M 13.522590963614554 133.24941386624988 L 13.522590963614554 141.44005486530887 M 40.21191523390643 112.54748879567458 L 40.21191523390643 112.88473500374809 M 40.21191523390643 132.16558477806666 L 40.21191523390643 142.32404025582545 M 49.10835665733706 123.42541348346865 L 49.10835665733706 132.16438858673982 M 49.10835665733706 142.65857509689152 L 49.10835665733706 148.34606612545656 M 66.90123950419832 131.59938755004066 L 66.90123950419832 140.40088358666011 M 66.90123950419832 158.29207802357294 L 66.90123950419832 160.30797939361076 M 75.79768092762893 154.18340005422732 L 75.79768092762893 158.2588239046875 M 75.79768092762893 159.6635512528111 L 75.79768092762893 178.64957973811386 M 93.5905637744902 118.9117848769518 L 93.5905637744902 127.70737970302555 M 93.5905637744902 133.38793282189508 L 93.5905637744902 140.51500023923828 M 111.38344662135144 127.10465876648753 L 111.38344662135144 128.15451602098915 M 111.38344662135144 142.3961307197882 L 111.38344662135144 149.93811703535943 M 138.07277089164333 96.27187036475861 L 138.07277089164333 102.76096907446693 M 138.07277089164333 105.72943747109204 L 138.07277089164333 110.81436705529593 M 146.96921231507397 102.67436482240548 L 146.96921231507397 105.73135137721495 M 146.96921231507397 120.04409958691525 L 146.96921231507397 121.90218344790188 M 155.8656537385046 110.38788497424204 L 155.8656537385046 120.04417933300373 M 155.8656537385046 122.08591843570073 L 155.8656537385046 127.89119443691288 M 164.7620951619352 121.2097481618527 L 164.7620951619352 122.08591843570073 M 164.7620951619352 140.213241040527 L 164.7620951619352 145.7201071787429 M 173.65853658536582 135.1321392685689 L 173.65853658536582 140.20813729086586 M 173.65853658536582 142.89366656565494 L 173.65853658536582 148.31799550232063 M 191.4514194322271 140.77018772229223 L 191.4514194322271 141.96502336560394 M 191.4514194322271 173.79360117386244 L 191.4514194322271 176.64611875787494 M 227.0371851259496 142.76383993365127 L 227.0371851259496 149.43794956857366 M 227.0371851259496 173.9888195983987 L 227.0371851259496 176.45656230561892 M 253.72650939624148 144.37702355699454 L 253.72650939624148 149.12367023397505 M 253.72650939624148 150.77919903028757 L 253.72650939624148 155.82050750410693 M 271.51939224310274 137.9790746263896 L 271.51939224310274 139.48053397980829 M 271.51939224310274 146.3922869583247 L 271.51939224310274 154.58579881656803 M 280.4158336665334 146.29204612513757 L 280.4158336665334 146.3922869583247 M 280.4158336665334 158.6756567090384 L 280.4158336665334 165.00502400357263 M 316.0015993602559 144.4083637697571 L 316.0015993602559 144.45342030973384 M 316.0015993602559 157.1967654986523 L 316.0015993602559 161.69914990669707 M 333.7944822071172 146.27992471969253 L 333.7944822071172 152.97117976363262 M 333.7944822071172 155.82529226941418 L 333.7944822071172 156.49795052552676 M 342.6909236305478 155.28684668017036 L 342.6909236305478 155.82537201550264 M 342.6909236305478 163.69152618064086 L 342.6909236305478 170.06092601157914 M 360.483806477409 152.6364056843012 L 360.483806477409 156.19459640504635 M 360.483806477409 158.6901704971371 L 360.483806477409 162.66224341696042 M 378.2766893242703 149.3155393227962 L 378.2766893242703 152.6603295108375 M 378.2766893242703 162.0095216829615 L 378.2766893242703 165.4249669053733 M 387.1731307477009 159.9889950397933 L 387.1731307477009 162.00704955421935 M 387.1731307477009 164.8553405955438 L 387.1731307477009 169.06210625368826 M 404.9660135945622 161.22306575862456 L 404.9660135945622 164.13555240115474 M 404.9660135945622 171.63192395413006 L 404.9660135945622 177.58895676167086 M 413.86245501799283 168.68785786057194 L 413.86245501799283 171.6758640488684 M 413.86245501799283 175.5883666406163 L 413.86245501799283 178.49008756120514 M 440.5517792882847 171.48040638606676 L 440.5517792882847 172.44078852932265 M 440.5517792882847 179.92830826647952 L 440.5517792882847 183.3750139555655 M 449.44822071171535 178.1466211582322 L 449.44822071171535 179.92830826647952 M 449.44822071171535 188.29606532799568 L 449.44822071171535 192.38185616995486 M 529.5161935225909 101.77435046810956 L 529.5161935225909 106.7220370340835 M 529.5161935225909 106.74667857541587 L 529.5161935225909 113.25778720553758 M 547.3090763694522 87.35625767556104 L 547.3090763694522 89.28324215697221 M 547.3090763694522 95.22057768066476 L 547.3090763694522 98.90229509242572 M 556.2055177928828 86.15209173990017 L 556.2055177928828 95.22049793457634 M 556.2055177928828 108.11065567233926 L 556.2055177928828 111.4873442957623 M 565.1019592163135 103.05020813729087 L 565.1019592163135 108.07213831161584 M 565.1019592163135 113.67390229509245 L 565.1019592163135 117.32483771671001 M 573.998400639744 108.63251407518463 L 573.998400639744 113.68155791958405 M 573.998400639744 121.17617505861337 L 573.998400639744 125.68198854846172 M 618.4806077568971 64.53292715992282 L 618.4806077568971 70.41388219907813 M 618.4806077568971 76.61948356433118 L 618.4806077568971 80.87290068422146 M 636.2734906037584 53.4482208647666 L 636.2734906037584 57.04580615320819 M 636.2734906037584 62.33998947351637 L 636.2734906037584 70.27895181741337 M 645.169932027189 53.10156461825548 L 645.169932027189 62.33990972742788 M 645.169932027189 62.930030781990155 L 645.169932027189 64.28459784047595 M 654.0663734506197 57.29102537520535 L 654.0663734506197 62.93266240290919 M 654.0663734506197 71.79779581811513 L 654.0663734506197 76.81382478189447 M 671.8592562974809 41.93288569195684 L 671.8592562974809 44.67623088087532 M 671.8592562974809 50.509497759134916 L 671.8592562974809 59.26147147482419 M 680.7556977209116 48.08713057624527 L 680.7556977209116 50.509577505223376 M 680.7556977209116 51.264613470709264 L 680.7556977209116 63.017751479289956 M 689.6521391443422 42.651956171549784 L 689.6521391443422 51.264613470709264 M 689.6521391443422 59.817620695704875 L 689.6521391443422 61.74181406402016 M 698.5485805677728 49.779900795865984 L 698.5485805677728 59.817540949616415 M 698.5485805677728 69.42973572146289 L 698.5485805677728 71.98121182156015 M 734.1343462614954 29.06952263991454 L 734.1343462614954 32.5350484058757 M 734.1343462614954 36.52713759390102 L 734.1343462614954 41.31086620201282 M 760.8236705317872 28.24845691318842 L 760.8236705317872 31.20823298617205 M 760.8236705317872 45.68087210322332 L 760.8236705317872 46.271072903874085 M 778.6165533786485 32.29285953523984 L 778.6165533786485 35.319383084259755 M 778.6165533786485 52.30091389017369 L 778.6165533786485 57.03679484521288 M 796.4094362255097 32.7222124754781 L 796.4094362255097 34.54919536196749 M 796.4094362255097 35.9411633359384 L 796.4094362255097 40.314997049394776 M 805.3058776489403 30.064514585559635 L 805.3058776489403 35.9411633359384 M 805.3058776489403 36.95808545590839 L 805.3058776489403 44.97487998213688 M 814.202319072371 35.99491219955661 L 814.202319072371 36.958005709819986 M 814.202319072371 51.19212427630424 L 814.202319072371 52.228105711414884 M 858.6845261895241 22.860093462415676 L 858.6845261895241 27.147960892518256 M 858.6845261895241 27.804749677028383 L 858.6845261895241 32.15601524745213 M 885.3738504598159 3.846153846153868 L 885.3738504598159 5.870109571125596 M 885.3738504598159 53.567042536563605 L 885.3738504598159 84.20588845117148" style="stroke-width: 1px;"></path><path class="candle wick equal" style="stroke-width: 1px;"></path></g></g><g class="x axis" transform="translate(0,200)" fill="none" font-size="10" font-family="sans-serif" text-anchor="middle"><path class="domain" stroke="#000" d="M0.5,6V0.5H890.5V6"></path><g class="tick" opacity="1" transform="translate(4.626149540183927,0)"><line stroke="#000" y2="6" x1="0.5" x2="0.5"></line><text fill="#000" y="9" x="0.5" dy="0.71em">May 31</text></g><g class="tick" opacity="1" transform="translate(66.90123950419832,0)"><line stroke="#000" y2="6" x1="0.5" x2="0.5"></line><text fill="#000" y="9" x="0.5" dy="0.71em">Jun  7</text></g><g class="tick" opacity="1" transform="translate(129.1763294682127,0)"><line stroke="#000" y2="6" x1="0.5" x2="0.5"></line><text fill="#000" y="9" x="0.5" dy="0.71em">Jun 14</text></g><g class="tick" opacity="1" transform="translate(191.4514194322271,0)"><line stroke="#000" y2="6" x1="0.5" x2="0.5"></line><text fill="#000" y="9" x="0.5" dy="0.71em">Jun 21</text></g><g class="tick" opacity="1" transform="translate(253.72650939624148,0)"><line stroke="#000" y2="6" x1="0.5" x2="0.5"></line><text fill="#000" y="9" x="0.5" dy="0.71em">Jun 28</text></g><g class="tick" opacity="1" transform="translate(316.0015993602559,0)"><line stroke="#000" y2="6" x1="0.5" x2="0.5"></line><text fill="#000" y="9" x="0.5" dy="0.71em">Jul  5</text></g><g class="tick" opacity="1" transform="translate(378.2766893242703,0)"><line stroke="#000" y2="6" x1="0.5" x2="0.5"></line><text fill="#000" y="9" x="0.5" dy="0.71em">Jul 12</text></g><g class="tick" opacity="1" transform="translate(440.5517792882847,0)"><line stroke="#000" y2="6" x1="0.5" x2="0.5"></line><text fill="#000" y="9" x="0.5" dy="0.71em">Jul 19</text></g><g class="tick" opacity="1" transform="translate(502.82686925229905,0)"><line stroke="#000" y2="6" x1="0.5" x2="0.5"></line><text fill="#000" y="9" x="0.5" dy="0.71em">Jul 26</text></g><g class="tick" opacity="1" transform="translate(565.1019592163135,0)"><line stroke="#000" y2="6" x1="0.5" x2="0.5"></line><text fill="#000" y="9" x="0.5" dy="0.71em">Aug  2</text></g><g class="tick" opacity="1" transform="translate(627.3770491803277,0)"><line stroke="#000" y2="6" x1="0.5" x2="0.5"></line><text fill="#000" y="9" x="0.5" dy="0.71em">Aug  9</text></g><g class="tick" opacity="1" transform="translate(689.6521391443422,0)"><line stroke="#000" y2="6" x1="0.5" x2="0.5"></line><text fill="#000" y="9" x="0.5" dy="0.71em">Aug 16</text></g><g class="tick" opacity="1" transform="translate(751.9272291083566,0)"><line stroke="#000" y2="6" x1="0.5" x2="0.5"></line><text fill="#000" y="9" x="0.5" dy="0.71em">Aug 23</text></g><g class="tick" opacity="1" transform="translate(814.202319072371,0)"><line stroke="#000" y2="6" x1="0.5" x2="0.5"></line><text fill="#000" y="9" x="0.5" dy="0.71em">Aug 30</text></g><g class="tick" opacity="1" transform="translate(876.4774090363853,0)"><line stroke="#000" y2="6" x1="0.5" x2="0.5"></line><text fill="#000" y="9" x="0.5" dy="0.71em">Sep  6</text></g></g><g class="y axis" fill="none" font-size="10" font-family="sans-serif" text-anchor="end"><path class="domain" stroke="#000" d="M-6,200.5H0.5V0.5H-6"></path><g class="tick" opacity="1" transform="translate(0,186.62418858355)"><line stroke="#000" x2="-6" y1="0.5" y2="0.5"></line><text fill="#000" x="-9" y="0.5" dy="0.32em">30,000</text></g><g class="tick" opacity="1" transform="translate(0,170.67497089267772)"><line stroke="#000" x2="-6" y1="0.5" y2="0.5"></line><text fill="#000" x="-9" y="0.5" dy="0.32em">32,000</text></g><g class="tick" opacity="1" transform="translate(0,154.72575320180545)"><line stroke="#000" x2="-6" y1="0.5" y2="0.5"></line><text fill="#000" x="-9" y="0.5" dy="0.32em">34,000</text></g><g class="tick" opacity="1" transform="translate(0,138.7765355109332)"><line stroke="#000" x2="-6" y1="0.5" y2="0.5"></line><text fill="#000" x="-9" y="0.5" dy="0.32em">36,000</text></g><g class="tick" opacity="1" transform="translate(0,122.82731782006094)"><line stroke="#000" x2="-6" y1="0.5" y2="0.5"></line><text fill="#000" x="-9" y="0.5" dy="0.32em">38,000</text></g><g class="tick" opacity="1" transform="translate(0,106.87810012918868)"><line stroke="#000" x2="-6" y1="0.5" y2="0.5"></line><text fill="#000" x="-9" y="0.5" dy="0.32em">40,000</text></g><g class="tick" opacity="1" transform="translate(0,90.9288824383164)"><line stroke="#000" x2="-6" y1="0.5" y2="0.5"></line><text fill="#000" x="-9" y="0.5" dy="0.32em">42,000</text></g><g class="tick" opacity="1" transform="translate(0,74.97966474744415)"><line stroke="#000" x2="-6" y1="0.5" y2="0.5"></line><text fill="#000" x="-9" y="0.5" dy="0.32em">44,000</text></g><g class="tick" opacity="1" transform="translate(0,59.03044705657189)"><line stroke="#000" x2="-6" y1="0.5" y2="0.5"></line><text fill="#000" x="-9" y="0.5" dy="0.32em">46,000</text></g><g class="tick" opacity="1" transform="translate(0,43.08122936569961)"><line stroke="#000" x2="-6" y1="0.5" y2="0.5"></line><text fill="#000" x="-9" y="0.5" dy="0.32em">48,000</text></g><g class="tick" opacity="1" transform="translate(0,27.132011674827368)"><line stroke="#000" x2="-6" y1="0.5" y2="0.5"></line><text fill="#000" x="-9" y="0.5" dy="0.32em">50,000</text></g><g class="tick" opacity="1" transform="translate(0,11.182793983955122)"><line stroke="#000" x2="-6" y1="0.5" y2="0.5"></line><text fill="#000" x="-9" y="0.5" dy="0.32em">52,000</text></g><text transform="rotate(-90)" y="6" dy=".71em" style="text-anchor: end;">Price ($)</text></g></g></svg>