<?xml version="1.0" encoding="utf-8"?>
<!DOCTYPE svg PUBLIC "-//W3C//DTD SVG 1.1//EN" "http://www.w3.org/Graphics/SVG/1.1/DTD/svg11.dtd">
<svg version="1.1" xmlns="http://www.w3.org/2000/svg" width="960" height="250"><g transform="translate(50,20)"><style>.axis path,.axis line{fill:none;stroke:#000;shape-rendering:crispEdges;}path.candle{stroke:#000000;}path.candle.body{stroke-width:0;}path.candle.up{fill:#00AA00;stroke:#00AA00;}path.candle.down{fill:#FF0000;stroke:#FF0000;}</style><g class="candlestick"><g class="data"><path class="candle body up" d="M 9.964014394242305 161.22712651598422 l 7.1171531387445 0 L 17.081167532986804 159.30982754424502 l -7.1171531387445 0 L 9.964014394242305 161.22712651598422 M 27.75689724110356 167.5434082004609 l 7.1171531387445 0 L 34.87405037984806 164.80367073095223 l -7.1171531387445 0 L 27.75689724110356 167.5434082004609 M 45.54978008796481 167.3142825439661 l 7.1171531387445 0 L 52.66693322670931 163.5492269193067 l -7.1171531387445 0 L 45.54978008796481 167.3142825439661 M 63.342662934826066 164.71918543453566 l 7.1171531387445 0 L 70.45981607357056 160.01942740348983 l -7.1171531387445 0 L 63.342662934826066 164.71918543453566 M 81.13554578168731 161.20049736359897 l 7.1171531387445 0 L 88.25269892043181 155.98080034281492 l -7.1171531387445 0 L 81.13554578168731 161.20049736359897 M 107.82487005197919 190.15194172882434 l 7.1171531387445 0 L 114.94202319072369 184.2521476507187 l -7.1171531387445 0 L 107.82487005197919 190.15194172882434 M 125.61775289884046 189.6078640829671 l 7.1171531387445 0 L 132.73490603758498 187.89306161533742 l -7.1171531387445 0 L 125.61775289884046 189.6078640829671 M 134.51419432227107 187.89900049104926 l 7.1171531387445 0 L 141.63134746101557 185.64701713645346 l -7.1171531387445 0 L 134.51419432227107 187.89900049104926 M 152.30707716913233 190.3747453563356 l 7.1171531387445 0 L 159.42423030787683 188.60189516803877 l -7.1171531387445 0 L 152.30707716913233 190.3747453563356 M 161.20351859256294 188.60017097831596 l 7.1171531387445 0 L 168.32067173130744 186.3476128938126 l -7.1171531387445 0 L 161.20351859256294 188.60017097831596 M 170.09996001599356 186.34780447044847 l 7.1171531387445 0 L 177.21711315473806 185.37018889762822 l -7.1171531387445 0 L 170.09996001599356 186.34780447044847 M 178.9964014394242 185.37018889762822 l 7.1171531387445 0 L 186.1135545781687 184.35425799763487 l -7.1171531387445 0 L 178.9964014394242 185.37018889762822 M 196.78928428628546 186.42481827806628 l 7.1171531387445 0 L 203.90643742502996 179.93171135868602 l -7.1171531387445 0 L 196.78928428628546 186.42481827806628 M 205.68572570971608 179.93171135868602 l 7.1171531387445 0 L 212.80287884846058 177.7565502350722 l -7.1171531387445 0 L 205.68572570971608 179.93171135868602 M 214.5821671331467 177.75808284815915 l 7.1171531387445 0 L 221.6993202718912 174.52465238802577 l -7.1171531387445 0 L 214.5821671331467 177.75808284815915 M 241.2714914034386 174.919491834544 l 7.1171531387445 0 L 248.3886445421831 172.09852587142848 l -7.1171531387445 0 L 241.2714914034386 174.919491834544 M 267.9608156737305 184.8082946246355 l 7.1171531387445 0 L 275.07796881247504 182.65516481414613 l -7.1171531387445 0 L 267.9608156737305 184.8082946246355 M 285.7536985205918 188.17544557660278 l 7.1171531387445 0 L 292.8708516593363 178.69508417417597 l -7.1171531387445 0 L 285.7536985205918 188.17544557660278 M 303.54658136745303 179.6481779376055 l 7.1171531387445 0 L 310.66373450619756 178.84298133706392 l -7.1171531387445 0 L 303.54658136745303 179.6481779376055 M 312.4430227908837 178.8431729136998 l 7.1171531387445 0 L 319.5601759296282 177.96843399433916 l -7.1171531387445 0 L 312.4430227908837 178.8431729136998 M 330.23590563774496 179.46541382699004 l 7.1171531387445 0 L 337.3530587764895 176.69962193500373 l -7.1171531387445 0 L 330.23590563774496 179.46541382699004 M 374.7181127548981 182.41646032585808 l 7.1171531387445 0 L 381.8352658936426 180.03018174952078 l -7.1171531387445 0 L 374.7181127548981 182.41646032585808 M 383.61455417832866 180.03037332615662 l 7.1171531387445 0 L 390.7317073170732 177.6243623563252 l -7.1171531387445 0 L 383.61455417832866 180.03037332615662 M 401.40743702518995 181.31336205654608 l 7.1171531387445 0 L 408.5245901639345 180.03477958878153 l -7.1171531387445 0 L 401.40743702518995 181.31336205654608 M 410.3038784486206 180.03458801214566 l 7.1171531387445 0 L 417.4210315873651 175.0694963404265 l -7.1171531387445 0 L 410.3038784486206 180.03458801214566 M 419.20031987205124 175.07198683669273 l 7.1171531387445 0 L 426.31747301079577 172.67344735566004 l -7.1171531387445 0 L 419.20031987205124 175.07198683669273 M 428.0967612954818 172.67344735566004 l 7.1171531387445 0 L 435.21391443422635 168.0261813228413 l -7.1171531387445 0 L 428.0967612954818 172.67344735566004 M 436.99320271891247 168.0261813228413 l 7.1171531387445 0 L 444.110355857657 166.57403042298284 l -7.1171531387445 0 L 436.99320271891247 168.0261813228413 M 445.8896441423431 166.57403042298284 l 7.1171531387445 0 L 453.00679728108764 163.52355565010077 l -7.1171531387445 0 L 445.8896441423431 166.57403042298284 M 472.57896841263494 165.63779540350947 l 7.1171531387445 0 L 479.69612155137946 163.96667240885702 l -7.1171531387445 0 L 472.57896841263494 165.63779540350947 M 490.3718512594962 167.52769891631996 l 7.1171531387445 0 L 497.48900439824075 166.74300101581593 l -7.1171531387445 0 L 490.3718512594962 167.52769891631996 M 499.2682926829268 166.74089367282147 l 7.1171531387445 0 L 506.38544582167134 164.00460458275836 l -7.1171531387445 0 L 499.2682926829268 166.74089367282147 M 508.16473410635746 164.00460458275836 l 7.1171531387445 0 L 515.281887245102 159.2471819843171 l -7.1171531387445 0 L 508.16473410635746 164.00460458275836 M 517.0611755297881 159.24737356095298 l 7.1171531387445 0 L 524.1783286685326 156.21030915258146 l -7.1171531387445 0 L 517.0611755297881 159.24737356095298 M 525.9576169532187 156.2101175759456 l 7.1171531387445 0 L 533.0747700919632 139.52455889862748 l -7.1171531387445 0 L 525.9576169532187 156.2101175759456 M 534.8540583766493 139.52858200798065 l 7.1171531387445 0 L 541.9712115153937 135.9313475163392 l -7.1171531387445 0 L 534.8540583766493 139.52858200798065 M 552.6469412235106 136.80225490298255 l 7.1171531387445 0 L 559.764094362255 133.18777851411323 l -7.1171531387445 0 L 552.6469412235106 136.80225490298255 M 570.4398240703717 134.76043111793092 l 7.1171531387445 0 L 577.5569772091162 134.3284258040548 l -7.1171531387445 0 L 570.4398240703717 134.76043111793092 M 579.3362654938024 134.32919211059829 l 7.1171531387445 0 L 586.4534186325469 123.14073342279708 l -7.1171531387445 0 L 579.3362654938024 134.32919211059829 M 597.1291483406637 130.22466268718574 l 7.1171531387445 0 L 604.2463014794082 126.59811697025688 l -7.1171531387445 0 L 597.1291483406637 130.22466268718574 M 606.0255897640943 126.59830854689275 l 7.1171531387445 0 L 613.1427429028388 124.59805689182389 l -7.1171531387445 0 L 606.0255897640943 126.59830854689275 M 614.9220311875249 124.59805689182389 l 7.1171531387445 0 L 622.0391843262694 120.17455236969572 l -7.1171531387445 0 L 614.9220311875249 124.59805689182389 M 641.6113554578168 124.7986376295748 l 7.1171531387445 0 L 648.7285085965613 115.7198208559215 l -7.1171531387445 0 L 641.6113554578168 124.7986376295748 M 650.5077968812475 115.7198208559215 l 7.1171531387445 0 L 657.624950019992 113.4117055470172 l -7.1171531387445 0 L 650.5077968812475 115.7198208559215 M 659.4042383046781 113.4117055470172 l 7.1171531387445 0 L 666.5213914434225 85.709532424269 l -7.1171531387445 0 L 659.4042383046781 113.4117055470172 M 686.09356257497 100.4938845672606 l 7.1171531387445 0 L 693.2107157137144 87.91113112363223 l -7.1171531387445 0 L 686.09356257497 100.4938845672606 M 712.7828868452618 91.31908789903885 l 7.1171531387445 0 L 719.9000399840063 83.9044973611468 l -7.1171531387445 0 L 712.7828868452618 91.31908789903885 M 721.6793282686924 83.90430578451094 l 7.1171531387445 0 L 728.7964814074369 72.26391781270365 l -7.1171531387445 0 L 721.6793282686924 83.90430578451094 M 730.5757696921231 72.26410938933951 l 7.1171531387445 0 L 737.6929228308676 71.71141079486833 l -7.1171531387445 0 L 730.5757696921231 72.26410938933951 M 757.265093962415 78.67905304128678 l 7.1171531387445 0 L 764.3822471011595 64.18493950163102 l -7.1171531387445 0 L 757.265093962415 78.67905304128678 M 766.1615353858456 64.19432675678837 l 7.1171531387445 0 L 773.27868852459 46.06542970486163 l -7.1171531387445 0 L 766.1615353858456 64.19432675678837 M 775.0579768092763 46.06542970486163 l 7.1171531387445 0 L 782.1751299480208 43.828964057770975 l -7.1171531387445 0 L 775.0579768092763 46.06542970486163 M 783.9544182327068 43.79773706612491 l 7.1171531387445 0 L 791.0715713714512 43.31745444001078 l -7.1171531387445 0 L 783.9544182327068 43.79773706612491 M 792.8508596561375 43.31764601664662 l 7.1171531387445 0 L 799.9680127948819 26.978841050244625 l -7.1171531387445 0 L 792.8508596561375 43.31764601664662 M 801.747301079568 26.979032626880468 l 7.1171531387445 0 L 808.8644542183125 26.056782701825256 l -7.1171531387445 0 L 801.747301079568 26.979032626880468 M 828.43662534986 32.48973455754384 l 7.1171531387445 0 L 835.5537784886045 17.316864997017603 l -7.1171531387445 0 L 828.43662534986 32.48973455754384 M 864.0223910435824 56.02454112031569 l 7.1171531387445 0 L 871.1395441823269 44.90696578778463 l -7.1171531387445 0 L 864.0223910435824 56.02454112031569 M 872.9188324670131 44.90715736442047 l 7.1171531387445 0 L 880.0359856057576 35.99597014714925 l -7.1171531387445 0 L 872.9188324670131 44.90715736442047 M 881.8152738904437 35.99577857051338 l 7.1171531387445 0 L 888.9324270291881 11.958658068502928 l -7.1171531387445 0 L 881.8152738904437 35.99577857051338"></path><path class="candle body down" d="M 1.0675729708116766 160.93229007338766 l 7.1171531387445 0 L 8.184726109556177 161.22693493934838 l -7.1171531387445 0 L 1.0675729708116766 160.93229007338766 M 18.860455817672932 159.31001912088087 l 7.1171531387445 0 L 25.977608956417434 167.5434082004609 l -7.1171531387445 0 L 18.860455817672932 159.31001912088087 M 36.65333866453418 164.8038623075881 l 7.1171531387445 0 L 43.77049180327868 167.3142825439661 l -7.1171531387445 0 L 36.65333866453418 164.8038623075881 M 54.446221511395436 163.54941849594258 l 7.1171531387445 0 L 61.563374650139934 164.71918543453566 l -7.1171531387445 0 L 54.446221511395436 163.54941849594258 M 72.23910435825668 160.01923582685396 l 7.1171531387445 0 L 79.35625749700118 161.20049736359897 l -7.1171531387445 0 L 72.23910435825668 160.01923582685396 M 90.03198720511796 155.98080034281492 l 7.1171531387445 0 L 97.14914034386246 166.2000728297739 l -7.1171531387445 0 L 90.03198720511796 155.98080034281492 M 98.92842862854857 166.2000728297739 l 7.1171531387445 0 L 106.04558176729307 190.10289811004284 l -7.1171531387445 0 L 98.92842862854857 166.2000728297739 M 116.72131147540982 184.2521476507187 l 7.1171531387445 0 L 123.83846461415432 189.6078640829671 l -7.1171531387445 0 L 116.72131147540982 184.2521476507187 M 143.4106357457017 185.6468255598176 l 7.1171531387445 0 L 150.5277888844462 190.37493693297148 l -7.1171531387445 0 L 143.4106357457017 185.6468255598176 M 187.89284286285485 184.35904741353153 l 7.1171531387445 0 L 195.00999600159935 186.42500985470215 l -7.1171531387445 0 L 187.89284286285485 184.35904741353153 M 223.47860855657734 174.52465238802577 l 7.1171531387445 0 L 230.59576169532184 174.79324283150882 l -7.1171531387445 0 L 223.47860855657734 174.52465238802577 M 232.37504998000796 174.79305125487295 l 7.1171531387445 0 L 239.49220311875246 174.91968341117988 l -7.1171531387445 0 L 232.37504998000796 174.79305125487295 M 250.16793282686922 172.09871744806435 l 7.1171531387445 0 L 257.28508596561375 175.17084038079918 l -7.1171531387445 0 L 250.16793282686922 172.09871744806435 M 259.06437425029986 175.17084038079918 l 7.1171531387445 0 L 266.1815273890444 184.8082946246355 l -7.1171531387445 0 L 259.06437425029986 175.17084038079918 M 276.85725709716115 182.65516481414613 l 7.1171531387445 0 L 283.9744102359057 188.17544557660278 l -7.1171531387445 0 L 276.85725709716115 182.65516481414613 M 294.65013994402244 178.6948925975401 l 7.1171531387445 0 L 301.76729308276697 179.64626217124683 l -7.1171531387445 0 L 294.65013994402244 178.6948925975401 M 321.3394642143143 177.96824241770327 l 7.1171531387445 0 L 328.45661735305885 179.46522225035417 l -7.1171531387445 0 L 321.3394642143143 177.96824241770327 M 339.13234706117555 176.69770616864508 l 7.1171531387445 0 L 346.2495001999201 177.92360506154668 l -7.1171531387445 0 L 339.13234706117555 176.69770616864508 M 348.02878848460614 177.92360506154668 l 7.1171531387445 0 L 355.14594162335067 180.94017076988064 l -7.1171531387445 0 L 348.02878848460614 177.92360506154668 M 356.9252299080368 180.94017076988064 l 7.1171531387445 0 L 364.0423830467813 181.87372371645188 l -7.1171531387445 0 L 356.9252299080368 180.94017076988064 M 365.8216713314674 181.87372371645188 l 7.1171531387445 0 L 372.93882447021196 182.41665190249395 l -7.1171531387445 0 L 365.8216713314674 181.87372371645188 M 392.5109956017593 177.62455393296105 l 7.1171531387445 0 L 399.62814874050383 181.3131704799102 l -7.1171531387445 0 L 392.5109956017593 177.62455393296105 M 454.7860855657737 163.52374722673665 l 7.1171531387445 0 L 461.90323870451823 165.58664444173343 l -7.1171531387445 0 L 454.7860855657737 163.52374722673665 M 463.68252698920435 165.58645286509758 l 7.1171531387445 0 L 470.7996801279489 165.63779540350947 l -7.1171531387445 0 L 463.68252698920435 165.58645286509758 M 481.47540983606564 163.96648083222118 l 7.1171531387445 0 L 488.59256297481016 167.52616630323303 l -7.1171531387445 0 L 481.47540983606564 163.96648083222118 M 543.75049980008 135.9252170639915 l 7.1171531387445 0 L 550.8676529388244 136.80206332634668 l -7.1171531387445 0 L 543.75049980008 135.9252170639915 M 561.5433826469413 133.18777851411323 l 7.1171531387445 0 L 568.6605357856857 134.775948825436 l -7.1171531387445 0 L 561.5433826469413 133.18777851411323 M 588.232706917233 123.14092499943295 l 7.1171531387445 0 L 595.3498600559775 130.22466268718574 l -7.1171531387445 0 L 588.232706917233 123.14092499943295 M 623.8184726109555 120.17455236969572 l 7.1171531387445 0 L 630.9356257497 120.73970344549815 l -7.1171531387445 0 L 623.8184726109555 120.17455236969572 M 632.7149140343862 120.73989502213401 l 7.1171531387445 0 L 639.8320671731307 124.80361862210727 l -7.1171531387445 0 L 632.7149140343862 120.73989502213401 M 668.3006797281087 85.709532424269 l 7.1171531387445 0 L 675.4178328668531 85.90302482649288 l -7.1171531387445 0 L 668.3006797281087 85.709532424269 M 677.1971211515394 85.90283324985701 l 7.1171531387445 0 L 684.3142742902838 100.4938845672606 l -7.1171531387445 0 L 677.1971211515394 85.90283324985701 M 694.9900039984005 87.91113112363223 l 7.1171531387445 0 L 702.107157137145 90.7213687951393 l -7.1171531387445 0 L 694.9900039984005 87.91113112363223 M 703.8864454218311 90.7213687951393 l 7.1171531387445 0 L 711.0035985605756 91.31908789903885 l -7.1171531387445 0 L 703.8864454218311 90.7213687951393 M 739.4722111155537 71.72405485283542 l 7.1171531387445 0 L 746.5893642542982 76.50561610739572 l -7.1171531387445 0 L 739.4722111155537 71.72405485283542 M 748.3686525389844 76.52266642798776 l 7.1171531387445 0 L 755.4858056777289 78.67905304128678 l -7.1171531387445 0 L 748.3686525389844 76.52266642798776 M 810.6437425029987 26.056782701825256 l 7.1171531387445 0 L 817.7608956417432 31.600435813857416 l -7.1171531387445 0 L 810.6437425029987 26.056782701825256 M 819.5401839264293 31.61097252882999 l 7.1171531387445 0 L 826.6573370651738 32.48992613417968 l -7.1171531387445 0 L 819.5401839264293 31.61097252882999 M 837.3330667732906 17.317056573653417 l 7.1171531387445 0 L 844.4502199120351 25.763478872315545 l -7.1171531387445 0 L 837.3330667732906 17.317056573653417 M 846.2295081967213 25.76884301811978 l 7.1171531387445 0 L 853.3466613354658 55.834113944265596 l -7.1171531387445 0 L 846.2295081967213 25.76884301811978 M 855.1259496201519 55.834113944265596 l 7.1171531387445 0 L 862.2431027588964 56.02473269695153 l -7.1171531387445 0 L 855.1259496201519 55.834113944265596"></path><path class="candle body equal"></path><path class="candle wick up" d="M 13.522590963614554 157.84043474715872 L 13.522590963614554 159.30982754424502 M 13.522590963614554 161.22712651598422 L 13.522590963614554 162.4346340518428 M 31.315473810475808 163.31148031419795 L 31.315473810475808 164.80367073095223 M 31.315473810475808 167.5434082004609 L 31.315473810475808 168.96912152456994 M 49.10835665733706 163.24768529445484 L 49.10835665733706 163.5492269193067 M 49.10835665733706 167.3142825439661 L 49.10835665733706 168.33902596920922 M 66.90123950419832 159.8692313209715 L 66.90123950419832 160.01942740348983 M 66.90123950419832 164.71918543453566 L 66.90123950419832 164.86938151705402 M 84.69412235105956 153.51176065978382 L 84.69412235105956 155.98080034281492 M 84.69412235105956 161.20049736359897 L 84.69412235105956 163.77739469262218 M 111.38344662135144 180.78844207427537 L 111.38344662135144 184.2521476507187 M 111.38344662135144 190.15194172882434 L 111.38344662135144 195.18638414272675 M 129.1763294682127 186.15086368877903 L 129.1763294682127 187.89306161533742 M 129.1763294682127 189.6078640829671 L 129.1763294682127 192.89972541703935 M 138.07277089164333 184.9322447080403 L 138.07277089164333 185.64701713645346 M 138.07277089164333 187.89900049104926 L 138.07277089164333 195.19596297452 M 155.8656537385046 186.23017641602723 L 155.8656537385046 188.60189516803877 M 155.8656537385046 190.3747453563356 L 155.8656537385046 193.1650590577127 M 164.7620951619352 183.5413983316587 L 164.7620951619352 186.3476128938126 M 164.7620951619352 188.60017097831596 L 164.7620951619352 191.4443177143712 M 173.65853658536582 185.18416798420304 L 173.65853658536582 185.37018889762822 M 173.65853658536582 186.34780447044847 L 173.65853658536582 188.96972230890003 M 182.55497800879647 183.6444665617542 L 182.55497800879647 184.35425799763487 M 182.55497800879647 185.37018889762822 L 182.55497800879647 187.6430541055333 M 200.34786085565773 178.43300733631233 L 200.34786085565773 179.93171135868602 M 200.34786085565773 186.42481827806628 L 200.34786085565773 188.73331674024232 M 209.24430227908834 174.9838615841947 L 209.24430227908834 177.7565502350722 M 209.24430227908834 179.93171135868602 L 209.24430227908834 181.18251521425015 M 218.14074370251896 171.86192872613492 L 218.14074370251896 174.52465238802577 M 218.14074370251896 177.75808284815915 L 218.14074370251896 180.13382470952388 M 244.83006797281087 170.19923510346058 L 244.83006797281087 172.09852587142848 M 244.83006797281087 174.919491834544 L 244.83006797281087 175.80131908943164 M 271.51939224310274 181.82946951356703 L 271.51939224310274 182.65516481414613 M 271.51939224310274 184.8082946246355 L 271.51939224310274 186.038599780162 M 289.31227508996403 177.56631463565805 L 289.31227508996403 178.69508417417597 M 289.31227508996403 188.17544557660278 L 289.31227508996403 189.14348231762978 M 307.10515793682526 177.07396268148437 L 307.10515793682526 178.84298133706392 M 307.10515793682526 179.6481779376055 L 307.10515793682526 180.45069246524494 M 316.0015993602559 177.49428182057272 L 316.0015993602559 177.96843399433916 M 316.0015993602559 178.8431729136998 L 316.0015993602559 181.405893571669 M 333.7944822071172 176.1812155583524 L 333.7944822071172 176.69962193500373 M 333.7944822071172 179.46541382699004 L 333.7944822071172 180.6194714814422 M 378.2766893242703 179.4508540026643 L 378.2766893242703 180.03018174952078 M 378.2766893242703 182.41646032585808 L 378.2766893242703 182.88007578465192 M 387.1731307477009 177.51343948415922 L 387.1731307477009 177.6243623563252 M 387.1731307477009 180.03037332615662 L 387.1731307477009 181.0070310157976 M 404.9660135945622 179.73821895646213 L 404.9660135945622 180.03477958878153 M 404.9660135945622 181.31336205654608 L 404.9660135945622 182.33791390515333 M 413.86245501799283 174.60147461900772 L 413.86245501799283 175.0694963404265 M 413.86245501799283 180.03458801214566 L 413.86245501799283 182.63983868327693 M 422.7588964414235 171.6389335219878 L 422.7588964414235 172.67344735566004 M 422.7588964414235 175.07198683669273 L 422.7588964414235 176.91955191297703 M 431.65533786485406 164.23717861869875 L 431.65533786485406 168.0261813228413 M 431.65533786485406 172.67344735566004 L 431.65533786485406 172.67593785192628 M 440.5517792882847 165.1184311436788 L 440.5517792882847 166.57403042298284 M 440.5517792882847 168.0261813228413 L 440.5517792882847 169.40974778705998 M 449.44822071171535 159.8498820807491 L 449.44822071171535 163.52355565010077 M 449.44822071171535 166.57403042298284 L 449.44822071171535 170.34847330279962 M 476.13754498200717 161.81679940117743 L 476.13754498200717 163.96667240885702 M 476.13754498200717 165.63779540350947 L 476.13754498200717 168.838274682274 M 493.93042782886846 165.93416445919297 L 493.93042782886846 166.74300101581593 M 493.93042782886846 167.52769891631996 L 493.93042782886846 168.75838722511818 M 502.82686925229905 163.96897132848744 L 502.82686925229905 164.00460458275836 M 502.82686925229905 166.74089367282147 L 502.82686925229905 167.01082515275556 M 511.7233106757297 157.85786822102244 L 511.7233106757297 159.2471819843171 M 511.7233106757297 164.00460458275836 L 511.7233106757297 165.82803100292364 M 520.6197520991603 153.75065672470777 L 520.6197520991603 156.21030915258146 M 520.6197520991603 159.24737356095298 L 520.6197520991603 160.66255017008942 M 529.5161935225909 131.1580240571211 L 529.5161935225909 139.52455889862748 M 529.5161935225909 156.2101175759456 L 529.5161935225909 156.65170172161493 M 538.4126349460215 131.7840965031287 L 538.4126349460215 135.9313475163392 M 538.4126349460215 139.52858200798065 L 538.4126349460215 141.49549932840895 M 556.2055177928828 132.13410701685447 L 556.2055177928828 133.18777851411323 M 556.2055177928828 136.80225490298255 L 556.2055177928828 137.81876053288346 M 573.998400639744 130.7532226255379 L 573.998400639744 134.3284258040548 M 573.998400639744 134.76043111793092 L 573.998400639744 139.83031520946838 M 582.8948420631747 120.20731197442865 L 582.8948420631747 123.14073342279708 M 582.8948420631747 134.32919211059829 L 582.8948420631747 134.9476014911712 M 600.687724910036 123.01161077022392 L 600.687724910036 126.59811697025688 M 600.687724910036 130.22466268718574 L 600.687724910036 136.84612595259566 M 609.5841663334666 122.49301281693674 L 609.5841663334666 124.59805689182389 M 609.5841663334666 126.59830854689275 L 609.5841663334666 133.1251329541853 M 618.4806077568971 114.2548343214601 L 618.4806077568971 120.17455236969572 M 618.4806077568971 124.59805689182389 L 618.4806077568971 127.44488570078121 M 645.169932027189 114.90408754040735 L 645.169932027189 115.7198208559215 M 645.169932027189 124.7986376295748 L 645.169932027189 129.86852172111224 M 654.0663734506197 111.20876581120292 L 654.0663734506197 113.4117055470172 M 654.0663734506197 115.7198208559215 L 654.0663734506197 125.27049088371085 M 662.9628148740503 82.64468940369704 L 662.9628148740503 85.709532424269 M 662.9628148740503 113.4117055470172 L 662.9628148740503 114.3782096749573 M 689.6521391443422 84.56045576234936 L 689.6521391443422 87.91113112363223 M 689.6521391443422 100.4938845672606 L 689.6521391443422 102.68590443483056 M 716.3414634146341 78.5257917325946 L 716.3414634146341 83.9044973611468 M 716.3414634146341 91.31908789903885 L 716.3414634146341 91.78902538681623 M 725.2379048380647 71.32825752313786 L 725.2379048380647 72.26391781270365 M 725.2379048380647 83.90430578451094 L 725.2379048380647 88.57130421082384 M 734.1343462614954 68.65959498553522 L 734.1343462614954 71.71141079486833 M 734.1343462614954 72.26410938933951 L 734.1343462614954 78.7681361769641 M 760.8236705317872 60.99652955092597 L 760.8236705317872 64.18493950163102 M 760.8236705317872 78.67905304128678 L 760.8236705317872 80.46071575483342 M 769.7201119552178 42.24462527916552 L 769.7201119552178 46.06542970486163 M 769.7201119552178 64.19432675678837 L 769.7201119552178 67.54845049751688 M 778.6165533786485 30.403081839699723 L 778.6165533786485 43.828964057770975 M 778.6165533786485 46.06542970486163 L 778.6165533786485 54.58924896441334 M 787.512994802079 36.09539842116334 L 787.512994802079 43.31745444001078 M 787.512994802079 43.79773706612491 L 787.512994802079 52.267340137726734 M 796.4094362255097 23.922235825014837 L 796.4094362255097 26.978841050244625 M 796.4094362255097 43.31764601664662 L 796.4094362255097 44.52017255997271 M 805.3058776489403 21.035559075797522 L 805.3058776489403 26.056782701825256 M 805.3058776489403 26.979032626880468 L 805.3058776489403 33.62827450449083 M 831.9952019192323 12.355796434651523 L 831.9952019192323 17.316864997017603 M 831.9952019192323 32.48973455754384 L 831.9952019192323 39.195108389462774 M 867.5809676129546 41.82947870924551 L 867.5809676129546 44.90696578778463 M 867.5809676129546 56.02454112031569 L 867.5809676129546 61.27316621311536 M 876.4774090363853 32.64222955969257 L 876.4774090363853 35.99597014714925 M 876.4774090363853 44.90715736442047 L 876.4774090363853 48.793097846310815 M 885.3738504598159 3.846153846153868 L 885.3738504598159 11.958658068502928 M 885.3738504598159 35.99577857051338 L 885.3738504598159 35.99597014714925" style="stroke-width: 1px;"></path><path class="candle wick down" d="M 4.626149540183927 159.88704794810695 L 4.626149540183927 160.93229007338766 M 4.626149540183927 161.22693493934838 L 4.626149540183927 163.79406185994247 M 22.41903238704518 158.93337945476983 L 22.41903238704518 159.31001912088087 M 22.41903238704518 167.5434082004609 L 22.41903238704518 171.389883895363 M 40.21191523390643 162.2984230637426 L 40.21191523390643 164.8038623075881 M 40.21191523390643 167.3142825439661 L 40.21191523390643 171.2488834913662 M 58.004798080767685 162.53176340622645 L 58.004798080767685 163.54941849594258 M 58.004798080767685 164.71918543453566 L 58.004798080767685 165.65407941755797 M 75.79768092762893 158.3027091695015 L 75.79768092762893 160.01923582685396 M 75.79768092762893 161.20049736359897 L 75.79768092762893 162.72372319536342 M 93.5905637744902 155.35626050989427 L 93.5905637744902 155.98080034281492 M 93.5905637744902 166.2000728297739 L 93.5905637744902 170.57644949947922 M 102.48700519792082 164.781256264556 L 102.48700519792082 166.2000728297739 M 102.48700519792082 190.10289811004284 L 102.48700519792082 193.55223543879634 M 120.27988804478207 181.96414788858027 L 120.27988804478207 184.2521476507187 M 120.27988804478207 189.6078640829671 L 120.27988804478207 196.15384615384616 M 146.96921231507397 184.41019837530752 L 146.96921231507397 185.6468255598176 M 146.96921231507397 190.37493693297148 L 146.96921231507397 195.6749045641831 M 191.4514194322271 181.68770280302672 L 191.4514194322271 184.35904741353153 M 191.4514194322271 186.42500985470215 L 191.4514194322271 188.96972230890003 M 227.0371851259496 172.77268405303826 L 227.0371851259496 174.52465238802577 M 227.0371851259496 174.79324283150882 L 227.0371851259496 178.51289479346815 M 235.93362654938022 172.9150254934861 L 235.93362654938022 174.79305125487295 M 235.93362654938022 174.91968341117988 L 235.93362654938022 177.22913975653523 M 253.72650939624148 172.09871744806435 L 253.72650939624148 172.09871744806435 M 253.72650939624148 175.17084038079918 L 253.72650939624148 178.95026425314845 M 262.6229508196721 173.85700781203542 L 262.6229508196721 175.17084038079918 M 262.6229508196721 184.8082946246355 L 262.6229508196721 187.1238814223385 M 280.4158336665334 182.51071603070378 L 280.4158336665334 182.65516481414613 M 280.4158336665334 188.17544557660278 L 280.4158336665334 190.18010349429656 M 298.2087165133947 178.23127713874624 L 298.2087165133947 178.6948925975401 M 298.2087165133947 179.64626217124683 L 298.2087165133947 182.14499623283706 M 324.89804078368655 174.60147461900772 L 324.89804078368655 177.96824241770327 M 324.89804078368655 179.46522225035417 L 324.89804078368655 180.8085576210412 M 342.6909236305478 176.52988503562713 L 342.6909236305478 176.69770616864508 M 342.6909236305478 177.92360506154668 L 342.6909236305478 180.05891824490055 M 351.5873650539784 175.1762045266034 L 351.5873650539784 177.92360506154668 M 351.5873650539784 180.94017076988064 L 351.5873650539784 184.42935603889404 M 360.483806477409 180.06830550005796 L 360.483806477409 180.94017076988064 M 360.483806477409 181.87372371645188 L 360.483806477409 185.636288844845 M 369.38024790083966 181.2384555919228 L 369.38024790083966 181.87372371645188 M 369.38024790083966 182.41665190249395 L 369.38024790083966 183.2902413620394 M 396.06957217113154 177.47512415698617 L 396.06957217113154 177.62455393296105 M 396.06957217113154 181.3131704799102 L 396.06957217113154 182.74348164328003 M 458.34466213514594 162.97277282198823 L 458.34466213514594 163.52374722673665 M 458.34466213514594 165.58664444173343 L 458.34466213514594 167.89629236372465 M 467.2411035585766 163.14557494753868 L 467.2411035585766 165.58645286509758 M 467.2411035585766 165.63779540350947 L 467.2411035585766 168.27944563545512 M 485.0339864054379 163.27642178983461 L 485.0339864054379 163.96648083222118 M 485.0339864054379 167.52616630323303 L 485.0339864054379 169.81205872237697 M 547.3090763694522 134.79778856192462 L 547.3090763694522 135.9252170639915 M 547.3090763694522 136.80206332634668 L 547.3090763694522 140.690877457775 M 565.1019592163135 128.62308201135238 L 565.1019592163135 133.18777851411323 M 565.1019592163135 134.775948825436 L 565.1019592163135 137.47392258832605 M 591.7912834866053 118.86263556729062 L 591.7912834866053 123.14092499943295 M 591.7912834866053 130.22466268718574 L 591.7912834866053 137.47392258832605 M 627.3770491803277 118.18215535669732 L 627.3770491803277 120.17455236969572 M 627.3770491803277 120.73970344549815 L 627.3770491803277 123.77619312396206 M 636.2734906037584 119.42740348982132 L 636.2734906037584 120.73989502213401 M 636.2734906037584 124.80361862210727 L 636.2734906037584 131.59156198408414 M 671.8592562974809 78.6215800505272 L 671.8592562974809 85.709532424269 M 671.8592562974809 85.90302482649288 L 671.8592562974809 93.83276493822652 M 680.7556977209116 82.57725442787248 L 680.7556977209116 85.90283324985701 M 680.7556977209116 100.4938845672606 L 680.7556977209116 109.57614972035944 M 698.5485805677728 80.92049968090997 L 698.5485805677728 87.91113112363223 M 698.5485805677728 90.7213687951393 L 698.5485805677728 100.73833635462461 M 707.4450219912034 88.20041184378873 L 707.4450219912034 90.7213687951393 M 707.4450219912034 91.31908789903885 L 707.4450219912034 95.6247727901099 M 743.0307876849259 71.5909090909091 L 743.0307876849259 71.72405485283542 M 743.0307876849259 76.50561610739572 L 743.0307876849259 84.1773024906189 M 751.9272291083566 74.40689406149212 L 751.9272291083566 76.52266642798776 M 751.9272291083566 78.67905304128678 L 751.9272291083566 82.17111195983821 M 814.202319072371 25.171698644127872 L 814.202319072371 26.056782701825256 M 814.202319072371 31.600435813857416 L 814.202319072371 46.99495954207973 M 823.0987604958016 24.865176026743484 L 823.0987604958016 31.61097252882999 M 823.0987604958016 32.48992613417968 L 823.0987604958016 39.53994633402016 M 840.8916433426629 11.105950462266776 L 840.8916433426629 17.317056573653417 M 840.8916433426629 25.763478872315545 L 840.8916433426629 29.95594197159025 M 849.7880847660936 22.010109422444003 L 849.7880847660936 25.76884301811978 M 849.7880847660936 55.834113944265596 L 849.7880847660936 74.25363275279994 M 858.6845261895241 49.93067991007857 L 858.6845261895241 55.834113944265596 M 858.6845261895241 56.02473269695153 L 858.6845261895241 69.46268424308221" style="stroke-width: 1px;"></path><path class="candle wick equal" style="stroke-width: 1px;"></path></g></g><g class="x axis" transform="translate(0,200)" fill="none" font-size="10" font-family="sans-serif" text-anchor="middle"><path class="domain" stroke="#000" d="M0.5,6V0.5H890.5V6"></path><g class="tick" opacity="1" transform="translate(13.522590963614554,0)"><line stroke="#000" y2="6" x1="0.5" x2="0.5"></line><text fill="#000" y="9" x="0.5" dy="0.71em">Aug 24</text></g><g class="tick" opacity="1" transform="translate(75.79768092762893,0)"><line stroke="#000" y2="6" x1="0.5" x2="0.5"></line><text fill="#000" y="9" x="0.5" dy="0.71em">Aug 31</text></g><g class="tick" opacity="1" transform="translate(138.07277089164333,0)"><line stroke="#000" y2="6" x1="0.5" x2="0.5"></line><text fill="#000" y="9" x="0.5" dy="0.71em">Sep  7</text></g><g class="tick" opacity="1" transform="translate(200.34786085565773,0)"><line stroke="#000" y2="6" x1="0.5" x2="0.5"></line><text fill="#000" y="9" x="0.5" dy="0.71em">Sep 14</text></g><g class="tick" opacity="1" transform="translate(262.6229508196721,0)"><line stroke="#000" y2="6" x1="0.5" x2="0.5"></line><text fill="#000" y="9" x="0.5" dy="0.71em">Sep 21</text></g><g class="tick" opacity="1" transform="translate(324.89804078368655,0)"><line stroke="#000" y2="6" x1="0.5" x2="0.5"></line><text fill="#000" y="9" x="0.5" dy="0.71em">Sep 28</text></g><g class="tick" opacity="1" transform="translate(387.1731307477009,0)"><line stroke="#000" y2="6" x1="0.5" x2="0.5"></line><text fill="#000" y="9" x="0.5" dy="0.71em">Oct  5</text></g><g class="tick" opacity="1" transform="translate(449.44822071171535,0)"><line stroke="#000" y2="6" x1="0.5" x2="0.5"></line><text fill="#000" y="9" x="0.5" dy="0.71em">Oct 12</text></g><g class="tick" opacity="1" transform="translate(511.7233106757297,0)"><line stroke="#000" y2="6" x1="0.5" x2="0.5"></line><text fill="#000" y="9" x="0.5" dy="0.71em">Oct 19</text></g><g class="tick" opacity="1" transform="translate(573.998400639744,0)"><line stroke="#000" y2="6" x1="0.5" x2="0.5"></line><text fill="#000" y="9" x="0.5" dy="0.71em">Oct 26</text></g><g class="tick" opacity="1" transform="translate(636.2734906037584,0)"><line stroke="#000" y2="6" x1="0.5" x2="0.5"></line><text fill="#000" y="9" x="0.5" dy="0.71em">Nov  2</text></g><g class="tick" opacity="1" transform="translate(698.5485805677728,0)"><line stroke="#000" y2="6" x1="0.5" x2="0.5"></line><text fill="#000" y="9" x="0.5" dy="0.71em">Nov  9</text></g><g class="tick" opacity="1" transform="translate(760.8236705317872,0)"><line stroke="#000" y2="6" x1="0.5" x2="0.5"></line><text fill="#000" y="9" x="0.5" dy="0.71em">Nov 16</text></g><g class="tick" opacity="1" transform="translate(823.0987604958016,0)"><line stroke="#000" y2="6" x1="0.5" x2="0.5"></line><text fill="#000" y="9" x="0.5" dy="0.71em">Nov 23</text></g><g class="tick" opacity="1" transform="translate(885.3738504598159,0)"><line stroke="#000" y2="6" x1="0.5" x2="0.5"></line><text fill="#000" y="9" x="0.5" dy="0.71em">Nov 30</text></g></g><g class="y axis" fill="none" font-size="10" font-family="sans-serif" text-anchor="end"><path class="domain" stroke="#000" d="M-6,200.5H0.5V0.5H-6"></path><g class="tick" opacity="1" transform="translate(0,192.80125502620464)"><line stroke="#000" x2="-6" y1="0.5" y2="0.5"></line><text fill="#000" x="-9" y="0.5" dy="0.32em">10,000</text></g><g class="tick" opacity="1" transform="translate(0,173.6435914396816)"><line stroke="#000" x2="-6" y1="0.5" y2="0.5"></line><text fill="#000" x="-9" y="0.5" dy="0.32em">11,000</text></g><g class="tick" opacity="1" transform="translate(0,154.4859278531585)"><line stroke="#000" x2="-6" y1="0.5" y2="0.5"></line><text fill="#000" x="-9" y="0.5" dy="0.32em">12,000</text></g><g class="tick" opacity="1" transform="translate(0,135.32826426663547)"><line stroke="#000" x2="-6" y1="0.5" y2="0.5"></line><text fill="#000" x="-9" y="0.5" dy="0.32em">13,000</text></g><g class="tick" opacity="1" transform="translate(0,116.1706006801124)"><line stroke="#000" x2="-6" y1="0.5" y2="0.5"></line><text fill="#000" x="-9" y="0.5" dy="0.32em">14,000</text></g><g class="tick" opacity="1" transform="translate(0,97.01293709358933)"><line stroke="#000" x2="-6" y1="0.5" y2="0.5"></line><text fill="#000" x="-9" y="0.5" dy="0.32em">15,000</text></g><g class="tick" opacity="1" transform="translate(0,77.85527350706629)"><line stroke="#000" x2="-6" y1="0.5" y2="0.5"></line><text fill="#000" x="-9" y="0.5" dy="0.32em">16,000</text></g><g class="tick" opacity="1" transform="translate(0,58.697609920543215)"><line stroke="#000" x2="-6" y1="0.5" y2="0.5"></line><text fill="#000" x="-9" y="0.5" dy="0.32em">17,000</text></g><g class="tick" opacity="1" transform="translate(0,39.53994633402016)"><line stroke="#000" x2="-6" y1="0.5" y2="0.5"></line><text fill="#000" x="-9" y="0.5" dy="0.32em">18,000</text></g><g class="tick" opacity="1" transform="translate(0,20.38228274749713)"><line stroke="#000" x2="-6" y1="0.5" y2="0.5"></line><text fill="#000" x="-9" y="0.5" dy="0.32em">19,000</text></g><g class="tick" opacity="1" transform="translate(0,1.2246191609740436)"><line stroke="#000" x2="-6" y1="0.5" y2="0.5"></line><text fill="#000" x="-9" y="0.5" dy="0.32em">20,000</text></g><text transform="rotate(-90)" y="6" dy=".71em" style="text-anchor: end;">Price ($)</text></g></g></svg>