<?xml version="1.0" encoding="utf-8"?>
<!DOCTYPE svg PUBLIC "-//W3C//DTD SVG 1.1//EN" "http://www.w3.org/Graphics/SVG/1.1/DTD/svg11.dtd">
<svg version="1.1" xmlns="http://www.w3.org/2000/svg" width="960" height="250"><g transform="translate(50,20)"><style>.axis path,.axis line{fill:none;stroke:#000;shape-rendering:crispEdges;}path.candle{stroke:#000000;}path.candle.body{stroke-width:0;}path.candle.up{fill:#00AA00;stroke:#00AA00;}path.candle.down{fill:#FF0000;stroke:#FF0000;}</style><g class="candlestick"><g class="data"><path class="candle body up" d="M 9.964014394242305 190.76320966119644 l 7.1171531387445 0 L 17.081167532986804 181.4156336473278 l -7.1171531387445 0 L 9.964014394242305 190.76320966119644 M 18.860455817672932 181.41569530110658 l 7.1171531387445 0 L 25.977608956417434 174.39154194004468 l -7.1171531387445 0 L 18.860455817672932 181.41569530110658 M 27.75689724110356 174.39154194004468 l 7.1171531387445 0 L 34.87405037984806 162.21855820665434 l -7.1171531387445 0 L 27.75689724110356 174.39154194004468 M 36.65333866453418 162.21855820665434 l 7.1171531387445 0 L 43.77049180327868 151.51749678752986 l -7.1171531387445 0 L 36.65333866453418 162.21855820665434 M 54.446221511395436 156.31527054356314 l 7.1171531387445 0 L 61.563374650139934 141.15435972982328 l -7.1171531387445 0 L 54.446221511395436 156.31527054356314 M 90.03198720511796 152.58090116369044 l 7.1171531387445 0 L 97.14914034386246 131.6189863058326 l -7.1171531387445 0 L 90.03198720511796 152.58090116369044 M 134.51419432227107 150.7566275037754 l 7.1171531387445 0 L 141.63134746101557 150.69904287440767 l -7.1171531387445 0 L 134.51419432227107 150.7566275037754 M 143.4106357457017 150.73554191143728 l 7.1171531387445 0 L 150.5277888844462 138.02715676324073 l -7.1171531387445 0 L 143.4106357457017 150.73554191143728 M 152.30707716913233 138.02715676324073 l 7.1171531387445 0 L 159.42423030787683 122.23238345000489 l -7.1171531387445 0 L 152.30707716913233 138.02715676324073 M 170.09996001599356 125.31870996126541 l 7.1171531387445 0 L 177.21711315473806 122.74565115823405 l -7.1171531387445 0 L 170.09996001599356 125.31870996126541 M 178.9964014394242 122.74565115823405 l 7.1171531387445 0 L 186.1135545781687 121.20658787889177 l -7.1171531387445 0 L 178.9964014394242 122.74565115823405 M 196.78928428628546 132.39576226450876 l 7.1171531387445 0 L 203.90643742502996 124.38502513562908 l -7.1171531387445 0 L 196.78928428628546 132.39576226450876 M 214.5821671331467 137.51395070879033 l 7.1171531387445 0 L 221.6993202718912 123.78957294030447 l -7.1171531387445 0 L 214.5821671331467 137.51395070879033 M 250.16793282686922 136.6566549150454 l 7.1171531387445 0 L 257.28508596561375 135.929263633161 l -7.1171531387445 0 L 250.16793282686922 136.6566549150454 M 259.06437425029986 135.929263633161 l 7.1171531387445 0 L 266.1815273890444 125.3887486539439 l -7.1171531387445 0 L 259.06437425029986 135.929263633161 M 267.9608156737305 125.38881030772264 l 7.1171531387445 0 L 275.07796881247504 122.69990405438949 l -7.1171531387445 0 L 267.9608156737305 125.38881030772264 M 276.85725709716115 122.69996570816828 l 7.1171531387445 0 L 283.9744102359057 118.06045720222798 l -7.1171531387445 0 L 276.85725709716115 122.69996570816828 M 294.65013994402244 118.5635520369607 l 7.1171531387445 0 L 301.76729308276697 107.22332589336636 l -7.1171531387445 0 L 294.65013994402244 118.5635520369607 M 303.54658136745303 107.22332589336636 l 7.1171531387445 0 L 310.66373450619756 101.63120485170849 l -7.1171531387445 0 L 303.54658136745303 107.22332589336636 M 330.23590563774496 142.41881707854066 l 7.1171531387445 0 L 337.3530587764895 140.28047906959023 l -7.1171531387445 0 L 330.23590563774496 142.41881707854066 M 348.02878848460614 149.85494098931875 l 7.1171531387445 0 L 355.14594162335067 147.81117987699577 l -7.1171531387445 0 L 348.02878848460614 149.85494098931875 M 356.9252299080368 147.81124153077457 l 7.1171531387445 0 L 364.0423830467813 142.5610523461544 l -7.1171531387445 0 L 356.9252299080368 147.81124153077457 M 374.7181127548981 149.2475279609135 l 7.1171531387445 0 L 381.8352658936426 135.86372566633247 l -7.1171531387445 0 L 374.7181127548981 149.2475279609135 M 383.61455417832866 135.91452838003588 l 7.1171531387445 0 L 390.7317073170732 129.63737220250601 l -7.1171531387445 0 L 383.61455417832866 135.91452838003588 M 410.3038784486206 134.7017985517034 l 7.1171531387445 0 L 417.4210315873651 128.58105801090363 l -7.1171531387445 0 L 410.3038784486206 134.7017985517034 M 445.8896441423431 175.18299149806722 l 7.1171531387445 0 L 453.00679728108764 157.86123904612725 l -7.1171531387445 0 L 445.8896441423431 175.18299149806722 M 454.7860855657737 157.84422260318775 l 7.1171531387445 0 L 461.90323870451823 149.7127673754837 l -7.1171531387445 0 L 454.7860855657737 157.84422260318775 M 481.47540983606564 163.24349062486476 l 7.1171531387445 0 L 488.59256297481016 160.22079081329102 l -7.1171531387445 0 L 481.47540983606564 163.24349062486476 M 508.16473410635746 173.389359766199 l 7.1171531387445 0 L 515.281887245102 170.31117155373565 l -7.1171531387445 0 L 508.16473410635746 173.389359766199 M 517.0611755297881 170.31110989995688 l 7.1171531387445 0 L 524.1783286685326 156.13191220551226 l -7.1171531387445 0 L 517.0611755297881 170.31110989995688 M 525.9576169532187 156.15712860102767 l 7.1171531387445 0 L 533.0747700919632 129.51283156939817 l -7.1171531387445 0 L 525.9576169532187 156.15712860102767 M 543.75049980008 132.6369518470424 l 7.1171531387445 0 L 550.8676529388244 129.15277350140317 l -7.1171531387445 0 L 543.75049980008 132.6369518470424 M 552.6469412235106 129.15277350140317 l 7.1171531387445 0 L 559.764094362255 122.83369275431227 l -7.1171531387445 0 L 552.6469412235106 129.15277350140317 M 561.5433826469413 122.83375440809105 l 7.1171531387445 0 L 568.6605357856857 108.97978039663852 l -7.1171531387445 0 L 561.5433826469413 122.83375440809105 M 570.4398240703717 108.97978039663852 l 7.1171531387445 0 L 577.5569772091162 85.28617156298372 l -7.1171531387445 0 L 570.4398240703717 108.97978039663852 M 588.232706917233 94.71784333108954 l 7.1171531387445 0 L 595.3498600559775 93.69309587421546 l -7.1171531387445 0 L 588.232706917233 94.71784333108954 M 597.1291483406637 93.66695467201858 l 7.1171531387445 0 L 604.2463014794082 87.53826079375789 l -7.1171531387445 0 L 597.1291483406637 93.66695467201858 M 614.9220311875249 89.33059779627199 l 7.1171531387445 0 L 622.0391843262694 71.99145897872 l -7.1171531387445 0 L 614.9220311875249 89.33059779627199 M 632.7149140343862 81.08193873513328 l 7.1171531387445 0 L 639.8320671731307 72.63481616014596 l -7.1171531387445 0 L 632.7149140343862 81.08193873513328 M 650.5077968812475 72.75232826247444 l 7.1171531387445 0 L 657.624950019992 46.090274942560285 l -7.1171531387445 0 L 650.5077968812475 72.75232826247444 M 668.3006797281087 51.003156303550185 l 7.1171531387445 0 L 675.4178328668531 46.97864424080339 l -7.1171531387445 0 L 668.3006797281087 51.003156303550185 M 677.1971211515394 46.97870589458216 l 7.1171531387445 0 L 684.3142742902838 44.009953139428944 l -7.1171531387445 0 L 677.1971211515394 46.97870589458216 M 686.09356257497 44.03609434162584 l 7.1171531387445 0 L 693.2107157137144 30.00992132607911 l -7.1171531387445 0 L 686.09356257497 44.03609434162584 M 694.9900039984005 30.00992132607911 l 7.1171531387445 0 L 702.107157137145 19.400415768422505 l -7.1171531387445 0 L 694.9900039984005 30.00992132607911 M 721.6793282686924 52.15817819495737 l 7.1171531387445 0 L 728.7964814074369 48.46807622823886 l -7.1171531387445 0 L 721.6793282686924 52.15817819495737 M 739.4722111155537 51.14711787696942 l 7.1171531387445 0 L 746.5893642542982 37.4195341119877 l -7.1171531387445 0 L 739.4722111155537 51.14711787696942 M 766.1615353858456 66.1831181349288 l 7.1171531387445 0 L 773.27868852459 52.85079674561766 l -7.1171531387445 0 L 766.1615353858456 66.1831181349288 M 775.0579768092763 52.85073509183886 l 7.1171531387445 0 L 782.1751299480208 42.50640243665603 l -7.1171531387445 0 L 775.0579768092763 52.85073509183886 M 810.6437425029987 50.78397712003607 l 7.1171531387445 0 L 817.7608956417432 36.54892110202928 l -7.1171531387445 0 L 810.6437425029987 50.78397712003607 M 846.2295081967213 50.60481123894135 l 7.1171531387445 0 L 853.3466613354658 47.334509851842284 l -7.1171531387445 0 L 846.2295081967213 50.60481123894135 M 855.1259496201519 47.33444819806351 l 7.1171531387445 0 L 862.2431027588964 36.218456847842106 l -7.1171531387445 0 L 855.1259496201519 47.33444819806351 M 864.0223910435824 36.21851850162082 l 7.1171531387445 0 L 871.1395441823269 10.00179042573538 l -7.1171531387445 0 L 864.0223910435824 36.21851850162082 M 881.8152738904437 13.566365298885842 l 7.1171531387445 0 L 888.9324270291881 5.444897983341917 l -7.1171531387445 0 L 881.8152738904437 13.566365298885842"></path><path class="candle body down" d="M 1.0675729708116766 184.96886422518523 l 7.1171531387445 0 L 8.184726109556177 190.76314800741767 l -7.1171531387445 0 L 1.0675729708116766 184.96886422518523 M 45.54978008796481 151.51749678752986 l 7.1171531387445 0 L 52.66693322670931 156.31520888978437 l -7.1171531387445 0 L 45.54978008796481 151.51749678752986 M 63.342662934826066 141.18228889160437 l 7.1171531387445 0 L 70.45981607357056 145.2753599563393 l -7.1171531387445 0 L 63.342662934826066 141.18228889160437 M 72.23910435825668 145.2752983025605 l 7.1171531387445 0 L 79.35625749700118 145.73153626543086 l -7.1171531387445 0 L 72.23910435825668 145.2752983025605 M 81.13554578168731 145.73357084013017 l 7.1171531387445 0 L 88.25269892043181 152.58743646423963 l -7.1171531387445 0 L 81.13554578168731 145.73357084013017 M 98.92842862854857 131.61904795961135 l 7.1171531387445 0 L 106.04558176729307 136.12889856880616 l -7.1171531387445 0 L 98.92842862854857 131.61904795961135 M 107.82487005197919 136.12896022258496 l 7.1171531387445 0 L 114.94202319072369 136.71269819994396 l -7.1171531387445 0 L 107.82487005197919 136.12896022258496 M 116.72131147540982 136.71269819994396 l 7.1171531387445 0 L 123.83846461415432 143.32525093396225 l -7.1171531387445 0 L 116.72131147540982 136.71269819994396 M 125.61775289884046 143.32518928018348 l 7.1171531387445 0 L 132.73490603758498 150.7566275037754 l -7.1171531387445 0 L 125.61775289884046 143.32518928018348 M 161.20351859256294 122.23238345000489 l 7.1171531387445 0 L 168.32067173130744 125.31877161504416 l -7.1171531387445 0 L 161.20351859256294 122.23238345000489 M 187.89284286285485 121.20658787889177 l 7.1171531387445 0 L 195.00999600159935 132.39576226450876 l -7.1171531387445 0 L 187.89284286285485 121.20658787889177 M 205.68572570971608 124.38502513562908 l 7.1171531387445 0 L 212.80287884846058 137.51388905501156 l -7.1171531387445 0 L 205.68572570971608 124.38502513562908 M 223.47860855657734 123.78957294030447 l 7.1171531387445 0 L 230.59576169532184 124.86573964866966 l -7.1171531387445 0 L 223.47860855657734 123.78957294030447 M 232.37504998000796 124.86573964866966 l 7.1171531387445 0 L 239.49220311875246 125.65194863549706 l -7.1171531387445 0 L 232.37504998000796 124.86573964866966 M 241.2714914034386 125.65188698171833 l 7.1171531387445 0 L 248.3886445421831 136.6566549150454 l -7.1171531387445 0 L 241.2714914034386 125.65188698171833 M 285.7536985205918 118.06748573300735 l 7.1171531387445 0 L 292.8708516593363 118.5752662549263 l -7.1171531387445 0 L 285.7536985205918 118.06748573300735 M 312.4430227908837 101.61702448259227 l 7.1171531387445 0 L 319.5601759296282 137.39144465038174 l -7.1171531387445 0 L 312.4430227908837 101.61702448259227 M 321.3394642143143 137.3616042214589 l 7.1171531387445 0 L 328.45661735305885 142.41881707854066 l -7.1171531387445 0 L 321.3394642143143 137.3616042214589 M 339.13234706117555 140.28047906959023 l 7.1171531387445 0 L 346.2495001999201 149.80124054801328 l -7.1171531387445 0 L 339.13234706117555 140.28047906959023 M 365.8216713314674 142.56111399993316 l 7.1171531387445 0 L 372.93882447021196 149.2474663071347 l -7.1171531387445 0 L 365.8216713314674 142.56111399993316 M 392.5109956017593 129.6374338562848 l 7.1171531387445 0 L 399.62814874050383 132.00234950220124 l -7.1171531387445 0 L 392.5109956017593 129.6374338562848 M 401.40743702518995 132.00241115598 l 7.1171531387445 0 L 408.5245901639345 134.7017985517034 l -7.1171531387445 0 L 401.40743702518995 132.00241115598 M 419.20031987205124 128.58099635712483 l 7.1171531387445 0 L 426.31747301079577 135.0608085054594 l -7.1171531387445 0 L 419.20031987205124 128.58099635712483 M 428.0967612954818 135.0608085054594 l 7.1171531387445 0 L 435.21391443422635 161.11649691120732 l -7.1171531387445 0 L 428.0967612954818 135.0608085054594 M 436.99320271891247 161.1102082257732 l 7.1171531387445 0 L 444.110355857657 175.181203538483 l -7.1171531387445 0 L 436.99320271891247 161.1102082257732 M 463.68252698920435 149.7127673754837 l 7.1171531387445 0 L 470.7996801279489 162.38070764480963 l -7.1171531387445 0 L 463.68252698920435 149.7127673754837 M 472.57896841263494 162.38064599103083 l 7.1171531387445 0 L 479.69612155137946 163.243428971086 l -7.1171531387445 0 L 472.57896841263494 162.38064599103083 M 490.3718512594962 160.22079081329102 l 7.1171531387445 0 L 497.48900439824075 166.46970956014593 l -7.1171531387445 0 L 490.3718512594962 160.22079081329102 M 499.2682926829268 166.46970956014593 l 7.1171531387445 0 L 506.38544582167134 173.37992673804777 l -7.1171531387445 0 L 499.2682926829268 166.46970956014593 M 534.8540583766493 129.51289322317695 l 7.1171531387445 0 L 541.9712115153937 132.63689019326364 l -7.1171531387445 0 L 534.8540583766493 129.51289322317695 M 579.3362654938024 85.28617156298372 l 7.1171531387445 0 L 586.4534186325469 94.71784333108954 l -7.1171531387445 0 L 579.3362654938024 85.28617156298372 M 606.0255897640943 87.53826079375789 l 7.1171531387445 0 L 613.1427429028388 89.33065945005076 l -7.1171531387445 0 L 606.0255897640943 87.53826079375789 M 623.8184726109555 71.99145897872 l 7.1171531387445 0 L 630.9356257497 81.08181542757575 l -7.1171531387445 0 L 623.8184726109555 71.99145897872 M 641.6113554578168 72.61120276287846 l 7.1171531387445 0 L 648.7285085965613 72.75232826247444 l -7.1171531387445 0 L 641.6113554578168 72.61120276287846 M 659.4042383046781 46.090274942560285 l 7.1171531387445 0 L 666.5213914434225 51.003156303550185 l -7.1171531387445 0 L 659.4042383046781 46.090274942560285 M 703.8864454218311 19.400477422201334 l 7.1171531387445 0 L 711.0035985605756 42.879777720864496 l -7.1171531387445 0 L 703.8864454218311 19.400477422201334 M 712.7828868452618 42.879777720864496 l 7.1171531387445 0 L 719.9000399840063 52.15823984873617 l -7.1171531387445 0 L 712.7828868452618 42.879777720864496 M 730.5757696921231 48.46807622823886 l 7.1171531387445 0 L 737.6929228308676 51.14711787696942 l -7.1171531387445 0 L 730.5757696921231 48.46807622823886 M 748.3686525389844 37.4195341119877 l 7.1171531387445 0 L 755.4858056777289 54.374138311374566 l -7.1171531387445 0 L 748.3686525389844 37.4195341119877 M 757.265093962415 54.374138311374566 l 7.1171531387445 0 L 764.3822471011595 66.1831181349288 l -7.1171531387445 0 L 757.265093962415 54.374138311374566 M 783.9544182327068 42.506464090434804 l 7.1171531387445 0 L 791.0715713714512 44.93876731654271 l -7.1171531387445 0 L 783.9544182327068 42.506464090434804 M 792.8508596561375 44.93876731654271 l 7.1171531387445 0 L 799.9680127948819 48.38761804694886 l -7.1171531387445 0 L 792.8508596561375 44.93876731654271 M 801.747301079568 48.387556393170144 l 7.1171531387445 0 L 808.8644542183125 50.78403877381487 l -7.1171531387445 0 L 801.747301079568 48.387556393170144 M 819.5401839264293 36.545345182860814 l 7.1171531387445 0 L 826.6573370651738 38.54348249889671 l -7.1171531387445 0 L 819.5401839264293 36.545345182860814 M 828.43662534986 38.543420845117964 l 7.1171531387445 0 L 835.5537784886045 47.80061241931526 l -7.1171531387445 0 L 828.43662534986 38.543420845117964 M 837.3330667732906 47.80061241931526 l 7.1171531387445 0 L 844.4502199120351 50.623677295243795 l -7.1171531387445 0 L 837.3330667732906 47.80061241931526 M 872.9188324670131 10.001852079514123 l 7.1171531387445 0 L 880.0359856057576 13.566426952664585 l -7.1171531387445 0 L 872.9188324670131 10.001852079514123"></path><path class="candle body equal"></path><path class="candle wick up" d="M 13.522590963614554 179.89599130829686 L 13.522590963614554 181.4156336473278 M 13.522590963614554 190.76320966119644 L 13.522590963614554 195.0696028004626 M 22.41903238704518 171.38567361007412 L 22.41903238704518 174.39154194004468 M 22.41903238704518 181.41569530110658 L 22.41903238704518 196.15384615384616 M 31.315473810475808 158.79332087351565 L 31.315473810475808 162.21855820665434 M 31.315473810475808 174.39154194004468 L 31.315473810475808 180.60994206641024 M 40.21191523390643 150.73165772337504 L 40.21191523390643 151.51749678752986 M 40.21191523390643 162.21855820665434 L 40.21191523390643 164.62589165236193 M 58.004798080767685 139.9166601210905 L 58.004798080767685 141.15435972982328 M 58.004798080767685 156.31527054356314 L 58.004798080767685 162.57534862437473 M 93.5905637744902 131.0887638084427 L 93.5905637744902 131.6189863058326 M 93.5905637744902 152.58090116369044 L 93.5905637744902 153.7071307404138 M 138.07277089164333 142.71666648376046 L 138.07277089164333 150.69904287440767 M 138.07277089164333 150.7566275037754 L 138.07277089164333 153.794124222253 M 146.96921231507397 136.3478311372052 L 146.96921231507397 138.02715676324073 M 146.96921231507397 150.73554191143728 L 146.96921231507397 155.49317905749376 M 155.8656537385046 121.85925478091147 L 155.8656537385046 122.23238345000489 M 155.8656537385046 138.02715676324073 L 155.8656537385046 138.87569772040086 M 173.65853658536582 121.13784391556737 L 173.65853658536582 122.74565115823405 M 173.65853658536582 125.31870996126541 L 173.65853658536582 130.07764183667592 M 182.55497800879647 114.97246603894078 L 182.55497800879647 121.20658787889177 M 182.55497800879647 122.74565115823405 L 182.55497800879647 124.04173689545851 M 200.34786085565773 122.59102348108824 L 200.34786085565773 124.38502513562908 M 200.34786085565773 132.39576226450876 L 200.34786085565773 135.77272468887347 M 218.14074370251896 123.29615774883806 L 218.14074370251896 123.78957294030447 M 218.14074370251896 137.51395070879033 L 218.14074370251896 140.5711149826944 M 253.72650939624148 128.8685495812907 L 253.72650939624148 135.929263633161 M 253.72650939624148 136.6566549150454 L 253.72650939624148 138.40090197012185 M 262.6229508196721 123.25873390512693 L 262.6229508196721 125.3887486539439 M 262.6229508196721 135.929263633161 L 262.6229508196721 139.55999301092766 M 271.51939224310274 115.27993343364817 L 271.51939224310274 122.69990405438949 M 271.51939224310274 125.38881030772264 L 271.51939224310274 126.78496012788476 M 280.4158336665334 111.88977710062748 L 280.4158336665334 118.06045720222798 M 280.4158336665334 122.69996570816828 L 280.4158336665334 128.43247240407692 M 298.2087165133947 106.34093701166356 L 298.2087165133947 107.22332589336636 M 298.2087165133947 118.5635520369607 L 298.2087165133947 121.44611280939871 M 307.10515793682526 100.91540448023216 L 307.10515793682526 101.63120485170849 M 307.10515793682526 107.22332589336636 L 307.10515793682526 112.07886924010361 M 333.7944822071172 134.08532241781953 L 333.7944822071172 140.28047906959023 M 333.7944822071172 142.41881707854066 L 333.7944822071172 145.71871227944746 M 351.5873650539784 142.79108259473134 L 351.5873650539784 147.81117987699577 M 351.5873650539784 149.85494098931875 L 351.5873650539784 150.59466302695637 M 360.483806477409 139.88059266051224 L 360.483806477409 142.5610523461544 M 360.483806477409 147.81124153077457 L 360.483806477409 150.47234192988412 M 378.2766893242703 135.00994413797724 L 378.2766893242703 135.86372566633247 M 378.2766893242703 149.2475279609135 L 378.2766893242703 151.38247501203173 M 387.1731307477009 127.30322179219398 L 387.1731307477009 129.63737220250601 M 387.1731307477009 135.91452838003588 L 387.1731307477009 138.5099058509806 M 413.86245501799283 125.18726410493575 L 413.86245501799283 128.58105801090363 M 413.86245501799283 134.7017985517034 L 413.86245501799283 136.33204776984104 M 449.44822071171535 155.0440312791815 L 449.44822071171535 157.86123904612725 M 449.44822071171535 175.18299149806722 L 449.44822071171535 176.22309074585414 M 458.34466213514594 149.01768267367282 L 458.34466213514594 149.7127673754837 M 458.34466213514594 157.84422260318775 L 458.34466213514594 160.78683415614415 M 485.0339864054379 155.35569113084497 L 485.0339864054379 160.22079081329102 M 485.0339864054379 163.24349062486476 L 485.0339864054379 175.08490033605008 M 511.7233106757297 163.74060504305714 L 511.7233106757297 170.31117155373565 M 511.7233106757297 173.389359766199 L 511.7233106757297 175.06097866988878 M 520.6197520991603 154.17582276659493 L 520.6197520991603 156.13191220551226 M 520.6197520991603 170.31110989995688 L 520.6197520991603 171.0147028232375 M 529.5161935225909 127.3340486815771 L 529.5161935225909 129.51283156939817 M 529.5161935225909 156.15712860102767 L 529.5161935225909 159.46781321321862 M 547.3090763694522 122.81433346777966 L 547.3090763694522 129.15277350140317 M 547.3090763694522 132.6369518470424 L 547.3090763694522 136.00873535399074 M 556.2055177928828 120.91515046666362 L 556.2055177928828 122.83369275431227 M 556.2055177928828 129.15277350140317 L 556.2055177928828 137.22331479568618 M 565.1019592163135 106.42540268857331 L 565.1019592163135 108.97978039663852 M 565.1019592163135 122.83375440809105 L 565.1019592163135 124.08242838944423 M 573.998400639744 82.60423218665116 L 573.998400639744 85.28617156298372 M 573.998400639744 108.97978039663852 L 573.998400639744 115.69745282345329 M 591.7912834866053 80.44634992983187 L 591.7912834866053 93.69309587421546 M 591.7912834866053 94.71784333108954 L 591.7912834866053 95.75122231699093 M 600.687724910036 84.21339581245071 L 600.687724910036 87.53826079375789 M 600.687724910036 93.66695467201858 L 600.687724910036 95.4795757677468 M 618.4806077568971 69.72451118726312 L 618.4806077568971 71.99145897872 M 618.4806077568971 89.33059779627199 L 618.4806077568971 90.83464172927509 M 636.2734906037584 70.10701123072906 L 636.2734906037584 72.63481616014596 M 636.2734906037584 81.08193873513328 L 636.2734906037584 92.36285394355448 M 654.0663734506197 38.318322898842325 L 654.0663734506197 46.090274942560285 M 654.0663734506197 72.75232826247444 L 654.0663734506197 75.82231652236192 M 671.8592562974809 45.806852521571756 L 671.8592562974809 46.97864424080339 M 671.8592562974809 51.003156303550185 L 671.8592562974809 62.79487306904991 M 680.7556977209116 39.78087383873569 L 680.7556977209116 44.009953139428944 M 680.7556977209116 46.97870589458216 L 680.7556977209116 57.36040073969741 M 689.6521391443422 28.74349105644123 L 689.6521391443422 30.00992132607911 M 689.6521391443422 44.03609434162584 L 689.6521391443422 48.24939027495492 M 698.5485805677728 13.243731074601982 L 698.5485805677728 19.400415768422505 M 698.5485805677728 30.00992132607911 L 698.5485805677728 34.93722967130029 M 725.2379048380647 45.62651521868045 L 725.2379048380647 48.46807622823886 M 725.2379048380647 52.15817819495737 L 725.2379048380647 59.10088691426907 M 743.0307876849259 33.52394010064123 L 743.0307876849259 37.4195341119877 M 743.0307876849259 51.14711787696942 L 743.0307876849259 52.393880591180846 M 769.7201119552178 40.99409689729828 L 769.7201119552178 52.85079674561766 M 769.7201119552178 66.1831181349288 L 769.7201119552178 69.8418999820341 M 778.6165533786485 38.028550138640895 L 778.6165533786485 42.50640243665603 M 778.6165533786485 52.85073509183886 L 778.6165533786485 55.32360650437505 M 814.202319072371 30.075212677792564 L 814.202319072371 36.54892110202928 M 814.202319072371 50.78397712003607 L 814.202319072371 52.54998795901702 M 849.7880847660936 46.78036568829111 L 849.7880847660936 47.334509851842284 M 849.7880847660936 50.60481123894135 L 849.7880847660936 56.09310731715681 M 858.6845261895241 36.13978662613633 L 858.6845261895241 36.218456847842106 M 858.6845261895241 47.33444819806351 L 858.6845261895241 48.24593766334402 M 867.5809676129546 8.379247929943574 L 867.5809676129546 10.00179042573538 M 867.5809676129546 36.21851850162082 L 867.5809676129546 36.21851850162082 M 885.3738504598159 4.7355096048572705 L 885.3738504598159 5.444897983341917 M 885.3738504598159 13.566365298885842 L 885.3738504598159 20.09963127341075" style="stroke-width: 1px;"></path><path class="candle wick down" d="M 4.626149540183927 181.0653168763779 L 4.626149540183927 184.96886422518523 M 4.626149540183927 190.76314800741767 L 4.626149540183927 194.24670981526924 M 49.10835665733706 146.9707772186328 L 49.10835665733706 151.51749678752986 M 49.10835665733706 156.31520888978437 L 49.10835665733706 159.6036364878407 M 66.90123950419832 138.40090197012185 L 66.90123950419832 141.18228889160437 M 66.90123950419832 145.2753599563393 L 66.90123950419832 151.41317859385734 M 75.79768092762893 138.13289299382487 L 75.79768092762893 145.2752983025605 M 75.79768092762893 145.73153626543086 L 75.79768092762893 146.77878735155466 M 84.69412235105956 141.37187426131067 L 84.69412235105956 145.73357084013017 M 84.69412235105956 152.58743646423963 L 84.69412235105956 156.46545914863776 M 102.48700519792082 129.49809631627303 L 102.48700519792082 131.61904795961135 M 102.48700519792082 136.12889856880616 L 102.48700519792082 142.89527748084635 M 111.38344662135144 134.25610338500212 L 111.38344662135144 136.12896022258496 M 111.38344662135144 136.71269819994396 L 111.38344662135144 145.79935542207375 M 120.27988804478207 130.05402843940846 L 120.27988804478207 136.71269819994396 M 120.27988804478207 143.32525093396225 L 120.27988804478207 144.8128949618135 M 129.1763294682127 135.5648281468736 L 129.1763294682127 143.32518928018348 M 129.1763294682127 150.7566275037754 L 129.1763294682127 152.72924015540207 M 164.7620951619352 119.55309518615927 L 164.7620951619352 122.23238345000489 M 164.7620951619352 125.31877161504416 L 164.7620951619352 129.01719684189618 M 191.4514194322271 118.9183078799818 L 191.4514194322271 121.20658787889177 M 191.4514194322271 132.39576226450876 L 191.4514194322271 132.8520618811579 M 209.24430227908834 122.04514092389176 L 209.24430227908834 124.38502513562908 M 209.24430227908834 137.51388905501156 L 209.24430227908834 141.1753220146038 M 227.0371851259496 122.37708486876933 L 227.0371851259496 123.78957294030447 M 227.0371851259496 124.86573964866966 L 227.0371851259496 128.24726445266305 M 235.93362654938022 120.322349383826 L 235.93362654938022 124.86573964866966 M 235.93362654938022 125.65194863549706 L 235.93362654938022 131.849941361091 M 244.83006797281087 124.90729429555812 L 244.83006797281087 125.65188698171833 M 244.83006797281087 136.6566549150454 L 244.83006797281087 137.45759915499798 M 289.31227508996403 114.75242370252397 L 289.31227508996403 118.06748573300735 M 289.31227508996403 118.5752662549263 L 289.31227508996403 121.93934303952884 M 316.0015993602559 100.05225157750442 L 316.0015993602559 101.61702448259227 M 316.0015993602559 137.39144465038174 L 316.0015993602559 162.18045617137676 M 324.89804078368655 134.448956404983 L 324.89804078368655 137.3616042214589 M 324.89804078368655 142.41881707854066 L 324.89804078368655 152.50716324428598 M 342.6909236305478 136.3478311372052 L 342.6909236305478 140.28047906959023 M 342.6909236305478 149.80124054801328 L 342.6909236305478 154.2318043977147 M 369.38024790083966 137.29113395232906 L 369.38024790083966 142.56111399993316 M 369.38024790083966 149.2474663071347 L 369.38024790083966 158.93161029928842 M 396.06957217113154 126.95179525322627 L 396.06957217113154 129.6374338562848 M 396.06957217113154 132.00234950220124 L 396.06957217113154 136.42119913393705 M 404.9660135945622 129.46110404901327 L 404.9660135945622 132.00241115598 M 404.9660135945622 134.7017985517034 L 404.9660135945622 138.40361473638757 M 422.7588964414235 128.08727289676457 L 422.7588964414235 128.58099635712483 M 422.7588964414235 135.0608085054594 L 422.7588964414235 137.60445845601922 M 431.65533786485406 134.41036113947527 L 431.65533786485406 135.0608085054594 M 431.65533786485406 161.11649691120732 L 431.65533786485406 164.29548905195355 M 440.5517792882847 157.27312365047584 L 440.5517792882847 161.1102082257732 M 440.5517792882847 175.181203538483 L 440.5517792882847 182.17508489417068 M 467.2411035585766 147.64896878506175 L 467.2411035585766 149.7127673754837 M 467.2411035585766 162.38070764480963 L 467.2411035585766 175.54730367679707 M 476.13754498200717 161.4172440440292 L 476.13754498200717 162.38064599103083 M 476.13754498200717 163.243428971086 L 476.13754498200717 169.5589954527872 M 493.93042782886846 152.88953998019434 L 493.93042782886846 160.22079081329102 M 493.93042782886846 166.46970956014593 L 493.93042782886846 166.77397095835744 M 502.82686925229905 162.5236827577686 L 502.82686925229905 166.46970956014593 M 502.82686925229905 173.37992673804777 L 502.82686925229905 174.2340781890756 M 538.4126349460215 128.31070619101354 L 538.4126349460215 129.51289322317695 M 538.4126349460215 132.63689019326364 L 538.4126349460215 133.89906635216664 M 582.8948420631747 85.17944887193933 L 582.8948420631747 85.28617156298372 M 582.8948420631747 94.71784333108954 L 582.8948420631747 97.3579814454186 M 609.5841663334666 77.60219946156526 L 609.5841663334666 87.53826079375789 M 609.5841663334666 89.33065945005076 L 609.5841663334666 92.90041324061758 M 627.3770491803277 70.70505288476184 L 627.3770491803277 71.99145897872 M 627.3770491803277 81.08181542757575 L 627.3770491803277 94.13965419381951 M 645.169932027189 65.44882162982259 L 645.169932027189 72.61120276287846 M 645.169932027189 72.75232826247444 L 645.169932027189 76.01930034552011 M 662.9628148740503 41.73751816166191 L 662.9628148740503 46.090274942560285 M 662.9628148740503 51.003156303550185 L 662.9628148740503 55.47656952949413 M 707.4450219912034 15.464870108435434 L 707.4450219912034 19.400477422201334 M 707.4450219912034 42.879777720864496 L 707.4450219912034 44.07062045773495 M 716.3414634146341 33.38978147804579 L 716.3414634146341 42.879777720864496 M 716.3414634146341 52.15823984873617 L 716.3414634146341 56.40137621098813 M 734.1343462614954 47.15330939604826 L 734.1343462614954 48.46807622823886 M 734.1343462614954 51.14711787696942 L 734.1343462614954 59.4185271824729 M 751.9272291083566 36.09582748187597 L 751.9272291083566 37.4195341119877 M 751.9272291083566 54.374138311374566 L 751.9272291083566 57.526249404578635 M 760.8236705317872 47.177970907554766 L 760.8236705317872 54.374138311374566 M 760.8236705317872 66.1831181349288 L 760.8236705317872 68.73213196424132 M 787.512994802079 41.85570845555685 L 787.512994802079 42.506464090434804 M 787.512994802079 44.93876731654271 L 787.512994802079 52.25207690001844 M 796.4094362255097 41.571792804338145 L 796.4094362255097 44.93876731654271 M 796.4094362255097 48.38761804694886 L 796.4094362255097 56.73825245816701 M 805.3058776489403 41.37178794602045 L 805.3058776489403 48.387556393170144 M 805.3058776489403 50.78403877381487 L 805.3058776489403 60.069776047580945 M 823.0987604958016 34.82255364279504 L 823.0987604958016 36.545345182860814 M 823.0987604958016 38.54348249889671 L 823.0987604958016 54.04151617493051 M 831.9952019192323 37.37310881657672 L 831.9952019192323 38.543420845117964 M 831.9952019192323 47.80061241931526 L 831.9952019192323 52.22735373473316 M 840.8916433426629 40.39778154907094 L 840.8916433426629 47.80061241931526 M 840.8916433426629 50.623677295243795 L 840.8916433426629 51.956138761940366 M 876.4774090363853 3.846153846153868 L 876.4774090363853 10.001852079514123 M 876.4774090363853 13.566426952664585 L 876.4774090363853 18.03792891146685" style="stroke-width: 1px;"></path><path class="candle wick equal" style="stroke-width: 1px;"></path></g></g><g class="x axis" transform="translate(0,200)" fill="none" font-size="10" font-family="sans-serif" text-anchor="middle"><path class="domain" stroke="#000" d="M0.5,6V0.5H890.5V6"></path><g class="tick" opacity="1" transform="translate(58.004798080767685,0)"><line stroke="#000" y2="6" x1="0.5" x2="0.5"></line><text fill="#000" y="9" x="0.5" dy="0.71em">Aug  9</text></g><g class="tick" opacity="1" transform="translate(120.27988804478207,0)"><line stroke="#000" y2="6" x1="0.5" x2="0.5"></line><text fill="#000" y="9" x="0.5" dy="0.71em">Aug 16</text></g><g class="tick" opacity="1" transform="translate(182.55497800879647,0)"><line stroke="#000" y2="6" x1="0.5" x2="0.5"></line><text fill="#000" y="9" x="0.5" dy="0.71em">Aug 23</text></g><g class="tick" opacity="1" transform="translate(244.83006797281087,0)"><line stroke="#000" y2="6" x1="0.5" x2="0.5"></line><text fill="#000" y="9" x="0.5" dy="0.71em">Aug 30</text></g><g class="tick" opacity="1" transform="translate(307.10515793682526,0)"><line stroke="#000" y2="6" x1="0.5" x2="0.5"></line><text fill="#000" y="9" x="0.5" dy="0.71em">Sep  6</text></g><g class="tick" opacity="1" transform="translate(369.38024790083966,0)"><line stroke="#000" y2="6" x1="0.5" x2="0.5"></line><text fill="#000" y="9" x="0.5" dy="0.71em">Sep 13</text></g><g class="tick" opacity="1" transform="translate(431.65533786485406,0)"><line stroke="#000" y2="6" x1="0.5" x2="0.5"></line><text fill="#000" y="9" x="0.5" dy="0.71em">Sep 20</text></g><g class="tick" opacity="1" transform="translate(493.93042782886846,0)"><line stroke="#000" y2="6" x1="0.5" x2="0.5"></line><text fill="#000" y="9" x="0.5" dy="0.71em">Sep 27</text></g><g class="tick" opacity="1" transform="translate(556.2055177928828,0)"><line stroke="#000" y2="6" x1="0.5" x2="0.5"></line><text fill="#000" y="9" x="0.5" dy="0.71em">Oct  4</text></g><g class="tick" opacity="1" transform="translate(618.4806077568971,0)"><line stroke="#000" y2="6" x1="0.5" x2="0.5"></line><text fill="#000" y="9" x="0.5" dy="0.71em">Oct 11</text></g><g class="tick" opacity="1" transform="translate(680.7556977209116,0)"><line stroke="#000" y2="6" x1="0.5" x2="0.5"></line><text fill="#000" y="9" x="0.5" dy="0.71em">Oct 18</text></g><g class="tick" opacity="1" transform="translate(743.0307876849259,0)"><line stroke="#000" y2="6" x1="0.5" x2="0.5"></line><text fill="#000" y="9" x="0.5" dy="0.71em">Oct 25</text></g><g class="tick" opacity="1" transform="translate(805.3058776489403,0)"><line stroke="#000" y2="6" x1="0.5" x2="0.5"></line><text fill="#000" y="9" x="0.5" dy="0.71em">Nov  1</text></g><g class="tick" opacity="1" transform="translate(867.5809676129546,0)"><line stroke="#000" y2="6" x1="0.5" x2="0.5"></line><text fill="#000" y="9" x="0.5" dy="0.71em">Nov  8</text></g></g><g class="y axis" fill="none" font-size="10" font-family="sans-serif" text-anchor="end"><path class="domain" stroke="#000" d="M-6,200.5H0.5V0.5H-6"></path><g class="tick" opacity="1" transform="translate(0,179.70893374352002)"><line stroke="#000" x2="-6" y1="0.5" y2="0.5"></line><text fill="#000" x="-9" y="0.5" dy="0.32em">40,000</text></g><g class="tick" opacity="1" transform="translate(0,148.88204436038706)"><line stroke="#000" x2="-6" y1="0.5" y2="0.5"></line><text fill="#000" x="-9" y="0.5" dy="0.32em">45,000</text></g><g class="tick" opacity="1" transform="translate(0,118.05515497725409)"><line stroke="#000" x2="-6" y1="0.5" y2="0.5"></line><text fill="#000" x="-9" y="0.5" dy="0.32em">50,000</text></g><g class="tick" opacity="1" transform="translate(0,87.22826559412111)"><line stroke="#000" x2="-6" y1="0.5" y2="0.5"></line><text fill="#000" x="-9" y="0.5" dy="0.32em">55,000</text></g><g class="tick" opacity="1" transform="translate(0,56.40137621098813)"><line stroke="#000" x2="-6" y1="0.5" y2="0.5"></line><text fill="#000" x="-9" y="0.5" dy="0.32em">60,000</text></g><g class="tick" opacity="1" transform="translate(0,25.57448682785514)"><line stroke="#000" x2="-6" y1="0.5" y2="0.5"></line><text fill="#000" x="-9" y="0.5" dy="0.32em">65,000</text></g><text transform="rotate(-90)" y="6" dy=".71em" style="text-anchor: end;">Price ($)</text></g></g></svg>