<?xml version="1.0" encoding="utf-8"?>
<!DOCTYPE svg PUBLIC "-//W3C//DTD SVG 1.1//EN" "http://www.w3.org/Graphics/SVG/1.1/DTD/svg11.dtd">
<svg version="1.1" xmlns="http://www.w3.org/2000/svg" width="960" height="250"><g transform="translate(50,20)"><style>.axis path,.axis line{fill:none;stroke:#000;shape-rendering:crispEdges;}path.candle{stroke:#000000;}path.candle.body{stroke-width:0;}path.candle.up{fill:#00AA00;stroke:#00AA00;}path.candle.down{fill:#FF0000;stroke:#FF0000;}</style><g class="candlestick"><g class="data"><path class="candle body up" d="M 1.0675729708116766 193.71438428076232 l 7.1171531387445 0 L 8.184726109556177 192.62101521237852 l -7.1171531387445 0 L 1.0675729708116766 193.71438428076232 M 45.54978008796481 194.88098794699386 l 7.1171531387445 0 L 52.66693322670931 193.93764756354932 l -7.1171531387445 0 L 45.54978008796481 194.88098794699386 M 54.446221511395436 193.937723297363 l 7.1171531387445 0 L 61.563374650139934 192.9865823311074 l -7.1171531387445 0 L 54.446221511395436 193.937723297363 M 72.23910435825668 194.44491264771048 l 7.1171531387445 0 L 79.35625749700118 193.9394651750781 l -7.1171531387445 0 L 72.23910435825668 194.44491264771048 M 81.13554578168731 193.9393894412644 l 7.1171531387445 0 L 88.25269892043181 191.97659619160703 l -7.1171531387445 0 L 81.13554578168731 193.9393894412644 M 90.03198720511796 191.97758073118513 l 7.1171531387445 0 L 97.14914034386246 191.0293933836638 l -7.1171531387445 0 L 90.03198720511796 191.97758073118513 M 98.92842862854857 191.0293933836638 l 7.1171531387445 0 L 106.04558176729307 189.19224253093438 l -7.1171531387445 0 L 98.92842862854857 191.0293933836638 M 107.82487005197919 189.19224253093438 l 7.1171531387445 0 L 114.94202319072369 188.61818022309 l -7.1171531387445 0 L 107.82487005197919 189.19224253093438 M 116.72131147540982 188.61818022309 l 7.1171531387445 0 L 123.83846461415432 187.41227070754832 l -7.1171531387445 0 L 116.72131147540982 188.61818022309 M 143.4106357457017 188.24806907553915 l 7.1171531387445 0 L 150.5277888844462 187.5874430186359 l -7.1171531387445 0 L 143.4106357457017 188.24806907553915 M 161.20351859256294 188.99518314768756 l 7.1171531387445 0 L 168.32067173130744 188.68497744677322 l -7.1171531387445 0 L 161.20351859256294 188.99518314768756 M 170.09996001599356 188.68414437482252 l 7.1171531387445 0 L 177.21711315473806 187.60243831374848 l -7.1171531387445 0 L 170.09996001599356 188.68414437482252 M 178.9964014394242 187.60243831374848 l 7.1171531387445 0 L 186.1135545781687 185.72174051814167 l -7.1171531387445 0 L 178.9964014394242 187.60243831374848 M 187.89284286285485 185.72181625195537 l 7.1171531387445 0 L 195.00999600159935 184.52120810337266 l -7.1171531387445 0 L 187.89284286285485 185.72181625195537 M 196.78928428628546 184.52113236955896 l 7.1171531387445 0 L 203.90643742502996 177.92502013156238 l -7.1171531387445 0 L 196.78928428628546 184.52113236955896 M 205.68572570971608 177.92661054165006 l 7.1171531387445 0 L 212.80287884846058 176.50455672180917 l -7.1171531387445 0 L 205.68572570971608 177.92661054165006 M 223.47860855657734 176.8488426388884 l 7.1171531387445 0 L 230.59576169532184 175.41997277581453 l -7.1171531387445 0 L 223.47860855657734 176.8488426388884 M 241.2714914034386 176.04167165247608 l 7.1171531387445 0 L 248.3886445421831 175.87089190258305 l -7.1171531387445 0 L 241.2714914034386 176.04167165247608 M 250.16793282686922 175.87119483783786 l 7.1171531387445 0 L 257.28508596561375 171.44818865014292 l -7.1171531387445 0 L 250.16793282686922 175.87119483783786 M 267.9608156737305 174.24859787931993 l 7.1171531387445 0 L 275.07796881247504 172.814956785983 l -7.1171531387445 0 L 267.9608156737305 174.24859787931993 M 276.85725709716115 172.81503251979666 l 7.1171531387445 0 L 283.9744102359057 172.0242957709572 l -7.1171531387445 0 L 276.85725709716115 172.81503251979666 M 285.7536985205918 172.0242957709572 l 7.1171531387445 0 L 292.8708516593363 170.27560201262912 l -7.1171531387445 0 L 285.7536985205918 172.0242957709572 M 312.4430227908837 172.10358907390088 l 7.1171531387445 0 L 319.5601759296282 168.514563642668 l -7.1171531387445 0 L 312.4430227908837 172.10358907390088 M 321.3394642143143 168.514563642668 l 7.1171531387445 0 L 328.45661735305885 167.60212265521298 l -7.1171531387445 0 L 321.3394642143143 168.514563642668 M 330.23590563774496 167.60212265521298 l 7.1171531387445 0 L 337.3530587764895 156.65093746041015 l -7.1171531387445 0 L 330.23590563774496 167.60212265521298 M 356.9252299080368 162.4954673312501 l 7.1171531387445 0 L 364.0423830467813 157.5212704474481 l -7.1171531387445 0 L 356.9252299080368 162.4954673312501 M 383.61455417832866 158.8684992593536 l 7.1171531387445 0 L 390.7317073170732 155.93737346773077 l -7.1171531387445 0 L 383.61455417832866 158.8684992593536 M 392.5109956017593 155.93729773391706 l 7.1171531387445 0 L 399.62814874050383 151.33563547970434 l -7.1171531387445 0 L 392.5109956017593 155.93729773391706 M 401.40743702518995 151.33571121351804 l 7.1171531387445 0 L 408.5245901639345 151.11721916099415 l -7.1171531387445 0 L 401.40743702518995 151.33571121351804 M 428.0967612954818 153.8716579652554 l 7.1171531387445 0 L 435.21391443422635 148.14186482217065 l -7.1171531387445 0 L 428.0967612954818 153.8716579652554 M 436.99320271891247 148.14557577904193 l 7.1171531387445 0 L 444.110355857657 140.97888498863114 l -7.1171531387445 0 L 436.99320271891247 148.14557577904193 M 445.8896441423431 140.97888498863114 l 7.1171531387445 0 L 453.00679728108764 140.09476844749986 l -7.1171531387445 0 L 445.8896441423431 140.97888498863114 M 454.7860855657737 140.0824238358668 l 7.1171531387445 0 L 461.90323870451823 139.8925591649214 l -7.1171531387445 0 L 454.7860855657737 140.0824238358668 M 463.68252698920435 139.8926348987351 l 7.1171531387445 0 L 470.7996801279489 133.43360086353516 l -7.1171531387445 0 L 463.68252698920435 139.8926348987351 M 472.57896841263494 133.43367659734884 l 7.1171531387445 0 L 479.69612155137946 133.06909401819806 l -7.1171531387445 0 L 472.57896841263494 133.43367659734884 M 499.2682926829268 135.6121597484232 l 7.1171531387445 0 L 506.38544582167134 129.61404170340012 l -7.1171531387445 0 L 499.2682926829268 135.6121597484232 M 534.8540583766493 144.91590729381457 l 7.1171531387445 0 L 541.9712115153937 140.52092261718855 l -7.1171531387445 0 L 534.8540583766493 144.91590729381457 M 543.75049980008 140.52099835100225 l 7.1171531387445 0 L 550.8676529388244 136.99824000675667 l -7.1171531387445 0 L 543.75049980008 140.52099835100225 M 552.6469412235106 136.99816427294297 l 7.1171531387445 0 L 559.764094362255 125.55576956248335 l -7.1171531387445 0 L 552.6469412235106 136.99816427294297 M 570.4398240703717 132.6059060136102 l 7.1171531387445 0 L 577.5569772091162 129.28020705261144 l -7.1171531387445 0 L 570.4398240703717 132.6059060136102 M 579.3362654938024 129.28028278642512 l 7.1171531387445 0 L 586.4534186325469 127.63064885641639 l -7.1171531387445 0 L 579.3362654938024 129.28028278642512 M 597.1291483406637 133.47267951140424 l 7.1171531387445 0 L 604.2463014794082 129.70757296331934 l -7.1171531387445 0 L 597.1291483406637 133.47267951140424 M 606.0255897640943 129.70757296331934 l 7.1171531387445 0 L 613.1427429028388 128.10398519204006 l -7.1171531387445 0 L 606.0255897640943 129.70757296331934 M 632.7149140343862 135.94463119056525 l 7.1171531387445 0 L 639.8320671731307 134.299919958447 l -7.1171531387445 0 L 632.7149140343862 135.94463119056525 M 659.4042383046781 138.12258420494373 l 7.1171531387445 0 L 666.5213914434225 132.274722046301 l -7.1171531387445 0 L 659.4042383046781 138.12258420494373 M 668.3006797281087 132.274722046301 l 7.1171531387445 0 L 675.4178328668531 129.50059245047782 l -7.1171531387445 0 L 668.3006797281087 132.274722046301 M 677.1971211515394 129.50059245047782 l 7.1171531387445 0 L 684.3142742902838 128.7572650690144 l -7.1171531387445 0 L 677.1971211515394 129.50059245047782 M 686.09356257497 128.75309970926094 l 7.1171531387445 0 L 693.2107157137144 127.59634143881038 l -7.1171531387445 0 L 686.09356257497 128.75309970926094 M 694.9900039984005 127.59634143881038 l 7.1171531387445 0 L 702.107157137145 113.13807479919787 l -7.1171531387445 0 L 694.9900039984005 127.59634143881038 M 703.8864454218311 113.13807479919787 l 7.1171531387445 0 L 711.0035985605756 102.06851765358229 l -7.1171531387445 0 L 703.8864454218311 113.13807479919787 M 712.7828868452618 102.06859338739598 l 7.1171531387445 0 L 719.9000399840063 99.71902755117381 l -7.1171531387445 0 L 712.7828868452618 102.06859338739598 M 721.6793282686924 99.71902755117381 l 7.1171531387445 0 L 728.7964814074369 94.30996710910766 l -7.1171531387445 0 L 721.6793282686924 99.71902755117381 M 748.3686525389844 102.65378856585423 l 7.1171531387445 0 L 755.4858056777289 94.39191109553082 l -7.1171531387445 0 L 748.3686525389844 102.65378856585423 M 766.1615353858456 98.77235487992648 l 7.1171531387445 0 L 773.27868852459 95.00982328150738 l -7.1171531387445 0 L 766.1615353858456 98.77235487992648 M 775.0579768092763 95.01141369159507 l 7.1171531387445 0 L 782.1751299480208 87.56314458184849 l -7.1171531387445 0 L 775.0579768092763 95.01141369159507 M 783.9544182327068 87.56314458184849 l 7.1171531387445 0 L 791.0715713714512 74.07555823242613 l -7.1171531387445 0 L 783.9544182327068 87.56314458184849 M 801.747301079568 75.67997907565609 l 7.1171531387445 0 L 808.8644542183125 69.63740528199128 l -7.1171531387445 0 L 801.747301079568 75.67997907565609 M 810.6437425029987 69.63732954817755 l 7.1171531387445 0 L 817.7608956417432 67.32305566913945 l -7.1171531387445 0 L 810.6437425029987 69.63732954817755 M 819.5401839264293 67.32305566913945 l 7.1171531387445 0 L 826.6573370651738 56.03462780193149 l -7.1171531387445 0 L 819.5401839264293 67.32305566913945 M 828.43662534986 56.03455206811782 l 7.1171531387445 0 L 835.5537784886045 55.67042389184925 l -7.1171531387445 0 L 828.43662534986 56.03455206811782 M 837.3330667732906 55.67042389184925 l 7.1171531387445 0 L 844.4502199120351 52.580029890015766 l -7.1171531387445 0 L 837.3330667732906 55.67042389184925 M 846.2295081967213 52.579954156202064 l 7.1171531387445 0 L 853.3466613354658 31.021339546979732 l -7.1171531387445 0 L 846.2295081967213 52.579954156202064 M 855.1259496201519 31.035577503955324 l 7.1171531387445 0 L 862.2431027588964 24.798140607640875 l -7.1171531387445 0 L 855.1259496201519 31.035577503955324 M 872.9188324670131 32.44952780573033 l 7.1171531387445 0 L 880.0359856057576 17.607366464473557 l -7.1171531387445 0 L 872.9188324670131 32.44952780573033 M 881.8152738904437 17.607366464473557 l 7.1171531387445 0 L 888.9324270291881 15.547406731839374 l -7.1171531387445 0 L 881.8152738904437 17.607366464473557"></path><path class="candle body down" d="M 9.964014394242305 192.62025787424153 l 7.1171531387445 0 L 17.081167532986804 193.10487854810646 l -7.1171531387445 0 L 9.964014394242305 192.62025787424153 M 18.860455817672932 193.10487854810646 l 7.1171531387445 0 L 25.977608956417434 194.2973831786233 l -7.1171531387445 0 L 18.860455817672932 193.10487854810646 M 27.75689724110356 194.2973831786233 l 7.1171531387445 0 L 34.87405037984806 194.66643405278236 l -7.1171531387445 0 L 27.75689724110356 194.2973831786233 M 36.65333866453418 194.66643405278236 l 7.1171531387445 0 L 43.77049180327868 194.88106368080756 l -7.1171531387445 0 L 36.65333866453418 194.66643405278236 M 63.342662934826066 192.98665806492107 l 7.1171531387445 0 L 70.45981607357056 194.44483691389678 l -7.1171531387445 0 L 63.342662934826066 192.98665806492107 M 125.61775289884046 187.41234644136202 l 7.1171531387445 0 L 132.73490603758498 188.22784814728132 l -7.1171531387445 0 L 125.61775289884046 187.41234644136202 M 134.51419432227107 188.22777241346762 l 7.1171531387445 0 L 141.63134746101557 188.24806907553915 l -7.1171531387445 0 L 134.51419432227107 188.22777241346762 M 152.30707716913233 187.58736728482222 l 7.1171531387445 0 L 159.42423030787683 188.99457727717794 l -7.1171531387445 0 L 152.30707716913233 187.58736728482222 M 214.5821671331467 176.50213323977079 l 7.1171531387445 0 L 221.6993202718912 176.8487669050747 l -7.1171531387445 0 L 214.5821671331467 176.50213323977079 M 232.37504998000796 175.41997277581453 l 7.1171531387445 0 L 239.49220311875246 176.04780609138575 l -7.1171531387445 0 L 232.37504998000796 175.41997277581453 M 259.06437425029986 171.44826438395663 l 7.1171531387445 0 L 266.1815273890444 174.24859787931993 l -7.1171531387445 0 L 259.06437425029986 171.44826438395663 M 294.65013994402244 170.27560201262912 l 7.1171531387445 0 L 301.76729308276697 170.4990167630435 l -7.1171531387445 0 L 294.65013994402244 170.27560201262912 M 303.54658136745303 170.4990924968572 l 7.1171531387445 0 L 310.66373450619756 172.10555815305707 l -7.1171531387445 0 L 303.54658136745303 170.4990924968572 M 339.13234706117555 156.65093746041015 l 7.1171531387445 0 L 346.2495001999201 156.72742861224694 l -7.1171531387445 0 L 339.13234706117555 156.65093746041015 M 348.02878848460614 156.72735287843324 l 7.1171531387445 0 L 355.14594162335067 162.4954673312501 l -7.1171531387445 0 L 348.02878848460614 156.72735287843324 M 365.8216713314674 157.5212704474481 l 7.1171531387445 0 L 372.93882447021196 158.63220976061027 l -7.1171531387445 0 L 365.8216713314674 157.5212704474481 M 374.7181127548981 158.63220976061027 l 7.1171531387445 0 L 381.8352658936426 158.8684992593536 l -7.1171531387445 0 L 374.7181127548981 158.63220976061027 M 410.3038784486206 151.12221759269835 l 7.1171531387445 0 L 417.4210315873651 153.0124578488313 l -7.1171531387445 0 L 410.3038784486206 151.12221759269835 M 419.20031987205124 153.01919815825062 l 7.1171531387445 0 L 426.31747301079577 153.8716579652554 l -7.1171531387445 0 L 419.20031987205124 153.01919815825062 M 481.47540983606564 133.06909401819806 l 7.1171531387445 0 L 488.59256297481016 135.2606033852288 l -7.1171531387445 0 L 481.47540983606564 133.06909401819806 M 490.3718512594962 135.26476874498226 l 7.1171531387445 0 L 497.48900439824075 135.61223548223688 l -7.1171531387445 0 L 490.3718512594962 135.26476874498226 M 508.16473410635746 129.6141174372138 l 7.1171531387445 0 L 515.281887245102 132.95314554942368 l -7.1171531387445 0 L 508.16473410635746 129.6141174372138 M 517.0611755297881 132.95526609620725 l 7.1171531387445 0 L 524.1783286685326 144.84062788299696 l -7.1171531387445 0 L 517.0611755297881 132.95526609620725 M 525.9576169532187 144.84062788299696 l 7.1171531387445 0 L 533.0747700919632 144.91598302762824 l -7.1171531387445 0 L 525.9576169532187 144.84062788299696 M 561.5433826469413 125.55576956248335 l 7.1171531387445 0 L 568.6605357856857 132.6059060136102 l -7.1171531387445 0 L 561.5433826469413 125.55576956248335 M 588.232706917233 127.62731656861361 l 7.1171531387445 0 L 595.3498600559775 133.4726037775905 l -7.1171531387445 0 L 588.232706917233 127.62731656861361 M 614.9220311875249 128.10951376044017 l 7.1171531387445 0 L 622.0391843262694 129.56186110576095 l -7.1171531387445 0 L 614.9220311875249 128.10951376044017 M 623.8184726109555 129.56186110576095 l 7.1171531387445 0 L 630.9356257497 135.94463119056525 l -7.1171531387445 0 L 623.8184726109555 129.56186110576095 M 641.6113554578168 134.29984422463326 l 7.1171531387445 0 L 648.7285085965613 136.47082972815136 l -7.1171531387445 0 L 641.6113554578168 134.29984422463326 M 650.5077968812475 136.46946651950478 l 7.1171531387445 0 L 657.624950019992 138.12258420494373 l -7.1171531387445 0 L 650.5077968812475 136.46946651950478 M 730.5757696921231 94.31004284292138 l 7.1171531387445 0 L 737.6929228308676 97.08250629484314 l -7.1171531387445 0 L 730.5757696921231 94.31004284292138 M 739.4722111155537 97.08235482721574 l 7.1171531387445 0 L 746.5893642542982 102.65507604068715 l -7.1171531387445 0 L 739.4722111155537 97.08235482721574 M 757.265093962415 94.39191109553082 l 7.1171531387445 0 L 764.3822471011595 98.7695527288196 l -7.1171531387445 0 L 757.265093962415 94.39191109553082 M 792.8508596561375 74.0754824986124 l 7.1171531387445 0 L 799.9680127948819 75.67907026989171 l -7.1171531387445 0 L 792.8508596561375 74.0754824986124 M 864.0223910435824 24.798140607640875 l 7.1171531387445 0 L 871.1395441823269 32.457404122355086 l -7.1171531387445 0 L 864.0223910435824 24.798140607640875"></path><path class="candle body equal"></path><path class="candle wick up" d="M 4.626149540183927 192.41607951250688 L 4.626149540183927 192.62101521237852 M 4.626149540183927 193.71438428076232 L 4.626149540183927 194.17060477448985 M 49.10835665733706 193.70862851092116 L 49.10835665733706 193.93764756354932 M 49.10835665733706 194.88098794699386 L 49.10835665733706 195.06426377614733 M 58.004798080767685 192.9427324529752 L 58.004798080767685 192.9865823311074 M 58.004798080767685 193.937723297363 L 58.004798080767685 194.32381427960453 M 75.79768092762893 193.82222923147083 L 75.79768092762893 193.9394651750781 M 75.79768092762893 194.44491264771048 L 75.79768092762893 194.84993708337694 M 84.69412235105956 191.79157848473847 L 84.69412235105956 191.97659619160703 M 84.69412235105956 193.9393894412644 L 84.69412235105956 194.9692935737678 M 93.5905637744902 190.62043078968497 L 93.5905637744902 191.0293933836638 M 93.5905637744902 191.97758073118513 L 93.5905637744902 192.70795763050586 M 102.48700519792082 187.69437916358 L 102.48700519792082 189.19224253093438 M 102.48700519792082 191.0293933836638 L 102.48700519792082 191.0303779232419 M 111.38344662135144 188.04275470659903 L 111.38344662135144 188.61818022309 M 111.38344662135144 189.19224253093438 L 111.38344662135144 189.73919213347423 M 120.27988804478207 185.9599990960412 L 120.27988804478207 187.41227070754832 M 120.27988804478207 188.61818022309 L 120.27988804478207 190.1102878206032 M 146.96921231507397 186.7375581612969 L 146.96921231507397 187.5874430186359 M 146.96921231507397 188.24806907553915 L 146.96921231507397 189.51327816720777 M 164.7620951619352 188.36522928533273 L 164.7620951619352 188.68497744677322 M 164.7620951619352 188.99518314768756 L 164.7620951619352 189.48169716689497 M 173.65853658536582 187.58835182440032 L 173.65853658536582 187.60243831374848 M 173.65853658536582 188.68414437482252 L 173.65853658536582 188.79085331832553 M 182.55497800879647 185.1725189011908 L 182.55497800879647 185.72174051814167 M 182.55497800879647 187.60243831374848 L 182.55497800879647 188.32327275254303 M 191.4514194322271 183.5488616692811 L 191.4514194322271 184.52120810337266 M 191.4514194322271 185.72181625195537 L 191.4514194322271 186.2812619337557 M 200.34786085565773 174.6175730196653 L 200.34786085565773 177.92502013156238 M 200.34786085565773 184.52113236955896 L 200.34786085565773 184.69569881013697 M 209.24430227908834 174.86507112283618 L 209.24430227908834 176.50455672180917 M 209.24430227908834 177.92661054165006 L 209.24430227908834 178.70416960690577 M 227.0371851259496 175.0034368004657 L 227.0371851259496 175.41997277581453 M 227.0371851259496 176.8488426388884 L 227.0371851259496 177.25068625437947 M 244.83006797281087 174.45754747131764 L 244.83006797281087 175.87089190258305 M 244.83006797281087 176.04167165247608 L 244.83006797281087 178.04589129822722 M 253.72650939624148 170.28855249477178 L 253.72650939624148 171.44818865014292 M 253.72650939624148 175.87119483783786 L 253.72650939624148 176.11566358846076 M 271.51939224310274 171.39714405970926 L 271.51939224310274 172.814956785983 M 271.51939224310274 174.24859787931993 L 271.51939224310274 176.86618568222565 M 280.4158336665334 171.19213262602395 L 280.4158336665334 172.0242957709572 M 280.4158336665334 172.81503251979666 L 280.4158336665334 175.3952078187347 M 289.31227508996403 167.93542716930574 L 289.31227508996403 170.27560201262912 M 289.31227508996403 172.0242957709572 L 289.31227508996403 173.14970024253603 M 316.0015993602559 168.1920890639343 L 316.0015993602559 168.514563642668 M 316.0015993602559 172.10358907390088 L 316.0015993602559 174.10780871965204 M 324.89804078368655 166.73125953147914 L 324.89804078368655 167.60212265521298 M 324.89804078368655 168.514563642668 L 324.89804078368655 172.29012145704345 M 333.7944822071172 155.43934790884097 L 333.7944822071172 156.65093746041015 M 333.7944822071172 167.60212265521298 L 333.7944822071172 167.9841997453284 M 360.483806477409 156.19668604583885 L 360.483806477409 157.5212704474481 M 360.483806477409 162.4954673312501 L 360.483806477409 163.36201362760303 M 387.1731307477009 153.81107091429556 L 387.1731307477009 155.93737346773077 M 387.1731307477009 158.8684992593536 L 387.1731307477009 159.05427430435918 M 396.06957217113154 150.96575153359458 L 396.06957217113154 151.33563547970434 M 396.06957217113154 155.93729773391706 L 396.06957217113154 157.78224916945757 M 404.9660135945622 149.91077950875655 L 404.9660135945622 151.11721916099415 M 404.9660135945622 151.33571121351804 L 404.9660135945622 153.9068741886258 M 431.65533786485406 146.8814269607651 L 431.65533786485406 148.14186482217065 M 431.65533786485406 153.8716579652554 L 431.65533786485406 154.5759824326634 M 440.5517792882847 139.46844980820262 L 440.5517792882847 140.97888498863114 M 440.5517792882847 148.14557577904193 L 440.5517792882847 149.4715233892978 M 449.44822071171535 134.7872670496051 L 449.44822071171535 140.09476844749986 M 449.44822071171535 140.97888498863114 L 449.44822071171535 144.34850956157575 M 458.34466213514594 137.03754585606688 L 458.34466213514594 139.8925591649214 M 458.34466213514594 140.0824238358668 L 458.34466213514594 143.43061573953435 M 467.2411035585766 132.22526786595503 L 467.2411035585766 133.43360086353516 M 467.2411035585766 139.8926348987351 L 467.2411035585766 140.36801604732867 M 476.13754498200717 131.08411076112665 L 476.13754498200717 133.06909401819806 M 476.13754498200717 133.43367659734884 L 476.13754498200717 136.062245803241 M 502.82686925229905 127.65283886383042 L 502.82686925229905 129.61404170340012 M 502.82686925229905 135.6121597484232 L 502.82686925229905 138.2629189617294 M 538.4126349460215 139.30433463391518 L 538.4126349460215 140.52092261718855 M 538.4126349460215 144.91590729381457 L 538.4126349460215 146.9907865877476 M 547.3090763694522 135.67244386412824 L 547.3090763694522 136.99824000675667 M 547.3090763694522 140.52099835100225 L 547.3090763694522 142.05718302808873 M 556.2055177928828 124.28881859309962 L 556.2055177928828 125.55576956248335 M 556.2055177928828 136.99816427294297 L 556.2055177928828 136.99824000675667 M 573.998400639744 128.23576202787768 L 573.998400639744 129.28020705261144 M 573.998400639744 132.6059060136102 L 573.998400639744 135.90002397429606 M 582.8948420631747 126.29697639716316 L 582.8948420631747 127.63064885641639 M 582.8948420631747 129.28028278642512 L 582.8948420631747 131.83160350234354 M 600.687724910036 129.48536995392416 L 600.687724910036 129.70757296331934 M 600.687724910036 133.47267951140424 L 600.687724910036 134.6125491413997 M 609.5841663334666 127.64503828101937 L 609.5841663334666 128.10398519204006 M 609.5841663334666 129.70757296331934 L 609.5841663334666 131.90885199231735 M 636.2734906037584 133.5555323035918 L 636.2734906037584 134.299919958447 M 636.2734906037584 135.94463119056525 L 636.2734906037584 141.04992330588155 M 662.9628148740503 131.21467585594507 L 662.9628148740503 132.274722046301 M 662.9628148740503 138.12258420494373 L 662.9628148740503 138.24247083203045 M 671.8592562974809 127.71319871334916 L 671.8592562974809 129.50059245047782 M 671.8592562974809 132.274722046301 L 671.8592562974809 133.01365686656982 M 680.7556977209116 128.18274835828785 L 680.7556977209116 128.7572650690144 M 680.7556977209116 129.50059245047782 L 680.7556977209116 130.8258584564104 M 689.6521391443422 126.50903107552256 L 689.6521391443422 127.59634143881038 M 689.6521391443422 128.75309970926094 L 689.6521391443422 130.44718938791146 M 698.5485805677728 111.43800214926506 L 698.5485805677728 113.13807479919787 M 698.5485805677728 127.59634143881038 L 698.5485805677728 128.71591440673433 M 707.4450219912034 94.47362788051291 L 707.4450219912034 102.06851765358229 M 707.4450219912034 113.13807479919787 L 707.4450219912034 113.93721800135802 M 716.3414634146341 98.37255607740532 L 716.3414634146341 99.71902755117381 M 716.3414634146341 102.06859338739598 L 716.3414634146341 105.45503086698193 M 725.2379048380647 91.66034390300692 L 725.2379048380647 94.30996710910766 M 725.2379048380647 99.71902755117381 L 725.2379048380647 102.42567831899048 M 751.9272291083566 94.19265543168672 L 751.9272291083566 94.39191109553082 M 751.9272291083566 102.65378856585423 L 751.9272291083566 105.429281370324 M 769.7201119552178 94.5158116147437 L 769.7201119552178 95.00982328150738 M 769.7201119552178 98.77235487992648 L 769.7201119552178 102.7784464232041 M 778.6165533786485 86.97704059762583 L 778.6165533786485 87.56314458184849 M 778.6165533786485 95.01141369159507 L 778.6165533786485 97.2485148144731 M 787.512994802079 71.24584001734732 L 787.512994802079 74.07555823242613 M 787.512994802079 87.56314458184849 L 787.512994802079 89.17226092152785 M 805.3058776489403 66.4521168115919 L 805.3058776489403 69.63740528199128 M 805.3058776489403 75.67997907565609 L 805.3058776489403 77.04727734819205 M 814.202319072371 67.13372113489001 L 814.202319072371 67.32305566913945 M 814.202319072371 69.63732954817755 L 814.202319072371 78.72099463095732 M 823.0987604958016 55.12233828210387 L 823.0987604958016 56.03462780193149 M 823.0987604958016 67.32305566913945 L 823.0987604958016 67.81532545818806 M 831.9952019192323 52.82003034563036 L 831.9952019192323 55.67042389184925 M 831.9952019192323 56.03455206811782 L 831.9952019192323 63.80143333209941 M 840.8916433426629 50.548015934636766 L 840.8916433426629 52.580029890015766 M 840.8916433426629 55.67042389184925 L 840.8916433426629 57.93531932435502 M 849.7880847660936 22.526504865715793 L 849.7880847660936 31.021339546979732 M 849.7880847660936 52.579954156202064 L 849.7880847660936 55.49699345847671 M 858.6845261895241 11.33221412893667 L 858.6845261895241 24.798140607640875 M 858.6845261895241 31.035577503955324 L 858.6845261895241 32.65219149119093 M 876.4774090363853 14.498720613538438 L 876.4774090363853 17.607366464473557 M 876.4774090363853 32.44952780573033 L 876.4774090363853 48.276001523643174 M 885.3738504598159 3.846153846153868 L 885.3738504598159 15.547406731839374 M 885.3738504598159 17.607366464473557 L 885.3738504598159 22.617385442155523" style="stroke-width: 1px;"></path><path class="candle wick down" d="M 13.522590963614554 192.5539150534405 L 13.522590963614554 192.62025787424153 M 13.522590963614554 193.10487854810646 L 13.522590963614554 193.9490076356043 M 22.41903238704518 192.0187799258378 L 22.41903238704518 193.10487854810646 M 22.41903238704518 194.2973831786233 L 22.41903238704518 195.6767231275375 M 31.315473810475808 193.95271859247558 L 31.315473810475808 194.2973831786233 M 31.315473810475808 194.66643405278236 L 31.315473810475808 196.15384615384616 M 40.21191523390643 194.41530072655385 L 40.21191523390643 194.66643405278236 M 40.21191523390643 194.88106368080756 L 40.21191523390643 195.22640987127858 M 66.90123950419832 192.92758569023525 L 66.90123950419832 192.98665806492107 M 66.90123950419832 194.44483691389678 L 66.90123950419832 195.01026556697937 M 129.1763294682127 187.19453599316142 L 129.1763294682127 187.41234644136202 M 129.1763294682127 188.22784814728132 L 129.1763294682127 189.14089500524594 M 138.07277089164333 187.26284789311862 L 138.07277089164333 188.22777241346762 M 138.07277089164333 188.24806907553915 L 138.07277089164333 189.2923626326455 M 155.8656537385046 187.3145740878756 L 155.8656537385046 187.58736728482222 M 155.8656537385046 188.99457727717794 L 155.8656537385046 189.89823314224378 M 218.14074370251896 176.05643974614753 L 218.14074370251896 176.50213323977079 M 218.14074370251896 176.8487669050747 L 218.14074370251896 178.38608758936667 M 235.93362654938022 173.6154631967897 L 235.93362654938022 175.41997277581453 M 235.93362654938022 176.04780609138575 L 235.93362654938022 177.11436538971986 M 262.6229508196721 169.756976856413 L 262.6229508196721 171.44826438395663 M 262.6229508196721 174.24859787931993 L 262.6229508196721 177.11436538971986 M 298.2087165133947 169.48797035015136 L 298.2087165133947 170.27560201262912 M 298.2087165133947 170.4990167630435 L 298.2087165133947 171.6993977101851 M 307.10515793682526 169.98024013919996 L 307.10515793682526 170.4990924968572 M 307.10515793682526 172.10555815305707 L 307.10515793682526 174.7889586400679 M 342.6909236305478 153.84893782114546 L 342.6909236305478 156.65093746041015 M 342.6909236305478 156.72742861224694 L 342.6909236305478 159.8622026289085 M 351.5873650539784 155.41268960641864 L 351.5873650539784 156.72735287843324 M 351.5873650539784 162.4954673312501 L 351.5873650539784 166.08585597112955 M 369.38024790083966 154.7577435855429 L 369.38024790083966 157.5212704474481 M 369.38024790083966 158.63220976061027 L 369.38024790083966 162.592103677531 M 378.2766893242703 157.63562850613476 L 378.2766893242703 158.63220976061027 M 378.2766893242703 158.8684992593536 L 378.2766893242703 160.57061672225632 M 413.86245501799283 151.069582592177 L 413.86245501799283 151.12221759269835 M 413.86245501799283 153.0124578488313 L 413.86245501799283 156.04521841843928 M 422.7588964414235 152.18279391975017 L 422.7588964414235 153.01919815825062 M 422.7588964414235 153.8716579652554 L 422.7588964414235 155.2521339213751 M 485.0339864054379 132.71920379890506 L 485.0339864054379 133.06909401819806 M 485.0339864054379 135.2606033852288 L 485.0339864054379 141.3463454527025 M 493.93042782886846 132.5980296969854 L 493.93042782886846 135.26476874498226 M 493.93042782886846 135.61223548223688 L 493.93042782886846 138.39923982638902 M 511.7233106757297 127.15875146325304 L 511.7233106757297 129.6141174372138 M 511.7233106757297 132.95314554942368 L 511.7233106757297 134.6105043284298 M 520.6197520991603 131.4693686714175 L 520.6197520991603 132.95526609620725 M 520.6197520991603 144.84062788299696 L 520.6197520991603 152.12220686879033 M 529.5161935225909 142.50689041383805 L 529.5161935225909 144.84062788299696 M 529.5161935225909 144.91598302762824 L 529.5161935225909 150.22825565578606 M 565.1019592163135 124.10069579986936 L 565.1019592163135 125.55576956248335 M 565.1019592163135 132.6059060136102 L 565.1019592163135 138.39075763925467 M 591.7912834866053 126.83468647443165 L 591.7912834866053 127.62731656861361 M 591.7912834866053 133.4726037775905 L 591.7912834866053 134.1179316041264 M 618.4806077568971 127.63814650397268 L 618.4806077568971 128.10951376044017 M 618.4806077568971 129.56186110576095 L 618.4806077568971 131.5613852550627 M 627.3770491803277 128.59292269328589 L 627.3770491803277 129.56186110576095 M 627.3770491803277 135.94463119056525 L 627.3770491803277 136.8845635523933 M 645.169932027189 134.17844292127253 L 645.169932027189 134.29984422463326 M 645.169932027189 136.47082972815136 L 645.169932027189 139.07236196255275 M 654.0663734506197 136.1822838979552 L 654.0663734506197 136.46946651950478 M 654.0663734506197 138.12258420494373 L 654.0663734506197 141.63814783688778 M 734.1343462614954 90.72480410237347 L 734.1343462614954 94.31004284292138 M 734.1343462614954 97.08250629484314 L 734.1343462614954 100.0779300942971 M 743.0307876849259 92.18063520312447 L 743.0307876849259 97.08235482721574 M 743.0307876849259 102.65507604068715 L 743.0307876849259 109.5067898999205 M 760.8236705317872 92.20161346951932 L 760.8236705317872 94.39191109553082 M 760.8236705317872 98.7695527288196 L 760.8236705317872 103.56168552448727 M 796.4094362255097 59.46945918847163 L 796.4094362255097 74.0754824986124 M 796.4094362255097 75.67907026989171 L 796.4094362255097 80.08420327755348 M 867.5809676129546 20.2544904547222 L 867.5809676129546 24.798140607640875 M 867.5809676129546 32.457404122355086 L 867.5809676129546 61.680886548505356" style="stroke-width: 1px;"></path><path class="candle wick equal" style="stroke-width: 1px;"></path></g></g><g class="x axis" transform="translate(0,200)" fill="none" font-size="10" font-family="sans-serif" text-anchor="middle"><path class="domain" stroke="#000" d="M0.5,6V0.5H890.5V6"></path><g class="tick" opacity="1" transform="translate(58.004798080767685,0)"><line stroke="#000" y2="6" x1="0.5" x2="0.5"></line><text fill="#000" y="9" x="0.5" dy="0.71em">Oct  5</text></g><g class="tick" opacity="1" transform="translate(120.27988804478207,0)"><line stroke="#000" y2="6" x1="0.5" x2="0.5"></line><text fill="#000" y="9" x="0.5" dy="0.71em">Oct 12</text></g><g class="tick" opacity="1" transform="translate(182.55497800879647,0)"><line stroke="#000" y2="6" x1="0.5" x2="0.5"></line><text fill="#000" y="9" x="0.5" dy="0.71em">Oct 19</text></g><g class="tick" opacity="1" transform="translate(244.83006797281087,0)"><line stroke="#000" y2="6" x1="0.5" x2="0.5"></line><text fill="#000" y="9" x="0.5" dy="0.71em">Oct 26</text></g><g class="tick" opacity="1" transform="translate(307.10515793682526,0)"><line stroke="#000" y2="6" x1="0.5" x2="0.5"></line><text fill="#000" y="9" x="0.5" dy="0.71em">Nov  2</text></g><g class="tick" opacity="1" transform="translate(369.38024790083966,0)"><line stroke="#000" y2="6" x1="0.5" x2="0.5"></line><text fill="#000" y="9" x="0.5" dy="0.71em">Nov  9</text></g><g class="tick" opacity="1" transform="translate(431.65533786485406,0)"><line stroke="#000" y2="6" x1="0.5" x2="0.5"></line><text fill="#000" y="9" x="0.5" dy="0.71em">Nov 16</text></g><g class="tick" opacity="1" transform="translate(493.93042782886846,0)"><line stroke="#000" y2="6" x1="0.5" x2="0.5"></line><text fill="#000" y="9" x="0.5" dy="0.71em">Nov 23</text></g><g class="tick" opacity="1" transform="translate(556.2055177928828,0)"><line stroke="#000" y2="6" x1="0.5" x2="0.5"></line><text fill="#000" y="9" x="0.5" dy="0.71em">Nov 30</text></g><g class="tick" opacity="1" transform="translate(618.4806077568971,0)"><line stroke="#000" y2="6" x1="0.5" x2="0.5"></line><text fill="#000" y="9" x="0.5" dy="0.71em">Dec  7</text></g><g class="tick" opacity="1" transform="translate(680.7556977209116,0)"><line stroke="#000" y2="6" x1="0.5" x2="0.5"></line><text fill="#000" y="9" x="0.5" dy="0.71em">Dec 14</text></g><g class="tick" opacity="1" transform="translate(743.0307876849259,0)"><line stroke="#000" y2="6" x1="0.5" x2="0.5"></line><text fill="#000" y="9" x="0.5" dy="0.71em">Dec 21</text></g><g class="tick" opacity="1" transform="translate(805.3058776489403,0)"><line stroke="#000" y2="6" x1="0.5" x2="0.5"></line><text fill="#000" y="9" x="0.5" dy="0.71em">Dec 28</text></g><g class="tick" opacity="1" transform="translate(867.5809676129546,0)"><line stroke="#000" y2="6" x1="0.5" x2="0.5"></line><text fill="#000" y="9" x="0.5" dy="0.71em">Jan  4</text></g></g><g class="y axis" fill="none" font-size="10" font-family="sans-serif" text-anchor="end"><path class="domain" stroke="#000" d="M-6,200.5H0.5V0.5H-6"></path><g class="tick" opacity="1" transform="translate(0,198.98629078621818)"><line stroke="#000" x2="-6" y1="0.5" y2="0.5"></line><text fill="#000" x="-9" y="0.5" dy="0.32em">10,000</text></g><g class="tick" opacity="1" transform="translate(0,183.83952804626088)"><line stroke="#000" x2="-6" y1="0.5" y2="0.5"></line><text fill="#000" x="-9" y="0.5" dy="0.32em">12,000</text></g><g class="tick" opacity="1" transform="translate(0,168.6927653063036)"><line stroke="#000" x2="-6" y1="0.5" y2="0.5"></line><text fill="#000" x="-9" y="0.5" dy="0.32em">14,000</text></g><g class="tick" opacity="1" transform="translate(0,153.54600256634632)"><line stroke="#000" x2="-6" y1="0.5" y2="0.5"></line><text fill="#000" x="-9" y="0.5" dy="0.32em">16,000</text></g><g class="tick" opacity="1" transform="translate(0,138.39923982638902)"><line stroke="#000" x2="-6" y1="0.5" y2="0.5"></line><text fill="#000" x="-9" y="0.5" dy="0.32em">18,000</text></g><g class="tick" opacity="1" transform="translate(0,123.25247708643174)"><line stroke="#000" x2="-6" y1="0.5" y2="0.5"></line><text fill="#000" x="-9" y="0.5" dy="0.32em">20,000</text></g><g class="tick" opacity="1" transform="translate(0,108.10571434647446)"><line stroke="#000" x2="-6" y1="0.5" y2="0.5"></line><text fill="#000" x="-9" y="0.5" dy="0.32em">22,000</text></g><g class="tick" opacity="1" transform="translate(0,92.95895160651718)"><line stroke="#000" x2="-6" y1="0.5" y2="0.5"></line><text fill="#000" x="-9" y="0.5" dy="0.32em">24,000</text></g><g class="tick" opacity="1" transform="translate(0,77.8121888665599)"><line stroke="#000" x2="-6" y1="0.5" y2="0.5"></line><text fill="#000" x="-9" y="0.5" dy="0.32em">26,000</text></g><g class="tick" opacity="1" transform="translate(0,62.6654261266026)"><line stroke="#000" x2="-6" y1="0.5" y2="0.5"></line><text fill="#000" x="-9" y="0.5" dy="0.32em">28,000</text></g><g class="tick" opacity="1" transform="translate(0,47.51866338664533)"><line stroke="#000" x2="-6" y1="0.5" y2="0.5"></line><text fill="#000" x="-9" y="0.5" dy="0.32em">30,000</text></g><g class="tick" opacity="1" transform="translate(0,32.37190064668803)"><line stroke="#000" x2="-6" y1="0.5" y2="0.5"></line><text fill="#000" x="-9" y="0.5" dy="0.32em">32,000</text></g><g class="tick" opacity="1" transform="translate(0,17.225137906730737)"><line stroke="#000" x2="-6" y1="0.5" y2="0.5"></line><text fill="#000" x="-9" y="0.5" dy="0.32em">34,000</text></g><g class="tick" opacity="1" transform="translate(0,2.0783751667734407)"><line stroke="#000" x2="-6" y1="0.5" y2="0.5"></line><text fill="#000" x="-9" y="0.5" dy="0.32em">36,000</text></g><text transform="rotate(-90)" y="6" dy=".71em" style="text-anchor: end;">Price ($)</text></g></g></svg>