<?xml version="1.0" encoding="utf-8"?>
<!DOCTYPE svg PUBLIC "-//W3C//DTD SVG 1.1//EN" "http://www.w3.org/Graphics/SVG/1.1/DTD/svg11.dtd">
<svg version="1.1" xmlns="http://www.w3.org/2000/svg" width="960" height="250"><g transform="translate(50,20)"><style>.axis path,.axis line{fill:none;stroke:#000;shape-rendering:crispEdges;}path.candle{stroke:#000000;}path.candle.body{stroke-width:0;}path.candle.up{fill:#00AA00;stroke:#00AA00;}path.candle.down{fill:#FF0000;stroke:#FF0000;}</style><g class="candlestick"><g class="data"><path class="candle body up" d="M 9.964014394242305 65.0194046877082 l 7.1171531387445 0 L 17.081167532986804 64.51638868679441 l -7.1171531387445 0 L 9.964014394242305 65.0194046877082 M 27.75689724110356 71.1767757686969 l 7.1171531387445 0 L 34.87405037984806 58.92941279079869 l -7.1171531387445 0 L 27.75689724110356 71.1767757686969 M 45.54978008796481 61.45800743017804 l 7.1171531387445 0 L 52.66693322670931 49.600887615348995 l -7.1171531387445 0 L 45.54978008796481 61.45800743017804 M 63.342662934826066 50.86900007118135 l 7.1171531387445 0 L 70.45981607357056 45.43973802352457 l -7.1171531387445 0 L 63.342662934826066 50.86900007118135 M 72.23910435825668 45.43973802352457 l 7.1171531387445 0 L 79.35625749700118 42.57114362417548 l -7.1171531387445 0 L 72.23910435825668 45.43973802352457 M 98.92842862854857 50.323435602778005 l 7.1171531387445 0 L 106.04558176729307 41.5171314356044 l -7.1171531387445 0 L 98.92842862854857 50.323435602778005 M 107.82487005197919 41.5171314356044 l 7.1171531387445 0 L 114.94202319072369 38.16349743953921 l -7.1171531387445 0 L 107.82487005197919 41.5171314356044 M 116.72131147540982 38.16349743953921 l 7.1171531387445 0 L 123.83846461415432 30.99427465752231 l -7.1171531387445 0 L 116.72131147540982 38.16349743953921 M 125.61775289884046 30.99427465752231 l 7.1171531387445 0 L 132.73490603758498 28.914055509894553 l -7.1171531387445 0 L 125.61775289884046 30.99427465752231 M 134.51419432227107 28.914055509894553 l 7.1171531387445 0 L 141.63134746101557 27.6330103891718 l -7.1171531387445 0 L 134.51419432227107 28.914055509894553 M 143.4106357457017 27.6330103891718 l 7.1171531387445 0 L 150.5277888844462 12.653815943140927 l -7.1171531387445 0 L 143.4106357457017 27.6330103891718 M 152.30707716913233 12.653815943140927 l 7.1171531387445 0 L 159.42423030787683 10.749804354645505 l -7.1171531387445 0 L 152.30707716913233 12.653815943140927 M 161.20351859256294 10.749804354645505 l 7.1171531387445 0 L 168.32067173130744 8.728493495593739 l -7.1171531387445 0 L 161.20351859256294 10.749804354645505 M 187.89284286285485 21.172626969800035 l 7.1171531387445 0 L 195.00999600159935 16.173246703101597 l -7.1171531387445 0 L 187.89284286285485 21.172626969800035 M 205.68572570971608 19.228588783468666 l 7.1171531387445 0 L 212.80287884846058 15.372326766436458 l -7.1171531387445 0 L 205.68572570971608 19.228588783468666 M 214.5821671331467 15.372262103111979 l 7.1171531387445 0 L 221.6993202718912 14.252616640221902 l -7.1171531387445 0 L 214.5821671331467 15.372262103111979 M 241.2714914034386 36.303068931724596 l 7.1171531387445 0 L 248.3886445421831 34.53310441481858 l -7.1171531387445 0 L 241.2714914034386 36.303068931724596 M 259.06437425029986 42.24207196603817 l 7.1171531387445 0 L 266.1815273890444 38.99629639515928 l -7.1171531387445 0 L 259.06437425029986 42.24207196603817 M 285.7536985205918 59.84064835897931 l 7.1171531387445 0 L 292.8708516593363 56.31979500588068 l -7.1171531387445 0 L 285.7536985205918 59.84064835897931 M 294.65013994402244 56.319730342556284 l 7.1171531387445 0 L 301.76729308276697 49.38239024202494 l -7.1171531387445 0 L 294.65013994402244 56.319730342556284 M 312.4430227908837 57.177036698143695 l 7.1171531387445 0 L 319.5601759296282 53.2356130828079 l -7.1171531387445 0 L 312.4430227908837 57.177036698143695 M 339.13234706117555 58.88582971011792 l 7.1171531387445 0 L 346.2495001999201 51.6240090474854 l -7.1171531387445 0 L 339.13234706117555 58.88582971011792 M 348.02878848460614 51.6240090474854 l 7.1171531387445 0 L 355.14594162335067 47.14898367876995 l -7.1171531387445 0 L 348.02878848460614 51.6240090474854 M 392.5109956017593 60.41511733341275 l 7.1171531387445 0 L 399.62814874050383 60.36002418097951 l -7.1171531387445 0 L 392.5109956017593 60.41511733341275 M 401.40743702518995 60.3600888443039 l 7.1171531387445 0 L 408.5245901639345 54.04920703106566 l -7.1171531387445 0 L 401.40743702518995 60.3600888443039 M 419.20031987205124 69.00867916313862 l 7.1171531387445 0 L 426.31747301079577 61.74647052055937 l -7.1171531387445 0 L 419.20031987205124 69.00867916313862 M 428.0967612954818 61.74647052055937 l 7.1171531387445 0 L 435.21391443422635 58.47224308692154 l -7.1171531387445 0 L 428.0967612954818 61.74647052055937 M 454.7860855657737 72.12441678854404 l 7.1171531387445 0 L 461.90323870451823 66.7085400490489 l -7.1171531387445 0 L 454.7860855657737 72.12441678854404 M 463.68252698920435 66.7085400490489 l 7.1171531387445 0 L 470.7996801279489 66.34118770283587 l -7.1171531387445 0 L 463.68252698920435 66.7085400490489 M 481.47540983606564 71.4897462590456 l 7.1171531387445 0 L 488.59256297481016 58.80894501734423 l -7.1171531387445 0 L 481.47540983606564 71.4897462590456 M 534.8540583766493 120.98771055413053 l 7.1171531387445 0 L 541.9712115153937 114.89079968150466 l -7.1171531387445 0 L 534.8540583766493 120.98771055413053 M 561.5433826469413 127.7417301298398 l 7.1171531387445 0 L 568.6605357856857 126.0778781283599 l -7.1171531387445 0 L 561.5433826469413 127.7417301298398 M 570.4398240703717 126.0778781283599 l 7.1171531387445 0 L 577.5569772091162 120.9068167352408 l -7.1171531387445 0 L 570.4398240703717 126.0778781283599 M 579.3362654938024 120.9068167352408 l 7.1171531387445 0 L 586.4534186325469 112.8746618884091 l -7.1171531387445 0 L 579.3362654938024 120.9068167352408 M 597.1291483406637 122.28239963631276 l 7.1171531387445 0 L 604.2463014794082 118.59064111668697 l -7.1171531387445 0 L 597.1291483406637 122.28239963631276 M 614.9220311875249 129.77480971394183 l 7.1171531387445 0 L 622.0391843262694 119.4034591050513 l -7.1171531387445 0 L 614.9220311875249 129.77480971394183 M 632.7149140343862 126.63424137194674 l 7.1171531387445 0 L 639.8320671731307 125.05613293869045 l -7.1171531387445 0 L 632.7149140343862 126.63424137194674 M 641.6113554578168 125.056068275366 l 7.1171531387445 0 L 648.7285085965613 119.56699265259095 l -7.1171531387445 0 L 641.6113554578168 125.056068275366 M 659.4042383046781 127.22830333368923 l 7.1171531387445 0 L 666.5213914434225 123.70130696476767 l -7.1171531387445 0 L 659.4042383046781 127.22830333368923 M 694.9900039984005 130.32781046465718 l 7.1171531387445 0 L 702.107157137145 127.73144866125189 l -7.1171531387445 0 L 694.9900039984005 130.32781046465718 M 703.8864454218311 127.73144866125189 l 7.1171531387445 0 L 711.0035985605756 124.90714863915257 l -7.1171531387445 0 L 703.8864454218311 127.73144866125189 M 712.7828868452618 124.90714863915257 l 7.1171531387445 0 L 719.9000399840063 110.2536633583875 l -7.1171531387445 0 L 712.7828868452618 124.90714863915257 M 721.6793282686924 110.25359869506306 l 7.1171531387445 0 L 728.7964814074369 109.82158302439781 l -7.1171531387445 0 L 721.6793282686924 110.25359869506306 M 739.4722111155537 122.72320951910349 l 7.1171531387445 0 L 746.5893642542982 118.54091502018322 l -7.1171531387445 0 L 739.4722111155537 122.72320951910349 M 757.265093962415 123.40624821529224 l 7.1171531387445 0 L 764.3822471011595 122.3468689707916 l -7.1171531387445 0 L 757.265093962415 123.40624821529224 M 766.1615353858456 122.34693363411607 l 7.1171531387445 0 L 773.27868852459 121.99012140978876 l -7.1171531387445 0 L 766.1615353858456 122.34693363411607 M 775.0579768092763 121.9901860731132 l 7.1171531387445 0 L 782.1751299480208 112.58878533100585 l -7.1171531387445 0 L 775.0579768092763 121.9901860731132 M 855.1259496201519 172.3162289011332 l 7.1171531387445 0 L 862.2431027588964 169.42383839838567 l -7.1171531387445 0 L 855.1259496201519 172.3162289011332 M 872.9188324670131 183.54061808619736 l 7.1171531387445 0 L 880.0359856057576 183.09954955010878 l -7.1171531387445 0 L 872.9188324670131 183.54061808619736"></path><path class="candle body down" d="M 1.0675729708116766 60.54185744933909 l 7.1171531387445 0 L 8.184726109556177 65.0194046877082 l -7.1171531387445 0 L 1.0675729708116766 60.54185744933909 M 18.860455817672932 64.5164533501189 l 7.1171531387445 0 L 25.977608956417434 71.17684043202135 l -7.1171531387445 0 L 18.860455817672932 64.5164533501189 M 36.65333866453418 58.92941279079869 l 7.1171531387445 0 L 43.77049180327868 61.45800743017804 l -7.1171531387445 0 L 36.65333866453418 58.92941279079869 M 54.446221511395436 49.600822952024515 l 7.1171531387445 0 L 61.563374650139934 50.868935407856895 l -7.1171531387445 0 L 54.446221511395436 49.600822952024515 M 81.13554578168731 42.57114362417548 l 7.1171531387445 0 L 88.25269892043181 48.64315911688726 l -7.1171531387445 0 L 81.13554578168731 42.57114362417548 M 90.03198720511796 48.64315911688726 l 7.1171531387445 0 L 97.14914034386246 50.323500266102485 l -7.1171531387445 0 L 90.03198720511796 48.64315911688726 M 170.09996001599356 8.72855815891819 l 7.1171531387445 0 L 177.21711315473806 11.100408899825425 l -7.1171531387445 0 L 170.09996001599356 8.72855815891819 M 178.9964014394242 11.100408899825425 l 7.1171531387445 0 L 186.1135545781687 21.172691633124487 l -7.1171531387445 0 L 178.9964014394242 11.100408899825425 M 196.78928428628546 16.173246703101597 l 7.1171531387445 0 L 203.90643742502996 19.228524120144215 l -7.1171531387445 0 L 196.78928428628546 16.173246703101597 M 223.47860855657734 14.252681303546353 l 7.1171531387445 0 L 230.59576169532184 21.255396025098833 l -7.1171531387445 0 L 223.47860855657734 14.252681303546353 M 232.37504998000796 21.255460688423312 l 7.1171531387445 0 L 239.49220311875246 36.303068931724596 l -7.1171531387445 0 L 232.37504998000796 21.255460688423312 M 250.16793282686922 34.53303975149419 l 7.1171531387445 0 L 257.28508596561375 42.24213662936259 l -7.1171531387445 0 L 250.16793282686922 34.53303975149419 M 267.9608156737305 38.99636105848376 l 7.1171531387445 0 L 275.07796881247504 42.84454015995945 l -7.1171531387445 0 L 267.9608156737305 38.99636105848376 M 276.85725709716115 42.84454015995945 l 7.1171531387445 0 L 283.9744102359057 59.84064835897931 l -7.1171531387445 0 L 276.85725709716115 42.84454015995945 M 303.54658136745303 49.38245490534942 l 7.1171531387445 0 L 310.66373450619756 57.17697203481927 l -7.1171531387445 0 L 303.54658136745303 49.38245490534942 M 321.3394642143143 53.2356130828079 l 7.1171531387445 0 L 328.45661735305885 54.35551719899584 l -7.1171531387445 0 L 321.3394642143143 53.2356130828079 M 330.23590563774496 54.35558186232029 l 7.1171531387445 0 L 337.3530587764895 58.88576504679344 l -7.1171531387445 0 L 330.23590563774496 54.35558186232029 M 356.9252299080368 47.1489190154455 l 7.1171531387445 0 L 364.0423830467813 48.02187389555036 l -7.1171531387445 0 L 356.9252299080368 47.1489190154455 M 365.8216713314674 48.02187389555036 l 7.1171531387445 0 L 372.93882447021196 53.70047772229486 l -7.1171531387445 0 L 365.8216713314674 48.02187389555036 M 374.7181127548981 53.70047772229486 l 7.1171531387445 0 L 381.8352658936426 58.68492076104488 l -7.1171531387445 0 L 374.7181127548981 53.70047772229486 M 383.61455417832866 58.6848560977204 l 7.1171531387445 0 L 390.7317073170732 60.4151819967372 l -7.1171531387445 0 L 383.61455417832866 58.6848560977204 M 410.3038784486206 54.04920703106566 l 7.1171531387445 0 L 417.4210315873651 69.00861449981414 l -7.1171531387445 0 L 410.3038784486206 54.04920703106566 M 436.99320271891247 58.47230775024602 l 7.1171531387445 0 L 444.110355857657 65.88240141584743 l -7.1171531387445 0 L 436.99320271891247 58.47230775024602 M 445.8896441423431 65.88240141584743 l 7.1171531387445 0 L 453.00679728108764 72.12441678854404 l -7.1171531387445 0 L 445.8896441423431 65.88240141584743 M 472.57896841263494 66.34118770283587 l 7.1171531387445 0 L 479.69612155137946 71.4897462590456 l -7.1171531387445 0 L 472.57896841263494 66.34118770283587 M 490.3718512594962 58.80894501734423 l 7.1171531387445 0 L 497.48900439824075 79.09402388797702 l -7.1171531387445 0 L 490.3718512594962 58.80894501734423 M 499.2682926829268 79.09402388797702 l 7.1171531387445 0 L 506.38544582167134 82.58067034244041 l -7.1171531387445 0 L 499.2682926829268 79.09402388797702 M 508.16473410635746 82.58067034244041 l 7.1171531387445 0 L 515.281887245102 86.08141340163434 l -7.1171531387445 0 L 508.16473410635746 82.58067034244041 M 517.0611755297881 86.08134873830986 l 7.1171531387445 0 L 524.1783286685326 95.3540694647573 l -7.1171531387445 0 L 517.0611755297881 86.08134873830986 M 525.9576169532187 95.35413412808178 l 7.1171531387445 0 L 533.0747700919632 120.97426058264446 l -7.1171531387445 0 L 525.9576169532187 95.35413412808178 M 543.75049980008 114.8907350181802 l 7.1171531387445 0 L 550.8676529388244 127.26192826240438 l -7.1171531387445 0 L 543.75049980008 114.8907350181802 M 552.6469412235106 127.26192826240438 l 7.1171531387445 0 L 559.764094362255 127.74166546651536 l -7.1171531387445 0 L 552.6469412235106 127.26192826240438 M 588.232706917233 112.8746618884091 l 7.1171531387445 0 L 595.3498600559775 122.28239963631276 l -7.1171531387445 0 L 588.232706917233 112.8746618884091 M 606.0255897640943 118.59064111668697 l 7.1171531387445 0 L 613.1427429028388 129.77487437726631 l -7.1171531387445 0 L 606.0255897640943 118.59064111668697 M 623.8184726109555 119.40352376837573 l 7.1171531387445 0 L 630.9356257497 126.63424137194674 l -7.1171531387445 0 L 623.8184726109555 119.40352376837573 M 650.5077968812475 119.56705731591539 l 7.1171531387445 0 L 657.624950019992 127.22823867036476 l -7.1171531387445 0 L 650.5077968812475 119.56705731591539 M 668.3006797281087 123.70130696476767 l 7.1171531387445 0 L 675.4178328668531 124.42831672158391 l -7.1171531387445 0 L 668.3006797281087 123.70130696476767 M 677.1971211515394 124.42838138490838 l 7.1171531387445 0 L 684.3142742902838 126.63204281891537 l -7.1171531387445 0 L 677.1971211515394 124.42838138490838 M 686.09356257497 126.63204281891537 l 7.1171531387445 0 L 693.2107157137144 130.32787512798166 l -7.1171531387445 0 L 686.09356257497 126.63204281891537 M 730.5757696921231 109.82151836107337 l 7.1171531387445 0 L 737.6929228308676 122.72327418242793 l -7.1171531387445 0 L 730.5757696921231 109.82151836107337 M 748.3686525389844 118.54085035685875 l 7.1171531387445 0 L 755.4858056777289 123.40624821529224 l -7.1171531387445 0 L 748.3686525389844 118.54085035685875 M 783.9544182327068 112.58878533100585 l 7.1171531387445 0 L 791.0715713714512 114.19094852095833 l -7.1171531387445 0 L 783.9544182327068 112.58878533100585 M 792.8508596561375 114.1910131842828 l 7.1171531387445 0 L 799.9680127948819 120.14359551673132 l -7.1171531387445 0 L 792.8508596561375 114.1910131842828 M 801.747301079568 120.14359551673132 l 7.1171531387445 0 L 808.8644542183125 120.75686248583612 l -7.1171531387445 0 L 801.747301079568 120.14359551673132 M 810.6437425029987 120.75686248583612 l 7.1171531387445 0 L 817.7608956417432 127.33991223169375 l -7.1171531387445 0 L 810.6437425029987 120.75686248583612 M 819.5401839264293 127.3399768950182 l 7.1171531387445 0 L 826.6573370651738 131.65411991249653 l -7.1171531387445 0 L 819.5401839264293 127.3399768950182 M 828.43662534986 131.6540552491721 l 7.1171531387445 0 L 835.5537784886045 143.61793421267177 l -7.1171531387445 0 L 828.43662534986 131.6540552491721 M 837.3330667732906 143.61793421267177 l 7.1171531387445 0 L 844.4502199120351 170.04661087618493 l -7.1171531387445 0 L 837.3330667732906 143.61793421267177 M 846.2295081967213 170.0604488276177 l 7.1171531387445 0 L 853.3466613354658 172.31629356445765 l -7.1171531387445 0 L 846.2295081967213 170.0604488276177 M 864.0223910435824 169.42383839838567 l 7.1171531387445 0 L 871.1395441823269 183.53602699016122 l -7.1171531387445 0 L 864.0223910435824 169.42383839838567 M 881.8152738904437 183.09954955010878 l 7.1171531387445 0 L 888.9324270291881 195.5151018349072 l -7.1171531387445 0 L 881.8152738904437 183.09954955010878"></path><path class="candle body equal"></path><path class="candle wick up" d="M 13.522590963614554 60.123485740133276 L 13.522590963614554 64.51638868679441 M 13.522590963614554 65.0194046877082 L 13.522590963614554 65.46590494305073 M 31.315473810475808 57.146321619028896 L 31.315473810475808 58.92941279079869 M 31.315473810475808 71.1767757686969 L 31.315473810475808 72.61456478789185 M 49.10835665733706 45.69522281843527 L 49.10835665733706 49.600887615348995 M 49.10835665733706 61.45800743017804 L 49.10835665733706 64.37981974555132 M 66.90123950419832 41.77002969753701 L 66.90123950419832 45.43973802352457 M 66.90123950419832 50.86900007118135 L 66.90123950419832 55.93116842592289 M 75.79768092762893 41.2851840907943 L 75.79768092762893 42.57114362417548 M 75.79768092762893 45.43973802352457 L 75.79768092762893 47.109474387529644 M 102.48700519792082 35.07103861093657 L 102.48700519792082 41.5171314356044 M 102.48700519792082 50.323435602778005 L 102.48700519792082 51.143043240209806 M 111.38344662135144 37.23751863338353 L 111.38344662135144 38.16349743953921 M 111.38344662135144 41.5171314356044 L 111.38344662135144 45.478794671493716 M 120.27988804478207 29.510704004615178 L 120.27988804478207 30.99427465752231 M 120.27988804478207 38.16349743953921 L 120.27988804478207 40.247596386634086 M 129.1763294682127 23.863979196825625 L 129.1763294682127 28.914055509894553 M 129.1763294682127 30.99427465752231 L 129.1763294682127 33.6613781378783 M 138.07277089164333 25.811315212704045 L 138.07277089164333 27.6330103891718 M 138.07277089164333 28.914055509894553 L 138.07277089164333 30.473670232357506 M 146.96921231507397 11.546521175221216 L 146.96921231507397 12.653815943140927 M 146.96921231507397 27.6330103891718 L 146.96921231507397 28.21375170607712 M 155.8656537385046 3.8461538461538396 L 155.8656537385046 10.749804354645505 M 155.8656537385046 12.653815943140927 L 155.8656537385046 13.715587730646291 M 164.7620951619352 4.449915306564122 L 164.7620951619352 8.728493495593739 M 164.7620951619352 10.749804354645505 L 164.7620951619352 11.857875082458634 M 191.4514194322271 13.350045957517949 L 191.4514194322271 16.173246703101597 M 191.4514194322271 21.172626969800035 L 191.4514194322271 29.645785689395836 M 209.24430227908834 8.668291940528746 L 209.24430227908834 15.372326766436458 M 209.24430227908834 19.228588783468666 L 209.24430227908834 21.039614511401822 M 218.14074370251896 12.246760315714255 L 218.14074370251896 14.252616640221902 M 218.14074370251896 15.372262103111979 L 218.14074370251896 23.709692504682636 M 244.83006797281087 31.57928375384148 L 244.83006797281087 34.53310441481858 M 244.83006797281087 36.303068931724596 L 244.83006797281087 39.16843016485109 M 262.6229508196721 38.69865111270576 L 262.6229508196721 38.99629639515928 M 262.6229508196721 42.24207196603817 L 262.6229508196721 43.06032167365646 M 289.31227508996403 52.28441558011585 L 289.31227508996403 56.31979500588068 M 289.31227508996403 59.84064835897931 L 289.31227508996403 61.624192174020266 M 298.2087165133947 46.70843244927704 L 298.2087165133947 49.38239024202494 M 298.2087165133947 56.319730342556284 L 298.2087165133947 59.46501910723637 M 316.0015993602559 51.17634485230272 L 316.0015993602559 53.2356130828079 M 316.0015993602559 57.177036698143695 L 316.0015993602559 58.3149172185293 M 342.6909236305478 49.5832345277735 L 342.6909236305478 51.6240090474854 M 342.6909236305478 58.88582971011792 L 342.6909236305478 66.26779482958261 M 351.5873650539784 45.42363685573599 L 351.5873650539784 47.14898367876995 M 351.5873650539784 51.6240090474854 L 351.5873650539784 53.11210613310419 M 396.06957217113154 57.19236190603888 L 396.06957217113154 60.36002418097951 M 396.06957217113154 60.41511733341275 L 396.06957217113154 63.72581488204162 M 404.9660135945622 52.82112117306923 L 404.9660135945622 54.04920703106566 M 404.9660135945622 60.3600888443039 L 404.9660135945622 68.44378036072408 M 422.7588964414235 60.20101706615145 L 422.7588964414235 61.74647052055937 M 422.7588964414235 69.00867916313862 L 422.7588964414235 70.50453584769167 M 431.65533786485406 54.394832500262794 L 431.65533786485406 58.47224308692154 M 431.65533786485406 61.74647052055937 L 431.65533786485406 64.03742744257684 M 458.34466213514594 65.3722724492439 L 458.34466213514594 66.7085400490489 M 458.34466213514594 72.12441678854404 L 458.34466213514594 73.7049177648051 M 467.2411035585766 62.188638333163624 L 467.2411035585766 66.34118770283587 M 467.2411035585766 66.7085400490489 L 467.2411035585766 69.40079756261684 M 485.0339864054379 56.65067723710271 L 485.0339864054379 58.80894501734423 M 485.0339864054379 71.4897462590456 L 485.0339864054379 71.87093655669139 M 538.4126349460215 104.27379310302013 L 538.4126349460215 114.89079968150466 M 538.4126349460215 120.98771055413053 L 538.4126349460215 123.21102963877098 M 565.1019592163135 114.46227583035984 L 565.1019592163135 126.0778781283599 M 565.1019592163135 127.7417301298398 L 565.1019592163135 129.53982319288252 M 573.998400639744 119.24800847306817 L 573.998400639744 120.9068167352408 M 573.998400639744 126.0778781283599 L 573.998400639744 130.3265818614926 M 582.8948420631747 112.02686104151611 L 582.8948420631747 112.8746618884091 M 582.8948420631747 120.9068167352408 L 582.8948420631747 124.83019928305443 M 600.687724910036 116.36984390170014 L 600.687724910036 118.59064111668697 M 600.687724910036 122.28239963631276 L 600.687724910036 125.02173205008188 M 618.4806077568971 117.94239128905353 L 618.4806077568971 119.4034591050513 M 618.4806077568971 129.77480971394183 L 618.4806077568971 129.92967837600492 M 636.2734906037584 123.69096083285532 L 636.2734906037584 125.05613293869045 M 636.2734906037584 126.63424137194674 L 636.2734906037584 128.27494390327277 M 645.169932027189 118.31220084159573 L 645.169932027189 119.56699265259095 M 645.169932027189 125.056068275366 L 645.169932027189 126.28441278666025 M 662.9628148740503 122.46442689464573 L 662.9628148740503 123.70130696476767 M 662.9628148740503 127.22830333368923 L 662.9628148740503 130.07439489612895 M 698.5485805677728 126.2139944263318 L 698.5485805677728 127.73144866125189 M 698.5485805677728 130.32781046465718 L 698.5485805677728 131.49052170163242 M 707.4450219912034 124.13325797210847 L 707.4450219912034 124.90714863915257 M 707.4450219912034 127.73144866125189 L 707.4450219912034 128.97376045062782 M 716.3414634146341 107.09951571825742 L 716.3414634146341 110.2536633583875 M 716.3414634146341 124.90714863915257 L 716.3414634146341 125.99659632952346 M 725.2379048380647 105.95497487545325 L 725.2379048380647 109.82158302439781 M 725.2379048380647 110.25359869506306 L 725.2379048380647 113.70804281394923 M 743.0307876849259 117.01240335678179 L 743.0307876849259 118.54091502018322 M 743.0307876849259 122.72320951910349 L 743.0307876849259 124.08948090145432 M 760.8236705317872 121.53961202833017 L 760.8236705317872 122.3468689707916 M 760.8236705317872 123.40624821529224 L 760.8236705317872 124.79786762082831 M 769.7201119552178 120.24556957939248 L 769.7201119552178 121.99012140978876 M 769.7201119552178 122.34693363411607 L 769.7201119552178 124.49770046872115 M 778.6165533786485 110.05049119295866 L 778.6165533786485 112.58878533100585 M 778.6165533786485 121.9901860731132 L 778.6165533786485 122.17751572405126 M 858.6845261895241 168.0253000171332 L 858.6845261895241 169.42383839838567 M 858.6845261895241 172.3162289011332 L 858.6845261895241 185.40925883621742 M 876.4774090363853 177.3017065530744 L 876.4774090363853 183.09954955010878 M 876.4774090363853 183.54061808619736 L 876.4774090363853 184.53604530281473" style="stroke-width: 1px;"></path><path class="candle wick down" d="M 4.626149540183927 55.27664625581758 L 4.626149540183927 60.54185744933909 M 4.626149540183927 65.0194046877082 L 4.626149540183927 68.29117491501685 M 22.41903238704518 61.266151346528346 L 22.41903238704518 64.5164533501189 M 22.41903238704518 71.17684043202135 L 22.41903238704518 72.46254131210468 M 40.21191523390643 57.53113306284402 L 40.21191523390643 58.92941279079869 M 40.21191523390643 61.45800743017804 L 40.21191523390643 69.10121238042973 M 58.004798080767685 47.24184021268334 L 58.004798080767685 49.600822952024515 M 58.004798080767685 50.868935407856895 L 58.004798080767685 53.57121573671492 M 84.69412235105956 41.95600141866157 L 84.69412235105956 42.57114362417548 M 84.69412235105956 48.64315911688726 L 84.69412235105956 50.91355310172895 M 93.5905637744902 46.81894207076584 L 93.5905637744902 48.64315911688726 M 93.5905637744902 50.323500266102485 L 93.5905637744902 53.778526354908706 M 173.65853658536582 7.0121995379830935 L 173.65853658536582 8.72855815891819 M 173.65853658536582 11.100408899825425 L 173.65853658536582 15.126153490246878 M 182.55497800879647 7.660255375643175 L 182.55497800879647 11.100408899825425 M 182.55497800879647 21.172691633124487 L 182.55497800879647 23.179453244174482 M 200.34786085565773 10.162726031943834 L 200.34786085565773 16.173246703101597 M 200.34786085565773 19.228524120144215 L 200.34786085565773 20.463593617181488 M 227.0371851259496 10.246788353731716 L 227.0371851259496 14.252681303546353 M 227.0371851259496 21.255396025098833 L 227.0371851259496 22.184866650775007 M 235.93362654938022 21.19338389694917 L 235.93362654938022 21.255460688423312 M 235.93362654938022 36.303068931724596 L 235.93362654938022 36.622958397789716 M 253.72650939624148 31.129033025680712 L 253.72650939624148 34.53303975149419 M 253.72650939624148 42.24213662936259 L 253.72650939624148 43.178914210701834 M 271.51939224310274 34.75224842138712 L 271.51939224310274 38.99636105848376 M 271.51939224310274 42.84454015995945 L 271.51939224310274 44.72527295165207 M 280.4158336665334 41.19006434052511 L 280.4158336665334 42.84454015995945 M 280.4158336665334 59.84064835897931 L 280.4158336665334 61.977447915502694 M 307.10515793682526 47.104883291493536 L 307.10515793682526 49.38245490534942 M 307.10515793682526 57.17697203481927 L 307.10515793682526 59.70168687473148 M 324.89804078368655 52.21748903930782 L 324.89804078368655 53.2356130828079 M 324.89804078368655 54.35551719899584 L 324.89804078368655 56.859022468487694 M 333.7944822071172 52.95258171168061 L 333.7944822071172 54.35558186232029 M 333.7944822071172 58.88576504679344 L 333.7944822071172 59.73899761294041 M 360.483806477409 42.5849169122838 L 360.483806477409 47.1489190154455 M 360.483806477409 48.02187389555036 L 360.483806477409 51.501989354244074 M 369.38024790083966 37.5605766023468 L 369.38024790083966 48.02187389555036 M 369.38024790083966 53.70047772229486 L 369.38024790083966 58.41449873818573 M 378.2766893242703 51.6632596854279 L 378.2766893242703 53.70047772229486 M 378.2766893242703 58.68492076104488 L 378.2766893242703 62.1261735617428 M 387.1731307477009 56.933708608230006 L 387.1731307477009 58.6848560977204 M 387.1731307477009 60.4151819967372 L 387.1731307477009 61.427809657658884 M 413.86245501799283 51.64871043742616 L 413.86245501799283 54.04920703106566 M 413.86245501799283 69.00861449981414 L 413.86245501799283 71.66233267200855 M 440.5517792882847 57.28774030960591 L 440.5517792882847 58.47230775024602 M 440.5517792882847 65.88240141584743 L 440.5517792882847 68.60543867185461 M 449.44822071171535 64.5938553494882 L 449.44822071171535 65.88240141584743 M 449.44822071171535 72.12441678854404 L 449.44822071171535 72.46454587516273 M 476.13754498200717 65.52416659838215 L 476.13754498200717 66.34118770283587 M 476.13754498200717 71.4897462590456 L 476.13754498200717 72.85511235485407 M 493.93042782886846 57.80336565878784 L 493.93042782886846 58.80894501734423 M 493.93042782886846 79.09402388797702 L 493.93042782886846 85.43794866001035 M 502.82686925229905 78.30086355024619 L 502.82686925229905 79.09402388797702 M 502.82686925229905 82.58067034244041 L 502.82686925229905 87.46773041456535 M 511.7233106757297 81.72368730347517 L 511.7233106757297 82.58067034244041 M 511.7233106757297 86.08141340163434 L 511.7233106757297 90.52630566115505 M 520.6197520991603 85.81092671545072 L 520.6197520991603 86.08134873830986 M 520.6197520991603 95.3540694647573 L 520.6197520991603 97.45207102660942 M 529.5161935225909 94.03008789659823 L 529.5161935225909 95.35413412808178 M 529.5161935225909 120.97426058264446 L 529.5161935225909 121.25218355114006 M 547.3090763694522 107.48368052882803 L 547.3090763694522 114.8907350181802 M 547.3090763694522 127.26192826240438 L 547.3090763694522 135.79063277770464 M 556.2055177928828 119.89638762735052 L 556.2055177928828 127.26192826240438 M 556.2055177928828 127.74166546651536 L 556.2055177928828 142.80660348076984 M 591.7912834866053 112.87459722508463 L 591.7912834866053 112.8746618884091 M 591.7912834866053 122.28239963631276 L 591.7912834866053 127.37120928072862 M 609.5841663334666 116.87667503875659 L 609.5841663334666 118.59064111668697 M 609.5841663334666 129.77487437726631 L 609.5841663334666 130.16835070655802 M 627.3770491803277 116.44123221189537 L 627.3770491803277 119.40352376837573 M 627.3770491803277 126.63424137194674 L 627.3770491803277 129.67994861697045 M 654.0663734506197 117.13196584369395 L 654.0663734506197 119.56705731591539 M 654.0663734506197 127.22823867036476 L 654.0663734506197 128.79826418806454 M 671.8592562974809 120.02092919024547 L 671.8592562974809 123.70130696476767 M 671.8592562974809 124.42831672158391 L 671.8592562974809 126.0315791880521 M 680.7556977209116 122.20072985752961 L 680.7556977209116 124.42838138490838 M 680.7556977209116 126.63204281891537 L 680.7556977209116 134.2738898393535 M 689.6521391443422 125.36263709659396 L 689.6521391443422 126.63204281891537 M 689.6521391443422 130.32787512798166 L 689.6521391443422 132.57104585322892 M 734.1343462614954 108.64516316263868 L 734.1343462614954 109.82151836107337 M 734.1343462614954 122.72327418242793 L 734.1343462614954 125.98767279074904 M 751.9272291083566 116.94774003232958 L 751.9272291083566 118.54085035685875 M 751.9272291083566 123.40624821529224 L 751.9272291083566 126.10820522752798 M 787.512994802079 111.18882435661544 L 787.512994802079 112.58878533100585 M 787.512994802079 114.19094852095833 L 787.512994802079 126.51817070455502 M 796.4094362255097 112.8854606635926 L 796.4094362255097 114.1910131842828 M 796.4094362255097 120.14359551673132 L 796.4094362255097 122.47723023288727 M 805.3058776489403 116.94127369988435 L 805.3058776489403 120.14359551673132 M 805.3058776489403 120.75686248583612 L 805.3058776489403 121.82917439522718 M 814.202319072371 118.99239435150858 L 814.202319072371 120.75686248583612 M 814.202319072371 127.33991223169375 L 814.202319072371 128.90398872354388 M 823.0987604958016 125.08620138456074 L 823.0987604958016 127.3399768950182 M 823.0987604958016 131.65411991249653 L 823.0987604958016 133.75380272078436 M 831.9952019192323 130.87647877263421 L 831.9952019192323 131.6540552491721 M 831.9952019192323 143.61793421267177 L 831.9952019192323 143.71189002310084 M 840.8916433426629 141.54023693469767 L 840.8916433426629 143.61793421267177 M 840.8916433426629 170.04661087618493 L 840.8916433426629 173.67836183071907 M 849.7880847660936 164.38553081036696 L 849.7880847660936 170.0604488276177 M 849.7880847660936 172.31629356445765 L 849.7880847660936 180.66051361509574 M 867.5809676129546 166.75964476763 L 867.5809676129546 169.42383839838567 M 867.5809676129546 183.53602699016122 L 867.5809676129546 184.63084173646166 M 885.3738504598159 181.009307587191 L 885.3738504598159 183.09954955010878 M 885.3738504598159 195.5151018349072 L 885.3738504598159 196.15384615384616" style="stroke-width: 1px;"></path><path class="candle wick equal" style="stroke-width: 1px;"></path></g></g><g class="x axis" transform="translate(0,200)" fill="none" font-size="10" font-family="sans-serif" text-anchor="middle"><path class="domain" stroke="#000" d="M0.5,6V0.5H890.5V6"></path><g class="tick" opacity="1" transform="translate(31.315473810475808,0)"><line stroke="#000" y2="6" x1="0.5" x2="0.5"></line><text fill="#000" y="9" x="0.5" dy="0.71em">Mar 14</text></g><g class="tick" opacity="1" transform="translate(93.5905637744902,0)"><line stroke="#000" y2="6" x1="0.5" x2="0.5"></line><text fill="#000" y="9" x="0.5" dy="0.71em">Mar 21</text></g><g class="tick" opacity="1" transform="translate(155.8656537385046,0)"><line stroke="#000" y2="6" x1="0.5" x2="0.5"></line><text fill="#000" y="9" x="0.5" dy="0.71em">Mar 28</text></g><g class="tick" opacity="1" transform="translate(218.14074370251896,0)"><line stroke="#000" y2="6" x1="0.5" x2="0.5"></line><text fill="#000" y="9" x="0.5" dy="0.71em">Apr  4</text></g><g class="tick" opacity="1" transform="translate(280.4158336665334,0)"><line stroke="#000" y2="6" x1="0.5" x2="0.5"></line><text fill="#000" y="9" x="0.5" dy="0.71em">Apr 11</text></g><g class="tick" opacity="1" transform="translate(342.6909236305478,0)"><line stroke="#000" y2="6" x1="0.5" x2="0.5"></line><text fill="#000" y="9" x="0.5" dy="0.71em">Apr 18</text></g><g class="tick" opacity="1" transform="translate(404.9660135945622,0)"><line stroke="#000" y2="6" x1="0.5" x2="0.5"></line><text fill="#000" y="9" x="0.5" dy="0.71em">Apr 25</text></g><g class="tick" opacity="1" transform="translate(467.2411035585766,0)"><line stroke="#000" y2="6" x1="0.5" x2="0.5"></line><text fill="#000" y="9" x="0.5" dy="0.71em">May  2</text></g><g class="tick" opacity="1" transform="translate(529.5161935225909,0)"><line stroke="#000" y2="6" x1="0.5" x2="0.5"></line><text fill="#000" y="9" x="0.5" dy="0.71em">May  9</text></g><g class="tick" opacity="1" transform="translate(591.7912834866053,0)"><line stroke="#000" y2="6" x1="0.5" x2="0.5"></line><text fill="#000" y="9" x="0.5" dy="0.71em">May 16</text></g><g class="tick" opacity="1" transform="translate(654.0663734506197,0)"><line stroke="#000" y2="6" x1="0.5" x2="0.5"></line><text fill="#000" y="9" x="0.5" dy="0.71em">May 23</text></g><g class="tick" opacity="1" transform="translate(716.3414634146341,0)"><line stroke="#000" y2="6" x1="0.5" x2="0.5"></line><text fill="#000" y="9" x="0.5" dy="0.71em">May 30</text></g><g class="tick" opacity="1" transform="translate(778.6165533786485,0)"><line stroke="#000" y2="6" x1="0.5" x2="0.5"></line><text fill="#000" y="9" x="0.5" dy="0.71em">Jun  6</text></g><g class="tick" opacity="1" transform="translate(840.8916433426629,0)"><line stroke="#000" y2="6" x1="0.5" x2="0.5"></line><text fill="#000" y="9" x="0.5" dy="0.71em">Jun 13</text></g></g><g class="y axis" fill="none" font-size="10" font-family="sans-serif" text-anchor="end"><path class="domain" stroke="#000" d="M-6,200.5H0.5V0.5H-6"></path><g class="tick" opacity="1" transform="translate(0,199.06369575419578)"><line stroke="#000" x2="-6" y1="0.5" y2="0.5"></line><text fill="#000" x="-9" y="0.5" dy="0.32em">18,000</text></g><g class="tick" opacity="1" transform="translate(0,186.13103086375304)"><line stroke="#000" x2="-6" y1="0.5" y2="0.5"></line><text fill="#000" x="-9" y="0.5" dy="0.32em">20,000</text></g><g class="tick" opacity="1" transform="translate(0,173.19836597331027)"><line stroke="#000" x2="-6" y1="0.5" y2="0.5"></line><text fill="#000" x="-9" y="0.5" dy="0.32em">22,000</text></g><g class="tick" opacity="1" transform="translate(0,160.26570108286754)"><line stroke="#000" x2="-6" y1="0.5" y2="0.5"></line><text fill="#000" x="-9" y="0.5" dy="0.32em">24,000</text></g><g class="tick" opacity="1" transform="translate(0,147.3330361924248)"><line stroke="#000" x2="-6" y1="0.5" y2="0.5"></line><text fill="#000" x="-9" y="0.5" dy="0.32em">26,000</text></g><g class="tick" opacity="1" transform="translate(0,134.40037130198206)"><line stroke="#000" x2="-6" y1="0.5" y2="0.5"></line><text fill="#000" x="-9" y="0.5" dy="0.32em">28,000</text></g><g class="tick" opacity="1" transform="translate(0,121.46770641153931)"><line stroke="#000" x2="-6" y1="0.5" y2="0.5"></line><text fill="#000" x="-9" y="0.5" dy="0.32em">30,000</text></g><g class="tick" opacity="1" transform="translate(0,108.53504152109656)"><line stroke="#000" x2="-6" y1="0.5" y2="0.5"></line><text fill="#000" x="-9" y="0.5" dy="0.32em">32,000</text></g><g class="tick" opacity="1" transform="translate(0,95.60237663065382)"><line stroke="#000" x2="-6" y1="0.5" y2="0.5"></line><text fill="#000" x="-9" y="0.5" dy="0.32em">34,000</text></g><g class="tick" opacity="1" transform="translate(0,82.6697117402111)"><line stroke="#000" x2="-6" y1="0.5" y2="0.5"></line><text fill="#000" x="-9" y="0.5" dy="0.32em">36,000</text></g><g class="tick" opacity="1" transform="translate(0,69.73704684976835)"><line stroke="#000" x2="-6" y1="0.5" y2="0.5"></line><text fill="#000" x="-9" y="0.5" dy="0.32em">38,000</text></g><g class="tick" opacity="1" transform="translate(0,56.80438195932561)"><line stroke="#000" x2="-6" y1="0.5" y2="0.5"></line><text fill="#000" x="-9" y="0.5" dy="0.32em">40,000</text></g><g class="tick" opacity="1" transform="translate(0,43.87171706888287)"><line stroke="#000" x2="-6" y1="0.5" y2="0.5"></line><text fill="#000" x="-9" y="0.5" dy="0.32em">42,000</text></g><g class="tick" opacity="1" transform="translate(0,30.939052178440107)"><line stroke="#000" x2="-6" y1="0.5" y2="0.5"></line><text fill="#000" x="-9" y="0.5" dy="0.32em">44,000</text></g><g class="tick" opacity="1" transform="translate(0,18.00638728799737)"><line stroke="#000" x2="-6" y1="0.5" y2="0.5"></line><text fill="#000" x="-9" y="0.5" dy="0.32em">46,000</text></g><g class="tick" opacity="1" transform="translate(0,5.073722397554633)"><line stroke="#000" x2="-6" y1="0.5" y2="0.5"></line><text fill="#000" x="-9" y="0.5" dy="0.32em">48,000</text></g><text transform="rotate(-90)" y="6" dy=".71em" style="text-anchor: end;">Price ($)</text></g></g></svg>