<?xml version="1.0" encoding="utf-8"?>
<!DOCTYPE svg PUBLIC "-//W3C//DTD SVG 1.1//EN" "http://www.w3.org/Graphics/SVG/1.1/DTD/svg11.dtd">
<svg version="1.1" xmlns="http://www.w3.org/2000/svg" width="960" height="250"><g transform="translate(50,20)"><style>.axis path,.axis line{fill:none;stroke:#000;shape-rendering:crispEdges;}path.candle{stroke:#000000;}path.candle.body{stroke-width:0;}path.candle.up{fill:#00AA00;stroke:#00AA00;}path.candle.down{fill:#FF0000;stroke:#FF0000;}</style><g class="candlestick"><g class="data"><path class="candle body up" d="M 1.0675729708116766 140.51729996779915 l 7.1171531387445 0 L 8.184726109556177 129.96816177976154 l -7.1171531387445 0 L 1.0675729708116766 140.51729996779915 M 9.964014394242305 129.96816177976154 l 7.1171531387445 0 L 17.081167532986804 101.18527507827105 l -7.1171531387445 0 L 9.964014394242305 129.96816177976154 M 63.342662934826066 163.4400368605079 l 7.1171531387445 0 L 70.45981607357056 138.915129418902 l -7.1171531387445 0 L 63.342662934826066 163.4400368605079 M 72.23910435825668 138.915129418902 l 7.1171531387445 0 L 79.35625749700118 129.30780586828143 l -7.1171531387445 0 L 72.23910435825668 138.915129418902 M 81.13554578168731 129.30780586828143 l 7.1171531387445 0 L 88.25269892043181 122.76124418110544 l -7.1171531387445 0 L 81.13554578168731 129.30780586828143 M 90.03198720511796 122.76124418110544 l 7.1171531387445 0 L 97.14914034386246 112.83934911326119 l -7.1171531387445 0 L 90.03198720511796 122.76124418110544 M 107.82487005197919 123.5879782979851 l 7.1171531387445 0 L 114.94202319072369 79.26569291175642 l -7.1171531387445 0 L 107.82487005197919 123.5879782979851 M 116.72131147540982 79.26569291175642 l 7.1171531387445 0 L 123.83846461415432 53.1000738035263 l -7.1171531387445 0 L 116.72131147540982 79.26569291175642 M 161.20351859256294 78.83142679652086 l 7.1171531387445 0 L 168.32067173130744 75.27315881480958 l -7.1171531387445 0 L 161.20351859256294 78.83142679652086 M 187.89284286285485 111.23609289907594 l 7.1171531387445 0 L 195.00999600159935 65.15557257878723 l -7.1171531387445 0 L 187.89284286285485 111.23609289907594 M 196.78928428628546 65.1050891428911 l 7.1171531387445 0 L 203.90643742502996 40.98649193535252 l -7.1171531387445 0 L 196.78928428628546 65.1050891428911 M 267.9608156737305 74.11339687080864 l 7.1171531387445 0 L 275.07796881247504 55.38539923495341 l -7.1171531387445 0 L 267.9608156737305 74.11339687080864 M 285.7536985205918 65.10780330611138 l 7.1171531387445 0 L 292.8708516593363 59.13175872782611 l -7.1171531387445 0 L 285.7536985205918 65.10780330611138 M 294.65013994402244 59.13175872782611 l 7.1171531387445 0 L 301.76729308276697 41.8802658837717 l -7.1171531387445 0 L 294.65013994402244 59.13175872782611 M 312.4430227908837 59.75791618273135 l 7.1171531387445 0 L 319.5601759296282 37.97051376504163 l -7.1171531387445 0 L 312.4430227908837 59.75791618273135 M 330.23590563774496 38.53940237600017 l 7.1171531387445 0 L 337.3530587764895 25.76682167795647 l -7.1171531387445 0 L 330.23590563774496 38.53940237600017 M 339.13234706117555 25.82056210971686 l 7.1171531387445 0 L 346.2495001999201 24.743582143932684 l -7.1171531387445 0 L 339.13234706117555 25.82056210971686 M 401.40743702518995 122.64317808102582 l 7.1171531387445 0 L 408.5245901639345 114.34652394945056 l -7.1171531387445 0 L 401.40743702518995 122.64317808102582 M 410.3038784486206 114.34652394945056 l 7.1171531387445 0 L 417.4210315873651 104.15375539222805 l -7.1171531387445 0 L 410.3038784486206 114.34652394945056 M 428.0967612954818 107.27124326697529 l 7.1171531387445 0 L 435.21391443422635 103.78707194117607 l -7.1171531387445 0 L 428.0967612954818 107.27124326697529 M 445.8896441423431 108.15877463998798 l 7.1171531387445 0 L 453.00679728108764 102.97499430568553 l -7.1171531387445 0 L 445.8896441423431 108.15877463998798 M 481.47540983606564 157.35135450858337 l 7.1171531387445 0 L 488.59256297481016 137.53470600509698 l -7.1171531387445 0 L 481.47540983606564 157.35135450858337 M 499.2682926829268 150.36455554708738 l 7.1171531387445 0 L 506.38544582167134 143.93226013148274 l -7.1171531387445 0 L 499.2682926829268 150.36455554708738 M 508.16473410635746 143.9751439103623 l 7.1171531387445 0 L 515.281887245102 141.72184560493378 l -7.1171531387445 0 L 508.16473410635746 143.9751439103623 M 534.8540583766493 149.83746504972018 l 7.1171531387445 0 L 541.9712115153937 145.28174208457725 l -7.1171531387445 0 L 534.8540583766493 149.83746504972018 M 561.5433826469413 178.11470314328326 l 7.1171531387445 0 L 568.6605357856857 164.48336120236127 l -7.1171531387445 0 L 561.5433826469413 178.11470314328326 M 570.4398240703717 164.48308978603927 l 7.1171531387445 0 L 577.5569772091162 163.7524370471554 l -7.1171531387445 0 L 570.4398240703717 164.48308978603927 M 579.3362654938024 163.7315379903597 l 7.1171531387445 0 L 586.4534186325469 108.37427919967358 l -7.1171531387445 0 L 579.3362654938024 163.7315379903597 M 588.232706917233 108.33329533504826 l 7.1171531387445 0 L 595.3498600559775 100.55124655002712 l -7.1171531387445 0 L 588.232706917233 108.33329533504826 M 597.1291483406637 100.58191659441566 l 7.1171531387445 0 L 604.2463014794082 95.70565095296443 l -7.1171531387445 0 L 597.1291483406637 100.58191659441566 M 606.0255897640943 95.70565095296443 l 7.1171531387445 0 L 613.1427429028388 80.2655906420863 l -7.1171531387445 0 L 606.0255897640943 95.70565095296443 M 623.8184726109555 140.57755439128812 l 7.1171531387445 0 L 630.9356257497 139.13660513767215 l -7.1171531387445 0 L 623.8184726109555 140.57755439128812 M 641.6113554578168 153.3813479663643 l 7.1171531387445 0 L 648.7285085965613 150.628643628415 l -7.1171531387445 0 L 641.6113554578168 153.3813479663643 M 650.5077968812475 150.628643628415 l 7.1171531387445 0 L 657.624950019992 142.20605232342143 l -7.1171531387445 0 L 650.5077968812475 150.628643628415 M 668.3006797281087 161.10124241364235 l 7.1171531387445 0 L 675.4178328668531 157.85591745122267 l -7.1171531387445 0 L 668.3006797281087 161.10124241364235 M 694.9900039984005 187.05108554586488 l 7.1171531387445 0 L 702.107157137145 161.5306230350815 l -7.1171531387445 0 L 694.9900039984005 187.05108554586488 M 730.5757696921231 177.6120401148981 l 7.1171531387445 0 L 737.6929228308676 166.24811012814976 l -7.1171531387445 0 L 730.5757696921231 177.6120401148981 M 748.3686525389844 170.3117553014665 l 7.1171531387445 0 L 755.4858056777289 161.22690817073868 l -7.1171531387445 0 L 748.3686525389844 170.3117553014665 M 757.265093962415 161.22690817073868 l 7.1171531387445 0 L 764.3822471011595 156.37696991252363 l -7.1171531387445 0 L 757.265093962415 161.22690817073868 M 792.8508596561375 170.86435893310363 l 7.1171531387445 0 L 799.9680127948819 155.35725879068607 l -7.1171531387445 0 L 792.8508596561375 170.86435893310363 M 801.747301079568 155.35725879068607 l 7.1171531387445 0 L 808.8644542183125 136.12089838368323 l -7.1171531387445 0 L 801.747301079568 155.35725879068607 M 846.2295081967213 161.12648413159042 l 7.1171531387445 0 L 853.3466613354658 160.51579740704042 l -7.1171531387445 0 L 846.2295081967213 161.12648413159042 M 872.9188324670131 170.80301884432666 l 7.1171531387445 0 L 880.0359856057576 168.21017872004842 l -7.1171531387445 0 L 872.9188324670131 170.80301884432666"></path><path class="candle body down" d="M 18.860455817672932 101.18500366194895 l 7.1171531387445 0 L 25.977608956417434 102.0057666197442 l -7.1171531387445 0 L 18.860455817672932 101.18500366194895 M 27.75689724110356 102.0057666197442 l 7.1171531387445 0 L 34.87405037984806 102.08502018577464 l -7.1171531387445 0 L 27.75689724110356 102.0057666197442 M 36.65333866453418 102.07633486346994 l 7.1171531387445 0 L 43.77049180327868 121.88104104878737 l -7.1171531387445 0 L 36.65333866453418 102.07633486346994 M 45.54978008796481 121.9179536685824 l 7.1171531387445 0 L 52.66693322670931 146.27756857007674 l -7.1171531387445 0 L 45.54978008796481 121.9179536685824 M 54.446221511395436 146.27756857007674 l 7.1171531387445 0 L 61.563374650139934 163.50870518997948 l -7.1171531387445 0 L 54.446221511395436 146.27756857007674 M 98.92842862854857 112.83934911326119 l 7.1171531387445 0 L 106.04558176729307 123.62651941571231 l -7.1171531387445 0 L 98.92842862854857 112.83934911326119 M 125.61775289884046 53.049590367630145 l 7.1171531387445 0 L 132.73490603758498 57.80426149681543 l -7.1171531387445 0 L 125.61775289884046 53.049590367630145 M 134.51419432227107 57.80426149681543 l 7.1171531387445 0 L 141.63134746101557 59.73430296271545 l -7.1171531387445 0 L 134.51419432227107 57.80426149681543 M 143.4106357457017 59.73430296271545 l 7.1171531387445 0 L 150.5277888844462 72.41921618874589 l -7.1171531387445 0 L 143.4106357457017 59.73430296271545 M 152.30707716913233 72.41921618874589 l 7.1171531387445 0 L 159.42423030787683 78.7638441323374 l -7.1171531387445 0 L 152.30707716913233 72.41921618874589 M 170.09996001599356 75.34236997692523 l 7.1171531387445 0 L 177.21711315473806 109.7099189203449 l -7.1171531387445 0 L 170.09996001599356 75.34236997692523 M 178.9964014394242 109.7099189203449 l 7.1171531387445 0 L 186.1135545781687 111.23609289907594 l -7.1171531387445 0 L 178.9964014394242 109.7099189203449 M 205.68572570971608 40.923523348643386 l 7.1171531387445 0 L 212.80287884846058 42.86415005110226 l -7.1171531387445 0 L 205.68572570971608 40.923523348643386 M 214.5821671331467 42.76834008942845 l 7.1171531387445 0 L 221.6993202718912 46.399076229119686 l -7.1171531387445 0 L 214.5821671331467 42.76834008942845 M 223.47860855657734 46.36840618473116 l 7.1171531387445 0 L 230.59576169532184 55.90380441001582 l -7.1171531387445 0 L 223.47860855657734 46.36840618473116 M 232.37504998000796 55.82129384812106 l 7.1171531387445 0 L 239.49220311875246 56.590759121054106 l -7.1171531387445 0 L 232.37504998000796 55.82129384812106 M 241.2714914034386 56.620886332798506 l 7.1171531387445 0 L 248.3886445421831 64.19638729676072 l -7.1171531387445 0 L 241.2714914034386 56.620886332798506 M 250.16793282686922 64.24687073265687 l 7.1171531387445 0 L 257.28508596561375 68.79472262446123 l -7.1171531387445 0 L 250.16793282686922 64.24687073265687 M 259.06437425029986 68.83434940747645 l 7.1171531387445 0 L 266.1815273890444 74.09792614045338 l -7.1171531387445 0 L 259.06437425029986 68.83434940747645 M 276.85725709716115 55.3544577742428 l 7.1171531387445 0 L 283.9744102359057 65.10780330611138 l -7.1171531387445 0 L 276.85725709716115 55.3544577742428 M 303.54658136745303 41.853667084213555 l 7.1171531387445 0 L 310.66373450619756 59.795100218848376 l -7.1171531387445 0 L 303.54658136745303 41.853667084213555 M 321.3394642143143 37.97051376504163 l 7.1171531387445 0 L 328.45661735305885 38.504118254137296 l -7.1171531387445 0 L 321.3394642143143 37.97051376504163 M 348.02878848460614 24.697984201832952 l 7.1171531387445 0 L 355.14594162335067 28.43864395194319 l -7.1171531387445 0 L 348.02878848460614 24.697984201832952 M 356.9252299080368 28.4383725356212 l 7.1171531387445 0 L 364.0423830467813 34.149786199934795 l -7.1171531387445 0 L 356.9252299080368 28.4383725356212 M 365.8216713314674 34.198098305254746 l 7.1171531387445 0 L 372.93882447021196 40.665949259044254 l -7.1171531387445 0 L 365.8216713314674 34.198098305254746 M 374.7181127548981 40.62767955763911 l 7.1171531387445 0 L 381.8352658936426 54.56463627715817 l -7.1171531387445 0 L 374.7181127548981 40.62767955763911 M 383.61455417832866 54.56463627715817 l 7.1171531387445 0 L 390.7317073170732 58.675507890506736 l -7.1171531387445 0 L 383.61455417832866 54.56463627715817 M 392.5109956017593 58.66872248245616 l 7.1171531387445 0 L 399.62814874050383 122.64317808102582 l -7.1171531387445 0 L 392.5109956017593 58.66872248245616 M 419.20031987205124 104.12417101312762 l 7.1171531387445 0 L 426.31747301079577 107.29621356860129 l -7.1171531387445 0 L 419.20031987205124 104.12417101312762 M 436.99320271891247 103.78734335749805 l 7.1171531387445 0 L 444.110355857657 108.15796039102183 l -7.1171531387445 0 L 436.99320271891247 103.78734335749805 M 454.7860855657737 102.97499430568553 l 7.1171531387445 0 L 461.90323870451823 138.7473941318923 l -7.1171531387445 0 L 454.7860855657737 102.97499430568553 M 463.68252698920435 138.7992346493985 l 7.1171531387445 0 L 470.7996801279489 144.26935920343436 l -7.1171531387445 0 L 463.68252698920435 138.7992346493985 M 472.57896841263494 144.26935920343436 l 7.1171531387445 0 L 479.69612155137946 157.35135450858337 l -7.1171531387445 0 L 472.57896841263494 144.26935920343436 M 490.3718512594962 137.4948078057597 l 7.1171531387445 0 L 497.48900439824075 150.4017395832044 l -7.1171531387445 0 L 490.3718512594962 137.4948078057597 M 517.0611755297881 141.68981847893517 l 7.1171531387445 0 L 524.1783286685326 146.59648274845284 l -7.1171531387445 0 L 517.0611755297881 141.68981847893517 M 525.9576169532187 146.62036738479082 l 7.1171531387445 0 L 533.0747700919632 149.85239294743138 l -7.1171531387445 0 L 525.9576169532187 146.62036738479082 M 543.75049980008 145.28174208457725 l 7.1171531387445 0 L 550.8676529388244 150.80397857244134 l -7.1171531387445 0 L 543.75049980008 145.28174208457725 M 552.6469412235106 150.84469102074468 l 7.1171531387445 0 L 559.764094362255 178.11470314328326 l -7.1171531387445 0 L 552.6469412235106 150.84469102074468 M 614.9220311875249 80.27373313174704 l 7.1171531387445 0 L 622.0391843262694 140.5789114728982 l -7.1171531387445 0 L 614.9220311875249 80.27373313174704 M 632.7149140343862 139.12411998685914 l 7.1171531387445 0 L 639.8320671731307 153.3813479663643 l -7.1171531387445 0 L 632.7149140343862 139.12411998685914 M 659.4042383046781 142.23346537194564 l 7.1171531387445 0 L 666.5213914434225 161.1357122865392 l -7.1171531387445 0 L 659.4042383046781 142.23346537194564 M 677.1971211515394 157.85591745122267 l 7.1171531387445 0 L 684.3142742902838 175.82422080173774 l -7.1171531387445 0 L 677.1971211515394 157.85591745122267 M 686.09356257497 175.84294852795725 l 7.1171531387445 0 L 693.2107157137144 187.05108554586488 l -7.1171531387445 0 L 686.09356257497 175.84294852795725 M 703.8864454218311 161.5306230350815 l 7.1171531387445 0 L 711.0035985605756 164.5628861847138 l -7.1171531387445 0 L 703.8864454218311 161.5306230350815 M 712.7828868452618 164.59925597186475 l 7.1171531387445 0 L 719.9000399840063 174.58927653653663 l -7.1171531387445 0 L 712.7828868452618 164.59925597186475 M 721.6793282686924 174.54883550455529 l 7.1171531387445 0 L 728.7964814074369 177.65953797125198 l -7.1171531387445 0 L 721.6793282686924 174.54883550455529 M 739.4722111155537 166.27905158886028 l 7.1171531387445 0 L 746.5893642542982 170.28379942029812 l -7.1171531387445 0 L 739.4722111155537 166.27905158886028 M 766.1615353858456 156.40329729575973 l 7.1171531387445 0 L 773.27868852459 160.9611915914789 l -7.1171531387445 0 L 766.1615353858456 156.40329729575973 M 775.0579768092763 160.9611915914789 l 7.1171531387445 0 L 782.1751299480208 163.991826243179 l -7.1171531387445 0 L 775.0579768092763 160.9611915914789 M 783.9544182327068 163.9568135376381 l 7.1171531387445 0 L 791.0715713714512 170.8898720673738 l -7.1171531387445 0 L 783.9544182327068 163.9568135376381 M 810.6437425029987 136.12089838368323 l 7.1171531387445 0 L 817.7608956417432 140.99444986191426 l -7.1171531387445 0 L 810.6437425029987 136.12089838368323 M 819.5401839264293 140.99444986191426 l 7.1171531387445 0 L 826.6573370651738 146.35736496875134 l -7.1171531387445 0 L 819.5401839264293 140.99444986191426 M 828.43662534986 146.35736496875134 l 7.1171531387445 0 L 835.5537784886045 158.04400896238408 l -7.1171531387445 0 L 828.43662534986 146.35736496875134 M 837.3330667732906 158.04400896238408 l 7.1171531387445 0 L 844.4502199120351 161.08740018121927 l -7.1171531387445 0 L 837.3330667732906 158.04400896238408 M 855.1259496201519 160.4902842727704 l 7.1171531387445 0 L 862.2431027588964 168.85234973795298 l -7.1171531387445 0 L 855.1259496201519 160.4902842727704 M 864.0223910435824 168.85234973795298 l 7.1171531387445 0 L 871.1395441823269 170.80301884432666 l -7.1171531387445 0 L 864.0223910435824 168.85234973795298 M 881.8152738904437 168.2218496218954 l 7.1171531387445 0 L 888.9324270291881 172.13160174062546 l -7.1171531387445 0 L 881.8152738904437 168.2218496218954"></path><path class="candle body equal"></path><path class="candle wick up" d="M 4.626149540183927 126.96331167865345 L 4.626149540183927 129.96816177976154 M 4.626149540183927 140.51729996779915 L 4.626149540183927 151.76994926251842 M 13.522590963614554 95.40085042333351 L 13.522590963614554 101.18527507827105 M 13.522590963614554 129.96816177976154 L 13.522590963614554 138.4588785815826 M 66.90123950419832 135.33949079258122 L 66.90123950419832 138.915129418902 M 66.90123950419832 163.4400368605079 L 66.90123950419832 174.84875054038991 M 75.79768092762893 120.86241559223801 L 75.79768092762893 129.30780586828143 M 75.79768092762893 138.915129418902 L 75.79768092762893 155.71037142563702 M 84.69412235105956 112.71992593157137 L 84.69412235105956 122.76124418110544 M 84.69412235105956 129.30780586828143 L 84.69412235105956 134.9139099996504 M 93.5905637744902 102.16345950283915 L 93.5905637744902 112.83934911326119 M 93.5905637744902 122.76124418110544 L 93.5905637744902 132.29962798593237 M 111.38344662135144 69.9004727203797 L 111.38344662135144 79.26569291175642 M 111.38344662135144 123.5879782979851 L 111.38344662135144 124.59574710165363 M 120.27988804478207 42.15168220579392 L 120.27988804478207 53.1000738035263 M 120.27988804478207 79.26569291175642 L 120.27988804478207 102.41859084553998 M 164.7620951619352 63.467634472131095 L 164.7620951619352 75.27315881480958 M 164.7620951619352 78.83142679652086 L 164.7620951619352 84.02714944899226 M 191.4514194322271 60.8080259326353 L 191.4514194322271 65.15557257878723 M 191.4514194322271 111.23609289907594 L 191.4514194322271 116.99391875445532 M 200.34786085565773 31.302628981921686 L 200.34786085565773 40.98649193535252 M 200.34786085565773 65.1050891428911 L 200.34786085565773 75.20666181591412 M 271.51939224310274 51.03079576442883 L 271.51939224310274 55.38539923495341 M 271.51939224310274 74.11339687080864 L 271.51939224310274 75.07583914869942 M 289.31227508996403 52.95405182227833 L 289.31227508996403 59.13175872782611 M 289.31227508996403 65.10780330611138 L 289.31227508996403 68.08225477915292 M 298.2087165133947 30.073655875805088 L 298.2087165133947 41.8802658837717 M 298.2087165133947 59.13175872782611 L 298.2087165133947 59.678391200378826 M 316.0015993602559 30.58934688764731 L 316.0015993602559 37.97051376504163 M 316.0015993602559 59.75791618273135 L 316.0015993602559 72.96584866129874 M 333.7944822071172 24.333200665035122 L 333.7944822071172 25.76682167795647 M 333.7944822071172 38.53940237600017 L 333.7944822071172 48.041416393676116 M 342.6909236305478 12.621586369776281 L 342.6909236305478 24.743582143932684 M 342.6909236305478 25.82056210971686 L 342.6909236305478 28.819169635418348 M 404.9660135945622 107.7570784833951 L 404.9660135945622 114.34652394945056 M 404.9660135945622 122.64317808102582 L 404.9660135945622 124.61067499936483 M 413.86245501799283 96.43494661023813 L 413.86245501799283 104.15375539222805 M 413.86245501799283 114.34652394945056 L 413.86245501799283 116.27249417052022 M 431.65533786485406 99.55976272567997 L 431.65533786485406 103.78707194117607 M 431.65533786485406 107.27124326697529 L 431.65533786485406 121.13003208575192 M 449.44822071171535 95.89537096205791 L 449.44822071171535 102.97499430568553 M 449.44822071171535 108.15877463998798 L 449.44822071171535 109.73027514449657 M 485.0339864054379 133.52073001871037 L 485.0339864054379 137.53470600509698 M 485.0339864054379 157.35135450858337 L 485.0339864054379 157.48217717579806 M 502.82686925229905 131.9904847951491 L 502.82686925229905 143.93226013148274 M 502.82686925229905 150.36455554708738 L 502.82686925229905 150.77412277701893 M 511.7233106757297 139.6343826722609 L 511.7233106757297 141.72184560493378 M 511.7233106757297 143.9751439103623 L 511.7233106757297 157.07858110495104 M 538.4126349460215 144.49653466496693 L 538.4126349460215 145.28174208457725 M 538.4126349460215 149.83746504972018 L 538.4126349460215 156.60523103934432 M 565.1019592163135 159.83617093669676 L 565.1019592163135 164.48336120236127 M 565.1019592163135 178.11470314328326 L 565.1019592163135 185.7100174987531 M 573.998400639744 159.99386381979173 L 573.998400639744 163.7524370471554 M 573.998400639744 164.48308978603927 L 573.998400639744 172.10581719003332 M 582.8948420631747 101.93872678820468 L 582.8948420631747 108.37427919967358 M 582.8948420631747 163.7315379903597 L 582.8948420631747 164.51294558146168 M 591.7912834866053 96.14181698245415 L 591.7912834866053 100.55124655002712 M 591.7912834866053 108.33329533504826 L 591.7912834866053 115.13200278538282 M 600.687724910036 94.8064486781048 L 600.687724910036 95.70565095296443 M 600.687724910036 100.58191659441566 L 600.687724910036 108.64868110123807 M 609.5841663334666 77.76150365510932 L 609.5841663334666 80.2655906420863 M 609.5841663334666 95.70565095296443 L 609.5841663334666 103.53221201479722 M 627.3770491803277 130.5932335693787 L 627.3770491803277 139.13660513767215 M 627.3770491803277 140.57755439128812 L 627.3770491803277 155.6683018957236 M 645.169932027189 148.27546411648234 L 645.169932027189 150.628643628415 M 645.169932027189 153.3813479663643 L 645.169932027189 163.74592305542694 M 654.0663734506197 140.1601160880179 L 654.0663734506197 142.20605232342143 M 654.0663734506197 150.628643628415 L 654.0663734506197 152.12740455862163 M 671.8592562974809 153.80692875929515 L 671.8592562974809 157.85591745122267 M 671.8592562974809 161.10124241364235 L 671.8592562974809 193.2610909937333 M 698.5485805677728 157.4990049877635 L 698.5485805677728 161.5306230350815 M 698.5485805677728 187.05108554586488 L 698.5485805677728 189.90014267813217 M 734.1343462614954 163.77442176923927 L 734.1343462614954 166.24811012814976 M 734.1343462614954 177.6120401148981 L 734.1343462614954 181.09729710598543 M 751.9272291083566 150.98962733670453 L 751.9272291083566 161.22690817073868 M 751.9272291083566 170.3117553014665 L 751.9272291083566 186.7818405544189 M 760.8236705317872 154.91105035728157 L 760.8236705317872 156.37696991252363 M 760.8236705317872 161.22690817073868 L 760.8236705317872 176.6924816158869 M 796.4094362255097 152.91396905984212 L 796.4094362255097 155.35725879068607 M 796.4094362255097 170.86435893310363 L 796.4094362255097 173.52586738685358 M 805.3058776489403 132.3976092781824 L 805.3058776489403 136.12089838368323 M 805.3058776489403 155.35725879068607 L 805.3058776489403 159.11583201804987 M 849.7880847660936 157.28648600762006 L 849.7880847660936 160.51579740704042 M 849.7880847660936 161.12648413159042 L 849.7880847660936 163.85367533526968 M 876.4774090363853 165.9633944063484 L 876.4774090363853 168.21017872004842 M 876.4774090363853 170.80301884432666 L 876.4774090363853 173.35758926719978" style="stroke-width: 1px;"></path><path class="candle wick down" d="M 22.41903238704518 76.69293759530787 L 22.41903238704518 101.18500366194895 M 22.41903238704518 102.0057666197442 L 22.41903238704518 113.01142706142329 M 31.315473810475808 91.54945281383814 L 31.315473810475808 102.0057666197442 M 31.315473810475808 102.08502018577464 L 31.315473810475808 109.40538980703603 M 40.21191523390643 101.6556395643355 L 40.21191523390643 102.07633486346994 M 40.21191523390643 121.88104104878737 L 40.21191523390643 127.51211548178242 M 49.10835665733706 121.71791983925205 L 49.10835665733706 121.9179536685824 M 49.10835665733706 146.27756857007674 L 49.10835665733706 148.67634602410914 M 58.004798080767685 143.6771287887819 L 58.004798080767685 146.27756857007674 M 58.004798080767685 163.50870518997948 L 58.004798080767685 165.9175250479267 M 102.48700519792082 99.56871946430665 L 102.48700519792082 112.83934911326119 M 102.48700519792082 123.62651941571231 L 102.48700519792082 124.93338900624934 M 129.1763294682127 29.21218046970654 L 129.1763294682127 53.049590367630145 M 129.1763294682127 57.80426149681543 L 129.1763294682127 66.41114448446211 M 138.07277089164333 51.84748747739371 L 138.07277089164333 57.80426149681543 M 138.07277089164333 59.73430296271545 L 138.07277089164333 81.73883843802297 M 146.96921231507397 43.33261462291256 L 146.96921231507397 59.73430296271545 M 146.96921231507397 72.41921618874589 L 146.96921231507397 77.43580406868264 M 155.8656537385046 63.844088910775895 L 155.8656537385046 72.41921618874589 M 155.8656537385046 78.7638441323374 L 155.8656537385046 92.7824971647851 M 173.65853658536582 72.93029312311378 L 173.65853658536582 75.34236997692523 M 173.65853658536582 109.7099189203449 L 173.65853658536582 111.36284432146027 M 182.55497800879647 108.70784985943891 L 182.55497800879647 109.7099189203449 M 182.55497800879647 111.23609289907594 L 182.55497800879647 126.11432142336798 M 209.24430227908834 24.708840854713884 L 209.24430227908834 40.923523348643386 M 209.24430227908834 42.86415005110226 L 209.24430227908834 52.62753798688561 M 218.14074370251896 18.592745454265156 L 218.14074370251896 42.76834008942845 M 218.14074370251896 46.399076229119686 L 218.14074370251896 50.233103194005565 M 227.0371851259496 31.435622979712605 L 227.0371851259496 46.36840618473116 M 227.0371851259496 55.90380441001582 L 227.0371851259496 57.695423551684456 M 235.93362654938022 50.031440866743026 L 235.93362654938022 55.82129384812106 M 235.93362654938022 56.590759121054106 L 235.93362654938022 67.93623279790492 M 244.83006797281087 51.38282273409169 L 244.83006797281087 56.620886332798506 M 244.83006797281087 64.19638729676072 L 244.83006797281087 73.24595030562566 M 253.72650939624148 46.28589562283639 L 253.72650939624148 64.24687073265687 M 253.72650939624148 68.79472262446123 L 253.72650939624148 72.51719748099592 M 262.6229508196721 57.803718664171384 L 262.6229508196721 68.83434940747645 M 262.6229508196721 74.09792614045338 L 262.6229508196721 80.14996728890486 M 280.4158336665334 54.24707918039215 L 280.4158336665334 55.3544577742428 M 280.4158336665334 65.10780330611138 L 280.4158336665334 66.32076284922866 M 307.10515793682526 38.53505971484782 L 307.10515793682526 41.853667084213555 M 307.10515793682526 59.795100218848376 L 307.10515793682526 67.52910831487156 M 324.89804078368655 11.792680922320386 L 324.89804078368655 37.97051376504163 M 324.89804078368655 38.504118254137296 L 324.89804078368655 40.73678891909208 M 351.5873650539784 8.290867535589683 L 351.5873650539784 24.697984201832952 M 351.5873650539784 28.43864395194319 L 351.5873650539784 32.81496072822952 M 360.483806477409 3.846153846153868 L 360.483806477409 28.4383725356212 M 360.483806477409 34.149786199934795 L 360.483806477409 42.87853511616939 M 369.38024790083966 30.006073211621526 L 369.38024790083966 34.198098305254746 M 369.38024790083966 40.665949259044254 L 369.38024790083966 45.64698160079607 M 378.2766893242703 24.59891724429491 L 378.2766893242703 40.62767955763911 M 378.2766893242703 54.56463627715817 L 378.2766893242703 58.96863751829068 M 387.1731307477009 47.580008646238355 L 387.1731307477009 54.56463627715817 M 387.1731307477009 58.675507890506736 L 387.1731307477009 60.85118112783684 M 396.06957217113154 58.20134357593395 L 396.06957217113154 58.66872248245616 M 396.06957217113154 122.64317808102582 L 396.06957217113154 124.02251582954274 M 422.7588964414235 103.25536736633453 L 422.7588964414235 104.12417101312762 M 422.7588964414235 107.29621356860129 L 422.7588964414235 121.12894642046382 M 440.5517792882847 93.72078339001591 L 440.5517792882847 103.78734335749805 M 440.5517792882847 108.15796039102183 L 440.5517792882847 114.21271570269359 M 458.34466213514594 94.0798671840513 L 458.34466213514594 102.97499430568553 M 458.34466213514594 138.7473941318923 L 458.34466213514594 142.3613024596181 M 467.2411035585766 134.35370671099653 L 467.2411035585766 138.7992346493985 M 467.2411035585766 144.26935920343436 L 467.2411035585766 150.7182110146823 M 476.13754498200717 140.6437799738615 L 476.13754498200717 144.26935920343436 M 476.13754498200717 157.35135450858337 L 476.13754498200717 158.3178680313045 M 493.93042782886846 129.6495190177074 L 493.93042782886846 137.4948078057597 M 493.93042782886846 150.4017395832044 L 493.93042782886846 157.77503538726006 M 520.6197520991603 133.31336794868542 L 520.6197520991603 141.68981847893517 M 520.6197520991603 146.59648274845284 L 520.6197520991603 151.93171339044363 M 529.5161935225909 143.7718530851676 L 529.5161935225909 146.62036738479082 M 529.5161935225909 149.85239294743138 L 529.5161935225909 154.71563060542553 M 547.3090763694522 143.73548329801662 L 547.3090763694522 145.28174208457725 M 547.3090763694522 150.80397857244134 L 547.3090763694522 155.2283360377255 M 556.2055177928828 140.40439077783793 L 556.2055177928828 150.84469102074468 M 556.2055177928828 178.11470314328326 L 556.2055177928828 181.94438744701685 M 618.4806077568971 69.32045604021823 L 618.4806077568971 80.27373313174704 M 618.4806077568971 140.5789114728982 L 618.4806077568971 149.089713082549 M 636.2734906037584 136.326631955776 L 636.2734906037584 139.12411998685914 M 636.2734906037584 153.3813479663643 L 636.2734906037584 158.94212557195561 M 662.9628148740503 142.10725678220535 L 662.9628148740503 142.23346537194564 M 662.9628148740503 161.1357122865392 L 662.9628148740503 163.32224217675025 M 680.7556977209116 155.2068941482858 L 680.7556977209116 157.85591745122267 M 680.7556977209116 175.82422080173774 L 680.7556977209116 180.25183526288626 M 689.6521391443422 146.48411639113567 L 689.6521391443422 175.84294852795725 M 689.6521391443422 187.05108554586488 L 689.6521391443422 196.15384615384616 M 707.4450219912034 158.86070067534894 L 707.4450219912034 161.5306230350815 M 707.4450219912034 164.5628861847138 L 707.4450219912034 185.14954279377727 M 716.3414634146341 163.8509611720495 L 716.3414634146341 164.59925597186475 M 716.3414634146341 174.58927653653663 L 716.3414634146341 177.71490690094453 M 725.2379048380647 167.54032323729757 L 725.2379048380647 174.54883550455529 M 725.2379048380647 177.65953797125198 L 725.2379048380647 182.4956339970439 M 743.0307876849259 134.81701437268845 L 743.0307876849259 166.27905158886028 M 743.0307876849259 170.28379942029812 L 743.0307876849259 177.41689177936416 M 769.7201119552178 140.2686826168268 L 769.7201119552178 156.40329729575973 M 769.7201119552178 160.9611915914789 L 769.7201119552178 168.21479279752273 M 778.6165533786485 159.29496679058448 L 778.6165533786485 160.9611915914789 M 778.6165533786485 163.991826243179 L 778.6165533786485 168.1045977707818 M 787.512994802079 161.68587317127825 L 787.512994802079 163.9568135376381 M 787.512994802079 170.8898720673738 L 787.512994802079 174.59334778136702 M 814.202319072371 135.36690384110554 L 814.202319072371 136.12089838368323 M 814.202319072371 140.99444986191426 L 814.202319072371 152.61812526883784 M 823.0987604958016 132.89701531070332 L 823.0987604958016 140.99444986191426 M 823.0987604958016 146.35736496875134 L 823.0987604958016 149.27970450796454 M 831.9952019192323 143.42199744608098 L 831.9952019192323 146.35736496875134 M 831.9952019192323 158.04400896238408 L 831.9952019192323 163.74619447174894 M 840.8916433426629 155.40339956542988 L 840.8916433426629 158.04400896238408 M 840.8916433426629 161.08740018121927 L 840.8916433426629 165.99515011602506 M 858.6845261895241 158.1821598702934 L 858.6845261895241 160.4902842727704 M 858.6845261895241 168.85234973795298 L 858.6845261895241 171.881898724365 M 867.5809676129546 165.15511659936627 L 867.5809676129546 168.85234973795298 M 867.5809676129546 170.80301884432666 L 867.5809676129546 176.23134528477107 M 885.3738504598159 167.6782027288848 L 885.3738504598159 168.2218496218954 M 885.3738504598159 172.13160174062546 L 885.3738504598159 172.43151677646" style="stroke-width: 1px;"></path><path class="candle wick equal" style="stroke-width: 1px;"></path></g></g><g class="x axis" transform="translate(0,200)" fill="none" font-size="10" font-family="sans-serif" text-anchor="middle"><path class="domain" stroke="#000" d="M0.5,6V0.5H890.5V6"></path><g class="tick" opacity="1" transform="translate(49.10835665733706,0)"><line stroke="#000" y2="6" x1="0.5" x2="0.5"></line><text fill="#000" y="9" x="0.5" dy="0.71em">Jul 11</text></g><g class="tick" opacity="1" transform="translate(111.38344662135144,0)"><line stroke="#000" y2="6" x1="0.5" x2="0.5"></line><text fill="#000" y="9" x="0.5" dy="0.71em">Jul 18</text></g><g class="tick" opacity="1" transform="translate(173.65853658536582,0)"><line stroke="#000" y2="6" x1="0.5" x2="0.5"></line><text fill="#000" y="9" x="0.5" dy="0.71em">Jul 25</text></g><g class="tick" opacity="1" transform="translate(235.93362654938022,0)"><line stroke="#000" y2="6" x1="0.5" x2="0.5"></line><text fill="#000" y="9" x="0.5" dy="0.71em">Aug  1</text></g><g class="tick" opacity="1" transform="translate(298.2087165133947,0)"><line stroke="#000" y2="6" x1="0.5" x2="0.5"></line><text fill="#000" y="9" x="0.5" dy="0.71em">Aug  8</text></g><g class="tick" opacity="1" transform="translate(360.483806477409,0)"><line stroke="#000" y2="6" x1="0.5" x2="0.5"></line><text fill="#000" y="9" x="0.5" dy="0.71em">Aug 15</text></g><g class="tick" opacity="1" transform="translate(422.7588964414235,0)"><line stroke="#000" y2="6" x1="0.5" x2="0.5"></line><text fill="#000" y="9" x="0.5" dy="0.71em">Aug 22</text></g><g class="tick" opacity="1" transform="translate(485.0339864054379,0)"><line stroke="#000" y2="6" x1="0.5" x2="0.5"></line><text fill="#000" y="9" x="0.5" dy="0.71em">Aug 29</text></g><g class="tick" opacity="1" transform="translate(547.3090763694522,0)"><line stroke="#000" y2="6" x1="0.5" x2="0.5"></line><text fill="#000" y="9" x="0.5" dy="0.71em">Sep  5</text></g><g class="tick" opacity="1" transform="translate(609.5841663334666,0)"><line stroke="#000" y2="6" x1="0.5" x2="0.5"></line><text fill="#000" y="9" x="0.5" dy="0.71em">Sep 12</text></g><g class="tick" opacity="1" transform="translate(671.8592562974809,0)"><line stroke="#000" y2="6" x1="0.5" x2="0.5"></line><text fill="#000" y="9" x="0.5" dy="0.71em">Sep 19</text></g><g class="tick" opacity="1" transform="translate(734.1343462614954,0)"><line stroke="#000" y2="6" x1="0.5" x2="0.5"></line><text fill="#000" y="9" x="0.5" dy="0.71em">Sep 26</text></g><g class="tick" opacity="1" transform="translate(796.4094362255097,0)"><line stroke="#000" y2="6" x1="0.5" x2="0.5"></line><text fill="#000" y="9" x="0.5" dy="0.71em">Oct  3</text></g><g class="tick" opacity="1" transform="translate(858.6845261895241,0)"><line stroke="#000" y2="6" x1="0.5" x2="0.5"></line><text fill="#000" y="9" x="0.5" dy="0.71em">Oct 10</text></g></g><g class="y axis" fill="none" font-size="10" font-family="sans-serif" text-anchor="end"><path class="domain" stroke="#000" d="M-6,200.5H0.5V0.5H-6"></path><g class="tick" opacity="1" transform="translate(0,199.57314897868207)"><line stroke="#000" x2="-6" y1="0.5" y2="0.5"></line><text fill="#000" x="-9" y="0.5" dy="0.32em">18,000</text></g><g class="tick" opacity="1" transform="translate(0,172.43151677646)"><line stroke="#000" x2="-6" y1="0.5" y2="0.5"></line><text fill="#000" x="-9" y="0.5" dy="0.32em">19,000</text></g><g class="tick" opacity="1" transform="translate(0,145.2898845742379)"><line stroke="#000" x2="-6" y1="0.5" y2="0.5"></line><text fill="#000" x="-9" y="0.5" dy="0.32em">20,000</text></g><g class="tick" opacity="1" transform="translate(0,118.14825237201579)"><line stroke="#000" x2="-6" y1="0.5" y2="0.5"></line><text fill="#000" x="-9" y="0.5" dy="0.32em">21,000</text></g><g class="tick" opacity="1" transform="translate(0,91.0066201697937)"><line stroke="#000" x2="-6" y1="0.5" y2="0.5"></line><text fill="#000" x="-9" y="0.5" dy="0.32em">22,000</text></g><g class="tick" opacity="1" transform="translate(0,63.86498796757161)"><line stroke="#000" x2="-6" y1="0.5" y2="0.5"></line><text fill="#000" x="-9" y="0.5" dy="0.32em">23,000</text></g><g class="tick" opacity="1" transform="translate(0,36.72335576534951)"><line stroke="#000" x2="-6" y1="0.5" y2="0.5"></line><text fill="#000" x="-9" y="0.5" dy="0.32em">24,000</text></g><g class="tick" opacity="1" transform="translate(0,9.581723563127412)"><line stroke="#000" x2="-6" y1="0.5" y2="0.5"></line><text fill="#000" x="-9" y="0.5" dy="0.32em">25,000</text></g><text transform="rotate(-90)" y="6" dy=".71em" style="text-anchor: end;">Price ($)</text></g></g></svg>