<?xml version="1.0" encoding="utf-8"?>
<!DOCTYPE svg PUBLIC "-//W3C//DTD SVG 1.1//EN" "http://www.w3.org/Graphics/SVG/1.1/DTD/svg11.dtd">
<svg version="1.1" xmlns="http://www.w3.org/2000/svg" width="960" height="250"><g transform="translate(50,20)"><style>.axis path,.axis line{fill:none;stroke:#000;shape-rendering:crispEdges;}path.candle{stroke:#000000;}path.candle.body{stroke-width:0;}path.candle.up{fill:#00AA00;stroke:#00AA00;}path.candle.down{fill:#FF0000;stroke:#FF0000;}</style><g class="candlestick"><g class="data"><path class="candle body up" d="M 18.860455817672932 193.44476870626602 l 7.1171531387445 0 L 25.977608956417434 191.31225249714822 l -7.1171531387445 0 L 18.860455817672932 193.44476870626602 M 27.75689724110356 191.31219739764148 l 7.1171531387445 0 L 34.87405037984806 187.96429626898978 l -7.1171531387445 0 L 27.75689724110356 191.31219739764148 M 36.65333866453418 187.96435136849652 l 7.1171531387445 0 L 43.77049180327868 187.80538929156955 l -7.1171531387445 0 L 36.65333866453418 187.96435136849652 M 63.342662934826066 189.8093583514774 l 7.1171531387445 0 L 70.45981607357056 185.64069497051923 l -7.1171531387445 0 L 63.342662934826066 189.8093583514774 M 72.23910435825668 185.64339484634917 l 7.1171531387445 0 L 79.35625749700118 180.42932852413082 l -7.1171531387445 0 L 72.23910435825668 185.64339484634917 M 81.13554578168731 180.42932852413082 l 7.1171531387445 0 L 88.25269892043181 179.7860968825206 l -7.1171531387445 0 L 81.13554578168731 180.42932852413082 M 90.03198720511796 179.777115662923 l 7.1171531387445 0 L 97.14914034386246 179.63898119954138 l -7.1171531387445 0 L 90.03198720511796 179.777115662923 M 98.92842862854857 179.63903629904812 l 7.1171531387445 0 L 106.04558176729307 174.9398197677503 l -7.1171531387445 0 L 98.92842862854857 179.63903629904812 M 107.82487005197919 174.93987486725703 l 7.1171531387445 0 L 114.94202319072369 174.67462584184057 l -7.1171531387445 0 L 107.82487005197919 174.93987486725703 M 134.51419432227107 176.52481217845445 l 7.1171531387445 0 L 141.63134746101557 172.16093124513844 l -7.1171531387445 0 L 134.51419432227107 176.52481217845445 M 170.09996001599356 183.2936763816868 l 7.1171531387445 0 L 177.21711315473806 180.09614180691165 l -7.1171531387445 0 L 170.09996001599356 183.2936763816868 M 178.9964014394242 180.09619690641836 l 7.1171531387445 0 L 186.1135545781687 177.5332433506962 l -7.1171531387445 0 L 178.9964014394242 180.09619690641836 M 187.89284286285485 177.53318825118947 l 7.1171531387445 0 L 195.00999600159935 169.20836907730168 l -7.1171531387445 0 L 187.89284286285485 177.53318825118947 M 205.68572570971608 174.33763725865674 l 7.1171531387445 0 L 212.80287884846058 171.9180526194559 l -7.1171531387445 0 L 205.68572570971608 174.33763725865674 M 214.5821671331467 171.91810771896263 l 7.1171531387445 0 L 221.6993202718912 170.71793026328726 l -7.1171531387445 0 L 214.5821671331467 171.91810771896263 M 232.37504998000796 174.96825111322494 l 7.1171531387445 0 L 239.49220311875246 172.22897913595466 l -7.1171531387445 0 L 232.37504998000796 174.96825111322494 M 241.2714914034386 172.22897913595466 l 7.1171531387445 0 L 248.3886445421831 171.06230218037342 l -7.1171531387445 0 L 241.2714914034386 172.22897913595466 M 267.9608156737305 176.76669901301577 l 7.1171531387445 0 L 275.07796881247504 175.5701030252781 l -7.1171531387445 0 L 267.9608156737305 176.76669901301577 M 294.65013994402244 178.35125062766605 l 7.1171531387445 0 L 301.76729308276697 174.09668711570987 l -7.1171531387445 0 L 294.65013994402244 178.35125062766605 M 303.54658136745303 174.09668711570987 l 7.1171531387445 0 L 310.66373450619756 172.0783921840512 l -7.1171531387445 0 L 303.54658136745303 174.09668711570987 M 312.4430227908837 172.0783921840512 l 7.1171531387445 0 L 319.5601759296282 171.5375905254591 l -7.1171531387445 0 L 312.4430227908837 172.0783921840512 M 321.3394642143143 171.53456005258874 l 7.1171531387445 0 L 328.45661735305885 170.69297018673686 l -7.1171531387445 0 L 321.3394642143143 171.53456005258874 M 330.23590563774496 170.69297018673686 l 7.1171531387445 0 L 337.3530587764895 160.17397845569616 l -7.1171531387445 0 L 330.23590563774496 170.69297018673686 M 339.13234706117555 160.17397845569616 l 7.1171531387445 0 L 346.2495001999201 152.1204141534588 l -7.1171531387445 0 L 339.13234706117555 160.17397845569616 M 348.02878848460614 152.1204692529655 l 7.1171531387445 0 L 355.14594162335067 150.4110621560565 l -7.1171531387445 0 L 348.02878848460614 152.1204692529655 M 356.9252299080368 150.4110621560565 l 7.1171531387445 0 L 364.0423830467813 146.4757451861159 l -7.1171531387445 0 L 356.9252299080368 150.4110621560565 M 383.61455417832866 152.54622314149748 l 7.1171531387445 0 L 390.7317073170732 146.53536285240185 l -7.1171531387445 0 L 383.61455417832866 152.54622314149748 M 401.40743702518995 149.72231832188413 l 7.1171531387445 0 L 408.5245901639345 146.9849197278428 l -7.1171531387445 0 L 401.40743702518995 149.72231832188413 M 410.3038784486206 146.98607681748422 l 7.1171531387445 0 L 417.4210315873651 141.56715052922965 l -7.1171531387445 0 L 410.3038784486206 146.98607681748422 M 419.20031987205124 141.56715052922965 l 7.1171531387445 0 L 426.31747301079577 131.75436917599592 l -7.1171531387445 0 L 419.20031987205124 141.56715052922965 M 436.99320271891247 132.9216522261512 l 7.1171531387445 0 L 444.110355857657 128.52542788238247 l -7.1171531387445 0 L 436.99320271891247 132.9216522261512 M 445.8896441423431 128.52537278287576 l 7.1171531387445 0 L 453.00679728108764 126.84164205610465 l -7.1171531387445 0 L 445.8896441423431 128.52537278287576 M 454.7860855657737 126.84164205610465 l 7.1171531387445 0 L 461.90323870451823 118.62884017940662 l -7.1171531387445 0 L 454.7860855657737 126.84164205610465 M 463.68252698920435 118.6287850798999 l 7.1171531387445 0 L 470.7996801279489 118.36386665152384 l -7.1171531387445 0 L 463.68252698920435 118.6287850798999 M 472.57896841263494 118.36386665152384 l 7.1171531387445 0 L 479.69612155137946 116.1154761797449 l -7.1171531387445 0 L 472.57896841263494 118.36386665152384 M 481.47540983606564 116.11542108023816 l 7.1171531387445 0 L 488.59256297481016 100.4306301948779 l -7.1171531387445 0 L 481.47540983606564 116.11542108023816 M 490.3718512594962 100.44098890214384 l 7.1171531387445 0 L 497.48900439824075 95.9029935275491 l -7.1171531387445 0 L 490.3718512594962 100.44098890214384 M 508.16473410635746 101.46969669286369 l 7.1171531387445 0 L 515.281887245102 90.67140556218942 l -7.1171531387445 0 L 508.16473410635746 101.46969669286369 M 517.0611755297881 90.67140556218942 l 7.1171531387445 0 L 524.1783286685326 75.13428135487572 l -7.1171531387445 0 L 517.0611755297881 90.67140556218942 M 525.9576169532187 75.13428135487572 l 7.1171531387445 0 L 533.0747700919632 60.46172350772187 l -7.1171531387445 0 L 525.9576169532187 75.13428135487572 M 534.8540583766493 60.460621517587185 l 7.1171531387445 0 L 541.9712115153937 54.12235995947938 l -7.1171531387445 0 L 534.8540583766493 60.460621517587185 M 579.3362654938024 90.12250427610742 l 7.1171531387445 0 L 586.4534186325469 71.81718085048823 l -7.1171531387445 0 L 579.3362654938024 90.12250427610742 M 588.232706917233 71.81718085048823 l 7.1171531387445 0 L 595.3498600559775 62.04737711250684 l -7.1171531387445 0 L 588.232706917233 71.81718085048823 M 623.8184726109555 80.33771347229445 l 7.1171531387445 0 L 630.9356257497 75.89515044336261 l -7.1171531387445 0 L 623.8184726109555 80.33771347229445 M 659.4042383046781 107.7386981710071 l 7.1171531387445 0 L 666.5213914434225 96.20537962050415 l -7.1171531387445 0 L 659.4042383046781 107.7386981710071 M 677.1971211515394 100.98344354593802 l 7.1171531387445 0 L 684.3142742902838 99.9811835184504 l -7.1171531387445 0 L 677.1971211515394 100.98344354593802 M 694.9900039984005 100.01264533679539 l 7.1171531387445 0 L 702.107157137145 98.83583007197514 l -7.1171531387445 0 L 694.9900039984005 100.01264533679539 M 712.7828868452618 110.43747201082806 l 7.1171531387445 0 L 719.9000399840063 93.89290842239379 l -7.1171531387445 0 L 712.7828868452618 110.43747201082806 M 721.6793282686924 93.87461538615818 l 7.1171531387445 0 L 728.7964814074369 89.00370879187787 l -7.1171531387445 0 L 721.6793282686924 93.87461538615818 M 730.5757696921231 89.03632769986427 l 7.1171531387445 0 L 737.6929228308676 88.94486251868618 l -7.1171531387445 0 L 730.5757696921231 89.03632769986427 M 748.3686525389844 95.39100891097874 l 7.1171531387445 0 L 755.4858056777289 93.00299628913638 l -7.1171531387445 0 L 748.3686525389844 95.39100891097874 M 757.265093962415 93.05412863138535 l 7.1171531387445 0 L 764.3822471011595 82.3144082763691 l -7.1171531387445 0 L 757.265093962415 93.05412863138535 M 766.1615353858456 82.27875889551233 l 7.1171531387445 0 L 773.27868852459 70.4535231583337 l -7.1171531387445 0 L 766.1615353858456 82.27875889551233 M 783.9544182327068 74.21252170672616 l 7.1171531387445 0 L 791.0715713714512 66.75430757474737 l -7.1171531387445 0 L 783.9544182327068 74.21252170672616 M 792.8508596561375 66.75937672936689 l 7.1171531387445 0 L 799.9680127948819 61.81353480592861 l -7.1171531387445 0 L 792.8508596561375 66.75937672936689 M 810.6437425029987 63.969303006888055 l 7.1171531387445 0 L 817.7608956417432 22.208395062229016 l -7.1171531387445 0 L 810.6437425029987 63.969303006888055 M 819.5401839264293 22.208450161735783 l 7.1171531387445 0 L 826.6573370651738 21.95741680905664 l -7.1171531387445 0 L 819.5401839264293 22.208450161735783 M 837.3330667732906 30.84408565310889 l 7.1171531387445 0 L 844.4502199120351 13.422007320432272 l -7.1171531387445 0 L 837.3330667732906 30.84408565310889 M 864.0223910435824 17.90010953120745 l 7.1171531387445 0 L 871.1395441823269 10.070414524829431 l -7.1171531387445 0 L 864.0223910435824 17.90010953120745 M 881.8152738904437 13.743843539264361 l 7.1171531387445 0 L 888.9324270291881 12.152073889231957 l -7.1171531387445 0 L 881.8152738904437 13.743843539264361"></path><path class="candle body down" d="M 1.0675729708116766 192.46460358097866 l 7.1171531387445 0 L 8.184726109556177 193.2728582452566 l -7.1171531387445 0 L 1.0675729708116766 192.46460358097866 M 9.964014394242305 193.2728582452566 l 7.1171531387445 0 L 17.081167532986804 193.44476870626602 l -7.1171531387445 0 L 9.964014394242305 193.2728582452566 M 45.54978008796481 187.80902585901399 l 7.1171531387445 0 L 52.66693322670931 189.1842544475826 l -7.1171531387445 0 L 45.54978008796481 187.80902585901399 M 54.446221511395436 189.1891583036819 l 7.1171531387445 0 L 61.563374650139934 189.8093583514774 l -7.1171531387445 0 L 54.446221511395436 189.1891583036819 M 116.72131147540982 174.67462584184057 l 7.1171531387445 0 L 123.83846461415432 176.2690402681962 l -7.1171531387445 0 L 116.72131147540982 174.67462584184057 M 125.61775289884046 176.27207074106656 l 7.1171531387445 0 L 132.73490603758498 176.52486727796116 l -7.1171531387445 0 L 125.61775289884046 176.27207074106656 M 143.4106357457017 172.16098634464515 l 7.1171531387445 0 L 150.5277888844462 174.59026849703113 l -7.1171531387445 0 L 143.4106357457017 172.16098634464515 M 152.30707716913233 174.59181128321967 l 7.1171531387445 0 L 159.42423030787683 183.2389074719934 l -7.1171531387445 0 L 152.30707716913233 174.59181128321967 M 161.20351859256294 183.2389074719934 l 7.1171531387445 0 L 168.32067173130744 183.29373148119353 l -7.1171531387445 0 L 161.20351859256294 183.2389074719934 M 196.78928428628546 169.20836907730168 l 7.1171531387445 0 L 203.90643742502996 174.33763725865674 l -7.1171531387445 0 L 196.78928428628546 169.20836907730168 M 223.47860855657734 170.715505884991 l 7.1171531387445 0 L 230.59576169532184 174.9681960137182 l -7.1171531387445 0 L 223.47860855657734 170.715505884991 M 250.16793282686922 171.06632444436502 l 7.1171531387445 0 L 257.28508596561375 172.12296768499886 l -7.1171531387445 0 L 250.16793282686922 171.06632444436502 M 259.06437425029986 172.12296768499886 l 7.1171531387445 0 L 266.1815273890444 176.76669901301577 l -7.1171531387445 0 L 259.06437425029986 172.12296768499886 M 276.85725709716115 175.57004792577135 l 7.1171531387445 0 L 283.9744102359057 177.1495303858021 l -7.1171531387445 0 L 276.85725709716115 175.57004792577135 M 285.7536985205918 177.1485385946809 l 7.1171531387445 0 L 292.8708516593363 178.35125062766605 l -7.1171531387445 0 L 285.7536985205918 177.1485385946809 M 365.8216713314674 146.47580028562263 l 7.1171531387445 0 L 372.93882447021196 148.49288302813312 l -7.1171531387445 0 L 365.8216713314674 146.47580028562263 M 374.7181127548981 148.49277282911964 l 7.1171531387445 0 L 381.8352658936426 152.54715983311198 l -7.1171531387445 0 L 374.7181127548981 148.49277282911964 M 392.5109956017593 146.53536285240185 l 7.1171531387445 0 L 399.62814874050383 149.720279640135 l -7.1171531387445 0 L 392.5109956017593 146.53536285240185 M 428.0967612954818 131.75431407648915 l 7.1171531387445 0 L 435.21391443422635 132.9209910320704 l -7.1171531387445 0 L 428.0967612954818 131.75431407648915 M 499.2682926829268 95.9029935275491 l 7.1171531387445 0 L 506.38544582167134 101.47542704156402 l -7.1171531387445 0 L 499.2682926829268 95.9029935275491 M 543.75049980008 54.09949366418488 l 7.1171531387445 0 L 550.8676529388244 56.84752646302579 l -7.1171531387445 0 L 543.75049980008 54.09949366418488 M 552.6469412235106 56.84752646302579 l 7.1171531387445 0 L 559.764094362255 67.5269128581686 l -7.1171531387445 0 L 552.6469412235106 56.84752646302579 M 561.5433826469413 67.5269128581686 l 7.1171531387445 0 L 568.6605357856857 82.65475792946368 l -7.1171531387445 0 L 561.5433826469413 67.5269128581686 M 570.4398240703717 82.62224922049073 l 7.1171531387445 0 L 577.5569772091162 90.11098847920007 l -7.1171531387445 0 L 570.4398240703717 82.62224922049073 M 597.1291483406637 62.04346504752874 l 7.1171531387445 0 L 604.2463014794082 75.2838214161512 l -7.1171531387445 0 L 597.1291483406637 62.04346504752874 M 606.0255897640943 75.3102140798767 l 7.1171531387445 0 L 613.1427429028388 79.40107695732677 l -7.1171531387445 0 L 606.0255897640943 75.3102140798767 M 614.9220311875249 79.40107695732677 l 7.1171531387445 0 L 622.0391843262694 80.31776745085679 l -7.1171531387445 0 L 614.9220311875249 79.40107695732677 M 632.7149140343862 75.94369310879505 l 7.1171531387445 0 L 639.8320671731307 79.97130175251476 l -7.1171531387445 0 L 632.7149140343862 75.94369310879505 M 641.6113554578168 79.91372276797793 l 7.1171531387445 0 L 648.7285085965613 82.30344347452902 l -7.1171531387445 0 L 641.6113554578168 79.91372276797793 M 650.5077968812475 82.30344347452902 l 7.1171531387445 0 L 657.624950019992 107.7489466792596 l -7.1171531387445 0 L 650.5077968812475 82.30344347452902 M 668.3006797281087 96.1787665587517 l 7.1171531387445 0 L 675.4178328668531 100.98344354593802 l -7.1171531387445 0 L 668.3006797281087 96.1787665587517 M 686.09356257497 99.98366299625341 l 7.1171531387445 0 L 693.2107157137144 100.01259023728865 l -7.1171531387445 0 L 686.09356257497 99.98366299625341 M 703.8864454218311 98.85654748650705 l 7.1171531387445 0 L 711.0035985605756 110.41565260616147 l -7.1171531387445 0 L 703.8864454218311 98.85654748650705 M 739.4722111155537 88.94480741917945 l 7.1171531387445 0 L 746.5893642542982 95.390953811472 l -7.1171531387445 0 L 739.4722111155537 88.94480741917945 M 775.0579768092763 70.44586432689769 l 7.1171531387445 0 L 782.1751299480208 74.21246660721943 l -7.1171531387445 0 L 775.0579768092763 70.44586432689769 M 801.747301079568 61.846208813421754 l 7.1171531387445 0 L 808.8644542183125 63.969303006888055 l -7.1171531387445 0 L 801.747301079568 61.846208813421754 M 828.43662534986 21.95741680905664 l 7.1171531387445 0 L 835.5537784886045 30.84408565310889 l -7.1171531387445 0 L 828.43662534986 21.95741680905664 M 846.2295081967213 13.42669077850465 l 7.1171531387445 0 L 853.3466613354658 17.179297784116045 l -7.1171531387445 0 L 846.2295081967213 13.42669077850465 M 855.1259496201519 17.121167804511884 l 7.1171531387445 0 L 862.2431027588964 17.91713527878818 l -7.1171531387445 0 L 855.1259496201519 17.121167804511884 M 872.9188324670131 10.055647857024809 l 7.1171531387445 0 L 880.0359856057576 13.743843539264361 l -7.1171531387445 0 L 872.9188324670131 10.055647857024809"></path><path class="candle body equal"></path><path class="candle wick up" d="M 22.41903238704518 189.7652787460904 L 22.41903238704518 191.31225249714822 M 22.41903238704518 193.44476870626602 L 22.41903238704518 193.57992779628398 M 31.315473810475808 187.695190278102 L 31.315473810475808 187.96429626898978 M 31.315473810475808 191.31219739764148 L 31.315473810475808 192.65447648118328 M 40.21191523390643 186.9276541493003 L 40.21191523390643 187.80538929156955 M 40.21191523390643 187.96435136849652 L 40.21191523390643 189.83497962210862 M 66.90123950419832 184.7236738799488 L 66.90123950419832 185.64069497051923 M 66.90123950419832 189.8093583514774 L 66.90123950419832 190.32178376410164 M 75.79768092762893 179.33042396183217 L 75.79768092762893 180.42932852413082 M 75.79768092762893 185.64339484634917 L 75.79768092762893 186.60807701024436 M 84.69412235105956 175.92466835111003 L 84.69412235105956 179.7860968825206 M 84.69412235105956 180.42932852413082 L 84.69412235105956 182.88087087723727 M 93.5905637744902 177.56183999469107 L 93.5905637744902 179.63898119954138 M 93.5905637744902 179.777115662923 L 93.5905637744902 182.21306485562374 M 102.48700519792082 174.0607071378127 L 102.48700519792082 174.9398197677503 M 102.48700519792082 179.63903629904812 L 102.48700519792082 179.9848959028161 M 111.38344662135144 173.23046777034799 L 111.38344662135144 174.67462584184057 M 111.38344662135144 174.93987486725703 L 111.38344662135144 176.85226854697333 M 138.07277089164333 170.73407441876026 L 138.07277089164333 172.16093124513844 M 138.07277089164333 176.52481217845445 L 138.07277089164333 178.45335001364373 M 173.65853658536582 179.21102333074003 L 173.65853658536582 180.09614180691165 M 173.65853658536582 183.2936763816868 L 173.65853658536582 184.80323756767237 M 182.55497800879647 176.56867138581453 L 182.55497800879647 177.5332433506962 M 182.55497800879647 180.09619690641836 L 182.55497800879647 181.21383530100653 M 191.4514194322271 168.28660942915215 L 191.4514194322271 169.20836907730168 M 191.4514194322271 177.53318825118947 L 191.4514194322271 177.5332433506962 M 209.24430227908834 171.15817532209022 L 209.24430227908834 171.9180526194559 M 209.24430227908834 174.33763725865674 L 209.24430227908834 176.73424540354955 M 218.14074370251896 169.74762794970525 L 218.14074370251896 170.71793026328726 M 218.14074370251896 171.91810771896263 L 218.14074370251896 173.77429990181048 M 235.93362654938022 172.06731718319773 L 235.93362654938022 172.22897913595466 M 235.93362654938022 174.96825111322494 L 235.93362654938022 175.79755378907515 M 244.83006797281087 170.72839916956667 L 244.83006797281087 171.06230218037342 M 244.83006797281087 172.22897913595466 L 244.83006797281087 173.83050139867893 M 271.51939224310274 175.0285299735917 L 271.51939224310274 175.5701030252781 M 271.51939224310274 176.76669901301577 L 271.51939224310274 180.48101186144714 M 298.2087165133947 173.32545931995705 L 298.2087165133947 174.09668711570987 M 298.2087165133947 178.35125062766605 L 298.2087165133947 178.43847314682563 M 307.10515793682526 170.7779887256271 L 307.10515793682526 172.0783921840512 M 307.10515793682526 174.09668711570987 L 307.10515793682526 174.63429300291145 M 316.0015993602559 171.1196056673766 L 316.0015993602559 171.5375905254591 M 316.0015993602559 172.0783921840512 L 316.0015993602559 173.04257845238578 M 324.89804078368655 169.90190656855987 L 324.89804078368655 170.69297018673686 M 324.89804078368655 171.53456005258874 L 324.89804078368655 172.76708091871683 M 333.7944822071172 158.9371047285361 L 333.7944822071172 160.17397845569616 M 333.7944822071172 170.69297018673686 L 333.7944822071172 171.50750619478245 M 342.6909236305478 146.5948152201676 L 342.6909236305478 152.1204141534588 M 342.6909236305478 160.17397845569616 L 342.6909236305478 160.75538845075107 M 351.5873650539784 149.43144802583646 L 351.5873650539784 150.4110621560565 M 351.5873650539784 152.1204692529655 L 351.5873650539784 154.58424369656683 M 360.483806477409 144.54803384352758 L 360.483806477409 146.4757451861159 M 360.483806477409 150.4110621560565 L 360.483806477409 152.3802634272153 M 387.1731307477009 146.39039605018525 L 387.1731307477009 146.53536285240185 M 387.1731307477009 152.54622314149748 L 387.1731307477009 154.56550986427735 M 404.9660135945622 146.62550564541831 L 404.9660135945622 146.9849197278428 M 404.9660135945622 149.72231832188413 L 404.9660135945622 152.63691692958133 M 413.86245501799283 141.14073544661687 L 413.86245501799283 141.56715052922965 M 413.86245501799283 146.98607681748422 L 413.86245501799283 148.6136611468936 M 422.7588964414235 129.69563120639467 L 422.7588964414235 131.75436917599592 M 422.7588964414235 141.56715052922965 L 422.7588964414235 142.73784974880243 M 440.5517792882847 126.20799772866609 L 440.5517792882847 128.52542788238247 M 440.5517792882847 132.9216522261512 L 440.5517792882847 133.91641872072302 M 449.44822071171535 126.70389328927017 L 449.44822071171535 126.84164205610465 M 449.44822071171535 128.52537278287576 L 449.44822071171535 135.1341178195397 M 458.34466213514594 117.96511152129142 L 458.34466213514594 118.62884017940662 M 458.34466213514594 126.84164205610465 L 458.34466213514594 127.19978884987427 M 467.2411035585766 116.29008651658428 L 467.2411035585766 118.36386665152384 M 467.2411035585766 118.6287850798999 L 467.2411035585766 124.27951499298352 M 476.13754498200717 114.63710131457063 L 476.13754498200717 116.1154761797449 M 476.13754498200717 118.36386665152384 L 476.13754498200717 120.0116724999045 M 485.0339864054379 94.25028382306915 L 485.0339864054379 100.4306301948779 M 485.0339864054379 116.11542108023816 L 485.0339864054379 118.23768878110347 M 493.93042782886846 86.10597063324121 L 493.93042782886846 95.9029935275491 M 493.93042782886846 100.44098890214384 L 493.93042782886846 101.61714297288327 M 511.7233106757297 88.40973610928762 L 511.7233106757297 90.67140556218942 M 511.7233106757297 101.46969669286369 L 511.7233106757297 112.984116112557 M 520.6197520991603 74.19841623300233 L 520.6197520991603 75.13428135487572 M 520.6197520991603 90.67140556218942 L 520.6197520991603 94.31640323114969 M 529.5161935225909 55.32248231564802 L 529.5161935225909 60.46172350772187 M 529.5161935225909 75.13428135487572 L 529.5161935225909 77.72043180293278 M 538.4126349460215 46.589210498342624 L 538.4126349460215 54.12235995947938 M 538.4126349460215 60.460621517587185 L 538.4126349460215 76.61844166825702 M 582.8948420631747 69.18000825919566 L 582.8948420631747 71.81718085048823 M 582.8948420631747 90.12250427610742 L 582.8948420631747 99.31943844257762 M 591.7912834866053 56.78261924409341 L 591.7912834866053 62.04737711250684 M 591.7912834866053 71.81718085048823 L 591.7912834866053 75.50967429425299 M 627.3770491803277 71.27472620669406 L 627.3770491803277 75.89515044336261 M 627.3770491803277 80.33771347229445 L 627.3770491803277 85.98535781300096 M 662.9628148740503 91.349129495015 L 662.9628148740503 96.20537962050415 M 662.9628148740503 107.7386981710071 L 662.9628148740503 118.76956431960473 M 680.7556977209116 95.51206252727289 L 680.7556977209116 99.9811835184504 M 680.7556977209116 100.98344354593802 L 680.7556977209116 107.47416543917822 M 698.5485805677728 96.33370637168714 L 698.5485805677728 98.83583007197514 M 698.5485805677728 100.01264533679539 L 698.5485805677728 107.81925364985192 M 716.3414634146341 91.58357789616724 L 716.3414634146341 93.89290842239379 M 716.3414634146341 110.43747201082806 L 716.3414634146341 113.30314225654564 M 725.2379048380647 65.42277289501865 L 725.2379048380647 89.00370879187787 M 725.2379048380647 93.87461538615818 L 725.2379048380647 101.8793615254294 M 734.1343462614954 85.25253437344158 L 734.1343462614954 88.94486251868618 M 734.1343462614954 89.03632769986427 L 734.1343462614954 96.86751039292407 M 751.9272291083566 86.4411960322096 L 751.9272291083566 93.00299628913638 M 751.9272291083566 95.39100891097874 L 751.9272291083566 99.78139270703367 M 760.8236705317872 79.45975793199824 L 760.8236705317872 82.3144082763691 M 760.8236705317872 93.05412863138535 L 760.8236705317872 93.60010964361045 M 769.7201119552178 70.21240771686666 L 769.7201119552178 70.4535231583337 M 769.7201119552178 82.27875889551233 L 769.7201119552178 82.88667175330622 M 787.512994802079 66.64476975536061 L 787.512994802079 66.75430757474737 M 787.512994802079 74.21252170672616 L 787.512994802079 76.2327451211205 M 796.4094362255097 52.0688013435111 L 796.4094362255097 61.81353480592861 M 796.4094362255097 66.75937672936689 L 796.4094362255097 67.16369690977942 M 814.202319072371 19.89652995869281 L 814.202319072371 22.208395062229016 M 814.202319072371 63.969303006888055 L 814.202319072371 68.41473121017009 M 823.0987604958016 12.470549038153223 L 823.0987604958016 21.95741680905664 M 823.0987604958016 22.208450161735783 L 823.0987604958016 29.998253125238506 M 840.8916433426629 9.513303412244113 L 840.8916433426629 13.422007320432272 M 840.8916433426629 30.84408565310889 L 840.8916433426629 35.32676112294294 M 867.5809676129546 3.8461538461538396 L 867.5809676129546 10.070414524829431 M 867.5809676129546 17.90010953120745 L 867.5809676129546 18.685883596737995 M 885.3738504598159 11.756459430883353 L 885.3738504598159 12.152073889231957 M 885.3738504598159 13.743843539264361 L 885.3738504598159 18.744013576342127" style="stroke-width: 1px;"></path><path class="candle wick down" d="M 4.626149540183927 190.45402258026274 L 4.626149540183927 192.46460358097866 M 4.626149540183927 193.2728582452566 L 4.626149540183927 196.15384615384616 M 13.522590963614554 192.54780383614667 L 13.522590963614554 193.2728582452566 M 13.522590963614554 193.44476870626602 L 13.522590963614554 194.6831301201079 M 49.10835665733706 187.770731701834 L 49.10835665733706 187.80902585901399 M 49.10835665733706 189.1842544475826 L 49.10835665733706 191.39071419473714 M 58.004798080767685 188.58063935131395 L 58.004798080767685 189.1891583036819 M 58.004798080767685 189.8093583514774 L 58.004798080767685 190.81371216022092 M 120.27988804478207 174.42006612073047 L 120.27988804478207 174.67462584184057 M 120.27988804478207 176.2690402681962 L 120.27988804478207 180.69667133080318 M 129.1763294682127 174.33190690995642 L 129.1763294682127 176.27207074106656 M 129.1763294682127 176.52486727796116 L 129.1763294682127 178.55252912576455 M 146.96921231507397 170.37460523682904 L 146.96921231507397 172.16098634464515 M 146.96921231507397 174.59026849703113 L 146.96921231507397 175.79606610239335 M 155.8656537385046 173.51075896110277 L 155.8656537385046 174.59181128321967 M 155.8656537385046 183.2389074719934 L 155.8656537385046 188.53655974592692 M 164.7620951619352 181.54101617199174 L 164.7620951619352 183.2389074719934 M 164.7620951619352 183.29373148119353 L 164.7620951619352 187.15863128152836 M 200.34786085565773 168.1497422544254 L 200.34786085565773 169.20836907730168 M 200.34786085565773 174.33763725865674 L 200.34786085565773 178.54635798101037 M 227.0371851259496 170.13883444751514 L 227.0371851259496 170.715505884991 M 227.0371851259496 174.9681960137182 L 227.0371851259496 175.4376989105968 M 253.72650939624148 170.72338511445392 L 253.72650939624148 171.06632444436502 M 253.72650939624148 172.12296768499886 L 253.72650939624148 173.57770486178433 M 262.6229508196721 171.41802459584676 L 262.6229508196721 172.12296768499886 M 262.6229508196721 176.76669901301577 L 262.6229508196721 177.4505389910888 M 280.4158336665334 175.4817234164771 L 280.4158336665334 175.57004792577135 M 280.4158336665334 177.1495303858021 L 280.4158336665334 179.04225354161446 M 289.31227508996403 176.9396012651464 L 289.31227508996403 177.1485385946809 M 289.31227508996403 178.35125062766605 L 289.31227508996403 180.90896973024846 M 369.38024790083966 143.8673896368451 L 369.38024790083966 146.47580028562263 M 369.38024790083966 148.49288302813312 L 369.38024790083966 150.6721787184679 M 378.2766893242703 144.9265674547887 L 378.2766893242703 148.49277282911964 M 378.2766893242703 152.54715983311198 L 378.2766893242703 157.5320673068245 M 396.06957217113154 144.94183001815395 L 396.06957217113154 146.53536285240185 M 396.06957217113154 149.720279640135 L 396.06957217113154 153.20675602822215 M 431.65533786485406 121.12782320781085 L 431.65533786485406 131.75431407648915 M 431.65533786485406 132.9209910320704 L 431.65533786485406 136.1259089407479 M 502.82686925229905 92.5972986210555 L 502.82686925229905 95.9029935275491 M 502.82686925229905 101.47542704156402 L 502.82686925229905 122.73672880443746 M 547.3090763694522 49.72988238216857 L 547.3090763694522 54.09949366418488 M 547.3090763694522 56.84752646302579 L 547.3090763694522 64.3863511733561 M 556.2055177928828 49.8951809023699 L 556.2055177928828 56.84752646302579 M 556.2055177928828 67.5269128581686 L 556.2055177928828 84.27115705900607 M 565.1019592163135 66.89481131691855 L 565.1019592163135 67.5269128581686 M 565.1019592163135 82.65475792946368 L 565.1019592163135 110.11894176240004 M 573.998400639744 75.91316798206454 L 573.998400639744 82.62224922049073 M 573.998400639744 90.11098847920007 L 573.998400639744 98.48743589089743 M 600.687724910036 58.72344426928433 L 600.687724910036 62.04346504752874 M 600.687724910036 75.2838214161512 L 600.687724910036 88.14525847696544 M 609.5841663334666 68.62901319185778 L 609.5841663334666 75.3102140798767 M 609.5841663334666 79.40107695732677 L 609.5841663334666 82.91190732739027 M 618.4806077568971 74.676184055891 L 618.4806077568971 79.40107695732677 M 618.4806077568971 80.31776745085679 L 618.4806077568971 91.21981095271082 M 636.2734906037584 69.18000825919566 L 636.2734906037584 75.94369310879505 M 636.2734906037584 79.97130175251476 L 636.2734906037584 80.23263871295312 M 645.169932027189 77.08507939078548 L 645.169932027189 79.91372276797793 M 645.169932027189 82.30344347452902 L 645.169932027189 93.69928875573126 M 654.0663734506197 81.57739727429794 L 654.0663734506197 82.30344347452902 M 654.0663734506197 107.7489466792596 L 654.0663734506197 112.04191454740922 M 671.8592562974809 93.39073151802204 L 671.8592562974809 96.1787665587517 M 671.8592562974809 100.98344354593802 L 671.8592562974809 104.77340801711486 M 689.6521391443422 85.57211151249756 L 689.6521391443422 99.98366299625341 M 689.6521391443422 100.01259023728865 L 689.6521391443422 101.90911525906566 M 707.4450219912034 98.34257928769429 L 707.4450219912034 98.85654748650705 M 707.4450219912034 110.41565260616147 L 707.4450219912034 116.61120644182878 M 743.0307876849259 88.5051133554438 L 743.0307876849259 88.94480741917945 M 743.0307876849259 95.390953811472 L 743.0307876849259 100.46732646636264 M 778.6165533786485 64.45098289475487 L 778.6165533786485 70.44586432689769 M 778.6165533786485 74.21246660721943 L 778.6165533786485 78.48108049339272 M 805.3058776489403 58.9865995134449 L 805.3058776489403 61.846208813421754 M 805.3058776489403 63.969303006888055 L 805.3058776489403 71.92947364521166 M 831.9952019192323 17.05587488903234 L 831.9952019192323 21.95741680905664 M 831.9952019192323 30.84408565310889 L 831.9952019192323 36.798028151748525 M 849.7880847660936 7.822299550584148 L 849.7880847660936 13.42669077850465 M 849.7880847660936 17.179297784116045 L 849.7880847660936 23.585166436986214 M 858.6845261895241 12.427516323394173 L 858.6845261895241 17.121167804511884 M 858.6845261895241 17.91713527878818 L 858.6845261895241 23.157979961279153 M 876.4774090363853 7.683889589668894 L 876.4774090363853 10.055647857024809 M 876.4774090363853 13.743843539264361 L 876.4774090363853 26.638836199679474" style="stroke-width: 1px;"></path><path class="candle wick equal" style="stroke-width: 1px;"></path></g></g><g class="x axis" transform="translate(0,200)" fill="none" font-size="10" font-family="sans-serif" text-anchor="middle"><path class="domain" stroke="#000" d="M0.5,6V0.5H890.5V6"></path><g class="tick" opacity="1" transform="translate(4.626149540183927,0)"><line stroke="#000" y2="6" x1="0.5" x2="0.5"></line><text fill="#000" y="9" x="0.5" dy="0.71em">Nov  9</text></g><g class="tick" opacity="1" transform="translate(66.90123950419832,0)"><line stroke="#000" y2="6" x1="0.5" x2="0.5"></line><text fill="#000" y="9" x="0.5" dy="0.71em">Nov 16</text></g><g class="tick" opacity="1" transform="translate(129.1763294682127,0)"><line stroke="#000" y2="6" x1="0.5" x2="0.5"></line><text fill="#000" y="9" x="0.5" dy="0.71em">Nov 23</text></g><g class="tick" opacity="1" transform="translate(191.4514194322271,0)"><line stroke="#000" y2="6" x1="0.5" x2="0.5"></line><text fill="#000" y="9" x="0.5" dy="0.71em">Nov 30</text></g><g class="tick" opacity="1" transform="translate(253.72650939624148,0)"><line stroke="#000" y2="6" x1="0.5" x2="0.5"></line><text fill="#000" y="9" x="0.5" dy="0.71em">Dec  7</text></g><g class="tick" opacity="1" transform="translate(316.0015993602559,0)"><line stroke="#000" y2="6" x1="0.5" x2="0.5"></line><text fill="#000" y="9" x="0.5" dy="0.71em">Dec 14</text></g><g class="tick" opacity="1" transform="translate(378.2766893242703,0)"><line stroke="#000" y2="6" x1="0.5" x2="0.5"></line><text fill="#000" y="9" x="0.5" dy="0.71em">Dec 21</text></g><g class="tick" opacity="1" transform="translate(440.5517792882847,0)"><line stroke="#000" y2="6" x1="0.5" x2="0.5"></line><text fill="#000" y="9" x="0.5" dy="0.71em">Dec 28</text></g><g class="tick" opacity="1" transform="translate(502.82686925229905,0)"><line stroke="#000" y2="6" x1="0.5" x2="0.5"></line><text fill="#000" y="9" x="0.5" dy="0.71em">Jan  4</text></g><g class="tick" opacity="1" transform="translate(565.1019592163135,0)"><line stroke="#000" y2="6" x1="0.5" x2="0.5"></line><text fill="#000" y="9" x="0.5" dy="0.71em">Jan 11</text></g><g class="tick" opacity="1" transform="translate(627.3770491803277,0)"><line stroke="#000" y2="6" x1="0.5" x2="0.5"></line><text fill="#000" y="9" x="0.5" dy="0.71em">Jan 18</text></g><g class="tick" opacity="1" transform="translate(689.6521391443422,0)"><line stroke="#000" y2="6" x1="0.5" x2="0.5"></line><text fill="#000" y="9" x="0.5" dy="0.71em">Jan 25</text></g><g class="tick" opacity="1" transform="translate(751.9272291083566,0)"><line stroke="#000" y2="6" x1="0.5" x2="0.5"></line><text fill="#000" y="9" x="0.5" dy="0.71em">Feb  1</text></g><g class="tick" opacity="1" transform="translate(814.202319072371,0)"><line stroke="#000" y2="6" x1="0.5" x2="0.5"></line><text fill="#000" y="9" x="0.5" dy="0.71em">Feb  8</text></g><g class="tick" opacity="1" transform="translate(876.4774090363853,0)"><line stroke="#000" y2="6" x1="0.5" x2="0.5"></line><text fill="#000" y="9" x="0.5" dy="0.71em">Feb 15</text></g></g><g class="y axis" fill="none" font-size="10" font-family="sans-serif" text-anchor="end"><path class="domain" stroke="#000" d="M-6,200.5H0.5V0.5H-6"></path><g class="tick" opacity="1" transform="translate(0,195.0823811459009)"><line stroke="#000" x2="-6" y1="0.5" y2="0.5"></line><text fill="#000" x="-9" y="0.5" dy="0.32em">15,000</text></g><g class="tick" opacity="1" transform="translate(0,167.532627779007)"><line stroke="#000" x2="-6" y1="0.5" y2="0.5"></line><text fill="#000" x="-9" y="0.5" dy="0.32em">20,000</text></g><g class="tick" opacity="1" transform="translate(0,139.98287441211306)"><line stroke="#000" x2="-6" y1="0.5" y2="0.5"></line><text fill="#000" x="-9" y="0.5" dy="0.32em">25,000</text></g><g class="tick" opacity="1" transform="translate(0,112.43312104521912)"><line stroke="#000" x2="-6" y1="0.5" y2="0.5"></line><text fill="#000" x="-9" y="0.5" dy="0.32em">30,000</text></g><g class="tick" opacity="1" transform="translate(0,84.8833676783252)"><line stroke="#000" x2="-6" y1="0.5" y2="0.5"></line><text fill="#000" x="-9" y="0.5" dy="0.32em">35,000</text></g><g class="tick" opacity="1" transform="translate(0,57.33361431143126)"><line stroke="#000" x2="-6" y1="0.5" y2="0.5"></line><text fill="#000" x="-9" y="0.5" dy="0.32em">40,000</text></g><g class="tick" opacity="1" transform="translate(0,29.783860944537338)"><line stroke="#000" x2="-6" y1="0.5" y2="0.5"></line><text fill="#000" x="-9" y="0.5" dy="0.32em">45,000</text></g><g class="tick" opacity="1" transform="translate(0,2.2341075776433854)"><line stroke="#000" x2="-6" y1="0.5" y2="0.5"></line><text fill="#000" x="-9" y="0.5" dy="0.32em">50,000</text></g><text transform="rotate(-90)" y="6" dy=".71em" style="text-anchor: end;">Price ($)</text></g></g></svg>