<?xml version="1.0" encoding="utf-8"?>
<!DOCTYPE svg PUBLIC "-//W3C//DTD SVG 1.1//EN" "http://www.w3.org/Graphics/SVG/1.1/DTD/svg11.dtd">
<svg version="1.1" xmlns="http://www.w3.org/2000/svg" width="960" height="250"><g transform="translate(50,20)"><style>.axis path,.axis line{fill:none;stroke:#000;shape-rendering:crispEdges;}path.candle{stroke:#000000;}path.candle.body{stroke-width:0;}path.candle.up{fill:#00AA00;stroke:#00AA00;}path.candle.down{fill:#FF0000;stroke:#FF0000;}</style><g class="candlestick"><g class="data"><path class="candle body up" d="M 27.75689724110356 89.02010525320642 l 7.1171531387445 0 L 34.87405037984806 69.84658452294667 l -7.1171531387445 0 L 27.75689724110356 89.02010525320642 M 45.54978008796481 82.26005525268125 l 7.1171531387445 0 L 52.66693322670931 76.0365129885818 l -7.1171531387445 0 L 45.54978008796481 82.26005525268125 M 54.446221511395436 76.07800502106117 l 7.1171531387445 0 L 61.563374650139934 73.89783506129268 l -7.1171531387445 0 L 54.446221511395436 76.07800502106117 M 81.13554578168731 81.75007090410611 l 7.1171531387445 0 L 88.25269892043181 77.34219897267829 l -7.1171531387445 0 L 81.13554578168731 81.75007090410611 M 107.82487005197919 109.10960199161754 l 7.1171531387445 0 L 114.94202319072369 95.92065042700028 l -7.1171531387445 0 L 107.82487005197919 109.10960199161754 M 116.72131147540982 95.92038781919983 l 7.1171531387445 0 L 123.83846461415432 95.2134476202481 l -7.1171531387445 0 L 116.72131147540982 95.92038781919983 M 125.61775289884046 95.19322681960942 l 7.1171531387445 0 L 132.73490603758498 41.63252765260137 l -7.1171531387445 0 L 125.61775289884046 95.19322681960942 M 134.51419432227107 41.5928738747256 l 7.1171531387445 0 L 141.63134746101557 34.06338301872918 l -7.1171531387445 0 L 134.51419432227107 41.5928738747256 M 143.4106357457017 34.09305770018594 l 7.1171531387445 0 L 150.5277888844462 29.375045956365113 l -7.1171531387445 0 L 143.4106357457017 34.09305770018594 M 152.30707716913233 29.375045956365113 l 7.1171531387445 0 L 159.42423030787683 14.436076009201713 l -7.1171531387445 0 L 152.30707716913233 29.375045956365113 M 170.09996001599356 72.79068057437581 l 7.1171531387445 0 L 177.21711315473806 71.39649576151012 l -7.1171531387445 0 L 170.09996001599356 72.79068057437581 M 187.89284286285485 85.1789409552621 l 7.1171531387445 0 L 195.00999600159935 82.5155726425698 l -7.1171531387445 0 L 187.89284286285485 85.1789409552621 M 196.78928428628546 82.5155726425698 l 7.1171531387445 0 L 203.90643742502996 74.36632737738844 l -7.1171531387445 0 L 196.78928428628546 82.5155726425698 M 214.5821671331467 92.64829462494353 l 7.1171531387445 0 L 221.6993202718912 89.50829315433984 l -7.1171531387445 0 L 214.5821671331467 92.64829462494353 M 241.2714914034386 117.75596382314939 l 7.1171531387445 0 L 248.3886445421831 93.06374016533785 l -7.1171531387445 0 L 241.2714914034386 117.75596382314939 M 276.85725709716115 108.62325234508762 l 7.1171531387445 0 L 283.9744102359057 97.62812634586497 l -7.1171531387445 0 L 276.85725709716115 108.62325234508762 M 294.65013994402244 101.55989033498255 l 7.1171531387445 0 L 301.76729308276697 92.769882036576 l -7.1171531387445 0 L 294.65013994402244 101.55989033498255 M 303.54658136745303 92.769882036576 l 7.1171531387445 0 L 310.66373450619756 88.07734324940392 l -7.1171531387445 0 L 303.54658136745303 92.769882036576 M 339.13234706117555 102.09455981680475 l 7.1171531387445 0 L 346.2495001999201 87.09072574291743 l -7.1171531387445 0 L 339.13234706117555 102.09455981680475 M 348.02878848460614 87.09072574291743 l 7.1171531387445 0 L 355.14594162335067 68.4786604901312 l -7.1171531387445 0 L 348.02878848460614 87.09072574291743 M 392.5109956017593 92.67271715039023 l 7.1171531387445 0 L 399.62814874050383 92.0818495992605 l -7.1171531387445 0 L 392.5109956017593 92.67271715039023 M 419.20031987205124 102.03521045389132 l 7.1171531387445 0 L 426.31747301079577 99.52651813569473 l -7.1171531387445 0 L 419.20031987205124 102.03521045389132 M 428.0967612954818 99.53781027111633 l 7.1171531387445 0 L 435.21391443422635 93.75965083666841 l -7.1171531387445 0 L 428.0967612954818 99.53781027111633 M 454.7860855657737 101.81461990146951 l 7.1171531387445 0 L 461.90323870451823 96.70479731929957 l -7.1171531387445 0 L 454.7860855657737 101.81461990146951 M 463.68252698920435 96.70479731929957 l 7.1171531387445 0 L 470.7996801279489 89.17110473849515 l -7.1171531387445 0 L 463.68252698920435 96.70479731929957 M 499.2682926829268 102.51000535719918 l 7.1171531387445 0 L 506.38544582167134 99.29437284005087 l -7.1171531387445 0 L 499.2682926829268 102.51000535719918 M 508.16473410635746 99.29437284005087 l 7.1171531387445 0 L 515.281887245102 98.24446685364346 l -7.1171531387445 0 L 508.16473410635746 99.29437284005087 M 517.0611755297881 98.24604250044642 l 7.1171531387445 0 L 524.1783286685326 88.6317083162638 l -7.1171531387445 0 L 517.0611755297881 98.24604250044642 M 534.8540583766493 94.92904337230436 l 7.1171531387445 0 L 541.9712115153937 75.24737654807299 l -7.1171531387445 0 L 534.8540583766493 94.92904337230436 M 543.75049980008 75.27495036712568 l 7.1171531387445 0 L 550.8676529388244 57.08752192775134 l -7.1171531387445 0 L 543.75049980008 75.27495036712568 M 561.5433826469413 69.60025840607565 l 7.1171531387445 0 L 568.6605357856857 61.80789714177669 l -7.1171531387445 0 L 561.5433826469413 69.60025840607565 M 570.4398240703717 61.80789714177669 l 7.1171531387445 0 L 577.5569772091162 56.08751142343934 l -7.1171531387445 0 L 570.4398240703717 61.80789714177669 M 614.9220311875249 73.36264036386937 l 7.1171531387445 0 L 622.0391843262694 71.89256189665858 l -7.1171531387445 0 L 614.9220311875249 73.36264036386937 M 623.8184726109555 71.91094444269373 l 7.1171531387445 0 L 630.9356257497 47.189046103425426 l -7.1171531387445 0 L 623.8184726109555 71.91094444269373 M 632.7149140343862 47.189046103425426 l 7.1171531387445 0 L 639.8320671731307 43.22760743285119 l -7.1171531387445 0 L 632.7149140343862 47.189046103425426 M 677.1971211515394 184.4236809210181 l 7.1171531387445 0 L 684.3142742902838 140.34574943014104 l -7.1171531387445 0 L 677.1971211515394 184.4236809210181 M 712.7828868452618 173.6803958024769 l 7.1171531387445 0 L 719.9000399840063 166.12569459763236 l -7.1171531387445 0 L 712.7828868452618 173.6803958024769 M 721.6793282686924 166.17138835491969 l 7.1171531387445 0 L 728.7964814074369 158.74352671771766 l -7.1171531387445 0 L 721.6793282686924 166.17138835491969 M 739.4722111155537 165.01880271851596 l 7.1171531387445 0 L 746.5893642542982 164.2060315759619 l -7.1171531387445 0 L 739.4722111155537 165.01880271851596 M 748.3686525389844 164.2060315759619 l 7.1171531387445 0 L 755.4858056777289 163.99883402136578 l -7.1171531387445 0 L 748.3686525389844 164.2060315759619 M 757.265093962415 164.025620017017 l 7.1171531387445 0 L 764.3822471011595 163.99279404195423 l -7.1171531387445 0 L 757.265093962415 164.025620017017 M 783.9544182327068 188.13669261231735 l 7.1171531387445 0 L 791.0715713714512 176.433575982941 l -7.1171531387445 0 L 783.9544182327068 188.13669261231735 M 792.8508596561375 176.4067899872898 l 7.1171531387445 0 L 799.9680127948819 166.55505835145328 l -7.1171531387445 0 L 792.8508596561375 176.4067899872898 M 846.2295081967213 176.8211850964821 l 7.1171531387445 0 L 853.3466613354658 170.77201441191613 l -7.1171531387445 0 L 846.2295081967213 176.8211850964821 M 855.1259496201519 170.76203531549703 l 7.1171531387445 0 L 862.2431027588964 151.83510330990873 l -7.1171531387445 0 L 855.1259496201519 170.76203531549703 M 872.9188324670131 156.71015451842982 l 7.1171531387445 0 L 880.0359856057576 153.69699261546862 l -7.1171531387445 0 L 872.9188324670131 156.71015451842982"></path><path class="candle body down" d="M 1.0675729708116766 36.40847067721296 l 7.1171531387445 0 L 8.184726109556177 71.01991617559008 l -7.1171531387445 0 L 1.0675729708116766 36.40847067721296 M 9.964014394242305 71.070074265486 l 7.1171531387445 0 L 17.081167532986804 76.36267187680545 l -7.1171531387445 0 L 9.964014394242305 71.070074265486 M 18.860455817672932 76.36267187680545 l 7.1171531387445 0 L 25.977608956417434 89.02010525320642 l -7.1171531387445 0 L 18.860455817672932 76.36267187680545 M 36.65333866453418 69.80798117627282 l 7.1171531387445 0 L 43.77049180327868 82.29603252135 l -7.1171531387445 0 L 36.65333866453418 69.80798117627282 M 63.342662934826066 73.86684734083342 l 7.1171531387445 0 L 70.45981607357056 78.61427115831046 l -7.1171531387445 0 L 63.342662934826066 73.86684734083342 M 72.23910435825668 78.63738064475467 l 7.1171531387445 0 L 79.35625749700118 81.76451433313372 l -7.1171531387445 0 L 72.23910435825668 78.63738064475467 M 90.03198720511796 77.34219897267829 l 7.1171531387445 0 L 97.14914034386246 82.68521728169414 l -7.1171531387445 0 L 90.03198720511796 77.34219897267829 M 98.92842862854857 82.72460845176946 l 7.1171531387445 0 L 106.04558176729307 109.10960199161754 l -7.1171531387445 0 L 98.92842862854857 82.72460845176946 M 161.20351859256294 14.443954243216837 l 7.1171531387445 0 L 168.32067173130744 72.7919936133783 l -7.1171531387445 0 L 161.20351859256294 14.443954243216837 M 178.9964014394242 71.38441580268704 l 7.1171531387445 0 L 186.1135545781687 85.1789409552621 l -7.1171531387445 0 L 178.9964014394242 71.38441580268704 M 205.68572570971608 74.39285076523912 l 7.1171531387445 0 L 212.80287884846058 92.6816458156073 l -7.1171531387445 0 L 205.68572570971608 74.39285076523912 M 223.47860855657734 89.50829315433984 l 7.1171531387445 0 L 230.59576169532184 106.89345476318029 l -7.1171531387445 0 L 223.47860855657734 89.50829315433984 M 232.37504998000796 106.9115747014149 l 7.1171531387445 0 L 239.49220311875246 117.75596382314939 l -7.1171531387445 0 L 232.37504998000796 106.9115747014149 M 250.16793282686922 93.06374016533785 l 7.1171531387445 0 L 257.28508596561375 95.99759451254741 l -7.1171531387445 0 L 250.16793282686922 93.06374016533785 M 259.06437425029986 96.0327839578147 l 7.1171531387445 0 L 266.1815273890444 105.69858927089571 l -7.1171531387445 0 L 259.06437425029986 96.0327839578147 M 267.9608156737305 105.65946070862084 l 7.1171531387445 0 L 275.07796881247504 108.6692087101755 l -7.1171531387445 0 L 267.9608156737305 105.65946070862084 M 285.7536985205918 97.65806363512222 l 7.1171531387445 0 L 292.8708516593363 101.53284173153077 l -7.1171531387445 0 L 285.7536985205918 97.65806363512222 M 312.4430227908837 88.10281620605255 l 7.1171531387445 0 L 319.5601759296282 92.51278899988445 l -7.1171531387445 0 L 312.4430227908837 88.10281620605255 M 321.3394642143143 92.51278899988445 l 7.1171531387445 0 L 328.45661735305885 95.44506770029095 l -7.1171531387445 0 L 321.3394642143143 92.51278899988445 M 330.23590563774496 95.41119129402615 l 7.1171531387445 0 L 337.3530587764895 102.119244950052 l -7.1171531387445 0 L 330.23590563774496 95.41119129402615 M 356.9252299080368 68.4786604901312 l 7.1171531387445 0 L 364.0423830467813 73.19404615594705 l -7.1171531387445 0 L 356.9252299080368 68.4786604901312 M 365.8216713314674 73.19404615594705 l 7.1171531387445 0 L 372.93882447021196 78.38291368606818 l -7.1171531387445 0 L 365.8216713314674 73.19404615594705 M 374.7181127548981 78.38291368606818 l 7.1171531387445 0 L 381.8352658936426 89.69028036008781 l -7.1171531387445 0 L 374.7181127548981 78.38291368606818 M 383.61455417832866 89.69028036008781 l 7.1171531387445 0 L 390.7317073170732 92.63490162711796 l -7.1171531387445 0 L 383.61455417832866 89.69028036008781 M 401.40743702518995 92.05716446601333 l 7.1171531387445 0 L 408.5245901639345 100.14784819168271 l -7.1171531387445 0 L 401.40743702518995 92.05716446601333 M 410.3038784486206 100.14784819168271 l 7.1171531387445 0 L 417.4210315873651 102.03521045389132 l -7.1171531387445 0 L 410.3038784486206 100.14784819168271 M 436.99320271891247 93.74783348564581 l 7.1171531387445 0 L 444.110355857657 98.9645374426202 l -7.1171531387445 0 L 436.99320271891247 93.74783348564581 M 445.8896441423431 98.9645374426202 l 7.1171531387445 0 L 453.00679728108764 101.78862172921987 l -7.1171531387445 0 L 445.8896441423431 98.9645374426202 M 472.57896841263494 89.20734461496444 l 7.1171531387445 0 L 479.69612155137946 95.01202743726303 l -7.1171531387445 0 L 472.57896841263494 89.20734461496444 M 481.47540983606564 95.01202743726303 l 7.1171531387445 0 L 488.59256297481016 100.35530835407933 l -7.1171531387445 0 L 481.47540983606564 95.01202743726303 M 490.3718512594962 100.37159003771052 l 7.1171531387445 0 L 497.48900439824075 102.51000535719918 l -7.1171531387445 0 L 490.3718512594962 100.37159003771052 M 525.9576169532187 88.6317083162638 l 7.1171531387445 0 L 533.0747700919632 94.95215285874849 l -7.1171531387445 0 L 525.9576169532187 88.6317083162638 M 552.6469412235106 57.086996712150324 l 7.1171531387445 0 L 559.764094362255 69.60025840607565 l -7.1171531387445 0 L 552.6469412235106 57.086996712150324 M 579.3362654938024 56.087248815638816 l 7.1171531387445 0 L 586.4534186325469 60.8719629407872 l -7.1171531387445 0 L 579.3362654938024 56.087248815638816 M 588.232706917233 60.8719629407872 l 7.1171531387445 0 L 595.3498600559775 64.46286200485295 l -7.1171531387445 0 L 588.232706917233 60.8719629407872 M 597.1291483406637 64.46286200485295 l 7.1171531387445 0 L 604.2463014794082 64.64983875881052 l -7.1171531387445 0 L 597.1291483406637 64.46286200485295 M 606.0255897640943 64.6711099906511 l 7.1171531387445 0 L 613.1427429028388 73.36264036386937 l -7.1171531387445 0 L 606.0255897640943 64.6711099906511 M 641.6113554578168 43.22760743285119 l 7.1171531387445 0 L 648.7285085965613 53.56884000882357 l -7.1171531387445 0 L 641.6113554578168 43.22760743285119 M 650.5077968812475 53.56884000882357 l 7.1171531387445 0 L 657.624950019992 61.82654229561231 l -7.1171531387445 0 L 650.5077968812475 53.56884000882357 M 659.4042383046781 61.83862225443548 l 7.1171531387445 0 L 666.5213914434225 115.50095064023783 l -7.1171531387445 0 L 659.4042383046781 61.83862225443548 M 668.3006797281087 115.54953308333069 l 7.1171531387445 0 L 675.4178328668531 184.42026701961157 l -7.1171531387445 0 L 668.3006797281087 115.54953308333069 M 686.09356257497 140.31161041607578 l 7.1171531387445 0 L 693.2107157137144 154.28602191199485 l -7.1171531387445 0 L 686.09356257497 140.31161041607578 M 694.9900039984005 154.29468796941146 l 7.1171531387445 0 L 702.107157137145 161.06734314436073 l -7.1171531387445 0 L 694.9900039984005 154.29468796941146 M 703.8864454218311 161.03898150190656 l 7.1171531387445 0 L 711.0035985605756 173.73107910797384 l -7.1171531387445 0 L 703.8864454218311 161.03898150190656 M 730.5757696921231 158.74352671771766 l 7.1171531387445 0 L 737.6929228308676 164.98860282145827 l -7.1171531387445 0 L 730.5757696921231 158.74352671771766 M 766.1615353858456 163.99279404195423 l 7.1171531387445 0 L 773.27868852459 175.0341390140653 l -7.1171531387445 0 L 766.1615353858456 163.99279404195423 M 775.0579768092763 175.05330938350195 l 7.1171531387445 0 L 782.1751299480208 188.13669261231735 l -7.1171531387445 0 L 775.0579768092763 175.05330938350195 M 801.747301079568 166.55505835145328 l 7.1171531387445 0 L 808.8644542183125 166.66430319646213 l -7.1171531387445 0 L 801.747301079568 166.55505835145328 M 810.6437425029987 166.64854672843205 l 7.1171531387445 0 L 817.7608956417432 168.68139371211885 l -7.1171531387445 0 L 810.6437425029987 166.64854672843205 M 819.5401839264293 168.70213972835853 l 7.1171531387445 0 L 826.6573370651738 170.35079149991074 l -7.1171531387445 0 L 819.5401839264293 168.70213972835853 M 828.43662534986 170.3760018487589 l 7.1171531387445 0 L 835.5537784886045 171.13310013760653 l -7.1171531387445 0 L 828.43662534986 170.3760018487589 M 837.3330667732906 171.133362745407 l 7.1171531387445 0 L 844.4502199120351 176.80201472704547 l -7.1171531387445 0 L 837.3330667732906 171.133362745407 M 864.0223910435824 151.78547043561386 l 7.1171531387445 0 L 871.1395441823269 156.7266988098615 l -7.1171531387445 0 L 864.0223910435824 151.78547043561386 M 881.8152738904437 153.71301169129927 l 7.1171531387445 0 L 888.9324270291881 157.22460319961345 l -7.1171531387445 0 L 881.8152738904437 153.71301169129927"></path><path class="candle body equal"></path><path class="candle wick up" d="M 31.315473810475808 65.96287776132104 L 31.315473810475808 69.84658452294667 M 31.315473810475808 89.02010525320642 L 31.315473810475808 89.14668221304842 M 49.10835665733706 64.48229498209014 L 49.10835665733706 76.0365129885818 M 49.10835665733706 82.26005525268125 L 49.10835665733706 82.65633042363893 M 58.004798080767685 71.878118467631 L 58.004798080767685 73.89783506129268 M 58.004798080767685 76.07800502106117 L 58.004798080767685 88.75618441370183 M 84.69412235105956 76.5824746058257 L 84.69412235105956 77.34219897267829 M 84.69412235105956 81.75007090410611 L 84.69412235105956 88.2981964096262 M 111.38344662135144 91.42427966680317 L 111.38344662135144 95.92065042700028 M 111.38344662135144 109.10960199161754 L 111.38344662135144 116.45841868086849 M 120.27988804478207 91.57685479889494 L 120.27988804478207 95.2134476202481 M 120.27988804478207 95.92038781919983 L 120.27988804478207 103.29572789630144 M 129.1763294682127 35.40583409489591 L 129.1763294682127 41.63252765260137 M 129.1763294682127 95.19322681960942 L 129.1763294682127 95.949274677255 M 138.07277089164333 29.797056691771985 L 138.07277089164333 34.06338301872918 M 138.07277089164333 41.5928738747256 L 138.07277089164333 48.170936669502794 M 146.96921231507397 28.505026313301585 L 146.96921231507397 29.375045956365113 M 146.96921231507397 34.09305770018594 L 146.96921231507397 41.89802413890902 M 155.8656537385046 12.013256441769329 L 155.8656537385046 14.436076009201713 M 155.8656537385046 29.375045956365113 L 155.8656537385046 36.94760449164386 M 173.65853658536582 63.1303900251053 L 173.65853658536582 71.39649576151012 M 173.65853658536582 72.79068057437581 L 173.65853658536582 87.39167428229291 M 191.4514194322271 80.23876301221651 L 191.4514194322271 82.5155726425698 M 191.4514194322271 85.1789409552621 L 191.4514194322271 95.20714503303611 M 200.34786085565773 72.38678977720355 L 200.34786085565773 74.36632737738844 M 200.34786085565773 82.5155726425698 L 200.34786085565773 83.96569291694236 M 218.14074370251896 85.59070998644943 L 218.14074370251896 89.50829315433984 M 218.14074370251896 92.64829462494353 L 218.14074370251896 123.76443029863756 M 244.83006797281087 89.16296389667964 L 244.83006797281087 93.06374016533785 M 244.83006797281087 117.75596382314939 L 244.83006797281087 120.51255790502003 M 280.4158336665334 95.2347188520888 L 280.4158336665334 97.62812634586497 M 280.4158336665334 108.62325234508762 L 280.4158336665334 111.99539911133517 M 298.2087165133947 82.86484101723757 L 298.2087165133947 92.769882036576 M 298.2087165133947 101.55989033498255 L 298.2087165133947 117.49545688505135 M 307.10515793682526 86.65899851889198 L 307.10515793682526 88.07734324940392 M 307.10515793682526 92.769882036576 L 307.10515793682526 107.73353711698657 M 342.6909236305478 84.72673032279754 L 342.6909236305478 87.09072574291743 M 342.6909236305478 102.09455981680475 L 342.6909236305478 104.66969190852843 M 351.5873650539784 64.8762066828433 L 351.5873650539784 68.4786604901312 M 351.5873650539784 87.09072574291743 L 351.5873650539784 90.72731856427067 M 396.06957217113154 88.95734198888643 L 396.06957217113154 92.0818495992605 M 396.06957217113154 92.67271715039023 L 396.06957217113154 95.31140032983538 M 422.7588964414235 97.35265076313824 L 422.7588964414235 99.52651813569473 M 422.7588964414235 102.03521045389132 L 422.7588964414235 104.50687507221713 M 431.65533786485406 90.11833107490624 L 431.65533786485406 93.75965083666841 M 431.65533786485406 99.53781027111633 L 431.65533786485406 124.88208909757455 M 458.34466213514594 92.42796668032227 L 458.34466213514594 96.70479731929957 M 458.34466213514594 101.81461990146951 L 458.34466213514594 101.9369951365035 M 467.2411035585766 85.8333595941134 L 467.2411035585766 89.17110473849515 M 467.2411035585766 96.70479731929957 L 467.2411035585766 99.61843086587048 M 502.82686925229905 97.04566224435132 L 502.82686925229905 99.29437284005087 M 502.82686925229905 102.51000535719918 L 502.82686925229905 112.80213027447768 M 511.7233106757297 96.86183678399982 L 511.7233106757297 98.24446685364346 M 511.7233106757297 99.29437284005087 L 511.7233106757297 100.65074212964419 M 520.6197520991603 85.35961512200758 L 520.6197520991603 88.6317083162638 M 520.6197520991603 98.24604250044642 L 520.6197520991603 101.76971396758367 M 538.4126349460215 66.42900660721227 L 538.4126349460215 75.24737654807299 M 538.4126349460215 94.92904337230436 L 538.4126349460215 97.38705238500404 M 547.3090763694522 50.56408155547851 L 547.3090763694522 57.08752192775134 M 547.3090763694522 75.27495036712568 L 547.3090763694522 76.02627128436224 M 565.1019592163135 57.654492169035365 L 565.1019592163135 61.80789714177669 M 565.1019592163135 69.60025840607565 L 565.1019592163135 77.34771373648881 M 573.998400639744 48.85713085221482 L 573.998400639744 56.08751142343934 M 573.998400639744 61.80789714177669 L 573.998400639744 62.80134245107621 M 618.4806077568971 67.02118719734452 L 618.4806077568971 71.89256189665858 M 618.4806077568971 73.36264036386937 L 618.4806077568971 76.52969043792473 M 627.3770491803277 43.15722854231663 L 627.3770491803277 47.189046103425426 M 627.3770491803277 71.91094444269373 L 627.3770491803277 72.59792644880724 M 636.2734906037584 38.46705322534896 L 636.2734906037584 43.22760743285119 M 636.2734906037584 47.189046103425426 L 636.2734906037584 48.97136524543319 M 680.7556977209116 124.64574207712266 L 680.7556977209116 140.34574943014104 M 680.7556977209116 184.4236809210181 L 680.7556977209116 188.84652149707458 M 716.3414634146341 151.14286914778518 L 716.3414634146341 166.12569459763236 M 716.3414634146341 173.6803958024769 L 716.3414634146341 187.24592695301425 M 725.2379048380647 152.59535289236237 L 725.2379048380647 158.74352671771766 M 725.2379048380647 166.17138835491969 L 725.2379048380647 168.53485855943865 M 743.0307876849259 162.67135158982762 L 743.0307876849259 164.2060315759619 M 743.0307876849259 165.01880271851596 L 743.0307876849259 171.60684460971225 M 751.9272291083566 155.84354877677288 L 751.9272291083566 163.99883402136578 M 751.9272291083566 164.2060315759619 L 751.9272291083566 168.0537610689188 M 760.8236705317872 160.7960692864421 L 760.8236705317872 163.99279404195423 M 760.8236705317872 164.025620017017 L 760.8236705317872 167.85706782634276 M 787.512994802079 174.12105169171946 L 787.512994802079 176.433575982941 M 787.512994802079 188.13669261231735 L 787.512994802079 192.4607926553851 M 796.4094362255097 163.85308669208712 L 796.4094362255097 166.55505835145328 M 796.4094362255097 176.4067899872898 L 796.4094362255097 178.18622044349206 M 849.7880847660936 167.98364478618475 L 849.7880847660936 170.77201441191613 M 849.7880847660936 176.8211850964821 L 849.7880847660936 179.76711940251474 M 858.6845261895241 149.59348312482274 L 858.6845261895241 151.83510330990873 M 858.6845261895241 170.76203531549703 L 858.6845261895241 171.14570531203063 M 876.4774090363853 153.35586508261645 L 876.4774090363853 153.69699261546862 M 876.4774090363853 156.71015451842982 L 876.4774090363853 161.70364184497743" style="stroke-width: 1px;"></path><path class="candle wick down" d="M 4.626149540183927 27.802025231357447 L 4.626149540183927 36.40847067721296 M 4.626149540183927 71.01991617559008 L 4.626149540183927 74.51653903927557 M 13.522590963614554 66.76882110106197 L 13.522590963614554 71.070074265486 M 13.522590963614554 76.36267187680545 L 13.522590963614554 82.60223321673547 M 22.41903238704518 72.85475687769829 L 22.41903238704518 76.36267187680545 M 22.41903238704518 89.02010525320642 L 22.41903238704518 89.95525163079444 M 40.21191523390643 62.21730270275947 L 40.21191523390643 69.80798117627282 M 40.21191523390643 82.29603252135 L 40.21191523390643 89.43003602979023 M 66.90123950419832 65.76224540173746 L 66.90123950419832 73.86684734083342 M 66.90123950419832 78.61427115831046 L 66.90123950419832 83.77635269278036 M 75.79768092762893 75.88131177848506 L 75.79768092762893 78.63738064475467 M 75.79768092762893 81.76451433313372 L 75.79768092762893 86.46992090253045 M 93.5905637744902 75.84612233321776 L 93.5905637744902 77.34219897267829 M 93.5905637744902 82.68521728169414 L 93.5905637744902 86.96598703767893 M 102.48700519792082 72.62313679765543 L 102.48700519792082 82.72460845176946 M 102.48700519792082 109.10960199161754 L 102.48700519792082 112.81499805670232 M 164.7620951619352 3.8461538461538396 L 164.7620951619352 14.443954243216837 M 164.7620951619352 72.7919936133783 L 164.7620951619352 81.02658641372282 M 182.55497800879647 68.67771720291174 L 182.55497800879647 71.38441580268704 M 182.55497800879647 85.1789409552621 L 182.55497800879647 90.55924957194928 M 209.24430227908834 74.27073813800568 L 209.24430227908834 74.39285076523912 M 209.24430227908834 92.6816458156073 L 209.24430227908834 94.79721425645229 M 227.0371851259496 86.94524102143933 L 227.0371851259496 89.50829315433984 M 227.0371851259496 106.89345476318029 L 227.0371851259496 111.17737581277117 M 235.93362654938022 78.50555152890261 L 235.93362654938022 106.9115747014149 M 235.93362654938022 117.75596382314939 L 235.93362654938022 126.56330423638906 M 253.72650939624148 90.48046723179866 L 253.72650939624148 93.06374016533785 M 253.72650939624148 95.99759451254741 L 253.72650939624148 115.9161335728317 M 262.6229508196721 95.3087742518304 L 262.6229508196721 96.0327839578147 M 262.6229508196721 105.69858927089571 L 262.6229508196721 108.72278070147794 M 271.51939224310274 98.87840208405552 L 271.51939224310274 105.65946070862084 M 271.51939224310274 108.6692087101755 L 271.51939224310274 113.34835449952205 M 289.31227508996403 67.21709261651904 L 289.31227508996403 97.65806363512222 M 289.31227508996403 101.53284173153077 L 289.31227508996403 108.43443733652666 M 316.0015993602559 72.49183289740438 L 316.0015993602559 88.10281620605255 M 316.0015993602559 92.51278899988445 L 316.0015993602559 99.53098246830324 M 324.89804078368655 90.90063971260203 L 324.89804078368655 92.51278899988445 M 324.89804078368655 95.44506770029095 L 324.89804078368655 99.42436370129943 M 333.7944822071172 93.21395182722507 L 333.7944822071172 95.41119129402615 M 333.7944822071172 102.119244950052 L 333.7944822071172 105.70252838790327 M 360.483806477409 67.74913602033638 L 360.483806477409 68.4786604901312 M 360.483806477409 73.19404615594705 L 360.483806477409 84.4404878202502 M 369.38024790083966 65.3594050357672 L 369.38024790083966 73.19404615594705 M 369.38024790083966 78.38291368606818 L 369.38024790083966 81.2104118740743 M 378.2766893242703 75.54281032363785 L 378.2766893242703 78.38291368606818 M 378.2766893242703 89.69028036008781 L 378.2766893242703 95.20740764083658 M 387.1731307477009 87.13536906900279 L 387.1731307477009 89.69028036008781 M 387.1731307477009 92.63490162711796 L 387.1731307477009 97.38337587579704 M 404.9660135945622 89.82394773054338 L 404.9660135945622 92.05716446601333 M 404.9660135945622 100.14784819168271 L 404.9660135945622 103.0790764608872 M 413.86245501799283 96.57060473324299 L 413.86245501799283 100.14784819168271 M 413.86245501799283 102.03521045389132 L 413.86245501799283 107.28736646393344 M 440.5517792882847 78.61400855051002 L 440.5517792882847 93.74783348564581 M 440.5517792882847 98.9645374426202 L 440.5517792882847 101.76288616477066 M 449.44822071171535 97.63180285507201 L 449.44822071171535 98.9645374426202 M 449.44822071171535 101.78862172921987 L 449.44822071171535 104.26264981775017 M 476.13754498200717 85.05341442662213 L 476.13754498200717 89.20734461496444 M 476.13754498200717 95.01202743726303 L 476.13754498200717 101.2211262723348 M 485.0339864054379 94.1527747140201 L 485.0339864054379 95.01202743726303 M 485.0339864054379 100.35530835407933 L 485.0339864054379 101.87843359699154 M 493.93042782886846 94.47683273983971 L 493.93042782886846 100.37159003771052 M 493.93042782886846 102.51000535719918 L 493.93042782886846 106.23693526192503 M 529.5161935225909 87.8241893297198 L 529.5161935225909 88.6317083162638 M 529.5161935225909 94.95215285874849 L 529.5161935225909 99.4879147890209 M 556.2055177928828 54.445162239099176 L 556.2055177928828 57.086996712150324 M 556.2055177928828 69.60025840607565 L 556.2055177928828 72.09792119665121 M 582.8948420631747 52.89577621613674 L 582.8948420631747 56.087248815638816 M 582.8948420631747 60.8719629407872 L 582.8948420631747 63.82577548083489 M 591.7912834866053 55.13555814661922 L 591.7912834866053 60.8719629407872 M 591.7912834866053 64.46286200485295 L 591.7912834866053 71.10132459374569 M 600.687724910036 58.967531171545915 L 600.687724910036 64.46286200485295 M 600.687724910036 64.64983875881052 L 600.687724910036 68.66458681288663 M 609.5841663334666 56.34145316652484 L 609.5841663334666 64.6711099906511 M 609.5841663334666 73.36264036386937 L 609.5841663334666 76.0885093330812 M 645.169932027189 41.49702202754227 L 645.169932027189 43.22760743285119 M 645.169932027189 53.56884000882357 L 645.169932027189 54.07961218080018 M 654.0663734506197 49.25708253237951 L 654.0663734506197 53.56884000882357 M 654.0663734506197 61.82654229561231 L 654.0663734506197 67.24256557316778 M 662.9628148740503 58.9444216851017 L 662.9628148740503 61.83862225443548 M 662.9628148740503 115.50095064023783 L 662.9628148740503 151.7513314215485 M 671.8592562974809 114.43660122480283 L 671.8592562974809 115.54953308333069 M 671.8592562974809 184.42026701961157 L 671.8592562974809 193.2126387882226 M 689.6521391443422 137.88117522242882 L 689.6521391443422 140.31161041607578 M 689.6521391443422 154.28602191199485 L 689.6521391443422 172.89729934137964 M 698.5485805677728 153.00475845334515 L 698.5485805677728 154.29468796941146 M 698.5485805677728 161.06734314436073 L 698.5485805677728 165.81240349163335 M 707.4450219912034 157.33306022122085 L 707.4450219912034 161.03898150190656 M 707.4450219912034 173.73107910797384 L 707.4450219912034 176.3794787760376 M 734.1343462614954 155.71434573892589 L 734.1343462614954 158.74352671771766 M 734.1343462614954 164.98860282145827 L 734.1343462614954 172.45060347272556 M 769.7201119552178 162.6101639723106 L 769.7201119552178 163.99279404195423 M 769.7201119552178 175.0341390140653 L 769.7201119552178 177.6662569984979 M 778.6165533786485 174.01600857151863 L 778.6165533786485 175.05330938350195 M 778.6165533786485 188.13669261231735 L 778.6165533786485 196.1538461538462 M 805.3058776489403 161.05289971533313 L 805.3058776489403 166.55505835145328 M 805.3058776489403 166.66430319646213 L 805.3058776489403 170.36444710553687 M 814.202319072371 164.90351789409556 L 814.202319072371 166.64854672843205 M 814.202319072371 168.68139371211885 L 814.202319072371 173.39073939852312 M 823.0987604958016 163.95839242008842 L 823.0987604958016 168.70213972835853 M 823.0987604958016 170.35079149991074 L 823.0987604958016 172.28279708820472 M 831.9952019192323 166.63672937740944 L 831.9952019192323 170.3760018487589 M 831.9952019192323 171.13310013760653 L 831.9952019192323 171.86262460740136 M 840.8916433426629 169.60314709188123 L 840.8916433426629 171.133362745407 M 840.8916433426629 176.80201472704547 L 840.8916433426629 182.5174108971733 M 867.5809676129546 147.62392462105697 L 867.5809676129546 151.78547043561386 M 867.5809676129546 156.7266988098615 L 867.5809676129546 159.93996785680528 M 885.3738504598159 151.1696551434364 L 885.3738504598159 153.71301169129927 M 885.3738504598159 157.22460319961345 L 885.3738504598159 158.28580132144248" style="stroke-width: 1px;"></path><path class="candle wick equal" style="stroke-width: 1px;"></path></g></g><g class="x axis" transform="translate(0,200)" fill="none" font-size="10" font-family="sans-serif" text-anchor="middle"><path class="domain" stroke="#000" d="M0.5,6V0.5H890.5V6"></path><g class="tick" opacity="1" transform="translate(31.315473810475808,0)"><line stroke="#000" y2="6" x1="0.5" x2="0.5"></line><text fill="#000" y="9" x="0.5" dy="0.71em">Aug 29</text></g><g class="tick" opacity="1" transform="translate(93.5905637744902,0)"><line stroke="#000" y2="6" x1="0.5" x2="0.5"></line><text fill="#000" y="9" x="0.5" dy="0.71em">Sep  5</text></g><g class="tick" opacity="1" transform="translate(155.8656537385046,0)"><line stroke="#000" y2="6" x1="0.5" x2="0.5"></line><text fill="#000" y="9" x="0.5" dy="0.71em">Sep 12</text></g><g class="tick" opacity="1" transform="translate(218.14074370251896,0)"><line stroke="#000" y2="6" x1="0.5" x2="0.5"></line><text fill="#000" y="9" x="0.5" dy="0.71em">Sep 19</text></g><g class="tick" opacity="1" transform="translate(280.4158336665334,0)"><line stroke="#000" y2="6" x1="0.5" x2="0.5"></line><text fill="#000" y="9" x="0.5" dy="0.71em">Sep 26</text></g><g class="tick" opacity="1" transform="translate(342.6909236305478,0)"><line stroke="#000" y2="6" x1="0.5" x2="0.5"></line><text fill="#000" y="9" x="0.5" dy="0.71em">Oct  3</text></g><g class="tick" opacity="1" transform="translate(404.9660135945622,0)"><line stroke="#000" y2="6" x1="0.5" x2="0.5"></line><text fill="#000" y="9" x="0.5" dy="0.71em">Oct 10</text></g><g class="tick" opacity="1" transform="translate(467.2411035585766,0)"><line stroke="#000" y2="6" x1="0.5" x2="0.5"></line><text fill="#000" y="9" x="0.5" dy="0.71em">Oct 17</text></g><g class="tick" opacity="1" transform="translate(529.5161935225909,0)"><line stroke="#000" y2="6" x1="0.5" x2="0.5"></line><text fill="#000" y="9" x="0.5" dy="0.71em">Oct 24</text></g><g class="tick" opacity="1" transform="translate(591.7912834866053,0)"><line stroke="#000" y2="6" x1="0.5" x2="0.5"></line><text fill="#000" y="9" x="0.5" dy="0.71em">Oct 31</text></g><g class="tick" opacity="1" transform="translate(654.0663734506197,0)"><line stroke="#000" y2="6" x1="0.5" x2="0.5"></line><text fill="#000" y="9" x="0.5" dy="0.71em">Nov  7</text></g><g class="tick" opacity="1" transform="translate(716.3414634146341,0)"><line stroke="#000" y2="6" x1="0.5" x2="0.5"></line><text fill="#000" y="9" x="0.5" dy="0.71em">Nov 14</text></g><g class="tick" opacity="1" transform="translate(778.6165533786485,0)"><line stroke="#000" y2="6" x1="0.5" x2="0.5"></line><text fill="#000" y="9" x="0.5" dy="0.71em">Nov 21</text></g><g class="tick" opacity="1" transform="translate(840.8916433426629,0)"><line stroke="#000" y2="6" x1="0.5" x2="0.5"></line><text fill="#000" y="9" x="0.5" dy="0.71em">Nov 28</text></g></g><g class="y axis" fill="none" font-size="10" font-family="sans-serif" text-anchor="end"><path class="domain" stroke="#000" d="M-6,200.5H0.5V0.5H-6"></path><g class="tick" opacity="1" transform="translate(0,182.3931974075358)"><line stroke="#000" x2="-6" y1="0.5" y2="0.5"></line><text fill="#000" x="-9" y="0.5" dy="0.32em">16,000</text></g><g class="tick" opacity="1" transform="translate(0,156.1324173573252)"><line stroke="#000" x2="-6" y1="0.5" y2="0.5"></line><text fill="#000" x="-9" y="0.5" dy="0.32em">17,000</text></g><g class="tick" opacity="1" transform="translate(0,129.87163730711455)"><line stroke="#000" x2="-6" y1="0.5" y2="0.5"></line><text fill="#000" x="-9" y="0.5" dy="0.32em">18,000</text></g><g class="tick" opacity="1" transform="translate(0,103.61085725690397)"><line stroke="#000" x2="-6" y1="0.5" y2="0.5"></line><text fill="#000" x="-9" y="0.5" dy="0.32em">19,000</text></g><g class="tick" opacity="1" transform="translate(0,77.35007720669333)"><line stroke="#000" x2="-6" y1="0.5" y2="0.5"></line><text fill="#000" x="-9" y="0.5" dy="0.32em">20,000</text></g><g class="tick" opacity="1" transform="translate(0,51.08929715648273)"><line stroke="#000" x2="-6" y1="0.5" y2="0.5"></line><text fill="#000" x="-9" y="0.5" dy="0.32em">21,000</text></g><g class="tick" opacity="1" transform="translate(0,24.828517106272102)"><line stroke="#000" x2="-6" y1="0.5" y2="0.5"></line><text fill="#000" x="-9" y="0.5" dy="0.32em">22,000</text></g><text transform="rotate(-90)" y="6" dy=".71em" style="text-anchor: end;">Price ($)</text></g></g></svg>