<?xml version="1.0" encoding="utf-8"?>
<!DOCTYPE svg PUBLIC "-//W3C//DTD SVG 1.1//EN" "http://www.w3.org/Graphics/SVG/1.1/DTD/svg11.dtd">
<svg version="1.1" xmlns="http://www.w3.org/2000/svg" width="960" height="250"><g transform="translate(50,20)"><style>.axis path,.axis line{fill:none;stroke:#000;shape-rendering:crispEdges;}path.candle{stroke:#000000;}path.candle.body{stroke-width:0;}path.candle.up{fill:#00AA00;stroke:#00AA00;}path.candle.down{fill:#FF0000;stroke:#FF0000;}</style><g class="candlestick"><g class="data"><path class="candle body up" d="M 1.0675729708116766 22.94951324932032 l 7.1171531387445 0 L 8.184726109556177 13.45628501445725 l -7.1171531387445 0 L 1.0675729708116766 22.94951324932032 M 9.964014394242305 13.45628501445725 l 7.1171531387445 0 L 17.081167532986804 9.176183760118363 l -7.1171531387445 0 L 9.964014394242305 13.45628501445725 M 36.65333866453418 27.02243511836474 l 7.1171531387445 0 L 43.77049180327868 19.942749514392148 l -7.1171531387445 0 L 36.65333866453418 27.02243511836474 M 45.54978008796481 19.942749514392148 l 7.1171531387445 0 L 52.66693322670931 19.462543032198 l -7.1171531387445 0 L 45.54978008796481 19.942749514392148 M 63.342662934826066 26.19278776354429 l 7.1171531387445 0 L 70.45981607357056 9.616323727163717 l -7.1171531387445 0 L 63.342662934826066 26.19278776354429 M 116.72131147540982 90.89699764527232 l 7.1171531387445 0 L 123.83846461415432 82.92705774267826 l -7.1171531387445 0 L 116.72131147540982 90.89699764527232 M 143.4106357457017 99.72591629668817 l 7.1171531387445 0 L 150.5277888844462 97.5509131294048 l -7.1171531387445 0 L 143.4106357457017 99.72591629668817 M 152.30707716913233 97.5509131294048 l 7.1171531387445 0 L 159.42423030787683 90.7912524755443 l -7.1171531387445 0 L 152.30707716913233 97.5509131294048 M 161.20351859256294 90.7912524755443 l 7.1171531387445 0 L 168.32067173130744 80.29154323672323 l -7.1171531387445 0 L 161.20351859256294 90.7912524755443 M 178.9964014394242 92.58942753199837 l 7.1171531387445 0 L 186.1135545781687 87.76352566939904 l -7.1171531387445 0 L 178.9964014394242 92.58942753199837 M 196.78928428628546 102.38357727304187 l 7.1171531387445 0 L 203.90643742502996 88.8260490774575 l -7.1171531387445 0 L 196.78928428628546 102.38357727304187 M 214.5821671331467 98.27819645501619 l 7.1171531387445 0 L 221.6993202718912 96.21527809593371 l -7.1171531387445 0 L 214.5821671331467 98.27819645501619 M 223.47860855657734 96.21519356742074 l 7.1171531387445 0 L 230.59576169532184 89.03982168676379 l -7.1171531387445 0 L 223.47860855657734 96.21519356742074 M 241.2714914034386 99.05475990369025 l 7.1171531387445 0 L 248.3886445421831 94.44423669214366 l -7.1171531387445 0 L 241.2714914034386 99.05475990369025 M 276.85725709716115 103.1064651159787 l 7.1171531387445 0 L 283.9744102359057 99.71247626312562 l -7.1171531387445 0 L 276.85725709716115 103.1064651159787 M 285.7536985205918 99.71247626312562 l 7.1171531387445 0 L 292.8708516593363 96.02052440204616 l -7.1171531387445 0 L 285.7536985205918 99.71247626312562 M 294.65013994402244 96.02052440204616 l 7.1171531387445 0 L 301.76729308276697 76.86534902042779 l -7.1171531387445 0 L 294.65013994402244 96.02052440204616 M 303.54658136745303 76.86526449191484 l 7.1171531387445 0 L 310.66373450619756 76.30052949674868 l -7.1171531387445 0 L 303.54658136745303 76.86526449191484 M 321.3394642143143 93.16565840492869 l 7.1171531387445 0 L 328.45661735305885 87.69852324292356 l -7.1171531387445 0 L 321.3394642143143 93.16565840492869 M 339.13234706117555 94.05853308745229 l 7.1171531387445 0 L 346.2495001999201 92.67370245943147 l -7.1171531387445 0 L 339.13234706117555 94.05853308745229 M 348.02878848460614 92.67378698794447 l 7.1171531387445 0 L 355.14594162335067 92.20735865336478 l -7.1171531387445 0 L 348.02878848460614 92.67378698794447 M 356.9252299080368 92.20744318187772 l 7.1171531387445 0 L 364.0423830467813 79.91784268087387 l -7.1171531387445 0 L 356.9252299080368 92.20744318187772 M 436.99320271891247 157.99412520072565 l 7.1171531387445 0 L 444.110355857657 154.2131648154866 l -7.1171531387445 0 L 436.99320271891247 157.99412520072565 M 454.7860855657737 172.66675353943708 l 7.1171531387445 0 L 461.90323870451823 172.09018455245484 l -7.1171531387445 0 L 454.7860855657737 172.66675353943708 M 472.57896841263494 184.75272485269133 l 7.1171531387445 0 L 479.69612155137946 171.201029124502 l -7.1171531387445 0 L 472.57896841263494 184.75272485269133 M 490.3718512594962 171.20187440963173 l 7.1171531387445 0 L 497.48900439824075 169.93715879854417 l -7.1171531387445 0 L 490.3718512594962 171.20187440963173 M 508.16473410635746 176.15439998466317 l 7.1171531387445 0 L 515.281887245102 166.66920195853243 l -7.1171531387445 0 L 508.16473410635746 176.15439998466317 M 517.0611755297881 166.66928648704538 l 7.1171531387445 0 L 524.1783286685326 165.59095624706117 l -7.1171531387445 0 L 517.0611755297881 166.66928648704538 M 525.9576169532187 165.59104077557413 l 7.1171531387445 0 L 533.0747700919632 163.44815844322014 l -7.1171531387445 0 L 525.9576169532187 165.59104077557413 M 597.1291483406637 182.3687672013411 l 7.1171531387445 0 L 604.2463014794082 181.8361530411043 l -7.1171531387445 0 L 597.1291483406637 182.3687672013411 M 606.0255897640943 181.8361530411043 l 7.1171531387445 0 L 613.1427429028388 174.05209133853575 l -7.1171531387445 0 L 606.0255897640943 181.8361530411043 M 623.8184726109555 174.5666163969965 l 7.1171531387445 0 L 630.9356257497 171.2812466833125 l -7.1171531387445 0 L 623.8184726109555 174.5666163969965 M 632.7149140343862 171.2812466833125 l 7.1171531387445 0 L 639.8320671731307 162.3172514681673 l -7.1171531387445 0 L 632.7149140343862 171.2812466833125 M 686.09356257497 181.7055564885625 l 7.1171531387445 0 L 693.2107157137144 174.0676445849226 l -7.1171531387445 0 L 686.09356257497 181.7055564885625 M 694.9900039984005 174.0676445849226 l 7.1171531387445 0 L 702.107157137145 171.07558881125152 l -7.1171531387445 0 L 694.9900039984005 174.0676445849226 M 703.8864454218311 171.07558881125152 l 7.1171531387445 0 L 711.0035985605756 169.03676107836608 l -7.1171531387445 0 L 703.8864454218311 171.07558881125152 M 712.7828868452618 169.03676107836608 l 7.1171531387445 0 L 719.9000399840063 165.94673675816045 l -7.1171531387445 0 L 712.7828868452618 169.03676107836608 M 730.5757696921231 169.2942349288789 l 7.1171531387445 0 L 737.6929228308676 155.4907287605459 l -7.1171531387445 0 L 730.5757696921231 169.2942349288789 M 739.4722111155537 155.4907287605459 l 7.1171531387445 0 L 746.5893642542982 147.34184199599005 l -7.1171531387445 0 L 739.4722111155537 155.4907287605459 M 783.9544182327068 155.35548313979064 l 7.1171531387445 0 L 791.0715713714512 154.24731433472732 l -7.1171531387445 0 L 783.9544182327068 155.35548313979064 M 810.6437425029987 165.44742683203467 l 7.1171531387445 0 L 817.7608956417432 151.09634495666882 l -7.1171531387445 0 L 810.6437425029987 165.44742683203467 M 819.5401839264293 151.08062265325603 l 7.1171531387445 0 L 826.6573370651738 143.56924993353525 l -7.1171531387445 0 L 819.5401839264293 151.08062265325603 M 881.8152738904437 152.24204442149178 l 7.1171531387445 0 L 888.9324270291881 151.4200891613517 l -7.1171531387445 0 L 881.8152738904437 152.24204442149178"></path><path class="candle body down" d="M 18.860455817672932 9.176268288631348 l 7.1171531387445 0 L 25.977608956417434 18.862813232661438 l -7.1171531387445 0 L 18.860455817672932 9.176268288631348 M 27.75689724110356 18.862813232661438 l 7.1171531387445 0 L 34.87405037984806 27.02243511836474 l -7.1171531387445 0 L 27.75689724110356 18.862813232661438 M 54.446221511395436 19.462543032198 l 7.1171531387445 0 L 61.563374650139934 26.19278776354429 l -7.1171531387445 0 L 54.446221511395436 19.462543032198 M 72.23910435825668 9.616323727163717 l 7.1171531387445 0 L 79.35625749700118 36.133171832029404 l -7.1171531387445 0 L 72.23910435825668 9.616323727163717 M 81.13554578168731 36.133171832029404 l 7.1171531387445 0 L 88.25269892043181 40.69094925148144 l -7.1171531387445 0 L 81.13554578168731 36.133171832029404 M 90.03198720511796 40.69094925148144 l 7.1171531387445 0 L 97.14914034386246 45.26715388676135 l -7.1171531387445 0 L 90.03198720511796 40.69094925148144 M 98.92842862854857 45.267069358248364 l 7.1171531387445 0 L 106.04558176729307 57.38845811843788 l -7.1171531387445 0 L 98.92842862854857 45.267069358248364 M 107.82487005197919 57.38854264695087 l 7.1171531387445 0 L 114.94202319072369 90.87941571457412 l -7.1171531387445 0 L 107.82487005197919 57.38854264695087 M 125.61775289884046 82.92697321416527 l 7.1171531387445 0 L 132.73490603758498 99.09871473043572 l -7.1171531387445 0 L 125.61775289884046 82.92697321416527 M 134.51419432227107 99.09871473043572 l 7.1171531387445 0 L 141.63134746101557 99.72583176817523 l -7.1171531387445 0 L 134.51419432227107 99.09871473043572 M 170.09996001599356 80.29154323672323 l 7.1171531387445 0 L 177.21711315473806 92.58942753199837 l -7.1171531387445 0 L 170.09996001599356 80.29154323672323 M 187.89284286285485 87.76352566939904 l 7.1171531387445 0 L 195.00999600159935 102.38366180155485 l -7.1171531387445 0 L 187.89284286285485 87.76352566939904 M 205.68572570971608 88.82613360597047 l 7.1171531387445 0 L 212.80287884846058 98.27819645501619 l -7.1171531387445 0 L 205.68572570971608 88.82613360597047 M 232.37504998000796 89.03990621527676 l 7.1171531387445 0 L 239.49220311875246 99.05467537517727 l -7.1171531387445 0 L 232.37504998000796 89.03990621527676 M 250.16793282686922 94.44423669214366 l 7.1171531387445 0 L 257.28508596561375 95.39459076348824 l -7.1171531387445 0 L 250.16793282686922 94.44423669214366 M 259.06437425029986 95.39467529200122 l 7.1171531387445 0 L 266.1815273890444 98.27532248557513 l -7.1171531387445 0 L 259.06437425029986 95.39467529200122 M 267.9608156737305 98.27532248557513 l 7.1171531387445 0 L 275.07796881247504 103.10654964449168 l -7.1171531387445 0 L 267.9608156737305 98.27532248557513 M 312.4430227908837 76.30044496823571 l 7.1171531387445 0 L 319.5601759296282 93.16574293344166 l -7.1171531387445 0 L 312.4430227908837 76.30044496823571 M 330.23590563774496 87.69843871441057 l 7.1171531387445 0 L 337.3530587764895 94.05853308745229 l -7.1171531387445 0 L 330.23590563774496 87.69843871441057 M 365.8216713314674 79.91784268087387 l 7.1171531387445 0 L 372.93882447021196 82.01220564678191 l -7.1171531387445 0 L 365.8216713314674 79.91784268087387 M 374.7181127548981 82.0122901752949 l 7.1171531387445 0 L 381.8352658936426 89.79356243693539 l -7.1171531387445 0 L 374.7181127548981 82.0122901752949 M 383.61455417832866 89.79356243693539 l 7.1171531387445 0 L 390.7317073170732 90.59523085396215 l -7.1171531387445 0 L 383.61455417832866 89.79356243693539 M 392.5109956017593 90.59523085396215 l 7.1171531387445 0 L 399.62814874050383 99.20065611707996 l -7.1171531387445 0 L 392.5109956017593 90.59523085396215 M 401.40743702518995 99.20074064559294 l 7.1171531387445 0 L 408.5245901639345 104.84022944554806 l -7.1171531387445 0 L 401.40743702518995 99.20074064559294 M 410.3038784486206 104.8401449170351 l 7.1171531387445 0 L 417.4210315873651 120.47944133009472 l -7.1171531387445 0 L 410.3038784486206 104.8401449170351 M 419.20031987205124 120.47944133009472 l 7.1171531387445 0 L 426.31747301079577 155.02725892392027 l -7.1171531387445 0 L 419.20031987205124 120.47944133009472 M 428.0967612954818 155.04534802569626 l 7.1171531387445 0 L 435.21391443422635 157.9942097292386 l -7.1171531387445 0 L 428.0967612954818 155.04534802569626 M 445.8896441423431 154.2131648154866 l 7.1171531387445 0 L 453.00679728108764 172.66075201501604 l -7.1171531387445 0 L 445.8896441423431 154.2131648154866 M 463.68252698920435 172.09018455245484 l 7.1171531387445 0 L 470.7996801279489 184.75272485269133 l -7.1171531387445 0 L 463.68252698920435 172.09018455245484 M 481.47540983606564 171.201029124502 l 7.1171531387445 0 L 488.59256297481016 171.2019589381447 l -7.1171531387445 0 L 481.47540983606564 171.201029124502 M 499.2682926829268 169.93724332705716 l 7.1171531387445 0 L 506.38544582167134 176.15448451317613 l -7.1171531387445 0 L 499.2682926829268 169.93724332705716 M 534.8540583766493 163.4482429717331 l 7.1171531387445 0 L 541.9712115153937 167.27831442300888 l -7.1171531387445 0 L 534.8540583766493 163.4482429717331 M 543.75049980008 167.2782298944959 l 7.1171531387445 0 L 550.8676529388244 169.77621650984543 l -7.1171531387445 0 L 543.75049980008 167.2782298944959 M 552.6469412235106 169.77613198133247 l 7.1171531387445 0 L 559.764094362255 173.6752632277064 l -7.1171531387445 0 L 552.6469412235106 169.77613198133247 M 561.5433826469413 173.6753477562194 l 7.1171531387445 0 L 568.6605357856857 175.01318053102776 l -7.1171531387445 0 L 561.5433826469413 173.6753477562194 M 570.4398240703717 175.01326505954071 l 7.1171531387445 0 L 577.5569772091162 176.54145604556211 l -7.1171531387445 0 L 570.4398240703717 175.01326505954071 M 579.3362654938024 176.54145604556211 l 7.1171531387445 0 L 586.4534186325469 182.14070927334254 l -7.1171531387445 0 L 579.3362654938024 176.54145604556211 M 588.232706917233 182.14070927334254 l 7.1171531387445 0 L 595.3498600559775 182.36885172985404 l -7.1171531387445 0 L 588.232706917233 182.14070927334254 M 614.9220311875249 174.05209133853575 l 7.1171531387445 0 L 622.0391843262694 174.56670092550945 l -7.1171531387445 0 L 614.9220311875249 174.05209133853575 M 641.6113554578168 162.31716693965433 l 7.1171531387445 0 L 648.7285085965613 162.57278116288177 l -7.1171531387445 0 L 641.6113554578168 162.31716693965433 M 650.5077968812475 162.57278116288177 l 7.1171531387445 0 L 657.624950019992 162.59746348866958 l -7.1171531387445 0 L 650.5077968812475 162.57278116288177 M 659.4042383046781 162.59475857625446 l 7.1171531387445 0 L 666.5213914434225 168.7626351107978 l -7.1171531387445 0 L 659.4042383046781 162.59475857625446 M 668.3006797281087 168.77413098856198 l 7.1171531387445 0 L 675.4178328668531 176.36056502780195 l -7.1171531387445 0 L 668.3006797281087 168.77413098856198 M 677.1971211515394 176.36056502780195 l 7.1171531387445 0 L 684.3142742902838 181.72694220234445 l -7.1171531387445 0 L 677.1971211515394 176.36056502780195 M 721.6793282686924 165.94673675816045 l 7.1171531387445 0 L 728.7964814074369 169.30623797772094 l -7.1171531387445 0 L 721.6793282686924 165.94673675816045 M 748.3686525389844 147.32611969257727 l 7.1171531387445 0 L 755.4858056777289 148.80689018282132 l -7.1171531387445 0 L 748.3686525389844 147.32611969257727 M 757.265093962415 148.80689018282132 l 7.1171531387445 0 L 764.3822471011595 149.40797243856545 l -7.1171531387445 0 L 757.265093962415 148.80689018282132 M 766.1615353858456 149.40797243856545 l 7.1171531387445 0 L 773.27868852459 153.35849702082638 l -7.1171531387445 0 L 766.1615353858456 149.40797243856545 M 775.0579768092763 153.35849702082638 l 7.1171531387445 0 L 782.1751299480208 155.3344355400606 l -7.1171531387445 0 L 775.0579768092763 153.35849702082638 M 792.8508596561375 154.26886910553517 l 7.1171531387445 0 L 799.9680127948819 164.9721230035929 l -7.1171531387445 0 L 792.8508596561375 154.26886910553517 M 801.747301079568 164.9721230035929 l 7.1171531387445 0 L 808.8644542183125 165.44742683203467 l -7.1171531387445 0 L 801.747301079568 164.9721230035929 M 828.43662534986 143.54963931852572 l 7.1171531387445 0 L 835.5537784886045 144.15401818627578 l -7.1171531387445 0 L 828.43662534986 143.54963931852572 M 837.3330667732906 144.12417962119665 l 7.1171531387445 0 L 844.4502199120351 145.25491753922353 l -7.1171531387445 0 L 837.3330667732906 144.12417962119665 M 846.2295081967213 145.2453658172577 l 7.1171531387445 0 L 853.3466613354658 148.21502153499114 l -7.1171531387445 0 L 846.2295081967213 145.2453658172577 M 855.1259496201519 148.18932486704765 l 7.1171531387445 0 L 862.2431027588964 148.42896320132337 l -7.1171531387445 0 L 855.1259496201519 148.18932486704765 M 864.0223910435824 148.43834586626323 l 7.1171531387445 0 L 871.1395441823269 150.79762119182567 l -7.1171531387445 0 L 864.0223910435824 148.43834586626323 M 872.9188324670131 150.81334349523846 l 7.1171531387445 0 L 880.0359856057576 152.22970325859785 l -7.1171531387445 0 L 872.9188324670131 150.81334349523846"></path><path class="candle body equal"></path><path class="candle wick up" d="M 4.626149540183927 11.436053554425655 L 4.626149540183927 13.45628501445725 M 4.626149540183927 22.94951324932032 L 4.626149540183927 24.904911339902384 M 13.522590963614554 3.846153846153868 L 13.522590963614554 9.176183760118363 M 13.522590963614554 13.45628501445725 L 13.522590963614554 16.451045700543403 M 40.21191523390643 18.195967793825076 L 40.21191523390643 19.942749514392148 M 40.21191523390643 27.02243511836474 L 40.21191523390643 29.08848103242724 M 49.10835665733706 14.034290986160016 L 49.10835665733706 19.462543032198 M 49.10835665733706 19.942749514392148 L 49.10835665733706 23.46209415198274 M 66.90123950419832 6.795015549696217 L 66.90123950419832 9.616323727163717 M 66.90123950419832 26.19278776354429 L 66.90123950419832 26.691083347514393 M 120.27988804478207 69.04840572631309 L 120.27988804478207 82.92705774267826 M 120.27988804478207 90.89699764527232 L 120.27988804478207 93.8033415067897 M 146.96921231507397 82.36688728721258 L 146.96921231507397 97.5509131294048 M 146.96921231507397 99.72591629668817 L 146.96921231507397 102.07640065690153 M 155.8656537385046 88.62284253227273 L 155.8656537385046 90.7912524755443 M 155.8656537385046 97.5509131294048 L 155.8656537385046 103.10485907423224 M 164.7620951619352 79.18328990314689 L 164.7620951619352 80.29154323672323 M 164.7620951619352 90.7912524755443 L 164.7620951619352 95.91993547160942 M 182.55497800879647 84.86047841988756 L 182.55497800879647 87.76352566939904 M 182.55497800879647 92.58942753199837 L 182.55497800879647 96.17030892703258 M 200.34786085565773 86.91612732685441 L 200.34786085565773 88.8260490774575 M 200.34786085565773 102.38357727304187 L 200.34786085565773 102.5860230616099 M 218.14074370251896 94.43071213006814 L 218.14074370251896 96.21527809593371 M 218.14074370251896 98.27819645501619 L 218.14074370251896 100.42293841465558 M 227.0371851259496 87.39954589254147 L 227.0371851259496 89.03982168676379 M 227.0371851259496 96.21519356742074 L 227.0371851259496 97.82089719983746 M 244.83006797281087 92.82737529601461 L 244.83006797281087 94.44423669214366 M 244.83006797281087 99.05475990369025 L 244.83006797281087 102.7751978736413 M 280.4158336665334 97.72884564921094 L 280.4158336665334 99.71247626312562 M 280.4158336665334 103.1064651159787 L 280.4158336665334 104.62637230772883 M 289.31227508996403 95.00888715879687 L 289.31227508996403 96.02052440204616 M 289.31227508996403 99.71247626312562 L 289.31227508996403 101.33643805434434 M 298.2087165133947 72.74221721467798 L 298.2087165133947 76.86534902042779 M 298.2087165133947 96.02052440204616 L 298.2087165133947 97.44466078859897 M 307.10515793682526 71.24606253507301 L 307.10515793682526 76.30052949674868 M 307.10515793682526 76.86526449191484 L 307.10515793682526 81.38094671190679 M 324.89804078368655 85.70043825329063 L 324.89804078368655 87.69852324292356 M 324.89804078368655 93.16565840492869 L 324.89804078368655 94.9516613555148 M 342.6909236305478 91.61844850348861 L 342.6909236305478 92.67370245943147 M 342.6909236305478 94.05853308745229 L 342.6909236305478 95.8776712151234 M 351.5873650539784 89.92686390189229 L 351.5873650539784 92.20735865336478 M 351.5873650539784 92.67378698794447 L 351.5873650539784 95.48528985790725 M 360.483806477409 76.59976043266967 L 360.483806477409 79.91784268087387 M 360.483806477409 92.20744318187772 L 360.483806477409 92.45232228395773 M 440.5517792882847 152.38498213692748 L 440.5517792882847 154.2131648154866 M 440.5517792882847 157.99412520072565 L 440.5517792882847 175.1094585073029 M 458.34466213514594 164.5111890223564 L 458.34466213514594 172.09018455245484 M 458.34466213514594 172.66675353943708 L 458.34466213514594 173.96798546812855 M 476.13754498200717 169.15586175314368 L 476.13754498200717 171.201029124502 M 476.13754498200717 184.75272485269133 L 476.13754498200717 193.2933167463596 M 493.93042782886846 161.48870298401545 L 493.93042782886846 169.93715879854417 M 493.93042782886846 171.20187440963173 L 493.93042782886846 173.10799237715108 M 511.7233106757297 165.63060011964507 L 511.7233106757297 166.66920195853243 M 511.7233106757297 176.15439998466317 L 511.7233106757297 176.98218771219828 M 520.6197520991603 162.87995777902213 L 520.6197520991603 165.59095624706117 M 520.6197520991603 166.66928648704538 L 520.6197520991603 169.8255811614211 M 529.5161935225909 162.40583734976198 L 529.5161935225909 163.44815844322014 M 529.5161935225909 165.59104077557413 L 529.5161935225909 168.38944172602626 M 600.687724910036 179.03149698069222 L 600.687724910036 181.8361530411043 M 600.687724910036 182.3687672013411 L 600.687724910036 186.35699150038755 M 609.5841663334666 173.0605718813738 L 609.5841663334666 174.05209133853575 M 609.5841663334666 181.8361530411043 L 609.5841663334666 184.0382898610517 M 627.3770491803277 170.34543151619908 L 627.3770491803277 171.2812466833125 M 627.3770491803277 174.5666163969965 L 627.3770491803277 178.071084016304 M 636.2734906037584 160.51577979970733 L 636.2734906037584 162.3172514681673 M 636.2734906037584 171.2812466833125 L 636.2734906037584 173.92555215461658 M 689.6521391443422 172.95406595502902 L 689.6521391443422 174.0676445849226 M 689.6521391443422 181.7055564885625 L 689.6521391443422 185.25862800282897 M 698.5485805677728 168.44539960161376 L 698.5485805677728 171.07558881125152 M 698.5485805677728 174.0676445849226 L 698.5485805677728 179.298268967632 M 707.4450219912034 165.90954421245277 L 707.4450219912034 169.03676107836608 M 707.4450219912034 171.07558881125152 L 707.4450219912034 172.82152524668885 M 716.3414634146341 162.6218922289185 L 716.3414634146341 165.94673675816045 M 716.3414634146341 169.03676107836608 L 716.3414634146341 172.00734660974226 M 734.1343462614954 152.5740724204459 L 734.1343462614954 155.4907287605459 M 734.1343462614954 169.2942349288789 L 734.1343462614954 169.60808929754407 M 743.0307876849259 143.93213083972418 L 743.0307876849259 147.34184199599005 M 743.0307876849259 155.4907287605459 L 743.0307876849259 162.70134903111222 M 787.512994802079 150.57066213449576 L 787.512994802079 154.24731433472732 M 787.512994802079 155.35548313979064 L 787.512994802079 156.97361246361427 M 814.202319072371 149.7423672358828 L 814.202319072371 151.09634495666882 M 814.202319072371 165.44742683203467 L 814.202319072371 167.24061470622337 M 823.0987604958016 140.55335711920605 L 823.0987604958016 143.56924993353525 M 823.0987604958016 151.08062265325603 L 823.0987604958016 154.22660484904915 M 885.3738504598159 148.80672112579538 L 885.3738504598159 151.4200891613517 M 885.3738504598159 152.24204442149178 L 885.3738504598159 152.80762470178763" style="stroke-width: 1px;"></path><path class="candle wick down" d="M 22.41903238704518 7.6277904594966515 L 22.41903238704518 9.176268288631348 M 22.41903238704518 18.862813232661438 L 22.41903238704518 22.42239344242674 M 31.315473810475808 17.17841355466777 L 31.315473810475808 18.862813232661438 M 31.315473810475808 27.02243511836474 L 31.315473810475808 27.467055096597676 M 58.004798080767685 18.39452527079638 L 58.004798080767685 19.462543032198 M 58.004798080767685 26.19278776354429 L 58.004798080767685 27.977607314948727 M 75.79768092762893 8.301820821935621 L 75.79768092762893 9.616323727163717 M 75.79768092762893 36.133171832029404 L 75.79768092762893 44.42601065417665 M 84.69412235105956 35.09634509191446 L 84.69412235105956 36.133171832029404 M 84.69412235105956 40.69094925148144 L 84.69412235105956 47.079360676368765 M 93.5905637744902 39.57069286906304 L 93.5905637744902 40.69094925148144 M 93.5905637744902 45.26715388676135 L 93.5905637744902 51.07755933994591 M 102.48700519792082 44.91357111699932 L 102.48700519792082 45.267069358248364 M 102.48700519792082 57.38845811843788 L 102.48700519792082 60.130985721815534 M 111.38344662135144 55.65773681533551 L 111.38344662135144 57.38854264695087 M 111.38344662135144 90.87941571457412 L 111.38344662135144 91.24271926332793 M 129.1763294682127 73.24440111024482 L 129.1763294682127 82.92697321416527 M 129.1763294682127 99.09871473043572 L 129.1763294682127 110.24751842036903 M 138.07277089164333 89.47040993184332 L 138.07277089164333 99.09871473043572 M 138.07277089164333 99.72583176817523 L 138.07277089164333 119.4188620778346 M 173.65853658536582 80.29145870821024 L 173.65853658536582 80.29154323672323 M 173.65853658536582 92.58942753199837 L 173.65853658536582 99.24156791735842 M 191.4514194322271 85.52301290456232 L 191.4514194322271 87.76352566939904 M 191.4514194322271 102.38366180155485 L 191.4514194322271 102.89801780298966 M 209.24430227908834 84.95379789820865 L 209.24430227908834 88.82613360597047 M 209.24430227908834 98.27819645501619 L 209.24430227908834 102.2595739445119 M 235.93362654938022 85.85673147377595 L 235.93362654938022 89.03990621527676 M 235.93362654938022 99.05467537517727 L 235.93362654938022 101.10702767013825 M 253.72650939624148 89.63321184782744 L 253.72650939624148 94.44423669214366 M 253.72650939624148 95.39459076348824 L 253.72650939624148 97.49039071411684 M 262.6229508196721 92.48266802011469 L 262.6229508196721 95.39467529200122 M 262.6229508196721 98.27532248557513 L 262.6229508196721 108.264817620097 M 271.51939224310274 96.61594324742116 L 271.51939224310274 98.27532248557513 M 271.51939224310274 103.10654964449168 L 271.51939224310274 106.03884375949148 M 316.0015993602559 74.76270226024849 L 316.0015993602559 76.30044496823571 M 316.0015993602559 93.16574293344166 L 316.0015993602559 97.43299585380882 M 333.7944822071172 85.61590974031861 L 333.7944822071172 87.69843871441057 M 333.7944822071172 94.05853308745229 L 333.7944822071172 97.59055700198869 M 369.38024790083966 78.08780037502936 L 369.38024790083966 79.91784268087387 M 369.38024790083966 82.01220564678191 L 369.38024790083966 98.1264677742314 M 378.2766893242703 80.30565949838955 L 378.2766893242703 82.0122901752949 M 378.2766893242703 89.79356243693539 L 378.2766893242703 92.84411194158308 M 387.1731307477009 85.6074568890214 L 387.1731307477009 89.79356243693539 M 387.1731307477009 90.59523085396215 L 387.1731307477009 91.9969671845774 M 396.06957217113154 88.28870132049428 L 396.06957217113154 90.59523085396215 M 396.06957217113154 99.20065611707996 L 396.06957217113154 101.2452317888475 M 404.9660135945622 96.25458385446571 L 404.9660135945622 99.20074064559294 M 404.9660135945622 104.84022944554806 L 404.9660135945622 107.58495479026294 M 413.86245501799283 103.82368954854641 L 413.86245501799283 104.8401449170351 M 413.86245501799283 120.47944133009472 L 413.86245501799283 120.60226125944307 M 422.7588964414235 117.76345567979031 L 422.7588964414235 120.47944133009472 M 422.7588964414235 155.02725892392027 L 422.7588964414235 159.77471832648152 M 431.65533786485406 147.6270411987577 L 431.65533786485406 155.04534802569626 M 431.65533786485406 157.9942097292386 L 431.65533786485406 168.9018535716627 M 449.44822071171535 150.73050555252587 L 449.44822071171535 154.2131648154866 M 449.44822071171535 172.66075201501604 L 449.44822071171535 174.09190426814556 M 467.2411035585766 169.35780037063387 L 467.2411035585766 172.09018455245484 M 467.2411035585766 184.75272485269133 L 467.2411035585766 196.15384615384616 M 485.0339864054379 166.83935785514512 L 485.0339864054379 171.201029124502 M 485.0339864054379 171.2019589381447 L 485.0339864054379 179.1210972044426 M 502.82686925229905 168.44539960161376 L 502.82686925229905 169.93724332705716 M 502.82686925229905 176.15448451317613 L 502.82686925229905 177.9928106132919 M 538.4126349460215 160.0939825199769 L 538.4126349460215 163.4482429717331 M 538.4126349460215 167.27831442300888 L 538.4126349460215 167.89824653714578 M 547.3090763694522 163.03684269909823 L 547.3090763694522 167.2782298944959 M 547.3090763694522 169.77621650984543 L 547.3090763694522 171.74201160752304 M 556.2055177928828 165.8072647117566 L 556.2055177928828 169.77613198133247 M 556.2055177928828 173.6752632277064 L 556.2055177928828 174.3454052785487 M 565.1019592163135 172.39871362480275 L 565.1019592163135 173.6753477562194 M 565.1019592163135 175.01318053102776 L 565.1019592163135 177.279305435295 M 573.998400639744 174.53922915879355 L 573.998400639744 175.01326505954071 M 573.998400639744 176.54145604556211 L 573.998400639744 187.66718345145406 M 582.8948420631747 168.29028978031008 L 582.8948420631747 176.54145604556211 M 582.8948420631747 182.14070927334254 L 582.8948420631747 184.7171383487301 M 591.7912834866053 180.5550388985002 L 591.7912834866053 182.14070927334254 M 591.7912834866053 182.36885172985404 L 591.7912834866053 184.70014811762275 M 618.4806077568971 169.71332729619425 L 618.4806077568971 174.05209133853575 M 618.4806077568971 174.56670092550945 L 618.4806077568971 181.93276913143131 M 645.169932027189 154.68948298608402 L 645.169932027189 162.31716693965433 M 645.169932027189 162.57278116288177 L 645.169932027189 166.00032783538472 M 654.0663734506197 159.31632020063418 L 654.0663734506197 162.57278116288177 M 654.0663734506197 162.59746348866958 L 654.0663734506197 164.8772820120383 M 662.9628148740503 162.46373938114783 L 662.9628148740503 162.59475857625446 M 662.9628148740503 168.7626351107978 L 662.9628148740503 170.51634816942857 M 671.8592562974809 168.7118334745016 L 671.8592562974809 168.77413098856198 M 671.8592562974809 176.36056502780195 L 671.8592562974809 177.10762802544878 M 680.7556977209116 175.5506973450169 L 680.7556977209116 176.36056502780195 M 680.7556977209116 181.72694220234445 L 680.7556977209116 182.47713275497122 M 725.2379048380647 161.81379964490586 L 725.2379048380647 165.94673675816045 M 725.2379048380647 169.30623797772094 L 725.2379048380647 169.7132427676813 M 751.9272291083566 139.90231851229547 L 751.9272291083566 147.32611969257727 M 751.9272291083566 148.80689018282132 L 751.9272291083566 151.48737385767748 M 760.8236705317872 146.9517429086241 L 760.8236705317872 148.80689018282132 M 760.8236705317872 149.40797243856545 L 760.8236705317872 156.2609525707471 M 769.7201119552178 144.29991439966548 L 769.7201119552178 149.40797243856545 M 769.7201119552178 153.35849702082638 L 769.7201119552178 154.92083752608846 M 778.6165533786485 150.68790318198796 L 778.6165533786485 153.35849702082638 M 778.6165533786485 155.3344355400606 L 778.6165533786485 159.70033323506613 M 796.4094362255097 153.5176642107527 L 796.4094362255097 154.26886910553517 M 796.4094362255097 164.9721230035929 L 796.4094362255097 165.4869016475926 M 805.3058776489403 164.66004373370018 L 805.3058776489403 164.9721230035929 M 805.3058776489403 165.44742683203467 L 805.3058776489403 170.0810263276226 M 831.9952019192323 138.49982142506352 L 831.9952019192323 143.54963931852572 M 831.9952019192323 144.15401818627578 L 831.9952019192323 147.19467785490573 M 840.8916433426629 136.5950559137517 L 840.8916433426629 144.12417962119665 M 840.8916433426629 145.25491753922353 L 840.8916433426629 146.44896731346645 M 849.7880847660936 140.59477609056236 L 849.7880847660936 145.2453658172577 M 849.7880847660936 148.21502153499114 L 849.7880847660936 148.77299424911953 M 858.6845261895241 146.38616262832824 L 858.6845261895241 148.18932486704765 M 858.6845261895241 148.42896320132337 L 858.6845261895241 151.96233957206732 M 867.5809676129546 146.807030094416 L 867.5809676129546 148.43834586626323 M 867.5809676129546 150.79762119182567 L 867.5809676129546 153.6159708713392 M 876.4774090363853 145.21966914931417 L 876.4774090363853 150.81334349523846 M 876.4774090363853 152.22970325859785 L 876.4774090363853 153.38901181400928" style="stroke-width: 1px;"></path><path class="candle wick equal" style="stroke-width: 1px;"></path></g></g><g class="x axis" transform="translate(0,200)" fill="none" font-size="10" font-family="sans-serif" text-anchor="middle"><path class="domain" stroke="#000" d="M0.5,6V0.5H890.5V6"></path><g class="tick" opacity="1" transform="translate(49.10835665733706,0)"><line stroke="#000" y2="6" x1="0.5" x2="0.5"></line><text fill="#000" y="9" x="0.5" dy="0.71em">May  2</text></g><g class="tick" opacity="1" transform="translate(111.38344662135144,0)"><line stroke="#000" y2="6" x1="0.5" x2="0.5"></line><text fill="#000" y="9" x="0.5" dy="0.71em">May  9</text></g><g class="tick" opacity="1" transform="translate(173.65853658536582,0)"><line stroke="#000" y2="6" x1="0.5" x2="0.5"></line><text fill="#000" y="9" x="0.5" dy="0.71em">May 16</text></g><g class="tick" opacity="1" transform="translate(235.93362654938022,0)"><line stroke="#000" y2="6" x1="0.5" x2="0.5"></line><text fill="#000" y="9" x="0.5" dy="0.71em">May 23</text></g><g class="tick" opacity="1" transform="translate(298.2087165133947,0)"><line stroke="#000" y2="6" x1="0.5" x2="0.5"></line><text fill="#000" y="9" x="0.5" dy="0.71em">May 30</text></g><g class="tick" opacity="1" transform="translate(360.483806477409,0)"><line stroke="#000" y2="6" x1="0.5" x2="0.5"></line><text fill="#000" y="9" x="0.5" dy="0.71em">Jun  6</text></g><g class="tick" opacity="1" transform="translate(422.7588964414235,0)"><line stroke="#000" y2="6" x1="0.5" x2="0.5"></line><text fill="#000" y="9" x="0.5" dy="0.71em">Jun 13</text></g><g class="tick" opacity="1" transform="translate(485.0339864054379,0)"><line stroke="#000" y2="6" x1="0.5" x2="0.5"></line><text fill="#000" y="9" x="0.5" dy="0.71em">Jun 20</text></g><g class="tick" opacity="1" transform="translate(547.3090763694522,0)"><line stroke="#000" y2="6" x1="0.5" x2="0.5"></line><text fill="#000" y="9" x="0.5" dy="0.71em">Jun 27</text></g><g class="tick" opacity="1" transform="translate(609.5841663334666,0)"><line stroke="#000" y2="6" x1="0.5" x2="0.5"></line><text fill="#000" y="9" x="0.5" dy="0.71em">Jul  4</text></g><g class="tick" opacity="1" transform="translate(671.8592562974809,0)"><line stroke="#000" y2="6" x1="0.5" x2="0.5"></line><text fill="#000" y="9" x="0.5" dy="0.71em">Jul 11</text></g><g class="tick" opacity="1" transform="translate(734.1343462614954,0)"><line stroke="#000" y2="6" x1="0.5" x2="0.5"></line><text fill="#000" y="9" x="0.5" dy="0.71em">Jul 18</text></g><g class="tick" opacity="1" transform="translate(796.4094362255097,0)"><line stroke="#000" y2="6" x1="0.5" x2="0.5"></line><text fill="#000" y="9" x="0.5" dy="0.71em">Jul 25</text></g><g class="tick" opacity="1" transform="translate(858.6845261895241,0)"><line stroke="#000" y2="6" x1="0.5" x2="0.5"></line><text fill="#000" y="9" x="0.5" dy="0.71em">Aug  1</text></g></g><g class="y axis" fill="none" font-size="10" font-family="sans-serif" text-anchor="end"><path class="domain" stroke="#000" d="M-6,200.5H0.5V0.5H-6"></path><g class="tick" opacity="1" transform="translate(0,192.9586683635033)"><line stroke="#000" x2="-6" y1="0.5" y2="0.5"></line><text fill="#000" x="-9" y="0.5" dy="0.32em">18,000</text></g><g class="tick" opacity="1" transform="translate(0,176.05296576909672)"><line stroke="#000" x2="-6" y1="0.5" y2="0.5"></line><text fill="#000" x="-9" y="0.5" dy="0.32em">20,000</text></g><g class="tick" opacity="1" transform="translate(0,159.14726317469012)"><line stroke="#000" x2="-6" y1="0.5" y2="0.5"></line><text fill="#000" x="-9" y="0.5" dy="0.32em">22,000</text></g><g class="tick" opacity="1" transform="translate(0,142.24156058028353)"><line stroke="#000" x2="-6" y1="0.5" y2="0.5"></line><text fill="#000" x="-9" y="0.5" dy="0.32em">24,000</text></g><g class="tick" opacity="1" transform="translate(0,125.33585798587691)"><line stroke="#000" x2="-6" y1="0.5" y2="0.5"></line><text fill="#000" x="-9" y="0.5" dy="0.32em">26,000</text></g><g class="tick" opacity="1" transform="translate(0,108.43015539147032)"><line stroke="#000" x2="-6" y1="0.5" y2="0.5"></line><text fill="#000" x="-9" y="0.5" dy="0.32em">28,000</text></g><g class="tick" opacity="1" transform="translate(0,91.52445279706372)"><line stroke="#000" x2="-6" y1="0.5" y2="0.5"></line><text fill="#000" x="-9" y="0.5" dy="0.32em">30,000</text></g><g class="tick" opacity="1" transform="translate(0,74.61875020265711)"><line stroke="#000" x2="-6" y1="0.5" y2="0.5"></line><text fill="#000" x="-9" y="0.5" dy="0.32em">32,000</text></g><g class="tick" opacity="1" transform="translate(0,57.71304760825052)"><line stroke="#000" x2="-6" y1="0.5" y2="0.5"></line><text fill="#000" x="-9" y="0.5" dy="0.32em">34,000</text></g><g class="tick" opacity="1" transform="translate(0,40.8073450138439)"><line stroke="#000" x2="-6" y1="0.5" y2="0.5"></line><text fill="#000" x="-9" y="0.5" dy="0.32em">36,000</text></g><g class="tick" opacity="1" transform="translate(0,23.90164241943731)"><line stroke="#000" x2="-6" y1="0.5" y2="0.5"></line><text fill="#000" x="-9" y="0.5" dy="0.32em">38,000</text></g><g class="tick" opacity="1" transform="translate(0,6.995939825030717)"><line stroke="#000" x2="-6" y1="0.5" y2="0.5"></line><text fill="#000" x="-9" y="0.5" dy="0.32em">40,000</text></g><text transform="rotate(-90)" y="6" dy=".71em" style="text-anchor: end;">Price ($)</text></g></g></svg>