<?xml version="1.0" encoding="utf-8"?>
<!DOCTYPE svg PUBLIC "-//W3C//DTD SVG 1.1//EN" "http://www.w3.org/Graphics/SVG/1.1/DTD/svg11.dtd">
<svg version="1.1" xmlns="http://www.w3.org/2000/svg" width="960" height="250"><g transform="translate(50,20)"><style>.axis path,.axis line{fill:none;stroke:#000;shape-rendering:crispEdges;}path.candle{stroke:#000000;}path.candle.body{stroke-width:0;}path.candle.up{fill:#00AA00;stroke:#00AA00;}path.candle.down{fill:#FF0000;stroke:#FF0000;}</style><g class="candlestick"><g class="data"><path class="candle body up" d="M 18.860455817672932 157.48011511397266 l 7.1171531387445 0 L 25.977608956417434 155.4922879844159 l -7.1171531387445 0 L 18.860455817672932 157.48011511397266 M 36.65333866453418 161.9530769367073 l 7.1171531387445 0 L 43.77049180327868 159.31259626940354 l -7.1171531387445 0 L 36.65333866453418 161.9530769367073 M 54.446221511395436 159.61005875405232 l 7.1171531387445 0 L 61.563374650139934 157.6039910004369 l -7.1171531387445 0 L 54.446221511395436 159.61005875405232 M 72.23910435825668 166.21877716299525 l 7.1171531387445 0 L 79.35625749700118 163.35219293593147 l -7.1171531387445 0 L 72.23910435825668 166.21877716299525 M 90.03198720511796 165.97904324679584 l 7.1171531387445 0 L 97.14914034386246 162.03966978938135 l -7.1171531387445 0 L 90.03198720511796 165.97904324679584 M 107.82487005197919 163.2637960654934 l 7.1171531387445 0 L 114.94202319072369 158.34644453354957 l -7.1171531387445 0 L 107.82487005197919 163.2637960654934 M 125.61775289884046 159.5821967019188 l 7.1171531387445 0 L 132.73490603758498 154.120833590907 l -7.1171531387445 0 L 125.61775289884046 159.5821967019188 M 152.30707716913233 189.87406031721366 l 7.1171531387445 0 L 159.42423030787683 183.70111242149616 l -7.1171531387445 0 L 152.30707716913233 189.87406031721366 M 170.09996001599356 189.30479248944908 l 7.1171531387445 0 L 177.21711315473806 187.51059659989957 l -7.1171531387445 0 L 170.09996001599356 189.30479248944908 M 178.9964014394242 187.5168104388646 l 7.1171531387445 0 L 186.1135545781687 185.16056279260667 l -7.1171531387445 0 L 178.9964014394242 187.5168104388646 M 196.78928428628546 190.10717950161163 l 7.1171531387445 0 L 203.90643742502996 188.25224834733933 l -7.1171531387445 0 L 196.78928428628546 190.10717950161163 M 205.68572570971608 188.25044432957526 l 7.1171531387445 0 L 212.80287884846058 185.89359534406265 l -7.1171531387445 0 L 205.68572570971608 188.25044432957526 M 214.5821671331467 185.89379579048088 l 7.1171531387445 0 L 221.6993202718912 184.87091771826874 l -7.1171531387445 0 L 214.5821671331467 185.89379579048088 M 223.47860855657734 184.87091771826874 l 7.1171531387445 0 L 230.59576169532184 183.80795036241113 l -7.1171531387445 0 L 223.47860855657734 184.87091771826874 M 241.2714914034386 185.97437525060815 l 7.1171531387445 0 L 248.3886445421831 179.18064479764172 l -7.1171531387445 0 L 241.2714914034386 185.97437525060815 M 250.16793282686922 179.18064479764172 l 7.1171531387445 0 L 257.28508596561375 176.9047761650928 l -7.1171531387445 0 L 250.16793282686922 179.18064479764172 M 259.06437425029986 176.90637973643862 l 7.1171531387445 0 L 266.1815273890444 173.52324508960396 l -7.1171531387445 0 L 259.06437425029986 176.90637973643862 M 285.7536985205918 173.93636515756975 l 7.1171531387445 0 L 292.8708516593363 170.98479164917774 l -7.1171531387445 0 L 285.7536985205918 173.93636515756975 M 312.4430227908837 184.28300837360905 l 7.1171531387445 0 L 319.5601759296282 182.0301910791562 l -7.1171531387445 0 L 312.4430227908837 184.28300837360905 M 330.23590563774496 187.80605462036613 l 7.1171531387445 0 L 337.3530587764895 177.88676316798671 l -7.1171531387445 0 L 330.23590563774496 187.80605462036613 M 348.02878848460614 178.88398409866585 l 7.1171531387445 0 L 355.14594162335067 178.0415078028579 l -7.1171531387445 0 L 348.02878848460614 178.88398409866585 M 356.9252299080368 178.04170824927613 l 7.1171531387445 0 L 364.0423830467813 177.12646990365184 l -7.1171531387445 0 L 356.9252299080368 178.04170824927613 M 374.7181127548981 178.6927582156773 l 7.1171531387445 0 L 381.8352658936426 175.79891327573466 l -7.1171531387445 0 L 374.7181127548981 178.6927582156773 M 419.20031987205124 181.78043484204542 l 7.1171531387445 0 L 426.31747301079577 179.2836742566104 l -7.1171531387445 0 L 419.20031987205124 181.78043484204542 M 428.0967612954818 179.2838747030286 l 7.1171531387445 0 L 435.21391443422635 176.7664681365162 l -7.1171531387445 0 L 428.0967612954818 179.2838747030286 M 445.8896441423431 180.6262643658946 l 7.1171531387445 0 L 453.00679728108764 179.28848497064786 l -7.1171531387445 0 L 445.8896441423431 180.6262643658946 M 454.7860855657737 179.28828452422962 l 7.1171531387445 0 L 461.90323870451823 174.09331470304144 l -7.1171531387445 0 L 454.7860855657737 179.28828452422962 M 463.68252698920435 174.0959205064784 l 7.1171531387445 0 L 470.7996801279489 171.58633135027685 l -7.1171531387445 0 L 463.68252698920435 174.0959205064784 M 472.57896841263494 171.58633135027685 l 7.1171531387445 0 L 479.69612155137946 166.72390213692722 l -7.1171531387445 0 L 472.57896841263494 171.58633135027685 M 481.47540983606564 166.72390213692722 l 7.1171531387445 0 L 488.59256297481016 165.2045182867668 l -7.1171531387445 0 L 481.47540983606564 166.72390213692722 M 490.3718512594962 165.2045182867668 l 7.1171531387445 0 L 497.48900439824075 162.01280996933892 l -7.1171531387445 0 L 490.3718512594962 165.2045182867668 M 517.0611755297881 164.22493664089168 l 7.1171531387445 0 L 524.1783286685326 162.47644253469787 l -7.1171531387445 0 L 517.0611755297881 164.22493664089168 M 534.8540583766493 166.20234055670065 l 7.1171531387445 0 L 541.9712115153937 165.381312027643 l -7.1171531387445 0 L 534.8540583766493 166.20234055670065 M 543.75049980008 165.37910711704254 l 7.1171531387445 0 L 550.8676529388244 162.51613092550684 l -7.1171531387445 0 L 543.75049980008 165.37910711704254 M 552.6469412235106 162.51613092550684 l 7.1171531387445 0 L 559.764094362255 157.5384450216767 l -7.1171531387445 0 L 552.6469412235106 162.51613092550684 M 561.5433826469413 157.53864546809493 l 7.1171531387445 0 L 568.6605357856857 154.3609683999429 l -7.1171531387445 0 L 561.5433826469413 157.53864546809493 M 570.4398240703717 154.36076795352466 l 7.1171531387445 0 L 577.5569772091162 136.90268671162926 l -7.1171531387445 0 L 570.4398240703717 154.36076795352466 M 579.3362654938024 136.906896086412 l 7.1171531387445 0 L 586.4534186325469 133.1431136913643 l -7.1171531387445 0 L 579.3362654938024 136.906896086412 M 597.1291483406637 134.0543431086241 l 7.1171531387445 0 L 604.2463014794082 130.27252053593602 l -7.1171531387445 0 L 597.1291483406637 134.0543431086241 M 614.9220311875249 131.91798518316116 l 7.1171531387445 0 L 622.0391843262694 131.46597851005933 l -7.1171531387445 0 L 614.9220311875249 131.91798518316116 M 623.8184726109555 131.46678029573224 l 7.1171531387445 0 L 630.9356257497 119.76030857844124 l -7.1171531387445 0 L 623.8184726109555 131.46678029573224 M 641.6113554578168 127.1722157852196 l 7.1171531387445 0 L 648.7285085965613 123.3777650881832 l -7.1171531387445 0 L 641.6113554578168 127.1722157852196 M 650.5077968812475 123.37796553460143 l 7.1171531387445 0 L 657.624950019992 121.28510448189374 l -7.1171531387445 0 L 650.5077968812475 123.37796553460143 M 659.4042383046781 121.28510448189374 l 7.1171531387445 0 L 666.5213914434225 116.65679668503319 l -7.1171531387445 0 L 659.4042383046781 121.28510448189374 M 686.09356257497 121.49497188177737 l 7.1171531387445 0 L 693.2107157137144 111.99581612200164 l -7.1171531387445 0 L 686.09356257497 121.49497188177737 M 694.9900039984005 111.99581612200164 l 7.1171531387445 0 L 702.107157137145 109.58083767520323 l -7.1171531387445 0 L 694.9900039984005 111.99581612200164 M 703.8864454218311 109.58083767520323 l 7.1171531387445 0 L 711.0035985605756 80.59608515316634 l -7.1171531387445 0 L 703.8864454218311 109.58083767520323 M 730.5757696921231 96.06493614057744 l 7.1171531387445 0 L 737.6929228308676 82.89961539143059 l -7.1171531387445 0 L 730.5757696921231 96.06493614057744 M 757.265093962415 86.46535672527003 l 7.1171531387445 0 L 764.3822471011595 78.70747900063193 l -7.1171531387445 0 L 757.265093962415 86.46535672527003 M 766.1615353858456 78.70727855421369 l 7.1171531387445 0 L 773.27868852459 66.52795373632529 l -7.1171531387445 0 L 766.1615353858456 78.70727855421369 M 775.0579768092763 66.52815418274349 l 7.1171531387445 0 L 782.1751299480208 65.94986626615872 l -7.1171531387445 0 L 775.0579768092763 66.52815418274349 M 801.747301079568 73.24010249707331 l 7.1171531387445 0 L 808.8644542183125 58.07492783327609 l -7.1171531387445 0 L 801.747301079568 73.24010249707331 M 810.6437425029987 58.08474970776919 l 7.1171531387445 0 L 817.7608956417432 39.11650515095181 l -7.1171531387445 0 L 810.6437425029987 58.08474970776919 M 819.5401839264293 39.11650515095181 l 7.1171531387445 0 L 826.6573370651738 36.776493664570296 l -7.1171531387445 0 L 819.5401839264293 39.11650515095181 M 828.43662534986 36.74382089839929 l 7.1171531387445 0 L 835.5537784886045 36.2413017279043 l -7.1171531387445 0 L 828.43662534986 36.74382089839929 M 837.3330667732906 36.241502174322505 l 7.1171531387445 0 L 844.4502199120351 19.146228949417917 l -7.1171531387445 0 L 837.3330667732906 36.241502174322505 M 846.2295081967213 19.146429395836094 l 7.1171531387445 0 L 853.3466613354658 18.181480338491525 l -7.1171531387445 0 L 846.2295081967213 19.146429395836094 M 872.9188324670131 24.91227061613469 l 7.1171531387445 0 L 880.0359856057576 9.036914292559317 l -7.1171531387445 0 L 872.9188324670131 24.91227061613469"></path><path class="candle body down" d="M 1.0675729708116766 146.921199141031 l 7.1171531387445 0 L 8.184726109556177 153.65900504331208 l -7.1171531387445 0 L 1.0675729708116766 146.921199141031 M 9.964014394242305 153.65720102554803 l 7.1171531387445 0 L 17.081167532986804 157.47590573918987 l -7.1171531387445 0 L 9.964014394242305 153.65720102554803 M 27.75689724110356 155.49248843083407 l 7.1171531387445 0 L 34.87405037984806 161.9508720261068 l -7.1171531387445 0 L 27.75689724110356 155.49248843083407 M 45.54978008796481 159.30157171640104 l 7.1171531387445 0 L 52.66693322670931 159.6098583076341 l -7.1171531387445 0 L 45.54978008796481 159.30157171640104 M 63.342662934826066 157.6041914468551 l 7.1171531387445 0 L 70.45981607357056 166.21877716299525 l -7.1171531387445 0 L 63.342662934826066 157.6041914468551 M 81.13554578168731 163.3523933823497 l 7.1171531387445 0 L 88.25269892043181 165.97904324679584 l -7.1171531387445 0 L 81.13554578168731 163.3523933823497 M 98.92842862854857 162.03987023579958 l 7.1171531387445 0 L 106.04558176729307 163.2637960654934 l -7.1171531387445 0 L 98.92842862854857 162.03987023579958 M 116.72131147540982 158.34624408713134 l 7.1171531387445 0 L 123.83846461415432 159.5821967019188 l -7.1171531387445 0 L 116.72131147540982 158.34624408713134 M 134.51419432227107 154.120833590907 l 7.1171531387445 0 L 141.63134746101557 164.8132468783878 l -7.1171531387445 0 L 134.51419432227107 154.120833590907 M 143.4106357457017 164.8132468783878 l 7.1171531387445 0 L 150.5277888844462 189.82274603414757 l -7.1171531387445 0 L 143.4106357457017 164.8132468783878 M 161.20351859256294 183.70111242149616 l 7.1171531387445 0 L 168.32067173130744 189.30479248944908 l -7.1171531387445 0 L 161.20351859256294 183.70111242149616 M 187.89284286285485 185.16036234618844 l 7.1171531387445 0 L 195.00999600159935 190.10737994802986 l -7.1171531387445 0 L 187.89284286285485 185.16036234618844 M 232.37504998000796 183.81296152286683 l 7.1171531387445 0 L 239.49220311875246 185.97457569702638 l -7.1171531387445 0 L 232.37504998000796 183.81296152286683 M 267.9608156737305 173.52324508960396 l 7.1171531387445 0 L 275.07796881247504 173.8042709679582 l -7.1171531387445 0 L 267.9608156737305 173.52324508960396 M 276.85725709716115 173.80407052153996 l 7.1171531387445 0 L 283.9744102359057 173.936565603988 l -7.1171531387445 0 L 276.85725709716115 173.80407052153996 M 294.65013994402244 170.98499209559597 l 7.1171531387445 0 L 301.76729308276697 174.1993508582835 l -7.1171531387445 0 L 294.65013994402244 170.98499209559597 M 303.54658136745303 174.1993508582835 l 7.1171531387445 0 L 310.66373450619756 184.28300837360905 l -7.1171531387445 0 L 303.54658136745303 174.1993508582835 M 321.3394642143143 182.0301910791562 l 7.1171531387445 0 L 328.45661735305885 187.80605462036613 l -7.1171531387445 0 L 321.3394642143143 182.0301910791562 M 339.13234706117555 177.88656272156848 l 7.1171531387445 0 L 346.2495001999201 178.88197963448357 l -7.1171531387445 0 L 339.13234706117555 177.88656272156848 M 365.8216713314674 177.1262694572336 l 7.1171531387445 0 L 372.93882447021196 178.69255776925905 l -7.1171531387445 0 L 365.8216713314674 177.1262694572336 M 383.61455417832866 175.79690881155238 l 7.1171531387445 0 L 390.7317073170732 177.0795654417867 l -7.1171531387445 0 L 383.61455417832866 175.79690881155238 M 392.5109956017593 177.0795654417867 l 7.1171531387445 0 L 399.62814874050383 180.23579474318848 l -7.1171531387445 0 L 392.5109956017593 177.0795654417867 M 401.40743702518995 180.23579474318848 l 7.1171531387445 0 L 408.5245901639345 181.21257013920845 l -7.1171531387445 0 L 401.40743702518995 180.23579474318848 M 410.3038784486206 181.21257013920845 l 7.1171531387445 0 L 417.4210315873651 181.78063528846366 l -7.1171531387445 0 L 410.3038784486206 181.21257013920845 M 436.99320271891247 176.76666858293441 l 7.1171531387445 0 L 444.110355857657 180.62606391947637 l -7.1171531387445 0 L 436.99320271891247 176.76666858293441 M 499.2682926829268 162.01301041575715 l 7.1171531387445 0 L 506.38544582167134 164.17141744722508 l -7.1171531387445 0 L 499.2682926829268 162.01301041575715 M 508.16473410635746 164.17121700080685 l 7.1171531387445 0 L 515.281887245102 164.22493664089168 l -7.1171531387445 0 L 508.16473410635746 164.17121700080685 M 525.9576169532187 162.47624208827966 l 7.1171531387445 0 L 533.0747700919632 166.20073698535484 l -7.1171531387445 0 L 525.9576169532187 162.47624208827966 M 588.232706917233 133.13669940598106 l 7.1171531387445 0 L 595.3498600559775 134.0541426622059 l -7.1171531387445 0 L 588.232706917233 133.13669940598106 M 606.0255897640943 130.27252053593602 l 7.1171531387445 0 L 613.1427429028388 131.9342213430375 l -7.1171531387445 0 L 606.0255897640943 130.27252053593602 M 632.7149140343862 119.76050902485947 l 7.1171531387445 0 L 639.8320671731307 127.1722157852196 l -7.1171531387445 0 L 632.7149140343862 119.76050902485947 M 668.3006797281087 116.65679668503319 l 7.1171531387445 0 L 675.4178328668531 117.24811361880273 l -7.1171531387445 0 L 668.3006797281087 116.65679668503319 M 677.1971211515394 117.24831406522097 l 7.1171531387445 0 L 684.3142742902838 121.50018348865125 l -7.1171531387445 0 L 677.1971211515394 117.24831406522097 M 712.7828868452618 80.59608515316634 l 7.1171531387445 0 L 719.9000399840063 80.79853603557558 l -7.1171531387445 0 L 712.7828868452618 80.59608515316634 M 721.6793282686924 80.79833558915735 l 7.1171531387445 0 L 728.7964814074369 96.06493614057744 l -7.1171531387445 0 L 721.6793282686924 80.79833558915735 M 739.4722111155537 82.89961539143059 l 7.1171531387445 0 L 746.5893642542982 85.8399639004019 l -7.1171531387445 0 L 739.4722111155537 82.89961539143059 M 748.3686525389844 85.8399639004019 l 7.1171531387445 0 L 755.4858056777289 86.46535672527003 l -7.1171531387445 0 L 748.3686525389844 85.8399639004019 M 783.9544182327068 65.96309572976168 l 7.1171531387445 0 L 791.0715713714512 70.96603788228845 l -7.1171531387445 0 L 783.9544182327068 65.96309572976168 M 792.8508596561375 70.98387761351066 l 7.1171531387445 0 L 799.9680127948819 73.24010249707331 l -7.1171531387445 0 L 792.8508596561375 70.98387761351066 M 855.1259496201519 18.181480338491525 l 7.1171531387445 0 L 862.2431027588964 23.981798342725085 l -7.1171531387445 0 L 855.1259496201519 18.181480338491525 M 864.0223910435824 23.992822895727585 l 7.1171531387445 0 L 871.1395441823269 24.912471062552868 l -7.1171531387445 0 L 864.0223910435824 23.992822895727585 M 881.8152738904437 9.037114738977522 l 7.1171531387445 0 L 888.9324270291881 11.430044079771022 l -7.1171531387445 0 L 881.8152738904437 9.037114738977522"></path><path class="candle body equal"></path><path class="candle wick up" d="M 22.41903238704518 154.801750073624 L 22.41903238704518 155.4922879844159 M 22.41903238704518 157.48011511397266 L 22.41903238704518 159.21157127461714 M 40.21191523390643 158.8507677218086 L 40.21191523390643 159.31259626940354 M 40.21191523390643 161.9530769367073 L 40.21191523390643 165.04837052696806 M 58.004798080767685 156.0665669726361 L 58.004798080767685 157.6039910004369 M 58.004798080767685 159.61005875405232 L 58.004798080767685 160.87347252813686 M 75.79768092762893 161.7909157843617 L 75.79768092762893 163.35219293593147 M 75.79768092762893 166.21877716299525 L 75.79768092762893 167.7104994074403 M 93.5905637744902 161.7241671270921 L 93.5905637744902 162.03966978938135 M 93.5905637744902 165.97904324679584 L 93.5905637744902 167.05123113789185 M 111.38344662135144 158.18929454165965 L 111.38344662135144 158.34644453354957 M 111.38344662135144 163.2637960654934 L 111.38344662135144 163.42094605738333 M 129.1763294682127 151.5374801527979 L 129.1763294682127 154.120833590907 M 129.1763294682127 159.5821967019188 L 129.1763294682127 162.27840147348965 M 155.8656537385046 180.07704117995272 L 155.8656537385046 183.70111242149616 M 155.8656537385046 189.87406031721366 L 155.8656537385046 195.1415917418 M 173.65853658536582 185.6877368725436 L 173.65853658536582 187.51059659989957 M 173.65853658536582 189.30479248944908 L 173.65853658536582 192.74906329384297 M 182.55497800879647 184.41269720620187 L 182.55497800879647 185.16056279260667 M 182.55497800879647 187.5168104388646 L 182.55497800879647 195.15161406271136 M 200.34786085565773 185.77072168968954 L 200.34786085565773 188.25224834733933 M 200.34786085565773 190.10717950161163 L 200.34786085565773 193.02668158308734 M 209.24430227908834 182.95745620987412 L 209.24430227908834 185.89359534406265 M 209.24430227908834 188.25044432957526 L 209.24430227908834 191.22627185457276 M 218.14074370251896 184.67628424617033 L 218.14074370251896 184.87091771826874 M 218.14074370251896 185.89379579048088 L 218.14074370251896 188.6371054703351 M 227.0371851259496 183.06529638288026 L 227.0371851259496 183.80795036241113 M 227.0371851259496 184.87091771826874 L 227.0371851259496 187.2490140241134 M 244.83006797281087 177.61255246785223 L 244.83006797281087 179.18064479764172 M 244.83006797281087 185.97437525060815 L 244.83006797281087 188.38975459024303 M 253.72650939624148 174.00371515409398 L 253.72650939624148 176.9047761650928 M 253.72650939624148 179.18064479764172 L 253.72650939624148 180.48935946224557 M 262.6229508196721 170.73724032266745 L 262.6229508196721 173.52324508960396 M 262.6229508196721 176.90637973643862 L 262.6229508196721 179.39211576887118 M 289.31227508996403 168.99756585887562 L 289.31227508996403 170.98479164917774 M 289.31227508996403 173.93636515756975 L 289.31227508996403 174.85902002066842 M 316.0015993602559 181.16626701659803 L 316.0015993602559 182.0301910791562 M 316.0015993602559 184.28300837360905 L 316.0015993602559 185.57027527146258 M 333.7944822071172 176.70573287179343 L 333.7944822071172 177.88676316798671 M 333.7944822071172 187.80605462036613 L 333.7944822071172 188.81891037166696 M 351.5873650539784 176.19058557695013 L 351.5873650539784 178.0415078028579 M 351.5873650539784 178.88398409866585 L 351.5873650539784 179.72365414461856 M 360.483806477409 176.6303650185401 L 360.483806477409 177.12646990365184 M 360.483806477409 178.04170824927613 L 360.483806477409 180.7230799858982 M 378.2766893242703 175.2565052680125 L 378.2766893242703 175.79891327573466 M 378.2766893242703 178.6927582156773 L 378.2766893242703 179.9002474390765 M 422.7588964414235 178.67752428789203 L 422.7588964414235 179.2836742566104 M 422.7588964414235 181.78043484204542 L 422.7588964414235 182.26551517415464 M 431.65533786485406 176.6504096603628 L 431.65533786485406 176.7664681365162 M 431.65533786485406 179.2838747030286 L 431.65533786485406 180.30575054314968 M 449.44822071171535 178.97819391523248 L 449.44822071171535 179.28848497064786 M 449.44822071171535 180.6262643658946 L 449.44822071171535 181.69825181057237 M 458.34466213514594 173.603624103313 L 458.34466213514594 174.09331470304144 M 458.34466213514594 179.28828452422962 L 458.34466213514594 182.01415536569806 M 467.2411035585766 170.50392069185125 L 467.2411035585766 171.58633135027685 M 467.2411035585766 174.0959205064784 L 467.2411035585766 176.0290257638592 M 476.13754498200717 162.75947287723437 L 476.13754498200717 166.72390213692722 M 476.13754498200717 171.58633135027685 L 476.13754498200717 171.5889371537138 M 485.0339864054379 163.68152640107837 L 485.0339864054379 165.2045182867668 M 485.0339864054379 166.72390213692722 L 485.0339864054379 168.17152616936232 M 493.93042782886846 158.16904945341872 L 493.93042782886846 162.01280996933892 M 493.93042782886846 165.2045182867668 L 493.93042782886846 169.15371361867443 M 520.6197520991603 160.22703282935493 L 520.6197520991603 162.47644253469787 M 520.6197520991603 164.22493664089168 L 520.6197520991603 167.5735945037913 M 538.4126349460215 164.5350272498888 L 538.4126349460215 165.381312027643 M 538.4126349460215 166.20234055670065 L 538.4126349460215 167.49000834739064 M 547.3090763694522 162.4788478917166 L 547.3090763694522 162.51613092550684 M 547.3090763694522 165.37910711704254 L 547.3090763694522 165.6615361203243 M 556.2055177928828 156.08480759669476 L 556.2055177928828 157.5384450216767 M 556.2055177928828 162.51613092550684 L 556.2055177928828 164.42397993419107 M 565.1019592163135 151.78743683632695 L 565.1019592163135 154.3609683999429 M 565.1019592163135 157.53864546809493 L 565.1019592163135 159.01934315953747 M 573.998400639744 128.14879073482135 L 573.998400639744 136.90268671162926 M 573.998400639744 154.36076795352466 L 573.998400639744 154.8227969475378 M 582.8948420631747 128.80384962958706 L 582.8948420631747 133.1431136913643 M 582.8948420631747 136.906896086412 L 582.8948420631747 138.9648794623482 M 600.687724910036 129.17006523568773 L 600.687724910036 130.27252053593602 M 600.687724910036 134.0543431086241 L 600.687724910036 135.11791180373638 M 618.4806077568971 127.7252474531078 L 618.4806077568971 131.46597851005933 M 618.4806077568971 131.91798518316116 L 618.4806077568971 137.22259919511947 M 627.3770491803277 116.69107302254999 L 627.3770491803277 119.76030857844124 M 627.3770491803277 131.46678029573224 L 627.3770491803277 132.11382133376887 M 645.169932027189 119.62520769255627 L 645.169932027189 123.3777650881832 M 645.169932027189 127.1722157852196 L 645.169932027189 134.10024533839805 M 654.0663734506197 119.0825992384159 L 654.0663734506197 121.28510448189374 M 654.0663734506197 123.37796553460143 L 654.0663734506197 130.20697455717578 M 662.9628148740503 110.46300236182009 L 662.9628148740503 116.65679668503319 M 662.9628148740503 121.28510448189374 L 662.9628148740503 124.2637382567464 M 689.6521391443422 111.14231527319124 L 689.6521391443422 111.99581612200164 M 689.6521391443422 121.49497188177737 L 689.6521391443422 126.7995858937357 M 698.5485805677728 107.27590431201139 L 698.5485805677728 109.58083767520323 M 698.5485805677728 111.99581612200164 L 698.5485805677728 121.98867140987038 M 707.4450219912034 77.38934335437142 L 707.4450219912034 80.59608515316634 M 707.4450219912034 109.58083767520323 L 707.4450219912034 110.59208985515826 M 734.1343462614954 79.39380753664105 L 734.1343462614954 82.89961539143059 M 734.1343462614954 96.06493614057744 L 734.1343462614954 98.35844405793036 M 760.8236705317872 73.07974536249175 L 760.8236705317872 78.70747900063193 M 760.8236705317872 86.46535672527003 L 760.8236705317872 86.95705178918074 M 769.7201119552178 65.54897342970477 L 769.7201119552178 66.52795373632529 M 769.7201119552178 78.70727855421369 L 769.7201119552178 83.59035374864072 M 778.6165533786485 62.75675482380322 L 778.6165533786485 65.94986626615872 M 778.6165533786485 66.52815418274349 L 778.6165533786485 73.33331008154885 M 805.3058776489403 54.73889809472476 L 805.3058776489403 58.07492783327609 M 805.3058776489403 73.24010249707331 L 805.3058776489403 75.10425418658406 M 814.202319072371 35.11880178583331 L 814.202319072371 39.11650515095181 M 814.202319072371 58.08474970776919 L 814.202319072371 61.594165598086846 M 823.0987604958016 22.729008228806578 L 823.0987604958016 36.776493664570296 M 823.0987604958016 39.11650515095181 L 823.0987604958016 48.034967637124026 M 831.9952019192323 28.684872653584307 L 831.9952019192323 36.2413017279043 M 831.9952019192323 36.74382089839929 L 831.9952019192323 45.60555704821323 M 840.8916433426629 15.948106346606693 L 840.8916433426629 19.146228949417917 M 840.8916433426629 36.241502174322505 L 840.8916433426629 37.499704341533146 M 849.7880847660936 12.927779716762814 L 849.7880847660936 18.181480338491525 M 849.7880847660936 19.146429395836094 L 849.7880847660936 26.103523679657457 M 876.4774090363853 3.846153846153868 L 876.4774090363853 9.036914292559317 M 876.4774090363853 24.91227061613469 L 876.4774090363853 31.928095700496527" style="stroke-width: 1px;"></path><path class="candle wick down" d="M 4.626149540183927 144.78403942989513 L 4.626149540183927 146.921199141031 M 4.626149540183927 153.65900504331208 L 4.626149540183927 156.2062781261403 M 13.522590963614554 152.15425378168229 L 13.522590963614554 153.65720102554803 M 13.522590963614554 157.47590573918987 L 13.522590963614554 161.35634794964562 M 31.315473810475808 155.00219649185095 L 31.315473810475808 155.49248843083407 M 31.315473810475808 161.9508720261068 L 31.315473810475808 162.86350456829416 M 49.10835665733706 158.20793605855476 L 49.10835665733706 159.30157171640104 M 49.10835665733706 159.6098583076341 L 49.10835665733706 162.2958403118754 M 66.90123950419832 157.21011378862093 L 66.90123950419832 157.6041914468551 M 66.90123950419832 166.21877716299525 L 66.90123950419832 170.2433403481562 M 84.69412235105956 160.7309551247775 L 84.69412235105956 163.3523933823497 M 84.69412235105956 165.97904324679584 L 84.69412235105956 170.09581178434115 M 102.48700519792082 160.97509886217793 L 102.48700519792082 162.03987023579958 M 102.48700519792082 163.2637960654934 L 102.48700519792082 164.24197458644096 M 120.27988804478207 156.55024417981775 L 120.27988804478207 158.34624408713134 M 120.27988804478207 159.5821967019188 L 120.27988804478207 161.17594617324136 M 138.07277089164333 153.4673782674871 L 138.07277089164333 154.120833590907 M 138.07277089164333 164.8132468783878 L 138.07277089164333 169.3922448563645 M 146.96921231507397 163.32874070499892 L 146.96921231507397 164.8132468783878 M 146.96921231507397 189.82274603414757 L 146.96921231507397 193.43178379432405 M 164.7620951619352 181.30718084861155 L 164.7620951619352 183.70111242149616 M 164.7620951619352 189.30479248944908 L 164.7620951619352 196.15384615384616 M 191.4514194322271 183.8664807165334 L 191.4514194322271 185.16036234618844 M 191.4514194322271 190.10737994802986 L 191.4514194322271 195.65273010827875 M 235.93362654938022 181.01793666711006 L 235.93362654938022 183.81296152286683 M 235.93362654938022 185.97457569702638 L 235.93362654938022 188.6371054703351 M 271.51939224310274 171.69016259491843 L 271.51939224310274 173.52324508960396 M 271.51939224310274 173.8042709679582 L 271.51939224310274 177.69613862425285 M 280.4158336665334 171.83909428366104 L 280.4158336665334 173.80407052153996 M 280.4158336665334 173.936565603988 L 280.4158336665334 176.35294717571398 M 298.2087165133947 170.98499209559597 L 298.2087165133947 170.98499209559597 M 298.2087165133947 174.1993508582835 L 298.2087165133947 178.153757797065 M 307.10515793682526 172.824689322083 L 307.10515793682526 174.1993508582835 M 307.10515793682526 184.28300837360905 L 307.10515793682526 186.70580423071831 M 324.89804078368655 181.8790544798131 L 324.89804078368655 182.0301910791562 M 324.89804078368655 187.80605462036613 L 324.89804078368655 189.90352594069304 M 342.6909236305478 177.4014823894592 L 342.6909236305478 177.88656272156848 M 342.6909236305478 178.88197963448357 L 342.6909236305478 181.49640226741784 M 369.38024790083966 173.603624103313 L 369.38024790083966 177.1262694572336 M 369.38024790083966 178.69255776925905 L 369.38024790083966 180.09808805386655 M 387.1731307477009 175.62131774918558 L 387.1731307477009 175.79690881155238 M 387.1731307477009 177.0795654417867 L 387.1731307477009 179.31374121934445 M 396.06957217113154 174.20496335799388 L 396.06957217113154 177.0795654417867 M 396.06957217113154 180.23579474318848 L 396.06957217113154 183.8865253583561 M 404.9660135945622 179.32356309383758 L 404.9660135945622 180.23579474318848 M 404.9660135945622 181.21257013920845 L 404.9660135945622 185.14933779318596 M 413.86245501799283 180.54788981636784 L 413.86245501799283 181.21257013920845 M 413.86245501799283 181.78063528846366 L 413.86245501799283 182.6946709555786 M 440.5517792882847 176.6103203767174 L 440.5517792882847 176.76666858293441 M 440.5517792882847 180.62606391947637 L 440.5517792882847 182.12259687795884 M 502.82686925229905 161.4365265169364 L 502.82686925229905 162.01301041575715 M 502.82686925229905 164.17141744722508 L 502.82686925229905 166.5879994653693 M 511.7233106757297 161.61732918617713 L 511.7233106757297 164.17121700080685 M 511.7233106757297 164.22493664089168 L 511.7233106757297 166.98889230182326 M 529.5161935225909 161.75423408982616 L 529.5161935225909 162.47624208827966 M 529.5161935225909 166.20073698535484 L 529.5161935225909 168.59246364763894 M 591.7912834866053 131.95707223471538 L 591.7912834866053 133.13669940598106 M 591.7912834866053 134.0541426622059 L 591.7912834866053 138.12300450579497 M 609.5841663334666 125.49648372884221 L 609.5841663334666 130.27252053593602 M 609.5841663334666 131.9342213430375 L 609.5841663334666 134.75710825092784 M 636.2734906037584 115.28413961301497 L 636.2734906037584 119.76050902485947 M 636.2734906037584 127.1722157852196 L 636.2734906037584 134.75710825092784 M 671.8592562974809 114.5721539354728 L 671.8592562974809 116.65679668503319 M 671.8592562974809 117.24811361880273 L 671.8592562974809 120.42518934770008 M 680.7556977209116 115.87505565394804 L 680.7556977209116 117.24831406522097 M 680.7556977209116 121.50018348865125 L 680.7556977209116 128.60240097926896 M 716.3414634146341 73.17996857160523 L 716.3414634146341 80.59608515316634 M 716.3414634146341 80.79853603557558 L 716.3414634146341 89.09541417882598 M 725.2379048380647 77.31878621515553 L 725.2379048380647 80.79833558915735 M 725.2379048380647 96.06493614057744 L 725.2379048380647 105.56769993588124 M 743.0307876849259 75.58532559032878 L 743.0307876849259 82.89961539143059 M 743.0307876849259 85.8399639004019 L 743.0307876849259 96.32070577023501 M 751.9272291083566 83.20228948295332 L 751.9272291083566 85.8399639004019 M 751.9272291083566 86.46535672527003 L 751.9272291083566 90.97038997492099 M 787.512994802079 65.82378546909396 L 787.512994802079 65.96309572976168 M 787.512994802079 70.96603788228845 L 787.512994802079 78.99291470018713 M 796.4094362255097 68.77014737061208 L 796.4094362255097 70.98387761351066 M 796.4094362255097 73.24010249707331 L 796.4094362255097 76.89383980851439 M 858.6845261895241 17.25541788628294 L 858.6845261895241 18.181480338491525 M 858.6845261895241 23.981798342725085 L 858.6845261895241 40.08907117218905 M 867.5809676129546 16.934703617119823 L 867.5809676129546 23.992822895727585 M 867.5809676129546 24.912471062552868 L 867.5809676129546 32.28889925330506 M 885.3738504598159 7.872120156242431 L 885.3738504598159 9.037114738977522 M 885.3738504598159 11.430044079771022 L 885.3738504598159 11.579176214931863" style="stroke-width: 1px;"></path><path class="candle wick equal" style="stroke-width: 1px;"></path></g></g><g class="x axis" transform="translate(0,200)" fill="none" font-size="10" font-family="sans-serif" text-anchor="middle"><path class="domain" stroke="#000" d="M0.5,6V0.5H890.5V6"></path><g class="tick" opacity="1" transform="translate(58.004798080767685,0)"><line stroke="#000" y2="6" x1="0.5" x2="0.5"></line><text fill="#000" y="9" x="0.5" dy="0.71em">Aug 24</text></g><g class="tick" opacity="1" transform="translate(120.27988804478207,0)"><line stroke="#000" y2="6" x1="0.5" x2="0.5"></line><text fill="#000" y="9" x="0.5" dy="0.71em">Aug 31</text></g><g class="tick" opacity="1" transform="translate(182.55497800879647,0)"><line stroke="#000" y2="6" x1="0.5" x2="0.5"></line><text fill="#000" y="9" x="0.5" dy="0.71em">Sep  7</text></g><g class="tick" opacity="1" transform="translate(244.83006797281087,0)"><line stroke="#000" y2="6" x1="0.5" x2="0.5"></line><text fill="#000" y="9" x="0.5" dy="0.71em">Sep 14</text></g><g class="tick" opacity="1" transform="translate(307.10515793682526,0)"><line stroke="#000" y2="6" x1="0.5" x2="0.5"></line><text fill="#000" y="9" x="0.5" dy="0.71em">Sep 21</text></g><g class="tick" opacity="1" transform="translate(369.38024790083966,0)"><line stroke="#000" y2="6" x1="0.5" x2="0.5"></line><text fill="#000" y="9" x="0.5" dy="0.71em">Sep 28</text></g><g class="tick" opacity="1" transform="translate(431.65533786485406,0)"><line stroke="#000" y2="6" x1="0.5" x2="0.5"></line><text fill="#000" y="9" x="0.5" dy="0.71em">Oct  5</text></g><g class="tick" opacity="1" transform="translate(493.93042782886846,0)"><line stroke="#000" y2="6" x1="0.5" x2="0.5"></line><text fill="#000" y="9" x="0.5" dy="0.71em">Oct 12</text></g><g class="tick" opacity="1" transform="translate(556.2055177928828,0)"><line stroke="#000" y2="6" x1="0.5" x2="0.5"></line><text fill="#000" y="9" x="0.5" dy="0.71em">Oct 19</text></g><g class="tick" opacity="1" transform="translate(618.4806077568971,0)"><line stroke="#000" y2="6" x1="0.5" x2="0.5"></line><text fill="#000" y="9" x="0.5" dy="0.71em">Oct 26</text></g><g class="tick" opacity="1" transform="translate(680.7556977209116,0)"><line stroke="#000" y2="6" x1="0.5" x2="0.5"></line><text fill="#000" y="9" x="0.5" dy="0.71em">Nov  2</text></g><g class="tick" opacity="1" transform="translate(743.0307876849259,0)"><line stroke="#000" y2="6" x1="0.5" x2="0.5"></line><text fill="#000" y="9" x="0.5" dy="0.71em">Nov  9</text></g><g class="tick" opacity="1" transform="translate(805.3058776489403,0)"><line stroke="#000" y2="6" x1="0.5" x2="0.5"></line><text fill="#000" y="9" x="0.5" dy="0.71em">Nov 16</text></g><g class="tick" opacity="1" transform="translate(867.5809676129546,0)"><line stroke="#000" y2="6" x1="0.5" x2="0.5"></line><text fill="#000" y="9" x="0.5" dy="0.71em">Nov 23</text></g></g><g class="y axis" fill="none" font-size="10" font-family="sans-serif" text-anchor="end"><path class="domain" stroke="#000" d="M-6,200.5H0.5V0.5H-6"></path><g class="tick" opacity="1" transform="translate(0,192.64603383487434)"><line stroke="#000" x2="-6" y1="0.5" y2="0.5"></line><text fill="#000" x="-9" y="0.5" dy="0.32em">10,000</text></g><g class="tick" opacity="1" transform="translate(0,172.60139201217817)"><line stroke="#000" x2="-6" y1="0.5" y2="0.5"></line><text fill="#000" x="-9" y="0.5" dy="0.32em">11,000</text></g><g class="tick" opacity="1" transform="translate(0,152.55675018948202)"><line stroke="#000" x2="-6" y1="0.5" y2="0.5"></line><text fill="#000" x="-9" y="0.5" dy="0.32em">12,000</text></g><g class="tick" opacity="1" transform="translate(0,132.51210836678587)"><line stroke="#000" x2="-6" y1="0.5" y2="0.5"></line><text fill="#000" x="-9" y="0.5" dy="0.32em">13,000</text></g><g class="tick" opacity="1" transform="translate(0,112.4674665440897)"><line stroke="#000" x2="-6" y1="0.5" y2="0.5"></line><text fill="#000" x="-9" y="0.5" dy="0.32em">14,000</text></g><g class="tick" opacity="1" transform="translate(0,92.42282472139354)"><line stroke="#000" x2="-6" y1="0.5" y2="0.5"></line><text fill="#000" x="-9" y="0.5" dy="0.32em">15,000</text></g><g class="tick" opacity="1" transform="translate(0,72.37818289869737)"><line stroke="#000" x2="-6" y1="0.5" y2="0.5"></line><text fill="#000" x="-9" y="0.5" dy="0.32em">16,000</text></g><g class="tick" opacity="1" transform="translate(0,52.33354107600124)"><line stroke="#000" x2="-6" y1="0.5" y2="0.5"></line><text fill="#000" x="-9" y="0.5" dy="0.32em">17,000</text></g><g class="tick" opacity="1" transform="translate(0,32.28889925330506)"><line stroke="#000" x2="-6" y1="0.5" y2="0.5"></line><text fill="#000" x="-9" y="0.5" dy="0.32em">18,000</text></g><g class="tick" opacity="1" transform="translate(0,12.244257430608911)"><line stroke="#000" x2="-6" y1="0.5" y2="0.5"></line><text fill="#000" x="-9" y="0.5" dy="0.32em">19,000</text></g><text transform="rotate(-90)" y="6" dy=".71em" style="text-anchor: end;">Price ($)</text></g></g></svg>