<?xml version="1.0" encoding="utf-8"?>
<!DOCTYPE svg PUBLIC "-//W3C//DTD SVG 1.1//EN" "http://www.w3.org/Graphics/SVG/1.1/DTD/svg11.dtd">
<svg version="1.1" xmlns="http://www.w3.org/2000/svg" width="960" height="250"><g transform="translate(50,20)"><style>.axis path,.axis line{fill:none;stroke:#000;shape-rendering:crispEdges;}path.candle{stroke:#000000;}path.candle.body{stroke-width:0;}path.candle.up{fill:#00AA00;stroke:#00AA00;}path.candle.down{fill:#FF0000;stroke:#FF0000;}</style><g class="candlestick"><g class="data"><path class="candle body up" d="M 1.0675729708116766 193.94052039186488 l 7.1171531387445 0 L 8.184726109556177 192.5342645318323 l -7.1171531387445 0 L 1.0675729708116766 193.94052039186488 M 9.964014394242305 192.53289687430686 l 7.1171531387445 0 L 17.081167532986804 190.74612829831125 l -7.1171531387445 0 L 9.964014394242305 192.53289687430686 M 18.860455817672932 190.74628026025854 l 7.1171531387445 0 L 25.977608956417434 189.97081844334195 l -7.1171531387445 0 L 18.860455817672932 190.74628026025854 M 27.75689724110356 189.97081844334195 l 7.1171531387445 0 L 34.87405037984806 189.1649642369714 l -7.1171531387445 0 L 27.75689724110356 189.97081844334195 M 45.54978008796481 190.80736896306092 l 7.1171531387445 0 L 52.66693322670931 185.6569226842534 l -7.1171531387445 0 L 45.54978008796481 190.80736896306092 M 54.446221511395436 185.6569226842534 l 7.1171531387445 0 L 61.563374650139934 183.93154673495474 l -7.1171531387445 0 L 54.446221511395436 185.6569226842534 M 63.342662934826066 183.93276243053288 l 7.1171531387445 0 L 70.45981607357056 181.3679486845171 l -7.1171531387445 0 L 63.342662934826066 183.93276243053288 M 90.03198720511796 181.68114225783967 l 7.1171531387445 0 L 97.14914034386246 179.4435025842953 l -7.1171531387445 0 L 90.03198720511796 181.68114225783967 M 116.72131147540982 189.5251140520003 l 7.1171531387445 0 L 123.83846461415432 187.8172137266376 l -7.1171531387445 0 L 116.72131147540982 189.5251140520003 M 134.51419432227107 192.19599723721024 l 7.1171531387445 0 L 141.63134746101557 184.67600831462835 l -7.1171531387445 0 L 134.51419432227107 192.19599723721024 M 152.30707716913233 185.43201900229445 l 7.1171531387445 0 L 159.42423030787683 184.79332293792044 l -7.1171531387445 0 L 152.30707716913233 185.43201900229445 M 161.20351859256294 184.7934748998677 l 7.1171531387445 0 L 168.32067173130744 184.09961664863488 l -7.1171531387445 0 L 161.20351859256294 184.7934748998677 M 178.9964014394242 185.28704730459927 l 7.1171531387445 0 L 186.1135545781687 183.09317267186853 l -7.1171531387445 0 L 178.9964014394242 185.28704730459927 M 223.47860855657734 187.62786914033973 l 7.1171531387445 0 L 230.59576169532184 185.73503112515 l -7.1171531387445 0 L 223.47860855657734 187.62786914033973 M 232.37504998000796 185.73518308709723 l 7.1171531387445 0 L 239.49220311875246 183.82669299133875 l -7.1171531387445 0 L 232.37504998000796 185.73518308709723 M 250.16793282686922 186.75287224796153 l 7.1171531387445 0 L 257.28508596561375 185.73867821188443 l -7.1171531387445 0 L 250.16793282686922 186.75287224796153 M 259.06437425029986 185.73852624993717 l 7.1171531387445 0 L 266.1815273890444 181.80012846255175 l -7.1171531387445 0 L 259.06437425029986 185.73852624993717 M 267.9608156737305 181.80210396786623 l 7.1171531387445 0 L 275.07796881247504 179.89954038805126 l -7.1171531387445 0 L 267.9608156737305 181.80210396786623 M 276.85725709716115 179.89954038805126 l 7.1171531387445 0 L 283.9744102359057 176.21324747118604 l -7.1171531387445 0 L 276.85725709716115 179.89954038805126 M 285.7536985205918 176.21324747118604 l 7.1171531387445 0 L 292.8708516593363 175.0613759108827 l -7.1171531387445 0 L 285.7536985205918 176.21324747118604 M 294.65013994402244 175.0613759108827 l 7.1171531387445 0 L 301.76729308276697 172.64168582450935 l -7.1171531387445 0 L 294.65013994402244 175.0613759108827 M 321.3394642143143 174.31873787457633 l 7.1171531387445 0 L 328.45661735305885 172.99317380854387 l -7.1171531387445 0 L 321.3394642143143 174.31873787457633 M 339.13234706117555 175.81784248439064 l 7.1171531387445 0 L 346.2495001999201 175.19540634837446 l -7.1171531387445 0 L 339.13234706117555 175.81784248439064 M 348.02878848460614 175.19373476695452 l 7.1171531387445 0 L 355.14594162335067 173.02326227410325 l -7.1171531387445 0 L 348.02878848460614 175.19373476695452 M 356.9252299080368 173.02326227410325 l 7.1171531387445 0 L 364.0423830467813 169.24959123755804 l -7.1171531387445 0 L 356.9252299080368 173.02326227410325 M 365.8216713314674 169.24974319950533 l 7.1171531387445 0 L 372.93882447021196 166.84069044944084 l -7.1171531387445 0 L 365.8216713314674 169.24974319950533 M 374.7181127548981 166.84053848749357 l 7.1171531387445 0 L 381.8352658936426 153.6052607281032 l -7.1171531387445 0 L 374.7181127548981 166.84053848749357 M 383.61455417832866 153.60845192899583 l 7.1171531387445 0 L 390.7317073170732 150.75506244511513 l -7.1171531387445 0 L 383.61455417832866 153.60845192899583 M 401.40743702518995 151.4458814574026 l 7.1171531387445 0 L 408.5245901639345 148.57881539826766 l -7.1171531387445 0 L 401.40743702518995 151.4458814574026 M 419.20031987205124 149.82627102340354 l 7.1171531387445 0 L 426.31747301079577 149.48359683231064 l -7.1171531387445 0 L 419.20031987205124 149.82627102340354 M 428.0967612954818 149.48420468009974 l 7.1171531387445 0 L 435.21391443422635 140.60932303566238 l -7.1171531387445 0 L 428.0967612954818 149.48420468009974 M 445.8896441423431 146.22841995984925 l 7.1171531387445 0 L 453.00679728108764 143.35178029803626 l -7.1171531387445 0 L 445.8896441423431 146.22841995984925 M 454.7860855657737 143.35193225998356 l 7.1171531387445 0 L 461.90323870451823 141.765297568542 l -7.1171531387445 0 L 454.7860855657737 143.35193225998356 M 463.68252698920435 141.765297568542 l 7.1171531387445 0 L 470.7996801279489 138.25649620608763 l -7.1171531387445 0 L 463.68252698920435 141.765297568542 M 490.3718512594962 141.92440172733325 l 7.1171531387445 0 L 497.48900439824075 134.72292504622834 l -7.1171531387445 0 L 490.3718512594962 141.92440172733325 M 499.2682926829268 134.72292504622834 l 7.1171531387445 0 L 506.38544582167134 132.8920875055246 l -7.1171531387445 0 L 499.2682926829268 134.72292504622834 M 508.16473410635746 132.8920875055246 l 7.1171531387445 0 L 515.281887245102 110.91823796839762 l -7.1171531387445 0 L 508.16473410635746 132.8920875055246 M 534.8540583766493 122.64544536308483 l 7.1171531387445 0 L 541.9712115153937 112.66458466641951 l -7.1171531387445 0 L 534.8540583766493 122.64544536308483 M 561.5433826469413 115.3678357463979 l 7.1171531387445 0 L 568.6605357856857 109.48645250122375 l -7.1171531387445 0 L 561.5433826469413 115.3678357463979 M 570.4398240703717 109.48630053927648 l 7.1171531387445 0 L 577.5569772091162 100.2529406612302 l -7.1171531387445 0 L 570.4398240703717 109.48630053927648 M 579.3362654938024 100.25309262317747 l 7.1171531387445 0 L 586.4534186325469 99.81468240530475 l -7.1171531387445 0 L 579.3362654938024 100.25309262317747 M 606.0255897640943 105.34153842749899 l 7.1171531387445 0 L 613.1427429028388 93.84455338292521 l -7.1171531387445 0 L 606.0255897640943 105.34153842749899 M 614.9220311875249 93.85199951834137 l 7.1171531387445 0 L 622.0391843262694 79.47184044822208 l -7.1171531387445 0 L 614.9220311875249 93.85199951834137 M 623.8184726109555 79.47184044822208 l 7.1171531387445 0 L 630.9356257497 77.69783667579718 l -7.1171531387445 0 L 623.8184726109555 79.47184044822208 M 632.7149140343862 77.67306687839222 l 7.1171531387445 0 L 639.8320671731307 77.29209827658741 l -7.1171531387445 0 L 632.7149140343862 77.67306687839222 M 641.6113554578168 77.29225023853465 l 7.1171531387445 0 L 648.7285085965613 64.33202360370223 l -7.1171531387445 0 L 641.6113554578168 77.29225023853465 M 650.5077968812475 64.33217556564946 l 7.1171531387445 0 L 657.624950019992 63.60063075149378 l -7.1171531387445 0 L 650.5077968812475 64.33217556564946 M 677.1971211515394 68.70336097885865 l 7.1171531387445 0 L 684.3142742902838 56.66797475510879 l -7.1171531387445 0 L 677.1971211515394 68.70336097885865 M 712.7828868452618 87.37158227703065 l 7.1171531387445 0 L 719.9000399840063 78.55292655308304 l -7.1171531387445 0 L 712.7828868452618 87.37158227703065 M 721.6793282686924 78.55307851503028 l 7.1171531387445 0 L 728.7964814074369 71.48456853778626 l -7.1171531387445 0 L 721.6793282686924 78.55307851503028 M 730.5757696921231 71.48441657583902 l 7.1171531387445 0 L 737.6929228308676 48.52494184872165 l -7.1171531387445 0 L 730.5757696921231 71.48441657583902 M 748.3686525389844 62.67123148199309 l 7.1171531387445 0 L 755.4858056777289 55.9981264915445 l -7.1171531387445 0 L 748.3686525389844 62.67123148199309 M 757.265093962415 55.998278453491736 l 7.1171531387445 0 L 764.3822471011595 52.688243318066014 l -7.1171531387445 0 L 757.265093962415 55.998278453491736 M 775.0579768092763 64.41043596849332 l 7.1171531387445 0 L 782.1751299480208 56.85564775998668 l -7.1171531387445 0 L 775.0579768092763 64.41043596849332 M 783.9544182327068 56.85564775998668 l 7.1171531387445 0 L 791.0715713714512 53.638005488500795 l -7.1171531387445 0 L 783.9544182327068 56.85564775998668 M 810.6437425029987 69.37047392737205 l 7.1171531387445 0 L 817.7608956417432 66.07031631851882 l -7.1171531387445 0 L 810.6437425029987 69.37047392737205 M 837.3330667732906 73.74059560695032 l 7.1171531387445 0 L 844.4502199120351 62.00670188658327 l -7.1171531387445 0 L 837.3330667732906 73.74059560695032 M 846.2295081967213 62.00670188658327 l 7.1171531387445 0 L 853.3466613354658 56.44033575809891 l -7.1171531387445 0 L 846.2295081967213 62.00670188658327 M 855.1259496201519 56.44033575809891 l 7.1171531387445 0 L 862.2431027588964 54.94882924564814 l -7.1171531387445 0 L 855.1259496201519 56.44033575809891 M 864.0223910435824 54.94047133854832 l 7.1171531387445 0 L 871.1395441823269 52.61940455595291 l -7.1171531387445 0 L 864.0223910435824 54.94047133854832 M 872.9188324670131 52.61940455595291 l 7.1171531387445 0 L 880.0359856057576 23.608501164666762 l -7.1171531387445 0 L 872.9188324670131 52.61940455595291 M 881.8152738904437 23.608501164666762 l 7.1171531387445 0 L 888.9324270291881 4.824636824622587 l -7.1171531387445 0 L 881.8152738904437 23.608501164666762"></path><path class="candle body down" d="M 36.65333866453418 189.16876328565314 l 7.1171531387445 0 L 43.77049180327868 190.8075209250082 l -7.1171531387445 0 L 36.65333866453418 189.16876328565314 M 72.23910435825668 181.3679486845171 l 7.1171531387445 0 L 79.35625749700118 181.58099933458902 l -7.1171531387445 0 L 72.23910435825668 181.3679486845171 M 81.13554578168731 181.58084737264176 l 7.1171531387445 0 L 88.25269892043181 181.68129421978696 l -7.1171531387445 0 L 81.13554578168731 181.58084737264176 M 98.92842862854857 179.44365454624256 l 7.1171531387445 0 L 106.04558176729307 181.88051633265735 l -7.1171531387445 0 L 98.92842862854857 179.44365454624256 M 107.82487005197919 181.88051633265735 l 7.1171531387445 0 L 114.94202319072369 189.5251140520003 l -7.1171531387445 0 L 107.82487005197919 181.88051633265735 M 125.61775289884046 187.8172137266376 l 7.1171531387445 0 L 132.73490603758498 192.19599723721024 l -7.1171531387445 0 L 125.61775289884046 187.8172137266376 M 143.4106357457017 184.67585635268108 l 7.1171531387445 0 L 150.5277888844462 185.43049938282175 l -7.1171531387445 0 L 143.4106357457017 184.67585635268108 M 170.09996001599356 184.09946468668758 l 7.1171531387445 0 L 177.21711315473806 185.286895342652 l -7.1171531387445 0 L 170.09996001599356 184.09946468668758 M 187.89284286285485 183.09165305239583 l 7.1171531387445 0 L 195.00999600159935 184.0640575529738 l -7.1171531387445 0 L 187.89284286285485 183.09165305239583 M 196.78928428628546 184.0640575529738 l 7.1171531387445 0 L 203.90643742502996 186.45685037468044 l -7.1171531387445 0 L 196.78928428628546 184.0640575529738 M 205.68572570971608 186.45685037468044 l 7.1171531387445 0 L 212.80287884846058 187.19736094372504 l -7.1171531387445 0 L 205.68572570971608 186.45685037468044 M 214.5821671331467 187.19736094372504 l 7.1171531387445 0 L 221.6993202718912 187.628021102287 l -7.1171531387445 0 L 214.5821671331467 187.19736094372504 M 241.2714914034386 183.82684495328598 l 7.1171531387445 0 L 248.3886445421831 186.75272028601427 l -7.1171531387445 0 L 241.2714914034386 183.82684495328598 M 303.54658136745303 172.64183778645665 l 7.1171531387445 0 L 310.66373450619756 174.27816403465536 l -7.1171531387445 0 L 303.54658136745303 172.64183778645665 M 312.4430227908837 174.2780120727081 l 7.1171531387445 0 L 319.5601759296282 174.31873787457633 l -7.1171531387445 0 L 312.4430227908837 174.2780120727081 M 330.23590563774496 172.9930218465966 l 7.1171531387445 0 L 337.3530587764895 175.81662678881247 l -7.1171531387445 0 L 330.23590563774496 172.9930218465966 M 392.5109956017593 150.75019966280252 l 7.1171531387445 0 L 399.62814874050383 151.44572949545534 l -7.1171531387445 0 L 392.5109956017593 150.75019966280252 M 410.3038784486206 148.57881539826766 l 7.1171531387445 0 L 417.4210315873651 149.83857994113237 l -7.1171531387445 0 L 410.3038784486206 148.57881539826766 M 436.99320271891247 140.60947499760965 l 7.1171531387445 0 L 444.110355857657 146.22841995984925 l -7.1171531387445 0 L 436.99320271891247 140.60947499760965 M 472.57896841263494 138.25649620608763 l 7.1171531387445 0 L 479.69612155137946 138.70478395053286 l -7.1171531387445 0 L 472.57896841263494 138.25649620608763 M 481.47540983606564 138.70493591248012 l 7.1171531387445 0 L 488.59256297481016 141.9283527379622 l -7.1171531387445 0 L 481.47540983606564 138.70493591248012 M 517.0611755297881 110.91823796839762 l 7.1171531387445 0 L 524.1783286685326 111.07171953513989 l -7.1171531387445 0 L 517.0611755297881 110.91823796839762 M 525.9576169532187 111.07156757319262 l 7.1171531387445 0 L 533.0747700919632 122.64544536308483 l -7.1171531387445 0 L 525.9576169532187 111.07156757319262 M 543.75049980008 112.66458466641951 l 7.1171531387445 0 L 550.8676529388244 114.89371447091683 l -7.1171531387445 0 L 543.75049980008 112.66458466641951 M 552.6469412235106 114.89371447091683 l 7.1171531387445 0 L 559.764094362255 115.3678357463979 l -7.1171531387445 0 L 552.6469412235106 114.89371447091683 M 588.232706917233 99.82471189382454 l 7.1171531387445 0 L 595.3498600559775 103.61753013572572 l -7.1171531387445 0 L 588.232706917233 99.82471189382454 M 597.1291483406637 103.63105474903273 l 7.1171531387445 0 L 604.2463014794082 105.34153842749899 l -7.1171531387445 0 L 597.1291483406637 103.63105474903273 M 659.4042383046781 63.60063075149378 l 7.1171531387445 0 L 666.5213914434225 67.99795361963328 l -7.1171531387445 0 L 659.4042383046781 63.60063075149378 M 668.3006797281087 68.0063115267331 l 7.1171531387445 0 L 675.4178328668531 68.7035129408059 l -7.1171531387445 0 L 668.3006797281087 68.0063115267331 M 686.09356257497 56.668126717056026 l 7.1171531387445 0 L 693.2107157137144 63.36797701022405 l -7.1171531387445 0 L 686.09356257497 56.668126717056026 M 694.9900039984005 63.3722319447476 l 7.1171531387445 0 L 702.107157137145 87.22053210144468 l -7.1171531387445 0 L 694.9900039984005 63.3722319447476 M 703.8864454218311 87.22053210144468 l 7.1171531387445 0 L 711.0035985605756 87.37173423897791 l -7.1171531387445 0 L 703.8864454218311 87.22053210144468 M 739.4722111155537 48.52494184872165 l 7.1171531387445 0 L 746.5893642542982 62.67123148199309 l -7.1171531387445 0 L 739.4722111155537 48.52494184872165 M 766.1615353858456 52.681556992386135 l 7.1171531387445 0 L 773.27868852459 64.41028400654602 l -7.1171531387445 0 L 766.1615353858456 52.681556992386135 M 792.8508596561375 53.64909871065154 l 7.1171531387445 0 L 799.9680127948819 56.56327297344001 l -7.1171531387445 0 L 792.8508596561375 53.64909871065154 M 801.747301079568 56.56327297344001 l 7.1171531387445 0 L 808.8644542183125 69.37047392737205 l -7.1171531387445 0 L 801.747301079568 56.56327297344001 M 819.5401839264293 66.07016435657152 l 7.1171531387445 0 L 826.6573370651738 70.42630553700099 l -7.1171531387445 0 L 819.5401839264293 66.07016435657152 M 828.43662534986 70.42357022195014 l 7.1171531387445 0 L 835.5537784886045 73.74059560695032 l -7.1171531387445 0 L 828.43662534986 70.42357022195014"></path><path class="candle body equal"></path><path class="candle wick up" d="M 4.626149540183927 190.65297562463502 L 4.626149540183927 192.5342645318323 M 4.626149540183927 193.94052039186488 L 4.626149540183927 196.15384615384616 M 13.522590963614554 188.52018969470663 L 13.522590963614554 190.74612829831125 M 13.522590963614554 192.53289687430686 L 13.522590963614554 194.78892394347088 M 22.41903238704518 189.82326339254317 L 22.41903238704518 189.97081844334195 M 22.41903238704518 190.74628026025854 L 22.41903238704518 192.82603147058987 M 31.315473810475808 188.60194522233766 L 31.315473810475808 189.1649642369714 M 31.315473810475808 189.97081844334195 L 31.315473810475808 191.7736949857481 M 49.10835665733706 184.46812437076358 L 49.10835665733706 185.6569226842534 M 49.10835665733706 190.80736896306092 L 49.10835665733706 192.6385104276592 M 58.004798080767685 181.73220147212223 L 58.004798080767685 183.93154673495474 M 58.004798080767685 185.6569226842534 L 58.004798080767685 186.64908223797644 M 66.90123950419832 179.25582957941737 L 66.90123950419832 181.3679486845171 M 66.90123950419832 183.93276243053288 L 66.90123950419832 185.81724253862282 M 93.5905637744902 177.93695183906476 L 93.5905637744902 179.4435025842953 M 93.5905637744902 181.68114225783967 L 93.5905637744902 182.3806231011215 M 120.27988804478207 187.16225773390576 L 120.27988804478207 187.8172137266376 M 120.27988804478207 189.5251140520003 L 120.27988804478207 190.50101367736545 M 138.07277089164333 183.78064852131604 L 138.07277089164333 184.67600831462835 M 138.07277089164333 192.19599723721024 L 138.07277089164333 192.96386095676337 M 155.8656537385046 183.39010631683323 L 155.8656537385046 184.79332293792044 M 155.8656537385046 185.43201900229445 L 155.8656537385046 186.06858759940667 M 164.7620951619352 183.7235108291427 L 164.7620951619352 184.09961664863488 M 164.7620951619352 184.7934748998677 L 164.7620951619352 186.82626986849274 M 182.55497800879647 182.68196364255704 L 182.55497800879647 183.09317267186853 M 182.55497800879647 185.28704730459927 L 182.55497800879647 186.20246607495116 M 227.0371851259496 185.27549819660678 L 227.0371851259496 185.73503112515 M 227.0371851259496 187.62786914033973 L 227.0371851259496 187.99561705273206 M 235.93362654938022 183.73870702386964 L 235.93362654938022 183.82669299133875 M 235.93362654938022 185.73518308709723 L 235.93362654938022 186.5098850942775 M 253.72650939624148 185.50344111751113 L 253.72650939624148 185.73867821188443 M 253.72650939624148 186.75287224796153 L 253.72650939624148 187.5655647419592 M 262.6229508196721 181.4288854253722 L 262.6229508196721 181.80012846255175 M 262.6229508196721 185.73852624993717 L 262.6229508196721 187.80505677085603 M 271.51939224310274 179.07894587279557 L 271.51939224310274 179.89954038805126 M 271.51939224310274 181.80210396786623 L 271.51939224310274 183.267624987334 M 280.4158336665334 173.2077440780885 L 280.4158336665334 176.21324747118604 M 280.4158336665334 179.89954038805126 L 280.4158336665334 179.90151589336574 M 289.31227508996403 173.90676903552853 L 289.31227508996403 175.0613759108827 M 289.31227508996403 176.21324747118604 L 289.31227508996403 177.31071665436687 M 298.2087165133947 169.7276635236681 L 298.2087165133947 172.64168582450935 M 298.2087165133947 175.0613759108827 L 298.2087165133947 178.05533019598775 M 324.89804078368655 171.28785683628476 L 324.89804078368655 172.99317380854387 M 324.89804078368655 174.31873787457633 L 324.89804078368655 176.85741416566174 M 342.6909236305478 174.55382300700234 L 342.6909236305478 175.19540634837446 M 342.6909236305478 175.81784248439064 L 342.6909236305478 176.79404603365035 M 351.5873650539784 172.9949973519111 L 351.5873650539784 173.02326227410325 M 351.5873650539784 175.19373476695452 L 351.5873650539784 175.40784915065734 M 360.483806477409 168.14756319595912 L 360.483806477409 169.24959123755804 M 360.483806477409 173.02326227410325 L 360.483806477409 174.46963608821503 M 369.38024790083966 164.88965100844686 L 369.38024790083966 166.84069044944084 M 369.38024790083966 169.24974319950533 L 369.38024790083966 170.37228610398563 M 378.2766893242703 146.96877856694655 L 378.2766893242703 153.6052607281032 M 378.2766893242703 166.84053848749357 L 378.2766893242703 167.1908107759499 M 387.1731307477009 147.46539021062353 L 387.1731307477009 150.75506244511513 M 387.1731307477009 153.60845192899583 L 387.1731307477009 155.16864524161252 M 404.9660135945622 147.74302468828503 L 404.9660135945622 148.57881539826766 M 404.9660135945622 151.4458814574026 L 404.9660135945622 152.25219154961493 M 422.7588964414235 146.64768297236597 L 422.7588964414235 149.48359683231064 M 422.7588964414235 149.82627102340354 L 422.7588964414235 153.8477919959454 M 431.65533786485406 138.28248169907073 L 431.65533786485406 140.60932303566238 M 431.65533786485406 149.48420468009974 L 431.65533786485406 149.9747378458859 M 449.44822071171535 140.50690068320267 L 449.44822071171535 143.35178029803626 M 449.44822071171535 146.22841995984925 L 449.44822071171535 151.48068074332733 M 458.34466213514594 140.09553969194397 L 458.34466213514594 141.765297568542 M 458.34466213514594 143.35193225998356 L 458.34466213514594 148.5291238415105 M 467.2411035585766 133.56087203545798 L 467.2411035585766 138.25649620608763 M 467.2411035585766 141.765297568542 L 467.2411035585766 144.02345210496776 M 493.93042782886846 134.0758710747545 L 493.93042782886846 134.72292504622834 M 493.93042782886846 141.92440172733325 L 493.93042782886846 145.9459226998751 M 502.82686925229905 131.1446770738718 L 502.82686925229905 132.8920875055246 M 502.82686925229905 134.72292504622834 L 502.82686925229905 142.29868400345816 M 511.7233106757297 108.48715073597907 L 511.7233106757297 110.91823796839762 M 511.7233106757297 132.8920875055246 L 511.7233106757297 133.65873552949955 M 538.4126349460215 110.00677020867475 L 538.4126349460215 112.66458466641951 M 538.4126349460215 122.64544536308483 L 538.4126349460215 124.38419396374323 M 565.1019592163135 105.21996886968333 L 565.1019592163135 109.48645250122375 M 565.1019592163135 115.3678357463979 L 565.1019592163135 115.74059840305013 M 573.998400639744 99.51075851076561 L 573.998400639744 100.2529406612302 M 573.998400639744 109.48630053927648 L 573.998400639744 113.18824553671047 M 582.8948420631747 97.39392858530054 L 582.8948420631747 99.81468240530475 M 582.8948420631747 100.25309262317747 L 582.8948420631747 105.41220073297933 M 609.5841663334666 91.31545069451776 L 609.5841663334666 93.84455338292521 M 609.5841663334666 105.34153842749899 L 609.5841663334666 106.75478453710598 M 618.4806077568971 76.44111137187781 L 618.4806077568971 79.47184044822208 M 618.4806077568971 93.85199951834137 L 618.4806077568971 96.51254929113702 M 627.3770491803277 67.04819144919847 L 627.3770491803277 77.69783667579718 M 627.3770491803277 79.47184044822208 L 627.3770491803277 86.23308336808702 M 636.2734906037584 71.56343678841918 L 636.2734906037584 77.29209827658741 M 636.2734906037584 77.67306687839222 L 636.2734906037584 84.39130456717983 M 645.169932027189 61.907470735016204 L 645.169932027189 64.33202360370223 M 645.169932027189 77.29225023853465 L 645.169932027189 78.24611538154574 M 654.0663734506197 59.617708113558365 L 654.0663734506197 63.60063075149378 M 654.0663734506197 64.33217556564946 L 654.0663734506197 69.60647083148166 M 680.7556977209116 52.73276816861599 L 680.7556977209116 56.66797475510879 M 680.7556977209116 68.70336097885865 L 680.7556977209116 74.02218109524081 M 716.3414634146341 76.11180983214463 L 716.3414634146341 78.55292655308304 M 716.3414634146341 87.37158227703065 L 716.3414634146341 91.534883746375 M 725.2379048380647 68.82432268888522 L 725.2379048380647 71.48456853778626 M 725.2379048380647 78.55307851503028 L 725.2379048380647 81.63547465344622 M 734.1343462614954 45.98277043284901 L 734.1343462614954 48.52494184872165 M 734.1343462614954 71.48441657583902 L 734.1343462614954 71.48456853778626 M 751.9272291083566 53.90241927674987 L 751.9272291083566 55.9981264915445 M 751.9272291083566 62.67123148199309 L 751.9272291083566 69.28096834043026 M 760.8236705317872 50.012193426648906 L 760.8236705317872 52.688243318066014 M 760.8236705317872 55.998278453491736 L 760.8236705317872 61.11757253310901 M 778.6165533786485 56.409791406697764 L 778.6165533786485 56.85564775998668 M 778.6165533786485 64.41043596849332 L 778.6165533786485 66.69761523684758 M 787.512994802079 52.71711608804722 L 787.512994802079 53.638005488500795 M 787.512994802079 56.85564775998668 L 787.512994802079 61.27257371932399 M 814.202319072371 64.57668233880622 L 814.202319072371 66.07031631851882 M 814.202319072371 69.37047392737205 L 814.202319072371 79.61438075476094 M 840.8916433426629 59.87969051065113 L 840.8916433426629 62.00670188658327 M 840.8916433426629 73.74059560695032 L 840.8916433426629 73.98115136947803 M 849.7880847660936 52.85388184058985 L 849.7880847660936 56.44033575809891 M 849.7880847660936 62.00670188658327 L 849.7880847660936 63.489394606092475 M 858.6845261895241 53.796045913661175 L 858.6845261895241 54.94882924564814 M 858.6845261895241 56.44033575809891 L 858.6845261895241 59.09951787336914 M 867.5809676129546 50.43768687900371 L 867.5809676129546 52.61940455595291 M 867.5809676129546 54.94047133854832 L 867.5809676129546 58.33970813702129 M 876.4774090363853 20.19725937235947 L 876.4774090363853 23.608501164666762 M 876.4774090363853 52.61940455595291 L 876.4774090363853 54.86585802243897 M 885.3738504598159 3.846153846153868 L 885.3738504598159 4.824636824622587 M 885.3738504598159 23.608501164666762 L 885.3738504598159 25.212003632255232" style="stroke-width: 1px;"></path><path class="candle wick down" d="M 40.21191523390643 187.04980589292626 L 40.21191523390643 189.16876328565314 M 40.21191523390643 190.8075209250082 L 40.21191523390643 192.82603147058987 M 75.79768092762893 179.9782566767369 L 75.79768092762893 181.3679486845171 M 75.79768092762893 181.58099933458902 L 75.79768092762893 184.531492502775 M 84.69412235105956 180.09116440355817 L 84.69412235105956 181.58084737264176 M 84.69412235105956 181.68129421978696 L 84.69412235105956 183.5131954941216 M 102.48700519792082 179.44365454624256 L 102.48700519792082 179.44365454624256 M 102.48700519792082 181.88051633265735 L 102.48700519792082 184.8784216283914 M 111.38344662135144 180.83836129828262 L 111.38344662135144 181.88051633265735 M 111.38344662135144 189.5251140520003 L 111.38344662135144 191.36187810864757 M 129.1763294682127 187.70263441839634 L 129.1763294682127 187.8172137266376 M 129.1763294682127 192.19599723721024 L 129.1763294682127 193.786127053439 M 146.96921231507397 184.3081084402887 L 146.96921231507397 184.67585635268108 M 146.96921231507397 185.43049938282175 L 146.96921231507397 187.41253906105874 M 173.65853658536582 181.4288854253722 L 173.65853658536582 184.09946468668758 M 173.65853658536582 185.286895342652 L 173.65853658536582 186.35245251690623 M 191.4514194322271 182.95853438658767 L 191.4514194322271 183.09165305239583 M 191.4514194322271 184.0640575529738 L 191.4514194322271 185.7578254172404 M 200.34786085565773 181.8847712671809 L 200.34786085565773 184.0640575529738 M 200.34786085565773 186.45685037468044 L 200.34786085565773 189.22453332030108 M 209.24430227908834 185.76527155265663 L 209.24430227908834 186.45685037468044 M 209.24430227908834 187.19736094372504 L 209.24430227908834 190.18189358809937 M 218.14074370251896 186.69345512657915 L 218.14074370251896 187.19736094372504 M 218.14074370251896 187.628021102287 L 218.14074370251896 188.32096758183624 M 244.83006797281087 183.70831463441573 L 244.83006797281087 183.82684495328598 M 244.83006797281087 186.75272028601427 L 244.83006797281087 187.88726818432886 M 307.10515793682526 172.20479522610935 L 307.10515793682526 172.64183778645665 M 307.10515793682526 174.27816403465536 L 307.10515793682526 176.11021727093728 M 316.0015993602559 172.34186490254652 L 316.0015993602559 174.2780120727081 M 316.0015993602559 174.31873787457633 L 316.0015993602559 176.41414116547642 M 333.7944822071172 172.44565491253164 L 333.7944822071172 172.9930218465966 M 333.7944822071172 175.81662678881247 L 333.7944822071172 177.62983674363295 M 396.06957217113154 149.8559036031211 L 396.06957217113154 150.75019966280252 M 396.06957217113154 151.44572949545534 L 396.06957217113154 154.5304050630803 M 413.86245501799283 144.95801808067563 L 413.86245501799283 148.57881539826766 M 413.86245501799283 149.83857994113237 L 413.86245501799283 151.9786600445297 M 440.5517792882847 137.21586079118563 L 440.5517792882847 140.60947499760965 M 440.5517792882847 146.22841995984925 L 440.5517792882847 151.9786600445297 M 476.13754498200717 136.67609195448412 L 476.13754498200717 138.25649620608763 M 476.13754498200717 138.70478395053286 L 476.13754498200717 141.11338081475554 M 485.0339864054379 137.66384461173632 L 485.0339864054379 138.70493591248012 M 485.0339864054379 141.9283527379622 L 485.0339864054379 147.31266845361762 M 520.6197520991603 105.29594984331811 L 520.6197520991603 110.91823796839762 M 520.6197520991603 111.07171953513989 L 520.6197520991603 117.3617284565219 M 529.5161935225909 108.43366013054016 L 529.5161935225909 111.07156757319262 M 529.5161935225909 122.64544536308483 L 529.5161935225909 129.84965735924055 M 547.3090763694522 107.11949321055295 L 547.3090763694522 112.66458466641951 M 547.3090763694522 114.89371447091683 L 547.3090763694522 122.83934880780076 M 556.2055177928828 112.89404720679657 L 556.2055177928828 114.89371447091683 M 556.2055177928828 115.3678357463979 L 556.2055177928828 118.78318051128146 M 591.7912834866053 99.71909834047221 L 591.7912834866053 99.82471189382454 M 591.7912834866053 103.61753013572572 L 591.7912834866053 109.70284631413561 M 600.687724910036 101.9527870033876 L 600.687724910036 103.63105474903273 M 600.687724910036 105.34153842749899 L 600.687724910036 108.11150080232869 M 662.9628148740503 62.898566555108374 L 662.9628148740503 63.60063075149378 M 662.9628148740503 67.99795361963328 L 662.9628148740503 80.20915981637404 M 671.8592562974809 62.65542743947705 L 671.8592562974809 68.0063115267331 M 671.8592562974809 68.7035129408059 L 671.8592562974809 74.29571260032604 M 689.6521391443422 51.74136842462934 L 689.6521391443422 56.668126717056026 M 689.6521391443422 63.36797701022405 L 689.6521391443422 66.6935122642713 M 698.5485805677728 60.390738539318676 L 698.5485805677728 63.3722319447476 M 698.5485805677728 87.22053210144468 L 698.5485805677728 101.83121744557194 M 707.4450219912034 82.53782469633293 L 707.4450219912034 87.22053210144468 M 707.4450219912034 87.37173423897791 L 707.4450219912034 98.03095306825453 M 743.0307876849259 45.60529695583142 L 743.0307876849259 48.52494184872165 M 743.0307876849259 62.67123148199309 L 743.0307876849259 74.27869286223185 M 769.7201119552178 51.09112325226286 L 769.7201119552178 52.681556992386135 M 769.7201119552178 64.41028400654602 L 769.7201119552178 65.70515175923 M 796.4094362255097 52.70328755084569 L 796.4094362255097 53.64909871065154 M 796.4094362255097 56.56327297344001 L 796.4094362255097 60.57537230525119 M 805.3058776489403 54.619071820073174 L 805.3058776489403 56.56327297344001 M 805.3058776489403 69.37047392737205 L 805.3058776489403 71.25647365493467 M 823.0987604958016 65.82656935509843 L 823.0987604958016 66.07016435657152 M 823.0987604958016 70.42630553700099 L 823.0987604958016 75.64635038765799 M 831.9952019192323 69.84733051790394 L 831.9952019192323 70.42357022195014 M 831.9952019192323 73.74059560695032 L 831.9952019192323 80.79466919920367" style="stroke-width: 1px;"></path><path class="candle wick equal" style="stroke-width: 1px;"></path></g></g><g class="x axis" transform="translate(0,200)" fill="none" font-size="10" font-family="sans-serif" text-anchor="middle"><path class="domain" stroke="#000" d="M0.5,6V0.5H890.5V6"></path><g class="tick" opacity="1" transform="translate(49.10835665733706,0)"><line stroke="#000" y2="6" x1="0.5" x2="0.5"></line><text fill="#000" y="9" x="0.5" dy="0.71em">Sep 14</text></g><g class="tick" opacity="1" transform="translate(111.38344662135144,0)"><line stroke="#000" y2="6" x1="0.5" x2="0.5"></line><text fill="#000" y="9" x="0.5" dy="0.71em">Sep 21</text></g><g class="tick" opacity="1" transform="translate(173.65853658536582,0)"><line stroke="#000" y2="6" x1="0.5" x2="0.5"></line><text fill="#000" y="9" x="0.5" dy="0.71em">Sep 28</text></g><g class="tick" opacity="1" transform="translate(235.93362654938022,0)"><line stroke="#000" y2="6" x1="0.5" x2="0.5"></line><text fill="#000" y="9" x="0.5" dy="0.71em">Oct  5</text></g><g class="tick" opacity="1" transform="translate(298.2087165133947,0)"><line stroke="#000" y2="6" x1="0.5" x2="0.5"></line><text fill="#000" y="9" x="0.5" dy="0.71em">Oct 12</text></g><g class="tick" opacity="1" transform="translate(360.483806477409,0)"><line stroke="#000" y2="6" x1="0.5" x2="0.5"></line><text fill="#000" y="9" x="0.5" dy="0.71em">Oct 19</text></g><g class="tick" opacity="1" transform="translate(422.7588964414235,0)"><line stroke="#000" y2="6" x1="0.5" x2="0.5"></line><text fill="#000" y="9" x="0.5" dy="0.71em">Oct 26</text></g><g class="tick" opacity="1" transform="translate(485.0339864054379,0)"><line stroke="#000" y2="6" x1="0.5" x2="0.5"></line><text fill="#000" y="9" x="0.5" dy="0.71em">Nov  2</text></g><g class="tick" opacity="1" transform="translate(547.3090763694522,0)"><line stroke="#000" y2="6" x1="0.5" x2="0.5"></line><text fill="#000" y="9" x="0.5" dy="0.71em">Nov  9</text></g><g class="tick" opacity="1" transform="translate(609.5841663334666,0)"><line stroke="#000" y2="6" x1="0.5" x2="0.5"></line><text fill="#000" y="9" x="0.5" dy="0.71em">Nov 16</text></g><g class="tick" opacity="1" transform="translate(671.8592562974809,0)"><line stroke="#000" y2="6" x1="0.5" x2="0.5"></line><text fill="#000" y="9" x="0.5" dy="0.71em">Nov 23</text></g><g class="tick" opacity="1" transform="translate(734.1343462614954,0)"><line stroke="#000" y2="6" x1="0.5" x2="0.5"></line><text fill="#000" y="9" x="0.5" dy="0.71em">Nov 30</text></g><g class="tick" opacity="1" transform="translate(796.4094362255097,0)"><line stroke="#000" y2="6" x1="0.5" x2="0.5"></line><text fill="#000" y="9" x="0.5" dy="0.71em">Dec  7</text></g><g class="tick" opacity="1" transform="translate(858.6845261895241,0)"><line stroke="#000" y2="6" x1="0.5" x2="0.5"></line><text fill="#000" y="9" x="0.5" dy="0.71em">Dec 14</text></g></g><g class="y axis" fill="none" font-size="10" font-family="sans-serif" text-anchor="end"><path class="domain" stroke="#000" d="M-6,200.5H0.5V0.5H-6"></path><g class="tick" opacity="1" transform="translate(0,195.86527041598126)"><line stroke="#000" x2="-6" y1="0.5" y2="0.5"></line><text fill="#000" x="-9" y="0.5" dy="0.32em">10,000</text></g><g class="tick" opacity="1" transform="translate(0,180.66907568902434)"><line stroke="#000" x2="-6" y1="0.5" y2="0.5"></line><text fill="#000" x="-9" y="0.5" dy="0.32em">11,000</text></g><g class="tick" opacity="1" transform="translate(0,165.47288096206745)"><line stroke="#000" x2="-6" y1="0.5" y2="0.5"></line><text fill="#000" x="-9" y="0.5" dy="0.32em">12,000</text></g><g class="tick" opacity="1" transform="translate(0,150.27668623511056)"><line stroke="#000" x2="-6" y1="0.5" y2="0.5"></line><text fill="#000" x="-9" y="0.5" dy="0.32em">13,000</text></g><g class="tick" opacity="1" transform="translate(0,135.08049150815364)"><line stroke="#000" x2="-6" y1="0.5" y2="0.5"></line><text fill="#000" x="-9" y="0.5" dy="0.32em">14,000</text></g><g class="tick" opacity="1" transform="translate(0,119.88429678119674)"><line stroke="#000" x2="-6" y1="0.5" y2="0.5"></line><text fill="#000" x="-9" y="0.5" dy="0.32em">15,000</text></g><g class="tick" opacity="1" transform="translate(0,104.68810205423983)"><line stroke="#000" x2="-6" y1="0.5" y2="0.5"></line><text fill="#000" x="-9" y="0.5" dy="0.32em">16,000</text></g><g class="tick" opacity="1" transform="translate(0,89.49190732728295)"><line stroke="#000" x2="-6" y1="0.5" y2="0.5"></line><text fill="#000" x="-9" y="0.5" dy="0.32em">17,000</text></g><g class="tick" opacity="1" transform="translate(0,74.29571260032604)"><line stroke="#000" x2="-6" y1="0.5" y2="0.5"></line><text fill="#000" x="-9" y="0.5" dy="0.32em">18,000</text></g><g class="tick" opacity="1" transform="translate(0,59.09951787336914)"><line stroke="#000" x2="-6" y1="0.5" y2="0.5"></line><text fill="#000" x="-9" y="0.5" dy="0.32em">19,000</text></g><g class="tick" opacity="1" transform="translate(0,43.90332314641222)"><line stroke="#000" x2="-6" y1="0.5" y2="0.5"></line><text fill="#000" x="-9" y="0.5" dy="0.32em">20,000</text></g><g class="tick" opacity="1" transform="translate(0,28.70712841945533)"><line stroke="#000" x2="-6" y1="0.5" y2="0.5"></line><text fill="#000" x="-9" y="0.5" dy="0.32em">21,000</text></g><g class="tick" opacity="1" transform="translate(0,13.51093369249844)"><line stroke="#000" x2="-6" y1="0.5" y2="0.5"></line><text fill="#000" x="-9" y="0.5" dy="0.32em">22,000</text></g><text transform="rotate(-90)" y="6" dy=".71em" style="text-anchor: end;">Price ($)</text></g></g></svg>