<?xml version="1.0" encoding="utf-8"?>
<!DOCTYPE svg PUBLIC "-//W3C//DTD SVG 1.1//EN" "http://www.w3.org/Graphics/SVG/1.1/DTD/svg11.dtd">
<svg version="1.1" xmlns="http://www.w3.org/2000/svg" width="960" height="250"><g transform="translate(50,20)"><style>.axis path,.axis line{fill:none;stroke:#000;shape-rendering:crispEdges;}path.candle{stroke:#000000;}path.candle.body{stroke-width:0;}path.candle.up{fill:#00AA00;stroke:#00AA00;}path.candle.down{fill:#FF0000;stroke:#FF0000;}</style><g class="candlestick"><g class="data"><path class="candle body up" d="M 1.0675729708116766 9.994175200017992 l 7.1171531387445 0 L 8.184726109556177 8.021590884738288 l -7.1171531387445 0 L 1.0675729708116766 9.994175200017992 M 27.75689724110356 20.1657410032322 l 7.1171531387445 0 L 34.87405037984806 15.286877835775329 l -7.1171531387445 0 L 27.75689724110356 20.1657410032322 M 45.54978008796481 18.26856659411581 l 7.1171531387445 0 L 52.66693322670931 14.50526520168421 l -7.1171531387445 0 L 45.54978008796481 18.26856659411581 M 54.446221511395436 14.505202097160208 l 7.1171531387445 0 L 61.563374650139934 13.412547264341896 l -7.1171531387445 0 L 54.446221511395436 14.505202097160208 M 81.13554578168731 34.93144236167822 l 7.1171531387445 0 L 88.25269892043181 33.20414533113228 l -7.1171531387445 0 L 81.13554578168731 34.93144236167822 M 98.92842862854857 40.7272773671763 l 7.1171531387445 0 L 106.04558176729307 37.55974578569686 l -7.1171531387445 0 L 98.92842862854857 40.7272773671763 M 125.61775289884046 57.90161530164556 l 7.1171531387445 0 L 132.73490603758498 54.465637075129536 l -7.1171531387445 0 L 125.61775289884046 57.90161530164556 M 134.51419432227107 54.46557397060559 l 7.1171531387445 0 L 141.63134746101557 47.695468219286994 l -7.1171531387445 0 L 134.51419432227107 54.46557397060559 M 152.30707716913233 55.30221374961249 l 7.1171531387445 0 L 159.42423030787683 51.45580369909126 l -7.1171531387445 0 L 152.30707716913233 55.30221374961249 M 178.9964014394242 56.96981390046764 l 7.1171531387445 0 L 186.1135545781687 49.883049647787146 l -7.1171531387445 0 L 178.9964014394242 56.96981390046764 M 187.89284286285485 49.883049647787146 l 7.1171531387445 0 L 195.00999600159935 45.51590106533311 l -7.1171531387445 0 L 187.89284286285485 49.883049647787146 M 232.37504998000796 58.46223589273757 l 7.1171531387445 0 L 239.49220311875246 58.40847083830147 l -7.1171531387445 0 L 232.37504998000796 58.46223589273757 M 241.2714914034386 58.408533942825414 l 7.1171531387445 0 L 248.3886445421831 52.249784819883644 l -7.1171531387445 0 L 241.2714914034386 58.408533942825414 M 259.06437425029986 66.84863781691061 l 7.1171531387445 0 L 266.1815273890444 59.761494937086184 l -7.1171531387445 0 L 259.06437425029986 66.84863781691061 M 267.9608156737305 59.761494937086184 l 7.1171531387445 0 L 275.07796881247504 56.566197365052915 l -7.1171531387445 0 L 267.9608156737305 59.761494937086184 M 294.65013994402244 69.88926620065405 l 7.1171531387445 0 L 301.76729308276697 64.60394679420313 l -7.1171531387445 0 L 294.65013994402244 69.88926620065405 M 303.54658136745303 64.60394679420313 l 7.1171531387445 0 L 310.66373450619756 64.24544999343837 l -7.1171531387445 0 L 303.54658136745303 64.60394679420313 M 321.3394642143143 69.2698952977311 l 7.1171531387445 0 L 328.45661735305885 56.89478262144826 l -7.1171531387445 0 L 321.3394642143143 69.2698952977311 M 374.7181127548981 117.57464148237476 l 7.1171531387445 0 L 381.8352658936426 111.6247052293028 l -7.1171531387445 0 L 374.7181127548981 117.57464148237476 M 401.40743702518995 124.16584590819286 l 7.1171531387445 0 L 408.5245901639345 122.54210340150802 l -7.1171531387445 0 L 401.40743702518995 124.16584590819286 M 410.3038784486206 122.54210340150802 l 7.1171531387445 0 L 417.4210315873651 117.4956977228682 l -7.1171531387445 0 L 410.3038784486206 122.54210340150802 M 419.20031987205124 117.4956977228682 l 7.1171531387445 0 L 426.31747301079577 109.65716927594198 l -7.1171531387445 0 L 419.20031987205124 117.4956977228682 M 436.99320271891247 118.83812026162329 l 7.1171531387445 0 L 444.110355857657 115.23535677821216 l -7.1171531387445 0 L 436.99320271891247 118.83812026162329 M 454.7860855657737 126.149915246838 l 7.1171531387445 0 L 461.90323870451823 116.02858064471671 l -7.1171531387445 0 L 454.7860855657737 126.149915246838 M 472.57896841263494 123.08505472588394 l 7.1171531387445 0 L 479.69612155137946 121.54498881800455 l -7.1171531387445 0 L 472.57896841263494 123.08505472588394 M 481.47540983606564 121.54492571348058 l 7.1171531387445 0 L 488.59256297481016 116.18817198587742 l -7.1171531387445 0 L 481.47540983606564 121.54492571348058 M 499.2682926829268 123.66479598774369 l 7.1171531387445 0 L 506.38544582167134 120.222822831449 l -7.1171531387445 0 L 499.2682926829268 123.66479598774369 M 534.8540583766493 126.68958513596664 l 7.1171531387445 0 L 541.9712115153937 124.15581228887908 l -7.1171531387445 0 L 534.8540583766493 126.68958513596664 M 543.75049980008 124.15581228887908 l 7.1171531387445 0 L 550.8676529388244 121.39959599474072 l -7.1171531387445 0 L 543.75049980008 124.15581228887908 M 552.6469412235106 121.39959599474072 l 7.1171531387445 0 L 559.764094362255 107.09935360521573 l -7.1171531387445 0 L 552.6469412235106 121.39959599474072 M 561.5433826469413 107.09929050069175 l 7.1171531387445 0 L 568.6605357856857 106.677689175941 l -7.1171531387445 0 L 561.5433826469413 107.09929050069175 M 579.3362654938024 119.26830380163614 l 7.1171531387445 0 L 586.4534186325469 115.1868293992669 l -7.1171531387445 0 L 579.3362654938024 119.26830380163614 M 597.1291483406637 119.93487688850071 l 7.1171531387445 0 L 604.2463014794082 118.90103547203736 l -7.1171531387445 0 L 597.1291483406637 119.93487688850071 M 606.0255897640943 118.90109857656135 l 7.1171531387445 0 L 613.1427429028388 118.55288781320638 l -7.1171531387445 0 L 606.0255897640943 118.90109857656135 M 614.9220311875249 118.55295091773036 l 7.1171531387445 0 L 622.0391843262694 109.3781841753997 l -7.1171531387445 0 L 614.9220311875249 118.55295091773036 M 694.9900039984005 167.66581363653933 l 7.1171531387445 0 L 702.107157137145 164.84314827864364 l -7.1171531387445 0 L 694.9900039984005 167.66581363653933 M 712.7828868452618 178.61962311908448 l 7.1171531387445 0 L 719.9000399840063 178.18918716097568 l -7.1171531387445 0 L 712.7828868452618 178.61962311908448 M 730.5757696921231 187.64237106313277 l 7.1171531387445 0 L 737.6929228308676 177.5253906731665 l -7.1171531387445 0 L 730.5757696921231 187.64237106313277 M 748.3686525389844 177.52602171840635 l 7.1171531387445 0 L 755.4858056777289 176.5818518305272 l -7.1171531387445 0 L 748.3686525389844 177.52602171840635 M 766.1615353858456 181.22331577874857 l 7.1171531387445 0 L 773.27868852459 174.1421678287028 l -7.1171531387445 0 L 766.1615353858456 181.22331577874857 M 775.0579768092763 174.1422309332268 l 7.1171531387445 0 L 782.1751299480208 173.33720652073688 l -7.1171531387445 0 L 775.0579768092763 174.1422309332268 M 783.9544182327068 173.33726962526086 l 7.1171531387445 0 L 791.0715713714512 171.73750683769072 l -7.1171531387445 0 L 783.9544182327068 173.33726962526086 M 855.1259496201519 185.86263417315442 l 7.1171531387445 0 L 862.2431027588964 185.46501256751836 l -7.1171531387445 0 L 855.1259496201519 185.86263417315442 M 864.0223910435824 185.46501256751836 l 7.1171531387445 0 L 871.1395441823269 179.65384316269174 l -7.1171531387445 0 L 864.0223910435824 185.46501256751836"></path><path class="candle body down" d="M 9.964014394242305 8.02165398926229 l 7.1171531387445 0 L 17.081167532986804 10.336327929070336 l -7.1171531387445 0 L 9.964014394242305 8.02165398926229 M 18.860455817672932 10.336327929070336 l 7.1171531387445 0 L 25.977608956417434 20.165804107756202 l -7.1171531387445 0 L 18.860455817672932 10.336327929070336 M 36.65333866453418 15.286877835775329 l 7.1171531387445 0 L 43.77049180327868 18.268503489591836 l -7.1171531387445 0 L 36.65333866453418 15.286877835775329 M 63.342662934826066 13.41261036886587 l 7.1171531387445 0 L 70.45981607357056 20.246514793934324 l -7.1171531387445 0 L 63.342662934826066 13.41261036886587 M 72.23910435825668 20.2465778984583 l 7.1171531387445 0 L 79.35625749700118 34.93144236167822 l -7.1171531387445 0 L 72.23910435825668 20.2465778984583 M 90.03198720511796 33.20408222660831 l 7.1171531387445 0 L 97.14914034386246 40.727340471700245 l -7.1171531387445 0 L 90.03198720511796 33.20408222660831 M 107.82487005197919 37.55980889022089 l 7.1171531387445 0 L 114.94202319072369 41.31522221715426 l -7.1171531387445 0 L 107.82487005197919 37.55980889022089 M 116.72131147540982 41.31522221715426 l 7.1171531387445 0 L 123.83846461415432 57.90161530164556 l -7.1171531387445 0 L 116.72131147540982 41.31522221715426 M 143.4106357457017 47.695531323811025 l 7.1171531387445 0 L 150.5277888844462 55.302150645088545 l -7.1171531387445 0 L 143.4106357457017 47.695531323811025 M 161.20351859256294 51.45580369909126 l 7.1171531387445 0 L 168.32067173130744 52.54871095000556 l -7.1171531387445 0 L 161.20351859256294 51.45580369909126 M 170.09996001599356 52.54877405452956 l 7.1171531387445 0 L 177.21711315473806 56.96975079594367 l -7.1171531387445 0 L 170.09996001599356 52.54877405452956 M 196.78928428628546 45.51583796080908 l 7.1171531387445 0 L 203.90643742502996 46.36774903462066 l -7.1171531387445 0 L 196.78928428628546 45.51583796080908 M 205.68572570971608 46.36774903462066 l 7.1171531387445 0 L 212.80287884846058 51.90946212202692 l -7.1171531387445 0 L 205.68572570971608 46.36774903462066 M 214.5821671331467 51.90946212202692 l 7.1171531387445 0 L 221.6993202718912 56.77374814444303 l -7.1171531387445 0 L 214.5821671331467 51.90946212202692 M 223.47860855657734 56.77368503991903 l 7.1171531387445 0 L 230.59576169532184 58.46229899726154 l -7.1171531387445 0 L 223.47860855657734 56.77368503991903 M 250.16793282686922 52.249784819883644 l 7.1171531387445 0 L 257.28508596561375 66.84857471238661 l -7.1171531387445 0 L 250.16793282686922 52.249784819883644 M 276.85725709716115 56.566260469576946 l 7.1171531387445 0 L 283.9744102359057 63.79772339575743 l -7.1171531387445 0 L 276.85725709716115 56.566260469576946 M 285.7536985205918 63.79772339575743 l 7.1171531387445 0 L 292.8708516593363 69.88926620065405 l -7.1171531387445 0 L 285.7536985205918 63.79772339575743 M 312.4430227908837 64.24544999343837 l 7.1171531387445 0 L 319.5601759296282 69.2698952977311 l -7.1171531387445 0 L 312.4430227908837 64.24544999343837 M 330.23590563774496 56.89478262144826 l 7.1171531387445 0 L 337.3530587764895 76.69086110944163 l -7.1171531387445 0 L 330.23590563774496 56.89478262144826 M 339.13234706117555 76.69086110944163 l 7.1171531387445 0 L 346.2495001999201 80.09345704276907 l -7.1171531387445 0 L 339.13234706117555 76.69086110944163 M 348.02878848460614 80.09345704276907 l 7.1171531387445 0 L 355.14594162335067 83.5098097623254 l -7.1171531387445 0 L 348.02878848460614 80.09345704276907 M 356.9252299080368 83.5097466578014 l 7.1171531387445 0 L 364.0423830467813 92.55893539739985 l -7.1171531387445 0 L 356.9252299080368 83.5097466578014 M 365.8216713314674 92.55899850192384 l 7.1171531387445 0 L 372.93882447021196 117.56151574138565 l -7.1171531387445 0 L 365.8216713314674 92.55899850192384 M 383.61455417832866 111.62464212477879 l 7.1171531387445 0 L 390.7317073170732 123.69761034021644 l -7.1171531387445 0 L 383.61455417832866 111.62464212477879 M 392.5109956017593 123.69761034021644 l 7.1171531387445 0 L 399.62814874050383 124.16578280366888 l -7.1171531387445 0 L 392.5109956017593 123.69761034021644 M 428.0967612954818 109.65716927594198 l 7.1171531387445 0 L 435.21391443422635 118.83812026162329 l -7.1171531387445 0 L 428.0967612954818 109.65716927594198 M 445.8896441423431 115.23535677821216 l 7.1171531387445 0 L 453.00679728108764 126.14997835136201 l -7.1171531387445 0 L 445.8896441423431 115.23535677821216 M 463.68252698920435 116.02864374924069 l 7.1171531387445 0 L 470.7996801279489 123.08505472588394 l -7.1171531387445 0 L 463.68252698920435 116.02864374924069 M 490.3718512594962 116.18823509040139 l 7.1171531387445 0 L 497.48900439824075 123.6647328832197 l -7.1171531387445 0 L 490.3718512594962 116.18823509040139 M 508.16473410635746 120.222822831449 l 7.1171531387445 0 L 515.281887245102 120.93230699462407 l -7.1171531387445 0 L 508.16473410635746 120.222822831449 M 517.0611755297881 120.93237009914807 l 7.1171531387445 0 L 524.1783286685326 123.08290917206841 l -7.1171531387445 0 L 517.0611755297881 120.93237009914807 M 525.9576169532187 123.08290917206841 l 7.1171531387445 0 L 533.0747700919632 126.68964824049065 l -7.1171531387445 0 L 525.9576169532187 123.08290917206841 M 570.4398240703717 106.67762607141701 l 7.1171531387445 0 L 577.5569772091162 119.26836690616011 l -7.1171531387445 0 L 570.4398240703717 106.67762607141701 M 588.232706917233 115.18676629474291 l 7.1171531387445 0 L 595.3498600559775 119.93487688850071 l -7.1171531387445 0 L 588.232706917233 115.18676629474291 M 623.8184726109555 109.3781841753997 l 7.1171531387445 0 L 630.9356257497 110.94172496620183 l -7.1171531387445 0 L 623.8184726109555 109.3781841753997 M 632.7149140343862 110.94178807072585 l 7.1171531387445 0 L 639.8320671731307 116.75087502626094 l -7.1171531387445 0 L 632.7149140343862 110.94178807072585 M 641.6113554578168 116.75087502626094 l 7.1171531387445 0 L 648.7285085965613 117.34935833174458 l -7.1171531387445 0 L 641.6113554578168 116.75087502626094 M 650.5077968812475 117.34935833174458 l 7.1171531387445 0 L 657.624950019992 123.7737143961436 l -7.1171531387445 0 L 650.5077968812475 117.34935833174458 M 659.4042383046781 123.77377750066759 l 7.1171531387445 0 L 666.5213914434225 127.98392202744436 l -7.1171531387445 0 L 659.4042383046781 123.77377750066759 M 668.3006797281087 127.98385892292038 l 7.1171531387445 0 L 675.4178328668531 139.65933174176996 l -7.1171531387445 0 L 668.3006797281087 127.98385892292038 M 677.1971211515394 139.65933174176996 l 7.1171531387445 0 L 684.3142742902838 165.45090794915322 l -7.1171531387445 0 L 677.1971211515394 139.65933174176996 M 686.09356257497 165.46441231728622 l 7.1171531387445 0 L 693.2107157137144 167.6658767410633 l -7.1171531387445 0 L 686.09356257497 165.46441231728622 M 703.8864454218311 164.84314827864364 l 7.1171531387445 0 L 711.0035985605756 178.61514269788145 l -7.1171531387445 0 L 703.8864454218311 164.84314827864364 M 721.6793282686924 178.18918716097568 l 7.1171531387445 0 L 728.7964814074369 187.64237106313277 l -7.1171531387445 0 L 721.6793282686924 178.18918716097568 M 739.4722111155537 177.5253906731665 l 7.1171531387445 0 L 746.5893642542982 177.52608482293036 l -7.1171531387445 0 L 739.4722111155537 177.5253906731665 M 757.265093962415 176.5819149350512 l 7.1171531387445 0 L 764.3822471011595 181.22337888327255 l -7.1171531387445 0 L 757.265093962415 176.5819149350512 M 792.8508596561375 171.7375699422147 l 7.1171531387445 0 L 799.9680127948819 174.59689902854626 l -7.1171531387445 0 L 792.8508596561375 171.7375699422147 M 801.747301079568 174.59683592402226 l 7.1171531387445 0 L 808.8644542183125 176.46170081685779 l -7.1171531387445 0 L 801.747301079568 174.59683592402226 M 810.6437425029987 176.4616377123338 l 7.1171531387445 0 L 817.7608956417432 179.37252319476195 l -7.1171531387445 0 L 810.6437425029987 176.4616377123338 M 819.5401839264293 179.37258629928596 l 7.1171531387445 0 L 826.6573370651738 180.37134160041305 l -7.1171531387445 0 L 819.5401839264293 179.37258629928596 M 828.43662534986 180.37140470493702 l 7.1171531387445 0 L 835.5537784886045 181.51227139408067 l -7.1171531387445 0 L 828.43662534986 180.37140470493702 M 837.3330667732906 181.51227139408067 l 7.1171531387445 0 L 844.4502199120351 185.6923781674401 l -7.1171531387445 0 L 837.3330667732906 181.51227139408067 M 846.2295081967213 185.6923781674401 l 7.1171531387445 0 L 853.3466613354658 185.86269727767842 l -7.1171531387445 0 L 846.2295081967213 185.6923781674401 M 872.9188324670131 179.65384316269174 l 7.1171531387445 0 L 880.0359856057576 180.03802350471875 l -7.1171531387445 0 L 872.9188324670131 179.65384316269174 M 881.8152738904437 180.03796040019478 l 7.1171531387445 0 L 888.9324270291881 180.41879620245052 l -7.1171531387445 0 L 881.8152738904437 180.03796040019478"></path><path class="candle body equal"></path><path class="candle wick up" d="M 4.626149540183927 3.8461538461538396 L 4.626149540183927 8.021590884738288 M 4.626149540183927 9.994175200017992 L 4.626149540183927 11.075534323042831 M 31.315473810475808 12.53173431854475 L 31.315473810475808 15.286877835775329 M 31.315473810475808 20.1657410032322 L 31.315473810475808 28.43464230374323 M 49.10835665733706 7.962840572907282 L 49.10835665733706 14.50526520168421 M 49.10835665733706 18.26856659411581 L 49.10835665733706 20.0359349973929 M 58.004798080767685 11.45504493029489 L 58.004798080767685 13.412547264341896 M 58.004798080767685 14.505202097160208 L 58.004798080767685 22.641647001824566 M 84.69412235105956 30.32153067544988 L 84.69412235105956 33.20414533113228 M 84.69412235105956 34.93144236167822 L 84.69412235105956 37.72773002854774 M 102.48700519792082 37.26927566178912 L 102.48700519792082 37.55974578569686 M 102.48700519792082 40.7272773671763 L 102.48700519792082 41.525802013695625 M 129.1763294682127 50.52753615125661 L 129.1763294682127 54.465637075129536 M 129.1763294682127 57.90161530164556 L 129.1763294682127 59.642164282228606 M 138.07277089164333 45.08596994341622 L 138.07277089164333 47.695468219286994 M 138.07277089164333 54.46557397060559 L 138.07277089164333 57.53504112181062 M 155.8656537385046 49.44617702823177 L 155.8656537385046 51.45580369909126 M 155.8656537385046 55.30221374961249 L 155.8656537385046 56.41266405819488 M 182.55497800879647 47.89147087078766 L 182.55497800879647 49.883049647787146 M 182.55497800879647 56.96981390046764 L 182.55497800879647 64.17382635871422 M 191.4514194322271 43.83214615633753 L 191.4514194322271 45.51590106533311 M 191.4514194322271 49.883049647787146 L 191.4514194322271 51.335274058277946 M 235.93362654938022 55.31716952179718 L 235.93362654938022 58.40847083830147 M 235.93362654938022 58.46223589273757 L 235.93362654938022 61.6931244162989 M 244.83006797281087 51.05130370034075 L 244.83006797281087 52.249784819883644 M 244.83006797281087 58.408533942825414 L 244.83006797281087 66.29735669536853 M 262.6229508196721 58.25329681381976 L 262.6229508196721 59.761494937086184 M 262.6229508196721 66.84863781691061 L 262.6229508196721 68.30843477027972 M 271.51939224310274 52.58707850058909 L 271.51939224310274 56.566197365052915 M 271.51939224310274 59.761494937086184 L 271.51939224310274 61.99722511738764 M 298.2087165133947 63.299891806031525 L 298.2087165133947 64.60394679420313 M 298.2087165133947 69.88926620065405 L 298.2087165133947 71.4316669759209 M 307.10515793682526 60.193003672102776 L 307.10515793682526 64.24544999343837 M 307.10515793682526 64.60394679420313 L 307.10515793682526 67.23130365036195 M 324.89804078368655 54.78854292436614 L 324.89804078368655 56.89478262144826 M 324.89804078368655 69.2698952977311 L 324.89804078368655 69.64189646662876 M 378.2766893242703 101.2636365405585 L 378.2766893242703 111.6247052293028 M 378.2766893242703 117.57464148237476 L 378.2766893242703 119.74436433058683 M 404.9660135945622 111.20651154884729 L 404.9660135945622 122.54210340150802 M 404.9660135945622 124.16584590819286 L 404.9660135945622 125.92059340667275 M 413.86245501799283 115.87687736905427 L 413.86245501799283 117.4956977228682 M 413.86245501799283 122.54210340150802 L 413.86245501799283 126.68838615001093 M 422.7588964414235 108.82980586196098 L 422.7588964414235 109.65716927594198 M 422.7588964414235 117.4956977228682 L 422.7588964414235 121.32450161119733 M 440.5517792882847 113.06809500643553 L 440.5517792882847 115.23535677821216 M 440.5517792882847 118.83812026162329 L 440.5517792882847 121.51141721124398 M 458.34466213514594 114.60273392525208 L 458.34466213514594 116.02858064471671 M 458.34466213514594 126.149915246838 L 458.34466213514594 126.30105058178458 M 476.13754498200717 120.21272610761123 L 476.13754498200717 121.54498881800455 M 476.13754498200717 123.08505472588394 L 476.13754498200717 124.68620581298178 M 485.0339864054379 114.96362869792826 L 485.0339864054379 116.18817198587742 M 485.0339864054379 121.54492571348058 L 485.0339864054379 122.74365925111942 M 502.82686925229905 119.015759496644 L 502.82686925229905 120.222822831449 M 502.82686925229905 123.66479598774369 L 502.82686925229905 126.44227850646536 M 538.4126349460215 122.67493842449863 L 538.4126349460215 124.15581228887908 M 538.4126349460215 126.68958513596664 L 538.4126349460215 127.82426758175967 M 547.3090763694522 120.64436105167577 L 547.3090763694522 121.39959599474072 M 547.3090763694522 124.15581228887908 L 547.3090763694522 125.36817640369894 M 556.2055177928828 104.02124113422457 L 556.2055177928828 107.09935360521573 M 556.2055177928828 121.39959599474072 L 556.2055177928828 122.46278101485757 M 565.1019592163135 102.90429105967162 L 565.1019592163135 106.677689175941 M 565.1019592163135 107.09929050069175 L 565.1019592163135 110.4704603810741 M 582.8948420631747 113.69516466128484 L 582.8948420631747 115.1868293992669 M 582.8948420631747 119.26830380163614 L 582.8948420631747 120.60163928893722 M 600.687724910036 118.11323859459561 L 600.687724910036 118.90103547203736 M 600.687724910036 119.93487688850071 L 600.687724910036 121.29294934920432 M 609.5841663334666 116.85039086058694 L 609.5841663334666 118.55288781320638 M 609.5841663334666 118.90109857656135 L 609.5841663334666 121.00001814886112 M 618.4806077568971 106.90107919085159 L 618.4806077568971 109.3781841753997 M 618.4806077568971 118.55295091773036 L 618.4806077568971 118.73576472371793 M 698.5485805677728 163.47832363387352 L 698.5485805677728 164.84314827864364 M 698.5485805677728 167.66581363653933 L 698.5485805677728 180.44321765323312 M 716.3414634146341 172.53110933133917 L 716.3414634146341 178.18918716097568 M 716.3414634146341 178.61962311908448 L 716.3414634146341 179.59105416132562 M 734.1343462614954 175.99857671532422 L 734.1343462614954 177.5253906731665 M 734.1343462614954 187.64237106313277 L 734.1343462614954 194.01832595763452 M 751.9272291083566 170.27468086717025 L 751.9272291083566 176.5818518305272 M 751.9272291083566 177.52602171840635 L 751.9272291083566 178.9490287342916 M 769.7201119552178 173.3668025424863 L 769.7201119552178 174.1421678287028 M 769.7201119552178 181.22331577874857 L 769.7201119552178 181.8412983821439 M 778.6165533786485 171.31331822745653 L 778.6165533786485 173.33720652073688 M 778.6165533786485 174.1422309332268 L 778.6165533786485 176.49855385886562 M 787.512994802079 170.9593649524188 L 787.512994802079 171.73750683769072 M 787.512994802079 173.33726962526086 L 787.512994802079 175.4264079963428 M 858.6845261895241 183.37120446166148 L 858.6845261895241 185.46501256751836 M 858.6845261895241 185.86263417315442 L 858.6845261895241 188.84003182386388 M 867.5809676129546 178.91362709633546 L 867.5809676129546 179.65384316269174 M 867.5809676129546 185.46501256751836 L 867.5809676129546 187.10901162640275" style="stroke-width: 1px;"></path><path class="candle wick down" d="M 13.522590963614554 6.346670609100755 L 13.522590963614554 8.02165398926229 M 13.522590963614554 10.336327929070336 L 13.522590963614554 14.265026278869328 M 22.41903238704518 6.9791041484888865 L 22.41903238704518 10.336327929070336 M 22.41903238704518 20.165804107756202 L 22.41903238704518 22.12418990513899 M 40.21191523390643 9.421249226748728 L 40.21191523390643 15.286877835775329 M 40.21191523390643 18.268503489591836 L 40.21191523390643 19.47379989772523 M 66.90123950419832 9.503285107930566 L 66.90123950419832 13.41261036886587 M 66.90123950419832 20.246514793934324 L 66.90123950419832 21.15357922170972 M 75.79768092762893 20.185997555431697 L 75.79768092762893 20.2465778984583 M 75.79768092762893 34.93144236167822 L 75.79768092762893 35.24362044183718 M 93.5905637744902 29.882133874935022 L 93.5905637744902 33.20408222660831 M 93.5905637744902 40.727340471700245 L 93.5905637744902 41.64153571068604 M 111.38344662135144 33.418006562920965 L 111.38344662135144 37.55980889022089 M 111.38344662135144 41.31522221715426 L 111.38344662135144 43.15061729728825 M 120.27988804478207 39.70062986644734 L 120.27988804478207 41.31522221715426 M 120.27988804478207 57.90161530164556 L 120.27988804478207 59.98690429676432 M 146.96921231507397 45.4728637799746 L 146.96921231507397 47.695531323811025 M 146.96921231507397 55.302150645088545 L 146.96921231507397 57.76600367959955 M 164.7620951619352 50.46222296893106 L 164.7620951619352 51.45580369909126 M 164.7620951619352 52.54871095000556 L 164.7620951619352 54.99186570064913 M 173.65853658536582 51.179595197604385 L 173.65853658536582 52.54877405452956 M 173.65853658536582 56.96975079594367 L 173.65853658536582 57.80241498993951 M 200.34786085565773 41.06185755335028 L 200.34786085565773 45.51583796080908 M 200.34786085565773 46.36774903462066 L 200.34786085565773 49.763971411025494 M 209.24430227908834 36.158636039634786 L 209.24430227908834 46.36774903462066 M 209.24430227908834 51.90946212202692 L 209.24430227908834 56.50984502513339 M 218.14074370251896 49.92135409384667 L 218.14074370251896 51.90946212202692 M 218.14074370251896 56.77374814444303 L 218.14074370251896 60.132044701932216 M 227.0371851259496 55.06475142585302 L 227.0371851259496 56.77368503991903 M 227.0371851259496 58.46229899726154 L 227.0371851259496 59.450515842882965 M 253.72650939624148 49.907155575949815 L 253.72650939624148 52.249784819883644 M 253.72650939624148 66.84857471238661 L 253.72650939624148 69.4383212722498 M 280.4158336665334 55.410248694676625 L 280.4158336665334 56.566260469576946 M 280.4158336665334 63.79772339575743 L 280.4158336665334 66.45511800533365 M 289.31227508996403 62.54023954628758 L 289.31227508996403 63.79772339575743 M 289.31227508996403 69.88926620065405 L 289.31227508996403 70.22119599682065 M 316.0015993602559 63.448124332874755 L 316.0015993602559 64.24544999343837 M 316.0015993602559 69.2698952977311 L 316.0015993602559 70.60234732169633 M 333.7944822071172 55.91344416894131 L 333.7944822071172 56.89478262144826 M 333.7944822071172 76.69086110944163 L 333.7944822071172 82.88185664414027 M 342.6909236305478 75.91682101822887 L 342.6909236305478 76.69086110944163 M 342.6909236305478 80.09345704276907 L 342.6909236305478 84.86270765206217 M 351.5873650539784 79.257132786382 L 351.5873650539784 80.09345704276907 M 351.5873650539784 83.5098097623254 L 351.5873650539784 87.84755163660193 M 360.483806477409 83.24584353849178 L 360.483806477409 83.5097466578014 M 360.483806477409 92.55893539739985 L 360.483806477409 94.60636167812702 M 369.38024790083966 91.26687026878564 L 369.38024790083966 92.55899850192384 M 369.38024790083966 117.56151574138565 L 369.38024790083966 117.83273898547765 M 387.1731307477009 104.39614511122564 L 387.1731307477009 111.62464212477879 M 387.1731307477009 123.69761034021644 L 387.1731307477009 132.02071842683148 M 396.06957217113154 116.5096264310623 L 396.06957217113154 123.69761034021644 M 396.06957217113154 124.16578280366888 L 396.06957217113154 138.86755927931705 M 431.65533786485406 109.65710617141798 L 431.65533786485406 109.65716927594198 M 431.65533786485406 118.83812026162329 L 431.65533786485406 123.80425698575283 M 449.44822071171535 113.56270826543812 L 449.44822071171535 115.23535677821216 M 449.44822071171535 126.14997835136201 L 449.44822071171535 126.53396937981707 M 467.2411035585766 113.1377624009161 L 467.2411035585766 116.02864374924069 M 467.2411035585766 123.08505472588394 L 467.2411035585766 126.0573409101505 M 493.93042782886846 113.81184492613502 L 493.93042782886846 116.18823509040139 M 493.93042782886846 123.6647328832197 L 493.93042782886846 125.19691072560082 M 511.7233106757297 116.63116574425942 L 511.7233106757297 120.222822831449 M 511.7233106757297 120.93230699462407 L 511.7233106757297 122.49692056233401 M 520.6197520991603 118.75841924782891 L 520.6197520991603 120.93237009914807 M 520.6197520991603 123.08290917206841 L 520.6197520991603 130.54053871221487 M 529.5161935225909 121.8441042616984 L 529.5161935225909 123.08290917206841 M 529.5161935225909 126.68964824049065 L 529.5161935225909 128.87874417756643 M 573.998400639744 105.52962857106293 L 573.998400639744 106.67762607141701 M 573.998400639744 119.26836690616011 L 573.998400639744 122.4540725905475 M 591.7912834866053 113.63206013729878 L 591.7912834866053 115.18676629474291 M 591.7912834866053 119.93487688850071 L 591.7912834866053 122.57169942325746 M 627.3770491803277 108.01197123110188 L 627.3770491803277 109.3781841753997 M 627.3770491803277 110.94172496620183 L 627.3770491803277 122.97178210532898 M 636.2734906037584 109.66770773144763 L 636.2734906037584 110.94178807072585 M 636.2734906037584 116.75087502626094 L 636.2734906037584 119.02825419239322 M 645.169932027189 113.62574968490019 L 645.169932027189 116.75087502626094 M 645.169932027189 117.34935833174458 L 645.169932027189 118.39582065300512 M 654.0663734506197 115.62742518573744 L 654.0663734506197 117.34935833174458 M 654.0663734506197 123.7737143961436 L 654.0663734506197 125.30008662231799 M 662.9628148740503 121.57433242165807 L 662.9628148740503 123.77377750066759 M 662.9628148740503 127.98392202744436 L 662.9628148740503 130.03298902579513 M 671.8592562974809 127.22502702198823 L 671.8592562974809 127.98385892292038 M 671.8592562974809 139.65933174176996 L 671.8592562974809 139.75102261512166 M 680.7556977209116 137.63172028157442 L 680.7556977209116 139.65933174176996 M 680.7556977209116 165.45090794915322 L 680.7556977209116 168.99511043430527 M 689.6521391443422 159.92629618774717 L 689.6521391443422 165.46441231728622 M 689.6521391443422 167.6658767410633 L 689.6521391443422 175.80894762074615 M 707.4450219912034 162.2431787858947 L 707.4450219912034 164.84314827864364 M 707.4450219912034 178.61514269788145 L 707.4450219912034 179.68356539348915 M 725.2379048380647 176.14933342312685 L 725.2379048380647 178.18918716097568 M 725.2379048380647 187.64237106313277 L 725.2379048380647 196.15384615384616 M 743.0307876849259 174.26919723548673 L 743.0307876849259 177.5253906731665 M 743.0307876849259 177.52608482293036 L 743.0307876849259 183.4380952570867 M 760.8236705317872 175.46818319122153 L 760.8236705317872 176.5819149350512 M 760.8236705317872 181.22337888327255 L 760.8236705317872 182.59577607092103 M 796.4094362255097 169.23345622140056 L 796.4094362255097 171.7375699422147 M 796.4094362255097 174.59689902854626 L 796.4094362255097 175.05970760745987 M 805.3058776489403 171.43044022397464 L 805.3058776489403 174.59683592402226 M 805.3058776489403 176.46170081685779 L 805.3058776489403 177.92925962667718 M 814.202319072371 173.49869099761716 L 814.202319072371 176.4616377123338 M 814.202319072371 179.37252319476195 L 814.202319072371 179.8728158609233 M 823.0987604958016 178.41951867352472 L 823.0987604958016 179.37258629928596 M 823.0987604958016 180.37134160041305 L 823.0987604958016 182.06311078395484 M 831.9952019192323 180.01751453442327 L 831.9952019192323 180.37140470493702 M 831.9952019192323 181.51227139408067 L 831.9952019192323 189.81815194564751 M 840.8916433426629 175.35238638970716 L 840.8916433426629 181.51227139408067 M 840.8916433426629 185.6923781674401 L 840.8916433426629 187.61580405853465 M 849.7880847660936 184.50860040198592 L 849.7880847660936 185.6923781674401 M 849.7880847660936 185.86269727767842 L 849.7880847660936 187.60312004921346 M 876.4774090363853 176.41475105101216 L 876.4774090363853 179.65384316269174 M 876.4774090363853 180.03802350471875 L 876.4774090363853 185.5371410384344 M 885.3738504598159 178.5349999524192 L 885.3738504598159 180.03796040019478 M 885.3738504598159 180.41879620245052 L 885.3738504598159 182.65421086013208" style="stroke-width: 1px;"></path><path class="candle wick equal" style="stroke-width: 1px;"></path></g></g><g class="x axis" transform="translate(0,200)" fill="none" font-size="10" font-family="sans-serif" text-anchor="middle"><path class="domain" stroke="#000" d="M0.5,6V0.5H890.5V6"></path><g class="tick" opacity="1" transform="translate(58.004798080767685,0)"><line stroke="#000" y2="6" x1="0.5" x2="0.5"></line><text fill="#000" y="9" x="0.5" dy="0.71em">Apr  4</text></g><g class="tick" opacity="1" transform="translate(120.27988804478207,0)"><line stroke="#000" y2="6" x1="0.5" x2="0.5"></line><text fill="#000" y="9" x="0.5" dy="0.71em">Apr 11</text></g><g class="tick" opacity="1" transform="translate(182.55497800879647,0)"><line stroke="#000" y2="6" x1="0.5" x2="0.5"></line><text fill="#000" y="9" x="0.5" dy="0.71em">Apr 18</text></g><g class="tick" opacity="1" transform="translate(244.83006797281087,0)"><line stroke="#000" y2="6" x1="0.5" x2="0.5"></line><text fill="#000" y="9" x="0.5" dy="0.71em">Apr 25</text></g><g class="tick" opacity="1" transform="translate(307.10515793682526,0)"><line stroke="#000" y2="6" x1="0.5" x2="0.5"></line><text fill="#000" y="9" x="0.5" dy="0.71em">May  2</text></g><g class="tick" opacity="1" transform="translate(369.38024790083966,0)"><line stroke="#000" y2="6" x1="0.5" x2="0.5"></line><text fill="#000" y="9" x="0.5" dy="0.71em">May  9</text></g><g class="tick" opacity="1" transform="translate(431.65533786485406,0)"><line stroke="#000" y2="6" x1="0.5" x2="0.5"></line><text fill="#000" y="9" x="0.5" dy="0.71em">May 16</text></g><g class="tick" opacity="1" transform="translate(493.93042782886846,0)"><line stroke="#000" y2="6" x1="0.5" x2="0.5"></line><text fill="#000" y="9" x="0.5" dy="0.71em">May 23</text></g><g class="tick" opacity="1" transform="translate(556.2055177928828,0)"><line stroke="#000" y2="6" x1="0.5" x2="0.5"></line><text fill="#000" y="9" x="0.5" dy="0.71em">May 30</text></g><g class="tick" opacity="1" transform="translate(618.4806077568971,0)"><line stroke="#000" y2="6" x1="0.5" x2="0.5"></line><text fill="#000" y="9" x="0.5" dy="0.71em">Jun  6</text></g><g class="tick" opacity="1" transform="translate(680.7556977209116,0)"><line stroke="#000" y2="6" x1="0.5" x2="0.5"></line><text fill="#000" y="9" x="0.5" dy="0.71em">Jun 13</text></g><g class="tick" opacity="1" transform="translate(743.0307876849259,0)"><line stroke="#000" y2="6" x1="0.5" x2="0.5"></line><text fill="#000" y="9" x="0.5" dy="0.71em">Jun 20</text></g><g class="tick" opacity="1" transform="translate(805.3058776489403,0)"><line stroke="#000" y2="6" x1="0.5" x2="0.5"></line><text fill="#000" y="9" x="0.5" dy="0.71em">Jun 27</text></g><g class="tick" opacity="1" transform="translate(867.5809676129546,0)"><line stroke="#000" y2="6" x1="0.5" x2="0.5"></line><text fill="#000" y="9" x="0.5" dy="0.71em">Jul  4</text></g></g><g class="y axis" fill="none" font-size="10" font-family="sans-serif" text-anchor="end"><path class="domain" stroke="#000" d="M-6,200.5H0.5V0.5H-6"></path><g class="tick" opacity="1" transform="translate(0,181.14759034996533)"><line stroke="#000" x2="-6" y1="0.5" y2="0.5"></line><text fill="#000" x="-9" y="0.5" dy="0.32em">20,000</text></g><g class="tick" opacity="1" transform="translate(0,149.59532835694424)"><line stroke="#000" x2="-6" y1="0.5" y2="0.5"></line><text fill="#000" x="-9" y="0.5" dy="0.32em">25,000</text></g><g class="tick" opacity="1" transform="translate(0,118.04306636392315)"><line stroke="#000" x2="-6" y1="0.5" y2="0.5"></line><text fill="#000" x="-9" y="0.5" dy="0.32em">30,000</text></g><g class="tick" opacity="1" transform="translate(0,86.49080437090204)"><line stroke="#000" x2="-6" y1="0.5" y2="0.5"></line><text fill="#000" x="-9" y="0.5" dy="0.32em">35,000</text></g><g class="tick" opacity="1" transform="translate(0,54.938542377880935)"><line stroke="#000" x2="-6" y1="0.5" y2="0.5"></line><text fill="#000" x="-9" y="0.5" dy="0.32em">40,000</text></g><g class="tick" opacity="1" transform="translate(0,23.386280384859845)"><line stroke="#000" x2="-6" y1="0.5" y2="0.5"></line><text fill="#000" x="-9" y="0.5" dy="0.32em">45,000</text></g><text transform="rotate(-90)" y="6" dy=".71em" style="text-anchor: end;">Price ($)</text></g></g></svg>