<?xml version="1.0" encoding="utf-8"?>
<!DOCTYPE svg PUBLIC "-//W3C//DTD SVG 1.1//EN" "http://www.w3.org/Graphics/SVG/1.1/DTD/svg11.dtd">
<svg version="1.1" xmlns="http://www.w3.org/2000/svg" width="960" height="250"><g transform="translate(50,20)"><style>.axis path,.axis line{fill:none;stroke:#000;shape-rendering:crispEdges;}path.candle{stroke:#000000;}path.candle.body{stroke-width:0;}path.candle.up{fill:#00AA00;stroke:#00AA00;}path.candle.down{fill:#FF0000;stroke:#FF0000;}</style><g class="candlestick"><g class="data"><path class="candle body up" d="M 9.964014394242305 121.17777935362633 l 7.1171531387445 0 L 17.081167532986804 119.52567943694929 l -7.1171531387445 0 L 9.964014394242305 121.17777935362633 M 27.75689724110356 144.06421188859537 l 7.1171531387445 0 L 34.87405037984806 107.5895722162143 l -7.1171531387445 0 L 27.75689724110356 144.06421188859537 M 45.54978008796481 111.76963852004182 l 7.1171531387445 0 L 52.66693322670931 103.63953055471835 l -7.1171531387445 0 L 45.54978008796481 111.76963852004182 M 81.13554578168731 144.74045774460615 l 7.1171531387445 0 L 88.25269892043181 135.55613664970662 l -7.1171531387445 0 L 81.13554578168731 144.74045774460615 M 90.03198720511796 135.55622529118722 l 7.1171531387445 0 L 97.14914034386246 121.26234332618294 l -7.1171531387445 0 L 90.03198720511796 135.55622529118722 M 107.82487005197919 126.21704752956194 l 7.1171531387445 0 L 114.94202319072369 118.47128902441186 l -7.1171531387445 0 L 107.82487005197919 126.21704752956194 M 116.72131147540982 118.47128902441186 l 7.1171531387445 0 L 123.83846461415432 103.59627351215273 l -7.1171531387445 0 L 116.72131147540982 118.47128902441186 M 143.4106357457017 136.66592798766112 l 7.1171531387445 0 L 150.5277888844462 134.18183913344092 l -7.1171531387445 0 L 143.4106357457017 136.66592798766112 M 170.09996001599356 155.59327743010616 l 7.1171531387445 0 L 177.21711315473806 120.07242008970515 l -7.1171531387445 0 L 170.09996001599356 155.59327743010616 M 187.89284286285485 126.36791532965765 l 7.1171531387445 0 L 195.00999600159935 120.56943287180665 l -7.1171531387445 0 L 187.89284286285485 126.36791532965765 M 205.68572570971608 136.39956033825587 l 7.1171531387445 0 L 212.80287884846058 105.60152108780825 l -7.1171531387445 0 L 205.68572570971608 136.39956033825587 M 214.5821671331467 105.60160972928894 l 7.1171531387445 0 L 221.6993202718912 92.34323754143989 l -7.1171531387445 0 L 214.5821671331467 105.60160972928894 M 267.9608156737305 136.95268317761978 l 7.1171531387445 0 L 275.07796881247504 135.9205417767298 l -7.1171531387445 0 L 267.9608156737305 136.95268317761978 M 285.7536985205918 171.25339053663552 l 7.1171531387445 0 L 292.8708516593363 163.3160777917634 l -7.1171531387445 0 L 285.7536985205918 171.25339053663552 M 294.65013994402244 163.3160777917634 l 7.1171531387445 0 L 301.76729308276697 152.95823213430958 l -7.1171531387445 0 L 294.65013994402244 163.3160777917634 M 303.54658136745303 152.98482457850974 l 7.1171531387445 0 L 310.66373450619756 144.2268690056199 l -7.1171531387445 0 L 303.54658136745303 152.98482457850974 M 321.3394642143143 171.59049408761322 l 7.1171531387445 0 L 328.45661735305885 165.31857748151822 l -7.1171531387445 0 L 321.3394642143143 171.59049408761322 M 330.23590563774496 165.31857748151822 l 7.1171531387445 0 L 337.3530587764895 143.89667949013423 l -7.1171531387445 0 L 330.23590563774496 165.31857748151822 M 348.02878848460614 145.71781871044374 l 7.1171531387445 0 L 355.14594162335067 133.15873916357896 l -7.1171531387445 0 L 348.02878848460614 145.71781871044374 M 374.7181127548981 154.51601751555654 l 7.1171531387445 0 L 381.8352658936426 151.99664935203074 l -7.1171531387445 0 L 374.7181127548981 154.51601751555654 M 383.61455417832866 151.99673799351143 l 7.1171531387445 0 L 390.7317073170732 144.17332955129683 l -7.1171531387445 0 L 383.61455417832866 151.99673799351143 M 392.5109956017593 144.17341819277746 l 7.1171531387445 0 L 399.62814874050383 138.70078181785948 l -7.1171531387445 0 L 392.5109956017593 144.17341819277746 M 410.3038784486206 152.85115322566347 l 7.1171531387445 0 L 417.4210315873651 148.15439573102628 l -7.1171531387445 0 L 410.3038784486206 152.85115322566347 M 436.99320271891247 160.0704699771305 l 7.1171531387445 0 L 444.110355857657 151.7372843795983 l -7.1171531387445 0 L 436.99320271891247 160.0704699771305 M 454.7860855657737 154.51123087560052 l 7.1171531387445 0 L 461.90323870451823 147.8088712393852 l -7.1171531387445 0 L 454.7860855657737 154.51123087560052 M 481.47540983606564 161.36986544223234 l 7.1171531387445 0 L 488.59256297481016 160.56411438296666 l -7.1171531387445 0 L 481.47540983606564 161.36986544223234 M 508.16473410635746 173.29444927048058 l 7.1171531387445 0 L 515.281887245102 172.0870636623114 l -7.1171531387445 0 L 508.16473410635746 173.29444927048058 M 517.0611755297881 172.0870636623114 l 7.1171531387445 0 L 524.1783286685326 169.79577002854253 l -7.1171531387445 0 L 517.0611755297881 172.0870636623114 M 543.75049980008 187.4196464977751 l 7.1171531387445 0 L 550.8676529388244 166.55193504352297 l -7.1171531387445 0 L 543.75049980008 187.4196464977751 M 552.6469412235106 166.55193504352297 l 7.1171531387445 0 L 559.764094362255 165.2815253425993 l -7.1171531387445 0 L 552.6469412235106 166.55193504352297 M 561.5433826469413 165.28374137961598 l 7.1171531387445 0 L 568.6605357856857 153.34807736628434 l -7.1171531387445 0 L 561.5433826469413 165.28374137961598 M 570.4398240703717 153.34798872480366 l 7.1171531387445 0 L 577.5569772091162 147.81640576524188 l -7.1171531387445 0 L 570.4398240703717 153.34798872480366 M 579.3362654938024 147.786533586257 l 7.1171531387445 0 L 586.4534186325469 137.86303118407292 l -7.1171531387445 0 L 579.3362654938024 147.786533586257 M 588.232706917233 137.86303118407292 l 7.1171531387445 0 L 595.3498600559775 121.4060311663446 l -7.1171531387445 0 L 588.232706917233 137.86303118407292 M 597.1291483406637 121.37296789405568 l 7.1171531387445 0 L 604.2463014794082 101.7252291382275 l -7.1171531387445 0 L 597.1291483406637 121.37296789405568 M 606.0255897640943 101.7363979647916 l 7.1171531387445 0 L 613.1427429028388 96.74632581062636 l -7.1171531387445 0 L 606.0255897640943 101.7363979647916 M 623.8184726109555 96.75581044905776 l 7.1171531387445 0 L 630.9356257497 77.36211817682201 l -7.1171531387445 0 L 623.8184726109555 96.75581044905776 M 668.3006797281087 112.81277146453453 l 7.1171531387445 0 L 675.4178328668531 99.37348201464357 l -7.1171531387445 0 L 668.3006797281087 112.81277146453453 M 677.1971211515394 99.37357065612427 l 7.1171531387445 0 L 684.3142742902838 89.27473540518022 l -7.1171531387445 0 L 677.1971211515394 99.37357065612427 M 686.09356257497 89.27473540518022 l 7.1171531387445 0 L 693.2107157137144 71.77327282074916 l -7.1171531387445 0 L 686.09356257497 89.27473540518022 M 694.9900039984005 71.77327282074916 l 7.1171531387445 0 L 702.107157137145 56.38803694576916 l -7.1171531387445 0 L 694.9900039984005 71.77327282074916 M 712.7828868452618 63.285939688336555 l 7.1171531387445 0 L 719.9000399840063 41.48864502632651 l -7.1171531387445 0 L 712.7828868452618 63.285939688336555 M 748.3686525389844 57.91692520431863 l 7.1171531387445 0 L 755.4858056777289 27.779353626322973 l -7.1171531387445 0 L 748.3686525389844 57.91692520431863 M 792.8508596561375 55.29411243285412 l 7.1171531387445 0 L 799.9680127948819 55.21132128991081 l -7.1171531387445 0 L 792.8508596561375 55.29411243285412 M 801.747301079568 55.26379704646584 l 7.1171531387445 0 L 808.8644542183125 36.992571843920075 l -7.1171531387445 0 L 801.747301079568 55.26379704646584 M 810.6437425029987 36.992571843920075 l 7.1171531387445 0 L 817.7608956417432 14.283954119169607 l -7.1171531387445 0 L 810.6437425029987 36.992571843920075 M 828.43662534986 18.721257999893652 l 7.1171531387445 0 L 835.5537784886045 15.021894445724826 l -7.1171531387445 0 L 828.43662534986 18.721257999893652 M 837.3330667732906 15.021894445724826 l 7.1171531387445 0 L 844.4502199120351 12.809137163827216 l -7.1171531387445 0 L 837.3330667732906 15.021894445724826 M 855.1259496201519 28.896147641250195 l 7.1171531387445 0 L 862.2431027588964 17.378871416668176 l -7.1171531387445 0 L 855.1259496201519 28.896147641250195 M 872.9188324670131 36.254720158845544 l 7.1171531387445 0 L 880.0359856057576 16.522771996383426 l -7.1171531387445 0 L 872.9188324670131 36.254720158845544"></path><path class="candle body down" d="M 1.0675729708116766 92.26257379403266 l 7.1171531387445 0 L 8.184726109556177 121.27829879270301 l -7.1171531387445 0 L 1.0675729708116766 92.26257379403266 M 18.860455817672932 119.44785221692341 l 7.1171531387445 0 L 25.977608956417434 144.29636392646302 l -7.1171531387445 0 L 18.860455817672932 119.44785221692341 M 36.65333866453418 107.45926923963339 l 7.1171531387445 0 L 43.77049180327868 111.76963852004182 l -7.1171531387445 0 L 36.65333866453418 107.45926923963339 M 54.446221511395436 103.63944191323773 l 7.1171531387445 0 L 61.563374650139934 109.95018348786495 l -7.1171531387445 0 L 54.446221511395436 103.63944191323773 M 63.342662934826066 109.95009484638433 l 7.1171531387445 0 L 70.45981607357056 135.35917527966387 l -7.1171531387445 0 L 63.342662934826066 109.95009484638433 M 72.23910435825668 135.3742443313773 l 7.1171531387445 0 L 79.35625749700118 144.74045774460615 l -7.1171531387445 0 L 72.23910435825668 135.3742443313773 M 98.92842862854857 121.26225468470226 l 7.1171531387445 0 L 106.04558176729307 126.2326484301594 l -7.1171531387445 0 L 98.92842862854857 121.26225468470226 M 125.61775289884046 103.59636215363342 l 7.1171531387445 0 L 132.73490603758498 125.02792206641018 l -7.1171531387445 0 L 125.61775289884046 103.59636215363342 M 134.51419432227107 125.02659244420016 l 7.1171531387445 0 L 141.63134746101557 136.69136809261263 l -7.1171531387445 0 L 134.51419432227107 125.02659244420016 M 152.30707716913233 134.18183913344092 l 7.1171531387445 0 L 159.42423030787683 154.0687326041094 l -7.1171531387445 0 L 152.30707716913233 134.18183913344092 M 161.20351859256294 154.03176910667116 l 7.1171531387445 0 L 168.32067173130744 155.59318878862553 l -7.1171531387445 0 L 161.20351859256294 154.03176910667116 M 178.9964014394242 120.07242008970515 l 7.1171531387445 0 L 186.1135545781687 126.38661868207845 l -7.1171531387445 0 L 178.9964014394242 120.07242008970515 M 196.78928428628546 120.56943287180665 l 7.1171531387445 0 L 203.90643742502996 136.39964897973653 l -7.1171531387445 0 L 196.78928428628546 120.56943287180665 M 223.47860855657734 92.34332618292056 l 7.1171531387445 0 L 230.59576169532184 95.64291665927986 l -7.1171531387445 0 L 223.47860855657734 92.34332618292056 M 232.37504998000796 95.64504405481587 l 7.1171531387445 0 L 239.49220311875246 111.55432836350097 l -7.1171531387445 0 L 232.37504998000796 95.64504405481587 M 241.2714914034386 111.55441700498166 l 7.1171531387445 0 L 248.3886445421831 113.82390483450634 l -7.1171531387445 0 L 241.2714914034386 111.55441700498166 M 250.16793282686922 113.82390483450634 l 7.1171531387445 0 L 257.28508596561375 133.97326572943075 l -7.1171531387445 0 L 250.16793282686922 113.82390483450634 M 259.06437425029986 133.967592674668 l 7.1171531387445 0 L 266.1815273890444 136.95268317761978 l -7.1171531387445 0 L 259.06437425029986 133.967592674668 M 276.85725709716115 135.9204531352492 l 7.1171531387445 0 L 283.9744102359057 171.29939546510184 l -7.1171531387445 0 L 276.85725709716115 135.9204531352492 M 312.4430227908837 144.2269576471005 l 7.1171531387445 0 L 319.5601759296282 171.51638980977538 l -7.1171531387445 0 L 312.4430227908837 144.2269576471005 M 339.13234706117555 143.87762157179074 l 7.1171531387445 0 L 346.2495001999201 145.71781871044374 l -7.1171531387445 0 L 339.13234706117555 143.87762157179074 M 356.9252299080368 133.15882780505964 l 7.1171531387445 0 L 364.0423830467813 140.84156221745528 l -7.1171531387445 0 L 356.9252299080368 133.15882780505964 M 365.8216713314674 140.84156221745528 l 7.1171531387445 0 L 372.93882447021196 154.49509812611907 l -7.1171531387445 0 L 365.8216713314674 140.84156221745528 M 401.40743702518995 138.6864218979914 l 7.1171531387445 0 L 408.5245901639345 152.85124186714415 l -7.1171531387445 0 L 401.40743702518995 138.6864218979914 M 419.20031987205124 148.15430708954565 l 7.1171531387445 0 L 426.31747301079577 151.326785682628 l -7.1171531387445 0 L 419.20031987205124 148.15430708954565 M 428.0967612954818 151.3268743241087 l 7.1171531387445 0 L 435.21391443422635 160.0704699771305 l -7.1171531387445 0 L 428.0967612954818 151.3268743241087 M 445.8896441423431 151.7372843795983 l 7.1171531387445 0 L 453.00679728108764 154.51123087560052 l -7.1171531387445 0 L 445.8896441423431 151.7372843795983 M 463.68252698920435 147.8087825979045 l 7.1171531387445 0 L 470.7996801279489 158.20084386689598 l -7.1171531387445 0 L 463.68252698920435 147.8087825979045 M 472.57896841263494 158.19809598099525 l 7.1171531387445 0 L 479.69612155137946 161.36410374598896 l -7.1171531387445 0 L 472.57896841263494 158.19809598099525 M 490.3718512594962 160.56402574148598 l 7.1171531387445 0 L 497.48900439824075 168.89659084865352 l -7.1171531387445 0 L 490.3718512594962 160.56402574148598 M 499.2682926829268 168.9454323045012 l 7.1171531387445 0 L 506.38544582167134 173.29436062899995 l -7.1171531387445 0 L 499.2682926829268 168.9454323045012 M 525.9576169532187 169.79568138706188 l 7.1171531387445 0 L 533.0747700919632 178.11840728987534 l -7.1171531387445 0 L 525.9576169532187 169.79568138706188 M 534.8540583766493 178.11840728987534 l 7.1171531387445 0 L 541.9712115153937 187.41955785629443 l -7.1171531387445 0 L 534.8540583766493 178.11840728987534 M 614.9220311875249 96.74623716914567 l 7.1171531387445 0 L 622.0391843262694 96.77362738667183 l -7.1171531387445 0 L 614.9220311875249 96.74623716914567 M 632.7149140343862 77.36220681830268 l 7.1171531387445 0 L 639.8320671731307 83.96183097842464 l -7.1171531387445 0 L 632.7149140343862 77.36220681830268 M 641.6113554578168 83.96174233694403 l 7.1171531387445 0 L 648.7285085965613 98.28975127200523 l -7.1171531387445 0 L 641.6113554578168 83.96174233694403 M 650.5077968812475 98.24693743684296 l 7.1171531387445 0 L 657.624950019992 104.47355824631694 l -7.1171531387445 0 L 650.5077968812475 98.24693743684296 M 659.4042383046781 104.482067828461 l 7.1171531387445 0 L 666.5213914434225 112.81268282305385 l -7.1171531387445 0 L 659.4042383046781 104.482067828461 M 703.8864454218311 56.38803694576916 l 7.1171531387445 0 L 711.0035985605756 63.28585104685587 l -7.1171531387445 0 L 703.8864454218311 56.38803694576916 M 721.6793282686924 41.528799617068785 l 7.1171531387445 0 L 728.7964814074369 47.41353023560907 l -7.1171531387445 0 L 721.6793282686924 41.528799617068785 M 730.5757696921231 47.413441594128386 l 7.1171531387445 0 L 737.6929228308676 48.06938855106637 l -7.1171531387445 0 L 730.5757696921231 47.413441594128386 M 739.4722111155537 48.07231371992839 l 7.1171531387445 0 L 746.5893642542982 57.92632120126936 l -7.1171531387445 0 L 739.4722111155537 48.07231371992839 M 757.265093962415 27.77944226780366 l 7.1171531387445 0 L 764.3822471011595 34.263389295654775 l -7.1171531387445 0 L 757.265093962415 27.77944226780366 M 766.1615353858456 34.26347793713546 l 7.1171531387445 0 L 773.27868852459 35.102735476093386 l -7.1171531387445 0 L 766.1615353858456 34.26347793713546 M 775.0579768092763 35.102735476093386 l 7.1171531387445 0 L 782.1751299480208 44.609800202102576 l -7.1171531387445 0 L 775.0579768092763 35.102735476093386 M 783.9544182327068 44.60971156062189 l 7.1171531387445 0 L 791.0715713714512 55.29411243285412 l -7.1171531387445 0 L 783.9544182327068 44.60971156062189 M 819.5401839264293 14.283954119169607 l 7.1171531387445 0 L 826.6573370651738 18.721346641374282 l -7.1171531387445 0 L 819.5401839264293 14.283954119169607 M 846.2295081967213 12.809137163827216 l 7.1171531387445 0 L 853.3466613354658 28.896147641250195 l -7.1171531387445 0 L 846.2295081967213 12.809137163827216 M 864.0223910435824 17.378871416668176 l 7.1171531387445 0 L 871.1395441823269 36.25463151736486 l -7.1171531387445 0 L 864.0223910435824 17.378871416668176 M 881.8152738904437 16.522771996383426 l 7.1171531387445 0 L 888.9324270291881 20.8132855851224 l -7.1171531387445 0 L 881.8152738904437 16.522771996383426"></path><path class="candle body equal"></path><path class="candle wick up" d="M 13.522590963614554 107.29962593295159 L 13.522590963614554 119.52567943694929 M 13.522590963614554 121.17777935362633 L 13.522590963614554 139.46212349531083 M 31.315473810475808 97.62884039214993 L 31.315473810475808 107.5895722162143 M 31.315473810475808 144.06421188859537 L 31.315473810475808 149.8298083571188 M 49.10835665733706 89.46496002269222 L 49.10835665733706 103.63953055471835 M 49.10835665733706 111.76963852004182 L 49.10835665733706 116.41693406846666 M 84.69412235105956 128.05059655716488 L 84.69412235105956 135.55613664970662 M 84.69412235105956 144.74045774460615 L 84.69412235105956 155.60923289662628 M 93.5905637744902 119.08894286170157 L 93.5905637744902 121.26234332618294 M 93.5905637744902 135.55622529118722 L 93.5905637744902 148.74093640860178 M 111.38344662135144 112.65357136525608 L 111.38344662135144 118.47128902441186 M 111.38344662135144 126.21704752956194 L 111.38344662135144 133.08543265906712 M 120.27988804478207 101.56452213377773 L 120.27988804478207 103.59627351215273 M 120.27988804478207 118.47128902441186 L 120.27988804478207 122.00524757565549 M 146.96921231507397 128.12150974169873 L 146.96921231507397 134.18183913344092 M 146.96921231507397 136.66592798766112 L 146.96921231507397 139.2726080096442 M 173.65853658536582 118.7716950023933 L 173.65853658536582 120.07242008970515 M 173.65853658536582 155.59327743010616 L 173.65853658536582 164.3154218448065 M 191.4514194322271 117.48098640239685 L 191.4514194322271 120.56943287180665 M 191.4514194322271 126.36791532965765 L 191.4514194322271 132.93678089598814 M 209.24430227908834 102.41548034818373 L 209.24430227908834 105.60152108780825 M 209.24430227908834 136.39956033825587 L 209.24430227908834 143.39443686067332 M 218.14074370251896 87.48781179640824 L 218.14074370251896 92.34323754143989 M 218.14074370251896 105.60160972928894 L 218.14074370251896 108.17717659155778 M 271.51939224310274 131.15553034197882 L 271.51939224310274 135.9205417767298 M 271.51939224310274 136.95268317761978 L 271.51939224310274 155.99039126349567 M 289.31227508996403 156.32031485453933 L 289.31227508996403 163.3160777917634 M 289.31227508996403 171.25339053663552 L 289.31227508996403 196.15384615384613 M 298.2087165133947 142.29528250039888 L 298.2087165133947 152.95823213430958 M 298.2087165133947 163.3160777917634 L 298.2087165133947 170.64282801779922 M 307.10515793682526 138.59893275657276 L 307.10515793682526 144.2268690056199 M 307.10515793682526 152.98482457850974 L 307.10515793682526 165.29269416916338 M 324.89804078368655 161.3620649919336 L 324.89804078368655 165.31857748151822 M 324.89804078368655 171.59049408761322 L 324.89804078368655 184.2227028560285 M 333.7944822071172 143.46535004520715 L 333.7944822071172 143.89667949013423 M 333.7944822071172 165.31857748151822 L 333.7944822071172 168.06823621181766 M 351.5873650539784 127.0578119736912 L 351.5873650539784 133.15873916357896 M 351.5873650539784 145.71781871044374 L 351.5873650539784 148.10635204850462 M 378.2766893242703 150.3081177867995 L 378.2766893242703 151.99664935203074 M 378.2766893242703 154.51601751555654 L 378.2766893242703 161.63685358200223 M 387.1731307477009 141.7225698938075 L 387.1731307477009 144.17332955129683 M 387.1731307477009 151.99673799351143 L 387.1731307477009 156.1612033967415 M 396.06957217113154 132.66128317407416 L 396.06957217113154 138.70078181785948 M 396.06957217113154 144.17341819277746 L 396.06957217113154 146.93876646515503 M 413.86245501799283 140.18667895828534 L 413.86245501799283 148.15439573102628 M 413.86245501799283 152.85115322566347 L 413.86245501799283 154.25301824241672 M 440.5517792882847 149.21818214051447 L 440.5517792882847 151.7372843795983 M 440.5517792882847 160.0704699771305 L 440.5517792882847 165.518729944865 M 458.34466213514594 144.20107433474567 L 458.34466213514594 147.8088712393852 M 458.34466213514594 154.51123087560052 L 458.34466213514594 156.25214955590616 M 485.0339864054379 157.95796620986758 L 485.0339864054379 160.56411438296666 M 485.0339864054379 161.36986544223234 L 485.0339864054379 171.8217597106742 M 511.7233106757297 168.22362472742745 L 511.7233106757297 172.0870636623114 M 511.7233106757297 173.29444927048058 L 511.7233106757297 175.24057297853102 M 520.6197520991603 163.97698867161876 L 520.6197520991603 169.79577002854253 M 520.6197520991603 172.0870636623114 L 520.6197520991603 175.73111493254382 M 547.3090763694522 160.22745403939226 L 547.3090763694522 166.55193504352297 M 547.3090763694522 187.4196464977751 L 547.3090763694522 190.14741078234968 M 556.2055177928828 162.59107912138566 L 556.2055177928828 165.2815253425993 M 556.2055177928828 166.55193504352297 L 556.2055177928828 170.42122431613097 M 565.1019592163135 153.20704877054266 L 565.1019592163135 153.34807736628434 M 565.1019592163135 165.28374137961598 L 565.1019592163135 168.50373180633608 M 573.998400639744 145.67252291382275 L 573.998400639744 147.81640576524188 M 573.998400639744 153.34798872480366 L 573.998400639744 155.41298065842892 M 582.8948420631747 137.71251794989982 L 582.8948420631747 137.86303118407292 M 582.8948420631747 147.786533586257 L 582.8948420631747 151.42429131136203 M 591.7912834866053 92.04442711011045 L 591.7912834866053 121.4060311663446 M 591.7912834866053 137.86303118407292 L 591.7912834866053 139.41638449128655 M 600.687724910036 100.97408123105288 L 600.687724910036 101.7252291382275 M 600.687724910036 121.37296789405568 L 600.687724910036 128.98133210417146 M 609.5841663334666 88.94197528675518 L 609.5841663334666 96.74632581062636 M 609.5841663334666 101.7363979647916 L 609.5841663334666 107.80488237275515 M 627.3770491803277 76.38404807913912 L 627.3770491803277 77.36211817682201 M 627.3770491803277 96.75581044905776 L 627.3770491803277 111.87148758132854 M 671.8592562974809 97.1886467991561 L 671.8592562974809 99.37348201464357 M 671.8592562974809 112.81277146453453 L 671.8592562974809 119.00420160618364 M 680.7556977209116 84.95310865672701 L 680.7556977209116 89.27473540518022 M 680.7556977209116 99.37357065612427 L 680.7556977209116 120.56305068519868 M 689.6521391443422 66.84870672079705 L 689.6521391443422 71.77327282074916 M 689.6521391443422 89.27473540518022 L 689.6521391443422 98.21511514528338 M 698.5485805677728 55.25821263318383 L 698.5485805677728 56.38803694576916 M 698.5485805677728 71.77327282074916 L 698.5485805677728 75.2343680748843 M 716.3414634146341 39.70916730193062 L 716.3414634146341 41.48864502632651 M 716.3414634146341 63.285939688336555 L 716.3414634146341 72.28624106937083 M 751.9272291083566 27.017036892584258 L 751.9272291083566 27.779353626322973 M 751.9272291083566 57.91692520431863 L 751.9272291083566 59.53613913166805 M 796.4094362255097 43.73482014643574 L 796.4094362255097 55.21132128991081 M 796.4094362255097 55.29411243285412 L 796.4094362255097 59.66121226088964 M 805.3058776489403 34.57815519350436 L 805.3058776489403 36.992571843920075 M 805.3058776489403 55.26379704646584 L 805.3058776489403 62.10399418511889 M 814.202319072371 13.74749587817118 L 814.202319072371 14.283954119169607 M 814.202319072371 36.992571843920075 L 814.202319072371 38.21254454234406 M 831.9952019192323 12.710301912883153 L 831.9952019192323 15.021894445724826 M 831.9952019192323 18.721257999893652 L 831.9952019192323 25.56331660964065 M 840.8916433426629 3.846153846153868 L 840.8916433426629 12.809137163827216 M 840.8916433426629 15.021894445724826 L 840.8916433426629 16.88531565231267 M 858.6845261895241 14.799581612211256 L 858.6845261895241 17.378871416668176 M 858.6845261895241 28.896147641250195 L 858.6845261895241 33.75130746183984 M 876.4774090363853 15.813374226603088 L 876.4774090363853 16.522771996383426 M 876.4774090363853 36.254720158845544 L 876.4774090363853 40.65009661921394" style="stroke-width: 1px;"></path><path class="candle wick down" d="M 4.626149540183927 77.41858280000709 L 4.626149540183927 92.26257379403266 M 4.626149540183927 121.27829879270301 L 4.626149540183927 154.64304075735282 M 22.41903238704518 112.24901164749056 L 22.41903238704518 119.44785221692341 M 22.41903238704518 144.29636392646302 L 22.41903238704518 175.7130320704877 M 40.21191523390643 98.76549009874664 L 40.21191523390643 107.45926923963339 M 40.21191523390643 111.76963852004182 L 40.21191523390643 128.65672700196782 M 58.004798080767685 93.27530271065649 L 58.004798080767685 103.63944191323773 M 58.004798080767685 109.95018348786495 L 58.004798080767685 122.32196358607976 M 66.90123950419832 106.86678958285317 L 66.90123950419832 109.95009484638433 M 66.90123950419832 135.35917527966387 L 66.90123950419832 144.04151966954456 M 75.79768092762893 120.51092949456626 L 75.79768092762893 135.3742443313773 M 75.79768092762893 144.74045774460615 L 75.79768092762893 153.35986668321306 M 102.48700519792082 115.58042441540945 L 102.48700519792082 121.26225468470226 M 102.48700519792082 126.2326484301594 L 102.48700519792082 135.33692626801638 M 129.1763294682127 103.22149733189143 L 129.1763294682127 103.59636215363342 M 129.1763294682127 125.02792206641018 L 129.1763294682127 136.3195170812133 M 138.07277089164333 115.31281578527488 L 138.07277089164333 125.02659244420016 M 138.07277089164333 136.69136809261263 L 138.07277089164333 143.01327849380397 M 155.8656537385046 124.39856755367241 L 155.8656537385046 134.18183913344092 M 155.8656537385046 154.0687326041094 L 155.8656537385046 156.30950059389792 M 164.7620951619352 149.50174623716913 L 164.7620951619352 154.03176910667116 M 164.7620951619352 155.59318878862553 L 164.7620951619352 176.69704114737533 M 182.55497800879647 110.29570797950609 L 182.55497800879647 120.07242008970515 M 182.55497800879647 126.38661868207845 L 182.55497800879647 134.30868509227577 M 200.34786085565773 119.4024677788218 L 200.34786085565773 120.56943287180665 M 200.34786085565773 136.39964897973653 L 200.34786085565773 144.7829170138458 M 227.0371851259496 85.1303916180616 L 227.0371851259496 92.34332618292056 M 227.0371851259496 95.64291665927986 L 227.0371851259496 101.29505203254914 M 235.93362654938022 92.24706153491589 L 235.93362654938022 95.64504405481587 M 235.93362654938022 111.55432836350097 L 235.93362654938022 113.61967486304889 M 244.83006797281087 100.82099739394049 L 244.83006797281087 111.55441700498166 M 244.83006797281087 113.82390483450634 L 244.83006797281087 120.27673870264329 M 253.72650939624148 112.85000088641483 L 253.72650939624148 113.82390483450634 M 253.72650939624148 133.97326572943075 L 253.72650939624148 140.09440317691065 M 262.6229508196721 128.32538514723348 L 262.6229508196721 133.967592674668 M 262.6229508196721 136.95268317761978 L 262.6229508196721 142.9820766926091 M 280.4158336665334 134.5923378304111 L 280.4158336665334 135.9204531352492 M 280.4158336665334 171.29939546510184 L 280.4158336665334 174.4701012285709 M 316.0015993602559 136.80837484709343 L 316.0015993602559 144.2269576471005 M 316.0015993602559 171.51638980977538 L 316.0015993602559 174.25940042902477 M 342.6909236305478 138.60150335951212 L 342.6909236305478 143.87762157179074 M 342.6909236305478 145.71781871044374 L 342.6909236305478 151.32146719378798 M 360.483806477409 131.48988600705587 L 360.483806477409 133.15882780505964 M 360.483806477409 140.84156221745528 L 360.483806477409 149.94903114861626 M 369.38024790083966 140.7301398762565 L 369.38024790083966 140.84156221745528 M 369.38024790083966 154.49509812611907 L 369.38024790083966 161.53048380520147 M 404.9660135945622 138.63633946141437 L 404.9660135945622 138.6864218979914 M 404.9660135945622 152.85124186714415 L 404.9660135945622 157.8558512241388 M 422.7588964414235 140.7166663711951 L 422.7588964414235 148.15430708954565 M 422.7588964414235 151.326785682628 L 422.7588964414235 152.07447657205668 M 431.65533786485406 150.72827840516248 L 431.65533786485406 151.3268743241087 M 431.65533786485406 160.0704699771305 L 431.65533786485406 167.15035367950784 M 449.44822071171535 147.78219015370433 L 449.44822071171535 151.7372843795983 M 449.44822071171535 154.51123087560052 L 449.44822071171535 158.92637438615776 M 467.2411035585766 144.09089297427624 L 467.2411035585766 147.8087825979045 M 467.2411035585766 158.20084386689598 L 467.2411035585766 161.99726984239544 M 476.13754498200717 155.95493467122873 L 476.13754498200717 158.19809598099525 M 476.13754498200717 161.36410374598896 L 476.13754498200717 166.04011913415002 M 493.93042782886846 157.3266615845551 L 493.93042782886846 160.56402574148598 M 493.93042782886846 168.89659084865352 L 493.93042782886846 175.51810945450032 M 502.82686925229905 165.6241246653784 L 502.82686925229905 168.9454323045012 M 502.82686925229905 173.29436062899995 L 502.82686925229905 176.51975818604072 M 529.5161935225909 168.72817203538568 L 529.5161935225909 169.79568138706188 M 529.5161935225909 178.11840728987534 L 529.5161935225909 181.94958072579644 M 538.4126349460215 176.1379793288067 L 538.4126349460215 178.11840728987534 M 538.4126349460215 187.41955785629443 L 538.4126349460215 191.96110411828317 M 618.4806077568971 91.24665378410481 L 618.4806077568971 96.74623716914567 M 618.4806077568971 96.77362738667183 L 618.4806077568971 104.01102700019501 M 636.2734906037584 75.22027407945822 L 636.2734906037584 77.36220681830268 M 636.2734906037584 83.96183097842464 L 636.2734906037584 88.05423085787223 M 645.169932027189 73.8817877213821 L 645.169932027189 83.96174233694403 M 645.169932027189 98.28975127200523 L 645.169932027189 102.04309748790043 M 654.0663734506197 92.6648288333008 L 654.0663734506197 98.24693743684296 M 654.0663734506197 104.47355824631694 L 654.0663734506197 108.53174251422696 M 662.9628148740503 98.86982112149201 L 662.9628148740503 104.482067828461 M 662.9628148740503 112.81268282305385 L 662.9628148740503 117.82110376371728 M 707.4450219912034 49.85108231247895 L 707.4450219912034 56.38803694576916 M 707.4450219912034 63.28585104685587 L 707.4450219912034 68.01372170120729 M 725.2379048380647 37.5299164997252 L 725.2379048380647 41.528799617068785 M 725.2379048380647 47.41353023560907 L 725.2379048380647 56.23805556048009 M 734.1343462614954 37.14459198326449 L 734.1343462614954 47.413441594128386 M 734.1343462614954 48.06938855106637 L 734.1343462614954 49.57505274168102 M 743.0307876849259 41.801372170120715 L 743.0307876849259 48.07231371992839 M 743.0307876849259 57.92632120126936 L 743.0307876849259 63.501870335242074 M 760.8236705317872 24.730086691368086 L 760.8236705317872 27.77944226780366 M 760.8236705317872 34.263389295654775 L 760.8236705317872 43.99161451592889 M 769.7201119552178 31.57081567890515 L 769.7201119552178 34.26347793713546 M 769.7201119552178 35.102735476093386 L 769.7201119552178 48.16689417980038 M 778.6165533786485 25.52936692254505 L 778.6165533786485 35.102735476093386 M 778.6165533786485 44.609800202102576 L 778.6165533786485 46.74863048912371 M 787.512994802079 33.452408389029756 L 787.512994802079 44.60971156062189 M 787.512994802079 55.29411243285412 L 787.512994802079 58.130196606804105 M 823.0987604958016 10.431861293811068 L 823.0987604958016 14.283954119169607 M 823.0987604958016 18.721346641374282 L 823.0987604958016 24.038683142163222 M 849.7880847660936 9.519208608860623 L 849.7880847660936 12.809137163827216 M 849.7880847660936 28.896147641250195 L 849.7880847660936 29.552183239668835 M 867.5809676129546 14.014749942383077 L 867.5809676129546 17.378871416668176 M 867.5809676129546 36.25463151736486 L 867.5809676129546 41.518783129753416 M 885.3738504598159 14.491995674295765 L 885.3738504598159 16.522771996383426 M 885.3738504598159 20.8132855851224 L 885.3738504598159 22.93172833159008" style="stroke-width: 1px;"></path><path class="candle wick equal" style="stroke-width: 1px;"></path></g></g><g class="x axis" transform="translate(0,200)" fill="none" font-size="10" font-family="sans-serif" text-anchor="middle"><path class="domain" stroke="#000" d="M0.5,6V0.5H890.5V6"></path><g class="tick" opacity="1" transform="translate(31.315473810475808,0)"><line stroke="#000" y2="6" x1="0.5" x2="0.5"></line><text fill="#000" y="9" x="0.5" dy="0.71em">May 24</text></g><g class="tick" opacity="1" transform="translate(93.5905637744902,0)"><line stroke="#000" y2="6" x1="0.5" x2="0.5"></line><text fill="#000" y="9" x="0.5" dy="0.71em">May 31</text></g><g class="tick" opacity="1" transform="translate(155.8656537385046,0)"><line stroke="#000" y2="6" x1="0.5" x2="0.5"></line><text fill="#000" y="9" x="0.5" dy="0.71em">Jun  7</text></g><g class="tick" opacity="1" transform="translate(218.14074370251896,0)"><line stroke="#000" y2="6" x1="0.5" x2="0.5"></line><text fill="#000" y="9" x="0.5" dy="0.71em">Jun 14</text></g><g class="tick" opacity="1" transform="translate(280.4158336665334,0)"><line stroke="#000" y2="6" x1="0.5" x2="0.5"></line><text fill="#000" y="9" x="0.5" dy="0.71em">Jun 21</text></g><g class="tick" opacity="1" transform="translate(342.6909236305478,0)"><line stroke="#000" y2="6" x1="0.5" x2="0.5"></line><text fill="#000" y="9" x="0.5" dy="0.71em">Jun 28</text></g><g class="tick" opacity="1" transform="translate(404.9660135945622,0)"><line stroke="#000" y2="6" x1="0.5" x2="0.5"></line><text fill="#000" y="9" x="0.5" dy="0.71em">Jul  5</text></g><g class="tick" opacity="1" transform="translate(467.2411035585766,0)"><line stroke="#000" y2="6" x1="0.5" x2="0.5"></line><text fill="#000" y="9" x="0.5" dy="0.71em">Jul 12</text></g><g class="tick" opacity="1" transform="translate(529.5161935225909,0)"><line stroke="#000" y2="6" x1="0.5" x2="0.5"></line><text fill="#000" y="9" x="0.5" dy="0.71em">Jul 19</text></g><g class="tick" opacity="1" transform="translate(591.7912834866053,0)"><line stroke="#000" y2="6" x1="0.5" x2="0.5"></line><text fill="#000" y="9" x="0.5" dy="0.71em">Jul 26</text></g><g class="tick" opacity="1" transform="translate(654.0663734506197,0)"><line stroke="#000" y2="6" x1="0.5" x2="0.5"></line><text fill="#000" y="9" x="0.5" dy="0.71em">Aug  2</text></g><g class="tick" opacity="1" transform="translate(716.3414634146341,0)"><line stroke="#000" y2="6" x1="0.5" x2="0.5"></line><text fill="#000" y="9" x="0.5" dy="0.71em">Aug  9</text></g><g class="tick" opacity="1" transform="translate(778.6165533786485,0)"><line stroke="#000" y2="6" x1="0.5" x2="0.5"></line><text fill="#000" y="9" x="0.5" dy="0.71em">Aug 16</text></g><g class="tick" opacity="1" transform="translate(840.8916433426629,0)"><line stroke="#000" y2="6" x1="0.5" x2="0.5"></line><text fill="#000" y="9" x="0.5" dy="0.71em">Aug 23</text></g></g><g class="y axis" fill="none" font-size="10" font-family="sans-serif" text-anchor="end"><path class="domain" stroke="#000" d="M-6,200.5H0.5V0.5H-6"></path><g class="tick" opacity="1" transform="translate(0,185.56118921410462)"><line stroke="#000" x2="-6" y1="0.5" y2="0.5"></line><text fill="#000" x="-9" y="0.5" dy="0.32em">30,000</text></g><g class="tick" opacity="1" transform="translate(0,167.83289308064602)"><line stroke="#000" x2="-6" y1="0.5" y2="0.5"></line><text fill="#000" x="-9" y="0.5" dy="0.32em">32,000</text></g><g class="tick" opacity="1" transform="translate(0,150.10459694718742)"><line stroke="#000" x2="-6" y1="0.5" y2="0.5"></line><text fill="#000" x="-9" y="0.5" dy="0.32em">34,000</text></g><g class="tick" opacity="1" transform="translate(0,132.3763008137288)"><line stroke="#000" x2="-6" y1="0.5" y2="0.5"></line><text fill="#000" x="-9" y="0.5" dy="0.32em">36,000</text></g><g class="tick" opacity="1" transform="translate(0,114.64800468027018)"><line stroke="#000" x2="-6" y1="0.5" y2="0.5"></line><text fill="#000" x="-9" y="0.5" dy="0.32em">38,000</text></g><g class="tick" opacity="1" transform="translate(0,96.91970854681156)"><line stroke="#000" x2="-6" y1="0.5" y2="0.5"></line><text fill="#000" x="-9" y="0.5" dy="0.32em">40,000</text></g><g class="tick" opacity="1" transform="translate(0,79.19141241335295)"><line stroke="#000" x2="-6" y1="0.5" y2="0.5"></line><text fill="#000" x="-9" y="0.5" dy="0.32em">42,000</text></g><g class="tick" opacity="1" transform="translate(0,61.46311627989434)"><line stroke="#000" x2="-6" y1="0.5" y2="0.5"></line><text fill="#000" x="-9" y="0.5" dy="0.32em">44,000</text></g><g class="tick" opacity="1" transform="translate(0,43.73482014643574)"><line stroke="#000" x2="-6" y1="0.5" y2="0.5"></line><text fill="#000" x="-9" y="0.5" dy="0.32em">46,000</text></g><g class="tick" opacity="1" transform="translate(0,26.00652401297711)"><line stroke="#000" x2="-6" y1="0.5" y2="0.5"></line><text fill="#000" x="-9" y="0.5" dy="0.32em">48,000</text></g><g class="tick" opacity="1" transform="translate(0,8.27822787951851)"><line stroke="#000" x2="-6" y1="0.5" y2="0.5"></line><text fill="#000" x="-9" y="0.5" dy="0.32em">50,000</text></g><text transform="rotate(-90)" y="6" dy=".71em" style="text-anchor: end;">Price ($)</text></g></g></svg>