<?xml version="1.0" encoding="utf-8"?>
<!DOCTYPE svg PUBLIC "-//W3C//DTD SVG 1.1//EN" "http://www.w3.org/Graphics/SVG/1.1/DTD/svg11.dtd">
<svg version="1.1" xmlns="http://www.w3.org/2000/svg" width="960" height="250"><g transform="translate(50,20)"><style>.axis path,.axis line{fill:none;stroke:#000;shape-rendering:crispEdges;}path.candle{stroke:#000000;}path.candle.body{stroke-width:0;}path.candle.up{fill:#00AA00;stroke:#00AA00;}path.candle.down{fill:#FF0000;stroke:#FF0000;}</style><g class="candlestick"><g class="data"><path class="candle body up" d="M 36.65333866453418 112.651069737057 l 7.1171531387445 0 L 43.77049180327868 88.08198816160599 l -7.1171531387445 0 L 36.65333866453418 112.651069737057 M 54.446221511395436 94.4294551778628 l 7.1171531387445 0 L 61.563374650139934 83.87576086620672 l -7.1171531387445 0 L 54.446221511395436 94.4294551778628 M 72.23910435825668 94.77441061835967 l 7.1171531387445 0 L 79.35625749700118 92.69088417177589 l -7.1171531387445 0 L 72.23910435825668 94.77441061835967 M 81.13554578168731 92.71792002683723 l 7.1171531387445 0 L 88.25269892043181 91.97090279892831 l -7.1171531387445 0 L 81.13554578168731 92.71792002683723 M 90.03198720511796 91.97090279892831 l 7.1171531387445 0 L 97.14914034386246 80.44176587170217 l -7.1171531387445 0 L 90.03198720511796 91.97090279892831 M 98.92842862854857 80.51150734271752 l 7.1171531387445 0 L 106.04558176729307 72.69836593085002 l -7.1171531387445 0 L 98.92842862854857 80.51150734271752 M 107.82487005197919 72.6983107556356 l 7.1171531387445 0 L 114.94202319072369 58.85308385308386 l -7.1171531387445 0 L 107.82487005197919 72.6983107556356 M 116.72131147540982 58.907321088849784 l 7.1171531387445 0 L 123.83846461415432 53.517144042621766 l -7.1171531387445 0 L 116.72131147540982 58.907321088849784 M 125.61775289884046 53.517144042621766 l 7.1171531387445 0 L 132.73490603758498 42.914840367069644 l -7.1171531387445 0 L 125.61775289884046 53.517144042621766 M 143.4106357457017 45.9574223905434 l 7.1171531387445 0 L 150.5277888844462 24.071235615821593 l -7.1171531387445 0 L 143.4106357457017 45.9574223905434 M 170.09996001599356 54.87660615049151 l 7.1171531387445 0 L 177.21711315473806 47.72838124748952 l -7.1171531387445 0 L 170.09996001599356 54.87660615049151 M 178.9964014394242 47.728436422703936 l 7.1171531387445 0 L 186.1135545781687 36.625914253302795 l -7.1171531387445 0 L 178.9964014394242 47.728436422703936 M 196.78928428628546 43.6440360007239 l 7.1171531387445 0 L 203.90643742502996 41.49766498492613 l -7.1171531387445 0 L 196.78928428628546 43.6440360007239 M 205.68572570971608 41.49766498492613 l 7.1171531387445 0 L 212.80287884846058 41.09891371037867 l -7.1171531387445 0 L 205.68572570971608 41.49766498492613 M 232.37504998000796 63.27399790775587 l 7.1171531387445 0 L 239.49220311875246 61.852463683673875 l -7.1171531387445 0 L 232.37504998000796 63.27399790775587 M 259.06437425029986 78.66495844202852 l 7.1171531387445 0 L 266.1815273890444 58.074616752960736 l -7.1171531387445 0 L 259.06437425029986 78.66495844202852 M 267.9608156737305 58.074616752960736 l 7.1171531387445 0 L 275.07796881247504 53.70722265626725 l -7.1171531387445 0 L 267.9608156737305 58.074616752960736 M 285.7536985205918 53.92510957797583 l 7.1171531387445 0 L 292.8708516593363 43.67454789429311 l -7.1171531387445 0 L 285.7536985205918 53.92510957797583 M 294.65013994402244 43.674603069507555 l 7.1171531387445 0 L 301.76729308276697 37.54402982109991 l -7.1171531387445 0 L 294.65013994402244 43.674603069507555 M 321.3394642143143 37.68814748114113 l 7.1171531387445 0 L 328.45661735305885 36.421545259124855 l -7.1171531387445 0 L 321.3394642143143 37.68814748114113 M 339.13234706117555 46.89413200559699 l 7.1171531387445 0 L 346.2495001999201 40.54865129705894 l -7.1171531387445 0 L 339.13234706117555 46.89413200559699 M 348.02878848460614 40.54865129705894 l 7.1171531387445 0 L 355.14594162335067 35.42850175015781 l -7.1171531387445 0 L 348.02878848460614 40.54865129705894 M 374.7181127548981 52.95518448384689 l 7.1171531387445 0 L 381.8352658936426 41.23552754126004 l -7.1171531387445 0 L 374.7181127548981 52.95518448384689 M 383.61455417832866 41.23552754126004 l 7.1171531387445 0 L 390.7317073170732 40.876778297160456 l -7.1171531387445 0 L 383.61455417832866 41.23552754126004 M 392.5109956017593 40.87672312194604 l 7.1171531387445 0 L 399.62814874050383 31.90203309630064 l -7.1171531387445 0 L 392.5109956017593 40.87672312194604 M 401.40743702518995 31.90203309630064 l 7.1171531387445 0 L 408.5245901639345 30.614795344094716 l -7.1171531387445 0 L 401.40743702518995 31.90203309630064 M 419.20031987205124 31.4006007477345 l 7.1171531387445 0 L 426.31747301079577 10.903063769305817 l -7.1171531387445 0 L 419.20031987205124 31.4006007477345 M 436.99320271891247 14.298932690652464 l 7.1171531387445 0 L 444.110355857657 13.192945517786256 l -7.1171531387445 0 L 436.99320271891247 14.298932690652464 M 481.47540983606564 54.72244660142752 l 7.1171531387445 0 L 488.59256297481016 50.353342073087305 l -7.1171531387445 0 L 481.47540983606564 54.72244660142752 M 534.8540583766493 90.952589041761 l 7.1171531387445 0 L 541.9712115153937 63.72566221292337 l -7.1171531387445 0 L 534.8540583766493 90.952589041761 M 543.75049980008 63.72571738813778 l 7.1171531387445 0 L 550.8676529388244 58.14976539498832 l -7.1171531387445 0 L 543.75049980008 63.72571738813778 M 570.4398240703717 66.18862860901078 l 7.1171531387445 0 L 577.5569772091162 43.35011763355715 l -7.1171531387445 0 L 570.4398240703717 66.18862860901078 M 579.3362654938024 43.33367541966268 l 7.1171531387445 0 L 586.4534186325469 42.764708608657656 l -7.1171531387445 0 L 579.3362654938024 43.33367541966268 M 597.1291483406637 49.50800261309814 l 7.1171531387445 0 L 604.2463014794082 46.246154287555555 l -7.1171531387445 0 L 597.1291483406637 49.50800261309814 M 614.9220311875249 68.11948523731962 l 7.1171531387445 0 L 622.0391843262694 44.774520968788494 l -7.1171531387445 0 L 614.9220311875249 68.11948523731962 M 632.7149140343862 50.52615084462218 l 7.1171531387445 0 L 639.8320671731307 45.44412737087896 l -7.1171531387445 0 L 632.7149140343862 50.52615084462218 M 641.6113554578168 45.44004440501257 l 7.1171531387445 0 L 648.7285085965613 36.90686644508298 l -7.1171531387445 0 L 641.6113554578168 45.44004440501257 M 668.3006797281087 53.712740177708326 l 7.1171531387445 0 L 675.4178328668531 49.001438969591845 l -7.1171531387445 0 L 668.3006797281087 53.712740177708326 M 686.09356257497 88.35720213108746 l 7.1171531387445 0 L 693.2107157137144 87.61884741184103 l -7.1171531387445 0 L 686.09356257497 88.35720213108746 M 694.9900039984005 87.61360576647202 l 7.1171531387445 0 L 702.107157137145 86.67822035656431 l -7.1171531387445 0 L 694.9900039984005 87.61360576647202 M 748.3686525389844 159.34519159041452 l 7.1171531387445 0 L 755.4858056777289 138.0728842512282 l -7.1171531387445 0 L 748.3686525389844 159.34519159041452 M 766.1615353858456 156.0781567947173 l 7.1171531387445 0 L 773.27868852459 155.04980114852725 l -7.1171531387445 0 L 766.1615353858456 156.0781567947173 M 783.9544182327068 170.32390057867764 l 7.1171531387445 0 L 791.0715713714512 147.62012747681536 l -7.1171531387445 0 L 783.9544182327068 170.32390057867764 M 801.747301079568 150.22202506278938 l 7.1171531387445 0 L 808.8644542183125 145.16140957223757 l -7.1171531387445 0 L 801.747301079568 150.22202506278938 M 837.3330667732906 170.74483228941827 l 7.1171531387445 0 L 844.4502199120351 165.02801797387787 l -7.1171531387445 0 L 837.3330667732906 170.74483228941827 M 846.2295081967213 165.02807314909225 l 7.1171531387445 0 L 853.3466613354658 156.1307939492653 l -7.1171531387445 0 L 846.2295081967213 165.02807314909225 M 864.0223910435824 159.214867733976 l 7.1171531387445 0 L 871.1395441823269 154.3934919731098 l -7.1171531387445 0 L 864.0223910435824 159.214867733976 M 872.9188324670131 154.3934919731098 l 7.1171531387445 0 L 880.0359856057576 145.13448406760506 l -7.1171531387445 0 L 872.9188324670131 154.3934919731098"></path><path class="candle body down" d="M 1.0675729708116766 87.58993559948975 l 7.1171531387445 0 L 8.184726109556177 101.94917479949326 l -7.1171531387445 0 L 1.0675729708116766 87.58993559948975 M 9.964014394242305 101.94917479949326 l 7.1171531387445 0 L 17.081167532986804 106.34586693503888 l -7.1171531387445 0 L 9.964014394242305 101.94917479949326 M 18.860455817672932 106.34581175982451 l 7.1171531387445 0 L 25.977608956417434 107.286273289458 l -7.1171531387445 0 L 18.860455817672932 106.34581175982451 M 27.75689724110356 107.30150164863541 l 7.1171531387445 0 L 34.87405037984806 112.64251757882329 l -7.1171531387445 0 L 27.75689724110356 107.30150164863541 M 45.54978008796481 88.03382019942529 l 7.1171531387445 0 L 52.66693322670931 94.40716439124081 l -7.1171531387445 0 L 45.54978008796481 88.03382019942529 M 63.342662934826066 83.87576086620672 l 7.1171531387445 0 L 70.45981607357056 94.77441061835967 l -7.1171531387445 0 L 63.342662934826066 83.87576086620672 M 134.51419432227107 42.91489554228406 l 7.1171531387445 0 L 141.63134746101557 45.9574223905434 l -7.1171531387445 0 L 134.51419432227107 42.91489554228406 M 152.30707716913233 24.071290791036034 l 7.1171531387445 0 L 159.42423030787683 36.320574616752964 l -7.1171531387445 0 L 152.30707716913233 24.071290791036034 M 161.20351859256294 36.277703475155704 l 7.1171531387445 0 L 168.32067173130744 54.87660615049151 l -7.1171531387445 0 L 161.20351859256294 36.277703475155704 M 187.89284286285485 36.625914253302795 l 7.1171531387445 0 L 195.00999600159935 43.60453054720571 l -7.1171531387445 0 L 187.89284286285485 36.625914253302795 M 214.5821671331467 41.11138330883557 l 7.1171531387445 0 L 221.6993202718912 45.241027406632526 l -7.1171531387445 0 L 214.5821671331467 41.11138330883557 M 223.47860855657734 45.241027406632526 l 7.1171531387445 0 L 230.59576169532184 63.27399790775587 l -7.1171531387445 0 L 223.47860855657734 45.241027406632526 M 241.2714914034386 61.84192521772138 l 7.1171531387445 0 L 248.3886445421831 73.09297906431664 l -7.1171531387445 0 L 241.2714914034386 61.84192521772138 M 250.16793282686922 73.09292388910222 l 7.1171531387445 0 L 257.28508596561375 78.66495844202852 l -7.1171531387445 0 L 250.16793282686922 73.09292388910222 M 276.85725709716115 53.70722265626725 l 7.1171531387445 0 L 283.9744102359057 53.92521992840466 l -7.1171531387445 0 L 276.85725709716115 53.70722265626725 M 303.54658136745303 37.54402982109991 l 7.1171531387445 0 L 310.66373450619756 37.577245300175235 l -7.1171531387445 0 L 303.54658136745303 37.54402982109991 M 312.4430227908837 37.58325939854603 l 7.1171531387445 0 L 319.5601759296282 37.688202656355514 l -7.1171531387445 0 L 312.4430227908837 37.58325939854603 M 330.23590563774496 36.421545259124855 l 7.1171531387445 0 L 337.3530587764895 46.89418718081137 l -7.1171531387445 0 L 330.23590563774496 36.421545259124855 M 356.9252299080368 35.42850175015781 l 7.1171531387445 0 L 364.0423830467813 41.71207586812682 l -7.1171531387445 0 L 356.9252299080368 35.42850175015781 M 365.8216713314674 41.718255492140855 l 7.1171531387445 0 L 372.93882447021196 52.95512930863251 l -7.1171531387445 0 L 365.8216713314674 41.718255492140855 M 410.3038784486206 30.63482394692585 l 7.1171531387445 0 L 417.4210315873651 31.400655922948914 l -7.1171531387445 0 L 410.3038784486206 30.63482394692585 M 428.0967612954818 10.903008594091403 l 7.1171531387445 0 L 435.21391443422635 14.298932690652464 l -7.1171531387445 0 L 428.0967612954818 10.903008594091403 M 445.8896441423431 13.199787244373255 l 7.1171531387445 0 L 453.00679728108764 23.263415301631852 l -7.1171531387445 0 L 445.8896441423431 13.199787244373255 M 454.7860855657737 23.263360126417467 l 7.1171531387445 0 L 461.90323870451823 30.591456228398897 l -7.1171531387445 0 L 454.7860855657737 23.263360126417467 M 463.68252698920435 30.591401053184512 l 7.1171531387445 0 L 470.7996801279489 51.87060529417215 l -7.1171531387445 0 L 463.68252698920435 30.591401053184512 M 472.57896841263494 51.87060529417215 l 7.1171531387445 0 L 479.69612155137946 54.72244660142752 l -7.1171531387445 0 L 472.57896841263494 51.87060529417215 M 490.3718512594962 50.353342073087305 l 7.1171531387445 0 L 497.48900439824075 64.90508759617043 l -7.1171531387445 0 L 490.3718512594962 50.353342073087305 M 499.2682926829268 64.90514277138479 l 7.1171531387445 0 L 506.38544582167134 76.47350927605704 l -7.1171531387445 0 L 499.2682926829268 64.90514277138479 M 508.16473410635746 76.47356445127147 l 7.1171531387445 0 L 515.281887245102 79.59543325785366 l -7.1171531387445 0 L 508.16473410635746 76.47356445127147 M 517.0611755297881 79.67587872046474 l 7.1171531387445 0 L 524.1783286685326 85.53945910633811 l -7.1171531387445 0 L 517.0611755297881 79.67587872046474 M 525.9576169532187 85.53945910633811 l 7.1171531387445 0 L 533.0747700919632 90.95253386654663 l -7.1171531387445 0 L 525.9576169532187 85.53945910633811 M 552.6469412235106 58.14976539498832 l 7.1171531387445 0 L 559.764094362255 59.06429457384871 l -7.1171531387445 0 L 552.6469412235106 58.14976539498832 M 561.5433826469413 59.0642393986343 l 7.1171531387445 0 L 568.6605357856857 66.18862860901078 l -7.1171531387445 0 L 561.5433826469413 59.0642393986343 M 588.232706917233 42.781371523409746 l 7.1171531387445 0 L 595.3498600559775 49.50800261309814 l -7.1171531387445 0 L 588.232706917233 42.781371523409746 M 606.0255897640943 46.246154287555555 l 7.1171531387445 0 L 613.1427429028388 68.14729354538272 l -7.1171531387445 0 L 606.0255897640943 46.246154287555555 M 623.8184726109555 44.774520968788494 l 7.1171531387445 0 L 630.9356257497 50.52615084462218 l -7.1171531387445 0 L 623.8184726109555 44.774520968788494 M 650.5077968812475 36.882147949026944 l 7.1171531387445 0 L 657.624950019992 40.334405939501494 l -7.1171531387445 0 L 650.5077968812475 36.882147949026944 M 659.4042383046781 40.33446111471588 l 7.1171531387445 0 L 666.5213914434225 53.712740177708326 l -7.1171531387445 0 L 659.4042383046781 40.33446111471588 M 677.1971211515394 49.001438969591845 l 7.1171531387445 0 L 684.3142742902838 87.8376171369802 l -7.1171531387445 0 L 677.1971211515394 49.001438969591845 M 703.8864454218311 86.66326787345895 l 7.1171531387445 0 L 711.0035985605756 103.66368941209707 l -7.1171531387445 0 L 703.8864454218311 86.66326787345895 M 712.7828868452618 103.66368941209707 l 7.1171531387445 0 L 719.9000399840063 105.49269259460343 l -7.1171531387445 0 L 712.7828868452618 103.66368941209707 M 721.6793282686924 105.51845941973329 l 7.1171531387445 0 L 728.7964814074369 121.45742018353482 l -7.1171531387445 0 L 721.6793282686924 105.51845941973329 M 730.5757696921231 121.45753053396368 l 7.1171531387445 0 L 737.6929228308676 125.25490949057829 l -7.1171531387445 0 L 730.5757696921231 121.45753053396368 M 739.4722111155537 125.25490949057829 l 7.1171531387445 0 L 746.5893642542982 159.24113113603562 l -7.1171531387445 0 L 739.4722111155537 125.25490949057829 M 757.265093962415 138.07978115302956 l 7.1171531387445 0 L 764.3822471011595 156.14072548785924 l -7.1171531387445 0 L 757.265093962415 138.07978115302956 M 775.0579768092763 155.0013573102745 l 7.1171531387445 0 L 782.1751299480208 170.46840446521975 l -7.1171531387445 0 L 775.0579768092763 155.0013573102745 M 792.8508596561375 147.53901991163139 l 7.1171531387445 0 L 799.9680127948819 150.22202506278938 l -7.1171531387445 0 L 792.8508596561375 147.53901991163139 M 810.6437425029987 145.1613543970232 l 7.1171531387445 0 L 817.7608956417432 149.08949861179158 l -7.1171531387445 0 L 810.6437425029987 145.1613543970232 M 819.5401839264293 149.0894434365772 l 7.1171531387445 0 L 826.6573370651738 164.90541864745688 l -7.1171531387445 0 L 819.5401839264293 149.0894434365772 M 828.43662534986 164.9147984339067 l 7.1171531387445 0 L 835.5537784886045 170.74483228941827 l -7.1171531387445 0 L 828.43662534986 164.9147984339067 M 855.1259496201519 156.13073877405088 l 7.1171531387445 0 L 862.2431027588964 159.22457857171236 l -7.1171531387445 0 L 855.1259496201519 156.13073877405088 M 881.8152738904437 145.1345392428195 l 7.1171531387445 0 L 888.9324270291881 152.09268553217598 l -7.1171531387445 0 L 881.8152738904437 145.1345392428195"></path><path class="candle body equal"></path><path class="candle wick up" d="M 40.21191523390643 86.9620968347083 L 40.21191523390643 88.08198816160599 M 40.21191523390643 112.651069737057 L 40.21191523390643 113.663976323212 M 58.004798080767685 71.23716072760661 L 58.004798080767685 83.87576086620672 M 58.004798080767685 94.4294551778628 L 58.004798080767685 96.28279062992439 M 75.79768092762893 88.8439578726203 L 75.79768092762893 92.69088417177589 M 75.79768092762893 94.77441061835967 L 75.79768092762893 106.21824666410654 M 84.69412235105956 90.21743448495042 L 84.69412235105956 91.97090279892831 M 84.69412235105956 92.71792002683723 L 84.69412235105956 101.96975515446853 M 93.5905637744902 77.80284571685847 L 93.5905637744902 80.44176587170217 M 93.5905637744902 91.97090279892831 L 93.5905637744902 91.97090279892831 M 102.48700519792082 72.54602716386157 L 102.48700519792082 72.69836593085002 M 102.48700519792082 80.51150734271752 L 102.48700519792082 89.80544115894435 M 111.38344662135144 58.79514987795241 L 111.38344662135144 58.85308385308386 M 111.38344662135144 72.6983107556356 L 111.38344662135144 75.93030929018187 M 120.27988804478207 45.04167935696597 L 120.27988804478207 53.517144042621766 M 120.27988804478207 58.907321088849784 L 120.27988804478207 69.22326540160935 M 129.1763294682127 40.83561758720995 L 129.1763294682127 42.914840367069644 M 129.1763294682127 53.517144042621766 L 129.1763294682127 62.22804136816876 M 146.96921231507397 20.453893383829694 L 146.96921231507397 24.071235615821593 M 146.96921231507397 45.9574223905434 L 146.96921231507397 52.266652983213504 M 173.65853658536582 47.52125349259106 L 173.65853658536582 47.72838124748952 M 173.65853658536582 54.87660615049151 L 173.65853658536582 67.75372874098991 M 182.55497800879647 36.285152129101164 L 182.55497800879647 36.625914253302795 M 182.55497800879647 47.728436422703936 L 182.55497800879647 63.05086934067825 M 200.34786085565773 33.56352432785553 L 200.34786085565773 41.49766498492613 M 200.34786085565773 43.6440360007239 L 200.34786085565773 51.20447493058958 M 209.24430227908834 31.290305494127153 L 209.24430227908834 41.09891371037867 M 209.24430227908834 41.49766498492613 L 209.24430227908834 42.655461684124134 M 235.93362654938022 53.63130156123785 L 235.93362654938022 61.852463683673875 M 235.93362654938022 63.27399790775587 L 235.93362654938022 69.2508530088148 M 262.6229508196721 57.81049300157582 L 262.6229508196721 58.074616752960736 M 262.6229508196721 78.66495844202852 L 262.6229508196721 79.10183578973388 M 271.51939224310274 48.83403736906922 L 271.51939224310274 53.70722265626725 M 271.51939224310274 58.074616752960736 L 271.51939224310274 64.0092076397809 M 289.31227508996403 39.42412525215073 L 289.31227508996403 43.67454789429311 M 289.31227508996403 53.92510957797583 L 289.31227508996403 59.31925923964141 M 298.2087165133947 34.115276471964364 L 298.2087165133947 37.54402982109991 M 298.2087165133947 43.674603069507555 L 298.2087165133947 46.787092089639884 M 324.89804078368655 29.524698632978897 L 324.89804078368655 36.421545259124855 M 324.89804078368655 37.68814748114113 L 324.89804078368655 39.298601639365984 M 342.6909236305478 38.943935361132844 L 342.6909236305478 40.54865129705894 M 342.6909236305478 46.89413200559699 L 342.6909236305478 50.55749036640756 M 351.5873650539784 34.644958530308855 L 351.5873650539784 35.42850175015781 M 351.5873650539784 40.54865129705894 L 351.5873650539784 48.40692603431461 M 378.2766893242703 40.81735459123996 L 378.2766893242703 41.23552754126004 M 378.2766893242703 52.95518448384689 L 378.2766893242703 54.35354511787634 M 387.1731307477009 36.725615865743265 L 387.1731307477009 40.876778297160456 M 387.1731307477009 41.23552754126004 L 387.1731307477009 43.57230822198977 M 396.06957217113154 22.35192075956408 L 396.06957217113154 31.90203309630064 M 396.06957217113154 40.87672312194604 L 396.06957217113154 42.21494277226759 M 404.9660135945622 26.771455433875815 L 404.9660135945622 30.614795344094716 M 404.9660135945622 31.90203309630064 L 404.9660135945622 34.862790276803025 M 422.7588964414235 9.78427594669634 L 422.7588964414235 10.903063769305817 M 422.7588964414235 31.4006007477345 L 422.7588964414235 31.703291973992634 M 440.5517792882847 9.661621445060945 L 440.5517792882847 13.192945517786256 M 440.5517792882847 14.298932690652464 L 440.5517792882847 19.48280961019816 M 485.0339864054379 46.760111409792955 L 485.0339864054379 50.353342073087305 M 485.0339864054379 54.72244660142752 L 485.0339864054379 67.4302916341133 M 538.4126349460215 61.76567307140556 L 538.4126349460215 63.72566221292337 M 538.4126349460215 90.952589041761 L 538.4126349460215 92.6813388596828 M 547.3090763694522 55.67775026373752 L 547.3090763694522 58.14976539498832 M 547.3090763694522 63.72571738813778 L 547.3090763694522 68.02596324889319 M 573.998400639744 41.86739409669346 L 573.998400639744 43.35011763355715 M 573.998400639744 66.18862860901078 L 573.998400639744 69.17907005486623 M 582.8948420631747 39.13583475685388 L 582.8948420631747 42.764708608657656 M 582.8948420631747 43.33367541966268 L 582.8948420631747 47.42276573486765 M 600.687724910036 36.24812956023146 L 600.687724910036 46.246154287555555 M 600.687724910036 49.50800261309814 L 600.687724910036 50.29816685867641 M 618.4806077568971 41.27801245635641 L 618.4806077568971 44.774520968788494 M 618.4806077568971 68.11948523731962 L 618.4806077568971 69.80260515292363 M 636.2734906037584 38.07685686666579 L 636.2734906037584 45.44412737087896 M 636.2734906037584 50.52615084462218 L 636.2734906037584 56.882611420828 M 645.169932027189 33.38696364174072 L 645.169932027189 36.90686644508298 M 645.169932027189 45.44004440501257 L 645.169932027189 47.73251938857035 M 671.8592562974809 47.93981266911203 L 671.8592562974809 49.001438969591845 M 671.8592562974809 53.712740177708326 L 671.8592562974809 61.69184863452381 M 689.6521391443422 78.25991719303819 L 689.6521391443422 87.61884741184103 M 689.6521391443422 88.35720213108746 L 689.6521391443422 107.87350309643303 M 698.5485805677728 77.62093303494578 L 698.5485805677728 86.67822035656431 M 698.5485805677728 87.61360576647202 L 698.5485805677728 92.42582244174602 M 751.9272291083566 127.45148995148996 L 751.9272291083566 138.0728842512282 M 751.9272291083566 159.34519159041452 L 751.9272291083566 169.3938671645678 M 769.7201119552178 147.43964935047737 L 769.7201119552178 155.04980114852725 M 769.7201119552178 156.0781567947173 L 769.7201119552178 167.4593137968934 M 787.512994802079 141.42003345825003 L 787.512994802079 147.62012747681536 M 787.512994802079 170.32390057867764 L 787.512994802079 173.91271722481912 M 805.3058776489403 136.33839621100768 L 805.3058776489403 145.16140957223757 M 805.3058776489403 150.22202506278938 L 805.3058776489403 153.11475120392316 M 840.8916433426629 160.35616704406513 L 840.8916433426629 165.02801797387787 M 840.8916433426629 170.74483228941827 L 840.8916433426629 177.5101412044087 M 849.7880847660936 154.77795286712484 L 849.7880847660936 156.1307939492653 M 849.7880847660936 165.02807314909225 L 849.7880847660936 173.23494489099585 M 867.5809676129546 150.7722323008947 L 867.5809676129546 154.3934919731098 M 867.5809676129546 159.214867733976 L 867.5809676129546 163.49011922260328 M 876.4774090363853 143.86981297809322 L 876.4774090363853 145.13448406760506 M 876.4774090363853 154.3934919731098 L 876.4774090363853 156.59321742124288" style="stroke-width: 1px;"></path><path class="candle wick down" d="M 4.626149540183927 74.53812828016649 L 4.626149540183927 87.58993559948975 M 4.626149540183927 101.94917479949326 L 4.626149540183927 104.15281768784955 M 13.522590963614554 94.49842419587642 L 13.522590963614554 101.94917479949326 M 13.522590963614554 106.34586693503888 L 13.522590963614554 118.31938503913027 M 22.41903238704518 94.66455676646758 L 22.41903238704518 106.34581175982451 M 22.41903238704518 107.286273289458 L 22.41903238704518 113.39102453752136 M 31.315473810475808 104.35078635715578 L 31.315473810475808 107.30150164863541 M 31.315473810475808 112.64251757882329 L 31.315473810475808 124.426067419698 M 49.10835665733706 84.69991304386208 L 49.10835665733706 88.03382019942529 M 49.10835665733706 94.40716439124081 L 49.10835665733706 102.09334763474892 M 66.90123950419832 76.01599639816202 L 66.90123950419832 83.87576086620672 M 66.90123950419832 94.77441061835967 L 66.90123950419832 99.59722093480055 M 138.07277089164333 41.213512630710056 L 138.07277089164333 42.91489554228406 M 138.07277089164333 45.9574223905434 L 138.07277089164333 58.42084122338903 M 155.8656537385046 21.111637114821832 L 155.8656537385046 24.071290791036034 M 155.8656537385046 36.320574616752964 L 155.8656537385046 36.329016424557835 M 164.7620951619352 27.13323931476799 L 164.7620951619352 36.277703475155704 M 164.7620951619352 54.87660615049151 L 164.7620951619352 60.42281870307349 M 191.4514194322271 29.911090659498313 L 191.4514194322271 36.625914253302795 M 191.4514194322271 43.60453054720571 L 191.4514194322271 47.05386425131647 M 218.14074370251896 38.412873922428076 L 218.14074370251896 41.11138330883557 M 218.14074370251896 45.241027406632526 L 218.14074370251896 55.73231855078987 M 227.0371851259496 39.286683793053214 L 227.0371851259496 45.241027406632526 M 227.0371851259496 63.27399790775587 L 227.0371851259496 65.66446407210739 M 244.83006797281087 46.07726295624386 L 244.83006797281087 61.84192521772138 M 244.83006797281087 73.09297906431664 L 244.83006797281087 76.42363088222962 M 253.72650939624148 67.66732435522243 L 253.72650939624148 73.09292388910222 M 253.72650939624148 78.66495844202852 L 253.72650939624148 83.44434586472804 M 280.4158336665334 49.60985605890065 L 280.4158336665334 53.70722265626725 M 280.4158336665334 53.92521992840466 L 280.4158336665334 59.91608953392395 M 307.10515793682526 31.731707209414225 L 307.10515793682526 37.54402982109991 M 307.10515793682526 37.577245300175235 L 307.10515793682526 48.45531469735292 M 316.0015993602559 33.44213885615159 L 316.0015993602559 37.58325939854603 M 316.0015993602559 37.688202656355514 L 316.0015993602559 42.01940181239547 M 333.7944822071172 31.777392286946423 L 333.7944822071172 36.421545259124855 M 333.7944822071172 46.89418718081137 L 333.7944822071172 47.84286981739211 M 360.483806477409 33.41322704380033 L 360.483806477409 35.42850175015781 M 360.483806477409 41.71207586812682 L 360.483806477409 44.90192053886324 M 369.38024790083966 38.049269259460345 L 369.38024790083966 41.718255492140855 M 369.38024790083966 52.95512930863251 L 369.38024790083966 55.606022485003365 M 413.86245501799283 23.455425047781745 L 413.86245501799283 30.63482394692585 M 413.86245501799283 31.400655922948914 L 413.86245501799283 34.21133652025375 M 431.65533786485406 3.846153846153868 L 431.65533786485406 10.903008594091403 M 431.65533786485406 14.298932690652464 L 431.65533786485406 23.449907526340667 M 449.44822071171535 11.203161760486609 L 449.44822071171535 13.199787244373255 M 449.44822071171535 23.263415301631852 L 449.44822071171535 30.62820292119656 M 458.34466213514594 16.80101831375714 L 458.34466213514594 23.263360126417467 M 458.34466213514594 30.591456228398897 L 458.34466213514594 32.940540981942235 M 467.2411035585766 27.87495972209348 L 467.2411035585766 30.591401053184512 M 467.2411035585766 51.87060529417215 L 467.2411035585766 80.6649496139942 M 476.13754498200717 44.27408177408179 L 476.13754498200717 51.87060529417215 M 476.13754498200717 54.72244660142752 L 476.13754498200717 62.51075916681012 M 493.93042782886846 48.516504010134554 L 493.93042782886846 50.353342073087305 M 493.93042782886846 64.90508759617043 L 493.93042782886846 66.29335116596263 M 502.82686925229905 55.33853304553941 L 502.82686925229905 64.90514277138479 M 502.82686925229905 76.47350927605704 L 502.82686925229905 83.0446566115356 M 511.7233106757297 74.04088924789562 L 511.7233106757297 76.47356445127147 M 511.7233106757297 79.59543325785366 L 511.7233106757297 99.59722093480055 M 520.6197520991603 79.36877347705374 L 520.6197520991603 79.67587872046474 M 520.6197520991603 85.53945910633811 L 520.6197520991603 93.2126761744596 M 529.5161935225909 82.66996173047127 L 529.5161935225909 85.53945910633811 M 529.5161935225909 90.95253386654663 L 529.5161935225909 102.7422081562209 M 556.2055177928828 50.33678950876404 L 556.2055177928828 58.14976539498832 M 556.2055177928828 59.06429457384871 L 556.2055177928828 64.7642252737794 M 565.1019592163135 57.13525872761545 L 565.1019592163135 59.0642393986343 M 565.1019592163135 66.18862860901078 L 565.1019592163135 72.94240590418933 M 591.7912834866053 42.15419486120123 L 591.7912834866053 42.781371523409746 M 591.7912834866053 49.50800261309814 L 591.7912834866053 52.50379605475149 M 609.5841663334666 46.07726295624386 L 609.5841663334666 46.246154287555555 M 609.5841663334666 68.14729354538272 L 609.5841663334666 68.99323993273038 M 627.3770491803277 39.676938084581394 L 627.3770491803277 44.774520968788494 M 627.3770491803277 50.52615084462218 L 627.3770491803277 57.1123058384205 M 654.0663734506197 34.490467929958385 L 654.0663734506197 36.882147949026944 M 654.0663734506197 40.334405939501494 L 654.0663734506197 51.398029582742964 M 662.9628148740503 33.38696364174072 L 662.9628148740503 40.33446111471588 M 662.9628148740503 53.712740177708326 L 662.9628148740503 67.04384443237947 M 680.7556977209116 41.66319062815879 L 680.7556977209116 49.001438969591845 M 680.7556977209116 87.8376171369802 L 680.7556977209116 93.5279473496034 M 707.4450219912034 81.94115232331794 L 707.4450219912034 86.66326787345895 M 707.4450219912034 103.66368941209707 L 707.4450219912034 104.81127869662902 M 716.3414634146341 86.92959863342028 L 716.3414634146341 103.66368941209707 M 716.3414634146341 105.49269259460343 L 716.3414634146341 119.8719603974381 M 725.2379048380647 104.08848338784644 L 725.2379048380647 105.51845941973329 M 725.2379048380647 121.45742018353482 L 725.2379048380647 129.9380713393452 M 734.1343462614954 108.98092482487385 L 734.1343462614954 121.45753053396368 M 734.1343462614954 125.25490949057829 L 734.1343462614954 128.56409815008544 M 743.0307876849259 121.19886912880543 L 743.0307876849259 125.25490949057829 M 743.0307876849259 159.24113113603562 L 743.0307876849259 196.15384615384613 M 760.8236705317872 128.84008457256863 L 760.8236705317872 138.07978115302956 M 760.8236705317872 156.14072548785924 L 760.8236705317872 176.9087313673301 M 778.6165533786485 150.52041262232345 L 778.6165533786485 155.0013573102745 M 778.6165533786485 170.46840446521975 L 778.6165533786485 190.02382465758262 M 796.4094362255097 142.12754523264078 L 796.4094362255097 147.53901991163139 M 796.4094362255097 150.22202506278938 L 796.4094362255097 160.73345516020674 M 814.202319072371 138.7101579776739 L 814.202319072371 145.1613543970232 M 814.202319072371 149.08949861179158 L 814.202319072371 156.790358462333 M 823.0987604958016 147.170228778509 L 823.0987604958016 149.0894434365772 M 823.0987604958016 164.90541864745688 L 823.0987604958016 170.30977572378845 M 831.9952019192323 155.66307365670423 L 831.9952019192323 164.9147984339067 M 831.9952019192323 170.74483228941827 L 831.9952019192323 176.11001496351813 M 858.6845261895241 152.59406270552768 L 858.6845261895241 156.13073877405088 M 858.6845261895241 159.22457857171236 L 858.6845261895241 164.89156966863973 M 885.3738504598159 144.90120326107586 L 885.3738504598159 145.1345392428195 M 885.3738504598159 152.09268553217598 L 885.3738504598159 155.76415464950495" style="stroke-width: 1px;"></path><path class="candle wick equal" style="stroke-width: 1px;"></path></g></g><g class="x axis" transform="translate(0,200)" fill="none" font-size="10" font-family="sans-serif" text-anchor="middle"><path class="domain" stroke="#000" d="M0.5,6V0.5H890.5V6"></path><g class="tick" opacity="1" transform="translate(40.21191523390643,0)"><line stroke="#000" y2="6" x1="0.5" x2="0.5"></line><text fill="#000" y="9" x="0.5" dy="0.71em">Mar  1</text></g><g class="tick" opacity="1" transform="translate(102.48700519792082,0)"><line stroke="#000" y2="6" x1="0.5" x2="0.5"></line><text fill="#000" y="9" x="0.5" dy="0.71em">Mar  8</text></g><g class="tick" opacity="1" transform="translate(164.7620951619352,0)"><line stroke="#000" y2="6" x1="0.5" x2="0.5"></line><text fill="#000" y="9" x="0.5" dy="0.71em">Mar 15</text></g><g class="tick" opacity="1" transform="translate(227.0371851259496,0)"><line stroke="#000" y2="6" x1="0.5" x2="0.5"></line><text fill="#000" y="9" x="0.5" dy="0.71em">Mar 22</text></g><g class="tick" opacity="1" transform="translate(289.31227508996403,0)"><line stroke="#000" y2="6" x1="0.5" x2="0.5"></line><text fill="#000" y="9" x="0.5" dy="0.71em">Mar 29</text></g><g class="tick" opacity="1" transform="translate(351.5873650539784,0)"><line stroke="#000" y2="6" x1="0.5" x2="0.5"></line><text fill="#000" y="9" x="0.5" dy="0.71em">Apr  5</text></g><g class="tick" opacity="1" transform="translate(413.86245501799283,0)"><line stroke="#000" y2="6" x1="0.5" x2="0.5"></line><text fill="#000" y="9" x="0.5" dy="0.71em">Apr 12</text></g><g class="tick" opacity="1" transform="translate(476.13754498200717,0)"><line stroke="#000" y2="6" x1="0.5" x2="0.5"></line><text fill="#000" y="9" x="0.5" dy="0.71em">Apr 19</text></g><g class="tick" opacity="1" transform="translate(538.4126349460215,0)"><line stroke="#000" y2="6" x1="0.5" x2="0.5"></line><text fill="#000" y="9" x="0.5" dy="0.71em">Apr 26</text></g><g class="tick" opacity="1" transform="translate(600.687724910036,0)"><line stroke="#000" y2="6" x1="0.5" x2="0.5"></line><text fill="#000" y="9" x="0.5" dy="0.71em">May  3</text></g><g class="tick" opacity="1" transform="translate(662.9628148740503,0)"><line stroke="#000" y2="6" x1="0.5" x2="0.5"></line><text fill="#000" y="9" x="0.5" dy="0.71em">May 10</text></g><g class="tick" opacity="1" transform="translate(725.2379048380647,0)"><line stroke="#000" y2="6" x1="0.5" x2="0.5"></line><text fill="#000" y="9" x="0.5" dy="0.71em">May 17</text></g><g class="tick" opacity="1" transform="translate(787.512994802079,0)"><line stroke="#000" y2="6" x1="0.5" x2="0.5"></line><text fill="#000" y="9" x="0.5" dy="0.71em">May 24</text></g><g class="tick" opacity="1" transform="translate(849.7880847660936,0)"><line stroke="#000" y2="6" x1="0.5" x2="0.5"></line><text fill="#000" y="9" x="0.5" dy="0.71em">May 31</text></g></g><g class="y axis" fill="none" font-size="10" font-family="sans-serif" text-anchor="end"><path class="domain" stroke="#000" d="M-6,200.5H0.5V0.5H-6"></path><g class="tick" opacity="1" transform="translate(0,196.15384615384613)"><line stroke="#000" x2="-6" y1="0.5" y2="0.5"></line><text fill="#000" x="-9" y="0.5" dy="0.32em">30,000</text></g><g class="tick" opacity="1" transform="translate(0,168.56623894840453)"><line stroke="#000" x2="-6" y1="0.5" y2="0.5"></line><text fill="#000" x="-9" y="0.5" dy="0.32em">35,000</text></g><g class="tick" opacity="1" transform="translate(0,140.97863174296293)"><line stroke="#000" x2="-6" y1="0.5" y2="0.5"></line><text fill="#000" x="-9" y="0.5" dy="0.32em">40,000</text></g><g class="tick" opacity="1" transform="translate(0,113.39102453752136)"><line stroke="#000" x2="-6" y1="0.5" y2="0.5"></line><text fill="#000" x="-9" y="0.5" dy="0.32em">45,000</text></g><g class="tick" opacity="1" transform="translate(0,85.80341733207975)"><line stroke="#000" x2="-6" y1="0.5" y2="0.5"></line><text fill="#000" x="-9" y="0.5" dy="0.32em">50,000</text></g><g class="tick" opacity="1" transform="translate(0,58.21581012663813)"><line stroke="#000" x2="-6" y1="0.5" y2="0.5"></line><text fill="#000" x="-9" y="0.5" dy="0.32em">55,000</text></g><g class="tick" opacity="1" transform="translate(0,30.62820292119656)"><line stroke="#000" x2="-6" y1="0.5" y2="0.5"></line><text fill="#000" x="-9" y="0.5" dy="0.32em">60,000</text></g><g class="tick" opacity="1" transform="translate(0,3.040595715754961)"><line stroke="#000" x2="-6" y1="0.5" y2="0.5"></line><text fill="#000" x="-9" y="0.5" dy="0.32em">65,000</text></g><text transform="rotate(-90)" y="6" dy=".71em" style="text-anchor: end;">Price ($)</text></g></g></svg>