<?xml version="1.0" encoding="utf-8"?>
<!DOCTYPE svg PUBLIC "-//W3C//DTD SVG 1.1//EN" "http://www.w3.org/Graphics/SVG/1.1/DTD/svg11.dtd">
<svg version="1.1" xmlns="http://www.w3.org/2000/svg" width="960" height="250"><g transform="translate(50,20)"><style>.axis path,.axis line{fill:none;stroke:#000;shape-rendering:crispEdges;}path.candle{stroke:#000000;}path.candle.body{stroke-width:0;}path.candle.up{fill:#00AA00;stroke:#00AA00;}path.candle.down{fill:#FF0000;stroke:#FF0000;}</style><g class="candlestick"><g class="data"><path class="candle body up" d="M 1.0675729708116766 174.9812271062271 l 7.1171531387445 0 L 8.184726109556177 163.62807430664571 l -7.1171531387445 0 L 1.0675729708116766 174.9812271062271 M 18.860455817672932 168.7182103610675 l 7.1171531387445 0 L 25.977608956417434 152.63343799058083 l -7.1171531387445 0 L 18.860455817672932 168.7182103610675 M 54.446221511395436 164.75627943485088 l 7.1171531387445 0 L 61.563374650139934 142.51700680272108 l -7.1171531387445 0 L 54.446221511395436 164.75627943485088 M 98.92842862854857 162.82083987441132 l 7.1171531387445 0 L 106.04558176729307 162.75974620617478 l -7.1171531387445 0 L 98.92842862854857 162.82083987441132 M 107.82487005197919 162.7984693877551 l 7.1171531387445 0 L 114.94202319072369 149.31567242281525 l -7.1171531387445 0 L 107.82487005197919 162.7984693877551 M 116.72131147540982 149.31567242281525 l 7.1171531387445 0 L 123.83846461415432 132.55841182626898 l -7.1171531387445 0 L 116.72131147540982 149.31567242281525 M 134.51419432227107 135.8328100470958 l 7.1171531387445 0 L 141.63134746101557 133.10295656724227 l -7.1171531387445 0 L 134.51419432227107 135.8328100470958 M 143.4106357457017 133.10295656724227 l 7.1171531387445 0 L 150.5277888844462 131.4701072736787 l -7.1171531387445 0 L 143.4106357457017 133.10295656724227 M 161.20351859256294 143.3411172161172 l 7.1171531387445 0 L 168.32067173130744 134.84222919937207 l -7.1171531387445 0 L 161.20351859256294 143.3411172161172 M 178.9964014394242 148.77119309262167 l 7.1171531387445 0 L 186.1135545781687 134.2104918890633 l -7.1171531387445 0 L 178.9964014394242 148.77119309262167 M 214.5821671331467 147.8616562009419 l 7.1171531387445 0 L 221.6993202718912 147.08993982208267 l -7.1171531387445 0 L 214.5821671331467 147.8616562009419 M 223.47860855657734 147.08993982208267 l 7.1171531387445 0 L 230.59576169532184 135.90711669283098 l -7.1171531387445 0 L 223.47860855657734 147.08993982208267 M 232.37504998000796 135.90718210361064 l 7.1171531387445 0 L 239.49220311875246 133.05442176870747 l -7.1171531387445 0 L 232.37504998000796 135.90718210361064 M 241.2714914034386 133.05448717948718 l 7.1171531387445 0 L 248.3886445421831 128.1322605965463 l -7.1171531387445 0 L 241.2714914034386 133.05448717948718 M 259.06437425029986 128.66601255886968 l 7.1171531387445 0 L 266.1815273890444 116.6347462061748 l -7.1171531387445 0 L 259.06437425029986 128.66601255886968 M 267.9608156737305 116.6347462061748 l 7.1171531387445 0 L 275.07796881247504 110.70185766614337 l -7.1171531387445 0 L 267.9608156737305 116.6347462061748 M 294.65013994402244 153.97494767137624 l 7.1171531387445 0 L 301.76729308276697 151.70630559916276 l -7.1171531387445 0 L 294.65013994402244 153.97494767137624 M 312.4430227908837 161.8642072213501 l 7.1171531387445 0 L 319.5601759296282 159.69590528519097 l -7.1171531387445 0 L 312.4430227908837 161.8642072213501 M 321.3394642143143 159.6959706959707 l 7.1171531387445 0 L 328.45661735305885 154.12585034013608 l -7.1171531387445 0 L 321.3394642143143 159.6959706959707 M 339.13234706117555 161.2197802197802 l 7.1171531387445 0 L 346.2495001999201 147.02040816326533 l -7.1171531387445 0 L 339.13234706117555 161.2197802197802 M 348.02878848460614 147.07430664573522 l 7.1171531387445 0 L 355.14594162335067 140.41463893249605 l -7.1171531387445 0 L 348.02878848460614 147.07430664573522 M 374.7181127548981 145.78767660910515 l 7.1171531387445 0 L 381.8352658936426 139.29395604395606 l -7.1171531387445 0 L 374.7181127548981 145.78767660910515 M 410.3038784486206 188.7356750392465 l 7.1171531387445 0 L 417.4210315873651 170.35838566195707 l -7.1171531387445 0 L 410.3038784486206 188.7356750392465 M 419.20031987205124 170.34033228676083 l 7.1171531387445 0 L 426.31747301079577 161.71336996336996 l -7.1171531387445 0 L 419.20031987205124 170.34033228676083 M 445.8896441423431 176.06861590790163 l 7.1171531387445 0 L 453.00679728108764 172.8617216117216 l -7.1171531387445 0 L 445.8896441423431 176.06861590790163 M 472.57896841263494 186.83274463631605 l 7.1171531387445 0 L 479.69612155137946 183.5669806384092 l -7.1171531387445 0 L 472.57896841263494 186.83274463631605 M 481.47540983606564 183.56691522762952 l 7.1171531387445 0 L 488.59256297481016 168.52367870225015 l -7.1171531387445 0 L 481.47540983606564 183.56691522762952 M 490.3718512594962 168.550431711146 l 7.1171531387445 0 L 497.48900439824075 140.28250915750914 l -7.1171531387445 0 L 490.3718512594962 168.550431711146 M 508.16473410635746 143.5970041862899 l 7.1171531387445 0 L 515.281887245102 139.90051020408163 l -7.1171531387445 0 L 508.16473410635746 143.5970041862899 M 517.0611755297881 139.90051020408163 l 7.1171531387445 0 L 524.1783286685326 133.19636316064884 l -7.1171531387445 0 L 517.0611755297881 139.90051020408163 M 525.9576169532187 133.19642857142856 l 7.1171531387445 0 L 533.0747700919632 118.49823390894821 l -7.1171531387445 0 L 525.9576169532187 133.19642857142856 M 534.8540583766493 118.49823390894821 l 7.1171531387445 0 L 541.9712115153937 93.36080586080587 l -7.1171531387445 0 L 534.8540583766493 118.49823390894821 M 552.6469412235106 103.36721611721612 l 7.1171531387445 0 L 559.764094362255 102.28002354788069 l -7.1171531387445 0 L 552.6469412235106 103.36721611721612 M 561.5433826469413 102.25228937728939 l 7.1171531387445 0 L 568.6605357856857 95.75013082155938 l -7.1171531387445 0 L 561.5433826469413 102.25228937728939 M 579.3362654938024 97.65168759811615 l 7.1171531387445 0 L 586.4534186325469 79.2559523809524 l -7.1171531387445 0 L 579.3362654938024 97.65168759811615 M 597.1291483406637 88.90037938252222 l 7.1171531387445 0 L 604.2463014794082 79.9385138670853 l -7.1171531387445 0 L 597.1291483406637 88.90037938252222 M 614.9220311875249 80.0631868131868 l 7.1171531387445 0 L 622.0391843262694 51.77642595499739 l -7.1171531387445 0 L 614.9220311875249 80.0631868131868 M 632.7149140343862 56.988683935112505 l 7.1171531387445 0 L 639.8320671731307 52.71892987964415 l -7.1171531387445 0 L 632.7149140343862 56.988683935112505 M 641.6113554578168 52.71899529042386 l 7.1171531387445 0 L 648.7285085965613 49.56933542647829 l -7.1171531387445 0 L 641.6113554578168 52.71899529042386 M 650.5077968812475 49.597069597069606 l 7.1171531387445 0 L 657.624950019992 34.71618262689694 l -7.1171531387445 0 L 650.5077968812475 49.597069597069606 M 659.4042383046781 34.71618262689694 l 7.1171531387445 0 L 666.5213914434225 23.460164835164818 l -7.1171531387445 0 L 659.4042383046781 34.71618262689694 M 686.09356257497 58.21408948194659 l 7.1171531387445 0 L 693.2107157137144 54.29912349555207 l -7.1171531387445 0 L 686.09356257497 58.21408948194659 M 703.8864454218311 57.14141810570382 l 7.1171531387445 0 L 711.0035985605756 42.57731554160128 l -7.1171531387445 0 L 703.8864454218311 57.14141810570382 M 730.5757696921231 73.09366823652536 l 7.1171531387445 0 L 737.6929228308676 58.948914181057035 l -7.1171531387445 0 L 730.5757696921231 73.09366823652536 M 739.4722111155537 58.94884877027732 l 7.1171531387445 0 L 746.5893642542982 47.9741627420199 l -7.1171531387445 0 L 739.4722111155537 58.94884877027732 M 775.0579768092763 56.75614861329146 l 7.1171531387445 0 L 782.1751299480208 41.65364992150708 l -7.1171531387445 0 L 775.0579768092763 56.75614861329146 M 810.6437425029987 56.56606488749344 l 7.1171531387445 0 L 817.7608956417432 53.09648090005231 l -7.1171531387445 0 L 810.6437425029987 56.56606488749344 M 819.5401839264293 53.09641548927263 l 7.1171531387445 0 L 826.6573370651738 41.303048142333864 l -7.1171531387445 0 L 819.5401839264293 53.09641548927263 M 828.43662534986 41.30311355311355 l 7.1171531387445 0 L 835.5537784886045 13.4888147566719 l -7.1171531387445 0 L 828.43662534986 41.30311355311355 M 872.9188324670131 35.752093144950265 l 7.1171531387445 0 L 880.0359856057576 34.065934065934044 l -7.1171531387445 0 L 872.9188324670131 35.752093144950265"></path><path class="candle body down" d="M 9.964014394242305 163.62807430664571 l 7.1171531387445 0 L 17.081167532986804 168.71814495028778 l -7.1171531387445 0 L 9.964014394242305 163.62807430664571 M 27.75689724110356 152.66306907378333 l 7.1171531387445 0 L 34.87405037984806 157.00555991627422 l -7.1171531387445 0 L 27.75689724110356 152.66306907378333 M 36.65333866453418 157.0054945054945 l 7.1171531387445 0 L 43.77049180327868 157.48953427524856 l -7.1171531387445 0 L 36.65333866453418 157.0054945054945 M 45.54978008796481 157.49169283097856 l 7.1171531387445 0 L 52.66693322670931 164.76321297749868 l -7.1171531387445 0 L 45.54978008796481 157.49169283097856 M 63.342662934826066 142.5170722135008 l 7.1171531387445 0 L 70.45981607357056 147.3017399267399 l -7.1171531387445 0 L 63.342662934826066 142.5170722135008 M 72.23910435825668 147.30180533751962 l 7.1171531387445 0 L 79.35625749700118 147.92111459968604 l -7.1171531387445 0 L 72.23910435825668 147.30180533751962 M 81.13554578168731 147.92111459968604 l 7.1171531387445 0 L 88.25269892043181 154.9366169544741 l -7.1171531387445 0 L 81.13554578168731 147.92111459968604 M 90.03198720511796 154.93655154369438 l 7.1171531387445 0 L 97.14914034386246 162.82083987441132 l -7.1171531387445 0 L 90.03198720511796 154.93655154369438 M 125.61775289884046 132.55841182626898 l 7.1171531387445 0 L 132.73490603758498 135.83287545787545 l -7.1171531387445 0 L 125.61775289884046 132.55841182626898 M 152.30707716913233 131.4701072736787 l 7.1171531387445 0 L 159.42423030787683 143.3411172161172 l -7.1171531387445 0 L 152.30707716913233 131.4701072736787 M 170.09996001599356 134.84222919937207 l 7.1171531387445 0 L 177.21711315473806 148.77112768184196 l -7.1171531387445 0 L 170.09996001599356 134.84222919937207 M 187.89284286285485 134.2104918890633 l 7.1171531387445 0 L 195.00999600159935 135.35223704866564 l -7.1171531387445 0 L 187.89284286285485 134.2104918890633 M 196.78928428628546 135.35223704866564 l 7.1171531387445 0 L 203.90643742502996 136.1863553113553 l -7.1171531387445 0 L 196.78928428628546 135.35223704866564 M 205.68572570971608 136.18628990057564 l 7.1171531387445 0 L 212.80287884846058 147.8616562009419 l -7.1171531387445 0 L 205.68572570971608 136.18628990057564 M 250.16793282686922 128.1397174254317 l 7.1171531387445 0 L 257.28508596561375 128.67844060701202 l -7.1171531387445 0 L 250.16793282686922 128.1397174254317 M 276.85725709716115 110.68681318681321 l 7.1171531387445 0 L 283.9744102359057 148.6412218733647 l -7.1171531387445 0 L 276.85725709716115 110.68681318681321 M 285.7536985205918 148.60956305599163 l 7.1171531387445 0 L 292.8708516593363 153.97494767137624 l -7.1171531387445 0 L 285.7536985205918 148.60956305599163 M 303.54658136745303 151.70630559916276 l 7.1171531387445 0 L 310.66373450619756 161.8072344322344 l -7.1171531387445 0 L 303.54658136745303 151.70630559916276 M 330.23590563774496 154.12591575091574 l 7.1171531387445 0 L 337.3530587764895 161.2197148090005 l -7.1171531387445 0 L 330.23590563774496 154.12591575091574 M 356.9252299080368 140.41470434327576 l 7.1171531387445 0 L 364.0423830467813 142.92373103087388 l -7.1171531387445 0 L 356.9252299080368 140.41470434327576 M 365.8216713314674 142.9237964416536 l 7.1171531387445 0 L 372.93882447021196 145.78767660910515 l -7.1171531387445 0 L 365.8216713314674 142.9237964416536 M 383.61455417832866 139.29389063317635 l 7.1171531387445 0 L 390.7317073170732 146.16856357927787 l -7.1171531387445 0 L 383.61455417832866 139.29389063317635 M 392.5109956017593 146.16856357927787 l 7.1171531387445 0 L 399.62814874050383 173.81200941915225 l -7.1171531387445 0 L 392.5109956017593 146.16856357927787 M 401.40743702518995 173.80533751962324 l 7.1171531387445 0 L 408.5245901639345 188.7337781266353 l -7.1171531387445 0 L 401.40743702518995 173.80533751962324 M 428.0967612954818 161.71336996336996 l 7.1171531387445 0 L 435.21391443422635 175.1532574568289 l -7.1171531387445 0 L 428.0967612954818 161.71336996336996 M 436.99320271891247 175.15319204604918 l 7.1171531387445 0 L 444.110355857657 176.06855049712192 l -7.1171531387445 0 L 436.99320271891247 175.15319204604918 M 454.7860855657737 172.8617216117216 l 7.1171531387445 0 L 461.90323870451823 179.49143118785977 l -7.1171531387445 0 L 454.7860855657737 172.8617216117216 M 463.68252698920435 179.49143118785977 l 7.1171531387445 0 L 470.7996801279489 186.8227367870225 l -7.1171531387445 0 L 463.68252698920435 179.49143118785977 M 499.2682926829268 140.28257456828885 l 7.1171531387445 0 L 506.38544582167134 143.59693877551018 l -7.1171531387445 0 L 499.2682926829268 140.28257456828885 M 543.75049980008 93.36080586080587 l 7.1171531387445 0 L 550.8676529388244 103.36721611721612 l -7.1171531387445 0 L 543.75049980008 93.36080586080587 M 570.4398240703717 95.75013082155938 l 7.1171531387445 0 L 577.5569772091162 97.65175300889585 l -7.1171531387445 0 L 570.4398240703717 95.75013082155938 M 588.232706917233 79.2559523809524 l 7.1171531387445 0 L 595.3498600559775 88.90024856096284 l -7.1171531387445 0 L 588.232706917233 79.2559523809524 M 606.0255897640943 79.91346153846153 l 7.1171531387445 0 L 613.1427429028388 80.0631868131868 l -7.1171531387445 0 L 606.0255897640943 79.91346153846153 M 623.8184726109555 51.77642595499739 l 7.1171531387445 0 L 630.9356257497 56.988683935112505 l -7.1171531387445 0 L 623.8184726109555 51.77642595499739 M 668.3006797281087 23.460230245944558 l 7.1171531387445 0 L 675.4178328668531 48.37029042386186 l -7.1171531387445 0 L 668.3006797281087 23.460230245944558 M 677.1971211515394 48.37029042386186 l 7.1171531387445 0 L 684.3142742902838 58.21415489272633 l -7.1171531387445 0 L 677.1971211515394 48.37029042386186 M 694.9900039984005 54.29912349555207 l 7.1171531387445 0 L 702.107157137145 57.14141810570382 l -7.1171531387445 0 L 694.9900039984005 54.29912349555207 M 712.7828868452618 42.57731554160128 l 7.1171531387445 0 L 719.9000399840063 60.56508372579802 l -7.1171531387445 0 L 712.7828868452618 42.57731554160128 M 721.6793282686924 60.56508372579802 l 7.1171531387445 0 L 728.7964814074369 73.09366823652536 l -7.1171531387445 0 L 721.6793282686924 60.56508372579802 M 748.3686525389844 47.97422815279958 l 7.1171531387445 0 L 755.4858056777289 50.554748822605944 l -7.1171531387445 0 L 748.3686525389844 47.97422815279958 M 757.265093962415 50.554748822605944 l 7.1171531387445 0 L 764.3822471011595 54.21376242804811 l -7.1171531387445 0 L 757.265093962415 50.554748822605944 M 766.1615353858456 54.21369701726846 l 7.1171531387445 0 L 773.27868852459 56.75621402407117 l -7.1171531387445 0 L 766.1615353858456 54.21369701726846 M 783.9544182327068 41.64985609628468 l 7.1171531387445 0 L 791.0715713714512 43.769754055468326 l -7.1171531387445 0 L 783.9544182327068 41.64985609628468 M 792.8508596561375 43.76968864468867 l 7.1171531387445 0 L 799.9680127948819 53.5909863945578 l -7.1171531387445 0 L 792.8508596561375 43.76968864468867 M 801.747301079568 53.5909863945578 l 7.1171531387445 0 L 808.8644542183125 56.586080586080556 l -7.1171531387445 0 L 801.747301079568 53.5909863945578 M 837.3330667732906 13.488880167451555 l 7.1171531387445 0 L 844.4502199120351 17.270669806384063 l -7.1171531387445 0 L 837.3330667732906 13.488880167451555 M 846.2295081967213 17.27060439560441 l 7.1171531387445 0 L 853.3466613354658 30.779500261643108 l -7.1171531387445 0 L 846.2295081967213 17.27060439560441 M 855.1259496201519 30.779565672422848 l 7.1171531387445 0 L 862.2431027588964 31.48704866562008 l -7.1171531387445 0 L 855.1259496201519 30.779565672422848 M 864.0223910435824 31.48711407639979 l 7.1171531387445 0 L 871.1395441823269 35.752027734170554 l -7.1171531387445 0 L 864.0223910435824 31.48711407639979 M 881.8152738904437 34.06586865515436 l 7.1171531387445 0 L 888.9324270291881 35.24332810047096 l -7.1171531387445 0 L 881.8152738904437 34.06586865515436"></path><path class="candle body equal"></path><path class="candle wick up" d="M 4.626149540183927 162.79434850863422 L 4.626149540183927 163.62807430664571 M 4.626149540183927 174.9812271062271 L 4.626149540183927 177.53525641025638 M 22.41903238704518 151.3203165881737 L 22.41903238704518 152.63343799058083 M 22.41903238704518 168.7182103610675 L 22.41903238704518 175.3597592883307 M 58.004798080767685 141.95447409733123 L 58.004798080767685 142.51700680272108 M 58.004798080767685 164.75627943485088 L 58.004798080767685 165.95113814756672 M 102.48700519792082 154.29094714809 L 102.48700519792082 162.75974620617478 M 102.48700519792082 162.82083987441132 L 102.48700519792082 166.04343275771848 M 111.38344662135144 147.53401360544217 L 111.38344662135144 149.31567242281525 M 111.38344662135144 162.7984693877551 L 111.38344662135144 167.84602302459447 M 120.27988804478207 132.1625457875458 L 120.27988804478207 132.55841182626898 M 120.27988804478207 149.31567242281525 L 120.27988804478207 150.21592098377815 M 138.07277089164333 131.39717425431712 L 138.07277089164333 133.10295656724227 M 138.07277089164333 135.8328100470958 L 138.07277089164333 140.88173731030875 M 146.96921231507397 124.85609628466771 L 146.96921231507397 131.4701072736787 M 146.96921231507397 133.10295656724227 L 146.96921231507397 134.47802197802196 M 164.7620951619352 132.93890633176346 L 164.7620951619352 134.84222919937207 M 164.7620951619352 143.3411172161172 L 164.7620951619352 146.92386185243328 M 182.55497800879647 133.68700941915228 L 182.55497800879647 134.2104918890633 M 182.55497800879647 148.77119309262167 L 182.55497800879647 152.01465201465203 M 218.14074370251896 139.5989665096808 L 218.14074370251896 147.08993982208267 M 218.14074370251896 147.8616562009419 L 218.14074370251896 149.71219256933543 M 227.0371851259496 133.6473050758765 L 227.0371851259496 135.90711669283098 M 227.0371851259496 147.08993982208267 L 227.0371851259496 150.94191522762952 M 235.93362654938022 125.18229984301415 L 235.93362654938022 133.05442176870747 M 235.93362654938022 135.90718210361064 L 235.93362654938022 137.3884092098378 M 244.83006797281087 121.58555729984302 L 244.83006797281087 128.1322605965463 M 244.83006797281087 133.05448717948718 L 244.83006797281087 139.13631606488752 M 262.6229508196721 115.69858712715856 L 262.6229508196721 116.6347462061748 M 262.6229508196721 128.66601255886968 L 262.6229508196721 131.72422815279958 M 271.51939224310274 109.94243851386707 L 271.51939224310274 110.70185766614337 M 271.51939224310274 116.6347462061748 L 271.51939224310274 121.78617216117215 M 298.2087165133947 145.13363422291994 L 298.2087165133947 151.70630559916276 M 298.2087165133947 153.97494767137624 L 298.2087165133947 157.4759288330717 M 316.0015993602559 154.36989795918367 L 316.0015993602559 159.69590528519097 M 316.0015993602559 161.8642072213501 L 316.0015993602559 162.6490057561486 M 324.89804078368655 151.28205128205127 L 324.89804078368655 154.12585034013608 M 324.89804078368655 159.6959706959707 L 324.89804078368655 162.51923076923077 M 342.6909236305478 146.11459968602827 L 342.6909236305478 147.02040816326533 M 342.6909236305478 161.2197802197802 L 342.6909236305478 163.4848246991104 M 351.5873650539784 137.93825222396651 L 351.5873650539784 140.41463893249605 M 351.5873650539784 147.07430664573522 L 351.5873650539784 149.82783882783883 M 378.2766893242703 135.69335426478284 L 378.2766893242703 139.29395604395606 M 378.2766893242703 145.78767660910515 L 378.2766893242703 147.51726844583987 M 413.86245501799283 167.36950549450546 L 413.86245501799283 170.35838566195707 M 413.86245501799283 188.7356750392465 L 413.86245501799283 189.83915489272633 M 422.7588964414235 160.9759288330717 L 422.7588964414235 161.71336996336996 M 422.7588964414235 170.34033228676083 L 422.7588964414235 173.46225798011514 M 449.44822071171535 167.70015698587127 L 449.44822071171535 172.8617216117216 M 449.44822071171535 176.06861590790163 L 449.44822071171535 188.63160648874936 M 476.13754498200717 176.59602302459444 L 476.13754498200717 183.5669806384092 M 476.13754498200717 186.83274463631605 L 476.13754498200717 188.60622710622712 M 485.0339864054379 166.44839089481945 L 485.0339864054379 168.52367870225015 M 485.0339864054379 183.56691522762952 L 485.0339864054379 184.3133830455259 M 493.93042782886846 137.97095761381476 L 493.93042782886846 140.28250915750914 M 493.93042782886846 168.550431711146 L 493.93042782886846 172.06285975928833 M 511.7233106757297 133.17582417582418 L 511.7233106757297 139.90051020408163 M 511.7233106757297 143.5970041862899 L 511.7233106757297 147.17425431711146 M 520.6197520991603 131.16091051805336 L 520.6197520991603 133.19636316064884 M 520.6197520991603 139.90051020408163 L 520.6197520991603 148.4628466771324 M 529.5161935225909 115.78819989534274 L 529.5161935225909 118.49823390894821 M 529.5161935225909 133.19642857142856 L 529.5161935225909 134.52119309262164 M 538.4126349460215 90.51543694400837 L 538.4126349460215 93.36080586080587 M 538.4126349460215 118.49823390894821 L 538.4126349460215 125.62526164311876 M 556.2055177928828 88.22605965463109 L 556.2055177928828 102.28002354788069 M 556.2055177928828 103.36721611721612 L 556.2055177928828 104.46356619570905 M 565.1019592163135 92.22265829408687 L 565.1019592163135 95.75013082155938 M 565.1019592163135 102.25228937728939 L 565.1019592163135 104.1753663003663 M 582.8948420631747 76.850863422292 L 582.8948420631747 79.2559523809524 M 582.8948420631747 97.65168759811615 L 582.8948420631747 99.24738356881215 M 600.687724910036 77.25667189952905 L 600.687724910036 79.9385138670853 M 600.687724910036 88.90037938252222 L 600.687724910036 100.86872056514912 M 618.4806077568971 43.53087388801674 L 618.4806077568971 51.77642595499739 M 618.4806077568971 80.0631868131868 L 618.4806077568971 83.32025117739403 M 636.2734906037584 51.47573260073261 L 636.2734906037584 52.71892987964415 M 636.2734906037584 56.988683935112505 L 636.2734906037584 69.49895342752487 M 645.169932027189 45.08254840397697 L 645.169932027189 49.56933542647829 M 645.169932027189 52.71899529042386 L 645.169932027189 63.73332025117742 M 654.0663734506197 33.37257980115123 L 654.0663734506197 34.71618262689694 M 654.0663734506197 49.597069597069606 L 654.0663734506197 54.0671114599686 M 662.9628148740503 16.928309785452626 L 662.9628148740503 23.460164835164818 M 662.9628148740503 34.71618262689694 L 662.9628148740503 39.943746729461026 M 689.6521391443422 51.28440607012038 L 689.6521391443422 54.29912349555207 M 689.6521391443422 58.21408948194659 L 689.6521391443422 65.57986656200941 M 707.4450219912034 38.44433542647829 L 707.4450219912034 42.57731554160128 M 707.4450219912034 57.14141810570382 L 707.4450219912034 58.46415489272633 M 734.1343462614954 46.36970172684457 L 734.1343462614954 58.948914181057035 M 734.1343462614954 73.09366823652536 L 734.1343462614954 76.97540554683411 M 743.0307876849259 43.22344322344321 L 743.0307876849259 47.9741627420199 M 743.0307876849259 58.94884877027732 L 743.0307876849259 61.57240973312403 M 778.6165533786485 34.78545264259549 L 778.6165533786485 41.65364992150708 M 778.6165533786485 56.75614861329146 L 778.6165533786485 58.62977498691782 M 814.202319072371 52.508568812140254 L 814.202319072371 53.09648090005231 M 814.202319072371 56.56606488749344 L 814.202319072371 62.388801674515975 M 823.0987604958016 41.219583987441155 L 823.0987604958016 41.303048142333864 M 823.0987604958016 53.09641548927263 L 823.0987604958016 54.06344845630559 M 831.9952019192323 11.76739926739927 L 831.9952019192323 13.4888147566719 M 831.9952019192323 41.30311355311355 L 831.9952019192323 41.30311355311355 M 876.4774090363853 30.01046572475144 L 876.4774090363853 34.065934065934044 M 876.4774090363853 35.752093144950265 L 876.4774090363853 40.73639455782313" style="stroke-width: 1px;"></path><path class="candle wick down" d="M 13.522590963614554 158.8042909471481 L 13.522590963614554 163.62807430664571 M 13.522590963614554 168.71814495028778 L 13.522590963614554 172.2069597069597 M 31.315473810475808 149.71219256933543 L 31.315473810475808 152.66306907378333 M 31.315473810475808 157.00555991627422 L 31.315473810475808 163.51739926739927 M 40.21191523390643 149.42785190999476 L 40.21191523390643 157.0054945054945 M 40.21191523390643 157.48953427524856 L 40.21191523390643 158.60060177917322 M 49.10835665733706 152.86420722135006 L 49.10835665733706 157.49169283097856 M 49.10835665733706 164.76321297749868 L 49.10835665733706 168.87755102040816 M 66.90123950419832 140.2668759811617 L 66.90123950419832 142.5170722135008 M 66.90123950419832 147.3017399267399 L 66.90123950419832 154.48044217687075 M 75.79768092762893 145.31482208267926 L 75.79768092762893 147.30180533751962 M 75.79768092762893 147.92111459968604 L 75.79768092762893 157.5614861329147 M 84.69412235105956 140.85668498168496 L 84.69412235105956 147.92111459968604 M 84.69412235105956 154.9366169544741 L 84.69412235105956 156.5149136577708 M 93.5905637744902 146.7032967032967 L 93.5905637744902 154.93655154369438 M 93.5905637744902 162.82083987441132 L 93.5905637744902 164.91365777080063 M 129.1763294682127 129.71585557299844 L 129.1763294682127 132.55841182626898 M 129.1763294682127 135.83287545787545 L 129.1763294682127 139.75667189952904 M 155.8656537385046 129.04238618524334 L 155.8656537385046 131.4701072736787 M 155.8656537385046 143.3411172161172 L 155.8656537385046 143.82522239665096 M 173.65853658536582 132.35975928833074 L 173.65853658536582 134.84222919937207 M 173.65853658536582 148.77112768184196 L 173.65853658536582 152.65567765567766 M 191.4514194322271 132.71193092621664 L 191.4514194322271 134.2104918890633 M 191.4514194322271 135.35223704866564 L 191.4514194322271 138.93982208267926 M 200.34786085565773 130.53198587127162 L 200.34786085565773 135.35223704866564 M 200.34786085565773 136.1863553113553 L 200.34786085565773 142.76203558346415 M 209.24430227908834 135.39632391418104 L 209.24430227908834 136.18628990057564 M 209.24430227908834 147.8616562009419 L 209.24430227908834 148.71140763997906 M 253.72650939624148 124.62264521193092 L 253.72650939624148 128.1397174254317 M 253.72650939624148 128.67844060701202 L 253.72650939624148 132.24751439037152 M 280.4158336665334 109.02668759811617 L 280.4158336665334 110.68681318681321 M 280.4158336665334 148.6412218733647 L 280.4158336665334 174.94080324437465 M 289.31227508996403 145.51942700156985 L 289.31227508996403 148.60956305599163 M 289.31227508996403 153.97494767137624 L 289.31227508996403 164.67804814233386 M 307.10515793682526 147.53401360544217 L 307.10515793682526 151.70630559916276 M 307.10515793682526 161.8072344322344 L 307.10515793682526 166.50778388278388 M 333.7944822071172 148.53479853479854 L 333.7944822071172 154.12591575091574 M 333.7944822071172 161.2197148090005 L 333.7944822071172 171.4939822082679 M 360.483806477409 137.5654107796965 L 360.483806477409 140.41470434327576 M 360.483806477409 142.92373103087388 L 360.483806477409 147.611852433281 M 369.38024790083966 140.2276295133438 L 369.38024790083966 142.9237964416536 M 369.38024790083966 145.78767660910515 L 369.38024790083966 149.7150706436421 M 387.1731307477009 138.7700811093668 L 387.1731307477009 139.29389063317635 M 387.1731307477009 146.16856357927787 L 387.1731307477009 148.86721611721612 M 396.06957217113154 145.47847985347985 L 396.06957217113154 146.16856357927787 M 396.06957217113154 173.81200941915225 L 396.06957217113154 177.1847200418629 M 404.9660135945622 169.73443223443223 L 404.9660135945622 173.80533751962324 M 404.9660135945622 188.7337781266353 L 404.9660135945622 196.15384615384616 M 431.65533786485406 159.52380952380952 L 431.65533786485406 161.71336996336996 M 431.65533786485406 175.1532574568289 L 431.65533786485406 189.12218733647305 M 440.5517792882847 174.1310832025118 L 440.5517792882847 175.15319204604918 M 440.5517792882847 176.06855049712192 L 440.5517792882847 182.76896912611198 M 458.34466213514594 165.0837257980115 L 458.34466213514594 172.8617216117216 M 458.34466213514594 179.49143118785977 L 458.34466213514594 179.81423338566196 M 467.2411035585766 175.30494505494508 L 467.2411035585766 179.49143118785977 M 467.2411035585766 186.8227367870225 L 467.2411035585766 187.72893772893772 M 502.82686925229905 139.00712977498694 L 502.82686925229905 140.28257456828885 M 502.82686925229905 143.59693877551018 L 502.82686925229905 144.93602825745683 M 547.3090763694522 93.24757980115123 L 547.3090763694522 93.36080586080587 M 547.3090763694522 103.36721611721612 L 547.3090763694522 106.16823652537938 M 573.998400639744 85.20859497645215 L 573.998400639744 95.75013082155938 M 573.998400639744 97.65175300889585 L 573.998400639744 101.43903715332286 M 591.7912834866053 77.89115646258504 L 591.7912834866053 79.2559523809524 M 591.7912834866053 88.90024856096284 L 591.7912834866053 102.75379382522239 M 609.5841663334666 72.31462585034012 L 609.5841663334666 79.91346153846153 M 609.5841663334666 80.0631868131868 L 609.5841663334666 83.5292386185243 M 627.3770491803277 47.158424908424934 L 627.3770491803277 51.77642595499739 M 627.3770491803277 56.988683935112505 L 627.3770491803277 61.734693877551024 M 671.8592562974809 19.284798534798483 L 671.8592562974809 23.460230245944558 M 671.8592562974809 48.37029042386186 L 671.8592562974809 49.63369963369962 M 680.7556977209116 38.30200156985873 L 680.7556977209116 48.37029042386186 M 680.7556977209116 58.21415489272633 L 680.7556977209116 62.715855572998436 M 698.5485805677728 52.904238618524346 L 698.5485805677728 54.29912349555207 M 698.5485805677728 57.14141810570382 L 698.5485805677728 65.91686289900579 M 716.3414634146341 41.17294610151751 L 716.3414634146341 42.57731554160128 M 716.3414634146341 60.56508372579802 L 716.3414634146341 63.90927524856093 M 725.2379048380647 52.93040293040292 L 725.2379048380647 60.56508372579802 M 725.2379048380647 73.09366823652536 L 725.2379048380647 75.79801151229724 M 751.9272291083566 47.28381737310309 L 751.9272291083566 47.97422815279958 M 751.9272291083566 50.554748822605944 L 751.9272291083566 58.313710099424384 M 760.8236705317872 46.98260073260073 L 760.8236705317872 50.554748822605944 M 760.8236705317872 54.21376242804811 L 760.8236705317872 63.07326007326006 M 769.7201119552178 46.77040816326533 L 769.7201119552178 54.21369701726846 M 769.7201119552178 56.75621402407117 L 769.7201119552178 66.60779696493981 M 787.512994802079 39.82208267922553 L 787.512994802079 41.64985609628468 M 787.512994802079 43.769754055468326 L 787.512994802079 60.2121925693354 M 796.4094362255097 42.52806122448982 L 796.4094362255097 43.76968864468867 M 796.4094362255097 53.5909863945578 L 796.4094362255097 58.28748037676607 M 805.3058776489403 45.73704866562011 L 805.3058776489403 53.5909863945578 M 805.3058776489403 56.586080586080556 L 805.3058776489403 57.99973835688121 M 840.8916433426629 6.9580716902145525 L 840.8916433426629 13.488880167451555 M 840.8916433426629 17.270669806384063 L 840.8916433426629 22.014652014652057 M 849.7880847660936 3.846153846153868 L 849.7880847660936 17.27060439560441 M 849.7880847660936 30.779500261643108 L 849.7880847660936 44.25104657247513 M 858.6845261895241 26.085361067503868 L 858.6845261895241 30.779565672422848 M 858.6845261895241 31.48704866562008 L 858.6845261895241 35.89743589743591 M 867.5809676129546 27.06240188383046 L 867.5809676129546 31.48711407639979 M 867.5809676129546 35.752027734170554 L 867.5809676129546 47.8152799581371 M 885.3738504598159 27.917320774463633 L 885.3738504598159 34.06586865515436 M 885.3738504598159 35.24332810047096 L 885.3738504598159 36.185243328100455" style="stroke-width: 1px;"></path><path class="candle wick equal" style="stroke-width: 1px;"></path></g></g><g class="x axis" transform="translate(0,200)" fill="none" font-size="10" font-family="sans-serif" text-anchor="middle"><path class="domain" stroke="#000" d="M0.5,6V0.5H890.5V6"></path><g class="tick" opacity="1" transform="translate(22.41903238704518,0)"><line stroke="#000" y2="6" x1="0.5" x2="0.5"></line><text fill="#000" y="9" x="0.5" dy="0.71em">Aug  9</text></g><g class="tick" opacity="1" transform="translate(84.69412235105956,0)"><line stroke="#000" y2="6" x1="0.5" x2="0.5"></line><text fill="#000" y="9" x="0.5" dy="0.71em">Aug 16</text></g><g class="tick" opacity="1" transform="translate(146.96921231507397,0)"><line stroke="#000" y2="6" x1="0.5" x2="0.5"></line><text fill="#000" y="9" x="0.5" dy="0.71em">Aug 23</text></g><g class="tick" opacity="1" transform="translate(209.24430227908834,0)"><line stroke="#000" y2="6" x1="0.5" x2="0.5"></line><text fill="#000" y="9" x="0.5" dy="0.71em">Aug 30</text></g><g class="tick" opacity="1" transform="translate(271.51939224310274,0)"><line stroke="#000" y2="6" x1="0.5" x2="0.5"></line><text fill="#000" y="9" x="0.5" dy="0.71em">Sep  6</text></g><g class="tick" opacity="1" transform="translate(333.7944822071172,0)"><line stroke="#000" y2="6" x1="0.5" x2="0.5"></line><text fill="#000" y="9" x="0.5" dy="0.71em">Sep 13</text></g><g class="tick" opacity="1" transform="translate(396.06957217113154,0)"><line stroke="#000" y2="6" x1="0.5" x2="0.5"></line><text fill="#000" y="9" x="0.5" dy="0.71em">Sep 20</text></g><g class="tick" opacity="1" transform="translate(458.34466213514594,0)"><line stroke="#000" y2="6" x1="0.5" x2="0.5"></line><text fill="#000" y="9" x="0.5" dy="0.71em">Sep 27</text></g><g class="tick" opacity="1" transform="translate(520.6197520991603,0)"><line stroke="#000" y2="6" x1="0.5" x2="0.5"></line><text fill="#000" y="9" x="0.5" dy="0.71em">Oct  4</text></g><g class="tick" opacity="1" transform="translate(582.8948420631747,0)"><line stroke="#000" y2="6" x1="0.5" x2="0.5"></line><text fill="#000" y="9" x="0.5" dy="0.71em">Oct 11</text></g><g class="tick" opacity="1" transform="translate(645.169932027189,0)"><line stroke="#000" y2="6" x1="0.5" x2="0.5"></line><text fill="#000" y="9" x="0.5" dy="0.71em">Oct 18</text></g><g class="tick" opacity="1" transform="translate(707.4450219912034,0)"><line stroke="#000" y2="6" x1="0.5" x2="0.5"></line><text fill="#000" y="9" x="0.5" dy="0.71em">Oct 25</text></g><g class="tick" opacity="1" transform="translate(769.7201119552178,0)"><line stroke="#000" y2="6" x1="0.5" x2="0.5"></line><text fill="#000" y="9" x="0.5" dy="0.71em">Nov  1</text></g><g class="tick" opacity="1" transform="translate(831.9952019192323,0)"><line stroke="#000" y2="6" x1="0.5" x2="0.5"></line><text fill="#000" y="9" x="0.5" dy="0.71em">Nov  8</text></g></g><g class="y axis" fill="none" font-size="10" font-family="sans-serif" text-anchor="end"><path class="domain" stroke="#000" d="M-6,200.5H0.5V0.5H-6"></path><g class="tick" opacity="1" transform="translate(0,193.5374149659864)"><line stroke="#000" x2="-6" y1="0.5" y2="0.5"></line><text fill="#000" x="-9" y="0.5" dy="0.32em">40,000</text></g><g class="tick" opacity="1" transform="translate(0,180.4552590266876)"><line stroke="#000" x2="-6" y1="0.5" y2="0.5"></line><text fill="#000" x="-9" y="0.5" dy="0.32em">42,000</text></g><g class="tick" opacity="1" transform="translate(0,167.3731030873888)"><line stroke="#000" x2="-6" y1="0.5" y2="0.5"></line><text fill="#000" x="-9" y="0.5" dy="0.32em">44,000</text></g><g class="tick" opacity="1" transform="translate(0,154.29094714809)"><line stroke="#000" x2="-6" y1="0.5" y2="0.5"></line><text fill="#000" x="-9" y="0.5" dy="0.32em">46,000</text></g><g class="tick" opacity="1" transform="translate(0,141.2087912087912)"><line stroke="#000" x2="-6" y1="0.5" y2="0.5"></line><text fill="#000" x="-9" y="0.5" dy="0.32em">48,000</text></g><g class="tick" opacity="1" transform="translate(0,128.1266352694924)"><line stroke="#000" x2="-6" y1="0.5" y2="0.5"></line><text fill="#000" x="-9" y="0.5" dy="0.32em">50,000</text></g><g class="tick" opacity="1" transform="translate(0,115.04447933019361)"><line stroke="#000" x2="-6" y1="0.5" y2="0.5"></line><text fill="#000" x="-9" y="0.5" dy="0.32em">52,000</text></g><g class="tick" opacity="1" transform="translate(0,101.96232339089481)"><line stroke="#000" x2="-6" y1="0.5" y2="0.5"></line><text fill="#000" x="-9" y="0.5" dy="0.32em">54,000</text></g><g class="tick" opacity="1" transform="translate(0,88.88016745159601)"><line stroke="#000" x2="-6" y1="0.5" y2="0.5"></line><text fill="#000" x="-9" y="0.5" dy="0.32em">56,000</text></g><g class="tick" opacity="1" transform="translate(0,75.79801151229724)"><line stroke="#000" x2="-6" y1="0.5" y2="0.5"></line><text fill="#000" x="-9" y="0.5" dy="0.32em">58,000</text></g><g class="tick" opacity="1" transform="translate(0,62.715855572998436)"><line stroke="#000" x2="-6" y1="0.5" y2="0.5"></line><text fill="#000" x="-9" y="0.5" dy="0.32em">60,000</text></g><g class="tick" opacity="1" transform="translate(0,49.63369963369962)"><line stroke="#000" x2="-6" y1="0.5" y2="0.5"></line><text fill="#000" x="-9" y="0.5" dy="0.32em">62,000</text></g><g class="tick" opacity="1" transform="translate(0,36.551543694400834)"><line stroke="#000" x2="-6" y1="0.5" y2="0.5"></line><text fill="#000" x="-9" y="0.5" dy="0.32em">64,000</text></g><g class="tick" opacity="1" transform="translate(0,23.469387755102048)"><line stroke="#000" x2="-6" y1="0.5" y2="0.5"></line><text fill="#000" x="-9" y="0.5" dy="0.32em">66,000</text></g><g class="tick" opacity="1" transform="translate(0,10.387231815803261)"><line stroke="#000" x2="-6" y1="0.5" y2="0.5"></line><text fill="#000" x="-9" y="0.5" dy="0.32em">68,000</text></g><text transform="rotate(-90)" y="6" dy=".71em" style="text-anchor: end;">Price ($)</text></g></g></svg>