<?xml version="1.0" encoding="utf-8"?>
<!DOCTYPE svg PUBLIC "-//W3C//DTD SVG 1.1//EN" "http://www.w3.org/Graphics/SVG/1.1/DTD/svg11.dtd">
<svg version="1.1" xmlns="http://www.w3.org/2000/svg" width="960" height="250"><g transform="translate(50,20)"><style>.axis path,.axis line{fill:none;stroke:#000;shape-rendering:crispEdges;}path.candle{stroke:#000000;}path.candle.body{stroke-width:0;}path.candle.up{fill:#00AA00;stroke:#00AA00;}path.candle.down{fill:#FF0000;stroke:#FF0000;}</style><g class="candlestick"><g class="data"><path class="candle body up" d="M 9.964014394242305 62.893327421685655 l 7.1171531387445 0 L 17.081167532986804 55.29121645812256 l -7.1171531387445 0 L 9.964014394242305 62.893327421685655 M 18.860455817672932 55.29121645812256 l 7.1171531387445 0 L 25.977608956417434 45.95172172095789 l -7.1171531387445 0 L 18.860455817672932 55.29121645812256 M 36.65333866453418 48.80823331895209 l 7.1171531387445 0 L 43.77049180327868 45.61573467856809 l -7.1171531387445 0 L 36.65333866453418 48.80823331895209 M 54.446221511395436 49.62146620467743 l 7.1171531387445 0 L 61.563374650139934 44.87163902288296 l -7.1171531387445 0 L 54.446221511395436 49.62146620467743 M 90.03198720511796 94.69595585005912 l 7.1171531387445 0 L 97.14914034386246 76.53823124682478 l -7.1171531387445 0 L 90.03198720511796 94.69595585005912 M 107.82487005197919 88.29404730438914 l 7.1171531387445 0 L 114.94202319072369 82.40022279099335 l -7.1171531387445 0 L 107.82487005197919 88.29404730438914 M 116.72131147540982 82.43951661238317 l 7.1171531387445 0 L 123.83846461415432 80.37485012391481 l -7.1171531387445 0 L 116.72131147540982 82.43951661238317 M 143.4106357457017 87.81108147439565 l 7.1171531387445 0 L 150.5277888844462 83.63673468941117 l -7.1171531387445 0 L 143.4106357457017 87.81108147439565 M 170.09996001599356 113.72112886473383 l 7.1171531387445 0 L 177.21711315473806 101.23091625929582 l -7.1171531387445 0 L 170.09996001599356 113.72112886473383 M 178.9964014394242 101.23066756422378 l 7.1171531387445 0 L 186.1135545781687 100.56118043016485 l -7.1171531387445 0 L 178.9964014394242 101.23066756422378 M 187.89284286285485 100.54203090961413 l 7.1171531387445 0 L 195.00999600159935 49.81893009191464 l -7.1171531387445 0 L 187.89284286285485 100.54203090961413 M 196.78928428628546 49.78137713602953 l 7.1171531387445 0 L 203.90643742502996 42.650792029143844 l -7.1171531387445 0 L 196.78928428628546 49.78137713602953 M 205.68572570971608 42.67889457228969 l 7.1171531387445 0 L 212.80287884846058 38.21083890717017 l -7.1171531387445 0 L 205.68572570971608 42.67889457228969 M 214.5821671331467 38.21083890717017 l 7.1171531387445 0 L 221.6993202718912 24.063322341342655 l -7.1171531387445 0 L 214.5821671331467 38.21083890717017 M 232.37504998000796 79.32635169999496 l 7.1171531387445 0 L 239.49220311875246 78.00602956228373 l -7.1171531387445 0 L 232.37504998000796 79.32635169999496 M 250.16793282686922 91.05829303063888 l 7.1171531387445 0 L 257.28508596561375 88.53602760953004 l -7.1171531387445 0 L 250.16793282686922 91.05829303063888 M 259.06437425029986 88.53602760953004 l 7.1171531387445 0 L 266.1815273890444 80.81852213251845 l -7.1171531387445 0 L 259.06437425029986 88.53602760953004 M 276.85725709716115 98.13192696601658 l 7.1171531387445 0 L 283.9744102359057 95.15827998906931 l -7.1171531387445 0 L 276.85725709716115 98.13192696601658 M 303.54658136745303 121.90941411320657 l 7.1171531387445 0 L 310.66373450619756 98.52536257005859 l -7.1171531387445 0 L 303.54658136745303 121.90941411320657 M 339.13234706117555 113.26054559122822 l 7.1171531387445 0 L 346.2495001999201 102.84793161800714 l -7.1171531387445 0 L 339.13234706117555 113.26054559122822 M 356.9252299080368 106.57139423729748 l 7.1171531387445 0 L 364.0423830467813 98.247072784393 l -7.1171531387445 0 L 356.9252299080368 106.57139423729748 M 365.8216713314674 98.247072784393 l 7.1171531387445 0 L 372.93882447021196 93.80314054126595 l -7.1171531387445 0 L 365.8216713314674 98.247072784393 M 401.40743702518995 107.07773740406707 l 7.1171531387445 0 L 408.5245901639345 92.86879315543406 l -7.1171531387445 0 L 401.40743702518995 107.07773740406707 M 410.3038784486206 92.86879315543406 l 7.1171531387445 0 L 417.4210315873651 75.24277861632227 l -7.1171531387445 0 L 410.3038784486206 92.86879315543406 M 454.7860855657737 98.15505560772068 l 7.1171531387445 0 L 461.90323870451823 97.59549169552437 l -7.1171531387445 0 L 454.7860855657737 98.15505560772068 M 481.47540983606564 107.02153231777538 l 7.1171531387445 0 L 488.59256297481016 104.64574829412591 l -7.1171531387445 0 L 481.47540983606564 107.02153231777538 M 490.3718512594962 104.65644218222566 l 7.1171531387445 0 L 497.48900439824075 99.18440451108981 l -7.1171531387445 0 L 490.3718512594962 104.65644218222566 M 517.0611755297881 106.81262845722206 l 7.1171531387445 0 L 524.1783286685326 101.97351974454837 l -7.1171531387445 0 L 517.0611755297881 106.81262845722206 M 525.9576169532187 101.97351974454837 l 7.1171531387445 0 L 533.0747700919632 94.83895551650929 l -7.1171531387445 0 L 525.9576169532187 101.97351974454837 M 561.5433826469413 107.47117300810918 l 7.1171531387445 0 L 568.6605357856857 104.42590185040078 l -7.1171531387445 0 L 561.5433826469413 107.47117300810918 M 570.4398240703717 104.42590185040078 l 7.1171531387445 0 L 577.5569772091162 103.43161895219595 l -7.1171531387445 0 L 570.4398240703717 104.42590185040078 M 579.3362654938024 103.43311112262842 l 7.1171531387445 0 L 586.4534186325469 94.32813583844204 l -7.1171531387445 0 L 579.3362654938024 103.43311112262842 M 597.1291483406637 100.29184366709441 l 7.1171531387445 0 L 604.2463014794082 81.65289409937118 l -7.1171531387445 0 L 597.1291483406637 100.29184366709441 M 606.0255897640943 81.67900708194031 l 7.1171531387445 0 L 613.1427429028388 64.45513247439357 l -7.1171531387445 0 L 606.0255897640943 81.67900708194031 M 623.8184726109555 76.30495526920691 l 7.1171531387445 0 L 630.9356257497 68.9254263951619 l -7.1171531387445 0 L 623.8184726109555 76.30495526920691 M 632.7149140343862 68.9254263951619 l 7.1171531387445 0 L 639.8320671731307 63.50810163988535 l -7.1171531387445 0 L 632.7149140343862 68.9254263951619 M 677.1971211515394 79.86800956700095 l 7.1171531387445 0 L 684.3142742902838 78.47581455345653 l -7.1171531387445 0 L 677.1971211515394 79.86800956700095 M 686.09356257497 78.49322320850267 l 7.1171531387445 0 L 693.2107157137144 55.08106912220882 l -7.1171531387445 0 L 686.09356257497 78.49322320850267 M 694.9900039984005 55.08106912220882 l 7.1171531387445 0 L 702.107157137145 51.329503959772666 l -7.1171531387445 0 L 694.9900039984005 55.08106912220882 M 739.4722111155537 185.04513467385283 l 7.1171531387445 0 L 746.5893642542982 143.30241290922396 l -7.1171531387445 0 L 739.4722111155537 185.04513467385283 M 775.0579768092763 174.8710192747634 l 7.1171531387445 0 L 782.1751299480208 167.71655944095738 l -7.1171531387445 0 L 775.0579768092763 174.8710192747634 M 783.9544182327068 167.7598323835005 l 7.1171531387445 0 L 791.0715713714512 160.72549226951264 l -7.1171531387445 0 L 783.9544182327068 167.7598323835005 M 801.747301079568 166.6683097121096 l 7.1171531387445 0 L 808.8644542183125 165.89859846399952 l -7.1171531387445 0 L 801.747301079568 166.6683097121096 M 810.6437425029987 165.89859846399952 l 7.1171531387445 0 L 817.7608956417432 165.7023780521227 l -7.1171531387445 0 L 810.6437425029987 165.89859846399952 M 819.5401839264293 165.7277449494756 l 7.1171531387445 0 L 826.6573370651738 165.6966580654647 l -7.1171531387445 0 L 819.5401839264293 165.7277449494756 M 846.2295081967213 188.56143429809447 l 7.1171531387445 0 L 853.3466613354658 177.47833841052613 l -7.1171531387445 0 L 846.2295081967213 188.56143429809447 M 855.1259496201519 177.45297151317325 l 7.1171531387445 0 L 862.2431027588964 168.12317588382 l -7.1171531387445 0 L 855.1259496201519 177.45297151317325 M 881.8152738904437 170.1565067932054 l 7.1171531387445 0 L 888.9324270291881 168.56983223328868 l -7.1171531387445 0 L 881.8152738904437 170.1565067932054"></path><path class="candle body down" d="M 1.0675729708116766 4.274406760288002 l 7.1171531387445 0 L 8.184726109556177 62.893327421685655 l -7.1171531387445 0 L 1.0675729708116766 4.274406760288002 M 27.75689724110356 45.924613958100394 l 7.1171531387445 0 L 34.87405037984806 48.831113265584065 l -7.1171531387445 0 L 27.75689724110356 45.924613958100394 M 45.54978008796481 45.61598337364012 l 7.1171531387445 0 L 52.66693322670931 49.62072011946108 l -7.1171531387445 0 L 45.54978008796481 45.61598337364012 M 63.342662934826066 44.87163902288296 l 7.1171531387445 0 L 70.45981607357056 77.64940082891061 l -7.1171531387445 0 L 63.342662934826066 44.87163902288296 M 72.23910435825668 77.69690158767928 l 7.1171531387445 0 L 79.35625749700118 82.70910207052576 l -7.1171531387445 0 L 72.23910435825668 77.69690158767928 M 81.13554578168731 82.70910207052576 l 7.1171531387445 0 L 88.25269892043181 94.69595585005912 l -7.1171531387445 0 L 81.13554578168731 82.70910207052576 M 98.92842862854857 76.5016730712279 l 7.1171531387445 0 L 106.04558176729307 88.32811852926508 l -7.1171531387445 0 L 98.92842862854857 76.5016730712279 M 125.61775289884046 80.34550410540851 l 7.1171531387445 0 L 132.73490603758498 84.8414136186018 l -7.1171531387445 0 L 125.61775289884046 80.34550410540851 M 134.51419432227107 84.8632987849455 l 7.1171531387445 0 L 141.63134746101557 87.82475970336043 l -7.1171531387445 0 L 134.51419432227107 84.8632987849455 M 152.30707716913233 83.63673468941117 l 7.1171531387445 0 L 159.42423030787683 88.69668462609836 l -7.1171531387445 0 L 152.30707716913233 83.63673468941117 M 161.20351859256294 88.73398888691146 l 7.1171531387445 0 L 168.32067173130744 113.72112886473383 l -7.1171531387445 0 L 161.20351859256294 88.73398888691146 M 223.47860855657734 24.07078319350532 l 7.1171531387445 0 L 230.59576169532184 79.32759517535537 l -7.1171531387445 0 L 223.47860855657734 24.07078319350532 M 241.2714914034386 77.99458958896774 l 7.1171531387445 0 L 248.3886445421831 91.05829303063888 l -7.1171531387445 0 L 241.2714914034386 77.99458958896774 M 267.9608156737305 80.84364033479923 l 7.1171531387445 0 L 275.07796881247504 98.16351124017166 l -7.1171531387445 0 L 267.9608156737305 80.84364033479923 M 285.7536985205918 95.15827998906931 l 7.1171531387445 0 L 292.8708516593363 111.62239115138952 l -7.1171531387445 0 L 285.7536985205918 95.15827998906931 M 294.65013994402244 111.63955111136352 l 7.1171531387445 0 L 301.76729308276697 121.90941411320657 l -7.1171531387445 0 L 294.65013994402244 111.63955111136352 M 312.4430227908837 98.52536257005859 l 7.1171531387445 0 L 319.5601759296282 101.3037839154174 l -7.1171531387445 0 L 312.4430227908837 98.52536257005859 M 321.3394642143143 101.3371090550771 l 7.1171531387445 0 L 328.45661735305885 110.49082857339253 l -7.1171531387445 0 L 321.3394642143143 101.3371090550771 M 330.23590563774496 110.45377300765149 l 7.1171531387445 0 L 337.3530587764895 113.3040672288435 l -7.1171531387445 0 L 330.23590563774496 110.45377300765149 M 348.02878848460614 102.87628285622507 l 7.1171531387445 0 L 355.14594162335067 106.54577864487244 l -7.1171531387445 0 L 348.02878848460614 102.87628285622507 M 374.7181127548981 93.82726396325833 l 7.1171531387445 0 L 381.8352658936426 98.00360030881956 l -7.1171531387445 0 L 374.7181127548981 93.82726396325833 M 383.61455417832866 98.00360030881956 l 7.1171531387445 0 L 390.7317073170732 100.7805294837458 l -7.1171531387445 0 L 383.61455417832866 98.00360030881956 M 392.5109956017593 100.74844781944651 l 7.1171531387445 0 L 399.62814874050383 107.10111474084331 l -7.1171531387445 0 L 392.5109956017593 100.74844781944651 M 419.20031987205124 75.24277861632227 l 7.1171531387445 0 L 426.31747301079577 79.70834733072098 l -7.1171531387445 0 L 419.20031987205124 75.24277861632227 M 428.0967612954818 79.70834733072098 l 7.1171531387445 0 L 435.21391443422635 84.62231326009298 l -7.1171531387445 0 L 428.0967612954818 79.70834733072098 M 436.99320271891247 84.62231326009298 l 7.1171531387445 0 L 444.110355857657 95.3306256740258 l -7.1171531387445 0 L 436.99320271891247 84.62231326009298 M 445.8896441423431 95.3306256740258 l 7.1171531387445 0 L 453.00679728108764 98.11924351734017 l -7.1171531387445 0 L 445.8896441423431 95.3306256740258 M 463.68252698920435 97.57211435874822 l 7.1171531387445 0 L 470.7996801279489 105.23416083468433 l -7.1171531387445 0 L 463.68252698920435 97.57211435874822 M 472.57896841263494 105.23416083468433 l 7.1171531387445 0 L 479.69612155137946 107.02153231777538 l -7.1171531387445 0 L 472.57896841263494 105.23416083468433 M 499.2682926829268 99.17321323284587 l 7.1171531387445 0 L 506.38544582167134 104.11354083985914 l -7.1171531387445 0 L 499.2682926829268 99.17321323284587 M 508.16473410635746 104.11354083985914 l 7.1171531387445 0 L 515.281887245102 106.78800764508547 l -7.1171531387445 0 L 508.16473410635746 104.11354083985914 M 534.8540583766493 94.87327543645736 l 7.1171531387445 0 L 541.9712115153937 100.37043130987398 l -7.1171531387445 0 L 534.8540583766493 94.87327543645736 M 543.75049980008 100.37043130987398 l 7.1171531387445 0 L 550.8676529388244 105.4306299416332 l -7.1171531387445 0 L 543.75049980008 100.37043130987398 M 552.6469412235106 105.44604903610268 l 7.1171531387445 0 L 559.764094362255 107.47117300810918 l -7.1171531387445 0 L 552.6469412235106 105.44604903610268 M 588.232706917233 94.32813583844204 l 7.1171531387445 0 L 595.3498600559775 100.31372883343802 l -7.1171531387445 0 L 588.232706917233 94.32813583844204 M 614.9220311875249 64.45463508424939 l 7.1171531387445 0 L 622.0391843262694 76.30495526920691 l -7.1171531387445 0 L 614.9220311875249 64.45463508424939 M 641.6113554578168 63.50785294481324 l 7.1171531387445 0 L 648.7285085965613 68.03907715824295 l -7.1171531387445 0 L 641.6113554578168 63.50785294481324 M 650.5077968812475 68.03907715824295 l 7.1171531387445 0 L 657.624950019992 71.43973357396399 l -7.1171531387445 0 L 650.5077968812475 68.03907715824295 M 659.4042383046781 71.43973357396399 l 7.1171531387445 0 L 666.5213914434225 71.61680446529019 l -7.1171531387445 0 L 659.4042383046781 71.43973357396399 M 668.3006797281087 71.6369487661292 l 7.1171531387445 0 L 675.4178328668531 79.86800956700095 l -7.1171531387445 0 L 668.3006797281087 71.6369487661292 M 703.8864454218311 51.329503959772666 l 7.1171531387445 0 L 711.0035985605756 61.12286720349644 l -7.1171531387445 0 L 703.8864454218311 51.329503959772666 M 712.7828868452618 61.12286720349644 l 7.1171531387445 0 L 719.9000399840063 68.94308374528009 l -7.1171531387445 0 L 712.7828868452618 61.12286720349644 M 721.6793282686924 68.95452371859616 l 7.1171531387445 0 L 728.7964814074369 119.77386952919336 l -7.1171531387445 0 L 721.6793282686924 68.95452371859616 M 730.5757696921231 119.81987811752947 l 7.1171531387445 0 L 737.6929228308676 185.04190163791571 l -7.1171531387445 0 L 730.5757696921231 119.81987811752947 M 748.3686525389844 143.27008254985265 l 7.1171531387445 0 L 755.4858056777289 156.50414211590362 l -7.1171531387445 0 L 748.3686525389844 143.27008254985265 M 757.265093962415 156.51234905328255 l 7.1171531387445 0 L 764.3822471011595 162.9261949624127 l -7.1171531387445 0 L 757.265093962415 156.51234905328255 M 766.1615353858456 162.8993358946273 l 7.1171531387445 0 L 773.27868852459 174.91901742367622 l -7.1171531387445 0 L 766.1615353858456 162.8993358946273 M 792.8508596561375 160.72549226951264 l 7.1171531387445 0 L 799.9680127948819 166.6397097788196 l -7.1171531387445 0 L 792.8508596561375 160.72549226951264 M 828.43662534986 165.6966580654647 l 7.1171531387445 0 L 835.5537784886045 176.1530423713732 l -7.1171531387445 0 L 828.43662534986 165.6966580654647 M 837.3330667732906 176.17119711163554 l 7.1171531387445 0 L 844.4502199120351 188.56143429809447 l -7.1171531387445 0 L 837.3330667732906 176.17119711163554 M 864.0223910435824 168.12317588382 l 7.1171531387445 0 L 871.1395441823269 168.2266330338083 l -7.1171531387445 0 L 864.0223910435824 168.12317588382 M 872.9188324670131 168.21171132948308 l 7.1171531387445 0 L 880.0359856057576 170.1368598825105 l -7.1171531387445 0 L 872.9188324670131 168.21171132948308"></path><path class="candle body equal"></path><path class="candle wick up" d="M 13.522590963614554 49.25339749798829 L 13.522590963614554 55.29121645812256 M 13.522590963614554 62.893327421685655 L 13.522590963614554 64.69611799924607 M 22.41903238704518 38.87908256586857 L 22.41903238704518 45.95172172095789 M 22.41903238704518 55.29121645812256 L 22.41903238704518 57.05595668965367 M 40.21191523390643 41.742308930809116 L 40.21191523390643 45.61573467856809 M 40.21191523390643 48.80823331895209 L 40.21191523390643 61.50685239479924 M 58.004798080767685 38.38467676255911 L 58.004798080767685 44.87163902288296 M 58.004798080767685 49.62146620467743 L 58.004798080767685 51.06141067206252 M 93.5905637744902 72.86027982572642 L 93.5905637744902 76.53823124682478 M 93.5905637744902 94.69595585005912 L 93.5905637744902 94.81582687480517 M 111.38344662135144 71.4581370092985 L 111.38344662135144 82.40022279099335 M 111.38344662135144 88.29404730438914 L 111.38344662135144 88.66932816816882 M 120.27988804478207 78.46213632449175 L 120.27988804478207 80.37485012391481 M 120.27988804478207 82.43951661238317 L 120.27988804478207 94.44601730261144 M 146.96921231507397 82.91725984586276 L 146.96921231507397 83.63673468941117 M 146.96921231507397 87.81108147439565 L 146.96921231507397 94.01229309689131 M 173.65853658536582 96.97275923501789 L 173.65853658536582 101.23091625929582 M 173.65853658536582 113.72112886473383 L 173.65853658536582 120.68061176202346 M 182.55497800879647 97.11725107190061 L 182.55497800879647 100.56118043016485 M 182.55497800879647 101.23066756422378 L 182.55497800879647 108.21526866379418 M 191.4514194322271 43.92212123765381 L 191.4514194322271 49.81893009191464 M 191.4514194322271 100.54203090961413 L 191.4514194322271 101.25802402215334 M 200.34786085565773 38.610491888014366 L 200.34786085565773 42.650792029143844 M 200.34786085565773 49.78137713602953 L 200.34786085565773 56.01093999674302 M 209.24430227908834 37.38691213334508 L 209.24430227908834 38.21083890717017 M 209.24430227908834 42.67889457228969 L 209.24430227908834 50.07036080979489 M 218.14074370251896 21.768861606265688 L 218.14074370251896 24.063322341342655 M 218.14074370251896 38.21083890717017 L 218.14074370251896 45.382210005878136 M 235.93362654938022 70.1778547781933 L 235.93362654938022 78.00602956228373 M 235.93362654938022 79.32635169999496 L 235.93362654938022 93.1537977080461 M 253.72650939624148 86.37984133453354 L 253.72650939624148 88.53602760953004 M 253.72650939624148 91.05829303063888 L 253.72650939624148 100.5552117484348 M 262.6229508196721 78.94385867912473 L 262.6229508196721 80.81852213251845 M 262.6229508196721 88.53602760953004 L 262.6229508196721 89.90932179759577 M 280.4158336665334 91.4482469036717 L 280.4158336665334 95.15827998906931 M 280.4158336665334 98.13192696601658 L 280.4158336665334 127.59955736256285 M 307.10515793682526 94.83124596927463 L 307.10515793682526 98.52536257005859 M 307.10515793682526 121.90941411320657 L 307.10515793682526 124.51996628490647 M 342.6909236305478 100.58132473100395 L 342.6909236305478 102.84793161800714 M 342.6909236305478 113.26054559122822 L 342.6909236305478 116.45403901190062 M 360.483806477409 88.86679205540607 L 360.483806477409 98.247072784393 M 360.483806477409 106.57139423729748 L 360.483806477409 121.66270860169605 M 369.38024790083966 92.45993845692264 L 369.38024790083966 93.80314054126595 M 369.38024790083966 98.247072784393 L 369.38024790083966 112.41796668699668 M 404.9660135945622 90.6300401165047 L 404.9660135945622 92.86879315543406 M 404.9660135945622 107.07773740406707 L 404.9660135945622 109.51644128095468 M 413.86245501799283 71.83117961742934 L 413.86245501799283 75.24277861632227 M 413.86245501799283 92.86879315543406 L 413.86245501799283 96.31272251369838 M 458.34466213514594 94.63651772783028 L 458.34466213514594 97.59549169552437 M 458.34466213514594 98.15505560772068 L 458.34466213514594 100.65394369205339 M 485.0339864054379 102.58705048738757 L 485.0339864054379 104.64574829412591 M 485.0339864054379 107.02153231777538 L 485.0339864054379 109.36225033626057 M 493.93042782886846 95.735998641528 L 493.93042782886846 99.18440451108981 M 493.93042782886846 104.65644218222566 L 493.93042782886846 128.65800358936622 M 520.6197520991603 97.92327180053539 L 520.6197520991603 101.97351974454837 M 520.6197520991603 106.81262845722206 L 520.6197520991603 106.9285203608147 M 529.5161935225909 91.67804115028035 L 529.5161935225909 94.83895551650929 M 529.5161935225909 101.97351974454837 L 529.5161935225909 104.73279156935644 M 565.1019592163135 102.29632594811761 L 565.1019592163135 104.42590185040078 M 565.1019592163135 107.47117300810918 L 565.1019592163135 117.21803027335268 M 573.998400639744 102.12223939765653 L 573.998400639744 103.43161895219595 M 573.998400639744 104.42590185040078 L 573.998400639744 105.71041189773136 M 582.8948420631747 91.22939524023495 L 582.8948420631747 94.32813583844204 M 582.8948420631747 103.43311112262842 L 582.8948420631747 106.77010159989516 M 600.687724910036 73.30171357868129 L 600.687724910036 81.65289409937118 M 600.687724910036 100.29184366709441 L 600.687724910036 102.61962954183103 M 609.5841663334666 58.277298188674166 L 609.5841663334666 64.45513247439357 M 609.5841663334666 81.67900708194031 L 609.5841663334666 82.39052368318195 M 627.3770491803277 64.99206513502995 L 627.3770491803277 68.9254263951619 M 627.3770491803277 76.30495526920691 L 627.3770491803277 83.64195728592499 M 636.2734906037584 56.66078022010703 L 636.2734906037584 63.50810163988535 M 636.2734906037584 68.9254263951619 L 636.2734906037584 69.866239852868 M 680.7556977209116 73.86252096623802 L 680.7556977209116 78.47581455345653 M 680.7556977209116 79.86800956700095 L 680.7556977209116 82.86727213637317 M 689.6521391443422 51.262853680453276 L 689.6521391443422 55.08106912220882 M 689.6521391443422 78.49322320850267 L 689.6521391443422 79.14380951708291 M 698.5485805677728 46.8211596929749 L 698.5485805677728 51.329503959772666 M 698.5485805677728 55.08106912220882 L 698.5485805677728 56.76896257646496 M 743.0307876849259 128.4341780244877 L 743.0307876849259 143.30241290922396 M 743.0307876849259 185.04513467385283 L 743.0307876849259 189.2336570779463 M 778.6165533786485 153.52751079809133 L 778.6165533786485 167.71655944095738 M 778.6165533786485 174.8710192747634 L 778.6165533786485 187.71786061357454 M 787.512994802079 154.90304324180596 L 787.512994802079 160.72549226951264 M 787.512994802079 167.7598323835005 L 787.512994802079 169.99808803228578 M 805.3058776489403 164.44522446272165 L 805.3058776489403 165.89859846399952 M 805.3058776489403 166.6683097121096 L 805.3058776489403 172.90732298556242 M 814.202319072371 157.97915258845313 L 814.202319072371 165.7023780521227 M 814.202319072371 165.89859846399952 L 814.202319072371 169.54247866022195 M 823.0987604958016 162.6692929529466 L 823.0987604958016 165.6966580654647 M 823.0987604958016 165.7277449494756 L 823.0987604958016 169.35620605122864 M 849.7880847660936 175.2883296057258 L 849.7880847660936 177.47833841052613 M 849.7880847660936 188.56143429809447 L 849.7880847660936 192.65644735508317 M 858.6845261895241 165.56435228711427 L 858.6845261895241 168.12317588382 M 858.6845261895241 177.45297151317325 L 858.6845261895241 179.13812932163643 M 885.3738504598159 165.66407901102124 L 885.3738504598159 168.56983223328868 M 885.3738504598159 170.1565067932054 L 885.3738504598159 170.44872350290794" style="stroke-width: 1px;"></path><path class="candle wick down" d="M 4.626149540183927 3.8461538461538396 L 4.626149540183927 4.274406760288002 M 4.626149540183927 62.893327421685655 L 4.626149540183927 64.15719577803304 M 31.315473810475808 45.12854103234915 L 31.315473810475808 45.924613958100394 M 31.315473810475808 48.831113265584065 L 31.315473810475808 61.50585761451086 M 49.10835665733706 36.39213184499607 L 49.10835665733706 45.61598337364012 M 49.10835665733706 49.62072011946108 L 49.10835665733706 55.168609787583534 M 66.90123950419832 36.7211554253675 L 66.90123950419832 44.87163902288296 M 66.90123950419832 77.64940082891061 L 66.90123950419832 80.96077571375231 M 75.79768092762893 73.62352500196216 L 75.79768092762893 77.69690158767928 M 75.79768092762893 82.70910207052576 L 75.79768092762893 88.6180969833188 M 84.69412235105956 79.38703329758421 L 84.69412235105956 82.70910207052576 M 84.69412235105956 94.69595585005912 L 84.69412235105956 95.58155900176185 M 102.48700519792082 69.31314201254594 L 102.48700519792082 76.5016730712279 M 102.48700519792082 88.32811852926508 L 102.48700519792082 95.08416885758733 M 129.1763294682127 72.67027679065178 L 129.1763294682127 80.34550410540851 M 129.1763294682127 84.8414136186018 L 129.1763294682127 89.73001265062088 M 138.07277089164333 82.25324400338978 L 138.07277089164333 84.8632987849455 M 138.07277089164333 87.82475970336043 L 138.07277089164333 92.2808780050198 M 155.8656537385046 82.21991886373007 L 155.8656537385046 83.63673468941117 M 155.8656537385046 88.69668462609836 L 155.8656537385046 92.75066299619262 M 164.7620951619352 79.16768424400327 L 164.7620951619352 88.73398888691146 M 164.7620951619352 113.72112886473383 L 164.7620951619352 117.23021633188499 M 227.0371851259496 14.034444864352196 L 227.0371851259496 24.07078319350532 M 227.0371851259496 79.32759517535537 L 227.0371851259496 87.1259265507953 M 244.83006797281087 75.43128948096435 L 244.83006797281087 77.99458958896774 M 244.83006797281087 91.05829303063888 L 244.83006797281087 96.15355766756251 M 271.51939224310274 80.72799712627872 L 271.51939224310274 80.84364033479923 M 271.51939224310274 98.16351124017166 L 271.51939224310274 100.16699874090659 M 289.31227508996403 92.73101608549779 L 289.31227508996403 95.15827998906931 M 289.31227508996403 111.62239115138952 L 289.31227508996403 115.67935386234888 M 298.2087165133947 84.7384538587577 L 298.2087165133947 111.63955111136352 M 298.2087165133947 121.90941411320657 L 298.2087165133947 130.25014944086882 M 316.0015993602559 96.07894914593633 L 316.0015993602559 98.52536257005859 M 316.0015993602559 101.3037839154174 L 316.0015993602559 120.16705643816334 M 324.89804078368655 100.65145674133255 L 324.89804078368655 101.3371090550771 M 324.89804078368655 110.49082857339253 L 324.89804078368655 113.35480102354931 M 333.7944822071172 104.03196885621456 L 333.7944822071172 110.45377300765149 M 333.7944822071172 113.3040672288435 L 333.7944822071172 117.73531602329415 M 351.5873650539784 74.04804749001511 L 351.5873650539784 102.87628285622507 M 351.5873650539784 106.54577864487244 L 351.5873650539784 113.08173383439753 M 378.2766893242703 79.04333670795964 L 378.2766893242703 93.82726396325833 M 378.2766893242703 98.00360030881956 L 378.2766893242703 104.64997611035133 M 387.1731307477009 96.47686126127593 L 387.1731307477009 98.00360030881956 M 387.1731307477009 100.7805294837458 L 387.1731307477009 104.54900591108397 M 396.06957217113154 98.66761615129253 L 396.06957217113154 100.74844781944651 M 396.06957217113154 107.10111474084331 L 396.06957217113154 110.49455899947388 M 422.7588964414235 74.55190370606392 L 422.7588964414235 75.24277861632227 M 422.7588964414235 79.70834733072098 L 422.7588964414235 90.35896248792956 M 431.65533786485406 72.28877855006992 L 431.65533786485406 79.70834733072098 M 431.65533786485406 84.62231326009298 L 431.65533786485406 87.30001310125637 M 440.5517792882847 81.93267605546933 L 440.5517792882847 84.62231326009298 M 440.5517792882847 95.3306256740258 L 440.5517792882847 100.55546044350685 M 449.44822071171535 92.9110713176889 L 449.44822071171535 95.3306256740258 M 449.44822071171535 98.11924351734017 L 449.44822071171535 102.61614781082183 M 467.2411035585766 95.45721146571822 L 467.2411035585766 97.57211435874822 M 467.2411035585766 105.23416083468433 L 467.2411035585766 108.0100952293222 M 476.13754498200717 101.84643656271177 L 476.13754498200717 105.23416083468433 M 476.13754498200717 107.02153231777538 L 476.13754498200717 111.9954337595204 M 502.82686925229905 84.84116492352976 L 502.82686925229905 99.17321323284587 M 502.82686925229905 104.11354083985914 L 502.82686925229905 106.76363552802093 M 511.7233106757297 102.85141334901635 L 511.7233106757297 104.11354083985914 M 511.7233106757297 106.78800764508547 L 511.7233106757297 109.13096391921944 M 538.4126349460215 90.9394167861812 L 538.4126349460215 94.87327543645736 M 538.4126349460215 100.37043130987398 L 538.4126349460215 106.2505775943049 M 547.3090763694522 99.55670103400445 L 547.3090763694522 100.37043130987398 M 547.3090763694522 105.4306299416332 L 547.3090763694522 106.87306135973927 M 556.2055177928828 99.86359075296012 L 556.2055177928828 105.44604903610268 M 556.2055177928828 107.47117300810918 L 556.2055177928828 111.00065347117139 M 591.7912834866053 93.56339849177375 L 591.7912834866053 94.32813583844204 M 591.7912834866053 100.31372883343802 L 591.7912834866053 104.60919011852906 M 618.4806077568971 61.95276265905167 L 618.4806077568971 64.45463508424939 M 618.4806077568971 76.30495526920691 L 618.4806077568971 78.67029409982875 M 645.169932027189 60.48546173373691 L 645.169932027189 63.50785294481324 M 645.169932027189 68.03907715824295 L 645.169932027189 70.83639932908034 M 654.0663734506197 62.60658200356909 L 654.0663734506197 68.03907715824295 M 654.0663734506197 71.43973357396399 L 654.0663734506197 77.72649630125763 M 662.9628148740503 66.23554049546621 L 662.9628148740503 71.43973357396399 M 662.9628148740503 71.61680446529019 L 662.9628148740503 75.41885472736001 M 671.8592562974809 63.74858977459371 L 671.8592562974809 71.6369487661292 M 671.8592562974809 79.86800956700095 L 671.8592562974809 82.44946441526659 M 707.4450219912034 49.690603434717644 L 707.4450219912034 51.329503959772666 M 707.4450219912034 61.12286720349644 L 707.4450219912034 61.60657911870618 M 716.3414634146341 57.039542814895924 L 716.3414634146341 61.12286720349644 M 716.3414634146341 68.94308374528009 L 716.3414634146341 74.07217091200759 M 725.2379048380647 66.2136553291225 L 725.2379048380647 68.95452371859616 M 725.2379048380647 119.77386952919336 L 725.2379048380647 154.10373728011746 M 734.1343462614954 118.76590840202377 L 734.1343462614954 119.81987811752947 M 734.1343462614954 185.04190163791571 L 734.1343462614954 193.36846134646896 M 751.9272291083566 140.96840965768516 L 751.9272291083566 143.27008254985265 M 751.9272291083566 156.50414211590362 L 751.9272291083566 174.1294105697992 M 760.8236705317872 155.29075885918996 L 760.8236705317872 156.51234905328255 M 760.8236705317872 162.9261949624127 L 760.8236705317872 167.41986621995727 M 769.7201119552178 159.38975103733205 L 769.7201119552178 162.8993358946273 M 769.7201119552178 174.91901742367622 L 769.7201119552178 177.42710722567617 M 796.4094362255097 157.85679461298625 L 796.4094362255097 160.72549226951264 M 796.4094362255097 166.6397097788196 L 796.4094362255097 173.7063802521788 M 831.9952019192323 164.38727851092528 L 831.9952019192323 165.6966580654647 M 831.9952019192323 176.1530423713732 L 831.9952019192323 178.6457130789037 M 840.8916433426629 175.1888515768909 L 840.8916433426629 176.17119711163554 M 840.8916433426629 188.56143429809447 L 840.8916433426629 196.15384615384616 M 867.5809676129546 162.9125167334479 L 867.5809676129546 168.12317588382 M 867.5809676129546 168.2266330338083 L 867.5809676129546 171.7307465995177 M 876.4774090363853 166.5591325754633 L 876.4774090363853 168.21171132948308 M 876.4774090363853 170.1368598825105 L 876.4774090363853 174.59670861025117" style="stroke-width: 1px;"></path><path class="candle wick equal" style="stroke-width: 1px;"></path></g></g><g class="x axis" transform="translate(0,200)" fill="none" font-size="10" font-family="sans-serif" text-anchor="middle"><path class="domain" stroke="#000" d="M0.5,6V0.5H890.5V6"></path><g class="tick" opacity="1" transform="translate(31.315473810475808,0)"><line stroke="#000" y2="6" x1="0.5" x2="0.5"></line><text fill="#000" y="9" x="0.5" dy="0.71em">Aug 22</text></g><g class="tick" opacity="1" transform="translate(93.5905637744902,0)"><line stroke="#000" y2="6" x1="0.5" x2="0.5"></line><text fill="#000" y="9" x="0.5" dy="0.71em">Aug 29</text></g><g class="tick" opacity="1" transform="translate(155.8656537385046,0)"><line stroke="#000" y2="6" x1="0.5" x2="0.5"></line><text fill="#000" y="9" x="0.5" dy="0.71em">Sep  5</text></g><g class="tick" opacity="1" transform="translate(218.14074370251896,0)"><line stroke="#000" y2="6" x1="0.5" x2="0.5"></line><text fill="#000" y="9" x="0.5" dy="0.71em">Sep 12</text></g><g class="tick" opacity="1" transform="translate(280.4158336665334,0)"><line stroke="#000" y2="6" x1="0.5" x2="0.5"></line><text fill="#000" y="9" x="0.5" dy="0.71em">Sep 19</text></g><g class="tick" opacity="1" transform="translate(342.6909236305478,0)"><line stroke="#000" y2="6" x1="0.5" x2="0.5"></line><text fill="#000" y="9" x="0.5" dy="0.71em">Sep 26</text></g><g class="tick" opacity="1" transform="translate(404.9660135945622,0)"><line stroke="#000" y2="6" x1="0.5" x2="0.5"></line><text fill="#000" y="9" x="0.5" dy="0.71em">Oct  3</text></g><g class="tick" opacity="1" transform="translate(467.2411035585766,0)"><line stroke="#000" y2="6" x1="0.5" x2="0.5"></line><text fill="#000" y="9" x="0.5" dy="0.71em">Oct 10</text></g><g class="tick" opacity="1" transform="translate(529.5161935225909,0)"><line stroke="#000" y2="6" x1="0.5" x2="0.5"></line><text fill="#000" y="9" x="0.5" dy="0.71em">Oct 17</text></g><g class="tick" opacity="1" transform="translate(591.7912834866053,0)"><line stroke="#000" y2="6" x1="0.5" x2="0.5"></line><text fill="#000" y="9" x="0.5" dy="0.71em">Oct 24</text></g><g class="tick" opacity="1" transform="translate(654.0663734506197,0)"><line stroke="#000" y2="6" x1="0.5" x2="0.5"></line><text fill="#000" y="9" x="0.5" dy="0.71em">Oct 31</text></g><g class="tick" opacity="1" transform="translate(716.3414634146341,0)"><line stroke="#000" y2="6" x1="0.5" x2="0.5"></line><text fill="#000" y="9" x="0.5" dy="0.71em">Nov  7</text></g><g class="tick" opacity="1" transform="translate(778.6165533786485,0)"><line stroke="#000" y2="6" x1="0.5" x2="0.5"></line><text fill="#000" y="9" x="0.5" dy="0.71em">Nov 14</text></g><g class="tick" opacity="1" transform="translate(840.8916433426629,0)"><line stroke="#000" y2="6" x1="0.5" x2="0.5"></line><text fill="#000" y="9" x="0.5" dy="0.71em">Nov 21</text></g></g><g class="y axis" fill="none" font-size="10" font-family="sans-serif" text-anchor="end"><path class="domain" stroke="#000" d="M-6,200.5H0.5V0.5H-6"></path><g class="tick" opacity="1" transform="translate(0,183.1222243764742)"><line stroke="#000" x2="-6" y1="0.5" y2="0.5"></line><text fill="#000" x="-9" y="0.5" dy="0.32em">16,000</text></g><g class="tick" opacity="1" transform="translate(0,158.2527171677491)"><line stroke="#000" x2="-6" y1="0.5" y2="0.5"></line><text fill="#000" x="-9" y="0.5" dy="0.32em">17,000</text></g><g class="tick" opacity="1" transform="translate(0,133.383209959024)"><line stroke="#000" x2="-6" y1="0.5" y2="0.5"></line><text fill="#000" x="-9" y="0.5" dy="0.32em">18,000</text></g><g class="tick" opacity="1" transform="translate(0,108.51370275029889)"><line stroke="#000" x2="-6" y1="0.5" y2="0.5"></line><text fill="#000" x="-9" y="0.5" dy="0.32em">19,000</text></g><g class="tick" opacity="1" transform="translate(0,83.64419554157378)"><line stroke="#000" x2="-6" y1="0.5" y2="0.5"></line><text fill="#000" x="-9" y="0.5" dy="0.32em">20,000</text></g><g class="tick" opacity="1" transform="translate(0,58.774688332848655)"><line stroke="#000" x2="-6" y1="0.5" y2="0.5"></line><text fill="#000" x="-9" y="0.5" dy="0.32em">21,000</text></g><g class="tick" opacity="1" transform="translate(0,33.90518112412357)"><line stroke="#000" x2="-6" y1="0.5" y2="0.5"></line><text fill="#000" x="-9" y="0.5" dy="0.32em">22,000</text></g><g class="tick" opacity="1" transform="translate(0,9.035673915398462)"><line stroke="#000" x2="-6" y1="0.5" y2="0.5"></line><text fill="#000" x="-9" y="0.5" dy="0.32em">23,000</text></g><text transform="rotate(-90)" y="6" dy=".71em" style="text-anchor: end;">Price ($)</text></g></g></svg>