<?xml version="1.0" encoding="utf-8"?>
<!DOCTYPE svg PUBLIC "-//W3C//DTD SVG 1.1//EN" "http://www.w3.org/Graphics/SVG/1.1/DTD/svg11.dtd">
<svg version="1.1" xmlns="http://www.w3.org/2000/svg" width="960" height="250"><g transform="translate(50,20)"><style>.axis path,.axis line{fill:none;stroke:#000;shape-rendering:crispEdges;}path.candle{stroke:#000000;}path.candle.body{stroke-width:0;}path.candle.up{fill:#00AA00;stroke:#00AA00;}path.candle.down{fill:#FF0000;stroke:#FF0000;}</style><g class="candlestick"><g class="data"><path class="candle body up" d="M 18.860455817672932 49.064491912465456 l 7.1171531387445 0 L 25.977608956417434 40.496726675436065 l -7.1171531387445 0 L 18.860455817672932 49.064491912465456 M 27.75689724110356 40.496726675436065 l 7.1171531387445 0 L 34.87405037984806 37.23393354181786 l -7.1171531387445 0 L 27.75689724110356 40.496726675436065 M 36.65333866453418 37.23393354181786 l 7.1171531387445 0 L 43.77049180327868 30.258905588860188 l -7.1171531387445 0 L 36.65333866453418 37.23393354181786 M 45.54978008796481 30.258905588860188 l 7.1171531387445 0 L 52.66693322670931 28.235033944171363 l -7.1171531387445 0 L 45.54978008796481 30.258905588860188 M 54.446221511395436 28.235033944171363 l 7.1171531387445 0 L 61.563374650139934 26.988688866368165 l -7.1171531387445 0 L 54.446221511395436 28.235033944171363 M 63.342662934826066 26.988688866368165 l 7.1171531387445 0 L 70.45981607357056 12.415240230355693 l -7.1171531387445 0 L 63.342662934826066 26.988688866368165 M 72.23910435825668 12.415240230355693 l 7.1171531387445 0 L 79.35625749700118 10.56280315923783 l -7.1171531387445 0 L 72.23910435825668 12.415240230355693 M 81.13554578168731 10.56280315923783 l 7.1171531387445 0 L 88.25269892043181 8.596244137126291 l -7.1171531387445 0 L 81.13554578168731 10.56280315923783 M 107.82487005197919 20.703299737441483 l 7.1171531387445 0 L 114.94202319072369 15.839339142555872 l -7.1171531387445 0 L 107.82487005197919 20.703299737441483 M 125.61775289884046 18.81192028062071 l 7.1171531387445 0 L 132.73490603758498 15.060113957877093 l -7.1171531387445 0 L 125.61775289884046 18.81192028062071 M 134.51419432227107 15.060051046106963 l 7.1171531387445 0 L 141.63134746101557 13.97073374651768 l -7.1171531387445 0 L 134.51419432227107 15.060051046106963 M 161.20351859256294 35.4238990037594 l 7.1171531387445 0 L 168.32067173130744 33.701878032095664 l -7.1171531387445 0 L 161.20351859256294 35.4238990037594 M 178.9964014394242 41.20203053022644 l 7.1171531387445 0 L 186.1135545781687 38.044174229164696 l -7.1171531387445 0 L 178.9964014394242 41.20203053022644 M 205.68572570971608 58.3239091501697 l 7.1171531387445 0 L 212.80287884846058 54.89842617902693 l -7.1171531387445 0 L 205.68572570971608 58.3239091501697 M 214.5821671331467 54.898363267256855 l 7.1171531387445 0 L 221.6993202718912 48.14893692194147 l -7.1171531387445 0 L 214.5821671331467 54.898363267256855 M 232.37504998000796 55.73244751547827 l 7.1171531387445 0 L 239.49220311875246 51.897786391489575 l -7.1171531387445 0 L 232.37504998000796 55.73244751547827 M 259.06437425029986 57.39495395261059 l 7.1171531387445 0 L 266.1815273890444 50.32983634484427 l -7.1171531387445 0 L 259.06437425029986 57.39495395261059 M 267.9608156737305 50.32983634484427 l 7.1171531387445 0 L 275.07796881247504 45.97602729384366 l -7.1171531387445 0 L 267.9608156737305 50.32983634484427 M 312.4430227908837 58.882817315896006 l 7.1171531387445 0 L 319.5601759296282 58.829216487755644 l -7.1171531387445 0 L 312.4430227908837 58.882817315896006 M 321.3394642143143 58.829279399525745 l 7.1171531387445 0 L 328.45661735305885 52.68934228311139 l -7.1171531387445 0 L 321.3394642143143 58.829279399525745 M 339.13234706117555 67.24360282923791 l 7.1171531387445 0 L 346.2495001999201 60.17810775085084 l -7.1171531387445 0 L 339.13234706117555 67.24360282923791 M 348.02878848460614 60.17810775085084 l 7.1171531387445 0 L 355.14594162335067 56.992570270937335 l -7.1171531387445 0 L 348.02878848460614 60.17810775085084 M 374.7181127548981 70.27494356059276 l 7.1171531387445 0 L 381.8352658936426 65.00576825437855 l -7.1171531387445 0 L 374.7181127548981 70.27494356059276 M 383.61455417832866 65.00576825437855 l 7.1171531387445 0 L 390.7317073170732 64.64836648833943 l -7.1171531387445 0 L 383.61455417832866 65.00576825437855 M 401.40743702518995 69.65746453688683 l 7.1171531387445 0 L 408.5245901639345 57.32015185794057 l -7.1171531387445 0 L 401.40743702518995 69.65746453688683 M 454.7860855657737 117.81466303248018 l 7.1171531387445 0 L 461.90323870451823 111.88290096338555 l -7.1171531387445 0 L 454.7860855657737 117.81466303248018 M 481.47540983606564 124.38573450951164 l 7.1171531387445 0 L 488.59256297481016 122.76695175261119 l -7.1171531387445 0 L 481.47540983606564 124.38573450951164 M 490.3718512594962 122.76695175261119 l 7.1171531387445 0 L 497.48900439824075 117.73596040806284 l -7.1171531387445 0 L 490.3718512594962 122.76695175261119 M 499.2682926829268 117.73596040806284 l 7.1171531387445 0 L 506.38544582167134 109.92137488288344 l -7.1171531387445 0 L 499.2682926829268 117.73596040806284 M 517.0611755297881 119.07428249377827 l 7.1171531387445 0 L 524.1783286685326 115.48252371421425 l -7.1171531387445 0 L 517.0611755297881 119.07428249377827 M 534.8540583766493 126.3637434737846 l 7.1171531387445 0 L 541.9712115153937 116.2733246645947 l -7.1171531387445 0 L 534.8540583766493 126.3637434737846 M 552.6469412235106 123.30824462270452 l 7.1171531387445 0 L 559.764094362255 121.77288287298022 l -7.1171531387445 0 L 552.6469412235106 123.30824462270452 M 561.5433826469413 121.7728199612101 l 7.1171531387445 0 L 568.6605357856857 116.43242853122256 l -7.1171531387445 0 L 561.5433826469413 121.7728199612101 M 579.3362654938024 123.88621505477651 l 7.1171531387445 0 L 586.4534186325469 120.45475546547259 l -7.1171531387445 0 L 579.3362654938024 123.88621505477651 M 614.9220311875249 126.9017649318318 l 7.1171531387445 0 L 622.0391843262694 124.37573153806291 l -7.1171531387445 0 L 614.9220311875249 126.9017649318318 M 623.8184726109555 124.37573153806291 l 7.1171531387445 0 L 630.9356257497 121.62793415462887 l -7.1171531387445 0 L 623.8184726109555 124.37573153806291 M 632.7149140343862 121.62793415462887 l 7.1171531387445 0 L 639.8320671731307 107.37137210469966 l -7.1171531387445 0 L 632.7149140343862 121.62793415462887 M 641.6113554578168 107.37130919292956 l 7.1171531387445 0 L 648.7285085965613 106.95099565677269 l -7.1171531387445 0 L 641.6113554578168 107.37130919292956 M 659.4042383046781 119.50315203067113 l 7.1171531387445 0 L 666.5213914434225 115.43414456299371 l -7.1171531387445 0 L 659.4042383046781 119.50315203067113 M 677.1971211515394 120.1676890584252 l 7.1171531387445 0 L 684.3142742902838 119.13700552858569 l -7.1171531387445 0 L 677.1971211515394 120.1676890584252 M 686.09356257497 119.1370684403558 l 7.1171531387445 0 L 693.2107157137144 118.78992129284593 l -7.1171531387445 0 L 686.09356257497 119.1370684403558 M 694.9900039984005 118.78998420461603 l 7.1171531387445 0 L 702.107157137145 109.64324194719276 l -7.1171531387445 0 L 694.9900039984005 118.78998420461603 M 775.0579768092763 167.75283082833764 l 7.1171531387445 0 L 782.1751299480208 164.93878735096956 l -7.1171531387445 0 L 775.0579768092763 167.75283082833764 M 792.8508596561375 178.67318170892122 l 7.1171531387445 0 L 799.9680127948819 178.24406052494788 l -7.1171531387445 0 L 792.8508596561375 178.67318170892122 M 810.6437425029987 187.6683695121308 l 7.1171531387445 0 L 817.7608956417432 177.58229161507901 l -7.1171531387445 0 L 810.6437425029987 187.6683695121308 M 828.43662534986 177.58292073278017 l 7.1171531387445 0 L 835.5537784886045 176.64163482827803 l -7.1171531387445 0 L 828.43662534986 177.58292073278017 M 846.2295081967213 181.26892134398062 l 7.1171531387445 0 L 853.3466613354658 174.20940288375473 l -7.1171531387445 0 L 846.2295081967213 181.26892134398062 M 855.1259496201519 174.20946579552486 l 7.1171531387445 0 L 862.2431027588964 173.40690034413242 l -7.1171531387445 0 L 855.1259496201519 174.20946579552486 M 864.0223910435824 173.40696325590253 l 7.1171531387445 0 L 871.1395441823269 171.8120869716468 l -7.1171531387445 0 L 864.0223910435824 173.40696325590253 M 881.8152738904437 174.6626821874533 l 7.1171531387445 0 L 888.9324270291881 172.5079540609195 l -7.1171531387445 0 L 881.8152738904437 174.6626821874533"></path><path class="candle body down" d="M 1.0675729708116766 41.5221885283558 l 7.1171531387445 0 L 8.184726109556177 47.429729565955085 l -7.1171531387445 0 L 1.0675729708116766 41.5221885283558 M 9.964014394242305 47.429729565955085 l 7.1171531387445 0 L 17.081167532986804 49.064554824235586 l -7.1171531387445 0 L 9.964014394242305 47.429729565955085 M 90.03198720511796 8.59630704889642 l 7.1171531387445 0 L 97.14914034386246 10.903910776816417 l -7.1171531387445 0 L 90.03198720511796 8.59630704889642 M 98.92842862854857 10.903910776816417 l 7.1171531387445 0 L 106.04558176729307 20.703362649211613 l -7.1171531387445 0 L 98.92842862854857 10.903910776816417 M 116.72131147540982 15.839339142555872 l 7.1171531387445 0 L 123.83846461415432 18.811857368850582 l -7.1171531387445 0 L 116.72131147540982 15.839339142555872 M 143.4106357457017 13.97079665828781 l 7.1171531387445 0 L 150.5277888844462 20.783826803192227 l -7.1171531387445 0 L 143.4106357457017 13.97079665828781 M 152.30707716913233 20.783889714962356 l 7.1171531387445 0 L 159.42423030787683 35.4238990037594 l -7.1171531387445 0 L 152.30707716913233 20.783889714962356 M 170.09996001599356 33.70181512032556 l 7.1171531387445 0 L 177.21711315473806 41.20209344199651 l -7.1171531387445 0 L 170.09996001599356 33.70181512032556 M 187.89284286285485 38.044237140934825 l 7.1171531387445 0 L 195.00999600159935 41.78817949241375 l -7.1171531387445 0 L 187.89284286285485 38.044237140934825 M 196.78928428628546 41.78817949241375 l 7.1171531387445 0 L 203.90643742502996 58.3239091501697 l -7.1171531387445 0 L 196.78928428628546 41.78817949241375 M 223.47860855657734 48.14899983371163 l 7.1171531387445 0 L 230.59576169532184 55.7323846037082 l -7.1171531387445 0 L 223.47860855657734 48.14899983371163 M 241.2714914034386 51.897786391489575 l 7.1171531387445 0 L 248.3886445421831 52.98735533815929 l -7.1171531387445 0 L 241.2714914034386 51.897786391489575 M 250.16793282686922 52.98741824992945 l 7.1171531387445 0 L 257.28508596561375 57.39489104084049 l -7.1171531387445 0 L 250.16793282686922 52.98741824992945 M 276.85725709716115 45.97596438207353 l 7.1171531387445 0 L 283.9744102359057 46.825273278663474 l -7.1171531387445 0 L 276.85725709716115 45.97596438207353 M 285.7536985205918 46.825273278663474 l 7.1171531387445 0 L 292.8708516593363 52.35005910686624 l -7.1171531387445 0 L 285.7536985205918 46.825273278663474 M 294.65013994402244 52.35005910686624 l 7.1171531387445 0 L 301.76729308276697 57.19948708285469 l -7.1171531387445 0 L 294.65013994402244 52.35005910686624 M 303.54658136745303 57.19942417108456 l 7.1171531387445 0 L 310.66373450619756 58.882880227666135 l -7.1171531387445 0 L 303.54658136745303 57.19942417108456 M 330.23590563774496 52.68934228311139 l 7.1171531387445 0 L 337.3530587764895 67.24353991746779 l -7.1171531387445 0 L 330.23590563774496 52.68934228311139 M 356.9252299080368 56.992633182707465 l 7.1171531387445 0 L 364.0423830467813 64.20200747935385 l -7.1171531387445 0 L 356.9252299080368 56.992633182707465 M 365.8216713314674 64.20200747935385 l 7.1171531387445 0 L 372.93882447021196 70.27494356059276 l -7.1171531387445 0 L 365.8216713314674 64.20200747935385 M 392.5109956017593 64.64836648833943 l 7.1171531387445 0 L 399.62814874050383 69.65746453688683 l -7.1171531387445 0 L 392.5109956017593 64.64836648833943 M 410.3038784486206 57.32015185794057 l 7.1171531387445 0 L 417.4210315873651 77.0557628791969 l -7.1171531387445 0 L 410.3038784486206 57.32015185794057 M 419.20031987205124 77.0557628791969 l 7.1171531387445 0 L 426.31747301079577 80.44796552394735 l -7.1171531387445 0 L 419.20031987205124 77.0557628791969 M 428.0967612954818 80.44796552394735 l 7.1171531387445 0 L 435.21391443422635 83.85388293458342 l -7.1171531387445 0 L 428.0967612954818 80.44796552394735 M 436.99320271891247 83.8538200228133 l 7.1171531387445 0 L 444.110355857657 92.8753678577022 l -7.1171531387445 0 L 436.99320271891247 83.8538200228133 M 445.8896441423431 92.87543076947233 l 7.1171531387445 0 L 453.00679728108764 117.80157738429567 l -7.1171531387445 0 L 445.8896441423431 92.87543076947233 M 463.68252698920435 111.88283805161542 l 7.1171531387445 0 L 470.7996801279489 123.91892917523776 l -7.1171531387445 0 L 463.68252698920435 111.88283805161542 M 472.57896841263494 123.91892917523776 l 7.1171531387445 0 L 479.69612155137946 124.38567159774153 l -7.1171531387445 0 L 472.57896841263494 123.91892917523776 M 508.16473410635746 109.92137488288344 l 7.1171531387445 0 L 515.281887245102 119.07428249377827 l -7.1171531387445 0 L 508.16473410635746 109.92137488288344 M 525.9576169532187 115.48252371421425 l 7.1171531387445 0 L 533.0747700919632 126.36380638555472 l -7.1171531387445 0 L 525.9576169532187 115.48252371421425 M 543.75049980008 116.27338757636481 l 7.1171531387445 0 L 550.8676529388244 123.30824462270452 l -7.1171531387445 0 L 543.75049980008 116.27338757636481 M 570.4398240703717 116.43249144299266 l 7.1171531387445 0 L 577.5569772091162 123.88615214300638 l -7.1171531387445 0 L 570.4398240703717 116.43249144299266 M 588.232706917233 120.45475546547259 l 7.1171531387445 0 L 595.3498600559775 121.16207249690673 l -7.1171531387445 0 L 588.232706917233 120.45475546547259 M 597.1291483406637 121.16213540867686 l 7.1171531387445 0 L 604.2463014794082 123.30610562252052 l -7.1171531387445 0 L 597.1291483406637 121.16213540867686 M 606.0255897640943 123.30610562252052 l 7.1171531387445 0 L 613.1427429028388 126.90182784360194 l -7.1171531387445 0 L 606.0255897640943 123.30610562252052 M 650.5077968812475 106.95093274500258 l 7.1171531387445 0 L 657.624950019992 119.50321494244125 l -7.1171531387445 0 L 650.5077968812475 106.95093274500258 M 668.3006797281087 115.43408165122358 l 7.1171531387445 0 L 675.4178328668531 120.1676890584252 l -7.1171531387445 0 L 668.3006797281087 115.43408165122358 M 703.8864454218311 109.64324194719276 l 7.1171531387445 0 L 711.0035985605756 111.20200687540085 l -7.1171531387445 0 L 703.8864454218311 109.64324194719276 M 712.7828868452618 111.20206978717098 l 7.1171531387445 0 L 719.9000399840063 116.99341278536274 l -7.1171531387445 0 L 712.7828868452618 111.20206978717098 M 721.6793282686924 116.99341278536274 l 7.1171531387445 0 L 728.7964814074369 117.59006801315972 l -7.1171531387445 0 L 721.6793282686924 116.99341278536274 M 730.5757696921231 117.59006801315972 l 7.1171531387445 0 L 737.6929228308676 123.99480076999978 l -7.1171531387445 0 L 730.5757696921231 117.59006801315972 M 739.4722111155537 123.99486368176991 l 7.1171531387445 0 L 746.5893642542982 128.1921482487175 l -7.1171531387445 0 L 739.4722111155537 123.99486368176991 M 748.3686525389844 128.1920853369474 l 7.1171531387445 0 L 755.4858056777289 139.83189522059786 l -7.1171531387445 0 L 748.3686525389844 128.1920853369474 M 757.265093962415 139.83189522059786 l 7.1171531387445 0 L 764.3822471011595 165.54469060897384 l -7.1171531387445 0 L 757.265093962415 139.83189522059786 M 766.1615353858456 165.55815372777903 l 7.1171531387445 0 L 773.27868852459 167.75289374010774 l -7.1171531387445 0 L 766.1615353858456 165.55815372777903 M 783.9544182327068 164.93878735096956 l 7.1171531387445 0 L 791.0715713714512 178.66871497324286 l -7.1171531387445 0 L 783.9544182327068 164.93878735096956 M 801.747301079568 178.24406052494788 l 7.1171531387445 0 L 808.8644542183125 187.6683695121308 l -7.1171531387445 0 L 801.747301079568 178.24406052494788 M 819.5401839264293 177.58229161507901 l 7.1171531387445 0 L 826.6573370651738 177.5829836445503 l -7.1171531387445 0 L 819.5401839264293 177.58229161507901 M 837.3330667732906 176.64169774004816 l 7.1171531387445 0 L 844.4502199120351 181.26898425575072 l -7.1171531387445 0 L 837.3330667732906 176.64169774004816 M 872.9188324670131 171.81214988341694 l 7.1171531387445 0 L 880.0359856057576 174.66274509922343 l -7.1171531387445 0 L 872.9188324670131 171.81214988341694"></path><path class="candle body equal"></path><path class="candle wick up" d="M 22.41903238704518 34.225241047705424 L 22.41903238704518 40.496726675436065 M 22.41903238704518 49.064491912465456 L 22.41903238704518 49.86189859870825 M 31.315473810475808 36.333036993731355 L 31.315473810475808 37.23393354181786 M 31.315473810475808 40.496726675436065 L 31.315473810475808 44.351079183471626 M 40.21191523390643 28.815520847048077 L 40.21191523390643 30.258905588860188 M 40.21191523390643 37.23393354181786 L 40.21191523390643 39.2615798927138 M 49.10835665733706 23.321750521513394 L 49.10835665733706 28.235033944171363 M 49.10835665733706 30.258905588860188 L 49.10835665733706 32.85376445913795 M 58.004798080767685 25.216338478610197 L 58.004798080767685 26.988688866368165 M 58.004798080767685 28.235033944171363 L 58.004798080767685 29.75240292764198 M 66.90123950419832 11.337939078858938 L 66.90123950419832 12.415240230355693 M 66.90123950419832 26.988688866368165 L 66.90123950419832 27.553699473795888 M 75.79768092762893 3.846153846153868 L 75.79768092762893 10.56280315923783 M 75.79768092762893 12.415240230355693 L 75.79768092762893 13.44825149568959 M 84.69412235105956 4.433561043743481 L 84.69412235105956 8.596244137126291 M 84.69412235105956 10.56280315923783 L 84.69412235105956 11.640859251976025 M 111.38344662135144 13.092611259213811 L 111.38344662135144 15.839339142555872 M 111.38344662135144 20.703299737441483 L 111.38344662135144 28.94694353482413 M 129.1763294682127 8.537673279146645 L 129.1763294682127 15.060113957877093 M 129.1763294682127 18.81192028062071 L 129.1763294682127 20.57389022630923 M 138.07277089164333 12.019210637464312 L 138.07277089164333 13.97073374651768 M 138.07277089164333 15.060051046106963 L 138.07277089164333 23.171643038012377 M 164.7620951619352 30.828068373115713 L 164.7620951619352 33.701878032095664 M 164.7620951619352 35.4238990037594 L 164.7620951619352 38.211645361218245 M 182.55497800879647 37.7545913513126 L 182.55497800879647 38.044174229164696 M 182.55497800879647 41.20203053022644 L 182.55497800879647 41.99811606929674 M 209.24430227908834 50.97235425305712 L 209.24430227908834 54.89842617902693 M 209.24430227908834 58.3239091501697 L 209.24430227908834 60.05914159355817 M 218.14074370251896 45.54740940403127 L 218.14074370251896 48.14893692194147 M 218.14074370251896 54.898363267256855 L 218.14074370251896 57.95845467755552 M 235.93362654938022 49.8942981603189 L 235.93362654938022 51.897786391489575 M 235.93362654938022 55.73244751547827 L 235.93362654938022 56.839505934240776 M 262.6229508196721 48.34434087992727 L 262.6229508196721 50.32983634484427 M 262.6229508196721 57.39495395261059 L 262.6229508196721 64.57696162925578 M 271.51939224310274 44.29741544356119 L 271.51939224310274 45.97602729384366 M 271.51939224310274 50.32983634484427 L 271.51939224310274 51.77762491056461 M 316.0015993602559 55.74735760499621 L 316.0015993602559 58.829216487755644 M 316.0015993602559 58.882817315896006 L 316.0015993602559 62.10383703415593 M 324.89804078368655 51.49452194503462 L 324.89804078368655 52.68934228311139 M 324.89804078368655 58.829279399525745 L 324.89804078368655 66.69400560548902 M 342.6909236305478 58.67451644503603 L 342.6909236305478 60.17810775085084 M 342.6909236305478 67.24360282923791 L 342.6909236305478 68.69894080737242 M 351.5873650539784 53.02560569439095 L 351.5873650539784 56.992570270937335 M 351.5873650539784 60.17810775085084 L 351.5873650539784 62.407008854353506 M 378.2766893242703 63.705696524894734 L 378.2766893242703 65.00576825437855 M 378.2766893242703 70.27494356059276 L 378.2766893242703 71.81263304581145 M 387.1731307477009 60.60829843491621 L 387.1731307477009 64.64836648833943 M 387.1731307477009 65.00576825437855 L 387.1731307477009 67.6250998032321 M 404.9660135945622 55.22034570671963 L 404.9660135945622 57.32015185794057 M 404.9660135945622 69.65746453688683 L 404.9660135945622 70.02832942173109 M 458.34466213514594 101.5534803395182 L 458.34466213514594 111.88290096338555 M 458.34466213514594 117.81466303248018 L 458.34466213514594 119.97775842443961 M 485.0339864054379 111.46598466281506 L 485.0339864054379 122.76695175261119 M 485.0339864054379 124.38573450951164 L 485.0339864054379 126.13512210117662 M 493.93042782886846 116.12208476923156 L 493.93042782886846 117.73596040806284 M 493.93042782886846 122.76695175261119 L 493.93042782886846 126.90056960819958 M 502.82686925229905 109.09653866486929 L 502.82686925229905 109.92137488288344 M 502.82686925229905 117.73596040806284 L 502.82686925229905 121.55306914818873 M 520.6197520991603 113.32188188128941 L 520.6197520991603 115.48252371421425 M 520.6197520991603 119.07428249377827 L 520.6197520991603 121.73941381127756 M 538.4126349460215 114.85183321878357 L 538.4126349460215 116.2733246645947 M 538.4126349460215 126.3637434737846 L 538.4126349460215 126.51441716321666 M 556.2055177928828 120.44468958225374 L 556.2055177928828 121.77288287298022 M 556.2055177928828 123.30824462270452 L 556.2055177928828 124.90450496590283 M 565.1019592163135 115.2116256320871 L 565.1019592163135 116.43242853122256 M 565.1019592163135 121.7728199612101 L 565.1019592163135 122.96789194636735 M 582.8948420631747 119.2513791266598 L 582.8948420631747 120.45475546547259 M 582.8948420631747 123.88621505477651 L 582.8948420631747 126.65521370474025 M 618.4806077568971 122.8993810287091 L 618.4806077568971 124.37573153806291 M 618.4806077568971 126.9017649318318 L 618.4806077568971 128.03298147031953 M 627.3770491803277 120.87500608985935 L 627.3770491803277 121.62793415462887 M 627.3770491803277 124.37573153806291 L 627.3770491803277 125.58439246556561 M 636.2734906037584 104.30266178189484 L 636.2734906037584 107.37137210469966 M 636.2734906037584 121.62793415462887 L 636.2734906037584 122.68787165757314 M 645.169932027189 103.18912345081023 L 645.169932027189 106.95099565677269 M 645.169932027189 107.37130919292956 L 645.169932027189 110.73218177616133 M 662.9628148740503 113.94703614094973 L 662.9628148740503 115.43414456299371 M 662.9628148740503 119.50315203067113 L 662.9628148740503 120.8324148214896 M 680.7556977209116 118.35161499043538 L 680.7556977209116 119.13700552858569 M 680.7556977209116 120.1676890584252 L 680.7556977209116 121.52161326312982 M 689.6521391443422 117.09262464683847 L 689.6521391443422 118.78992129284593 M 689.6521391443422 119.1370684403558 L 689.6521391443422 121.22957682624312 M 698.5485805677728 107.17370332298962 L 698.5485805677728 109.64324194719276 M 698.5485805677728 118.78998420461603 L 698.5485805677728 118.97223960264724 M 778.6165533786485 163.57813158686233 L 778.6165533786485 164.93878735096956 M 778.6165533786485 167.75283082833764 L 778.6165533786485 180.4912060417847 M 796.4094362255097 172.60326539264796 L 796.4094362255097 178.24406052494788 M 796.4094362255097 178.67318170892122 L 796.4094362255097 179.64164549811426 M 814.202319072371 176.06014133707944 L 814.202319072371 177.58229161507901 M 814.202319072371 187.6683695121308 L 814.202319072371 194.02484894129051 M 831.9952019192323 170.35372922854668 L 831.9952019192323 176.64163482827803 M 831.9952019192323 177.58292073278017 L 831.9952019192323 179.001581148936 M 849.7880847660936 173.43640596431766 L 849.7880847660936 174.20940288375473 M 849.7880847660936 181.26892134398062 L 849.7880847660936 181.88501630874399 M 858.6845261895241 171.38919405291514 L 858.6845261895241 173.40690034413242 M 858.6845261895241 174.20946579552486 L 858.6845261895241 176.55859129172256 M 867.5809676129546 171.03632193432452 L 867.5809676129546 171.8120869716468 M 867.5809676129546 173.40696325590253 L 867.5809676129546 175.4897203174216 M 885.3738504598159 172.32513245695728 L 885.3738504598159 172.5079540609195 M 885.3738504598159 174.6626821874533 L 885.3738504598159 175.3677343951632" style="stroke-width: 1px;"></path><path class="candle wick down" d="M 4.626149540183927 40.92370885922537 L 4.626149540183927 41.5221885283558 M 4.626149540183927 47.429729565955085 L 4.626149540183927 49.638624726560266 M 13.522590963614554 45.654925619162526 L 13.522590963614554 47.429729565955085 M 13.522590963614554 49.064554824235586 L 13.522590963614554 52.42599361339839 M 93.5905637744902 6.926439934660323 L 93.5905637744902 8.59630704889642 M 93.5905637744902 10.903910776816417 L 93.5905637744902 14.820608849038734 M 102.48700519792082 7.556941694780676 L 102.48700519792082 10.903910776816417 M 102.48700519792082 20.703362649211613 L 102.48700519792082 22.65576652304665 M 120.27988804478207 9.991627198338563 L 120.27988804478207 15.839339142555872 M 120.27988804478207 18.811857368850582 L 120.27988804478207 20.013472178100074 M 146.96921231507397 10.073412499491639 L 146.96921231507397 13.97079665828781 M 146.96921231507397 20.783826803192227 L 146.96921231507397 21.688120586865153 M 155.8656537385046 20.7234944156493 L 155.8656537385046 20.783889714962356 M 155.8656537385046 35.4238990037594 L 155.8656537385046 35.735123530532036 M 173.65853658536582 30.39001371778562 L 173.65853658536582 33.70181512032556 M 173.65853658536582 41.20209344199651 L 173.65853658536582 42.11349625569275 M 191.4514194322271 33.91508602102476 L 191.4514194322271 38.044237140934825 M 191.4514194322271 41.78817949241375 L 191.4514194322271 43.6179683262892 M 200.34786085565773 40.17851894218035 L 200.34786085565773 41.78817949241375 M 200.34786085565773 58.3239091501697 L 200.34786085565773 60.40282859371155 M 227.0371851259496 45.933121466623334 L 227.0371851259496 48.14899983371163 M 227.0371851259496 55.7323846037082 L 227.0371851259496 58.188711756186564 M 244.83006797281087 50.90724057098521 L 244.83006797281087 51.897786391489575 M 244.83006797281087 52.98735533815929 L 244.83006797281087 55.42304743003905 M 253.72650939624148 51.62242157368408 L 253.72650939624148 52.98741824992945 M 253.72650939624148 57.39489104084049 L 253.72650939624148 58.22501184754455 M 280.4158336665334 41.53558873539086 L 280.4158336665334 45.97596438207353 M 280.4158336665334 46.825273278663474 L 280.4158336665334 50.211121834632024 M 289.31227508996403 36.64734419723976 L 289.31227508996403 46.825273278663474 M 289.31227508996403 52.35005910686624 L 289.31227508996403 56.93639006022215 M 298.2087165133947 50.36802378930577 L 298.2087165133947 52.35005910686624 M 298.2087165133947 57.19948708285469 L 298.2087165133947 60.54752566498243 M 307.10515793682526 55.49571052452512 L 307.10515793682526 57.19942417108456 M 307.10515793682526 58.882880227666135 L 307.10515793682526 59.86807854771047 M 333.7944822071172 50.353868641029266 L 333.7944822071172 52.68934228311139 M 333.7944822071172 67.24353991746779 L 333.7944822071172 69.82537605133115 M 360.483806477409 55.84015246591994 L 360.483806477409 56.992633182707465 M 360.483806477409 64.20200747935385 L 360.483806477409 66.85128503078349 M 369.38024790083966 62.94836463621698 L 369.38024790083966 64.20200747935385 M 369.38024790083966 70.27494356059276 L 369.38024790083966 70.60585947141229 M 396.06957217113154 63.85347627290136 L 396.06957217113154 64.64836648833943 M 396.06957217113154 69.65746453688683 L 396.06957217113154 70.98584656292363 M 413.86245501799283 56.341810920839066 L 413.86245501799283 57.32015185794057 M 413.86245501799283 77.0557628791969 L 413.86245501799283 83.22784791014143 M 422.7588964414235 76.2840871069323 L 422.7588964414235 77.0557628791969 M 422.7588964414235 80.44796552394735 L 422.7588964414235 85.2026483741384 M 431.65533786485406 79.61419583457645 L 431.65533786485406 80.44796552394735 M 431.65533786485406 83.85388293458342 L 431.65533786485406 88.17837510070916 M 440.5517792882847 83.59072300018076 L 440.5517792882847 83.8538200228133 M 440.5517792882847 92.8753678577022 L 440.5517792882847 94.91654023917344 M 449.44822071171535 91.58724936454077 L 449.44822071171535 92.87543076947233 M 449.44822071171535 117.80157738429567 L 449.44822071171535 118.07197217226187 M 467.2411035585766 104.67642060816455 L 467.2411035585766 111.88283805161542 M 467.2411035585766 123.91892917523776 L 467.2411035585766 132.21661418315153 M 476.13754498200717 116.75290108820249 L 476.13754498200717 123.91892917523776 M 476.13754498200717 124.38567159774153 L 476.13754498200717 139.04254124093012 M 511.7233106757297 109.92131197111331 L 511.7233106757297 109.92137488288344 M 511.7233106757297 119.07428249377827 L 511.7233106757297 124.02525006673679 M 529.5161935225909 113.81498433547252 L 529.5161935225909 115.48252371421425 M 529.5161935225909 126.36380638555472 L 529.5161935225909 126.74662450672137 M 547.3090763694522 113.39133647549941 L 547.3090763694522 116.27338757636481 M 547.3090763694522 123.30824462270452 L 547.3090763694522 126.27145190702183 M 573.998400639744 114.0633600038975 L 573.998400639744 116.43249144299266 M 573.998400639744 123.88615214300638 L 573.998400639744 125.41364992146598 M 591.7912834866053 116.87406915744931 L 591.7912834866053 120.45475546547259 M 591.7912834866053 121.16207249690673 L 591.7912834866053 122.72190692520685 M 600.687724910036 118.99482492811953 L 600.687724910036 121.16213540867686 M 600.687724910036 123.30610562252052 L 600.687724910036 130.740955703269 M 609.5841663334666 122.07108466333847 L 609.5841663334666 123.30610562252052 M 609.5841663334666 126.90182784360194 L 609.5841663334666 129.08423714898754 M 654.0663734506197 105.80644182302001 L 654.0663734506197 106.95093274500258 M 654.0663734506197 119.50321494244125 L 654.0663734506197 122.67918983329689 M 671.8592562974809 113.88412437083197 L 671.8592562974809 115.43408165122358 M 671.8592562974809 120.1676890584252 L 671.8592562974809 122.79645737279641 M 707.4450219912034 108.28120212414294 L 707.4450219912034 109.64324194719276 M 707.4450219912034 111.20200687540085 L 707.4450219912034 123.19531799534312 M 716.3414634146341 109.93188114849309 L 716.3414634146341 111.20206978717098 M 716.3414634146341 116.99341278536274 L 716.3414634146341 119.26383565714312 M 725.2379048380647 113.87783319382018 L 725.2379048380647 116.99341278536274 M 725.2379048380647 117.59006801315972 L 725.2379048380647 118.6333338970228 M 734.1343462614954 115.873394541956 L 734.1343462614954 117.59006801315972 M 734.1343462614954 123.99480076999978 L 734.1343462614954 125.51651066560852 M 743.0307876849259 121.80213684608499 L 743.0307876849259 123.99486368176991 M 743.0307876849259 128.1921482487175 L 743.0307876849259 130.23495633621175 M 751.9272291083566 127.43557130128113 L 751.9272291083566 128.1920853369474 M 751.9272291083566 139.83189522059786 L 751.9272291083566 139.92330602257897 M 760.8236705317872 137.81047713494362 L 760.8236705317872 139.83189522059786 M 760.8236705317872 165.54469060897384 L 760.8236705317872 169.07806726586855 M 769.7201119552178 160.036953870473 L 769.7201119552178 165.55815372777903 M 769.7201119552178 167.75289374010774 L 769.7201119552178 175.87109146787554 M 787.512994802079 162.3467595103471 L 787.512994802079 164.93878735096956 M 787.512994802079 178.66871497324286 L 787.512994802079 179.7338741531069 M 805.3058776489403 176.2104375558908 L 805.3058776489403 178.24406052494788 M 805.3058776489403 187.6683695121308 L 805.3058776489403 196.15384615384613 M 823.0987604958016 174.33604427700183 L 823.0987604958016 177.58229161507901 M 823.0987604958016 177.5829836445503 L 823.0987604958016 183.47693573980416 M 840.8916433426629 175.53136790923955 L 840.8916433426629 176.64169774004816 M 840.8916433426629 181.26898425575072 L 840.8916433426629 182.63718943227212 M 876.4774090363853 169.3156850216034 L 876.4774090363853 171.81214988341694 M 876.4774090363853 174.66274509922343 L 876.4774090363853 175.12414002126718" style="stroke-width: 1px;"></path><path class="candle wick equal" style="stroke-width: 1px;"></path></g></g><g class="x axis" transform="translate(0,200)" fill="none" font-size="10" font-family="sans-serif" text-anchor="middle"><path class="domain" stroke="#000" d="M0.5,6V0.5H890.5V6"></path><g class="tick" opacity="1" transform="translate(13.522590963614554,0)"><line stroke="#000" y2="6" x1="0.5" x2="0.5"></line><text fill="#000" y="9" x="0.5" dy="0.71em">Mar 21</text></g><g class="tick" opacity="1" transform="translate(75.79768092762893,0)"><line stroke="#000" y2="6" x1="0.5" x2="0.5"></line><text fill="#000" y="9" x="0.5" dy="0.71em">Mar 28</text></g><g class="tick" opacity="1" transform="translate(138.07277089164333,0)"><line stroke="#000" y2="6" x1="0.5" x2="0.5"></line><text fill="#000" y="9" x="0.5" dy="0.71em">Apr  4</text></g><g class="tick" opacity="1" transform="translate(200.34786085565773,0)"><line stroke="#000" y2="6" x1="0.5" x2="0.5"></line><text fill="#000" y="9" x="0.5" dy="0.71em">Apr 11</text></g><g class="tick" opacity="1" transform="translate(262.6229508196721,0)"><line stroke="#000" y2="6" x1="0.5" x2="0.5"></line><text fill="#000" y="9" x="0.5" dy="0.71em">Apr 18</text></g><g class="tick" opacity="1" transform="translate(324.89804078368655,0)"><line stroke="#000" y2="6" x1="0.5" x2="0.5"></line><text fill="#000" y="9" x="0.5" dy="0.71em">Apr 25</text></g><g class="tick" opacity="1" transform="translate(387.1731307477009,0)"><line stroke="#000" y2="6" x1="0.5" x2="0.5"></line><text fill="#000" y="9" x="0.5" dy="0.71em">May  2</text></g><g class="tick" opacity="1" transform="translate(449.44822071171535,0)"><line stroke="#000" y2="6" x1="0.5" x2="0.5"></line><text fill="#000" y="9" x="0.5" dy="0.71em">May  9</text></g><g class="tick" opacity="1" transform="translate(511.7233106757297,0)"><line stroke="#000" y2="6" x1="0.5" x2="0.5"></line><text fill="#000" y="9" x="0.5" dy="0.71em">May 16</text></g><g class="tick" opacity="1" transform="translate(573.998400639744,0)"><line stroke="#000" y2="6" x1="0.5" x2="0.5"></line><text fill="#000" y="9" x="0.5" dy="0.71em">May 23</text></g><g class="tick" opacity="1" transform="translate(636.2734906037584,0)"><line stroke="#000" y2="6" x1="0.5" x2="0.5"></line><text fill="#000" y="9" x="0.5" dy="0.71em">May 30</text></g><g class="tick" opacity="1" transform="translate(698.5485805677728,0)"><line stroke="#000" y2="6" x1="0.5" x2="0.5"></line><text fill="#000" y="9" x="0.5" dy="0.71em">Jun  6</text></g><g class="tick" opacity="1" transform="translate(760.8236705317872,0)"><line stroke="#000" y2="6" x1="0.5" x2="0.5"></line><text fill="#000" y="9" x="0.5" dy="0.71em">Jun 13</text></g><g class="tick" opacity="1" transform="translate(823.0987604958016,0)"><line stroke="#000" y2="6" x1="0.5" x2="0.5"></line><text fill="#000" y="9" x="0.5" dy="0.71em">Jun 20</text></g><g class="tick" opacity="1" transform="translate(885.3738504598159,0)"><line stroke="#000" y2="6" x1="0.5" x2="0.5"></line><text fill="#000" y="9" x="0.5" dy="0.71em">Jun 27</text></g></g><g class="y axis" fill="none" font-size="10" font-family="sans-serif" text-anchor="end"><path class="domain" stroke="#000" d="M-6,200.5H0.5V0.5H-6"></path><g class="tick" opacity="1" transform="translate(0,181.1934272198393)"><line stroke="#000" x2="-6" y1="0.5" y2="0.5"></line><text fill="#000" x="-9" y="0.5" dy="0.32em">20,000</text></g><g class="tick" opacity="1" transform="translate(0,149.73754216095185)"><line stroke="#000" x2="-6" y1="0.5" y2="0.5"></line><text fill="#000" x="-9" y="0.5" dy="0.32em">25,000</text></g><g class="tick" opacity="1" transform="translate(0,118.28165710206441)"><line stroke="#000" x2="-6" y1="0.5" y2="0.5"></line><text fill="#000" x="-9" y="0.5" dy="0.32em">30,000</text></g><g class="tick" opacity="1" transform="translate(0,86.82577204317698)"><line stroke="#000" x2="-6" y1="0.5" y2="0.5"></line><text fill="#000" x="-9" y="0.5" dy="0.32em">35,000</text></g><g class="tick" opacity="1" transform="translate(0,55.369886984289565)"><line stroke="#000" x2="-6" y1="0.5" y2="0.5"></line><text fill="#000" x="-9" y="0.5" dy="0.32em">40,000</text></g><g class="tick" opacity="1" transform="translate(0,23.914001925402147)"><line stroke="#000" x2="-6" y1="0.5" y2="0.5"></line><text fill="#000" x="-9" y="0.5" dy="0.32em">45,000</text></g><text transform="rotate(-90)" y="6" dy=".71em" style="text-anchor: end;">Price ($)</text></g></g></svg>