<?xml version="1.0" encoding="utf-8"?>
<!DOCTYPE svg PUBLIC "-//W3C//DTD SVG 1.1//EN" "http://www.w3.org/Graphics/SVG/1.1/DTD/svg11.dtd">
<svg version="1.1" xmlns="http://www.w3.org/2000/svg" width="960" height="250"><g transform="translate(50,20)"><style>.axis path,.axis line{fill:none;stroke:#000;shape-rendering:crispEdges;}path.candle{stroke:#000000;}path.candle.body{stroke-width:0;}path.candle.up{fill:#00AA00;stroke:#00AA00;}path.candle.down{fill:#FF0000;stroke:#FF0000;}</style><g class="candlestick"><g class="data"><path class="candle body up" d="M 9.964014394242305 64.30784763740337 l 7.1171531387445 0 L 17.081167532986804 63.8106826347109 l -7.1171531387445 0 L 9.964014394242305 64.30784763740337 M 27.75689724110356 70.39359720500596 l 7.1171531387445 0 L 34.87405037984806 58.28869351044938 l -7.1171531387445 0 L 27.75689724110356 70.39359720500596 M 45.54978008796481 60.78787595874422 l 7.1171531387445 0 L 52.66693322670931 49.06867618387517 l -7.1171531387445 0 L 45.54978008796481 60.78787595874422 M 63.342662934826066 50.322038167138004 l 7.1171531387445 0 L 70.45981607357056 44.955928390037656 l -7.1171531387445 0 L 63.342662934826066 50.322038167138004 M 72.23910435825668 44.955928390037656 l 7.1171531387445 0 L 79.35625749700118 42.120701002270295 l -7.1171531387445 0 L 72.23910435825668 44.955928390037656 M 98.92842862854857 49.78281961363288 l 7.1171531387445 0 L 106.04558176729307 41.07894890767113 l -7.1171531387445 0 L 98.92842862854857 49.78281961363288 M 107.82487005197919 41.07894890767113 l 7.1171531387445 0 L 114.94202319072369 37.76432382287379 l -7.1171531387445 0 L 107.82487005197919 41.07894890767113 M 116.72131147540982 37.76432382287379 l 7.1171531387445 0 L 123.83846461415432 30.67849224445601 l -7.1171531387445 0 L 116.72131147540982 37.76432382287379 M 125.61775289884046 30.67849224445601 l 7.1171531387445 0 L 132.73490603758498 28.622469858980196 l -7.1171531387445 0 L 125.61775289884046 30.67849224445601 M 134.51419432227107 28.622469858980196 l 7.1171531387445 0 L 141.63134746101557 27.356325641427844 l -7.1171531387445 0 L 134.51419432227107 28.622469858980196 M 143.4106357457017 27.356325641427844 l 7.1171531387445 0 L 150.5277888844462 12.551366686715966 l -7.1171531387445 0 L 143.4106357457017 27.356325641427844 M 152.30707716913233 12.551366686715966 l 7.1171531387445 0 L 159.42423030787683 10.66950224343546 l -7.1171531387445 0 L 152.30707716913233 12.551366686715966 M 161.20351859256294 10.66950224343546 l 7.1171531387445 0 L 168.32067173130744 8.671702935148602 l -7.1171531387445 0 L 161.20351859256294 10.66950224343546 M 187.89284286285485 20.97108832442086 l 7.1171531387445 0 L 195.00999600159935 16.0298600151055 l -7.1171531387445 0 L 187.89284286285485 20.97108832442086 M 205.68572570971608 19.04966286601413 l 7.1171531387445 0 L 212.80287884846058 15.238256245553032 l -7.1171531387445 0 L 205.68572570971608 19.04966286601413 M 214.5821671331467 15.23819233438158 l 7.1171531387445 0 L 221.6993202718912 14.131570400762882 l -7.1171531387445 0 L 214.5821671331467 15.23819233438158 M 241.2714914034386 35.925535509149086 l 7.1171531387445 0 L 248.3886445421831 34.17615892427983 l -7.1171531387445 0 L 241.2714914034386 35.925535509149086 M 259.06437425029986 41.795457050772455 l 7.1171531387445 0 L 266.1815273890444 38.587435799950015 l -7.1171531387445 0 L 259.06437425029986 41.795457050772455 M 285.7536985205918 59.189329738491836 l 7.1171531387445 0 L 292.8708516593363 55.709430364330444 l -7.1171531387445 0 L 285.7536985205918 59.189329738491836 M 294.65013994402244 55.70936645315902 l 7.1171531387445 0 L 301.76729308276697 48.852720335553045 l -7.1171531387445 0 L 294.65013994402244 55.70936645315902 M 312.4430227908837 56.55670076421396 l 7.1171531387445 0 L 319.5601759296282 52.6611231309561 l -7.1171531387445 0 L 312.4430227908837 56.55670076421396 M 339.13234706117555 58.24561738089358 l 7.1171531387445 0 L 346.2495001999201 51.06826500496254 l -7.1171531387445 0 L 339.13234706117555 58.24561738089358 M 348.02878848460614 51.06826500496254 l 7.1171531387445 0 L 355.14594162335067 46.64529238491741 l -7.1171531387445 0 L 348.02878848460614 51.06826500496254 M 392.5109956017593 59.757116585634066 l 7.1171531387445 0 L 399.62814874050383 59.70266426756058 l -7.1171531387445 0 L 392.5109956017593 59.757116585634066 M 401.40743702518995 59.702728178732 l 7.1171531387445 0 L 408.5245901639345 53.46525349011233 l -7.1171531387445 0 L 401.40743702518995 59.702728178732 M 419.20031987205124 68.2507195375326 l 7.1171531387445 0 L 426.31747301079577 61.07298369457288 l -7.1171531387445 0 L 419.20031987205124 68.2507195375326 M 428.0967612954818 61.07298369457288 l 7.1171531387445 0 L 435.21391443422635 57.83684152831344 l -7.1171531387445 0 L 428.0967612954818 61.07298369457288 M 454.7860855657737 71.33021542257345 l 7.1171531387445 0 L 461.90323870451823 65.97733525796286 l -7.1171531387445 0 L 454.7860855657737 71.33021542257345 M 463.68252698920435 65.97733525796286 l 7.1171531387445 0 L 470.7996801279489 65.61425589296786 l -7.1171531387445 0 L 463.68252698920435 65.97733525796286 M 481.47540983606564 70.70292727481333 l 7.1171531387445 0 L 488.59256297481016 58.16962699804213 l -7.1171531387445 0 L 481.47540983606564 70.70292727481333 M 534.8540583766493 119.62513950530503 l 7.1171531387445 0 L 541.9712115153937 113.59914688300614 l -7.1171531387445 0 L 534.8540583766493 119.62513950530503 M 561.5433826469413 126.30059745185646 l 7.1171531387445 0 L 568.6605357856857 124.65609909933309 l -7.1171531387445 0 L 561.5433826469413 126.30059745185646 M 570.4398240703717 124.65609909933309 l 7.1171531387445 0 L 577.5569772091162 119.5451866298238 l -7.1171531387445 0 L 570.4398240703717 124.65609909933309 M 579.3362654938024 119.5451866298238 l 7.1171531387445 0 L 586.4534186325469 111.60646046843512 l -7.1171531387445 0 L 579.3362654938024 119.5451866298238 M 597.1291483406637 120.90476898003291 l 7.1171531387445 0 L 604.2463014794082 117.255952379735 l -7.1171531387445 0 L 597.1291483406637 120.90476898003291 M 614.9220311875249 128.31002859334677 l 7.1171531387445 0 L 622.0391843262694 118.05931580483387 l -7.1171531387445 0 L 614.9220311875249 128.31002859334677 M 632.7149140343862 125.20599081846997 l 7.1171531387445 0 L 639.8320671731307 123.64623867928636 l -7.1171531387445 0 L 632.7149140343862 125.20599081846997 M 641.6113554578168 123.64617476811492 l 7.1171531387445 0 L 648.7285085965613 118.22094715742537 l -7.1171531387445 0 L 641.6113554578168 123.64617476811492 M 659.4042383046781 125.79314275056093 l 7.1171531387445 0 L 666.5213914434225 122.307171815112 l -7.1171531387445 0 L 659.4042383046781 125.79314275056093 M 694.9900039984005 128.8565969315684 l 7.1171531387445 0 L 702.107157137145 126.29043557559625 l -7.1171531387445 0 L 694.9900039984005 128.8565969315684 M 703.8864454218311 126.29043557559625 l 7.1171531387445 0 L 711.0035985605756 123.49898734027065 l -7.1171531387445 0 L 703.8864454218311 126.29043557559625 M 712.7828868452618 123.49898734027065 l 7.1171531387445 0 L 719.9000399840063 109.01594895614136 l -7.1171531387445 0 L 712.7828868452618 123.49898734027065 M 721.6793282686924 109.01588504496993 l 7.1171531387445 0 L 728.7964814074369 108.58889450852716 l -7.1171531387445 0 L 721.6793282686924 109.01588504496993 M 739.4722111155537 121.34045143579257 l 7.1171531387445 0 L 746.5893642542982 117.20680468889165 l -7.1171531387445 0 L 739.4722111155537 121.34045143579257 M 757.265093962415 122.0155451397957 l 7.1171531387445 0 L 764.3822471011595 120.96848841796636 l -7.1171531387445 0 L 757.265093962415 122.0155451397957 M 766.1615353858456 120.96855232913782 l 7.1171531387445 0 L 773.27868852459 120.61589048508885 l -7.1171531387445 0 L 766.1615353858456 120.96855232913782 M 775.0579768092763 120.61595439626028 l 7.1171531387445 0 L 782.1751299480208 111.3239091794644 l -7.1171531387445 0 L 775.0579768092763 120.61595439626028 M 855.1259496201519 170.35661308831257 l 7.1171531387445 0 L 862.2431027588964 167.49786638945238 l -7.1171531387445 0 L 855.1259496201519 170.35661308831257 M 872.9188324670131 181.4504420505649 l 7.1171531387445 0 L 880.0359856057576 181.0145039501194 l -7.1171531387445 0 L 872.9188324670131 181.4504420505649"></path><path class="candle body down" d="M 1.0675729708116766 59.88238248167178 l 7.1171531387445 0 L 8.184726109556177 64.30784763740337 l -7.1171531387445 0 L 1.0675729708116766 59.88238248167178 M 18.860455817672932 63.81074654588238 l 7.1171531387445 0 L 25.977608956417434 70.39366111617741 l -7.1171531387445 0 L 18.860455817672932 63.81074654588238 M 36.65333866453418 58.28869351044938 l 7.1171531387445 0 L 43.77049180327868 60.78787595874422 l -7.1171531387445 0 L 36.65333866453418 58.28869351044938 M 54.446221511395436 49.06861227270372 l 7.1171531387445 0 L 61.563374650139934 50.32197425596655 l -7.1171531387445 0 L 54.446221511395436 49.06861227270372 M 81.13554578168731 42.120701002270295 l 7.1171531387445 0 L 88.25269892043181 48.12208782356177 l -7.1171531387445 0 L 81.13554578168731 42.120701002270295 M 90.03198720511796 48.12208782356177 l 7.1171531387445 0 L 97.14914034386246 49.78288352480436 l -7.1171531387445 0 L 90.03198720511796 48.12208782356177 M 170.09996001599356 8.671766846320082 l 7.1171531387445 0 L 177.21711315473806 11.016028615025476 l -7.1171531387445 0 L 170.09996001599356 8.671766846320082 M 178.9964014394242 11.016028615025476 l 7.1171531387445 0 L 186.1135545781687 20.971152235592314 l -7.1171531387445 0 L 178.9964014394242 11.016028615025476 M 196.78928428628546 16.0298600151055 l 7.1171531387445 0 L 203.90643742502996 19.04959895484268 l -7.1171531387445 0 L 196.78928428628546 16.0298600151055 M 223.47860855657734 14.131634311934334 l 7.1171531387445 0 L 230.59576169532184 21.05289462387401 l -7.1171531387445 0 L 223.47860855657734 14.131634311934334 M 232.37504998000796 21.052958535045462 l 7.1171531387445 0 L 239.49220311875246 35.925535509149086 l -7.1171531387445 0 L 232.37504998000796 21.052958535045462 M 250.16793282686922 34.17609501310841 l 7.1171531387445 0 L 257.28508596561375 41.79552096194385 l -7.1171531387445 0 L 250.16793282686922 34.17609501310841 M 267.9608156737305 38.58749971112147 l 7.1171531387445 0 L 275.07796881247504 42.39091743515161 l -7.1171531387445 0 L 267.9608156737305 38.58749971112147 M 276.85725709716115 42.39091743515161 l 7.1171531387445 0 L 283.9744102359057 59.189329738491836 l -7.1171531387445 0 L 276.85725709716115 42.39091743515161 M 303.54658136745303 48.8527842467245 l 7.1171531387445 0 L 310.66373450619756 56.556636853042534 l -7.1171531387445 0 L 303.54658136745303 48.8527842467245 M 321.3394642143143 52.6611231309561 l 7.1171531387445 0 L 328.45661735305885 53.768000709260605 l -7.1171531387445 0 L 321.3394642143143 52.6611231309561 M 330.23590563774496 53.76806462043206 l 7.1171531387445 0 L 337.3530587764895 58.2455534697221 l -7.1171531387445 0 L 330.23590563774496 53.76806462043206 M 356.9252299080368 46.64522847374596 l 7.1171531387445 0 L 364.0423830467813 47.50802928829128 l -7.1171531387445 0 L 356.9252299080368 46.64522847374596 M 365.8216713314674 47.50802928829128 l 7.1171531387445 0 L 372.93882447021196 53.12058054249434 l -7.1171531387445 0 L 365.8216713314674 47.50802928829128 M 374.7181127548981 53.12058054249434 l 7.1171531387445 0 L 381.8352658936426 58.04704537120526 l -7.1171531387445 0 L 374.7181127548981 53.12058054249434 M 383.61455417832866 58.046981460033805 l 7.1171531387445 0 L 390.7317073170732 59.757180496805546 l -7.1171531387445 0 L 383.61455417832866 58.046981460033805 M 410.3038784486206 53.46525349011233 l 7.1171531387445 0 L 417.4210315873651 68.25065562636115 l -7.1171531387445 0 L 410.3038784486206 53.46525349011233 M 436.99320271891247 57.836905439484894 l 7.1171531387445 0 L 444.110355857657 65.16080613154571 l -7.1171531387445 0 L 436.99320271891247 57.836905439484894 M 445.8896441423431 65.16080613154571 l 7.1171531387445 0 L 453.00679728108764 71.33021542257345 l -7.1171531387445 0 L 445.8896441423431 65.16080613154571 M 472.57896841263494 65.61425589296786 l 7.1171531387445 0 L 479.69612155137946 70.70292727481333 l -7.1171531387445 0 L 472.57896841263494 65.61425589296786 M 490.3718512594962 58.16962699804213 l 7.1171531387445 0 L 497.48900439824075 78.21875321473189 l -7.1171531387445 0 L 490.3718512594962 58.16962699804213 M 499.2682926829268 78.21875321473189 l 7.1171531387445 0 L 506.38544582167134 81.6648435791974 l -7.1171531387445 0 L 499.2682926829268 78.21875321473189 M 508.16473410635746 81.6648435791974 l 7.1171531387445 0 L 515.281887245102 85.12486657903847 l -7.1171531387445 0 L 508.16473410635746 81.6648435791974 M 517.0611755297881 85.12480266786699 l 7.1171531387445 0 L 524.1783286685326 94.2896646534818 l -7.1171531387445 0 L 517.0611755297881 85.12480266786699 M 525.9576169532187 94.28972856465323 l 7.1171531387445 0 L 533.0747700919632 119.61184598164387 l -7.1171531387445 0 L 525.9576169532187 94.28972856465323 M 543.75049980008 113.59908297183469 l 7.1171531387445 0 L 550.8676529388244 125.82637655971378 l -7.1171531387445 0 L 543.75049980008 113.59908297183469 M 552.6469412235106 125.82637655971378 l 7.1171531387445 0 L 559.764094362255 126.30053354068501 l -7.1171531387445 0 L 552.6469412235106 125.82637655971378 M 588.232706917233 111.60646046843512 l 7.1171531387445 0 L 595.3498600559775 120.90476898003291 l -7.1171531387445 0 L 588.232706917233 111.60646046843512 M 606.0255897640943 117.255952379735 l 7.1171531387445 0 L 613.1427429028388 128.31009250451825 l -7.1171531387445 0 L 606.0255897640943 117.255952379735 M 623.8184726109555 118.05937971600532 l 7.1171531387445 0 L 630.9356257497 125.20599081846997 l -7.1171531387445 0 L 623.8184726109555 118.05937971600532 M 650.5077968812475 118.22101106859681 l 7.1171531387445 0 L 657.624950019992 125.79307883938947 l -7.1171531387445 0 L 650.5077968812475 118.22101106859681 M 668.3006797281087 122.307171815112 l 7.1171531387445 0 L 675.4178328668531 123.02572511569964 l -7.1171531387445 0 L 668.3006797281087 122.307171815112 M 677.1971211515394 123.0257890268711 l 7.1171531387445 0 L 684.3142742902838 125.20381783864075 l -7.1171531387445 0 L 677.1971211515394 123.0257890268711 M 686.09356257497 125.20381783864075 l 7.1171531387445 0 L 693.2107157137144 128.85666084273987 l -7.1171531387445 0 L 686.09356257497 125.20381783864075 M 730.5757696921231 108.58883059735572 l 7.1171531387445 0 L 737.6929228308676 121.34051534696401 l -7.1171531387445 0 L 730.5757696921231 108.58883059735572 M 748.3686525389844 117.2067407777202 l 7.1171531387445 0 L 755.4858056777289 122.0155451397957 l -7.1171531387445 0 L 748.3686525389844 117.2067407777202 M 783.9544182327068 111.3239091794644 l 7.1171531387445 0 L 791.0715713714512 112.90743627442656 l -7.1171531387445 0 L 783.9544182327068 111.3239091794644 M 792.8508596561375 112.90750018559802 l 7.1171531387445 0 L 799.9680127948819 118.79084307322542 l -7.1171531387445 0 L 792.8508596561375 112.90750018559802 M 801.747301079568 118.79084307322542 l 7.1171531387445 0 L 808.8644542183125 119.39697662323636 l -7.1171531387445 0 L 801.747301079568 118.79084307322542 M 810.6437425029987 119.39697662323636 l 7.1171531387445 0 L 817.7608956417432 125.90345343247982 l -7.1171531387445 0 L 810.6437425029987 119.39697662323636 M 819.5401839264293 125.90351734365129 l 7.1171531387445 0 L 826.6573370651738 130.16747896913427 l -7.1171531387445 0 L 819.5401839264293 125.90351734365129 M 828.43662534986 130.16741505796284 l 7.1171531387445 0 L 835.5537784886045 141.9921321768922 l -7.1171531387445 0 L 828.43662534986 130.16741505796284 M 837.3330667732906 141.9921321768922 l 7.1171531387445 0 L 844.4502199120351 168.11339488166615 l -7.1171531387445 0 L 837.3330667732906 141.9921321768922 M 846.2295081967213 168.127071872356 l 7.1171531387445 0 L 853.3466613354658 170.356676999484 l -7.1171531387445 0 L 846.2295081967213 168.127071872356 M 864.0223910435824 167.49786638945238 l 7.1171531387445 0 L 871.1395441823269 181.44590435739207 l -7.1171531387445 0 L 864.0223910435824 167.49786638945238 M 881.8152738904437 181.0145039501194 l 7.1171531387445 0 L 888.9324270291881 195.14986556157262 l -7.1171531387445 0 L 881.8152738904437 181.0145039501194"></path><path class="candle body equal"></path><path class="candle wick up" d="M 13.522590963614554 59.468877202404514 L 13.522590963614554 63.8106826347109 M 13.522590963614554 64.30784763740337 L 13.522590963614554 64.74915427625047 M 31.315473810475808 56.52634295777622 L 31.315473810475808 58.28869351044938 M 31.315473810475808 70.39359720500596 L 31.315473810475808 71.81466210214782 M 49.10835665733706 45.20844142842796 L 49.10835665733706 49.06867618387517 M 49.10835665733706 60.78787595874422 L 49.10835665733706 63.675702240613134 M 66.90123950419832 41.3289054992035 L 66.90123950419832 44.955928390037656 M 66.90123950419832 50.322038167138004 L 66.90123950419832 55.32532422392919 M 75.79768092762893 40.849699535687876 L 75.79768092762893 42.120701002270295 M 75.79768092762893 44.955928390037656 L 75.79768092762893 46.6062426591628 M 102.48700519792082 34.7078359595541 L 102.48700519792082 41.07894890767113 M 102.48700519792082 49.78281961363288 L 102.48700519792082 50.59289371173378 M 111.38344662135144 36.849115847741274 L 111.38344662135144 37.76432382287379 M 111.38344662135144 41.07894890767113 L 111.38344662135144 44.99453073759213 M 120.27988804478207 29.212178237929095 L 120.27988804478207 30.67849224445601 M 120.27988804478207 37.76432382287379 L 120.27988804478207 39.82418087863644 M 129.1763294682127 23.631135191249797 L 129.1763294682127 28.622469858980196 M 129.1763294682127 30.67849224445601 L 129.1763294682127 33.31457242199204 M 138.07277089164333 25.55582011940035 L 138.07277089164333 27.356325641427844 M 138.07277089164333 28.622469858980196 L 138.07277089164333 30.163943403129736 M 146.96921231507397 11.456951786843831 L 146.96921231507397 12.551366686715966 M 146.96921231507397 27.356325641427844 L 146.96921231507397 27.93031187220052 M 155.8656537385046 3.8461538461538396 L 155.8656537385046 10.66950224343546 M 155.8656537385046 12.551366686715966 L 155.8656537385046 13.600788121888883 M 164.7620951619352 4.4428924539619175 L 164.7620951619352 8.671702935148602 M 164.7620951619352 10.66950224343546 L 164.7620951619352 11.76468407736499 M 191.4514194322271 13.23949826969448 L 191.4514194322271 16.0298600151055 M 191.4514194322271 20.97108832442086 L 191.4514194322271 29.345688675083522 M 209.24430227908834 8.61220163453072 L 209.24430227908834 15.238256245553032 M 209.24430227908834 19.04966286601413 L 209.24430227908834 20.839623044752727 M 218.14074370251896 12.149045862452056 L 218.14074370251896 14.131570400762882 M 218.14074370251896 15.23819233438158 L 218.14074370251896 23.47864313617535 M 244.83006797281087 31.25669661254426 L 244.83006797281087 34.17615892427983 M 244.83006797281087 35.925535509149086 L 244.83006797281087 38.757567338344074 M 262.6229508196721 38.2932526777758 L 262.6229508196721 38.587435799950015 M 262.6229508196721 41.795457050772455 L 262.6229508196721 42.60418901427289 M 289.31227508996403 51.720989798958925 L 289.31227508996403 55.709430364330444 M 289.31227508996403 59.189329738491836 L 289.31227508996403 60.9521276693651 M 298.2087165133947 46.20986557384356 L 298.2087165133947 48.852720335553045 M 298.2087165133947 55.70936645315902 L 298.2087165133947 58.81806974355152 M 316.0015993602559 50.625807965029395 L 316.0015993602559 52.6611231309561 M 316.0015993602559 56.55670076421396 L 316.0015993602559 57.68134564818092 M 342.6909236305478 49.05122843406991 L 342.6909236305478 51.06826500496254 M 342.6909236305478 58.24561738089358 L 342.6909236305478 65.5417167133746 M 351.5873650539784 44.94001450834716 L 351.5873650539784 46.64529238491741 M 351.5873650539784 51.06826500496254 L 351.5873650539784 52.53905279349081 M 396.06957217113154 56.571847711847084 L 396.06957217113154 59.70266426756058 M 396.06957217113154 59.757116585634066 L 396.06957217113154 63.02930465259007 M 404.9660135945622 52.25145252197569 L 404.9660135945622 53.46525349011233 M 404.9660135945622 59.702728178732 L 404.9660135945622 67.69239154376461 M 422.7588964414235 59.54550669697042 L 422.7588964414235 61.07298369457288 M 422.7588964414235 68.2507195375326 L 422.7588964414235 69.7291766666346 M 431.65533786485406 53.80685870150086 L 431.65533786485406 57.83684152831344 M 431.65533786485406 61.07298369457288 L 431.65533786485406 63.33729258779704 M 458.34466213514594 64.656610899994 L 458.34466213514594 65.97733525796286 M 458.34466213514594 71.33021542257345 L 458.34466213514594 72.89233227510066 M 467.2411035585766 61.51000828493295 L 467.2411035585766 65.61425589296786 M 467.2411035585766 65.97733525796286 L 467.2411035585766 68.63827688119207 M 485.0339864054379 56.03646382862888 L 485.0339864054379 58.16962699804213 M 485.0339864054379 70.70292727481333 L 485.0339864054379 71.0796836304981 M 538.4126349460215 103.105635554163 L 538.4126349460215 113.59914688300614 M 538.4126349460215 119.62513950530503 L 538.4126349460215 121.82259731319478 M 565.1019592163135 113.17560754982155 L 565.1019592163135 124.65609909933309 M 565.1019592163135 126.30059745185646 L 565.1019592163135 128.0777753963055 M 573.998400639744 117.90567334867336 L 573.998400639744 119.5451866298238 M 573.998400639744 124.65609909933309 L 573.998400639744 128.8553826193109 M 582.8948420631747 110.768521099583 L 582.8948420631747 111.60646046843512 M 582.8948420631747 119.5451866298238 L 582.8948420631747 123.42293304624773 M 600.687724910036 115.06098710753172 L 600.687724910036 117.255952379735 M 600.687724910036 120.90476898003291 L 600.687724910036 123.61223793607611 M 618.4806077568971 116.61524288597079 L 618.4806077568971 118.05931580483387 M 618.4806077568971 128.31002859334677 L 618.4806077568971 128.4630958489643 M 636.2734906037584 122.29694602768036 L 636.2734906037584 123.64623867928636 M 636.2734906037584 125.20599081846997 L 636.2734906037584 126.82760897161505 M 645.169932027189 116.98075087548077 L 645.169932027189 118.22094715742537 M 645.169932027189 123.64617476811492 L 645.169932027189 124.86023138093735 M 662.9628148740503 121.08467892765846 L 662.9628148740503 122.307171815112 M 662.9628148740503 125.79314275056093 L 662.9628148740503 128.60612905066446 M 698.5485805677728 124.79063211523071 L 698.5485805677728 126.29043557559625 M 698.5485805677728 128.8565969315684 L 698.5485805677728 130.00578370537133 M 707.4450219912034 122.73409844038335 L 707.4450219912034 123.49898734027065 M 707.4450219912034 126.29043557559625 L 707.4450219912034 127.51829700145144 M 716.3414634146341 105.8984898352605 L 716.3414634146341 109.01594895614136 M 716.3414634146341 123.49898734027065 L 716.3414634146341 124.5757627568232 M 725.2379048380647 104.76726210063441 L 725.2379048380647 108.58889450852716 M 725.2379048380647 109.01588504496993 L 725.2379048380647 112.43014764605441 M 743.0307876849259 115.6960724182085 L 743.0307876849259 117.20680468889165 M 743.0307876849259 121.34045143579257 L 743.0307876849259 122.69083057731318 M 760.8236705317872 120.17062135361199 L 760.8236705317872 120.96848841796636 M 760.8236705317872 122.0155451397957 L 760.8236705317872 123.39097746052384 M 769.7201119552178 118.8916309905986 L 769.7201119552178 120.61589048508885 M 769.7201119552178 120.96855232913782 L 769.7201119552178 123.09430180266315 M 778.6165533786485 108.81514005545239 L 778.6165533786485 111.3239091794644 M 778.6165533786485 120.61595439626028 L 778.6165533786485 120.80110505994458 M 858.6845261895241 166.11559557337932 L 858.6845261895241 167.49786638945238 M 858.6845261895241 170.35661308831257 L 858.6845261895241 183.29734708306347 M 876.4774090363853 175.2841004957666 L 876.4774090363853 181.0145039501194 M 876.4774090363853 181.4504420505649 L 876.4774090363853 182.43429062383234" style="stroke-width: 1px;"></path><path class="candle wick down" d="M 4.626149540183927 54.67841534653451 L 4.626149540183927 59.88238248167178 M 4.626149540183927 64.30784763740337 L 4.626149540183927 67.5415611791478 M 22.41903238704518 60.598251513058585 L 22.41903238704518 63.81074654588238 M 22.41903238704518 70.39366111617741 L 22.41903238704518 71.66440693807402 M 40.21191523390643 56.906678339062125 L 40.21191523390643 58.28869351044938 M 40.21191523390643 60.78787595874422 L 40.21191523390643 68.34217642387438 M 58.004798080767685 46.737068827116445 L 58.004798080767685 49.06861227270372 M 58.004798080767685 50.32197425596655 L 58.004798080767685 52.99282211077019 M 84.69412235105956 41.51271402828735 L 84.69412235105956 42.120701002270295 M 84.69412235105956 48.12208782356177 L 84.69412235105956 50.36607296426553 M 93.5905637744902 46.31908976584785 L 93.5905637744902 48.12208782356177 M 93.5905637744902 49.78288352480436 L 93.5905637744902 53.19772132643183 M 173.65853658536582 6.975372622581062 L 173.65853658536582 8.671766846320082 M 173.65853658536582 11.016028615025476 L 173.65853658536582 14.994946415851246 M 182.55497800879647 7.6158903828309406 L 182.55497800879647 11.016028615025476 M 182.55497800879647 20.971152235592314 L 182.55497800879647 22.954571530303355 M 200.34786085565773 10.089252717860887 L 200.34786085565773 16.0298600151055 M 200.34786085565773 19.04959895484268 L 200.34786085565773 20.270302329495706 M 227.0371851259496 10.17233724074299 L 227.0371851259496 14.131634311934334 M 227.0371851259496 21.05289462387401 L 227.0371851259496 21.971553802264737 M 235.93362654938022 20.991603810455587 L 235.93362654938022 21.052958535045462 M 235.93362654938022 35.925535509149086 L 235.93362654938022 36.24170407430137 M 253.72650939624148 30.811683125753206 L 253.72650939624148 34.17609501310841 M 253.72650939624148 41.79552096194385 L 253.72650939624148 42.7214021027082 M 271.51939224310274 34.39275388431642 L 271.51939224310274 38.58749971112147 M 271.51939224310274 42.39091743515161 L 271.51939224310274 44.24977385671093 M 280.4158336665334 40.755686202488164 L 280.4158336665334 42.39091743515161 M 280.4158336665334 59.189329738491836 L 280.4158336665334 61.30127439898442 M 307.10515793682526 46.601704965989995 L 307.10515793682526 48.8527842467245 M 307.10515793682526 56.556636853042534 L 307.10515793682526 59.05198463105049 M 324.89804078368655 51.65484173651046 L 324.89804078368655 52.6611231309561 M 324.89804078368655 53.768000709260605 L 324.89804078368655 56.24238562303364 M 333.7944822071172 52.381383933529094 L 333.7944822071172 53.76806462043206 M 333.7944822071172 58.2455534697221 L 333.7944822071172 59.0888613769759 M 360.483806477409 42.13431408178866 L 360.483806477409 46.64522847374596 M 360.483806477409 47.50802928829128 L 360.483806477409 50.947664624440534 M 369.38024790083966 37.168416060294476 L 369.38024790083966 47.50802928829128 M 369.38024790083966 53.12058054249434 L 369.38024790083966 57.77976885221054 M 378.2766893242703 51.10705908603137 L 378.2766893242703 53.12058054249434 M 378.2766893242703 58.04704537120526 L 378.2766893242703 61.44827009331436 M 387.1731307477009 56.31620302605589 L 387.1731307477009 58.046981460033805 M 387.1731307477009 59.757180496805546 L 387.1731307477009 60.758029441678104 M 413.86245501799283 51.09267907245564 L 413.86245501799283 53.46525349011233 M 413.86245501799283 68.25065562636115 L 413.86245501799283 70.87350619140747 M 440.5517792882847 56.666116689732604 L 440.5517792882847 57.836905439484894 M 440.5517792882847 65.16080613154571 L 440.5517792882847 67.8521694723841 M 449.44822071171535 63.88724821810541 L 449.44822071171535 65.16080613154571 M 449.44822071171535 71.33021542257345 L 449.44822071171535 71.66638818438892 M 476.13754498200717 64.8067382417249 L 476.13754498200717 65.61425589296786 M 476.13754498200717 70.70292727481333 L 476.13754498200717 72.05241165993361 M 493.93042782886846 57.17574437085736 L 493.93042782886846 58.16962699804213 M 493.93042782886846 78.21875321473189 L 493.93042782886846 84.48888651196138 M 502.82686925229905 77.43481878575318 L 502.82686925229905 78.21875321473189 M 502.82686925229905 81.6648435791974 L 502.82686925229905 86.49505818370788 M 511.7233106757297 80.81782882399963 L 511.7233106757297 81.6648435791974 M 511.7233106757297 85.12486657903847 L 511.7233106757297 89.5180565931889 M 520.6197520991603 84.8575261488723 L 520.6197520991603 85.12480266786699 M 520.6197520991603 94.2896646534818 L 520.6197520991603 96.36326261110572 M 529.5161935225909 92.98108341808803 L 529.5161935225909 94.28972856465323 M 529.5161935225909 119.61184598164387 L 529.5161935225909 119.88653619652652 M 547.3090763694522 106.27818610483189 L 547.3090763694522 113.59908297183469 M 547.3090763694522 125.82637655971378 L 547.3090763694522 134.25587660665013 M 556.2055177928828 118.54651066478047 L 556.2055177928828 125.82637655971378 M 556.2055177928828 126.30053354068501 L 556.2055177928828 141.19023870873664 M 591.7912834866053 111.60639655726366 L 591.7912834866053 111.60646046843512 M 591.7912834866053 120.90476898003291 L 591.7912834866053 125.93438643946055 M 609.5841663334666 115.56192286933957 L 609.5841663334666 117.255952379735 M 609.5841663334666 128.31009250451825 L 609.5841663334666 128.69899198277813 M 627.3770491803277 115.13154504081007 L 627.3770491803277 118.05937971600532 M 627.3770491803277 125.20599081846997 L 627.3770491803277 128.21627090483287 M 654.0663734506197 115.8142441742155 L 654.0663734506197 118.22101106859681 M 654.0663734506197 125.79307883938947 L 654.0663734506197 127.34484208214211 M 671.8592562974809 118.66960358098892 L 671.8592562974809 122.307171815112 M 671.8592562974809 123.02572511569964 L 671.8592562974809 124.61033870057646 M 680.7556977209116 120.82404917049433 L 680.7556977209116 123.0257890268711 M 680.7556977209116 125.20381783864075 L 680.7556977209116 132.7567761691705 M 689.6521391443422 123.94917763194894 L 689.6521391443422 125.20381783864075 M 689.6521391443422 128.85666084273987 L 689.6521391443422 131.0737393802641 M 734.1343462614954 107.4261585663773 L 734.1343462614954 108.58883059735572 M 734.1343462614954 121.34051534696401 L 734.1343462614954 124.56694301516339 M 751.9272291083566 115.63216124676072 L 751.9272291083566 117.2067407777202 M 751.9272291083566 122.0155451397957 L 751.9272291083566 124.6860734387421 M 787.512994802079 109.94023231761949 L 787.512994802079 111.3239091794644 M 787.512994802079 112.90743627442656 L 787.512994802079 125.09127026572116 M 796.4094362255097 111.6171336340669 L 796.4094362255097 112.90750018559802 M 796.4094362255097 118.79084307322542 L 796.4094362255097 121.09733333960513 M 805.3058776489403 115.62577012961593 L 805.3058776489403 118.79084307322542 M 805.3058776489403 119.39697662323636 L 805.3058776489403 120.45681557935526 M 814.202319072371 117.6530324879402 L 814.202319072371 119.39697662323636 M 814.202319072371 125.90345343247982 L 814.202319072371 127.44933684745925 M 823.0987604958016 123.6759573740096 L 823.0987604958016 125.90351734365129 M 823.0987604958016 130.16747896913427 L 823.0987604958016 132.24273861721582 M 831.9952019192323 129.398883221303 L 831.9952019192323 130.16741505796284 M 831.9952019192323 141.9921321768922 L 831.9952019192323 142.08499510900586 M 840.8916433426629 139.93860232710287 L 840.8916433426629 141.9921321768922 M 840.8916433426629 168.11339488166615 L 840.8916433426629 171.7029019148605 M 849.7880847660936 162.51816355492545 L 849.7880847660936 168.127071872356 M 849.7880847660936 170.356676999484 L 849.7880847660936 178.6038384742798 M 867.5809676129546 164.8646622146315 L 867.5809676129546 167.49786638945238 M 867.5809676129546 181.44590435739207 L 867.5809676129546 182.52798440117482 M 885.3738504598159 178.94857533306921 L 885.3738504598159 181.0145039501194 M 885.3738504598159 195.14986556157262 L 885.3738504598159 196.15384615384616" style="stroke-width: 1px;"></path><path class="candle wick equal" style="stroke-width: 1px;"></path></g></g><g class="x axis" transform="translate(0,200)" fill="none" font-size="10" font-family="sans-serif" text-anchor="middle"><path class="domain" stroke="#000" d="M0.5,6V0.5H890.5V6"></path><g class="tick" opacity="1" transform="translate(31.315473810475808,0)"><line stroke="#000" y2="6" x1="0.5" x2="0.5"></line><text fill="#000" y="9" x="0.5" dy="0.71em">Mar 14</text></g><g class="tick" opacity="1" transform="translate(93.5905637744902,0)"><line stroke="#000" y2="6" x1="0.5" x2="0.5"></line><text fill="#000" y="9" x="0.5" dy="0.71em">Mar 21</text></g><g class="tick" opacity="1" transform="translate(155.8656537385046,0)"><line stroke="#000" y2="6" x1="0.5" x2="0.5"></line><text fill="#000" y="9" x="0.5" dy="0.71em">Mar 28</text></g><g class="tick" opacity="1" transform="translate(218.14074370251896,0)"><line stroke="#000" y2="6" x1="0.5" x2="0.5"></line><text fill="#000" y="9" x="0.5" dy="0.71em">Apr  4</text></g><g class="tick" opacity="1" transform="translate(280.4158336665334,0)"><line stroke="#000" y2="6" x1="0.5" x2="0.5"></line><text fill="#000" y="9" x="0.5" dy="0.71em">Apr 11</text></g><g class="tick" opacity="1" transform="translate(342.6909236305478,0)"><line stroke="#000" y2="6" x1="0.5" x2="0.5"></line><text fill="#000" y="9" x="0.5" dy="0.71em">Apr 18</text></g><g class="tick" opacity="1" transform="translate(404.9660135945622,0)"><line stroke="#000" y2="6" x1="0.5" x2="0.5"></line><text fill="#000" y="9" x="0.5" dy="0.71em">Apr 25</text></g><g class="tick" opacity="1" transform="translate(467.2411035585766,0)"><line stroke="#000" y2="6" x1="0.5" x2="0.5"></line><text fill="#000" y="9" x="0.5" dy="0.71em">May  2</text></g><g class="tick" opacity="1" transform="translate(529.5161935225909,0)"><line stroke="#000" y2="6" x1="0.5" x2="0.5"></line><text fill="#000" y="9" x="0.5" dy="0.71em">May  9</text></g><g class="tick" opacity="1" transform="translate(591.7912834866053,0)"><line stroke="#000" y2="6" x1="0.5" x2="0.5"></line><text fill="#000" y="9" x="0.5" dy="0.71em">May 16</text></g><g class="tick" opacity="1" transform="translate(654.0663734506197,0)"><line stroke="#000" y2="6" x1="0.5" x2="0.5"></line><text fill="#000" y="9" x="0.5" dy="0.71em">May 23</text></g><g class="tick" opacity="1" transform="translate(716.3414634146341,0)"><line stroke="#000" y2="6" x1="0.5" x2="0.5"></line><text fill="#000" y="9" x="0.5" dy="0.71em">May 30</text></g><g class="tick" opacity="1" transform="translate(778.6165533786485,0)"><line stroke="#000" y2="6" x1="0.5" x2="0.5"></line><text fill="#000" y="9" x="0.5" dy="0.71em">Jun  6</text></g><g class="tick" opacity="1" transform="translate(840.8916433426629,0)"><line stroke="#000" y2="6" x1="0.5" x2="0.5"></line><text fill="#000" y="9" x="0.5" dy="0.71em">Jun 13</text></g></g><g class="y axis" fill="none" font-size="10" font-family="sans-serif" text-anchor="end"><path class="domain" stroke="#000" d="M-6,200.5H0.5V0.5H-6"></path><g class="tick" opacity="1" transform="translate(0,196.79295786832418)"><line stroke="#000" x2="-6" y1="0.5" y2="0.5"></line><text fill="#000" x="-9" y="0.5" dy="0.32em">18,000</text></g><g class="tick" opacity="1" transform="translate(0,184.01072357876382)"><line stroke="#000" x2="-6" y1="0.5" y2="0.5"></line><text fill="#000" x="-9" y="0.5" dy="0.32em">20,000</text></g><g class="tick" opacity="1" transform="translate(0,171.22848928920345)"><line stroke="#000" x2="-6" y1="0.5" y2="0.5"></line><text fill="#000" x="-9" y="0.5" dy="0.32em">22,000</text></g><g class="tick" opacity="1" transform="translate(0,158.44625499964312)"><line stroke="#000" x2="-6" y1="0.5" y2="0.5"></line><text fill="#000" x="-9" y="0.5" dy="0.32em">24,000</text></g><g class="tick" opacity="1" transform="translate(0,145.66402071008275)"><line stroke="#000" x2="-6" y1="0.5" y2="0.5"></line><text fill="#000" x="-9" y="0.5" dy="0.32em">26,000</text></g><g class="tick" opacity="1" transform="translate(0,132.88178642052242)"><line stroke="#000" x2="-6" y1="0.5" y2="0.5"></line><text fill="#000" x="-9" y="0.5" dy="0.32em">28,000</text></g><g class="tick" opacity="1" transform="translate(0,120.09955213096205)"><line stroke="#000" x2="-6" y1="0.5" y2="0.5"></line><text fill="#000" x="-9" y="0.5" dy="0.32em">30,000</text></g><g class="tick" opacity="1" transform="translate(0,107.31731784140169)"><line stroke="#000" x2="-6" y1="0.5" y2="0.5"></line><text fill="#000" x="-9" y="0.5" dy="0.32em">32,000</text></g><g class="tick" opacity="1" transform="translate(0,94.53508355184135)"><line stroke="#000" x2="-6" y1="0.5" y2="0.5"></line><text fill="#000" x="-9" y="0.5" dy="0.32em">34,000</text></g><g class="tick" opacity="1" transform="translate(0,81.75284926228099)"><line stroke="#000" x2="-6" y1="0.5" y2="0.5"></line><text fill="#000" x="-9" y="0.5" dy="0.32em">36,000</text></g><g class="tick" opacity="1" transform="translate(0,68.97061497272063)"><line stroke="#000" x2="-6" y1="0.5" y2="0.5"></line><text fill="#000" x="-9" y="0.5" dy="0.32em">38,000</text></g><g class="tick" opacity="1" transform="translate(0,56.18838068316029)"><line stroke="#000" x2="-6" y1="0.5" y2="0.5"></line><text fill="#000" x="-9" y="0.5" dy="0.32em">40,000</text></g><g class="tick" opacity="1" transform="translate(0,43.406146393599926)"><line stroke="#000" x2="-6" y1="0.5" y2="0.5"></line><text fill="#000" x="-9" y="0.5" dy="0.32em">42,000</text></g><g class="tick" opacity="1" transform="translate(0,30.62391210403959)"><line stroke="#000" x2="-6" y1="0.5" y2="0.5"></line><text fill="#000" x="-9" y="0.5" dy="0.32em">44,000</text></g><g class="tick" opacity="1" transform="translate(0,17.841677814479226)"><line stroke="#000" x2="-6" y1="0.5" y2="0.5"></line><text fill="#000" x="-9" y="0.5" dy="0.32em">46,000</text></g><g class="tick" opacity="1" transform="translate(0,5.059443524918862)"><line stroke="#000" x2="-6" y1="0.5" y2="0.5"></line><text fill="#000" x="-9" y="0.5" dy="0.32em">48,000</text></g><text transform="rotate(-90)" y="6" dy=".71em" style="text-anchor: end;">Price ($)</text></g></g></svg>