<?xml version="1.0" encoding="utf-8"?>
<!DOCTYPE svg PUBLIC "-//W3C//DTD SVG 1.1//EN" "http://www.w3.org/Graphics/SVG/1.1/DTD/svg11.dtd">
<svg version="1.1" xmlns="http://www.w3.org/2000/svg" width="960" height="250"><g transform="translate(50,20)"><style>.axis path,.axis line{fill:none;stroke:#000;shape-rendering:crispEdges;}path.candle{stroke:#000000;}path.candle.body{stroke-width:0;}path.candle.up{fill:#00AA00;stroke:#00AA00;}path.candle.down{fill:#FF0000;stroke:#FF0000;}</style><g class="candlestick"><g class="data"><path class="candle body up" d="M 1.0675729708116766 111.76963852004182 l 7.1171531387445 0 L 8.184726109556177 103.63953055471835 l -7.1171531387445 0 L 1.0675729708116766 111.76963852004182 M 36.65333866453418 144.74045774460615 l 7.1171531387445 0 L 43.77049180327868 135.55613664970662 l -7.1171531387445 0 L 36.65333866453418 144.74045774460615 M 45.54978008796481 135.55622529118722 l 7.1171531387445 0 L 52.66693322670931 121.26234332618294 l -7.1171531387445 0 L 45.54978008796481 135.55622529118722 M 63.342662934826066 126.21704752956194 l 7.1171531387445 0 L 70.45981607357056 118.47128902441186 l -7.1171531387445 0 L 63.342662934826066 126.21704752956194 M 72.23910435825668 118.47128902441186 l 7.1171531387445 0 L 79.35625749700118 103.59627351215273 l -7.1171531387445 0 L 72.23910435825668 118.47128902441186 M 98.92842862854857 136.66592798766112 l 7.1171531387445 0 L 106.04558176729307 134.18183913344092 l -7.1171531387445 0 L 98.92842862854857 136.66592798766112 M 125.61775289884046 155.59327743010616 l 7.1171531387445 0 L 132.73490603758498 120.07242008970515 l -7.1171531387445 0 L 125.61775289884046 155.59327743010616 M 143.4106357457017 126.36791532965765 l 7.1171531387445 0 L 150.5277888844462 120.56943287180665 l -7.1171531387445 0 L 143.4106357457017 126.36791532965765 M 161.20351859256294 136.39956033825587 l 7.1171531387445 0 L 168.32067173130744 105.60152108780825 l -7.1171531387445 0 L 161.20351859256294 136.39956033825587 M 170.09996001599356 105.60160972928894 l 7.1171531387445 0 L 177.21711315473806 92.34323754143989 l -7.1171531387445 0 L 170.09996001599356 105.60160972928894 M 223.47860855657734 136.95268317761978 l 7.1171531387445 0 L 230.59576169532184 135.9205417767298 l -7.1171531387445 0 L 223.47860855657734 136.95268317761978 M 241.2714914034386 171.25339053663552 l 7.1171531387445 0 L 248.3886445421831 163.3160777917634 l -7.1171531387445 0 L 241.2714914034386 171.25339053663552 M 250.16793282686922 163.3160777917634 l 7.1171531387445 0 L 257.28508596561375 152.95823213430958 l -7.1171531387445 0 L 250.16793282686922 163.3160777917634 M 259.06437425029986 152.98482457850974 l 7.1171531387445 0 L 266.1815273890444 144.2268690056199 l -7.1171531387445 0 L 259.06437425029986 152.98482457850974 M 276.85725709716115 171.59049408761322 l 7.1171531387445 0 L 283.9744102359057 165.31857748151822 l -7.1171531387445 0 L 276.85725709716115 171.59049408761322 M 285.7536985205918 165.31857748151822 l 7.1171531387445 0 L 292.8708516593363 143.89667949013423 l -7.1171531387445 0 L 285.7536985205918 165.31857748151822 M 303.54658136745303 145.71781871044374 l 7.1171531387445 0 L 310.66373450619756 133.15873916357896 l -7.1171531387445 0 L 303.54658136745303 145.71781871044374 M 330.23590563774496 154.51601751555654 l 7.1171531387445 0 L 337.3530587764895 151.99664935203074 l -7.1171531387445 0 L 330.23590563774496 154.51601751555654 M 339.13234706117555 151.99673799351143 l 7.1171531387445 0 L 346.2495001999201 144.17332955129683 l -7.1171531387445 0 L 339.13234706117555 151.99673799351143 M 348.02878848460614 144.17341819277746 l 7.1171531387445 0 L 355.14594162335067 138.70078181785948 l -7.1171531387445 0 L 348.02878848460614 144.17341819277746 M 365.8216713314674 152.85115322566347 l 7.1171531387445 0 L 372.93882447021196 148.15439573102628 l -7.1171531387445 0 L 365.8216713314674 152.85115322566347 M 392.5109956017593 160.0704699771305 l 7.1171531387445 0 L 399.62814874050383 151.7372843795983 l -7.1171531387445 0 L 392.5109956017593 160.0704699771305 M 410.3038784486206 154.51123087560052 l 7.1171531387445 0 L 417.4210315873651 147.8088712393852 l -7.1171531387445 0 L 410.3038784486206 154.51123087560052 M 436.99320271891247 161.36986544223234 l 7.1171531387445 0 L 444.110355857657 160.56411438296666 l -7.1171531387445 0 L 436.99320271891247 161.36986544223234 M 463.68252698920435 173.29444927048058 l 7.1171531387445 0 L 470.7996801279489 172.0870636623114 l -7.1171531387445 0 L 463.68252698920435 173.29444927048058 M 472.57896841263494 172.0870636623114 l 7.1171531387445 0 L 479.69612155137946 169.79577002854253 l -7.1171531387445 0 L 472.57896841263494 172.0870636623114 M 499.2682926829268 187.4196464977751 l 7.1171531387445 0 L 506.38544582167134 166.55193504352297 l -7.1171531387445 0 L 499.2682926829268 187.4196464977751 M 508.16473410635746 166.55193504352297 l 7.1171531387445 0 L 515.281887245102 165.2815253425993 l -7.1171531387445 0 L 508.16473410635746 166.55193504352297 M 517.0611755297881 165.28374137961598 l 7.1171531387445 0 L 524.1783286685326 153.34807736628434 l -7.1171531387445 0 L 517.0611755297881 165.28374137961598 M 525.9576169532187 153.34798872480366 l 7.1171531387445 0 L 533.0747700919632 147.81640576524188 l -7.1171531387445 0 L 525.9576169532187 153.34798872480366 M 534.8540583766493 147.786533586257 l 7.1171531387445 0 L 541.9712115153937 137.86303118407292 l -7.1171531387445 0 L 534.8540583766493 147.786533586257 M 543.75049980008 137.86303118407292 l 7.1171531387445 0 L 550.8676529388244 121.4060311663446 l -7.1171531387445 0 L 543.75049980008 137.86303118407292 M 552.6469412235106 121.37296789405568 l 7.1171531387445 0 L 559.764094362255 101.7252291382275 l -7.1171531387445 0 L 552.6469412235106 121.37296789405568 M 561.5433826469413 101.7363979647916 l 7.1171531387445 0 L 568.6605357856857 96.74632581062636 l -7.1171531387445 0 L 561.5433826469413 101.7363979647916 M 579.3362654938024 96.75581044905776 l 7.1171531387445 0 L 586.4534186325469 77.36211817682201 l -7.1171531387445 0 L 579.3362654938024 96.75581044905776 M 623.8184726109555 112.81277146453453 l 7.1171531387445 0 L 630.9356257497 99.37348201464357 l -7.1171531387445 0 L 623.8184726109555 112.81277146453453 M 632.7149140343862 99.37357065612427 l 7.1171531387445 0 L 639.8320671731307 89.27473540518022 l -7.1171531387445 0 L 632.7149140343862 99.37357065612427 M 641.6113554578168 89.27473540518022 l 7.1171531387445 0 L 648.7285085965613 71.77327282074916 l -7.1171531387445 0 L 641.6113554578168 89.27473540518022 M 650.5077968812475 71.77327282074916 l 7.1171531387445 0 L 657.624950019992 56.38803694576916 l -7.1171531387445 0 L 650.5077968812475 71.77327282074916 M 668.3006797281087 63.285939688336555 l 7.1171531387445 0 L 675.4178328668531 41.48864502632651 l -7.1171531387445 0 L 668.3006797281087 63.285939688336555 M 703.8864454218311 57.91692520431863 l 7.1171531387445 0 L 711.0035985605756 27.779353626322973 l -7.1171531387445 0 L 703.8864454218311 57.91692520431863 M 748.3686525389844 55.29411243285412 l 7.1171531387445 0 L 755.4858056777289 55.21132128991081 l -7.1171531387445 0 L 748.3686525389844 55.29411243285412 M 757.265093962415 55.26379704646584 l 7.1171531387445 0 L 764.3822471011595 36.992571843920075 l -7.1171531387445 0 L 757.265093962415 55.26379704646584 M 766.1615353858456 36.992571843920075 l 7.1171531387445 0 L 773.27868852459 14.283954119169607 l -7.1171531387445 0 L 766.1615353858456 36.992571843920075 M 783.9544182327068 18.721257999893652 l 7.1171531387445 0 L 791.0715713714512 15.021894445724826 l -7.1171531387445 0 L 783.9544182327068 18.721257999893652 M 792.8508596561375 15.021894445724826 l 7.1171531387445 0 L 799.9680127948819 12.809137163827216 l -7.1171531387445 0 L 792.8508596561375 15.021894445724826 M 810.6437425029987 28.896147641250195 l 7.1171531387445 0 L 817.7608956417432 17.378871416668176 l -7.1171531387445 0 L 810.6437425029987 28.896147641250195 M 828.43662534986 36.254720158845544 l 7.1171531387445 0 L 835.5537784886045 16.522771996383426 l -7.1171531387445 0 L 828.43662534986 36.254720158845544 M 864.0223910435824 35.0221603701668 l 7.1171531387445 0 L 871.1395441823269 33.97636818125412 l -7.1171531387445 0 L 864.0223910435824 35.0221603701668 M 872.9188324670131 33.97636818125412 l 7.1171531387445 0 L 880.0359856057576 18.821954721931718 l -7.1171531387445 0 L 872.9188324670131 33.97636818125412 M 881.8152738904437 18.82204336341232 l 7.1171531387445 0 L 888.9324270291881 8.299945042281962 l -7.1171531387445 0 L 881.8152738904437 18.82204336341232"></path><path class="candle body down" d="M 9.964014394242305 103.63944191323773 l 7.1171531387445 0 L 17.081167532986804 109.95018348786495 l -7.1171531387445 0 L 9.964014394242305 103.63944191323773 M 18.860455817672932 109.95009484638433 l 7.1171531387445 0 L 25.977608956417434 135.35917527966387 l -7.1171531387445 0 L 18.860455817672932 109.95009484638433 M 27.75689724110356 135.3742443313773 l 7.1171531387445 0 L 34.87405037984806 144.74045774460615 l -7.1171531387445 0 L 27.75689724110356 135.3742443313773 M 54.446221511395436 121.26225468470226 l 7.1171531387445 0 L 61.563374650139934 126.2326484301594 l -7.1171531387445 0 L 54.446221511395436 121.26225468470226 M 81.13554578168731 103.59636215363342 l 7.1171531387445 0 L 88.25269892043181 125.02792206641018 l -7.1171531387445 0 L 81.13554578168731 103.59636215363342 M 90.03198720511796 125.02659244420016 l 7.1171531387445 0 L 97.14914034386246 136.69136809261263 l -7.1171531387445 0 L 90.03198720511796 125.02659244420016 M 107.82487005197919 134.18183913344092 l 7.1171531387445 0 L 114.94202319072369 154.0687326041094 l -7.1171531387445 0 L 107.82487005197919 134.18183913344092 M 116.72131147540982 154.03176910667116 l 7.1171531387445 0 L 123.83846461415432 155.59318878862553 l -7.1171531387445 0 L 116.72131147540982 154.03176910667116 M 134.51419432227107 120.07242008970515 l 7.1171531387445 0 L 141.63134746101557 126.38661868207845 l -7.1171531387445 0 L 134.51419432227107 120.07242008970515 M 152.30707716913233 120.56943287180665 l 7.1171531387445 0 L 159.42423030787683 136.39964897973653 l -7.1171531387445 0 L 152.30707716913233 120.56943287180665 M 178.9964014394242 92.34332618292056 l 7.1171531387445 0 L 186.1135545781687 95.64291665927986 l -7.1171531387445 0 L 178.9964014394242 92.34332618292056 M 187.89284286285485 95.64504405481587 l 7.1171531387445 0 L 195.00999600159935 111.55432836350097 l -7.1171531387445 0 L 187.89284286285485 95.64504405481587 M 196.78928428628546 111.55441700498166 l 7.1171531387445 0 L 203.90643742502996 113.82390483450634 l -7.1171531387445 0 L 196.78928428628546 111.55441700498166 M 205.68572570971608 113.82390483450634 l 7.1171531387445 0 L 212.80287884846058 133.97326572943075 l -7.1171531387445 0 L 205.68572570971608 113.82390483450634 M 214.5821671331467 133.967592674668 l 7.1171531387445 0 L 221.6993202718912 136.95268317761978 l -7.1171531387445 0 L 214.5821671331467 133.967592674668 M 232.37504998000796 135.9204531352492 l 7.1171531387445 0 L 239.49220311875246 171.29939546510184 l -7.1171531387445 0 L 232.37504998000796 135.9204531352492 M 267.9608156737305 144.2269576471005 l 7.1171531387445 0 L 275.07796881247504 171.51638980977538 l -7.1171531387445 0 L 267.9608156737305 144.2269576471005 M 294.65013994402244 143.87762157179074 l 7.1171531387445 0 L 301.76729308276697 145.71781871044374 l -7.1171531387445 0 L 294.65013994402244 143.87762157179074 M 312.4430227908837 133.15882780505964 l 7.1171531387445 0 L 319.5601759296282 140.84156221745528 l -7.1171531387445 0 L 312.4430227908837 133.15882780505964 M 321.3394642143143 140.84156221745528 l 7.1171531387445 0 L 328.45661735305885 154.49509812611907 l -7.1171531387445 0 L 321.3394642143143 140.84156221745528 M 356.9252299080368 138.6864218979914 l 7.1171531387445 0 L 364.0423830467813 152.85124186714415 l -7.1171531387445 0 L 356.9252299080368 138.6864218979914 M 374.7181127548981 148.15430708954565 l 7.1171531387445 0 L 381.8352658936426 151.326785682628 l -7.1171531387445 0 L 374.7181127548981 148.15430708954565 M 383.61455417832866 151.3268743241087 l 7.1171531387445 0 L 390.7317073170732 160.0704699771305 l -7.1171531387445 0 L 383.61455417832866 151.3268743241087 M 401.40743702518995 151.7372843795983 l 7.1171531387445 0 L 408.5245901639345 154.51123087560052 l -7.1171531387445 0 L 401.40743702518995 151.7372843795983 M 419.20031987205124 147.8087825979045 l 7.1171531387445 0 L 426.31747301079577 158.20084386689598 l -7.1171531387445 0 L 419.20031987205124 147.8087825979045 M 428.0967612954818 158.19809598099525 l 7.1171531387445 0 L 435.21391443422635 161.36410374598896 l -7.1171531387445 0 L 428.0967612954818 158.19809598099525 M 445.8896441423431 160.56402574148598 l 7.1171531387445 0 L 453.00679728108764 168.89659084865352 l -7.1171531387445 0 L 445.8896441423431 160.56402574148598 M 454.7860855657737 168.9454323045012 l 7.1171531387445 0 L 461.90323870451823 173.29436062899995 l -7.1171531387445 0 L 454.7860855657737 168.9454323045012 M 481.47540983606564 169.79568138706188 l 7.1171531387445 0 L 488.59256297481016 178.11840728987534 l -7.1171531387445 0 L 481.47540983606564 169.79568138706188 M 490.3718512594962 178.11840728987534 l 7.1171531387445 0 L 497.48900439824075 187.41955785629443 l -7.1171531387445 0 L 490.3718512594962 178.11840728987534 M 570.4398240703717 96.74623716914567 l 7.1171531387445 0 L 577.5569772091162 96.77362738667183 l -7.1171531387445 0 L 570.4398240703717 96.74623716914567 M 588.232706917233 77.36220681830268 l 7.1171531387445 0 L 595.3498600559775 83.96183097842464 l -7.1171531387445 0 L 588.232706917233 77.36220681830268 M 597.1291483406637 83.96174233694403 l 7.1171531387445 0 L 604.2463014794082 98.28975127200523 l -7.1171531387445 0 L 597.1291483406637 83.96174233694403 M 606.0255897640943 98.24693743684296 l 7.1171531387445 0 L 613.1427429028388 104.47355824631694 l -7.1171531387445 0 L 606.0255897640943 98.24693743684296 M 614.9220311875249 104.482067828461 l 7.1171531387445 0 L 622.0391843262694 112.81268282305385 l -7.1171531387445 0 L 614.9220311875249 104.482067828461 M 659.4042383046781 56.38803694576916 l 7.1171531387445 0 L 666.5213914434225 63.28585104685587 l -7.1171531387445 0 L 659.4042383046781 56.38803694576916 M 677.1971211515394 41.528799617068785 l 7.1171531387445 0 L 684.3142742902838 47.41353023560907 l -7.1171531387445 0 L 677.1971211515394 41.528799617068785 M 686.09356257497 47.413441594128386 l 7.1171531387445 0 L 693.2107157137144 48.06938855106637 l -7.1171531387445 0 L 686.09356257497 47.413441594128386 M 694.9900039984005 48.07231371992839 l 7.1171531387445 0 L 702.107157137145 57.92632120126936 l -7.1171531387445 0 L 694.9900039984005 48.07231371992839 M 712.7828868452618 27.77944226780366 l 7.1171531387445 0 L 719.9000399840063 34.263389295654775 l -7.1171531387445 0 L 712.7828868452618 27.77944226780366 M 721.6793282686924 34.26347793713546 l 7.1171531387445 0 L 728.7964814074369 35.102735476093386 l -7.1171531387445 0 L 721.6793282686924 34.26347793713546 M 730.5757696921231 35.102735476093386 l 7.1171531387445 0 L 737.6929228308676 44.609800202102576 l -7.1171531387445 0 L 730.5757696921231 35.102735476093386 M 739.4722111155537 44.60971156062189 l 7.1171531387445 0 L 746.5893642542982 55.29411243285412 l -7.1171531387445 0 L 739.4722111155537 44.60971156062189 M 775.0579768092763 14.283954119169607 l 7.1171531387445 0 L 782.1751299480208 18.721346641374282 l -7.1171531387445 0 L 775.0579768092763 14.283954119169607 M 801.747301079568 12.809137163827216 l 7.1171531387445 0 L 808.8644542183125 28.896147641250195 l -7.1171531387445 0 L 801.747301079568 12.809137163827216 M 819.5401839264293 17.378871416668176 l 7.1171531387445 0 L 826.6573370651738 36.25463151736486 l -7.1171531387445 0 L 819.5401839264293 17.378871416668176 M 837.3330667732906 16.522771996383426 l 7.1171531387445 0 L 844.4502199120351 18.070009041431064 l -7.1171531387445 0 L 837.3330667732906 16.522771996383426 M 846.2295081967213 18.070009041431064 l 7.1171531387445 0 L 853.3466613354658 19.200365202900343 l -7.1171531387445 0 L 846.2295081967213 18.070009041431064 M 855.1259496201519 19.200276561419713 l 7.1171531387445 0 L 862.2431027588964 35.0221603701668 l -7.1171531387445 0 L 855.1259496201519 19.200276561419713"></path><path class="candle body equal"></path><path class="candle wick up" d="M 4.626149540183927 89.46496002269222 L 4.626149540183927 103.63953055471835 M 4.626149540183927 111.76963852004182 L 4.626149540183927 116.41693406846666 M 40.21191523390643 128.05059655716488 L 40.21191523390643 135.55613664970662 M 40.21191523390643 144.74045774460615 L 40.21191523390643 155.60923289662628 M 49.10835665733706 119.08894286170157 L 49.10835665733706 121.26234332618294 M 49.10835665733706 135.55622529118722 L 49.10835665733706 148.74093640860178 M 66.90123950419832 112.65357136525608 L 66.90123950419832 118.47128902441186 M 66.90123950419832 126.21704752956194 L 66.90123950419832 133.08543265906712 M 75.79768092762893 101.56452213377773 L 75.79768092762893 103.59627351215273 M 75.79768092762893 118.47128902441186 L 75.79768092762893 122.00524757565549 M 102.48700519792082 128.12150974169873 L 102.48700519792082 134.18183913344092 M 102.48700519792082 136.66592798766112 L 102.48700519792082 139.2726080096442 M 129.1763294682127 118.7716950023933 L 129.1763294682127 120.07242008970515 M 129.1763294682127 155.59327743010616 L 129.1763294682127 164.3154218448065 M 146.96921231507397 117.48098640239685 L 146.96921231507397 120.56943287180665 M 146.96921231507397 126.36791532965765 L 146.96921231507397 132.93678089598814 M 164.7620951619352 102.41548034818373 L 164.7620951619352 105.60152108780825 M 164.7620951619352 136.39956033825587 L 164.7620951619352 143.39443686067332 M 173.65853658536582 87.48781179640824 L 173.65853658536582 92.34323754143989 M 173.65853658536582 105.60160972928894 L 173.65853658536582 108.17717659155778 M 227.0371851259496 131.15553034197882 L 227.0371851259496 135.9205417767298 M 227.0371851259496 136.95268317761978 L 227.0371851259496 155.99039126349567 M 244.83006797281087 156.32031485453933 L 244.83006797281087 163.3160777917634 M 244.83006797281087 171.25339053663552 L 244.83006797281087 196.15384615384613 M 253.72650939624148 142.29528250039888 L 253.72650939624148 152.95823213430958 M 253.72650939624148 163.3160777917634 L 253.72650939624148 170.64282801779922 M 262.6229508196721 138.59893275657276 L 262.6229508196721 144.2268690056199 M 262.6229508196721 152.98482457850974 L 262.6229508196721 165.29269416916338 M 280.4158336665334 161.3620649919336 L 280.4158336665334 165.31857748151822 M 280.4158336665334 171.59049408761322 L 280.4158336665334 184.2227028560285 M 289.31227508996403 143.46535004520715 L 289.31227508996403 143.89667949013423 M 289.31227508996403 165.31857748151822 L 289.31227508996403 168.06823621181766 M 307.10515793682526 127.0578119736912 L 307.10515793682526 133.15873916357896 M 307.10515793682526 145.71781871044374 L 307.10515793682526 148.10635204850462 M 333.7944822071172 150.3081177867995 L 333.7944822071172 151.99664935203074 M 333.7944822071172 154.51601751555654 L 333.7944822071172 161.63685358200223 M 342.6909236305478 141.7225698938075 L 342.6909236305478 144.17332955129683 M 342.6909236305478 151.99673799351143 L 342.6909236305478 156.1612033967415 M 351.5873650539784 132.66128317407416 L 351.5873650539784 138.70078181785948 M 351.5873650539784 144.17341819277746 L 351.5873650539784 146.93876646515503 M 369.38024790083966 140.18667895828534 L 369.38024790083966 148.15439573102628 M 369.38024790083966 152.85115322566347 L 369.38024790083966 154.25301824241672 M 396.06957217113154 149.21818214051447 L 396.06957217113154 151.7372843795983 M 396.06957217113154 160.0704699771305 L 396.06957217113154 165.518729944865 M 413.86245501799283 144.20107433474567 L 413.86245501799283 147.8088712393852 M 413.86245501799283 154.51123087560052 L 413.86245501799283 156.25214955590616 M 440.5517792882847 157.95796620986758 L 440.5517792882847 160.56411438296666 M 440.5517792882847 161.36986544223234 L 440.5517792882847 171.8217597106742 M 467.2411035585766 168.22362472742745 L 467.2411035585766 172.0870636623114 M 467.2411035585766 173.29444927048058 L 467.2411035585766 175.24057297853102 M 476.13754498200717 163.97698867161876 L 476.13754498200717 169.79577002854253 M 476.13754498200717 172.0870636623114 L 476.13754498200717 175.73111493254382 M 502.82686925229905 160.22745403939226 L 502.82686925229905 166.55193504352297 M 502.82686925229905 187.4196464977751 L 502.82686925229905 190.14741078234968 M 511.7233106757297 162.59107912138566 L 511.7233106757297 165.2815253425993 M 511.7233106757297 166.55193504352297 L 511.7233106757297 170.42122431613097 M 520.6197520991603 153.20704877054266 L 520.6197520991603 153.34807736628434 M 520.6197520991603 165.28374137961598 L 520.6197520991603 168.50373180633608 M 529.5161935225909 145.67252291382275 L 529.5161935225909 147.81640576524188 M 529.5161935225909 153.34798872480366 L 529.5161935225909 155.41298065842892 M 538.4126349460215 137.71251794989982 L 538.4126349460215 137.86303118407292 M 538.4126349460215 147.786533586257 L 538.4126349460215 151.42429131136203 M 547.3090763694522 92.04442711011045 L 547.3090763694522 121.4060311663446 M 547.3090763694522 137.86303118407292 L 547.3090763694522 139.41638449128655 M 556.2055177928828 100.97408123105288 L 556.2055177928828 101.7252291382275 M 556.2055177928828 121.37296789405568 L 556.2055177928828 128.98133210417146 M 565.1019592163135 88.94197528675518 L 565.1019592163135 96.74632581062636 M 565.1019592163135 101.7363979647916 L 565.1019592163135 107.80488237275515 M 582.8948420631747 76.38404807913912 L 582.8948420631747 77.36211817682201 M 582.8948420631747 96.75581044905776 L 582.8948420631747 111.87148758132854 M 627.3770491803277 97.1886467991561 L 627.3770491803277 99.37348201464357 M 627.3770491803277 112.81277146453453 L 627.3770491803277 119.00420160618364 M 636.2734906037584 84.95310865672701 L 636.2734906037584 89.27473540518022 M 636.2734906037584 99.37357065612427 L 636.2734906037584 120.56305068519868 M 645.169932027189 66.84870672079705 L 645.169932027189 71.77327282074916 M 645.169932027189 89.27473540518022 L 645.169932027189 98.21511514528338 M 654.0663734506197 55.25821263318383 L 654.0663734506197 56.38803694576916 M 654.0663734506197 71.77327282074916 L 654.0663734506197 75.2343680748843 M 671.8592562974809 39.70916730193062 L 671.8592562974809 41.48864502632651 M 671.8592562974809 63.285939688336555 L 671.8592562974809 72.28624106937083 M 707.4450219912034 27.017036892584258 L 707.4450219912034 27.779353626322973 M 707.4450219912034 57.91692520431863 L 707.4450219912034 59.53613913166805 M 751.9272291083566 43.73482014643574 L 751.9272291083566 55.21132128991081 M 751.9272291083566 55.29411243285412 L 751.9272291083566 59.66121226088964 M 760.8236705317872 34.57815519350436 L 760.8236705317872 36.992571843920075 M 760.8236705317872 55.26379704646584 L 760.8236705317872 62.10399418511889 M 769.7201119552178 13.74749587817118 L 769.7201119552178 14.283954119169607 M 769.7201119552178 36.992571843920075 L 769.7201119552178 38.21254454234406 M 787.512994802079 12.710301912883153 L 787.512994802079 15.021894445724826 M 787.512994802079 18.721257999893652 L 787.512994802079 25.56331660964065 M 796.4094362255097 3.846153846153868 L 796.4094362255097 12.809137163827216 M 796.4094362255097 15.021894445724826 L 796.4094362255097 16.88531565231267 M 814.202319072371 14.799581612211256 L 814.202319072371 17.378871416668176 M 814.202319072371 28.896147641250195 L 814.202319072371 33.75130746183984 M 831.9952019192323 15.813374226603088 L 831.9952019192323 16.522771996383426 M 831.9952019192323 36.254720158845544 L 831.9952019192323 40.65009661921394 M 867.5809676129546 23.82496853227437 L 867.5809676129546 33.97636818125412 M 867.5809676129546 35.0221603701668 L 867.5809676129546 37.5299164997252 M 876.4774090363853 15.75956884783804 L 876.4774090363853 18.821954721931718 M 876.4774090363853 33.97636818125412 L 876.4774090363853 39.19637633627033 M 885.3738504598159 4.289361249490327 L 885.3738504598159 8.299945042281962 M 885.3738504598159 18.82204336341232 L 885.3738504598159 20.829329693123242" style="stroke-width: 1px;"></path><path class="candle wick down" d="M 13.522590963614554 93.27530271065649 L 13.522590963614554 103.63944191323773 M 13.522590963614554 109.95018348786495 L 13.522590963614554 122.32196358607976 M 22.41903238704518 106.86678958285317 L 22.41903238704518 109.95009484638433 M 22.41903238704518 135.35917527966387 L 22.41903238704518 144.04151966954456 M 31.315473810475808 120.51092949456626 L 31.315473810475808 135.3742443313773 M 31.315473810475808 144.74045774460615 L 31.315473810475808 153.35986668321306 M 58.004798080767685 115.58042441540945 L 58.004798080767685 121.26225468470226 M 58.004798080767685 126.2326484301594 L 58.004798080767685 135.33692626801638 M 84.69412235105956 103.22149733189143 L 84.69412235105956 103.59636215363342 M 84.69412235105956 125.02792206641018 L 84.69412235105956 136.3195170812133 M 93.5905637744902 115.31281578527488 L 93.5905637744902 125.02659244420016 M 93.5905637744902 136.69136809261263 L 93.5905637744902 143.01327849380397 M 111.38344662135144 124.39856755367241 L 111.38344662135144 134.18183913344092 M 111.38344662135144 154.0687326041094 L 111.38344662135144 156.30950059389792 M 120.27988804478207 149.50174623716913 L 120.27988804478207 154.03176910667116 M 120.27988804478207 155.59318878862553 L 120.27988804478207 176.69704114737533 M 138.07277089164333 110.29570797950609 L 138.07277089164333 120.07242008970515 M 138.07277089164333 126.38661868207845 L 138.07277089164333 134.30868509227577 M 155.8656537385046 119.4024677788218 L 155.8656537385046 120.56943287180665 M 155.8656537385046 136.39964897973653 L 155.8656537385046 144.7829170138458 M 182.55497800879647 85.1303916180616 L 182.55497800879647 92.34332618292056 M 182.55497800879647 95.64291665927986 L 182.55497800879647 101.29505203254914 M 191.4514194322271 92.24706153491589 L 191.4514194322271 95.64504405481587 M 191.4514194322271 111.55432836350097 L 191.4514194322271 113.61967486304889 M 200.34786085565773 100.82099739394049 L 200.34786085565773 111.55441700498166 M 200.34786085565773 113.82390483450634 L 200.34786085565773 120.27673870264329 M 209.24430227908834 112.85000088641483 L 209.24430227908834 113.82390483450634 M 209.24430227908834 133.97326572943075 L 209.24430227908834 140.09440317691065 M 218.14074370251896 128.32538514723348 L 218.14074370251896 133.967592674668 M 218.14074370251896 136.95268317761978 L 218.14074370251896 142.9820766926091 M 235.93362654938022 134.5923378304111 L 235.93362654938022 135.9204531352492 M 235.93362654938022 171.29939546510184 L 235.93362654938022 174.4701012285709 M 271.51939224310274 136.80837484709343 L 271.51939224310274 144.2269576471005 M 271.51939224310274 171.51638980977538 L 271.51939224310274 174.25940042902477 M 298.2087165133947 138.60150335951212 L 298.2087165133947 143.87762157179074 M 298.2087165133947 145.71781871044374 L 298.2087165133947 151.32146719378798 M 316.0015993602559 131.48988600705587 L 316.0015993602559 133.15882780505964 M 316.0015993602559 140.84156221745528 L 316.0015993602559 149.94903114861626 M 324.89804078368655 140.7301398762565 L 324.89804078368655 140.84156221745528 M 324.89804078368655 154.49509812611907 L 324.89804078368655 161.53048380520147 M 360.483806477409 138.63633946141437 L 360.483806477409 138.6864218979914 M 360.483806477409 152.85124186714415 L 360.483806477409 157.8558512241388 M 378.2766893242703 140.7166663711951 L 378.2766893242703 148.15430708954565 M 378.2766893242703 151.326785682628 L 378.2766893242703 152.07447657205668 M 387.1731307477009 150.72827840516248 L 387.1731307477009 151.3268743241087 M 387.1731307477009 160.0704699771305 L 387.1731307477009 167.15035367950784 M 404.9660135945622 147.78219015370433 L 404.9660135945622 151.7372843795983 M 404.9660135945622 154.51123087560052 L 404.9660135945622 158.92637438615776 M 422.7588964414235 144.09089297427624 L 422.7588964414235 147.8087825979045 M 422.7588964414235 158.20084386689598 L 422.7588964414235 161.99726984239544 M 431.65533786485406 155.95493467122873 L 431.65533786485406 158.19809598099525 M 431.65533786485406 161.36410374598896 L 431.65533786485406 166.04011913415002 M 449.44822071171535 157.3266615845551 L 449.44822071171535 160.56402574148598 M 449.44822071171535 168.89659084865352 L 449.44822071171535 175.51810945450032 M 458.34466213514594 165.6241246653784 L 458.34466213514594 168.9454323045012 M 458.34466213514594 173.29436062899995 L 458.34466213514594 176.51975818604072 M 485.0339864054379 168.72817203538568 L 485.0339864054379 169.79568138706188 M 485.0339864054379 178.11840728987534 L 485.0339864054379 181.94958072579644 M 493.93042782886846 176.1379793288067 L 493.93042782886846 178.11840728987534 M 493.93042782886846 187.41955785629443 L 493.93042782886846 191.96110411828317 M 573.998400639744 91.24665378410481 L 573.998400639744 96.74623716914567 M 573.998400639744 96.77362738667183 L 573.998400639744 104.01102700019501 M 591.7912834866053 75.22027407945822 L 591.7912834866053 77.36220681830268 M 591.7912834866053 83.96183097842464 L 591.7912834866053 88.05423085787223 M 600.687724910036 73.8817877213821 L 600.687724910036 83.96174233694403 M 600.687724910036 98.28975127200523 L 600.687724910036 102.04309748790043 M 609.5841663334666 92.6648288333008 L 609.5841663334666 98.24693743684296 M 609.5841663334666 104.47355824631694 L 609.5841663334666 108.53174251422696 M 618.4806077568971 98.86982112149201 L 618.4806077568971 104.482067828461 M 618.4806077568971 112.81268282305385 L 618.4806077568971 117.82110376371728 M 662.9628148740503 49.85108231247895 L 662.9628148740503 56.38803694576916 M 662.9628148740503 63.28585104685587 L 662.9628148740503 68.01372170120729 M 680.7556977209116 37.5299164997252 L 680.7556977209116 41.528799617068785 M 680.7556977209116 47.41353023560907 L 680.7556977209116 56.23805556048009 M 689.6521391443422 37.14459198326449 L 689.6521391443422 47.413441594128386 M 689.6521391443422 48.06938855106637 L 689.6521391443422 49.57505274168102 M 698.5485805677728 41.801372170120715 L 698.5485805677728 48.07231371992839 M 698.5485805677728 57.92632120126936 L 698.5485805677728 63.501870335242074 M 716.3414634146341 24.730086691368086 L 716.3414634146341 27.77944226780366 M 716.3414634146341 34.263389295654775 L 716.3414634146341 43.99161451592889 M 725.2379048380647 31.57081567890515 L 725.2379048380647 34.26347793713546 M 725.2379048380647 35.102735476093386 L 725.2379048380647 48.16689417980038 M 734.1343462614954 25.52936692254505 L 734.1343462614954 35.102735476093386 M 734.1343462614954 44.609800202102576 L 734.1343462614954 46.74863048912371 M 743.0307876849259 33.452408389029756 L 743.0307876849259 44.60971156062189 M 743.0307876849259 55.29411243285412 L 743.0307876849259 58.130196606804105 M 778.6165533786485 10.431861293811068 L 778.6165533786485 14.283954119169607 M 778.6165533786485 18.721346641374282 L 778.6165533786485 24.038683142163222 M 805.3058776489403 9.519208608860623 L 805.3058776489403 12.809137163827216 M 805.3058776489403 28.896147641250195 L 805.3058776489403 29.552183239668835 M 823.0987604958016 14.014749942383077 L 823.0987604958016 17.378871416668176 M 823.0987604958016 36.25463151736486 L 823.0987604958016 41.518783129753416 M 840.8916433426629 14.491995674295765 L 840.8916433426629 16.522771996383426 M 840.8916433426629 18.070009041431064 L 840.8916433426629 22.93172833159008 M 849.7880847660936 11.537841048096908 L 849.7880847660936 18.070009041431064 M 849.7880847660936 19.200365202900343 L 849.7880847660936 28.111404612902646 M 858.6845261895241 18.129753399400784 L 858.6845261895241 19.200276561419713 M 858.6845261895241 35.0221603701668 L 858.6845261895241 36.17370184551564" style="stroke-width: 1px;"></path><path class="candle wick equal" style="stroke-width: 1px;"></path></g></g><g class="x axis" transform="translate(0,200)" fill="none" font-size="10" font-family="sans-serif" text-anchor="middle"><path class="domain" stroke="#000" d="M0.5,6V0.5H890.5V6"></path><g class="tick" opacity="1" transform="translate(49.10835665733706,0)"><line stroke="#000" y2="6" x1="0.5" x2="0.5"></line><text fill="#000" y="9" x="0.5" dy="0.71em">May 31</text></g><g class="tick" opacity="1" transform="translate(111.38344662135144,0)"><line stroke="#000" y2="6" x1="0.5" x2="0.5"></line><text fill="#000" y="9" x="0.5" dy="0.71em">Jun  7</text></g><g class="tick" opacity="1" transform="translate(173.65853658536582,0)"><line stroke="#000" y2="6" x1="0.5" x2="0.5"></line><text fill="#000" y="9" x="0.5" dy="0.71em">Jun 14</text></g><g class="tick" opacity="1" transform="translate(235.93362654938022,0)"><line stroke="#000" y2="6" x1="0.5" x2="0.5"></line><text fill="#000" y="9" x="0.5" dy="0.71em">Jun 21</text></g><g class="tick" opacity="1" transform="translate(298.2087165133947,0)"><line stroke="#000" y2="6" x1="0.5" x2="0.5"></line><text fill="#000" y="9" x="0.5" dy="0.71em">Jun 28</text></g><g class="tick" opacity="1" transform="translate(360.483806477409,0)"><line stroke="#000" y2="6" x1="0.5" x2="0.5"></line><text fill="#000" y="9" x="0.5" dy="0.71em">Jul  5</text></g><g class="tick" opacity="1" transform="translate(422.7588964414235,0)"><line stroke="#000" y2="6" x1="0.5" x2="0.5"></line><text fill="#000" y="9" x="0.5" dy="0.71em">Jul 12</text></g><g class="tick" opacity="1" transform="translate(485.0339864054379,0)"><line stroke="#000" y2="6" x1="0.5" x2="0.5"></line><text fill="#000" y="9" x="0.5" dy="0.71em">Jul 19</text></g><g class="tick" opacity="1" transform="translate(547.3090763694522,0)"><line stroke="#000" y2="6" x1="0.5" x2="0.5"></line><text fill="#000" y="9" x="0.5" dy="0.71em">Jul 26</text></g><g class="tick" opacity="1" transform="translate(609.5841663334666,0)"><line stroke="#000" y2="6" x1="0.5" x2="0.5"></line><text fill="#000" y="9" x="0.5" dy="0.71em">Aug  2</text></g><g class="tick" opacity="1" transform="translate(671.8592562974809,0)"><line stroke="#000" y2="6" x1="0.5" x2="0.5"></line><text fill="#000" y="9" x="0.5" dy="0.71em">Aug  9</text></g><g class="tick" opacity="1" transform="translate(734.1343462614954,0)"><line stroke="#000" y2="6" x1="0.5" x2="0.5"></line><text fill="#000" y="9" x="0.5" dy="0.71em">Aug 16</text></g><g class="tick" opacity="1" transform="translate(796.4094362255097,0)"><line stroke="#000" y2="6" x1="0.5" x2="0.5"></line><text fill="#000" y="9" x="0.5" dy="0.71em">Aug 23</text></g><g class="tick" opacity="1" transform="translate(858.6845261895241,0)"><line stroke="#000" y2="6" x1="0.5" x2="0.5"></line><text fill="#000" y="9" x="0.5" dy="0.71em">Aug 30</text></g></g><g class="y axis" fill="none" font-size="10" font-family="sans-serif" text-anchor="end"><path class="domain" stroke="#000" d="M-6,200.5H0.5V0.5H-6"></path><g class="tick" opacity="1" transform="translate(0,185.56118921410462)"><line stroke="#000" x2="-6" y1="0.5" y2="0.5"></line><text fill="#000" x="-9" y="0.5" dy="0.32em">30,000</text></g><g class="tick" opacity="1" transform="translate(0,167.83289308064602)"><line stroke="#000" x2="-6" y1="0.5" y2="0.5"></line><text fill="#000" x="-9" y="0.5" dy="0.32em">32,000</text></g><g class="tick" opacity="1" transform="translate(0,150.10459694718742)"><line stroke="#000" x2="-6" y1="0.5" y2="0.5"></line><text fill="#000" x="-9" y="0.5" dy="0.32em">34,000</text></g><g class="tick" opacity="1" transform="translate(0,132.3763008137288)"><line stroke="#000" x2="-6" y1="0.5" y2="0.5"></line><text fill="#000" x="-9" y="0.5" dy="0.32em">36,000</text></g><g class="tick" opacity="1" transform="translate(0,114.64800468027018)"><line stroke="#000" x2="-6" y1="0.5" y2="0.5"></line><text fill="#000" x="-9" y="0.5" dy="0.32em">38,000</text></g><g class="tick" opacity="1" transform="translate(0,96.91970854681156)"><line stroke="#000" x2="-6" y1="0.5" y2="0.5"></line><text fill="#000" x="-9" y="0.5" dy="0.32em">40,000</text></g><g class="tick" opacity="1" transform="translate(0,79.19141241335295)"><line stroke="#000" x2="-6" y1="0.5" y2="0.5"></line><text fill="#000" x="-9" y="0.5" dy="0.32em">42,000</text></g><g class="tick" opacity="1" transform="translate(0,61.46311627989434)"><line stroke="#000" x2="-6" y1="0.5" y2="0.5"></line><text fill="#000" x="-9" y="0.5" dy="0.32em">44,000</text></g><g class="tick" opacity="1" transform="translate(0,43.73482014643574)"><line stroke="#000" x2="-6" y1="0.5" y2="0.5"></line><text fill="#000" x="-9" y="0.5" dy="0.32em">46,000</text></g><g class="tick" opacity="1" transform="translate(0,26.00652401297711)"><line stroke="#000" x2="-6" y1="0.5" y2="0.5"></line><text fill="#000" x="-9" y="0.5" dy="0.32em">48,000</text></g><g class="tick" opacity="1" transform="translate(0,8.27822787951851)"><line stroke="#000" x2="-6" y1="0.5" y2="0.5"></line><text fill="#000" x="-9" y="0.5" dy="0.32em">50,000</text></g><text transform="rotate(-90)" y="6" dy=".71em" style="text-anchor: end;">Price ($)</text></g></g></svg>