<?xml version="1.0" encoding="utf-8"?>
<!DOCTYPE svg PUBLIC "-//W3C//DTD SVG 1.1//EN" "http://www.w3.org/Graphics/SVG/1.1/DTD/svg11.dtd">
<svg version="1.1" xmlns="http://www.w3.org/2000/svg" width="960" height="250"><g transform="translate(50,20)"><style>.axis path,.axis line{fill:none;stroke:#000;shape-rendering:crispEdges;}path.candle{stroke:#000000;}path.candle.body{stroke-width:0;}path.candle.up{fill:#00AA00;stroke:#00AA00;}path.candle.down{fill:#FF0000;stroke:#FF0000;}</style><g class="candlestick"><g class="data"><path class="candle body up" d="M 18.860455817672932 102.54023061727318 l 7.1171531387445 0 L 25.977608956417434 93.26475996334436 l -7.1171531387445 0 L 18.860455817672932 102.54023061727318 M 36.65333866453418 138.53519478115118 l 7.1171531387445 0 L 43.77049180327868 137.1207529003005 l -7.1171531387445 0 L 36.65333866453418 138.53519478115118 M 54.446221511395436 168.1845591801985 l 7.1171531387445 0 L 61.563374650139934 134.93947242168042 l -7.1171531387445 0 L 54.446221511395436 168.1845591801985 M 72.23910435825668 134.94154607932717 l 7.1171531387445 0 L 79.35625749700118 131.83893950825447 l -7.1171531387445 0 L 72.23910435825668 134.94154607932717 M 90.03198720511796 147.09110623165643 l 7.1171531387445 0 L 97.14914034386246 123.82197168014044 l -7.1171531387445 0 L 90.03198720511796 147.09110623165643 M 98.92842862854857 123.82217904590516 l 7.1171531387445 0 L 106.04558176729307 121.17681398594162 l -7.1171531387445 0 L 98.92842862854857 123.82217904590516 M 107.82487005197919 121.17702135170626 l 7.1171531387445 0 L 114.94202319072369 115.92009185142129 l -7.1171531387445 0 L 107.82487005197919 121.17702135170626 M 178.9964014394242 162.3362225190594 l 7.1171531387445 0 L 186.1135545781687 161.02961083583995 l -7.1171531387445 0 L 178.9964014394242 162.3362225190594 M 187.89284286285485 161.02961083583995 l 7.1171531387445 0 L 195.00999600159935 141.9337122984156 l -7.1171531387445 0 L 187.89284286285485 161.02961083583995 M 205.68572570971608 143.1959477079945 l 7.1171531387445 0 L 212.80287884846058 135.1362625323574 l -7.1171531387445 0 L 205.68572570971608 143.1959477079945 M 214.5821671331467 135.1362625323574 l 7.1171531387445 0 L 221.6993202718912 113.14574528582966 l -7.1171531387445 0 L 214.5821671331467 135.1362625323574 M 267.9608156737305 160.70923072941656 l 7.1171531387445 0 L 275.07796881247504 141.97186759911588 l -7.1171531387445 0 L 267.9608156737305 160.70923072941656 M 276.85725709716115 141.97186759911588 l 7.1171531387445 0 L 283.9744102359057 134.6317416269022 l -7.1171531387445 0 L 276.85725709716115 141.97186759911588 M 285.7536985205918 134.6317416269022 l 7.1171531387445 0 L 292.8708516593363 129.63007938293254 l -7.1171531387445 0 L 285.7536985205918 134.6317416269022 M 294.65013994402244 129.63007938293254 l 7.1171531387445 0 L 301.76729308276697 122.0496164894602 l -7.1171531387445 0 L 294.65013994402244 129.63007938293254 M 312.4430227908837 130.26171550213365 l 7.1171531387445 0 L 319.5601759296282 96.39888613064768 l -7.1171531387445 0 L 312.4430227908837 130.26171550213365 M 321.3394642143143 96.39888613064768 l 7.1171531387445 0 L 328.45661735305885 76.40799695288453 l -7.1171531387445 0 L 321.3394642143143 96.39888613064768 M 365.8216713314674 96.06710090716713 l 7.1171531387445 0 L 372.93882447021196 93.34853573227322 l -7.1171531387445 0 L 365.8216713314674 96.06710090716713 M 392.5109956017593 120.82470691752287 l 7.1171531387445 0 L 399.62814874050383 85.61856212246988 l -7.1171531387445 0 L 392.5109956017593 120.82470691752287 M 401.40743702518995 85.57999209024025 l 7.1171531387445 0 L 408.5245901639345 67.1530555096586 l -7.1171531387445 0 L 401.40743702518995 85.57999209024025 M 472.57896841263494 92.46246181981542 l 7.1171531387445 0 L 479.69612155137946 78.15401669145106 l -7.1171531387445 0 L 472.57896841263494 92.46246181981542 M 490.3718512594962 85.58206574788704 l 7.1171531387445 0 L 497.48900439824075 81.01628634126502 l -7.1171531387445 0 L 490.3718512594962 85.58206574788704 M 499.2682926829268 81.01628634126502 l 7.1171531387445 0 L 506.38544582167134 67.83591097273455 l -7.1171531387445 0 L 499.2682926829268 81.01628634126502 M 517.0611755297881 81.49467916037105 l 7.1171531387445 0 L 524.1783286685326 64.84880713258605 l -7.1171531387445 0 L 517.0611755297881 81.49467916037105 M 534.8540583766493 65.28344577534557 l 7.1171531387445 0 L 541.9712115153937 55.5250202554879 l -7.1171531387445 0 L 534.8540583766493 65.28344577534557 M 543.75049980008 55.566078676893596 l 7.1171531387445 0 L 550.8676529388244 54.74325132266179 l -7.1171531387445 0 L 543.75049980008 55.566078676893596 M 606.0255897640943 129.5398752752988 l 7.1171531387445 0 L 613.1427429028388 123.20111858070246 l -7.1171531387445 0 L 606.0255897640943 129.5398752752988 M 614.9220311875249 123.20111858070246 l 7.1171531387445 0 L 622.0391843262694 115.41370465408404 l -7.1171531387445 0 L 614.9220311875249 123.20111858070246 M 632.7149140343862 117.7955078271452 l 7.1171531387445 0 L 639.8320671731307 115.13355350600766 l -7.1171531387445 0 L 632.7149140343862 117.7955078271452 M 650.5077968812475 118.47359387763365 l 7.1171531387445 0 L 657.624950019992 114.51311513809894 l -7.1171531387445 0 L 650.5077968812475 118.47359387763365 M 686.09356257497 156.05739453045422 l 7.1171531387445 0 L 693.2107157137144 140.917205319977 l -7.1171531387445 0 L 686.09356257497 156.05739453045422 M 703.8864454218311 150.71938501618118 l 7.1171531387445 0 L 711.0035985605756 145.80502375913983 l -7.1171531387445 0 L 703.8864454218311 150.71938501618118 M 712.7828868452618 145.8377875499586 l 7.1171531387445 0 L 719.9000399840063 144.11623697162375 l -7.1171531387445 0 L 712.7828868452618 145.8377875499586 M 739.4722111155537 150.3166807011816 l 7.1171531387445 0 L 746.5893642542982 146.83604634110574 l -7.1171531387445 0 L 739.4722111155537 150.3166807011816 M 766.1615353858456 171.9208755281191 l 7.1171531387445 0 L 773.27868852459 161.5063447288286 l -7.1171531387445 0 L 766.1615353858456 171.9208755281191 M 775.0579768092763 161.50613736306397 l 7.1171531387445 0 L 782.1751299480208 160.94790872455786 l -7.1171531387445 0 L 775.0579768092763 161.50613736306397 M 783.9544182327068 160.93194156067784 l 7.1171531387445 0 L 791.0715713714512 118.63824229478584 l -7.1171531387445 0 L 783.9544182327068 160.93194156067784 M 792.8508596561375 118.6069300643199 l 7.1171531387445 0 L 799.9680127948819 112.66133885954801 l -7.1171531387445 0 L 792.8508596561375 118.6069300643199 M 801.747301079568 112.68477119095634 l 7.1171531387445 0 L 808.8644542183125 108.95923786279887 l -7.1171531387445 0 L 801.747301079568 112.68477119095634 M 810.6437425029987 108.95923786279887 l 7.1171531387445 0 L 817.7608956417432 97.16282160771172 l -7.1171531387445 0 L 810.6437425029987 108.95923786279887 M 828.43662534986 143.24198290775246 l 7.1171531387445 0 L 835.5537784886045 142.14107806309096 l -7.1171531387445 0 L 828.43662534986 143.24198290775246 M 846.2295081967213 153.02425549054774 l 7.1171531387445 0 L 853.3466613354658 150.9211519052103 l -7.1171531387445 0 L 846.2295081967213 153.02425549054774 M 855.1259496201519 150.9211519052103 l 7.1171531387445 0 L 862.2431027588964 144.48617749580458 l -7.1171531387445 0 L 855.1259496201519 150.9211519052103 M 872.9188324670131 158.92235993520896 l 7.1171531387445 0 L 880.0359856057576 156.4428874869857 l -7.1171531387445 0 L 872.9188324670131 158.92235993520896"></path><path class="candle body down" d="M 1.0675729708116766 10.5090232309378 l 7.1171531387445 0 L 8.184726109556177 95.26189964293275 l -7.1171531387445 0 L 1.0675729708116766 10.5090232309378 M 9.964014394242305 95.30627591657326 l 7.1171531387445 0 L 17.081167532986804 102.54043798303782 l -7.1171531387445 0 L 9.964014394242305 95.30627591657326 M 27.75689724110356 93.26475996334436 l 7.1171531387445 0 L 34.87405037984806 138.52047181185918 l -7.1171531387445 0 L 27.75689724110356 93.26475996334436 M 45.54978008796481 137.1207529003005 l 7.1171531387445 0 L 52.66693322670931 168.1845591801985 l -7.1171531387445 0 L 45.54978008796481 137.1207529003005 M 63.342662934826066 134.93947242168042 l 7.1171531387445 0 L 70.45981607357056 134.94175344509188 l -7.1171531387445 0 L 63.342662934826066 134.93947242168042 M 81.13554578168731 131.8391468740192 l 7.1171531387445 0 L 88.25269892043181 147.09131359742105 l -7.1171531387445 0 L 81.13554578168731 131.8391468740192 M 116.72131147540982 115.92029921718594 l 7.1171531387445 0 L 123.83846461415432 125.3162493803911 l -7.1171531387445 0 L 116.72131147540982 115.92029921718594 M 125.61775289884046 125.31604201462639 l 7.1171531387445 0 L 132.73490603758498 131.4441150923126 l -7.1171531387445 0 L 125.61775289884046 125.31604201462639 M 134.51419432227107 131.44390772654793 l 7.1171531387445 0 L 141.63134746101557 141.00927571949282 l -7.1171531387445 0 L 134.51419432227107 131.44390772654793 M 143.4106357457017 141.00948308525756 l 7.1171531387445 0 L 150.5277888844462 144.29146104277444 l -7.1171531387445 0 L 143.4106357457017 141.00948308525756 M 152.30707716913233 144.2916684085391 l 7.1171531387445 0 L 159.42423030787683 148.0406340681049 l -7.1171531387445 0 L 152.30707716913233 144.2916684085391 M 161.20351859256294 148.0406340681049 l 7.1171531387445 0 L 168.32067173130744 161.77674968596529 l -7.1171531387445 0 L 161.20351859256294 148.0406340681049 M 170.09996001599356 161.77674968596529 l 7.1171531387445 0 L 177.21711315473806 162.33642988482404 l -7.1171531387445 0 L 170.09996001599356 161.77674968596529 M 196.78928428628546 141.9337122984156 l 7.1171531387445 0 L 203.90643742502996 143.19615507375914 l -7.1171531387445 0 L 196.78928428628546 141.9337122984156 M 223.47860855657734 113.14553792006494 l 7.1171531387445 0 L 230.59576169532184 113.77261199244326 l -7.1171531387445 0 L 223.47860855657734 113.14553792006494 M 232.37504998000796 113.77261199244326 l 7.1171531387445 0 L 239.49220311875246 113.83316279572843 l -7.1171531387445 0 L 232.37504998000796 113.77261199244326 M 241.2714914034386 113.82652709125882 l 7.1171531387445 0 L 248.3886445421831 128.95759220809038 l -7.1171531387445 0 L 241.2714914034386 113.82652709125882 M 250.16793282686922 128.98579395208623 l 7.1171531387445 0 L 257.28508596561375 147.59687133169962 l -7.1171531387445 0 L 250.16793282686922 128.98579395208623 M 259.06437425029986 147.59687133169962 l 7.1171531387445 0 L 266.1815273890444 160.7616942678794 l -7.1171531387445 0 L 259.06437425029986 147.59687133169962 M 303.54658136745303 122.0496164894602 l 7.1171531387445 0 L 310.66373450619756 130.29116144071762 l -7.1171531387445 0 L 303.54658136745303 122.0496164894602 M 330.23590563774496 76.36942692065489 l 7.1171531387445 0 L 337.3530587764895 80.00206038623783 l -7.1171531387445 0 L 330.23590563774496 76.36942692065489 M 339.13234706117555 80.00206038623783 l 7.1171531387445 0 L 346.2495001999201 81.47663833884431 l -7.1171531387445 0 L 339.13234706117555 80.00206038623783 M 348.02878848460614 81.47663833884431 l 7.1171531387445 0 L 355.14594162335067 91.16808471671179 l -7.1171531387445 0 L 348.02878848460614 81.47663833884431 M 356.9252299080368 91.16808471671179 l 7.1171531387445 0 L 364.0423830467813 96.015466831763 l -7.1171531387445 0 L 356.9252299080368 91.16808471671179 M 374.7181127548981 93.4014140022654 l 7.1171531387445 0 L 381.8352658936426 119.65868922275327 l -7.1171531387445 0 L 374.7181127548981 93.4014140022654 M 383.61455417832866 119.65868922275327 l 7.1171531387445 0 L 390.7317073170732 120.82470691752287 l -7.1171531387445 0 L 383.61455417832866 119.65868922275327 M 410.3038784486206 67.10494665225391 l 7.1171531387445 0 L 417.4210315873651 68.58761186968275 l -7.1171531387445 0 L 410.3038784486206 67.10494665225391 M 419.20031987205124 68.51441175475236 l 7.1171531387445 0 L 426.31747301079577 71.28834358881463 l -7.1171531387445 0 L 419.20031987205124 68.51441175475236 M 428.0967612954818 71.26491125740628 l 7.1171531387445 0 L 435.21391443422635 78.55008530198097 l -7.1171531387445 0 L 428.0967612954818 71.26491125740628 M 436.99320271891247 78.48704610951964 l 7.1171531387445 0 L 444.110355857657 79.07492805237433 l -7.1171531387445 0 L 436.99320271891247 78.48704610951964 M 445.8896441423431 79.09794565225323 l 7.1171531387445 0 L 453.00679728108764 84.88573151010716 l -7.1171531387445 0 L 445.8896441423431 79.09794565225323 M 454.7860855657737 84.92430154233679 l 7.1171531387445 0 L 461.90323870451823 88.39892229523711 l -7.1171531387445 0 L 454.7860855657737 84.92430154233679 M 463.68252698920435 88.4291976968797 l 7.1171531387445 0 L 470.7996801279489 92.45064197122892 l -7.1171531387445 0 L 463.68252698920435 88.4291976968797 M 481.47540983606564 78.13037699427801 l 7.1171531387445 0 L 488.59256297481016 85.58206574788704 l -7.1171531387445 0 L 481.47540983606564 78.13037699427801 M 508.16473410635746 67.81558912779639 l 7.1171531387445 0 L 515.281887245102 81.52308827013155 l -7.1171531387445 0 L 508.16473410635746 67.81558912779639 M 525.9576169532187 64.84880713258605 l 7.1171531387445 0 L 533.0747700919632 65.2564882259378 l -7.1171531387445 0 L 525.9576169532187 64.84880713258605 M 552.6469412235106 54.70841387419631 l 7.1171531387445 0 L 559.764094362255 57.56632884295209 l -7.1171531387445 0 L 552.6469412235106 54.70841387419631 M 561.5433826469413 57.56612147718744 l 7.1171531387445 0 L 568.6605357856857 61.929719263251 l -7.1171531387445 0 L 561.5433826469413 57.56612147718744 M 570.4398240703717 61.9666303693632 l 7.1171531387445 0 L 577.5569772091162 66.90815654157697 l -7.1171531387445 0 L 570.4398240703717 61.9666303693632 M 579.3362654938024 66.87891796875775 l 7.1171531387445 0 L 586.4534186325469 77.52694261907274 l -7.1171531387445 0 L 579.3362654938024 66.87891796875775 M 588.232706917233 77.52694261907274 l 7.1171531387445 0 L 595.3498600559775 80.66770449084571 l -7.1171531387445 0 L 588.232706917233 77.52694261907274 M 597.1291483406637 80.66252034672883 l 7.1171531387445 0 L 604.2463014794082 129.5398752752988 l -7.1171531387445 0 L 597.1291483406637 80.66252034672883 M 623.8184726109555 115.39110178573442 l 7.1171531387445 0 L 630.9356257497 117.8145854774953 l -7.1171531387445 0 L 623.8184726109555 115.39110178573442 M 641.6113554578168 115.1337608717723 l 7.1171531387445 0 L 648.7285085965613 118.47297178033956 l -7.1171531387445 0 L 641.6113554578168 115.1337608717723 M 659.4042383046781 114.51311513809894 l 7.1171531387445 0 L 666.5213914434225 141.8437155565465 l -7.1171531387445 0 L 659.4042383046781 114.51311513809894 M 668.3006797281087 141.8833224175995 l 7.1171531387445 0 L 675.4178328668531 146.06257203886668 l -7.1171531387445 0 L 668.3006797281087 141.8833224175995 M 677.1971211515394 146.06257203886668 l 7.1171531387445 0 L 684.3142742902838 156.05739453045422 l -7.1171531387445 0 L 677.1971211515394 146.06257203886668 M 694.9900039984005 140.8867225525697 l 7.1171531387445 0 L 702.107157137145 150.7477941259417 l -7.1171531387445 0 L 694.9900039984005 140.8867225525697 M 721.6793282686924 144.09176781139206 l 7.1171531387445 0 L 728.7964814074369 147.84052610519313 l -7.1171531387445 0 L 721.6793282686924 144.09176781139206 M 730.5757696921231 147.8587742924846 l 7.1171531387445 0 L 737.6929228308676 150.32808581823872 l -7.1171531387445 0 L 730.5757696921231 147.8587742924846 M 748.3686525389844 146.83604634110574 l 7.1171531387445 0 L 755.4858056777289 151.05511018919057 l -7.1171531387445 0 L 748.3686525389844 146.83604634110574 M 757.265093962415 151.08621505389186 l 7.1171531387445 0 L 764.3822471011595 171.9208755281191 l -7.1171531387445 0 L 757.265093962415 151.08621505389186 M 819.5401839264293 97.16904258065205 l 7.1171531387445 0 L 826.6573370651738 143.2430197365758 l -7.1171531387445 0 L 819.5401839264293 97.16904258065205 M 837.3330667732906 142.13153923791592 l 7.1171531387445 0 L 844.4502199120351 153.02425549054774 l -7.1171531387445 0 L 837.3330667732906 142.13153923791592 M 864.0223910435824 144.50712143803676 l 7.1171531387445 0 L 871.1395441823269 158.94869538732274 l -7.1171531387445 0 L 864.0223910435824 144.50712143803676 M 881.8152738904437 156.4428874869857 l 7.1171531387445 0 L 888.9324270291881 166.59634478854994 l -7.1171531387445 0 L 881.8152738904437 156.4428874869857"></path><path class="candle body equal"></path><path class="candle wick up" d="M 22.41903238704518 88.77985320494572 L 22.41903238704518 93.26475996334436 M 22.41903238704518 102.54023061727318 L 22.41903238704518 144.52765064873967 M 40.21191523390643 118.52792370797857 L 40.21191523390643 137.1207529003005 M 40.21191523390643 138.53519478115118 L 40.21191523390643 141.72738336256361 M 58.004798080767685 129.92225774536013 L 58.004798080767685 134.93947242168042 M 58.004798080767685 168.1845591801985 L 58.004798080767685 189.13638131146735 M 75.79768092762893 111.1131460604818 L 75.79768092762893 131.83893950825447 M 75.79768092762893 134.94154607932717 L 75.79768092762893 139.6176440727565 M 93.5905637744902 121.27406852957434 L 93.5905637744902 123.82197168014044 M 93.5905637744902 147.09110623165643 L 93.5905637744902 149.1218391651222 M 102.48700519792082 114.52617918127352 L 102.48700519792082 121.17681398594162 M 102.48700519792082 123.82217904590516 L 102.48700519792082 131.56521669888298 M 111.38344662135144 113.36306460720942 L 111.38344662135144 115.92009185142129 M 111.38344662135144 121.17702135170626 L 111.38344662135144 128.0420723570487 M 182.55497800879647 154.14921476391157 L 182.55497800879647 161.02961083583995 M 182.55497800879647 162.3362225190594 L 182.55497800879647 172.12015402797215 M 191.4514194322271 139.50131187877366 L 191.4514194322271 141.9337122984156 M 191.4514194322271 161.02961083583995 L 191.4514194322271 166.43190373716237 M 209.24430227908834 132.84051615163645 L 209.24430227908834 135.1362625323574 M 209.24430227908834 143.1959477079945 L 209.24430227908834 151.79312494567017 M 218.14074370251896 108.72636610906845 L 218.14074370251896 113.14574528582966 M 218.14074370251896 135.1362625323574 L 218.14074370251896 141.62328574869656 M 271.51939224310274 139.24003101528268 L 271.51939224310274 141.97186759911588 M 271.51939224310274 160.70923072941656 L 271.51939224310274 169.42564328178057 M 280.4158336665334 128.17934849326377 L 280.4158336665334 134.6317416269022 M 280.4158336665334 141.97186759911588 L 280.4158336665334 154.80366111722702 M 289.31227508996403 121.95837555300302 L 289.31227508996403 129.63007938293254 M 289.31227508996403 134.6317416269022 L 289.31227508996403 138.9148814962717 M 298.2087165133947 113.89309150171967 L 298.2087165133947 122.0496164894602 M 298.2087165133947 129.63007938293254 L 298.2087165133947 136.91753445091865 M 316.0015993602559 89.24373042052447 L 316.0015993602559 96.39888613064768 M 316.0015993602559 130.26171550213365 L 316.0015993602559 131.0316645863733 M 324.89804078368655 68.04327673740991 L 324.89804078368655 76.40799695288453 M 324.89804078368655 96.39888613064768 L 324.89804078368655 114.08801532051446 M 369.38024790083966 84.32895443195385 L 369.38024790083966 93.34853573227322 M 369.38024790083966 96.06710090716713 L 369.38024790083966 100.0367037403475 M 396.06957217113154 82.29697730389998 L 396.06957217113154 85.61856212246988 M 396.06957217113154 120.82470691752287 L 396.06957217113154 125.2237642493459 M 404.9660135945622 59.75445239180647 L 404.9660135945622 67.1530555096586 M 404.9660135945622 85.57999209024025 L 404.9660135945622 93.29773111992775 M 476.13754498200717 74.82704036299957 L 476.13754498200717 78.15401669145106 M 476.13754498200717 92.46246181981542 L 476.13754498200717 93.19778082135421 M 493.93042782886846 76.29643417148917 L 493.93042782886846 81.01628634126502 M 493.93042782886846 85.58206574788704 L 493.93042782886846 87.85458716296431 M 502.82686925229905 58.815500209356486 L 502.82686925229905 67.83591097273455 M 502.82686925229905 81.01628634126502 L 502.82686925229905 81.43392099132116 M 520.6197520991603 59.20949516223965 L 520.6197520991603 64.84880713258605 M 520.6197520991603 81.49467916037105 L 520.6197520991603 91.58571936676803 M 538.4126349460215 54.42971428647266 L 538.4126349460215 55.5250202554879 M 538.4126349460215 65.28344577534557 L 538.4126349460215 72.54311383086518 M 547.3090763694522 45.48188154073097 L 547.3090763694522 54.74325132266179 M 547.3090763694522 55.566078676893596 L 547.3090763694522 57.857055645026946 M 609.5841663334666 118.16669254591413 L 609.5841663334666 123.20111858070246 M 609.5841663334666 129.5398752752988 L 609.5841663334666 131.04306970343043 M 618.4806077568971 109.51642967248154 L 618.4806077568971 115.41370465408404 M 618.4806077568971 123.20111858070246 L 618.4806077568971 124.67258604683877 M 636.2734906037584 111.90383172118895 L 636.2734906037584 115.13355350600766 M 636.2734906037584 117.7955078271452 L 636.2734906037584 128.3838111372337 M 654.0663734506197 109.1041865323069 L 654.0663734506197 114.51311513809894 M 654.0663734506197 118.47359387763365 L 654.0663734506197 119.67424165510391 M 689.6521391443422 137.85047302619313 L 689.6521391443422 140.917205319977 M 689.6521391443422 156.05739453045422 L 689.6521391443422 156.15734482902775 M 707.4450219912034 136.68134484495346 L 707.4450219912034 145.80502375913983 M 707.4450219912034 150.71938501618118 L 707.4450219912034 151.0322999550763 M 716.3414634146341 142.52138687550558 L 716.3414634146341 144.11623697162375 M 716.3414634146341 145.8377875499586 L 716.3414634146341 155.84899193695549 M 743.0307876849259 146.23613718389993 L 743.0307876849259 146.83604634110574 M 743.0307876849259 150.3166807011816 L 743.0307876849259 155.4873460433617 M 769.7201119552178 157.9558281060571 L 769.7201119552178 161.5063447288286 M 769.7201119552178 171.9208755281191 L 769.7201119552178 177.72379908679434 M 778.6165533786485 158.07630761533352 L 778.6165533786485 160.94790872455786 M 778.6165533786485 161.50613736306397 L 778.6165533786485 167.33000486397137 M 787.512994802079 113.72139264856843 L 787.512994802079 118.63824229478584 M 787.512994802079 160.93194156067784 L 787.512994802079 161.52894759717822 M 796.4094362255097 109.29247464663217 L 796.4094362255097 112.66133885954801 M 796.4094362255097 118.6069300643199 L 796.4094362255097 123.80123510367291 M 805.3058776489403 108.2722350844294 L 805.3058776489403 108.95923786279887 M 805.3058776489403 112.68477119095634 L 805.3058776489403 118.84788908287265 M 814.202319072371 95.24966506281689 L 814.202319072371 97.16282160771172 M 814.202319072371 108.95923786279887 L 814.202319072371 114.9388370529775 M 831.9952019192323 135.61382588840473 L 831.9952019192323 142.14107806309096 M 831.9952019192323 143.24198290775246 L 831.9952019192323 154.77151942370236 M 849.7880847660936 149.12329072547493 L 849.7880847660936 150.9211519052103 M 849.7880847660936 153.02425549054774 L 849.7880847660936 160.9429319462057 M 858.6845261895241 142.92305436168172 L 858.6845261895241 144.48617749580458 M 858.6845261895241 150.9211519052103 L 858.6845261895241 152.06622565774757 M 876.4774090363853 153.34940500955872 L 876.4774090363853 156.4428874869857 M 876.4774090363853 158.92235993520896 L 876.4774090363853 183.49292202582745" style="stroke-width: 1px;"></path><path class="candle wick down" d="M 4.626149540183927 3.846153846153868 L 4.626149540183927 10.5090232309378 M 4.626149540183927 95.26189964293275 L 4.626149540183927 106.90839045015956 M 13.522590963614554 77.10764904289915 L 13.522590963614554 95.30627591657326 M 13.522590963614554 102.54043798303782 L 13.522590963614554 129.2991236225107 M 31.315473810475808 84.72108309295494 L 31.315473810475808 93.26475996334436 M 31.315473810475808 138.52047181185918 L 31.315473810475808 142.03138157357768 M 49.10835665733706 130.41765455716956 L 49.10835665733706 137.1207529003005 M 49.10835665733706 168.1845591801985 L 49.10835665733706 196.15384615384616 M 66.90123950419832 124.23939896443196 L 66.90123950419832 134.93947242168042 M 66.90123950419832 134.94175344509188 L 66.90123950419832 154.3690224744675 M 84.69412235105956 128.17934849326377 L 84.69412235105956 131.8391468740192 M 84.69412235105956 147.09131359742105 L 84.69412235105956 151.60110424758082 M 120.27988804478207 107.69161094333839 L 120.27988804478207 115.92029921718594 M 120.27988804478207 125.3162493803911 L 120.27988804478207 126.83706989852018 M 129.1763294682127 114.91105004051101 L 129.1763294682127 125.31604201462639 M 129.1763294682127 131.4441150923126 L 129.1763294682127 136.26661331560274 M 138.07277089164333 121.70746297774588 L 138.07277089164333 131.44390772654793 M 138.07277089164333 141.00927571949282 L 138.07277089164333 142.65327150183913 M 146.96921231507397 137.87763794136555 L 146.96921231507397 141.00948308525756 M 146.96921231507397 144.29146104277444 L 146.96921231507397 149.85072982795612 M 155.8656537385046 143.12876120023964 L 155.8656537385046 144.2916684085391 M 155.8656537385046 148.0406340681049 L 155.8656537385046 175.3343233804402 M 164.7620951619352 127.79883231508451 L 164.7620951619352 148.0406340681049 M 164.7620951619352 161.77674968596529 L 164.7620951619352 168.0972581932702 M 173.65853658536582 157.88677530642025 L 173.65853658536582 161.77674968596529 M 173.65853658536582 162.33642988482404 L 173.65853658536582 168.0555776745705 M 200.34786085565773 131.28983496339413 L 200.34786085565773 141.9337122984156 M 200.34786085565773 143.19615507375914 L 200.34786085565773 161.26662990486386 M 227.0371851259496 94.43326604729003 L 227.0371851259496 113.14553792006494 M 227.0371851259496 113.77261199244326 L 227.0371851259496 122.18108638426439 M 235.93362654938022 105.78384590832509 L 235.93362654938022 113.77261199244326 M 235.93362654938022 113.83316279572843 L 235.93362654938022 119.42602483478757 M 244.83006797281087 113.50511015601201 L 244.83006797281087 113.82652709125882 M 244.83006797281087 128.95759220809038 L 244.83006797281087 133.25980972781002 M 253.72650939624148 128.8329653835205 L 253.72650939624148 128.98579395208623 M 253.72650939624148 147.59687133169962 L 253.72650939624148 149.42956995990045 M 262.6229508196721 145.61009994034504 L 262.6229508196721 147.59687133169962 M 262.6229508196721 160.7616942678794 L 262.6229508196721 162.6020654293732 M 307.10515793682526 111.9106747914232 L 307.10515793682526 122.0496164894602 M 307.10515793682526 130.29116144071762 L 307.10515793682526 131.28962759762948 M 333.7944822071172 58.157321272276874 L 333.7944822071172 76.36942692065489 M 333.7944822071172 80.00206038623783 L 333.7944822071172 86.57783614985813 M 342.6909236305478 75.45100394890774 L 342.6909236305478 80.00206038623783 M 342.6909236305478 81.47663833884431 L 342.6909236305478 98.2884029783696 M 351.5873650539784 68.94552517951234 L 351.5873650539784 81.47663833884431 M 351.5873650539784 91.16808471671179 L 351.5873650539784 95.00082614520646 M 360.483806477409 84.61657074755855 L 360.483806477409 91.16808471671179 M 360.483806477409 96.015466831763 L 360.483806477409 106.72590857724525 M 378.2766893242703 91.55855445159553 L 378.2766893242703 93.4014140022654 M 378.2766893242703 119.65868922275327 L 378.2766893242703 120.92154672962623 M 387.1731307477009 118.89309481957189 L 387.1731307477009 119.65868922275327 M 387.1731307477009 120.82470691752287 L 387.1731307477009 132.19187603973194 M 413.86245501799283 54.716708504783355 L 413.86245501799283 67.10494665225391 M 413.86245501799283 68.58761186968275 L 413.86245501799283 76.04697315658473 M 422.7588964414235 50.04392836358883 L 422.7588964414235 68.51441175475236 M 422.7588964414235 71.28834358881463 L 422.7588964414235 74.21759238061871 M 431.65533786485406 59.85606161649744 L 431.65533786485406 71.26491125740628 M 431.65533786485406 78.55008530198097 L 431.65533786485406 79.91890671460298 M 440.5517792882847 74.06351961746492 L 440.5517792882847 78.48704610951964 M 440.5517792882847 79.07492805237433 L 440.5517792882847 87.74302438156893 M 449.44822071171535 75.09599375978352 L 449.44822071171535 79.09794565225323 M 449.44822071171535 84.88573151010716 L 449.44822071171535 91.79972083591299 M 458.34466213514594 71.20187206494498 L 458.34466213514594 84.92430154233679 M 458.34466213514594 88.39892229523711 L 458.34466213514594 91.2429437577596 M 467.2411035585766 80.00164565470847 L 467.2411035585766 88.4291976968797 M 467.2411035585766 92.45064197122892 L 467.2411035585766 97.07448379196005 M 485.0339864054379 77.28432467440255 L 485.0339864054379 78.13037699427801 M 485.0339864054379 85.58206574788704 L 485.0339864054379 86.50878335022118 M 511.7233106757297 65.28012792311077 L 511.7233106757297 67.81558912779639 M 511.7233106757297 81.52308827013155 L 511.7233106757297 87.4319757345559 M 529.5161935225909 44.84858649541238 L 529.5161935225909 64.84880713258605 M 529.5161935225909 65.2564882259378 L 529.5161935225909 66.96227900615725 M 556.2055177928828 42.17315339957091 L 556.2055177928828 54.70841387419631 M 556.2055177928828 57.56632884295209 L 556.2055177928828 60.9098944325776 M 565.1019592163135 38.77733163724727 L 565.1019592163135 57.56612147718744 M 565.1019592163135 61.929719263251 L 565.1019592163135 68.5986022552105 M 573.998400639744 58.76386613395229 L 573.998400639744 61.9666303693632 M 573.998400639744 66.90815654157697 L 573.998400639744 70.71373305489917 M 582.8948420631747 54.632725370089844 L 582.8948420631747 66.87891796875775 M 582.8948420631747 77.52694261907274 L 582.8948420631747 80.89165951669509 M 591.7912834866053 72.19059203091709 L 591.7912834866053 77.52694261907274 M 591.7912834866053 80.66770449084571 L 591.7912834866053 82.32994846048337 M 600.687724910036 80.30543649995789 L 600.687724910036 80.66252034672883 M 600.687724910036 129.5398752752988 L 600.687724910036 130.59370809137897 M 627.3770491803277 114.72732397300862 L 627.3770491803277 115.39110178573442 M 627.3770491803277 117.8145854774953 L 627.3770491803277 128.38298167417497 M 645.169932027189 107.44277202572795 L 645.169932027189 115.1337608717723 M 645.169932027189 118.47297178033956 L 645.169932027189 123.0988872587175 M 662.9628148740503 107.71711693239344 L 662.9628148740503 114.51311513809894 M 662.9628148740503 141.8437155565465 L 662.9628148740503 144.60479071319884 M 671.8592562974809 138.48687855798178 L 671.8592562974809 141.8833224175995 M 671.8592562974809 146.06257203886668 L 671.8592562974809 150.98958260755316 M 680.7556977209116 143.2925801543332 L 680.7556977209116 146.06257203886668 M 680.7556977209116 156.05739453045422 L 680.7556977209116 156.79582401846318 M 698.5485805677728 134.8928151246285 L 698.5485805677728 140.8867225525697 M 698.5485805677728 150.7477941259417 L 698.5485805677728 156.38109248911246 M 725.2379048380647 137.69204558198118 L 725.2379048380647 144.09176781139206 M 725.2379048380647 147.84052610519313 L 725.2379048380647 151.91671494141667 M 734.1343462614954 145.6824705922167 L 734.1343462614954 147.8587742924846 M 734.1343462614954 150.32808581823872 L 734.1343462614954 154.0436655896918 M 751.9272291083566 145.6546835797502 L 751.9272291083566 146.83604634110574 M 751.9272291083566 151.05511018919057 L 751.9272291083566 154.43537951916355 M 760.8236705317872 143.10968354988955 L 760.8236705317872 151.08621505389186 M 760.8236705317872 171.9208755281191 L 760.8236705317872 174.84680646768845 M 823.0987604958016 88.80058978141325 L 823.0987604958016 97.16904258065205 M 823.0987604958016 143.2430197365758 L 823.0987604958016 149.745388019501 M 840.8916433426629 139.99422030140693 L 840.8916433426629 142.13153923791592 M 840.8916433426629 153.02425549054774 L 840.8916433426629 157.2727652772165 M 867.5809676129546 144.41069635746277 L 867.5809676129546 144.50712143803676 M 867.5809676129546 158.94869538732274 L 867.5809676129546 160.61923398754746 M 885.3738504598159 154.41899762375425 L 885.3738504598159 156.4428874869857 M 885.3738504598159 166.59634478854994 L 885.3738504598159 173.55367355917292" style="stroke-width: 1px;"></path><path class="candle wick equal" style="stroke-width: 1px;"></path></g></g><g class="x axis" transform="translate(0,200)" fill="none" font-size="10" font-family="sans-serif" text-anchor="middle"><path class="domain" stroke="#000" d="M0.5,6V0.5H890.5V6"></path><g class="tick" opacity="1" transform="translate(4.626149540183927,0)"><line stroke="#000" y2="6" x1="0.5" x2="0.5"></line><text fill="#000" y="9" x="0.5" dy="0.71em">Jun 13</text></g><g class="tick" opacity="1" transform="translate(66.90123950419832,0)"><line stroke="#000" y2="6" x1="0.5" x2="0.5"></line><text fill="#000" y="9" x="0.5" dy="0.71em">Jun 20</text></g><g class="tick" opacity="1" transform="translate(129.1763294682127,0)"><line stroke="#000" y2="6" x1="0.5" x2="0.5"></line><text fill="#000" y="9" x="0.5" dy="0.71em">Jun 27</text></g><g class="tick" opacity="1" transform="translate(191.4514194322271,0)"><line stroke="#000" y2="6" x1="0.5" x2="0.5"></line><text fill="#000" y="9" x="0.5" dy="0.71em">Jul  4</text></g><g class="tick" opacity="1" transform="translate(253.72650939624148,0)"><line stroke="#000" y2="6" x1="0.5" x2="0.5"></line><text fill="#000" y="9" x="0.5" dy="0.71em">Jul 11</text></g><g class="tick" opacity="1" transform="translate(316.0015993602559,0)"><line stroke="#000" y2="6" x1="0.5" x2="0.5"></line><text fill="#000" y="9" x="0.5" dy="0.71em">Jul 18</text></g><g class="tick" opacity="1" transform="translate(378.2766893242703,0)"><line stroke="#000" y2="6" x1="0.5" x2="0.5"></line><text fill="#000" y="9" x="0.5" dy="0.71em">Jul 25</text></g><g class="tick" opacity="1" transform="translate(440.5517792882847,0)"><line stroke="#000" y2="6" x1="0.5" x2="0.5"></line><text fill="#000" y="9" x="0.5" dy="0.71em">Aug  1</text></g><g class="tick" opacity="1" transform="translate(502.82686925229905,0)"><line stroke="#000" y2="6" x1="0.5" x2="0.5"></line><text fill="#000" y="9" x="0.5" dy="0.71em">Aug  8</text></g><g class="tick" opacity="1" transform="translate(565.1019592163135,0)"><line stroke="#000" y2="6" x1="0.5" x2="0.5"></line><text fill="#000" y="9" x="0.5" dy="0.71em">Aug 15</text></g><g class="tick" opacity="1" transform="translate(627.3770491803277,0)"><line stroke="#000" y2="6" x1="0.5" x2="0.5"></line><text fill="#000" y="9" x="0.5" dy="0.71em">Aug 22</text></g><g class="tick" opacity="1" transform="translate(689.6521391443422,0)"><line stroke="#000" y2="6" x1="0.5" x2="0.5"></line><text fill="#000" y="9" x="0.5" dy="0.71em">Aug 29</text></g><g class="tick" opacity="1" transform="translate(751.9272291083566,0)"><line stroke="#000" y2="6" x1="0.5" x2="0.5"></line><text fill="#000" y="9" x="0.5" dy="0.71em">Sep  5</text></g><g class="tick" opacity="1" transform="translate(814.202319072371,0)"><line stroke="#000" y2="6" x1="0.5" x2="0.5"></line><text fill="#000" y="9" x="0.5" dy="0.71em">Sep 12</text></g><g class="tick" opacity="1" transform="translate(876.4774090363853,0)"><line stroke="#000" y2="6" x1="0.5" x2="0.5"></line><text fill="#000" y="9" x="0.5" dy="0.71em">Sep 19</text></g></g><g class="y axis" fill="none" font-size="10" font-family="sans-serif" text-anchor="end"><path class="domain" stroke="#000" d="M-6,200.5H0.5V0.5H-6"></path><g class="tick" opacity="1" transform="translate(0,188.3154202491176)"><line stroke="#000" x2="-6" y1="0.5" y2="0.5"></line><text fill="#000" x="-9" y="0.5" dy="0.32em">18,000</text></g><g class="tick" opacity="1" transform="translate(0,167.57884378158178)"><line stroke="#000" x2="-6" y1="0.5" y2="0.5"></line><text fill="#000" x="-9" y="0.5" dy="0.32em">19,000</text></g><g class="tick" opacity="1" transform="translate(0,146.84226731404598)"><line stroke="#000" x2="-6" y1="0.5" y2="0.5"></line><text fill="#000" x="-9" y="0.5" dy="0.32em">20,000</text></g><g class="tick" opacity="1" transform="translate(0,126.10569084651019)"><line stroke="#000" x2="-6" y1="0.5" y2="0.5"></line><text fill="#000" x="-9" y="0.5" dy="0.32em">21,000</text></g><g class="tick" opacity="1" transform="translate(0,105.36911437897437)"><line stroke="#000" x2="-6" y1="0.5" y2="0.5"></line><text fill="#000" x="-9" y="0.5" dy="0.32em">22,000</text></g><g class="tick" opacity="1" transform="translate(0,84.63253791143856)"><line stroke="#000" x2="-6" y1="0.5" y2="0.5"></line><text fill="#000" x="-9" y="0.5" dy="0.32em">23,000</text></g><g class="tick" opacity="1" transform="translate(0,63.89596144390276)"><line stroke="#000" x2="-6" y1="0.5" y2="0.5"></line><text fill="#000" x="-9" y="0.5" dy="0.32em">24,000</text></g><g class="tick" opacity="1" transform="translate(0,43.159384976366965)"><line stroke="#000" x2="-6" y1="0.5" y2="0.5"></line><text fill="#000" x="-9" y="0.5" dy="0.32em">25,000</text></g><g class="tick" opacity="1" transform="translate(0,22.42280850883114)"><line stroke="#000" x2="-6" y1="0.5" y2="0.5"></line><text fill="#000" x="-9" y="0.5" dy="0.32em">26,000</text></g><g class="tick" opacity="1" transform="translate(0,1.6862320412953125)"><line stroke="#000" x2="-6" y1="0.5" y2="0.5"></line><text fill="#000" x="-9" y="0.5" dy="0.32em">27,000</text></g><text transform="rotate(-90)" y="6" dy=".71em" style="text-anchor: end;">Price ($)</text></g></g></svg>