<?xml version="1.0" encoding="utf-8"?>
<!DOCTYPE svg PUBLIC "-//W3C//DTD SVG 1.1//EN" "http://www.w3.org/Graphics/SVG/1.1/DTD/svg11.dtd">
<svg version="1.1" xmlns="http://www.w3.org/2000/svg" width="960" height="250"><g transform="translate(50,20)"><style>.axis path,.axis line{fill:none;stroke:#000;shape-rendering:crispEdges;}path.candle{stroke:#000000;}path.candle.body{stroke-width:0;}path.candle.up{fill:#00AA00;stroke:#00AA00;}path.candle.down{fill:#FF0000;stroke:#FF0000;}</style><g class="candlestick"><g class="data"><path class="candle body up" d="M 9.964014394242305 185.8749075181988 l 7.1171531387445 0 L 17.081167532986804 183.97481749070744 l -7.1171531387445 0 L 9.964014394242305 185.8749075181988 M 36.65333866453418 192.53561020336346 l 7.1171531387445 0 L 43.77049180327868 191.08534794061467 l -7.1171531387445 0 L 36.65333866453418 192.53561020336346 M 54.446221511395436 194.8035886293864 l 7.1171531387445 0 L 61.563374650139934 188.41799575329557 l -7.1171531387445 0 L 54.446221511395436 194.8035886293864 M 72.23910435825668 189.0599616539251 l 7.1171531387445 0 L 79.35625749700118 188.51761337646863 l -7.1171531387445 0 L 72.23910435825668 189.0599616539251 M 81.13554578168731 188.5177424148406 l 7.1171531387445 0 L 88.25269892043181 187.9285532083533 l -7.1171531387445 0 L 81.13554578168731 188.5177424148406 M 98.92842862854857 188.93685904705058 l 7.1171531387445 0 L 106.04558176729307 187.07393207069114 l -7.1171531387445 0 L 98.92842862854857 188.93685904705058 M 143.4106357457017 190.92456612912034 l 7.1171531387445 0 L 150.5277888844462 189.31726416766483 l -7.1171531387445 0 L 143.4106357457017 190.92456612912034 M 152.30707716913233 189.3173932060368 l 7.1171531387445 0 L 159.42423030787683 187.69680029226677 l -7.1171531387445 0 L 152.30707716913233 189.3173932060368 M 170.09996001599356 190.18156318322593 l 7.1171531387445 0 L 177.21711315473806 189.32036108859248 l -7.1171531387445 0 L 170.09996001599356 190.18156318322593 M 178.9964014394242 189.3202320502205 l 7.1171531387445 0 L 186.1135545781687 185.9759445634637 l -7.1171531387445 0 L 178.9964014394242 189.3202320502205 M 187.89284286285485 185.9776220622995 l 7.1171531387445 0 L 195.00999600159935 184.36206164503693 l -7.1171531387445 0 L 187.89284286285485 185.9776220622995 M 196.78928428628546 184.36206164503693 l 7.1171531387445 0 L 203.90643742502996 181.23184881740463 l -7.1171531387445 0 L 196.78928428628546 184.36206164503693 M 205.68572570971608 181.23184881740463 l 7.1171531387445 0 L 212.80287884846058 180.253737957752 l -7.1171531387445 0 L 205.68572570971608 181.23184881740463 M 214.5821671331467 180.253737957752 l 7.1171531387445 0 L 221.6993202718912 178.1990599606216 l -7.1171531387445 0 L 214.5821671331467 180.253737957752 M 241.2714914034386 179.62312743385726 l 7.1171531387445 0 L 248.3886445421831 178.49752571502484 l -7.1171531387445 0 L 241.2714914034386 179.62312743385726 M 259.06437425029986 180.89609097349748 l 7.1171531387445 0 L 266.1815273890444 180.3675498018435 l -7.1171531387445 0 L 259.06437425029986 180.89609097349748 M 267.9608156737305 180.36613037975167 l 7.1171531387445 0 L 275.07796881247504 178.52307531267806 l -7.1171531387445 0 L 267.9608156737305 180.36613037975167 M 276.85725709716115 178.52307531267806 l 7.1171531387445 0 L 283.9744102359057 175.3186654211539 l -7.1171531387445 0 L 276.85725709716115 178.52307531267806 M 285.7536985205918 175.3187944595259 l 7.1171531387445 0 L 292.8708516593363 173.2731491484345 l -7.1171531387445 0 L 285.7536985205918 175.3187944595259 M 294.65013994402244 173.2730201100625 l 7.1171531387445 0 L 301.76729308276697 162.03429406358455 l -7.1171531387445 0 L 294.65013994402244 173.2730201100625 M 303.54658136745303 162.03700386939624 l 7.1171531387445 0 L 310.66373450619756 159.61405035861827 l -7.1171531387445 0 L 303.54658136745303 162.03700386939624 M 321.3394642143143 160.20065879766588 l 7.1171531387445 0 L 328.45661735305885 157.76609183340918 l -7.1171531387445 0 L 321.3394642143143 160.20065879766588 M 339.13234706117555 158.82536782904089 l 7.1171531387445 0 L 346.2495001999201 158.53438630021282 l -7.1171531387445 0 L 339.13234706117555 158.82536782904089 M 348.02878848460614 158.53490245370077 l 7.1171531387445 0 L 355.14594162335067 150.99880345298425 l -7.1171531387445 0 L 348.02878848460614 158.53490245370077 M 365.8216713314674 155.77025533390434 l 7.1171531387445 0 L 372.93882447021196 153.32755895221254 l -7.1171531387445 0 L 365.8216713314674 155.77025533390434 M 374.7181127548981 153.32768799058454 l 7.1171531387445 0 L 381.8352658936426 151.98039834868047 l -7.1171531387445 0 L 374.7181127548981 153.32768799058454 M 383.61455417832866 151.98039834868047 l 7.1171531387445 0 L 390.7317073170732 149.0009023395276 l -7.1171531387445 0 L 383.61455417832866 151.98039834868047 M 410.3038784486206 152.11550152414964 l 7.1171531387445 0 L 417.4210315873651 146.00037307574107 l -7.1171531387445 0 L 410.3038784486206 152.11550152414964 M 419.20031987205124 146.00037307574107 l 7.1171531387445 0 L 426.31747301079577 144.44571877005578 l -7.1171531387445 0 L 419.20031987205124 146.00037307574107 M 428.0967612954818 144.44571877005578 l 7.1171531387445 0 L 435.21391443422635 125.78664114253257 l -7.1171531387445 0 L 428.0967612954818 144.44571877005578 M 454.7860855657737 135.74479038542316 l 7.1171531387445 0 L 461.90323870451823 127.26955011339375 l -7.1171531387445 0 L 454.7860855657737 135.74479038542316 M 481.47540983606564 129.56501371264972 l 7.1171531387445 0 L 488.59256297481016 124.57084160168208 l -7.1171531387445 0 L 481.47540983606564 129.56501371264972 M 490.3718512594962 124.5707125633101 l 7.1171531387445 0 L 497.48900439824075 116.73021204307898 l -7.1171531387445 0 L 490.3718512594962 124.5707125633101 M 499.2682926829268 116.73034108145097 l 7.1171531387445 0 L 506.38544582167134 116.35806537827185 l -7.1171531387445 0 L 499.2682926829268 116.73034108145097 M 525.9576169532187 121.05119096739654 l 7.1171531387445 0 L 533.0747700919632 111.28853485806451 l -7.1171531387445 0 L 525.9576169532187 121.05119096739654 M 534.8540583766493 111.29485773829177 l 7.1171531387445 0 L 541.9712115153937 99.08395659727256 l -7.1171531387445 0 L 534.8540583766493 111.29485773829177 M 543.75049980008 99.08395659727256 l 7.1171531387445 0 L 550.8676529388244 97.57756264271 l -7.1171531387445 0 L 543.75049980008 99.08395659727256 M 552.6469412235106 97.55652938807629 l 7.1171531387445 0 L 559.764094362255 97.23303018950782 l -7.1171531387445 0 L 552.6469412235106 97.55652938807629 M 561.5433826469413 97.23315922787978 l 7.1171531387445 0 L 568.6605357856857 86.22799263469621 l -7.1171531387445 0 L 561.5433826469413 97.23315922787978 M 570.4398240703717 86.22812167306817 l 7.1171531387445 0 L 577.5569772091162 85.60693095032839 l -7.1171531387445 0 L 570.4398240703717 86.22812167306817 M 597.1291483406637 89.93991044324063 l 7.1171531387445 0 L 604.2463014794082 79.72007138196278 l -7.1171531387445 0 L 597.1291483406637 89.93991044324063 M 632.7149140343862 105.79201636495603 l 7.1171531387445 0 L 639.8320671731307 98.30366156187426 l -7.1171531387445 0 L 632.7149140343862 105.79201636495603 M 641.6113554578168 98.30379060024623 l 7.1171531387445 0 L 648.7285085965613 92.30157072732527 l -7.1171531387445 0 L 641.6113554578168 98.30379060024623 M 650.5077968812475 92.30144168895332 l 7.1171531387445 0 L 657.624950019992 72.80542118073001 l -7.1171531387445 0 L 650.5077968812475 92.30144168895332 M 668.3006797281087 84.81773226726304 l 7.1171531387445 0 L 675.4178328668531 79.15127023824921 l -7.1171531387445 0 L 668.3006797281087 84.81773226726304 M 677.1971211515394 79.15139927662118 l 7.1171531387445 0 L 684.3142742902838 76.34068545802579 l -7.1171531387445 0 L 677.1971211515394 79.15139927662118 M 694.9900039984005 86.29457643464089 l 7.1171531387445 0 L 702.107157137145 79.87943377136526 l -7.1171531387445 0 L 694.9900039984005 86.29457643464089 M 703.8864454218311 79.87943377136526 l 7.1171531387445 0 L 711.0035985605756 77.14717528293724 l -7.1171531387445 0 L 703.8864454218311 79.87943377136526 M 730.5757696921231 90.5063888962584 l 7.1171531387445 0 L 737.6929228308676 87.70406257184212 l -7.1171531387445 0 L 730.5757696921231 90.5063888962584 M 757.265093962415 94.21727439782697 l 7.1171531387445 0 L 764.3822471011595 84.253447466569 l -7.1171531387445 0 L 757.265093962415 94.21727439782697 M 766.1615353858456 84.253447466569 l 7.1171531387445 0 L 773.27868852459 79.52677190072797 l -7.1171531387445 0 L 766.1615353858456 84.253447466569 M 775.0579768092763 79.52677190072797 l 7.1171531387445 0 L 782.1751299480208 78.26026027968706 l -7.1171531387445 0 L 775.0579768092763 79.52677190072797 M 783.9544182327068 78.25316316922783 l 7.1171531387445 0 L 791.0715713714512 76.28223107551624 l -7.1171531387445 0 L 783.9544182327068 78.25316316922783 M 792.8508596561375 76.28223107551624 l 7.1171531387445 0 L 799.9680127948819 51.64764451807315 l -7.1171531387445 0 L 792.8508596561375 76.28223107551624 M 801.747301079568 51.64764451807315 l 7.1171531387445 0 L 808.8644542183125 32.7868799151361 l -7.1171531387445 0 L 801.747301079568 51.64764451807315 M 810.6437425029987 32.787008953508064 l 7.1171531387445 0 L 817.7608956417432 28.783722501019668 l -7.1171531387445 0 L 810.6437425029987 32.787008953508064 M 819.5401839264293 28.783722501019668 l 7.1171531387445 0 L 826.6573370651738 19.567543897047614 l -7.1171531387445 0 L 819.5401839264293 28.783722501019668 M 846.2295081967213 33.7840884538426 l 7.1171531387445 0 L 853.3466613354658 19.707163415536257 l -7.1171531387445 0 L 846.2295081967213 33.7840884538426 M 864.0223910435824 27.170742851196763 l 7.1171531387445 0 L 871.1395441823269 20.759987492568655 l -7.1171531387445 0 L 864.0223910435824 27.170742851196763 M 872.9188324670131 20.762697298380346 l 7.1171531387445 0 L 880.0359856057576 8.072031490317812 l -7.1171531387445 0 L 872.9188324670131 20.762697298380346 M 881.8152738904437 8.072031490317812 l 7.1171531387445 0 L 888.9324270291881 6.668352079855936 l -7.1171531387445 0 L 881.8152738904437 8.072031490317812"></path><path class="candle body down" d="M 1.0675729708116766 185.78974219268815 l 7.1171531387445 0 L 8.184726109556177 185.8750365565708 l -7.1171531387445 0 L 1.0675729708116766 185.78974219268815 M 18.860455817672932 183.97494652907943 l 7.1171531387445 0 L 25.977608956417434 186.0442058622442 l -7.1171531387445 0 L 18.860455817672932 183.97494652907943 M 27.75689724110356 186.0442058622442 l 7.1171531387445 0 L 34.87405037984806 192.53561020336346 l -7.1171531387445 0 L 27.75689724110356 186.0442058622442 M 45.54978008796481 191.08534794061467 l 7.1171531387445 0 L 52.66693322670931 194.8035886293864 l -7.1171531387445 0 L 45.54978008796481 191.08534794061467 M 63.342662934826066 188.41786671492358 l 7.1171531387445 0 L 70.45981607357056 189.05867127020522 l -7.1171531387445 0 L 63.342662934826066 188.41786671492358 M 90.03198720511796 187.92842416998133 l 7.1171531387445 0 L 97.14914034386246 188.93673000867858 l -7.1171531387445 0 L 90.03198720511796 187.92842416998133 M 107.82487005197919 187.07264168697128 l 7.1171531387445 0 L 114.94202319072369 187.89835822930863 l -7.1171531387445 0 L 107.82487005197919 187.07264168697128 M 116.72131147540982 187.89835822930863 l 7.1171531387445 0 L 123.83846461415432 189.93019643459752 l -7.1171531387445 0 L 116.72131147540982 187.89835822930863 M 125.61775289884046 189.93019643459752 l 7.1171531387445 0 L 132.73490603758498 190.55900042128448 l -7.1171531387445 0 L 125.61775289884046 189.93019643459752 M 134.51419432227107 190.55900042128448 l 7.1171531387445 0 L 141.63134746101557 190.92469516749233 l -7.1171531387445 0 L 134.51419432227107 190.55900042128448 M 161.20351859256294 187.69692933063874 l 7.1171531387445 0 L 168.32067173130744 190.18143414485394 l -7.1171531387445 0 L 161.20351859256294 187.69692933063874 M 223.47860855657734 178.1991889989936 l 7.1171531387445 0 L 230.59576169532184 179.58867418853703 l -7.1171531387445 0 L 223.47860855657734 178.1991889989936 M 232.37504998000796 179.58854515016506 l 7.1171531387445 0 L 239.49220311875246 179.62312743385726 l -7.1171531387445 0 L 232.37504998000796 179.58854515016506 M 250.16793282686922 178.49739667665287 l 7.1171531387445 0 L 257.28508596561375 180.8950586665216 l -7.1171531387445 0 L 250.16793282686922 178.49739667665287 M 312.4430227908837 159.60992113071472 l 7.1171531387445 0 L 319.5601759296282 160.2005297592939 l -7.1171531387445 0 L 312.4430227908837 159.60992113071472 M 330.23590563774496 157.76609183340918 l 7.1171531387445 0 L 337.3530587764895 158.83581993717172 l -7.1171531387445 0 L 330.23590563774496 157.76609183340918 M 356.9252299080368 150.99893249135624 l 7.1171531387445 0 L 364.0423830467813 155.77025533390434 l -7.1171531387445 0 L 356.9252299080368 150.99893249135624 M 392.5109956017593 149.0009023395276 l 7.1171531387445 0 L 399.62814874050383 149.38156553688583 l -7.1171531387445 0 L 392.5109956017593 149.0009023395276 M 401.40743702518995 149.3816945752578 l 7.1171531387445 0 L 408.5245901639345 152.11885652182124 l -7.1171531387445 0 L 401.40743702518995 149.3816945752578 M 436.99320271891247 125.78664114253257 l 7.1171531387445 0 L 444.110355857657 125.91696989823828 l -7.1171531387445 0 L 436.99320271891247 125.78664114253257 M 445.8896441423431 125.91684085986627 l 7.1171531387445 0 L 453.00679728108764 135.74479038542316 l -7.1171531387445 0 L 445.8896441423431 125.91684085986627 M 463.68252698920435 127.26955011339375 l 7.1171531387445 0 L 470.7996801279489 129.16241399205393 l -7.1171531387445 0 L 463.68252698920435 127.26955011339375 M 472.57896841263494 129.16241399205393 l 7.1171531387445 0 L 479.69612155137946 129.56501371264972 l -7.1171531387445 0 L 472.57896841263494 129.16241399205393 M 508.16473410635746 116.3665819108229 l 7.1171531387445 0 L 515.281887245102 119.58725063721727 l -7.1171531387445 0 L 508.16473410635746 116.3665819108229 M 517.0611755297881 119.59873505232402 l 7.1171531387445 0 L 524.1783286685326 121.05119096739654 l -7.1171531387445 0 L 517.0611755297881 119.59873505232402 M 579.3362654938024 85.60693095032839 l 7.1171531387445 0 L 586.4534186325469 89.34091432048237 l -7.1171531387445 0 L 579.3362654938024 85.60693095032839 M 588.232706917233 89.34801143094158 l 7.1171531387445 0 L 595.3498600559775 89.9400394816126 l -7.1171531387445 0 L 588.232706917233 89.34801143094158 M 606.0255897640943 79.72020042033475 l 7.1171531387445 0 L 613.1427429028388 85.40937320281805 l -7.1171531387445 0 L 606.0255897640943 79.72020042033475 M 614.9220311875249 85.41298627723364 l 7.1171531387445 0 L 622.0391843262694 105.6637522232021 l -7.1171531387445 0 L 614.9220311875249 85.41298627723364 M 623.8184726109555 105.6637522232021 l 7.1171531387445 0 L 630.9356257497 105.79214540332799 l -7.1171531387445 0 L 623.8184726109555 105.6637522232021 M 659.4042383046781 72.80542118073001 l 7.1171531387445 0 L 666.5213914434225 84.81773226726304 l -7.1171531387445 0 L 659.4042383046781 72.80542118073001 M 686.09356257497 76.33500776965845 l 7.1171531387445 0 L 693.2107157137144 86.29444739626888 l -7.1171531387445 0 L 686.09356257497 76.33500776965845 M 712.7828868452618 77.15659508409225 l 7.1171531387445 0 L 719.9000399840063 79.63116394366449 l -7.1171531387445 0 L 712.7828868452618 77.15659508409225 M 721.6793282686924 79.63116394366449 l 7.1171531387445 0 L 728.7964814074369 90.5063888962584 l -7.1171531387445 0 L 721.6793282686924 79.63116394366449 M 739.4722111155537 87.7039335334701 l 7.1171531387445 0 L 746.5893642542982 91.40294750481594 l -7.1171531387445 0 L 739.4722111155537 87.7039335334701 M 748.3686525389844 91.40062481412019 l 7.1171531387445 0 L 755.4858056777289 94.21727439782697 l -7.1171531387445 0 L 748.3686525389844 91.40062481412019 M 828.43662534986 19.56767293541961 l 7.1171531387445 0 L 835.5537784886045 24.291509657076887 l -7.1171531387445 0 L 828.43662534986 19.56767293541961 M 837.3330667732906 24.291251580332926 l 7.1171531387445 0 L 844.4502199120351 33.78628210616637 l -7.1171531387445 0 L 837.3330667732906 24.291251580332926 M 855.1259496201519 19.707163415536257 l 7.1171531387445 0 L 862.2431027588964 27.1659684314333 l -7.1171531387445 0 L 855.1259496201519 19.707163415536257"></path><path class="candle body equal"></path><path class="candle wick up" d="M 13.522590963614554 182.69553107083988 L 13.522590963614554 183.97481749070744 M 13.522590963614554 185.8749075181988 L 13.522590963614554 186.46887114444957 M 40.21191523390643 190.52919255735577 L 40.21191523390643 191.08534794061467 M 40.21191523390643 192.53561020336346 L 40.21191523390643 193.36429462825646 M 58.004798080767685 187.65770166555504 L 58.004798080767685 188.41799575329557 M 58.004798080767685 194.8035886293864 L 58.004798080767685 195.4556195230308 M 75.79768092762893 187.32607304955144 L 75.79768092762893 188.51761337646863 M 75.79768092762893 189.0599616539251 L 75.79768092762893 189.60050339417373 M 84.69412235105956 187.60918323768837 L 84.69412235105956 187.9285532083533 M 84.69412235105956 188.5177424148406 L 84.69412235105956 190.24388871689507 M 102.48700519792082 186.72475423609748 L 102.48700519792082 187.07393207069114 M 102.48700519792082 188.93685904705058 L 102.48700519792082 189.71418619989322 M 146.96921231507397 188.92705213077966 L 146.96921231507397 189.31726416766483 M 146.96921231507397 190.92456612912034 L 146.96921231507397 191.23683898932603 M 155.8656537385046 187.62208707488696 L 155.8656537385046 187.69680029226677 M 155.8656537385046 189.3173932060368 L 155.8656537385046 189.97523082642059 M 173.65853658536582 189.1206096887584 L 173.65853658536582 189.32036108859248 M 173.65853658536582 190.18156318322593 L 173.65853658536582 190.87166039660616 M 182.55497800879647 185.6607038207023 L 182.55497800879647 185.9759445634637 M 182.55497800879647 189.3202320502205 L 182.55497800879647 191.07502487085583 M 191.4514194322271 183.66525443631343 L 191.4514194322271 184.36206164503693 M 191.4514194322271 185.9776220622995 L 191.4514194322271 187.22206812173087 M 200.34786085565773 178.67972789626884 L 200.34786085565773 181.23184881740463 M 200.34786085565773 184.36206164503693 L 200.34786085565773 184.36373914387272 M 209.24430227908834 179.27330440740366 L 209.24430227908834 180.253737957752 M 209.24430227908834 181.23184881740463 L 209.24430227908834 182.16376393988628 M 218.14074370251896 175.72462013942132 L 218.14074370251896 178.1990599606216 M 218.14074370251896 180.253737957752 L 218.14074370251896 182.79605196261687 M 244.83006797281087 177.04945710459984 L 244.83006797281087 178.49752571502484 M 244.83006797281087 179.62312743385726 L 244.83006797281087 181.77884247625255 M 262.6229508196721 179.82274979531934 L 262.6229508196721 180.3675498018435 M 262.6229508196721 180.89609097349748 L 262.6229508196721 181.72503347513447 M 271.51939224310274 178.4990741754887 L 271.51939224310274 178.52307531267806 M 271.51939224310274 180.36613037975167 L 271.51939224310274 180.54794544587972 M 280.4158336665334 174.38287914751265 L 280.4158336665334 175.3186654211539 M 280.4158336665334 178.52307531267806 L 280.4158336665334 179.7512625372392 M 289.31227508996403 171.61642549050842 L 289.31227508996403 173.2731491484345 M 289.31227508996403 175.3187944595259 L 289.31227508996403 176.2720009133852 M 298.2087165133947 156.3989302822193 L 298.2087165133947 162.03429406358455 M 298.2087165133947 173.2730201100625 L 298.2087165133947 173.57045355748983 M 307.10515793682526 156.82062768186898 L 307.10515793682526 159.61405035861827 M 307.10515793682526 162.03700386939624 L 307.10515793682526 163.36184083457476 M 324.89804078368655 157.05638078748711 L 324.89804078368655 157.76609183340918 M 324.89804078368655 160.20065879766588 L 324.89804078368655 160.8853363994227 M 342.6909236305478 156.12627220221324 L 342.6909236305478 158.53438630021282 M 342.6909236305478 158.82536782904089 L 342.6909236305478 162.24023930527392 M 351.5873650539784 149.02296790113718 L 351.5873650539784 150.99880345298425 M 351.5873650539784 158.53490245370077 L 351.5873650539784 158.95143831847102 M 369.38024790083966 150.9118315902658 L 369.38024790083966 153.32755895221254 M 369.38024790083966 155.77025533390434 L 369.38024790083966 160.23020858485063 M 378.2766893242703 150.56252471730016 L 378.2766893242703 151.98039834868047 M 378.2766893242703 153.32768799058454 L 378.2766893242703 157.72389628576983 M 387.1731307477009 145.01361664516543 L 387.1731307477009 149.0009023395276 M 387.1731307477009 151.98039834868047 L 387.1731307477009 153.89790855638992 M 413.86245501799283 145.4509276878254 L 413.86245501799283 146.00037307574107 M 413.86245501799283 152.11550152414964 L 413.86245501799283 155.53037300038267 M 422.7588964414235 142.9619065305907 L 422.7588964414235 144.44571877005578 M 422.7588964414235 146.00037307574107 L 422.7588964414235 152.43332303435074 M 431.65533786485406 123.72228526750325 L 431.65533786485406 125.78664114253257 M 431.65533786485406 144.44571877005578 L 431.65533786485406 145.0967173567243 M 458.34466213514594 125.01266898736156 L 458.34466213514594 127.26955011339375 M 458.34466213514594 135.74479038542316 L 458.34466213514594 137.22124743768507 M 485.0339864054379 120.94796026980788 L 485.0339864054379 124.57084160168208 M 485.0339864054379 129.56501371264972 L 485.0339864054379 129.88154483913095 M 493.93042782886846 116.09998863430017 L 493.93042782886846 116.73021204307898 M 493.93042782886846 124.5707125633101 L 493.93042782886846 127.71421634325694 M 502.82686925229905 114.30248411253756 L 502.82686925229905 116.35806537827185 M 502.82686925229905 116.73034108145097 L 502.82686925229905 121.11119381036994 M 529.5161935225909 109.1409492331043 L 529.5161935225909 111.28853485806451 M 529.5161935225909 121.05119096739654 L 529.5161935225909 122.25124782686477 M 538.4126349460215 96.51041530638716 L 538.4126349460215 99.08395659727256 M 538.4126349460215 111.29485773829177 L 538.4126349460215 113.55406155501974 M 547.3090763694522 88.53442449557092 L 547.3090763694522 97.57756264271 M 547.3090763694522 99.08395659727256 L 547.3090763694522 104.82526088203817 M 556.2055177928828 92.36854164238595 L 556.2055177928828 97.23303018950782 M 556.2055177928828 97.55652938807629 L 556.2055177928828 103.26131581356988 M 565.1019592163135 84.16918540966223 L 565.1019592163135 86.22799263469621 M 565.1019592163135 97.23315922787978 L 565.1019592163135 98.04313308883485 M 573.998400639744 82.2248352205797 L 573.998400639744 85.60693095032839 M 573.998400639744 86.22812167306817 L 573.998400639744 90.70678548795237 M 600.687724910036 76.37849370101766 L 600.687724910036 79.72007138196278 M 600.687724910036 89.93991044324063 L 600.687724910036 94.45638250111669 M 636.2734906037584 96.23078915429384 L 636.2734906037584 98.30366156187426 M 636.2734906037584 105.79201636495603 L 636.2734906037584 109.32728064225182 M 645.169932027189 90.04262498734134 L 645.169932027189 92.30157072732527 M 645.169932027189 98.30379060024623 L 645.169932027189 100.92120493760684 M 654.0663734506197 70.64673825577904 L 654.0663734506197 72.80542118073001 M 654.0663734506197 92.30144168895332 L 654.0663734506197 92.30157072732527 M 671.8592562974809 77.37170205019261 L 671.8592562974809 79.15127023824921 M 671.8592562974809 84.81773226726304 L 671.8592562974809 90.43038529515874 M 680.7556977209116 74.06831972735533 L 680.7556977209116 76.34068545802579 M 680.7556977209116 79.15139927662118 L 680.7556977209116 83.49844395207988 M 698.5485805677728 79.50083518795883 L 698.5485805677728 79.87943377136526 M 698.5485805677728 86.29457643464089 L 698.5485805677728 88.23673297139962 M 707.4450219912034 76.36520274870313 L 707.4450219912034 77.14717528293724 M 707.4450219912034 79.87943377136526 L 707.4450219912034 83.63006309150545 M 734.1343462614954 86.43574441359337 L 734.1343462614954 87.70406257184212 M 734.1343462614954 90.5063888962584 L 734.1343462614954 99.2049945901953 M 760.8236705317872 82.4472973738833 L 760.8236705317872 84.253447466569 M 760.8236705317872 94.21727439782697 L 760.8236705317872 94.4215421406805 M 769.7201119552178 76.48133728349038 L 769.7201119552178 79.52677190072797 M 769.7201119552178 84.253447466569 L 769.7201119552178 85.51247486203475 M 778.6165533786485 77.28137518980253 L 778.6165533786485 78.26026027968706 M 778.6165533786485 79.52677190072797 L 778.6165533786485 81.78481437210804 M 787.512994802079 74.42962716891566 L 787.512994802079 76.28223107551624 M 787.512994802079 78.25316316922783 L 787.512994802079 81.1396225121789 M 796.4094362255097 48.750991143735234 L 796.4094362255097 51.64764451807315 M 796.4094362255097 76.28223107551624 L 796.4094362255097 78.18980532858279 M 805.3058776489403 19.846395818909002 L 805.3058776489403 32.7868799151361 M 805.3058776489403 51.64764451807315 L 805.3058776489403 53.00925741926764 M 814.202319072371 26.489549285483548 L 814.202319072371 28.783722501019668 M 814.202319072371 32.787008953508064 L 814.202319072371 38.556959756854525 M 823.0987604958016 15.053007414751278 L 823.0987604958016 19.567543897047614 M 823.0987604958016 28.783722501019668 L 823.0987604958016 33.39542487742128 M 849.7880847660936 19.367663458841548 L 849.7880847660936 19.707163415536257 M 849.7880847660936 33.7840884538426 L 849.7880847660936 38.513086710379355 M 867.5809676129546 19.91827019210507 L 867.5809676129546 20.759987492568655 M 867.5809676129546 27.170742851196763 L 867.5809676129546 33.9964856141313 M 876.4774090363853 7.073403529519453 L 876.4774090363853 8.072031490317812 M 876.4774090363853 20.762697298380346 L 876.4774090363853 24.574361768469856 M 885.3738504598159 3.8461538461538396 L 885.3738504598159 6.668352079855936 M 885.3738504598159 8.072031490317812 L 885.3738504598159 10.81370977990079" style="stroke-width: 1px;"></path><path class="candle wick down" d="M 4.626149540183927 184.52477903211104 L 4.626149540183927 185.78974219268815 M 4.626149540183927 185.8750365565708 L 4.626149540183927 187.43059413086 M 22.41903238704518 183.97494652907943 L 22.41903238704518 183.97494652907943 M 22.41903238704518 186.0442058622442 L 22.41903238704518 188.58987486478068 M 31.315473810475808 185.15926070716537 L 31.315473810475808 186.0442058622442 M 31.315473810475808 192.53561020336346 L 31.315473810475808 194.09529700555618 M 49.10835665733706 190.98805300813737 L 49.10835665733706 191.08534794061467 M 49.10835665733706 194.8035886293864 L 49.10835665733706 196.15384615384616 M 66.90123950419832 188.10559385471785 L 66.90123950419832 188.41786671492358 M 66.90123950419832 189.05867127020522 L 66.90123950419832 190.7417187560164 M 93.5905637744902 185.6607038207023 L 93.5905637744902 187.92842416998133 M 93.5905637744902 188.93673000867858 L 93.5905637744902 189.84154707304324 M 111.38344662135144 186.9596040731117 L 111.38344662135144 187.07264168697128 M 111.38344662135144 187.89835822930863 L 111.38344662135144 189.3366199234627 M 120.27988804478207 186.0478189366598 L 120.27988804478207 187.89835822930863 M 120.27988804478207 189.93019643459752 L 120.27988804478207 192.28037230357546 M 129.1763294682127 189.34294280369002 L 129.1763294682127 189.93019643459752 M 129.1763294682127 190.55900042128448 L 129.1763294682127 193.0933140470862 M 138.07277089164333 190.13110917977946 L 138.07277089164333 190.55900042128448 M 138.07277089164333 190.92469516749233 L 138.07277089164333 191.51311014374772 M 164.7620951619352 187.59627940048978 L 164.7620951619352 187.69692933063874 M 164.7620951619352 190.18143414485394 L 164.7620951619352 191.14483463010015 M 227.0371851259496 177.82807464116235 L 227.0371851259496 178.1991889989936 M 227.0371851259496 179.58867418853703 L 227.0371851259496 181.14436080119822 M 235.93362654938022 177.94446725269358 L 235.93362654938022 179.58854515016506 M 235.93362654938022 179.62312743385726 L 235.93362654938022 181.40243754516987 M 253.72650939624148 178.0326004607599 L 253.72650939624148 178.49739667665287 M 253.72650939624148 180.8950586665216 L 253.72650939624148 182.43474452105653 M 316.0015993602559 158.8505303115781 L 316.0015993602559 159.60992113071472 M 316.0015993602559 160.2005297592939 L 316.0015993602559 162.81987967223426 M 333.7944822071172 154.6914945441028 L 333.7944822071172 157.76609183340918 M 333.7944822071172 158.83581993717172 L 333.7944822071172 160.6530673298482 M 360.483806477409 148.11724756816864 L 360.483806477409 150.99893249135624 M 360.483806477409 155.77025533390434 L 360.483806477409 160.6530673298482 M 396.06957217113154 147.658903270875 L 396.06957217113154 149.0009023395276 M 396.06957217113154 149.38156553688583 L 396.06957217113154 151.42682373286124 M 404.9660135945622 148.49765268878286 L 404.9660135945622 149.3816945752578 M 404.9660135945622 152.11885652182124 L 404.9660135945622 156.69094411802325 M 440.5517792882847 121.01247945580079 L 440.5517792882847 125.78664114253257 M 440.5517792882847 125.91696989823828 L 440.5517792882847 131.2581261914758 M 449.44822071171535 123.67686376056423 L 449.44822071171535 125.91684085986627 M 449.44822071171535 135.74479038542316 L 449.44822071171535 141.86224152452746 M 467.2411035585766 122.56093991963077 L 467.2411035585766 127.26955011339375 M 467.2411035585766 129.16241399205393 L 467.2411035585766 135.90944334807708 M 476.13754498200717 127.46439805509236 L 476.13754498200717 129.16241399205393 M 476.13754498200717 129.56501371264972 L 476.13754498200717 132.46515112303126 M 511.7233106757297 116.27690024229277 L 511.7233106757297 116.3665819108229 M 511.7233106757297 119.58725063721727 L 511.7233106757297 124.75459224338991 M 520.6197520991603 118.17363527211249 L 520.6197520991603 119.59873505232402 M 520.6197520991603 121.05119096739654 L 520.6197520991603 123.40330241195429 M 582.8948420631747 85.01077367175382 L 582.8948420631747 85.60693095032839 M 582.8948420631747 89.34091432048237 L 582.8948420631747 99.71005077814783 M 591.7912834866053 84.8043122765765 L 591.7912834866053 89.34801143094158 M 591.7912834866053 89.9400394816126 L 591.7912834866053 94.68865157069119 M 609.5841663334666 75.53664736218211 L 609.5841663334666 79.72020042033475 M 609.5841663334666 85.40937320281805 L 609.5841663334666 88.233248935356 M 618.4806077568971 82.88125341887167 L 618.4806077568971 85.41298627723364 M 618.4806077568971 105.6637522232021 L 618.4806077568971 118.07040457452383 M 627.3770491803277 101.68743479045872 L 627.3770491803277 105.6637522232021 M 627.3770491803277 105.79214540332799 L 627.3770491803277 114.84341296790214 M 662.9628148740503 70.32620693976622 L 662.9628148740503 72.80542118073001 M 662.9628148740503 84.81773226726304 L 662.9628148740503 94.67419927302878 M 689.6521391443422 74.98449216845474 L 689.6521391443422 76.33500776965845 M 689.6521391443422 86.29444739626888 L 689.6521391443422 87.39398336396013 M 716.3414634146341 76.35346025685242 L 716.3414634146341 77.15659508409225 M 716.3414634146341 79.63116394366449 L 716.3414634146341 83.03803504083443 M 725.2379048380647 77.98024701247779 L 725.2379048380647 79.63116394366449 M 725.2379048380647 90.5063888962584 L 725.2379048380647 92.10788413097455 M 743.0307876849259 87.49708502317684 L 743.0307876849259 87.7039335334701 M 743.0307876849259 91.40294750481594 L 743.0307876849259 95.83554462090127 M 751.9272291083566 90.91131130754995 L 751.9272291083566 91.40062481412019 M 751.9272291083566 94.21727439782697 L 751.9272291083566 100.20723562540923 M 831.9952019192323 13.458996405610321 L 831.9952019192323 19.56767293541961 M 831.9952019192323 24.291509657076887 L 831.9952019192323 29.3952353458605 M 840.8916433426629 15.939501030293968 L 840.8916433426629 24.291251580332926 M 840.8916433426629 33.78628210616637 L 840.8916433426629 45.46051265809652 M 858.6845261895241 15.975244659334038 L 858.6845261895241 19.707163415536257 M 858.6845261895241 27.1659684314333 L 858.6845261895241 35.331000457208745" style="stroke-width: 1px;"></path><path class="candle wick equal" style="stroke-width: 1px;"></path></g></g><g class="x axis" transform="translate(0,200)" fill="none" font-size="10" font-family="sans-serif" text-anchor="middle"><path class="domain" stroke="#000" d="M0.5,6V0.5H890.5V6"></path><g class="tick" opacity="1" transform="translate(31.315473810475808,0)"><line stroke="#000" y2="6" x1="0.5" x2="0.5"></line><text fill="#000" y="9" x="0.5" dy="0.71em">Sep 21</text></g><g class="tick" opacity="1" transform="translate(93.5905637744902,0)"><line stroke="#000" y2="6" x1="0.5" x2="0.5"></line><text fill="#000" y="9" x="0.5" dy="0.71em">Sep 28</text></g><g class="tick" opacity="1" transform="translate(155.8656537385046,0)"><line stroke="#000" y2="6" x1="0.5" x2="0.5"></line><text fill="#000" y="9" x="0.5" dy="0.71em">Oct  5</text></g><g class="tick" opacity="1" transform="translate(218.14074370251896,0)"><line stroke="#000" y2="6" x1="0.5" x2="0.5"></line><text fill="#000" y="9" x="0.5" dy="0.71em">Oct 12</text></g><g class="tick" opacity="1" transform="translate(280.4158336665334,0)"><line stroke="#000" y2="6" x1="0.5" x2="0.5"></line><text fill="#000" y="9" x="0.5" dy="0.71em">Oct 19</text></g><g class="tick" opacity="1" transform="translate(342.6909236305478,0)"><line stroke="#000" y2="6" x1="0.5" x2="0.5"></line><text fill="#000" y="9" x="0.5" dy="0.71em">Oct 26</text></g><g class="tick" opacity="1" transform="translate(404.9660135945622,0)"><line stroke="#000" y2="6" x1="0.5" x2="0.5"></line><text fill="#000" y="9" x="0.5" dy="0.71em">Nov  2</text></g><g class="tick" opacity="1" transform="translate(467.2411035585766,0)"><line stroke="#000" y2="6" x1="0.5" x2="0.5"></line><text fill="#000" y="9" x="0.5" dy="0.71em">Nov  9</text></g><g class="tick" opacity="1" transform="translate(529.5161935225909,0)"><line stroke="#000" y2="6" x1="0.5" x2="0.5"></line><text fill="#000" y="9" x="0.5" dy="0.71em">Nov 16</text></g><g class="tick" opacity="1" transform="translate(591.7912834866053,0)"><line stroke="#000" y2="6" x1="0.5" x2="0.5"></line><text fill="#000" y="9" x="0.5" dy="0.71em">Nov 23</text></g><g class="tick" opacity="1" transform="translate(654.0663734506197,0)"><line stroke="#000" y2="6" x1="0.5" x2="0.5"></line><text fill="#000" y="9" x="0.5" dy="0.71em">Nov 30</text></g><g class="tick" opacity="1" transform="translate(716.3414634146341,0)"><line stroke="#000" y2="6" x1="0.5" x2="0.5"></line><text fill="#000" y="9" x="0.5" dy="0.71em">Dec  7</text></g><g class="tick" opacity="1" transform="translate(778.6165533786485,0)"><line stroke="#000" y2="6" x1="0.5" x2="0.5"></line><text fill="#000" y="9" x="0.5" dy="0.71em">Dec 14</text></g><g class="tick" opacity="1" transform="translate(840.8916433426629,0)"><line stroke="#000" y2="6" x1="0.5" x2="0.5"></line><text fill="#000" y="9" x="0.5" dy="0.71em">Dec 21</text></g></g><g class="y axis" fill="none" font-size="10" font-family="sans-serif" text-anchor="end"><path class="domain" stroke="#000" d="M-6,200.5H0.5V0.5H-6"></path><g class="tick" opacity="1" transform="translate(0,197.9193491593563)"><line stroke="#000" x2="-6" y1="0.5" y2="0.5"></line><text fill="#000" x="-9" y="0.5" dy="0.32em">10,000</text></g><g class="tick" opacity="1" transform="translate(0,172.11167476219003)"><line stroke="#000" x2="-6" y1="0.5" y2="0.5"></line><text fill="#000" x="-9" y="0.5" dy="0.32em">12,000</text></g><g class="tick" opacity="1" transform="translate(0,146.30400036502374)"><line stroke="#000" x2="-6" y1="0.5" y2="0.5"></line><text fill="#000" x="-9" y="0.5" dy="0.32em">14,000</text></g><g class="tick" opacity="1" transform="translate(0,120.49632596785746)"><line stroke="#000" x2="-6" y1="0.5" y2="0.5"></line><text fill="#000" x="-9" y="0.5" dy="0.32em">16,000</text></g><g class="tick" opacity="1" transform="translate(0,94.68865157069119)"><line stroke="#000" x2="-6" y1="0.5" y2="0.5"></line><text fill="#000" x="-9" y="0.5" dy="0.32em">18,000</text></g><g class="tick" opacity="1" transform="translate(0,68.88097717352491)"><line stroke="#000" x2="-6" y1="0.5" y2="0.5"></line><text fill="#000" x="-9" y="0.5" dy="0.32em">20,000</text></g><g class="tick" opacity="1" transform="translate(0,43.073302776358645)"><line stroke="#000" x2="-6" y1="0.5" y2="0.5"></line><text fill="#000" x="-9" y="0.5" dy="0.32em">22,000</text></g><g class="tick" opacity="1" transform="translate(0,17.26562837919235)"><line stroke="#000" x2="-6" y1="0.5" y2="0.5"></line><text fill="#000" x="-9" y="0.5" dy="0.32em">24,000</text></g><text transform="rotate(-90)" y="6" dy=".71em" style="text-anchor: end;">Price ($)</text></g></g></svg>