<?xml version="1.0" encoding="utf-8"?>
<!DOCTYPE svg PUBLIC "-//W3C//DTD SVG 1.1//EN" "http://www.w3.org/Graphics/SVG/1.1/DTD/svg11.dtd">
<svg version="1.1" xmlns="http://www.w3.org/2000/svg" width="960" height="250"><g transform="translate(50,20)"><style>.axis path,.axis line{fill:none;stroke:#000;shape-rendering:crispEdges;}path.candle{stroke:#000000;}path.candle.body{stroke-width:0;}path.candle.up{fill:#00AA00;stroke:#00AA00;}path.candle.down{fill:#FF0000;stroke:#FF0000;}</style><g class="candlestick"><g class="data"><path class="candle body up" d="M 1.0675729708116766 195.06764053508945 l 7.1171531387445 0 L 8.184726109556177 191.2030910043779 l -7.1171531387445 0 L 1.0675729708116766 195.06764053508945 M 18.860455817672932 193.64991556513132 l 7.1171531387445 0 L 25.977608956417434 192.39728855550203 l -7.1171531387445 0 L 18.860455817672932 193.64991556513132 M 27.75689724110356 192.3973547270292 l 7.1171531387445 0 L 34.87405037984806 191.70645781168113 l -7.1171531387445 0 L 27.75689724110356 192.3973547270292 M 36.65333866453418 191.70645781168113 l 7.1171531387445 0 L 43.77049180327868 190.17855724895847 l -7.1171531387445 0 L 36.65333866453418 191.70645781168113 M 63.342662934826066 191.7757394006448 l 7.1171531387445 0 L 70.45981607357056 188.6398707273045 l -7.1171531387445 0 L 63.342662934826066 191.7757394006448 M 72.23910435825668 188.6398707273045 l 7.1171531387445 0 L 79.35625749700118 187.84263616776863 l -7.1171531387445 0 L 72.23910435825668 188.6398707273045 M 81.13554578168731 187.84263616776863 l 7.1171531387445 0 L 88.25269892043181 178.27416716515884 l -7.1171531387445 0 L 81.13554578168731 187.84263616776863 M 107.82487005197919 183.3807562611499 l 7.1171531387445 0 L 114.94202319072369 179.0346103555793 l -7.1171531387445 0 L 107.82487005197919 183.3807562611499 M 134.51419432227107 180.21173565268947 l 7.1171531387445 0 L 141.63134746101557 177.65069903601318 l -7.1171531387445 0 L 134.51419432227107 180.21173565268947 M 143.4106357457017 177.650632864486 l 7.1171531387445 0 L 150.5277888844462 173.62998470114292 l -7.1171531387445 0 L 143.4106357457017 177.650632864486 M 152.30707716913233 173.6300508726701 l 7.1171531387445 0 L 159.42423030787683 173.43914601673873 l -7.1171531387445 0 L 152.30707716913233 173.6300508726701 M 178.9964014394242 175.8458044604903 l 7.1171531387445 0 L 186.1135545781687 170.8394652281859 l -7.1171531387445 0 L 178.9964014394242 175.8458044604903 M 187.89284286285485 170.842707633018 l 7.1171531387445 0 L 195.00999600159935 164.5808960154153 l -7.1171531387445 0 L 187.89284286285485 170.842707633018 M 196.78928428628546 164.5808960154153 l 7.1171531387445 0 L 203.90643742502996 163.808409607047 l -7.1171531387445 0 L 196.78928428628546 164.5808960154153 M 205.68572570971608 163.7976236481157 l 7.1171531387445 0 L 212.80287884846058 163.6317316294606 l -7.1171531387445 0 L 205.68572570971608 163.7976236481157 M 214.5821671331467 163.63179780098778 l 7.1171531387445 0 L 221.6993202718912 157.98829293341026 l -7.1171531387445 0 L 214.5821671331467 163.63179780098778 M 223.47860855657734 157.98835910493744 l 7.1171531387445 0 L 230.59576169532184 157.66980937306448 l -7.1171531387445 0 L 223.47860855657734 157.98835910493744 M 250.16793282686922 159.89178308444016 l 7.1171531387445 0 L 257.28508596561375 154.65099813131607 l -7.1171531387445 0 L 250.16793282686922 159.89178308444016 M 285.7536985205918 168.02082285617487 l 7.1171531387445 0 L 292.8708516593363 164.18075679052214 l -7.1171531387445 0 L 285.7536985205918 168.02082285617487 M 294.65013994402244 164.1808229620493 l 7.1171531387445 0 L 301.76729308276697 161.1028543749967 l -7.1171531387445 0 L 294.65013994402244 164.1808229620493 M 303.54658136745303 161.10278820346952 l 7.1171531387445 0 L 310.66373450619756 151.10513067553188 l -7.1171531387445 0 L 303.54658136745303 161.10278820346952 M 321.3394642143143 157.26510431279547 l 7.1171531387445 0 L 328.45661735305885 154.35931403948058 l -7.1171531387445 0 L 321.3394642143143 157.26510431279547 M 330.23590563774496 154.35938021100776 l 7.1171531387445 0 L 337.3530587764895 152.91803200584425 l -7.1171531387445 0 L 330.23590563774496 154.35938021100776 M 348.02878848460614 158.0224374414382 l 7.1171531387445 0 L 355.14594162335067 154.73271996739066 l -7.1171531387445 0 L 348.02878848460614 158.0224374414382 M 356.9252299080368 154.73271996739066 l 7.1171531387445 0 L 364.0423830467813 153.3316040507562 l -7.1171531387445 0 L 356.9252299080368 154.73271996739066 M 383.61455417832866 160.1822760887863 l 7.1171531387445 0 L 390.7317073170732 158.7452290328899 l -7.1171531387445 0 L 383.61455417832866 160.1822760887863 M 410.3038784486206 162.08523686759872 l 7.1171531387445 0 L 417.4210315873651 156.9757362244115 l -7.1171531387445 0 L 410.3038784486206 162.08523686759872 M 419.20031987205124 156.9757362244115 l 7.1171531387445 0 L 426.31747301079577 154.55187318359157 l -7.1171531387445 0 L 419.20031987205124 156.9757362244115 M 428.0967612954818 154.55187318359157 l 7.1171531387445 0 L 435.21391443422635 153.90239964426186 l -7.1171531387445 0 L 428.0967612954818 154.55187318359157 M 436.99320271891247 153.89876021026666 l 7.1171531387445 0 L 444.110355857657 152.88805630402905 l -7.1171531387445 0 L 436.99320271891247 153.89876021026666 M 445.8896441423431 152.88805630402905 l 7.1171531387445 0 L 453.00679728108764 140.2553162204941 l -7.1171531387445 0 L 445.8896441423431 152.88805630402905 M 454.7860855657737 140.2553162204941 l 7.1171531387445 0 L 461.90323870451823 130.58342112089272 l -7.1171531387445 0 L 454.7860855657737 140.2553162204941 M 463.68252698920435 130.5834872924199 l 7.1171531387445 0 L 470.7996801279489 128.53058183300425 l -7.1171531387445 0 L 463.68252698920435 130.5834872924199 M 472.57896841263494 128.53058183300425 l 7.1171531387445 0 L 479.69612155137946 123.80447901833215 l -7.1171531387445 0 L 472.57896841263494 128.53058183300425 M 499.2682926829268 131.09479468298542 l 7.1171531387445 0 L 506.38544582167134 123.8760766107473 l -7.1171531387445 0 L 499.2682926829268 131.09479468298542 M 517.0611755297881 127.70343774318036 l 7.1171531387445 0 L 524.1783286685326 124.41597010105714 l -7.1171531387445 0 L 517.0611755297881 127.70343774318036 M 525.9576169532187 124.41735970312804 l 7.1171531387445 0 L 533.0747700919632 117.90952234744815 l -7.1171531387445 0 L 525.9576169532187 124.41735970312804 M 534.8540583766493 117.90952234744815 l 7.1171531387445 0 L 541.9712115153937 106.12490272785503 l -7.1171531387445 0 L 534.8540583766493 117.90952234744815 M 552.6469412235106 107.52674653128852 l 7.1171531387445 0 L 559.764094362255 102.24711889170631 l -7.1171531387445 0 L 552.6469412235106 107.52674653128852 M 561.5433826469413 102.24705272017914 l 7.1171531387445 0 L 568.6605357856857 100.22498319243208 l -7.1171531387445 0 L 561.5433826469413 102.24705272017914 M 570.4398240703717 100.22498319243208 l 7.1171531387445 0 L 577.5569772091162 90.36185237926342 l -7.1171531387445 0 L 570.4398240703717 100.22498319243208 M 579.3362654938024 90.36178620773623 l 7.1171531387445 0 L 586.4534186325469 90.04363350502635 l -7.1171531387445 0 L 579.3362654938024 90.36178620773623 M 588.232706917233 90.04363350502635 l 7.1171531387445 0 L 595.3498600559775 87.34343816667811 l -7.1171531387445 0 L 588.232706917233 90.04363350502635 M 597.1291483406637 87.34337199515092 l 7.1171531387445 0 L 604.2463014794082 68.50678655182818 l -7.1171531387445 0 L 597.1291483406637 87.34337199515092 M 606.0255897640943 68.51922679893912 l 7.1171531387445 0 L 613.1427429028388 63.069339819907555 l -7.1171531387445 0 L 606.0255897640943 68.51922679893912 M 623.8184726109555 69.75464921150007 l 7.1171531387445 0 L 630.9356257497 56.78648565665978 l -7.1171531387445 0 L 623.8184726109555 69.75464921150007 M 632.7149140343862 56.78648565665978 l 7.1171531387445 0 L 639.8320671731307 38.12723990619523 l -7.1171531387445 0 L 632.7149140343862 56.78648565665978 M 641.6113554578168 38.12723990619523 l 7.1171531387445 0 L 648.7285085965613 20.506291588804828 l -7.1171531387445 0 L 641.6113554578168 38.12723990619523 M 650.5077968812475 20.50496815826108 l 7.1171531387445 0 L 657.624950019992 12.8930588714843 l -7.1171531387445 0 L 650.5077968812475 20.50496815826108 M 694.9900039984005 56.12728490283371 l 7.1171531387445 0 L 702.107157137145 34.14358162654909 l -7.1171531387445 0 L 694.9900039984005 56.12728490283371 M 703.8864454218311 34.14358162654909 l 7.1171531387445 0 L 711.0035985605756 22.41057579816095 l -7.1171531387445 0 L 703.8864454218311 34.14358162654909 M 739.4722111155537 44.37628041905106 l 7.1171531387445 0 L 746.5893642542982 39.04100252510548 l -7.1171531387445 0 L 739.4722111155537 44.37628041905106 M 775.0579768092763 77.28338088860416 l 7.1171531387445 0 L 782.1751299480208 63.43248916110383 l -7.1171531387445 0 L 775.0579768092763 77.28338088860416 M 792.8508596561375 69.17068548408443 l 7.1171531387445 0 L 799.9680127948819 67.96702540457272 l -7.1171531387445 0 L 792.8508596561375 69.17068548408443 M 810.6437425029987 68.00480934659586 l 7.1171531387445 0 L 817.7608956417432 66.59151786895916 l -7.1171531387445 0 L 810.6437425029987 68.00480934659586 M 828.43662534986 80.52446229017008 l 7.1171531387445 0 L 835.5537784886045 60.655336336638385 l -7.1171531387445 0 L 828.43662534986 80.52446229017008 M 837.3330667732906 60.63336738961266 l 7.1171531387445 0 L 844.4502199120351 54.78367204332383 l -7.1171531387445 0 L 837.3330667732906 60.63336738961266 M 846.2295081967213 54.82284558741787 l 7.1171531387445 0 L 853.3466613354658 54.71300085228927 l -7.1171531387445 0 L 846.2295081967213 54.82284558741787 M 864.0223910435824 62.454473989296076 l 7.1171531387445 0 L 871.1395441823269 59.58660000105874 l -7.1171531387445 0 L 864.0223910435824 62.454473989296076 M 872.9188324670131 59.64800717828729 l 7.1171531387445 0 L 880.0359856057576 46.750183956845575 l -7.1171531387445 0 L 872.9188324670131 59.64800717828729 M 881.8152738904437 46.7073709787563 l 7.1171531387445 0 L 888.9324270291881 44.36906772258777 l -7.1171531387445 0 L 881.8152738904437 46.7073709787563"></path><path class="candle body down" d="M 9.964014394242305 191.2031571759051 l 7.1171531387445 0 L 17.081167532986804 193.64991556513132 l -7.1171531387445 0 L 9.964014394242305 191.2031571759051 M 45.54978008796481 190.17855724895847 l 7.1171531387445 0 L 52.66693322670931 190.3737632541569 l -7.1171531387445 0 L 45.54978008796481 190.17855724895847 M 54.446221511395436 190.37382942568408 l 7.1171531387445 0 L 61.563374650139934 191.7774598603516 l -7.1171531387445 0 L 54.446221511395436 190.37382942568408 M 90.03198720511796 178.27416716515884 l 7.1171531387445 0 L 97.14914034386246 178.3410004076166 l -7.1171531387445 0 L 90.03198720511796 178.27416716515884 M 98.92842862854857 178.34093423608942 l 7.1171531387445 0 L 106.04558176729307 183.3807562611499 l -7.1171531387445 0 L 98.92842862854857 178.34093423608942 M 116.72131147540982 179.0346103555793 l 7.1171531387445 0 L 123.83846461415432 180.00528048786944 l -7.1171531387445 0 L 116.72131147540982 179.0346103555793 M 125.61775289884046 180.00528048786944 l 7.1171531387445 0 L 132.73490603758498 180.21173565268947 l -7.1171531387445 0 L 125.61775289884046 180.00528048786944 M 161.20351859256294 173.443513337533 l 7.1171531387445 0 L 168.32067173130744 175.09508848456613 l -7.1171531387445 0 L 161.20351859256294 173.443513337533 M 170.09996001599356 175.1009777504857 l 7.1171531387445 0 L 177.21711315473806 175.8458044604903 l -7.1171531387445 0 L 170.09996001599356 175.1009777504857 M 232.37504998000796 157.66980937306448 l 7.1171531387445 0 L 239.49220311875246 159.58461485524316 l -7.1171531387445 0 L 232.37504998000796 157.66980937306448 M 241.2714914034386 159.58825428923836 l 7.1171531387445 0 L 248.3886445421831 159.89184925596734 l -7.1171531387445 0 L 241.2714914034386 159.58825428923836 M 259.06437425029986 154.65106430284325 l 7.1171531387445 0 L 266.1815273890444 157.56850076494285 l -7.1171531387445 0 L 259.06437425029986 154.65106430284325 M 267.9608156737305 157.57035356770405 l 7.1171531387445 0 L 275.07796881247504 167.95504835815206 l -7.1171531387445 0 L 267.9608156737305 157.57035356770405 M 276.85725709716115 167.95504835815206 l 7.1171531387445 0 L 283.9744102359057 168.02088902770203 l -7.1171531387445 0 L 276.85725709716115 167.95504835815206 M 312.4430227908837 151.10513067553188 l 7.1171531387445 0 L 319.5601759296282 157.26510431279547 l -7.1171531387445 0 L 312.4430227908837 151.10513067553188 M 339.13234706117555 152.9151204586481 l 7.1171531387445 0 L 346.2495001999201 158.022371269911 l -7.1171531387445 0 L 339.13234706117555 152.9151204586481 M 365.8216713314674 153.3364345722408 l 7.1171531387445 0 L 372.93882447021196 154.60540594908497 l -7.1171531387445 0 L 365.8216713314674 153.3364345722408 M 374.7181127548981 154.60540594908497 l 7.1171531387445 0 L 381.8352658936426 160.1822760887863 l -7.1171531387445 0 L 374.7181127548981 154.60540594908497 M 392.5109956017593 158.7451628613627 l 7.1171531387445 0 L 399.62814874050383 160.642035859674 l -7.1171531387445 0 L 392.5109956017593 158.7451628613627 M 401.40743702518995 160.64084477218466 l 7.1171531387445 0 L 408.5245901639345 162.08523686759872 l -7.1171531387445 0 L 401.40743702518995 160.64084477218466 M 481.47540983606564 123.80454518985935 l 7.1171531387445 0 L 488.59256297481016 126.22695245708113 l -7.1171531387445 0 L 481.47540983606564 123.80454518985935 M 490.3718512594962 126.22682011402676 l 7.1171531387445 0 L 497.48900439824075 131.0959195989476 l -7.1171531387445 0 L 490.3718512594962 126.22682011402676 M 508.16473410635746 123.8760766107473 l 7.1171531387445 0 L 515.281887245102 127.70098939667449 l -7.1171531387445 0 L 508.16473410635746 123.8760766107473 M 543.75049980008 106.12483655632784 l 7.1171531387445 0 L 550.8676529388244 107.5259524729623 l -7.1171531387445 0 L 543.75049980008 106.12483655632784 M 614.9220311875249 63.069339819907555 l 7.1171531387445 0 L 622.0391843262694 69.76153105032742 l -7.1171531387445 0 L 614.9220311875249 63.069339819907555 M 659.4042383046781 12.865597687702149 l 7.1171531387445 0 L 666.5213914434225 16.165836434572213 l -7.1171531387445 0 L 659.4042383046781 12.865597687702149 M 668.3006797281087 16.165836434572213 l 7.1171531387445 0 L 675.4178328668531 28.99120183374538 l -7.1171531387445 0 L 668.3006797281087 16.165836434572213 M 677.1971211515394 28.99120183374538 l 7.1171531387445 0 L 684.3142742902838 47.15892548027293 l -7.1171531387445 0 L 677.1971211515394 28.99120183374538 M 686.09356257497 47.11988427923325 l 7.1171531387445 0 L 693.2107157137144 56.113455053651876 l -7.1171531387445 0 L 686.09356257497 47.11988427923325 M 712.7828868452618 22.405877619730774 l 7.1171531387445 0 L 719.9000399840063 38.306829430977785 l -7.1171531387445 0 L 712.7828868452618 22.405877619730774 M 721.6793282686924 38.33852559249985 l 7.1171531387445 0 L 728.7964814074369 43.25143062841772 l -7.1171531387445 0 L 721.6793282686924 38.33852559249985 M 730.5757696921231 43.25143062841772 l 7.1171531387445 0 L 737.6929228308676 44.35232632620972 l -7.1171531387445 0 L 730.5757696921231 43.25143062841772 M 748.3686525389844 39.09929964055624 l 7.1171531387445 0 L 755.4858056777289 43.93623976326475 l -7.1171531387445 0 L 748.3686525389844 39.09929964055624 M 757.265093962415 43.86709051735545 l 7.1171531387445 0 L 764.3822471011595 46.73701582293555 l -7.1171531387445 0 L 757.265093962415 43.86709051735545 M 766.1615353858456 46.73701582293555 l 7.1171531387445 0 L 773.27868852459 77.29568879266075 l -7.1171531387445 0 L 766.1615353858456 46.73701582293555 M 783.9544182327068 63.400528313473046 l 7.1171531387445 0 L 791.0715713714512 69.17068548408443 l -7.1171531387445 0 L 783.9544182327068 63.400528313473046 M 801.747301079568 67.97000312329604 l 7.1171531387445 0 L 808.8644542183125 68.00474317506865 l -7.1171531387445 0 L 801.747301079568 67.97000312329604 M 819.5401839264293 66.6163983631811 l 7.1171531387445 0 L 826.6573370651738 80.49825836540445 l -7.1171531387445 0 L 819.5401839264293 66.6163983631811 M 855.1259496201519 54.71293468076209 l 7.1171531387445 0 L 862.2431027588964 62.45440781776887 l -7.1171531387445 0 L 855.1259496201519 54.71293468076209"></path><path class="candle body equal"></path><path class="candle wick up" d="M 4.626149540183927 190.18987258010725 L 4.626149540183927 191.2030910043779 M 4.626149540183927 195.06764053508945 L 4.626149540183927 195.28124222484556 M 22.41903238704518 191.1584913950546 L 22.41903238704518 192.39728855550203 M 22.41903238704518 193.64991556513132 L 22.41903238704518 195.93700205925794 M 31.315473810475808 190.97936507096236 L 31.315473810475808 191.70645781168113 M 31.315473810475808 192.3973547270292 L 31.315473810475808 194.651752486726 M 40.21191523390643 188.13385705891383 L 40.21191523390643 190.17855724895847 M 40.21191523390643 191.70645781168113 L 40.21191523390643 192.68976670566374 M 66.90123950419832 188.35811236454688 L 66.90123950419832 188.6398707273045 M 66.90123950419832 191.7757394006448 L 66.90123950419832 193.52690269609272 M 75.79768092762893 187.08172977665785 L 75.79768092762893 187.84263616776863 M 75.79768092762893 188.6398707273045 L 75.79768092762893 191.93871987210366 M 84.69412235105956 177.21555507323865 L 84.69412235105956 178.27416716515884 M 84.69412235105956 187.84263616776863 L 84.69412235105956 188.17647152242156 M 111.38344662135144 177.87727034509774 L 111.38344662135144 179.0346103555793 M 111.38344662135144 183.3807562611499 L 111.38344662135144 184.1378908752111 M 138.07277089164333 175.79286723874156 L 138.07277089164333 177.65069903601318 M 138.07277089164333 180.21173565268947 L 138.07277089164333 180.3740544088765 M 146.96921231507397 173.30680296236693 L 146.96921231507397 173.62998470114292 M 146.96921231507397 177.650632864486 L 146.96921231507397 179.26263743826198 M 155.8656537385046 172.3850335886672 L 155.8656537385046 173.43914601673873 M 155.8656537385046 173.6300508726701 L 155.8656537385046 175.87657422063174 M 182.55497800879647 169.7381725012308 L 182.55497800879647 170.8394652281859 M 182.55497800879647 175.8458044604903 L 182.55497800879647 176.46119966331926 M 191.4514194322271 163.26117107721953 L 191.4514194322271 164.5808960154153 M 191.4514194322271 170.842707633018 L 191.4514194322271 172.00123873098892 M 200.34786085565773 159.17104281033122 L 200.34786085565773 163.808409607047 M 200.34786085565773 164.5808960154153 L 200.34786085565773 167.52506577449802 M 209.24430227908834 161.13719739760617 L 209.24430227908834 163.6317316294606 M 209.24430227908834 163.7976236481157 L 209.24430227908834 166.72306686500477 M 218.14074370251896 156.93252621715905 L 218.14074370251896 157.98829293341026 M 218.14074370251896 163.63179780098778 L 218.14074370251896 164.04715647713377 M 227.0371851259496 155.93545364552176 L 227.0371851259496 157.66980937306448 M 227.0371851259496 157.98835910493744 L 227.0371851259496 160.285040470506 M 253.72650939624148 152.93742026330972 L 253.72650939624148 154.65099813131607 M 253.72650939624148 159.89178308444016 L 253.72650939624148 162.20785270747422 M 289.31227508996403 163.11777737780764 L 289.31227508996403 164.18075679052214 M 289.31227508996403 168.02082285617487 L 289.31227508996403 169.83372418648725 M 298.2087165133947 159.94445562008013 L 298.2087165133947 161.1028543749967 M 298.2087165133947 164.1808229620493 L 298.2087165133947 165.52304621948832 M 307.10515793682526 149.99814719723878 L 307.10515793682526 151.10513067553188 M 307.10515793682526 161.10278820346952 L 307.10515793682526 161.1028543749967 M 324.89804078368655 153.44674250805969 L 324.89804078368655 154.35931403948058 M 324.89804078368655 157.26510431279547 L 324.89804078368655 160.1433010592738 M 333.7944822071172 151.7527514121004 L 333.7944822071172 152.91803200584425 M 333.7944822071172 154.35938021100776 L 333.7944822071172 156.5885666188467 M 351.5873650539784 154.5385727066272 L 351.5873650539784 154.73271996739066 M 351.5873650539784 158.0224374414382 L 351.5873650539784 159.01838509711334 M 360.483806477409 152.93060459600957 L 360.483806477409 153.3316040507562 M 360.483806477409 154.73271996739066 L 360.483806477409 156.65606157657635 M 387.1731307477009 158.0948290921796 L 387.1731307477009 158.7452290328899 M 387.1731307477009 160.1822760887863 L 387.1731307477009 164.6429649079157 M 413.86245501799283 156.04953335839028 L 413.86245501799283 156.9757362244115 M 413.86245501799283 162.08523686759872 L 413.86245501799283 162.18998639513399 M 422.7588964414235 152.9901589704769 L 422.7588964414235 154.55187318359157 M 422.7588964414235 156.9757362244115 L 422.7588964414235 157.6213718151644 M 431.65533786485406 153.40042243902954 L 431.65533786485406 153.90239964426186 M 431.65533786485406 154.55187318359157 L 431.65533786485406 155.7098087378178 M 440.5517792882847 151.93803168822092 L 440.5517792882847 152.88805630402905 M 440.5517792882847 153.89876021026666 L 440.5517792882847 155.37895110188828 M 449.44822071171535 138.7698977782248 L 449.44822071171535 140.2553162204941 M 449.44822071171535 152.88805630402905 L 449.44822071171535 153.86626999041837 M 458.34466213514594 123.9474756885809 L 458.34466213514594 130.58342112089272 M 458.34466213514594 140.2553162204941 L 458.34466213514594 140.95355817535983 M 467.2411035585766 127.35411825116594 L 467.2411035585766 128.53058183300425 M 467.2411035585766 130.5834872924199 L 467.2411035585766 133.5423471305379 M 476.13754498200717 121.4894019682059 L 476.13754498200717 123.80447901833215 M 476.13754498200717 128.53058183300425 L 476.13754498200717 130.89548604310147 M 502.82686925229905 123.70197932272119 L 502.82686925229905 123.8760766107473 M 502.82686925229905 131.09479468298542 L 502.82686925229905 133.51984881129468 M 520.6197520991603 123.98433322922345 L 520.6197520991603 124.41597010105714 M 520.6197520991603 127.70343774318036 L 520.6197520991603 131.20371301673345 M 529.5161935225909 117.39742089855639 L 529.5161935225909 117.90952234744815 M 529.5161935225909 124.41735970312804 L 529.5161935225909 126.37200044467266 M 538.4126349460215 103.65246978608069 L 538.4126349460215 106.12490272785503 M 538.4126349460215 117.90952234744815 L 538.4126349460215 119.31546878556719 M 556.2055177928828 99.4640106297941 L 556.2055177928828 102.24711889170631 M 556.2055177928828 107.52674653128852 L 556.2055177928828 108.72140728310296 M 565.1019592163135 100.05955437446731 L 565.1019592163135 100.22498319243208 M 565.1019592163135 102.24705272017914 L 565.1019592163135 110.18379803391157 M 573.998400639744 89.56475016278196 L 573.998400639744 90.36185237926342 M 573.998400639744 100.22498319243208 L 573.998400639744 100.65509811914049 M 582.8948420631747 87.55313573633028 L 582.8948420631747 90.04363350502635 M 582.8948420631747 90.36178620773623 L 582.8948420631747 97.14800717828726 M 591.7912834866053 85.56798992075298 L 591.7912834866053 87.34343816667811 M 591.7912834866053 90.04363350502635 L 591.7912834866053 92.02255919704821 M 600.687724910036 61.08452486196617 L 600.687724910036 68.50678655182818 M 600.687724910036 87.34337199515092 L 600.687724910036 89.89210070777065 M 609.5841663334666 51.30364525708961 L 609.5841663334666 63.069339819907555 M 609.5841663334666 68.51922679893912 L 609.5841663334666 69.93172421824954 M 627.3770491803277 54.07034298025971 L 627.3770491803277 56.78648565665978 M 627.3770491803277 69.75464921150007 L 627.3770491803277 83.58284410517567 M 636.2734906037584 37.00331651694256 L 636.2734906037584 38.12723990619523 M 636.2734906037584 56.78648565665978 L 636.2734906037584 61.16393069458928 M 645.169932027189 14.334340905120598 L 645.169932027189 20.506291588804828 M 645.169932027189 38.12723990619523 L 645.169932027189 41.233066706193114 M 654.0663734506197 3.8461538461538396 L 654.0663734506197 12.8930588714843 M 654.0663734506197 20.50496815826108 L 654.0663734506197 39.909636162474925 M 698.5485805677728 30.976479992377023 L 698.5485805677728 34.14358162654909 M 698.5485805677728 56.12728490283371 L 698.5485805677728 67.17230536306994 M 707.4450219912034 16.087886375547242 L 707.4450219912034 22.41057579816095 M 707.4450219912034 34.14358162654909 L 707.4450219912034 38.57806652091281 M 743.0307876849259 33.49212294140378 L 743.0307876849259 39.04100252510548 M 743.0307876849259 44.37628041905106 L 743.0307876849259 51.15879578407964 M 778.6165533786485 57.60039544104646 L 778.6165533786485 63.43248916110383 M 778.6165533786485 77.28338088860416 L 778.6165533786485 90.53085445969624 M 796.4094362255097 62.599852834523546 L 796.4094362255097 67.96702540457272 M 796.4094362255097 69.17068548408443 L 796.4094362255097 76.96569138658464 M 814.202319072371 63.58660264791985 L 814.202319072371 66.59151786895916 M 814.202319072371 68.00480934659586 L 814.202319072371 77.38012366134998 M 831.9952019192323 57.881955289222475 L 831.9952019192323 60.655336336638385 M 831.9952019192323 80.52446229017008 L 831.9952019192323 83.9659772475821 M 840.8916433426629 26.464243553569787 L 840.8916433426629 54.78367204332383 M 840.8916433426629 60.63336738961266 L 840.8916433426629 70.2466345161273 M 849.7880847660936 50.27871447250703 L 849.7880847660936 54.71300085228927 M 849.7880847660936 54.82284558741787 L 849.7880847660936 64.2276724032969 M 867.5809676129546 51.70623282848871 L 867.5809676129546 59.58660000105874 M 867.5809676129546 62.454473989296076 L 867.5809676129546 67.72708744699659 M 876.4774090363853 43.321903304870744 L 876.4774090363853 46.750183956845575 M 876.4774090363853 59.64800717828729 L 876.4774090363853 60.30370084117246 M 885.3738504598159 37.62671847456102 L 885.3738504598159 44.36906772258777 M 885.3738504598159 46.7073709787563 L 885.3738504598159 47.43744143819845" style="stroke-width: 1px;"></path><path class="candle wick down" d="M 13.522590963614554 189.72541463078934 L 13.522590963614554 191.2031571759051 M 13.522590963614554 193.64991556513132 L 13.522590963614554 196.15384615384616 M 49.10835665733706 189.490373366225 L 49.10835665733706 190.17855724895847 M 49.10835665733706 190.3737632541569 L 49.10835665733706 191.42258196005358 M 58.004798080767685 189.9204882929334 L 58.004798080767685 190.37382942568408 M 58.004798080767685 191.7774598603516 L 58.004798080767685 194.12204941160277 M 93.5905637744902 175.82595300233453 L 93.5905637744902 178.27416716515884 M 93.5905637744902 178.3410004076166 L 93.5905637744902 181.0799722608958 M 102.48700519792082 177.1922626956692 L 102.48700519792082 178.34093423608942 M 102.48700519792082 183.3807562611499 L 102.48700519792082 186.51781602197954 M 120.27988804478207 176.62001132856545 L 120.27988804478207 179.0346103555793 M 120.27988804478207 180.00528048786944 L 120.27988804478207 183.46519112983913 M 129.1763294682127 179.13452936163003 L 129.1763294682127 180.00528048786944 M 129.1763294682127 180.21173565268947 L 129.1763294682127 181.6989407261928 M 164.7620951619352 173.39752412613882 L 164.7620951619352 173.443513337533 M 164.7620951619352 175.09508848456613 L 164.7620951619352 177.7449272907259 M 173.65853658536582 174.3701794042445 L 173.65853658536582 175.1009777504857 M 173.65853658536582 175.8458044604903 L 173.65853658536582 177.05197905803507 M 235.93362654938022 157.3640969174656 L 235.93362654938022 157.66980937306448 M 235.93362654938022 159.58461485524316 L 235.93362654938022 164.90196026532135 M 244.83006797281087 157.25822247396812 L 244.83006797281087 159.58825428923836 M 244.83006797281087 159.89184925596734 L 244.83006797281087 162.32696145640884 M 262.6229508196721 152.50571721994885 L 262.6229508196721 154.65106430284325 M 262.6229508196721 157.56850076494285 L 262.6229508196721 159.0165984658793 M 271.51939224310274 156.2720682043165 L 271.51939224310274 157.57035356770405 M 271.51939224310274 167.95504835815206 L 271.51939224310274 174.31724218249576 M 280.4158336665334 165.91597274791826 L 280.4158336665334 167.95504835815206 M 280.4158336665334 168.02088902770203 L 280.4158336665334 172.6624246306305 M 316.0015993602559 149.83377712370898 L 316.0015993602559 151.10513067553188 M 316.0015993602559 157.26510431279547 L 316.0015993602559 162.31955024536404 M 342.6909236305478 152.22256925512033 L 342.6909236305478 152.9151204586481 M 342.6909236305478 158.022371269911 L 342.6909236305478 158.58621885306212 M 369.38024790083966 152.92458298703568 L 369.38024790083966 153.3364345722408 M 369.38024790083966 154.60540594908497 L 369.38024790083966 156.35246660984737 M 378.2766893242703 153.75880743026843 L 378.2766893242703 154.60540594908497 M 378.2766893242703 160.1822760887863 L 378.2766893242703 161.00353091269062 M 396.06957217113154 158.6390899032837 L 396.06957217113154 158.7451628613627 M 396.06957217113154 160.642035859674 L 396.06957217113154 162.91509399003724 M 404.9660135945622 160.38992234109568 L 404.9660135945622 160.64084477218466 M 404.9660135945622 162.08523686759872 L 404.9660135945622 165.15691915956864 M 485.0339864054379 120.67198509287834 L 485.0339864054379 123.80454518985935 M 485.0339864054379 126.22695245708113 L 485.0339864054379 128.84416870033826 M 493.93042782886846 121.94400035997309 L 493.93042782886846 126.22682011402676 M 493.93042782886846 131.0959195989476 L 493.93042782886846 137.08252383498407 M 511.7233106757297 121.9623298730036 L 511.7233106757297 123.8760766107473 M 511.7233106757297 127.70098939667449 L 511.7233106757297 131.88805895089013 M 547.3090763694522 93.36299582325319 L 547.3090763694522 106.12483655632784 M 547.3090763694522 107.5259524729623 L 547.3090763694522 111.37488552325796 M 618.4806077568971 59.09937904638889 L 618.4806077568971 63.069339819907555 M 618.4806077568971 69.76153105032742 L 618.4806077568971 95.29520441708176 M 662.9628148740503 7.617930895750703 L 662.9628148740503 12.865597687702149 M 662.9628148740503 16.165836434572213 L 662.9628148740503 25.21955712720282 M 671.8592562974809 7.816445477308434 L 671.8592562974809 16.165836434572213 M 671.8592562974809 28.99120183374538 L 671.8592562974809 49.100133401798786 M 680.7556977209116 28.23208207386861 L 680.7556977209116 28.99120183374538 M 680.7556977209116 47.15892548027293 L 680.7556977209116 80.14192469150834 M 689.6521391443422 39.06264061449528 L 689.6521391443422 47.11988427923325 M 689.6521391443422 56.113455053651876 L 689.6521391443422 66.17311530256268 M 716.3414634146341 18.41871224914371 L 716.3414634146341 22.405877619730774 M 716.3414634146341 38.306829430977785 L 716.3414634146341 53.75271964976733 M 725.2379048380647 30.31476472051793 L 725.2379048380647 38.33852559249985 M 725.2379048380647 43.25143062841772 L 725.2379048380647 47.46774799764955 M 734.1343462614954 37.5770898291716 L 734.1343462614954 43.25143062841772 M 734.1343462614954 44.35232632620972 L 734.1343462614954 57.44509086674111 M 751.9272291083566 30.976479992377023 L 751.9272291083566 39.09929964055624 M 751.9272291083566 43.93623976326475 L 751.9272291083566 44.25009131670751 M 760.8236705317872 40.47004282621239 L 760.8236705317872 43.86709051735545 M 760.8236705317872 46.73701582293555 L 760.8236705317872 60.42280959010708 M 769.7201119552178 45.86507360920683 L 769.7201119552178 46.73701582293555 M 769.7201119552178 77.29568879266075 L 769.7201119552178 82.4513109902966 M 787.512994802079 60.05224903786598 L 787.512994802079 63.400528313473046 M 787.512994802079 69.17068548408443 L 787.512994802079 73.72222781004005 M 805.3058776489403 50.662509330185316 L 805.3058776489403 67.97000312329604 M 805.3058776489403 68.00474317506865 L 805.3058776489403 70.28236714080771 M 823.0987604958016 65.9991503575909 L 823.0987604958016 66.6163983631811 M 823.0987604958016 80.49825836540445 L 823.0987604958016 87.93878339676976 M 858.6845261895241 54.18488589381849 L 858.6845261895241 54.71293468076209 M 858.6845261895241 62.45440781776887 L 858.6845261895241 68.550856788934" style="stroke-width: 1px;"></path><path class="candle wick equal" style="stroke-width: 1px;"></path></g></g><g class="x axis" transform="translate(0,200)" fill="none" font-size="10" font-family="sans-serif" text-anchor="middle"><path class="domain" stroke="#000" d="M0.5,6V0.5H890.5V6"></path><g class="tick" opacity="1" transform="translate(58.004798080767685,0)"><line stroke="#000" y2="6" x1="0.5" x2="0.5"></line><text fill="#000" y="9" x="0.5" dy="0.71em">Nov  2</text></g><g class="tick" opacity="1" transform="translate(120.27988804478207,0)"><line stroke="#000" y2="6" x1="0.5" x2="0.5"></line><text fill="#000" y="9" x="0.5" dy="0.71em">Nov  9</text></g><g class="tick" opacity="1" transform="translate(182.55497800879647,0)"><line stroke="#000" y2="6" x1="0.5" x2="0.5"></line><text fill="#000" y="9" x="0.5" dy="0.71em">Nov 16</text></g><g class="tick" opacity="1" transform="translate(244.83006797281087,0)"><line stroke="#000" y2="6" x1="0.5" x2="0.5"></line><text fill="#000" y="9" x="0.5" dy="0.71em">Nov 23</text></g><g class="tick" opacity="1" transform="translate(307.10515793682526,0)"><line stroke="#000" y2="6" x1="0.5" x2="0.5"></line><text fill="#000" y="9" x="0.5" dy="0.71em">Nov 30</text></g><g class="tick" opacity="1" transform="translate(369.38024790083966,0)"><line stroke="#000" y2="6" x1="0.5" x2="0.5"></line><text fill="#000" y="9" x="0.5" dy="0.71em">Dec  7</text></g><g class="tick" opacity="1" transform="translate(431.65533786485406,0)"><line stroke="#000" y2="6" x1="0.5" x2="0.5"></line><text fill="#000" y="9" x="0.5" dy="0.71em">Dec 14</text></g><g class="tick" opacity="1" transform="translate(493.93042782886846,0)"><line stroke="#000" y2="6" x1="0.5" x2="0.5"></line><text fill="#000" y="9" x="0.5" dy="0.71em">Dec 21</text></g><g class="tick" opacity="1" transform="translate(556.2055177928828,0)"><line stroke="#000" y2="6" x1="0.5" x2="0.5"></line><text fill="#000" y="9" x="0.5" dy="0.71em">Dec 28</text></g><g class="tick" opacity="1" transform="translate(618.4806077568971,0)"><line stroke="#000" y2="6" x1="0.5" x2="0.5"></line><text fill="#000" y="9" x="0.5" dy="0.71em">Jan  4</text></g><g class="tick" opacity="1" transform="translate(680.7556977209116,0)"><line stroke="#000" y2="6" x1="0.5" x2="0.5"></line><text fill="#000" y="9" x="0.5" dy="0.71em">Jan 11</text></g><g class="tick" opacity="1" transform="translate(743.0307876849259,0)"><line stroke="#000" y2="6" x1="0.5" x2="0.5"></line><text fill="#000" y="9" x="0.5" dy="0.71em">Jan 18</text></g><g class="tick" opacity="1" transform="translate(805.3058776489403,0)"><line stroke="#000" y2="6" x1="0.5" x2="0.5"></line><text fill="#000" y="9" x="0.5" dy="0.71em">Jan 25</text></g><g class="tick" opacity="1" transform="translate(867.5809676129546,0)"><line stroke="#000" y2="6" x1="0.5" x2="0.5"></line><text fill="#000" y="9" x="0.5" dy="0.71em">Feb  1</text></g></g><g class="y axis" fill="none" font-size="10" font-family="sans-serif" text-anchor="end"><path class="domain" stroke="#000" d="M-6,200.5H0.5V0.5H-6"></path><g class="tick" opacity="1" transform="translate(0,188.79557233077293)"><line stroke="#000" x2="-6" y1="0.5" y2="0.5"></line><text fill="#000" x="-9" y="0.5" dy="0.32em">14,000</text></g><g class="tick" opacity="1" transform="translate(0,175.5612668935909)"><line stroke="#000" x2="-6" y1="0.5" y2="0.5"></line><text fill="#000" x="-9" y="0.5" dy="0.32em">16,000</text></g><g class="tick" opacity="1" transform="translate(0,162.32696145640884)"><line stroke="#000" x2="-6" y1="0.5" y2="0.5"></line><text fill="#000" x="-9" y="0.5" dy="0.32em">18,000</text></g><g class="tick" opacity="1" transform="translate(0,149.09265601922678)"><line stroke="#000" x2="-6" y1="0.5" y2="0.5"></line><text fill="#000" x="-9" y="0.5" dy="0.32em">20,000</text></g><g class="tick" opacity="1" transform="translate(0,135.85835058204475)"><line stroke="#000" x2="-6" y1="0.5" y2="0.5"></line><text fill="#000" x="-9" y="0.5" dy="0.32em">22,000</text></g><g class="tick" opacity="1" transform="translate(0,122.6240451448627)"><line stroke="#000" x2="-6" y1="0.5" y2="0.5"></line><text fill="#000" x="-9" y="0.5" dy="0.32em">24,000</text></g><g class="tick" opacity="1" transform="translate(0,109.38973970768066)"><line stroke="#000" x2="-6" y1="0.5" y2="0.5"></line><text fill="#000" x="-9" y="0.5" dy="0.32em">26,000</text></g><g class="tick" opacity="1" transform="translate(0,96.1554342704986)"><line stroke="#000" x2="-6" y1="0.5" y2="0.5"></line><text fill="#000" x="-9" y="0.5" dy="0.32em">28,000</text></g><g class="tick" opacity="1" transform="translate(0,82.92112883331657)"><line stroke="#000" x2="-6" y1="0.5" y2="0.5"></line><text fill="#000" x="-9" y="0.5" dy="0.32em">30,000</text></g><g class="tick" opacity="1" transform="translate(0,69.68682339613451)"><line stroke="#000" x2="-6" y1="0.5" y2="0.5"></line><text fill="#000" x="-9" y="0.5" dy="0.32em">32,000</text></g><g class="tick" opacity="1" transform="translate(0,56.452517958952484)"><line stroke="#000" x2="-6" y1="0.5" y2="0.5"></line><text fill="#000" x="-9" y="0.5" dy="0.32em">34,000</text></g><g class="tick" opacity="1" transform="translate(0,43.218212521770425)"><line stroke="#000" x2="-6" y1="0.5" y2="0.5"></line><text fill="#000" x="-9" y="0.5" dy="0.32em">36,000</text></g><g class="tick" opacity="1" transform="translate(0,29.983907084588367)"><line stroke="#000" x2="-6" y1="0.5" y2="0.5"></line><text fill="#000" x="-9" y="0.5" dy="0.32em">38,000</text></g><g class="tick" opacity="1" transform="translate(0,16.749601647406337)"><line stroke="#000" x2="-6" y1="0.5" y2="0.5"></line><text fill="#000" x="-9" y="0.5" dy="0.32em">40,000</text></g><g class="tick" opacity="1" transform="translate(0,3.515296210224278)"><line stroke="#000" x2="-6" y1="0.5" y2="0.5"></line><text fill="#000" x="-9" y="0.5" dy="0.32em">42,000</text></g><text transform="rotate(-90)" y="6" dy=".71em" style="text-anchor: end;">Price ($)</text></g></g></svg>