<?xml version="1.0" encoding="utf-8"?>
<!DOCTYPE svg PUBLIC "-//W3C//DTD SVG 1.1//EN" "http://www.w3.org/Graphics/SVG/1.1/DTD/svg11.dtd">
<svg version="1.1" xmlns="http://www.w3.org/2000/svg" width="960" height="250"><g transform="translate(50,20)"><style>.axis path,.axis line{fill:none;stroke:#000;shape-rendering:crispEdges;}path.candle{stroke:#000000;}path.candle.body{stroke-width:0;}path.candle.up{fill:#00AA00;stroke:#00AA00;}path.candle.down{fill:#FF0000;stroke:#FF0000;}</style><g class="candlestick"><g class="data"><path class="candle body up" d="M 27.75689724110356 30.654167753836447 l 7.1171531387445 0 L 34.87405037984806 30.58954435956096 l -7.1171531387445 0 L 27.75689724110356 30.654167753836447 M 36.65333866453418 30.58962020861523 l 7.1171531387445 0 L 43.77049180327868 23.187055903786984 l -7.1171531387445 0 L 36.65333866453418 30.58962020861523 M 54.446221511395436 40.734279525002904 l 7.1171531387445 0 L 61.563374650139934 32.2158239331072 l -7.1171531387445 0 L 54.446221511395436 40.734279525002904 M 63.342662934826066 32.2158239331072 l 7.1171531387445 0 L 70.45981607357056 28.375207067918296 l -7.1171531387445 0 L 63.342662934826066 32.2158239331072 M 90.03198720511796 44.38899035806821 l 7.1171531387445 0 L 97.14914034386246 38.03625281399994 l -7.1171531387445 0 L 90.03198720511796 44.38899035806821 M 98.92842862854857 38.03625281399994 l 7.1171531387445 0 L 106.04558176729307 37.60535433644213 l -7.1171531387445 0 L 98.92842862854857 38.03625281399994 M 116.72131147540982 43.644531889976435 l 7.1171531387445 0 L 123.83846461415432 28.77015309373124 l -7.1171531387445 0 L 116.72131147540982 43.644531889976435 M 170.09996001599356 101.70485919381558 l 7.1171531387445 0 L 177.21711315473806 94.55327940971232 l -7.1171531387445 0 L 170.09996001599356 101.70485919381558 M 196.78928428628546 109.62721706785759 l 7.1171531387445 0 L 203.90643742502996 107.6755450513043 l -7.1171531387445 0 L 196.78928428628546 109.62721706785759 M 205.68572570971608 107.6755450513043 l 7.1171531387445 0 L 212.80287884846058 101.60997202686876 l -7.1171531387445 0 L 205.68572570971608 107.6755450513043 M 214.5821671331467 101.60997202686876 l 7.1171531387445 0 L 221.6993202718912 92.18838174525641 l -7.1171531387445 0 L 214.5821671331467 101.60997202686876 M 232.37504998000796 103.22350895929031 l 7.1171531387445 0 L 239.49220311875246 98.89313475039594 l -7.1171531387445 0 L 232.37504998000796 103.22350895929031 M 250.16793282686922 112.01198718454377 l 7.1171531387445 0 L 257.28508596561375 99.8465573631228 l -7.1171531387445 0 L 250.16793282686922 112.01198718454377 M 267.9608156737305 108.32815031462188 l 7.1171531387445 0 L 275.07796881247504 106.47705414408892 l -7.1171531387445 0 L 267.9608156737305 108.32815031462188 M 276.85725709716115 106.47697829503461 l 7.1171531387445 0 L 283.9744102359057 100.03837962148289 l -7.1171531387445 0 L 276.85725709716115 106.47697829503461 M 294.65013994402244 109.0249755766045 l 7.1171531387445 0 L 301.76729308276697 104.88786475810218 l -7.1171531387445 0 L 294.65013994402244 109.0249755766045 M 330.23590563774496 112.66064829703703 l 7.1171531387445 0 L 337.3530587764895 109.61515706822166 l -7.1171531387445 0 L 330.23590563774496 112.66064829703703 M 339.13234706117555 109.61515706822166 l 7.1171531387445 0 L 346.2495001999201 106.3022979229495 l -7.1171531387445 0 L 339.13234706117555 109.61515706822166 M 348.02878848460614 106.3022979229495 l 7.1171531387445 0 L 355.14594162335067 89.11399202674741 l -7.1171531387445 0 L 348.02878848460614 106.3022979229495 M 356.9252299080368 89.11391617769311 l 7.1171531387445 0 L 364.0423830467813 88.60716864582132 l -7.1171531387445 0 L 356.9252299080368 89.11391617769311 M 374.7181127548981 103.74057196254877 l 7.1171531387445 0 L 381.8352658936426 98.83480682762848 l -7.1171531387445 0 L 374.7181127548981 103.74057196254877 M 392.5109956017593 104.54176552326746 l 7.1171531387445 0 L 399.62814874050383 103.29913046644134 l -7.1171531387445 0 L 392.5109956017593 104.54176552326746 M 401.40743702518995 103.29920631549567 l 7.1171531387445 0 L 408.5245901639345 102.88067123379106 l -7.1171531387445 0 L 401.40743702518995 103.29920631549567 M 410.3038784486206 102.88074708284537 l 7.1171531387445 0 L 417.4210315873651 91.85305307613424 l -7.1171531387445 0 L 410.3038784486206 102.88074708284537 M 490.3718512594962 161.9123973762295 l 7.1171531387445 0 L 497.48900439824075 158.5196691767647 l -7.1171531387445 0 L 490.3718512594962 161.9123973762295 M 508.16473410635746 175.07842792216067 l 7.1171531387445 0 L 515.281887245102 174.56106152268492 l -7.1171531387445 0 L 508.16473410635746 175.07842792216067 M 525.9576169532187 185.92340155702936 l 7.1171531387445 0 L 533.0747700919632 173.76320532035606 l -7.1171531387445 0 L 525.9576169532187 185.92340155702936 M 543.75049980008 173.76396381089918 l 7.1171531387445 0 L 550.8676529388244 172.62911026025327 l -7.1171531387445 0 L 543.75049980008 173.76396381089918 M 561.5433826469413 178.2079599031559 l 7.1171531387445 0 L 568.6605357856857 169.69670997142006 l -7.1171531387445 0 L 561.5433826469413 178.2079599031559 M 570.4398240703717 169.6967858204744 l 7.1171531387445 0 L 577.5569772091162 168.7291794345908 l -7.1171531387445 0 L 570.4398240703717 169.6967858204744 M 579.3362654938024 168.7292552836451 l 7.1171531387445 0 L 586.4534186325469 166.80640590773115 l -7.1171531387445 0 L 579.3362654938024 168.7292552836451 M 650.5077968812475 183.78423067821188 l 7.1171531387445 0 L 657.624950019992 183.3063057869794 l -7.1171531387445 0 L 650.5077968812475 183.78423067821188 M 659.4042383046781 183.3063057869794 l 7.1171531387445 0 L 666.5213914434225 176.32151807331266 l -7.1171531387445 0 L 659.4042383046781 183.3063057869794 M 677.1971211515394 176.7832112669219 l 7.1171531387445 0 L 684.3142742902838 173.83518607290006 l -7.1171531387445 0 L 677.1971211515394 176.7832112669219 M 686.09356257497 173.83518607290006 l 7.1171531387445 0 L 693.2107157137144 165.79162141006424 l -7.1171531387445 0 L 686.09356257497 173.83518607290006 M 739.4722111155537 183.18911899806432 l 7.1171531387445 0 L 746.5893642542982 176.33547429930644 l -7.1171531387445 0 L 739.4722111155537 183.18911899806432 M 748.3686525389844 176.33547429930644 l 7.1171531387445 0 L 755.4858056777289 173.6506453237541 l -7.1171531387445 0 L 748.3686525389844 176.33547429930644 M 757.265093962415 173.6506453237541 l 7.1171531387445 0 L 764.3822471011595 171.82116613370064 l -7.1171531387445 0 L 757.265093962415 173.6506453237541 M 766.1615353858456 171.82116613370064 l 7.1171531387445 0 L 773.27868852459 169.0484281041984 l -7.1171531387445 0 L 766.1615353858456 171.82116613370064 M 783.9544182327068 172.05220235314104 l 7.1171531387445 0 L 791.0715713714512 159.66605178366635 l -7.1171531387445 0 L 783.9544182327068 172.05220235314104 M 792.8508596561375 159.66605178366635 l 7.1171531387445 0 L 799.9680127948819 152.35389955158038 l -7.1171531387445 0 L 792.8508596561375 159.66605178366635 M 837.3330667732906 159.54469329676397 l 7.1171531387445 0 L 844.4502199120351 158.55031219470754 l -7.1171531387445 0 L 837.3330667732906 159.54469329676397 M 864.0223910435824 168.60038774036565 l 7.1171531387445 0 L 871.1395441823269 155.7228869970449 l -7.1171531387445 0 L 864.0223910435824 168.60038774036565 M 872.9188324670131 155.7087790729425 l 7.1171531387445 0 L 880.0359856057576 148.96868040849267 l -7.1171531387445 0 L 872.9188324670131 155.7087790729425 M 881.8152738904437 148.95108342789183 l 7.1171531387445 0 L 888.9324270291881 147.5880759218694 l -7.1171531387445 0 L 881.8152738904437 148.95108342789183"></path><path class="candle body down" d="M 1.0675729708116766 16.11708970212561 l 7.1171531387445 0 L 8.184726109556177 22.778001953871637 l -7.1171531387445 0 L 1.0675729708116766 16.11708970212561 M 9.964014394242305 22.778001953871637 l 7.1171531387445 0 L 17.081167532986804 28.62467460755701 l -7.1171531387445 0 L 9.964014394242305 22.778001953871637 M 18.860455817672932 28.624598758502685 l 7.1171531387445 0 L 25.977608956417434 30.654243602890773 l -7.1171531387445 0 L 18.860455817672932 28.624598758502685 M 45.54978008796481 23.187055903786984 l 7.1171531387445 0 L 52.66693322670931 40.73420367594855 l -7.1171531387445 0 L 45.54978008796481 23.187055903786984 M 72.23910435825668 28.375282916972623 l 7.1171531387445 0 L 79.35625749700118 37.06720529608438 l -7.1171531387445 0 L 72.23910435825668 28.375282916972623 M 81.13554578168731 37.06720529608438 l 7.1171531387445 0 L 88.25269892043181 44.38899035806821 l -7.1171531387445 0 L 81.13554578168731 37.06720529608438 M 107.82487005197919 37.60535433644213 l 7.1171531387445 0 L 114.94202319072369 43.644531889976435 l -7.1171531387445 0 L 107.82487005197919 37.60535433644213 M 125.61775289884046 28.77015309373124 l 7.1171531387445 0 L 132.73490603758498 52.564228979193075 l -7.1171531387445 0 L 125.61775289884046 28.77015309373124 M 134.51419432227107 52.564228979193075 l 7.1171531387445 0 L 141.63134746101557 56.654009987803505 l -7.1171531387445 0 L 134.51419432227107 52.564228979193075 M 143.4106357457017 56.654009987803505 l 7.1171531387445 0 L 150.5277888844462 60.760326090254324 l -7.1171531387445 0 L 143.4106357457017 56.654009987803505 M 152.30707716913233 60.7602502412 l 7.1171531387445 0 L 159.42423030787683 71.63700462982627 l -7.1171531387445 0 L 152.30707716913233 60.7602502412 M 161.20351859256294 71.63708047888059 l 7.1171531387445 0 L 168.32067173130744 101.68908259051825 l -7.1171531387445 0 L 161.20351859256294 71.63708047888059 M 178.9964014394242 94.55320356065799 l 7.1171531387445 0 L 186.1135545781687 109.0644170848478 l -7.1171531387445 0 L 178.9964014394242 94.55320356065799 M 187.89284286285485 109.0644170848478 l 7.1171531387445 0 L 195.00999600159935 109.62714121880327 l -7.1171531387445 0 L 187.89284286285485 109.0644170848478 M 223.47860855657734 92.18838174525641 l 7.1171531387445 0 L 230.59576169532184 103.22350895929031 l -7.1171531387445 0 L 223.47860855657734 92.18838174525641 M 241.2714914034386 98.89313475039594 l 7.1171531387445 0 L 248.3886445421831 112.0120630335981 l -7.1171531387445 0 L 241.2714914034386 98.89313475039594 M 259.06437425029986 99.84663321217711 l 7.1171531387445 0 L 266.1815273890444 108.32815031462188 l -7.1171531387445 0 L 259.06437425029986 99.84663321217711 M 285.7536985205918 100.03845547053719 l 7.1171531387445 0 L 292.8708516593363 109.02489972755018 l -7.1171531387445 0 L 285.7536985205918 100.03845547053719 M 303.54658136745303 104.88786475810218 l 7.1171531387445 0 L 310.66373450619756 105.74063567575438 l -7.1171531387445 0 L 303.54658136745303 104.88786475810218 M 312.4430227908837 105.74071152480872 l 7.1171531387445 0 L 319.5601759296282 108.32557144677521 l -7.1171531387445 0 L 312.4430227908837 105.74071152480872 M 321.3394642143143 108.32557144677521 l 7.1171531387445 0 L 328.45661735305885 112.66072414609135 l -7.1171531387445 0 L 321.3394642143143 108.32557144677521 M 365.8216713314674 88.60709279676702 l 7.1171531387445 0 L 372.93882447021196 103.74064781160307 l -7.1171531387445 0 L 365.8216713314674 88.60709279676702 M 383.61455417832866 98.83473097857416 l 7.1171531387445 0 L 390.7317073170732 104.54176552326746 l -7.1171531387445 0 L 383.61455417832866 98.83473097857416 M 419.20031987205124 91.85305307613424 l 7.1171531387445 0 L 426.31747301079577 93.732365094872 l -7.1171531387445 0 L 419.20031987205124 91.85305307613424 M 428.0967612954818 93.73244094392632 l 7.1171531387445 0 L 435.21391443422635 100.71472563880073 l -7.1171531387445 0 L 428.0967612954818 93.73244094392632 M 436.99320271891247 100.71472563880073 l 7.1171531387445 0 L 444.110355857657 101.43407806991462 l -7.1171531387445 0 L 436.99320271891247 100.71472563880073 M 445.8896441423431 101.43407806991462 l 7.1171531387445 0 L 453.00679728108764 109.15589104435045 l -7.1171531387445 0 L 445.8896441423431 101.43407806991462 M 454.7860855657737 109.15596689340478 l 7.1171531387445 0 L 461.90323870451823 114.21638825007129 l -7.1171531387445 0 L 454.7860855657737 109.15596689340478 M 463.68252698920435 114.21631240101698 l 7.1171531387445 0 L 470.7996801279489 128.24975273208292 l -7.1171531387445 0 L 463.68252698920435 114.21631240101698 M 472.57896841263494 128.24975273208292 l 7.1171531387445 0 L 479.69612155137946 159.25017141886275 l -7.1171531387445 0 L 472.57896841263494 128.24975273208292 M 481.47540983606564 159.26640311648595 l 7.1171531387445 0 L 488.59256297481016 161.9124732252838 l -7.1171531387445 0 L 481.47540983606564 159.26640311648595 M 499.2682926829268 158.5196691767647 l 7.1171531387445 0 L 506.38544582167134 175.07304263930436 l -7.1171531387445 0 L 499.2682926829268 158.5196691767647 M 517.0611755297881 174.56106152268492 l 7.1171531387445 0 L 524.1783286685326 185.92340155702936 l -7.1171531387445 0 L 517.0611755297881 174.56106152268492 M 534.8540583766493 173.76320532035606 l 7.1171531387445 0 L 541.9712115153937 173.7640396599535 l -7.1171531387445 0 L 534.8540583766493 173.76320532035606 M 552.6469412235106 172.6291861093076 l 7.1171531387445 0 L 559.764094362255 178.2080357522102 l -7.1171531387445 0 L 552.6469412235106 172.6291861093076 M 588.232706917233 166.80648175678544 l 7.1171531387445 0 L 595.3498600559775 170.2432782568067 l -7.1171531387445 0 L 588.232706917233 166.80648175678544 M 597.1291483406637 170.24320240775236 l 7.1171531387445 0 L 604.2463014794082 172.4846936608394 l -7.1171531387445 0 L 597.1291483406637 170.24320240775236 M 606.0255897640943 172.4846178117851 l 7.1171531387445 0 L 613.1427429028388 175.98338298918088 l -7.1171531387445 0 L 606.0255897640943 172.4846178117851 M 614.9220311875249 175.9834588382352 l 7.1171531387445 0 L 622.0391843262694 177.18392182086274 l -7.1171531387445 0 L 614.9220311875249 175.9834588382352 M 623.8184726109555 177.18399766991703 l 7.1171531387445 0 L 630.9356257497 178.55527272285968 l -7.1171531387445 0 L 623.8184726109555 177.18399766991703 M 632.7149140343862 178.55527272285968 l 7.1171531387445 0 L 639.8320671731307 183.57958992967275 l -7.1171531387445 0 L 632.7149140343862 178.55527272285968 M 641.6113554578168 183.57958992967275 l 7.1171531387445 0 L 648.7285085965613 183.7843065272662 l -7.1171531387445 0 L 641.6113554578168 183.57958992967275 M 668.3006797281087 176.32151807331266 l 7.1171531387445 0 L 675.4178328668531 176.7832871159762 l -7.1171531387445 0 L 668.3006797281087 176.32151807331266 M 694.9900039984005 165.7915455610099 l 7.1171531387445 0 L 702.107157137145 166.02091310125545 l -7.1171531387445 0 L 694.9900039984005 165.7915455610099 M 703.8864454218311 166.02091310125545 l 7.1171531387445 0 L 711.0035985605756 166.04306102511512 l -7.1171531387445 0 L 703.8864454218311 166.02091310125545 M 712.7828868452618 166.04063385537708 l 7.1171531387445 0 L 719.9000399840063 171.57518765056037 l -7.1171531387445 0 L 712.7828868452618 166.04063385537708 M 721.6793282686924 171.58550312194706 l 7.1171531387445 0 L 728.7964814074369 178.39295574662773 l -7.1171531387445 0 L 721.6793282686924 171.58550312194706 M 730.5757696921231 178.39295574662773 l 7.1171531387445 0 L 737.6929228308676 183.20830880880575 l -7.1171531387445 0 L 730.5757696921231 178.39295574662773 M 775.0579768092763 169.0484281041984 l 7.1171531387445 0 L 782.1751299480208 172.06297291885363 l -7.1171531387445 0 L 775.0579768092763 169.0484281041984 M 801.747301079568 152.33979162747798 l 7.1171531387445 0 L 808.8644542183125 153.6685153609505 l -7.1171531387445 0 L 801.747301079568 152.33979162747798 M 810.6437425029987 153.6685153609505 l 7.1171531387445 0 L 817.7608956417432 154.20787798617727 l -7.1171531387445 0 L 810.6437425029987 153.6685153609505 M 819.5401839264293 154.20787798617727 l 7.1171531387445 0 L 826.6573370651738 157.7527593885959 l -7.1171531387445 0 L 819.5401839264293 154.20787798617727 M 828.43662534986 157.7527593885959 l 7.1171531387445 0 L 835.5537784886045 159.52580688223978 l -7.1171531387445 0 L 828.43662534986 157.7527593885959 M 846.2295081967213 158.5696537035576 l 7.1171531387445 0 L 853.3466613354658 168.17388850795805 l -7.1171531387445 0 L 846.2295081967213 158.5696537035576 M 855.1259496201519 168.17388850795805 l 7.1171531387445 0 L 862.2431027588964 168.60038774036565 l -7.1171531387445 0 L 855.1259496201519 168.17388850795805"></path><path class="candle body equal"></path><path class="candle wick up" d="M 31.315473810475808 26.87392673588147 L 31.315473810475808 30.58954435956096 M 31.315473810475808 30.654167753836447 L 31.315473810475808 34.53756348565844 M 40.21191523390643 21.746530664255687 L 40.21191523390643 23.187055903786984 M 40.21191523390643 30.58962020861523 L 40.21191523390643 40.07166218651588 M 58.004798080767685 30.40303153500281 L 58.004798080767685 32.2158239331072 M 58.004798080767685 40.734279525002904 L 58.004798080767685 42.48889569844846 M 66.90123950419832 23.592469099095297 L 66.90123950419832 28.375207067918296 M 66.90123950419832 32.2158239331072 L 66.90123950419832 34.90308007839761 M 93.5905637744902 36.4688321066013 L 93.5905637744902 38.03625281399994 M 93.5905637744902 44.38899035806821 L 93.5905637744902 46.242892943610826 M 102.48700519792082 32.7344797665063 L 102.48700519792082 37.60535433644213 M 102.48700519792082 38.03625281399994 L 102.48700519792082 41.194228190362935 M 120.27988804478207 26.238539207893183 L 120.27988804478207 28.77015309373124 M 120.27988804478207 43.644531889976435 L 120.27988804478207 44.09166206515738 M 173.65853658536582 82.09969903095246 L 173.65853658536582 94.55327940971232 M 173.65853658536582 101.70485919381558 L 173.65853658536582 104.31277722829351 M 200.34786085565773 94.05062772677351 L 200.34786085565773 107.6755450513043 M 200.34786085565773 109.62721706785759 L 200.34786085565773 111.73635172116676 M 209.24430227908834 99.66421623655195 L 209.24430227908834 101.60997202686876 M 209.24430227908834 107.6755450513043 L 209.24430227908834 112.65920716500506 M 218.14074370251896 91.19392479414567 L 218.14074370251896 92.18838174525641 M 218.14074370251896 101.60997202686876 L 218.14074370251896 106.21203754831585 M 235.93362654938022 96.28817482903625 L 235.93362654938022 98.89313475039594 M 235.93362654938022 103.22350895929031 L 235.93362654938022 106.43670244719388 M 253.72650939624148 98.13274798089817 L 253.72650939624148 99.8465573631228 M 253.72650939624148 112.01198718454377 L 253.72650939624148 112.19364566962578 M 271.51939224310274 104.87572890941196 L 271.51939224310274 106.47705414408892 M 271.51939224310274 108.32815031462188 L 271.51939224310274 110.25266836973077 M 280.4158336665334 98.56652872251988 L 280.4158336665334 100.03837962148289 M 280.4158336665334 106.47697829503461 L 280.4158336665334 107.91780693078317 M 298.2087165133947 103.43702404718418 L 298.2087165133947 104.88786475810218 M 298.2087165133947 109.0249755766045 L 298.2087165133947 112.3633958531805 M 333.7944822071172 107.83520731063525 L 333.7944822071172 109.61515706822166 M 333.7944822071172 112.66064829703703 L 333.7944822071172 114.0244901426569 M 342.6909236305478 105.39453644091967 L 342.6909236305478 106.3022979229495 M 342.6909236305478 109.61515706822166 L 342.6909236305478 111.07236909970207 M 351.5873650539784 85.41422685541957 L 351.5873650539784 89.11399202674741 M 351.5873650539784 106.3022979229495 L 351.5873650539784 107.58020279003162 M 360.483806477409 84.07169859406194 L 360.483806477409 88.60716864582132 M 360.483806477409 89.11391617769311 L 360.483806477409 93.16592435725512 M 378.2766893242703 97.04188688175437 L 378.2766893242703 98.83480682762848 M 378.2766893242703 103.74057196254877 L 378.2766893242703 105.3431866311491 M 396.06957217113154 102.35223087238548 L 396.06957217113154 103.29913046644134 M 396.06957217113154 104.54176552326746 L 396.06957217113154 106.17411302115886 M 404.9660135945622 100.8343395974539 L 404.9660135945622 102.88067123379106 M 404.9660135945622 103.29920631549567 L 404.9660135945622 105.82202171103332 M 413.86245501799283 88.87567429809286 L 413.86245501799283 91.85305307613424 M 413.86245501799283 102.88074708284537 L 413.86245501799283 103.10048179319301 M 493.93042782886846 156.8792058300617 L 493.93042782886846 158.5196691767647 M 493.93042782886846 161.9123973762295 L 493.93042782886846 177.27031389372638 M 511.7233106757297 167.76028361478387 L 511.7233106757297 174.56106152268492 M 511.7233106757297 175.07842792216067 L 511.7233106757297 176.24604826427023 M 529.5161935225909 171.92803745122905 L 529.5161935225909 173.76320532035606 M 529.5161935225909 185.92340155702936 L 529.5161935225909 193.5870383068064 M 547.3090763694522 165.0481489796785 L 547.3090763694522 172.62911026025327 M 547.3090763694522 173.76396381089918 L 547.3090763694522 175.47435998567968 M 565.1019592163135 168.76475264106406 L 565.1019592163135 169.69670997142006 M 565.1019592163135 178.2079599031559 L 565.1019592163135 178.95074969205282 M 573.998400639744 166.29654856463247 L 573.998400639744 168.7291794345908 M 573.998400639744 169.6967858204744 L 573.998400639744 172.5289895085588 M 582.8948420631747 165.8711112189853 L 582.8948420631747 166.80640590773115 M 582.8948420631747 168.7292552836451 L 582.8948420631747 171.2403140757641 M 654.0663734506197 180.7896341648412 L 654.0663734506197 183.3063057869794 M 654.0663734506197 183.78423067821188 L 654.0663734506197 187.36294075885462 M 662.9628148740503 175.43180866620955 L 662.9628148740503 176.32151807331266 M 662.9628148740503 183.3063057869794 L 662.9628148740503 185.28232534996752 M 680.7556977209116 172.99546119258983 L 680.7556977209116 173.83518607290006 M 680.7556977209116 176.7832112669219 L 680.7556977209116 179.92783720972565 M 689.6521391443422 164.1751263645245 L 689.6521391443422 165.79162141006424 M 689.6521391443422 173.83518607290006 L 689.6521391443422 176.2079720390046 M 743.0307876849259 175.3362388577739 L 743.0307876849259 176.33547429930644 M 743.0307876849259 183.18911899806432 L 743.0307876849259 186.37735814709862 M 751.9272291083566 171.29052614971997 L 751.9272291083566 173.6506453237541 M 751.9272291083566 176.33547429930644 L 751.9272291083566 181.02901378025618 M 760.8236705317872 169.01505452030023 L 760.8236705317872 171.82116613370064 M 760.8236705317872 173.6506453237541 L 760.8236705317872 175.21730754060957 M 769.7201119552178 166.06498140181188 L 769.7201119552178 169.0484281041984 M 769.7201119552178 171.82116613370064 L 769.7201119552178 174.48672944945721 M 787.512994802079 157.0488801645621 L 787.512994802079 159.66605178366635 M 787.512994802079 172.05220235314104 L 787.512994802079 172.3338298918089 M 796.4094362255097 149.29430039866264 L 796.4094362255097 152.35389955158038 M 796.4094362255097 159.66605178366635 L 796.4094362255097 166.13627951286702 M 840.8916433426629 155.2511817282662 L 840.8916433426629 158.55031219470754 M 840.8916433426629 159.54469329676397 L 840.8916433426629 160.99667174349668 M 867.5809676129546 154.5079368450434 L 867.5809676129546 155.7228869970449 M 867.5809676129546 168.60038774036565 L 867.5809676129546 170.20944957858265 M 876.4774090363853 146.26246199962378 L 876.4774090363853 148.96868040849267 M 876.4774090363853 155.7087790729425 L 876.4774090363853 158.53172917640063 M 885.3738504598159 146.92780990406612 L 885.3738504598159 147.5880759218694 M 885.3738504598159 148.95108342789183 L 885.3738504598159 150.04520603637113" style="stroke-width: 1px;"></path><path class="candle wick down" d="M 4.626149540183927 3.846153846153868 L 4.626149540183927 16.11708970212561 M 4.626149540183927 22.778001953871637 L 4.626149540183927 28.30747386241589 M 13.522590963614554 20.3883774977094 L 13.522590963614554 22.778001953871637 M 13.522590963614554 28.62467460755701 L 13.522590963614554 32.661209580038985 M 22.41903238704518 26.570530518625503 L 22.41903238704518 28.624598758502685 M 22.41903238704518 30.654243602890773 L 22.41903238704518 31.842039793447867 M 49.10835665733706 20.371311460488727 L 49.10835665733706 23.187055903786984 M 49.10835665733706 40.73420367594855 L 49.10835665733706 43.84697301594042 M 75.79768092762893 26.985804090994606 L 75.79768092762893 28.375282916972623 M 75.79768092762893 37.06720529608438 L 75.79768092762893 40.26128482230084 M 84.69412235105956 35.555761190769516 L 84.69412235105956 37.06720529608438 M 84.69412235105956 44.38899035806821 L 84.69412235105956 44.78795638375982 M 111.38344662135144 36.64700153518484 L 111.38344662135144 37.60535433644213 M 111.38344662135144 43.644531889976435 L 111.38344662135144 45.246084671816305 M 129.1763294682127 27.59062445009434 L 129.1763294682127 28.77015309373124 M 129.1763294682127 52.564228979193075 L 129.1763294682127 60.0055521507758 M 138.07277089164333 51.6338644789777 L 138.07277089164333 52.564228979193075 M 138.07277089164333 56.654009987803505 L 138.07277089164333 62.38645396569197 M 146.96921231507397 55.64878247098014 L 146.96921231507397 56.654009987803505 M 146.96921231507397 60.760326090254324 L 146.96921231507397 65.97411423474372 M 155.8656537385046 60.443049496058876 L 155.8656537385046 60.7602502412 M 155.8656537385046 71.63700462982627 L 155.8656537385046 74.09792719704373 M 164.7620951619352 70.0839952427473 L 164.7620951619352 71.63708047888059 M 164.7620951619352 101.68908259051825 L 164.7620951619352 102.01508182595978 M 182.55497800879647 85.86484608709898 L 182.55497800879647 94.55320356065799 M 182.55497800879647 109.0644170848478 L 182.55497800879647 119.06845225453728 M 191.4514194322271 100.42475470415835 L 191.4514194322271 109.0644170848478 M 191.4514194322271 109.62714121880327 L 191.4514194322271 127.29807464760529 M 227.0371851259496 92.18830589620208 L 227.0371851259496 92.18838174525641 M 227.0371851259496 103.22350895929031 L 227.0371851259496 109.19260198663842 M 244.83006797281087 96.8826797167493 L 244.83006797281087 98.89313475039594 M 244.83006797281087 112.0120630335981 L 244.83006797281087 112.47360452909872 M 262.6229508196721 96.37191218499885 L 262.6229508196721 99.84663321217711 M 262.6229508196721 108.32815031462188 L 262.6229508196721 111.90071662186516 M 289.31227508996403 97.18213178318094 L 289.31227508996403 100.03845547053719 M 289.31227508996403 109.02489972755018 L 289.31227508996403 110.8665147662939 M 307.10515793682526 100.57083998276708 L 307.10515793682526 104.88786475810218 M 307.10515793682526 105.74063567575438 L 307.10515793682526 107.62123712841549 M 316.0015993602559 103.12771160369174 L 316.0015993602559 105.74071152480872 M 316.0015993602559 108.32557144677521 L 316.0015993602559 117.2893368365483 M 324.89804078368655 106.83657866153725 L 324.89804078368655 108.32557144677521 M 324.89804078368655 112.66072414609135 L 324.89804078368655 115.29192784024367 M 369.38024790083966 87.22724680068687 L 369.38024790083966 88.60709279676702 M 369.38024790083966 103.74064781160307 L 369.38024790083966 107.56973562053628 M 387.1731307477009 96.96603782744037 L 387.1731307477009 98.83473097857416 M 387.1731307477009 104.54176552326746 L 387.1731307477009 107.71111825777756 M 422.7588964414235 90.21092105023637 L 422.7588964414235 91.85305307613424 M 422.7588964414235 93.732365094872 L 422.7588964414235 108.19200126212827 M 431.65533786485406 92.20104853732683 L 431.65533786485406 93.73244094392632 M 431.65533786485406 100.71472563880073 L 431.65533786485406 103.45204215993834 M 440.5517792882847 96.95845292200897 L 440.5517792882847 100.71472563880073 M 440.5517792882847 101.43407806991462 L 440.5517792882847 102.69188293760354 M 449.44822071171535 99.36438492484876 L 449.44822071171535 101.43407806991462 M 449.44822071171535 109.15589104435045 L 449.44822071171535 110.99052797009726 M 458.34466213514594 106.51232395434494 L 458.34466213514594 109.15596689340478 M 458.34466213514594 114.21638825007129 L 458.34466213514594 116.67928289270087 M 467.2411035585766 113.30422752289125 L 467.2411035585766 114.21631240101698 M 467.2411035585766 128.24975273208292 L 467.2411035585766 128.35996140800117 M 476.13754498200717 125.81264676792009 L 476.13754498200717 128.24975273208292 M 476.13754498200717 159.25017141886275 L 476.13754498200717 163.51015770535372 M 485.0339864054379 152.60981426083578 L 485.0339864054379 159.26640311648595 M 485.0339864054379 161.9124732252838 L 485.0339864054379 171.7001110430155 M 502.82686925229905 155.39461228997396 L 502.82686925229905 158.5196691767647 M 502.82686925229905 175.07304263930436 L 502.82686925229905 176.35724297789454 M 520.6197520991603 172.10924084198516 L 520.6197520991603 174.56106152268492 M 520.6197520991603 185.92340155702936 L 520.6197520991603 196.15384615384613 M 538.4126349460215 169.84939411775414 L 538.4126349460215 173.76320532035606 M 538.4126349460215 173.7640396599535 L 538.4126349460215 180.87003416241407 M 556.2055177928828 171.29052614971997 L 556.2055177928828 172.6291861093076 M 556.2055177928828 178.2080357522102 L 556.2055177928828 179.8576009854309 M 591.7912834866053 163.79663958349767 L 591.7912834866053 166.80648175678544 M 591.7912834866053 170.2432782568067 L 591.7912834866053 170.7995552211455 M 600.687724910036 166.43732440943927 L 600.687724910036 170.24320240775236 M 600.687724910036 172.4846936608394 L 600.687724910036 174.2486392679656 M 609.5841663334666 168.92327716458033 L 609.5841663334666 172.4846178117851 M 609.5841663334666 175.98338298918088 L 609.5841663334666 176.5847142917822 M 618.4806077568971 174.83791057093097 L 618.4806077568971 175.9834588382352 M 618.4806077568971 177.18392182086274 L 618.4806077568971 179.2173591179665 M 627.3770491803277 176.75863617332416 L 627.3770491803277 177.18399766991703 M 627.3770491803277 178.55527272285968 L 627.3770491803277 188.53860110072145 M 636.2734906037584 171.1513431350538 L 636.2734906037584 178.55527272285968 M 636.2734906037584 183.57958992967275 L 636.2734906037584 185.8914691051632 M 645.169932027189 182.1567375197966 L 645.169932027189 183.57958992967275 M 645.169932027189 183.7843065272662 L 645.169932027189 185.8762234452461 M 671.8592562974809 172.42826196442982 L 671.8592562974809 176.32151807331266 M 671.8592562974809 176.7832871159762 L 671.8592562974809 183.3930012560603 M 698.5485805677728 158.94707859782403 L 698.5485805677728 165.7915455610099 M 698.5485805677728 166.02091310125545 L 698.5485805677728 169.09651640463346 M 707.4450219912034 163.09882828380896 L 707.4450219912034 166.02091310125545 M 707.4450219912034 166.04306102511512 L 707.4450219912034 168.08878586901778 M 716.3414634146341 165.9230678211904 L 716.3414634146341 166.04063385537708 M 716.3414634146341 171.57518765056037 L 716.3414634146341 173.14882798041273 M 725.2379048380647 171.52960236891766 L 725.2379048380647 171.58550312194706 M 725.2379048380647 178.39295574662773 L 725.2379048380647 179.06330968865478 M 734.1343462614954 177.6662459572454 L 734.1343462614954 178.39295574662773 M 734.1343462614954 183.20830880880575 L 734.1343462614954 183.88146916584242 M 778.6165533786485 165.3398644425701 L 778.6165533786485 169.0484281041984 M 778.6165533786485 172.06297291885363 L 778.6165533786485 172.42818611537552 M 805.3058776489403 145.6782725832974 L 805.3058776489403 152.33979162747798 M 805.3058776489403 153.6685153609505 L 805.3058776489403 156.07376472230146 M 814.202319072371 152.00385616592132 L 814.202319072371 153.6685153609505 M 814.202319072371 154.20787798617727 L 814.202319072371 160.35718836657543 M 823.0987604958016 149.6243196339828 L 823.0987604958016 154.20787798617727 M 823.0987604958016 157.7527593885959 L 823.0987604958016 159.15467745948143 M 831.9952019192323 155.3563843665997 L 831.9952019192323 157.7527593885959 M 831.9952019192323 159.52580688223978 L 831.9952019192323 163.4434105375574 M 849.7880847660936 157.89558315786917 L 849.7880847660936 158.5696537035576 M 849.7880847660936 168.17388850795805 L 849.7880847660936 168.63580924873028 M 858.6845261895241 167.89385379943081 L 858.6845261895241 168.17388850795805 M 858.6845261895241 168.60038774036565 L 858.6845261895241 172.75820535069568" style="stroke-width: 1px;"></path><path class="candle wick equal" style="stroke-width: 1px;"></path></g></g><g class="x axis" transform="translate(0,200)" fill="none" font-size="10" font-family="sans-serif" text-anchor="middle"><path class="domain" stroke="#000" d="M0.5,6V0.5H890.5V6"></path><g class="tick" opacity="1" transform="translate(40.21191523390643,0)"><line stroke="#000" y2="6" x1="0.5" x2="0.5"></line><text fill="#000" y="9" x="0.5" dy="0.71em">Apr 25</text></g><g class="tick" opacity="1" transform="translate(102.48700519792082,0)"><line stroke="#000" y2="6" x1="0.5" x2="0.5"></line><text fill="#000" y="9" x="0.5" dy="0.71em">May  2</text></g><g class="tick" opacity="1" transform="translate(164.7620951619352,0)"><line stroke="#000" y2="6" x1="0.5" x2="0.5"></line><text fill="#000" y="9" x="0.5" dy="0.71em">May  9</text></g><g class="tick" opacity="1" transform="translate(227.0371851259496,0)"><line stroke="#000" y2="6" x1="0.5" x2="0.5"></line><text fill="#000" y="9" x="0.5" dy="0.71em">May 16</text></g><g class="tick" opacity="1" transform="translate(289.31227508996403,0)"><line stroke="#000" y2="6" x1="0.5" x2="0.5"></line><text fill="#000" y="9" x="0.5" dy="0.71em">May 23</text></g><g class="tick" opacity="1" transform="translate(351.5873650539784,0)"><line stroke="#000" y2="6" x1="0.5" x2="0.5"></line><text fill="#000" y="9" x="0.5" dy="0.71em">May 30</text></g><g class="tick" opacity="1" transform="translate(413.86245501799283,0)"><line stroke="#000" y2="6" x1="0.5" x2="0.5"></line><text fill="#000" y="9" x="0.5" dy="0.71em">Jun  6</text></g><g class="tick" opacity="1" transform="translate(476.13754498200717,0)"><line stroke="#000" y2="6" x1="0.5" x2="0.5"></line><text fill="#000" y="9" x="0.5" dy="0.71em">Jun 13</text></g><g class="tick" opacity="1" transform="translate(538.4126349460215,0)"><line stroke="#000" y2="6" x1="0.5" x2="0.5"></line><text fill="#000" y="9" x="0.5" dy="0.71em">Jun 20</text></g><g class="tick" opacity="1" transform="translate(600.687724910036,0)"><line stroke="#000" y2="6" x1="0.5" x2="0.5"></line><text fill="#000" y="9" x="0.5" dy="0.71em">Jun 27</text></g><g class="tick" opacity="1" transform="translate(662.9628148740503,0)"><line stroke="#000" y2="6" x1="0.5" x2="0.5"></line><text fill="#000" y="9" x="0.5" dy="0.71em">Jul  4</text></g><g class="tick" opacity="1" transform="translate(725.2379048380647,0)"><line stroke="#000" y2="6" x1="0.5" x2="0.5"></line><text fill="#000" y="9" x="0.5" dy="0.71em">Jul 11</text></g><g class="tick" opacity="1" transform="translate(787.512994802079,0)"><line stroke="#000" y2="6" x1="0.5" x2="0.5"></line><text fill="#000" y="9" x="0.5" dy="0.71em">Jul 18</text></g><g class="tick" opacity="1" transform="translate(849.7880847660936,0)"><line stroke="#000" y2="6" x1="0.5" x2="0.5"></line><text fill="#000" y="9" x="0.5" dy="0.71em">Jul 25</text></g></g><g class="y axis" fill="none" font-size="10" font-family="sans-serif" text-anchor="end"><path class="domain" stroke="#000" d="M-6,200.5H0.5V0.5H-6"></path><g class="tick" opacity="1" transform="translate(0,193.2867519007773)"><line stroke="#000" x2="-6" y1="0.5" y2="0.5"></line><text fill="#000" x="-9" y="0.5" dy="0.32em">18,000</text></g><g class="tick" opacity="1" transform="translate(0,178.11694103797913)"><line stroke="#000" x2="-6" y1="0.5" y2="0.5"></line><text fill="#000" x="-9" y="0.5" dy="0.32em">20,000</text></g><g class="tick" opacity="1" transform="translate(0,162.94713017518097)"><line stroke="#000" x2="-6" y1="0.5" y2="0.5"></line><text fill="#000" x="-9" y="0.5" dy="0.32em">22,000</text></g><g class="tick" opacity="1" transform="translate(0,147.77731931238282)"><line stroke="#000" x2="-6" y1="0.5" y2="0.5"></line><text fill="#000" x="-9" y="0.5" dy="0.32em">24,000</text></g><g class="tick" opacity="1" transform="translate(0,132.60750844958466)"><line stroke="#000" x2="-6" y1="0.5" y2="0.5"></line><text fill="#000" x="-9" y="0.5" dy="0.32em">26,000</text></g><g class="tick" opacity="1" transform="translate(0,117.43769758678648)"><line stroke="#000" x2="-6" y1="0.5" y2="0.5"></line><text fill="#000" x="-9" y="0.5" dy="0.32em">28,000</text></g><g class="tick" opacity="1" transform="translate(0,102.26788672398833)"><line stroke="#000" x2="-6" y1="0.5" y2="0.5"></line><text fill="#000" x="-9" y="0.5" dy="0.32em">30,000</text></g><g class="tick" opacity="1" transform="translate(0,87.09807586119015)"><line stroke="#000" x2="-6" y1="0.5" y2="0.5"></line><text fill="#000" x="-9" y="0.5" dy="0.32em">32,000</text></g><g class="tick" opacity="1" transform="translate(0,71.928264998392)"><line stroke="#000" x2="-6" y1="0.5" y2="0.5"></line><text fill="#000" x="-9" y="0.5" dy="0.32em">34,000</text></g><g class="tick" opacity="1" transform="translate(0,56.75845413559384)"><line stroke="#000" x2="-6" y1="0.5" y2="0.5"></line><text fill="#000" x="-9" y="0.5" dy="0.32em">36,000</text></g><g class="tick" opacity="1" transform="translate(0,41.58864327279568)"><line stroke="#000" x2="-6" y1="0.5" y2="0.5"></line><text fill="#000" x="-9" y="0.5" dy="0.32em">38,000</text></g><g class="tick" opacity="1" transform="translate(0,26.41883240999752)"><line stroke="#000" x2="-6" y1="0.5" y2="0.5"></line><text fill="#000" x="-9" y="0.5" dy="0.32em">40,000</text></g><g class="tick" opacity="1" transform="translate(0,11.249021547199362)"><line stroke="#000" x2="-6" y1="0.5" y2="0.5"></line><text fill="#000" x="-9" y="0.5" dy="0.32em">42,000</text></g><text transform="rotate(-90)" y="6" dy=".71em" style="text-anchor: end;">Price ($)</text></g></g></svg>