<?xml version="1.0" encoding="utf-8"?>
<!DOCTYPE svg PUBLIC "-//W3C//DTD SVG 1.1//EN" "http://www.w3.org/Graphics/SVG/1.1/DTD/svg11.dtd">
<svg version="1.1" xmlns="http://www.w3.org/2000/svg" width="960" height="250"><g transform="translate(50,20)"><style>.axis path,.axis line{fill:none;stroke:#000;shape-rendering:crispEdges;}path.candle{stroke:#000000;}path.candle.body{stroke-width:0;}path.candle.up{fill:#00AA00;stroke:#00AA00;}path.candle.down{fill:#FF0000;stroke:#FF0000;}</style><g class="candlestick"><g class="data"><path class="candle body up" d="M 1.0675729708116766 189.4430899707813 l 7.1171531387445 0 L 8.184726109556177 188.91065533335865 l -7.1171531387445 0 L 1.0675729708116766 189.4430899707813 M 9.964014394242305 188.90322113377837 l 7.1171531387445 0 L 17.081167532986804 188.78888040771886 l -7.1171531387445 0 L 9.964014394242305 188.90322113377837 M 18.860455817672932 188.78892601630525 l 7.1171531387445 0 L 25.977608956417434 184.89915211813573 l -7.1171531387445 0 L 18.860455817672932 188.78892601630525 M 27.75689724110356 184.89919772672212 l 7.1171531387445 0 L 34.87405037984806 184.67963799187947 l -7.1171531387445 0 L 27.75689724110356 184.89919772672212 M 54.446221511395436 186.21112871399842 l 7.1171531387445 0 L 61.563374650139934 182.59892867254933 l -7.1171531387445 0 L 54.446221511395436 186.21112871399842 M 90.03198720511796 191.8140523338461 l 7.1171531387445 0 L 97.14914034386246 189.16729484892977 l -7.1171531387445 0 L 90.03198720511796 191.8140523338461 M 98.92842862854857 189.16734045751616 l 7.1171531387445 0 L 106.04558176729307 187.04585706196053 l -7.1171531387445 0 L 98.92842862854857 189.16734045751616 M 107.82487005197919 187.04581145337417 l 7.1171531387445 0 L 114.94202319072369 180.15494696268706 l -7.1171531387445 0 L 107.82487005197919 187.04581145337417 M 125.61775289884046 184.40069587756759 l 7.1171531387445 0 L 132.73490603758498 182.39788602377777 l -7.1171531387445 0 L 125.61775289884046 184.40069587756759 M 134.51419432227107 182.39793163236413 l 7.1171531387445 0 L 141.63134746101557 181.40448540379288 l -7.1171531387445 0 L 134.51419432227107 182.39793163236413 M 152.30707716913233 184.9226861487088 l 7.1171531387445 0 L 159.42423030787683 182.655255276731 l -7.1171531387445 0 L 152.30707716913233 184.9226861487088 M 161.20351859256294 182.655255276731 l 7.1171531387445 0 L 168.32067173130744 181.68953906867995 l -7.1171531387445 0 L 161.20351859256294 182.655255276731 M 187.89284286285485 186.4113504082151 l 7.1171531387445 0 L 195.00999600159935 185.42086873775867 l -7.1171531387445 0 L 187.89284286285485 186.4113504082151 M 214.5821671331467 187.72296213538672 l 7.1171531387445 0 L 221.6993202718912 184.2012495293194 l -7.1171531387445 0 L 214.5821671331467 187.72296213538672 M 223.47860855657734 184.2012495293194 l 7.1171531387445 0 L 230.59576169532184 182.5306070101492 l -7.1171531387445 0 L 223.47860855657734 184.2012495293194 M 232.37504998000796 182.5306070101492 l 7.1171531387445 0 L 239.49220311875246 182.08295873481052 l -7.1171531387445 0 L 232.37504998000796 182.5306070101492 M 241.2714914034386 182.0804502625595 l 7.1171531387445 0 L 248.3886445421831 181.38382471416188 l -7.1171531387445 0 L 241.2714914034386 182.0804502625595 M 250.16793282686922 181.38382471416188 l 7.1171531387445 0 L 257.28508596561375 172.67673509657345 l -7.1171531387445 0 L 250.16793282686922 181.38382471416188 M 259.06437425029986 172.67673509657345 l 7.1171531387445 0 L 266.1815273890444 166.01040167664462 l -7.1171531387445 0 L 259.06437425029986 172.67673509657345 M 267.9608156737305 166.01044728523098 l 7.1171531387445 0 L 275.07796881247504 164.5954865013179 l -7.1171531387445 0 L 267.9608156737305 166.01044728523098 M 276.85725709716115 164.5954865013179 l 7.1171531387445 0 L 283.9744102359057 161.33803004474748 l -7.1171531387445 0 L 276.85725709716115 164.5954865013179 M 303.54658136745303 166.3628648322042 l 7.1171531387445 0 L 310.66373450619756 161.38737853521275 l -7.1171531387445 0 L 303.54658136745303 166.3628648322042 M 321.3394642143143 164.02537917154376 l 7.1171531387445 0 L 328.45661735305885 161.75949899150294 l -7.1171531387445 0 L 321.3394642143143 164.02537917154376 M 330.23590563774496 161.76045677181696 l 7.1171531387445 0 L 337.3530587764895 157.2749435183266 l -7.1171531387445 0 L 330.23590563774496 161.76045677181696 M 339.13234706117555 157.2749435183266 l 7.1171531387445 0 L 346.2495001999201 149.15241915239545 l -7.1171531387445 0 L 339.13234706117555 157.2749435183266 M 356.9252299080368 150.11863705489668 l 7.1171531387445 0 L 364.0423830467813 146.4796647732414 l -7.1171531387445 0 L 356.9252299080368 150.11863705489668 M 365.8216713314674 146.47961916465505 l 7.1171531387445 0 L 372.93882447021196 145.08591198199593 l -7.1171531387445 0 L 365.8216713314674 146.47961916465505 M 374.7181127548981 145.08591198199593 l 7.1171531387445 0 L 381.8352658936426 138.2877697474233 l -7.1171531387445 0 L 374.7181127548981 145.08591198199593 M 383.61455417832866 138.28772413883692 l 7.1171531387445 0 L 390.7317073170732 138.0684380555126 l -7.1171531387445 0 L 383.61455417832866 138.28772413883692 M 392.5109956017593 138.0684380555126 l 7.1171531387445 0 L 399.62814874050383 136.20733407961143 l -7.1171531387445 0 L 392.5109956017593 138.0684380555126 M 401.40743702518995 136.20728847102507 l 7.1171531387445 0 L 408.5245901639345 123.22421144578487 l -7.1171531387445 0 L 401.40743702518995 136.20728847102507 M 410.3038784486206 123.2327858600247 l 7.1171531387445 0 L 417.4210315873651 119.4764626856087 l -7.1171531387445 0 L 410.3038784486206 123.2327858600247 M 428.0967612954818 124.08429816777539 l 7.1171531387445 0 L 435.21391443422635 115.14601862581695 l -7.1171531387445 0 L 428.0967612954818 124.08429816777539 M 436.99320271891247 115.14601862581695 l 7.1171531387445 0 L 444.110355857657 102.28517261208037 l -7.1171531387445 0 L 436.99320271891247 115.14601862581695 M 445.8896441423431 102.28517261208037 l 7.1171531387445 0 L 453.00679728108764 90.13997092726271 l -7.1171531387445 0 L 445.8896441423431 102.28517261208037 M 454.7860855657737 90.13905875553505 l 7.1171531387445 0 L 461.90323870451823 84.8925662382622 l -7.1171531387445 0 L 454.7860855657737 90.13905875553505 M 499.2682926829268 114.69166588828013 l 7.1171531387445 0 L 506.38544582167134 99.53944449471526 l -7.1171531387445 0 L 499.2682926829268 114.69166588828013 M 508.16473410635746 99.53944449471526 l 7.1171531387445 0 L 515.281887245102 91.45249482616198 l -7.1171531387445 0 L 508.16473410635746 99.53944449471526 M 543.75049980008 106.59231068423097 l 7.1171531387445 0 L 550.8676529388244 102.9149815814285 l -7.1171531387445 0 L 543.75049980008 106.59231068423097 M 579.3362654938024 129.2734606919662 l 7.1171531387445 0 L 586.4534186325469 119.72676260767277 l -7.1171531387445 0 L 579.3362654938024 129.2734606919662 M 597.1291483406637 123.68180239295484 l 7.1171531387445 0 L 604.2463014794082 122.85218220666746 l -7.1171531387445 0 L 597.1291483406637 123.68180239295484 M 614.9220311875249 122.87822470949158 l 7.1171531387445 0 L 622.0391843262694 121.90411652154624 l -7.1171531387445 0 L 614.9220311875249 122.87822470949158 M 632.7149140343862 131.50736925295325 l 7.1171531387445 0 L 639.8320671731307 117.8126158458094 l -7.1171531387445 0 L 632.7149140343862 131.50736925295325 M 641.6113554578168 117.79747379513061 l 7.1171531387445 0 L 648.7285085965613 113.765583541795 l -7.1171531387445 0 L 641.6113554578168 117.79747379513061 M 650.5077968812475 113.79258382493309 l 7.1171531387445 0 L 657.624950019992 113.7168735715391 l -7.1171531387445 0 L 650.5077968812475 113.79258382493309 M 668.3006797281087 119.05266770094778 l 7.1171531387445 0 L 675.4178328668531 117.0759915671548 l -7.1171531387445 0 L 668.3006797281087 119.05266770094778 M 677.1971211515394 117.11831633531726 l 7.1171531387445 0 L 684.3142742902838 108.22851872068281 l -7.1171531387445 0 L 677.1971211515394 117.11831633531726 M 686.09356257497 108.1990099652937 l 7.1171531387445 0 L 693.2107157137144 98.41067759034878 l -7.1171531387445 0 L 686.09356257497 108.1990099652937 M 703.8864454218311 101.52218657049701 l 7.1171531387445 0 L 711.0035985605756 95.34865392642497 l -7.1171531387445 0 L 703.8864454218311 101.52218657049701 M 712.7828868452618 95.3528499163721 l 7.1171531387445 0 L 719.9000399840063 91.25893198555704 l -7.1171531387445 0 L 712.7828868452618 95.3528499163721 M 730.5757696921231 93.04336792775017 l 7.1171531387445 0 L 737.6929228308676 58.47579935432836 l -7.1171531387445 0 L 730.5757696921231 93.04336792775017 M 739.4722111155537 58.47584496291475 l 7.1171531387445 0 L 746.5893642542982 58.26805224335868 l -7.1171531387445 0 L 739.4722111155537 58.47584496291475 M 757.265093962415 65.62398748938233 l 7.1171531387445 0 L 764.3822471011595 51.202871735519835 l -7.1171531387445 0 L 757.265093962415 65.62398748938233 M 783.9544182327068 54.909618376538674 l 7.1171531387445 0 L 791.0715713714512 48.42859264307961 l -7.1171531387445 0 L 783.9544182327068 54.909618376538674 M 801.747301079568 51.46927148857671 l 7.1171531387445 0 L 808.8644542183125 45.89430593218117 l -7.1171531387445 0 L 801.747301079568 51.46927148857671 M 810.6437425029987 45.89430593218117 l 7.1171531387445 0 L 817.7608956417432 32.27439621529007 l -7.1171531387445 0 L 810.6437425029987 45.89430593218117 M 828.43662534986 34.86085914900946 l 7.1171531387445 0 L 835.5537784886045 15.005662762085194 l -7.1171531387445 0 L 828.43662534986 34.86085914900946 M 846.2295081967213 15.30125201042648 l 7.1171531387445 0 L 853.3466613354658 8.152653398095111 l -7.1171531387445 0 L 846.2295081967213 15.30125201042648 M 872.9188324670131 47.00008610901111 l 7.1171531387445 0 L 880.0359856057576 43.41889990630173 l -7.1171531387445 0 L 872.9188324670131 47.00008610901111 M 881.8152738904437 43.41885429771534 l 7.1171531387445 0 L 888.9324270291881 34.67112742966063 l -7.1171531387445 0 L 881.8152738904437 43.41885429771534"></path><path class="candle body down" d="M 36.65333866453418 184.67963799187947 l 7.1171531387445 0 L 43.77049180327868 185.99941365601347 l -7.1171531387445 0 L 36.65333866453418 184.67963799187947 M 45.54978008796481 186.00192212826448 l 7.1171531387445 0 L 52.66693322670931 186.21117432258478 l -7.1171531387445 0 L 45.54978008796481 186.00192212826448 M 63.342662934826066 182.5989742811357 l 7.1171531387445 0 L 70.45981607357056 184.60981124612874 l -7.1171531387445 0 L 63.342662934826066 182.5989742811357 M 72.23910435825668 184.61108828654744 l 7.1171531387445 0 L 79.35625749700118 191.76871739898246 l -7.1171531387445 0 L 72.23910435825668 184.61108828654744 M 81.13554578168731 191.76871739898246 l 7.1171531387445 0 L 88.25269892043181 191.81409794243248 l -7.1171531387445 0 L 81.13554578168731 191.76871739898246 M 116.72131147540982 180.15494696268706 l 7.1171531387445 0 L 123.83846461415432 184.40069587756759 l -7.1171531387445 0 L 116.72131147540982 180.15494696268706 M 143.4106357457017 181.40247862599207 l 7.1171531387445 0 L 150.5277888844462 184.92264054012242 l -7.1171531387445 0 L 143.4106357457017 181.40247862599207 M 170.09996001599356 181.69286849548587 l 7.1171531387445 0 L 177.21711315473806 182.56750435653217 l -7.1171531387445 0 L 170.09996001599356 181.69286849548587 M 178.9964014394242 182.56750435653217 l 7.1171531387445 0 L 186.1135545781687 186.4113504082151 l -7.1171531387445 0 L 178.9964014394242 182.56750435653217 M 196.78928428628546 185.42082312917228 l 7.1171531387445 0 L 203.90643742502996 186.72823886639677 l -7.1171531387445 0 L 196.78928428628546 185.42082312917228 M 205.68572570971608 186.72741791184188 l 7.1171531387445 0 L 212.80287884846058 187.72296213538672 l -7.1171531387445 0 L 205.68572570971608 186.72741791184188 M 285.7536985205918 161.33807565333387 l 7.1171531387445 0 L 292.8708516593363 163.0077147836037 l -7.1171531387445 0 L 285.7536985205918 161.33807565333387 M 294.65013994402244 163.0076235664309 l 7.1171531387445 0 L 301.76729308276697 166.3636401781727 l -7.1171531387445 0 L 294.65013994402244 163.0076235664309 M 312.4430227908837 161.38737853521275 l 7.1171531387445 0 L 319.5601759296282 164.02369165384764 l -7.1171531387445 0 L 312.4430227908837 161.38737853521275 M 348.02878848460614 149.15237354380906 l 7.1171531387445 0 L 355.14594162335067 150.1180897518601 l -7.1171531387445 0 L 348.02878848460614 149.15237354380906 M 419.20031987205124 119.4764626856087 l 7.1171531387445 0 L 426.31747301079577 124.0890414607591 l -7.1171531387445 0 L 419.20031987205124 119.4764626856087 M 463.68252698920435 84.87363867491369 l 7.1171531387445 0 L 470.7996801279489 87.1483213121262 l -7.1171531387445 0 L 463.68252698920435 84.87363867491369 M 472.57896841263494 87.1483213121262 l 7.1171531387445 0 L 479.69612155137946 95.98817752467244 l -7.1171531387445 0 L 472.57896841263494 87.1483213121262 M 481.47540983606564 95.98817752467244 l 7.1171531387445 0 L 488.59256297481016 108.510242958764 l -7.1171531387445 0 L 481.47540983606564 95.98817752467244 M 490.3718512594962 108.48333389279865 l 7.1171531387445 0 L 497.48900439824075 114.68213369372631 l -7.1171531387445 0 L 490.3718512594962 108.48333389279865 M 517.0611755297881 91.44925661652886 l 7.1171531387445 0 L 524.1783286685326 102.40895431552093 l -7.1171531387445 0 L 517.0611755297881 91.44925661652886 M 525.9576169532187 102.43080082839788 l 7.1171531387445 0 L 533.0747700919632 105.81701032432449 l -7.1171531387445 0 L 525.9576169532187 102.43080082839788 M 534.8540583766493 105.81701032432449 l 7.1171531387445 0 L 541.9712115153937 106.57580037596071 l -7.1171531387445 0 L 534.8540583766493 105.81701032432449 M 552.6469412235106 102.95516274603096 l 7.1171531387445 0 L 559.764094362255 106.28901358479112 l -7.1171531387445 0 L 552.6469412235106 102.95516274603096 M 561.5433826469413 106.24135261202198 l 7.1171531387445 0 L 568.6605357856857 108.21944261199279 l -7.1171531387445 0 L 561.5433826469413 106.24135261202198 M 570.4398240703717 108.21944261199279 l 7.1171531387445 0 L 577.5569772091162 129.28194388903324 l -7.1171531387445 0 L 570.4398240703717 108.21944261199279 M 588.232706917233 119.70473366045027 l 7.1171531387445 0 L 595.3498600559775 123.68180239295484 l -7.1171531387445 0 L 588.232706917233 119.70473366045027 M 606.0255897640943 122.85423459305467 l 7.1171531387445 0 L 613.1427429028388 122.87817910090519 l -7.1171531387445 0 L 606.0255897640943 122.85423459305467 M 623.8184726109555 121.92126535002586 l 7.1171531387445 0 L 630.9356257497 131.489308252746 l -7.1171531387445 0 L 623.8184726109555 121.92126535002586 M 659.4042383046781 113.7168279629527 l 7.1171531387445 0 L 666.5213914434225 119.05262209236139 l -7.1171531387445 0 L 659.4042383046781 113.7168279629527 M 694.9900039984005 98.40433799684169 l 7.1171531387445 0 L 702.107157137145 101.52214096191062 l -7.1171531387445 0 L 694.9900039984005 98.40433799684169 M 721.6793282686924 91.28597787728152 l 7.1171531387445 0 L 728.7964814074369 93.04336792775017 l -7.1171531387445 0 L 721.6793282686924 91.28597787728152 M 748.3686525389844 58.26805224335868 l 7.1171531387445 0 L 755.4858056777289 65.62398748938233 l -7.1171531387445 0 L 748.3686525389844 58.26805224335868 M 766.1615353858456 51.206748465362296 l 7.1171531387445 0 L 773.27868852459 54.31296684949024 l -7.1171531387445 0 L 766.1615353858456 51.206748465362296 M 775.0579768092763 54.26484979085728 l 7.1171531387445 0 L 782.1751299480208 54.92371142973067 l -7.1171531387445 0 L 775.0579768092763 54.26484979085728 M 792.8508596561375 48.41636954192924 l 7.1171531387445 0 L 799.9680127948819 51.46927148857671 l -7.1171531387445 0 L 792.8508596561375 48.41636954192924 M 819.5401839264293 32.28370036691197 l 7.1171531387445 0 L 826.6573370651738 34.860904757595875 l -7.1171531387445 0 L 819.5401839264293 32.28370036691197 M 837.3330667732906 15.005662762085194 l 7.1171531387445 0 L 844.4502199120351 15.30125201042648 l -7.1171531387445 0 L 837.3330667732906 15.005662762085194 M 855.1259496201519 8.135413352442754 l 7.1171531387445 0 L 862.2431027588964 23.298808849671218 l -7.1171531387445 0 L 855.1259496201519 8.135413352442754 M 864.0223910435824 23.298808849671218 l 7.1171531387445 0 L 871.1395441823269 47.00008610901111 l -7.1171531387445 0 L 864.0223910435824 23.298808849671218"></path><path class="candle body equal"></path><path class="candle wick up" d="M 4.626149540183927 185.7143599911264 L 4.626149540183927 188.91065533335865 M 4.626149540183927 189.4430899707813 L 4.626149540183927 191.47235280467265 M 13.522590963614554 187.06952791829278 L 13.522590963614554 188.78888040771886 M 13.522590963614554 188.90322113377837 L 13.522590963614554 190.91957673772362 M 22.41903238704518 184.17146712241197 L 22.41903238704518 184.89915211813573 M 22.41903238704518 188.78892601630525 L 22.41903238704518 189.07521111302464 M 31.315473810475808 183.48423694280902 L 31.315473810475808 184.67963799187947 M 31.315473810475808 184.89919772672212 L 31.315473810475808 186.48218054286622 M 58.004798080767685 181.41784871960277 L 58.004798080767685 182.59892867254933 M 58.004798080767685 186.21112871399842 L 58.004798080767685 187.80747484595244 M 93.5905637744902 188.43463851729038 L 93.5905637744902 189.16729484892977 M 93.5905637744902 191.8140523338461 L 93.5905637744902 193.0635907749519 M 102.48700519792082 186.24743314875843 L 102.48700519792082 187.04585706196053 M 102.48700519792082 189.16734045751616 L 102.48700519792082 190.09246502368728 M 111.38344662135144 179.3919609211037 L 111.38344662135144 180.15494696268706 M 111.38344662135144 187.04581145337417 L 111.38344662135144 187.04585706196053 M 129.1763294682127 181.76889800898454 L 129.1763294682127 182.39788602377777 M 129.1763294682127 184.40069587756759 L 129.1763294682127 186.38448695083613 M 138.07277089164333 180.60131819760704 L 138.07277089164333 181.40448540379288 M 138.07277089164333 182.39793163236413 L 138.07277089164333 183.9343936903987 M 155.8656537385046 182.5214396842864 L 155.8656537385046 182.655255276731 M 155.8656537385046 184.9226861487088 L 155.8656537385046 185.60914098234326 M 164.7620951619352 181.41315103520546 L 164.7620951619352 181.68953906867995 M 164.7620951619352 182.655255276731 L 164.7620951619352 183.98091444850826 M 191.4514194322271 184.97258194221064 L 191.4514194322271 185.42086873775867 M 191.4514194322271 186.4113504082151 L 191.4514194322271 189.48587082480756 M 218.14074370251896 183.56286614573148 L 218.14074370251896 184.2012495293194 M 218.14074370251896 187.72296213538672 L 218.14074370251896 187.79516052762932 M 227.0371851259496 181.4541987629492 L 227.0371851259496 182.5306070101492 M 227.0371851259496 184.2012495293194 L 227.0371851259496 184.6462525066479 M 235.93362654938022 181.73697199851716 L 235.93362654938022 182.08295873481052 M 235.93362654938022 182.5306070101492 L 235.93362654938022 183.32871166324662 M 244.83006797281087 180.72902223947645 L 244.83006797281087 181.38382471416188 M 244.83006797281087 182.0804502625595 L 244.83006797281087 183.10066873133695 M 253.72650939624148 171.6529135494718 L 253.72650939624148 172.67673509657345 M 253.72650939624148 181.38382471416188 L 253.72650939624148 182.058056446646 M 262.6229508196721 161.43659019991884 L 262.6229508196721 166.01040167664462 M 262.6229508196721 172.67673509657345 L 262.6229508196721 173.1579969000756 M 271.51939224310274 163.78461144403352 L 271.51939224310274 164.5954865013179 M 271.51939224310274 166.01044728523098 L 271.51939224310274 168.04983522529912 M 280.4158336665334 159.7423680415892 L 280.4158336665334 161.33803004474748 M 280.4158336665334 164.5954865013179 L 280.4158336665334 166.22549177002182 M 307.10515793682526 161.2673823444419 L 307.10515793682526 161.38737853521275 M 307.10515793682526 166.3628648322042 L 307.10515793682526 168.03432830592925 M 324.89804078368655 161.4619941825336 L 324.89804078368655 161.75949899150294 M 324.89804078368655 164.02537917154376 L 324.89804078368655 166.43793656538887 M 333.7944822071172 156.92197866831685 L 333.7944822071172 157.2749435183266 M 333.7944822071172 161.76045677181696 L 333.7944822071172 163.1076888049529 M 342.6909236305478 147.44829993082092 L 342.6909236305478 149.15241915239545 M 342.6909236305478 157.2749435183266 L 342.6909236305478 158.24398915318355 M 360.483806477409 144.5614132386037 L 360.483806477409 146.4796647732414 M 360.483806477409 150.11863705489668 L 360.483806477409 150.9420544734361 M 369.38024790083966 144.9718905160411 L 369.38024790083966 145.08591198199593 M 369.38024790083966 146.47961916465505 L 369.38024790083966 151.95000423247683 M 378.2766893242703 137.73836871586656 L 378.2766893242703 138.2877697474233 M 378.2766893242703 145.08591198199593 L 378.2766893242703 145.3823677934785 M 387.1731307477009 136.3518676898558 L 387.1731307477009 138.0684380555126 M 387.1731307477009 138.28772413883692 L 387.1731307477009 142.96511271523605 M 396.06957217113154 134.9836100983978 L 396.06957217113154 136.20733407961143 M 396.06957217113154 138.0684380555126 L 396.06957217113154 139.4324084398507 M 404.9660135945622 118.10843313708264 L 404.9660135945622 123.22421144578487 M 404.9660135945622 136.20728847102507 L 404.9660135945622 137.96399439269797 M 413.86245501799283 111.36698237538275 L 413.86245501799283 119.4764626856087 M 413.86245501799283 123.2327858600247 L 413.86245501799283 124.20634674493346 M 431.65533786485406 113.27392298059775 L 431.65533786485406 115.14601862581695 M 431.65533786485406 124.08429816777539 L 431.65533786485406 133.61535250693981 M 440.5517792882847 101.51051077238324 L 440.5517792882847 102.28517261208037 M 440.5517792882847 115.14601862581695 L 440.5517792882847 118.16316344074095 M 449.44822071171535 85.88596685824706 L 449.44822071171535 90.13997092726271 M 449.44822071171535 102.28517261208037 L 449.44822071171535 104.42585722250277 M 458.34466213514594 78.6570059167107 L 458.34466213514594 84.8925662382622 M 458.34466213514594 90.13905875553505 L 458.34466213514594 103.51368549486412 M 502.82686925229905 97.35652633330318 L 502.82686925229905 99.53944449471526 M 502.82686925229905 114.69166588828013 L 502.82686925229905 122.30442308422045 M 511.7233106757297 87.09459439736828 L 511.7233106757297 91.45249482616198 M 511.7233106757297 99.53944449471526 L 511.7233106757297 102.59590391110046 M 547.3090763694522 99.09042796178511 L 547.3090763694522 102.9149815814285 M 547.3090763694522 106.59231068423097 L 547.3090763694522 111.2671451797927 M 582.8948420631747 115.70700423831472 L 582.8948420631747 119.72676260767277 M 582.8948420631747 129.2734606919662 L 582.8948420631747 138.40425407704276 M 600.687724910036 119.1528697652289 L 600.687724910036 122.85218220666746 M 600.687724910036 123.68180239295484 L 600.687724910036 129.05449386874653 M 618.4806077568971 119.83298500535628 L 618.4806077568971 121.90411652154624 M 618.4806077568971 122.87822470949158 L 618.4806077568971 129.34014044525657 M 636.2734906037584 115.90106877336983 L 636.2734906037584 117.8126158458094 M 636.2734906037584 131.50736925295325 L 636.2734906037584 133.8794262220912 M 645.169932027189 94.24647682791918 L 645.169932027189 113.765583541795 M 645.169932027189 117.79747379513061 L 645.169932027189 124.42339800752504 M 654.0663734506197 110.660550980913 L 654.0663734506197 113.7168735715391 M 654.0663734506197 113.79258382493309 L 654.0663734506197 120.27484099022445 M 671.8592562974809 111.64446501493045 L 671.8592562974809 117.0759915671548 M 671.8592562974809 119.05266770094778 L 671.8592562974809 122.6868054724466 M 680.7556977209116 105.86558346882123 L 680.7556977209116 108.22851872068281 M 680.7556977209116 117.11831633531726 L 680.7556977209116 117.57025181777581 M 689.6521391443422 98.21109441634147 L 689.6521391443422 98.41067759034878 M 689.6521391443422 108.1990099652937 L 689.6521391443422 108.70220949884558 M 707.4450219912034 95.25798405669768 L 707.4450219912034 95.34865392642497 M 707.4450219912034 101.52218657049701 L 707.4450219912034 103.19442539019057 M 716.3414634146341 83.19273422380753 L 716.3414634146341 91.25893198555704 M 716.3414634146341 95.3528499163721 L 716.3414634146341 95.6875257232427 M 734.1343462614954 56.562154286915245 L 734.1343462614954 58.47579935432836 M 734.1343462614954 93.04336792775017 L 734.1343462614954 96.72306867704452 M 743.0307876849259 50.415302665876624 L 743.0307876849259 58.26805224335868 M 743.0307876849259 58.47584496291475 L 743.0307876849259 64.9238500798333 M 760.8236705317872 47.96744422617189 L 760.8236705317872 51.202871735519835 M 760.8236705317872 65.62398748938233 L 760.8236705317872 69.33451964307088 M 787.512994802079 43.27646429103095 L 787.512994802079 48.42859264307961 M 787.512994802079 54.909618376538674 L 787.512994802079 55.56004242693143 M 805.3058776489403 38.798841322984714 L 805.3058776489403 45.89430593218117 M 805.3058776489403 51.46927148857671 L 805.3058776489403 55.60815948556436 M 814.202319072371 29.998390929072485 L 814.202319072371 32.27439621529007 M 814.202319072371 45.89430593218117 L 814.202319072371 46.74467802527229 M 831.9952019192323 12.898546071239906 L 831.9952019192323 15.005662762085194 M 831.9952019192323 34.86085914900946 L 831.9952019192323 38.7029720744099 M 849.7880847660936 3.846153846153868 L 849.7880847660936 8.152653398095111 M 849.7880847660936 15.30125201042648 L 849.7880847660936 16.95958021127359 M 876.4774090363853 35.67095886032536 L 876.4774090363853 43.41889990630173 M 876.4774090363853 47.00008610901111 L 876.4774090363853 55.67625310503257 M 885.3738504598159 33.391760973061025 L 885.3738504598159 34.67112742966063 M 885.3738504598159 43.41885429771534 L 885.3738504598159 48.410714077217904" style="stroke-width: 1px;"></path><path class="candle wick down" d="M 40.21191523390643 184.46892632279494 L 40.21191523390643 184.67963799187947 M 40.21191523390643 185.99941365601347 L 40.21191523390643 189.66438283190644 M 49.10835665733706 184.39595258458385 L 49.10835665733706 186.00192212826448 M 49.10835665733706 186.21117432258478 L 49.10835665733706 187.88957030143993 M 66.90123950419832 181.12029830204708 L 66.90123950419832 182.5989742811357 M 66.90123950419832 184.60981124612874 L 66.90123950419832 185.60790955051095 M 75.79768092762893 183.71624782173393 L 75.79768092762893 184.61108828654744 M 75.79768092762893 191.76871739898246 L 75.79768092762893 196.15384615384616 M 84.69412235105956 190.36328880962319 L 84.69412235105956 191.76871739898246 M 84.69412235105956 191.81409794243248 L 84.69412235105956 195.01326662560678 M 120.27988804478207 179.278669192531 L 120.27988804478207 180.15494696268706 M 120.27988804478207 184.40069587756759 L 120.27988804478207 187.88446213976513 M 146.96921231507397 180.92513916091877 L 146.96921231507397 181.40247862599207 M 146.96921231507397 184.92264054012242 L 146.96921231507397 185.31127130468286 M 173.65853658536582 181.40900065384469 L 173.65853658536582 181.69286849548587 M 173.65853658536582 182.56750435653217 L 173.65853658536582 183.77166225418796 M 182.55497800879647 181.98398810236174 L 182.55497800879647 182.56750435653217 M 182.55497800879647 186.4113504082151 L 182.55497800879647 186.97739857380125 M 200.34786085565773 185.34771256520204 L 200.34786085565773 185.42082312917228 M 200.34786085565773 186.72823886639677 L 200.34786085565773 188.29493941720256 M 209.24430227908834 186.5544701522816 L 209.24430227908834 186.72741791184188 M 209.24430227908834 187.72296213538672 L 209.24430227908834 189.84011271523605 M 289.31227508996403 159.17896517401317 L 289.31227508996403 161.33807565333387 M 289.31227508996403 163.0077147836037 L 289.31227508996403 164.81162559218188 M 298.2087165133947 160.05569903003308 L 298.2087165133947 163.0076235664309 M 298.2087165133947 166.3636401781727 L 298.2087165133947 170.48989459673254 M 316.0015993602559 160.06833260846088 L 316.0015993602559 161.38737853521275 M 316.0015993602559 164.02369165384764 L 316.0015993602559 166.9096205657508 M 351.5873650539784 140.3563015741895 L 351.5873650539784 149.15237354380906 M 351.5873650539784 150.1180897518601 L 351.5873650539784 152.77095878735162 M 422.7588964414235 116.74017554562465 L 422.7588964414235 119.4764626856087 M 422.7588964414235 124.0890414607591 L 422.7588964414235 141.68807229654192 M 467.2411035585766 81.25669534048087 L 467.2411035585766 84.87363867491369 M 467.2411035585766 87.1483213121262 L 467.2411035585766 93.38857931807503 M 476.13754498200717 81.39352109962668 L 476.13754498200717 87.1483213121262 M 476.13754498200717 95.98817752467244 L 476.13754498200717 109.84821644886439 M 485.0339864054379 95.4649558216989 L 485.0339864054379 95.98817752467244 M 485.0339864054379 108.510242958764 L 485.0339864054379 131.24370601507928 M 493.93042782886846 102.92989558917537 L 493.93042782886846 108.48333389279865 M 493.93042782886846 114.68213369372631 L 493.93042782886846 121.61573342985326 M 520.6197520991603 88.70111124408548 L 520.6197520991603 91.44925661652886 M 520.6197520991603 102.40895431552093 L 520.6197520991603 113.05500176596446 M 529.5161935225909 96.90044046948385 L 529.5161935225909 102.43080082839788 M 529.5161935225909 105.81701032432449 L 529.5161935225909 108.72309823140847 M 538.4126349460215 101.90598282490097 L 538.4126349460215 105.81701032432449 M 538.4126349460215 106.57580037596071 L 538.4126349460215 115.59996088607633 M 556.2055177928828 97.35652633330318 L 556.2055177928828 102.95516274603096 M 556.2055177928828 106.28901358479112 L 556.2055177928828 106.50533511000063 M 565.1019592163135 103.89994461293271 L 565.1019592163135 106.24135261202198 M 565.1019592163135 108.21944261199279 L 565.1019592163135 117.6523472732633 M 573.998400639744 107.61845826923808 L 573.998400639744 108.21944261199279 M 573.998400639744 129.28194388903324 L 573.998400639744 132.83544567980874 M 591.7912834866053 117.39693918952447 L 591.7912834866053 119.70473366045027 M 591.7912834866053 123.68180239295484 L 591.7912834866053 126.81894339864971 M 609.5841663334666 110.92508078192822 L 609.5841663334666 122.85423459305467 M 609.5841663334666 122.87817910090519 L 609.5841663334666 124.44802664417129 M 627.3770491803277 121.49582845625517 L 627.3770491803277 121.92126535002586 M 627.3770491803277 131.489308252746 L 627.3770491803277 136.61767453128968 M 662.9628148740503 113.35287144362486 L 662.9628148740503 113.7168279629527 M 662.9628148740503 119.05262209236139 L 662.9628148740503 123.25458676431526 M 698.5485805677728 93.44207818990104 L 698.5485805677728 98.40433799684169 M 698.5485805677728 101.52214096191062 L 698.5485805677728 105.05548375750536 M 725.2379048380647 88.9189378526456 L 725.2379048380647 91.28597787728152 M 725.2379048380647 93.04336792775017 L 725.2379048380647 99.63239479376162 M 751.9272291083566 54.21080361599468 L 751.9272291083566 58.26805224335868 M 751.9272291083566 65.62398748938233 L 751.9272291083566 70.55236011664124 M 769.7201119552178 46.567716710110375 L 769.7201119552178 51.206748465362296 M 769.7201119552178 54.31296684949024 L 769.7201119552178 59.61542110225372 M 778.6165533786485 50.37968235991232 L 778.6165533786485 54.26484979085728 M 778.6165533786485 54.92371142973067 L 778.6165533786485 59.261817732034615 M 796.4094362255097 46.45314794111897 L 796.4094362255097 48.41636954192924 M 796.4094362255097 51.46927148857671 L 796.4094362255097 62.14309456812683 M 823.0987604958016 30.403121524625732 L 823.0987604958016 32.28370036691197 M 823.0987604958016 34.860904757595875 L 823.0987604958016 37.82865547346822 M 840.8916433426629 6.821384370192874 L 840.8916433426629 15.005662762085194 M 840.8916433426629 15.30125201042648 L 840.8916433426629 24.319255361380556 M 858.6845261895241 7.697023620139589 L 858.6845261895241 8.135413352442754 M 858.6845261895241 23.298808849671218 L 858.6845261895241 52.78781572087837 M 867.5809676129546 22.861331289095716 L 867.5809676129546 23.298808849671218 M 867.5809676129546 47.00008610901111 L 867.5809676129546 65.23640572230869" style="stroke-width: 1px;"></path><path class="candle wick equal" style="stroke-width: 1px;"></path></g></g><g class="x axis" transform="translate(0,200)" fill="none" font-size="10" font-family="sans-serif" text-anchor="middle"><path class="domain" stroke="#000" d="M0.5,6V0.5H890.5V6"></path><g class="tick" opacity="1" transform="translate(49.10835665733706,0)"><line stroke="#000" y2="6" x1="0.5" x2="0.5"></line><text fill="#000" y="9" x="0.5" dy="0.71em">Nov 23</text></g><g class="tick" opacity="1" transform="translate(111.38344662135144,0)"><line stroke="#000" y2="6" x1="0.5" x2="0.5"></line><text fill="#000" y="9" x="0.5" dy="0.71em">Nov 30</text></g><g class="tick" opacity="1" transform="translate(173.65853658536582,0)"><line stroke="#000" y2="6" x1="0.5" x2="0.5"></line><text fill="#000" y="9" x="0.5" dy="0.71em">Dec  7</text></g><g class="tick" opacity="1" transform="translate(235.93362654938022,0)"><line stroke="#000" y2="6" x1="0.5" x2="0.5"></line><text fill="#000" y="9" x="0.5" dy="0.71em">Dec 14</text></g><g class="tick" opacity="1" transform="translate(298.2087165133947,0)"><line stroke="#000" y2="6" x1="0.5" x2="0.5"></line><text fill="#000" y="9" x="0.5" dy="0.71em">Dec 21</text></g><g class="tick" opacity="1" transform="translate(360.483806477409,0)"><line stroke="#000" y2="6" x1="0.5" x2="0.5"></line><text fill="#000" y="9" x="0.5" dy="0.71em">Dec 28</text></g><g class="tick" opacity="1" transform="translate(422.7588964414235,0)"><line stroke="#000" y2="6" x1="0.5" x2="0.5"></line><text fill="#000" y="9" x="0.5" dy="0.71em">Jan  4</text></g><g class="tick" opacity="1" transform="translate(485.0339864054379,0)"><line stroke="#000" y2="6" x1="0.5" x2="0.5"></line><text fill="#000" y="9" x="0.5" dy="0.71em">Jan 11</text></g><g class="tick" opacity="1" transform="translate(547.3090763694522,0)"><line stroke="#000" y2="6" x1="0.5" x2="0.5"></line><text fill="#000" y="9" x="0.5" dy="0.71em">Jan 18</text></g><g class="tick" opacity="1" transform="translate(609.5841663334666,0)"><line stroke="#000" y2="6" x1="0.5" x2="0.5"></line><text fill="#000" y="9" x="0.5" dy="0.71em">Jan 25</text></g><g class="tick" opacity="1" transform="translate(671.8592562974809,0)"><line stroke="#000" y2="6" x1="0.5" x2="0.5"></line><text fill="#000" y="9" x="0.5" dy="0.71em">Feb  1</text></g><g class="tick" opacity="1" transform="translate(734.1343462614954,0)"><line stroke="#000" y2="6" x1="0.5" x2="0.5"></line><text fill="#000" y="9" x="0.5" dy="0.71em">Feb  8</text></g><g class="tick" opacity="1" transform="translate(796.4094362255097,0)"><line stroke="#000" y2="6" x1="0.5" x2="0.5"></line><text fill="#000" y="9" x="0.5" dy="0.71em">Feb 15</text></g><g class="tick" opacity="1" transform="translate(858.6845261895241,0)"><line stroke="#000" y2="6" x1="0.5" x2="0.5"></line><text fill="#000" y="9" x="0.5" dy="0.71em">Feb 22</text></g></g><g class="y axis" fill="none" font-size="10" font-family="sans-serif" text-anchor="end"><path class="domain" stroke="#000" d="M-6,200.5H0.5V0.5H-6"></path><g class="tick" opacity="1" transform="translate(0,178.76785302505334)"><line stroke="#000" x2="-6" y1="0.5" y2="0.5"></line><text fill="#000" x="-9" y="0.5" dy="0.32em">20,000</text></g><g class="tick" opacity="1" transform="translate(0,155.9635598340869)"><line stroke="#000" x2="-6" y1="0.5" y2="0.5"></line><text fill="#000" x="-9" y="0.5" dy="0.32em">25,000</text></g><g class="tick" opacity="1" transform="translate(0,133.15926664312047)"><line stroke="#000" x2="-6" y1="0.5" y2="0.5"></line><text fill="#000" x="-9" y="0.5" dy="0.32em">30,000</text></g><g class="tick" opacity="1" transform="translate(0,110.35497345215404)"><line stroke="#000" x2="-6" y1="0.5" y2="0.5"></line><text fill="#000" x="-9" y="0.5" dy="0.32em">35,000</text></g><g class="tick" opacity="1" transform="translate(0,87.55068026118762)"><line stroke="#000" x2="-6" y1="0.5" y2="0.5"></line><text fill="#000" x="-9" y="0.5" dy="0.32em">40,000</text></g><g class="tick" opacity="1" transform="translate(0,64.74638707022118)"><line stroke="#000" x2="-6" y1="0.5" y2="0.5"></line><text fill="#000" x="-9" y="0.5" dy="0.32em">45,000</text></g><g class="tick" opacity="1" transform="translate(0,41.94209387925477)"><line stroke="#000" x2="-6" y1="0.5" y2="0.5"></line><text fill="#000" x="-9" y="0.5" dy="0.32em">50,000</text></g><g class="tick" opacity="1" transform="translate(0,19.13780068828831)"><line stroke="#000" x2="-6" y1="0.5" y2="0.5"></line><text fill="#000" x="-9" y="0.5" dy="0.32em">55,000</text></g><text transform="rotate(-90)" y="6" dy=".71em" style="text-anchor: end;">Price ($)</text></g></g></svg>