<?xml version="1.0" encoding="utf-8"?>
<!DOCTYPE svg PUBLIC "-//W3C//DTD SVG 1.1//EN" "http://www.w3.org/Graphics/SVG/1.1/DTD/svg11.dtd">
<svg version="1.1" xmlns="http://www.w3.org/2000/svg" width="960" height="250"><g transform="translate(50,20)"><style>.axis path,.axis line{fill:none;stroke:#000;shape-rendering:crispEdges;}path.candle{stroke:#000000;}path.candle.body{stroke-width:0;}path.candle.up{fill:#00AA00;stroke:#00AA00;}path.candle.down{fill:#FF0000;stroke:#FF0000;}</style><g class="candlestick"><g class="data"><path class="candle body up" d="M 1.0675729708116766 193.73435283905692 l 7.1171531387445 0 L 8.184726109556177 192.64993369697467 l -7.1171531387445 0 L 1.0675729708116766 193.73435283905692 M 45.54978008796481 194.8914071068851 l 7.1171531387445 0 L 52.66693322670931 193.95578856883864 l -7.1171531387445 0 L 45.54978008796481 194.8914071068851 M 54.446221511395436 193.95586368272257 l 7.1171531387445 0 L 61.563374650139934 193.01250841463286 l -7.1171531387445 0 L 54.446221511395436 193.95586368272257 M 72.23910435825668 194.45890136330198 l 7.1171531387445 0 L 79.35625749700118 193.9575913020526 l -7.1171531387445 0 L 72.23910435825668 194.45890136330198 M 81.13554578168731 193.9575161881687 l 7.1171531387445 0 L 88.25269892043181 192.01078965874112 l -7.1171531387445 0 L 81.13554578168731 193.9575161881687 M 90.03198720511796 192.011766139232 l 7.1171531387445 0 L 97.14914034386246 191.07134031261498 l -7.1171531387445 0 L 90.03198720511796 192.011766139232 M 98.92842862854857 191.07134031261498 l 7.1171531387445 0 L 106.04558176729307 189.24922771660255 l -7.1171531387445 0 L 98.92842862854857 191.07134031261498 M 107.82487005197919 189.24922771660255 l 7.1171531387445 0 L 114.94202319072369 188.6798644765261 l -7.1171531387445 0 L 107.82487005197919 189.24922771660255 M 116.72131147540982 188.6798644765261 l 7.1171531387445 0 L 123.83846461415432 187.48382610294598 l -7.1171531387445 0 L 116.72131147540982 188.6798644765261 M 143.4106357457017 188.312782925833 l 7.1171531387445 0 L 150.5277888844462 187.6575645164416 l -7.1171531387445 0 L 143.4106357457017 188.312782925833 M 161.20351859256294 189.05378139065544 l 7.1171531387445 0 L 168.32067173130744 188.74611492213918 l -7.1171531387445 0 L 161.20351859256294 189.05378139065544 M 170.09996001599356 188.74528866941614 l 7.1171531387445 0 L 177.21711315473806 187.6724370654568 l -7.1171531387445 0 L 170.09996001599356 188.74528866941614 M 178.9964014394242 187.6724370654568 l 7.1171531387445 0 L 186.1135545781687 185.80713398619318 l -7.1171531387445 0 L 178.9964014394242 187.6724370654568 M 187.89284286285485 185.8072091000771 l 7.1171531387445 0 L 195.00999600159935 184.61642869837104 l -7.1171531387445 0 L 187.89284286285485 185.8072091000771 M 196.78928428628546 184.61635358448711 l 7.1171531387445 0 L 203.90643742502996 178.07423475101777 l -7.1171531387445 0 L 196.78928428628546 184.61635358448711 M 205.68572570971608 178.07581214257996 l 7.1171531387445 0 L 212.80287884846058 176.66539874430617 l -7.1171531387445 0 L 205.68572570971608 178.07581214257996 M 223.47860855657734 177.0068664605842 l 7.1171531387445 0 L 230.59576169532184 175.58969281275807 l -7.1171531387445 0 L 223.47860855657734 177.0068664605842 M 241.2714914034386 176.2063026858171 l 7.1171531387445 0 L 248.3886445421831 176.03692087758856 l -7.1171531387445 0 L 241.2714914034386 176.2063026858171 M 250.16793282686922 176.03722133312422 l 7.1171531387445 0 L 257.28508596561375 171.65042028471467 l -7.1171531387445 0 L 250.16793282686922 176.03722133312422 M 267.9608156737305 174.42790637024325 l 7.1171531387445 0 L 275.07796881247504 173.00600054773042 l -7.1171531387445 0 L 267.9608156737305 174.42790637024325 M 276.85725709716115 173.00607566161435 l 7.1171531387445 0 L 283.9744102359057 172.2218115996568 l -7.1171531387445 0 L 276.85725709716115 173.00607566161435 M 285.7536985205918 172.2218115996568 l 7.1171531387445 0 L 292.8708516593363 170.4874320200572 l -7.1171531387445 0 L 285.7536985205918 172.2218115996568 M 312.4430227908837 172.30045583611593 l 7.1171531387445 0 L 319.5601759296282 168.74080887737944 l -7.1171531387445 0 L 312.4430227908837 172.30045583611593 M 321.3394642143143 168.74080887737944 l 7.1171531387445 0 L 328.45661735305885 167.83583680397032 l -7.1171531387445 0 L 321.3394642143143 168.74080887737944 M 330.23590563774496 167.83583680397032 l 7.1171531387445 0 L 337.3530587764895 156.97429407596326 l -7.1171531387445 0 L 330.23590563774496 167.83583680397032 M 356.9252299080368 162.7709827254592 l 7.1171531387445 0 L 364.0423830467813 157.83750282991556 l -7.1171531387445 0 L 356.9252299080368 162.7709827254592 M 383.61455417832866 159.17370371088126 l 7.1171531387445 0 L 390.7317073170732 156.2665710617152 l -7.1171531387445 0 L 383.61455417832866 159.17370371088126 M 392.5109956017593 156.2664959478313 l 7.1171531387445 0 L 399.62814874050383 151.70250124726604 l -7.1171531387445 0 L 392.5109956017593 156.2664959478313 M 401.40743702518995 151.70257636114997 l 7.1171531387445 0 L 408.5245901639345 151.48587280605489 l -7.1171531387445 0 L 401.40743702518995 151.70257636114997 M 428.0967612954818 154.217764764047 l 7.1171531387445 0 L 435.21391443422635 148.53487364868244 l -7.1171531387445 0 L 428.0967612954818 154.217764764047 M 436.99320271891247 148.53855422899426 l 7.1171531387445 0 L 444.110355857657 141.43052739410857 l -7.1171531387445 0 L 436.99320271891247 148.53855422899426 M 445.8896441423431 141.43052739410857 l 7.1171531387445 0 L 453.00679728108764 140.55364791328373 l -7.1171531387445 0 L 445.8896441423431 141.43052739410857 M 454.7860855657737 140.54140435020554 l 7.1171531387445 0 L 461.90323870451823 140.3530938432304 l -7.1171531387445 0 L 454.7860855657737 140.54140435020554 M 463.68252698920435 140.35316895711432 l 7.1171531387445 0 L 470.7996801279489 133.9470062535313 l -7.1171531387445 0 L 463.68252698920435 140.35316895711432 M 472.57896841263494 133.9470813674152 l 7.1171531387445 0 L 479.69612155137946 133.58548313024792 l -7.1171531387445 0 L 472.57896841263494 133.9470813674152 M 499.2682926829268 136.107732238233 l 7.1171531387445 0 L 506.38544582167134 130.15871263215723 l -7.1171531387445 0 L 499.2682926829268 136.107732238233 M 534.8540583766493 145.33532264943494 l 7.1171531387445 0 L 541.9712115153937 140.976313738074 l -7.1171531387445 0 L 534.8540583766493 145.33532264943494 M 543.75049980008 140.9763888519579 l 7.1171531387445 0 L 550.8676529388244 137.4824665416471 l -7.1171531387445 0 L 543.75049980008 140.9763888519579 M 552.6469412235106 137.4823914277632 l 7.1171531387445 0 L 559.764094362255 126.13366004868281 l -7.1171531387445 0 L 552.6469412235106 137.4823914277632 M 570.4398240703717 133.12608661622318 l 7.1171531387445 0 L 577.5569772091162 129.8276106318595 l -7.1171531387445 0 L 570.4398240703717 133.12608661622318 M 579.3362654938024 129.8276857457434 l 7.1171531387445 0 L 586.4534186325469 128.19155512630473 l -7.1171531387445 0 L 579.3362654938024 129.8276857457434 M 597.1291483406637 133.98576501763148 l 7.1171531387445 0 L 604.2463014794082 130.25147827879238 l -7.1171531387445 0 L 597.1291483406637 133.98576501763148 M 606.0255897640943 130.25147827879238 l 7.1171531387445 0 L 613.1427429028388 128.6610169007741 l -7.1171531387445 0 L 606.0255897640943 130.25147827879238 M 632.7149140343862 136.43748218862027 l 7.1171531387445 0 L 639.8320671731307 134.80623397163612 l -7.1171531387445 0 L 632.7149140343862 136.43748218862027 M 659.4042383046781 138.59760726225068 l 7.1171531387445 0 L 666.5213914434225 132.79761360186248 l -7.1171531387445 0 L 659.4042383046781 138.59760726225068 M 668.3006797281087 132.79761360186248 l 7.1171531387445 0 L 675.4178328668531 130.0461920340524 l -7.1171531387445 0 L 668.3006797281087 132.79761360186248 M 677.1971211515394 130.0461920340524 l 7.1171531387445 0 L 684.3142742902838 129.30894926342575 l -7.1171531387445 0 L 677.1971211515394 130.0461920340524 M 686.09356257497 129.3048179998104 l 7.1171531387445 0 L 693.2107157137144 128.1575285368912 l -7.1171531387445 0 L 686.09356257497 129.3048179998104 M 694.9900039984005 128.1575285368912 l 7.1171531387445 0 L 702.107157137145 113.81761207254377 l -7.1171531387445 0 L 694.9900039984005 128.1575285368912 M 703.8864454218311 113.81761207254377 l 7.1171531387445 0 L 711.0035985605756 102.83866634397741 l -7.1171531387445 0 L 703.8864454218311 113.81761207254377 M 712.7828868452618 102.83874145786132 l 7.1171531387445 0 L 719.9000399840063 100.50840832327934 l -7.1171531387445 0 L 712.7828868452618 102.83874145786132 M 721.6793282686924 100.50840832327934 l 7.1171531387445 0 L 728.7964814074369 95.14362450629521 l -7.1171531387445 0 L 721.6793282686924 100.50840832327934 M 748.3686525389844 103.41914643887328 l 7.1171531387445 0 L 755.4858056777289 95.22489772869133 l -7.1171531387445 0 L 748.3686525389844 103.41914643887328 M 766.1615353858456 99.56948477434062 l 7.1171531387445 0 L 773.27868852459 95.83775190755463 l -7.1171531387445 0 L 766.1615353858456 99.56948477434062 M 775.0579768092763 95.83932929911683 l 7.1171531387445 0 L 782.1751299480208 88.4520290438348 l -7.1171531387445 0 L 775.0579768092763 95.83932929911683 M 783.9544182327068 88.4520290438348 l 7.1171531387445 0 L 791.0715713714512 75.07484722962721 l -7.1171531387445 0 L 783.9544182327068 88.4520290438348 M 801.747301079568 76.66613486036854 l 7.1171531387445 0 L 808.8644542183125 70.67302340443462 l -7.1171531387445 0 L 801.747301079568 76.66613486036854 M 810.6437425029987 70.67294829055072 l 7.1171531387445 0 L 817.7608956417432 68.37761822587316 l -7.1171531387445 0 L 810.6437425029987 70.67294829055072 M 819.5401839264293 68.37761822587316 l 7.1171531387445 0 L 826.6573370651738 57.18159337279215 l -7.1171531387445 0 L 819.5401839264293 68.37761822587316 M 828.43662534986 57.18151825890823 l 7.1171531387445 0 L 835.5537784886045 56.82037070504441 l -7.1171531387445 0 L 828.43662534986 57.18151825890823 M 837.3330667732906 56.82037070504441 l 7.1171531387445 0 L 844.4502199120351 53.755273558004944 l -7.1171531387445 0 L 837.3330667732906 56.82037070504441 M 846.2295081967213 53.75519844412102 l 7.1171531387445 0 L 853.3466613354658 32.37305490719754 l -7.1171531387445 0 L 846.2295081967213 53.75519844412102 M 855.1259496201519 32.38717631737356 l 7.1171531387445 0 L 862.2431027588964 26.20079683812611 l -7.1171531387445 0 L 855.1259496201519 32.38717631737356 M 872.9188324670131 33.78955253006845 l 7.1171531387445 0 L 880.0359856057576 19.068883788155404 l -7.1171531387445 0 L 872.9188324670131 33.78955253006845 M 881.8152738904437 19.068883788155404 l 7.1171531387445 0 L 888.9324270291881 4.711766244391413 l -7.1171531387445 0 L 881.8152738904437 19.068883788155404"></path><path class="candle body down" d="M 9.964014394242305 192.64918255813552 l 7.1171531387445 0 L 17.081167532986804 193.12983630130822 l -7.1171531387445 0 L 9.964014394242305 192.64918255813552 M 18.860455817672932 193.12983630130822 l 7.1171531387445 0 L 25.977608956417434 194.31257951743538 l -7.1171531387445 0 L 18.860455817672932 193.12983630130822 M 27.75689724110356 194.31257951743538 l 7.1171531387445 0 L 34.87405037984806 194.67860947375362 l -7.1171531387445 0 L 27.75689724110356 194.31257951743538 M 36.65333866453418 194.67860947375362 l 7.1171531387445 0 L 43.77049180327868 194.89148222076903 l -7.1171531387445 0 L 36.65333866453418 194.67860947375362 M 63.342662934826066 193.01258352851676 l 7.1171531387445 0 L 70.45981607357056 194.45882624941805 l -7.1171531387445 0 L 63.342662934826066 193.01258352851676 M 125.61775289884046 187.4839012168299 l 7.1171531387445 0 L 132.73490603758498 188.2927275188277 l -7.1171531387445 0 L 125.61775289884046 187.4839012168299 M 134.51419432227107 188.29265240494377 l 7.1171531387445 0 L 141.63134746101557 188.312782925833 l -7.1171531387445 0 L 134.51419432227107 188.29265240494377 M 152.30707716913233 187.6574894025577 l 7.1171531387445 0 L 159.42423030787683 189.0531804795841 l -7.1171531387445 0 L 152.30707716913233 187.6574894025577 M 214.5821671331467 176.6629951000209 l 7.1171531387445 0 L 221.6993202718912 177.0067913467003 l -7.1171531387445 0 L 214.5821671331467 176.6629951000209 M 232.37504998000796 175.58969281275807 l 7.1171531387445 0 L 239.49220311875246 176.21238691041424 l -7.1171531387445 0 L 232.37504998000796 175.58969281275807 M 259.06437425029986 171.6504953985986 l 7.1171531387445 0 L 266.1815273890444 174.42790637024325 l -7.1171531387445 0 L 259.06437425029986 171.6504953985986 M 294.65013994402244 170.4874320200572 l 7.1171531387445 0 L 301.76729308276697 170.70901797760675 l -7.1171531387445 0 L 294.65013994402244 170.4874320200572 M 303.54658136745303 170.70909309149067 l 7.1171531387445 0 L 310.66373450619756 172.3024087970977 l -7.1171531387445 0 L 303.54658136745303 170.70909309149067 M 339.13234706117555 156.97429407596326 l 7.1171531387445 0 L 346.2495001999201 157.05015909871753 l -7.1171531387445 0 L 339.13234706117555 156.97429407596326 M 348.02878848460614 157.0500839848336 l 7.1171531387445 0 L 355.14594162335067 162.7709827254592 l -7.1171531387445 0 L 348.02878848460614 157.0500839848336 M 365.8216713314674 157.83750282991556 l 7.1171531387445 0 L 372.93882447021196 158.93934839306615 l -7.1171531387445 0 L 365.8216713314674 157.83750282991556 M 374.7181127548981 158.93934839306615 l 7.1171531387445 0 L 381.8352658936426 159.17370371088126 l -7.1171531387445 0 L 374.7181127548981 158.93934839306615 M 410.3038784486206 151.4908303223933 l 7.1171531387445 0 L 417.4210315873651 153.36559775103024 l -7.1171531387445 0 L 410.3038784486206 151.4908303223933 M 419.20031987205124 153.37228288669866 l 7.1171531387445 0 L 426.31747301079577 154.217764764047 l -7.1171531387445 0 L 419.20031987205124 153.37228288669866 M 481.47540983606564 133.58548313024792 l 7.1171531387445 0 L 488.59256297481016 135.7590535890991 l -7.1171531387445 0 L 481.47540983606564 133.58548313024792 M 490.3718512594962 135.76318485271443 l 7.1171531387445 0 L 497.48900439824075 136.1078073521169 l -7.1171531387445 0 L 490.3718512594962 135.76318485271443 M 508.16473410635746 130.15878774604116 l 7.1171531387445 0 L 515.281887245102 133.4704837739739 l -7.1171531387445 0 L 508.16473410635746 130.15878774604116 M 517.0611755297881 133.4725869627235 l 7.1171531387445 0 L 524.1783286685326 145.26065944882333 l -7.1171531387445 0 L 517.0611755297881 133.4725869627235 M 525.9576169532187 145.26065944882333 l 7.1171531387445 0 L 533.0747700919632 145.33539776331884 l -7.1171531387445 0 L 525.9576169532187 145.26065944882333 M 561.5433826469413 126.13366004868281 l 7.1171531387445 0 L 568.6605357856857 133.12608661622318 l -7.1171531387445 0 L 561.5433826469413 126.13366004868281 M 588.232706917233 128.18825011541247 l 7.1171531387445 0 L 595.3498600559775 133.98568990374756 l -7.1171531387445 0 L 588.232706917233 128.18825011541247 M 614.9220311875249 128.6665002142999 l 7.1171531387445 0 L 622.0391843262694 130.10695916613972 l -7.1171531387445 0 L 614.9220311875249 128.6665002142999 M 623.8184726109555 130.10695916613972 l 7.1171531387445 0 L 630.9356257497 136.43748218862027 l -7.1171531387445 0 L 623.8184726109555 130.10695916613972 M 641.6113554578168 134.80615885775217 l 7.1171531387445 0 L 648.7285085965613 136.95937345406236 l -7.1171531387445 0 L 641.6113554578168 134.80615885775217 M 650.5077968812475 136.95802140415188 l 7.1171531387445 0 L 657.624950019992 138.59760726225068 l -7.1171531387445 0 L 650.5077968812475 136.95802140415188 M 730.5757696921231 95.14369962017915 l 7.1171531387445 0 L 737.6929228308676 97.89346868254303 l -7.1171531387445 0 L 730.5757696921231 95.14369962017915 M 739.4722111155537 97.8933184547752 l 7.1171531387445 0 L 746.5893642542982 103.42042337489985 l -7.1171531387445 0 L 739.4722111155537 97.8933184547752 M 757.265093962415 95.22489772869133 l 7.1171531387445 0 L 764.3822471011595 99.56670556063575 l -7.1171531387445 0 L 757.265093962415 95.22489772869133 M 792.8508596561375 75.07477211574327 l 7.1171531387445 0 L 799.9680127948819 76.66523349376155 l -7.1171531387445 0 L 792.8508596561375 75.07477211574327 M 864.0223910435824 26.20079683812611 l 7.1171531387445 0 L 871.1395441823269 33.797364373995634 l -7.1171531387445 0 L 864.0223910435824 26.20079683812611"></path><path class="candle body equal"></path><path class="candle wick up" d="M 4.626149540183927 192.4466755271004 L 4.626149540183927 192.64993369697467 M 4.626149540183927 193.73435283905692 L 4.626149540183927 194.18683887576148 M 49.10835665733706 193.7286441838794 L 49.10835665733706 193.95578856883864 M 49.10835665733706 194.8914071068851 L 49.10835665733706 195.07318270595962 M 58.004798080767685 192.96901747584602 L 58.004798080767685 193.01250841463286 M 58.004798080767685 193.95586368272257 L 58.004798080767685 194.33879426292174 M 75.79768092762893 193.84131500975204 L 75.79768092762893 193.9575913020526 M 75.79768092762893 194.45890136330198 L 75.79768092762893 194.8606104144799 M 84.69412235105956 191.8272864403365 L 84.69412235105956 192.01078965874112 M 84.69412235105956 193.9575161881687 L 84.69412235105956 194.9789898955301 M 93.5905637744902 190.66572533947345 L 93.5905637744902 191.07134031261498 M 93.5905637744902 192.011766139232 L 93.5905637744902 192.7361644357092 M 102.48700519792082 187.7636253205297 L 102.48700519792082 189.24922771660255 M 102.48700519792082 191.07134031261498 L 102.48700519792082 191.07231679310587 M 111.38344662135144 188.10914918653918 L 111.38344662135144 188.6798644765261 M 111.38344662135144 189.24922771660255 L 111.38344662135144 189.79170018623736 M 120.27988804478207 186.04344226499006 L 120.27988804478207 187.48382610294598 M 120.27988804478207 188.6798644765261 L 120.27988804478207 190.15975821742134 M 146.96921231507397 186.81463651114638 L 146.96921231507397 187.6575645164416 M 146.96921231507397 188.312782925833 L 146.96921231507397 189.56763547051864 M 164.7620951619352 188.42898410424965 L 164.7620951619352 188.74611492213918 M 164.7620951619352 189.05378139065544 L 164.7620951619352 189.53631298092603 M 173.65853658536582 187.6584658830486 L 173.65853658536582 187.6724370654568 M 173.65853658536582 188.74528866941614 L 173.65853658536582 188.85112413185252 M 182.55497800879647 185.2624081000409 L 182.55497800879647 185.80713398619318 M 182.55497800879647 187.6724370654568 L 182.55497800879647 188.3873710125607 M 191.4514194322271 183.6520415427851 L 191.4514194322271 184.61642869837104 M 191.4514194322271 185.8072091000771 L 191.4514194322271 186.36207536055792 M 200.34786085565773 174.7938612126776 L 200.34786085565773 178.07423475101777 M 200.34786085565773 184.61635358448711 L 200.34786085565773 184.78949108691143 M 209.24430227908834 175.03933338531215 L 209.24430227908834 176.66539874430617 M 209.24430227908834 178.07581214257996 L 209.24430227908834 178.84700638873628 M 227.0371851259496 175.17656645122503 L 227.0371851259496 175.58969281275807 M 227.0371851259496 177.0068664605842 L 227.0371851259496 177.40542072863772 M 244.83006797281087 174.635145575965 L 244.83006797281087 176.03692087758856 M 244.83006797281087 176.2063026858171 L 244.83006797281087 178.19411650974627 M 253.72650939624148 170.50027649420667 L 253.72650939624148 171.65042028471467 M 253.72650939624148 176.03722133312422 L 253.72650939624148 176.27968895040215 M 271.51939224310274 171.5997935269559 L 271.51939224310274 173.00600054773042 M 271.51939224310274 174.42790637024325 L 271.51939224310274 177.02406754000077 M 280.4158336665334 171.39646024319774 L 280.4158336665334 172.2218115996568 M 280.4158336665334 173.00607566161435 L 280.4158336665334 175.56513057271783 M 289.31227508996403 168.16641300708068 L 289.31227508996403 170.4874320200572 M 289.31227508996403 172.2218115996568 L 289.31227508996403 173.33800391463518 M 316.0015993602559 168.42097395966894 L 316.0015993602559 168.74080887737944 M 316.0015993602559 172.30045583611593 L 316.0015993602559 174.28826966004507 M 324.89804078368655 166.97210225283064 L 324.89804078368655 167.83583680397032 M 324.89804078368655 168.74080887737944 L 324.89804078368655 172.4854613321988 M 333.7944822071172 155.77262216108954 L 333.7944822071172 156.97429407596326 M 333.7944822071172 167.83583680397032 L 333.7944822071172 168.214786348322 M 360.483806477409 156.5237610002405 L 360.483806477409 157.83750282991556 M 360.483806477409 162.7709827254592 L 360.483806477409 163.63043578521575 M 387.1731307477009 154.15767365691494 L 387.1731307477009 156.2665710617152 M 387.1731307477009 159.17370371088126 L 387.1731307477009 159.357958068125 M 396.06957217113154 151.3356450382247 L 396.06957217113154 151.70250124726604 M 396.06957217113154 156.2664959478313 L 396.06957217113154 158.096345273887 M 404.9660135945622 150.2893086352874 L 404.9660135945622 151.48587280605489 M 404.9660135945622 151.70257636114997 L 404.9660135945622 154.25269272006753 M 431.65533786485406 147.28475327868347 L 431.65533786485406 148.53487364868244 M 431.65533786485406 154.217764764047 L 431.65533786485406 154.91632388445743 M 440.5517792882847 139.93245609330586 L 440.5517792882847 141.43052739410857 M 440.5517792882847 148.53855422899426 L 440.5517792882847 149.85364810857982 M 449.44822071171535 135.28959181462974 L 449.44822071171535 140.55364791328373 M 449.44822071171535 141.43052739410857 L 449.44822071171535 144.772569431143 M 458.34466213514594 137.52145064739906 L 458.34466213514594 140.3530938432304 M 458.34466213514594 140.54140435020554 L 458.34466213514594 143.862189158092 M 467.2411035585766 132.7485642356659 L 467.2411035585766 133.9470062535313 M 467.2411035585766 140.35316895711432 L 467.2411035585766 140.82465880644938 M 476.13754498200717 131.61674823283317 L 476.13754498200717 133.58548313024792 M 476.13754498200717 133.9470813674152 L 476.13754498200717 136.5541340503404 M 502.82686925229905 128.21356349429186 L 502.82686925229905 130.15871263215723 M 502.82686925229905 136.107732238233 L 502.82686925229905 138.73679328914534 M 538.4126349460215 139.76968430686185 L 538.4126349460215 140.976313738074 M 538.4126349460215 145.33532264943494 L 538.4126349460215 147.39321772705688 M 547.3090763694522 136.16752288982943 L 547.3090763694522 137.4824665416471 M 547.3090763694522 140.9763888519579 L 547.3090763694522 142.49999887329173 M 556.2055177928828 124.87707988466713 L 556.2055177928828 126.13366004868281 M 556.2055177928828 137.4823914277632 L 556.2055177928828 137.4824665416471 M 573.998400639744 128.79171505878637 L 573.998400639744 129.8276106318595 M 573.998400639744 133.12608661622318 L 573.998400639744 136.39324011099427 M 582.8948420631747 126.86879963055986 L 582.8948420631747 128.19155512630473 M 582.8948420631747 129.8276857457434 L 582.8948420631747 132.3581222670752 M 600.687724910036 130.03109414338547 L 600.687724910036 130.25147827879238 M 600.687724910036 133.98576501763148 L 600.687724910036 135.11630408443762 M 609.5841663334666 128.20582676424863 L 609.5841663334666 128.6610169007741 M 609.5841663334666 130.25147827879238 L 609.5841663334666 132.43473842866862 M 636.2734906037584 134.06793960663458 L 636.2734906037584 134.80623397163612 M 636.2734906037584 136.43748218862027 L 636.2734906037584 141.50098421722095 M 662.9628148740503 131.74624456870282 L 662.9628148740503 132.79761360186248 M 662.9628148740503 138.59760726225068 L 662.9628148740503 138.71651254048825 M 671.8592562974809 128.2734292597722 L 671.8592562974809 130.0461920340524 M 671.8592562974809 132.79761360186248 L 671.8592562974809 133.53049976722207 M 680.7556977209116 128.7391353400458 L 680.7556977209116 129.30894926342575 M 680.7556977209116 130.0461920340524 L 680.7556977209116 131.36060988868272 M 689.6521391443422 127.07911850552213 L 689.6521391443422 128.1575285368912 M 689.6521391443422 129.3048179998104 L 689.6521391443422 130.98504046910722 M 698.5485805677728 112.13145560641766 L 698.5485805677728 113.81761207254377 M 698.5485805677728 128.1575285368912 L 698.5485805677728 129.2679370828081 M 707.4450219912034 95.30594560943572 L 707.4450219912034 102.83866634397741 M 707.4450219912034 113.81761207254377 L 707.4450219912034 114.6102137756159 M 716.3414634146341 99.1729585811528 L 716.3414634146341 100.50840832327934 M 716.3414634146341 102.83874145786132 L 716.3414634146341 106.19745877712494 M 725.2379048380647 92.51569016364158 L 725.2379048380647 95.14362450629521 M 725.2379048380647 100.50840832327934 L 725.2379048380647 103.19290342052102 M 751.9272291083566 95.02727310011075 L 751.9272291083566 95.22489772869133 M 751.9272291083566 103.41914643887328 L 751.9272291083566 106.17192005659378 M 769.7201119552178 95.34778404277644 L 769.7201119552178 95.83775190755463 M 769.7201119552178 99.56948477434062 L 769.7201119552178 103.54278389179755 M 778.6165533786485 87.87072269621585 L 778.6165533786485 88.4520290438348 M 778.6165533786485 95.83932929911683 L 778.6165533786485 98.05811831608493 M 787.512994802079 72.2682920710235 L 787.512994802079 75.07484722962721 M 787.512994802079 88.4520290438348 L 787.512994802079 90.04797373537889 M 805.3058776489403 67.51380856084955 L 805.3058776489403 70.67302340443462 M 805.3058776489403 76.66613486036854 L 805.3058776489403 78.0222409205717 M 814.202319072371 68.1898335160854 L 814.202319072371 68.37761822587316 M 814.202319072371 70.67294829055072 L 814.202319072371 79.68225775509539 M 823.0987604958016 56.276771527150885 L 823.0987604958016 57.18159337279215 M 823.0987604958016 68.37761822587316 L 823.0987604958016 68.8658584713213 M 831.9952019192323 53.993309456131925 L 831.9952019192323 56.82037070504441 M 831.9952019192323 57.18151825890823 L 831.9952019192323 64.88482262382112 M 840.8916433426629 51.73989293867896 L 840.8916433426629 53.755273558004944 M 840.8916433426629 56.82037070504441 L 840.8916433426629 59.066726517409364 M 849.7880847660936 23.947755890092765 L 849.7880847660936 32.37305490719754 M 849.7880847660936 53.75519844412102 L 849.7880847660936 56.648359910878895 M 858.6845261895241 12.845097594718226 L 858.6845261895241 26.20079683812611 M 858.6845261895241 32.38717631737356 L 858.6845261895241 33.990557283425204 M 876.4774090363853 15.985684195092375 L 876.4774090363853 19.068883788155404 M 876.4774090363853 33.78955253006845 L 876.4774090363853 49.48647642122603 M 885.3738504598159 3.8461538461538396 L 885.3738504598159 4.711766244391413 M 885.3738504598159 19.068883788155404 L 885.3738504598159 24.037892550790872" style="stroke-width: 1px;"></path><path class="candle wick down" d="M 13.522590963614554 192.58338279582588 L 13.522590963614554 192.64918255813552 M 13.522590963614554 193.12983630130822 L 13.522590963614554 193.9670556514259 M 22.41903238704518 192.05262809208182 L 22.41903238704518 193.12983630130822 M 22.41903238704518 194.31257951743538 L 22.41903238704518 195.68062868518103 M 31.315473810475808 193.97073623173776 L 31.315473810475808 194.31257951743538 M 31.315473810475808 194.67860947375362 L 31.315473810475808 196.15384615384616 M 40.21191523390643 194.42953183469118 L 40.21191523390643 194.67860947375362 M 40.21191523390643 194.89148222076903 L 40.21191523390643 195.23400153142188 M 66.90123950419832 192.95399469906297 L 66.90123950419832 193.01258352851676 M 66.90123950419832 194.45882624941805 L 66.90123950419832 195.01962650672817 M 129.1763294682127 187.26787368669008 L 129.1763294682127 187.4839012168299 M 129.1763294682127 188.2927275188277 L 129.1763294682127 189.1983005033081 M 138.07277089164333 187.3356264099815 L 138.07277089164333 188.29265240494377 M 138.07277089164333 188.312782925833 L 138.07277089164333 189.3485282711383 M 155.8656537385046 187.3869291926955 L 155.8656537385046 187.6574894025577 M 155.8656537385046 189.0531804795841 L 155.8656537385046 189.94943934245907 M 218.14074370251896 176.22094989318055 L 218.14074370251896 176.6629951000209 M 218.14074370251896 177.0067913467003 L 218.14074370251896 178.5315280762929 M 235.93362654938022 173.79995430071304 L 235.93362654938022 175.58969281275807 M 235.93362654938022 176.21238691041424 L 235.93362654938022 177.27021573759055 M 262.6229508196721 169.9730521430066 L 262.6229508196721 171.6504953985986 M 262.6229508196721 174.42790637024325 L 262.6229508196721 177.27021573759055 M 298.2087165133947 169.7062476273402 L 298.2087165133947 170.4874320200572 M 298.2087165133947 170.70901797760675 L 298.2087165133947 171.89957303766104 M 307.10515793682526 170.19448787278833 L 307.10515793682526 170.70909309149067 M 307.10515793682526 172.3024087970977 L 307.10515793682526 174.96384393197746 M 342.6909236305478 154.19523059887248 L 342.6909236305478 156.97429407596326 M 342.6909236305478 157.05015909871753 L 342.6909236305478 160.15927298173125 M 351.5873650539784 155.74618207395142 L 351.5873650539784 157.0500839848336 M 351.5873650539784 162.7709827254592 L 351.5873650539784 166.33198173410617 M 369.38024790083966 155.09659720585364 L 369.38024790083966 157.83750282991556 M 369.38024790083966 158.93934839306615 L 369.38024790083966 162.86682804133486 M 378.2766893242703 157.95092479462738 L 378.2766893242703 158.93934839306615 M 378.2766893242703 159.17370371088126 L 378.2766893242703 160.8618882518731 M 413.86245501799283 151.4386261730723 L 413.86245501799283 151.4908303223933 M 413.86245501799283 153.36559775103024 L 413.86245501799283 156.37353323241032 M 422.7588964414235 152.54272515274033 L 422.7588964414235 153.37228288669866 M 422.7588964414235 154.217764764047 L 422.7588964414235 155.5869406400514 M 485.0339864054379 133.23845698656015 L 485.0339864054379 133.58548313024792 M 485.0339864054379 135.7590535890991 L 485.0339864054379 141.79497995886462 M 493.93042782886846 133.118274772296 L 493.93042782886846 135.76318485271443 M 493.93042782886846 136.1078073521169 L 493.93042782886846 138.8719982801925 M 511.7233106757297 127.72352051562977 L 511.7233106757297 130.15878774604116 M 511.7233106757297 133.4704837739739 L 511.7233106757297 135.1142760095719 M 520.6197520991603 131.99885256030933 L 520.6197520991603 133.4725869627235 M 520.6197520991603 145.26065944882333 L 520.6197520991603 152.48263404560825 M 529.5161935225909 142.94602511597958 L 529.5161935225909 145.26065944882333 M 529.5161935225909 145.33539776331884 L 529.5161935225909 150.60418603665946 M 565.1019592163135 124.69049699702202 L 565.1019592163135 126.13366004868281 M 565.1019592163135 133.12608661622318 L 565.1019592163135 138.86358552519403 M 591.7912834866053 127.40210820635707 L 591.7912834866053 128.18825011541247 M 591.7912834866053 133.98568990374756 L 591.7912834866053 134.6257353085881 M 618.4806077568971 128.19899140081233 L 618.4806077568971 128.6665002142999 M 618.4806077568971 130.10695916613972 L 618.4806077568971 132.09011592926615 M 627.3770491803277 129.14595213533 L 627.3770491803277 130.10695916613972 M 627.3770491803277 136.43748218862027 L 627.3770491803277 137.36972060189055 M 645.169932027189 134.68575130183626 L 645.169932027189 134.80615885775217 M 645.169932027189 136.95937345406236 L 645.169932027189 139.5396104804299 M 654.0663734506197 136.67318955634585 L 654.0663734506197 136.95802140415188 M 654.0663734506197 138.59760726225068 L 654.0663734506197 142.0843937535895 M 734.1343462614954 91.5878083556384 L 734.1343462614954 95.14369962017915 M 734.1343462614954 97.89346868254303 L 734.1343462614954 100.86437301915298 M 743.0307876849259 93.03172254613831 L 743.0307876849259 97.8933184547752 M 743.0307876849259 103.42042337489985 L 743.0307876849259 110.21605156658266 M 760.8236705317872 93.0525290919828 L 760.8236705317872 95.22489772869133 M 760.8236705317872 99.56670556063575 L 760.8236705317872 104.31961167924749 M 796.4094362255097 60.588308463877496 L 796.4094362255097 75.07477211574327 M 796.4094362255097 76.66523349376155 L 796.4094362255097 81.03430766556714 M 867.5809676129546 21.69433937263983 L 867.5809676129546 26.20079683812611 M 867.5809676129546 33.797364373995634 L 867.5809676129546 62.78163387419838" style="stroke-width: 1px;"></path><path class="candle wick equal" style="stroke-width: 1px;"></path></g></g><g class="x axis" transform="translate(0,200)" fill="none" font-size="10" font-family="sans-serif" text-anchor="middle"><path class="domain" stroke="#000" d="M0.5,6V0.5H890.5V6"></path><g class="tick" opacity="1" transform="translate(58.004798080767685,0)"><line stroke="#000" y2="6" x1="0.5" x2="0.5"></line><text fill="#000" y="9" x="0.5" dy="0.71em">Oct  5</text></g><g class="tick" opacity="1" transform="translate(120.27988804478207,0)"><line stroke="#000" y2="6" x1="0.5" x2="0.5"></line><text fill="#000" y="9" x="0.5" dy="0.71em">Oct 12</text></g><g class="tick" opacity="1" transform="translate(182.55497800879647,0)"><line stroke="#000" y2="6" x1="0.5" x2="0.5"></line><text fill="#000" y="9" x="0.5" dy="0.71em">Oct 19</text></g><g class="tick" opacity="1" transform="translate(244.83006797281087,0)"><line stroke="#000" y2="6" x1="0.5" x2="0.5"></line><text fill="#000" y="9" x="0.5" dy="0.71em">Oct 26</text></g><g class="tick" opacity="1" transform="translate(307.10515793682526,0)"><line stroke="#000" y2="6" x1="0.5" x2="0.5"></line><text fill="#000" y="9" x="0.5" dy="0.71em">Nov  2</text></g><g class="tick" opacity="1" transform="translate(369.38024790083966,0)"><line stroke="#000" y2="6" x1="0.5" x2="0.5"></line><text fill="#000" y="9" x="0.5" dy="0.71em">Nov  9</text></g><g class="tick" opacity="1" transform="translate(431.65533786485406,0)"><line stroke="#000" y2="6" x1="0.5" x2="0.5"></line><text fill="#000" y="9" x="0.5" dy="0.71em">Nov 16</text></g><g class="tick" opacity="1" transform="translate(493.93042782886846,0)"><line stroke="#000" y2="6" x1="0.5" x2="0.5"></line><text fill="#000" y="9" x="0.5" dy="0.71em">Nov 23</text></g><g class="tick" opacity="1" transform="translate(556.2055177928828,0)"><line stroke="#000" y2="6" x1="0.5" x2="0.5"></line><text fill="#000" y="9" x="0.5" dy="0.71em">Nov 30</text></g><g class="tick" opacity="1" transform="translate(618.4806077568971,0)"><line stroke="#000" y2="6" x1="0.5" x2="0.5"></line><text fill="#000" y="9" x="0.5" dy="0.71em">Dec  7</text></g><g class="tick" opacity="1" transform="translate(680.7556977209116,0)"><line stroke="#000" y2="6" x1="0.5" x2="0.5"></line><text fill="#000" y="9" x="0.5" dy="0.71em">Dec 14</text></g><g class="tick" opacity="1" transform="translate(743.0307876849259,0)"><line stroke="#000" y2="6" x1="0.5" x2="0.5"></line><text fill="#000" y="9" x="0.5" dy="0.71em">Dec 21</text></g><g class="tick" opacity="1" transform="translate(805.3058776489403,0)"><line stroke="#000" y2="6" x1="0.5" x2="0.5"></line><text fill="#000" y="9" x="0.5" dy="0.71em">Dec 28</text></g><g class="tick" opacity="1" transform="translate(867.5809676129546,0)"><line stroke="#000" y2="6" x1="0.5" x2="0.5"></line><text fill="#000" y="9" x="0.5" dy="0.71em">Jan  4</text></g></g><g class="y axis" fill="none" font-size="10" font-family="sans-serif" text-anchor="end"><path class="domain" stroke="#000" d="M-6,200.5H0.5V0.5H-6"></path><g class="tick" opacity="1" transform="translate(0,198.9631054122708)"><line stroke="#000" x2="-6" y1="0.5" y2="0.5"></line><text fill="#000" x="-9" y="0.5" dy="0.32em">10,000</text></g><g class="tick" opacity="1" transform="translate(0,183.94032862925124)"><line stroke="#000" x2="-6" y1="0.5" y2="0.5"></line><text fill="#000" x="-9" y="0.5" dy="0.32em">12,000</text></g><g class="tick" opacity="1" transform="translate(0,168.91755184623167)"><line stroke="#000" x2="-6" y1="0.5" y2="0.5"></line><text fill="#000" x="-9" y="0.5" dy="0.32em">14,000</text></g><g class="tick" opacity="1" transform="translate(0,153.89477506321208)"><line stroke="#000" x2="-6" y1="0.5" y2="0.5"></line><text fill="#000" x="-9" y="0.5" dy="0.32em">16,000</text></g><g class="tick" opacity="1" transform="translate(0,138.8719982801925)"><line stroke="#000" x2="-6" y1="0.5" y2="0.5"></line><text fill="#000" x="-9" y="0.5" dy="0.32em">18,000</text></g><g class="tick" opacity="1" transform="translate(0,123.84922149717293)"><line stroke="#000" x2="-6" y1="0.5" y2="0.5"></line><text fill="#000" x="-9" y="0.5" dy="0.32em">20,000</text></g><g class="tick" opacity="1" transform="translate(0,108.82644471415335)"><line stroke="#000" x2="-6" y1="0.5" y2="0.5"></line><text fill="#000" x="-9" y="0.5" dy="0.32em">22,000</text></g><g class="tick" opacity="1" transform="translate(0,93.80366793113377)"><line stroke="#000" x2="-6" y1="0.5" y2="0.5"></line><text fill="#000" x="-9" y="0.5" dy="0.32em">24,000</text></g><g class="tick" opacity="1" transform="translate(0,78.7808911481142)"><line stroke="#000" x2="-6" y1="0.5" y2="0.5"></line><text fill="#000" x="-9" y="0.5" dy="0.32em">26,000</text></g><g class="tick" opacity="1" transform="translate(0,63.758114365094656)"><line stroke="#000" x2="-6" y1="0.5" y2="0.5"></line><text fill="#000" x="-9" y="0.5" dy="0.32em">28,000</text></g><g class="tick" opacity="1" transform="translate(0,48.73533758207506)"><line stroke="#000" x2="-6" y1="0.5" y2="0.5"></line><text fill="#000" x="-9" y="0.5" dy="0.32em">30,000</text></g><g class="tick" opacity="1" transform="translate(0,33.712560799055495)"><line stroke="#000" x2="-6" y1="0.5" y2="0.5"></line><text fill="#000" x="-9" y="0.5" dy="0.32em">32,000</text></g><g class="tick" opacity="1" transform="translate(0,18.6897840160359)"><line stroke="#000" x2="-6" y1="0.5" y2="0.5"></line><text fill="#000" x="-9" y="0.5" dy="0.32em">34,000</text></g><g class="tick" opacity="1" transform="translate(0,3.667007233016335)"><line stroke="#000" x2="-6" y1="0.5" y2="0.5"></line><text fill="#000" x="-9" y="0.5" dy="0.32em">36,000</text></g><text transform="rotate(-90)" y="6" dy=".71em" style="text-anchor: end;">Price ($)</text></g></g></svg>