<?xml version="1.0" encoding="utf-8"?>
<!DOCTYPE svg PUBLIC "-//W3C//DTD SVG 1.1//EN" "http://www.w3.org/Graphics/SVG/1.1/DTD/svg11.dtd">
<svg version="1.1" xmlns="http://www.w3.org/2000/svg" width="960" height="250"><g transform="translate(50,20)"><style>.axis path,.axis line{fill:none;stroke:#000;shape-rendering:crispEdges;}path.candle{stroke:#000000;}path.candle.body{stroke-width:0;}path.candle.up{fill:#00AA00;stroke:#00AA00;}path.candle.down{fill:#FF0000;stroke:#FF0000;}</style><g class="candlestick"><g class="data"><path class="candle body up" d="M 9.964014394242305 191.61039216974314 l 7.1171531387445 0 L 17.081167532986804 190.0906523024371 l -7.1171531387445 0 L 9.964014394242305 191.61039216974314 M 18.860455817672932 190.0891742757669 l 7.1171531387445 0 L 25.977608956417434 188.1582145437824 l -7.1171531387445 0 L 18.860455817672932 190.0891742757669 M 27.75689724110356 188.158378768968 l 7.1171531387445 0 L 34.87405037984806 187.32033764698153 l -7.1171531387445 0 L 27.75689724110356 188.158378768968 M 36.65333866453418 187.32033764698153 l 7.1171531387445 0 L 43.77049180327868 186.44945148788017 l -7.1171531387445 0 L 36.65333866453418 187.32033764698153 M 54.446221511395436 188.22439729356893 l 7.1171531387445 0 L 61.563374650139934 182.65831307889377 l -7.1171531387445 0 L 54.446221511395436 188.22439729356893 M 63.342662934826066 182.65831307889377 l 7.1171531387445 0 L 70.45981607357056 180.79370032188137 l -7.1171531387445 0 L 63.342662934826066 182.65831307889377 M 72.23910435825668 180.79501412336595 l 7.1171531387445 0 L 79.35625749700118 178.02322144124022 l -7.1171531387445 0 L 72.23910435825668 180.79501412336595 M 98.92842862854857 178.3616895487092 l 7.1171531387445 0 L 106.04558176729307 175.94347369112526 l -7.1171531387445 0 L 98.92842862854857 178.3616895487092 M 125.61775289884046 186.83866517769164 l 7.1171531387445 0 L 132.73490603758498 184.99293831702028 l -7.1171531387445 0 L 125.61775289884046 186.83866517769164 M 143.4106357457017 189.72508703934835 l 7.1171531387445 0 L 150.5277888844462 181.59823950601063 l -7.1171531387445 0 L 143.4106357457017 189.72508703934835 M 161.20351859256294 182.41525980424356 l 7.1171531387445 0 L 168.32067173130744 181.7250213492741 l -7.1171531387445 0 L 161.20351859256294 182.41525980424356 M 170.09996001599356 181.7251855744597 l 7.1171531387445 0 L 177.21711315473806 180.9753333771267 l -7.1171531387445 0 L 170.09996001599356 181.7251855744597 M 187.89284286285485 182.25858897720553 l 7.1171531387445 0 L 195.00999600159935 179.88766997306706 l -7.1171531387445 0 L 187.89284286285485 182.25858897720553 M 232.37504998000796 184.7883137357945 l 7.1171531387445 0 L 239.49220311875246 182.74272482427907 l -7.1171531387445 0 L 232.37504998000796 184.7883137357945 M 241.2714914034386 182.7428890494646 l 7.1171531387445 0 L 248.3886445421831 180.68038494383498 l -7.1171531387445 0 L 241.2714914034386 182.7428890494646 M 259.06437425029986 183.84270511725677 l 7.1171531387445 0 L 266.1815273890444 182.74666622873283 l -7.1171531387445 0 L 259.06437425029986 183.84270511725677 M 267.9608156737305 182.74650200354725 l 7.1171531387445 0 L 275.07796881247504 178.490277869014 l -7.1171531387445 0 L 267.9608156737305 182.74650200354725 M 276.85725709716115 178.49241279642644 l 7.1171531387445 0 L 283.9744102359057 176.43631347303423 l -7.1171531387445 0 L 276.85725709716115 178.49241279642644 M 285.7536985205918 176.43631347303423 l 7.1171531387445 0 L 292.8708516593363 172.45253892136898 l -7.1171531387445 0 L 285.7536985205918 176.43631347303423 M 294.65013994402244 172.45253892136898 l 7.1171531387445 0 L 301.76729308276697 171.20771201471456 l -7.1171531387445 0 L 294.65013994402244 172.45253892136898 M 303.54658136745303 171.20771201471456 l 7.1171531387445 0 L 310.66373450619756 168.59275438481245 l -7.1171531387445 0 L 303.54658136745303 171.20771201471456 M 330.23590563774496 170.4051435328122 l 7.1171531387445 0 L 337.3530587764895 168.97260723904617 l -7.1171531387445 0 L 330.23590563774496 170.4051435328122 M 348.02878848460614 172.02522498850425 l 7.1171531387445 0 L 355.14594162335067 171.35255862839122 l -7.1171531387445 0 L 348.02878848460614 172.02522498850425 M 356.9252299080368 171.35075215134992 l 7.1171531387445 0 L 364.0423830467813 169.00512382578992 l -7.1171531387445 0 L 356.9252299080368 171.35075215134992 M 365.8216713314674 169.00512382578992 l 7.1171531387445 0 L 372.93882447021196 164.92691979241937 l -7.1171531387445 0 L 365.8216713314674 169.00512382578992 M 374.7181127548981 164.92708401760495 l 7.1171531387445 0 L 381.8352658936426 162.32362215069304 l -7.1171531387445 0 L 374.7181127548981 164.92708401760495 M 383.61455417832866 162.32345792550746 l 7.1171531387445 0 L 390.7317073170732 148.02010116271433 l -7.1171531387445 0 L 383.61455417832866 162.32345792550746 M 392.5109956017593 148.02354989161137 l 7.1171531387445 0 L 399.62814874050383 144.93989358207975 l -7.1171531387445 0 L 392.5109956017593 148.02354989161137 M 410.3038784486206 145.68646127570125 l 7.1171531387445 0 L 417.4210315873651 142.5880246994679 l -7.1171531387445 0 L 410.3038784486206 145.68646127570125 M 428.0967612954818 143.93614924784865 l 7.1171531387445 0 L 435.21391443422635 143.56582145437824 l -7.1171531387445 0 L 428.0967612954818 143.93614924784865 M 436.99320271891247 143.56647835512055 l 7.1171531387445 0 L 444.110355857657 133.97539906720095 l -7.1171531387445 0 L 436.99320271891247 143.56647835512055 M 454.7860855657737 140.04795375418774 l 7.1171531387445 0 L 461.90323870451823 136.9391709912632 l -7.1171531387445 0 L 454.7860855657737 140.04795375418774 M 463.68252698920435 136.93933521644877 l 7.1171531387445 0 L 470.7996801279489 135.22466005386585 l -7.1171531387445 0 L 463.68252698920435 136.93933521644877 M 472.57896841263494 135.22466005386585 l 7.1171531387445 0 L 479.69612155137946 131.43270051895158 l -7.1171531387445 0 L 472.57896841263494 135.22466005386585 M 499.2682926829268 135.39660382316234 l 7.1171531387445 0 L 506.38544582167134 127.61397227878865 l -7.1171531387445 0 L 499.2682926829268 135.39660382316234 M 508.16473410635746 127.61397227878865 l 7.1171531387445 0 L 515.281887245102 125.63538724298758 l -7.1171531387445 0 L 508.16473410635746 127.61397227878865 M 517.0611755297881 125.63538724298758 l 7.1171531387445 0 L 524.1783286685326 101.88826118373512 l -7.1171531387445 0 L 517.0611755297881 125.63538724298758 M 543.75049980008 114.56184720488736 l 7.1171531387445 0 L 550.8676529388244 103.77553701635682 l -7.1171531387445 0 L 543.75049980008 114.56184720488736 M 570.4398240703717 106.6969388425409 l 7.1171531387445 0 L 577.5569772091162 100.34093148525258 l -7.1171531387445 0 L 570.4398240703717 106.6969388425409 M 579.3362654938024 100.340767260067 l 7.1171531387445 0 L 586.4534186325469 90.36228075937724 l -7.1171531387445 0 L 579.3362654938024 100.340767260067 M 588.232706917233 90.36244498456283 l 7.1171531387445 0 L 595.3498600559775 89.8886553241805 l -7.1171531387445 0 L 588.232706917233 90.36244498456283 M 614.9220311875249 95.86152532352361 l 7.1171531387445 0 L 622.0391843262694 83.43674045851672 l -7.1171531387445 0 L 614.9220311875249 95.86152532352361 M 623.8184726109555 83.44478749260983 l 7.1171531387445 0 L 630.9356257497 67.90415818169873 l -7.1171531387445 0 L 623.8184726109555 83.44478749260983 M 632.7149140343862 67.90415818169873 l 7.1171531387445 0 L 639.8320671731307 65.98699336530251 l -7.1171531387445 0 L 632.7149140343862 67.90415818169873 M 641.6113554578168 65.96022466005388 l 7.1171531387445 0 L 648.7285085965613 65.54851211981872 l -7.1171531387445 0 L 641.6113554578168 65.96022466005388 M 650.5077968812475 65.54867634500425 l 7.1171531387445 0 L 657.624950019992 51.54256716810093 l -7.1171531387445 0 L 650.5077968812475 65.54867634500425 M 659.4042383046781 51.54273139328649 l 7.1171531387445 0 L 666.5213914434225 50.75215134993104 l -7.1171531387445 0 L 659.4042383046781 51.54273139328649 M 686.09356257497 56.266668856335855 l 7.1171531387445 0 L 693.2107157137144 43.260034158838636 l -7.1171531387445 0 L 686.09356257497 56.266668856335855 M 721.6793282686924 76.44140445378707 l 7.1171531387445 0 L 728.7964814074369 66.91108848453001 l -7.1171531387445 0 L 721.6793282686924 76.44140445378707 M 730.5757696921231 66.91125270971557 l 7.1171531387445 0 L 737.6929228308676 59.27231820271953 l -7.1171531387445 0 L 730.5757696921231 66.91125270971557 M 739.4722111155537 59.272153977534 l 7.1171531387445 0 L 746.5893642542982 34.45986336464563 l -7.1171531387445 0 L 739.4722111155537 59.272153977534 M 757.265093962415 49.747750114957654 l 7.1171531387445 0 L 764.3822471011595 42.53612954082641 l -7.1171531387445 0 L 757.265093962415 49.747750114957654 M 766.1615353858456 42.53629376601194 l 7.1171531387445 0 L 773.27868852459 38.95914077382906 l -7.1171531387445 0 L 766.1615353858456 42.53629376601194 M 783.9544182327068 51.62730736385734 l 7.1171531387445 0 L 791.0715713714512 43.46285226302308 l -7.1171531387445 0 L 783.9544182327068 51.62730736385734 M 792.8508596561375 43.46285226302308 l 7.1171531387445 0 L 799.9680127948819 39.98554818366944 l -7.1171531387445 0 L 792.8508596561375 43.46285226302308 M 819.5401839264293 56.987617421007684 l 7.1171531387445 0 L 826.6573370651738 53.42113906588716 l -7.1171531387445 0 L 819.5401839264293 56.987617421007684 M 846.2295081967213 61.71040530775801 l 7.1171531387445 0 L 853.3466613354658 49.02959337844055 l -7.1171531387445 0 L 846.2295081967213 61.71040530775801 M 855.1259496201519 49.02959337844055 l 7.1171531387445 0 L 862.2431027588964 43.01402483084803 l -7.1171531387445 0 L 855.1259496201519 49.02959337844055 M 864.0223910435824 43.01402483084803 l 7.1171531387445 0 L 871.1395441823269 41.40215463443474 l -7.1171531387445 0 L 864.0223910435824 43.01402483084803 M 872.9188324670131 41.393122249228185 l 7.1171531387445 0 L 880.0359856057576 38.88474676476386 l -7.1171531387445 0 L 872.9188324670131 41.393122249228185 M 881.8152738904437 38.88474676476386 l 7.1171531387445 0 L 888.9324270291881 8.012875254549044 l -7.1171531387445 0 L 881.8152738904437 38.88474676476386"></path><path class="candle body down" d="M 1.0675729708116766 187.55747881495103 l 7.1171531387445 0 L 8.184726109556177 191.61055639492872 l -7.1171531387445 0 L 1.0675729708116766 187.55747881495103 M 45.54978008796481 186.45355711751952 l 7.1171531387445 0 L 52.66693322670931 188.2245615187545 l -7.1171531387445 0 L 45.54978008796481 186.45355711751952 M 81.13554578168731 178.02322144124022 l 7.1171531387445 0 L 88.25269892043181 178.2534651514156 l -7.1171531387445 0 L 81.13554578168731 178.02322144124022 M 90.03198720511796 178.25330092623003 l 7.1171531387445 0 L 97.14914034386246 178.36185377389478 l -7.1171531387445 0 L 90.03198720511796 178.25330092623003 M 107.82487005197919 175.94363791631085 l 7.1171531387445 0 L 114.94202319072369 178.57715299218285 l -7.1171531387445 0 L 107.82487005197919 175.94363791631085 M 116.72131147540982 178.57715299218285 l 7.1171531387445 0 L 123.83846461415432 186.83866517769164 l -7.1171531387445 0 L 116.72131147540982 178.57715299218285 M 134.51419432227107 184.99293831702028 l 7.1171531387445 0 L 141.63134746101557 189.72508703934835 l -7.1171531387445 0 L 134.51419432227107 184.99293831702028 M 152.30707716913233 181.59807528082507 l 7.1171531387445 0 L 159.42423030787683 182.41361755238782 l -7.1171531387445 0 L 152.30707716913233 181.59807528082507 M 178.9964014394242 180.97516915194112 l 7.1171531387445 0 L 186.1135545781687 182.25842475201995 l -7.1171531387445 0 L 178.9964014394242 180.97516915194112 M 196.78928428628546 179.88602772121132 l 7.1171531387445 0 L 203.90643742502996 180.93690468370227 l -7.1171531387445 0 L 196.78928428628546 179.88602772121132 M 205.68572570971608 180.93690468370227 l 7.1171531387445 0 L 212.80287884846058 183.52279445575775 l -7.1171531387445 0 L 205.68572570971608 180.93690468370227 M 214.5821671331467 183.52279445575775 l 7.1171531387445 0 L 221.6993202718912 184.32306378506206 l -7.1171531387445 0 L 214.5821671331467 183.52279445575775 M 223.47860855657734 184.32306378506206 l 7.1171531387445 0 L 230.59576169532184 184.7884779609801 l -7.1171531387445 0 L 223.47860855657734 184.32306378506206 M 250.16793282686922 180.68054916902054 l 7.1171531387445 0 L 257.28508596561375 183.8425408920712 l -7.1171531387445 0 L 250.16793282686922 180.68054916902054 M 312.4430227908837 168.59291860999804 l 7.1171531387445 0 L 319.5601759296282 170.3612954082638 l -7.1171531387445 0 L 312.4430227908837 168.59291860999804 M 321.3394642143143 170.36113118307824 l 7.1171531387445 0 L 328.45661735305885 170.4051435328122 l -7.1171531387445 0 L 321.3394642143143 170.36113118307824 M 339.13234706117555 168.9724430138606 l 7.1171531387445 0 L 346.2495001999201 172.02391118701965 l -7.1171531387445 0 L 339.13234706117555 168.9724430138606 M 401.40743702518995 144.93463837614135 l 7.1171531387445 0 L 408.5245901639345 145.68629705051566 l -7.1171531387445 0 L 401.40743702518995 144.93463837614135 M 419.20031987205124 142.5880246994679 l 7.1171531387445 0 L 426.31747301079577 143.94945148788017 l -7.1171531387445 0 L 419.20031987205124 142.5880246994679 M 445.8896441423431 133.97556329238654 l 7.1171531387445 0 L 453.00679728108764 140.04795375418774 l -7.1171531387445 0 L 445.8896441423431 133.97556329238654 M 481.47540983606564 131.43270051895158 l 7.1171531387445 0 L 488.59256297481016 131.91716481639622 l -7.1171531387445 0 L 481.47540983606564 131.43270051895158 M 490.3718512594962 131.9173290415818 l 7.1171531387445 0 L 497.48900439824075 135.40087367798725 l -7.1171531387445 0 L 490.3718512594962 131.9173290415818 M 525.9576169532187 101.88826118373512 l 7.1171531387445 0 L 533.0747700919632 102.05412862116535 l -7.1171531387445 0 L 525.9576169532187 101.88826118373512 M 534.8540583766493 102.05396439597976 l 7.1171531387445 0 L 541.9712115153937 114.56184720488736 l -7.1171531387445 0 L 534.8540583766493 102.05396439597976 M 552.6469412235106 103.77553701635682 l 7.1171531387445 0 L 559.764094362255 106.18455626354859 l -7.1171531387445 0 L 552.6469412235106 103.77553701635682 M 561.5433826469413 106.18455626354859 l 7.1171531387445 0 L 568.6605357856857 106.6969388425409 l -7.1171531387445 0 L 561.5433826469413 106.18455626354859 M 597.1291483406637 89.89949418642841 l 7.1171531387445 0 L 604.2463014794082 93.99839059318136 l -7.1171531387445 0 L 597.1291483406637 89.89949418642841 M 606.0255897640943 94.01300663469752 l 7.1171531387445 0 L 613.1427429028388 95.86152532352361 l -7.1171531387445 0 L 606.0255897640943 94.01300663469752 M 668.3006797281087 50.75215134993104 l 7.1171531387445 0 L 675.4178328668531 55.50433554489916 l -7.1171531387445 0 L 668.3006797281087 50.75215134993104 M 677.1971211515394 55.513367930105744 l 7.1171531387445 0 L 684.3142742902838 56.26683308152138 l -7.1171531387445 0 L 677.1971211515394 55.513367930105744 M 694.9900039984005 43.260198384024164 l 7.1171531387445 0 L 702.107157137145 50.50072259081654 l -7.1171531387445 0 L 694.9900039984005 43.260198384024164 M 703.8864454218311 50.50532089601259 l 7.1171531387445 0 L 711.0035985605756 76.27816461932599 l -7.1171531387445 0 L 703.8864454218311 50.50532089601259 M 712.7828868452618 76.27816461932599 l 7.1171531387445 0 L 719.9000399840063 76.4415686789726 l -7.1171531387445 0 L 712.7828868452618 76.27816461932599 M 748.3686525389844 34.45986336464563 l 7.1171531387445 0 L 755.4858056777289 49.747750114957654 l -7.1171531387445 0 L 748.3686525389844 34.45986336464563 M 775.0579768092763 38.95191486566381 l 7.1171531387445 0 L 782.1751299480208 51.62714313867173 l -7.1171531387445 0 L 775.0579768092763 38.95191486566381 M 801.747301079568 39.997536622216415 l 7.1171531387445 0 L 808.8644542183125 43.14688300597777 l -7.1171531387445 0 L 801.747301079568 39.997536622216415 M 810.6437425029987 43.14688300597777 l 7.1171531387445 0 L 817.7608956417432 56.987617421007684 l -7.1171531387445 0 L 810.6437425029987 43.14688300597777 M 828.43662534986 53.420974840701575 l 7.1171531387445 0 L 835.5537784886045 58.12865401037902 l -7.1171531387445 0 L 828.43662534986 53.420974840701575 M 837.3330667732906 58.12569795703868 l 7.1171531387445 0 L 844.4502199120351 61.71040530775801 l -7.1171531387445 0 L 837.3330667732906 58.12569795703868"></path><path class="candle body equal"></path><path class="candle wick up" d="M 13.522590963614554 188.05754450502528 L 13.522590963614554 190.0906523024371 M 13.522590963614554 191.61039216974314 L 13.522590963614554 194.00233199763514 M 22.41903238704518 185.75264402548774 L 22.41903238704518 188.1582145437824 M 22.41903238704518 190.0891742757669 L 22.41903238704518 192.52726138080536 M 31.315473810475808 187.16087499178872 L 31.315473810475808 187.32033764698153 M 31.315473810475808 188.158378768968 L 31.315473810475808 190.40596465874006 M 40.21191523390643 185.8409971753268 L 40.21191523390643 186.44945148788017 M 40.21191523390643 187.32033764698153 L 40.21191523390643 189.26870524863693 M 58.004798080767685 181.37357945214478 L 58.004798080767685 182.65831307889377 M 58.004798080767685 188.22439729356893 L 58.004798080767685 190.20331077974117 M 66.90123950419832 178.4168692110622 L 66.90123950419832 180.79370032188137 M 66.90123950419832 182.65831307889377 L 66.90123950419832 183.73053931550942 M 75.79768092762893 175.74065558694082 L 75.79768092762893 178.02322144124022 M 75.79768092762893 180.79501412336595 L 75.79768092762893 182.83157064967483 M 102.48700519792082 174.31534520134005 L 102.48700519792082 175.94347369112526 M 102.48700519792082 178.3616895487092 L 102.48700519792082 179.11761807790842 M 129.1763294682127 184.28512776719438 L 129.1763294682127 184.99293831702028 M 129.1763294682127 186.83866517769164 L 129.1763294682127 187.89331931945082 M 146.96921231507397 180.6306247126059 L 146.96921231507397 181.59823950601063 M 146.96921231507397 189.72508703934835 L 146.96921231507397 190.55491690205608 M 164.7620951619352 180.20856598567954 L 164.7620951619352 181.7250213492741 M 164.7620951619352 182.41525980424356 L 164.7620951619352 183.10319910661497 M 173.65853658536582 180.5688760428299 L 173.65853658536582 180.9753333771267 M 173.65853658536582 181.7251855744597 L 173.65853658536582 183.92202588188925 M 191.4514194322271 179.44327662090257 L 191.4514194322271 179.88766997306706 M 191.4514194322271 182.25858897720553 L 191.4514194322271 183.24788149510607 M 235.93362654938022 182.24610786310186 L 235.93362654938022 182.74272482427907 M 235.93362654938022 184.7883137357945 L 235.93362654938022 185.18573868488468 M 244.83006797281087 180.58529856138736 L 244.83006797281087 180.68038494383498 M 244.83006797281087 182.7428890494646 L 244.83006797281087 183.58010904552322 M 262.6229508196721 182.49244564146355 L 262.6229508196721 182.74666622873283 M 262.6229508196721 183.84270511725677 L 262.6229508196721 184.72098140970897 M 271.51939224310274 178.08907574065557 L 271.51939224310274 178.490277869014 M 271.51939224310274 182.74650200354725 L 271.51939224310274 184.97980030217434 M 280.4158336665334 175.54949747093215 L 280.4158336665334 176.43631347303423 M 280.4158336665334 178.49241279642644 L 280.4158336665334 180.07620048610653 M 289.31227508996403 169.2044932010773 L 289.31227508996403 172.45253892136898 M 289.31227508996403 176.43631347303423 L 289.31227508996403 176.43844840044667 M 298.2087165133947 169.95992905471982 L 298.2087165133947 171.20771201471456 M 298.2087165133947 172.45253892136898 L 298.2087165133947 173.63857321158773 M 307.10515793682526 165.4435722262366 L 307.10515793682526 168.59275438481245 M 307.10515793682526 171.20771201471456 L 307.10515793682526 174.44327662090257 M 333.7944822071172 167.1296722065296 L 333.7944822071172 168.97260723904617 M 333.7944822071172 170.4051435328122 L 333.7944822071172 173.1486894830191 M 351.5873650539784 170.65919989489586 L 351.5873650539784 171.35255862839122 M 351.5873650539784 172.02522498850425 L 351.5873650539784 173.08020758063455 M 360.483806477409 168.97457794127305 L 360.483806477409 169.00512382578992 M 360.483806477409 171.35075215134992 L 360.483806477409 171.58214543782435 M 369.38024790083966 163.73595874663337 L 369.38024790083966 164.92691979241937 M 369.38024790083966 169.00512382578992 L 369.38024790083966 170.56821914208763 M 378.2766893242703 160.21513499310254 L 378.2766893242703 162.32362215069304 M 378.2766893242703 164.92708401760495 L 378.2766893242703 166.14021546344347 M 387.1731307477009 140.8480588583065 L 387.1731307477009 148.02010116271433 M 387.1731307477009 162.32345792550746 L 387.1731307477009 162.70199697825657 M 396.06957217113154 141.38474676476383 L 396.06957217113154 144.93989358207975 M 396.06957217113154 148.02354989161137 L 396.06957217113154 149.70964987190433 M 413.86245501799283 141.6847861788084 L 413.86245501799283 142.5880246994679 M 413.86245501799283 145.68646127570125 L 413.86245501799283 146.5578401103593 M 431.65533786485406 140.50105104118768 L 431.65533786485406 143.56582145437824 M 431.65533786485406 143.93614924784865 L 431.65533786485406 148.28220455889115 M 440.5517792882847 131.4607830256848 L 440.5517792882847 133.97539906720095 M 440.5517792882847 143.56647835512055 L 440.5517792882847 144.0965972541549 M 458.34466213514594 133.86471129212376 L 458.34466213514594 136.9391709912632 M 458.34466213514594 140.04795375418774 L 458.34466213514594 145.72406884319778 M 467.2411035585766 133.4201537147737 L 467.2411035585766 135.22466005386585 M 467.2411035585766 136.93933521644877 L 467.2411035585766 142.53432306378505 M 476.13754498200717 126.35814228470078 L 476.13754498200717 131.43270051895158 M 476.13754498200717 135.22466005386585 L 476.13754498200717 137.66504631150232 M 502.82686925229905 126.91470143861261 L 502.82686925229905 127.61397227878865 M 502.82686925229905 135.39660382316234 L 502.82686925229905 139.7426591342048 M 511.7233106757297 123.74696183406687 L 511.7233106757297 125.63538724298758 M 511.7233106757297 127.61397227878865 L 511.7233106757297 135.8010904552322 M 520.6197520991603 99.26098666491494 L 520.6197520991603 101.88826118373512 M 520.6197520991603 125.63538724298758 L 520.6197520991603 126.46390330421073 M 547.3090763694522 100.90323852065953 L 547.3090763694522 103.77553701635682 M 547.3090763694522 114.56184720488736 L 547.3090763694522 116.44091177823032 M 573.998400639744 95.73014517506404 L 573.998400639744 100.34093148525258 M 573.998400639744 106.6969388425409 L 573.998400639744 107.09978322275504 M 582.8948420631747 89.56020495303159 L 582.8948420631747 90.36228075937724 M 582.8948420631747 100.340767260067 L 582.8948420631747 104.34145700584642 M 591.7912834866053 87.27254811797937 L 591.7912834866053 89.8886553241805 M 591.7912834866053 90.36244498456283 L 591.7912834866053 95.93789003481574 M 618.4806077568971 80.70354069500098 L 618.4806077568971 83.43674045851672 M 618.4806077568971 95.86152532352361 L 618.4806077568971 97.38881954936609 M 627.3770491803277 64.62885108060172 L 627.3770491803277 67.90415818169873 M 627.3770491803277 83.44478749260983 L 627.3770491803277 86.32004204164751 M 636.2734906037584 54.47792813505879 L 636.2734906037584 65.98699336530251 M 636.2734906037584 67.90415818169873 L 636.2734906037584 75.21102936346318 M 645.169932027189 59.35755107403273 L 645.169932027189 65.54851211981872 M 645.169932027189 65.96022466005388 L 645.169932027189 73.2206201143007 M 654.0663734506197 48.92235433226037 L 654.0663734506197 51.54256716810093 M 654.0663734506197 65.54867634500425 L 654.0663734506197 66.57951783485515 M 662.9628148740503 46.447809236024426 L 662.9628148740503 50.75215134993104 M 662.9628148740503 51.54273139328649 L 662.9628148740503 57.242659134204786 M 689.6521391443422 39.00725875320239 L 689.6521391443422 43.260034158838636 M 689.6521391443422 56.266668856335855 L 689.6521391443422 62.01471457662748 M 725.2379048380647 64.27297510346185 L 725.2379048380647 66.91108848453001 M 725.2379048380647 76.44140445378707 L 725.2379048380647 80.94068186297048 M 734.1343462614954 56.3973921040531 L 734.1343462614954 59.27231820271953 M 734.1343462614954 66.91125270971557 L 734.1343462614954 70.2423963739079 M 743.0307876849259 31.71254023517048 L 743.0307876849259 34.45986336464563 M 743.0307876849259 59.272153977534 L 743.0307876849259 59.27231820271953 M 760.8236705317872 40.27130000656902 L 760.8236705317872 42.53612954082641 M 760.8236705317872 49.747750114957654 L 760.8236705317872 56.89088878670435 M 769.7201119552178 36.06713525586284 L 769.7201119552178 38.95914077382906 M 769.7201119552178 42.53629376601194 L 769.7201119552178 48.06871181764433 M 787.512994802079 42.981015568547605 L 787.512994802079 43.46285226302308 M 787.512994802079 51.62730736385734 L 787.512994802079 54.09906063193853 M 796.4094362255097 38.990343559088245 L 796.4094362255097 39.98554818366944 M 796.4094362255097 43.46285226302308 L 796.4094362255097 48.23622150693029 M 823.0987604958016 51.806969716875784 L 823.0987604958016 53.42113906588716 M 823.0987604958016 56.987617421007684 L 823.0987604958016 68.05820140576759 M 849.7880847660936 46.73093345595481 L 849.7880847660936 49.02959337844055 M 849.7880847660936 61.71040530775801 L 849.7880847660936 61.970373776522365 M 858.6845261895241 39.13814622610525 L 858.6845261895241 43.01402483084803 M 858.6845261895241 49.02959337844055 L 858.6845261895241 50.631938514090535 M 867.5809676129546 40.156342376666885 L 867.5809676129546 41.40215463443474 M 867.5809676129546 43.01402483084803 L 867.5809676129546 45.887801353215536 M 876.4774090363853 36.52696577547135 L 876.4774090363853 38.88474676476386 M 876.4774090363853 41.393122249228185 L 876.4774090363853 45.06667542534325 M 885.3738504598159 3.846153846153868 L 885.3738504598159 8.012875254549044 M 885.3738504598159 38.88474676476386 L 885.3738504598159 41.3124876831111" style="stroke-width: 1px;"></path><path class="candle wick down" d="M 4.626149540183927 186.4974052420679 L 4.626149540183927 187.55747881495103 M 4.626149540183927 191.61055639492872 L 4.626149540183927 196.15384615384613 M 49.10835665733706 184.16360112986925 L 49.10835665733706 186.45355711751952 M 49.10835665733706 188.2245615187545 L 49.10835665733706 190.40596465874006 M 84.69412235105956 176.52138211916179 L 84.69412235105956 178.02322144124022 M 84.69412235105956 178.2534651514156 L 84.69412235105956 181.44206135452933 M 93.5905637744902 176.6434014320436 L 93.5905637744902 178.25330092623003 M 93.5905637744902 178.36185377389478 L 93.5905637744902 180.34158838599487 M 111.38344662135144 175.94363791631085 L 111.38344662135144 175.94363791631085 M 111.38344662135144 178.57715299218285 L 111.38344662135144 181.81698745319582 M 120.27988804478207 177.4508966695132 L 120.27988804478207 178.57715299218285 M 120.27988804478207 186.83866517769164 L 120.27988804478207 188.82365499573012 M 138.07277089164333 184.86911252709714 L 138.07277089164333 184.99293831702028 M 138.07277089164333 189.72508703934835 L 138.07277089164333 191.44353938119949 M 155.8656537385046 181.20065033173486 L 155.8656537385046 181.59807528082507 M 155.8656537385046 182.41361755238782 L 155.8656537385046 184.5556066478355 M 182.55497800879647 178.08907574065557 L 182.55497800879647 180.97516915194112 M 182.55497800879647 182.25842475201995 L 182.55497800879647 183.40997175326808 M 200.34786085565773 179.7421664586481 L 200.34786085565773 179.88602772121132 M 200.34786085565773 180.93690468370227 L 200.34786085565773 182.76735860211522 M 209.24430227908834 178.58175129737896 L 209.24430227908834 180.93690468370227 M 209.24430227908834 183.52279445575775 L 209.24430227908834 186.51382776062536 M 218.14074370251896 182.77540563620838 L 218.14074370251896 183.52279445575775 M 218.14074370251896 184.32306378506206 L 218.14074370251896 187.54844642974444 M 227.0371851259496 183.77849306969716 L 227.0371851259496 184.32306378506206 M 227.0371851259496 184.7884779609801 L 227.0371851259496 185.53734480719964 M 253.72650939624148 180.55245352427247 L 253.72650939624148 180.68054916902054 M 253.72650939624148 183.8425408920712 L 253.72650939624148 185.0686461275701 M 316.0015993602559 168.12060697628587 L 316.0015993602559 168.59291860999804 M 316.0015993602559 170.3612954082638 L 316.0015993602559 172.3411942455495 M 324.89804078368655 168.26873809367405 L 324.89804078368655 170.36113118307824 M 324.89804078368655 170.4051435328122 L 324.89804078368655 172.6696446166984 M 342.6909236305478 168.3809038954214 L 342.6909236305478 168.9724430138606 M 342.6909236305478 172.02391118701965 L 342.6909236305478 173.98344610129408 M 404.9660135945622 143.96817315903564 L 404.9660135945622 144.93463837614135 M 404.9660135945622 145.68629705051566 L 404.9660135945622 149.01990409249163 M 422.7588964414235 138.67503120278525 L 422.7588964414235 142.5880246994679 M 422.7588964414235 143.94945148788017 L 422.7588964414235 146.2622347763253 M 449.44822071171535 130.30808644813771 L 449.44822071171535 133.97556329238654 M 449.44822071171535 140.04795375418774 L 449.44822071171535 146.2622347763253 M 485.0339864054379 129.7247585889772 L 485.0339864054379 131.43270051895158 M 485.0339864054379 131.91716481639622 L 485.0339864054379 134.52013400775144 M 493.93042782886846 130.7922222952112 L 493.93042782886846 131.9173290415818 M 493.93042782886846 135.40087367798725 L 493.93042782886846 141.2197004532615 M 529.5161935225909 95.81225776785128 L 529.5161935225909 101.88826118373512 M 529.5161935225909 102.05412862116535 L 529.5161935225909 108.85173750246338 M 538.4126349460215 99.20317939959271 L 538.4126349460215 102.05396439597976 M 538.4126349460215 114.56184720488736 L 538.4126349460215 122.34743480260134 M 556.2055177928828 97.7829599947448 L 556.2055177928828 103.77553701635682 M 556.2055177928828 106.18455626354859 L 556.2055177928828 114.77139854168034 M 565.1019592163135 104.02351704657427 L 565.1019592163135 106.18455626354859 M 565.1019592163135 106.6969388425409 L 565.1019592163135 110.38789988832688 M 600.687724910036 89.78535768245419 L 600.687724910036 89.89949418642841 M 600.687724910036 93.99839059318136 L 600.687724910036 100.57478814951061 M 609.5841663334666 92.19930368521317 L 609.5841663334666 94.01300663469752 M 609.5841663334666 95.86152532352361 L 609.5841663334666 98.85502200617489 M 671.8592562974809 49.99343099257703 L 671.8592562974809 50.75215134993104 M 671.8592562974809 55.50433554489916 L 671.8592562974809 68.700978782106 M 680.7556977209116 49.73067069565789 L 680.7556977209116 55.513367930105744 M 680.7556977209116 56.26683308152138 L 680.7556977209116 62.31031991066149 M 698.5485805677728 37.935853642514644 L 698.5485805677728 43.260198384024164 M 698.5485805677728 50.50072259081654 L 698.5485805677728 54.094626551928 M 707.4450219912034 47.28322275504172 L 707.4450219912034 50.50532089601259 M 707.4450219912034 76.27816461932599 L 707.4450219912034 92.0679235367536 M 716.3414634146341 71.21756552584907 L 716.3414634146341 76.27816461932599 M 716.3414634146341 76.4415686789726 L 716.3414634146341 87.96098009590747 M 751.9272291083566 31.304604874203534 L 751.9272291083566 34.45986336464563 M 751.9272291083566 49.747750114957654 L 751.9272291083566 62.29192668987719 M 778.6165533786485 37.233134073441505 L 778.6165533786485 38.95191486566381 M 778.6165533786485 51.62714313867173 L 778.6165533786485 53.02650594495171 M 805.3058776489403 38.975399067200954 L 805.3058776489403 39.997536622216415 M 805.3058776489403 43.14688300597777 L 805.3058776489403 47.48275635551465 M 814.202319072371 41.04578598173816 L 814.202319072371 43.14688300597777 M 814.202319072371 56.987617421007684 L 814.202319072371 59.02581619917231 M 831.9952019192323 53.15772186822571 L 831.9952019192323 53.420974840701575 M 831.9952019192323 58.12865401037902 L 831.9952019192323 63.76995336004731 M 840.8916433426629 57.50295605334034 L 840.8916433426629 58.12569795703868 M 840.8916433426629 61.71040530775801 L 840.8916433426629 69.33373842212441" style="stroke-width: 1px;"></path><path class="candle wick equal" style="stroke-width: 1px;"></path></g></g><g class="x axis" transform="translate(0,200)" fill="none" font-size="10" font-family="sans-serif" text-anchor="middle"><path class="domain" stroke="#000" d="M0.5,6V0.5H890.5V6"></path><g class="tick" opacity="1" transform="translate(58.004798080767685,0)"><line stroke="#000" y2="6" x1="0.5" x2="0.5"></line><text fill="#000" y="9" x="0.5" dy="0.71em">Sep 14</text></g><g class="tick" opacity="1" transform="translate(120.27988804478207,0)"><line stroke="#000" y2="6" x1="0.5" x2="0.5"></line><text fill="#000" y="9" x="0.5" dy="0.71em">Sep 21</text></g><g class="tick" opacity="1" transform="translate(182.55497800879647,0)"><line stroke="#000" y2="6" x1="0.5" x2="0.5"></line><text fill="#000" y="9" x="0.5" dy="0.71em">Sep 28</text></g><g class="tick" opacity="1" transform="translate(244.83006797281087,0)"><line stroke="#000" y2="6" x1="0.5" x2="0.5"></line><text fill="#000" y="9" x="0.5" dy="0.71em">Oct  5</text></g><g class="tick" opacity="1" transform="translate(307.10515793682526,0)"><line stroke="#000" y2="6" x1="0.5" x2="0.5"></line><text fill="#000" y="9" x="0.5" dy="0.71em">Oct 12</text></g><g class="tick" opacity="1" transform="translate(369.38024790083966,0)"><line stroke="#000" y2="6" x1="0.5" x2="0.5"></line><text fill="#000" y="9" x="0.5" dy="0.71em">Oct 19</text></g><g class="tick" opacity="1" transform="translate(431.65533786485406,0)"><line stroke="#000" y2="6" x1="0.5" x2="0.5"></line><text fill="#000" y="9" x="0.5" dy="0.71em">Oct 26</text></g><g class="tick" opacity="1" transform="translate(493.93042782886846,0)"><line stroke="#000" y2="6" x1="0.5" x2="0.5"></line><text fill="#000" y="9" x="0.5" dy="0.71em">Nov  2</text></g><g class="tick" opacity="1" transform="translate(556.2055177928828,0)"><line stroke="#000" y2="6" x1="0.5" x2="0.5"></line><text fill="#000" y="9" x="0.5" dy="0.71em">Nov  9</text></g><g class="tick" opacity="1" transform="translate(618.4806077568971,0)"><line stroke="#000" y2="6" x1="0.5" x2="0.5"></line><text fill="#000" y="9" x="0.5" dy="0.71em">Nov 16</text></g><g class="tick" opacity="1" transform="translate(680.7556977209116,0)"><line stroke="#000" y2="6" x1="0.5" x2="0.5"></line><text fill="#000" y="9" x="0.5" dy="0.71em">Nov 23</text></g><g class="tick" opacity="1" transform="translate(743.0307876849259,0)"><line stroke="#000" y2="6" x1="0.5" x2="0.5"></line><text fill="#000" y="9" x="0.5" dy="0.71em">Nov 30</text></g><g class="tick" opacity="1" transform="translate(805.3058776489403,0)"><line stroke="#000" y2="6" x1="0.5" x2="0.5"></line><text fill="#000" y="9" x="0.5" dy="0.71em">Dec  7</text></g><g class="tick" opacity="1" transform="translate(867.5809676129546,0)"><line stroke="#000" y2="6" x1="0.5" x2="0.5"></line><text fill="#000" y="9" x="0.5" dy="0.71em">Dec 14</text></g></g><g class="y axis" fill="none" font-size="10" font-family="sans-serif" text-anchor="end"><path class="domain" stroke="#000" d="M-6,200.5H0.5V0.5H-6"></path><g class="tick" opacity="1" transform="translate(0,193.69046837022924)"><line stroke="#000" x2="-6" y1="0.5" y2="0.5"></line><text fill="#000" x="-9" y="0.5" dy="0.32em">10,000</text></g><g class="tick" opacity="1" transform="translate(0,177.26794981278329)"><line stroke="#000" x2="-6" y1="0.5" y2="0.5"></line><text fill="#000" x="-9" y="0.5" dy="0.32em">11,000</text></g><g class="tick" opacity="1" transform="translate(0,160.8454312553373)"><line stroke="#000" x2="-6" y1="0.5" y2="0.5"></line><text fill="#000" x="-9" y="0.5" dy="0.32em">12,000</text></g><g class="tick" opacity="1" transform="translate(0,144.42291269789135)"><line stroke="#000" x2="-6" y1="0.5" y2="0.5"></line><text fill="#000" x="-9" y="0.5" dy="0.32em">13,000</text></g><g class="tick" opacity="1" transform="translate(0,128.00039414044537)"><line stroke="#000" x2="-6" y1="0.5" y2="0.5"></line><text fill="#000" x="-9" y="0.5" dy="0.32em">14,000</text></g><g class="tick" opacity="1" transform="translate(0,111.57787558299941)"><line stroke="#000" x2="-6" y1="0.5" y2="0.5"></line><text fill="#000" x="-9" y="0.5" dy="0.32em">15,000</text></g><g class="tick" opacity="1" transform="translate(0,95.15535702555344)"><line stroke="#000" x2="-6" y1="0.5" y2="0.5"></line><text fill="#000" x="-9" y="0.5" dy="0.32em">16,000</text></g><g class="tick" opacity="1" transform="translate(0,78.73283846810747)"><line stroke="#000" x2="-6" y1="0.5" y2="0.5"></line><text fill="#000" x="-9" y="0.5" dy="0.32em">17,000</text></g><g class="tick" opacity="1" transform="translate(0,62.31031991066149)"><line stroke="#000" x2="-6" y1="0.5" y2="0.5"></line><text fill="#000" x="-9" y="0.5" dy="0.32em">18,000</text></g><g class="tick" opacity="1" transform="translate(0,45.887801353215536)"><line stroke="#000" x2="-6" y1="0.5" y2="0.5"></line><text fill="#000" x="-9" y="0.5" dy="0.32em">19,000</text></g><g class="tick" opacity="1" transform="translate(0,29.465282795769554)"><line stroke="#000" x2="-6" y1="0.5" y2="0.5"></line><text fill="#000" x="-9" y="0.5" dy="0.32em">20,000</text></g><g class="tick" opacity="1" transform="translate(0,13.042764238323599)"><line stroke="#000" x2="-6" y1="0.5" y2="0.5"></line><text fill="#000" x="-9" y="0.5" dy="0.32em">21,000</text></g><text transform="rotate(-90)" y="6" dy=".71em" style="text-anchor: end;">Price ($)</text></g></g></svg>