<?xml version="1.0" encoding="utf-8"?>
<!DOCTYPE svg PUBLIC "-//W3C//DTD SVG 1.1//EN" "http://www.w3.org/Graphics/SVG/1.1/DTD/svg11.dtd">
<svg version="1.1" xmlns="http://www.w3.org/2000/svg" width="960" height="250"><g transform="translate(50,20)"><style>.axis path,.axis line{fill:none;stroke:#000;shape-rendering:crispEdges;}path.candle{stroke:#000000;}path.candle.body{stroke-width:0;}path.candle.up{fill:#00AA00;stroke:#00AA00;}path.candle.down{fill:#FF0000;stroke:#FF0000;}</style><g class="candlestick"><g class="data"><path class="candle body up" d="M 1.0675729708116766 68.43966530259101 l 7.1171531387445 0 L 8.184726109556177 68.13331113178484 l -7.1171531387445 0 L 1.0675729708116766 68.43966530259101 M 27.75689724110356 79.2474324800696 l 7.1171531387445 0 L 34.87405037984806 77.35251923861375 l -7.1171531387445 0 L 27.75689724110356 79.2474324800696 M 72.23910435825668 169.02834379218666 l 7.1171531387445 0 L 79.35625749700118 154.25673391147006 l -7.1171531387445 0 L 72.23910435825668 169.02834379218666 M 81.13554578168731 154.25673391147006 l 7.1171531387445 0 L 88.25269892043181 149.0211373549061 l -7.1171531387445 0 L 81.13554578168731 154.25673391147006 M 90.03198720511796 149.0211373549061 l 7.1171531387445 0 L 97.14914034386246 145.2692116551481 l -7.1171531387445 0 L 90.03198720511796 149.0211373549061 M 107.82487005197919 147.1715539537669 l 7.1171531387445 0 L 114.94202319072369 142.72847410540427 l -7.1171531387445 0 L 107.82487005197919 147.1715539537669 M 116.72131147540982 142.72834818918113 l 7.1171531387445 0 L 123.83846461415432 135.72173995469333 l -7.1171531387445 0 L 116.72131147540982 142.72834818918113 M 125.61775289884046 135.7216140384702 l 7.1171531387445 0 L 132.73490603758498 130.05198426087506 l -7.1171531387445 0 L 125.61775289884046 135.7216140384702 M 143.4106357457017 133.6417298652782 l 7.1171531387445 0 L 150.5277888844462 126.27374207048877 l -7.1171531387445 0 L 143.4106357457017 133.6417298652782 M 152.30707716913233 126.27374207048877 l 7.1171531387445 0 L 159.42423030787683 123.40675558668877 l -7.1171531387445 0 L 152.30707716913233 126.27374207048877 M 170.09996001599356 146.04926265726237 l 7.1171531387445 0 L 177.21711315473806 140.82071740919207 l -7.1171531387445 0 L 170.09996001599356 146.04926265726237 M 178.9964014394242 140.8160585089373 l 7.1171531387445 0 L 186.1135545781687 87.14716448501696 l -7.1171531387445 0 L 178.9964014394242 140.8160585089373 M 196.78928428628546 89.5603489007589 l 7.1171531387445 0 L 203.90643742502996 76.99051009719669 l -7.1171531387445 0 L 196.78928428628546 89.5603489007589 M 205.68572570971608 76.99051009719669 l 7.1171531387445 0 L 212.80287884846058 58.6178221519979 l -7.1171531387445 0 L 205.68572570971608 76.99051009719669 M 214.5821671331467 58.6178221519979 l 7.1171531387445 0 L 221.6993202718912 56.061722823035666 l -7.1171531387445 0 L 214.5821671331467 58.6178221519979 M 223.47860855657734 56.061596906812525 l 7.1171531387445 0 L 230.59576169532184 51.90988719870697 l -7.1171531387445 0 L 223.47860855657734 56.061596906812525 M 267.9608156737305 81.11074074952684 l 7.1171531387445 0 L 275.07796881247504 75.03792722556035 l -7.1171531387445 0 L 267.9608156737305 81.11074074952684 M 276.85725709716115 75.03792722556035 l 7.1171531387445 0 L 283.9744102359057 49.74236533423624 l -7.1171531387445 0 L 276.85725709716115 75.03792722556035 M 312.4430227908837 107.29124185680898 l 7.1171531387445 0 L 319.5601759296282 105.97264716848915 l -7.1171531387445 0 L 312.4430227908837 107.29124185680898 M 339.13234706117555 144.64164519920973 l 7.1171531387445 0 L 346.2495001999201 129.252542160403 l -7.1171531387445 0 L 339.13234706117555 144.64164519920973 M 356.9252299080368 141.5962354272748 l 7.1171531387445 0 L 364.0423830467813 128.03266579099488 l -7.1171531387445 0 L 356.9252299080368 141.5962354272748 M 365.8216713314674 128.01415610619893 l 7.1171531387445 0 L 372.93882447021196 116.80144235522567 l -7.1171531387445 0 L 365.8216713314674 128.01415610619893 M 392.5109956017593 135.94184151267484 l 7.1171531387445 0 L 399.62814874050383 67.17999940668273 l -7.1171531387445 0 L 392.5109956017593 135.94184151267484 M 401.40743702518995 67.17999940668273 l 7.1171531387445 0 L 408.5245901639345 51.29944534911053 l -7.1171531387445 0 L 401.40743702518995 67.17999940668273 M 436.99320271891247 117.68940356053803 l 7.1171531387445 0 L 444.110355857657 114.55018620239238 l -7.1171531387445 0 L 436.99320271891247 117.68940356053803 M 463.68252698920435 132.3037440786007 l 7.1171531387445 0 L 470.7996801279489 122.95295351863065 l -7.1171531387445 0 L 463.68252698920435 132.3037440786007 M 472.57896841263494 122.95295351863065 l 7.1171531387445 0 L 479.69612155137946 82.52024695092604 l -7.1171531387445 0 L 472.57896841263494 122.95295351863065 M 499.2682926829268 122.96630063827939 l 7.1171531387445 0 L 506.38544582167134 121.98679833877213 l -7.1171531387445 0 L 499.2682926829268 122.96630063827939 M 517.0611755297881 134.95629523445876 l 7.1171531387445 0 L 524.1783286685326 111.10751074657183 l -7.1171531387445 0 L 517.0611755297881 134.95629523445876 M 534.8540583766493 116.03133873473632 l 7.1171531387445 0 L 541.9712115153937 92.94245865326754 l -7.1171531387445 0 L 534.8540583766493 116.03133873473632 M 552.6469412235106 95.41180170451278 l 7.1171531387445 0 L 559.764094362255 84.83962378045725 l -7.1171531387445 0 L 552.6469412235106 95.41180170451278 M 561.5433826469413 84.83962378045725 l 7.1171531387445 0 L 568.6605357856857 79.25372829122468 l -7.1171531387445 0 L 561.5433826469413 84.83962378045725 M 588.232706917233 94.34944653020465 l 7.1171531387445 0 L 595.3498600559775 77.2012938546688 l -7.1171531387445 0 L 588.232706917233 94.34944653020465 M 597.1291483406637 77.2012938546688 l 7.1171531387445 0 L 604.2463014794082 70.67090077595111 l -7.1171531387445 0 L 597.1291483406637 77.2012938546688 M 606.0255897640943 70.67090077595111 l 7.1171531387445 0 L 613.1427429028388 56.710569120678144 l -7.1171531387445 0 L 606.0255897640943 70.67090077595111 M 614.9220311875249 56.710569120678144 l 7.1171531387445 0 L 622.0391843262694 52.65984422349999 l -7.1171531387445 0 L 614.9220311875249 56.710569120678144 M 623.8184726109555 52.65984422349999 l 7.1171531387445 0 L 630.9356257497 50.16531792763453 l -7.1171531387445 0 L 623.8184726109555 52.65984422349999 M 632.7149140343862 50.16531792763453 l 7.1171531387445 0 L 639.8320671731307 20.99695076237481 l -7.1171531387445 0 L 632.7149140343862 50.16531792763453 M 641.6113554578168 20.99695076237481 l 7.1171531387445 0 L 648.7285085965613 17.289347573148603 l -7.1171531387445 0 L 641.6113554578168 20.99695076237481 M 650.5077968812475 17.289347573148603 l 7.1171531387445 0 L 657.624950019992 13.353332355215997 l -7.1171531387445 0 L 650.5077968812475 17.289347573148603 M 677.1971211515394 37.58527991000108 l 7.1171531387445 0 L 684.3142742902838 27.85019303712494 l -7.1171531387445 0 L 677.1971211515394 37.58527991000108 M 694.9900039984005 33.799734578674986 l 7.1171531387445 0 L 702.107157137145 26.29059469778869 l -7.1171531387445 0 L 694.9900039984005 33.799734578674986 M 703.8864454218311 26.29046878156555 l 7.1171531387445 0 L 711.0035985605756 24.11022937856154 l -7.1171531387445 0 L 703.8864454218311 26.29046878156555 M 730.5757696921231 67.04816512109534 l 7.1171531387445 0 L 737.6929228308676 63.601586262358666 l -7.1171531387445 0 L 730.5757696921231 67.04816512109534 M 748.3686525389844 78.61294063186071 l 7.1171531387445 0 L 755.4858056777289 72.29257581327646 l -7.1171531387445 0 L 748.3686525389844 78.61294063186071 M 775.0579768092763 112.88192216251947 l 7.1171531387445 0 L 782.1751299480208 106.02590973086107 l -7.1171531387445 0 L 775.0579768092763 112.88192216251947 M 783.9544182327068 106.02578381463803 l 7.1171531387445 0 L 791.0715713714512 92.51698773540727 l -7.1171531387445 0 L 783.9544182327068 106.02578381463803 M 801.747301079568 107.69518110051881 l 7.1171531387445 0 L 808.8644542183125 100.02020955380775 l -7.1171531387445 0 L 801.747301079568 107.69518110051881 M 828.43662534986 111.02264321220139 l 7.1171531387445 0 L 835.5537784886045 96.88199952544694 l -7.1171531387445 0 L 828.43662534986 111.02264321220139 M 837.3330667732906 96.88199952544694 l 7.1171531387445 0 L 844.4502199120351 88.16796730570154 l -7.1171531387445 0 L 837.3330667732906 96.88199952544694"></path><path class="candle body down" d="M 9.964014394242305 68.13331113178484 l 7.1171531387445 0 L 17.081167532986804 68.2923433215621 l -7.1171531387445 0 L 9.964014394242305 68.13331113178484 M 18.860455817672932 68.2923433215621 l 7.1171531387445 0 L 25.977608956417434 79.24755839629263 l -7.1171531387445 0 L 18.860455817672932 68.2923433215621 M 36.65333866453418 77.35251923861375 l 7.1171531387445 0 L 43.77049180327868 86.06730695569773 l -7.1171531387445 0 L 36.65333866453418 77.35251923861375 M 45.54978008796481 86.06743287192084 l 7.1171531387445 0 L 52.66693322670931 98.39576435957416 l -7.1171531387445 0 L 45.54978008796481 86.06743287192084 M 54.446221511395436 98.3956384433511 l 7.1171531387445 0 L 61.563374650139934 151.72883981648266 l -7.1171531387445 0 L 54.446221511395436 98.3956384433511 M 63.342662934826066 151.72883981648266 l 7.1171531387445 0 L 70.45981607357056 169.02834379218666 l -7.1171531387445 0 L 63.342662934826066 151.72883981648266 M 98.92842862854857 145.2692116551481 l 7.1171531387445 0 L 106.04558176729307 147.1451115469156 l -7.1171531387445 0 L 98.92842862854857 145.2692116551481 M 134.51419432227107 130.0521101770981 l 7.1171531387445 0 L 141.63134746101557 133.64160394905505 l -7.1171531387445 0 L 134.51419432227107 130.0521101770981 M 161.20351859256294 123.40675558668877 l 7.1171531387445 0 L 168.32067173130744 146.04938857348552 l -7.1171531387445 0 L 161.20351859256294 123.40675558668877 M 187.89284286285485 87.1792731219079 l 7.1171531387445 0 L 195.00999600159935 89.56047481698204 l -7.1171531387445 0 L 187.89284286285485 87.1792731219079 M 232.37504998000796 51.91001311493008 l 7.1171531387445 0 L 239.49220311875246 62.956265618963045 l -7.1171531387445 0 L 232.37504998000796 51.91001311493008 M 241.2714914034386 62.956265618963045 l 7.1171531387445 0 L 248.3886445421831 77.0804142804912 l -7.1171531387445 0 L 241.2714914034386 62.956265618963045 M 250.16793282686922 77.0804142804912 l 7.1171531387445 0 L 257.28508596561375 79.04294453375256 l -7.1171531387445 0 L 250.16793282686922 77.0804142804912 M 259.06437425029986 79.04294453375256 l 7.1171531387445 0 L 266.1815273890444 81.11061483330371 l -7.1171531387445 0 L 259.06437425029986 79.04294453375256 M 285.7536985205918 49.74249125045938 l 7.1171531387445 0 L 292.8708516593363 58.19512139104586 l -7.1171531387445 0 L 285.7536985205918 49.74249125045938 M 294.65013994402244 58.19512139104586 l 7.1171531387445 0 L 301.76729308276697 100.47602628143557 l -7.1171531387445 0 L 294.65013994402244 58.19512139104586 M 303.54658136745303 100.47590036521242 l 7.1171531387445 0 L 310.66373450619756 107.29136777303202 l -7.1171531387445 0 L 303.54658136745303 100.47590036521242 M 321.3394642143143 105.97264716848915 l 7.1171531387445 0 L 328.45661735305885 127.28119777152459 l -7.1171531387445 0 L 321.3394642143143 105.97264716848915 M 330.23590563774496 127.28119777152459 l 7.1171531387445 0 L 337.3530587764895 144.64164519920973 l -7.1171531387445 0 L 330.23590563774496 127.28119777152459 M 348.02878848460614 129.252542160403 l 7.1171531387445 0 L 355.14594162335067 141.59636134349785 l -7.1171531387445 0 L 348.02878848460614 129.252542160403 M 374.7181127548981 116.8015682714487 l 7.1171531387445 0 L 381.8352658936426 118.0914540609014 l -7.1171531387445 0 L 374.7181127548981 116.8015682714487 M 383.61455417832866 118.09132814467827 l 7.1171531387445 0 L 390.7317073170732 135.941967428898 l -7.1171531387445 0 L 383.61455417832866 118.09132814467827 M 410.3038784486206 51.29944534911053 l 7.1171531387445 0 L 417.4210315873651 57.95059208578252 l -7.1171531387445 0 L 410.3038784486206 51.29944534911053 M 419.20031987205124 57.95046616955949 l 7.1171531387445 0 L 426.31747301079577 76.06968475765478 l -7.1171531387445 0 L 419.20031987205124 57.95046616955949 M 428.0967612954818 76.06968475765478 l 7.1171531387445 0 L 435.21391443422635 117.6892776443149 l -7.1171531387445 0 L 428.0967612954818 76.06968475765478 M 445.8896441423431 114.55006028616926 l 7.1171531387445 0 L 453.00679728108764 126.85408994276402 l -7.1171531387445 0 L 445.8896441423431 114.55006028616926 M 454.7860855657737 126.85421585898706 l 7.1171531387445 0 L 461.90323870451823 132.3038699948238 l -7.1171531387445 0 L 454.7860855657737 126.85421585898706 M 481.47540983606564 82.52037286714918 l 7.1171531387445 0 L 488.59256297481016 114.24748360205615 l -7.1171531387445 0 L 481.47540983606564 82.52037286714918 M 490.3718512594962 114.24735768583302 l 7.1171531387445 0 L 497.48900439824075 122.96630063827939 l -7.1171531387445 0 L 490.3718512594962 114.24735768583302 M 508.16473410635746 121.98692425499526 l 7.1171531387445 0 L 515.281887245102 134.9564211506819 l -7.1171531387445 0 L 508.16473410635746 121.98692425499526 M 525.9576169532187 111.10751074657183 l 7.1171531387445 0 L 533.0747700919632 116.03133873473632 l -7.1171531387445 0 L 525.9576169532187 111.10751074657183 M 543.75049980008 92.9423327370444 l 7.1171531387445 0 L 550.8676529388244 95.41167578828964 l -7.1171531387445 0 L 543.75049980008 92.9423327370444 M 570.4398240703717 79.25372829122468 l 7.1171531387445 0 L 577.5569772091162 91.07751347290991 l -7.1171531387445 0 L 570.4398240703717 79.25372829122468 M 579.3362654938024 91.07751347290991 l 7.1171531387445 0 L 586.4534186325469 94.34957244642777 l -7.1171531387445 0 L 579.3362654938024 91.07751347290991 M 659.4042383046781 13.353458271439138 l 7.1171531387445 0 L 666.5213914434225 17.97206533480542 l -7.1171531387445 0 L 659.4042383046781 13.353458271439138 M 668.3006797281087 17.97206533480542 l 7.1171531387445 0 L 675.4178328668531 37.58540582622422 l -7.1171531387445 0 L 668.3006797281087 17.97206533480542 M 686.09356257497 27.85019303712494 l 7.1171531387445 0 L 693.2107157137144 33.799608662451845 l -7.1171531387445 0 L 686.09356257497 27.85019303712494 M 712.7828868452618 24.110355294784682 l 7.1171531387445 0 L 719.9000399840063 37.74645267557105 l -7.1171531387445 0 L 712.7828868452618 24.110355294784682 M 721.6793282686924 37.74657859179419 l 7.1171531387445 0 L 728.7964814074369 67.04816512109534 l -7.1171531387445 0 L 721.6793282686924 37.74657859179419 M 739.4722111155537 63.60146034613564 l 7.1171531387445 0 L 746.5893642542982 78.61306654808374 l -7.1171531387445 0 L 739.4722111155537 63.60146034613564 M 757.265093962415 72.2927017294996 l 7.1171531387445 0 L 764.3822471011595 79.78610208249816 l -7.1171531387445 0 L 757.265093962415 72.2927017294996 M 766.1615353858456 79.78610208249816 l 7.1171531387445 0 L 773.27868852459 112.88192216251947 l -7.1171531387445 0 L 766.1615353858456 79.78610208249816 M 792.8508596561375 92.51711365163038 l 7.1171531387445 0 L 799.9680127948819 107.69505518429577 l -7.1171531387445 0 L 792.8508596561375 92.51711365163038 M 810.6437425029987 100.02020955380775 l 7.1171531387445 0 L 817.7608956417432 102.20095262170418 l -7.1171531387445 0 L 810.6437425029987 100.02020955380775 M 819.5401839264293 102.2010785379273 l 7.1171531387445 0 L 826.6573370651738 111.02251729597826 l -7.1171531387445 0 L 819.5401839264293 102.2010785379273 M 846.2295081967213 88.1678413894784 l 7.1171531387445 0 L 853.3466613354658 89.86771040134984 l -7.1171531387445 0 L 846.2295081967213 88.1678413894784 M 855.1259496201519 89.86771040134984 l 7.1171531387445 0 L 862.2431027588964 100.92542128168506 l -7.1171531387445 0 L 855.1259496201519 89.86771040134984 M 864.0223910435824 100.92542128168506 l 7.1171531387445 0 L 871.1395441823269 110.63142150702475 l -7.1171531387445 0 L 864.0223910435824 100.92542128168506 M 872.9188324670131 110.63129559080163 l 7.1171531387445 0 L 880.0359856057576 114.00068780477706 l -7.1171531387445 0 L 872.9188324670131 110.63129559080163 M 881.8152738904437 114.00056188855393 l 7.1171531387445 0 L 888.9324270291881 114.42124798993638 l -7.1171531387445 0 L 881.8152738904437 114.00056188855393"></path><path class="candle body equal"></path><path class="candle wick up" d="M 4.626149540183927 59.12136112818112 L 4.626149540183927 68.13331113178484 M 4.626149540183927 68.43966530259101 L 4.626149540183927 74.79793090432875 M 31.315473810475808 73.08547027014718 L 31.315473810475808 77.35251923861375 M 31.315473810475808 79.2474324800696 L 31.315473810475808 91.22999801908594 M 75.79768092762893 151.0527956146502 L 75.79768092762893 154.25673391147006 M 75.79768092762893 169.02834379218666 L 75.79768092762893 174.9515688431084 M 84.69412235105956 137.81900056667334 L 84.69412235105956 149.0211373549061 M 84.69412235105956 154.25673391147006 L 84.69412235105956 196.15384615384616 M 93.5905637744902 137.88019585110072 L 93.5905637744902 145.2692116551481 M 93.5905637744902 149.0211373549061 L 93.5905637744902 161.1009102181569 M 111.38344662135144 141.79203515419772 L 111.38344662135144 142.72847410540427 M 111.38344662135144 147.1715539537669 L 111.38344662135144 163.54355903010457 M 120.27988804478207 132.1527705271019 L 120.27988804478207 135.72173995469333 M 120.27988804478207 142.72834818918113 L 120.27988804478207 155.38418777312168 M 129.1763294682127 123.07748466327811 L 129.1763294682127 130.05198426087506 M 129.1763294682127 135.7216140384702 L 129.1763294682127 141.36429774432162 M 146.96921231507397 122.7846035283438 L 146.96921231507397 126.27374207048877 M 146.96921231507397 133.6417298652782 L 146.96921231507397 149.3704289577899 M 155.8656537385046 116.22184998028908 L 155.8656537385046 123.40675558668877 M 155.8656537385046 126.27374207048877 L 155.8656537385046 132.1527705271019 M 173.65853658536582 139.87143500322924 L 173.65853658536582 140.82071740919207 M 173.65853658536582 146.04926265726237 L 173.65853658536582 154.18810956987974 M 182.55497800879647 84.65301593782068 L 182.55497800879647 87.14716448501696 M 182.55497800879647 140.8160585089373 L 182.55497800879647 144.40781877291008 M 200.34786085565773 73.52617705100273 L 200.34786085565773 76.99051009719669 M 200.34786085565773 89.5603489007589 L 200.34786085565773 92.91022410015356 M 209.24430227908834 50.30092969991492 L 209.24430227908834 58.6178221519979 M 209.24430227908834 76.99051009719669 L 209.24430227908834 86.24560432760961 M 218.14074370251896 37.81633617939249 L 218.14074370251896 56.061722823035666 M 218.14074370251896 58.6178221519979 L 218.14074370251896 73.40026082790115 M 227.0371851259496 46.542330440332506 L 227.0371851259496 51.90988719870697 M 227.0371851259496 56.061596906812525 L 227.0371851259496 67.70985487349421 M 271.51939224310274 71.17909865238911 L 271.51939224310274 75.03792722556035 M 271.51939224310274 81.11074074952684 L 271.51939224310274 87.44546001754465 M 280.4158336665334 47.14169166229604 L 280.4158336665334 49.74236533423624 M 280.4158336665334 75.03792722556035 L 280.4158336665334 76.4092808113598 M 316.0015993602559 101.37481628193466 L 316.0015993602559 105.97264716848915 M 316.0015993602559 107.29124185680898 L 316.0015993602559 111.51472381208242 M 342.6909236305478 126.7509645560438 L 342.6909236305478 129.252542160403 M 342.6909236305478 144.64164519920973 L 342.6909236305478 152.92894733886385 M 360.483806477409 108.94641060947932 L 360.483806477409 128.03266579099488 M 360.483806477409 141.5962354272748 L 360.483806477409 178.461231729619 M 369.38024790083966 110.95439661928035 L 369.38024790083966 116.80144235522567 M 369.38024790083966 128.01415610619893 L 369.38024790083966 131.9718289145049 M 396.06957217113154 53.75934468362317 L 396.06957217113154 67.17999940668273 M 396.06957217113154 135.94184151267484 L 396.06957217113154 139.07602222189652 M 404.9660135945622 44.65358709380868 L 404.9660135945622 51.29944534911053 M 404.9660135945622 67.17999940668273 L 404.9660135945622 71.58731904768445 M 440.5517792882847 111.83946175146143 L 440.5517792882847 114.55018620239238 M 440.5517792882847 117.68940356053803 L 440.5517792882847 127.02055118970435 M 467.2411035585766 115.00197361088085 L 467.2411035585766 122.95295351863065 M 467.2411035585766 132.3037440786007 L 467.2411035585766 133.8192717398514 M 476.13754498200717 74.306102136894 L 476.13754498200717 82.52024695092604 M 476.13754498200717 122.95295351863065 L 476.13754498200717 123.88700006159823 M 502.82686925229905 113.43267972236579 L 502.82686925229905 121.98679833877213 M 502.82686925229905 122.96630063827939 L 502.82686925229905 123.83575215879588 M 520.6197520991603 107.63537089454556 L 520.6197520991603 111.10751074657183 M 520.6197520991603 134.95629523445876 L 520.6197520991603 137.75604245512255 M 538.4126349460215 85.33711877793164 L 538.4126349460215 92.94245865326754 M 538.4126349460215 116.03133873473632 L 538.4126349460215 121.72086327558154 M 556.2055177928828 77.69375220321912 L 556.2055177928828 84.83962378045725 M 556.2055177928828 95.41180170451278 L 556.2055177928828 105.26915323002054 M 565.1019592163135 76.74963236240337 L 565.1019592163135 79.25372829122468 M 565.1019592163135 84.83962378045725 L 565.1019592163135 88.09103249338645 M 591.7912834866053 64.6490833223408 L 591.7912834866053 77.2012938546688 M 591.7912834866053 94.34944653020465 L 591.7912834866053 95.94543465801728 M 600.687724910036 68.86778046113639 L 600.687724910036 70.67090077595111 M 600.687724910036 77.2012938546688 L 600.687724910036 84.91567717921062 M 609.5841663334666 53.82167321405839 L 609.5841663334666 56.710569120678144 M 609.5841663334666 70.67090077595111 L 609.5841663334666 74.7291806465153 M 618.4806077568971 42.82603903171227 L 618.4806077568971 52.65984422349999 M 618.4806077568971 56.710569120678144 L 618.4806077568971 61.904109658726185 M 627.3770491803277 46.6180060904166 L 627.3770491803277 50.16531792763453 M 627.3770491803277 52.65984422349999 L 627.3770491803277 55.69681760848721 M 636.2734906037584 18.84076135798324 L 636.2734906037584 20.99695076237481 M 636.2734906037584 50.16531792763453 L 636.2734906037584 51.296171527309866 M 645.169932027189 3.8461538461538396 L 645.169932027189 17.289347573148603 M 645.169932027189 20.99695076237481 L 645.169932027189 23.06449514570292 M 654.0663734506197 5.0218336212533075 L 654.0663734506197 13.353332355215997 M 654.0663734506197 17.289347573148603 L 654.0663734506197 19.447047972217405 M 680.7556977209116 22.352690736509686 L 680.7556977209116 27.85019303712494 M 680.7556977209116 37.58527991000108 L 680.7556977209116 54.08471220411761 M 698.5485805677728 13.236104351508459 L 698.5485805677728 26.29059469778869 M 698.5485805677728 33.799734578674986 L 698.5485805677728 37.32627023908114 M 707.4450219912034 20.204308137950335 L 707.4450219912034 24.11022937856154 M 707.4450219912034 26.29046878156555 L 707.4450219912034 42.52560292339186 M 734.1343462614954 57.8497331910782 L 734.1343462614954 63.601586262358666 M 734.1343462614954 67.04816512109534 L 734.1343462614954 72.62776479917292 M 751.9272291083566 71.71298343833988 L 751.9272291083566 72.29257581327646 M 751.9272291083566 78.61294063186071 L 751.9272291083566 80.2062845189881 M 778.6165533786485 98.16798191198342 L 778.6165533786485 106.02590973086107 M 778.6165533786485 112.88192216251947 L 778.6165533786485 116.35494342810746 M 787.512994802079 87.31010007771044 L 787.512994802079 92.51698773540727 M 787.512994802079 106.02578381463803 L 787.512994802079 112.15047482252231 M 805.3058776489403 96.0102815129146 L 805.3058776489403 100.02020955380775 M 805.3058776489403 107.69518110051881 L 805.3058776489403 109.91092887843746 M 831.9952019192323 92.90808352436075 L 831.9952019192323 96.88199952544694 M 831.9952019192323 111.02264321220139 L 831.9952019192323 125.39723924147862 M 840.8916433426629 84.80827064090496 L 840.8916433426629 88.16796730570154 M 840.8916433426629 96.88199952544694 L 840.8916433426629 99.77970956768374" style="stroke-width: 1px;"></path><path class="candle wick down" d="M 13.522590963614554 63.213638378982694 L 13.522590963614554 68.13331113178484 M 13.522590963614554 68.2923433215621 L 13.522590963614554 74.4606013426396 M 22.41903238704518 66.97626695770433 L 22.41903238704518 68.2923433215621 M 22.41903238704518 79.24755839629263 L 22.41903238704518 87.57313906776967 M 40.21191523390643 74.74592750418785 L 40.21191523390643 77.35251923861375 M 40.21191523390643 86.06730695569773 L 40.21191523390643 92.63320840933007 M 49.10835665733706 62.83588970967796 L 49.10835665733706 86.06743287192084 M 49.10835665733706 98.39576435957416 L 49.10835665733706 100.00245536635047 M 58.004798080767685 93.11874136560976 L 58.004798080767685 98.3956384433511 M 58.004798080767685 151.72883981648266 L 58.004798080767685 164.3816574110688 M 66.90123950419832 146.8192403615286 L 66.90123950419832 151.72883981648266 M 66.90123950419832 169.02834379218666 L 66.90123950419832 182.41852678925568 M 102.48700519792082 120.56872983420202 L 102.48700519792082 145.2692116551481 M 102.48700519792082 147.1451115469156 L 102.48700519792082 154.3816428047869 M 138.07277089164333 127.62910429595425 L 138.07277089164333 130.0521101770981 M 138.07277089164333 133.64160394905505 L 138.07277089164333 140.31680068433957 M 164.7620951619352 121.37534915939085 L 164.7620951619352 123.40675558668877 M 164.7620951619352 146.04938857348552 L 164.7620951619352 149.94536243247177 M 191.4514194322271 82.87306420805665 L 191.4514194322271 87.1792731219079 M 191.4514194322271 89.56047481698204 L 191.4514194322271 96.35466238309742 M 235.93362654938022 33.67369243935025 L 235.93362654938022 51.91001311493008 M 235.93362654938022 62.956265618963045 L 235.93362654938022 67.00359077811737 M 244.83006797281087 57.61036645096203 L 244.83006797281087 62.956265618963045 M 244.83006797281087 77.0804142804912 L 244.83006797281087 82.5605401423185 M 253.72650939624148 68.19375091887363 L 253.72650939624148 77.0804142804912 M 253.72650939624148 79.04294453375256 L 253.72650939624148 85.7037868196035 M 262.6229508196721 72.21664833074621 L 262.6229508196721 79.04294453375256 M 262.6229508196721 81.11061483330371 L 262.6229508196721 83.4231921867875 M 289.31227508996403 49.678022144231335 L 289.31227508996403 49.74249125045938 M 289.31227508996403 58.19512139104586 L 289.31227508996403 65.32903092708938 M 298.2087165133947 54.52907055544313 L 298.2087165133947 58.19512139104586 M 298.2087165133947 100.47602628143557 L 298.2087165133947 106.04769323745768 M 307.10515793682526 94.88307948370924 L 307.10515793682526 100.47590036521242 M 307.10515793682526 107.29136777303202 L 307.10515793682526 113.89491817737171 M 324.89804078368655 105.39003280419804 L 324.89804078368655 105.97264716848915 M 324.89804078368655 127.28119777152459 L 324.89804078368655 132.1527705271019 M 333.7944822071172 113.33647972791618 L 333.7944822071172 127.28119777152459 M 333.7944822071172 144.64164519920973 L 333.7944822071172 147.26271729929243 M 351.5873650539784 116.41412405296516 L 351.5873650539784 129.252542160403 M 351.5873650539784 141.59636134349785 L 351.5873650539784 144.28114705246992 M 378.2766893242703 102.58197511280962 L 378.2766893242703 116.8015682714487 M 378.2766893242703 118.0914540609014 L 378.2766893242703 124.9355044513651 M 387.1731307477009 108.78649700614034 L 387.1731307477009 118.09132814467827 M 387.1731307477009 135.941967428898 L 387.1731307477009 144.74439283726065 M 413.86245501799283 38.974765431927096 L 413.86245501799283 51.29944534911053 M 413.86245501799283 57.95059208578252 L 413.86245501799283 64.98792387870722 M 422.7588964414235 55.32977181814607 L 422.7588964414235 57.95046616955949 M 422.7588964414235 76.06968475765478 L 422.7588964414235 83.89814818032673 M 431.65533786485406 75.14671884232011 L 431.65533786485406 76.06968475765478 M 431.65533786485406 117.6892776443149 L 431.65533786485406 125.22737825651458 M 449.44822071171535 110.82419924459326 L 449.44822071171535 114.55006028616926 M 449.44822071171535 126.85408994276402 L 449.44822071171535 131.03753053909116 M 458.34466213514594 112.66635358856952 L 458.34466213514594 126.85421585898706 M 458.34466213514594 132.3038699948238 L 458.34466213514594 142.79269137918607 M 485.0339864054379 81.28727529431532 L 485.0339864054379 82.52037286714918 M 485.0339864054379 114.24748360205615 L 485.0339864054379 125.35669421763988 M 493.93042782886846 103.99462921978626 L 493.93042782886846 114.24735768583302 M 493.93042782886846 122.96630063827939 L 493.93042782886846 129.33728377855044 M 511.7233106757297 115.65774530079393 L 511.7233106757297 121.98692425499526 M 511.7233106757297 134.9564211506819 L 511.7233106757297 137.4600134146107 M 529.5161935225909 108.38469833822313 L 529.5161935225909 111.10751074657183 M 529.5161935225909 116.03133873473632 L 529.5161935225909 130.91463630534398 M 547.3090763694522 88.34878300207542 L 547.3090763694522 92.9423327370444 M 547.3090763694522 95.41167578828964 L 547.3090763694522 100.673714751705 M 573.998400639744 78.05588726085921 L 573.998400639744 79.25372829122468 M 573.998400639744 91.07751347290991 L 573.998400639744 95.49855798222977 M 582.8948420631747 87.52529090299102 L 582.8948420631747 91.07751347290991 M 582.8948420631747 94.34957244642777 L 582.8948420631747 101.07740216296868 M 662.9628148740503 10.011263961653697 L 662.9628148740503 13.353458271439138 M 662.9628148740503 17.97206533480542 L 662.9628148740503 25.811231636440937 M 671.8592562974809 11.27319634957783 L 671.8592562974809 17.97206533480542 M 671.8592562974809 37.58540582622422 L 671.8592562974809 41.49308989395885 M 689.6521391443422 16.14615418360927 L 689.6521391443422 27.85019303712494 M 689.6521391443422 33.799608662451845 L 689.6521391443422 36.20460852369217 M 716.3414634146341 16.309845273641315 L 716.3414634146341 24.110355294784682 M 716.3414634146341 37.74645267557105 L 716.3414634146341 39.556372466433345 M 725.2379048380647 37.62569901761671 L 725.2379048380647 37.74657859179419 M 725.2379048380647 67.04816512109534 L 725.2379048380647 67.67107267677889 M 743.0307876849259 56.9729785296218 L 743.0307876849259 63.60146034613564 M 743.0307876849259 78.61306654808374 L 743.0307876849259 80.43721487215647 M 760.8236705317872 64.02831634244995 L 760.8236705317872 72.2927017294996 M 760.8236705317872 79.78610208249816 L 760.8236705317872 83.44837543140784 M 769.7201119552178 76.56440959822095 L 769.7201119552178 79.78610208249816 M 769.7201119552178 112.88192216251947 L 769.7201119552178 117.0428237549114 M 796.4094362255097 88.08209244154625 L 796.4094362255097 92.51711365163038 M 796.4094362255097 107.69505518429577 L 796.4094362255097 112.6113281990741 M 814.202319072371 98.03765862107329 L 814.202319072371 100.02020955380775 M 814.202319072371 102.20095262170418 L 814.202319072371 107.0759251153052 M 823.0987604958016 99.46907424529215 L 823.0987604958016 102.2010785379273 M 823.0987604958016 111.02251729597826 L 823.0987604958016 112.68398185980377 M 849.7880847660936 79.28054844674529 L 849.7880847660936 88.1678413894784 M 849.7880847660936 89.86771040134984 L 849.7880847660936 96.64439561245422 M 858.6845261895241 69.49685791175193 L 858.6845261895241 89.86771040134984 M 858.6845261895241 100.92542128168506 L 858.6845261895241 110.10483986201393 M 867.5809676129546 96.9584306728696 L 867.5809676129546 100.92542128168506 M 867.5809676129546 110.63142150702475 L 867.5809676129546 117.33243106804505 M 876.4774090363853 107.22135835298756 L 876.4774090363853 110.63129559080163 M 876.4774090363853 114.00068780477706 L 876.4774090363853 115.9725358585479 M 885.3738504598159 107.72502324539391 L 885.3738504598159 114.00056188855393 M 885.3738504598159 114.42124798993638 L 885.3738504598159 115.1341856451375" style="stroke-width: 1px;"></path><path class="candle wick equal" style="stroke-width: 1px;"></path></g></g><g class="x axis" transform="translate(0,200)" fill="none" font-size="10" font-family="sans-serif" text-anchor="middle"><path class="domain" stroke="#000" d="M0.5,6V0.5H890.5V6"></path><g class="tick" opacity="1" transform="translate(22.41903238704518,0)"><line stroke="#000" y2="6" x1="0.5" x2="0.5"></line><text fill="#000" y="9" x="0.5" dy="0.71em">Jan 17</text></g><g class="tick" opacity="1" transform="translate(84.69412235105956,0)"><line stroke="#000" y2="6" x1="0.5" x2="0.5"></line><text fill="#000" y="9" x="0.5" dy="0.71em">Jan 24</text></g><g class="tick" opacity="1" transform="translate(146.96921231507397,0)"><line stroke="#000" y2="6" x1="0.5" x2="0.5"></line><text fill="#000" y="9" x="0.5" dy="0.71em">Jan 31</text></g><g class="tick" opacity="1" transform="translate(209.24430227908834,0)"><line stroke="#000" y2="6" x1="0.5" x2="0.5"></line><text fill="#000" y="9" x="0.5" dy="0.71em">Feb  7</text></g><g class="tick" opacity="1" transform="translate(271.51939224310274,0)"><line stroke="#000" y2="6" x1="0.5" x2="0.5"></line><text fill="#000" y="9" x="0.5" dy="0.71em">Feb 14</text></g><g class="tick" opacity="1" transform="translate(333.7944822071172,0)"><line stroke="#000" y2="6" x1="0.5" x2="0.5"></line><text fill="#000" y="9" x="0.5" dy="0.71em">Feb 21</text></g><g class="tick" opacity="1" transform="translate(396.06957217113154,0)"><line stroke="#000" y2="6" x1="0.5" x2="0.5"></line><text fill="#000" y="9" x="0.5" dy="0.71em">Feb 28</text></g><g class="tick" opacity="1" transform="translate(458.34466213514594,0)"><line stroke="#000" y2="6" x1="0.5" x2="0.5"></line><text fill="#000" y="9" x="0.5" dy="0.71em">Mar  7</text></g><g class="tick" opacity="1" transform="translate(520.6197520991603,0)"><line stroke="#000" y2="6" x1="0.5" x2="0.5"></line><text fill="#000" y="9" x="0.5" dy="0.71em">Mar 14</text></g><g class="tick" opacity="1" transform="translate(582.8948420631747,0)"><line stroke="#000" y2="6" x1="0.5" x2="0.5"></line><text fill="#000" y="9" x="0.5" dy="0.71em">Mar 21</text></g><g class="tick" opacity="1" transform="translate(645.169932027189,0)"><line stroke="#000" y2="6" x1="0.5" x2="0.5"></line><text fill="#000" y="9" x="0.5" dy="0.71em">Mar 28</text></g><g class="tick" opacity="1" transform="translate(707.4450219912034,0)"><line stroke="#000" y2="6" x1="0.5" x2="0.5"></line><text fill="#000" y="9" x="0.5" dy="0.71em">Apr  4</text></g><g class="tick" opacity="1" transform="translate(769.7201119552178,0)"><line stroke="#000" y2="6" x1="0.5" x2="0.5"></line><text fill="#000" y="9" x="0.5" dy="0.71em">Apr 11</text></g><g class="tick" opacity="1" transform="translate(831.9952019192323,0)"><line stroke="#000" y2="6" x1="0.5" x2="0.5"></line><text fill="#000" y="9" x="0.5" dy="0.71em">Apr 18</text></g></g><g class="y axis" fill="none" font-size="10" font-family="sans-serif" text-anchor="end"><path class="domain" stroke="#000" d="M-6,200.5H0.5V0.5H-6"></path><g class="tick" opacity="1" transform="translate(0,182.51925976773694)"><line stroke="#000" x2="-6" y1="0.5" y2="0.5"></line><text fill="#000" x="-9" y="0.5" dy="0.32em">34,000</text></g><g class="tick" opacity="1" transform="translate(0,157.33601514741943)"><line stroke="#000" x2="-6" y1="0.5" y2="0.5"></line><text fill="#000" x="-9" y="0.5" dy="0.32em">36,000</text></g><g class="tick" opacity="1" transform="translate(0,132.1527705271019)"><line stroke="#000" x2="-6" y1="0.5" y2="0.5"></line><text fill="#000" x="-9" y="0.5" dy="0.32em">38,000</text></g><g class="tick" opacity="1" transform="translate(0,106.96952590678438)"><line stroke="#000" x2="-6" y1="0.5" y2="0.5"></line><text fill="#000" x="-9" y="0.5" dy="0.32em">40,000</text></g><g class="tick" opacity="1" transform="translate(0,81.78628128646687)"><line stroke="#000" x2="-6" y1="0.5" y2="0.5"></line><text fill="#000" x="-9" y="0.5" dy="0.32em">42,000</text></g><g class="tick" opacity="1" transform="translate(0,56.603036666149364)"><line stroke="#000" x2="-6" y1="0.5" y2="0.5"></line><text fill="#000" x="-9" y="0.5" dy="0.32em">44,000</text></g><g class="tick" opacity="1" transform="translate(0,31.419792045831826)"><line stroke="#000" x2="-6" y1="0.5" y2="0.5"></line><text fill="#000" x="-9" y="0.5" dy="0.32em">46,000</text></g><g class="tick" opacity="1" transform="translate(0,6.236547425514317)"><line stroke="#000" x2="-6" y1="0.5" y2="0.5"></line><text fill="#000" x="-9" y="0.5" dy="0.32em">48,000</text></g><text transform="rotate(-90)" y="6" dy=".71em" style="text-anchor: end;">Price ($)</text></g></g></svg>