<?xml version="1.0" encoding="utf-8"?>
<!DOCTYPE svg PUBLIC "-//W3C//DTD SVG 1.1//EN" "http://www.w3.org/Graphics/SVG/1.1/DTD/svg11.dtd">
<svg version="1.1" xmlns="http://www.w3.org/2000/svg" width="960" height="250"><g transform="translate(50,20)"><style>.axis path,.axis line{fill:none;stroke:#000;shape-rendering:crispEdges;}path.candle{stroke:#000000;}path.candle.body{stroke-width:0;}path.candle.up{fill:#00AA00;stroke:#00AA00;}path.candle.down{fill:#FF0000;stroke:#FF0000;}</style><g class="candlestick"><g class="data"><path class="candle body up" d="M 27.75689724110356 61.08991487740346 l 7.1171531387445 0 L 34.87405037984806 45.833004614330406 l -7.1171531387445 0 L 27.75689724110356 61.08991487740346 M 45.54978008796481 53.75343739839931 l 7.1171531387445 0 L 52.66693322670931 48.88500577896852 l -7.1171531387445 0 L 45.54978008796481 53.75343739839931 M 54.446221511395436 48.88500577896852 l 7.1171531387445 0 L 61.563374650139934 34.8309417330679 l -7.1171531387445 0 L 54.446221511395436 48.88500577896852 M 72.23910435825668 49.395109864081945 l 7.1171531387445 0 L 79.35625749700118 31.645831483367658 l -7.1171531387445 0 L 72.23910435825668 49.395109864081945 M 90.03198720511796 32.10928105527822 l 7.1171531387445 0 L 97.14914034386246 21.703997942425417 l -7.1171531387445 0 L 90.03198720511796 32.10928105527822 M 98.92842862854857 21.7477780069475 l 7.1171531387445 0 L 106.04558176729307 20.87040782500992 l -7.1171531387445 0 L 98.92842862854857 21.7477780069475 M 161.20351859256294 100.62508203234313 l 7.1171531387445 0 L 168.32067173130744 93.86614762673136 l -7.1171531387445 0 L 161.20351859256294 100.62508203234313 M 170.09996001599356 93.86614762673136 l 7.1171531387445 0 L 177.21711315473806 85.56252872237565 l -7.1171531387445 0 L 170.09996001599356 93.86614762673136 M 187.89284286285485 88.1022146875306 l 7.1171531387445 0 L 195.00999600159935 85.26380717101539 l -7.1171531387445 0 L 187.89284286285485 88.1022146875306 M 205.68572570971608 88.825249086456 l 7.1171531387445 0 L 212.80287884846058 84.60224175157049 l -7.1171531387445 0 L 205.68572570971608 88.825249086456 M 241.2714914034386 128.90037037050138 l 7.1171531387445 0 L 248.3886445421831 112.75658213370062 l -7.1171531387445 0 L 241.2714914034386 128.90037037050138 M 259.06437425029986 123.20851975975626 l 7.1171531387445 0 L 266.1815273890444 117.96839981476167 l -7.1171531387445 0 L 259.06437425029986 123.20851975975626 M 267.9608156737305 118.00333542180458 l 7.1171531387445 0 L 275.07796881247504 116.16766827199467 l -7.1171531387445 0 L 267.9608156737305 118.00333542180458 M 294.65013994402244 122.7791213491406 l 7.1171531387445 0 L 301.76729308276697 119.06776587942741 l -7.1171531387445 0 L 294.65013994402244 122.7791213491406 M 321.3394642143143 145.81539529948924 l 7.1171531387445 0 L 328.45661735305885 134.710515600031 l -7.1171531387445 0 L 321.3394642143143 145.81539529948924 M 330.23590563774496 134.71029448859406 l 7.1171531387445 0 L 337.3530587764895 134.1150625002432 l -7.1171531387445 0 L 330.23590563774496 134.71029448859406 M 339.13234706117555 134.0980369195957 l 7.1171531387445 0 L 346.2495001999201 89.00081156741828 l -7.1171531387445 0 L 339.13234706117555 134.0980369195957 M 348.02878848460614 88.9674237404343 l 7.1171531387445 0 L 355.14594162335067 82.62771661933704 l -7.1171531387445 0 L 348.02878848460614 88.9674237404343 M 356.9252299080368 82.6527022117158 l 7.1171531387445 0 L 364.0423830467813 78.68021413492895 l -7.1171531387445 0 L 356.9252299080368 82.6527022117158 M 365.8216713314674 78.68021413492895 l 7.1171531387445 0 L 372.93882447021196 66.10184781943437 l -7.1171531387445 0 L 365.8216713314674 78.68021413492895 M 383.61455417832866 115.23546245368601 l 7.1171531387445 0 L 390.7317073170732 114.06158183475796 l -7.1171531387445 0 L 383.61455417832866 115.23546245368601 M 401.40743702518995 125.6661733817915 l 7.1171531387445 0 L 408.5245901639345 123.42366118793801 l -7.1171531387445 0 L 401.40743702518995 125.6661733817915 M 410.3038784486206 123.42366118793801 l 7.1171531387445 0 L 417.4210315873651 116.56213107556742 l -7.1171531387445 0 L 410.3038784486206 123.42366118793801 M 428.0967612954818 131.95524598382028 l 7.1171531387445 0 L 435.21391443422635 129.31141653184764 l -7.1171531387445 0 L 428.0967612954818 131.95524598382028 M 454.7860855657737 153.0954893620634 l 7.1171531387445 0 L 461.90323870451823 132.305044277123 l -7.1171531387445 0 L 454.7860855657737 153.0954893620634 M 490.3718512594962 145.40589691820182 l 7.1171531387445 0 L 497.48900439824075 136.14818216327646 l -7.1171531387445 0 L 490.3718512594962 145.40589691820182 M 508.16473410635746 139.45866259774454 l 7.1171531387445 0 L 515.281887245102 132.05762057914217 l -7.1171531387445 0 L 508.16473410635746 139.45866259774454 M 517.0611755297881 132.05762057914217 l 7.1171531387445 0 L 524.1783286685326 128.1065803117424 l -7.1171531387445 0 L 517.0611755297881 132.05762057914217 M 552.6469412235106 139.90884548343624 l 7.1171531387445 0 L 559.764094362255 127.27586464300758 l -7.1171531387445 0 L 552.6469412235106 139.90884548343624 M 561.5433826469413 127.27586464300758 l 7.1171531387445 0 L 568.6605357856857 111.60481265847056 l -7.1171531387445 0 L 561.5433826469413 127.27586464300758 M 606.0255897640943 131.97580934745946 l 7.1171531387445 0 L 613.1427429028388 131.47830861425393 l -7.1171531387445 0 L 606.0255897640943 131.97580934745946 M 632.7149140343862 139.85887429867873 l 7.1171531387445 0 L 639.8320671731307 137.7465967412066 l -7.1171531387445 0 L 632.7149140343862 139.85887429867873 M 641.6113554578168 137.75610453299674 l 7.1171531387445 0 L 648.7285085965613 132.89098958512062 l -7.1171531387445 0 L 641.6113554578168 137.75610453299674 M 668.3006797281087 139.6731406916153 l 7.1171531387445 0 L 675.4178328668531 135.37075435085399 l -7.1171531387445 0 L 668.3006797281087 139.6731406916153 M 677.1971211515394 135.37075435085399 l 7.1171531387445 0 L 684.3142742902838 129.027509446765 l -7.1171531387445 0 L 677.1971211515394 135.37075435085399 M 712.7828868452618 140.25864377673904 l 7.1171531387445 0 L 719.9000399840063 137.55113423091606 l -7.1171531387445 0 L 712.7828868452618 140.25864377673904 M 721.6793282686924 137.55113423091606 l 7.1171531387445 0 L 728.7964814074369 136.6671307058691 l -7.1171531387445 0 L 721.6793282686924 137.55113423091606 M 730.5757696921231 136.6684573744909 l 7.1171531387445 0 L 737.6929228308676 128.5733465552076 l -7.1171531387445 0 L 730.5757696921231 136.6684573744909 M 748.3686525389844 133.87559881399366 l 7.1171531387445 0 L 755.4858056777289 117.30395994663608 l -7.1171531387445 0 L 748.3686525389844 133.87559881399366 M 757.265093962415 117.327176647519 l 7.1171531387445 0 L 764.3822471011595 102.01366185657898 l -7.1171531387445 0 L 757.265093962415 117.327176647519 M 775.0579768092763 112.54917960581312 l 7.1171531387445 0 L 782.1751299480208 105.98813993629868 l -7.1171531387445 0 L 775.0579768092763 112.54917960581312 M 783.9544182327068 105.98813993629868 l 7.1171531387445 0 L 791.0715713714512 101.1716695045583 l -7.1171531387445 0 L 783.9544182327068 105.98813993629868 M 828.43662534986 115.71704316342894 l 7.1171531387445 0 L 835.5537784886045 114.4792613392136 l -7.1171531387445 0 L 828.43662534986 115.71704316342894 M 837.3330667732906 114.49473913980223 l 7.1171531387445 0 L 844.4502199120351 93.67930846248305 l -7.1171531387445 0 L 837.3330667732906 114.49473913980223 M 846.2295081967213 93.67930846248305 l 7.1171531387445 0 L 853.3466613354658 90.34384243563625 l -7.1171531387445 0 L 846.2295081967213 93.67930846248305"></path><path class="candle body down" d="M 1.0675729708116766 46.839503875464345 l 7.1171531387445 0 L 8.184726109556177 53.010945193019666 l -7.1171531387445 0 L 1.0675729708116766 46.839503875464345 M 9.964014394242305 53.052071920298005 l 7.1171531387445 0 L 17.081167532986804 56.75701515833882 l -7.1171531387445 0 L 9.964014394242305 53.052071920298005 M 18.860455817672932 56.7892974281379 l 7.1171531387445 0 L 25.977608956417434 61.07731152549559 l -7.1171531387445 0 L 18.860455817672932 56.7892974281379 M 36.65333866453418 45.80779791051458 l 7.1171531387445 0 L 43.77049180327868 53.75343739839931 l -7.1171531387445 0 L 36.65333866453418 45.80779791051458 M 63.342662934826066 34.809272812243876 l 7.1171531387445 0 L 70.45981607357056 49.425402130948186 l -7.1171531387445 0 L 63.342662934826066 34.809272812243876 M 81.13554578168731 31.645831483367658 l 7.1171531387445 0 L 88.25269892043181 32.08053656847082 l -7.1171531387445 0 L 81.13554578168731 31.645831483367658 M 107.82487005197919 20.83326110359721 l 7.1171531387445 0 L 114.94202319072369 23.880618928058794 l -7.1171531387445 0 L 107.82487005197919 20.83326110359721 M 116.72131147540982 23.880397816621866 l 7.1171531387445 0 L 123.83846461415432 28.53324578499692 l -7.1171531387445 0 L 116.72131147540982 23.880397816621866 M 125.61775289884046 28.572603620779347 l 7.1171531387445 0 L 132.73490603758498 33.841689164018305 l -7.1171531387445 0 L 125.61775289884046 28.572603620779347 M 134.51419432227107 33.810512451404094 l 7.1171531387445 0 L 141.63134746101557 45.16436362890212 l -7.1171531387445 0 L 134.51419432227107 33.810512451404094 M 143.4106357457017 45.16436362890212 l 7.1171531387445 0 L 150.5277888844462 48.51331745340474 l -7.1171531387445 0 L 143.4106357457017 45.16436362890212 M 152.30707716913233 48.50778966748021 l 7.1171531387445 0 L 159.42423030787683 100.62508203234313 l -7.1171531387445 0 L 152.30707716913233 48.50778966748021 M 178.9964014394242 85.53842757574479 l 7.1171531387445 0 L 186.1135545781687 88.12255693973276 l -7.1171531387445 0 L 178.9964014394242 85.53842757574479 M 196.78928428628546 85.26402828245234 l 7.1171531387445 0 L 203.90643742502996 88.824585752145 l -7.1171531387445 0 L 196.78928428628546 85.26402828245234 M 214.5821671331467 84.60224175157049 l 7.1171531387445 0 L 221.6993202718912 113.7445080341283 l -7.1171531387445 0 L 214.5821671331467 84.60224175157049 M 223.47860855657734 113.78674031859151 l 7.1171531387445 0 L 230.59576169532184 118.24302021949116 l -7.1171531387445 0 L 223.47860855657734 113.78674031859151 M 232.37504998000796 118.24302021949116 l 7.1171531387445 0 L 239.49220311875246 128.90037037050138 l -7.1171531387445 0 L 232.37504998000796 118.24302021949116 M 250.16793282686922 112.72407875246448 l 7.1171531387445 0 L 257.28508596561375 123.23881202662253 l -7.1171531387445 0 L 250.16793282686922 112.72407875246448 M 276.85725709716115 116.141577122431 l 7.1171531387445 0 L 283.9744102359057 120.13882968015963 l -7.1171531387445 0 L 276.85725709716115 116.141577122431 M 285.7536985205918 120.15828748661392 l 7.1171531387445 0 L 292.8708516593363 122.7912824781745 l -7.1171531387445 0 L 285.7536985205918 120.15828748661392 M 303.54658136745303 119.06776587942741 l 7.1171531387445 0 L 310.66373450619756 123.56649917622721 l -7.1171531387445 0 L 303.54658136745303 119.06776587942741 M 312.4430227908837 123.59966589177425 l 7.1171531387445 0 L 319.5601759296282 145.81539529948924 l -7.1171531387445 0 L 312.4430227908837 123.59966589177425 M 374.7181127548981 66.10848116254382 l 7.1171531387445 0 L 381.8352658936426 115.2365680108709 l -7.1171531387445 0 L 374.7181127548981 66.10848116254382 M 392.5109956017593 114.05141070865689 l 7.1171531387445 0 L 399.62814874050383 125.6661733817915 l -7.1171531387445 0 L 392.5109956017593 114.05141070865689 M 419.20031987205124 116.58446333070238 l 7.1171531387445 0 L 426.31747301079577 131.98332713631677 l -7.1171531387445 0 L 419.20031987205124 116.58446333070238 M 436.99320271891247 129.31141653184764 l 7.1171531387445 0 L 444.110355857657 143.94943588281305 l -7.1171531387445 0 L 436.99320271891247 129.31141653184764 M 445.8896441423431 143.96469257196466 l 7.1171531387445 0 L 453.00679728108764 153.0954893620634 l -7.1171531387445 0 L 445.8896441423431 143.96469257196466 M 463.68252698920435 132.305044277123 l 7.1171531387445 0 L 470.7996801279489 134.7753012510662 l -7.1171531387445 0 L 463.68252698920435 132.305044277123 M 472.57896841263494 134.80493018362154 l 7.1171531387445 0 L 479.69612155137946 142.943378844553 l -7.1171531387445 0 L 472.57896841263494 134.80493018362154 M 481.47540983606564 142.9104332404429 l 7.1171531387445 0 L 488.59256297481016 145.44459141967337 l -7.1171531387445 0 L 481.47540983606564 142.9104332404429 M 499.2682926829268 136.1733888670922 l 7.1171531387445 0 L 506.38544582167134 139.43588811973552 l -7.1171531387445 0 L 499.2682926829268 136.1733888670922 M 525.9576169532187 128.12802812112943 l 7.1171531387445 0 L 533.0747700919632 131.8411524823385 l -7.1171531387445 0 L 525.9576169532187 128.12802812112943 M 534.8540583766493 131.8411524823385 l 7.1171531387445 0 L 541.9712115153937 134.31008278765978 l -7.1171531387445 0 L 534.8540583766493 131.8411524823385 M 543.75049980008 134.2815594122893 l 7.1171531387445 0 L 550.8676529388244 139.9296299585124 l -7.1171531387445 0 L 543.75049980008 134.2815594122893 M 570.4398240703717 111.60481265847056 l 7.1171531387445 0 L 577.5569772091162 115.57508962088767 l -7.1171531387445 0 L 570.4398240703717 111.60481265847056 M 579.3362654938024 115.57508962088767 l 7.1171531387445 0 L 586.4534186325469 119.9440305041801 l -7.1171531387445 0 L 579.3362654938024 115.57508962088767 M 588.232706917233 119.9440305041801 l 7.1171531387445 0 L 595.3498600559775 129.46464675767493 l -7.1171531387445 0 L 588.232706917233 119.9440305041801 M 597.1291483406637 129.46464675767493 l 7.1171531387445 0 L 604.2463014794082 131.94396930053432 l -7.1171531387445 0 L 597.1291483406637 129.46464675767493 M 614.9220311875249 131.4575241391778 l 7.1171531387445 0 L 622.0391843262694 138.26974640110183 l -7.1171531387445 0 L 614.9220311875249 131.4575241391778 M 623.8184726109555 138.26974640110183 l 7.1171531387445 0 L 630.9356257497 139.85887429867873 l -7.1171531387445 0 L 623.8184726109555 138.26974640110183 M 650.5077968812475 132.8810395704565 l 7.1171531387445 0 L 657.624950019992 137.27341826606886 l -7.1171531387445 0 L 650.5077968812475 132.8810395704565 M 659.4042383046781 137.27341826606886 l 7.1171531387445 0 L 666.5213914434225 139.6512506593543 l -7.1171531387445 0 L 659.4042383046781 137.27341826606886 M 686.09356257497 129.0580228250683 l 7.1171531387445 0 L 693.2107157137144 133.9454700280794 l -7.1171531387445 0 L 686.09356257497 129.0580228250683 M 694.9900039984005 133.9454700280794 l 7.1171531387445 0 L 702.107157137145 138.44442443631615 l -7.1171531387445 0 L 694.9900039984005 133.9454700280794 M 703.8864454218311 138.45813334540898 l 7.1171531387445 0 L 711.0035985605756 140.25864377673904 l -7.1171531387445 0 L 703.8864454218311 138.45813334540898 M 739.4722111155537 128.5733465552076 l 7.1171531387445 0 L 746.5893642542982 133.89505662044786 l -7.1171531387445 0 L 739.4722111155537 128.5733465552076 M 766.1615353858456 102.013219633705 l 7.1171531387445 0 L 773.27868852459 112.54917960581312 l -7.1171531387445 0 L 766.1615353858456 102.013219633705 M 792.8508596561375 101.17144839312127 l 7.1171531387445 0 L 799.9680127948819 105.20009877490114 l -7.1171531387445 0 L 792.8508596561375 101.17144839312127 M 801.747301079568 105.20009877490114 l 7.1171531387445 0 L 808.8644542183125 108.2235765641688 l -7.1171531387445 0 L 801.747301079568 105.20009877490114 M 810.6437425029987 108.2235765641688 l 7.1171531387445 0 L 817.7608956417432 108.3810079072988 l -7.1171531387445 0 L 810.6437425029987 108.2235765641688 M 819.5401839264293 108.39891793369412 l 7.1171531387445 0 L 826.6573370651738 115.71704316342894 l -7.1171531387445 0 L 819.5401839264293 108.39891793369412 M 855.1259496201519 90.34384243563625 l 7.1171531387445 0 L 862.2431027588964 99.05098971248078 l -7.1171531387445 0 L 855.1259496201519 90.34384243563625 M 864.0223910435824 99.05098971248078 l 7.1171531387445 0 L 871.1395441823269 106.00383884832425 l -7.1171531387445 0 L 864.0223910435824 99.05098971248078 M 872.9188324670131 106.0140099744254 l 7.1171531387445 0 L 880.0359856057576 151.19680545271416 l -7.1171531387445 0 L 872.9188324670131 106.0140099744254 M 881.8152738904437 151.23771106855548 l 7.1171531387445 0 L 888.9324270291881 195.4555762358625 l -7.1171531387445 0 L 881.8152738904437 151.23771106855548"></path><path class="candle body equal"></path><path class="candle wick up" d="M 31.315473810475808 42.285492719419494 L 31.315473810475808 45.833004614330406 M 31.315473810475808 61.08991487740346 L 31.315473810475808 61.87397603293533 M 49.10835665733706 43.85228836186144 L 49.10835665733706 48.88500577896852 M 49.10835665733706 53.75343739839931 L 49.10835665733706 56.17659763626571 M 58.004798080767685 25.21259422442776 L 58.004798080767685 34.8309417330679 M 58.004798080767685 48.88500577896852 L 58.004798080767685 49.33032421304671 M 75.79768092762893 25.63270595469021 L 75.79768092762893 31.645831483367658 M 75.79768092762893 49.395109864081945 L 75.79768092762893 60.155055721851056 M 93.5905637744902 20.536087332295807 L 93.5905637744902 21.703997942425417 M 93.5905637744902 32.10928105527822 L 93.5905637744902 39.8501713525192 M 102.48700519792082 10.995128826598773 L 102.48700519792082 20.87040782500992 M 102.48700519792082 21.7477780069475 L 102.48700519792082 24.19061716270511 M 164.7620951619352 88.49800415972527 L 164.7620951619352 93.86614762673136 M 164.7620951619352 100.62508203234313 L 164.7620951619352 102.2279188390128 M 173.65853658536582 79.27434056609482 L 173.65853658536582 85.56252872237565 M 173.65853658536582 93.86614762673136 L 173.65853658536582 95.43515438354306 M 191.4514194322271 81.81999654004825 L 191.4514194322271 85.26380717101539 M 191.4514194322271 88.1022146875306 L 191.4514194322271 99.39238577117833 M 209.24430227908834 78.83477102937808 L 209.24430227908834 84.60224175157049 M 209.24430227908834 88.825249086456 L 209.24430227908834 90.1054843065715 M 244.83006797281087 109.48656509219995 L 244.83006797281087 112.75658213370062 M 244.83006797281087 128.90037037050138 L 244.83006797281087 129.00694608312585 M 262.6229508196721 108.23993881050538 L 262.6229508196721 117.96839981476167 M 262.6229508196721 123.20851975975626 L 262.6229508196721 123.54217691815943 M 271.51939224310274 114.46710021017971 L 271.51939224310274 116.16766827199467 M 271.51939224310274 118.00333542180458 L 271.51939224310274 128.67815337633624 M 298.2087165133947 118.42809049224358 L 298.2087165133947 119.06776587942741 M 298.2087165133947 122.7791213491406 L 298.2087165133947 128.29253503024276 M 324.89804078368655 130.9246455760554 L 324.89804078368655 134.710515600031 M 324.89804078368655 145.81539529948924 L 324.89804078368655 152.0029777519441 M 333.7944822071172 131.05311132094096 L 333.7944822071172 134.1150625002432 M 333.7944822071172 134.71029448859406 L 333.7944822071172 140.92020919618386 M 342.6909236305478 83.75803828517996 L 342.6909236305478 89.00081156741828 M 342.6909236305478 134.0980369195957 L 342.6909236305478 134.73461674666183 M 351.5873650539784 79.03554021415617 L 351.5873650539784 82.62771661933704 M 351.5873650539784 88.9674237404343 L 351.5873650539784 94.5060441253521 M 360.483806477409 77.94767194421341 L 360.483806477409 78.68021413492895 M 360.483806477409 82.6527022117158 L 360.483806477409 89.2243552302053 M 369.38024790083966 64.06187370185478 L 369.38024790083966 66.10184781943437 M 369.38024790083966 78.68021413492895 L 369.38024790083966 85.05618353169095 M 387.1731307477009 107.10165713293114 L 387.1731307477009 114.06158183475796 M 387.1731307477009 115.23546245368601 L 387.1731307477009 127.52925834978699 M 404.9660135945622 121.50662502931937 L 404.9660135945622 123.42366118793801 M 404.9660135945622 125.6661733817915 L 404.9660135945622 134.1097558257557 M 413.86245501799283 114.8953930636104 L 413.86245501799283 116.56213107556742 M 413.86245501799283 123.42366118793801 L 413.86245501799283 124.6446385429428 M 431.65533786485406 126.0128761149765 L 431.65533786485406 129.31141653184764 M 431.65533786485406 131.95524598382028 L 431.65533786485406 158.15451904017112 M 458.34466213514594 129.02065499221868 L 458.34466213514594 132.305044277123 M 458.34466213514594 153.0954893620634 L 458.34466213514594 155.41649611604495 M 493.93042782886846 134.13297252663864 L 493.93042782886846 136.14818216327646 M 493.93042782886846 145.40589691820182 L 493.93042782886846 148.24518888046498 M 511.7233106757297 123.71773939912171 L 511.7233106757297 132.05762057914217 M 511.7233106757297 139.45866259774454 L 511.7233106757297 152.87614681657905 M 520.6197520991603 126.9123574406121 L 520.6197520991603 128.1065803117424 M 520.6197520991603 132.05762057914217 L 520.6197520991603 144.65677136971286 M 556.2055177928828 125.28541948731159 L 556.2055177928828 127.27586464300758 M 556.2055177928828 139.90884548343624 L 556.2055177928828 142.07706423446444 M 565.1019592163135 108.57160596597572 L 565.1019592163135 111.60481265847056 M 565.1019592163135 127.27586464300758 L 565.1019592163135 130.33781582230992 M 609.5841663334666 128.8475247370631 L 609.5841663334666 131.47830861425393 M 609.5841663334666 131.97580934745946 L 609.5841663334666 134.19753706623683 M 636.2734906037584 135.91623626588415 L 636.2734906037584 137.7465967412066 M 636.2734906037584 139.85887429867873 L 636.2734906037584 141.93997514353669 M 645.169932027189 129.8250583999527 L 645.169932027189 132.89098958512062 M 645.169932027189 137.75610453299674 L 645.169932027189 159.09556931595904 M 671.8592562974809 131.76973348819388 L 671.8592562974809 135.37075435085399 M 671.8592562974809 139.6731406916153 L 671.8592562974809 139.7761786212481 M 680.7556977209116 126.21718308274627 L 680.7556977209116 129.027509446765 M 680.7556977209116 135.37075435085399 L 680.7556977209116 137.8239857441497 M 716.3414634146341 135.6577569960543 L 716.3414634146341 137.55113423091606 M 716.3414634146341 140.25864377673904 L 716.3414634146341 148.9244432148683 M 725.2379048380647 135.50297899016815 L 725.2379048380647 136.6671307058691 M 725.2379048380647 137.55113423091606 L 725.2379048380647 138.69317480291892 M 734.1343462614954 125.81829805043392 L 734.1343462614954 128.5733465552076 M 734.1343462614954 136.6684573744909 L 734.1343462614954 139.6353306358917 M 751.9272291083566 109.87903789283986 L 751.9272291083566 117.30395994663608 M 751.9272291083566 133.87559881399366 L 751.9272291083566 135.9452018641286 M 760.8236705317872 96.52103265055301 L 760.8236705317872 102.01366185657898 M 760.8236705317872 117.327176647519 L 760.8236705317872 117.95977646871944 M 778.6165533786485 102.4910414490193 L 778.6165533786485 105.98813993629868 M 778.6165533786485 112.54917960581312 L 778.6165533786485 119.07240921960398 M 787.512994802079 95.08380831018148 L 787.512994802079 101.1716695045583 M 787.512994802079 105.98813993629868 L 787.512994802079 106.82460450239493 M 831.9952019192323 110.37764418323027 L 831.9952019192323 114.4792613392136 M 831.9952019192323 115.71704316342894 L 831.9952019192323 118.38364709341052 M 840.8916433426629 90.28458457052555 L 840.8916433426629 93.67930846248305 M 840.8916433426629 114.49473913980223 L 840.8916433426629 115.07316665894251 M 849.7880847660936 86.33553430605853 L 849.7880847660936 90.34384243563625 M 849.7880847660936 93.67930846248305 L 849.7880847660936 95.17999178526786" style="stroke-width: 1px;"></path><path class="candle wick down" d="M 4.626149540183927 42.572274253182854 L 4.626149540183927 46.839503875464345 M 4.626149540183927 53.010945193019666 L 4.626149540183927 60.383242724814636 M 13.522590963614554 38.42002257813104 L 13.522590963614554 53.052071920298005 M 13.522590963614554 56.75701515833882 L 13.522590963614554 59.789558516522646 M 22.41903238704518 47.80310751782423 L 22.41903238704518 56.7892974281379 M 22.41903238704518 61.07731152549559 L 22.41903238704518 66.0076543472808 M 40.21191523390643 44.90566324763526 L 40.21191523390643 45.80779791051458 M 40.21191523390643 53.75343739839931 L 40.21191523390643 54.741584410263954 M 66.90123950419832 32.10574327228653 L 66.90123950419832 34.809272812243876 M 66.90123950419832 49.425402130948186 L 66.90123950419832 55.72597252769995 M 84.69412235105956 10.31985449806109 L 84.69412235105956 31.645831483367658 M 84.69412235105956 32.08053656847082 L 84.69412235105956 33.89939924907017 M 111.38344662135144 7.4670747381421165 L 111.38344662135144 20.83326110359721 M 111.38344662135144 23.880618928058794 L 111.38344662135144 27.445819737928133 M 120.27988804478207 3.846153846153868 L 120.27988804478207 23.880397816621866 M 120.27988804478207 28.53324578499692 L 120.27988804478207 35.64418959828117 M 129.1763294682127 25.157537476619638 L 129.1763294682127 28.572603620779347 M 129.1763294682127 33.841689164018305 L 129.1763294682127 37.89952625547957 M 138.07277089164333 20.752555429099488 L 138.07277089164333 33.810512451404094 M 138.07277089164333 45.16436362890212 L 138.07277089164333 48.752117805343374 M 146.96921231507397 39.4742819096528 L 146.96921231507397 45.16436362890212 M 146.96921231507397 48.51331745340474 L 146.96921231507397 50.285746732238294 M 155.8656537385046 48.12703577300033 L 155.8656537385046 48.50778966748021 M 155.8656537385046 100.62508203234313 L 155.8656537385046 101.74877035507667 M 182.55497800879647 84.83064986597111 L 182.55497800879647 85.53842757574479 M 182.55497800879647 88.12255693973276 L 182.55497800879647 99.3915013254304 M 200.34786085565773 77.06322619629246 L 200.34786085565773 85.26402828245234 M 200.34786085565773 88.824585752145 L 200.34786085565773 93.75713968830009 M 218.14074370251896 77.35575662741732 L 218.14074370251896 84.60224175157049 M 218.14074370251896 113.7445080341283 L 218.14074370251896 116.68860681752005 M 227.0371851259496 110.16515609229226 L 227.0371851259496 113.78674031859151 M 227.0371851259496 118.24302021949116 L 227.0371851259496 123.49662796214147 M 235.93362654938022 115.28941364430916 L 235.93362654938022 118.24302021949116 M 235.93362654938022 128.90037037050138 L 235.93362654938022 129.687748197588 M 253.72650939624148 106.33285266655086 L 253.72650939624148 112.72407875246448 M 253.72650939624148 123.23881202662253 L 253.72650939624148 129.24552532362753 M 280.4158336665334 109.31763595434705 L 280.4158336665334 116.141577122431 M 280.4158336665334 120.13882968015963 L 280.4158336665334 124.48521719688007 M 289.31227508996403 117.83772295550635 L 289.31227508996403 120.15828748661392 M 289.31227508996403 122.7912824781745 L 289.31227508996403 126.75315720598633 M 307.10515793682526 117.808094022951 L 307.10515793682526 119.06776587942741 M 307.10515793682526 123.56649917622721 L 307.10515793682526 127.17083671044198 M 316.0015993602559 115.0943933568926 L 316.0015993602559 123.59966589177425 M 316.0015993602559 145.81539529948924 L 316.0015993602559 148.93527767528036 M 378.2766893242703 57.18530801176951 L 378.2766893242703 66.10848116254382 M 378.2766893242703 115.2365680108709 L 378.2766893242703 122.16995934026006 M 396.06957217113154 111.77241512770154 L 396.06957217113154 114.05141070865689 M 396.06957217113154 125.6661733817915 L 396.06957217113154 130.19630450264253 M 422.7588964414235 116.48164651250661 L 422.7588964414235 116.58446333070238 M 422.7588964414235 131.98332713631677 L 422.7588964414235 133.76460087262956 M 440.5517792882847 127.15336890692059 L 440.5517792882847 129.31141653184764 M 440.5517792882847 143.94943588281305 L 440.5517792882847 147.55642675427163 M 449.44822071171535 120.04728954524984 L 449.44822071171535 143.96469257196466 M 449.44822071171535 153.0954893620634 L 449.44822071171535 160.51112473550648 M 467.2411035585766 130.12997107154848 L 467.2411035585766 132.305044277123 M 467.2411035585766 134.7753012510662 L 467.2411035585766 151.54638263457994 M 476.13754498200717 134.19532595186706 L 476.13754498200717 134.80493018362154 M 476.13754498200717 142.943378844553 L 476.13754498200717 145.48969815281737 M 485.0339864054379 137.20089371473938 L 485.0339864054379 142.9104332404429 M 485.0339864054379 145.44459141967337 L 485.0339864054379 149.38435500378716 M 502.82686925229905 110.5425933152175 L 502.82686925229905 136.1733888670922 M 502.82686925229905 139.43588811973552 L 502.82686925229905 145.24691779501308 M 529.5161935225909 114.98383763840249 L 529.5161935225909 128.12802812112943 M 529.5161935225909 131.8411524823385 L 529.5161935225909 137.75035563563523 M 538.4126349460215 130.48374937071685 L 538.4126349460215 131.8411524823385 M 538.4126349460215 134.31008278765978 L 538.4126349460215 137.6605843922213 M 547.3090763694522 132.43152001907572 L 547.3090763694522 134.2815594122893 M 547.3090763694522 139.9296299585124 L 547.3090763694522 142.94669551610772 M 573.998400639744 110.9905650865395 L 573.998400639744 111.60481265847056 M 573.998400639744 115.57508962088767 L 573.998400639744 125.04440802100311 M 582.8948420631747 108.97845101001938 L 582.8948420631747 115.57508962088767 M 582.8948420631747 119.9440305041801 L 582.8948420631747 122.32473734614622 M 591.7912834866053 117.55271031323883 L 591.7912834866053 119.9440305041801 M 591.7912834866053 129.46464675767493 L 591.7912834866053 134.10997693719267 M 600.687724910036 127.31345358729423 L 600.687724910036 129.46464675767493 M 600.687724910036 131.94396930053432 L 600.687724910036 135.9421063040109 M 618.4806077568971 129.5771924790979 L 618.4806077568971 131.4575241391778 M 618.4806077568971 138.26974640110183 L 618.4806077568971 140.73779226067518 M 627.3770491803277 135.25776640655704 L 627.3770491803277 138.26974640110183 M 627.3770491803277 139.85887429867873 L 627.3770491803277 144.2811030382834 M 654.0663734506197 120.13860856872269 L 654.0663734506197 132.8810395704565 M 654.0663734506197 137.27341826606886 L 654.0663734506197 139.62958173853025 M 662.9628148740503 136.15127772339417 L 662.9628148740503 137.27341826606886 M 662.9628148740503 139.6512506593543 L 662.9628148740503 141.73434150714507 M 689.6521391443422 125.56048211491498 L 689.6521391443422 129.0580228250683 M 689.6521391443422 133.9454700280794 L 689.6521391443422 139.17342884404002 M 698.5485805677728 133.22199340628006 L 698.5485805677728 133.9454700280794 M 698.5485805677728 138.44442443631615 L 698.5485805677728 139.7268707708015 M 707.4450219912034 133.49484491951367 L 707.4450219912034 138.45813334540898 M 707.4450219912034 140.25864377673904 L 707.4450219912034 143.39665729036247 M 743.0307876849259 127.89342888649338 L 743.0307876849259 128.5733465552076 M 743.0307876849259 133.89505662044786 L 743.0307876849259 137.71409335997046 M 769.7201119552178 99.7888385776839 L 769.7201119552178 102.013219633705 M 769.7201119552178 112.54917960581312 L 769.7201119552178 114.65217048293214 M 796.4094362255097 98.48428109950052 L 796.4094362255097 101.17144839312127 M 796.4094362255097 105.20009877490114 L 796.4094362255097 107.68716021805479 M 805.3058776489403 100.37014054550495 L 805.3058776489403 105.20009877490114 M 805.3058776489403 108.2235765641688 L 805.3058776489403 113.81305257959214 M 814.202319072371 103.59659863392046 L 814.202319072371 108.2235765641688 M 814.202319072371 108.3810079072988 L 814.202319072371 111.76135955585254 M 823.0987604958016 101.38548426411815 L 823.0987604958016 108.39891793369412 M 823.0987604958016 115.71704316342894 L 823.0987604958016 118.01217987928374 M 858.6845261895241 88.88671806593649 L 858.6845261895241 90.34384243563625 M 858.6845261895241 99.05098971248078 L 858.6845261895241 99.48105145740737 M 867.5809676129546 95.42056102870238 L 867.5809676129546 99.05098971248078 M 867.5809676129546 106.00383884832425 L 867.5809676129546 110.56404112460461 M 876.4774090363853 103.57714082746618 L 876.4774090363853 106.0140099744254 M 876.4774090363853 151.19680545271416 L 876.4774090363853 181.71902821346552 M 885.3738504598159 150.3006407986333 L 885.3738504598159 151.23771106855548 M 885.3738504598159 195.4555762358625 L 885.3738504598159 196.15384615384613" style="stroke-width: 1px;"></path><path class="candle wick equal" style="stroke-width: 1px;"></path></g></g><g class="x axis" transform="translate(0,200)" fill="none" font-size="10" font-family="sans-serif" text-anchor="middle"><path class="domain" stroke="#000" d="M0.5,6V0.5H890.5V6"></path><g class="tick" opacity="1" transform="translate(58.004798080767685,0)"><line stroke="#000" y2="6" x1="0.5" x2="0.5"></line><text fill="#000" y="9" x="0.5" dy="0.71em">Aug  8</text></g><g class="tick" opacity="1" transform="translate(120.27988804478207,0)"><line stroke="#000" y2="6" x1="0.5" x2="0.5"></line><text fill="#000" y="9" x="0.5" dy="0.71em">Aug 15</text></g><g class="tick" opacity="1" transform="translate(182.55497800879647,0)"><line stroke="#000" y2="6" x1="0.5" x2="0.5"></line><text fill="#000" y="9" x="0.5" dy="0.71em">Aug 22</text></g><g class="tick" opacity="1" transform="translate(244.83006797281087,0)"><line stroke="#000" y2="6" x1="0.5" x2="0.5"></line><text fill="#000" y="9" x="0.5" dy="0.71em">Aug 29</text></g><g class="tick" opacity="1" transform="translate(307.10515793682526,0)"><line stroke="#000" y2="6" x1="0.5" x2="0.5"></line><text fill="#000" y="9" x="0.5" dy="0.71em">Sep  5</text></g><g class="tick" opacity="1" transform="translate(369.38024790083966,0)"><line stroke="#000" y2="6" x1="0.5" x2="0.5"></line><text fill="#000" y="9" x="0.5" dy="0.71em">Sep 12</text></g><g class="tick" opacity="1" transform="translate(431.65533786485406,0)"><line stroke="#000" y2="6" x1="0.5" x2="0.5"></line><text fill="#000" y="9" x="0.5" dy="0.71em">Sep 19</text></g><g class="tick" opacity="1" transform="translate(493.93042782886846,0)"><line stroke="#000" y2="6" x1="0.5" x2="0.5"></line><text fill="#000" y="9" x="0.5" dy="0.71em">Sep 26</text></g><g class="tick" opacity="1" transform="translate(556.2055177928828,0)"><line stroke="#000" y2="6" x1="0.5" x2="0.5"></line><text fill="#000" y="9" x="0.5" dy="0.71em">Oct  3</text></g><g class="tick" opacity="1" transform="translate(618.4806077568971,0)"><line stroke="#000" y2="6" x1="0.5" x2="0.5"></line><text fill="#000" y="9" x="0.5" dy="0.71em">Oct 10</text></g><g class="tick" opacity="1" transform="translate(680.7556977209116,0)"><line stroke="#000" y2="6" x1="0.5" x2="0.5"></line><text fill="#000" y="9" x="0.5" dy="0.71em">Oct 17</text></g><g class="tick" opacity="1" transform="translate(743.0307876849259,0)"><line stroke="#000" y2="6" x1="0.5" x2="0.5"></line><text fill="#000" y="9" x="0.5" dy="0.71em">Oct 24</text></g><g class="tick" opacity="1" transform="translate(805.3058776489403,0)"><line stroke="#000" y2="6" x1="0.5" x2="0.5"></line><text fill="#000" y="9" x="0.5" dy="0.71em">Oct 31</text></g><g class="tick" opacity="1" transform="translate(867.5809676129546,0)"><line stroke="#000" y2="6" x1="0.5" x2="0.5"></line><text fill="#000" y="9" x="0.5" dy="0.71em">Nov  7</text></g></g><g class="y axis" fill="none" font-size="10" font-family="sans-serif" text-anchor="end"><path class="domain" stroke="#000" d="M-6,200.5H0.5V0.5H-6"></path><g class="tick" opacity="1" transform="translate(0,185.4078303166068)"><line stroke="#000" x2="-6" y1="0.5" y2="0.5"></line><text fill="#000" x="-9" y="0.5" dy="0.32em">17,000</text></g><g class="tick" opacity="1" transform="translate(0,163.29668661858346)"><line stroke="#000" x2="-6" y1="0.5" y2="0.5"></line><text fill="#000" x="-9" y="0.5" dy="0.32em">18,000</text></g><g class="tick" opacity="1" transform="translate(0,141.18554292056012)"><line stroke="#000" x2="-6" y1="0.5" y2="0.5"></line><text fill="#000" x="-9" y="0.5" dy="0.32em">19,000</text></g><g class="tick" opacity="1" transform="translate(0,119.07439922253681)"><line stroke="#000" x2="-6" y1="0.5" y2="0.5"></line><text fill="#000" x="-9" y="0.5" dy="0.32em">20,000</text></g><g class="tick" opacity="1" transform="translate(0,96.96325552451349)"><line stroke="#000" x2="-6" y1="0.5" y2="0.5"></line><text fill="#000" x="-9" y="0.5" dy="0.32em">21,000</text></g><g class="tick" opacity="1" transform="translate(0,74.85211182649014)"><line stroke="#000" x2="-6" y1="0.5" y2="0.5"></line><text fill="#000" x="-9" y="0.5" dy="0.32em">22,000</text></g><g class="tick" opacity="1" transform="translate(0,52.74096812846679)"><line stroke="#000" x2="-6" y1="0.5" y2="0.5"></line><text fill="#000" x="-9" y="0.5" dy="0.32em">23,000</text></g><g class="tick" opacity="1" transform="translate(0,30.629824430443477)"><line stroke="#000" x2="-6" y1="0.5" y2="0.5"></line><text fill="#000" x="-9" y="0.5" dy="0.32em">24,000</text></g><g class="tick" opacity="1" transform="translate(0,8.518680732420137)"><line stroke="#000" x2="-6" y1="0.5" y2="0.5"></line><text fill="#000" x="-9" y="0.5" dy="0.32em">25,000</text></g><text transform="rotate(-90)" y="6" dy=".71em" style="text-anchor: end;">Price ($)</text></g></g></svg>