<?xml version="1.0" encoding="utf-8"?>
<!DOCTYPE svg PUBLIC "-//W3C//DTD SVG 1.1//EN" "http://www.w3.org/Graphics/SVG/1.1/DTD/svg11.dtd">
<svg version="1.1" xmlns="http://www.w3.org/2000/svg" width="960" height="250"><g transform="translate(50,20)"><style>.axis path,.axis line{fill:none;stroke:#000;shape-rendering:crispEdges;}path.candle{stroke:#000000;}path.candle.body{stroke-width:0;}path.candle.up{fill:#00AA00;stroke:#00AA00;}path.candle.down{fill:#FF0000;stroke:#FF0000;}</style><g class="candlestick"><g class="data"><path class="candle body up" d="M 1.0675729708116766 141.33957895006927 l 7.1171531387445 0 L 8.184726109556177 128.40988543644482 l -7.1171531387445 0 L 1.0675729708116766 141.33957895006927 M 18.860455817672932 132.89171947965312 l 7.1171531387445 0 L 25.977608956417434 125.8852055216298 l -7.1171531387445 0 L 18.860455817672932 132.89171947965312 M 27.75689724110356 125.8852055216298 l 7.1171531387445 0 L 34.87405037984806 112.42984104787807 l -7.1171531387445 0 L 27.75689724110356 125.8852055216298 M 54.446221511395436 142.34337314620004 l 7.1171531387445 0 L 61.563374650139934 140.09636231846872 l -7.1171531387445 0 L 54.446221511395436 142.34337314620004 M 81.13554578168731 159.46432236875864 l 7.1171531387445 0 L 88.25269892043181 127.33352683840506 l -7.1171531387445 0 L 81.13554578168731 159.46432236875864 M 98.92842862854857 133.0281886642377 l 7.1171531387445 0 L 106.04558176729307 127.78310540360238 l -7.1171531387445 0 L 98.92842862854857 133.0281886642377 M 116.72131147540982 142.1024272591984 l 7.1171531387445 0 L 123.83846461415432 114.24371055062349 l -7.1171531387445 0 L 116.72131147540982 142.1024272591984 M 125.61775289884046 114.24379073228307 l 7.1171531387445 0 L 132.73490603758498 102.25077936573099 l -7.1171531387445 0 L 125.61775289884046 114.24379073228307 M 178.9964014394242 142.60276081490224 l 7.1171531387445 0 L 186.1135545781687 141.66912557089339 l -7.1171531387445 0 L 178.9964014394242 142.60276081490224 M 196.78928428628546 173.62985580130345 l 7.1171531387445 0 L 203.90643742502996 166.45006927695385 l -7.1171531387445 0 L 196.78928428628546 173.62985580130345 M 205.68572570971608 166.45006927695385 l 7.1171531387445 0 L 212.80287884846058 157.0807621747832 l -7.1171531387445 0 L 205.68572570971608 166.45006927695385 M 214.5821671331467 157.10481667265356 l 7.1171531387445 0 L 221.6993202718912 149.18270834402426 l -7.1171531387445 0 L 214.5821671331467 157.10481667265356 M 232.37504998000796 173.9347866526402 l 7.1171531387445 0 L 239.49220311875246 168.26145314825266 l -7.1171531387445 0 L 232.37504998000796 173.9347866526402 M 241.2714914034386 168.26145314825266 l 7.1171531387445 0 L 248.3886445421831 148.88403166213374 l -7.1171531387445 0 L 241.2714914034386 168.26145314825266 M 259.06437425029986 150.5313638579566 l 7.1171531387445 0 L 266.1815273890444 139.1709056037358 l -7.1171531387445 0 L 259.06437425029986 150.5313638579566 M 285.7536985205918 158.48987466002976 l 7.1171531387445 0 L 292.8708516593363 156.21095153179039 l -7.1171531387445 0 L 285.7536985205918 158.48987466002976 M 294.65013994402244 156.21103171344998 l 7.1171531387445 0 L 301.76729308276697 149.13427862164522 l -7.1171531387445 0 L 294.65013994402244 156.21103171344998 M 303.54658136745303 149.13435880330474 l 7.1171531387445 0 L 310.66373450619756 144.18402332324112 l -7.1171531387445 0 L 303.54658136745303 149.13435880330474 M 321.3394642143143 156.98390273002514 l 7.1171531387445 0 L 328.45661735305885 152.73539731615946 l -7.1171531387445 0 L 321.3394642143143 156.98390273002514 M 348.02878848460614 163.51421781187457 l 7.1171531387445 0 L 355.14594162335067 155.9763399958947 l -7.1171531387445 0 L 348.02878848460614 163.51421781187457 M 365.8216713314674 158.48554485041308 l 7.1171531387445 0 L 372.93882447021196 152.42284920716378 l -7.1171531387445 0 L 365.8216713314674 158.48554485041308 M 392.5109956017593 164.6896007594807 l 7.1171531387445 0 L 399.62814874050383 163.96074947400834 l -7.1171531387445 0 L 392.5109956017593 164.6896007594807 M 419.20031987205124 175.4761186945143 l 7.1171531387445 0 L 426.31747301079577 174.3839643095397 l -7.1171531387445 0 L 419.20031987205124 175.4761186945143 M 428.0967612954818 174.3839643095397 l 7.1171531387445 0 L 435.21391443422635 172.31134859136858 l -7.1171531387445 0 L 428.0967612954818 174.3839643095397 M 454.7860855657737 188.253226509981 l 7.1171531387445 0 L 461.90323870451823 169.3771007594807 l -7.1171531387445 0 L 454.7860855657737 188.253226509981 M 463.68252698920435 169.3771007594807 l 7.1171531387445 0 L 470.7996801279489 168.22793721455326 l -7.1171531387445 0 L 463.68252698920435 169.3771007594807 M 472.57896841263494 168.22994175604248 l 7.1171531387445 0 L 479.69612155137946 157.43340111356292 l -7.1171531387445 0 L 472.57896841263494 168.22994175604248 M 481.47540983606564 157.43332093190332 l 7.1171531387445 0 L 488.59256297481016 152.42966464822703 l -7.1171531387445 0 L 481.47540983606564 157.43332093190332 M 490.3718512594962 152.40264342895262 l 7.1171531387445 0 L 497.48900439824075 143.42622645866476 l -7.1171531387445 0 L 490.3718512594962 152.40264342895262 M 499.2682926829268 143.42622645866476 l 7.1171531387445 0 L 506.38544582167134 128.53985990660442 l -7.1171531387445 0 L 499.2682926829268 143.42622645866476 M 508.16473410635746 128.50995214758558 l 7.1171531387445 0 L 515.281887245102 110.73736657771846 l -7.1171531387445 0 L 508.16473410635746 128.50995214758558 M 517.0611755297881 110.74746946682403 l 7.1171531387445 0 L 524.1783286685326 106.23364294144815 l -7.1171531387445 0 L 517.0611755297881 110.74746946682403 M 534.8540583766493 106.24222237902194 l 7.1171531387445 0 L 541.9712115153937 88.69943744547646 l -7.1171531387445 0 L 534.8540583766493 106.24222237902194 M 579.3362654938024 120.76672910145224 l 7.1171531387445 0 L 586.4534186325469 108.61006696772206 l -7.1171531387445 0 L 579.3362654938024 120.76672910145224 M 588.232706917233 108.61014714938165 l 7.1171531387445 0 L 595.3498600559775 99.47513085646843 l -7.1171531387445 0 L 588.232706917233 108.61014714938165 M 597.1291483406637 99.47513085646843 l 7.1171531387445 0 L 604.2463014794082 83.64398380971927 l -7.1171531387445 0 L 597.1291483406637 99.47513085646843 M 606.0255897640943 83.64398380971927 l 7.1171531387445 0 L 613.1427429028388 69.72709370349463 l -7.1171531387445 0 L 606.0255897640943 83.64398380971927 M 623.8184726109555 75.9666700877508 l 7.1171531387445 0 L 630.9356257497 56.24967927336172 l -7.1171531387445 0 L 623.8184726109555 75.9666700877508 M 659.4042383046781 71.11006696772208 l 7.1171531387445 0 L 666.5213914434225 43.84878380458767 l -7.1171531387445 0 L 659.4042383046781 71.11006696772208 M 703.8864454218311 68.73757184276698 l 7.1171531387445 0 L 711.0035985605756 68.66268217273051 l -7.1171531387445 0 L 703.8864454218311 68.73757184276698 M 712.7828868452618 68.71014971519475 l 7.1171531387445 0 L 719.9000399840063 52.18270513675782 l -7.1171531387445 0 L 712.7828868452618 68.71014971519475 M 721.6793282686924 52.18270513675782 l 7.1171531387445 0 L 728.7964814074369 31.641366680351013 l -7.1171531387445 0 L 721.6793282686924 52.18270513675782 M 739.4722111155537 35.65518037666138 l 7.1171531387445 0 L 746.5893642542982 32.308878996253895 l -7.1171531387445 0 L 739.4722111155537 35.65518037666138 M 748.3686525389844 32.308878996253895 l 7.1171531387445 0 L 755.4858056777289 30.307304228460026 l -7.1171531387445 0 L 748.3686525389844 32.308878996253895 M 766.1615353858456 44.85899253348384 l 7.1171531387445 0 L 773.27868852459 34.440909324164835 l -7.1171531387445 0 L 766.1615353858456 44.85899253348384 M 783.9544182327068 51.515273002514476 l 7.1171531387445 0 L 791.0715713714512 33.66651485605786 l -7.1171531387445 0 L 783.9544182327068 51.515273002514476 M 819.5401839264293 50.40034702622259 l 7.1171531387445 0 L 826.6573370651738 49.454363806640316 l -7.1171531387445 0 L 819.5401839264293 50.40034702622259 M 828.43662534986 49.454363806640316 l 7.1171531387445 0 L 835.5537784886045 35.746266741930555 l -7.1171531387445 0 L 828.43662534986 49.454363806640316 M 837.3330667732906 35.74634692359007 l 7.1171531387445 0 L 844.4502199120351 32.24938420485452 l -7.1171531387445 0 L 837.3330667732906 35.74634692359007 M 846.2295081967213 32.24946438651409 l 7.1171531387445 0 L 853.3466613354658 26.21571432236877 l -7.1171531387445 0 L 846.2295081967213 32.24946438651409 M 864.0223910435824 26.869996664442965 l 7.1171531387445 0 L 871.1395441823269 12.12186329347773 l -7.1171531387445 0 L 864.0223910435824 26.869996664442965 M 872.9188324670131 12.12186329347773 l 7.1171531387445 0 L 880.0359856057576 4.849226407348482 l -7.1171531387445 0 L 872.9188324670131 12.12186329347773 M 881.8152738904437 4.830784625647908 l 7.1171531387445 0 L 888.9324270291881 4.087580823112859 l -7.1171531387445 0 L 881.8152738904437 4.830784625647908"></path><path class="candle body down" d="M 9.964014394242305 128.40980525478525 l 7.1171531387445 0 L 17.081167532986804 132.90583145173707 l -7.1171531387445 0 L 9.964014394242305 128.40980525478525 M 36.65333866453418 112.42992122953765 l 7.1171531387445 0 L 43.77049180327868 131.8160825165495 l -7.1171531387445 0 L 36.65333866453418 112.42992122953765 M 45.54978008796481 131.81487979165595 l 7.1171531387445 0 L 52.66693322670931 142.36638528249605 l -7.1171531387445 0 L 45.54978008796481 131.81487979165595 M 63.342662934826066 140.09636231846872 l 7.1171531387445 0 L 70.45981607357056 158.08527800585006 l -7.1171531387445 0 L 63.342662934826066 140.09636231846872 M 72.23910435825668 158.05184225381024 l 7.1171531387445 0 L 79.35625749700118 159.4642421870991 l -7.1171531387445 0 L 72.23910435825668 158.05184225381024 M 90.03198720511796 127.33352683840506 l 7.1171531387445 0 L 97.14914034386246 133.04510699440652 l -7.1171531387445 0 L 90.03198720511796 127.33352683840506 M 107.82487005197919 127.78310540360238 l 7.1171531387445 0 L 114.94202319072369 142.102507440858 l -7.1171531387445 0 L 107.82487005197919 127.78310540360238 M 134.51419432227107 102.25085954739058 l 7.1171531387445 0 L 141.63134746101557 105.2355416431467 l -7.1171531387445 0 L 134.51419432227107 102.25085954739058 M 143.4106357457017 105.23746600297632 l 7.1171531387445 0 L 150.5277888844462 119.62839008056652 l -7.1171531387445 0 L 143.4106357457017 105.23746600297632 M 152.30707716913233 119.62847026222609 l 7.1171531387445 0 L 159.42423030787683 121.68136129214348 l -7.1171531387445 0 L 152.30707716913233 119.62847026222609 M 161.20351859256294 121.68136129214348 l 7.1171531387445 0 L 168.32067173130744 139.90769487350545 l -7.1171531387445 0 L 161.20351859256294 121.68136129214348 M 170.09996001599356 139.90256324729305 l 7.1171531387445 0 L 177.21711315473806 142.60276081490224 l -7.1171531387445 0 L 170.09996001599356 139.90256324729305 M 187.89284286285485 141.66904538923387 l 7.1171531387445 0 L 195.00999600159935 173.67147008261918 l -7.1171531387445 0 L 187.89284286285485 141.66904538923387 M 223.47860855657734 149.18278852568378 l 7.1171531387445 0 L 230.59576169532184 173.86775478524143 l -7.1171531387445 0 L 223.47860855657734 149.18278852568378 M 250.16793282686922 148.86679260532665 l 7.1171531387445 0 L 257.28508596561375 150.5313638579566 l -7.1171531387445 0 L 250.16793282686922 148.86679260532665 M 267.9608156737305 139.17098578539537 l 7.1171531387445 0 L 275.07796881247504 146.1204905834659 l -7.1171531387445 0 L 267.9608156737305 139.17098578539537 M 276.85725709716115 146.1204905834659 l 7.1171531387445 0 L 283.9744102359057 158.4709517883717 l -7.1171531387445 0 L 276.85725709716115 146.1204905834659 M 312.4430227908837 144.17103389439114 l 7.1171531387445 0 L 319.5601759296282 156.98398291168473 l -7.1171531387445 0 L 312.4430227908837 144.17103389439114 M 330.23590563774496 152.73531713449995 l 7.1171531387445 0 L 337.3530587764895 155.60501873043566 l -7.1171531387445 0 L 330.23590563774496 152.73531713449995 M 339.13234706117555 155.60509891209523 l 7.1171531387445 0 L 346.2495001999201 163.51421781187457 l -7.1171531387445 0 L 339.13234706117555 155.60509891209523 M 356.9252299080368 155.9763399958947 l 7.1171531387445 0 L 364.0423830467813 158.48554485041308 l -7.1171531387445 0 L 356.9252299080368 155.9763399958947 M 374.7181127548981 152.42276902550418 l 7.1171531387445 0 L 381.8352658936426 161.8230262482681 l -7.1171531387445 0 L 374.7181127548981 152.42276902550418 M 383.61455417832866 161.82054061682146 l 7.1171531387445 0 L 390.7317073170732 164.68438895160875 l -7.1171531387445 0 L 383.61455417832866 161.82054061682146 M 401.40743702518995 163.96066929234877 l 7.1171531387445 0 L 408.5245901639345 171.49798583671165 l -7.1171531387445 0 L 401.40743702518995 163.96066929234877 M 410.3038784486206 171.54216593113355 l 7.1171531387445 0 L 417.4210315873651 175.47603851285473 l -7.1171531387445 0 L 410.3038784486206 171.54216593113355 M 436.99320271891247 172.31126840970904 l 7.1171531387445 0 L 444.110355857657 179.8396847898599 l -7.1171531387445 0 L 436.99320271891247 172.31126840970904 M 445.8896441423431 179.8396847898599 l 7.1171531387445 0 L 453.00679728108764 188.25314632832146 l -7.1171531387445 0 L 445.8896441423431 179.8396847898599 M 525.9576169532187 106.23356275978858 l 7.1171531387445 0 L 533.0747700919632 106.25833889259503 l -7.1171531387445 0 L 525.9576169532187 106.23356275978858 M 543.75049980008 88.69951762713603 l 7.1171531387445 0 L 550.8676529388244 94.66928272694615 l -7.1171531387445 0 L 543.75049980008 88.69951762713603 M 552.6469412235106 94.66920254528664 l 7.1171531387445 0 L 559.764094362255 107.6297659978447 l -7.1171531387445 0 L 552.6469412235106 94.66920254528664 M 561.5433826469413 107.59103825627344 l 7.1171531387445 0 L 568.6605357856857 113.22339893262175 l -7.1171531387445 0 L 561.5433826469413 107.59103825627344 M 570.4398240703717 113.23109637194027 l 7.1171531387445 0 L 577.5569772091162 120.76664891979266 l -7.1171531387445 0 L 570.4398240703717 113.23109637194027 M 614.9220311875249 69.72709370349463 l 7.1171531387445 0 L 622.0391843262694 75.96658990609122 l -7.1171531387445 0 L 614.9220311875249 69.72709370349463 M 632.7149140343862 56.286001565145995 l 7.1171531387445 0 L 639.8320671731307 61.60910158054088 l -7.1171531387445 0 L 632.7149140343862 56.286001565145995 M 641.6113554578168 61.60902139888131 l 7.1171531387445 0 L 648.7285085965613 62.20236567968388 l -7.1171531387445 0 L 641.6113554578168 61.60902139888131 M 650.5077968812475 62.20501167444965 l 7.1171531387445 0 L 657.624950019992 71.1185662236363 l -7.1171531387445 0 L 650.5077968812475 62.20501167444965 M 668.3006797281087 43.84886398624727 l 7.1171531387445 0 L 675.4178328668531 49.71399202032123 l -7.1171531387445 0 L 668.3006797281087 43.84886398624727 M 677.1971211515394 49.7140722019808 l 7.1171531387445 0 L 684.3142742902838 50.473232154769846 l -7.1171531387445 0 L 677.1971211515394 49.7140722019808 M 686.09356257497 50.473232154769846 l 7.1171531387445 0 L 693.2107157137144 59.07295568840766 l -7.1171531387445 0 L 686.09356257497 50.473232154769846 M 694.9900039984005 59.07287550674806 l 7.1171531387445 0 L 702.107157137145 68.73757184276698 l -7.1171531387445 0 L 694.9900039984005 59.07287550674806 M 730.5757696921231 31.641366680351013 l 7.1171531387445 0 L 737.6929228308676 35.65526055832092 l -7.1171531387445 0 L 730.5757696921231 31.641366680351013 M 757.265093962415 30.307304228460026 l 7.1171531387445 0 L 764.3822471011595 44.85899253348384 l -7.1171531387445 0 L 757.265093962415 30.307304228460026 M 775.0579768092763 34.440909324164835 l 7.1171531387445 0 L 782.1751299480208 51.51519282085491 l -7.1171531387445 0 L 775.0579768092763 34.440909324164835 M 792.8508596561375 33.66651485605786 l 7.1171531387445 0 L 799.9680127948819 35.06608572381589 l -7.1171531387445 0 L 792.8508596561375 33.66651485605786 M 801.747301079568 35.06608572381589 l 7.1171531387445 0 L 808.8644542183125 36.08856224662594 l -7.1171531387445 0 L 801.747301079568 35.06608572381589 M 810.6437425029987 36.08848206496643 l 7.1171531387445 0 L 817.7608956417432 50.40034702622259 l -7.1171531387445 0 L 810.6437425029987 36.08848206496643 M 855.1259496201519 26.224855031559514 l 7.1171531387445 0 L 862.2431027588964 26.885231179760865 l -7.1171531387445 0 L 855.1259496201519 26.224855031559514"></path><path class="candle body equal"></path><path class="candle wick up" d="M 4.626149540183927 126.44391132549904 L 4.626149540183927 128.40988543644482 M 4.626149540183927 141.33957895006927 L 4.626149540183927 153.26595935752042 M 22.41903238704518 120.62272284086826 L 22.41903238704518 125.8852055216298 M 22.41903238704518 132.89171947965312 L 22.41903238704518 139.10459537127315 M 31.315473810475808 110.59199722892184 L 31.315473810475808 112.42984104787807 M 31.315473810475808 125.8852055216298 L 31.315473810475808 129.08188792528352 M 58.004798080767685 134.6144224354698 L 58.004798080767685 140.09636231846872 M 58.004798080767685 142.34337314620004 L 58.004798080767685 144.70127520911376 M 84.69412235105956 126.15694116590547 L 84.69412235105956 127.33352683840506 M 84.69412235105956 159.46432236875864 L 84.69412235105956 167.35403730692258 M 102.48700519792082 124.98941602093703 L 102.48700519792082 127.78310540360238 M 102.48700519792082 133.0281886642377 L 102.48700519792082 138.9701307281778 M 120.27988804478207 111.36174116077385 L 120.27988804478207 114.24371055062349 M 120.27988804478207 142.1024272591984 L 120.27988804478207 148.4297223790219 M 129.1763294682127 97.85874878123875 L 129.1763294682127 102.25077936573099 M 129.1763294682127 114.24379073228307 L 129.1763294682127 116.57354903268846 M 182.55497800879647 137.35888027916047 L 182.55497800879647 141.66912557089339 M 182.55497800879647 142.60276081490224 L 182.55497800879647 159.82353620362292 M 200.34786085565773 160.12197234053474 L 200.34786085565773 166.45006927695385 M 200.34786085565773 173.62985580130345 L 200.34786085565773 196.15384615384616 M 209.24430227908834 147.43546980037974 L 209.24430227908834 157.0807621747832 M 209.24430227908834 166.45006927695385 L 209.24430227908834 173.07756453019962 M 218.14074370251896 144.0918945963976 L 218.14074370251896 149.18270834402426 M 218.14074370251896 157.10481667265356 L 218.14074370251896 168.23804010365885 M 235.93362654938022 164.6825447734387 L 235.93362654938022 168.26145314825266 M 235.93362654938022 173.9347866526402 L 235.93362654938022 185.36139477600452 M 244.83006797281087 148.49386770667624 L 244.83006797281087 148.88403166213374 M 244.83006797281087 168.26145314825266 L 244.83006797281087 170.74868822804945 M 262.6229508196721 133.6522425206548 L 262.6229508196721 139.1709056037358 M 262.6229508196721 150.5313638579566 L 262.6229508196721 152.6919388566737 M 289.31227508996403 154.68357109868117 L 289.31227508996403 156.21095153179039 M 289.31227508996403 158.48987466002976 L 289.31227508996403 164.93110791809926 M 298.2087165133947 146.91741609791143 L 298.2087165133947 149.13427862164522 M 298.2087165133947 156.21103171344998 L 298.2087165133947 159.97804626161027 M 307.10515793682526 138.72092613024068 L 307.10515793682526 144.18402332324112 M 307.10515793682526 149.13435880330474 L 307.10515793682526 151.63578603684508 M 324.89804078368655 145.52810848257815 L 324.89804078368655 152.73539731615946 M 324.89804078368655 156.98390273002514 L 324.89804078368655 158.25197567609175 M 351.5873650539784 153.69765741263407 L 351.5873650539784 155.9763399958947 M 351.5873650539784 163.51421781187457 L 351.5873650539784 168.44250333555703 M 369.38024790083966 149.15937548108997 L 369.38024790083966 152.42284920716378 M 369.38024790083966 158.48554485041308 L 369.38024790083966 160.06031264432698 M 396.06957217113154 161.60332850105198 L 396.06957217113154 163.96074947400834 M 396.06957217113154 164.6896007594807 L 396.06957217113154 174.14398060245293 M 422.7588964414235 170.88924667727204 L 422.7588964414235 174.3839643095397 M 422.7588964414235 175.4761186945143 L 422.7588964414235 177.2365070303279 M 431.65533786485406 167.04790373069227 L 431.65533786485406 172.31134859136858 M 431.65533786485406 174.3839643095397 L 431.65533786485406 177.68023233437674 M 458.34466213514594 163.65621953096937 L 458.34466213514594 169.3771007594807 M 458.34466213514594 188.253226509981 L 458.34466213514594 190.7206567198645 M 467.2411035585766 165.7942634833479 L 467.2411035585766 168.22793721455326 M 467.2411035585766 169.3771007594807 L 467.2411035585766 172.87711038127983 M 476.13754498200717 157.30583209319033 L 476.13754498200717 157.43340111356292 M 476.13754498200717 168.22994175604248 L 476.13754498200717 171.14262072150666 M 485.0339864054379 150.4903910299174 L 485.0339864054379 152.42966464822703 M 485.0339864054379 157.43332093190332 L 485.0339864054379 159.30123287319753 M 493.93042782886846 143.29007800071844 L 493.93042782886846 143.42622645866476 M 493.93042782886846 152.40264342895262 L 493.93042782886846 155.69321855596036 M 502.82686925229905 101.98048699132755 L 502.82686925229905 128.53985990660442 M 502.82686925229905 143.42622645866476 L 502.82686925229905 144.83132986093293 M 511.7233106757297 110.05790719453995 L 511.7233106757297 110.73736657771846 M 511.7233106757297 128.50995214758558 L 511.7233106757297 135.3921845332786 M 520.6197520991603 99.17412890645045 L 520.6197520991603 106.23364294144815 M 520.6197520991603 110.74746946682403 L 520.6197520991603 116.2367860625032 M 538.4126349460215 87.81471301380408 L 538.4126349460215 88.69943744547646 M 538.4126349460215 106.24222237902194 L 538.4126349460215 119.91528005850051 M 582.8948420631747 106.63374942269202 L 582.8948420631747 108.61006696772206 M 582.8948420631747 120.76672910145224 L 582.8948420631747 126.36725765895214 M 591.7912834866053 95.56595422589417 L 591.7912834866053 99.47513085646843 M 591.7912834866053 108.61014714938165 L 591.7912834866053 127.77733232411353 M 600.687724910036 79.18941153076409 L 600.687724910036 83.64398380971927 M 600.687724910036 99.47513085646843 L 600.687724910036 107.56225304048853 M 609.5841663334666 68.70509827064197 L 609.5841663334666 69.72709370349463 M 609.5841663334666 83.64398380971927 L 609.5841663334666 86.77475688920818 M 627.3770491803277 54.640032457535796 L 627.3770491803277 56.24967927336172 M 627.3770491803277 75.9666700877508 L 627.3770491803277 84.10799507363885 M 662.9628148740503 43.159221532303576 L 662.9628148740503 43.84878380458767 M 662.9628148740503 71.11006696772208 L 662.9628148740503 72.57474534304922 M 707.4450219912034 58.281482526812766 L 707.4450219912034 68.66268217273051 M 707.4450219912034 68.73757184276698 L 707.4450219912034 72.68788166469955 M 716.3414634146341 49.99871709344691 L 716.3414634146341 52.18270513675782 M 716.3414634146341 68.71014971519475 L 716.3414634146341 74.89752783907223 M 725.2379048380647 31.156107276645997 L 725.2379048380647 31.641366680351013 M 725.2379048380647 52.18270513675782 L 725.2379048380647 53.28624531739109 M 743.0307876849259 30.217901678041756 L 743.0307876849259 32.308878996253895 M 743.0307876849259 35.65518037666138 L 743.0307876849259 41.84424231538975 M 751.9272291083566 22.19973572125008 L 751.9272291083566 30.307304228460026 M 751.9272291083566 32.308878996253895 L 751.9272291083566 33.99445784369067 M 769.7201119552178 32.10778339405755 L 769.7201119552178 34.440909324164835 M 769.7201119552178 44.85899253348384 L 769.7201119552178 49.250782572997394 M 787.512994802079 33.02482103453585 L 787.512994802079 33.66651485605786 M 787.512994802079 51.515273002514476 L 787.512994802079 55.49116077384923 M 823.0987604958016 40.27179978960331 L 823.0987604958016 49.454363806640316 M 823.0987604958016 50.40034702622259 L 823.0987604958016 52.66876635705856 M 831.9952019192323 32.976150767178126 L 831.9952019192323 35.746266741930555 M 831.9952019192323 49.454363806640316 L 831.9952019192323 54.176181556935404 M 840.8916433426629 22.59960165751528 L 840.8916433426629 32.24938420485452 M 840.8916433426629 35.74634692359007 L 840.8916433426629 37.562060604505604 M 849.7880847660936 18.190652742854212 L 849.7880847660936 26.21571432236877 M 849.7880847660936 32.24946438651409 L 849.7880847660936 39.704674911479486 M 867.5809676129546 10.974303381741692 L 867.5809676129546 12.12186329347773 M 867.5809676129546 26.869996664442965 L 867.5809676129546 30.618809975881362 M 876.4774090363853 3.918317339764968 L 876.4774090363853 4.849226407348482 M 876.4774090363853 12.12186329347773 L 876.4774090363853 18.43656989274899 M 885.3738504598159 3.846153846153868 L 885.3738504598159 4.087580823112859 M 885.3738504598159 4.830784625647908 L 885.3738504598159 7.4775812079848265" style="stroke-width: 1px;"></path><path class="candle wick down" d="M 13.522590963614554 123.27024105814134 L 13.522590963614554 128.40980525478525 M 13.522590963614554 132.90583145173707 L 13.522590963614554 141.14120952429823 M 40.21191523390643 112.09083299122491 L 40.21191523390643 112.42992122953765 M 40.21191523390643 131.8160825165495 L 40.21191523390643 142.0300232206086 M 49.10835665733706 123.02817262790579 L 49.10835665733706 131.81487979165595 M 49.10835665733706 142.36638528249605 L 49.10835665733706 148.08494124287986 M 66.90123950419832 131.24679273361727 L 66.90123950419832 140.09636231846872 M 66.90123950419832 158.08527800585006 L 66.90123950419832 160.11219017806744 M 75.79768092762893 153.95415854159182 L 75.79768092762893 158.05184225381024 M 75.79768092762893 159.4642421870991 L 75.79768092762893 178.55397187868834 M 93.5905637744902 118.48989069636168 L 93.5905637744902 127.33352683840506 M 93.5905637744902 133.04510699440652 L 93.5905637744902 140.21110227331042 M 111.38344662135144 126.7275138553908 L 111.38344662135144 127.78310540360238 M 111.38344662135144 142.102507440858 L 111.38344662135144 149.68568789449375 M 138.07277089164333 95.72631754503003 L 138.07277089164333 102.25085954739058 M 138.07277089164333 105.2355416431467 L 138.07277089164333 110.34824498383536 M 146.96921231507397 102.16378226509981 L 146.96921231507397 105.23746600297632 M 146.96921231507397 119.62839008056652 L 146.96921231507397 121.49662274849898 M 155.8656537385046 109.91943346846618 L 155.8656537385046 119.62847026222609 M 155.8656537385046 121.68136129214348 L 155.8656537385046 127.51834556370913 M 164.7620951619352 120.8004053984708 L 164.7620951619352 121.68136129214348 M 164.7620951619352 139.90769487350545 L 164.7620951619352 145.44463937496792 M 173.65853658536582 134.798840252476 L 173.65853658536582 139.90256324729305 M 173.65853658536582 142.60276081490224 L 173.65853658536582 148.056717298712 M 191.4514194322271 140.46768358392774 L 191.4514194322271 141.66904538923387 M 191.4514194322271 173.67147008261918 L 191.4514194322271 176.53956804536358 M 227.0371851259496 142.47222507312568 L 227.0371851259496 149.18278852568378 M 227.0371851259496 173.86775478524143 L 227.0371851259496 176.34897624057064 M 253.72650939624148 144.0942198645251 L 253.72650939624148 148.86679260532665 M 253.72650939624148 150.5313638579566 L 253.72650939624148 155.6002078308616 M 271.51939224310274 137.66132549905063 L 271.51939224310274 139.17098578539537 M 271.51939224310274 146.1204905834659 L 271.51939224310274 154.35875519577152 M 280.4158336665334 146.01970223738903 L 280.4158336665334 146.1204905834659 M 280.4158336665334 158.4709517883717 L 280.4158336665334 164.83488992661773 M 316.0015993602559 144.12573125673526 L 316.0015993602559 144.17103389439114 M 316.0015993602559 156.98398291168473 L 316.0015993602559 161.5109592292297 M 333.7944822071172 146.00751462513472 L 333.7944822071172 152.73531713449995 M 333.7944822071172 155.60501873043566 L 333.7944822071172 156.2813510288911 M 342.6909236305478 155.0636321650331 L 342.6909236305478 155.60509891209523 M 342.6909236305478 163.51421781187457 L 342.6909236305478 169.9184071432237 M 360.483806477409 152.3987145276338 L 360.483806477409 155.9763399958947 M 360.483806477409 158.48554485041308 L 360.483806477409 162.47931313183147 M 378.2766893242703 149.05970967824703 L 378.2766893242703 152.42276902550418 M 378.2766893242703 161.8230262482681 L 378.2766893242703 165.2571265459024 M 387.1731307477009 159.79146353979576 L 387.1731307477009 161.82054061682146 M 387.1731307477009 164.68438895160875 L 387.1731307477009 168.91413185713552 M 404.9660135945622 161.03227472160927 L 404.9660135945622 163.96066929234877 M 404.9660135945622 171.49798583671165 L 404.9660135945622 177.48755580643507 M 413.86245501799283 168.5378393287833 L 413.86245501799283 171.54216593113355 M 413.86245501799283 175.47603851285473 L 413.86245501799283 178.39360855955252 M 440.5517792882847 171.34564068353262 L 440.5517792882847 172.31126840970904 M 440.5517792882847 179.8396847898599 L 440.5517792882847 183.30521629804485 M 449.44822071171535 178.0482661517935 L 449.44822071171535 179.8396847898599 M 449.44822071171535 188.25314632832146 L 449.44822071171535 192.36125365628368 M 529.5161935225909 101.2588520552163 L 529.5161935225909 106.23356275978858 M 529.5161935225909 106.25833889259503 L 529.5161935225909 112.80501103299636 M 547.3090763694522 86.7620080053369 L 547.3090763694522 88.69951762713603 M 547.3090763694522 94.66928272694615 L 547.3090763694522 98.37110958587776 M 556.2055177928828 85.55126494586133 L 556.2055177928828 94.66920254528664 M 556.2055177928828 107.6297659978447 L 556.2055177928828 111.02489800892901 M 565.1019592163135 102.54167842664339 L 565.1019592163135 107.59103825627344 M 565.1019592163135 113.22339893262175 L 565.1019592163135 116.89427567096013 M 573.998400639744 108.15447477805716 L 573.998400639744 113.23109637194027 M 573.998400639744 120.76664891979266 L 573.998400639744 125.29707304869913 M 618.4806077568971 63.81401703699902 L 618.4806077568971 69.72709370349463 M 618.4806077568971 75.96658990609122 L 618.4806077568971 80.24323908246522 M 636.2734906037584 52.66876635705856 L 636.2734906037584 56.286001565145995 M 636.2734906037584 61.60910158054088 L 636.2734906037584 69.59142633550573 M 645.169932027189 52.320216682916794 L 645.169932027189 61.60902139888131 M 645.169932027189 62.20236567968388 L 645.169932027189 63.56433134910452 M 654.0663734506197 56.5325601683173 L 654.0663734506197 62.20501167444965 M 654.0663734506197 71.1185662236363 L 654.0663734506197 76.16199261045826 M 671.8592562974809 41.09053471545133 L 671.8592562974809 43.84886398624727 M 671.8592562974809 49.71399202032123 L 671.8592562974809 58.51376879458101 M 680.7556977209116 47.27839392928621 L 680.7556977209116 49.7140722019808 M 680.7556977209116 50.473232154769846 L 680.7556977209116 62.290565505208605 M 689.6521391443422 41.81353273977521 L 689.6521391443422 50.473232154769846 M 689.6521391443422 59.07295568840766 L 689.6521391443422 61.007658952121915 M 698.5485805677728 48.98041001693437 L 698.5485805677728 59.07287550674806 M 698.5485805677728 68.73757184276698 L 698.5485805677728 71.30298404064249 M 734.1343462614954 28.156912300508026 L 734.1343462614954 31.641366680351013 M 734.1343462614954 35.65526055832092 L 734.1343462614954 40.46511777082159 M 760.8236705317872 27.331361933596753 L 760.8236705317872 30.307304228460026 M 760.8236705317872 44.85899253348384 L 760.8236705317872 45.45241699594601 M 778.6165533786485 31.397854980243267 L 778.6165533786485 34.440909324164835 M 778.6165533786485 51.51519282085491 L 778.6165533786485 56.27694103761482 M 796.4094362255097 31.829553035356895 L 796.4094362255097 33.66651485605786 M 796.4094362255097 35.06608572381589 L 796.4094362255097 39.463809206137455 M 805.3058776489403 29.157338866936954 L 805.3058776489403 35.06608572381589 M 805.3058776489403 36.08856224662594 L 805.3058776489403 44.14914430132907 M 814.202319072371 35.12012816236464 L 814.202319072371 36.08848206496643 M 814.202319072371 50.40034702622259 L 814.202319072371 51.44198696566943 M 858.6845261895241 21.91356737825214 L 858.6845261895241 26.224855031559514 M 858.6845261895241 26.885231179760865 L 858.6845261895241 31.260263252424693" style="stroke-width: 1px;"></path><path class="candle wick equal" style="stroke-width: 1px;"></path></g></g><g class="x axis" transform="translate(0,200)" fill="none" font-size="10" font-family="sans-serif" text-anchor="middle"><path class="domain" stroke="#000" d="M0.5,6V0.5H890.5V6"></path><g class="tick" opacity="1" transform="translate(4.626149540183927,0)"><line stroke="#000" y2="6" x1="0.5" x2="0.5"></line><text fill="#000" y="9" x="0.5" dy="0.71em">May 31</text></g><g class="tick" opacity="1" transform="translate(66.90123950419832,0)"><line stroke="#000" y2="6" x1="0.5" x2="0.5"></line><text fill="#000" y="9" x="0.5" dy="0.71em">Jun  7</text></g><g class="tick" opacity="1" transform="translate(129.1763294682127,0)"><line stroke="#000" y2="6" x1="0.5" x2="0.5"></line><text fill="#000" y="9" x="0.5" dy="0.71em">Jun 14</text></g><g class="tick" opacity="1" transform="translate(191.4514194322271,0)"><line stroke="#000" y2="6" x1="0.5" x2="0.5"></line><text fill="#000" y="9" x="0.5" dy="0.71em">Jun 21</text></g><g class="tick" opacity="1" transform="translate(253.72650939624148,0)"><line stroke="#000" y2="6" x1="0.5" x2="0.5"></line><text fill="#000" y="9" x="0.5" dy="0.71em">Jun 28</text></g><g class="tick" opacity="1" transform="translate(316.0015993602559,0)"><line stroke="#000" y2="6" x1="0.5" x2="0.5"></line><text fill="#000" y="9" x="0.5" dy="0.71em">Jul  5</text></g><g class="tick" opacity="1" transform="translate(378.2766893242703,0)"><line stroke="#000" y2="6" x1="0.5" x2="0.5"></line><text fill="#000" y="9" x="0.5" dy="0.71em">Jul 12</text></g><g class="tick" opacity="1" transform="translate(440.5517792882847,0)"><line stroke="#000" y2="6" x1="0.5" x2="0.5"></line><text fill="#000" y="9" x="0.5" dy="0.71em">Jul 19</text></g><g class="tick" opacity="1" transform="translate(502.82686925229905,0)"><line stroke="#000" y2="6" x1="0.5" x2="0.5"></line><text fill="#000" y="9" x="0.5" dy="0.71em">Jul 26</text></g><g class="tick" opacity="1" transform="translate(565.1019592163135,0)"><line stroke="#000" y2="6" x1="0.5" x2="0.5"></line><text fill="#000" y="9" x="0.5" dy="0.71em">Aug  2</text></g><g class="tick" opacity="1" transform="translate(627.3770491803277,0)"><line stroke="#000" y2="6" x1="0.5" x2="0.5"></line><text fill="#000" y="9" x="0.5" dy="0.71em">Aug  9</text></g><g class="tick" opacity="1" transform="translate(689.6521391443422,0)"><line stroke="#000" y2="6" x1="0.5" x2="0.5"></line><text fill="#000" y="9" x="0.5" dy="0.71em">Aug 16</text></g><g class="tick" opacity="1" transform="translate(751.9272291083566,0)"><line stroke="#000" y2="6" x1="0.5" x2="0.5"></line><text fill="#000" y="9" x="0.5" dy="0.71em">Aug 23</text></g><g class="tick" opacity="1" transform="translate(814.202319072371,0)"><line stroke="#000" y2="6" x1="0.5" x2="0.5"></line><text fill="#000" y="9" x="0.5" dy="0.71em">Aug 30</text></g><g class="tick" opacity="1" transform="translate(876.4774090363853,0)"><line stroke="#000" y2="6" x1="0.5" x2="0.5"></line><text fill="#000" y="9" x="0.5" dy="0.71em">Sep  6</text></g></g><g class="y axis" fill="none" font-size="10" font-family="sans-serif" text-anchor="end"><path class="domain" stroke="#000" d="M-6,200.5H0.5V0.5H-6"></path><g class="tick" opacity="1" transform="translate(0,186.57213783548005)"><line stroke="#000" x2="-6" y1="0.5" y2="0.5"></line><text fill="#000" x="-9" y="0.5" dy="0.32em">30,000</text></g><g class="tick" opacity="1" transform="translate(0,170.53580592189664)"><line stroke="#000" x2="-6" y1="0.5" y2="0.5"></line><text fill="#000" x="-9" y="0.5" dy="0.32em">32,000</text></g><g class="tick" opacity="1" transform="translate(0,154.49947400831323)"><line stroke="#000" x2="-6" y1="0.5" y2="0.5"></line><text fill="#000" x="-9" y="0.5" dy="0.32em">34,000</text></g><g class="tick" opacity="1" transform="translate(0,138.46314209472982)"><line stroke="#000" x2="-6" y1="0.5" y2="0.5"></line><text fill="#000" x="-9" y="0.5" dy="0.32em">36,000</text></g><g class="tick" opacity="1" transform="translate(0,122.42681018114641)"><line stroke="#000" x2="-6" y1="0.5" y2="0.5"></line><text fill="#000" x="-9" y="0.5" dy="0.32em">38,000</text></g><g class="tick" opacity="1" transform="translate(0,106.390478267563)"><line stroke="#000" x2="-6" y1="0.5" y2="0.5"></line><text fill="#000" x="-9" y="0.5" dy="0.32em">40,000</text></g><g class="tick" opacity="1" transform="translate(0,90.35414635397959)"><line stroke="#000" x2="-6" y1="0.5" y2="0.5"></line><text fill="#000" x="-9" y="0.5" dy="0.32em">42,000</text></g><g class="tick" opacity="1" transform="translate(0,74.31781444039616)"><line stroke="#000" x2="-6" y1="0.5" y2="0.5"></line><text fill="#000" x="-9" y="0.5" dy="0.32em">44,000</text></g><g class="tick" opacity="1" transform="translate(0,58.281482526812766)"><line stroke="#000" x2="-6" y1="0.5" y2="0.5"></line><text fill="#000" x="-9" y="0.5" dy="0.32em">46,000</text></g><g class="tick" opacity="1" transform="translate(0,42.24515061322933)"><line stroke="#000" x2="-6" y1="0.5" y2="0.5"></line><text fill="#000" x="-9" y="0.5" dy="0.32em">48,000</text></g><g class="tick" opacity="1" transform="translate(0,26.208818699645917)"><line stroke="#000" x2="-6" y1="0.5" y2="0.5"></line><text fill="#000" x="-9" y="0.5" dy="0.32em">50,000</text></g><g class="tick" opacity="1" transform="translate(0,10.172486786062507)"><line stroke="#000" x2="-6" y1="0.5" y2="0.5"></line><text fill="#000" x="-9" y="0.5" dy="0.32em">52,000</text></g><text transform="rotate(-90)" y="6" dy=".71em" style="text-anchor: end;">Price ($)</text></g></g></svg>