<?xml version="1.0" encoding="utf-8"?>
<!DOCTYPE svg PUBLIC "-//W3C//DTD SVG 1.1//EN" "http://www.w3.org/Graphics/SVG/1.1/DTD/svg11.dtd">
<svg version="1.1" xmlns="http://www.w3.org/2000/svg" width="960" height="250"><g transform="translate(50,20)"><style>.axis path,.axis line{fill:none;stroke:#000;shape-rendering:crispEdges;}path.candle{stroke:#000000;}path.candle.body{stroke-width:0;}path.candle.up{fill:#00AA00;stroke:#00AA00;}path.candle.down{fill:#FF0000;stroke:#FF0000;}</style><g class="candlestick"><g class="data"><path class="candle body up" d="M 1.0675729708116766 162.64046231708724 l 7.1171531387445 0 L 8.184726109556177 138.3772811804224 l -7.1171531387445 0 L 1.0675729708116766 162.64046231708724 M 18.860455817672932 162.30815883965457 l 7.1171531387445 0 L 25.977608956417434 159.02483960952878 l -7.1171531387445 0 L 18.860455817672932 162.30815883965457 M 27.75689724110356 159.04796511627904 l 7.1171531387445 0 L 34.87405037984806 144.00482297525122 l -7.1171531387445 0 L 27.75689724110356 159.04796511627904 M 36.65333866453418 143.95103103563656 l 7.1171531387445 0 L 43.77049180327868 141.29561958662046 l -7.1171531387445 0 L 36.65333866453418 143.95103103563656 M 45.54978008796481 141.29561958662046 l 7.1171531387445 0 L 52.66693322670931 139.204269410947 l -7.1171531387445 0 L 45.54978008796481 141.29561958662046 M 72.23910435825668 174.7984461268194 l 7.1171531387445 0 L 79.35625749700118 169.64598267718557 l -7.1171531387445 0 L 72.23910435825668 174.7984461268194 M 81.13554578168731 169.64598267718557 l 7.1171531387445 0 L 88.25269892043181 169.18598618421896 l -7.1171531387445 0 L 81.13554578168731 169.64598267718557 M 98.92842862854857 192.36226850362283 l 7.1171531387445 0 L 106.04558176729307 183.20205418849173 l -7.1171531387445 0 L 98.92842862854857 192.36226850362283 M 116.72131147540982 186.18574728767965 l 7.1171531387445 0 L 123.83846461415432 167.93318699244537 l -7.1171531387445 0 L 116.72131147540982 186.18574728767965 M 125.61775289884046 167.93318699244537 l 7.1171531387445 0 L 132.73490603758498 149.24073934054903 l -7.1171531387445 0 L 125.61775289884046 167.93318699244537 M 143.4106357457017 156.7459717378154 l 7.1171531387445 0 L 150.5277888844462 143.11599915059008 l -7.1171531387445 0 L 143.4106357457017 156.7459717378154 M 161.20351859256294 155.6565592785163 l 7.1171531387445 0 L 168.32067173130744 117.82624660557775 l -7.1171531387445 0 L 161.20351859256294 155.6565592785163 M 178.9964014394242 152.15002863541002 l 7.1171531387445 0 L 186.1135545781687 144.6985881777583 l -7.1171531387445 0 L 178.9964014394242 152.15002863541002 M 187.89284286285485 144.69456635049738 l 7.1171531387445 0 L 195.00999600159935 138.5240778754456 l -7.1171531387445 0 L 187.89284286285485 144.69456635049738 M 205.68572570971608 146.9643851108737 l 7.1171531387445 0 L 212.80287884846058 144.69557180731266 l -7.1171531387445 0 L 205.68572570971608 146.9643851108737 M 214.5821671331467 144.66792174489382 l 7.1171531387445 0 L 221.6993202718912 140.63905628627685 l -7.1171531387445 0 L 214.5821671331467 144.66792174489382 M 223.47860855657734 140.63905628627685 l 7.1171531387445 0 L 230.59576169532184 138.8785014028133 l -7.1171531387445 0 L 223.47860855657734 140.63905628627685 M 241.2714914034386 139.3596124888997 l 7.1171531387445 0 L 248.3886445421831 133.70090153279878 l -7.1171531387445 0 L 241.2714914034386 139.3596124888997 M 259.06437425029986 164.17227577508655 l 7.1171531387445 0 L 266.1815273890444 154.8089591832795 l -7.1171531387445 0 L 259.06437425029986 164.17227577508655 M 267.9608156737305 154.81750556620892 l 7.1171531387445 0 L 275.07796881247504 154.3962191606285 l -7.1171531387445 0 L 267.9608156737305 154.81750556620892 M 285.7536985205918 160.99402678215205 l 7.1171531387445 0 L 292.8708516593363 156.775129985457 l -7.1171531387445 0 L 285.7536985205918 160.99402678215205 M 294.65013994402244 156.77362180023422 l 7.1171531387445 0 L 301.76729308276697 151.7694632308464 l -7.1171531387445 0 L 294.65013994402244 156.77362180023422 M 330.23590563774496 162.59622221721725 l 7.1171531387445 0 L 337.3530587764895 160.14692941532277 l -7.1171531387445 0 L 330.23590563774496 162.59622221721725 M 348.02878848460614 163.37746216264907 l 7.1171531387445 0 L 355.14594162335067 143.72078142494942 l -7.1171531387445 0 L 348.02878848460614 163.37746216264907 M 401.40743702518995 177.58909151748364 l 7.1171531387445 0 L 408.5245901639345 172.3431205840336 l -7.1171531387445 0 L 401.40743702518995 177.58909151748364 M 410.3038784486206 172.3526724237783 l 7.1171531387445 0 L 417.4210315873651 168.51182738960887 l -7.1171531387445 0 L 410.3038784486206 172.3526724237783 M 428.0967612954818 171.25069175428882 l 7.1171531387445 0 L 435.21391443422635 166.52906654998 l -7.1171531387445 0 L 428.0967612954818 171.25069175428882 M 454.7860855657737 175.28709813902 l 7.1171531387445 0 L 461.90323870451823 171.3824065970837 l -7.1171531387445 0 L 454.7860855657737 175.28709813902 M 472.57896841263494 174.70292772937282 l 7.1171531387445 0 L 479.69612155137946 160.88845381655312 l -7.1171531387445 0 L 472.57896841263494 174.70292772937282 M 490.3718512594962 165.25213639464098 l 7.1171531387445 0 L 497.48900439824075 156.2703906642128 l -7.1171531387445 0 L 490.3718512594962 165.25213639464098 M 508.16473410635746 166.5079519568602 l 7.1171531387445 0 L 515.281887245102 163.69669470148386 l -7.1171531387445 0 L 508.16473410635746 166.5079519568602 M 525.9576169532187 166.427515411642 l 7.1171531387445 0 L 533.0747700919632 162.97226306611236 l -7.1171531387445 0 L 525.9576169532187 166.427515411642 M 543.75049980008 165.99567170950172 l 7.1171531387445 0 L 550.8676529388244 165.33005929782107 l -7.1171531387445 0 L 543.75049980008 165.99567170950172 M 570.4398240703717 171.4698813400085 l 7.1171531387445 0 L 577.5569772091162 170.43426082032403 l -7.1171531387445 0 L 570.4398240703717 171.4698813400085 M 579.3362654938024 170.43476354873167 l 7.1171531387445 0 L 586.4534186325469 169.63190628177236 l -7.1171531387445 0 L 579.3362654938024 170.43476354873167 M 588.232706917233 169.6309008249572 l 7.1171531387445 0 L 595.3498600559775 167.68584461589938 l -7.1171531387445 0 L 588.232706917233 169.6309008249572 M 606.0255897640943 170.10949826900548 l 7.1171531387445 0 L 613.1427429028388 158.58595770968196 l -7.1171531387445 0 L 606.0255897640943 170.10949826900548 M 614.9220311875249 158.58595770968196 l 7.1171531387445 0 L 622.0391843262694 152.14299043770347 l -7.1171531387445 0 L 614.9220311875249 158.58595770968196 M 623.8184726109555 152.14299043770347 l 7.1171531387445 0 L 630.9356257497 147.8642689605024 l -7.1171531387445 0 L 623.8184726109555 152.14299043770347 M 641.6113554578168 151.14054999292154 l 7.1171531387445 0 L 648.7285085965613 142.98026248053432 l -7.1171531387445 0 L 641.6113554578168 151.14054999292154 M 650.5077968812475 142.98026248053432 l 7.1171531387445 0 L 657.624950019992 131.36120352376412 l -7.1171531387445 0 L 650.5077968812475 142.98026248053432 M 659.4042383046781 131.36120352376412 l 7.1171531387445 0 L 666.5213914434225 76.14050977464902 l -7.1171531387445 0 L 659.4042383046781 131.36120352376412 M 677.1971211515394 82.35875744842404 l 7.1171531387445 0 L 684.3142742902838 72.59275540211834 l -7.1171531387445 0 L 677.1971211515394 82.35875744842404 M 694.9900039984005 72.62995730428175 l 7.1171531387445 0 L 702.107157137145 60.78215692204739 l -7.1171531387445 0 L 694.9900039984005 72.62995730428175 M 703.8864454218311 60.78215692204739 l 7.1171531387445 0 L 711.0035985605756 37.36959225106497 l -7.1171531387445 0 L 703.8864454218311 60.78215692204739 M 721.6793282686924 74.05921416712779 l 7.1171531387445 0 L 728.7964814074369 66.59621095610098 l -7.1171531387445 0 L 721.6793282686924 74.05921416712779 M 739.4722111155537 67.99480138608257 l 7.1171531387445 0 L 746.5893642542982 40.19794227230025 l -7.1171531387445 0 L 739.4722111155537 67.99480138608257 M 748.3686525389844 40.19794227230025 l 7.1171531387445 0 L 755.4858056777289 39.31565391693806 l -7.1171531387445 0 L 748.3686525389844 40.19794227230025 M 766.1615353858456 47.76651844892598 l 7.1171531387445 0 L 773.27868852459 39.368440399737466 l -7.1171531387445 0 L 766.1615353858456 47.76651844892598 M 783.9544182327068 43.37619126523467 l 7.1171531387445 0 L 791.0715713714512 32.75705911120838 l -7.1171531387445 0 L 783.9544182327068 43.37619126523467 M 801.747301079568 57.935205949730374 l 7.1171531387445 0 L 808.8644542183125 49.27621185699027 l -7.1171531387445 0 L 801.747301079568 57.935205949730374 M 810.6437425029987 49.27570912858263 l 7.1171531387445 0 L 817.7608956417432 38.43386828998342 l -7.1171531387445 0 L 810.6437425029987 49.27570912858263 M 828.43662534986 39.4116750427923 l 7.1171531387445 0 L 835.5537784886045 34.79411461885951 l -7.1171531387445 0 L 828.43662534986 39.4116750427923 M 837.3330667732906 34.79411461885951 l 7.1171531387445 0 L 844.4502199120351 31.848126150242592 l -7.1171531387445 0 L 837.3330667732906 34.79411461885951 M 846.2295081967213 31.84862887865023 l 7.1171531387445 0 L 853.3466613354658 13.24063959923302 l -7.1171531387445 0 L 846.2295081967213 31.84862887865023 M 872.9188324670131 39.72185847028999 l 7.1171531387445 0 L 880.0359856057576 34.73630085198394 l -7.1171531387445 0 L 872.9188324670131 39.72185847028999"></path><path class="candle body down" d="M 9.964014394242305 138.37778390883 l 7.1171531387445 0 L 17.081167532986804 162.28503333290428 l -7.1171531387445 0 L 9.964014394242305 138.37778390883 M 54.446221511395436 139.22437854725166 l 7.1171531387445 0 L 61.563374650139934 152.48132665602753 l -7.1171531387445 0 L 54.446221511395436 139.22437854725166 M 63.342662934826066 152.48132665602753 l 7.1171531387445 0 L 70.45981607357056 174.74113508835148 l -7.1171531387445 0 L 63.342662934826066 152.48132665602753 M 90.03198720511796 169.19302438192554 l 7.1171531387445 0 L 97.14914034386246 192.25166825394777 l -7.1171531387445 0 L 90.03198720511796 169.19302438192554 M 107.82487005197919 183.20205418849173 l 7.1171531387445 0 L 114.94202319072369 186.1766981763426 l -7.1171531387445 0 L 107.82487005197919 183.20205418849173 M 134.51419432227107 149.2417447973642 l 7.1171531387445 0 L 141.63134746101557 156.7223435026576 l -7.1171531387445 0 L 134.51419432227107 149.2417447973642 M 152.30707716913233 143.11599915059008 l 7.1171531387445 0 L 159.42423030787683 155.6565592785163 l -7.1171531387445 0 L 152.30707716913233 143.11599915059008 M 170.09996001599356 117.72871729450074 l 7.1171531387445 0 L 177.21711315473806 152.1490231785948 l -7.1171531387445 0 L 170.09996001599356 117.72871729450074 M 196.78928428628546 138.57032888894608 l 7.1171531387445 0 L 203.90643742502996 146.96488783928132 l -7.1171531387445 0 L 196.78928428628546 138.57032888894608 M 232.37504998000796 138.87900413122094 l 7.1171531387445 0 L 239.49220311875246 139.36011521730734 l -7.1171531387445 0 L 232.37504998000796 138.87900413122094 M 250.16793282686922 133.68984150783132 l 7.1171531387445 0 L 257.28508596561375 164.09586105712924 l -7.1171531387445 0 L 250.16793282686922 133.68984150783132 M 276.85725709716115 154.3962191606285 l 7.1171531387445 0 L 283.9744102359057 160.99402678215205 l -7.1171531387445 0 L 276.85725709716115 154.3962191606285 M 303.54658136745303 151.70008671059574 l 7.1171531387445 0 L 310.66373450619756 154.80845645487187 l -7.1171531387445 0 L 303.54658136745303 151.70008671059574 M 312.4430227908837 154.8089591832795 l 7.1171531387445 0 L 319.5601759296282 158.77096176368383 l -7.1171531387445 0 L 312.4430227908837 154.8089591832795 M 321.3394642143143 158.77096176368383 l 7.1171531387445 0 L 328.45661735305885 162.59622221721725 l -7.1171531387445 0 L 321.3394642143143 158.77096176368383 M 339.13234706117555 160.14692941532277 l 7.1171531387445 0 L 346.2495001999201 163.37746216264907 l -7.1171531387445 0 L 339.13234706117555 160.14692941532277 M 356.9252299080368 143.72078142494942 l 7.1171531387445 0 L 364.0423830467813 146.7773701432414 l -7.1171531387445 0 L 356.9252299080368 143.72078142494942 M 365.8216713314674 146.80552293406774 l 7.1171531387445 0 L 372.93882447021196 163.28697104927863 l -7.1171531387445 0 L 365.8216713314674 146.80552293406774 M 374.7181127548981 163.19446902227767 l 7.1171531387445 0 L 381.8352658936426 165.64979456506347 l -7.1171531387445 0 L 374.7181127548981 163.19446902227767 M 383.61455417832866 165.64979456506347 l 7.1171531387445 0 L 390.7317073170732 170.0376081067168 l -7.1171531387445 0 L 383.61455417832866 165.64979456506347 M 392.5109956017593 170.0376081067168 l 7.1171531387445 0 L 399.62814874050383 177.58909151748364 l -7.1171531387445 0 L 392.5109956017593 170.0376081067168 M 419.20031987205124 168.49322643852713 l 7.1171531387445 0 L 426.31747301079577 171.22706351913104 l -7.1171531387445 0 L 419.20031987205124 168.49322643852713 M 436.99320271891247 166.52956927838764 l 7.1171531387445 0 L 444.110355857657 173.84175396713033 l -7.1171531387445 0 L 436.99320271891247 166.52956927838764 M 445.8896441423431 173.84175396713033 l 7.1171531387445 0 L 453.00679728108764 175.2634699038622 l -7.1171531387445 0 L 445.8896441423431 173.84175396713033 M 463.68252698920435 171.40553210383388 l 7.1171531387445 0 L 470.7996801279489 174.70292772937282 l -7.1171531387445 0 L 463.68252698920435 171.40553210383388 M 481.47540983606564 160.97542583107037 l 7.1171531387445 0 L 488.59256297481016 165.2526391230486 l -7.1171531387445 0 L 481.47540983606564 160.97542583107037 M 499.2682926829268 156.2703906642128 l 7.1171531387445 0 L 506.38544582167134 166.5074492284526 l -7.1171531387445 0 L 499.2682926829268 156.2703906642128 M 517.0611755297881 163.69669470148386 l 7.1171531387445 0 L 524.1783286685326 166.42701268323438 l -7.1171531387445 0 L 517.0611755297881 163.69669470148386 M 534.8540583766493 162.94411027528602 l 7.1171531387445 0 L 541.9712115153937 165.9951689810941 l -7.1171531387445 0 L 534.8540583766493 162.94411027528602 M 552.6469412235106 165.33005929782107 l 7.1171531387445 0 L 559.764094362255 168.25845227217147 l -7.1171531387445 0 L 552.6469412235106 165.33005929782107 M 561.5433826469413 168.25845227217147 l 7.1171531387445 0 L 568.6605357856857 171.4698813400085 l -7.1171531387445 0 L 561.5433826469413 168.25845227217147 M 597.1291483406637 167.68584461589938 l 7.1171531387445 0 L 604.2463014794082 170.10949826900548 l -7.1171531387445 0 L 597.1291483406637 167.68584461589938 M 632.7149140343862 147.8642689605024 l 7.1171531387445 0 L 639.8320671731307 151.15563184515 l -7.1171531387445 0 L 632.7149140343862 147.8642689605024 M 668.3006797281087 76.14050977464902 l 7.1171531387445 0 L 675.4178328668531 82.35875744842404 l -7.1171531387445 0 L 668.3006797281087 76.14050977464902 M 686.09356257497 72.59325813052597 l 7.1171531387445 0 L 693.2107157137144 72.6390064156188 l -7.1171531387445 0 L 686.09356257497 72.59325813052597 M 712.7828868452618 37.36959225106497 l 7.1171531387445 0 L 719.9000399840063 74.05971689553543 l -7.1171531387445 0 L 712.7828868452618 37.36959225106497 M 730.5757696921231 66.60274642539991 l 7.1171531387445 0 L 737.6929228308676 67.99580684289782 l -7.1171531387445 0 L 730.5757696921231 66.60274642539991 M 757.265093962415 39.31515118853045 l 7.1171531387445 0 L 764.3822471011595 47.773053918225 l -7.1171531387445 0 L 757.265093962415 39.31515118853045 M 775.0579768092763 39.38804680763437 l 7.1171531387445 0 L 782.1751299480208 43.37669399364228 l -7.1171531387445 0 L 775.0579768092763 39.38804680763437 M 792.8508596561375 32.75806456802363 l 7.1171531387445 0 L 799.9680127948819 57.935708678137985 l -7.1171531387445 0 L 792.8508596561375 32.75806456802363 M 819.5401839264293 38.4454310433585 l 7.1171531387445 0 L 826.6573370651738 39.41217777119982 l -7.1171531387445 0 L 819.5401839264293 38.4454310433585 M 855.1259496201519 13.239634142417742 l 7.1171531387445 0 L 862.2431027588964 30.138346835948056 l -7.1171531387445 0 L 855.1259496201519 13.239634142417742 M 864.0223910435824 30.13382228027953 l 7.1171531387445 0 L 871.1395441823269 39.71130117373008 l -7.1171531387445 0 L 864.0223910435824 30.13382228027953 M 881.8152738904437 34.73680358039147 l 7.1171531387445 0 L 888.9324270291881 35.94033538821893 l -7.1171531387445 0 L 881.8152738904437 34.73680358039147"></path><path class="candle body equal"></path><path class="candle wick up" d="M 4.626149540183927 130.98616813168422 L 4.626149540183927 138.3772811804224 M 4.626149540183927 162.64046231708724 L 4.626149540183927 165.2843110127282 M 22.41903238704518 148.6319352389287 L 22.41903238704518 159.02483960952878 M 22.41903238704518 162.30815883965457 L 22.41903238704518 167.13234063911656 M 31.315473810475808 133.55008301051464 L 31.315473810475808 144.00482297525122 M 31.315473810475808 159.04796511627904 L 31.315473810475808 161.99948359737965 M 40.21191523390643 130.43316688330907 L 40.21191523390643 141.29561958662046 M 40.21191523390643 143.95103103563656 L 40.21191523390643 154.85420473996473 M 49.10835665733706 133.08707014710237 L 49.10835665733706 139.204269410947 M 49.10835665733706 141.29561958662046 L 49.10835665733706 154.36303908572603 M 75.79768092762893 164.56842576028617 L 75.79768092762893 169.64598267718557 M 75.79768092762893 174.7984461268194 L 75.79768092762893 181.53450406043675 M 84.69412235105956 162.71587157822933 L 84.69412235105956 169.18598618421896 M 84.69412235105956 169.64598267718557 L 84.69412235105956 174.6732667533236 M 102.48700519792082 179.21491518770668 L 102.48700519792082 183.20205418849173 M 102.48700519792082 192.36226850362283 L 102.48700519792082 196.15384615384613 M 120.27988804478207 166.88097643530966 L 120.27988804478207 167.93318699244537 M 120.27988804478207 186.18574728767965 L 120.27988804478207 187.65723333676527 M 129.1763294682127 146.7482118955998 L 129.1763294682127 149.24073934054903 M 129.1763294682127 167.93318699244537 L 129.1763294682127 172.66235312286838 M 146.96921231507397 140.9904634431989 L 146.96921231507397 143.11599915059008 M 146.96921231507397 156.7459717378154 L 146.96921231507397 161.5404925612283 M 164.7620951619352 108.81584535591561 L 164.7620951619352 117.82624660557775 M 164.7620951619352 155.6565592785163 L 164.7620951619352 156.99381684276904 M 182.55497800879647 143.5041054812679 L 182.55497800879647 144.6985881777583 M 182.55497800879647 152.15002863541002 L 182.55497800879647 159.83222143215662 M 191.4514194322271 133.87032100616466 L 191.4514194322271 138.5240778754456 M 191.4514194322271 144.69456635049738 L 191.4514194322271 155.56958726399915 M 209.24430227908834 141.2418276470058 L 209.24430227908834 144.69557180731266 M 209.24430227908834 146.9643851108737 L 209.24430227908834 151.4949735202893 M 218.14074370251896 137.87354731599333 L 218.14074370251896 140.63905628627685 M 218.14074370251896 144.66792174489382 L 218.14074370251896 159.4677433366366 M 227.0371851259496 137.9740929975161 L 227.0371851259496 138.8785014028133 M 227.0371851259496 140.63905628627685 L 227.0371851259496 146.36965740466658 M 244.83006797281087 128.28551112598294 L 244.83006797281087 133.70090153279878 M 244.83006797281087 139.3596124888997 L 244.83006797281087 142.7912365992715 M 262.6229508196721 150.18436056164006 L 262.6229508196721 154.8089591832795 M 262.6229508196721 164.17227577508655 L 262.6229508196721 166.5034274011917 M 271.51939224310274 153.32088309674262 L 271.51939224310274 154.3962191606285 M 271.51939224310274 154.81750556620892 L 271.51939224310274 160.54659849937576 M 289.31227508996403 153.30730942973702 L 289.31227508996403 156.775129985457 M 289.31227508996403 160.99402678215205 L 289.31227508996403 182.69429849680176 M 298.2087165133947 148.5816623981673 L 298.2087165133947 151.7694632308464 M 298.2087165133947 156.77362180023422 L 298.2087165133947 159.43607144695687 M 333.7944822071172 158.33459350587503 L 333.7944822071172 160.14692941532277 M 333.7944822071172 162.59622221721725 L 333.7944822071172 169.59822347846224 M 351.5873650539784 138.9795498127437 L 351.5873650539784 143.72078142494942 M 351.5873650539784 163.37746216264907 L 351.5873650539784 164.26226416004937 M 404.9660135945622 168.5902530211966 L 404.9660135945622 172.3431205840336 M 404.9660135945622 177.58909151748364 L 404.9660135945622 180.8035369557663 M 413.86245501799283 166.22742950541172 L 413.86245501799283 168.51182738960887 M 413.86245501799283 172.3526724237783 L 413.86245501799283 176.95213462503696 M 431.65533786485406 163.5126961042972 L 431.65533786485406 166.52906654998 M 431.65533786485406 171.25069175428882 L 431.65533786485406 174.16551106163365 M 458.34466213514594 168.64052586195797 L 458.34466213514594 171.3824065970837 M 458.34466213514594 175.28709813902 L 458.34466213514594 176.1794410625345 M 476.13754498200717 159.34005032110264 L 476.13754498200717 160.88845381655312 M 476.13754498200717 174.70292772937282 L 476.13754498200717 175.38110835124382 M 493.93042782886846 154.56413044877155 L 493.93042782886846 156.2703906642128 M 493.93042782886846 165.25213639464098 L 493.93042782886846 166.57933939074138 M 511.7233106757297 162.23174412169726 L 511.7233106757297 163.69669470148386 M 511.7233106757297 166.5079519568602 L 511.7233106757297 171.90826051144768 M 529.5161935225909 160.84823554394404 L 529.5161935225909 162.97226306611236 M 529.5161935225909 166.427515411642 L 529.5161935225909 170.27439318670284 M 547.3090763694522 164.13909570018396 L 547.3090763694522 165.33005929782107 M 547.3090763694522 165.99567170950172 L 547.3090763694522 172.51153460058424 M 573.998400639744 168.79989076717155 L 573.998400639744 170.43426082032403 M 573.998400639744 171.4698813400085 L 573.998400639744 173.67736177784067 M 582.8948420631747 167.16753162764957 L 582.8948420631747 169.63190628177236 M 582.8948420631747 170.43476354873167 L 582.8948420631747 172.10432459041704 M 591.7912834866053 166.5154928829744 L 591.7912834866053 167.68584461589938 M 591.7912834866053 169.6309008249572 L 591.7912834866053 173.09721319545432 M 609.5841663334666 156.1864350201413 L 609.5841663334666 158.58595770968196 M 609.5841663334666 170.10949826900548 L 609.5841663334666 170.51067553828136 M 618.4806077568971 150.84394023242942 L 618.4806077568971 152.14299043770347 M 618.4806077568971 158.58595770968196 L 618.4806077568971 165.07115416789998 M 627.3770491803277 144.8111993410638 L 627.3770491803277 147.8642689605024 M 627.3770491803277 152.14299043770347 L 627.3770491803277 156.0557256341617 M 645.169932027189 141.3474006126047 L 645.169932027189 142.98026248053432 M 645.169932027189 151.14054999292154 L 645.169932027189 152.40239829603217 M 654.0663734506197 122.33923952072686 L 654.0663734506197 131.36120352376412 M 654.0663734506197 142.98026248053432 L 654.0663734506197 145.51501911172312 M 662.9628148740503 57.795950180821336 L 662.9628148740503 76.14050977464902 M 662.9628148740503 131.36120352376412 L 662.9628148740503 132.08161333187476 M 680.7556977209116 60.412148814043604 L 680.7556977209116 72.59275540211834 M 680.7556977209116 82.35875744842404 L 680.7556977209116 87.09797814699938 M 698.5485805677728 55.32554278580713 L 698.5485805677728 60.78215692204739 M 698.5485805677728 72.62995730428175 L 698.5485805677728 79.65759771431513 M 707.4450219912034 34.3617681883116 L 707.4450219912034 37.36959225106497 M 707.4450219912034 60.78215692204739 L 707.4450219912034 66.58665911635629 M 725.2379048380647 53.867630403727105 L 725.2379048380647 66.59621095610098 M 725.2379048380647 74.05921416712779 L 725.2379048380647 80.86414589258824 M 743.0307876849259 38.38711454807532 L 743.0307876849259 40.19794227230025 M 743.0307876849259 67.99480138608257 L 743.0307876849259 72.97130989305157 M 751.9272291083566 32.401127398617774 L 751.9272291083566 39.31565391693806 M 751.9272291083566 40.19794227230025 L 751.9272291083566 49.368211155583595 M 769.7201119552178 37.012655081659176 L 769.7201119552178 39.368440399737466 M 769.7201119552178 47.76651844892598 L 769.7201119552178 51.90698961403328 M 787.512994802079 23.9879674972008 L 787.512994802079 32.75705911120838 M 787.512994802079 43.37619126523467 L 787.512994802079 55.02390574123885 M 805.3058776489403 46.602199456892436 L 805.3058776489403 49.27621185699027 M 805.3058776489403 57.935205949730374 L 805.3058776489403 70.1057579696529 M 814.202319072371 37.78233227371598 L 814.202319072371 38.43386828998342 M 814.202319072371 49.27570912858263 L 814.202319072371 64.05491885561315 M 831.9952019192323 28.37930013770739 L 831.9952019192323 34.79411461885951 M 831.9952019192323 39.4116750427923 L 831.9952019192323 43.46115236612144 M 840.8916433426629 30.80647288966685 L 840.8916433426629 31.848126150242592 M 840.8916433426629 34.79411461885951 L 840.8916433426629 43.15951532155313 M 849.7880847660936 3.846153846153868 L 849.7880847660936 13.24063959923302 M 849.7880847660936 31.84862887865023 L 849.7880847660936 38.94765672256469 M 876.4774090363853 33.004401487754336 L 876.4774090363853 34.73630085198394 M 876.4774090363853 39.72185847028999 L 876.4774090363853 44.064426455258" style="stroke-width: 1px;"></path><path class="candle wick down" d="M 13.522590963614554 135.68064600198187 L 13.522590963614554 138.37778390883 M 13.522590963614554 162.28503333290428 L 13.522590963614554 170.65143949241318 M 58.004798080767685 135.86263368553813 L 58.004798080767685 139.22437854725166 M 58.004798080767685 152.48132665602753 L 58.004798080767685 161.8034195184103 M 66.90123950419832 149.11103541138465 L 66.90123950419832 152.48132665602753 M 66.90123950419832 174.74113508835148 L 66.90123950419832 187.49284114747553 M 93.5905637744902 163.2110590597289 L 93.5905637744902 169.19302438192554 M 93.5905637744902 192.25166825394777 L 93.5905637744902 193.27421783503425 M 111.38344662135144 177.30404451036662 L 111.38344662135144 183.20205418849173 M 111.38344662135144 186.1766981763426 L 111.38344662135144 193.27421783503425 M 138.07277089164333 147.76422600738724 L 138.07277089164333 149.2417447973642 M 138.07277089164333 156.7223435026576 L 138.07277089164333 161.60232815536475 M 155.8656537385046 143.0013770736541 L 155.8656537385046 143.11599915059008 M 155.8656537385046 155.6565592785163 L 155.8656537385046 159.0178014118222 M 173.65853658536582 116.40754703929164 L 173.65853658536582 117.72871729450074 M 173.65853658536582 152.1490231785948 L 173.65853658536582 164.81978996409308 M 200.34786085565773 135.2216549658305 L 200.34786085565773 138.57032888894608 M 200.34786085565773 146.96488783928132 L 200.34786085565773 148.98384512425832 M 235.93362654938022 134.10308425888982 L 235.93362654938022 138.87900413122094 M 235.93362654938022 139.36011521730734 L 235.93362654938022 149.53684637263353 M 253.72650939624148 129.72934711264975 L 253.72650939624148 133.68984150783132 M 253.72650939624148 164.09586105712924 L 253.72650939624148 172.51153460058424 M 280.4158336665334 154.01163192880398 L 280.4158336665334 154.3962191606285 M 280.4158336665334 160.99402678215205 L 280.4158336665334 165.87551962008206 M 307.10515793682526 149.78821057644043 L 307.10515793682526 151.70008671059574 M 307.10515793682526 154.80845645487187 L 307.10515793682526 166.29730875407 M 316.0015993602559 153.6089464743053 L 316.0015993602559 154.8089591832795 M 316.0015993602559 158.77096176368383 L 316.0015993602559 164.11597019343375 M 324.89804078368655 156.15777950090734 L 324.89804078368655 158.77096176368383 M 324.89804078368655 162.59622221721725 L 324.89804078368655 167.34398929872194 M 342.6909236305478 156.9772268053178 L 342.6909236305478 160.14692941532277 M 342.6909236305478 163.37746216264907 L 342.6909236305478 164.0385500186612 M 360.483806477409 141.9959202584265 L 360.483806477409 143.72078142494942 M 360.483806477409 146.7773701432414 L 360.483806477409 149.18342830208098 M 369.38024790083966 144.50956229649552 L 369.38024790083966 146.80552293406774 M 369.38024790083966 163.28697104927863 L 369.38024790083966 167.73561472825313 M 378.2766893242703 161.09959974775097 L 378.2766893242703 163.19446902227767 M 378.2766893242703 165.64979456506347 L 378.2766893242703 177.70522177964241 M 387.1731307477009 163.2110590597289 L 387.1731307477009 165.64979456506347 M 387.1731307477009 170.0376081067168 L 387.1731307477009 175.90746499401544 M 396.06957217113154 168.32682333560697 L 396.06957217113154 170.0376081067168 M 396.06957217113154 177.58909151748364 L 396.06957217113154 186.5879300137707 M 422.7588964414235 167.88643325053727 L 422.7588964414235 168.49322643852713 M 422.7588964414235 171.22706351913104 L 422.7588964414235 174.93016096961426 M 440.5517792882847 165.0228922407691 L 440.5517792882847 166.52956927838764 M 440.5517792882847 173.84175396713033 L 440.5517792882847 181.208736052303 M 449.44822071171535 171.90826051144768 L 449.44822071171535 173.84175396713033 M 449.44822071171535 175.2634699038622 L 449.44822071171535 176.30864226329132 M 467.2411035585766 170.89073821443736 L 467.2411035585766 171.40553210383388 M 467.2411035585766 174.70292772937282 L 467.2411035585766 183.57005138286502 M 485.0339864054379 159.11784436493735 L 485.0339864054379 160.97542583107037 M 485.0339864054379 165.2526391230486 L 485.0339864054379 167.98697893206003 M 502.82686925229905 156.0326001274114 L 502.82686925229905 156.2703906642128 M 502.82686925229905 166.5074492284526 L 502.82686925229905 170.14871108479937 M 520.6197520991603 163.14670982355432 L 520.6197520991603 163.69669470148386 M 520.6197520991603 166.42701268323438 L 520.6197520991603 169.2312317409042 M 538.4126349460215 160.9075574960425 L 538.4126349460215 162.94411027528602 M 538.4126349460215 165.9951689810941 L 538.4126349460215 168.0930546260666 M 556.2055177928828 164.2924278645062 L 556.2055177928828 165.33005929782107 M 556.2055177928828 168.25845227217147 L 556.2055177928828 170.1200555655654 M 565.1019592163135 166.82316266843412 L 565.1019592163135 168.25845227217147 M 565.1019592163135 171.4698813400085 L 565.1019592163135 175.81697388064498 M 600.687724910036 167.05592592115926 L 600.687724910036 167.68584461589938 M 600.687724910036 170.10949826900548 L 600.687724910036 171.6066234668794 M 636.2734906037584 146.16856604162103 L 636.2734906037584 147.8642689605024 M 636.2734906037584 151.15563184515 L 636.2734906037584 154.89392028416617 M 671.8592562974809 65.46909386623082 L 671.8592562974809 76.14050977464902 M 671.8592562974809 82.35875744842404 L 671.8592562974809 99.51536981506028 M 689.6521391443422 69.1003011544253 L 689.6521391443422 72.59325813052597 M 689.6521391443422 72.6390064156188 L 689.6521391443422 86.14279417253317 M 716.3414634146341 21.16715840207982 L 716.3414634146341 37.36959225106497 M 716.3414634146341 74.05971689553543 L 716.3414634146341 101.85305691046446 M 734.1343462614954 56.784460624702405 L 734.1343462614954 66.60274642539991 M 734.1343462614954 67.99580684289782 L 734.1343462614954 77.64668408385991 M 760.8236705317872 31.901415361449637 L 760.8236705317872 39.31515118853045 M 760.8236705317872 47.773053918225 L 760.8236705317872 61.45882935869551 M 778.6165533786485 37.57369998455616 L 778.6165533786485 39.38804680763437 M 778.6165533786485 43.37669399364228 L 778.6165533786485 51.405769391642366 M 796.4094362255097 30.641577971969497 L 796.4094362255097 32.75806456802363 M 796.4094362255097 57.935708678137985 L 796.4094362255097 71.3625789886874 M 823.0987604958016 34.91476943668678 L 823.0987604958016 38.4454310433585 M 823.0987604958016 39.41217777119982 L 823.0987604958016 45.77219485592204 M 858.6845261895241 7.879543860439355 L 858.6845261895241 13.239634142417742 M 858.6845261895241 30.138346835948056 L 858.6845261895241 36.52701943990425 M 867.5809676129546 26.36436467999127 L 867.5809676129546 30.13382228027953 M 867.5809676129546 39.71130117373008 L 867.5809676129546 49.44362041672565 M 885.3738504598159 33.50712989536814 L 885.3738504598159 34.73680358039147 M 885.3738504598159 35.94033538821893 L 885.3738504598159 38.51229392157114" style="stroke-width: 1px;"></path><path class="candle wick equal" style="stroke-width: 1px;"></path></g></g><g class="x axis" transform="translate(0,200)" fill="none" font-size="10" font-family="sans-serif" text-anchor="middle"><path class="domain" stroke="#000" d="M0.5,6V0.5H890.5V6"></path><g class="tick" opacity="1" transform="translate(40.21191523390643,0)"><line stroke="#000" y2="6" x1="0.5" x2="0.5"></line><text fill="#000" y="9" x="0.5" dy="0.71em">May 18</text></g><g class="tick" opacity="1" transform="translate(102.48700519792082,0)"><line stroke="#000" y2="6" x1="0.5" x2="0.5"></line><text fill="#000" y="9" x="0.5" dy="0.71em">May 25</text></g><g class="tick" opacity="1" transform="translate(164.7620951619352,0)"><line stroke="#000" y2="6" x1="0.5" x2="0.5"></line><text fill="#000" y="9" x="0.5" dy="0.71em">Jun  1</text></g><g class="tick" opacity="1" transform="translate(227.0371851259496,0)"><line stroke="#000" y2="6" x1="0.5" x2="0.5"></line><text fill="#000" y="9" x="0.5" dy="0.71em">Jun  8</text></g><g class="tick" opacity="1" transform="translate(289.31227508996403,0)"><line stroke="#000" y2="6" x1="0.5" x2="0.5"></line><text fill="#000" y="9" x="0.5" dy="0.71em">Jun 15</text></g><g class="tick" opacity="1" transform="translate(351.5873650539784,0)"><line stroke="#000" y2="6" x1="0.5" x2="0.5"></line><text fill="#000" y="9" x="0.5" dy="0.71em">Jun 22</text></g><g class="tick" opacity="1" transform="translate(413.86245501799283,0)"><line stroke="#000" y2="6" x1="0.5" x2="0.5"></line><text fill="#000" y="9" x="0.5" dy="0.71em">Jun 29</text></g><g class="tick" opacity="1" transform="translate(476.13754498200717,0)"><line stroke="#000" y2="6" x1="0.5" x2="0.5"></line><text fill="#000" y="9" x="0.5" dy="0.71em">Jul  6</text></g><g class="tick" opacity="1" transform="translate(538.4126349460215,0)"><line stroke="#000" y2="6" x1="0.5" x2="0.5"></line><text fill="#000" y="9" x="0.5" dy="0.71em">Jul 13</text></g><g class="tick" opacity="1" transform="translate(600.687724910036,0)"><line stroke="#000" y2="6" x1="0.5" x2="0.5"></line><text fill="#000" y="9" x="0.5" dy="0.71em">Jul 20</text></g><g class="tick" opacity="1" transform="translate(662.9628148740503,0)"><line stroke="#000" y2="6" x1="0.5" x2="0.5"></line><text fill="#000" y="9" x="0.5" dy="0.71em">Jul 27</text></g><g class="tick" opacity="1" transform="translate(725.2379048380647,0)"><line stroke="#000" y2="6" x1="0.5" x2="0.5"></line><text fill="#000" y="9" x="0.5" dy="0.71em">Aug  3</text></g><g class="tick" opacity="1" transform="translate(787.512994802079,0)"><line stroke="#000" y2="6" x1="0.5" x2="0.5"></line><text fill="#000" y="9" x="0.5" dy="0.71em">Aug 10</text></g><g class="tick" opacity="1" transform="translate(849.7880847660936,0)"><line stroke="#000" y2="6" x1="0.5" x2="0.5"></line><text fill="#000" y="9" x="0.5" dy="0.71em">Aug 17</text></g></g><g class="y axis" fill="none" font-size="10" font-family="sans-serif" text-anchor="end"><path class="domain" stroke="#000" d="M-6,200.5H0.5V0.5H-6"></path><g class="tick" opacity="1" transform="translate(0,178.1923656066202)"><line stroke="#000" x2="-6" y1="0.5" y2="0.5"></line><text fill="#000" x="-9" y="0.5" dy="0.32em">9,000</text></g><g class="tick" opacity="1" transform="translate(0,153.05594522593015)"><line stroke="#000" x2="-6" y1="0.5" y2="0.5"></line><text fill="#000" x="-9" y="0.5" dy="0.32em">9,500</text></g><g class="tick" opacity="1" transform="translate(0,127.91952484524006)"><line stroke="#000" x2="-6" y1="0.5" y2="0.5"></line><text fill="#000" x="-9" y="0.5" dy="0.32em">10,000</text></g><g class="tick" opacity="1" transform="translate(0,102.78310446455)"><line stroke="#000" x2="-6" y1="0.5" y2="0.5"></line><text fill="#000" x="-9" y="0.5" dy="0.32em">10,500</text></g><g class="tick" opacity="1" transform="translate(0,77.64668408385991)"><line stroke="#000" x2="-6" y1="0.5" y2="0.5"></line><text fill="#000" x="-9" y="0.5" dy="0.32em">11,000</text></g><g class="tick" opacity="1" transform="translate(0,52.51026370316984)"><line stroke="#000" x2="-6" y1="0.5" y2="0.5"></line><text fill="#000" x="-9" y="0.5" dy="0.32em">11,500</text></g><g class="tick" opacity="1" transform="translate(0,27.373843322479757)"><line stroke="#000" x2="-6" y1="0.5" y2="0.5"></line><text fill="#000" x="-9" y="0.5" dy="0.32em">12,000</text></g><g class="tick" opacity="1" transform="translate(0,2.2374229417897027)"><line stroke="#000" x2="-6" y1="0.5" y2="0.5"></line><text fill="#000" x="-9" y="0.5" dy="0.32em">12,500</text></g><text transform="rotate(-90)" y="6" dy=".71em" style="text-anchor: end;">Price ($)</text></g></g></svg>