<?xml version="1.0" encoding="utf-8"?>
<!DOCTYPE svg PUBLIC "-//W3C//DTD SVG 1.1//EN" "http://www.w3.org/Graphics/SVG/1.1/DTD/svg11.dtd">
<svg version="1.1" xmlns="http://www.w3.org/2000/svg" width="960" height="250"><g transform="translate(50,20)"><style>.axis path,.axis line{fill:none;stroke:#000;shape-rendering:crispEdges;}path.candle{stroke:#000000;}path.candle.body{stroke-width:0;}path.candle.up{fill:#00AA00;stroke:#00AA00;}path.candle.down{fill:#FF0000;stroke:#FF0000;}</style><g class="candlestick"><g class="data"><path class="candle body up" d="M 1.0675729708116766 195.48595988580107 l 7.1171531387445 0 L 8.184726109556177 186.86081617030226 l -7.1171531387445 0 L 1.0675729708116766 195.48595988580107 M 9.964014394242305 186.86081617030226 l 7.1171531387445 0 L 17.081167532986804 180.25722227985096 l -7.1171531387445 0 L 9.964014394242305 186.86081617030226 M 18.860455817672932 180.25726745919673 l 7.1171531387445 0 L 25.977608956417434 178.85562343702054 l -7.1171531387445 0 L 18.860455817672932 180.25726745919673 M 27.75689724110356 178.85562343702054 l 7.1171531387445 0 L 34.87405037984806 175.62882420571998 l -7.1171531387445 0 L 27.75689724110356 178.85562343702054 M 54.446221511395436 180.60636826371436 l 7.1171531387445 0 L 61.563374650139934 175.67770825780852 l -7.1171531387445 0 L 54.446221511395436 180.60636826371436 M 72.23910435825668 178.29088161529535 l 7.1171531387445 0 L 79.35625749700118 176.04632653968497 l -7.1171531387445 0 L 72.23910435825668 178.29088161529535 M 81.13554578168731 176.04727530594548 l 7.1171531387445 0 L 88.25269892043181 171.60397701130313 l -7.1171531387445 0 L 81.13554578168731 176.04727530594548 M 90.03198720511796 171.60397701130313 l 7.1171531387445 0 L 97.14914034386246 163.5578969701285 l -7.1171531387445 0 L 90.03198720511796 171.60397701130313 M 107.82487005197919 164.51502140958834 l 7.1171531387445 0 L 114.94202319072369 160.9102969511893 l -7.1171531387445 0 L 107.82487005197919 164.51502140958834 M 116.72131147540982 160.91025177184358 l 7.1171531387445 0 L 123.83846461415432 159.5296613247813 l -7.1171531387445 0 L 116.72131147540982 160.91025177184358 M 125.61775289884046 159.5296613247813 l 7.1171531387445 0 L 132.73490603758498 152.79549912514713 l -7.1171531387445 0 L 125.61775289884046 159.5296613247813 M 134.51419432227107 152.7954539458014 l 7.1171531387445 0 L 141.63134746101557 152.578231651493 l -7.1171531387445 0 L 134.51419432227107 152.7954539458014 M 143.4106357457017 152.578231651493 l 7.1171531387445 0 L 150.5277888844462 150.73464326930758 l -7.1171531387445 0 L 143.4106357457017 152.578231651493 M 152.30707716913233 150.73459808996182 l 7.1171531387445 0 L 159.42423030787683 137.8737099941411 l -7.1171531387445 0 L 152.30707716913233 150.73459808996182 M 161.20351859256294 137.88220371113988 l 7.1171531387445 0 L 168.32067173130744 134.16123279615692 l -7.1171531387445 0 L 161.20351859256294 137.88220371113988 M 178.9964014394242 138.72570209606863 l 7.1171531387445 0 L 186.1135545781687 129.87154427702384 l -7.1171531387445 0 L 178.9964014394242 138.72570209606863 M 187.89284286285485 129.87154427702384 l 7.1171531387445 0 L 195.00999600159935 117.13173682778103 l -7.1171531387445 0 L 187.89284286285485 129.87154427702384 M 196.78928428628546 117.13173682778103 l 7.1171531387445 0 L 203.90643742502996 105.10083849251343 l -7.1171531387445 0 L 196.78928428628546 117.13173682778103 M 205.68572570971608 105.09993490559864 l 7.1171531387445 0 L 212.80287884846058 99.90281922731754 l -7.1171531387445 0 L 205.68572570971608 105.09993490559864 M 250.16793282686922 129.42146763478172 l 7.1171531387445 0 L 257.28508596561375 114.41184985566103 l -7.1171531387445 0 L 250.16793282686922 129.42146763478172 M 259.06437425029986 114.41184985566103 l 7.1171531387445 0 L 266.1815273890444 106.40100970416204 l -7.1171531387445 0 L 259.06437425029986 114.41184985566103 M 294.65013994402244 121.398338701242 l 7.1171531387445 0 L 301.76729308276697 117.7556184130773 l -7.1171531387445 0 L 294.65013994402244 121.398338701242 M 330.23590563774496 143.86602733675707 l 7.1171531387445 0 L 337.3530587764895 134.40917704556716 l -7.1171531387445 0 L 330.23590563774496 143.86602733675707 M 348.02878848460614 138.32699436993065 l 7.1171531387445 0 L 355.14594162335067 137.50518207095612 l -7.1171531387445 0 L 348.02878848460614 138.32699436993065 M 365.8216713314674 137.53097947737257 l 7.1171531387445 0 L 372.93882447021196 136.56603901110003 l -7.1171531387445 0 L 365.8216713314674 137.53097947737257 M 383.61455417832866 146.0789116910051 l 7.1171531387445 0 L 390.7317073170732 132.51304508428836 l -7.1171531387445 0 L 383.61455417832866 146.0789116910051 M 392.5109956017593 132.49804554150336 l 7.1171531387445 0 L 399.62814874050383 128.50410101957135 l -7.1171531387445 0 L 392.5109956017593 132.49804554150336 M 401.40743702518995 128.53084719224825 l 7.1171531387445 0 L 408.5245901639345 128.45584947832313 l -7.1171531387445 0 L 401.40743702518995 128.53084719224825 M 419.20031987205124 133.7414263155593 l 7.1171531387445 0 L 426.31747301079577 131.7833534712737 l -7.1171531387445 0 L 419.20031987205124 133.7414263155593 M 428.0967612954818 131.8252799041186 l 7.1171531387445 0 L 435.21391443422635 123.0191477295933 l -7.1171531387445 0 L 428.0967612954818 131.8252799041186 M 436.99320271891247 122.9899166929008 l 7.1171531387445 0 L 444.110355857657 113.29370622799087 l -7.1171531387445 0 L 436.99320271891247 122.9899166929008 M 454.7860855657737 116.37593155292976 l 7.1171531387445 0 L 461.90323870451823 110.26050049317774 l -7.1171531387445 0 L 454.7860855657737 116.37593155292976 M 463.68252698920435 110.26465699298564 l 7.1171531387445 0 L 470.7996801279489 106.20926856084988 l -7.1171531387445 0 L 463.68252698920435 110.26465699298564 M 481.47540983606564 107.97691046284973 l 7.1171531387445 0 L 488.59256297481016 73.73467109978453 l -7.1171531387445 0 L 481.47540983606564 107.97691046284973 M 490.3718512594962 73.73471627913028 l 7.1171531387445 0 L 497.48900439824075 73.52887917994791 l -7.1171531387445 0 L 490.3718512594962 73.73471627913028 M 508.16473410635746 80.81558477795797 l 7.1171531387445 0 L 515.281887245102 66.53019191101762 l -7.1171531387445 0 L 508.16473410635746 80.81558477795797 M 534.8540583766493 70.2020528771834 l 7.1171531387445 0 L 541.9712115153937 63.78202266846563 l -7.1171531387445 0 L 534.8540583766493 70.2020528771834 M 552.6469412235106 66.7940844694734 l 7.1171531387445 0 L 559.764094362255 61.271587143187105 l -7.1171531387445 0 L 552.6469412235106 66.7940844694734 M 561.5433826469413 61.271587143187105 l 7.1171531387445 0 L 568.6605357856857 47.779859842826454 l -7.1171531387445 0 L 561.5433826469413 61.271587143187105 M 579.3362654938024 50.34198053962936 l 7.1171531387445 0 L 586.4534186325469 30.673649345387446 l -7.1171531387445 0 L 579.3362654938024 50.34198053962936 M 597.1291483406637 30.966456685115503 l 7.1171531387445 0 L 604.2463014794082 23.885136392830418 l -7.1171531387445 0 L 597.1291483406637 30.966456685115503 M 623.8184726109555 62.36696038060526 l 7.1171531387445 0 L 630.9356257497 58.81947815325631 l -7.1171531387445 0 L 623.8184726109555 62.36696038060526 M 668.3006797281087 79.34034360157456 l 7.1171531387445 0 L 675.4178328668531 59.22234237920219 l -7.1171531387445 0 L 668.3006797281087 79.34034360157456 M 686.09356257497 64.41986467159495 l 7.1171531387445 0 L 693.2107157137144 55.77814013621031 l -7.1171531387445 0 L 686.09356257497 64.41986467159495 M 703.8864454218311 64.70232594114904 l 7.1171531387445 0 L 711.0035985605756 62.99626348739008 l -7.1171531387445 0 L 703.8864454218311 64.70232594114904 M 712.7828868452618 63.018401366801726 l 7.1171531387445 0 L 719.9000399840063 62.40671820485474 l -7.1171531387445 0 L 712.7828868452618 63.018401366801726 M 721.6793282686924 62.40671820485474 l 7.1171531387445 0 L 728.7964814074369 52.9662680161677 l -7.1171531387445 0 L 721.6793282686924 62.40671820485474 M 730.5757696921231 53.02337470918056 l 7.1171531387445 0 L 737.6929228308676 46.62570827660315 l -7.1171531387445 0 L 730.5757696921231 53.02337470918056 M 739.4722111155537 46.62566309725739 l 7.1171531387445 0 L 746.5893642542982 35.28871951252572 l -7.1171531387445 0 L 739.4722111155537 46.62566309725739 M 748.3686525389844 35.333130809386205 l 7.1171531387445 0 L 755.4858056777289 30.919470165547978 l -7.1171531387445 0 L 748.3686525389844 35.333130809386205 M 757.265093962415 30.919470165547978 l 7.1171531387445 0 L 764.3822471011595 22.237942626568127 l -7.1171531387445 0 L 757.265093962415 30.919470165547978 M 775.0579768092763 24.729312467945277 l 7.1171531387445 0 L 782.1751299480208 6.808156932083904 l -7.1171531387445 0 L 775.0579768092763 24.729312467945277 M 801.747301079568 32.03264406518696 l 7.1171531387445 0 L 808.8644542183125 26.179433928098348 l -7.1171531387445 0 L 801.747301079568 32.03264406518696 M 810.6437425029987 26.17947910744408 l 7.1171531387445 0 L 817.7608956417432 17.088355620003426 l -7.1171531387445 0 L 810.6437425029987 26.17947910744408 M 828.43662534986 22.83503285984176 l 7.1171531387445 0 L 835.5537784886045 21.077511131287167 l -7.1171531387445 0 L 828.43662534986 22.83503285984176 M 837.3330667732906 21.077511131287167 l 7.1171531387445 0 L 844.4502199120351 20.750999999638594 l -7.1171531387445 0 L 837.3330667732906 21.077511131287167 M 864.0223910435824 38.90871458978421 l 7.1171531387445 0 L 871.1395441823269 37.74471392619 l -7.1171531387445 0 L 864.0223910435824 38.90871458978421 M 881.8152738904437 46.94878577797567 l 7.1171531387445 0 L 888.9324270291881 46.94313835975842 l -7.1171531387445 0 L 881.8152738904437 46.94878577797567"></path><path class="candle body down" d="M 36.65333866453418 175.62886938506574 l 7.1171531387445 0 L 43.77049180327868 177.282794873843 l -7.1171531387445 0 L 36.65333866453418 175.62886938506574 M 45.54978008796481 177.28270451515152 l 7.1171531387445 0 L 52.66693322670931 180.6071363125919 l -7.1171531387445 0 L 45.54978008796481 177.28270451515152 M 63.342662934826066 175.67770825780852 l 7.1171531387445 0 L 70.45981607357056 178.28920997950303 l -7.1171531387445 0 L 63.342662934826066 175.67770825780852 M 98.92842862854857 163.55785179078276 l 7.1171531387445 0 L 106.04558176729307 164.5144792574395 l -7.1171531387445 0 L 98.92842862854857 163.55785179078276 M 170.09996001599356 134.16123279615692 l 7.1171531387445 0 L 177.21711315473806 138.73040074802537 l -7.1171531387445 0 L 170.09996001599356 134.16123279615692 M 214.5821671331467 99.88406979883626 l 7.1171531387445 0 L 221.6993202718912 102.13734448817404 l -7.1171531387445 0 L 214.5821671331467 99.88406979883626 M 223.47860855657734 102.13734448817404 l 7.1171531387445 0 L 230.59576169532184 110.8940052791162 l -7.1171531387445 0 L 223.47860855657734 102.13734448817404 M 232.37504998000796 110.8940052791162 l 7.1171531387445 0 L 239.49220311875246 123.29822054821702 l -7.1171531387445 0 L 232.37504998000796 110.8940052791162 M 241.2714914034386 123.27156473423157 l 7.1171531387445 0 L 248.3886445421831 129.41202515152247 l -7.1171531387445 0 L 241.2714914034386 123.27156473423157 M 267.9608156737305 106.39780197061464 l 7.1171531387445 0 L 275.07796881247504 117.254353572114 l -7.1171531387445 0 L 267.9608156737305 106.39780197061464 M 276.85725709716115 117.27599447872251 l 7.1171531387445 0 L 283.9744102359057 120.63033500304145 l -7.1171531387445 0 L 276.85725709716115 117.27599447872251 M 285.7536985205918 120.63033500304145 l 7.1171531387445 0 L 292.8708516593363 121.38198377808483 l -7.1171531387445 0 L 285.7536985205918 120.63033500304145 M 303.54658136745303 117.79542141667247 l 7.1171531387445 0 L 310.66373450619756 121.0978960520842 l -7.1171531387445 0 L 303.54658136745303 117.79542141667247 M 312.4430227908837 121.05068363578796 l 7.1171531387445 0 L 319.5601759296282 123.01015703979142 l -7.1171531387445 0 L 312.4430227908837 121.05068363578796 M 321.3394642143143 123.01015703979142 l 7.1171531387445 0 L 328.45661735305885 143.87443069506435 l -7.1171531387445 0 L 321.3394642143143 123.01015703979142 M 339.13234706117555 134.3873554215757 l 7.1171531387445 0 L 346.2495001999201 138.32699436993065 l -7.1171531387445 0 L 339.13234706117555 134.3873554215757 M 356.9252299080368 137.50721514151434 l 7.1171531387445 0 L 364.0423830467813 137.5309342980268 l -7.1171531387445 0 L 356.9252299080368 137.50721514151434 M 374.7181127548981 136.58302644509752 l 7.1171531387445 0 L 381.8352658936426 146.0610206700928 l -7.1171531387445 0 L 374.7181127548981 136.58302644509752 M 410.3038784486206 128.4558042989774 l 7.1171531387445 0 L 417.4210315873651 133.74138113621353 l -7.1171531387445 0 L 410.3038784486206 128.4558042989774 M 445.8896441423431 113.28742629893328 l 7.1171531387445 0 L 453.00679728108764 116.37588637358401 l -7.1171531387445 0 L 445.8896441423431 113.28742629893328 M 472.57896841263494 106.23605991287252 l 7.1171531387445 0 L 479.69612155137946 107.97691046284973 l -7.1171531387445 0 L 472.57896841263494 106.23605991287252 M 499.2682926829268 73.52887917994791 l 7.1171531387445 0 L 506.38544582167134 80.81558477795797 l -7.1171531387445 0 L 499.2682926829268 73.52887917994791 M 517.0611755297881 66.53403215540536 l 7.1171531387445 0 L 524.1783286685326 69.61101667623868 l -7.1171531387445 0 L 517.0611755297881 66.53403215540536 M 525.9576169532187 69.56335246648504 l 7.1171531387445 0 L 533.0747700919632 70.21601329501641 l -7.1171531387445 0 L 525.9576169532187 69.56335246648504 M 543.75049980008 63.76991460380785 l 7.1171531387445 0 L 550.8676529388244 66.7940844694734 l -7.1171531387445 0 L 543.75049980008 63.76991460380785 M 570.4398240703717 47.78907642935707 l 7.1171531387445 0 L 577.5569772091162 50.342025718975066 l -7.1171531387445 0 L 570.4398240703717 47.78907642935707 M 588.232706917233 30.673649345387446 l 7.1171531387445 0 L 595.3498600559775 30.966456685115503 l -7.1171531387445 0 L 588.232706917233 30.673649345387446 M 606.0255897640943 23.86805860014144 l 7.1171531387445 0 L 613.1427429028388 38.888745318968034 l -7.1171531387445 0 L 606.0255897640943 23.86805860014144 M 614.9220311875249 38.888745318968034 l 7.1171531387445 0 L 622.0391843262694 62.36696038060526 l -7.1171531387445 0 L 614.9220311875249 38.888745318968034 M 632.7149140343862 58.81943297391058 l 7.1171531387445 0 L 639.8320671731307 70.57726734353759 l -7.1171531387445 0 L 632.7149140343862 58.81943297391058 M 641.6113554578168 70.57726734353759 l 7.1171531387445 0 L 648.7285085965613 74.17742868801709 l -7.1171531387445 0 L 641.6113554578168 70.57726734353759 M 650.5077968812475 74.17738350867138 l 7.1171531387445 0 L 657.624950019992 74.94746545677584 l -7.1171531387445 0 L 650.5077968812475 74.17738350867138 M 659.4042383046781 74.95993495619953 l 7.1171531387445 0 L 666.5213914434225 79.33334080298515 l -7.1171531387445 0 L 659.4042383046781 74.95993495619953 M 677.1971211515394 59.18290081037287 l 7.1171531387445 0 L 684.3142742902838 64.40161221591677 l -7.1171531387445 0 L 677.1971211515394 59.18290081037287 M 694.9900039984005 55.77814013621031 l 7.1171531387445 0 L 702.107157137145 64.70232594114904 l -7.1171531387445 0 L 694.9900039984005 55.77814013621031 M 766.1615353858456 22.237987805913832 l 7.1171531387445 0 L 773.27868852459 24.729312467945277 l -7.1171531387445 0 L 766.1615353858456 22.237987805913832 M 783.9544182327068 6.808202111429608 l 7.1171531387445 0 L 791.0715713714512 16.838333120689242 l -7.1171531387445 0 L 783.9544182327068 6.808202111429608 M 792.8508596561375 16.803228769050776 l 7.1171531387445 0 L 799.9680127948819 32.03264406518696 l -7.1171531387445 0 L 792.8508596561375 16.803228769050776 M 819.5401839264293 17.088355620003426 l 7.1171531387445 0 L 826.6573370651738 22.80268444829332 l -7.1171531387445 0 L 819.5401839264293 17.088355620003426 M 846.2295081967213 20.76121053177536 l 7.1171531387445 0 L 853.3466613354658 24.142703842882895 l -7.1171531387445 0 L 846.2295081967213 20.76121053177536 M 855.1259496201519 24.142703842882895 l 7.1171531387445 0 L 862.2431027588964 38.90871458978421 l -7.1171531387445 0 L 855.1259496201519 24.142703842882895 M 872.9188324670131 37.736084671154 l 7.1171531387445 0 L 880.0359856057576 46.948830957321405 l -7.1171531387445 0 L 872.9188324670131 37.736084671154"></path><path class="candle body equal"></path><path class="candle wick up" d="M 4.626149540183927 185.8466302171753 L 4.626149540183927 186.86081617030226 M 4.626149540183927 195.48595988580107 L 4.626149540183927 196.15384615384616 M 13.522590963614554 175.72645677185983 L 13.522590963614554 180.25722227985096 M 13.522590963614554 186.86081617030226 L 13.522590963614554 187.3375486265298 M 22.41903238704518 178.05237984914436 L 22.41903238704518 178.85562343702054 M 22.41903238704518 180.25726745919673 L 22.41903238704518 182.27746190387208 M 31.315473810475808 174.04817961572977 L 31.315473810475808 175.62882420571998 M 31.315473810475808 178.85562343702054 L 31.315473810475808 180.47028807435146 M 58.004798080767685 175.5588413991718 L 58.004798080767685 175.67770825780852 M 58.004798080767685 180.60636826371436 L 58.004798080767685 182.26210092632115 M 75.79768092762893 175.7516216674359 L 75.79768092762893 176.04632653968497 M 75.79768092762893 178.29088161529535 L 75.79768092762893 180.68073346679915 M 84.69412235105956 171.25433405463664 L 84.69412235105956 171.60397701130313 M 84.69412235105956 176.04727530594548 L 84.69412235105956 177.38182799970073 M 93.5905637744902 161.8698158959733 L 93.5905637744902 163.5578969701285 M 93.5905637744902 171.60397701130313 L 93.5905637744902 172.56390257019876 M 111.38344662135144 159.01009884879412 L 111.38344662135144 160.9102969511893 M 111.38344662135144 164.51502140958834 L 111.38344662135144 165.33068931754246 M 120.27988804478207 159.41671296043626 L 120.27988804478207 159.5296613247813 M 120.27988804478207 160.91025177184358 L 120.27988804478207 166.32915285835261 M 129.1763294682127 152.251268726387 L 129.1763294682127 152.79549912514713 M 129.1763294682127 159.5296613247813 L 129.1763294682127 159.8233270720784 M 138.07277089164333 150.87781661595133 L 138.07277089164333 152.578231651493 M 138.07277089164333 152.7954539458014 L 138.07277089164333 157.42882174796358 M 146.96921231507397 149.5224362438109 L 146.96921231507397 150.73464326930758 M 146.96921231507397 152.578231651493 L 146.96921231507397 153.92936516513413 M 155.8656537385046 132.80607832074514 L 155.8656537385046 137.8737099941411 M 155.8656537385046 150.73459808996182 L 155.8656537385046 152.47477094975298 M 164.7620951619352 126.12807404786335 L 164.7620951619352 134.16123279615692 M 164.7620951619352 137.88220371113988 L 164.7620951619352 138.84660202526356 M 182.55497800879647 128.0170676725155 L 182.55497800879647 129.87154427702384 M 182.55497800879647 138.72570209606863 L 182.55497800879647 148.1670558716704 M 191.4514194322271 116.36436564042084 L 191.4514194322271 117.13173682778103 M 191.4514194322271 129.87154427702384 L 191.4514194322271 132.86029353563077 M 200.34786085565773 100.88687055683724 L 200.34786085565773 105.10083849251343 M 200.34786085565773 117.13173682778103 L 200.34786085565773 119.25227459934052 M 209.24430227908834 93.72594425736179 L 209.24430227908834 99.90281922731754 M 209.24430227908834 105.09993490559864 L 209.24430227908834 118.34868768458021 M 253.72650939624148 112.24947600994813 L 253.72650939624148 114.41184985566103 M 253.72650939624148 129.42146763478172 L 253.72650939624148 136.96257812864258 M 262.6229508196721 102.08412321889465 L 262.6229508196721 106.40100970416204 M 262.6229508196721 114.41184985566103 L 262.6229508196721 117.43954371029412 M 298.2087165133947 113.96705919687025 L 298.2087165133947 117.7556184130773 M 298.2087165133947 121.398338701242 L 298.2087165133947 126.02917646004283 M 333.7944822071172 130.42725022960144 L 333.7944822071172 134.40917704556716 M 333.7944822071172 143.86602733675707 L 333.7944822071172 152.91088717416204 M 351.5873650539784 133.8406853381457 L 351.5873650539784 137.50518207095612 M 351.5873650539784 138.32699436993065 L 351.5873650539784 143.64912129786887 M 369.38024790083966 134.514399741791 L 369.38024790083966 136.56603901110003 M 369.38024790083966 137.53097947737257 L 369.38024790083966 143.93207954022606 M 387.1731307477009 130.61948834571666 L 387.1731307477009 132.51304508428836 M 387.1731307477009 146.0789116910051 L 387.1731307477009 148.42864428349353 M 396.06957217113154 109.16869642407285 L 396.06957217113154 128.50410101957135 M 396.06957217113154 132.49804554150336 L 396.06957217113154 139.06161053163078 M 404.9660135945622 125.42829116172723 L 404.9660135945622 128.45584947832313 M 404.9660135945622 128.53084719224825 L 404.9660135945622 134.9520972433009 M 422.7588964414235 126.40294518733346 L 422.7588964414235 131.7833534712737 M 422.7588964414235 133.7414263155593 L 422.7588964414235 137.3413617633101 M 431.65533786485406 120.67845100625246 L 431.65533786485406 123.0191477295933 M 431.65533786485406 131.8252799041186 L 431.65533786485406 132.27296204103658 M 440.5517792882847 113.09600141104134 L 440.5517792882847 113.29370622799087 M 440.5517792882847 122.9899166929008 L 440.5517792882847 123.48838041442833 M 458.34466213514594 110.17068395385054 L 458.34466213514594 110.26050049317774 M 458.34466213514594 116.37593155292976 L 458.34466213514594 118.0324322644141 M 467.2411035585766 98.21898501166169 L 467.2411035585766 106.20926856084988 M 467.2411035585766 110.26465699298564 L 467.2411035585766 110.59618303201117 M 485.0339864054379 71.8390361113089 L 485.0339864054379 73.73467109978453 M 485.0339864054379 107.97691046284973 L 485.0339864054379 111.62198007699283 M 493.93042782886846 65.7500349688136 L 493.93042782886846 73.52887917994791 M 493.93042782886846 73.73471627913028 L 493.93042782886846 80.12203664153373 M 511.7233106757297 63.32521430370858 L 511.7233106757297 66.53019191101762 M 511.7233106757297 80.81558477795797 L 511.7233106757297 84.49119562981997 M 538.4126349460215 58.67838305651648 L 538.4126349460215 63.78202266846563 M 538.4126349460215 70.2020528771834 L 538.4126349460215 70.84635552675323 M 556.2055177928828 54.242900788686796 L 556.2055177928828 61.271587143187105 M 556.2055177928828 66.7940844694734 L 556.2055177928828 70.8940197365068 M 565.1019592163135 45.52527495246227 L 565.1019592163135 47.779859842826454 M 565.1019592163135 61.271587143187105 L 565.1019592163135 62.11395604447239 M 582.8948420631747 28.586363572291106 L 582.8948420631747 30.673649345387446 M 582.8948420631747 50.34198053962936 L 582.8948420631747 54.147933803945506 M 600.687724910036 19.61916703020981 L 600.687724910036 23.885136392830418 M 600.687724910036 30.966456685115503 L 600.687724910036 32.60917769614977 M 627.3770491803277 51.14445607862797 L 627.3770491803277 58.81947815325631 M 627.3770491803277 62.36696038060526 L 627.3770491803277 70.96147249969366 M 671.8592562974809 58.305337198757684 L 671.8592562974809 59.22234237920219 M 671.8592562974809 79.34034360157456 L 671.8592562974809 80.16974603063305 M 689.6521391443422 45.42922366342327 L 689.6521391443422 55.77814013621031 M 689.6521391443422 64.41986467159495 L 689.6521391443422 65.93743889493487 M 707.4450219912034 59.846269143844154 L 707.4450219912034 62.99626348739008 M 707.4450219912034 64.70232594114904 L 707.4450219912034 74.07292886132507 M 716.3414634146341 60.970918597300596 L 716.3414634146341 62.40671820485474 M 716.3414634146341 63.018401366801726 L 716.3414634146341 70.59411923949787 M 725.2379048380647 50.8054302682099 L 725.2379048380647 52.9662680161677 M 725.2379048380647 62.40671820485474 L 725.2379048380647 62.40671820485474 M 734.1343462614954 46.50096810302048 L 734.1343462614954 46.62570827660315 M 734.1343462614954 53.02337470918056 L 734.1343462614954 60.63356442267482 M 743.0307876849259 35.241281199500804 L 743.0307876849259 35.28871951252572 M 743.0307876849259 46.62566309725739 L 743.0307876849259 49.272133632553135 M 751.9272291083566 23.97947086673142 L 751.9272291083566 30.919470165547978 M 751.9272291083566 35.333130809386205 L 751.9272291083566 43.78017754398573 M 760.8236705317872 20.535404161776768 L 760.8236705317872 22.237942626568127 M 760.8236705317872 30.919470165547978 L 760.8236705317872 38.05224973262861 M 778.6165533786485 3.846153846153868 L 778.6165533786485 6.808156932083904 M 778.6165533786485 24.729312467945277 L 778.6165533786485 29.895525473741543 M 805.3058776489403 26.009830664197807 L 805.3058776489403 26.179433928098348 M 805.3058776489403 32.03264406518696 L 805.3058776489403 42.57687084959946 M 814.202319072371 16.809327980725385 L 814.202319072371 17.088355620003426 M 814.202319072371 26.17947910744408 L 814.202319072371 38.72600931561968 M 831.9952019192323 14.580766393506337 L 831.9952019192323 21.077511131287167 M 831.9952019192323 22.83503285984176 L 831.9952019192323 29.025777888939047 M 840.8916433426629 12.719377349100085 L 840.8916433426629 20.750999999638594 M 840.8916433426629 21.077511131287167 L 840.8916433426629 22.025554522253742 M 867.5809676129546 31.01294623187988 L 867.5809676129546 37.74471392619 M 867.5809676129546 38.90871458978421 L 867.5809676129546 43.80276721685473 M 885.3738504598159 44.25456067423488 L 885.3738504598159 46.94313835975842 M 885.3738504598159 46.94878577797567 L 885.3738504598159 50.57966907755704" style="stroke-width: 1px;"></path><path class="candle wick down" d="M 40.21191523390643 173.49007915782806 L 40.21191523390643 175.62886938506574 M 40.21191523390643 177.282794873843 L 40.21191523390643 179.06972835647298 M 49.10835665733706 174.35856172094995 L 49.10835665733706 177.28270451515152 M 49.10835665733706 180.6071363125919 L 49.10835665733706 184.6945569008559 M 66.90123950419832 174.37107639971936 L 66.90123950419832 175.67770825780852 M 66.90123950419832 178.28920997950303 L 66.90123950419832 181.1479782604217 M 102.48700519792082 154.8445631717491 L 102.48700519792082 163.55785179078276 M 102.48700519792082 164.5144792574395 L 102.48700519792082 167.1423810816369 M 173.65853658536582 131.45069794860467 L 173.65853658536582 134.16123279615692 M 173.65853658536582 138.73040074802537 L 173.65853658536582 156.16380006729915 M 218.14074370251896 96.30116696442867 L 218.14074370251896 99.88406979883626 M 218.14074370251896 102.13734448817404 L 218.14074370251896 108.31887293074078 M 227.0371851259496 96.43670500164272 L 227.0371851259496 102.13734448817404 M 227.0371851259496 110.8940052791162 L 227.0371851259496 124.62360183478744 M 235.93362654938022 110.3757078248097 L 235.93362654938022 110.8940052791162 M 235.93362654938022 123.29822054821702 L 235.93362654938022 145.8177298932936 M 244.83006797281087 117.77039205913361 L 244.83006797281087 123.27156473423157 M 244.83006797281087 129.41202515152247 L 244.83006797281087 136.28037000799856 M 271.51939224310274 103.6755204931705 L 271.51939224310274 106.39780197061464 M 271.51939224310274 117.254353572114 L 271.51939224310274 127.80020681297304 M 280.4158336665334 111.79768255256796 L 280.4158336665334 117.27599447872251 M 280.4158336665334 120.63033500304145 L 280.4158336665334 123.50907255477632 M 289.31227508996403 116.75611574731516 L 289.31227508996403 120.63033500304145 M 289.31227508996403 121.38198377808483 L 289.31227508996403 130.3212143051543 M 307.10515793682526 112.24947600994813 L 307.10515793682526 117.79542141667247 M 307.10515793682526 121.0978960520842 L 307.10515793682526 121.31218168891961 M 316.0015993602559 118.73131156363547 L 316.0015993602559 121.05068363578796 M 316.0015993602559 123.01015703979142 L 316.0015993602559 132.354284863365 M 324.89804078368655 122.4148288010016 L 324.89804078368655 123.01015703979142 M 324.89804078368655 143.87443069506435 L 324.89804078368655 147.39448905955035 M 342.6909236305478 132.10128052723212 L 342.6909236305478 134.3873554215757 M 342.6909236305478 138.32699436993065 L 342.6909236305478 141.4346104871743 M 360.483806477409 125.69033136700773 L 360.483806477409 137.50721514151434 M 360.483806477409 137.5309342980268 L 360.483806477409 139.0860073783293 M 378.2766893242703 136.1615935080533 L 378.2766893242703 136.58302644509752 M 378.2766893242703 146.0610206700928 L 378.2766893242703 151.14112184291247 M 413.86245501799283 128.095273119988 L 413.86245501799283 128.4558042989774 M 413.86245501799283 133.74138113621353 L 413.86245501799283 137.90379943840267 M 449.44822071171535 108.37186830329148 L 449.44822071171535 113.28742629893328 M 449.44822071171535 116.37588637358401 L 449.44822071171535 119.87597546725384 M 476.13754498200717 103.89129704841527 L 476.13754498200717 106.23605991287252 M 476.13754498200717 107.97691046284973 L 476.13754498200717 114.5039253622751 M 502.82686925229905 69.50981494178552 L 502.82686925229905 73.52887917994791 M 502.82686925229905 80.81558477795797 L 502.82686925229905 85.69757451971644 M 520.6197520991603 61.938660183008864 L 520.6197520991603 66.53403215540536 M 520.6197520991603 69.61101667623868 L 520.6197520991603 74.86356741174033 M 529.5161935225909 65.7147498997922 L 529.5161935225909 69.56335246648504 M 529.5161935225909 70.21601329501641 L 529.5161935225909 74.5132919442335 M 547.3090763694522 61.825169666514995 L 547.3090763694522 63.76991460380785 M 547.3090763694522 66.7940844694734 L 547.3090763694522 77.3674519318869 M 573.998400639744 45.926196466541455 L 573.998400639744 47.78907642935707 M 573.998400639744 50.342025718975066 L 573.998400639744 53.281845746147724 M 591.7912834866053 22.566396470083504 L 591.7912834866053 30.673649345387446 M 591.7912834866053 30.966456685115503 L 591.7912834866053 39.899588000510334 M 609.5841663334666 23.433794728907685 L 609.5841663334666 23.86805860014144 M 609.5841663334666 38.888745318968034 L 609.5841663334666 68.10021935475942 M 618.4806077568971 38.45538503464897 L 618.4806077568971 38.888745318968034 M 618.4806077568971 62.36696038060526 L 618.4806077568971 80.43165069787632 M 636.2734906037584 48.1321683808915 L 636.2734906037584 58.81943297391058 M 636.2734906037584 70.57726734353759 L 636.2734906037584 72.38168523296822 M 645.169932027189 64.47633885376746 L 645.169932027189 70.57726734353759 M 645.169932027189 74.17742868801709 L 645.169932027189 83.98175332727811 M 654.0663734506197 64.61237386378463 L 654.0663734506197 74.17738350867138 M 654.0663734506197 74.94746545677584 L 654.0663734506197 79.94624380726707 M 662.9628148740503 72.5437887254762 L 662.9628148740503 74.95993495619953 M 662.9628148740503 79.33334080298515 L 662.9628148740503 88.98211295487017 M 680.7556977209116 56.452984023499056 L 680.7556977209116 59.18290081037287 M 680.7556977209116 64.40161221591677 L 680.7556977209116 70.69532097395103 M 698.5485805677728 49.34229715648425 L 698.5485805677728 55.77814013621031 M 698.5485805677728 64.70232594114904 L 698.5485805677728 68.6514073727632 M 769.7201119552178 20.84483750073639 L 769.7201119552178 22.237987805913832 M 769.7201119552178 24.729312467945277 L 769.7201119552178 34.93478451801414 M 787.512994802079 4.384736826696724 L 787.512994802079 6.808202111429608 M 787.512994802079 16.838333120689242 L 787.512994802079 16.84524556058716 M 796.4094362255097 9.315429903160776 L 796.4094362255097 16.803228769050776 M 796.4094362255097 32.03264406518696 L 796.4094362255097 36.574071898772274 M 823.0987604958016 11.590029243686928 L 823.0987604958016 17.088355620003426 M 823.0987604958016 22.80268444829332 L 823.0987604958016 25.627116426451124 M 849.7880847660936 18.55157909042049 L 849.7880847660936 20.76121053177536 M 849.7880847660936 24.142703842882895 L 849.7880847660936 32.73333053823782 M 858.6845261895241 19.2670843888734 L 858.6845261895241 24.142703842882895 M 858.6845261895241 38.90871458978421 L 858.6845261895241 40.866109743883726 M 876.4774090363853 24.827442006888248 L 876.4774090363853 37.736084671154 M 876.4774090363853 46.948830957321405 L 876.4774090363853 49.67608216279672" style="stroke-width: 1px;"></path><path class="candle wick equal" style="stroke-width: 1px;"></path></g></g><g class="x axis" transform="translate(0,200)" fill="none" font-size="10" font-family="sans-serif" text-anchor="middle"><path class="domain" stroke="#000" d="M0.5,6V0.5H890.5V6"></path><g class="tick" opacity="1" transform="translate(49.10835665733706,0)"><line stroke="#000" y2="6" x1="0.5" x2="0.5"></line><text fill="#000" y="9" x="0.5" dy="0.71em">Dec 21</text></g><g class="tick" opacity="1" transform="translate(111.38344662135144,0)"><line stroke="#000" y2="6" x1="0.5" x2="0.5"></line><text fill="#000" y="9" x="0.5" dy="0.71em">Dec 28</text></g><g class="tick" opacity="1" transform="translate(173.65853658536582,0)"><line stroke="#000" y2="6" x1="0.5" x2="0.5"></line><text fill="#000" y="9" x="0.5" dy="0.71em">Jan  4</text></g><g class="tick" opacity="1" transform="translate(235.93362654938022,0)"><line stroke="#000" y2="6" x1="0.5" x2="0.5"></line><text fill="#000" y="9" x="0.5" dy="0.71em">Jan 11</text></g><g class="tick" opacity="1" transform="translate(298.2087165133947,0)"><line stroke="#000" y2="6" x1="0.5" x2="0.5"></line><text fill="#000" y="9" x="0.5" dy="0.71em">Jan 18</text></g><g class="tick" opacity="1" transform="translate(360.483806477409,0)"><line stroke="#000" y2="6" x1="0.5" x2="0.5"></line><text fill="#000" y="9" x="0.5" dy="0.71em">Jan 25</text></g><g class="tick" opacity="1" transform="translate(422.7588964414235,0)"><line stroke="#000" y2="6" x1="0.5" x2="0.5"></line><text fill="#000" y="9" x="0.5" dy="0.71em">Feb  1</text></g><g class="tick" opacity="1" transform="translate(485.0339864054379,0)"><line stroke="#000" y2="6" x1="0.5" x2="0.5"></line><text fill="#000" y="9" x="0.5" dy="0.71em">Feb  8</text></g><g class="tick" opacity="1" transform="translate(547.3090763694522,0)"><line stroke="#000" y2="6" x1="0.5" x2="0.5"></line><text fill="#000" y="9" x="0.5" dy="0.71em">Feb 15</text></g><g class="tick" opacity="1" transform="translate(609.5841663334666,0)"><line stroke="#000" y2="6" x1="0.5" x2="0.5"></line><text fill="#000" y="9" x="0.5" dy="0.71em">Feb 22</text></g><g class="tick" opacity="1" transform="translate(671.8592562974809,0)"><line stroke="#000" y2="6" x1="0.5" x2="0.5"></line><text fill="#000" y="9" x="0.5" dy="0.71em">Mar  1</text></g><g class="tick" opacity="1" transform="translate(734.1343462614954,0)"><line stroke="#000" y2="6" x1="0.5" x2="0.5"></line><text fill="#000" y="9" x="0.5" dy="0.71em">Mar  8</text></g><g class="tick" opacity="1" transform="translate(796.4094362255097,0)"><line stroke="#000" y2="6" x1="0.5" x2="0.5"></line><text fill="#000" y="9" x="0.5" dy="0.71em">Mar 15</text></g><g class="tick" opacity="1" transform="translate(858.6845261895241,0)"><line stroke="#000" y2="6" x1="0.5" x2="0.5"></line><text fill="#000" y="9" x="0.5" dy="0.71em">Mar 22</text></g></g><g class="y axis" fill="none" font-size="10" font-family="sans-serif" text-anchor="end"><path class="domain" stroke="#000" d="M-6,200.5H0.5V0.5H-6"></path><g class="tick" opacity="1" transform="translate(0,192.89460815230572)"><line stroke="#000" x2="-6" y1="0.5" y2="0.5"></line><text fill="#000" x="-9" y="0.5" dy="0.32em">20,000</text></g><g class="tick" opacity="1" transform="translate(0,170.304935283298)"><line stroke="#000" x2="-6" y1="0.5" y2="0.5"></line><text fill="#000" x="-9" y="0.5" dy="0.32em">25,000</text></g><g class="tick" opacity="1" transform="translate(0,147.71526241429027)"><line stroke="#000" x2="-6" y1="0.5" y2="0.5"></line><text fill="#000" x="-9" y="0.5" dy="0.32em">30,000</text></g><g class="tick" opacity="1" transform="translate(0,125.12558954528254)"><line stroke="#000" x2="-6" y1="0.5" y2="0.5"></line><text fill="#000" x="-9" y="0.5" dy="0.32em">35,000</text></g><g class="tick" opacity="1" transform="translate(0,102.53591667627481)"><line stroke="#000" x2="-6" y1="0.5" y2="0.5"></line><text fill="#000" x="-9" y="0.5" dy="0.32em">40,000</text></g><g class="tick" opacity="1" transform="translate(0,79.94624380726707)"><line stroke="#000" x2="-6" y1="0.5" y2="0.5"></line><text fill="#000" x="-9" y="0.5" dy="0.32em">45,000</text></g><g class="tick" opacity="1" transform="translate(0,57.35657093825935)"><line stroke="#000" x2="-6" y1="0.5" y2="0.5"></line><text fill="#000" x="-9" y="0.5" dy="0.32em">50,000</text></g><g class="tick" opacity="1" transform="translate(0,34.76689806925165)"><line stroke="#000" x2="-6" y1="0.5" y2="0.5"></line><text fill="#000" x="-9" y="0.5" dy="0.32em">55,000</text></g><g class="tick" opacity="1" transform="translate(0,12.177225200243925)"><line stroke="#000" x2="-6" y1="0.5" y2="0.5"></line><text fill="#000" x="-9" y="0.5" dy="0.32em">60,000</text></g><text transform="rotate(-90)" y="6" dy=".71em" style="text-anchor: end;">Price ($)</text></g></g></svg>