<?xml version="1.0" encoding="utf-8"?>
<!DOCTYPE svg PUBLIC "-//W3C//DTD SVG 1.1//EN" "http://www.w3.org/Graphics/SVG/1.1/DTD/svg11.dtd">
<svg version="1.1" xmlns="http://www.w3.org/2000/svg" width="960" height="250"><g transform="translate(50,20)"><style>.axis path,.axis line{fill:none;stroke:#000;shape-rendering:crispEdges;}path.candle{stroke:#000000;}path.candle.body{stroke-width:0;}path.candle.up{fill:#00AA00;stroke:#00AA00;}path.candle.down{fill:#FF0000;stroke:#FF0000;}</style><g class="candlestick"><g class="data"><path class="candle body up" d="M 9.964014394242305 186.0903228316833 l 7.1171531387445 0 L 17.081167532986804 184.23005291630946 l -7.1171531387445 0 L 9.964014394242305 186.0903228316833 M 36.65333866453418 192.6114374321428 l 7.1171531387445 0 L 43.77049180327868 191.19156825870397 l -7.1171531387445 0 L 36.65333866453418 192.6114374321428 M 54.446221511395436 194.83188592332178 l 7.1171531387445 0 L 61.563374650139934 188.5801156664668 l -7.1171531387445 0 L 54.446221511395436 194.83188592332178 M 72.23910435825668 189.2086279129174 l 7.1171531387445 0 L 79.35625749700118 188.67764560702156 l -7.1171531387445 0 L 72.23910435825668 189.2086279129174 M 81.13554578168731 188.67777194114143 l 7.1171531387445 0 L 88.25269892043181 188.1009303497257 l -7.1171531387445 0 L 81.13554578168731 188.67777194114143 M 98.92842862854857 189.08810516254275 l 7.1171531387445 0 L 106.04558176729307 187.26421947369712 l -7.1171531387445 0 L 98.92842862854857 189.08810516254275 M 143.4106357457017 191.0341559453216 l 7.1171531387445 0 L 150.5277888844462 189.4605381479772 l -7.1171531387445 0 L 143.4106357457017 191.0341559453216 M 152.30707716913233 189.46066448209706 l 7.1171531387445 0 L 159.42423030787683 187.87403427040405 l -7.1171531387445 0 L 152.30707716913233 189.46066448209706 M 170.09996001599356 190.30672408299748 l 7.1171531387445 0 L 177.21711315473806 189.46357016685454 l -7.1171531387445 0 L 170.09996001599356 190.30672408299748 M 178.9964014394242 189.46344383273464 l 7.1171531387445 0 L 186.1135545781687 186.1892424475568 l -7.1171531387445 0 L 178.9964014394242 189.46344383273464 M 187.89284286285485 186.19088479111537 l 7.1171531387445 0 L 195.00999600159935 184.60918161009806 l -7.1171531387445 0 L 187.89284286285485 186.19088479111537 M 196.78928428628546 184.60918161009806 l 7.1171531387445 0 L 203.90643742502996 181.544568529817 l -7.1171531387445 0 L 196.78928428628546 184.60918161009806 M 205.68572570971608 181.544568529817 l 7.1171531387445 0 L 212.80287884846058 180.5869559010541 l -7.1171531387445 0 L 205.68572570971608 181.544568529817 M 214.5821671331467 180.5869559010541 l 7.1171531387445 0 L 221.6993202718912 178.5753377100526 l -7.1171531387445 0 L 214.5821671331467 180.5869559010541 M 241.2714914034386 179.9695610571538 l 7.1171531387445 0 L 248.3886445421831 178.86754852935715 l -7.1171531387445 0 L 241.2714914034386 179.9695610571538 M 259.06437425029986 181.21584714986437 l 7.1171531387445 0 L 266.1815273890444 180.6983825947967 l -7.1171531387445 0 L 259.06437425029986 181.21584714986437 M 267.9608156737305 180.69699291947794 l 7.1171531387445 0 L 275.07796881247504 178.8925626850953 l -7.1171531387445 0 L 267.9608156737305 180.69699291947794 M 276.85725709716115 178.8925626850953 l 7.1171531387445 0 L 283.9744102359057 175.75530748587775 l -7.1171531387445 0 L 276.85725709716115 178.8925626850953 M 285.7536985205918 175.75543381999765 l 7.1171531387445 0 L 292.8708516593363 173.7526590173884 l -7.1171531387445 0 L 285.7536985205918 175.75543381999765 M 294.65013994402244 173.7525326832685 l 7.1171531387445 0 L 301.76729308276697 162.74933617736707 l -7.1171531387445 0 L 294.65013994402244 173.7525326832685 M 303.54658136745303 162.75198919388473 l 7.1171531387445 0 L 310.66373450619756 160.37981342471838 l -7.1171531387445 0 L 303.54658136745303 162.75198919388473 M 321.3394642143143 160.95412833373635 l 7.1171531387445 0 L 328.45661735305885 158.57058249377997 l -7.1171531387445 0 L 321.3394642143143 160.95412833373635 M 339.13234706117555 159.60765928395338 l 7.1171531387445 0 L 346.2495001999201 159.32277584360241 l -7.1171531387445 0 L 339.13234706117555 159.60765928395338 M 348.02878848460614 159.32328118008198 l 7.1171531387445 0 L 355.14594162335067 151.94511591029166 l -7.1171531387445 0 L 348.02878848460614 159.32328118008198 M 365.8216713314674 156.61657266144806 l 7.1171531387445 0 L 372.93882447021196 154.2250677719386 l -7.1171531387445 0 L 365.8216713314674 156.61657266144806 M 374.7181127548981 154.2251941060585 l 7.1171531387445 0 L 381.8352658936426 152.90613956029156 l -7.1171531387445 0 L 374.7181127548981 154.2251941060585 M 383.61455417832866 152.90613956029156 l 7.1171531387445 0 L 390.7317073170732 149.98908473204153 l -7.1171531387445 0 L 383.61455417832866 152.90613956029156 M 410.3038784486206 153.03841138381597 l 7.1171531387445 0 L 417.4210315873651 147.0514374422495 l -7.1171531387445 0 L 410.3038784486206 153.03841138381597 M 419.20031987205124 147.0514374422495 l 7.1171531387445 0 L 426.31747301079577 145.52936396582007 l -7.1171531387445 0 L 419.20031987205124 147.0514374422495 M 428.0967612954818 145.52936396582007 l 7.1171531387445 0 L 435.21391443422635 127.26132389566925 l -7.1171531387445 0 L 428.0967612954818 145.52936396582007 M 454.7860855657737 137.01078059578668 l 7.1171531387445 0 L 461.90323870451823 128.71315560144012 l -7.1171531387445 0 L 454.7860855657737 137.01078059578668 M 481.47540983606564 130.96051326015558 l 7.1171531387445 0 L 488.59256297481016 126.07100381806978 l -7.1171531387445 0 L 481.47540983606564 130.96051326015558 M 490.3718512594962 126.07087748394989 l 7.1171531387445 0 L 497.48900439824075 118.3946900253401 l -7.1171531387445 0 L 490.3718512594962 126.07087748394989 M 499.2682926829268 118.39481635945998 l 7.1171531387445 0 L 506.38544582167134 118.03034242357859 l -7.1171531387445 0 L 499.2682926829268 118.39481635945998 M 525.9576169532187 122.62511436396204 l 7.1171531387445 0 L 533.0747700919632 113.06705385547731 l -7.1171531387445 0 L 525.9576169532187 122.62511436396204 M 534.8540583766493 113.07324422735188 l 7.1171531387445 0 L 541.9712115153937 101.11824646220246 l -7.1171531387445 0 L 534.8540583766493 113.07324422735188 M 543.75049980008 101.11824646220246 l 7.1171531387445 0 L 550.8676529388244 99.64342194661174 l -7.1171531387445 0 L 543.75049980008 101.11824646220246 M 552.6469412235106 99.6228294850697 l 7.1171531387445 0 L 559.764094362255 99.30610984650659 l -7.1171531387445 0 L 552.6469412235106 99.6228294850697 M 561.5433826469413 99.30623618062644 l 7.1171531387445 0 L 568.6605357856857 88.53170443172516 l -7.1171531387445 0 L 561.5433826469413 99.30623618062644 M 570.4398240703717 88.53183076584503 l 7.1171531387445 0 L 577.5569772091162 87.92365831269666 l -7.1171531387445 0 L 570.4398240703717 88.53183076584503 M 597.1291483406637 92.16583172446835 l 7.1171531387445 0 L 604.2463014794082 82.16016942921489 l -7.1171531387445 0 L 597.1291483406637 92.16583172446835 M 632.7149140343862 107.68572568466148 l 7.1171531387445 0 L 639.8320671731307 100.3543040392303 l -7.1171531387445 0 L 632.7149140343862 107.68572568466148 M 641.6113554578168 100.35443037335018 l 7.1171531387445 0 L 648.7285085965613 94.4779987866871 l -7.1171531387445 0 L 641.6113554578168 100.35443037335018 M 650.5077968812475 94.47787245256723 l 7.1171531387445 0 L 657.624950019992 75.39042928081273 l -7.1171531387445 0 L 650.5077968812475 94.47787245256723 M 668.3006797281087 87.1509988354521 l 7.1171531387445 0 L 675.4178328668531 81.60328862874167 l -7.1171531387445 0 L 668.3006797281087 87.1509988354521 M 677.1971211515394 81.60341496286154 l 7.1171531387445 0 L 684.3142742902838 78.85160516342707 l -7.1171531387445 0 L 677.1971211515394 81.60341496286154 M 694.9900039984005 88.59689283758816 l 7.1171531387445 0 L 702.107157137145 82.3161920672785 l -7.1171531387445 0 L 694.9900039984005 88.59689283758816 M 703.8864454218311 82.3161920672785 l 7.1171531387445 0 L 711.0035985605756 79.64119341273684 l -7.1171531387445 0 L 703.8864454218311 82.3161920672785 M 730.5757696921231 92.72043851078351 l 7.1171531387445 0 L 737.6929228308676 89.97684042914187 l -7.1171531387445 0 L 730.5757696921231 92.72043851078351 M 757.265093962415 96.3535551305676 l 7.1171531387445 0 L 764.3822471011595 86.59853972917504 l -7.1171531387445 0 L 757.265093962415 96.3535551305676 M 766.1615353858456 86.59853972917504 l 7.1171531387445 0 L 773.27868852459 81.97092091762028 l -7.1171531387445 0 L 766.1615353858456 86.59853972917504 M 775.0579768092763 81.97092091762028 l 7.1171531387445 0 L 782.1751299480208 80.73095153090424 l -7.1171531387445 0 L 775.0579768092763 81.97092091762028 M 783.9544182327068 80.72400315431032 l 7.1171531387445 0 L 791.0715713714512 78.7943758071171 l -7.1171531387445 0 L 783.9544182327068 80.72400315431032 M 792.8508596561375 78.7943758071171 l 7.1171531387445 0 L 799.9680127948819 54.6760553131204 l -7.1171531387445 0 L 792.8508596561375 78.7943758071171 M 801.747301079568 54.6760553131204 l 7.1171531387445 0 L 808.8644542183125 36.210555013582194 l -7.1171531387445 0 L 801.747301079568 54.6760553131204 M 810.6437425029987 36.210681347702064 l 7.1171531387445 0 L 817.7608956417432 32.29129161224827 l -7.1171531387445 0 L 810.6437425029987 36.210681347702064 M 819.5401839264293 32.29129161224827 l 7.1171531387445 0 L 826.6573370651738 23.26825610149581 l -7.1171531387445 0 L 819.5401839264293 32.29129161224827 M 846.2295081967213 37.18686509208874 l 7.1171531387445 0 L 853.3466613354658 23.404949619216325 l -7.1171531387445 0 L 846.2295081967213 37.18686509208874 M 864.0223910435824 30.7121151136287 l 7.1171531387445 0 L 871.1395441823269 24.435709703395275 l -7.1171531387445 0 L 864.0223910435824 30.7121151136287 M 872.9188324670131 24.43836271991296 l 7.1171531387445 0 L 880.0359856057576 12.013654697014147 l -7.1171531387445 0 L 872.9188324670131 24.43836271991296 M 881.8152738904437 12.013654697014147 l 7.1171531387445 0 L 888.9324270291881 4.338477911363469 l -7.1171531387445 0 L 881.8152738904437 12.013654697014147"></path><path class="candle body down" d="M 1.0675729708116766 186.00694231255616 l 7.1171531387445 0 L 8.184726109556177 186.0904491658032 l -7.1171531387445 0 L 1.0675729708116766 186.00694231255616 M 18.860455817672932 184.23017925042936 l 7.1171531387445 0 L 25.977608956417434 186.25607319697838 l -7.1171531387445 0 L 18.860455817672932 184.23017925042936 M 27.75689724110356 186.25607319697838 l 7.1171531387445 0 L 34.87405037984806 192.6114374321428 l -7.1171531387445 0 L 27.75689724110356 186.25607319697838 M 45.54978008796481 191.19156825870397 l 7.1171531387445 0 L 52.66693322670931 194.83188592332178 l -7.1171531387445 0 L 45.54978008796481 191.19156825870397 M 63.342662934826066 188.5799893323469 l 7.1171531387445 0 L 70.45981607357056 189.2073645717185 l -7.1171531387445 0 L 63.342662934826066 188.5799893323469 M 90.03198720511796 188.1008040156058 l 7.1171531387445 0 L 97.14914034386246 189.08797882842285 l -7.1171531387445 0 L 90.03198720511796 188.1008040156058 M 107.82487005197919 187.26295613249823 l 7.1171531387445 0 L 114.94202319072369 188.07136816567154 l -7.1171531387445 0 L 107.82487005197919 187.26295613249823 M 116.72131147540982 188.07136816567154 l 7.1171531387445 0 L 123.83846461415432 190.0606252174526 l -7.1171531387445 0 L 116.72131147540982 188.07136816567154 M 125.61775289884046 190.0606252174526 l 7.1171531387445 0 L 132.73490603758498 190.67625138367447 l -7.1171531387445 0 L 125.61775289884046 190.0606252174526 M 134.51419432227107 190.67625138367447 l 7.1171531387445 0 L 141.63134746101557 191.03428227944147 l -7.1171531387445 0 L 134.51419432227107 190.67625138367447 M 161.20351859256294 187.87416060452392 l 7.1171531387445 0 L 168.32067173130744 190.30659774887758 l -7.1171531387445 0 L 161.20351859256294 187.87416060452392 M 223.47860855657734 178.5754640441725 l 7.1171531387445 0 L 230.59576169532184 179.9358298471433 l -7.1171531387445 0 L 223.47860855657734 178.5754640441725 M 232.37504998000796 179.9357035130234 l 7.1171531387445 0 L 239.49220311875246 179.9695610571538 l -7.1171531387445 0 L 232.37504998000796 179.9357035130234 M 250.16793282686922 178.86742219523728 l 7.1171531387445 0 L 257.28508596561375 181.21483647690525 l -7.1171531387445 0 L 250.16793282686922 178.86742219523728 M 312.4430227908837 160.3757707328819 l 7.1171531387445 0 L 319.5601759296282 160.95400199961645 l -7.1171531387445 0 L 312.4430227908837 160.3757707328819 M 330.23590563774496 158.57058249377997 l 7.1171531387445 0 L 337.3530587764895 159.61789234766442 l -7.1171531387445 0 L 330.23590563774496 158.57058249377997 M 356.9252299080368 151.94524224441156 l 7.1171531387445 0 L 364.0423830467813 156.61657266144806 l -7.1171531387445 0 L 356.9252299080368 151.94524224441156 M 392.5109956017593 149.98908473204153 l 7.1171531387445 0 L 399.62814874050383 150.36177038571577 l -7.1171531387445 0 L 392.5109956017593 149.98908473204153 M 401.40743702518995 150.36189671983567 l 7.1171531387445 0 L 408.5245901639345 153.04169607093306 l -7.1171531387445 0 L 401.40743702518995 150.36189671983567 M 436.99320271891247 127.26132389566925 l 7.1171531387445 0 L 444.110355857657 127.3889213567577 l -7.1171531387445 0 L 436.99320271891247 127.26132389566925 M 445.8896441423431 127.38879502263781 l 7.1171531387445 0 L 453.00679728108764 137.01078059578668 l -7.1171531387445 0 L 445.8896441423431 127.38879502263781 M 463.68252698920435 128.71315560144012 l 7.1171531387445 0 L 470.7996801279489 130.56635080610013 l -7.1171531387445 0 L 463.68252698920435 128.71315560144012 M 472.57896841263494 130.56635080610013 l 7.1171531387445 0 L 479.69612155137946 130.96051326015558 l -7.1171531387445 0 L 472.57896841263494 130.56635080610013 M 508.16473410635746 118.0386804754913 l 7.1171531387445 0 L 515.281887245102 121.19185377381493 l -7.1171531387445 0 L 508.16473410635746 118.0386804754913 M 517.0611755297881 121.20309751048511 l 7.1171531387445 0 L 524.1783286685326 122.62511436396204 l -7.1171531387445 0 L 517.0611755297881 121.20309751048511 M 579.3362654938024 87.92365831269666 l 7.1171531387445 0 L 586.4534186325469 91.57938873994095 l -7.1171531387445 0 L 579.3362654938024 87.92365831269666 M 588.232706917233 91.58633711653488 l 7.1171531387445 0 L 595.3498600559775 92.1659580585882 l -7.1171531387445 0 L 588.232706917233 91.58633711653488 M 606.0255897640943 82.16029576333477 l 7.1171531387445 0 L 613.1427429028388 87.73024077514573 l -7.1171531387445 0 L 606.0255897640943 82.16029576333477 M 614.9220311875249 87.73377813050263 l 7.1171531387445 0 L 622.0391843262694 107.56014956949122 l -7.1171531387445 0 L 614.9220311875249 87.73377813050263 M 623.8184726109555 107.56014956949122 l 7.1171531387445 0 L 630.9356257497 107.68585201878133 l -7.1171531387445 0 L 623.8184726109555 107.56014956949122 M 659.4042383046781 75.39042928081273 l 7.1171531387445 0 L 666.5213914434225 87.1509988354521 l -7.1171531387445 0 L 659.4042383046781 75.39042928081273 M 686.09356257497 78.84604646215195 l 7.1171531387445 0 L 693.2107157137144 88.59676650346826 l -7.1171531387445 0 L 686.09356257497 78.84604646215195 M 712.7828868452618 79.65041580348881 l 7.1171531387445 0 L 719.9000399840063 82.07312522061095 l -7.1171531387445 0 L 712.7828868452618 79.65041580348881 M 721.6793282686924 82.07312522061095 l 7.1171531387445 0 L 728.7964814074369 92.72043851078351 l -7.1171531387445 0 L 721.6793282686924 82.07312522061095 M 739.4722111155537 89.97671409502195 l 7.1171531387445 0 L 746.5893642542982 93.59820797577618 l -7.1171531387445 0 L 739.4722111155537 89.97671409502195 M 748.3686525389844 93.59593396161816 l 7.1171531387445 0 L 755.4858056777289 96.3535551305676 l -7.1171531387445 0 L 748.3686525389844 93.59593396161816 M 828.43662534986 23.268382435615734 l 7.1171531387445 0 L 835.5537784886045 27.89322189653288 l -7.1171531387445 0 L 828.43662534986 23.268382435615734 M 837.3330667732906 27.892969228293083 l 7.1171531387445 0 L 844.4502199120351 37.18901277212689 l -7.1171531387445 0 L 837.3330667732906 27.892969228293083 M 855.1259496201519 23.404949619216325 l 7.1171531387445 0 L 862.2431027588964 30.70744075119279 l -7.1171531387445 0 L 855.1259496201519 23.404949619216325"></path><path class="candle body equal"></path><path class="candle wick up" d="M 13.522590963614554 182.9775764517243 L 13.522590963614554 184.23005291630946 M 13.522590963614554 186.0903228316833 L 13.522590963614554 186.67183878553493 M 40.21191523390643 190.64706820197998 L 40.21191523390643 191.19156825870397 M 40.21191523390643 192.6114374321428 L 40.21191523390643 193.42275515007356 M 58.004798080767685 187.83575503207751 L 58.004798080767685 188.5801156664668 M 58.004798080767685 194.83188592332178 L 58.004798080767685 195.47025223112374 M 75.79768092762893 187.51107634396132 L 75.79768092762893 188.67764560702156 M 75.79768092762893 189.2086279129174 L 75.79768092762893 189.73784154113477 M 84.69412235105956 187.78825340299903 L 84.69412235105956 188.1009303497257 M 84.69412235105956 188.67777194114143 L 84.69412235105956 190.36774346290414 M 102.48700519792082 186.92235934527594 L 102.48700519792082 187.26421947369712 M 102.48700519792082 189.08810516254275 L 102.48700519792082 189.84914190075747 M 146.96921231507397 189.07850376943114 L 146.96921231507397 189.4605381479772 M 146.96921231507397 191.0341559453216 L 146.96921231507397 191.33988451545432 M 155.8656537385046 187.800886814988 L 155.8656537385046 187.87403427040405 M 155.8656537385046 189.46066448209706 L 155.8656537385046 190.10471582529408 M 173.65853658536582 189.26800494926547 L 173.65853658536582 189.46357016685454 M 173.65853658536582 190.30672408299748 L 173.65853658536582 190.98235895616688 M 182.55497800879647 185.8806081926666 L 182.55497800879647 186.1892424475568 M 182.55497800879647 189.46344383273464 L 182.55497800879647 191.18146152911282 M 191.4514194322271 183.9269773626944 L 191.4514194322271 184.60918161009806 M 191.4514194322271 186.19088479111537 L 191.4514194322271 187.40925104333033 M 200.34786085565773 179.04593230664122 L 200.34786085565773 181.544568529817 M 200.34786085565773 184.60918161009806 L 200.34786085565773 184.61082395365662 M 209.24430227908834 179.62706925813322 L 209.24430227908834 180.5869559010541 M 209.24430227908834 181.544568529817 L 209.24430227908834 182.45695354365944 M 218.14074370251896 176.1527546270503 L 218.14074370251896 178.5753377100526 M 218.14074370251896 180.5869559010541 L 218.14074370251896 183.07599073111828 M 244.83006797281087 177.44982703595645 L 244.83006797281087 178.86754852935715 M 244.83006797281087 179.9695610571538 L 244.83006797281087 182.08009886402886 M 262.6229508196721 180.16499994062298 L 262.6229508196721 180.6983825947967 M 262.6229508196721 181.21584714986437 L 262.6229508196721 182.02741753603493 M 271.51939224310274 178.86906453879584 L 271.51939224310274 178.8925626850953 M 271.51939224310274 180.69699291947794 L 271.51939224310274 180.87499769440234 M 280.4158336665334 174.83913244843865 L 280.4158336665334 175.75530748587775 M 280.4158336665334 178.8925626850953 L 280.4158336665334 180.09501083820416 M 289.31227508996403 172.13065525212627 L 289.31227508996403 173.7526590173884 M 289.31227508996403 175.75543381999765 L 289.31227508996403 176.68866396362185 M 298.2087165133947 157.23207249355002 L 298.2087165133947 162.74933617736707 M 298.2087165133947 173.7525326832685 L 298.2087165133947 174.04373282961393 M 307.10515793682526 157.64493239734912 L 307.10515793682526 160.37981342471838 M 307.10515793682526 162.75198919388473 L 307.10515793682526 164.04906160279089 M 324.89804078368655 157.87574483438735 L 324.89804078368655 158.57058249377997 M 324.89804078368655 160.95412833373635 L 324.89804078368655 161.62445717387038 M 342.6909236305478 156.96512849822338 L 342.6909236305478 159.32277584360241 M 342.6909236305478 159.60765928395338 L 342.6909236305478 162.9509654327108 M 351.5873650539784 150.01068786654264 L 351.5873650539784 151.94511591029166 M 351.5873650539784 159.32328118008198 L 351.5873650539784 159.73108771908545 M 369.38024790083966 151.8599667134861 L 369.38024790083966 154.2250677719386 M 369.38024790083966 156.61657266144806 L 369.38024790083966 160.98305884719105 M 378.2766893242703 151.51798025094507 L 378.2766893242703 152.90613956029156 M 378.2766893242703 154.2251941060585 L 378.2766893242703 158.52927123657605 M 387.1731307477009 146.08536042745402 L 387.1731307477009 149.98908473204153 M 387.1731307477009 152.90613956029156 L 387.1731307477009 154.7834645818505 M 413.86245501799283 146.51350675975976 L 413.86245501799283 147.0514374422495 M 413.86245501799283 153.03841138381597 L 413.86245501799283 156.38171753257336 M 422.7588964414235 144.07664792120997 L 422.7588964414235 145.52936396582007 M 422.7588964414235 147.0514374422495 L 422.7588964414235 153.34957232110395 M 431.65533786485406 125.24023064567601 L 431.65533786485406 127.26132389566925 M 431.65533786485406 145.52936396582007 L 431.65533786485406 146.1667196006629 M 458.34466213514594 126.50357184457164 L 458.34466213514594 128.71315560144012 M 458.34466213514594 137.01078059578668 L 458.34466213514594 138.45629559556306 M 485.0339864054379 122.52404706805038 L 485.0339864054379 126.07100381806978 M 485.0339864054379 130.96051326015558 L 485.0339864054379 131.27041085624467 M 493.93042782886846 117.77767418379946 L 493.93042782886846 118.3946900253401 M 493.93042782886846 126.07087748394989 L 493.93042782886846 129.14850297857956 M 502.82686925229905 116.01783989373786 L 502.82686925229905 118.03034242357859 M 502.82686925229905 118.39481635945998 L 502.82686925229905 122.68385972971068 M 529.5161935225909 110.9644750981553 L 529.5161935225909 113.06705385547731 M 529.5161935225909 122.62511436396204 L 529.5161935225909 123.80002167893498 M 538.4126349460215 98.59863877512502 L 538.4126349460215 101.11824646220246 M 538.4126349460215 113.07324422735188 L 538.4126349460215 115.28510199837838 M 547.3090763694522 90.7898004906312 L 547.3090763694522 99.64342194661174 M 547.3090763694522 101.11824646220246 L 547.3090763694522 106.73923045844883 M 556.2055177928828 94.5435661949098 L 556.2055177928828 99.30610984650659 M 556.2055177928828 99.6228294850697 L 556.2055177928828 105.2080609253873 M 565.1019592163135 86.51604354888714 L 565.1019592163135 88.53170443172516 M 565.1019592163135 99.30623618062644 L 565.1019592163135 100.09923545117326 M 573.998400639744 84.61244103039118 L 573.998400639744 87.92365831269666 M 573.998400639744 88.53183076584503 L 573.998400639744 92.91663539897198 M 600.687724910036 78.88862106055473 L 600.687724910036 82.16016942921489 M 600.687724910036 92.16583172446835 L 600.687724910036 96.58765225472294 M 636.2734906037584 98.32487273732431 L 636.2734906037584 100.3543040392303 M 636.2734906037584 107.68572568466148 L 636.2734906037584 111.14690156727582 M 645.169932027189 92.26639368390042 L 645.169932027189 94.4779987866871 M 645.169932027189 100.35443037335018 L 645.169932027189 102.91699166119008 M 654.0663734506197 73.2769857891802 L 654.0663734506197 75.39042928081273 M 654.0663734506197 94.47787245256723 L 654.0663734506197 94.4779987866871 M 671.8592562974809 79.8610147813447 L 671.8592562974809 81.60328862874167 M 671.8592562974809 87.1509988354521 L 671.8592562974809 92.64602771416854 M 680.7556977209116 76.62686131217187 L 680.7556977209116 78.85160516342707 M 680.7556977209116 81.60341496286154 L 680.7556977209116 85.85935879370119 M 698.5485805677728 81.9455277595225 L 698.5485805677728 82.3161920672785 M 698.5485805677728 88.59689283758816 L 698.5485805677728 90.49834767604597 M 707.4450219912034 78.8756086462061 L 707.4450219912034 79.64119341273684 M 707.4450219912034 82.3161920672785 L 707.4450219912034 85.98821959598854 M 734.1343462614954 88.73510236474733 L 734.1343462614954 89.97684042914187 M 734.1343462614954 92.72043851078351 L 734.1343462614954 101.23674786665889 M 760.8236705317872 84.83024105308081 L 760.8236705317872 86.59853972917504 M 760.8236705317872 96.3535551305676 L 760.8236705317872 96.55354204235276 M 769.7201119552178 78.98930935410671 L 769.7201119552178 81.97092091762028 M 769.7201119552178 86.59853972917504 L 769.7201119552178 87.83118173693751 M 778.6165533786485 79.772580897422 L 778.6165533786485 80.73095153090424 M 778.6165533786485 81.97092091762028 L 778.6165533786485 84.18164168156778 M 787.512994802079 76.98059684786264 L 787.512994802079 78.7943758071171 M 787.512994802079 80.72400315431032 L 787.512994802079 83.54997108211997 M 796.4094362255097 51.840106989839455 L 796.4094362255097 54.6760553131204 M 796.4094362255097 78.7943758071171 L 796.4094362255097 80.66197310144456 M 805.3058776489403 23.541264134577176 L 805.3058776489403 36.210555013582194 M 805.3058776489403 54.6760553131204 L 805.3058776489403 56.00913294619508 M 814.202319072371 30.045197294731707 L 814.202319072371 32.29129161224827 M 814.202319072371 36.210681347702064 L 814.202319072371 41.85971151856393 M 823.0987604958016 18.84833058303954 L 823.0987604958016 23.26825610149581 M 823.0987604958016 32.29129161224827 L 823.0987604958016 36.806346722981374 M 849.7880847660936 23.072564549786904 L 849.7880847660936 23.404949619216325 M 849.7880847660936 37.18686509208874 L 849.7880847660936 41.81675791780145 M 867.5809676129546 23.611632239355657 L 867.5809676129546 24.435709703395275 M 867.5809676129546 30.7121151136287 L 867.5809676129546 37.39481105342699 M 876.4774090363853 11.035954943188813 L 876.4774090363853 12.013654697014147 M 876.4774090363853 24.43836271991296 L 876.4774090363853 28.170146287330823 M 885.3738504598159 3.8461538461538396 L 885.3738504598159 4.338477911363469 M 885.3738504598159 12.013654697014147 L 885.3738504598159 14.69787574230773" style="stroke-width: 1px;"></path><path class="candle wick down" d="M 4.626149540183927 184.76848893527878 L 4.626149540183927 186.00694231255616 M 4.626149540183927 186.0904491658032 L 4.626149540183927 187.61340698107188 M 22.41903238704518 184.23017925042936 L 22.41903238704518 184.23017925042936 M 22.41903238704518 186.25607319697838 L 22.41903238704518 188.7483927141597 M 31.315473810475808 185.38967380277577 L 31.315473810475808 186.25607319697838 M 31.315473810475808 192.6114374321428 L 31.315473810475808 194.13843793924795 M 49.10835665733706 191.09631233230726 L 49.10835665733706 191.19156825870397 M 49.10835665733706 194.83188592332178 L 49.10835665733706 196.15384615384616 M 66.90123950419832 188.27426076221417 L 66.90123950419832 188.5799893323469 M 66.90123950419832 189.2073645717185 L 66.90123950419832 190.85514049743807 M 93.5905637744902 185.8806081926666 L 93.5905637744902 188.1008040156058 M 93.5905637744902 189.08797882842285 L 93.5905637744902 189.97383367708846 M 111.38344662135144 187.15228744347496 L 111.38344662135144 187.26295613249823 M 111.38344662135144 188.07136816567154 L 111.38344662135144 189.47948826596064 M 120.27988804478207 186.2596105523353 L 120.27988804478207 188.07136816567154 M 120.27988804478207 190.0606252174526 L 120.27988804478207 192.36154854300122 M 129.1763294682127 189.4856786378352 L 129.1763294682127 190.0606252174526 M 129.1763294682127 190.67625138367447 L 129.1763294682127 193.15745349830547 M 138.07277089164333 190.25732744212067 L 138.07277089164333 190.67625138367447 M 138.07277089164333 191.03428227944147 L 138.07277089164333 191.6103658661379 M 164.7620951619352 187.77561999101007 L 164.7620951619352 187.87416060452392 M 164.7620951619352 190.30659774887758 L 164.7620951619352 191.24980828797308 M 227.0371851259496 178.2121271153701 L 227.0371851259496 178.5754640441725 M 227.0371851259496 179.9358298471433 L 227.0371851259496 181.4589139965319 M 235.93362654938022 178.32608049151048 L 235.93362654938022 179.9357035130234 M 235.93362654938022 179.9695610571538 L 235.93362654938022 181.71158223631102 M 253.72650939624148 178.41236669539506 L 253.72650939624148 178.86742219523728 M 253.72650939624148 181.21483647690525 L 253.72650939624148 182.72225519542752 M 316.0015993602559 159.63229443733184 L 316.0015993602559 160.3757707328819 M 316.0015993602559 160.95400199961645 L 316.0015993602559 163.51845829925472 M 333.7944822071172 155.5604194191713 L 333.7944822071172 158.57058249377997 M 333.7944822071172 159.61789234766442 L 333.7944822071172 161.39705575806914 M 360.483806477409 149.12394867903782 L 360.483806477409 151.94524224441156 M 360.483806477409 156.61657266144806 L 360.483806477409 161.39705575806914 M 396.06957217113154 148.6752098851901 L 396.06957217113154 149.98908473204153 M 396.06957217113154 150.36177038571577 L 396.06957217113154 152.36416618596536 M 404.9660135945622 149.49638166447224 L 404.9660135945622 150.36189671983567 M 404.9660135945622 153.04169607093306 L 404.9660135945622 157.5179666068601 M 440.5517792882847 122.58721412799517 L 440.5517792882847 127.26132389566925 M 440.5517792882847 127.3889213567577 L 440.5517792882847 132.61814324722653 M 449.44822071171535 125.19576103547487 L 449.44822071171535 127.38879502263781 M 449.44822071171535 137.01078059578668 L 449.44822071171535 143.0000285515111 M 467.2411035585766 124.10322356666993 L 467.2411035585766 128.71315560144012 M 467.2411035585766 130.56635080610013 L 467.2411035585766 137.17198293276573 M 476.13754498200717 128.90392012247335 L 476.13754498200717 130.56635080610013 M 476.13754498200717 130.96051326015558 L 476.13754498200717 133.7998726046735 M 511.7233106757297 117.95087826216808 L 511.7233106757297 118.0386804754913 M 511.7233106757297 121.19185377381493 L 511.7233106757297 126.25090360479251 M 520.6197520991603 119.80786349042477 L 520.6197520991603 121.20309751048511 M 520.6197520991603 122.62511436396204 L 520.6197520991603 124.927932701309 M 582.8948420631747 87.33999467880686 L 582.8948420631747 87.92365831269666 M 582.8948420631747 91.57938873994095 L 582.8948420631747 101.73121961190662 M 591.7912834866053 87.13786008698357 L 591.7912834866053 91.58633711653488 M 591.7912834866053 92.1659580585882 L 591.7912834866053 96.81505367052416 M 609.5841663334666 78.06441726239524 L 609.5841663334666 82.16029576333477 M 609.5841663334666 87.73024077514573 L 609.5841663334666 90.49493665480894 M 618.4806077568971 85.25510269826941 L 618.4806077568971 87.73377813050263 M 618.4806077568971 107.56014956949122 L 618.4806077568971 119.7067961945131 M 627.3770491803277 103.66716366509434 L 627.3770491803277 107.56014956949122 M 627.3770491803277 107.68585201878133 L 627.3770491803277 116.54743252431487 M 662.9628148740503 72.96317183537452 L 662.9628148740503 75.39042928081273 M 662.9628148740503 87.1509988354521 L 662.9628148740503 96.80090424909653 M 689.6521391443422 77.52383356338777 L 689.6521391443422 78.84604646215195 M 689.6521391443422 88.59676650346826 L 689.6521391443422 89.67325953904721 M 716.3414634146341 78.86411224129614 L 716.3414634146341 79.65041580348881 M 716.3414634146341 82.07312522061095 L 716.3414634146341 85.40859865393521 M 725.2379048380647 80.45680649074387 L 725.2379048380647 82.07312522061095 M 725.2379048380647 92.72043851078351 L 725.2379048380647 94.28837127273289 M 743.0307876849259 89.774200500839 L 743.0307876849259 89.97671409502195 M 743.0307876849259 93.59820797577618 L 743.0307876849259 97.93791132810262 M 751.9272291083566 93.11687497899696 L 751.9272291083566 93.59593396161816 M 751.9272291083566 96.3535551305676 L 751.9272291083566 102.21798497584112 M 831.9952019192323 17.287725200043752 L 831.9952019192323 23.268382435615734 M 831.9952019192323 27.89322189653288 L 831.9952019192323 32.8899890064049 M 840.8916433426629 19.71624598668086 L 840.8916433426629 27.892969228293083 M 840.8916433426629 37.18901277212689 L 840.8916433426629 48.618586932655575 M 858.6845261895241 19.751240537890254 L 858.6845261895241 23.404949619216325 M 858.6845261895241 30.70744075119279 L 858.6845261895241 38.701358521324835" style="stroke-width: 1px;"></path><path class="candle wick equal" style="stroke-width: 1px;"></path></g></g><g class="x axis" transform="translate(0,200)" fill="none" font-size="10" font-family="sans-serif" text-anchor="middle"><path class="domain" stroke="#000" d="M0.5,6V0.5H890.5V6"></path><g class="tick" opacity="1" transform="translate(31.315473810475808,0)"><line stroke="#000" y2="6" x1="0.5" x2="0.5"></line><text fill="#000" y="9" x="0.5" dy="0.71em">Sep 21</text></g><g class="tick" opacity="1" transform="translate(93.5905637744902,0)"><line stroke="#000" y2="6" x1="0.5" x2="0.5"></line><text fill="#000" y="9" x="0.5" dy="0.71em">Sep 28</text></g><g class="tick" opacity="1" transform="translate(155.8656537385046,0)"><line stroke="#000" y2="6" x1="0.5" x2="0.5"></line><text fill="#000" y="9" x="0.5" dy="0.71em">Oct  5</text></g><g class="tick" opacity="1" transform="translate(218.14074370251896,0)"><line stroke="#000" y2="6" x1="0.5" x2="0.5"></line><text fill="#000" y="9" x="0.5" dy="0.71em">Oct 12</text></g><g class="tick" opacity="1" transform="translate(280.4158336665334,0)"><line stroke="#000" y2="6" x1="0.5" x2="0.5"></line><text fill="#000" y="9" x="0.5" dy="0.71em">Oct 19</text></g><g class="tick" opacity="1" transform="translate(342.6909236305478,0)"><line stroke="#000" y2="6" x1="0.5" x2="0.5"></line><text fill="#000" y="9" x="0.5" dy="0.71em">Oct 26</text></g><g class="tick" opacity="1" transform="translate(404.9660135945622,0)"><line stroke="#000" y2="6" x1="0.5" x2="0.5"></line><text fill="#000" y="9" x="0.5" dy="0.71em">Nov  2</text></g><g class="tick" opacity="1" transform="translate(467.2411035585766,0)"><line stroke="#000" y2="6" x1="0.5" x2="0.5"></line><text fill="#000" y="9" x="0.5" dy="0.71em">Nov  9</text></g><g class="tick" opacity="1" transform="translate(529.5161935225909,0)"><line stroke="#000" y2="6" x1="0.5" x2="0.5"></line><text fill="#000" y="9" x="0.5" dy="0.71em">Nov 16</text></g><g class="tick" opacity="1" transform="translate(591.7912834866053,0)"><line stroke="#000" y2="6" x1="0.5" x2="0.5"></line><text fill="#000" y="9" x="0.5" dy="0.71em">Nov 23</text></g><g class="tick" opacity="1" transform="translate(654.0663734506197,0)"><line stroke="#000" y2="6" x1="0.5" x2="0.5"></line><text fill="#000" y="9" x="0.5" dy="0.71em">Nov 30</text></g><g class="tick" opacity="1" transform="translate(716.3414634146341,0)"><line stroke="#000" y2="6" x1="0.5" x2="0.5"></line><text fill="#000" y="9" x="0.5" dy="0.71em">Dec  7</text></g><g class="tick" opacity="1" transform="translate(778.6165533786485,0)"><line stroke="#000" y2="6" x1="0.5" x2="0.5"></line><text fill="#000" y="9" x="0.5" dy="0.71em">Dec 14</text></g><g class="tick" opacity="1" transform="translate(840.8916433426629,0)"><line stroke="#000" y2="6" x1="0.5" x2="0.5"></line><text fill="#000" y="9" x="0.5" dy="0.71em">Dec 21</text></g></g><g class="y axis" fill="none" font-size="10" font-family="sans-serif" text-anchor="end"><path class="domain" stroke="#000" d="M-6,200.5H0.5V0.5H-6"></path><g class="tick" opacity="1" transform="translate(0,197.88234958217518)"><line stroke="#000" x2="-6" y1="0.5" y2="0.5"></line><text fill="#000" x="-9" y="0.5" dy="0.32em">10,000</text></g><g class="tick" opacity="1" transform="translate(0,172.61552560426242)"><line stroke="#000" x2="-6" y1="0.5" y2="0.5"></line><text fill="#000" x="-9" y="0.5" dy="0.32em">12,000</text></g><g class="tick" opacity="1" transform="translate(0,147.34870162634968)"><line stroke="#000" x2="-6" y1="0.5" y2="0.5"></line><text fill="#000" x="-9" y="0.5" dy="0.32em">14,000</text></g><g class="tick" opacity="1" transform="translate(0,122.08187764843692)"><line stroke="#000" x2="-6" y1="0.5" y2="0.5"></line><text fill="#000" x="-9" y="0.5" dy="0.32em">16,000</text></g><g class="tick" opacity="1" transform="translate(0,96.81505367052416)"><line stroke="#000" x2="-6" y1="0.5" y2="0.5"></line><text fill="#000" x="-9" y="0.5" dy="0.32em">18,000</text></g><g class="tick" opacity="1" transform="translate(0,71.54822969261141)"><line stroke="#000" x2="-6" y1="0.5" y2="0.5"></line><text fill="#000" x="-9" y="0.5" dy="0.32em">20,000</text></g><g class="tick" opacity="1" transform="translate(0,46.28140571469865)"><line stroke="#000" x2="-6" y1="0.5" y2="0.5"></line><text fill="#000" x="-9" y="0.5" dy="0.32em">22,000</text></g><g class="tick" opacity="1" transform="translate(0,21.014581736785885)"><line stroke="#000" x2="-6" y1="0.5" y2="0.5"></line><text fill="#000" x="-9" y="0.5" dy="0.32em">24,000</text></g><text transform="rotate(-90)" y="6" dy=".71em" style="text-anchor: end;">Price ($)</text></g></g></svg>