<?xml version="1.0" encoding="utf-8"?>
<!DOCTYPE svg PUBLIC "-//W3C//DTD SVG 1.1//EN" "http://www.w3.org/Graphics/SVG/1.1/DTD/svg11.dtd">
<svg version="1.1" xmlns="http://www.w3.org/2000/svg" width="960" height="250"><g transform="translate(50,20)"><style>.axis path,.axis line{fill:none;stroke:#000;shape-rendering:crispEdges;}path.candle{stroke:#000000;}path.candle.body{stroke-width:0;}path.candle.up{fill:#00AA00;stroke:#00AA00;}path.candle.down{fill:#FF0000;stroke:#FF0000;}</style><g class="candlestick"><g class="data"><path class="candle body up" d="M 9.964014394242305 135.65107996238913 l 7.1171531387445 0 L 17.081167532986804 128.16902921225838 l -7.1171531387445 0 L 9.964014394242305 135.65107996238913 M 18.860455817672932 128.16902921225838 l 7.1171531387445 0 L 25.977608956417434 125.25765924678417 l -7.1171531387445 0 L 18.860455817672932 128.16902921225838 M 36.65333866453418 148.25069231505734 l 7.1171531387445 0 L 43.77049180327868 142.94120457091606 l -7.1171531387445 0 L 36.65333866453418 148.25069231505734 M 45.54978008796481 142.93647354677256 l 7.1171531387445 0 L 52.66693322670931 88.43673766578529 l -7.1171531387445 0 L 45.54978008796481 142.93647354677256 M 63.342662934826066 90.88728030658264 l 7.1171531387445 0 L 70.45981607357056 78.12284930199742 l -7.1171531387445 0 L 63.342662934826066 90.88728030658264 M 72.23910435825668 78.12284930199742 l 7.1171531387445 0 L 79.35625749700118 59.465735928450925 l -7.1171531387445 0 L 72.23910435825668 78.12284930199742 M 81.13554578168731 59.465735928450925 l 7.1171531387445 0 L 88.25269892043181 56.870065925414906 l -7.1171531387445 0 L 81.13554578168731 59.465735928450925 M 90.03198720511796 56.86993805989749 l 7.1171531387445 0 L 97.14914034386246 52.65395622048345 l -7.1171531387445 0 L 90.03198720511796 56.86993805989749 M 134.51419432227107 82.3068647620637 l 7.1171531387445 0 L 141.63134746101557 76.14003872381613 l -7.1171531387445 0 L 134.51419432227107 82.3068647620637 M 143.4106357457017 76.14003872381613 l 7.1171531387445 0 L 150.5277888844462 50.452879204115845 l -7.1171531387445 0 L 143.4106357457017 76.14003872381613 M 178.9964014394242 108.89266313798758 l 7.1171531387445 0 L 186.1135545781687 107.55365543986966 l -7.1171531387445 0 L 178.9964014394242 108.89266313798758 M 205.68572570971608 146.82128369614404 l 7.1171531387445 0 L 212.80287884846058 131.1939437571758 l -7.1171531387445 0 L 205.68572570971608 146.82128369614404 M 223.47860855657734 143.7287282925269 l 7.1171531387445 0 L 230.59576169532184 129.9551826246924 l -7.1171531387445 0 L 223.47860855657734 143.7287282925269 M 232.37504998000796 129.93638639363593 l 7.1171531387445 0 L 239.49220311875246 118.55008993549032 l -7.1171531387445 0 L 232.37504998000796 129.93638639363593 M 259.06437425029986 137.98679936856936 l 7.1171531387445 0 L 266.1815273890444 68.16046324551729 l -7.1171531387445 0 L 259.06437425029986 137.98679936856936 M 267.9608156737305 68.16046324551729 l 7.1171531387445 0 L 275.07796881247504 52.03406419217225 l -7.1171531387445 0 L 267.9608156737305 68.16046324551729 M 303.54658136745303 119.45179756413118 l 7.1171531387445 0 L 310.66373450619756 116.26398235005773 l -7.1171531387445 0 L 303.54658136745303 119.45179756413118 M 330.23590563774496 134.29238097459302 l 7.1171531387445 0 L 337.3530587764895 124.79683192210722 l -7.1171531387445 0 L 330.23590563774496 134.29238097459302 M 339.13234706117555 124.79683192210722 l 7.1171531387445 0 L 346.2495001999201 83.73819136373788 l -7.1171531387445 0 L 339.13234706117555 124.79683192210722 M 365.8216713314674 124.81038566695062 l 7.1171531387445 0 L 372.93882447021196 123.81571980716652 l -7.1171531387445 0 L 365.8216713314674 124.81038566695062 M 383.61455417832866 136.98599596395053 l 7.1171531387445 0 L 390.7317073170732 112.76801123907205 l -7.1171531387445 0 L 383.61455417832866 136.98599596395053 M 401.40743702518995 117.7680644311273 l 7.1171531387445 0 L 408.5245901639345 94.3217481037032 l -7.1171531387445 0 L 401.40743702518995 117.7680644311273 M 419.20031987205124 96.82931876525689 l 7.1171531387445 0 L 426.31747301079577 86.09347419407894 l -7.1171531387445 0 L 419.20031987205124 96.82931876525689 M 428.0967612954818 86.09347419407894 l 7.1171531387445 0 L 435.21391443422635 80.42110411158221 l -7.1171531387445 0 L 428.0967612954818 86.09347419407894 M 454.7860855657737 95.7505173950295 l 7.1171531387445 0 L 461.90323870451823 78.33689617810991 l -7.1171531387445 0 L 454.7860855657737 95.7505173950295 M 463.68252698920435 78.33689617810991 l 7.1171531387445 0 L 470.7996801279489 71.70540684966363 l -7.1171531387445 0 L 463.68252698920435 78.33689617810991 M 472.57896841263494 71.70540684966363 l 7.1171531387445 0 L 479.69612155137946 57.52895693653036 l -7.1171531387445 0 L 472.57896841263494 71.70540684966363 M 481.47540983606564 57.52895693653036 l 7.1171531387445 0 L 488.59256297481016 53.41552324206384 l -7.1171531387445 0 L 481.47540983606564 57.52895693653036 M 490.3718512594962 53.41552324206384 l 7.1171531387445 0 L 497.48900439824075 50.88237947703206 l -7.1171531387445 0 L 490.3718512594962 53.41552324206384 M 499.2682926829268 50.88237947703206 l 7.1171531387445 0 L 506.38544582167134 21.262460238938615 l -7.1171531387445 0 L 499.2682926829268 50.88237947703206 M 508.16473410635746 21.262460238938615 l 7.1171531387445 0 L 515.281887245102 17.49746007936247 l -7.1171531387445 0 L 508.16473410635746 21.262460238938615 M 517.0611755297881 17.49746007936247 l 7.1171531387445 0 L 524.1783286685326 13.500511871239098 l -7.1171531387445 0 L 517.0611755297881 17.49746007936247 M 543.75049980008 38.10759136553821 l 7.1171531387445 0 L 550.8676529388244 28.22179675397524 l -7.1171531387445 0 L 543.75049980008 38.10759136553821 M 561.5433826469413 34.263442450697056 l 7.1171531387445 0 L 568.6605357856857 26.63805445557108 l -7.1171531387445 0 L 561.5433826469413 34.263442450697056 M 570.4398240703717 26.637926590053667 l 7.1171531387445 0 L 577.5569772091162 24.423935156429565 l -7.1171531387445 0 L 570.4398240703717 26.637926590053667 M 597.1291483406637 68.02658804880897 l 7.1171531387445 0 L 604.2463014794082 64.52665310678421 l -7.1171531387445 0 L 597.1291483406637 68.02658804880897 M 614.9220311875249 79.77039649357974 l 7.1171531387445 0 L 622.0391843262694 73.35218684814153 l -7.1171531387445 0 L 614.9220311875249 79.77039649357974 M 641.6113554578168 114.56989211014522 l 7.1171531387445 0 L 648.7285085965613 107.60774255372597 l -7.1171531387445 0 L 641.6113554578168 114.56989211014522 M 650.5077968812475 107.60761468820866 l 7.1171531387445 0 L 657.624950019992 93.8896905204392 l -7.1171531387445 0 L 650.5077968812475 107.60761468820866 M 668.3006797281087 109.30285571777763 l 7.1171531387445 0 L 675.4178328668531 101.5090688362478 l -7.1171531387445 0 L 668.3006797281087 109.30285571777763 M 694.9900039984005 112.68182988035059 l 7.1171531387445 0 L 702.107157137145 98.32227654631352 l -7.1171531387445 0 L 694.9900039984005 112.68182988035059 M 703.8864454218311 98.32227654631352 l 7.1171531387445 0 L 711.0035985605756 89.47334341527362 l -7.1171531387445 0 L 703.8864454218311 98.32227654631352 M 748.3686525389844 115.70584936664628 l 7.1171531387445 0 L 755.4858056777289 115.59690794582923 l -7.1171531387445 0 L 748.3686525389844 115.70584936664628 M 757.265093962415 115.59703581134656 l 7.1171531387445 0 L 764.3822471011595 103.11787277606058 l -7.1171531387445 0 L 757.265093962415 115.59703581134656 M 775.0579768092763 132.69879303134977 l 7.1171531387445 0 L 782.1751299480208 118.33847250420828 l -7.1171531387445 0 L 775.0579768092763 132.69879303134977 M 783.9544182327068 118.33847250420828 l 7.1171531387445 0 L 791.0715713714512 111.86400203111816 l -7.1171531387445 0 L 783.9544182327068 118.33847250420828 M 810.6437425029987 138.85986512131467 l 7.1171531387445 0 L 817.7608956417432 128.15048871223672 l -7.1171531387445 0 L 810.6437425029987 138.85986512131467 M 819.5401839264293 128.15048871223672 l 7.1171531387445 0 L 826.6573370651738 127.42408470793875 l -7.1171531387445 0 L 819.5401839264293 128.15048871223672 M 837.3330667732906 137.6048650681227 l 7.1171531387445 0 L 844.4502199120351 112.52979778017277 l -7.1171531387445 0 L 837.3330667732906 137.6048650681227"></path><path class="candle body down" d="M 1.0675729708116766 132.00588979260823 l 7.1171531387445 0 L 8.184726109556177 135.65095209687172 l -7.1171531387445 0 L 1.0675729708116766 132.00588979260823 M 27.75689724110356 125.25765924678417 l 7.1171531387445 0 L 34.87405037984806 148.25082018057475 l -7.1171531387445 0 L 27.75689724110356 125.25765924678417 M 54.446221511395436 88.46934337272 l 7.1171531387445 0 L 61.563374650139934 90.88740817210004 l -7.1171531387445 0 L 54.446221511395436 88.46934337272 M 98.92842862854857 52.654084086000864 l 7.1171531387445 0 L 106.04558176729307 63.87134233015564 l -7.1171531387445 0 L 98.92842862854857 52.654084086000864 M 107.82487005197919 63.87134233015564 l 7.1171531387445 0 L 114.94202319072369 78.21414528141453 l -7.1171531387445 0 L 107.82487005197919 63.87134233015564 M 116.72131147540982 78.21414528141453 l 7.1171531387445 0 L 123.83846461415432 80.2070572354697 l -7.1171531387445 0 L 116.72131147540982 78.21414528141453 M 125.61775289884046 80.2070572354697 l 7.1171531387445 0 L 132.73490603758498 82.30673689654628 l -7.1171531387445 0 L 125.61775289884046 80.2070572354697 M 152.30707716913233 50.45300706963326 l 7.1171531387445 0 L 159.42423030787683 59.036491386569566 l -7.1171531387445 0 L 152.30707716913233 50.45300706963326 M 161.20351859256294 59.036491386569566 l 7.1171531387445 0 L 168.32067173130744 101.97194200920306 l -7.1171531387445 0 L 161.20351859256294 59.036491386569566 M 170.09996001599356 101.97181414368565 l 7.1171531387445 0 L 177.21711315473806 108.8927910035049 l -7.1171531387445 0 L 170.09996001599356 101.97181414368565 M 187.89284286285485 107.55365543986966 l 7.1171531387445 0 L 195.00999600159935 129.19208121690332 l -7.1171531387445 0 L 187.89284286285485 107.55365543986966 M 196.78928428628546 129.19208121690332 l 7.1171531387445 0 L 203.90643742502996 146.82128369614404 l -7.1171531387445 0 L 196.78928428628546 129.19208121690332 M 214.5821671331467 131.1939437571758 l 7.1171531387445 0 L 221.6993202718912 143.7288561580442 l -7.1171531387445 0 L 214.5821671331467 131.1939437571758 M 241.2714914034386 118.55021780100765 l 7.1171531387445 0 L 248.3886445421831 119.86007216116045 l -7.1171531387445 0 L 241.2714914034386 118.55021780100765 M 250.16793282686922 119.85994429564303 l 7.1171531387445 0 L 257.28508596561375 137.98692723408678 l -7.1171531387445 0 L 250.16793282686922 119.85994429564303 M 276.85725709716115 52.03406419217225 l 7.1171531387445 0 L 283.9744102359057 58.78817655179628 l -7.1171531387445 0 L 276.85725709716115 52.03406419217225 M 285.7536985205918 58.788048686278955 l 7.1171531387445 0 L 292.8708516593363 77.18776877331752 l -7.1171531387445 0 L 285.7536985205918 58.788048686278955 M 294.65013994402244 77.18776877331752 l 7.1171531387445 0 L 301.76729308276697 119.45166969861376 l -7.1171531387445 0 L 294.65013994402244 77.18776877331752 M 312.4430227908837 116.26385448454032 l 7.1171531387445 0 L 319.5601759296282 128.75836138191326 l -7.1171531387445 0 L 312.4430227908837 116.26385448454032 M 321.3394642143143 128.7584892474306 l 7.1171531387445 0 L 328.45661735305885 134.29250884011043 l -7.1171531387445 0 L 321.3394642143143 128.7584892474306 M 348.02878848460614 83.7383192292553 l 7.1171531387445 0 L 355.14594162335067 115.9565936462499 l -7.1171531387445 0 L 348.02878848460614 83.7383192292553 M 356.9252299080368 115.95646578073249 l 7.1171531387445 0 L 364.0423830467813 124.81038566695062 l -7.1171531387445 0 L 356.9252299080368 115.95646578073249 M 374.7181127548981 123.81584767268393 l 7.1171531387445 0 L 381.8352658936426 136.98612382946794 l -7.1171531387445 0 L 374.7181127548981 123.81584767268393 M 392.5109956017593 112.76801123907205 l 7.1171531387445 0 L 399.62814874050383 117.7680644311273 l -7.1171531387445 0 L 392.5109956017593 112.76801123907205 M 410.3038784486206 94.32162023818577 l 7.1171531387445 0 L 417.4210315873651 96.82919089973947 l -7.1171531387445 0 L 410.3038784486206 94.32162023818577 M 436.99320271891247 80.42110411158221 l 7.1171531387445 0 L 444.110355857657 92.42793192562601 l -7.1171531387445 0 L 436.99320271891247 80.42110411158221 M 445.8896441423431 92.42793192562601 l 7.1171531387445 0 L 453.00679728108764 95.75064526054693 l -7.1171531387445 0 L 445.8896441423431 92.42793192562601 M 525.9576169532187 13.500639736756511 l 7.1171531387445 0 L 533.0747700919632 18.19074691465616 l -7.1171531387445 0 L 525.9576169532187 13.500639736756511 M 534.8540583766493 18.19074691465616 l 7.1171531387445 0 L 541.9712115153937 38.107719231055626 l -7.1171531387445 0 L 534.8540583766493 18.19074691465616 M 552.6469412235106 28.22179675397524 l 7.1171531387445 0 L 559.764094362255 34.26331458517964 l -7.1171531387445 0 L 552.6469412235106 28.22179675397524 M 579.3362654938024 24.424063021946978 l 7.1171531387445 0 L 586.4534186325469 38.27125922779854 l -7.1171531387445 0 L 579.3362654938024 24.424063021946978 M 588.232706917233 38.27138709331598 l 7.1171531387445 0 L 595.3498600559775 68.02658804880897 l -7.1171531387445 0 L 588.232706917233 38.27138709331598 M 606.0255897640943 64.52652524126688 l 7.1171531387445 0 L 613.1427429028388 79.77052435909704 l -7.1171531387445 0 L 606.0255897640943 64.52652524126688 M 623.8184726109555 73.35231471365896 l 7.1171531387445 0 L 630.9356257497 80.96171951911106 l -7.1171531387445 0 L 623.8184726109555 73.35231471365896 M 632.7149140343862 80.96171951911106 l 7.1171531387445 0 L 639.8320671731307 114.56989211014522 l -7.1171531387445 0 L 632.7149140343862 80.96171951911106 M 659.4042383046781 93.88981838595663 l 7.1171531387445 0 L 666.5213914434225 109.3027278522603 l -7.1171531387445 0 L 659.4042383046781 93.88981838595663 M 677.1971211515394 101.5090688362478 l 7.1171531387445 0 L 684.3142742902838 103.72357173194149 l -7.1171531387445 0 L 677.1971211515394 101.5090688362478 M 686.09356257497 103.7236995974589 l 7.1171531387445 0 L 693.2107157137144 112.68170201483318 l -7.1171531387445 0 L 686.09356257497 103.7236995974589 M 712.7828868452618 89.4732155497562 l 7.1171531387445 0 L 719.9000399840063 91.19940003453387 l -7.1171531387445 0 L 712.7828868452618 89.4732155497562 M 721.6793282686924 91.19940003453387 l 7.1171531387445 0 L 728.7964814074369 102.42829404077125 l -7.1171531387445 0 L 721.6793282686924 91.19940003453387 M 730.5757696921231 102.42829404077125 l 7.1171531387445 0 L 737.6929228308676 112.28455171781695 l -7.1171531387445 0 L 730.5757696921231 102.42829404077125 M 739.4722111155537 112.28442385229953 l 7.1171531387445 0 L 746.5893642542982 115.70597723216369 l -7.1171531387445 0 L 739.4722111155537 112.28442385229953 M 766.1615353858456 103.11787277606058 l 7.1171531387445 0 L 773.27868852459 132.69866516583235 l -7.1171531387445 0 L 766.1615353858456 103.11787277606058 M 792.8508596561375 111.86412989663557 l 7.1171531387445 0 L 799.9680127948819 126.51687886205008 l -7.1171531387445 0 L 792.8508596561375 111.86412989663557 M 801.747301079568 126.51687886205008 l 7.1171531387445 0 L 808.8644542183125 138.85986512131467 l -7.1171531387445 0 L 801.747301079568 126.51687886205008 M 828.43662534986 127.42408470793875 l 7.1171531387445 0 L 835.5537784886045 137.6048650681227 l -7.1171531387445 0 L 828.43662534986 127.42408470793875 M 846.2295081967213 112.52979778017277 l 7.1171531387445 0 L 853.3466613354658 152.64159418226217 l -7.1171531387445 0 L 846.2295081967213 112.52979778017277 M 855.1259496201519 152.64159418226217 l 7.1171531387445 0 L 862.2431027588964 159.5361028799816 l -7.1171531387445 0 L 855.1259496201519 152.64159418226217 M 864.0223910435824 159.5361028799816 l 7.1171531387445 0 L 871.1395441823269 166.45848626049215 l -7.1171531387445 0 L 864.0223910435824 159.5361028799816 M 872.9188324670131 166.45835839497474 l 7.1171531387445 0 L 880.0359856057576 184.79427358883524 l -7.1171531387445 0 L 872.9188324670131 166.45835839497474 M 881.8152738904437 184.79440145435268 l 7.1171531387445 0 L 888.9324270291881 192.1547242319272 l -7.1171531387445 0 L 881.8152738904437 184.79440145435268"></path><path class="candle body equal"></path><path class="candle wick up" d="M 13.522590963614554 124.62587572535551 L 13.522590963614554 128.16902921225838 M 13.522590963614554 135.65107996238913 L 13.522590963614554 151.62327320176075 M 22.41903238704518 117.96152495893986 L 22.41903238704518 125.25765924678417 M 22.41903238704518 128.16902921225838 L 22.41903238704518 134.1390702192413 M 40.21191523390643 141.9772264353058 L 40.21191523390643 142.94120457091606 M 40.21191523390643 148.25069231505734 L 40.21191523390643 156.51553576265542 M 49.10835665733706 85.90397749730556 L 49.10835665733706 88.43673766578529 M 49.10835665733706 142.93647354677256 L 49.10835665733706 146.58383743034906 M 66.90123950419832 74.60488532202056 L 66.90123950419832 78.12284930199742 M 66.90123950419832 90.88728030658264 L 66.90123950419832 94.28901453125115 M 75.79768092762893 51.020090639262065 L 75.79768092762893 59.465735928450925 M 75.79768092762893 78.12284930199742 L 75.79768092762893 87.52122056126619 M 84.69412235105956 38.34222458995055 L 84.69412235105956 56.870065925414906 M 84.69412235105956 59.465735928450925 L 84.69412235105956 74.47701980462963 M 93.5905637744902 47.20330494514258 L 93.5905637744902 52.65395622048345 M 93.5905637744902 56.86993805989749 L 93.5905637744902 68.69852134269837 M 138.07277089164333 72.22147207785348 L 138.07277089164333 76.14003872381613 M 138.07277089164333 82.3068647620637 L 138.07277089164333 88.73965107648445 M 146.96921231507397 47.811944807923425 L 146.96921231507397 50.452879204115845 M 146.96921231507397 76.14003872381613 L 146.96921231507397 77.53262207372089 M 182.55497800879647 102.88464607233955 L 182.55497800879647 107.55365543986966 M 182.55497800879647 108.89266313798758 L 182.55497800879647 113.18152832231439 M 209.24430227908834 128.65363952317006 L 209.24430227908834 131.1939437571758 M 209.24430227908834 146.82128369614404 L 209.24430227908834 155.23688058874606 M 227.0371851259496 110.57345536409142 L 227.0371851259496 129.9551826246924 M 227.0371851259496 143.7287282925269 L 227.0371851259496 181.16442728114134 M 235.93362654938022 112.61252676992473 L 235.93362654938022 118.55008993549032 M 235.93362654938022 129.93638639363593 L 235.93362654938022 133.9553274707505 M 262.6229508196721 54.532044939921605 L 262.6229508196721 68.16046324551729 M 262.6229508196721 137.98679936856936 L 262.6229508196721 141.16949996194725 M 271.51939224310274 45.2853221842785 L 271.51939224310274 52.03406419217225 M 271.51939224310274 68.16046324551729 L 271.51939224310274 72.63601208523487 M 307.10515793682526 113.51129349166563 L 307.10515793682526 116.26398235005773 M 307.10515793682526 119.45179756413118 L 307.10515793682526 128.9273995959041 M 333.7944822071172 116.72276382645639 L 333.7944822071172 124.79683192210722 M 333.7944822071172 134.29238097459302 L 333.7944822071172 135.83137034191031 M 342.6909236305478 75.39688433674007 L 342.6909236305478 83.73819136373788 M 342.6909236305478 124.79683192210722 L 342.6909236305478 125.7453383301132 M 369.38024790083966 115.12917588321316 L 369.38024790083966 123.81571980716652 M 369.38024790083966 124.81038566695062 L 369.38024790083966 125.69329706453509 M 387.1731307477009 109.24211959701694 L 387.1731307477009 112.76801123907205 M 387.1731307477009 136.98599596395053 L 387.1731307477009 139.82908574313802 M 404.9660135945622 86.59867085329056 L 404.9660135945622 94.3217481037032 M 404.9660135945622 117.7680644311273 L 404.9660135945622 123.54566783443681 M 422.7588964414235 78.83697821662588 L 422.7588964414235 86.09347419407894 M 422.7588964414235 96.82931876525689 L 422.7588964414235 106.83927079420646 M 431.65533786485406 77.87824256722857 L 431.65533786485406 80.42110411158221 M 431.65533786485406 86.09347419407894 L 431.65533786485406 89.39521758414774 M 458.34466213514594 65.59036634595944 L 458.34466213514594 78.33689617810991 M 458.34466213514594 95.7505173950295 L 458.34466213514594 97.37121282795967 M 467.2411035585766 69.87437264062544 L 467.2411035585766 71.70540684966363 M 467.2411035585766 78.33689617810991 L 467.2411035585766 86.17070496658307 M 476.13754498200717 54.59533837103007 L 476.13754498200717 57.52895693653036 M 476.13754498200717 71.70540684966363 L 476.13754498200717 75.8265124751736 M 485.0339864054379 43.42948206486642 L 485.0339864054379 53.41552324206384 M 485.0339864054379 57.52895693653036 L 485.0339864054379 62.802898066836974 M 493.93042782886846 47.280152121094545 L 493.93042782886846 50.88237947703206 M 493.93042782886846 53.41552324206384 L 493.93042782886846 56.499511656015926 M 502.82686925229905 19.072891119136216 L 502.82686925229905 21.262460238938615 M 502.82686925229905 50.88237947703206 L 502.82686925229905 52.03073968872005 M 511.7233106757297 3.846153846153811 L 511.7233106757297 17.49746007936247 M 511.7233106757297 21.262460238938615 L 511.7233106757297 23.362012034497866 M 520.6197520991603 5.04003418203294 L 520.6197520991603 13.500511871239098 M 520.6197520991603 17.49746007936247 L 520.6197520991603 19.6885635853736 M 547.3090763694522 22.639188264686908 L 547.3090763694522 28.22179675397524 M 547.3090763694522 38.10759136553821 L 547.3090763694522 54.86244943685975 M 565.1019592163135 13.381469074548164 L 565.1019592163135 26.63805445557108 M 565.1019592163135 34.263442450697056 L 565.1019592163135 37.844571996265046 M 573.998400639744 20.45754680696271 L 573.998400639744 24.423935156429565 M 573.998400639744 26.637926590053667 L 573.998400639744 43.124394940371644 M 600.687724910036 58.685756272366206 L 600.687724910036 64.52665310678421 M 600.687724910036 68.02658804880897 L 600.687724910036 73.69256485543625 M 618.4806077568971 72.76362187159107 L 618.4806077568971 73.35218684814153 M 618.4806077568971 79.77039649357974 L 618.4806077568971 81.38840675064458 M 645.169932027189 99.62816707542711 L 645.169932027189 107.60774255372597 M 645.169932027189 114.56989211014522 L 645.169932027189 118.09667881082207 M 654.0663734506197 88.6021956452892 L 654.0663734506197 93.8896905204392 M 654.0663734506197 107.60761468820866 L 654.0663734506197 113.82712131962121 M 671.8592562974809 97.43706356941601 L 671.8592562974809 101.5090688362478 M 671.8592562974809 109.30285571777763 L 671.8592562974809 111.55290522730598 M 698.5485805677728 94.28684081745544 L 698.5485805677728 98.32227654631352 M 698.5485805677728 112.68182988035059 L 698.5485805677728 127.27895734570005 M 707.4450219912034 86.0616356802486 L 707.4450219912034 89.47334341527362 M 707.4450219912034 98.32227654631352 L 707.4450219912034 101.26484569803114 M 751.9272291083566 109.33315984539932 L 751.9272291083566 115.59690794582923 M 751.9272291083566 115.70584936664628 L 751.9272291083566 122.25243599154487 M 760.8236705317872 100.68945086977192 L 760.8236705317872 103.11787277606058 M 760.8236705317872 115.59703581134656 L 760.8236705317872 131.58175987142252 M 778.6165533786485 115.28248663856486 L 778.6165533786485 118.33847250420828 M 778.6165533786485 132.69879303134977 L 778.6165533786485 135.65670604515435 M 787.512994802079 103.80131396651521 L 787.512994802079 111.86400203111816 M 787.512994802079 118.33847250420828 L 787.512994802079 122.86861991985184 M 814.202319072371 125.50814779535298 L 814.202319072371 128.15048871223672 M 814.202319072371 138.85986512131467 L 814.202319072371 141.98515409738405 M 823.0987604958016 119.21281691212758 L 823.0987604958016 127.42408470793875 M 823.0987604958016 128.15048871223672 L 823.0987604958016 133.4741695288084 M 840.8916433426629 108.26203040621547 L 840.8916433426629 112.52979778017277 M 840.8916433426629 137.6048650681227 L 840.8916433426629 138.35863229314225" style="stroke-width: 1px;"></path><path class="candle wick down" d="M 4.626149540183927 129.54537364145443 L 4.626149540183927 132.00588979260823 M 4.626149540183927 135.65095209687172 L 4.626149540183927 142.42948677031757 M 31.315473810475808 123.19480485471614 L 31.315473810475808 125.25765924678417 M 31.315473810475808 148.25082018057475 L 31.315473810475808 152.2071071541678 M 58.004798080767685 84.09647054346725 L 58.004798080767685 88.46934337272 M 58.004798080767685 90.88740817210004 L 58.004798080767685 97.78677575948021 M 102.48700519792082 34.13544906778873 L 102.48700519792082 52.654084086000864 M 102.48700519792082 63.87134233015564 L 102.48700519792082 67.98132365565257 M 111.38344662135144 58.442683923806015 L 111.38344662135144 63.87134233015564 M 111.38344662135144 78.21414528141453 L 111.38344662135144 83.77910832930296 M 120.27988804478207 69.18990852603179 L 120.27988804478207 78.21414528141453 M 120.27988804478207 80.2070572354697 L 120.27988804478207 86.971015239933 M 129.1763294682127 73.2750839411548 L 129.1763294682127 80.2070572354697 M 129.1763294682127 82.30673689654628 L 129.1763294682127 84.65511498894828 M 155.8656537385046 50.38753992472908 L 155.8656537385046 50.45300706963326 M 155.8656537385046 59.036491386569566 L 155.8656537385046 66.28084013987049 M 164.7620951619352 55.313686847732384 L 164.7620951619352 59.036491386569566 M 164.7620951619352 101.97194200920306 L 164.7620951619352 107.62986328823465 M 173.65853658536582 96.29241145773237 L 173.65853658536582 101.97181414368565 M 173.65853658536582 108.8927910035049 L 173.65853658536582 115.59857019755529 M 191.4514194322271 106.96202169090174 L 191.4514194322271 107.55365543986966 M 191.4514194322271 129.19208121690332 L 191.4514194322271 134.1390702192413 M 200.34786085565773 115.0314866279265 L 200.34786085565773 129.19208121690332 M 200.34786085565773 146.82128369614404 L 200.34786085565773 149.48293230615383 M 218.14074370251896 118.15677560399578 L 218.14074370251896 131.1939437571758 M 218.14074370251896 143.7288561580442 L 218.14074370251896 146.4552047198538 M 244.83006797281087 104.1104927875665 L 244.83006797281087 118.55021780100765 M 244.83006797281087 119.86007216116045 L 244.83006797281087 126.8100744934275 M 253.72650939624148 110.41106615700497 L 253.72650939624148 119.85994429564303 M 253.72650939624148 137.98692723408678 L 253.72650939624148 146.92562195833509 M 280.4158336665334 39.51858734994721 L 280.4158336665334 52.03406419217225 M 280.4158336665334 58.78817655179628 L 280.4158336665334 65.9344524532585 M 289.31227508996403 56.12678367282132 L 289.31227508996403 58.788048686278955 M 289.31227508996403 77.18776877331752 L 289.31227508996403 85.13742372054693 M 298.2087165133947 76.25051453084191 L 298.2087165133947 77.18776877331752 M 298.2087165133947 119.45166969861376 L 298.2087165133947 127.1064667627397 M 316.0015993602559 112.48031382494244 L 316.0015993602559 116.26385448454032 M 316.0015993602559 128.75836138191326 L 316.0015993602559 133.00656533170974 M 324.89804078368655 114.3509863443719 L 324.89804078368655 128.7584892474306 M 324.89804078368655 134.29250884011043 L 324.89804078368655 144.94370643877554 M 351.5873650539784 82.48613221744586 L 351.5873650539784 83.7383192292553 M 351.5873650539784 115.9565936462499 L 351.5873650539784 127.23778464910015 M 360.483806477409 105.54501602717536 L 360.483806477409 115.95646578073249 M 360.483806477409 124.81038566695062 L 360.483806477409 131.27999725037995 M 378.2766893242703 117.38868744102842 L 378.2766893242703 123.81584767268393 M 378.2766893242703 136.98612382946794 L 378.2766893242703 139.52847391175192 M 396.06957217113154 110.00304729101043 L 396.06957217113154 112.76801123907205 M 396.06957217113154 117.7680644311273 L 396.06957217113154 132.88176858673617 M 413.86245501799283 89.656958298247 L 413.86245501799283 94.32162023818577 M 413.86245501799283 96.82919089973947 L 413.86245501799283 102.1726908715068 M 440.5517792882847 79.20471944464215 L 440.5517792882847 80.42110411158221 M 440.5517792882847 92.42793192562601 L 440.5517792882847 96.91741810673923 M 449.44822071171535 88.82071781451026 L 449.44822071171535 92.42793192562601 M 449.44822071171535 95.75064526054693 L 449.44822071171535 102.58262772026211 M 529.5161935225909 10.106705308648856 L 529.5161935225909 13.500639736756511 M 529.5161935225909 18.19074691465616 L 529.5161935225909 26.151270430863775 M 538.4126349460215 11.38817352394085 L 538.4126349460215 18.19074691465616 M 538.4126349460215 38.107719231055626 L 538.4126349460215 42.07589769776595 M 556.2055177928828 16.33656904697014 L 556.2055177928828 28.22179675397524 M 556.2055177928828 34.26331458517964 L 556.2055177928828 36.70554596734655 M 582.8948420631747 16.502794219578362 L 582.8948420631747 24.424063021946978 M 582.8948420631747 38.27125922779854 L 582.8948420631747 40.10919817477597 M 591.7912834866053 38.148636196620714 L 591.7912834866053 38.27138709331598 M 591.7912834866053 68.02658804880897 L 591.7912834866053 68.65913876334196 M 609.5841663334666 57.79542867477306 L 609.5841663334666 64.52652524126688 M 609.5841663334666 79.77052435909704 L 609.5841663334666 81.6229121095396 M 627.3770491803277 64.95998934522208 L 627.3770491803277 73.35231471365896 M 627.3770491803277 80.96171951911106 L 627.3770491803277 84.68068809242648 M 636.2734906037584 77.69015239114651 L 636.2734906037584 80.96171951911106 M 636.2734906037584 114.56989211014522 L 636.2734906037584 118.79520813232874 M 662.9628148740503 89.386139132413 L 662.9628148740503 93.88981838595663 M 662.9628148740503 109.3027278522603 L 662.9628148740503 114.29510911327203 M 680.7556977209116 99.49582626492753 L 680.7556977209116 101.5090688362478 M 680.7556977209116 103.72357173194149 L 680.7556977209116 108.674013103249 M 689.6521391443422 100.94940146662772 L 689.6521391443422 103.7236995974589 M 689.6521391443422 112.68170201483318 L 689.6521391443422 114.36888751680665 M 716.3414634146341 80.44833946678645 L 716.3414634146341 89.4732155497562 M 716.3414634146341 91.19940003453387 L 716.3414634146341 98.08099431499677 M 725.2379048380647 70.51318876551056 L 725.2379048380647 91.19940003453387 M 725.2379048380647 102.42829404077125 L 725.2379048380647 111.74981812408805 M 734.1343462614954 98.39989091536981 L 734.1343462614954 102.42829404077125 M 734.1343462614954 112.28455171781695 L 734.1343462614954 119.08929882232788 M 743.0307876849259 108.82169777583557 L 743.0307876849259 112.28442385229953 M 743.0307876849259 115.70597723216369 L 743.0307876849259 117.70835123450576 M 769.7201119552178 98.37112117395685 L 769.7201119552178 103.11787277606058 M 769.7201119552178 132.69866516583235 L 769.7201119552178 137.94613813403905 M 796.4094362255097 109.52176148355095 L 796.4094362255097 111.86412989663557 M 796.4094362255097 126.51687886205008 L 796.4094362255097 131.90142366489988 M 805.3058776489403 123.9689026970009 L 805.3058776489403 126.51687886205008 M 805.3058776489403 138.85986512131467 L 805.3058776489403 139.53243774279107 M 831.9952019192323 125.80850389570426 L 831.9952019192323 127.42408470793875 M 831.9952019192323 137.6048650681227 L 831.9952019192323 140.30474546783228 M 849.7880847660936 110.54136111922627 L 849.7880847660936 112.52979778017277 M 849.7880847660936 152.64159418226217 L 849.7880847660936 165.1860964969349 M 858.6845261895241 151.073195745945 L 858.6845261895241 152.64159418226217 M 858.6845261895241 159.5361028799816 L 858.6845261895241 169.19979508783646 M 867.5809676129546 157.84150117799942 L 867.5809676129546 159.5361028799816 M 867.5809676129546 166.45848626049215 L 867.5809676129546 175.24783406042783 M 876.4774090363853 165.92362480124584 L 876.4774090363853 166.45835839497474 M 876.4774090363853 184.79427358883524 L 876.4774090363853 188.94287030058427 M 885.3738504598159 182.1762271202558 L 885.3738504598159 184.79440145435268 M 885.3738504598159 192.1547242319272 L 885.3738504598159 196.1538461538462" style="stroke-width: 1px;"></path><path class="candle wick equal" style="stroke-width: 1px;"></path></g></g><g class="x axis" transform="translate(0,200)" fill="none" font-size="10" font-family="sans-serif" text-anchor="middle"><path class="domain" stroke="#000" d="M0.5,6V0.5H890.5V6"></path><g class="tick" opacity="1" transform="translate(13.522590963614554,0)"><line stroke="#000" y2="6" x1="0.5" x2="0.5"></line><text fill="#000" y="9" x="0.5" dy="0.71em">Jan 31</text></g><g class="tick" opacity="1" transform="translate(75.79768092762893,0)"><line stroke="#000" y2="6" x1="0.5" x2="0.5"></line><text fill="#000" y="9" x="0.5" dy="0.71em">Feb  7</text></g><g class="tick" opacity="1" transform="translate(138.07277089164333,0)"><line stroke="#000" y2="6" x1="0.5" x2="0.5"></line><text fill="#000" y="9" x="0.5" dy="0.71em">Feb 14</text></g><g class="tick" opacity="1" transform="translate(200.34786085565773,0)"><line stroke="#000" y2="6" x1="0.5" x2="0.5"></line><text fill="#000" y="9" x="0.5" dy="0.71em">Feb 21</text></g><g class="tick" opacity="1" transform="translate(262.6229508196721,0)"><line stroke="#000" y2="6" x1="0.5" x2="0.5"></line><text fill="#000" y="9" x="0.5" dy="0.71em">Feb 28</text></g><g class="tick" opacity="1" transform="translate(324.89804078368655,0)"><line stroke="#000" y2="6" x1="0.5" x2="0.5"></line><text fill="#000" y="9" x="0.5" dy="0.71em">Mar  7</text></g><g class="tick" opacity="1" transform="translate(387.1731307477009,0)"><line stroke="#000" y2="6" x1="0.5" x2="0.5"></line><text fill="#000" y="9" x="0.5" dy="0.71em">Mar 14</text></g><g class="tick" opacity="1" transform="translate(449.44822071171535,0)"><line stroke="#000" y2="6" x1="0.5" x2="0.5"></line><text fill="#000" y="9" x="0.5" dy="0.71em">Mar 21</text></g><g class="tick" opacity="1" transform="translate(511.7233106757297,0)"><line stroke="#000" y2="6" x1="0.5" x2="0.5"></line><text fill="#000" y="9" x="0.5" dy="0.71em">Mar 28</text></g><g class="tick" opacity="1" transform="translate(573.998400639744,0)"><line stroke="#000" y2="6" x1="0.5" x2="0.5"></line><text fill="#000" y="9" x="0.5" dy="0.71em">Apr  4</text></g><g class="tick" opacity="1" transform="translate(636.2734906037584,0)"><line stroke="#000" y2="6" x1="0.5" x2="0.5"></line><text fill="#000" y="9" x="0.5" dy="0.71em">Apr 11</text></g><g class="tick" opacity="1" transform="translate(698.5485805677728,0)"><line stroke="#000" y2="6" x1="0.5" x2="0.5"></line><text fill="#000" y="9" x="0.5" dy="0.71em">Apr 18</text></g><g class="tick" opacity="1" transform="translate(760.8236705317872,0)"><line stroke="#000" y2="6" x1="0.5" x2="0.5"></line><text fill="#000" y="9" x="0.5" dy="0.71em">Apr 25</text></g><g class="tick" opacity="1" transform="translate(823.0987604958016,0)"><line stroke="#000" y2="6" x1="0.5" x2="0.5"></line><text fill="#000" y="9" x="0.5" dy="0.71em">May  2</text></g><g class="tick" opacity="1" transform="translate(885.3738504598159,0)"><line stroke="#000" y2="6" x1="0.5" x2="0.5"></line><text fill="#000" y="9" x="0.5" dy="0.71em">May  9</text></g></g><g class="y axis" fill="none" font-size="10" font-family="sans-serif" text-anchor="end"><path class="domain" stroke="#000" d="M-6,200.5H0.5V0.5H-6"></path><g class="tick" opacity="1" transform="translate(0,185.28527717561647)"><line stroke="#000" x2="-6" y1="0.5" y2="0.5"></line><text fill="#000" x="-9" y="0.5" dy="0.32em">34,000</text></g><g class="tick" opacity="1" transform="translate(0,159.71217369742888)"><line stroke="#000" x2="-6" y1="0.5" y2="0.5"></line><text fill="#000" x="-9" y="0.5" dy="0.32em">36,000</text></g><g class="tick" opacity="1" transform="translate(0,134.1390702192413)"><line stroke="#000" x2="-6" y1="0.5" y2="0.5"></line><text fill="#000" x="-9" y="0.5" dy="0.32em">38,000</text></g><g class="tick" opacity="1" transform="translate(0,108.5659667410537)"><line stroke="#000" x2="-6" y1="0.5" y2="0.5"></line><text fill="#000" x="-9" y="0.5" dy="0.32em">40,000</text></g><g class="tick" opacity="1" transform="translate(0,82.9928632628661)"><line stroke="#000" x2="-6" y1="0.5" y2="0.5"></line><text fill="#000" x="-9" y="0.5" dy="0.32em">42,000</text></g><g class="tick" opacity="1" transform="translate(0,57.41975978467849)"><line stroke="#000" x2="-6" y1="0.5" y2="0.5"></line><text fill="#000" x="-9" y="0.5" dy="0.32em">44,000</text></g><g class="tick" opacity="1" transform="translate(0,31.846656306490928)"><line stroke="#000" x2="-6" y1="0.5" y2="0.5"></line><text fill="#000" x="-9" y="0.5" dy="0.32em">46,000</text></g><g class="tick" opacity="1" transform="translate(0,6.2735528283033375)"><line stroke="#000" x2="-6" y1="0.5" y2="0.5"></line><text fill="#000" x="-9" y="0.5" dy="0.32em">48,000</text></g><text transform="rotate(-90)" y="6" dy=".71em" style="text-anchor: end;">Price ($)</text></g></g></svg>