<?xml version="1.0" encoding="utf-8"?>
<!DOCTYPE svg PUBLIC "-//W3C//DTD SVG 1.1//EN" "http://www.w3.org/Graphics/SVG/1.1/DTD/svg11.dtd">
<svg version="1.1" xmlns="http://www.w3.org/2000/svg" width="960" height="250"><g transform="translate(50,20)"><style>.axis path,.axis line{fill:none;stroke:#000;shape-rendering:crispEdges;}path.candle{stroke:#000000;}path.candle.body{stroke-width:0;}path.candle.up{fill:#00AA00;stroke:#00AA00;}path.candle.down{fill:#FF0000;stroke:#FF0000;}</style><g class="candlestick"><g class="data"><path class="candle body up" d="M 9.964014394242305 194.1710660659999 l 7.1171531387445 0 L 17.081167532986804 191.52105906157118 l -7.1171531387445 0 L 9.964014394242305 194.1710660659999 M 18.860455817672932 191.52105906157118 l 7.1171531387445 0 L 25.977608956417434 190.8473455272948 l -7.1171531387445 0 L 18.860455817672932 191.52105906157118 M 27.75689724110356 190.8473455272948 l 7.1171531387445 0 L 34.87405037984806 182.76138513802707 l -7.1171531387445 0 L 27.75689724110356 190.8473455272948 M 54.446221511395436 187.07677531624554 l 7.1171531387445 0 L 61.563374650139934 183.40400764266718 l -7.1171531387445 0 L 54.446221511395436 187.07677531624554 M 81.13554578168731 184.39875283367334 l 7.1171531387445 0 L 88.25269892043181 182.23451520775217 l -7.1171531387445 0 L 81.13554578168731 184.39875283367334 M 90.03198720511796 182.2344592886341 l 7.1171531387445 0 L 97.14914034386246 178.83675775674777 l -7.1171531387445 0 L 90.03198720511796 182.2344592886341 M 98.92842862854857 178.8368136758658 l 7.1171531387445 0 L 106.04558176729307 178.67548702028918 l -7.1171531387445 0 L 98.92842862854857 178.8368136758658 M 125.61775289884046 180.70926534379777 l 7.1171531387445 0 L 132.73490603758498 176.47859262942632 l -7.1171531387445 0 L 125.61775289884046 180.70926534379777 M 134.51419432227107 176.4813326662108 l 7.1171531387445 0 L 141.63134746101557 171.18970652506096 l -7.1171531387445 0 L 134.51419432227107 176.4813326662108 M 143.4106357457017 171.18970652506096 l 7.1171531387445 0 L 150.5277888844462 170.53690674093562 l -7.1171531387445 0 L 143.4106357457017 171.18970652506096 M 152.30707716913233 170.5277919246933 l 7.1171531387445 0 L 159.42423030787683 170.3876026957399 l -7.1171531387445 0 L 152.30707716913233 170.5277919246933 M 161.20351859256294 170.38765861485794 l 7.1171531387445 0 L 168.32067173130744 165.61854071277506 l -7.1171531387445 0 L 161.20351859256294 170.38765861485794 M 170.09996001599356 165.6185966318931 l 7.1171531387445 0 L 177.21711315473806 165.34940199759643 l -7.1171531387445 0 L 170.09996001599356 165.6185966318931 M 196.78928428628546 167.22711006262517 l 7.1171531387445 0 L 203.90643742502996 162.7983159129996 l -7.1171531387445 0 L 196.78928428628546 167.22711006262517 M 232.37504998000796 174.09666187693327 l 7.1171531387445 0 L 239.49220311875246 170.85156361820762 l -7.1171531387445 0 L 232.37504998000796 174.09666187693327 M 241.2714914034386 170.85161953732566 l 7.1171531387445 0 L 248.3886445421831 168.2505417611914 l -7.1171531387445 0 L 241.2714914034386 170.85161953732566 M 250.16793282686922 168.25048584207337 l 7.1171531387445 0 L 257.28508596561375 159.80183405312795 l -7.1171531387445 0 L 250.16793282686922 168.25048584207337 M 267.9608156737305 165.00740067159757 l 7.1171531387445 0 L 275.07796881247504 162.55182444063155 l -7.1171531387445 0 L 267.9608156737305 165.00740067159757 M 276.85725709716115 162.5518803597496 l 7.1171531387445 0 L 283.9744102359057 161.33385013036647 l -7.1171531387445 0 L 276.85725709716115 162.5518803597496 M 294.65013994402244 165.6473949776893 l 7.1171531387445 0 L 301.76729308276697 162.86737602379236 l -7.1171531387445 0 L 294.65013994402244 165.6473949776893 M 303.54658136745303 162.86737602379236 l 7.1171531387445 0 L 310.66373450619756 161.68334461818415 l -7.1171531387445 0 L 303.54658136745303 162.86737602379236 M 330.23590563774496 167.4725949908683 l 7.1171531387445 0 L 337.3530587764895 166.25819950415848 l -7.1171531387445 0 L 330.23590563774496 167.4725949908683 M 356.9252299080368 169.080716987774 l 7.1171531387445 0 L 364.0423830467813 164.7628663683613 l -7.1171531387445 0 L 356.9252299080368 169.080716987774 M 365.8216713314674 164.7628663683613 l 7.1171531387445 0 L 372.93882447021196 162.71454907415944 l -7.1171531387445 0 L 365.8216713314674 164.7628663683613 M 374.7181127548981 162.71454907415944 l 7.1171531387445 0 L 381.8352658936426 162.1657029304906 l -7.1171531387445 0 L 374.7181127548981 162.71454907415944 M 383.61455417832866 162.1626273789978 l 7.1171531387445 0 L 390.7317073170732 161.30851876988945 l -7.1171531387445 0 L 383.61455417832866 162.1626273789978 M 392.5109956017593 161.30851876988945 l 7.1171531387445 0 L 399.62814874050383 150.633055861924 l -7.1171531387445 0 L 392.5109956017593 161.30851876988945 M 401.40743702518995 150.633055861924 l 7.1171531387445 0 L 408.5245901639345 142.4596938911428 l -7.1171531387445 0 L 401.40743702518995 150.633055861924 M 410.3038784486206 142.45974981026083 l 7.1171531387445 0 L 417.4210315873651 140.72491509185198 l -7.1171531387445 0 L 410.3038784486206 142.45974981026083 M 419.20031987205124 140.72491509185198 l 7.1171531387445 0 L 426.31747301079577 136.73105984242574 l -7.1171531387445 0 L 419.20031987205124 140.72491509185198 M 445.8896441423431 142.89183683543956 l 7.1171531387445 0 L 453.00679728108764 136.79156432815674 l -7.1171531387445 0 L 445.8896441423431 142.89183683543956 M 463.68252698920435 140.02592611621662 l 7.1171531387445 0 L 470.7996801279489 137.24780841233343 l -7.1171531387445 0 L 463.68252698920435 140.02592611621662 M 472.57896841263494 137.2489827138125 l 7.1171531387445 0 L 479.69612155137946 131.7494492917497 l -7.1171531387445 0 L 472.57896841263494 137.2489827138125 M 481.47540983606564 131.7494492917497 l 7.1171531387445 0 L 488.59256297481016 121.79070171984169 l -7.1171531387445 0 L 481.47540983606564 131.7494492917497 M 499.2682926829268 122.97534823574846 l 7.1171531387445 0 L 506.38544582167134 118.51372956382707 l -7.1171531387445 0 L 499.2682926829268 122.97534823574846 M 508.16473410635746 118.51367364470904 l 7.1171531387445 0 L 515.281887245102 116.80489723531183 l -7.1171531387445 0 L 508.16473410635746 118.51367364470904 M 517.0611755297881 116.80489723531183 l 7.1171531387445 0 L 524.1783286685326 108.46992901336375 l -7.1171531387445 0 L 517.0611755297881 116.80489723531183 M 525.9576169532187 108.4698730942457 l 7.1171531387445 0 L 533.0747700919632 108.20101397465731 l -7.1171531387445 0 L 525.9576169532187 108.4698730942457 M 534.8540583766493 108.20101397465731 l 7.1171531387445 0 L 541.9712115153937 105.91917844347525 l -7.1171531387445 0 L 534.8540583766493 108.20101397465731 M 543.75049980008 105.91912252435719 l 7.1171531387445 0 L 550.8676529388244 90.00101862265441 l -7.1171531387445 0 L 543.75049980008 105.91912252435719 M 552.6469412235106 90.01153141684797 l 7.1171531387445 0 L 559.764094362255 85.40603285418177 l -7.1171531387445 0 L 552.6469412235106 90.01153141684797 M 570.4398240703717 91.05554135085691 l 7.1171531387445 0 L 577.5569772091162 80.09662443349181 l -7.1171531387445 0 L 570.4398240703717 91.05554135085691 M 579.3362654938024 80.09662443349181 l 7.1171531387445 0 L 586.4534186325469 64.32838376816522 l -7.1171531387445 0 L 579.3362654938024 80.09662443349181 M 588.232706917233 64.32838376816522 l 7.1171531387445 0 L 595.3498600559775 49.437569984174246 l -7.1171531387445 0 L 588.232706917233 64.32838376816522 M 597.1291483406637 49.43645160181319 l 7.1171531387445 0 L 604.2463014794082 43.00390769507234 l -7.1171531387445 0 L 597.1291483406637 49.43645160181319 M 641.6113554578168 79.53955817946945 l 7.1171531387445 0 L 648.7285085965613 60.96194102326933 l -7.1171531387445 0 L 641.6113554578168 79.53955817946945 M 650.5077968812475 60.96194102326933 l 7.1171531387445 0 L 657.624950019992 51.046810363440954 l -7.1171531387445 0 L 650.5077968812475 60.96194102326933 M 686.09356257497 69.60921751953128 l 7.1171531387445 0 L 693.2107157137144 65.10057086932915 l -7.1171531387445 0 L 686.09356257497 69.60921751953128 M 721.6793282686924 97.4177949262079 l 7.1171531387445 0 L 728.7964814074369 85.71291697404475 l -7.1171531387445 0 L 721.6793282686924 97.4177949262079 M 739.4722111155537 90.56205513405837 l 7.1171531387445 0 L 746.5893642542982 89.5448863767138 l -7.1171531387445 0 L 739.4722111155537 90.56205513405837 M 757.265093962415 89.57681619312083 l 7.1171531387445 0 L 764.3822471011595 88.38249566979127 l -7.1171531387445 0 L 757.265093962415 89.57681619312083 M 775.0579768092763 100.15671332833746 l 7.1171531387445 0 L 782.1751299480208 83.36604750856955 l -7.1171531387445 0 L 775.0579768092763 100.15671332833746 M 783.9544182327068 83.34748236137668 l 7.1171531387445 0 L 791.0715713714512 78.40412048744743 l -7.1171531387445 0 L 783.9544182327068 83.34748236137668 M 792.8508596561375 78.43722460533348 l 7.1171531387445 0 L 799.9680127948819 78.34439886936913 l -7.1171531387445 0 L 792.8508596561375 78.43722460533348 M 810.6437425029987 84.88643240925352 l 7.1171531387445 0 L 817.7608956417432 82.46289783293062 l -7.1171531387445 0 L 810.6437425029987 84.88643240925352 M 819.5401839264293 82.51479077448182 l 7.1171531387445 0 L 826.6573370651738 71.61531587960474 l -7.1171531387445 0 L 819.5401839264293 82.51479077448182 M 828.43662534986 71.57913621022581 l 7.1171531387445 0 L 835.5537784886045 59.577998770629364 l -7.1171531387445 0 L 828.43662534986 71.57913621022581 M 846.2295081967213 63.39291284229293 l 7.1171531387445 0 L 853.3466613354658 55.82375694205098 l -7.1171531387445 0 L 846.2295081967213 63.39291284229293 M 855.1259496201519 55.82890150091163 l 7.1171531387445 0 L 862.2431027588964 50.80948962643322 l -7.1171531387445 0 L 855.1259496201519 55.82890150091163 M 872.9188324670131 52.997325120171865 l 7.1171531387445 0 L 880.0359856057576 10.615219005324576 l -7.1171531387445 0 L 872.9188324670131 52.997325120171865 M 881.8152738904437 10.615274924442645 l 7.1171531387445 0 L 888.9324270291881 4.533399806998517 l -7.1171531387445 0 L 881.8152738904437 10.615274924442645"></path><path class="candle body down" d="M 1.0675729708116766 192.98636363097506 l 7.1171531387445 0 L 8.184726109556177 194.17251996306922 l -7.1171531387445 0 L 1.0675729708116766 192.98636363097506 M 36.65333866453418 182.76138513802707 l 7.1171531387445 0 L 43.77049180327868 182.8178634472584 l -7.1171531387445 0 L 36.65333866453418 182.76138513802707 M 45.54978008796481 182.81780752814035 l 7.1171531387445 0 L 52.66693322670931 187.07677531624554 l -7.1171531387445 0 L 45.54978008796481 182.81780752814035 M 63.342662934826066 183.40400764266718 l 7.1171531387445 0 L 70.45981607357056 184.22428518535477 l -7.1171531387445 0 L 63.342662934826066 183.40400764266718 M 72.23910435825668 184.22428518535477 l 7.1171531387445 0 L 79.35625749700118 184.39875283367334 l -7.1171531387445 0 L 72.23910435825668 184.22428518535477 M 107.82487005197919 178.67917768208054 l 7.1171531387445 0 L 114.94202319072369 180.07486294951113 l -7.1171531387445 0 L 107.82487005197919 178.67917768208054 M 116.72131147540982 180.07983975101766 l 7.1171531387445 0 L 123.83846461415432 180.70926534379777 l -7.1171531387445 0 L 116.72131147540982 180.07983975101766 M 178.9964014394242 165.34940199759643 l 7.1171531387445 0 L 186.1135545781687 166.9675335166332 l -7.1171531387445 0 L 178.9964014394242 165.34940199759643 M 187.89284286285485 166.970609068126 l 7.1171531387445 0 L 195.00999600159935 167.2271659817432 l -7.1171531387445 0 L 187.89284286285485 166.970609068126 M 205.68572570971608 162.79837183211765 l 7.1171531387445 0 L 212.80287884846058 165.2637898278606 l -7.1171531387445 0 L 205.68572570971608 162.79837183211765 M 214.5821671331467 165.265355563166 l 7.1171531387445 0 L 221.6993202718912 174.04107827359073 l -7.1171531387445 0 L 214.5821671331467 165.265355563166 M 223.47860855657734 174.04107827359073 l 7.1171531387445 0 L 230.59576169532184 174.0967177960513 l -7.1171531387445 0 L 223.47860855657734 174.04107827359073 M 259.06437425029986 159.80183405312795 l 7.1171531387445 0 L 266.1815273890444 165.00740067159757 l -7.1171531387445 0 L 259.06437425029986 159.80183405312795 M 285.7536985205918 161.33138968917223 l 7.1171531387445 0 L 292.8708516593363 165.64733905857122 l -7.1171531387445 0 L 285.7536985205918 161.33138968917223 M 312.4430227908837 161.68742671380187 l 7.1171531387445 0 L 319.5601759296282 162.75978764066258 l -7.1171531387445 0 L 312.4430227908837 161.68742671380187 M 321.3394642143143 162.75978764066258 l 7.1171531387445 0 L 328.45661735305885 167.4725949908683 l -7.1171531387445 0 L 321.3394642143143 162.75978764066258 M 339.13234706117555 166.25814358504041 l 7.1171531387445 0 L 346.2495001999201 167.86112102308545 l -7.1171531387445 0 L 339.13234706117555 166.25814358504041 M 348.02878848460614 167.86011447896053 l 7.1171531387445 0 L 355.14594162335067 169.080716987774 l -7.1171531387445 0 L 348.02878848460614 167.86011447896053 M 428.0967612954818 136.7311157615438 l 7.1171531387445 0 L 435.21391443422635 138.77820283514848 l -7.1171531387445 0 L 428.0967612954818 136.7311157615438 M 436.99320271891247 138.7780909969124 l 7.1171531387445 0 L 444.110355857657 142.89278746044647 l -7.1171531387445 0 L 436.99320271891247 138.7780909969124 M 454.7860855657737 136.79156432815674 l 7.1171531387445 0 L 461.90323870451823 140.02385710884874 l -7.1171531387445 0 L 454.7860855657737 136.79156432815674 M 490.3718512594962 121.79064580072362 l 7.1171531387445 0 L 497.48900439824075 122.97467720633186 l -7.1171531387445 0 L 490.3718512594962 121.79064580072362 M 561.5433826469413 85.40603285418177 l 7.1171531387445 0 L 568.6605357856857 91.06135693913421 l -7.1171531387445 0 L 561.5433826469413 85.40603285418177 M 606.0255897640943 42.98070126108124 l 7.1171531387445 0 L 613.1427429028388 45.76961135474821 l -7.1171531387445 0 L 606.0255897640943 42.98070126108124 M 614.9220311875249 45.76961135474821 l 7.1171531387445 0 L 622.0391843262694 56.60785481535967 l -7.1171531387445 0 L 614.9220311875249 45.76961135474821 M 623.8184726109555 56.60785481535967 l 7.1171531387445 0 L 630.9356257497 71.96072827180467 l -7.1171531387445 0 L 623.8184726109555 56.60785481535967 M 632.7149140343862 71.92773599215468 l 7.1171531387445 0 L 639.8320671731307 79.52787108379684 l -7.1171531387445 0 L 632.7149140343862 71.92773599215468 M 659.4042383046781 51.042840106059316 l 7.1171531387445 0 L 666.5213914434225 64.48014825455519 l -7.1171531387445 0 L 659.4042383046781 51.042840106059316 M 668.3006797281087 64.50693351210154 l 7.1171531387445 0 L 675.4178328668531 68.65864843178522 l -7.1171531387445 0 L 668.3006797281087 64.50693351210154 M 677.1971211515394 68.65864843178522 l 7.1171531387445 0 L 684.3142742902838 69.58897479879687 l -7.1171531387445 0 L 677.1971211515394 68.65864843178522 M 694.9900039984005 65.14983561233191 l 7.1171531387445 0 L 702.107157137145 69.23735538449327 l -7.1171531387445 0 L 694.9900039984005 65.14983561233191 M 703.8864454218311 69.17891990613012 l 7.1171531387445 0 L 711.0035985605756 71.60418797511258 l -7.1171531387445 0 L 703.8864454218311 69.17891990613012 M 712.7828868452618 71.60418797511258 l 7.1171531387445 0 L 719.9000399840063 97.42819588216535 l -7.1171531387445 0 L 712.7828868452618 71.60418797511258 M 730.5757696921231 85.68590804002618 l 7.1171531387445 0 L 737.6929228308676 90.56205513405837 l -7.1171531387445 0 L 730.5757696921231 85.68590804002618 M 748.3686525389844 89.5474027370261 l 7.1171531387445 0 L 755.4858056777289 89.5767602740028 l -7.1171531387445 0 L 748.3686525389844 89.5474027370261 M 766.1615353858456 88.40352125817839 l 7.1171531387445 0 L 773.27868852459 100.13456935758931 l -7.1171531387445 0 L 766.1615353858456 88.40352125817839 M 801.747301079568 78.34434295025108 l 7.1171531387445 0 L 808.8644542183125 84.88637649013543 l -7.1171531387445 0 L 801.747301079568 78.34434295025108 M 837.3330667732906 59.57022601322029 l 7.1171531387445 0 L 844.4502199120351 63.39285692317486 l -7.1171531387445 0 L 837.3330667732906 59.57022601322029 M 864.0223910435824 50.842649663437356 l 7.1171531387445 0 L 871.1395441823269 52.997325120171865 l -7.1171531387445 0 L 864.0223910435824 50.842649663437356"></path><path class="candle body equal"></path><path class="candle wick up" d="M 13.522590963614554 191.28295545691074 L 13.522590963614554 191.52105906157118 M 13.522590963614554 194.1710660659999 L 13.522590963614554 195.650909606097 M 22.41903238704518 190.20433158882832 L 22.41903238704518 190.8473455272948 M 22.41903238704518 191.52105906157118 L 22.41903238704518 194.30879485375908 M 31.315473810475808 181.8667910874499 L 31.315473810475808 182.76138513802707 M 31.315473810475808 190.8473455272948 L 31.315473810475808 191.12945747786122 M 58.004798080767685 182.4259822679582 L 58.004798080767685 183.40400764266718 M 58.004798080767685 187.07677531624554 L 58.004798080767685 187.71660186498312 M 84.69412235105956 180.66453004935713 L 84.69412235105956 182.23451520775217 M 84.69412235105956 184.39875283367334 L 84.69412235105956 184.53592243025201 M 93.5905637744902 178.5636487841875 L 93.5905637744902 178.83675775674777 M 93.5905637744902 182.2344592886341 L 93.5905637744902 183.59670492347033 M 102.48700519792082 177.7846954697395 L 102.48700519792082 178.67548702028918 M 102.48700519792082 178.8368136758658 L 102.48700519792082 180.73526773369142 M 129.1763294682127 175.54793074770637 L 129.1763294682127 176.47859262942632 M 129.1763294682127 180.70926534379777 L 129.1763294682127 181.22931314167047 M 138.07277089164333 170.07445563465527 L 138.07277089164333 171.18970652506096 M 138.07277089164333 176.4813326662108 L 138.07277089164333 177.4603645850447 M 146.96921231507397 166.61803902881553 L 146.96921231507397 170.53690674093562 M 146.96921231507397 171.18970652506096 L 146.96921231507397 173.67771584449645 M 155.8656537385046 168.2795637834598 L 155.8656537385046 170.3876026957399 M 155.8656537385046 170.5277919246933 L 155.8656537385046 172.9999761337204 M 164.7620951619352 164.72635118427408 L 164.7620951619352 165.61854071277506 M 164.7620951619352 170.38765861485794 L 164.7620951619352 170.73866291886299 M 173.65853658536582 163.8837619134842 L 173.65853658536582 165.34940199759643 M 173.65853658536582 165.6185966318931 L 173.65853658536582 167.55943738120123 M 200.34786085565773 161.35023443195536 L 200.34786085565773 162.7983159129996 M 200.34786085565773 167.22711006262517 L 200.34786085565773 169.1843351135222 M 235.93362654938022 169.9532789058391 L 235.93362654938022 170.85156361820762 M 235.93362654938022 174.09666187693327 L 235.93362654938022 175.62867795417176 M 244.83006797281087 167.27162168059363 L 244.83006797281087 168.2505417611914 M 244.83006797281087 170.85161953732566 L 244.83006797281087 171.98588292786866 M 253.72650939624148 158.86636312725565 L 253.72650939624148 159.80183405312795 M 253.72650939624148 168.25048584207337 L 253.72650939624148 168.2505417611914 M 271.51939224310274 161.78064388359257 L 271.51939224310274 162.55182444063155 M 271.51939224310274 165.00740067159757 L 271.51939224310274 167.43965863033637 M 280.4158336665334 160.3491144614914 L 280.4158336665334 161.33385013036647 M 280.4158336665334 162.5518803597496 L 280.4158336665334 164.4356836086459 M 298.2087165133947 162.70330933143123 L 298.2087165133947 162.86737602379236 M 298.2087165133947 165.6473949776893 L 298.2087165133947 166.48903362347227 M 307.10515793682526 161.34447476279612 L 307.10515793682526 161.68334461818415 M 307.10515793682526 162.86737602379236 L 307.10515793682526 164.49272110905773 M 333.7944822071172 165.70857049283688 L 333.7944822071172 166.25819950415848 M 333.7944822071172 167.4725949908683 L 333.7944822071172 171.24215865779263 M 360.483806477409 163.98016647300386 L 360.483806477409 164.7628663683613 M 360.483806477409 169.080716987774 L 360.483806477409 169.16923695164846 M 369.38024790083966 161.39480196904188 L 369.38024790083966 162.71454907415944 M 369.38024790083966 164.7628663683613 L 369.38024790083966 165.30846920318322 M 378.2766893242703 161.74150050095702 L 378.2766893242703 162.1657029304906 M 378.2766893242703 162.71454907415944 L 378.2766893242703 163.6930777209309 M 387.1731307477009 160.5056879920337 L 387.1731307477009 161.30851876988945 M 387.1731307477009 162.1626273789978 L 387.1731307477009 163.41348213067675 M 396.06957217113154 149.377783499919 L 396.06957217113154 150.633055861924 M 396.06957217113154 161.30851876988945 L 396.06957217113154 162.13517109203485 M 404.9660135945622 136.85190105653356 L 404.9660135945622 142.4596938911428 M 404.9660135945622 150.633055861924 L 404.9660135945622 151.22311439559633 M 413.86245501799283 139.7307290920263 L 413.86245501799283 140.72491509185198 M 413.86245501799283 142.45974981026083 L 413.86245501799283 144.9601731739036 M 422.7588964414235 134.77467357829948 L 422.7588964414235 136.73105984242574 M 422.7588964414235 140.72491509185198 L 422.7588964414235 142.72340845187048 M 449.44822071171535 136.644441128565 L 449.44822071171535 136.79156432815674 M 449.44822071171535 142.89183683543956 L 449.44822071171535 144.94116067376632 M 467.2411035585766 136.8830480052879 L 467.2411035585766 137.24780841233343 M 467.2411035585766 140.02592611621662 L 467.2411035585766 142.98387970375126 M 476.13754498200717 131.31669123715432 L 476.13754498200717 131.7494492917497 M 476.13754498200717 137.2489827138125 L 476.13754498200717 138.90077754191591 M 485.0339864054379 119.70133979299055 L 485.0339864054379 121.79070171984169 M 485.0339864054379 131.7494492917497 L 485.0339864054379 132.93756279297565 M 502.82686925229905 116.1618273777273 L 502.82686925229905 118.51372956382707 M 502.82686925229905 122.97534823574846 L 502.82686925229905 123.98491199303811 M 511.7233106757297 116.66509944018476 L 511.7233106757297 116.80489723531183 M 511.7233106757297 118.51367364470904 L 511.7233106757297 125.22072450196141 M 520.6197520991603 107.79632731732349 L 520.6197520991603 108.46992901336375 M 520.6197520991603 116.80489723531183 L 520.6197520991603 117.16837150264222 M 529.5161935225909 106.09638612857832 L 529.5161935225909 108.20101397465731 M 529.5161935225909 108.4698730942457 L 529.5161935225909 114.20465824594834 M 538.4126349460215 104.4188125870535 L 538.4126349460215 105.91917844347525 M 538.4126349460215 108.20101397465731 L 538.4126349460215 109.87333111908538 M 547.3090763694522 83.72873890824721 L 547.3090763694522 90.00101862265441 M 547.3090763694522 105.91912252435719 L 547.3090763694522 108.07295919432093 M 556.2055177928828 75.4632781500363 L 556.2055177928828 85.40603285418177 M 556.2055177928828 90.01153141684797 L 556.2055177928828 91.20518091076093 M 573.998400639744 77.80131239485948 L 573.998400639744 80.09662443349181 M 573.998400639744 91.05554135085691 L 573.998400639744 102.74123904552866 M 582.8948420631747 63.37859754807192 L 582.8948420631747 64.32838376816522 M 582.8948420631747 80.09662443349181 L 582.8948420631747 83.7958418499082 M 591.7912834866053 44.22188200533742 L 591.7912834866053 49.437569984174246 M 591.7912834866053 64.32838376816522 L 591.7912834866053 66.95300349299887 M 600.687724910036 35.35870179428122 L 600.687724910036 43.00390769507234 M 600.687724910036 49.43645160181319 L 600.687724910036 65.83462113198232 M 645.169932027189 58.2855401951206 L 645.169932027189 60.96194102326933 M 645.169932027189 79.53955817946945 L 645.169932027189 88.87329776892336 M 654.0663734506197 45.70373863368437 L 654.0663734506197 51.046810363440954 M 654.0663734506197 60.96194102326933 L 654.0663734506197 64.7093607194455 M 689.6521391443422 60.411417306058894 L 689.6521391443422 65.10057086932915 M 689.6521391443422 69.60921751953128 L 689.6521391443422 75.34087120062306 M 725.2379048380647 80.78442958551699 L 725.2379048380647 85.71291697404475 M 725.2379048380647 97.4177949262079 L 725.2379048380647 108.61274644086556 M 743.0307876849259 85.00928671161117 L 743.0307876849259 89.5448863767138 M 743.0307876849259 90.56205513405837 L 743.0307876849259 97.14932724044587 M 760.8236705317872 85.84315259998515 L 760.8236705317872 88.38249566979127 M 760.8236705317872 89.57681619312083 L 760.8236705317872 97.49954867679821 M 778.6165533786485 81.02236543282324 L 778.6165533786485 83.36604750856955 M 778.6165533786485 100.15671332833746 L 778.6165533786485 103.06501073904295 M 787.512994802079 54.47241553523466 L 787.512994802079 78.40412048744743 M 787.512994802079 83.34748236137668 L 787.512994802079 91.47129999356483 M 796.4094362255097 74.59714693054704 L 796.4094362255097 78.34439886936913 M 796.4094362255097 78.43722460533348 L 796.4094362255097 86.38489701566155 M 814.202319072371 75.80349006425757 L 814.202319072371 82.46289783293062 M 814.202319072371 84.88643240925352 L 814.202319072371 89.34212365466152 M 823.0987604958016 68.71820229250935 L 823.0987604958016 71.61531587960474 M 823.0987604958016 82.51479077448182 L 823.0987604958016 83.06889331524745 M 831.9952019192323 59.33329671003898 L 831.9952019192323 59.577998770629364 M 831.9952019192323 71.57913621022581 L 831.9952019192323 72.19609183968063 M 849.7880847660936 55.712589735365896 L 849.7880847660936 55.82375694205098 M 849.7880847660936 63.39291284229293 L 849.7880847660936 65.44318730562654 M 858.6845261895241 40.919802165317975 L 858.6845261895241 50.80948962643322 M 858.6845261895241 55.82890150091163 L 858.6845261895241 56.239235989168606 M 876.4774090363853 8.268964650147979 L 876.4774090363853 10.615219005324576 M 876.4774090363853 52.997325120171865 L 876.4774090363853 57.508879564512654 M 885.3738504598159 3.846153846153868 L 885.3738504598159 4.533399806998517 M 885.3738504598159 10.615274924442645 L 885.3738504598159 15.50741488623737" style="stroke-width: 1px;"></path><path class="candle wick down" d="M 4.626149540183927 192.60326175320884 L 4.626149540183927 192.98636363097506 M 4.626149540183927 194.17251996306922 L 4.626149540183927 196.15384615384616 M 40.21191523390643 180.69248960838254 L 40.21191523390643 182.76138513802707 M 40.21191523390643 182.8178634472584 L 40.21191523390643 185.13246758161824 M 49.10835665733706 181.847107557896 L 49.10835665733706 182.81780752814035 M 49.10835665733706 187.07677531624554 L 49.10835665733706 189.72778886479918 M 66.90123950419832 181.36351902499246 L 66.90123950419832 183.40400764266718 M 66.90123950419832 184.22428518535477 L 66.90123950419832 187.1481281108784 M 75.79768092762893 183.48844551092392 L 75.79768092762893 184.22428518535477 M 75.79768092762893 184.39875283367334 L 75.79768092762893 185.6555350118657 M 111.38344662135144 178.6403138950352 L 111.38344662135144 178.67917768208054 M 111.38344662135144 180.07486294951113 L 111.38344662135144 182.31414403185653 M 120.27988804478207 179.4622690112643 L 120.27988804478207 180.07983975101766 M 120.27988804478207 180.70926534379777 L 120.27988804478207 181.72855902762828 M 182.55497800879647 165.0910556722016 L 182.55497800879647 165.34940199759643 M 182.55497800879647 166.9675335166332 L 182.55497800879647 171.46102608584357 M 191.4514194322271 165.00158508332026 L 191.4514194322271 166.970609068126 M 191.4514194322271 167.2271659817432 L 191.4514194322271 169.28498952601367 M 209.24430227908834 160.98541810579178 L 209.24430227908834 162.79837183211765 M 209.24430227908834 165.2637898278606 L 209.24430227908834 166.4875238072849 M 218.14074370251896 164.16822246700877 L 218.14074370251896 165.265355563166 M 218.14074370251896 174.04107827359073 L 218.14074370251896 179.41753371682367 M 227.0371851259496 172.31793065085446 L 227.0371851259496 174.04107827359073 M 227.0371851259496 174.0967177960513 L 227.0371851259496 178.01910841260855 M 262.6229508196721 158.7274600380174 L 262.6229508196721 159.80183405312795 M 262.6229508196721 165.00740067159757 L 262.6229508196721 169.27872658479197 M 289.31227508996403 160.74614019965227 L 289.31227508996403 161.33138968917223 M 289.31227508996403 165.64733905857122 L 289.31227508996403 166.12382586348232 M 316.0015993602559 161.33938612305352 L 316.0015993602559 161.68742671380187 M 316.0015993602559 162.75978764066258 L 316.0015993602559 164.23616419544052 M 324.89804078368655 162.0443584443203 L 324.89804078368655 162.75978764066258 M 324.89804078368655 167.4725949908683 L 324.89804078368655 168.16660716499712 M 342.6909236305478 166.16850523880493 L 342.6909236305478 166.25814358504041 M 342.6909236305478 167.86112102308545 L 342.6909236305478 169.78199864724942 M 351.5873650539784 167.6480691833118 L 351.5873650539784 167.86011447896053 M 351.5873650539784 169.080716987774 L 351.5873650539784 171.67648244769342 M 431.65533786485406 134.0839047130176 L 431.65533786485406 136.7311157615438 M 431.65533786485406 138.77820283514848 L 431.65533786485406 140.98991579229482 M 440.5517792882847 135.15883791930867 L 440.5517792882847 138.7780909969124 M 440.5517792882847 142.89278746044647 L 440.5517792882847 147.95184598962288 M 458.34466213514594 135.17432751500877 L 458.34466213514594 136.79156432815674 M 458.34466213514594 140.02385710884874 L 458.34466213514594 143.5621952226329 M 493.93042782886846 111.006084693441 L 493.93042782886846 121.79064580072362 M 493.93042782886846 122.97467720633186 L 493.93042782886846 126.22726862687631 M 565.1019592163135 82.05116536672239 L 565.1019592163135 85.40603285418177 M 565.1019592163135 91.06135693913421 L 565.1019592163135 112.63892294052516 M 609.5841663334666 38.546091523178404 L 609.5841663334666 42.98070126108124 M 609.5841663334666 45.76961135474821 L 609.5841663334666 53.420576924698565 M 618.4806077568971 38.71384887733089 L 618.4806077568971 45.76961135474821 M 618.4806077568971 56.60785481535967 L 618.4806077568971 73.60117151894374 M 627.3770491803277 55.966350693080585 L 627.3770491803277 56.60785481535967 M 627.3770491803277 71.96072827180467 L 627.3770491803277 99.83344490688562 M 636.2734906037584 65.11885642093173 L 636.2734906037584 71.92773599215468 M 636.2734906037584 79.52787108379684 L 636.2734906037584 88.02891908635588 M 662.9628148740503 47.673433647906705 L 662.9628148740503 51.042840106059316 M 662.9628148740503 64.48014825455519 L 662.9628148740503 77.5329006282155 M 671.8592562974809 57.72634901461231 L 671.8592562974809 64.50693351210154 M 671.8592562974809 68.65864843178522 L 671.8592562974809 72.22170279574786 M 680.7556977209116 63.86347222069065 L 680.7556977209116 68.65864843178522 M 680.7556977209116 69.58897479879687 L 680.7556977209116 80.65318741545168 M 698.5485805677728 58.2855401951206 L 698.5485805677728 65.14983561233191 M 698.5485805677728 69.23735538449327 L 698.5485805677728 69.50257976140836 M 707.4450219912034 66.3082001427548 L 707.4450219912034 69.17891990613012 M 707.4450219912034 71.60418797511258 L 707.4450219912034 83.16954772773894 M 716.3414634146341 70.86734175655684 L 716.3414634146341 71.60418797511258 M 716.3414634146341 97.42819588216535 L 716.3414634146341 101.7850221268595 M 734.1343462614954 82.85640066665432 L 734.1343462614954 85.68590804002618 M 734.1343462614954 90.56205513405837 L 734.1343462614954 94.4083957500665 M 751.9272291083566 74.92147781524186 L 751.9272291083566 89.5474027370261 M 751.9272291083566 89.5767602740028 L 751.9272291083566 91.50149631731227 M 769.7201119552178 87.88190772500025 L 769.7201119552178 88.40352125817839 M 769.7201119552178 100.13456935758931 L 769.7201119552178 106.42228274857854 M 805.3058776489403 77.89810838820546 L 805.3058776489403 78.34434295025108 M 805.3058776489403 84.88637649013543 L 805.3058776489403 90.03826075527628 M 840.8916433426629 53.486170050172234 L 840.8916433426629 59.57022601322029 M 840.8916433426629 63.39285692317486 L 840.8916433426629 67.72496691769058 M 867.5809676129546 47.94050335571745 L 867.5809676129546 50.842649663437356 M 867.5809676129546 52.997325120171865 L 867.5809676129546 61.0759041858569" style="stroke-width: 1px;"></path><path class="candle wick equal" style="stroke-width: 1px;"></path></g></g><g class="x axis" transform="translate(0,200)" fill="none" font-size="10" font-family="sans-serif" text-anchor="middle"><path class="domain" stroke="#000" d="M0.5,6V0.5H890.5V6"></path><g class="tick" opacity="1" transform="translate(4.626149540183927,0)"><line stroke="#000" y2="6" x1="0.5" x2="0.5"></line><text fill="#000" y="9" x="0.5" dy="0.71em">Nov  2</text></g><g class="tick" opacity="1" transform="translate(66.90123950419832,0)"><line stroke="#000" y2="6" x1="0.5" x2="0.5"></line><text fill="#000" y="9" x="0.5" dy="0.71em">Nov  9</text></g><g class="tick" opacity="1" transform="translate(129.1763294682127,0)"><line stroke="#000" y2="6" x1="0.5" x2="0.5"></line><text fill="#000" y="9" x="0.5" dy="0.71em">Nov 16</text></g><g class="tick" opacity="1" transform="translate(191.4514194322271,0)"><line stroke="#000" y2="6" x1="0.5" x2="0.5"></line><text fill="#000" y="9" x="0.5" dy="0.71em">Nov 23</text></g><g class="tick" opacity="1" transform="translate(253.72650939624148,0)"><line stroke="#000" y2="6" x1="0.5" x2="0.5"></line><text fill="#000" y="9" x="0.5" dy="0.71em">Nov 30</text></g><g class="tick" opacity="1" transform="translate(316.0015993602559,0)"><line stroke="#000" y2="6" x1="0.5" x2="0.5"></line><text fill="#000" y="9" x="0.5" dy="0.71em">Dec  7</text></g><g class="tick" opacity="1" transform="translate(378.2766893242703,0)"><line stroke="#000" y2="6" x1="0.5" x2="0.5"></line><text fill="#000" y="9" x="0.5" dy="0.71em">Dec 14</text></g><g class="tick" opacity="1" transform="translate(440.5517792882847,0)"><line stroke="#000" y2="6" x1="0.5" x2="0.5"></line><text fill="#000" y="9" x="0.5" dy="0.71em">Dec 21</text></g><g class="tick" opacity="1" transform="translate(502.82686925229905,0)"><line stroke="#000" y2="6" x1="0.5" x2="0.5"></line><text fill="#000" y="9" x="0.5" dy="0.71em">Dec 28</text></g><g class="tick" opacity="1" transform="translate(565.1019592163135,0)"><line stroke="#000" y2="6" x1="0.5" x2="0.5"></line><text fill="#000" y="9" x="0.5" dy="0.71em">Jan  4</text></g><g class="tick" opacity="1" transform="translate(627.3770491803277,0)"><line stroke="#000" y2="6" x1="0.5" x2="0.5"></line><text fill="#000" y="9" x="0.5" dy="0.71em">Jan 11</text></g><g class="tick" opacity="1" transform="translate(689.6521391443422,0)"><line stroke="#000" y2="6" x1="0.5" x2="0.5"></line><text fill="#000" y="9" x="0.5" dy="0.71em">Jan 18</text></g><g class="tick" opacity="1" transform="translate(751.9272291083566,0)"><line stroke="#000" y2="6" x1="0.5" x2="0.5"></line><text fill="#000" y="9" x="0.5" dy="0.71em">Jan 25</text></g><g class="tick" opacity="1" transform="translate(814.202319072371,0)"><line stroke="#000" y2="6" x1="0.5" x2="0.5"></line><text fill="#000" y="9" x="0.5" dy="0.71em">Feb  1</text></g><g class="tick" opacity="1" transform="translate(876.4774090363853,0)"><line stroke="#000" y2="6" x1="0.5" x2="0.5"></line><text fill="#000" y="9" x="0.5" dy="0.71em">Feb  8</text></g></g><g class="y axis" fill="none" font-size="10" font-family="sans-serif" text-anchor="end"><path class="domain" stroke="#000" d="M-6,200.5H0.5V0.5H-6"></path><g class="tick" opacity="1" transform="translate(0,186.06072494126198)"><line stroke="#000" x2="-6" y1="0.5" y2="0.5"></line><text fill="#000" x="-9" y="0.5" dy="0.32em">15,000</text></g><g class="tick" opacity="1" transform="translate(0,158.10116591584813)"><line stroke="#000" x2="-6" y1="0.5" y2="0.5"></line><text fill="#000" x="-9" y="0.5" dy="0.32em">20,000</text></g><g class="tick" opacity="1" transform="translate(0,130.14160689043425)"><line stroke="#000" x2="-6" y1="0.5" y2="0.5"></line><text fill="#000" x="-9" y="0.5" dy="0.32em">25,000</text></g><g class="tick" opacity="1" transform="translate(0,102.18204786502038)"><line stroke="#000" x2="-6" y1="0.5" y2="0.5"></line><text fill="#000" x="-9" y="0.5" dy="0.32em">30,000</text></g><g class="tick" opacity="1" transform="translate(0,74.2224888396065)"><line stroke="#000" x2="-6" y1="0.5" y2="0.5"></line><text fill="#000" x="-9" y="0.5" dy="0.32em">35,000</text></g><g class="tick" opacity="1" transform="translate(0,46.26292981419263)"><line stroke="#000" x2="-6" y1="0.5" y2="0.5"></line><text fill="#000" x="-9" y="0.5" dy="0.32em">40,000</text></g><g class="tick" opacity="1" transform="translate(0,18.30337078877875)"><line stroke="#000" x2="-6" y1="0.5" y2="0.5"></line><text fill="#000" x="-9" y="0.5" dy="0.32em">45,000</text></g><text transform="rotate(-90)" y="6" dy=".71em" style="text-anchor: end;">Price ($)</text></g></g></svg>