<?xml version="1.0" encoding="utf-8"?>
<!DOCTYPE svg PUBLIC "-//W3C//DTD SVG 1.1//EN" "http://www.w3.org/Graphics/SVG/1.1/DTD/svg11.dtd">
<svg version="1.1" xmlns="http://www.w3.org/2000/svg" width="960" height="250"><g transform="translate(50,20)"><style>.axis path,.axis line{fill:none;stroke:#000;shape-rendering:crispEdges;}path.candle{stroke:#000000;}path.candle.body{stroke-width:0;}path.candle.up{fill:#00AA00;stroke:#00AA00;}path.candle.down{fill:#FF0000;stroke:#FF0000;}</style><g class="candlestick"><g class="data"><path class="candle body up" d="M 1.0675729708116766 164.37519015217615 l 7.1171531387445 0 L 8.184726109556177 158.15421307300778 l -7.1171531387445 0 L 1.0675729708116766 164.37519015217615 M 9.964014394242305 158.15428355847752 l 7.1171531387445 0 L 17.081167532986804 153.80258113843223 l -7.1171531387445 0 L 9.964014394242305 158.15428355847752 M 27.75689724110356 165.0545995955882 l 7.1171531387445 0 L 34.87405037984806 161.31985649271124 l -7.1171531387445 0 L 27.75689724110356 165.0545995955882 M 54.446221511395436 170.79521819806266 l 7.1171531387445 0 L 61.563374650139934 164.16887918206857 l -7.1171531387445 0 L 54.446221511395436 170.79521819806266 M 72.23910435825668 166.37465147402173 l 7.1171531387445 0 L 79.35625749700118 161.04510413142688 l -7.1171531387445 0 L 72.23910435825668 166.37465147402173 M 98.92842862854857 171.82846469987584 l 7.1171531387445 0 L 106.04558176729307 171.18775177938457 l -7.1171531387445 0 L 98.92842862854857 171.82846469987584 M 125.61775289884046 181.31059301032812 l 7.1171531387445 0 L 132.73490603758498 180.3505104261684 l -7.1171531387445 0 L 125.61775289884046 181.31059301032812 M 134.51419432227107 180.3505104261684 l 7.1171531387445 0 L 141.63134746101557 178.52853151728178 l -7.1171531387445 0 L 134.51419432227107 180.3505104261684 M 161.20351859256294 192.54259359406058 l 7.1171531387445 0 L 168.32067173130744 175.9491157499134 l -7.1171531387445 0 L 161.20351859256294 192.54259359406058 M 170.09996001599356 175.9491157499134 l 7.1171531387445 0 L 177.21711315473806 174.9389179967251 l -7.1171531387445 0 L 170.09996001599356 175.9491157499134 M 178.9964014394242 174.94068013347015 l 7.1171531387445 0 L 186.1135545781687 165.44974113929277 l -7.1171531387445 0 L 178.9964014394242 174.94068013347015 M 187.89284286285485 165.44967065382295 l 7.1171531387445 0 L 195.00999600159935 161.05109539635995 l -7.1171531387445 0 L 187.89284286285485 165.44967065382295 M 196.78928428628546 161.027341793037 l 7.1171531387445 0 L 203.90643742502996 153.1364229633428 l -7.1171531387445 0 L 196.78928428628546 161.027341793037 M 205.68572570971608 153.1364229633428 l 7.1171531387445 0 L 212.80287884846058 140.05023161102463 l -7.1171531387445 0 L 205.68572570971608 153.1364229633428 M 214.5821671331467 140.02394053078882 l 7.1171531387445 0 L 221.6993202718912 124.4005542075131 l -7.1171531387445 0 L 214.5821671331467 140.02394053078882 M 223.47860855657734 124.40943537670803 l 7.1171531387445 0 L 230.59576169532184 120.44145585425952 l -7.1171531387445 0 L 223.47860855657734 124.40943537670803 M 241.2714914034386 120.44899779952823 l 7.1171531387445 0 L 248.3886445421831 105.02762283270218 l -7.1171531387445 0 L 241.2714914034386 120.44899779952823 M 285.7536985205918 133.21708822663436 l 7.1171531387445 0 L 292.8708516593363 122.5305042082222 l -7.1171531387445 0 L 285.7536985205918 133.21708822663436 M 294.65013994402244 122.530574693692 l 7.1171531387445 0 L 301.76729308276697 114.50023560473136 l -7.1171531387445 0 L 294.65013994402244 122.530574693692 M 303.54658136745303 114.50023560473136 l 7.1171531387445 0 L 310.66373450619756 100.58351396174774 l -7.1171531387445 0 L 303.54658136745303 114.50023560473136 M 312.4430227908837 100.58351396174774 l 7.1171531387445 0 L 319.5601759296282 88.34956242479375 l -7.1171531387445 0 L 312.4430227908837 100.58351396174774 M 330.23590563774496 93.83460071376967 l 7.1171531387445 0 L 337.3530587764895 76.50194174781915 l -7.1171531387445 0 L 330.23590563774496 93.83460071376967 M 365.8216713314674 89.56529580792181 l 7.1171531387445 0 L 372.93882447021196 65.60065898839309 l -7.1171531387445 0 L 365.8216713314674 89.56529580792181 M 410.3038784486206 87.47970124197937 l 7.1171531387445 0 L 417.4210315873651 87.41386781318519 l -7.1171531387445 0 L 410.3038784486206 87.47970124197937 M 419.20031987205124 87.45559521130737 l 7.1171531387445 0 L 426.31747301079577 72.92677774857171 l -7.1171531387445 0 L 419.20031987205124 87.45559521130737 M 428.0967612954818 72.92677774857171 l 7.1171531387445 0 L 435.21391443422635 54.86945766759689 l -7.1171531387445 0 L 428.0967612954818 72.92677774857171 M 445.8896441423431 58.39788980036627 l 7.1171531387445 0 L 453.00679728108764 55.45624920369039 l -7.1171531387445 0 L 445.8896441423431 58.39788980036627 M 454.7860855657737 55.45624920369039 l 7.1171531387445 0 L 461.90323870451823 53.6967204210475 l -7.1171531387445 0 L 454.7860855657737 55.45624920369039 M 472.57896841263494 66.48870542241616 l 7.1171531387445 0 L 479.69612155137946 57.330457845699556 l -7.1171531387445 0 L 472.57896841263494 66.48870542241616 M 490.3718512594962 72.340056697948 l 7.1171531387445 0 L 497.48900439824075 56.64970917836129 l -7.1171531387445 0 L 490.3718512594962 72.340056697948 M 525.9576169532187 71.35995624036477 l 7.1171531387445 0 L 533.0747700919632 70.52836866765236 l -7.1171531387445 0 L 525.9576169532187 71.35995624036477 M 534.8540583766493 70.52836866765236 l 7.1171531387445 0 L 541.9712115153937 58.47796129406021 l -7.1171531387445 0 L 534.8540583766493 70.52836866765236 M 543.75049980008 58.47803177953 l 7.1171531387445 0 L 550.8676529388244 55.403948985098026 l -7.1171531387445 0 L 543.75049980008 58.47803177953 M 552.6469412235106 55.404019470567846 l 7.1171531387445 0 L 559.764094362255 50.099917382571135 l -7.1171531387445 0 L 552.6469412235106 55.404019470567846 M 570.4398240703717 50.67507881614745 l 7.1171531387445 0 L 577.5569772091162 37.7104044137663 l -7.1171531387445 0 L 570.4398240703717 50.67507881614745 M 579.3362654938024 37.7104044137663 l 7.1171531387445 0 L 586.4534186325469 31.317231331873955 l -7.1171531387445 0 L 579.3362654938024 37.7104044137663 M 606.0255897640943 77.94752824796834 l 7.1171531387445 0 L 613.1427429028388 75.50288069885949 l -7.1171531387445 0 L 606.0255897640943 77.94752824796834 M 623.8184726109555 86.44885124613941 l 7.1171531387445 0 L 630.9356257497 84.1123284077053 l -7.1171531387445 0 L 623.8184726109555 86.44885124613941 M 632.7149140343862 84.11239889317513 l 7.1171531387445 0 L 639.8320671731307 78.11013822679928 l -7.1171531387445 0 L 632.7149140343862 84.11239889317513 M 650.5077968812475 85.75442839765972 l 7.1171531387445 0 L 657.624950019992 70.45344261325388 l -7.1171531387445 0 L 650.5077968812475 85.75442839765972 M 659.4042383046781 70.51152264036992 l 7.1171531387445 0 L 666.5213914434225 63.33518550351843 l -7.1171531387445 0 L 659.4042383046781 70.51152264036992 M 686.09356257497 69.12507344938376 l 7.1171531387445 0 L 693.2107157137144 62.127557949417536 l -7.1171531387445 0 L 686.09356257497 69.12507344938376 M 721.6793282686924 115.40505758056709 l 7.1171531387445 0 L 728.7964814074369 95.60202386903032 l -7.1171531387445 0 L 721.6793282686924 115.40505758056709 M 730.5757696921231 95.58256987936522 l 7.1171531387445 0 L 737.6929228308676 86.28631175277823 l -7.1171531387445 0 L 730.5757696921231 95.58256987936522 M 757.265093962415 101.75526441171996 l 7.1171531387445 0 L 764.3822471011595 98.29957328378522 l -7.1171531387445 0 L 757.265093962415 101.75526441171996 M 783.9544182327068 113.35449429311572 l 7.1171531387445 0 L 791.0715713714512 109.83536624236011 l -7.1171531387445 0 L 783.9544182327068 113.35449429311572 M 792.8508596561375 109.8352957568903 l 7.1171531387445 0 L 799.9680127948819 93.62497692658147 l -7.1171531387445 0 L 792.8508596561375 109.8352957568903 M 801.747301079568 93.65380548373005 l 7.1171531387445 0 L 808.8644542183125 63.192804854520375 l -7.1171531387445 0 L 801.747301079568 93.65380548373005 M 819.5401839264293 66.76444458027777 l 7.1171531387445 0 L 826.6573370651738 62.78116971088238 l -7.1171531387445 0 L 819.5401839264293 66.76444458027777 M 828.43662534986 62.78116971088238 l 7.1171531387445 0 L 835.5537784886045 55.55690245456623 l -7.1171531387445 0 L 828.43662534986 62.78116971088238 M 837.3330667732906 55.55697294003605 l 7.1171531387445 0 L 844.4502199120351 39.71846496292761 l -7.1171531387445 0 L 837.3330667732906 55.55697294003605 M 846.2295081967213 39.71846496292761 l 7.1171531387445 0 L 853.3466613354658 12.630828432925 l -7.1171531387445 0 L 846.2295081967213 39.71846496292761 M 864.0223910435824 23.413554632145747 l 7.1171531387445 0 L 871.1395441823269 22.242015638582956 l -7.1171531387445 0 L 864.0223910435824 23.413554632145747 M 872.9188324670131 22.212129799387355 l 7.1171531387445 0 L 880.0359856057576 15.205521673816719 l -7.1171531387445 0 L 872.9188324670131 22.212129799387355 M 881.8152738904437 15.205521673816719 l 7.1171531387445 0 L 888.9324270291881 13.9816119761918 l -7.1171531387445 0 L 881.8152738904437 15.205521673816719"></path><path class="candle body down" d="M 18.860455817672932 153.7911624923245 l 7.1171531387445 0 L 25.977608956417434 165.05467008105802 l -7.1171531387445 0 L 18.860455817672932 153.7911624923245 M 36.65333866453418 161.31978600724148 l 7.1171531387445 0 L 43.77049180327868 163.84246097142 l -7.1171531387445 0 L 36.65333866453418 161.31978600724148 M 45.54978008796481 163.84253145688984 l 7.1171531387445 0 L 52.66693322670931 170.79521819806266 l -7.1171531387445 0 L 45.54978008796481 163.84253145688984 M 63.342662934826066 164.16887918206857 l 7.1171531387445 0 L 70.45981607357056 166.37465147402173 l -7.1171531387445 0 L 63.342662934826066 164.16887918206857 M 81.13554578168731 161.04503364595706 l 7.1171531387445 0 L 88.25269892043181 169.3085386690195 l -7.1171531387445 0 L 81.13554578168731 161.04503364595706 M 90.03198720511796 169.30635361945565 l 7.1171531387445 0 L 97.14914034386246 171.82388314433877 l -7.1171531387445 0 L 90.03198720511796 169.30635361945565 M 107.82487005197919 171.18768129391475 l 7.1171531387445 0 L 114.94202319072369 177.81352691162022 l -7.1171531387445 0 L 107.82487005197919 171.18768129391475 M 116.72131147540982 177.85236440548056 l 7.1171531387445 0 L 123.83846461415432 181.31052252485833 l -7.1171531387445 0 L 116.72131147540982 177.85236440548056 M 143.4106357457017 178.528461031812 l 7.1171531387445 0 L 150.5277888844462 185.14648276236954 l -7.1171531387445 0 L 143.4106357457017 178.528461031812 M 152.30707716913233 185.14648276236954 l 7.1171531387445 0 L 159.42423030787683 192.5425231085908 l -7.1171531387445 0 L 152.30707716913233 185.14648276236954 M 232.37504998000796 120.4413853687897 l 7.1171531387445 0 L 239.49220311875246 120.4631653789582 l -7.1171531387445 0 L 232.37504998000796 120.4413853687897 M 250.16793282686922 105.02769331817198 l 7.1171531387445 0 L 257.28508596561375 110.27554800126748 l -7.1171531387445 0 L 250.16793282686922 105.02769331817198 M 259.06437425029986 110.27547751579772 l 7.1171531387445 0 L 266.1815273890444 121.66874885443488 l -7.1171531387445 0 L 259.06437425029986 110.27547751579772 M 267.9608156737305 121.63470437252103 l 7.1171531387445 0 L 275.07796881247504 126.5859561986938 l -7.1171531387445 0 L 267.9608156737305 121.63470437252103 M 276.85725709716115 126.59272280379469 l 7.1171531387445 0 L 283.9744102359057 133.21701774116454 l -7.1171531387445 0 L 276.85725709716115 126.59272280379469 M 321.3394642143143 88.34956242479375 l 7.1171531387445 0 L 328.45661735305885 93.83453022829985 l -7.1171531387445 0 L 321.3394642143143 88.34956242479375 M 339.13234706117555 76.53387166563901 l 7.1171531387445 0 L 346.2495001999201 81.2132610347893 l -7.1171531387445 0 L 339.13234706117555 76.53387166563901 M 348.02878848460614 81.21319054931948 l 7.1171531387445 0 L 355.14594162335067 81.73478302584705 l -7.1171531387445 0 L 348.02878848460614 81.21319054931948 M 356.9252299080368 81.73710904635047 l 7.1171531387445 0 L 364.0423830467813 89.57276726772069 l -7.1171531387445 0 L 356.9252299080368 81.73710904635047 M 374.7181127548981 65.60072947386291 l 7.1171531387445 0 L 381.8352658936426 70.75660061886805 l -7.1171531387445 0 L 374.7181127548981 65.60072947386291 M 383.61455417832866 70.75667110433784 l 7.1171531387445 0 L 390.7317073170732 71.42402753241393 l -7.1171531387445 0 L 383.61455417832866 70.75667110433784 M 392.5109956017593 71.42402753241393 l 7.1171531387445 0 L 399.62814874050383 78.98380562498295 l -7.1171531387445 0 L 392.5109956017593 71.42402753241393 M 401.40743702518995 78.98373513951313 l 7.1171531387445 0 L 408.5245901639345 87.47970124197937 l -7.1171531387445 0 L 401.40743702518995 78.98373513951313 M 436.99320271891247 54.86945766759689 l 7.1171531387445 0 L 444.110355857657 58.397960285836035 l -7.1171531387445 0 L 436.99320271891247 54.86945766759689 M 463.68252698920435 53.6967204210475 l 7.1171531387445 0 L 470.7996801279489 66.48870542241616 l -7.1171531387445 0 L 463.68252698920435 53.6967204210475 M 481.47540983606564 57.330457845699556 l 7.1171531387445 0 L 488.59256297481016 72.3399862124782 l -7.1171531387445 0 L 481.47540983606564 57.330457845699556 M 499.2682926829268 56.64970917836129 l 7.1171531387445 0 L 506.38544582167134 57.880033053738146 l -7.1171531387445 0 L 499.2682926829268 56.64970917836129 M 508.16473410635746 57.880033053738146 l 7.1171531387445 0 L 515.281887245102 58.77886376464076 l -7.1171531387445 0 L 508.16473410635746 57.880033053738146 M 517.0611755297881 58.778793279171 l 7.1171531387445 0 L 524.1783286685326 71.35995624036477 l -7.1171531387445 0 L 517.0611755297881 58.778793279171 M 561.5433826469413 50.107952726128445 l 7.1171531387445 0 L 568.6605357856857 50.68847105540965 l -7.1171531387445 0 L 561.5433826469413 50.107952726128445 M 588.232706917233 31.301019673819752 l 7.1171531387445 0 L 595.3498600559775 72.20000206945336 l -7.1171531387445 0 L 588.232706917233 31.301019673819752 M 597.1291483406637 72.16588710206968 l 7.1171531387445 0 L 604.2463014794082 77.94752824796834 l -7.1171531387445 0 L 597.1291483406637 72.16588710206968 M 614.9220311875249 75.50288069885949 l 7.1171531387445 0 L 622.0391843262694 86.38745840194268 l -7.1171531387445 0 L 614.9220311875249 75.50288069885949 M 641.6113554578168 78.11020871226906 l 7.1171531387445 0 L 648.7285085965613 85.7543579121899 l -7.1171531387445 0 L 641.6113554578168 78.11020871226906 M 668.3006797281087 63.33525598898825 l 7.1171531387445 0 L 675.4178328668531 66.03893763961582 l -7.1171531387445 0 L 668.3006797281087 63.33525598898825 M 677.1971211515394 66.03900812508564 l 7.1171531387445 0 L 684.3142742902838 69.12507344938376 l -7.1171531387445 0 L 677.1971211515394 66.03900812508564 M 694.9900039984005 62.127487463947716 l 7.1171531387445 0 L 702.107157137145 69.53551034003516 l -7.1171531387445 0 L 694.9900039984005 62.127487463947716 M 703.8864454218311 69.53551034003516 l 7.1171531387445 0 L 711.0035985605756 99.32358618905445 l -7.1171531387445 0 L 703.8864454218311 69.53551034003516 M 712.7828868452618 99.31639667113478 l 7.1171531387445 0 L 719.9000399840063 115.40301350194287 l -7.1171531387445 0 L 712.7828868452618 99.31639667113478 M 739.4722111155537 86.28631175277823 l 7.1171531387445 0 L 746.5893642542982 100.76889074732445 l -7.1171531387445 0 L 739.4722111155537 86.28631175277823 M 748.3686525389844 100.76882026185463 l 7.1171531387445 0 L 755.4858056777289 101.75519392625014 l -7.1171531387445 0 L 748.3686525389844 100.76882026185463 M 766.1615353858456 98.29957328378522 l 7.1171531387445 0 L 773.27868852459 105.44362807546783 l -7.1171531387445 0 L 766.1615353858456 98.29957328378522 M 775.0579768092763 105.44362807546783 l 7.1171531387445 0 L 782.1751299480208 113.34371001623617 l -7.1171531387445 0 L 775.0579768092763 105.44362807546783 M 810.6437425029987 63.192875339990195 l 7.1171531387445 0 L 817.7608956417432 66.76437409480795 l -7.1171531387445 0 L 810.6437425029987 63.192875339990195 M 855.1259496201519 12.630828432925 l 7.1171531387445 0 L 862.2431027588964 23.413554632145747 l -7.1171531387445 0 L 855.1259496201519 12.630828432925"></path><path class="candle body equal"></path><path class="candle wick up" d="M 4.626149540183927 156.20543080394907 L 4.626149540183927 158.15421307300778 M 4.626149540183927 164.37519015217615 L 4.626149540183927 167.68666800889795 M 13.522590963614554 149.00012413900942 L 13.522590963614554 153.80258113843223 M 13.522590963614554 158.15428355847752 L 13.522590963614554 160.35321875986003 M 31.315473810475808 154.9841290687068 L 31.315473810475808 161.31985649271124 M 31.315473810475808 165.0545995955882 L 31.315473810475808 166.16932730049137 M 58.004798080767685 162.1657526157933 L 58.004798080767685 164.16887918206857 M 58.004798080767685 170.79521819806266 L 58.004798080767685 175.12753711391267 M 75.79768092762893 158.17627502505547 L 75.79768092762893 161.04510413142688 M 75.79768092762893 166.37465147402173 L 75.79768092762893 167.75898610091383 M 102.48700519792082 169.1154084817647 L 102.48700519792082 171.18775177938457 M 102.48700519792082 171.82846469987584 L 102.48700519792082 180.13954741505395 M 129.1763294682127 177.27840122489087 L 129.1763294682127 180.3505104261684 M 129.1763294682127 181.31059301032812 L 129.1763294682127 182.85810149980955 M 138.07277089164333 173.90158333766348 L 138.07277089164333 178.52853151728178 M 138.07277089164333 180.3505104261684 L 138.07277089164333 183.24816808968842 M 164.7620951619352 170.92004796508024 L 164.7620951619352 175.9491157499134 M 164.7620951619352 192.54259359406058 L 164.7620951619352 194.71164295624743 M 173.65853658536582 172.7995430173245 L 173.65853658536582 174.9389179967251 M 173.65853658536582 175.9491157499134 L 173.65853658536582 179.0258769921978 M 182.55497800879647 165.33759875683933 L 182.55497800879647 165.44974113929277 M 182.55497800879647 174.94068013347015 L 182.55497800879647 177.5011353094621 M 191.4514194322271 159.34633382375245 L 191.4514194322271 161.05109539635995 M 191.4514194322271 165.44967065382295 L 191.4514194322271 167.09170015830756 M 200.34786085565773 153.01673863562064 L 200.34786085565773 153.1364229633428 M 200.34786085565773 161.027341793037 L 200.34786085565773 163.91999498820113 M 209.24430227908834 116.70262459413408 L 209.24430227908834 140.05023161102463 M 209.24430227908834 153.1364229633428 L 209.24430227908834 154.37161033613592 M 218.14074370251896 123.80326033641924 L 218.14074370251896 124.4005542075131 M 218.14074370251896 140.02394053078882 L 218.14074370251896 146.07391986021997 M 227.0371851259496 114.23563315109831 L 227.0371851259496 120.44145585425952 M 227.0371851259496 124.40943537670803 L 227.0371851259496 129.2349411247558 M 244.83006797281087 104.24988615891773 L 244.83006797281087 105.02762283270218 M 244.83006797281087 120.44899779952823 L 244.83006797281087 132.46860302281726 M 289.31227508996403 120.79317834856657 L 289.31227508996403 122.5305042082222 M 289.31227508996403 133.21708822663436 L 289.31227508996403 138.14035732129616 M 298.2087165133947 111.06378701005232 L 298.2087165133947 114.50023560473136 M 298.2087165133947 122.530574693692 L 298.2087165133947 139.37991479321693 M 307.10515793682526 96.66762320148217 L 307.10515793682526 100.58351396174774 M 307.10515793682526 114.50023560473136 L 307.10515793682526 121.60940008886243 M 316.0015993602559 87.45115462670994 L 316.0015993602559 88.34956242479375 M 316.0015993602559 100.58351396174774 L 316.0015993602559 103.33568961559844 M 333.7944822071172 75.08694594156364 L 333.7944822071172 76.50194174781915 M 333.7944822071172 93.83460071376967 L 333.7944822071172 100.99141337548627 M 369.38024790083966 64.99448394810429 L 369.38024790083966 65.60065898839309 M 369.38024790083966 89.56529580792181 L 369.38024790083966 90.85285388477706 M 413.86245501799283 78.28804355257705 L 413.86245501799283 87.41386781318519 M 413.86245501799283 87.47970124197937 L 413.86245501799283 90.9523088826663 M 422.7588964414235 71.00689452213149 L 422.7588964414235 72.92677774857171 M 422.7588964414235 87.45559521130737 L 422.7588964414235 92.89474745944288 M 431.65533786485406 54.44287960436111 L 431.65533786485406 54.86945766759689 M 431.65533786485406 72.92677774857171 L 431.65533786485406 73.89686926944321 M 449.44822071171535 53.61812912221936 L 449.44822071171535 55.45624920369039 M 449.44822071171535 58.39788980036627 L 449.44822071171535 63.83852224336755 M 458.34466213514594 46.56958214211713 L 458.34466213514594 53.6967204210475 M 458.34466213514594 55.45624920369039 L 458.34466213514594 56.93799474984749 M 476.13754498200717 55.279471645429425 L 476.13754498200717 57.330457845699556 M 476.13754498200717 66.48870542241616 L 476.13754498200717 70.34940605982754 M 493.93042782886846 56.08561396354372 L 493.93042782886846 56.64970917836129 M 493.93042782886846 72.340056697948 L 493.93042782886846 75.8351492035015 M 529.5161935225909 62.45623169509969 L 529.5161935225909 70.52836866765236 M 529.5161935225909 71.35995624036477 L 529.5161935225909 73.35406066650552 M 538.4126349460215 56.04282928337449 L 538.4126349460215 58.47796129406021 M 538.4126349460215 70.52836866765236 L 538.4126349460215 74.67918749876472 M 547.3090763694522 46.92109318001485 L 547.3090763694522 55.403948985098026 M 547.3090763694522 58.47803177953 L 547.3090763694522 60.07417524317418 M 556.2055177928828 43.04530865206604 L 556.2055177928828 50.099917382571135 M 556.2055177928828 55.404019470567846 L 556.2055177928828 61.9576879671971 M 573.998400639744 36.70161636997403 L 573.998400639744 37.7104044137663 M 573.998400639744 50.67507881614745 L 573.998400639744 53.97055647122443 M 582.8948420631747 30.49889502748411 L 582.8948420631747 31.317231331873955 M 582.8948420631747 37.7104044137663 L 582.8948420631747 43.26148758794574 M 609.5841663334666 68.42028923684336 L 609.5841663334666 75.50288069885949 M 609.5841663334666 77.94752824796834 L 609.5841663334666 81.72012204812842 M 627.3770491803277 78.3731195146269 L 627.3770491803277 84.1123284077053 M 627.3770491803277 86.44885124613941 L 627.3770491803277 87.29453591281204 M 636.2734906037584 75.04571194173005 L 636.2734906037584 78.11013822679928 M 636.2734906037584 84.11239889317513 L 636.2734906037584 87.15469274072684 M 654.0663734506197 69.4773598274493 L 654.0663734506197 70.45344261325388 M 654.0663734506197 85.75442839765972 L 654.0663734506197 88.19519924592952 M 662.9628148740503 60.66667610232156 L 662.9628148740503 63.33518550351843 M 662.9628148740503 70.51152264036992 L 662.9628148740503 73.47867897711373 M 689.6521391443422 58.24761477875049 L 689.6521391443422 62.127557949417536 M 689.6521391443422 69.12507344938376 L 689.6521391443422 70.98885024186242 M 725.2379048380647 92.3812608119424 L 725.2379048380647 95.60202386903032 M 725.2379048380647 115.40505758056709 L 725.2379048380647 116.59414745611032 M 734.1343462614954 85.49165856624153 L 734.1343462614954 86.28631175277823 M 734.1343462614954 95.58256987936522 L 734.1343462614954 98.94670038202844 M 760.8236705317872 92.7375648617866 L 760.8236705317872 98.29957328378522 M 760.8236705317872 101.75526441171996 L 760.8236705317872 115.29291519811365 M 787.512994802079 102.32358875472558 L 787.512994802079 109.83536624236011 M 787.512994802079 113.35449429311572 L 787.512994802079 115.26556683583087 M 796.4094362255097 91.3886844262044 L 796.4094362255097 93.62497692658147 M 796.4094362255097 109.8352957568903 L 796.4094362255097 110.63967593825959 M 805.3058776489403 60.70191883722205 L 805.3058776489403 63.192804854520375 M 805.3058776489403 93.65380548373005 L 805.3058776489403 97.43873424110537 M 823.0987604958016 55.534770017048714 L 823.0987604958016 62.78116971088238 M 823.0987604958016 66.76444458027777 L 823.0987604958016 70.61922443822587 M 831.9952019192323 53.36353560529804 L 831.9952019192323 55.55690245456623 M 831.9952019192323 62.78116971088238 L 831.9952019192323 72.007788193306 M 840.8916433426629 36.79818146360142 L 840.8916433426629 39.71846496292761 M 840.8916433426629 55.55697294003605 L 840.8916433426629 56.98451515991613 M 849.7880847660936 9.564710496580545 L 849.7880847660936 12.630828432925 M 849.7880847660936 39.71846496292761 L 849.7880847660936 47.398420781507326 M 867.5809676129546 7.097719053544779 L 867.5809676129546 22.242015638582956 M 867.5809676129546 23.413554632145747 L 867.5809676129546 24.594961591480683 M 876.4774090363853 11.404381258387218 L 876.4774090363853 15.205521673816719 M 876.4774090363853 22.212129799387355 L 876.4774090363853 24.284402611537388 M 885.3738504598159 3.846153846153868 L 885.3738504598159 13.9816119761918 M 885.3738504598159 15.205521673816719 L 885.3738504598159 21.33578395335124" style="stroke-width: 1px;"></path><path class="candle wick down" d="M 22.41903238704518 153.7513382018869 L 22.41903238704518 153.7911624923245 M 22.41903238704518 165.05467008105802 L 22.41903238704518 169.0342092205539 M 40.21191523390643 155.4055616926471 L 40.21191523390643 161.31978600724148 M 40.21191523390643 163.84246097142 L 40.21191523390643 164.43700590919167 M 49.10835665733706 163.36654307932355 L 49.10835665733706 163.84253145688984 M 49.10835665733706 170.79521819806266 L 49.10835665733706 176.4249631565401 M 66.90123950419832 161.02388800501677 L 66.90123950419832 164.16887918206857 M 66.90123950419832 166.37465147402173 L 66.90123950419832 169.88546223934085 M 84.69412235105956 158.0886615860928 L 84.69412235105956 161.04503364595706 M 84.69412235105956 169.3085386690195 L 84.69412235105956 172.32736085512747 M 93.5905637744902 167.52264832067098 L 93.5905637744902 169.30635361945565 M 93.5905637744902 171.82388314433877 L 93.5905637744902 175.54213264728227 M 111.38344662135144 168.6134109658418 L 111.38344662135144 171.18768129391475 M 111.38344662135144 177.81352691162022 L 111.38344662135144 183.07879150575656 M 120.27988804478207 175.2113443375061 L 120.27988804478207 177.85236440548056 M 120.27988804478207 181.31052252485833 L 120.27988804478207 183.8752773145081 M 146.96921231507397 177.67960451899827 L 146.96921231507397 178.528461031812 M 146.96921231507397 185.14648276236954 L 146.96921231507397 188.19293525263953 M 155.8656537385046 183.5716963960751 L 155.8656537385046 185.14648276236954 M 155.8656537385046 192.5425231085908 L 155.8656537385046 196.15384615384616 M 235.93362654938022 116.06825536592488 L 235.93362654938022 120.4413853687897 M 235.93362654938022 120.4631653789582 L 235.93362654938022 126.21816301727206 M 253.72650939624148 103.3244824259001 L 253.72650939624148 105.02769331817198 M 253.72650939624148 110.27554800126748 L 253.72650939624148 113.52972117104106 M 262.6229508196721 102.26015183190466 L 262.6229508196721 110.27547751579772 M 262.6229508196721 121.66874885443488 L 262.6229508196721 124.65331510221957 M 271.51939224310274 117.19595239727143 L 271.51939224310274 121.63470437252103 M 271.51939224310274 126.5859561986938 L 271.51939224310274 129.81292197712418 M 280.4158336665334 122.1300057688128 L 280.4158336665334 126.59272280379469 M 280.4158336665334 133.21701774116454 L 280.4158336665334 137.1995877558619 M 324.89804078368655 83.15154096884758 L 324.89804078368655 88.34956242479375 M 324.89804078368655 93.83453022829985 L 324.89804078368655 97.59401373107701 M 342.6909236305478 73.35406066650552 L 342.6909236305478 76.53387166563901 M 342.6909236305478 81.2132610347893 L 342.6909236305478 88.23030100989044 M 351.5873650539784 73.04766032928048 L 351.5873650539784 81.21319054931948 M 351.5873650539784 81.73478302584705 L 351.5873650539784 82.93204921588722 M 360.483806477409 76.75061448527715 L 360.483806477409 81.73710904635047 M 360.483806477409 89.57276726772069 L 360.483806477409 94.00630331820498 M 378.2766893242703 63.175958827237935 L 378.2766893242703 65.60072947386291 M 378.2766893242703 70.75660061886805 L 378.2766893242703 78.49223995859063 M 387.1731307477009 68.61553398819223 L 387.1731307477009 70.75667110433784 M 387.1731307477009 71.42402753241393 L 387.1731307477009 81.81231704262817 M 396.06957217113154 63.81152630843374 L 396.06957217113154 71.42402753241393 M 396.06957217113154 78.98380562498295 L 396.06957217113154 80.6845495258118 M 404.9660135945622 70.11172905565849 L 404.9660135945622 78.98373513951313 M 404.9660135945622 87.47970124197937 L 404.9660135945622 89.73488384826305 M 440.5517792882847 51.80637060645387 L 440.5517792882847 54.86945766759689 M 440.5517792882847 58.397960285836035 L 440.5517792882847 62.62617216278997 M 467.2411035585766 51.08065220938255 L 467.2411035585766 53.6967204210475 M 467.2411035585766 66.48870542241616 L 467.2411035585766 67.01036838441351 M 485.0339864054379 54.655393295811194 L 485.0339864054379 57.330457845699556 M 485.0339864054379 72.3399862124782 L 485.0339864054379 76.52590680755151 M 502.82686925229905 55.03488706521989 L 502.82686925229905 56.64970917836129 M 502.82686925229905 57.880033053738146 L 502.82686925229905 61.74594961591481 M 511.7233106757297 52.685817813161236 L 511.7233106757297 57.880033053738146 M 511.7233106757297 58.77886376464076 L 511.7233106757297 65.86469755826772 M 520.6197520991603 57.927540260384035 L 520.6197520991603 58.778793279171 M 520.6197520991603 71.35995624036477 L 520.6197520991603 72.27563297854988 M 565.1019592163135 46.31801950039727 L 565.1019592163135 50.107952726128445 M 565.1019592163135 50.68847105540965 L 565.1019592163135 54.53444022963262 M 591.7912834866053 29.512098450269775 L 591.7912834866053 31.301019673819752 M 591.7912834866053 72.20000206945336 L 591.7912834866053 100.5399539414107 M 600.687724910036 68.83601253772983 L 600.687724910036 72.16588710206968 M 600.687724910036 77.94752824796834 L 600.687724910036 89.48099518603978 M 618.4806077568971 71.00689452213149 L 618.4806077568971 75.50288069885949 M 618.4806077568971 86.38745840194268 L 618.4806077568971 91.45268523278374 M 645.169932027189 72.08532221008713 L 645.169932027189 78.11020871226906 M 645.169932027189 85.7543579121899 L 645.169932027189 96.82572211024588 M 671.8592562974809 60.26490892445574 L 671.8592562974809 63.33525598898825 M 671.8592562974809 66.03893763961582 L 671.8592562974809 71.0907722311947 M 680.7556977209116 63.133667545357326 L 680.7556977209116 66.03900812508564 M 680.7556977209116 69.12507344938376 L 680.7556977209116 73.35716202717677 M 698.5485805677728 61.56303982178113 L 698.5485805677728 62.127487463947716 M 698.5485805677728 69.53551034003516 L 698.5485805677728 72.44352936761591 M 707.4450219912034 68.79188863363436 L 707.4450219912034 69.53551034003516 M 707.4450219912034 99.32358618905445 L 707.4450219912034 102.95795798293477 M 716.3414634146341 94.92966297259838 L 716.3414634146341 99.31639667113478 M 716.3414634146341 115.40301350194287 L 716.3414634146341 123.39874422523118 M 743.0307876849259 83.92688113665882 L 743.0307876849259 86.28631175277823 M 743.0307876849259 100.76889074732445 L 743.0307876849259 115.82155622162131 M 751.9272291083566 99.66741431074388 L 751.9272291083566 100.76882026185463 M 751.9272291083566 101.75519392625014 L 751.9272291083566 108.97544351078766 M 769.7201119552178 89.9181460697457 L 769.7201119552178 98.29957328378522 M 769.7201119552178 105.44362807546783 L 769.7201119552178 105.79147386893587 M 778.6165533786485 100.93234655179303 L 778.6165533786485 105.44362807546783 M 778.6165533786485 113.34371001623617 L 778.6165533786485 114.32021571485954 M 814.202319072371 61.81847916434006 L 814.202319072371 63.192875339990195 M 814.202319072371 66.76437409480795 L 814.202319072371 68.2073526325745 M 858.6845261895241 12.50881808469947 L 858.6845261895241 12.630828432925 M 858.6845261895241 23.413554632145747 L 858.6845261895241 26.431883419965118" style="stroke-width: 1px;"></path><path class="candle wick equal" style="stroke-width: 1px;"></path></g></g><g class="x axis" transform="translate(0,200)" fill="none" font-size="10" font-family="sans-serif" text-anchor="middle"><path class="domain" stroke="#000" d="M0.5,6V0.5H890.5V6"></path><g class="tick" opacity="1" transform="translate(22.41903238704518,0)"><line stroke="#000" y2="6" x1="0.5" x2="0.5"></line><text fill="#000" y="9" x="0.5" dy="0.71em">Jul  5</text></g><g class="tick" opacity="1" transform="translate(84.69412235105956,0)"><line stroke="#000" y2="6" x1="0.5" x2="0.5"></line><text fill="#000" y="9" x="0.5" dy="0.71em">Jul 12</text></g><g class="tick" opacity="1" transform="translate(146.96921231507397,0)"><line stroke="#000" y2="6" x1="0.5" x2="0.5"></line><text fill="#000" y="9" x="0.5" dy="0.71em">Jul 19</text></g><g class="tick" opacity="1" transform="translate(209.24430227908834,0)"><line stroke="#000" y2="6" x1="0.5" x2="0.5"></line><text fill="#000" y="9" x="0.5" dy="0.71em">Jul 26</text></g><g class="tick" opacity="1" transform="translate(271.51939224310274,0)"><line stroke="#000" y2="6" x1="0.5" x2="0.5"></line><text fill="#000" y="9" x="0.5" dy="0.71em">Aug  2</text></g><g class="tick" opacity="1" transform="translate(333.7944822071172,0)"><line stroke="#000" y2="6" x1="0.5" x2="0.5"></line><text fill="#000" y="9" x="0.5" dy="0.71em">Aug  9</text></g><g class="tick" opacity="1" transform="translate(396.06957217113154,0)"><line stroke="#000" y2="6" x1="0.5" x2="0.5"></line><text fill="#000" y="9" x="0.5" dy="0.71em">Aug 16</text></g><g class="tick" opacity="1" transform="translate(458.34466213514594,0)"><line stroke="#000" y2="6" x1="0.5" x2="0.5"></line><text fill="#000" y="9" x="0.5" dy="0.71em">Aug 23</text></g><g class="tick" opacity="1" transform="translate(520.6197520991603,0)"><line stroke="#000" y2="6" x1="0.5" x2="0.5"></line><text fill="#000" y="9" x="0.5" dy="0.71em">Aug 30</text></g><g class="tick" opacity="1" transform="translate(582.8948420631747,0)"><line stroke="#000" y2="6" x1="0.5" x2="0.5"></line><text fill="#000" y="9" x="0.5" dy="0.71em">Sep  6</text></g><g class="tick" opacity="1" transform="translate(645.169932027189,0)"><line stroke="#000" y2="6" x1="0.5" x2="0.5"></line><text fill="#000" y="9" x="0.5" dy="0.71em">Sep 13</text></g><g class="tick" opacity="1" transform="translate(707.4450219912034,0)"><line stroke="#000" y2="6" x1="0.5" x2="0.5"></line><text fill="#000" y="9" x="0.5" dy="0.71em">Sep 20</text></g><g class="tick" opacity="1" transform="translate(769.7201119552178,0)"><line stroke="#000" y2="6" x1="0.5" x2="0.5"></line><text fill="#000" y="9" x="0.5" dy="0.71em">Sep 27</text></g><g class="tick" opacity="1" transform="translate(831.9952019192323,0)"><line stroke="#000" y2="6" x1="0.5" x2="0.5"></line><text fill="#000" y="9" x="0.5" dy="0.71em">Oct  4</text></g></g><g class="y axis" fill="none" font-size="10" font-family="sans-serif" text-anchor="end"><path class="domain" stroke="#000" d="M-6,200.5H0.5V0.5H-6"></path><g class="tick" opacity="1" transform="translate(0,191.06479523421237)"><line stroke="#000" x2="-6" y1="0.5" y2="0.5"></line><text fill="#000" x="-9" y="0.5" dy="0.32em">30,000</text></g><g class="tick" opacity="1" transform="translate(0,176.96770127400794)"><line stroke="#000" x2="-6" y1="0.5" y2="0.5"></line><text fill="#000" x="-9" y="0.5" dy="0.32em">32,000</text></g><g class="tick" opacity="1" transform="translate(0,162.87060731380353)"><line stroke="#000" x2="-6" y1="0.5" y2="0.5"></line><text fill="#000" x="-9" y="0.5" dy="0.32em">34,000</text></g><g class="tick" opacity="1" transform="translate(0,148.77351335359913)"><line stroke="#000" x2="-6" y1="0.5" y2="0.5"></line><text fill="#000" x="-9" y="0.5" dy="0.32em">36,000</text></g><g class="tick" opacity="1" transform="translate(0,134.67641939339472)"><line stroke="#000" x2="-6" y1="0.5" y2="0.5"></line><text fill="#000" x="-9" y="0.5" dy="0.32em">38,000</text></g><g class="tick" opacity="1" transform="translate(0,120.57932543319029)"><line stroke="#000" x2="-6" y1="0.5" y2="0.5"></line><text fill="#000" x="-9" y="0.5" dy="0.32em">40,000</text></g><g class="tick" opacity="1" transform="translate(0,106.48223147298589)"><line stroke="#000" x2="-6" y1="0.5" y2="0.5"></line><text fill="#000" x="-9" y="0.5" dy="0.32em">42,000</text></g><g class="tick" opacity="1" transform="translate(0,92.38513751278148)"><line stroke="#000" x2="-6" y1="0.5" y2="0.5"></line><text fill="#000" x="-9" y="0.5" dy="0.32em">44,000</text></g><g class="tick" opacity="1" transform="translate(0,78.28804355257705)"><line stroke="#000" x2="-6" y1="0.5" y2="0.5"></line><text fill="#000" x="-9" y="0.5" dy="0.32em">46,000</text></g><g class="tick" opacity="1" transform="translate(0,64.19094959237265)"><line stroke="#000" x2="-6" y1="0.5" y2="0.5"></line><text fill="#000" x="-9" y="0.5" dy="0.32em">48,000</text></g><g class="tick" opacity="1" transform="translate(0,50.09385563216824)"><line stroke="#000" x2="-6" y1="0.5" y2="0.5"></line><text fill="#000" x="-9" y="0.5" dy="0.32em">50,000</text></g><g class="tick" opacity="1" transform="translate(0,35.99676167196381)"><line stroke="#000" x2="-6" y1="0.5" y2="0.5"></line><text fill="#000" x="-9" y="0.5" dy="0.32em">52,000</text></g><g class="tick" opacity="1" transform="translate(0,21.899667711759406)"><line stroke="#000" x2="-6" y1="0.5" y2="0.5"></line><text fill="#000" x="-9" y="0.5" dy="0.32em">54,000</text></g><g class="tick" opacity="1" transform="translate(0,7.802573751555002)"><line stroke="#000" x2="-6" y1="0.5" y2="0.5"></line><text fill="#000" x="-9" y="0.5" dy="0.32em">56,000</text></g><text transform="rotate(-90)" y="6" dy=".71em" style="text-anchor: end;">Price ($)</text></g></g></svg>