<?xml version="1.0" encoding="utf-8"?>
<!DOCTYPE svg PUBLIC "-//W3C//DTD SVG 1.1//EN" "http://www.w3.org/Graphics/SVG/1.1/DTD/svg11.dtd">
<svg version="1.1" xmlns="http://www.w3.org/2000/svg" width="960" height="250"><g transform="translate(50,20)"><style>.axis path,.axis line{fill:none;stroke:#000;shape-rendering:crispEdges;}path.candle{stroke:#000000;}path.candle.body{stroke-width:0;}path.candle.up{fill:#00AA00;stroke:#00AA00;}path.candle.down{fill:#FF0000;stroke:#FF0000;}</style><g class="candlestick"><g class="data"><path class="candle body up" d="M 9.964014394242305 32.528267013418116 l 7.1171531387445 0 L 17.081167532986804 14.003548746071516 l -7.1171531387445 0 L 9.964014394242305 32.528267013418116 M 72.23910435825668 89.74227497398304 l 7.1171531387445 0 L 79.35625749700118 88.34884884498192 l -7.1171531387445 0 L 72.23910435825668 89.74227497398304 M 81.13554578168731 88.34884884498192 l 7.1171531387445 0 L 88.25269892043181 86.07428922349376 l -7.1171531387445 0 L 81.13554578168731 88.34884884498192 M 98.92842862854857 86.59261027960208 l 7.1171531387445 0 L 106.04558176729307 75.43634316165854 l -7.1171531387445 0 L 98.92842862854857 86.59261027960208 M 107.82487005197919 75.43634316165854 l 7.1171531387445 0 L 114.94202319072369 61.00049275563583 l -7.1171531387445 0 L 107.82487005197919 75.43634316165854 M 125.61775289884046 77.53940039714739 l 7.1171531387445 0 L 132.73490603758498 71.36814416751392 l -7.1171531387445 0 L 125.61775289884046 77.53940039714739 M 134.51419432227107 71.36814416751392 l 7.1171531387445 0 L 141.63134746101557 71.06881468032867 l -7.1171531387445 0 L 134.51419432227107 71.36814416751392 M 161.20351859256294 81.92808986154176 l 7.1171531387445 0 L 168.32067173130744 80.07662687237173 l -7.1171531387445 0 L 161.20351859256294 81.92808986154176 M 205.68572570971608 169.65033001045205 l 7.1171531387445 0 L 212.80287884846058 155.21743229974066 l -7.1171531387445 0 L 205.68572570971608 169.65033001045205 M 214.5821671331467 155.21743229974066 l 7.1171531387445 0 L 221.6993202718912 150.101887672876 l -7.1171531387445 0 L 214.5821671331467 155.21743229974066 M 223.47860855657734 150.101887672876 l 7.1171531387445 0 L 230.59576169532184 146.43599341489892 l -7.1171531387445 0 L 223.47860855657734 150.101887672876 M 241.2714914034386 148.2947151133759 l 7.1171531387445 0 L 248.3886445421831 143.95351483190527 l -7.1171531387445 0 L 241.2714914034386 148.2947151133759 M 250.16793282686922 143.95339180293394 l 7.1171531387445 0 L 257.28508596561375 137.1074446946635 l -7.1171531387445 0 L 250.16793282686922 143.95339180293394 M 259.06437425029986 137.10732166569218 l 7.1171531387445 0 L 266.1815273890444 131.56769617473896 l -7.1171531387445 0 L 259.06437425029986 137.10732166569218 M 276.85725709716115 135.0751291176751 l 7.1171531387445 0 L 283.9744102359057 127.87608886175906 l -7.1171531387445 0 L 276.85725709716115 135.0751291176751 M 285.7536985205918 127.87608886175906 l 7.1171531387445 0 L 292.8708516593363 125.07484221411404 l -7.1171531387445 0 L 285.7536985205918 127.87608886175906 M 303.54658136745303 147.19815789213376 l 7.1171531387445 0 L 310.66373450619756 142.08950288766218 l -7.1171531387445 0 L 303.54658136745303 147.19815789213376 M 312.4430227908837 142.08495081572386 l 7.1171531387445 0 L 319.5601759296282 89.64668146327904 l -7.1171531387445 0 L 312.4430227908837 142.08495081572386 M 330.23590563774496 92.00453169834066 l 7.1171531387445 0 L 337.3530587764895 79.72291857986966 l -7.1171531387445 0 L 330.23590563774496 92.00453169834066 M 339.13234706117555 79.72291857986966 l 7.1171531387445 0 L 346.2495001999201 61.771515318804745 l -7.1171531387445 0 L 339.13234706117555 79.72291857986966 M 348.02878848460614 61.771515318804745 l 7.1171531387445 0 L 355.14594162335067 59.274027201311895 l -7.1171531387445 0 L 348.02878848460614 61.771515318804745 M 356.9252299080368 59.273904172340565 l 7.1171531387445 0 L 364.0423830467813 55.217392930469885 l -7.1171531387445 0 L 356.9252299080368 59.273904172340565 M 401.40743702518995 83.7486725789141 l 7.1171531387445 0 L 408.5245901639345 77.81510832184199 l -7.1171531387445 0 L 401.40743702518995 83.7486725789141 M 410.3038784486206 77.81510832184199 l 7.1171531387445 0 L 417.4210315873651 53.09957221842447 l -7.1171531387445 0 L 410.3038784486206 77.81510832184199 M 445.8896441423431 109.32885629266372 l 7.1171531387445 0 L 453.00679728108764 108.04049690515704 l -7.1171531387445 0 L 445.8896441423431 109.32885629266372 M 472.57896841263494 145.8228170219144 l 7.1171531387445 0 L 479.69612155137946 130.78658523592304 l -7.1171531387445 0 L 472.57896841263494 145.8228170219144 M 490.3718512594962 142.84723832193015 l 7.1171531387445 0 L 497.48900439824075 129.59468056191957 l -7.1171531387445 0 L 490.3718512594962 142.84723832193015 M 499.2682926829268 129.5765953031377 l 7.1171531387445 0 L 506.38544582167134 118.62098843739281 l -7.1171531387445 0 L 499.2682926829268 129.5765953031377 M 525.9576169532187 137.32249933650473 l 7.1171531387445 0 L 533.0747700919632 70.13736233857801 l -7.1171531387445 0 L 525.9576169532187 137.32249933650473 M 534.8540583766493 70.13736233857801 l 7.1171531387445 0 L 541.9712115153937 54.62094847758297 l -7.1171531387445 0 L 534.8540583766493 70.13736233857801 M 570.4398240703717 119.4885887430361 l 7.1171531387445 0 L 577.5569772091162 116.42135345942951 l -7.1171531387445 0 L 570.4398240703717 119.4885887430361 M 597.1291483406637 133.76782326858742 l 7.1171531387445 0 L 604.2463014794082 124.63144580153057 l -7.1171531387445 0 L 597.1291483406637 133.76782326858742 M 606.0255897640943 124.63144580153057 l 7.1171531387445 0 L 613.1427429028388 85.12585888370306 l -7.1171531387445 0 L 606.0255897640943 124.63144580153057 M 632.7149140343862 124.64448687248888 l 7.1171531387445 0 L 639.8320671731307 123.68744450470676 l -7.1171531387445 0 L 632.7149140343862 124.64448687248888 M 650.5077968812475 136.3595515781 l 7.1171531387445 0 L 657.624950019992 113.05761835497762 l -7.1171531387445 0 L 650.5077968812475 136.3595515781 M 668.3006797281087 117.86854324889097 l 7.1171531387445 0 L 675.4178328668531 95.30908986759474 l -7.1171531387445 0 L 668.3006797281087 117.86854324889097 M 686.09356257497 97.72181102385842 l 7.1171531387445 0 L 693.2107157137144 87.39205253514235 l -7.1171531387445 0 L 686.09356257497 97.72181102385842 M 694.9900039984005 87.39205253514235 l 7.1171531387445 0 L 702.107157137145 81.934241310107 l -7.1171531387445 0 L 694.9900039984005 87.39205253514235 M 721.6793282686924 96.68381559295753 l 7.1171531387445 0 L 728.7964814074369 79.9288690778344 l -7.1171531387445 0 L 721.6793282686924 96.68381559295753 M 730.5757696921231 79.9288690778344 l 7.1171531387445 0 L 737.6929228308676 73.54821753903965 l -7.1171531387445 0 L 730.5757696921231 79.9288690778344 M 739.4722111155537 73.54821753903965 l 7.1171531387445 0 L 746.5893642542982 59.90799549044689 l -7.1171531387445 0 L 739.4722111155537 73.54821753903965 M 748.3686525389844 59.90799549044689 l 7.1171531387445 0 L 755.4858056777289 55.950153483562815 l -7.1171531387445 0 L 748.3686525389844 59.90799549044689 M 757.265093962415 55.950153483562815 l 7.1171531387445 0 L 764.3822471011595 53.512826533038236 l -7.1171531387445 0 L 757.265093962415 55.950153483562815 M 766.1615353858456 53.512826533038236 l 7.1171531387445 0 L 773.27868852459 25.013288359190653 l -7.1171531387445 0 L 766.1615353858456 53.512826533038236 M 775.0579768092763 25.013288359190653 l 7.1171531387445 0 L 782.1751299480208 21.39070029911298 l -7.1171531387445 0 L 775.0579768092763 25.013288359190653 M 783.9544182327068 21.39070029911298 l 7.1171531387445 0 L 791.0715713714512 17.54493768508786 l -7.1171531387445 0 L 783.9544182327068 21.39070029911298 M 810.6437425029987 41.221248067891565 l 7.1171531387445 0 L 817.7608956417432 31.709386180411627 l -7.1171531387445 0 L 810.6437425029987 41.221248067891565 M 828.43662534986 37.52250507457603 l 7.1171531387445 0 L 835.5537784886045 30.185549341827056 l -7.1171531387445 0 L 828.43662534986 37.52250507457603 M 837.3330667732906 30.185426312855697 l 7.1171531387445 0 L 844.4502199120351 28.055179674708455 l -7.1171531387445 0 L 837.3330667732906 30.185426312855697 M 864.0223910435824 70.00855100562157 l 7.1171531387445 0 L 871.1395441823269 66.64100200305927 l -7.1171531387445 0 L 864.0223910435824 70.00855100562157 M 881.8152738904437 81.30814687513552 l 7.1171531387445 0 L 888.9324270291881 76.18903440810294 l -7.1171531387445 0 L 881.8152738904437 81.30814687513552"></path><path class="candle body down" d="M 1.0675729708116766 21.407063152296587 l 7.1171531387445 0 L 8.184726109556177 32.528267013418116 l -7.1171531387445 0 L 1.0675729708116766 21.407063152296587 M 18.860455817672932 14.003425717100185 l 7.1171531387445 0 L 25.977608956417434 19.373394256623783 l -7.1171531387445 0 L 18.860455817672932 14.003425717100185 M 27.75689724110356 19.373394256623783 l 7.1171531387445 0 L 34.87405037984806 29.70881207801989 l -7.1171531387445 0 L 27.75689724110356 19.373394256623783 M 36.65333866453418 29.70881207801989 l 7.1171531387445 0 L 43.77049180327868 37.263898176892724 l -7.1171531387445 0 L 36.65333866453418 29.70881207801989 M 45.54978008796481 37.263898176892724 l 7.1171531387445 0 L 52.66693322670931 66.55561989697361 l -7.1171531387445 0 L 45.54978008796481 37.263898176892724 M 54.446221511395436 66.55549686800228 l 7.1171531387445 0 L 61.563374650139934 71.09317441664712 l -7.1171531387445 0 L 54.446221511395436 66.55549686800228 M 63.342662934826066 71.09329744561833 l 7.1171531387445 0 L 70.45981607357056 89.74227497398304 l -7.1171531387445 0 L 63.342662934826066 71.09329744561833 M 90.03198720511796 86.07428922349376 l 7.1171531387445 0 L 97.14914034386246 86.59261027960208 l -7.1171531387445 0 L 90.03198720511796 86.07428922349376 M 116.72131147540982 61.00061578460719 l 7.1171531387445 0 L 123.83846461415432 77.51774729819768 l -7.1171531387445 0 L 116.72131147540982 61.00061578460719 M 143.4106357457017 71.06881468032867 l 7.1171531387445 0 L 150.5277888844462 71.22420027108694 l -7.1171531387445 0 L 143.4106357457017 71.06881468032867 M 152.30707716913233 71.22420027108694 l 7.1171531387445 0 L 159.42423030787683 81.928212890513 l -7.1171531387445 0 L 152.30707716913233 71.22420027108694 M 170.09996001599356 80.07662687237173 l 7.1171531387445 0 L 177.21711315473806 88.59158500536675 l -7.1171531387445 0 L 170.09996001599356 80.07662687237173 M 178.9964014394242 88.5917080343381 l 7.1171531387445 0 L 186.1135545781687 100.63735158584586 l -7.1171531387445 0 L 178.9964014394242 88.5917080343381 M 187.89284286285485 100.63722855687462 l 7.1171531387445 0 L 195.00999600159935 152.7475026718202 l -7.1171531387445 0 L 187.89284286285485 100.63722855687462 M 196.78928428628546 152.7475026718202 l 7.1171531387445 0 L 203.90643742502996 169.65033001045205 l -7.1171531387445 0 L 196.78928428628546 152.7475026718202 M 232.37504998000796 146.43599341489892 l 7.1171531387445 0 L 239.49220311875246 148.26887902940183 l -7.1171531387445 0 L 232.37504998000796 146.43599341489892 M 267.9608156737305 131.5678192037102 l 7.1171531387445 0 L 275.07796881247504 135.07500608870376 l -7.1171531387445 0 L 267.9608156737305 131.5678192037102 M 294.65013994402244 125.07484221411404 l 7.1171531387445 0 L 301.76729308276697 147.1982809211051 l -7.1171531387445 0 L 294.65013994402244 125.07484221411404 M 321.3394642143143 89.67805385096186 l 7.1171531387445 0 L 328.45661735305885 92.00465472731199 l -7.1171531387445 0 L 321.3394642143143 89.67805385096186 M 365.8216713314674 55.217515959441215 l 7.1171531387445 0 L 372.93882447021196 66.01047852512082 l -7.1171531387445 0 L 365.8216713314674 55.217515959441215 M 374.7181127548981 66.01047852512082 l 7.1171531387445 0 L 381.8352658936426 79.81076126538149 l -7.1171531387445 0 L 374.7181127548981 66.01047852512082 M 383.61455417832866 79.81076126538149 l 7.1171531387445 0 L 390.7317073170732 81.72829081214226 l -7.1171531387445 0 L 383.61455417832866 79.81076126538149 M 392.5109956017593 81.72829081214226 l 7.1171531387445 0 L 399.62814874050383 83.74854954994275 l -7.1171531387445 0 L 392.5109956017593 81.72829081214226 M 419.20031987205124 53.0996952473958 l 7.1171531387445 0 L 426.31747301079577 61.35850706213367 l -7.1171531387445 0 L 419.20031987205124 53.0996952473958 M 428.0967612954818 61.35850706213367 l 7.1171531387445 0 L 435.21391443422635 102.66991322077695 l -7.1171531387445 0 L 428.0967612954818 61.35850706213367 M 436.99320271891247 102.66979019180562 l 7.1171531387445 0 L 444.110355857657 109.32897932163496 l -7.1171531387445 0 L 436.99320271891247 102.66979019180562 M 454.7860855657737 108.04049690515704 l 7.1171531387445 0 L 461.90323870451823 128.86044366117093 l -7.1171531387445 0 L 454.7860855657737 108.04049690515704 M 463.68252698920435 128.86044366117093 l 7.1171531387445 0 L 470.7996801279489 145.8228170219144 l -7.1171531387445 0 L 463.68252698920435 128.86044366117093 M 481.47540983606564 130.78658523592304 l 7.1171531387445 0 L 488.59256297481016 142.84736135090137 l -7.1171531387445 0 L 481.47540983606564 130.78658523592304 M 508.16473410635746 118.62111146636406 l 7.1171531387445 0 L 515.281887245102 119.88142024841319 l -7.1171531387445 0 L 508.16473410635746 118.62111146636406 M 517.0611755297881 119.88129721944186 l 7.1171531387445 0 L 524.1783286685326 137.32262236547606 l -7.1171531387445 0 L 517.0611755297881 119.88129721944186 M 543.75049980008 54.62094847758297 l 7.1171531387445 0 L 550.8676529388244 61.119584799859155 l -7.1171531387445 0 L 543.75049980008 54.62094847758297 M 552.6469412235106 61.11946177088791 l 7.1171531387445 0 L 559.764094362255 78.82320771271574 l -7.1171531387445 0 L 552.6469412235106 61.11946177088791 M 561.5433826469413 78.82320771271574 l 7.1171531387445 0 L 568.6605357856857 119.48846571406477 l -7.1171531387445 0 L 561.5433826469413 78.82320771271574 M 579.3362654938024 116.42123043045818 l 7.1171531387445 0 L 586.4534186325469 128.44312939050417 l -7.1171531387445 0 L 579.3362654938024 116.42123043045818 M 588.232706917233 128.4432524194754 l 7.1171531387445 0 L 595.3498600559775 133.76794629755875 l -7.1171531387445 0 L 588.232706917233 128.4432524194754 M 614.9220311875249 85.12598191267438 l 7.1171531387445 0 L 622.0391843262694 116.12559181241211 l -7.1171531387445 0 L 614.9220311875249 85.12598191267438 M 623.8184726109555 116.1254687834408 l 7.1171531387445 0 L 630.9356257497 124.64448687248888 l -7.1171531387445 0 L 623.8184726109555 116.1254687834408 M 641.6113554578168 123.68756753367809 l 7.1171531387445 0 L 648.7285085965613 136.35967460707133 l -7.1171531387445 0 L 641.6113554578168 123.68756753367809 M 659.4042383046781 113.05761835497762 l 7.1171531387445 0 L 666.5213914434225 117.86854324889097 l -7.1171531387445 0 L 659.4042383046781 113.05761835497762 M 677.1971211515394 95.30896683862342 l 7.1171531387445 0 L 684.3142742902838 97.72168799488709 l -7.1171531387445 0 L 677.1971211515394 95.30896683862342 M 703.8864454218311 81.934241310107 l 7.1171531387445 0 L 711.0035985605756 93.48690777359539 l -7.1171531387445 0 L 703.8864454218311 81.934241310107 M 712.7828868452618 93.48690777359539 l 7.1171531387445 0 L 719.9000399840063 96.68393862192887 l -7.1171531387445 0 L 712.7828868452618 93.48690777359539 M 792.8508596561375 17.54506071405919 l 7.1171531387445 0 L 799.9680127948819 22.0577633815291 l -7.1171531387445 0 L 792.8508596561375 17.54506071405919 M 801.747301079568 22.0577633815291 l 7.1171531387445 0 L 808.8644542183125 41.22137109686287 l -7.1171531387445 0 L 801.747301079568 22.0577633815291 M 819.5401839264293 31.709386180411627 l 7.1171531387445 0 L 826.6573370651738 37.5223820456047 l -7.1171531387445 0 L 819.5401839264293 31.709386180411627 M 846.2295081967213 28.055302703679786 l 7.1171531387445 0 L 853.3466613354658 41.378725151162 l -7.1171531387445 0 L 846.2295081967213 28.055302703679786 M 855.1259496201519 41.37884818013333 l 7.1171531387445 0 L 862.2431027588964 70.00855100562157 l -7.1171531387445 0 L 855.1259496201519 41.37884818013333 M 872.9188324670131 66.64087897408803 l 7.1171531387445 0 L 880.0359856057576 81.30826990410678 l -7.1171531387445 0 L 872.9188324670131 66.64087897408803"></path><path class="candle body equal"></path><path class="candle wick up" d="M 13.522590963614554 11.149522669736598 L 13.522590963614554 14.003548746071516 M 13.522590963614554 32.528267013418116 L 13.522590963614554 32.63357981285523 M 75.79768092762893 80.71785387081378 L 75.79768092762893 88.34884884498192 M 75.79768092762893 89.74227497398304 L 75.79768092762893 102.85076580859537 M 84.69412235105956 74.7300338373962 L 84.69412235105956 86.07428922349376 M 84.69412235105956 88.34884884498192 L 84.69412235105956 94.25079465642861 M 102.48700519792082 70.87553616640841 L 102.48700519792082 75.43634316165854 M 102.48700519792082 86.59261027960208 L 102.48700519792082 93.40300201516534 M 111.38344662135144 55.84139587292921 L 111.38344662135144 61.00049275563583 M 111.38344662135144 75.43634316165854 L 111.38344662135144 78.87241930123778 M 129.1763294682127 66.58453170523029 L 129.1763294682127 71.36814416751392 M 129.1763294682127 77.53940039714739 L 129.1763294682127 87.7803319685812 M 138.07277089164333 62.263508175053715 L 138.07277089164333 71.06881468032867 M 138.07277089164333 71.36814416751392 L 138.07277089164333 77.58061510253458 M 164.7620951619352 75.90742109278565 L 164.7620951619352 80.07662687237173 M 164.7620951619352 81.92808986154176 L 164.7620951619352 93.63589585784584 M 209.24430227908834 152.08696012488326 L 209.24430227908834 155.21743229974066 M 209.24430227908834 169.65033001045205 L 209.24430227908834 175.43773584961366 M 218.14074370251896 139.1566152407207 L 218.14074370251896 150.101887672876 M 218.14074370251896 155.21743229974066 L 218.14074370251896 196.15384615384613 M 227.0371851259496 139.21640732077498 L 227.0371851259496 146.43599341489892 M 227.0371851259496 150.101887672876 L 227.0371851259496 161.9046720350276 M 244.83006797281087 143.03854837230946 L 244.83006797281087 143.95351483190527 M 244.83006797281087 148.2947151133759 L 244.83006797281087 164.2913110493746 M 253.72650939624148 133.62031153199268 L 253.72650939624148 137.1074446946635 M 253.72650939624148 143.95339180293394 L 253.72650939624148 156.31903370880622 M 262.6229508196721 124.75312145415128 L 262.6229508196721 131.56769617473896 M 262.6229508196721 137.10732166569218 L 262.6229508196721 142.62061895678613 M 280.4158336665334 124.46695606689568 L 280.4158336665334 127.87608886175906 M 280.4158336665334 135.0751291176751 L 280.4158336665334 150.44317003927625 M 289.31227508996403 118.0546860824756 L 289.31227508996403 125.07484221411404 M 289.31227508996403 127.87608886175906 L 289.31227508996403 133.62031153199268 M 307.10515793682526 141.1619874729933 L 307.10515793682526 142.08950288766218 M 307.10515793682526 147.19815789213376 L 307.10515793682526 155.15038151037942 M 316.0015993602559 87.20972359966824 L 316.0015993602559 89.64668146327904 M 316.0015993602559 142.08495081572386 L 316.0015993602559 145.59435222220088 M 333.7944822071172 76.3380224923534 L 333.7944822071172 79.72291857986966 M 333.7944822071172 92.00453169834066 L 333.7944822071172 95.27759445094068 M 342.6909236305478 53.645328735133745 L 342.6909236305478 61.771515318804745 M 342.6909236305478 79.72291857986966 L 342.6909236305478 88.76579402873477 M 351.5873650539784 41.447006230236326 L 351.5873650539784 59.274027201311895 M 351.5873650539784 61.771515318804745 L 351.5873650539784 76.21499352104833 M 360.483806477409 49.97291394167749 L 360.483806477409 55.217392930469885 M 360.483806477409 59.273904172340565 L 360.483806477409 70.65506824982975 M 404.9660135945622 74.04476246722692 L 404.9660135945622 77.81510832184199 M 404.9660135945622 83.7486725789141 L 404.9660135945622 89.93813709630076 M 413.86245501799283 50.55853184508962 L 413.86245501799283 53.09957221842447 M 413.86245501799283 77.81510832184199 L 413.86245501799283 79.15501684832553 M 449.44822071171535 103.54809401795248 L 449.44822071171535 108.04049690515704 M 449.44822071171535 109.32885629266372 L 449.44822071171535 113.45549404817825 M 476.13754498200717 128.3423686630053 L 476.13754498200717 130.78658523592304 M 476.13754498200717 145.8228170219144 L 476.13754498200717 153.92009179732875 M 493.93042782886846 110.94607212046878 L 493.93042782886846 129.59468056191957 M 493.93042782886846 142.84723832193015 L 493.93042782886846 178.86692236679986 M 502.82686925229905 112.9080151258707 L 502.82686925229905 118.62098843739281 M 502.82686925229905 129.5765953031377 L 502.82686925229905 133.44351890022725 M 529.5161935225909 57.024442460998756 L 529.5161935225909 70.13736233857801 M 529.5161935225909 137.32249933650473 L 529.5161935225909 140.3848134612592 M 538.4126349460215 48.127479372101476 L 538.4126349460215 54.62094847758297 M 538.4126349460215 70.13736233857801 L 538.4126349460215 74.44362239219792 M 573.998400639744 113.77278576517404 L 573.998400639744 116.42135345942951 M 573.998400639744 119.4885887430361 L 573.998400639744 128.6057736905695 M 600.687724910036 116.86278140847205 L 600.687724910036 124.63144580153057 M 600.687724910036 133.76782326858742 L 600.687724910036 135.24859996721523 M 609.5841663334666 77.10006394061702 L 609.5841663334666 85.12585888370306 M 609.5841663334666 124.63144580153057 L 609.5841663334666 125.54407471067157 M 636.2734906037584 115.32947133909704 L 636.2734906037584 123.68744450470676 M 636.2734906037584 124.64448687248888 L 636.2734906037584 125.49400191935041 M 654.0663734506197 109.6650944712404 L 654.0663734506197 113.05761835497762 M 654.0663734506197 136.3595515781 L 654.0663734506197 139.09510075506816 M 671.8592562974809 87.8781400007687 L 671.8592562974809 95.30908986759474 M 671.8592562974809 117.86854324889097 L 671.8592562974809 123.42760731731042 M 689.6521391443422 80.41003538460853 L 689.6521391443422 87.39205253514235 M 689.6521391443422 97.72181102385842 L 689.6521391443422 107.3531340424756 M 698.5485805677728 79.4875641577631 L 698.5485805677728 81.934241310107 M 698.5485805677728 87.39205253514235 L 698.5485805677728 90.56890663218181 M 725.2379048380647 67.66448001534616 L 725.2379048380647 79.9288690778344 M 725.2379048380647 96.68381559295753 L 725.2379048380647 98.24320780424927 M 734.1343462614954 71.78644266995113 L 734.1343462614954 73.54821753903965 M 734.1343462614954 79.9288690778344 L 734.1343462614954 87.46636203381061 M 743.0307876849259 57.085341801794755 L 743.0307876849259 59.90799549044689 M 743.0307876849259 73.54821753903965 L 743.0307876849259 77.51344128420202 M 751.9272291083566 46.34183688257977 L 751.9272291083566 55.950153483562815 M 751.9272291083566 59.90799549044689 L 751.9272291083566 64.9824484408957 M 760.8236705317872 50.046854353431854 L 760.8236705317872 53.512826533038236 M 760.8236705317872 55.950153483562815 L 760.8236705317872 58.91748924246977 M 769.7201119552178 22.906540254562714 L 769.7201119552178 25.013288359190653 M 769.7201119552178 53.512826533038236 L 769.7201119552178 54.617749724329 M 778.6165533786485 8.255758235670129 L 778.6165533786485 21.39070029911298 M 778.6165533786485 25.013288359190653 L 778.6165533786485 27.03342406801991 M 787.512994802079 9.4044797407455 L 787.512994802079 17.54493768508786 M 787.512994802079 21.39070029911298 L 787.512994802079 23.49892475139663 M 814.202319072371 26.337941293232404 L 814.202319072371 31.709386180411627 M 814.202319072371 41.221248067891565 L 814.202319072371 57.34234932285102 M 831.9952019192323 17.430397712802858 L 831.9952019192323 30.185549341827056 M 831.9952019192323 37.52250507457603 L 831.9952019192323 40.968177473917024 M 840.8916433426629 24.23882098482531 L 840.8916433426629 28.055179674708455 M 840.8916433426629 30.185426312855697 L 840.8916433426629 46.048289757045836 M 867.5809676129546 61.021038593843855 L 867.5809676129546 66.64100200305927 M 867.5809676129546 70.00855100562157 L 867.5809676129546 75.46021078209175 M 885.3738504598159 75.18339559665534 L 885.3738504598159 76.18903440810294 M 885.3738504598159 81.30814687513552 L 885.3738504598159 82.86495547802977" style="stroke-width: 1px;"></path><path class="candle wick down" d="M 4.626149540183927 3.846153846153868 L 4.626149540183927 21.407063152296587 M 4.626149540183927 32.528267013418116 L 4.626149540183927 39.15866736396211 M 22.41903238704518 10.714369198230571 L 22.41903238704518 14.003425717100185 M 22.41903238704518 19.373394256623783 L 22.41903238704518 27.151039764587523 M 31.315473810475808 15.881585993043387 L 31.315473810475808 19.373394256623783 M 31.315473810475808 29.70881207801989 L 31.315473810475808 38.93721521561298 M 40.21191523390643 16.034880091289494 L 40.21191523390643 29.70881207801989 M 40.21191523390643 37.263898176892724 L 40.21191523390643 41.3485830531923 M 49.10835665733706 22.033034558296748 L 49.10835665733706 37.263898176892724 M 49.10835665733706 66.55561989697361 L 49.10835665733706 78.25727444471244 M 58.004798080767685 62.06666182096561 L 58.004798080767685 66.55549686800228 M 58.004798080767685 71.09317441664712 L 58.004798080767685 79.11134156351218 M 66.90123950419832 70.31169439091727 L 66.90123950419832 71.09329744561833 M 66.90123950419832 89.74227497398304 L 66.90123950419832 101.50975002137014 M 93.5905637744902 81.35145307303489 L 93.5905637744902 86.07428922349376 M 93.5905637744902 86.59261027960208 L 93.5905637744902 113.32053126665657 M 120.27988804478207 53.65148018369899 L 120.27988804478207 61.00061578460719 M 120.27988804478207 77.51774729819768 L 120.27988804478207 80.5798153650095 M 146.96921231507397 66.2619497424684 L 146.96921231507397 71.06881468032867 M 146.96921231507397 71.22420027108694 L 146.96921231507397 77.25102048840829 M 155.8656537385046 69.93830146300638 L 155.8656537385046 71.22420027108694 M 155.8656537385046 81.928212890513 L 155.8656537385046 90.0628884732041 M 173.65853658536582 77.52980413738561 L 173.65853658536582 80.07662687237173 M 173.65853658536582 88.59158500536675 L 173.65853658536582 95.00693071406954 M 182.55497800879647 65.89286282855318 L 182.55497800879647 88.5917080343381 M 182.55497800879647 100.63735158584586 L 182.55497800879647 102.20720125969859 M 191.4514194322271 95.48133042742184 L 191.4514194322271 100.63722855687462 M 191.4514194322271 152.7475026718202 L 191.4514194322271 165.11019188238117 M 200.34786085565773 147.95048005166427 L 200.34786085565773 152.7475026718202 M 200.34786085565773 169.65033001045205 L 200.34786085565773 182.7334768769755 M 235.93362654938022 122.30189222986905 L 235.93362654938022 146.43599341489892 M 235.93362654938022 148.26887902940183 L 235.93362654938022 155.33947703927535 M 271.51939224310274 129.2003727088868 L 271.51939224310274 131.5678192037102 M 271.51939224310274 135.07500608870376 L 271.51939224310274 141.59714094449933 M 298.2087165133947 123.09001582004939 L 298.2087165133947 125.07484221411404 M 298.2087165133947 147.1982809211051 L 298.2087165133947 151.00492032225523 M 324.89804078368655 85.4705860612998 L 324.89804078368655 89.67805385096186 M 324.89804078368655 92.00465472731199 L 324.89804078368655 98.64305196099075 M 369.38024790083966 37.399353074299626 L 369.38024790083966 55.217515959441215 M 369.38024790083966 66.01047852512082 L 369.38024790083966 69.96499874977957 M 378.2766893242703 60.7871605193929 L 378.2766893242703 66.01047852512082 M 378.2766893242703 79.81076126538149 L 378.2766893242703 85.16522815452063 M 387.1731307477009 71.12786858655514 L 387.1731307477009 79.81076126538149 M 387.1731307477009 81.72829081214226 L 387.1731307477009 88.23640036520908 M 396.06957217113154 75.0585211907807 L 396.06957217113154 81.72829081214226 M 396.06957217113154 83.74854954994275 L 396.06957217113154 86.00809963693168 M 422.7588964414235 53.03670441408755 L 422.7588964414235 53.0996952473958 M 422.7588964414235 61.35850706213367 L 422.7588964414235 68.32883646039352 M 431.65533786485406 57.7765185625866 L 431.65533786485406 61.35850706213367 M 431.65533786485406 102.66991322077695 L 431.65533786485406 108.11382217205484 M 440.5517792882847 97.20521237334847 L 440.5517792882847 102.66979019180562 M 440.5517792882847 109.32897932163496 L 440.5517792882847 115.78111069275792 M 458.34466213514594 107.47124185492845 L 458.34466213514594 108.04049690515704 M 458.34466213514594 128.86044366117093 L 458.34466213514594 133.62031153199268 M 467.2411035585766 115.23547720501998 L 467.2411035585766 128.86044366117093 M 467.2411035585766 145.8228170219144 L 467.2411035585766 148.38378808860074 M 485.0339864054379 118.2425513216584 L 485.0339864054379 130.78658523592304 M 485.0339864054379 142.84736135090137 L 485.0339864054379 145.47058507706802 M 511.7233106757297 104.7275727658542 L 511.7233106757297 118.62111146636406 M 511.7233106757297 119.88142024841319 L 511.7233106757297 126.56853695472883 M 520.6197520991603 110.78982532691138 L 520.6197520991603 119.88129721944186 M 520.6197520991603 137.32262236547606 L 520.6197520991603 145.92320866249938 M 547.3090763694522 42.57887276624294 L 547.3090763694522 54.62094847758297 M 547.3090763694522 61.119584799859155 L 547.3090763694522 67.99555097712812 M 556.2055177928828 58.55885979111548 L 556.2055177928828 61.11946177088791 M 556.2055177928828 78.82320771271574 L 556.2055177928828 86.47216491669441 M 565.1019592163135 77.92140535304956 L 565.1019592163135 78.82320771271574 M 565.1019592163135 119.48846571406477 L 565.1019592163135 126.85371811021398 M 582.8948420631747 112.78080316954122 L 582.8948420631747 116.42123043045818 M 582.8948420631747 128.44312939050417 L 582.8948420631747 132.5306439331437 M 591.7912834866053 114.5807170197344 L 591.7912834866053 128.4432524194754 M 591.7912834866053 133.76794629755875 L 591.7912834866053 144.01625960727085 M 618.4806077568971 83.92115919668383 L 618.4806077568971 85.12598191267438 M 618.4806077568971 116.12559181241211 L 618.4806077568971 126.98006886374424 M 627.3770491803277 106.1078347949257 L 627.3770491803277 116.1254687834408 M 627.3770491803277 124.64448687248888 L 627.3770491803277 130.86938373361136 M 645.169932027189 117.50351629102886 L 645.169932027189 123.68756753367809 M 645.169932027189 136.35967460707133 L 645.169932027189 138.8058596435299 M 662.9628148740503 110.39723987947687 L 662.9628148740503 113.05761835497762 M 662.9628148740503 117.86854324889097 L 662.9628148740503 132.4105676571499 M 680.7556977209116 90.82074693644329 L 680.7556977209116 95.30896683862342 M 680.7556977209116 97.72168799488709 L 680.7556977209116 102.86306870572587 M 707.4450219912034 80.76386670608184 L 707.4450219912034 81.934241310107 M 707.4450219912034 93.48690777359539 L 707.4450219912034 97.8065779850876 M 716.3414634146341 90.01613746410813 L 716.3414634146341 93.48690777359539 M 716.3414634146341 96.68393862192887 L 716.3414634146341 103.25749958772988 M 796.4094362255097 14.279502728708792 L 796.4094362255097 17.54506071405919 M 796.4094362255097 22.0577633815291 L 796.4094362255097 29.717178048068632 M 805.3058776489403 15.512499079128162 L 805.3058776489403 22.0577633815291 M 805.3058776489403 41.22137109686287 L 805.3058776489403 45.0394521923443 M 823.0987604958016 20.273720268634264 L 823.0987604958016 31.709386180411627 M 823.0987604958016 37.5223820456047 L 823.0987604958016 39.87223539753148 M 849.7880847660936 20.433657931330885 L 849.7880847660936 28.055302703679786 M 849.7880847660936 41.378725151162 L 849.7880847660936 43.1471435847011 M 858.6845261895241 41.260740367680484 L 858.6845261895241 41.37884818013333 M 858.6845261895241 70.00855100562157 L 858.6845261895241 70.61717532666776 M 876.4774090363853 60.16438786664662 L 876.4774090363853 66.64087897408803 M 876.4774090363853 81.30826990410678 L 876.4774090363853 83.09059061140331" style="stroke-width: 1px;"></path><path class="candle wick equal" style="stroke-width: 1px;"></path></g></g><g class="x axis" transform="translate(0,200)" fill="none" font-size="10" font-family="sans-serif" text-anchor="middle"><path class="domain" stroke="#000" d="M0.5,6V0.5H890.5V6"></path><g class="tick" opacity="1" transform="translate(31.315473810475808,0)"><line stroke="#000" y2="6" x1="0.5" x2="0.5"></line><text fill="#000" y="9" x="0.5" dy="0.71em">Jan  3</text></g><g class="tick" opacity="1" transform="translate(93.5905637744902,0)"><line stroke="#000" y2="6" x1="0.5" x2="0.5"></line><text fill="#000" y="9" x="0.5" dy="0.71em">Jan 10</text></g><g class="tick" opacity="1" transform="translate(155.8656537385046,0)"><line stroke="#000" y2="6" x1="0.5" x2="0.5"></line><text fill="#000" y="9" x="0.5" dy="0.71em">Jan 17</text></g><g class="tick" opacity="1" transform="translate(218.14074370251896,0)"><line stroke="#000" y2="6" x1="0.5" x2="0.5"></line><text fill="#000" y="9" x="0.5" dy="0.71em">Jan 24</text></g><g class="tick" opacity="1" transform="translate(280.4158336665334,0)"><line stroke="#000" y2="6" x1="0.5" x2="0.5"></line><text fill="#000" y="9" x="0.5" dy="0.71em">Jan 31</text></g><g class="tick" opacity="1" transform="translate(342.6909236305478,0)"><line stroke="#000" y2="6" x1="0.5" x2="0.5"></line><text fill="#000" y="9" x="0.5" dy="0.71em">Feb  7</text></g><g class="tick" opacity="1" transform="translate(404.9660135945622,0)"><line stroke="#000" y2="6" x1="0.5" x2="0.5"></line><text fill="#000" y="9" x="0.5" dy="0.71em">Feb 14</text></g><g class="tick" opacity="1" transform="translate(467.2411035585766,0)"><line stroke="#000" y2="6" x1="0.5" x2="0.5"></line><text fill="#000" y="9" x="0.5" dy="0.71em">Feb 21</text></g><g class="tick" opacity="1" transform="translate(529.5161935225909,0)"><line stroke="#000" y2="6" x1="0.5" x2="0.5"></line><text fill="#000" y="9" x="0.5" dy="0.71em">Feb 28</text></g><g class="tick" opacity="1" transform="translate(591.7912834866053,0)"><line stroke="#000" y2="6" x1="0.5" x2="0.5"></line><text fill="#000" y="9" x="0.5" dy="0.71em">Mar  7</text></g><g class="tick" opacity="1" transform="translate(654.0663734506197,0)"><line stroke="#000" y2="6" x1="0.5" x2="0.5"></line><text fill="#000" y="9" x="0.5" dy="0.71em">Mar 14</text></g><g class="tick" opacity="1" transform="translate(716.3414634146341,0)"><line stroke="#000" y2="6" x1="0.5" x2="0.5"></line><text fill="#000" y="9" x="0.5" dy="0.71em">Mar 21</text></g><g class="tick" opacity="1" transform="translate(778.6165533786485,0)"><line stroke="#000" y2="6" x1="0.5" x2="0.5"></line><text fill="#000" y="9" x="0.5" dy="0.71em">Mar 28</text></g><g class="tick" opacity="1" transform="translate(840.8916433426629,0)"><line stroke="#000" y2="6" x1="0.5" x2="0.5"></line><text fill="#000" y="9" x="0.5" dy="0.71em">Apr  4</text></g></g><g class="y axis" fill="none" font-size="10" font-family="sans-serif" text-anchor="end"><path class="domain" stroke="#000" d="M-6,200.5H0.5V0.5H-6"></path><g class="tick" opacity="1" transform="translate(0,182.83190005401954)"><line stroke="#000" x2="-6" y1="0.5" y2="0.5"></line><text fill="#000" x="-9" y="0.5" dy="0.32em">34,000</text></g><g class="tick" opacity="1" transform="translate(0,158.2261057930061)"><line stroke="#000" x2="-6" y1="0.5" y2="0.5"></line><text fill="#000" x="-9" y="0.5" dy="0.32em">36,000</text></g><g class="tick" opacity="1" transform="translate(0,133.62031153199268)"><line stroke="#000" x2="-6" y1="0.5" y2="0.5"></line><text fill="#000" x="-9" y="0.5" dy="0.32em">38,000</text></g><g class="tick" opacity="1" transform="translate(0,109.01451727097923)"><line stroke="#000" x2="-6" y1="0.5" y2="0.5"></line><text fill="#000" x="-9" y="0.5" dy="0.32em">40,000</text></g><g class="tick" opacity="1" transform="translate(0,84.4087230099658)"><line stroke="#000" x2="-6" y1="0.5" y2="0.5"></line><text fill="#000" x="-9" y="0.5" dy="0.32em">42,000</text></g><g class="tick" opacity="1" transform="translate(0,59.802928748952354)"><line stroke="#000" x2="-6" y1="0.5" y2="0.5"></line><text fill="#000" x="-9" y="0.5" dy="0.32em">44,000</text></g><g class="tick" opacity="1" transform="translate(0,35.19713448793894)"><line stroke="#000" x2="-6" y1="0.5" y2="0.5"></line><text fill="#000" x="-9" y="0.5" dy="0.32em">46,000</text></g><g class="tick" opacity="1" transform="translate(0,10.591340226925496)"><line stroke="#000" x2="-6" y1="0.5" y2="0.5"></line><text fill="#000" x="-9" y="0.5" dy="0.32em">48,000</text></g><text transform="rotate(-90)" y="6" dy=".71em" style="text-anchor: end;">Price ($)</text></g></g></svg>