<?xml version="1.0" encoding="utf-8"?>
<!DOCTYPE svg PUBLIC "-//W3C//DTD SVG 1.1//EN" "http://www.w3.org/Graphics/SVG/1.1/DTD/svg11.dtd">
<svg version="1.1" xmlns="http://www.w3.org/2000/svg" width="960" height="250"><g transform="translate(50,20)"><style>.axis path,.axis line{fill:none;stroke:#000;shape-rendering:crispEdges;}path.candle{stroke:#000000;}path.candle.body{stroke-width:0;}path.candle.up{fill:#00AA00;stroke:#00AA00;}path.candle.down{fill:#FF0000;stroke:#FF0000;}</style><g class="candlestick"><g class="data"><path class="candle body up" d="M 9.964014394242305 173.8954998385243 l 7.1171531387445 0 L 17.081167532986804 168.07928025133296 l -7.1171531387445 0 L 9.964014394242305 173.8954998385243 M 27.75689724110356 170.01538040835416 l 7.1171531387445 0 L 34.87405037984806 165.33741002832323 l -7.1171531387445 0 L 27.75689724110356 170.01538040835416 M 54.446221511395436 174.8024242394246 l 7.1171531387445 0 L 61.563374650139934 174.24004325817188 l -7.1171531387445 0 L 54.446221511395436 174.8024242394246 M 81.13554578168731 183.1252915533965 l 7.1171531387445 0 L 88.25269892043181 182.28258623484388 l -7.1171531387445 0 L 81.13554578168731 183.1252915533965 M 90.03198720511796 182.28258623484388 l 7.1171531387445 0 L 97.14914034386246 180.68335785372156 l -7.1171531387445 0 L 90.03198720511796 182.28258623484388 M 116.72131147540982 192.98409618756426 l 7.1171531387445 0 L 123.83846461415432 178.41929492644505 l -7.1171531387445 0 L 116.72131147540982 192.98409618756426 M 125.61775289884046 178.41929492644505 l 7.1171531387445 0 L 132.73490603758498 177.53260139252708 l -7.1171531387445 0 L 125.61775289884046 178.41929492644505 M 134.51419432227107 177.53414809489576 l 7.1171531387445 0 L 141.63134746101557 169.20354726908045 l -7.1171531387445 0 L 134.51419432227107 177.53414809489576 M 143.4106357457017 169.2034854009857 l 7.1171531387445 0 L 150.5277888844462 165.34266881637674 l -7.1171531387445 0 L 143.4106357457017 169.2034854009857 M 152.30707716913233 165.3218192684469 l 7.1171531387445 0 L 159.42423030787683 158.39562419339472 l -7.1171531387445 0 L 152.30707716913233 165.3218192684469 M 161.20351859256294 158.39562419339472 l 7.1171531387445 0 L 168.32067173130744 146.90931745880513 l -7.1171531387445 0 L 161.20351859256294 158.39562419339472 M 170.09996001599356 146.8862406594644 l 7.1171531387445 0 L 177.21711315473806 133.1729299863519 l -7.1171531387445 0 L 170.09996001599356 146.8862406594644 M 178.9964014394242 133.18072536629006 l 7.1171531387445 0 L 186.1135545781687 129.69786097249224 l -7.1171531387445 0 L 178.9964014394242 133.18072536629006 M 196.78928428628546 129.70448085863018 l 7.1171531387445 0 L 203.90643742502996 116.16848414506335 l -7.1171531387445 0 L 196.78928428628546 129.70448085863018 M 241.2714914034386 140.9115768816253 l 7.1171531387445 0 L 248.3886445421831 131.53150756461196 l -7.1171531387445 0 L 241.2714914034386 140.9115768816253 M 250.16793282686922 131.5315694327067 l 7.1171531387445 0 L 257.28508596561375 124.4829992662444 l -7.1171531387445 0 L 250.16793282686922 131.5315694327067 M 259.06437425029986 124.4829992662444 l 7.1171531387445 0 L 266.1815273890444 112.26770077124766 l -7.1171531387445 0 L 259.06437425029986 124.4829992662444 M 267.9608156737305 112.26770077124766 l 7.1171531387445 0 L 275.07796881247504 101.52944117024738 l -7.1171531387445 0 L 267.9608156737305 112.26770077124766 M 285.7536985205918 106.34389256729084 l 7.1171531387445 0 L 292.8708516593363 91.1302805965569 l -7.1171531387445 0 L 285.7536985205918 106.34389256729084 M 321.3394642143143 102.5965420684484 l 7.1171531387445 0 L 328.45661735305885 81.56176106294335 l -7.1171531387445 0 L 321.3394642143143 102.5965420684484 M 365.8216713314674 100.76592701297128 l 7.1171531387445 0 L 372.93882447021196 100.7081422124773 l -7.1171531387445 0 L 365.8216713314674 100.76592701297128 M 374.7181127548981 100.74476812456768 l 7.1171531387445 0 L 381.8352658936426 87.99220709478561 l -7.1171531387445 0 L 374.7181127548981 100.74476812456768 M 383.61455417832866 87.99220709478561 l 7.1171531387445 0 L 390.7317073170732 72.14252924195496 l -7.1171531387445 0 L 383.61455417832866 87.99220709478561 M 401.40743702518995 75.23958419690884 l 7.1171531387445 0 L 408.5245901639345 72.65758113072604 l -7.1171531387445 0 L 401.40743702518995 75.23958419690884 M 410.3038784486206 72.65758113072604 l 7.1171531387445 0 L 417.4210315873651 71.11316788154983 l -7.1171531387445 0 L 410.3038784486206 72.65758113072604 M 428.0967612954818 82.34123718866427 l 7.1171531387445 0 L 435.21391443422635 74.3026537700561 l -7.1171531387445 0 L 428.0967612954818 82.34123718866427 M 445.8896441423431 87.47721707410932 l 7.1171531387445 0 L 453.00679728108764 73.70513171098689 l -7.1171531387445 0 L 445.8896441423431 87.47721707410932 M 481.47540983606564 86.61694121664843 l 7.1171531387445 0 L 488.59256297481016 85.8870214348201 l -7.1171531387445 0 L 481.47540983606564 86.61694121664843 M 490.3718512594962 85.8870214348201 l 7.1171531387445 0 L 497.48900439824075 75.30986635254176 l -7.1171531387445 0 L 490.3718512594962 85.8870214348201 M 499.2682926829268 75.30992822063646 l 7.1171531387445 0 L 506.38544582167134 72.61167500442356 l -7.1171531387445 0 L 499.2682926829268 75.30992822063646 M 508.16473410635746 72.61173687251834 l 7.1171531387445 0 L 515.281887245102 67.95610087469112 l -7.1171531387445 0 L 508.16473410635746 72.61173687251834 M 525.9576169532187 68.46094452782887 l 7.1171531387445 0 L 533.0747700919632 57.08129838858363 l -7.1171531387445 0 L 525.9576169532187 68.46094452782887 M 534.8540583766493 57.08129838858363 l 7.1171531387445 0 L 541.9712115153937 51.469738458816266 l -7.1171531387445 0 L 534.8540583766493 57.08129838858363 M 561.5433826469413 92.3991333517288 l 7.1171531387445 0 L 568.6605357856857 90.25336222160905 l -7.1171531387445 0 L 561.5433826469413 92.3991333517288 M 579.3362654938024 99.86110612729237 l 7.1171531387445 0 L 586.4534186325469 97.81024065451493 l -7.1171531387445 0 L 579.3362654938024 99.86110612729237 M 588.232706917233 97.81030252260969 l 7.1171531387445 0 L 595.3498600559775 92.54186304631075 l -7.1171531387445 0 L 588.232706917233 97.81030252260969 M 606.0255897640943 99.25158165784221 l 7.1171531387445 0 L 613.1427429028388 85.82125565010377 l -7.1171531387445 0 L 606.0255897640943 99.25158165784221 M 614.9220311875249 85.8722349601755 l 7.1171531387445 0 L 622.0391843262694 79.57325862967117 l -7.1171531387445 0 L 614.9220311875249 85.8722349601755 M 641.6113554578168 84.6552895364966 l 7.1171531387445 0 L 648.7285085965613 78.51327256236615 l -7.1171531387445 0 L 641.6113554578168 84.6552895364966 M 677.1971211515394 125.27719999851519 l 7.1171531387445 0 L 684.3142742902838 107.89523504307876 l -7.1171531387445 0 L 677.1971211515394 125.27719999851519 M 686.09356257497 107.87815944892849 l 7.1171531387445 0 L 693.2107157137144 99.71843830080513 l -7.1171531387445 0 L 686.09356257497 107.87815944892849 M 712.7828868452618 113.29619597832638 l 7.1171531387445 0 L 719.9000399840063 110.2629888971517 l -7.1171531387445 0 L 712.7828868452618 113.29619597832638 M 739.4722111155537 123.47733338612743 l 7.1171531387445 0 L 746.5893642542982 120.38844501968025 l -7.1171531387445 0 L 739.4722111155537 123.47733338612743 M 748.3686525389844 120.38838315158549 l 7.1171531387445 0 L 755.4858056777289 106.15989685351245 l -7.1171531387445 0 L 748.3686525389844 120.38838315158549 M 757.265093962415 106.18520090426406 l 7.1171531387445 0 L 764.3822471011595 79.4482850782817 l -7.1171531387445 0 L 757.265093962415 106.18520090426406 M 775.0579768092763 82.58326517531562 l 7.1171531387445 0 L 782.1751299480208 79.0869754049576 l -7.1171531387445 0 L 775.0579768092763 82.58326517531562 M 783.9544182327068 79.0869754049576 l 7.1171531387445 0 L 791.0715713714512 72.74592877002515 l -7.1171531387445 0 L 783.9544182327068 79.0869754049576 M 792.8508596561375 72.7459906381199 l 7.1171531387445 0 L 799.9680127948819 58.84385853983872 l -7.1171531387445 0 L 792.8508596561375 72.7459906381199 M 801.747301079568 58.84385853983872 l 7.1171531387445 0 L 808.8644542183125 35.0678878603662 l -7.1171531387445 0 L 801.747301079568 58.84385853983872 M 819.5401839264293 44.53234525861481 l 7.1171531387445 0 L 826.6573370651738 43.50403565582036 l -7.1171531387445 0 L 819.5401839264293 44.53234525861481 M 828.43662534986 43.47780358364753 l 7.1171531387445 0 L 835.5537784886045 37.327805625294616 l -7.1171531387445 0 L 828.43662534986 43.47780358364753 M 846.2295081967213 39.12637300769265 l 7.1171531387445 0 L 853.3466613354658 21.72696124953754 l -7.1171531387445 0 L 846.2295081967213 39.12637300769265 M 864.0223910435824 30.84904061145471 l 7.1171531387445 0 L 871.1395441823269 22.372554818225325 l -7.1171531387445 0 L 864.0223910435824 30.84904061145471 M 881.8152738904437 22.49047540681363 l 7.1171531387445 0 L 888.9324270291881 6.484766219030348 l -7.1171531387445 0 L 881.8152738904437 22.49047540681363"></path><path class="candle body down" d="M 1.0675729708116766 167.79283097265306 l 7.1171531387445 0 L 8.184726109556177 173.8954998385243 l -7.1171531387445 0 L 1.0675729708116766 167.79283097265306 M 18.860455817672932 168.07928025133296 l 7.1171531387445 0 L 25.977608956417434 170.01538040835416 l -7.1171531387445 0 L 18.860455817672932 168.07928025133296 M 36.65333866453418 165.3373481602285 l 7.1171531387445 0 L 43.77049180327868 172.59057798411476 l -7.1171531387445 0 L 36.65333866453418 165.3373481602285 M 45.54978008796481 172.58866007317758 l 7.1171531387445 0 L 52.66693322670931 174.79840281326602 l -7.1171531387445 0 L 45.54978008796481 172.58866007317758 M 63.342662934826066 174.2399813900771 l 7.1171531387445 0 L 70.45981607357056 180.0557679006052 l -7.1171531387445 0 L 63.342662934826066 174.2399813900771 M 72.23910435825668 180.08985722081093 l 7.1171531387445 0 L 79.35625749700118 183.12522968530178 l -7.1171531387445 0 L 72.23910435825668 180.08985722081093 M 98.92842862854857 180.6832959856268 l 7.1171531387445 0 L 106.04558176729307 186.49221513763794 l -7.1171531387445 0 L 98.92842862854857 180.6832959856268 M 107.82487005197919 186.49221513763794 l 7.1171531387445 0 L 114.94202319072369 192.98403431946954 l -7.1171531387445 0 L 107.82487005197919 186.49221513763794 M 187.89284286285485 129.69779910439746 l 7.1171531387445 0 L 195.00999600159935 129.71691634567435 l -7.1171531387445 0 L 187.89284286285485 129.69779910439746 M 205.68572570971608 116.1685460131581 l 7.1171531387445 0 L 212.80287884846058 120.77481127137698 l -7.1171531387445 0 L 205.68572570971608 116.1685460131581 M 214.5821671331467 120.77474940328226 l 7.1171531387445 0 L 221.6993202718912 130.77510823823175 l -7.1171531387445 0 L 214.5821671331467 120.77474940328226 M 223.47860855657734 130.74522594846883 l 7.1171531387445 0 L 230.59576169532184 135.09115026399115 l -7.1171531387445 0 L 223.47860855657734 130.74522594846883 M 232.37504998000796 135.0970896010869 l 7.1171531387445 0 L 239.49220311875246 140.91151501353053 l -7.1171531387445 0 L 232.37504998000796 135.0970896010869 M 276.85725709716115 101.52944117024738 l 7.1171531387445 0 L 283.9744102359057 106.34383069919608 l -7.1171531387445 0 L 276.85725709716115 101.52944117024738 M 294.65013994402244 91.1583068434774 l 7.1171531387445 0 L 301.76729308276697 95.26560591755955 l -7.1171531387445 0 L 294.65013994402244 91.1583068434774 M 303.54658136745303 95.26554404946476 l 7.1171531387445 0 L 310.66373450619756 95.72336795059462 l -7.1171531387445 0 L 303.54658136745303 95.26554404946476 M 312.4430227908837 95.7254095977213 l 7.1171531387445 0 L 319.5601759296282 102.6031000864916 l -7.1171531387445 0 L 312.4430227908837 95.7254095977213 M 330.23590563774496 81.56182293103814 l 7.1171531387445 0 L 337.3530587764895 86.08735032561177 l -7.1171531387445 0 L 330.23590563774496 81.56182293103814 M 339.13234706117555 86.08741219370653 l 7.1171531387445 0 L 346.2495001999201 86.67317931477373 l -7.1171531387445 0 L 339.13234706117555 86.08741219370653 M 348.02878848460614 86.67317931477373 l 7.1171531387445 0 L 355.14594162335067 93.3087180807032 l -7.1171531387445 0 L 348.02878848460614 86.67317931477373 M 356.9252299080368 93.30865621260844 l 7.1171531387445 0 L 364.0423830467813 100.76592701297128 l -7.1171531387445 0 L 356.9252299080368 93.30865621260844 M 392.5109956017593 72.14252924195496 l 7.1171531387445 0 L 399.62814874050383 75.23964606500356 l -7.1171531387445 0 L 392.5109956017593 72.14252924195496 M 419.20031987205124 71.11316788154983 l 7.1171531387445 0 L 426.31747301079577 82.34123718866427 l -7.1171531387445 0 L 419.20031987205124 71.11316788154983 M 436.99320271891247 74.3026537700561 l 7.1171531387445 0 L 444.110355857657 87.47715520601456 l -7.1171531387445 0 L 436.99320271891247 74.3026537700561 M 454.7860855657737 73.70513171098689 l 7.1171531387445 0 L 461.90323870451823 74.7850393048006 l -7.1171531387445 0 L 454.7860855657737 73.70513171098689 M 463.68252698920435 74.7850393048006 l 7.1171531387445 0 L 470.7996801279489 75.57398124901783 l -7.1171531387445 0 L 463.68252698920435 74.7850393048006 M 472.57896841263494 75.5739193809231 l 7.1171531387445 0 L 479.69612155137946 86.61694121664843 l -7.1171531387445 0 L 472.57896841263494 75.5739193809231 M 517.0611755297881 67.96315383749231 l 7.1171531387445 0 L 524.1783286685326 68.47269946583089 l -7.1171531387445 0 L 517.0611755297881 67.96315383749231 M 543.75049980008 51.45550879702441 l 7.1171531387445 0 L 550.8676529388244 87.35428516984646 l -7.1171531387445 0 L 543.75049980008 51.45550879702441 M 552.6469412235106 87.3243410119888 l 7.1171531387445 0 L 559.764094362255 92.3991333517288 l -7.1171531387445 0 L 552.6469412235106 87.3243410119888 M 570.4398240703717 90.25336222160905 l 7.1171531387445 0 L 577.5569772091162 99.80721901676748 l -7.1171531387445 0 L 570.4398240703717 90.25336222160905 M 597.1291483406637 92.54192491440547 l 7.1171531387445 0 L 604.2463014794082 99.25151978974745 l -7.1171531387445 0 L 597.1291483406637 92.54192491440547 M 623.8184726109555 79.57332049776593 l 7.1171531387445 0 L 630.9356257497 81.94645687608191 l -7.1171531387445 0 L 623.8184726109555 79.57332049776593 M 632.7149140343862 81.94651874417669 l 7.1171531387445 0 L 639.8320671731307 84.6552895364966 l -7.1171531387445 0 L 632.7149140343862 81.94651874417669 M 650.5077968812475 78.51321069427138 l 7.1171531387445 0 L 657.624950019992 85.01554745220999 l -7.1171531387445 0 L 650.5077968812475 78.51321069427138 M 659.4042383046781 85.01554745220999 l 7.1171531387445 0 L 666.5213914434225 111.1618085776401 l -7.1171531387445 0 L 659.4042383046781 85.01554745220999 M 668.3006797281087 111.15549803197591 l 7.1171531387445 0 L 675.4178328668531 125.27540582376751 l -7.1171531387445 0 L 668.3006797281087 111.15549803197591 M 694.9900039984005 99.71843830080513 l 7.1171531387445 0 L 702.107157137145 112.430413860433 l -7.1171531387445 0 L 694.9900039984005 99.71843830080513 M 703.8864454218311 112.43035199233825 l 7.1171531387445 0 L 711.0035985605756 113.29613411023163 l -7.1171531387445 0 L 703.8864454218311 112.43035199233825 M 721.6793282686924 110.2629888971517 l 7.1171531387445 0 L 728.7964814074369 116.53362964026178 l -7.1171531387445 0 L 721.6793282686924 110.2629888971517 M 730.5757696921231 116.53362964026178 l 7.1171531387445 0 L 737.6929228308676 123.4678675676311 l -7.1171531387445 0 L 730.5757696921231 116.53362964026178 M 766.1615353858456 79.44834694637646 l 7.1171531387445 0 L 773.27868852459 82.58320330722087 l -7.1171531387445 0 L 766.1615353858456 79.44834694637646 M 810.6437425029987 35.0678878603662 l 7.1171531387445 0 L 817.7608956417432 44.53234525861481 l -7.1171531387445 0 L 810.6437425029987 35.0678878603662 M 837.3330667732906 37.327805625294616 l 7.1171531387445 0 L 844.4502199120351 39.126434875787425 l -7.1171531387445 0 L 837.3330667732906 37.327805625294616 M 855.1259496201519 21.72696124953754 l 7.1171531387445 0 L 862.2431027588964 30.848916875265246 l -7.1171531387445 0 L 855.1259496201519 21.72696124953754 M 872.9188324670131 22.348859337937142 l 7.1171531387445 0 L 880.0359856057576 22.49047540681363 l -7.1171531387445 0 L 872.9188324670131 22.348859337937142"></path><path class="candle body equal"></path><path class="candle wick up" d="M 13.522590963614554 166.32105086671015 L 13.522590963614554 168.07928025133296 M 13.522590963614554 173.8954998385243 L 13.522590963614554 177.6981604140708 M 31.315473810475808 162.81931670401437 L 31.315473810475808 165.33741002832323 M 31.315473810475808 170.01538040835416 L 31.315473810475808 171.23046978919066 M 58.004798080767685 172.42105940450722 L 58.004798080767685 174.24004325817188 M 58.004798080767685 174.8024242394246 L 58.004798080767685 182.09741502726527 M 84.69412235105956 179.5860653252839 L 84.69412235105956 182.28258623484388 M 84.69412235105956 183.1252915533965 L 84.69412235105956 184.48360557357293 M 93.5905637744902 176.62208864213144 L 93.5905637744902 180.68335785372156 M 93.5905637744902 182.28258623484388 L 93.5905637744902 184.82598360990434 M 120.27988804478207 174.0050682343217 L 120.27988804478207 178.41929492644505 M 120.27988804478207 192.98409618756426 L 120.27988804478207 194.88796306722216 M 129.1763294682127 175.6547809807578 L 129.1763294682127 177.53260139252708 M 129.1763294682127 178.41929492644505 L 129.1763294682127 181.11989913025832 M 138.07277089164333 169.10511513033754 L 138.07277089164333 169.20354726908045 M 138.07277089164333 177.53414809489576 L 138.07277089164333 179.78156850468528 M 146.96921231507397 163.84632707681914 L 146.96921231507397 165.34266881637674 M 146.96921231507397 169.2034854009857 L 146.96921231507397 170.64476453621822 M 155.8656537385046 158.29057216851385 L 155.8656537385046 158.39562419339472 M 155.8656537385046 165.3218192684469 L 155.8656537385046 167.8608240087803 M 164.7620951619352 126.41612975471776 L 164.7620951619352 146.90931745880513 M 164.7620951619352 158.39562419339472 L 164.7620951619352 159.47980068574597 M 173.65853658536582 132.6486597514635 L 173.65853658536582 133.1729299863519 M 173.65853658536582 146.8862406594644 L 173.65853658536582 152.19656483590725 M 182.55497800879647 124.25074643856313 L 182.55497800879647 129.69786097249224 M 182.55497800879647 133.18072536629006 L 182.55497800879647 137.41627700078325 M 200.34786085565773 115.48583158762193 L 200.34786085565773 116.16848414506335 M 200.34786085565773 129.70448085863018 L 200.34786085565773 140.25459958350396 M 244.83006797281087 130.00658276528108 L 244.83006797281087 131.53150756461196 M 244.83006797281087 140.9115768816253 L 244.83006797281087 145.23293956353297 M 253.72650939624148 121.46668217493574 L 253.72650939624148 124.4829992662444 M 253.72650939624148 131.5315694327067 L 253.72650939624148 146.32095187775857 M 262.6229508196721 108.83055689946805 L 262.6229508196721 112.26770077124766 M 262.6229508196721 124.4829992662444 L 262.6229508196721 130.72301530245454 M 271.51939224310274 100.74087043459862 L 271.51939224310274 101.52944117024738 M 271.51939224310274 112.26770077124766 L 271.51939224310274 114.68340239874975 M 289.31227508996403 89.88827859450537 L 289.31227508996403 91.1302805965569 M 289.31227508996403 106.34389256729084 L 289.31227508996403 112.62573143555015 M 324.89804078368655 81.0296954481168 L 324.89804078368655 81.56176106294335 M 324.89804078368655 102.5965420684484 L 324.89804078368655 103.72668655519686 M 369.38024790083966 92.69801811745286 L 369.38024790083966 100.7081422124773 M 369.38024790083966 100.76592701297128 L 369.38024790083966 103.81398243688527 M 378.2766893242703 86.30704393005935 L 378.2766893242703 87.99220709478561 M 378.2766893242703 100.74476812456768 L 378.2766893242703 105.51894339193069 M 387.1731307477009 71.76810353254447 L 387.1731307477009 72.14252924195496 M 387.1731307477009 87.99220709478561 L 387.1731307477009 88.8436976827924 M 404.9660135945622 71.04418495590662 L 404.9660135945622 72.65758113072604 M 404.9660135945622 75.23958419690884 L 404.9660135945622 80.01505869426148 M 413.86245501799283 64.8573754811791 L 413.86245501799283 71.11316788154983 M 413.86245501799283 72.65758113072604 L 413.86245501799283 73.95817221850325 M 431.65533786485406 72.50241594909986 L 431.65533786485406 74.3026537700561 M 431.65533786485406 82.34123718866427 L 431.65533786485406 85.72993834225677 M 449.44822071171535 73.21000134872446 L 449.44822071171535 73.70513171098689 M 449.44822071171535 87.47721707410932 L 449.44822071171535 90.54500842024768 M 485.0339864054379 78.80176348817267 L 485.0339864054379 85.8870214348201 M 485.0339864054379 86.61694121664843 L 485.0339864054379 88.36725148514361 M 493.93042782886846 73.17244741521287 L 493.93042782886846 75.30986635254176 M 493.93042782886846 85.8870214348201 L 493.93042782886846 89.5303716663924 M 502.82686925229905 65.16591166968377 L 502.82686925229905 72.61167500442356 M 502.82686925229905 75.30992822063646 L 502.82686925229905 76.71093122618853 M 511.7233106757297 61.76397074381535 L 511.7233106757297 67.95610087469112 M 511.7233106757297 72.61173687251834 L 511.7233106757297 78.36417045402521 M 529.5161935225909 56.19584221656061 L 529.5161935225909 57.08129838858363 M 529.5161935225909 68.46094452782887 L 529.5161935225909 71.35352542964299 M 538.4126349460215 50.7514498788004 L 538.4126349460215 51.469738458816266 M 538.4126349460215 57.08129838858363 L 538.4126349460215 61.95372019040525 M 565.1019592163135 84.0366704571186 L 565.1019592163135 90.25336222160905 M 565.1019592163135 92.3991333517288 L 565.1019592163135 95.71049938688716 M 582.8948420631747 92.77269290781283 L 582.8948420631747 97.81024065451493 M 582.8948420631747 99.86110612729237 L 582.8948420631747 100.60339952807017 M 591.7912834866053 89.85208575907822 L 591.7912834866053 92.54186304631075 M 591.7912834866053 97.81030252260969 L 591.7912834866053 100.4806532280916 M 609.5841663334666 84.96450627404349 L 609.5841663334666 85.82125565010377 M 609.5841663334666 99.25158165784221 L 609.5841663334666 101.39395004275083 M 618.4806077568971 77.2309944306341 L 618.4806077568971 79.57325862967117 M 618.4806077568971 85.8722349601755 L 618.4806077568971 88.4766342766568 M 645.169932027189 75.10768141890765 L 645.169932027189 78.51327256236615 M 645.169932027189 84.6552895364966 L 645.169932027189 86.29120569780406 M 680.7556977209116 105.06823432169675 L 680.7556977209116 107.89523504307876 M 680.7556977209116 125.27719999851519 L 680.7556977209116 126.3209147569017 M 689.6521391443422 99.02093740062436 L 689.6521391443422 99.71843830080513 M 689.6521391443422 107.87815944892849 L 689.6521391443422 110.83099987502646 M 716.3414634146341 105.38097754064425 L 716.3414634146341 110.2629888971517 M 716.3414634146341 113.29619597832638 L 716.3414634146341 125.17876785977225 M 743.0307876849259 113.79503842627365 L 743.0307876849259 120.38844501968025 M 743.0307876849259 123.47733338612743 L 743.0307876849259 125.15476303901033 M 751.9272291083566 104.19700781146562 L 751.9272291083566 106.15989685351245 M 751.9272291083566 120.38838315158549 L 751.9272291083566 121.0944218488414 M 760.8236705317872 77.26192847800775 L 760.8236705317872 79.4482850782817 M 760.8236705317872 106.18520090426406 L 760.8236705317872 109.50739385600326 M 778.6165533786485 72.7265021882745 L 778.6165533786485 79.0869754049576 M 778.6165533786485 82.58326517531562 L 778.6165533786485 85.96676940894935 M 787.512994802079 70.82071739767943 L 787.512994802079 72.74592877002515 M 787.512994802079 79.0869754049576 L 787.512994802079 87.18557087547066 M 796.4094362255097 56.28060150636435 L 796.4094362255097 58.84385853983872 M 796.4094362255097 72.7459906381199 L 796.4094362255097 73.99900516103645 M 805.3058776489403 32.3766257388597 L 805.3058776489403 35.0678878603662 M 805.3058776489403 58.84385853983872 L 805.3058776489403 65.58488240731228 M 823.0987604958016 30.211242422705084 L 823.0987604958016 43.50403565582036 M 823.0987604958016 44.53234525861481 L 823.0987604958016 45.569316394673905 M 831.9952019192323 33.99138301176359 L 831.9952019192323 37.327805625294616 M 831.9952019192323 43.47780358364753 L 831.9952019192323 45.29672556921739 M 849.7880847660936 19.45213327377496 L 849.7880847660936 21.72696124953754 M 849.7880847660936 39.12637300769265 L 849.7880847660936 40.63564517905246 M 867.5809676129546 19.83596293358707 L 867.5809676129546 22.372554818225325 M 867.5809676129546 30.84904061145471 L 867.5809676129546 42.16916964355312 M 885.3738504598159 3.8461538461538396 L 885.3738504598159 6.484766219030348 M 885.3738504598159 22.49047540681363 L 885.3738504598159 25.57113531665948" style="stroke-width: 1px;"></path><path class="candle wick down" d="M 4.626149540183927 167.37503572882474 L 4.626149540183927 167.79283097265306 M 4.626149540183927 173.8954998385243 L 4.626149540183927 178.83696643408388 M 22.41903238704518 165.3187877318043 L 22.41903238704518 168.07928025133296 M 22.41903238704518 170.01538040835416 L 22.41903238704518 173.0969683396212 M 40.21191523390643 162.7424146622435 L 40.21191523390643 165.3373481602285 M 40.21191523390643 172.59057798411476 L 40.21191523390643 175.24032661404578 M 49.10835665733706 171.02302606750305 L 49.10835665733706 172.58866007317758 M 49.10835665733706 174.79840281326602 L 49.10835665733706 178.06206854737425 M 66.90123950419832 171.98043483371714 L 66.90123950419832 174.2399813900771 M 66.90123950419832 180.0557679006052 L 66.90123950419832 184.67731457822666 M 75.79768092762893 177.7717215787253 L 75.79768092762893 180.08985722081093 M 75.79768092762893 183.12522968530178 L 75.79768092762893 185.37642404887086 M 102.48700519792082 179.9382185205854 L 102.48700519792082 180.6832959856268 M 102.48700519792082 186.49221513763794 L 102.48700519792082 189.16621606070993 M 111.38344662135144 185.10995816479434 L 111.38344662135144 186.49221513763794 M 111.38344662135144 192.98403431946954 L 111.38344662135144 196.15384615384616 M 191.4514194322271 125.85931690199229 L 191.4514194322271 129.69779910439746 M 191.4514194322271 129.71691634567435 L 191.4514194322271 134.7683225455999 M 209.24430227908834 114.67356537168494 L 209.24430227908834 116.1685460131581 M 209.24430227908834 120.77481127137698 L 209.24430227908834 123.63113746966916 M 218.14074370251896 113.7393571410011 L 218.14074370251896 120.77474940328226 M 218.14074370251896 130.77510823823175 L 218.14074370251896 133.3947889741156 M 227.0371851259496 126.84914454985392 L 227.0371851259496 130.74522594846883 M 227.0371851259496 135.09115026399115 L 227.0371851259496 137.9235953777109 M 235.93362654938022 131.17997305025796 L 235.93362654938022 135.0970896010869 M 235.93362654938022 140.91151501353053 L 235.93362654938022 144.4071861029411 M 280.4158336665334 96.96691665501484 L 280.4158336665334 101.52944117024738 M 280.4158336665334 106.34383069919608 L 280.4158336665334 109.64368926873149 M 298.2087165133947 88.36725148514361 L 298.2087165133947 91.1583068434774 M 298.2087165133947 95.26560591755955 L 298.2087165133947 101.424760353935 M 307.10515793682526 88.0983108772772 L 307.10515793682526 95.26554404946476 M 307.10515793682526 95.72336795059462 L 307.10515793682526 96.77425940797184 M 316.0015993602559 91.34855123482528 L 316.0015993602559 95.7254095977213 M 316.0015993602559 102.6031000864916 L 316.0015993602559 106.4946032460952 M 333.7944822071172 79.4334986036371 L 333.7944822071172 81.56182293103814 M 333.7944822071172 86.08735032561177 L 333.7944822071172 92.87724998793571 M 342.6909236305478 84.20804507956858 L 342.6909236305478 86.08741219370653 M 342.6909236305478 86.67317931477373 L 342.6909236305478 95.79142285481662 M 351.5873650539784 79.99136321397327 L 351.5873650539784 86.67317931477373 M 351.5873650539784 93.3087180807032 L 351.5873650539784 94.80153333886021 M 360.483806477409 85.52131912676897 L 360.483806477409 93.30865621260844 M 360.483806477409 100.76592701297128 L 360.483806477409 102.74539670441033 M 396.06957217113154 69.45392744852262 L 396.06957217113154 72.14252924195496 M 396.06957217113154 75.23964606500356 L 396.06957217113154 78.95092746460834 M 422.7588964414235 68.8169335450047 L 422.7588964414235 71.11316788154983 M 422.7588964414235 82.34123718866427 L 422.7588964414235 82.79912295788887 M 440.5517792882847 71.95463583820754 L 440.5517792882847 74.3026537700561 M 440.5517792882847 87.47715520601456 L 440.5517792882847 91.151315748771 M 458.34466213514594 72.28773366032684 L 458.34466213514594 73.70513171098689 M 458.34466213514594 74.7850393048006 L 458.34466213514594 78.17831869740439 M 467.2411035585766 70.22585566668442 L 467.2411035585766 74.7850393048006 M 467.2411035585766 75.57398124901783 L 467.2411035585766 81.79351894586664 M 476.13754498200717 74.82673840066025 L 476.13754498200717 75.5739193809231 M 476.13754498200717 86.61694121664843 L 476.13754498200717 87.4206696355103 M 520.6197520991603 64.63656825102606 L 520.6197520991603 67.96315383749231 M 520.6197520991603 68.47269946583089 L 520.6197520991603 71.84847018762116 M 547.3090763694522 49.88529655233856 L 547.3090763694522 51.45550879702441 M 547.3090763694522 87.35428516984646 L 547.3090763694522 112.22946628869383 M 556.2055177928828 84.40156847993805 L 556.2055177928828 87.3243410119888 M 556.2055177928828 92.3991333517288 L 556.2055177928828 102.52254782713067 M 573.998400639744 86.30704393005935 L 573.998400639744 90.25336222160905 M 573.998400639744 99.80721901676748 L 573.998400639744 104.25318404149616 M 600.687724910036 87.25362577969267 L 600.687724910036 92.54192491440547 M 600.687724910036 99.25151978974745 L 600.687724910036 108.9693270359862 M 627.3770491803277 76.87834629057464 L 627.3770491803277 79.57332049776593 M 627.3770491803277 81.94645687608191 L 627.3770491803277 86.38066696280862 M 636.2734906037584 79.39637774678874 L 636.2734906037584 81.94651874417669 M 636.2734906037584 84.6552895364966 L 636.2734906037584 88.3699736813125 M 654.0663734506197 78.0177709915352 L 654.0663734506197 78.51321069427138 M 654.0663734506197 85.01554745220999 L 654.0663734506197 87.56803943719831 M 662.9628148740503 84.36283905262623 L 662.9628148740503 85.01554745220999 M 662.9628148740503 111.1618085776401 L 662.9628148740503 114.35185127899913 M 671.8592562974809 107.3050752872845 L 671.8592562974809 111.15549803197591 M 671.8592562974809 125.27540582376751 L 671.8592562974809 132.2935987557089 M 698.5485805677728 97.64746569723486 L 698.5485805677728 99.71843830080513 M 698.5485805677728 112.430413860433 L 698.5485805677728 125.6427785703768 M 707.4450219912034 111.46360114381736 L 707.4450219912034 112.43035199233825 M 707.4450219912034 113.29613411023163 L 707.4450219912034 119.6336542637635 M 725.2379048380647 102.90625375075324 L 725.2379048380647 110.2629888971517 M 725.2379048380647 116.53362964026178 L 725.2379048380647 116.83894868783959 M 734.1343462614954 112.57388597215196 L 734.1343462614954 116.53362964026178 M 734.1343462614954 123.4678675676311 L 734.1343462614954 124.32498815225986 M 769.7201119552178 78.24198096689936 L 769.7201119552178 79.44834694637646 M 769.7201119552178 82.58320330722087 L 769.7201119552178 83.84976694288709 M 814.202319072371 34.960794188358676 L 814.202319072371 35.0678878603662 M 814.202319072371 44.53234525861481 L 814.202319072371 47.18166081188261 M 840.8916433426629 27.357205343918565 L 840.8916433426629 37.327805625294616 M 840.8916433426629 39.126434875787425 L 840.8916433426629 42.70859756165464 M 858.6845261895241 20.436083452635643 L 858.6845261895241 21.72696124953754 M 858.6845261895241 30.848916875265246 L 858.6845261895241 43.95214626607486 M 876.4774090363853 15.16158090305143 L 876.4774090363853 22.348859337937142 M 876.4774090363853 22.49047540681363 L 876.4774090363853 25.768803879377003" style="stroke-width: 1px;"></path><path class="candle wick equal" style="stroke-width: 1px;"></path></g></g><g class="x axis" transform="translate(0,200)" fill="none" font-size="10" font-family="sans-serif" text-anchor="middle"><path class="domain" stroke="#000" d="M0.5,6V0.5H890.5V6"></path><g class="tick" opacity="1" transform="translate(40.21191523390643,0)"><line stroke="#000" y2="6" x1="0.5" x2="0.5"></line><text fill="#000" y="9" x="0.5" dy="0.71em">Jul 12</text></g><g class="tick" opacity="1" transform="translate(102.48700519792082,0)"><line stroke="#000" y2="6" x1="0.5" x2="0.5"></line><text fill="#000" y="9" x="0.5" dy="0.71em">Jul 19</text></g><g class="tick" opacity="1" transform="translate(164.7620951619352,0)"><line stroke="#000" y2="6" x1="0.5" x2="0.5"></line><text fill="#000" y="9" x="0.5" dy="0.71em">Jul 26</text></g><g class="tick" opacity="1" transform="translate(227.0371851259496,0)"><line stroke="#000" y2="6" x1="0.5" x2="0.5"></line><text fill="#000" y="9" x="0.5" dy="0.71em">Aug  2</text></g><g class="tick" opacity="1" transform="translate(289.31227508996403,0)"><line stroke="#000" y2="6" x1="0.5" x2="0.5"></line><text fill="#000" y="9" x="0.5" dy="0.71em">Aug  9</text></g><g class="tick" opacity="1" transform="translate(351.5873650539784,0)"><line stroke="#000" y2="6" x1="0.5" x2="0.5"></line><text fill="#000" y="9" x="0.5" dy="0.71em">Aug 16</text></g><g class="tick" opacity="1" transform="translate(413.86245501799283,0)"><line stroke="#000" y2="6" x1="0.5" x2="0.5"></line><text fill="#000" y="9" x="0.5" dy="0.71em">Aug 23</text></g><g class="tick" opacity="1" transform="translate(476.13754498200717,0)"><line stroke="#000" y2="6" x1="0.5" x2="0.5"></line><text fill="#000" y="9" x="0.5" dy="0.71em">Aug 30</text></g><g class="tick" opacity="1" transform="translate(538.4126349460215,0)"><line stroke="#000" y2="6" x1="0.5" x2="0.5"></line><text fill="#000" y="9" x="0.5" dy="0.71em">Sep  6</text></g><g class="tick" opacity="1" transform="translate(600.687724910036,0)"><line stroke="#000" y2="6" x1="0.5" x2="0.5"></line><text fill="#000" y="9" x="0.5" dy="0.71em">Sep 13</text></g><g class="tick" opacity="1" transform="translate(662.9628148740503,0)"><line stroke="#000" y2="6" x1="0.5" x2="0.5"></line><text fill="#000" y="9" x="0.5" dy="0.71em">Sep 20</text></g><g class="tick" opacity="1" transform="translate(725.2379048380647,0)"><line stroke="#000" y2="6" x1="0.5" x2="0.5"></line><text fill="#000" y="9" x="0.5" dy="0.71em">Sep 27</text></g><g class="tick" opacity="1" transform="translate(787.512994802079,0)"><line stroke="#000" y2="6" x1="0.5" x2="0.5"></line><text fill="#000" y="9" x="0.5" dy="0.71em">Oct  4</text></g><g class="tick" opacity="1" transform="translate(849.7880847660936,0)"><line stroke="#000" y2="6" x1="0.5" x2="0.5"></line><text fill="#000" y="9" x="0.5" dy="0.71em">Oct 11</text></g></g><g class="y axis" fill="none" font-size="10" font-family="sans-serif" text-anchor="end"><path class="domain" stroke="#000" d="M-6,200.5H0.5V0.5H-6"></path><g class="tick" opacity="1" transform="translate(0,191.6869697130929)"><line stroke="#000" x2="-6" y1="0.5" y2="0.5"></line><text fill="#000" x="-9" y="0.5" dy="0.32em">30,000</text></g><g class="tick" opacity="1" transform="translate(0,160.75292233945538)"><line stroke="#000" x2="-6" y1="0.5" y2="0.5"></line><text fill="#000" x="-9" y="0.5" dy="0.32em">35,000</text></g><g class="tick" opacity="1" transform="translate(0,129.81887496581788)"><line stroke="#000" x2="-6" y1="0.5" y2="0.5"></line><text fill="#000" x="-9" y="0.5" dy="0.32em">40,000</text></g><g class="tick" opacity="1" transform="translate(0,98.88482759218036)"><line stroke="#000" x2="-6" y1="0.5" y2="0.5"></line><text fill="#000" x="-9" y="0.5" dy="0.32em">45,000</text></g><g class="tick" opacity="1" transform="translate(0,67.95078021854286)"><line stroke="#000" x2="-6" y1="0.5" y2="0.5"></line><text fill="#000" x="-9" y="0.5" dy="0.32em">50,000</text></g><g class="tick" opacity="1" transform="translate(0,37.016732844905334)"><line stroke="#000" x2="-6" y1="0.5" y2="0.5"></line><text fill="#000" x="-9" y="0.5" dy="0.32em">55,000</text></g><g class="tick" opacity="1" transform="translate(0,6.082685471267837)"><line stroke="#000" x2="-6" y1="0.5" y2="0.5"></line><text fill="#000" x="-9" y="0.5" dy="0.32em">60,000</text></g><text transform="rotate(-90)" y="6" dy=".71em" style="text-anchor: end;">Price ($)</text></g></g></svg>