<?xml version="1.0" encoding="utf-8"?>
<!DOCTYPE svg PUBLIC "-//W3C//DTD SVG 1.1//EN" "http://www.w3.org/Graphics/SVG/1.1/DTD/svg11.dtd">
<svg version="1.1" xmlns="http://www.w3.org/2000/svg" width="960" height="250"><g transform="translate(50,20)"><style>.axis path,.axis line{fill:none;stroke:#000;shape-rendering:crispEdges;}path.candle{stroke:#000000;}path.candle.body{stroke-width:0;}path.candle.up{fill:#00AA00;stroke:#00AA00;}path.candle.down{fill:#FF0000;stroke:#FF0000;}</style><g class="candlestick"><g class="data"><path class="candle body up" d="M 1.0675729708116766 60.26847224736915 l 7.1171531387445 0 L 8.184726109556177 48.74344027978876 l -7.1171531387445 0 L 1.0675729708116766 60.26847224736915 M 9.964014394242305 48.74338698361095 l 7.1171531387445 0 L 17.081167532986804 39.80130097675482 l -7.1171531387445 0 L 9.964014394242305 48.74338698361095 M 45.54978008796481 46.95679251152035 l 7.1171531387445 0 L 52.66693322670931 34.65139790864521 l -7.1171531387445 0 L 45.54978008796481 46.95679251152035 M 81.13554578168731 46.80191381884404 l 7.1171531387445 0 L 88.25269892043181 43.97492465999014 l -7.1171531387445 0 L 81.13554578168731 46.80191381884404 M 90.03198720511796 43.974871363812326 l 7.1171531387445 0 L 97.14914034386246 34.365730395656584 l -7.1171531387445 0 L 90.03198720511796 43.974871363812326 M 98.92842862854857 34.365783691834366 l 7.1171531387445 0 L 106.04558176729307 11.702916488364309 l -7.1171531387445 0 L 98.92842862854857 34.365783691834366 M 143.4106357457017 29.8428568593215 l 7.1171531387445 0 L 150.5277888844462 28.468987988086155 l -7.1171531387445 0 L 143.4106357457017 29.8428568593215 M 152.30707716913233 28.468934691908345 l 7.1171531387445 0 L 159.42423030787683 22.398020375299353 l -7.1171531387445 0 L 152.30707716913233 28.468934691908345 M 178.9964014394242 51.49895926421772 l 7.1171531387445 0 L 186.1135545781687 49.97468857924093 l -7.1171531387445 0 L 178.9964014394242 51.49895926421772 M 196.78928428628546 68.37919117677939 l 7.1171531387445 0 L 203.90643742502996 62.1935301893748 l -7.1171531387445 0 L 196.78928428628546 68.37919117677939 M 205.68572570971608 62.167628246965734 l 7.1171531387445 0 L 212.80287884846058 53.371573767271684 l -7.1171531387445 0 L 205.68572570971608 62.167628246965734 M 232.37504998000796 71.83166427825176 l 7.1171531387445 0 L 239.49220311875246 64.91680498623694 l -7.1171531387445 0 L 232.37504998000796 71.83166427825176 M 250.16793282686922 67.06453435907585 l 7.1171531387445 0 L 257.28508596561375 57.353597691328986 l -7.1171531387445 0 L 250.16793282686922 67.06453435907585 M 267.9608156737305 85.26288734089786 l 7.1171531387445 0 L 275.07796881247504 79.94760623308608 l -7.1171531387445 0 L 267.9608156737305 85.26288734089786 M 276.85725709716115 79.97190929016122 l 7.1171531387445 0 L 283.9744102359057 66.33656186655497 l -7.1171531387445 0 L 276.85725709716115 79.97190929016122 M 285.7536985205918 66.33650857037716 l 7.1171531387445 0 L 292.8708516593363 63.664451400377345 l -7.1171531387445 0 L 285.7536985205918 66.33650857037716 M 303.54658136745303 68.0650635048475 l 7.1171531387445 0 L 310.66373450619756 66.82054445712399 l -7.1171531387445 0 L 303.54658136745303 68.0650635048475 M 339.13234706117555 109.62595591225055 l 7.1171531387445 0 L 346.2495001999201 108.32622202432997 l -7.1171531387445 0 L 339.13234706117555 109.62595591225055 M 348.02878848460614 108.32627532050778 l 7.1171531387445 0 L 355.14594162335067 102.75362697011722 l -7.1171531387445 0 L 348.02878848460614 108.32627532050778 M 356.9252299080368 102.75368026629499 l 7.1171531387445 0 L 364.0423830467813 101.9700132679769 l -7.1171531387445 0 L 356.9252299080368 102.75368026629499 M 392.5109956017593 120.34872051546188 l 7.1171531387445 0 L 399.62814874050383 108.36001180105289 l -7.1171531387445 0 L 392.5109956017593 120.34872051546188 M 401.40743702518995 108.36001180105289 l 7.1171531387445 0 L 408.5245901639345 104.82162526097274 l -7.1171531387445 0 L 401.40743702518995 108.36001180105289 M 419.20031987205124 122.68192058703224 l 7.1171531387445 0 L 426.31747301079577 113.93857602717885 l -7.1171531387445 0 L 419.20031987205124 122.68192058703224 M 428.0967612954818 113.97231250772397 l 7.1171531387445 0 L 435.21391443422635 111.15811443154115 l -7.1171531387445 0 L 428.0967612954818 113.97231250772397 M 454.7860855657737 125.71410003040228 l 7.1171531387445 0 L 461.90323870451823 121.97990333309818 l -7.1171531387445 0 L 454.7860855657737 125.71410003040228 M 472.57896841263494 122.7966139616501 l 7.1171531387445 0 L 479.69612155137946 121.55523938841655 l -7.1171531387445 0 L 472.57896841263494 122.7966139616501 M 481.47540983606564 121.55518609223877 l 7.1171531387445 0 L 488.59256297481016 111.02540694882818 l -7.1171531387445 0 L 481.47540983606564 121.55518609223877 M 499.2682926829268 112.63340592912306 l 7.1171531387445 0 L 506.38544582167134 100.63835496955629 l -7.1171531387445 0 L 499.2682926829268 112.63340592912306 M 525.9576169532187 102.97880332130697 l 7.1171531387445 0 L 533.0747700919632 100.97582636736303 l -7.1171531387445 0 L 525.9576169532187 102.97880332130697 M 561.5433826469413 123.95090258036429 l 7.1171531387445 0 L 568.6605357856857 120.45355409718736 l -7.1171531387445 0 L 561.5433826469413 123.95090258036429 M 579.3362654938024 125.27120879291428 l 7.1171531387445 0 L 586.4534186325469 117.24629670975621 l -7.1171531387445 0 L 579.3362654938024 125.27120879291428 M 641.6113554578168 150.05632979623655 l 7.1171531387445 0 L 648.7285085965613 149.45269728651465 l -7.1171531387445 0 L 641.6113554578168 150.05632979623655 M 650.5077968812475 149.45269728651465 l 7.1171531387445 0 L 657.624950019992 148.46735755141498 l -7.1171531387445 0 L 650.5077968812475 149.45269728651465 M 668.3006797281087 148.69189434847118 l 7.1171531387445 0 L 675.4178328668531 143.85899694589452 l -7.1171531387445 0 L 668.3006797281087 148.69189434847118 M 677.1971211515394 143.85899694589452 l 7.1171531387445 0 L 684.3142742902838 137.60538333179946 l -7.1171531387445 0 L 677.1971211515394 143.85899694589452 M 694.9900039984005 144.77004180914602 l 7.1171531387445 0 L 702.107157137145 142.09665223470128 l -7.1171531387445 0 L 694.9900039984005 144.77004180914602 M 703.8864454218311 142.09665223470128 l 7.1171531387445 0 L 711.0035985605756 141.96698263412267 l -7.1171531387445 0 L 703.8864454218311 142.09665223470128 M 730.5757696921231 146.67122306349887 l 7.1171531387445 0 L 737.6929228308676 145.86916888384096 l -7.1171531387445 0 L 730.5757696921231 146.67122306349887 M 775.0579768092763 184.6725170520588 l 7.1171531387445 0 L 782.1751299480208 178.42018254623085 l -7.1171531387445 0 L 775.0579768092763 184.6725170520588 M 783.9544182327068 178.42018254623085 l 7.1171531387445 0 L 791.0715713714512 176.20412747345696 l -7.1171531387445 0 L 783.9544182327068 178.42018254623085 M 792.8508596561375 176.20412747345696 l 7.1171531387445 0 L 799.9680127948819 174.6160612636579 l -7.1171531387445 0 L 792.8508596561375 176.20412747345696 M 810.6437425029987 175.4212599178058 l 7.1171531387445 0 L 817.7608956417432 173.54065098808238 l -7.1171531387445 0 L 810.6437425029987 175.4212599178058 M 819.5401839264293 173.54059769190457 l 7.1171531387445 0 L 826.6573370651738 170.57493187842445 l -7.1171531387445 0 L 819.5401839264293 173.54059769190457 M 828.43662534986 170.57487858224664 l 7.1171531387445 0 L 835.5537784886045 168.1751115846086 l -7.1171531387445 0 L 828.43662534986 170.57487858224664 M 846.2295081967213 169.69453231740587 l 7.1171531387445 0 L 853.3466613354658 166.5759064736501 l -7.1171531387445 0 L 846.2295081967213 169.69453231740587 M 855.1259496201519 166.5759064736501 l 7.1171531387445 0 L 862.2431027588964 165.3624058014041 l -7.1171531387445 0 L 855.1259496201519 166.5759064736501 M 872.9188324670131 174.94623108510655 l 7.1171531387445 0 L 880.0359856057576 172.73316059828926 l -7.1171531387445 0 L 872.9188324670131 174.94623108510655 M 881.8152738904437 172.73118863971078 l 7.1171531387445 0 L 888.9324270291881 169.5031990391168 l -7.1171531387445 0 L 881.8152738904437 172.73118863971078"></path><path class="candle body down" d="M 18.860455817672932 39.80135427293263 l 7.1171531387445 0 L 25.977608956417434 41.90394178317797 l -7.1171531387445 0 L 18.860455817672932 39.80135427293263 M 27.75689724110356 41.90394178317797 l 7.1171531387445 0 L 34.87405037984806 44.885276672930246 l -7.1171531387445 0 L 27.75689724110356 41.90394178317797 M 36.65333866453418 44.88522337675249 l 7.1171531387445 0 L 43.77049180327868 46.95684580769816 l -7.1171531387445 0 L 36.65333866453418 44.88522337675249 M 54.446221511395436 34.64830673033305 l 7.1171531387445 0 L 61.563374650139934 36.375582556536216 l -7.1171531387445 0 L 54.446221511395436 34.64830673033305 M 63.342662934826066 36.37552926035846 l 7.1171531387445 0 L 70.45981607357056 44.37784376413083 l -7.1171531387445 0 L 63.342662934826066 36.37552926035846 M 72.23910435825668 44.37784376413083 l 7.1171531387445 0 L 79.35625749700118 46.81822244924973 l -7.1171531387445 0 L 72.23910435825668 44.37784376413083 M 107.82487005197919 11.702969784542091 l 7.1171531387445 0 L 114.94202319072369 14.784341600018195 l -7.1171531387445 0 L 107.82487005197919 11.702969784542091 M 116.72131147540982 14.784288303840412 l 7.1171531387445 0 L 123.83846461415432 25.791228127062112 l -7.1171531387445 0 L 116.72131147540982 14.784288303840412 M 125.61775289884046 25.791281423239923 l 7.1171531387445 0 L 132.73490603758498 26.36773288228568 l -7.1171531387445 0 L 125.61775289884046 25.791281423239923 M 134.51419432227107 26.36778617846346 l 7.1171531387445 0 L 141.63134746101557 29.84280356314369 l -7.1171531387445 0 L 134.51419432227107 26.36778617846346 M 161.20351859256294 22.397967079121514 l 7.1171531387445 0 L 168.32067173130744 32.59016823236985 l -7.1171531387445 0 L 161.20351859256294 22.397967079121514 M 170.09996001599356 32.5902215285476 l 7.1171531387445 0 L 177.21711315473806 51.49895926421772 l -7.1171531387445 0 L 170.09996001599356 32.5902215285476 M 187.89284286285485 49.974741875418744 l 7.1171531387445 0 L 195.00999600159935 68.37919117677939 l -7.1171531387445 0 L 187.89284286285485 49.974741875418744 M 214.5821671331467 53.3715204710939 l 7.1171531387445 0 L 221.6993202718912 59.15682057089208 l -7.1171531387445 0 L 214.5821671331467 53.3715204710939 M 223.47860855657734 59.17984451970011 l 7.1171531387445 0 L 230.59576169532184 71.81381005869 l -7.1171531387445 0 L 223.47860855657734 59.17984451970011 M 241.2714914034386 64.91685828241472 l 7.1171531387445 0 L 248.3886445421831 67.06453435907585 l -7.1171531387445 0 L 241.2714914034386 64.91685828241472 M 259.06437425029986 57.353544395151175 l 7.1171531387445 0 L 266.1815273890444 85.24791111493708 l -7.1171531387445 0 L 259.06437425029986 57.353544395151175 M 294.65013994402244 63.664451400377345 l 7.1171531387445 0 L 301.76729308276697 68.0650635048475 l -7.1171531387445 0 L 294.65013994402244 63.664451400377345 M 312.4430227908837 66.82054445712399 l 7.1171531387445 0 L 319.5601759296282 70.57115637718937 l -7.1171531387445 0 L 312.4430227908837 66.82054445712399 M 321.3394642143143 70.55026427549316 l 7.1171531387445 0 L 328.45661735305885 85.91667155392616 l -7.1171531387445 0 L 321.3394642143143 70.55026427549316 M 330.23590563774496 85.91667155392616 l 7.1171531387445 0 L 337.3530587764895 109.62590261607274 l -7.1171531387445 0 L 330.23590563774496 85.91667155392616 M 365.8216713314674 101.9700132679769 l 7.1171531387445 0 L 372.93882447021196 102.59762905770717 l -7.1171531387445 0 L 365.8216713314674 101.9700132679769 M 374.7181127548981 102.59762905770717 l 7.1171531387445 0 L 381.8352658936426 118.18995883381912 l -7.1171531387445 0 L 374.7181127548981 102.59762905770717 M 383.61455417832866 118.24160283010379 l 7.1171531387445 0 L 390.7317073170732 120.34872051546188 l -7.1171531387445 0 L 383.61455417832866 118.24160283010379 M 410.3038784486206 104.82162526097274 l 7.1171531387445 0 L 417.4210315873651 122.68197388321005 l -7.1171531387445 0 L 410.3038784486206 104.82162526097274 M 436.99320271891247 111.15811443154115 l 7.1171531387445 0 L 444.110355857657 117.72740130672425 l -7.1171531387445 0 L 436.99320271891247 111.15811443154115 M 445.8896441423431 117.72740130672425 l 7.1171531387445 0 L 453.00679728108764 125.72811692516275 l -7.1171531387445 0 L 445.8896441423431 117.72740130672425 M 463.68252698920435 121.97995662927599 l 7.1171531387445 0 L 470.7996801279489 122.79666725782786 l -7.1171531387445 0 L 463.68252698920435 121.97995662927599 M 490.3718512594962 111.03761177354356 l 7.1171531387445 0 L 497.48900439824075 112.63345922530083 l -7.1171531387445 0 L 490.3718512594962 111.03761177354356 M 508.16473410635746 100.63830167337848 l 7.1171531387445 0 L 515.281887245102 100.73860507999129 l -7.1171531387445 0 L 508.16473410635746 100.63830167337848 M 517.0611755297881 100.7386583761691 l 7.1171531387445 0 L 524.1783286685326 102.97885661748474 l -7.1171531387445 0 L 517.0611755297881 100.7386583761691 M 534.8540583766493 100.97587966354081 l 7.1171531387445 0 L 541.9712115153937 101.37048456394527 l -7.1171531387445 0 L 534.8540583766493 100.97587966354081 M 543.75049980008 101.37048456394527 l 7.1171531387445 0 L 550.8676529388244 118.19981862671143 l -7.1171531387445 0 L 543.75049980008 101.37048456394527 M 552.6469412235106 118.19981862671143 l 7.1171531387445 0 L 559.764094362255 123.95090258036429 l -7.1171531387445 0 L 552.6469412235106 118.19981862671143 M 570.4398240703717 120.45350080100961 l 7.1171531387445 0 L 577.5569772091162 125.27120879291428 l -7.1171531387445 0 L 570.4398240703717 120.45350080100961 M 588.232706917233 117.2462434135784 l 7.1171531387445 0 L 595.3498600559775 119.57251498203524 l -7.1171531387445 0 L 588.232706917233 117.2462434135784 M 597.1291483406637 119.57251498203524 l 7.1171531387445 0 L 604.2463014794082 124.04982028635442 l -7.1171531387445 0 L 597.1291483406637 119.57251498203524 M 606.0255897640943 124.04982028635442 l 7.1171531387445 0 L 613.1427429028388 127.32268526865292 l -7.1171531387445 0 L 606.0255897640943 124.04982028635442 M 614.9220311875249 127.32268526865292 l 7.1171531387445 0 L 622.0391843262694 140.0118656478399 l -7.1171531387445 0 L 614.9220311875249 127.32268526865292 M 623.8184726109555 140.0118123516621 l 7.1171531387445 0 L 630.9356257497 141.97753527732635 l -7.1171531387445 0 L 623.8184726109555 140.0118123516621 M 632.7149140343862 141.97758857350414 l 7.1171531387445 0 L 639.8320671731307 150.05632979623655 l -7.1171531387445 0 L 632.7149140343862 141.97758857350414 M 659.4042383046781 148.46735755141498 l 7.1171531387445 0 L 666.5213914434225 148.69189434847118 l -7.1171531387445 0 L 659.4042383046781 148.46735755141498 M 686.09356257497 137.60543662797727 l 7.1171531387445 0 L 693.2107157137144 144.76066168185383 l -7.1171531387445 0 L 686.09356257497 137.60543662797727 M 712.7828868452618 141.96698263412267 l 7.1171531387445 0 L 719.9000399840063 142.0342957066795 l -7.1171531387445 0 L 712.7828868452618 141.96698263412267 M 721.6793282686924 142.0342957066795 l 7.1171531387445 0 L 728.7964814074369 146.67127635967663 l -7.1171531387445 0 L 721.6793282686924 142.0342957066795 M 739.4722111155537 145.86916888384096 l 7.1171531387445 0 L 746.5893642542982 149.55785064530693 l -7.1171531387445 0 L 739.4722111155537 145.86916888384096 M 748.3686525389844 149.5579039414847 l 7.1171531387445 0 L 755.4858056777289 154.77607941335148 l -7.1171531387445 0 L 748.3686525389844 149.5579039414847 M 757.265093962415 154.7760261171737 l 7.1171531387445 0 L 764.3822471011595 177.35020848079054 l -7.1171531387445 0 L 757.265093962415 154.7760261171737 M 766.1615353858456 177.35020848079054 l 7.1171531387445 0 L 773.27868852459 184.6725170520588 l -7.1171531387445 0 L 766.1615353858456 177.35020848079054 M 801.747301079568 174.6160612636579 l 7.1171531387445 0 L 808.8644542183125 175.41006772046856 l -7.1171531387445 0 L 801.747301079568 174.6160612636579 M 837.3330667732906 168.17516488078635 l 7.1171531387445 0 L 844.4502199120351 169.69447902122806 l -7.1171531387445 0 L 837.3330667732906 168.17516488078635 M 864.0223910435824 165.3624058014041 l 7.1171531387445 0 L 871.1395441823269 174.94628438128436 l -7.1171531387445 0 L 864.0223910435824 165.3624058014041"></path><path class="candle body equal"></path><path class="candle wick up" d="M 4.626149540183927 38.49399903158715 L 4.626149540183927 48.74344027978876 M 4.626149540183927 60.26847224736915 L 4.626149540183927 63.43128062251813 M 13.522590963614554 35.9304528795808 L 13.522590963614554 39.80130097675482 M 13.522590963614554 48.74338698361095 L 13.522590963614554 50.881043378846385 M 49.10835665733706 29.055245943846444 L 49.10835665733706 34.65139790864521 M 49.10835665733706 46.95679251152035 L 49.10835665733706 48.483408228320144 M 84.69412235105956 43.49589861395617 L 84.69412235105956 43.97492465999014 M 84.69412235105956 46.80191381884404 L 84.69412235105956 51.54623297392311 M 93.5905637744902 34.29772447278839 L 93.5905637744902 34.365730395656584 M 93.5905637744902 43.974871363812326 L 93.5905637744902 44.76280205635416 M 102.48700519792082 10.300320977296707 L 102.48700519792082 11.702916488364309 M 102.48700519792082 34.365783691834366 L 102.48700519792082 34.365783691834366 M 146.96921231507397 25.164624964709958 L 146.96921231507397 28.468987988086155 M 146.96921231507397 29.8428568593215 L 146.96921231507397 33.90402560740645 M 155.8656537385046 22.230617080840887 L 155.8656537385046 22.398020375299353 M 155.8656537385046 28.468934691908345 L 155.8656537385046 32.752561686115456 M 182.55497800879647 47.334609115918965 L 182.55497800879647 49.97468857924093 M 182.55497800879647 51.49895926421772 L 182.55497800879647 60.48400199037775 M 200.34786085565773 60.76647173269862 L 200.34786085565773 62.1935301893748 M 200.34786085565773 68.37919117677939 L 200.34786085565773 75.26303209331677 M 209.24430227908834 52.638804618749134 L 209.24430227908834 53.371573767271684 M 209.24430227908834 62.167628246965734 L 209.24430227908834 65.92021212560957 M 235.93362654938022 62.41870654056453 L 235.93362654938022 64.91680498623694 M 235.93362654938022 71.83166427825176 L 235.93362654938022 76.7713139249546 M 253.72650939624148 55.01634711024607 L 253.72650939624148 57.353597691328986 M 253.72650939624148 67.06453435907585 L 253.72650939624148 67.80156720182214 M 271.51939224310274 76.96850978280125 L 271.51939224310274 79.94760623308608 M 271.51939224310274 85.26288734089786 L 271.51939224310274 85.86897147479841 M 280.4158336665334 65.42962080899377 L 280.4158336665334 66.33656186655497 M 280.4158336665334 79.97190929016122 L 280.4158336665334 87.75224521341167 M 289.31227508996403 57.8566603135491 L 289.31227508996403 63.664451400377345 M 289.31227508996403 66.33650857037716 L 289.31227508996403 69.57808869630921 M 307.10515793682526 56.85693061044441 L 307.10515793682526 66.82054445712399 M 307.10515793682526 68.0650635048475 L 307.10515793682526 70.69016674220867 M 342.6909236305478 106.71284013007764 L 342.6909236305478 108.32622202432997 M 342.6909236305478 109.62595591225055 L 342.6909236305478 117.22199365268106 M 351.5873650539784 100.35961595968116 L 351.5873650539784 102.75362697011722 M 351.5873650539784 108.32627532050778 L 351.5873650539784 120.56478322024844 M 360.483806477409 94.78899286404685 L 360.483806477409 101.9700132679769 M 360.483806477409 102.75368026629499 L 360.483806477409 104.89709264873244 M 396.06957217113154 107.84986078718585 L 396.06957217113154 108.36001180105289 M 396.06957217113154 120.34872051546188 L 396.06957217113154 122.42481982534247 M 404.9660135945622 100.96777864451577 L 404.9660135945622 104.82162526097274 M 404.9660135945622 108.36001180105289 L 404.9660135945622 112.36783107516364 M 422.7588964414235 112.03520962953635 L 422.7588964414235 113.93857602717885 M 422.7588964414235 122.68192058703224 L 422.7588964414235 124.88177362175605 M 431.65533786485406 107.77370054911479 L 431.65533786485406 111.15811443154115 M 431.65533786485406 113.97231250772397 L 431.65533786485406 123.51206185238883 M 458.34466213514594 119.00656287001537 L 458.34466213514594 121.97990333309818 M 458.34466213514594 125.71410003040228 L 458.34466213514594 129.09217166767087 M 476.13754498200717 118.23270236841181 L 476.13754498200717 121.55523938841655 M 476.13754498200717 122.7966139616501 L 476.13754498200717 128.77852366133914 M 485.0339864054379 108.68527837414426 L 485.0339864054379 111.02540694882818 M 485.0339864054379 121.55518609223877 L 485.0339864054379 123.06970357667879 M 502.82686925229905 97.78066721229163 L 502.82686925229905 100.63835496955629 M 502.82686925229905 112.63340592912306 L 502.82686925229905 116.19225820147702 M 529.5161935225909 98.28698090135734 L 529.5161935225909 100.97582636736303 M 529.5161935225909 102.97880332130697 L 529.5161935225909 108.24270691372303 M 565.1019592163135 116.30108899653723 L 565.1019592163135 120.45355409718736 M 565.1019592163135 123.95090258036429 L 565.1019592163135 126.96032455581528 M 582.8948420631747 116.00993197723557 L 582.8948420631747 117.24629670975621 M 582.8948420631747 125.27120879291428 L 582.8948420631747 125.31683032110797 M 645.169932027189 146.14694856251575 L 645.169932027189 149.45269728651465 M 645.169932027189 150.05632979623655 L 645.169932027189 155.73493094808634 M 654.0663734506197 143.55302358916543 L 654.0663734506197 148.46735755141498 M 654.0663734506197 149.45269728651465 L 654.0663734506197 152.0094215277631 M 671.8592562974809 141.88325433880453 L 671.8592562974809 143.85899694589452 M 671.8592562974809 148.69189434847118 L 671.8592562974809 151.64215756656816 M 680.7556977209116 135.37046141208566 L 680.7556977209116 137.60538333179946 M 680.7556977209116 143.85899694589452 L 680.7556977209116 145.3475058955699 M 698.5485805677728 140.02439024962206 L 698.5485805677728 142.09665223470128 M 698.5485805677728 144.77004180914602 L 698.5485805677728 149.20641564891753 M 707.4450219912034 138.1525218930572 L 707.4450219912034 141.96698263412267 M 707.4450219912034 142.09665223470128 L 707.4450219912034 144.7878960287078 M 734.1343462614954 144.0630680106769 L 734.1343462614954 145.86916888384096 M 734.1343462614954 146.67122306349887 L 734.1343462614954 151.74304723113673 M 778.6165533786485 177.0640613022017 L 778.6165533786485 178.42018254623085 M 778.6165533786485 184.6725170520588 L 778.6165533786485 187.17962255177878 M 787.512994802079 171.4626330158011 L 787.512994802079 176.20412747345696 M 787.512994802079 178.42018254623085 L 787.512994802079 196.15384615384616 M 796.4094362255097 171.48853495821015 L 796.4094362255097 174.6160612636579 M 796.4094362255097 176.20412747345696 L 796.4094362255097 181.31709629035365 M 814.202319072371 173.1442873138106 L 814.202319072371 173.54065098808238 M 814.202319072371 175.4212599178058 L 814.202319072371 182.35098884342582 M 823.0987604958016 169.06430501496354 L 823.0987604958016 170.57493187842445 M 823.0987604958016 173.54059769190457 L 823.0987604958016 178.89739652221974 M 831.9952019192323 165.22303629646655 L 831.9952019192323 168.1751115846086 M 831.9952019192323 170.57487858224664 L 831.9952019192323 172.96324019783626 M 849.7880847660936 165.0990693869121 L 849.7880847660936 166.5759064736501 M 849.7880847660936 169.69453231740587 L 849.7880847660936 176.35197107066415 M 858.6845261895241 162.32127260016426 L 858.6845261895241 165.3624058014041 M 858.6845261895241 166.5759064736501 L 858.6845261895241 169.06430501496354 M 876.4774090363853 172.33136071388228 L 876.4774090363853 172.73316059828926 M 876.4774090363853 174.94623108510655 L 876.4774090363853 178.39113612933184 M 885.3738504598159 167.8811298678837 L 885.3738504598159 169.5031990391168 M 885.3738504598159 172.73118863971078 L 885.3738504598159 174.2514621113528" style="stroke-width: 1px;"></path><path class="candle wick down" d="M 22.41903238704518 39.23881311629171 L 22.41903238704518 39.80135427293263 M 22.41903238704518 41.90394178317797 L 22.41903238704518 48.225881097208 M 31.315473810475808 38.9933842175393 L 31.315473810475808 41.90394178317797 M 31.315473810475808 44.885276672930246 L 31.315473810475808 52.103924178384545 M 40.21191523390643 38.82049141676785 L 40.21191523390643 44.88522337675249 M 40.21191523390643 46.95684580769816 L 40.21191523390643 54.98383644179029 M 58.004798080767685 33.15905163416849 L 58.004798080767685 34.64830673033305 M 58.004798080767685 36.375582556536216 L 58.004798080767685 49.77274936157045 M 66.90123950419832 35.363861213427384 L 66.90123950419832 36.37552926035846 M 66.90123950419832 44.37784376413083 L 66.90123950419832 48.204509329911644 M 75.79768092762893 37.97851839994047 L 75.79768092762893 44.37784376413083 M 75.79768092762893 46.81822244924973 L 75.79768092762893 47.970059443785345 M 111.38344662135144 6.381719504817113 L 111.38344662135144 11.702969784542091 M 111.38344662135144 14.784341600018195 L 111.38344662135144 18.64970019087923 M 120.27988804478207 3.846153846153868 L 120.27988804478207 14.784288303840412 M 120.27988804478207 25.791228127062112 L 120.27988804478207 36.76773583276207 M 129.1763294682127 21.96648122368191 L 129.1763294682127 25.791281423239923 M 129.1763294682127 26.36773288228568 L 129.1763294682127 29.96128096638509 M 138.07277089164333 22.76256623142666 L 138.07277089164333 26.36778617846346 M 138.07277089164333 29.84280356314369 L 138.07277089164333 39.671844560887365 M 164.7620951619352 17.693460168856348 L 164.7620951619352 22.397967079121514 M 164.7620951619352 32.59016823236985 L 164.7620951619352 33.69201341213238 M 173.65853658536582 32.53383417243904 L 173.65853658536582 32.5902215285476 M 173.65853658536582 51.49895926421772 L 173.65853658536582 59.41237574342574 M 191.4514194322271 46.61100690997739 L 191.4514194322271 49.974741875418744 M 191.4514194322271 68.37919117677939 L 191.4514194322271 70.60356045328956 M 218.14074370251896 51.65410443778299 L 218.14074370251896 53.3715204710939 M 218.14074370251896 59.15682057089208 L 218.14074370251896 59.87829092972177 M 227.0371851259496 54.77598134838436 L 227.0371851259496 59.17984451970011 M 227.0371851259496 71.81381005869 L 227.0371851259496 75.20973591552038 M 244.83006797281087 63.88429813378747 L 244.83006797281087 64.91685828241472 M 244.83006797281087 67.06453435907585 L 244.83006797281087 73.99991267954232 M 262.6229508196721 56.34288897559824 L 262.6229508196721 57.353544395151175 M 262.6229508196721 85.24791111493708 L 262.6229508196721 86.4552294305587 M 298.2087165133947 56.1990425917258 L 298.2087165133947 63.664451400377345 M 298.2087165133947 68.0650635048475 L 298.2087165133947 73.79445591413723 M 316.0015993602559 65.80045561410105 L 316.0015993602559 66.82054445712399 M 316.0015993602559 70.57115637718937 L 316.0015993602559 74.31558594063034 M 324.89804078368655 64.60379653403871 L 324.89804078368655 70.55026427549316 M 324.89804078368655 85.91667155392616 L 324.89804078368655 96.15513378950173 M 333.7944822071172 84.54136368589033 L 333.7944822071172 85.91667155392616 M 333.7944822071172 109.62590261607274 L 333.7944822071172 147.74423501107356 M 369.38024790083966 98.71335032372845 L 369.38024790083966 101.9700132679769 M 369.38024790083966 102.59762905770717 L 369.38024790083966 112.57035655078992 M 378.2766893242703 100.85713577941044 L 378.2766893242703 102.59762905770717 M 378.2766893242703 118.18995883381912 L 378.2766893242703 119.39226730872787 M 387.1731307477009 104.44268943684041 L 387.1731307477009 118.24160283010379 M 387.1731307477009 120.34872051546188 L 387.1731307477009 121.88652842959893 M 413.86245501799283 104.09642416969726 L 413.86245501799283 104.82162526097274 M 413.86245501799283 122.68197388321005 L 413.86245501799283 128.17148019623824 M 440.5517792882847 108.11250435136644 L 440.5517792882847 111.15811443154115 M 440.5517792882847 117.72740130672425 L 440.5517792882847 118.37431031281682 M 449.44822071171535 115.78965887440307 L 449.44822071171535 117.72740130672425 M 449.44822071171535 125.72811692516275 L 449.44822071171535 129.326674849975 M 467.2411035585766 114.16918858850381 L 467.2411035585766 121.97995662927599 M 467.2411035585766 122.79666725782786 L 467.2411035585766 124.25868800713845 M 493.93042782886846 107.36795674755089 L 493.93042782886846 111.03761177354356 M 493.93042782886846 112.63345922530083 L 493.93042782886846 113.519721365877 M 511.7233106757297 95.46228347814865 L 511.7233106757297 100.63830167337848 M 511.7233106757297 100.73860507999129 L 511.7233106757297 103.06002669626866 M 520.6197520991603 98.94662769394324 L 520.6197520991603 100.7386583761691 M 520.6197520991603 102.97885661748474 L 520.6197520991603 104.35038045689706 M 538.4126349460215 93.980649735409 L 538.4126349460215 100.97587966354081 M 538.4126349460215 101.37048456394527 L 538.4126349460215 102.71589327623737 M 547.3090763694522 101.35657426154042 L 547.3090763694522 101.37048456394527 M 547.3090763694522 118.19981862671143 L 547.3090763694522 119.42952133700753 M 556.2055177928828 115.02688397778113 L 556.2055177928828 118.19981862671143 M 556.2055177928828 123.95090258036429 L 556.2055177928828 125.91044314940419 M 573.998400639744 112.84611097470842 L 573.998400639744 120.45350080100961 M 573.998400639744 125.27120879291428 L 573.998400639744 128.14349970289516 M 591.7912834866053 115.82142339636971 L 591.7912834866053 117.2462434135784 M 591.7912834866053 119.57251498203524 L 591.7912834866053 122.94179274996745 M 600.687724910036 118.05986286381811 L 600.687724910036 119.57251498203524 M 600.687724910036 124.04982028635442 L 600.687724910036 128.04756658286163 M 609.5841663334666 118.12626990135242 L 609.5841663334666 124.04982028635442 M 609.5841663334666 127.32268526865292 L 609.5841663334666 129.09217166767087 M 618.4806077568971 120.72467175363762 L 618.4806077568971 127.32268526865292 M 618.4806077568971 140.0118656478399 L 618.4806077568971 145.08102500658794 M 627.3770491803277 138.067248008583 L 627.3770491803277 140.0118123516621 M 627.3770491803277 141.97753527732635 L 627.3770491803277 145.45100707285047 M 636.2734906037584 141.63899795596367 L 636.2734906037584 141.97758857350414 M 636.2734906037584 150.05632979623655 L 636.2734906037584 155.1540026101057 M 662.9628148740503 146.42142387816716 L 662.9628148740503 148.46735755141498 M 662.9628148740503 148.69189434847118 L 662.9628148740503 160.27043567855915 M 689.6521391443422 134.4217894473099 L 689.6521391443422 137.60543662797727 M 689.6521391443422 144.76066168185383 L 689.6521391443422 146.0871502510282 M 716.3414634146341 139.8846476714399 L 716.3414634146341 141.96698263412267 M 716.3414634146341 142.0342957066795 L 716.3414634146341 144.64511556839128 M 725.2379048380647 141.47724405635165 L 725.2379048380647 142.0342957066795 M 725.2379048380647 146.67127635967663 L 725.2379048380647 150.19521963557398 M 743.0307876849259 144.7658847072779 L 743.0307876849259 145.86916888384096 M 743.0307876849259 149.55785064530693 L 743.0307876849259 152.33697983649972 M 751.9272291083566 139.72475913805073 L 751.9272291083566 149.5579039414847 M 751.9272291083566 154.77607941335148 L 751.9272291083566 155.45613864203347 M 760.8236705317872 152.54248989808258 L 760.8236705317872 154.7760261171737 M 760.8236705317872 177.35020848079054 L 760.8236705317872 182.70572820283863 M 769.7201119552178 175.27213721233147 L 769.7201119552178 177.35020848079054 M 769.7201119552178 184.6725170520588 L 769.7201119552178 190.34013919128253 M 805.3058776489403 164.16116325005123 L 805.3058776489403 174.6160612636579 M 805.3058776489403 175.41006772046856 L 805.3058776489403 178.4730523546049 M 840.8916433426629 167.1495865314504 L 840.8916433426629 168.17516488078635 M 840.8916433426629 169.69447902122806 L 840.8916433426629 172.5198692947481 M 867.5809676129546 164.50257856501491 L 867.5809676129546 165.3624058014041 M 867.5809676129546 174.94628438128436 L 867.5809676129546 176.59532141848248" style="stroke-width: 1px;"></path><path class="candle wick equal" style="stroke-width: 1px;"></path></g></g><g class="x axis" transform="translate(0,200)" fill="none" font-size="10" font-family="sans-serif" text-anchor="middle"><path class="domain" stroke="#000" d="M0.5,6V0.5H890.5V6"></path><g class="tick" opacity="1" transform="translate(40.21191523390643,0)"><line stroke="#000" y2="6" x1="0.5" x2="0.5"></line><text fill="#000" y="9" x="0.5" dy="0.71em">Nov  1</text></g><g class="tick" opacity="1" transform="translate(102.48700519792082,0)"><line stroke="#000" y2="6" x1="0.5" x2="0.5"></line><text fill="#000" y="9" x="0.5" dy="0.71em">Nov  8</text></g><g class="tick" opacity="1" transform="translate(164.7620951619352,0)"><line stroke="#000" y2="6" x1="0.5" x2="0.5"></line><text fill="#000" y="9" x="0.5" dy="0.71em">Nov 15</text></g><g class="tick" opacity="1" transform="translate(227.0371851259496,0)"><line stroke="#000" y2="6" x1="0.5" x2="0.5"></line><text fill="#000" y="9" x="0.5" dy="0.71em">Nov 22</text></g><g class="tick" opacity="1" transform="translate(289.31227508996403,0)"><line stroke="#000" y2="6" x1="0.5" x2="0.5"></line><text fill="#000" y="9" x="0.5" dy="0.71em">Nov 29</text></g><g class="tick" opacity="1" transform="translate(351.5873650539784,0)"><line stroke="#000" y2="6" x1="0.5" x2="0.5"></line><text fill="#000" y="9" x="0.5" dy="0.71em">Dec  6</text></g><g class="tick" opacity="1" transform="translate(413.86245501799283,0)"><line stroke="#000" y2="6" x1="0.5" x2="0.5"></line><text fill="#000" y="9" x="0.5" dy="0.71em">Dec 13</text></g><g class="tick" opacity="1" transform="translate(476.13754498200717,0)"><line stroke="#000" y2="6" x1="0.5" x2="0.5"></line><text fill="#000" y="9" x="0.5" dy="0.71em">Dec 20</text></g><g class="tick" opacity="1" transform="translate(538.4126349460215,0)"><line stroke="#000" y2="6" x1="0.5" x2="0.5"></line><text fill="#000" y="9" x="0.5" dy="0.71em">Dec 27</text></g><g class="tick" opacity="1" transform="translate(600.687724910036,0)"><line stroke="#000" y2="6" x1="0.5" x2="0.5"></line><text fill="#000" y="9" x="0.5" dy="0.71em">Jan  3</text></g><g class="tick" opacity="1" transform="translate(662.9628148740503,0)"><line stroke="#000" y2="6" x1="0.5" x2="0.5"></line><text fill="#000" y="9" x="0.5" dy="0.71em">Jan 10</text></g><g class="tick" opacity="1" transform="translate(725.2379048380647,0)"><line stroke="#000" y2="6" x1="0.5" x2="0.5"></line><text fill="#000" y="9" x="0.5" dy="0.71em">Jan 17</text></g><g class="tick" opacity="1" transform="translate(787.512994802079,0)"><line stroke="#000" y2="6" x1="0.5" x2="0.5"></line><text fill="#000" y="9" x="0.5" dy="0.71em">Jan 24</text></g><g class="tick" opacity="1" transform="translate(849.7880847660936,0)"><line stroke="#000" y2="6" x1="0.5" x2="0.5"></line><text fill="#000" y="9" x="0.5" dy="0.71em">Jan 31</text></g></g><g class="y axis" fill="none" font-size="10" font-family="sans-serif" text-anchor="end"><path class="domain" stroke="#000" d="M-6,200.5H0.5V0.5H-6"></path><g class="tick" opacity="1" transform="translate(0,185.0531583538806)"><line stroke="#000" x2="-6" y1="0.5" y2="0.5"></line><text fill="#000" x="-9" y="0.5" dy="0.32em">35,000</text></g><g class="tick" opacity="1" transform="translate(0,158.40506945568552)"><line stroke="#000" x2="-6" y1="0.5" y2="0.5"></line><text fill="#000" x="-9" y="0.5" dy="0.32em">40,000</text></g><g class="tick" opacity="1" transform="translate(0,131.7569805574904)"><line stroke="#000" x2="-6" y1="0.5" y2="0.5"></line><text fill="#000" x="-9" y="0.5" dy="0.32em">45,000</text></g><g class="tick" opacity="1" transform="translate(0,105.1088916592953)"><line stroke="#000" x2="-6" y1="0.5" y2="0.5"></line><text fill="#000" x="-9" y="0.5" dy="0.32em">50,000</text></g><g class="tick" opacity="1" transform="translate(0,78.46080276110017)"><line stroke="#000" x2="-6" y1="0.5" y2="0.5"></line><text fill="#000" x="-9" y="0.5" dy="0.32em">55,000</text></g><g class="tick" opacity="1" transform="translate(0,51.81271386290507)"><line stroke="#000" x2="-6" y1="0.5" y2="0.5"></line><text fill="#000" x="-9" y="0.5" dy="0.32em">60,000</text></g><g class="tick" opacity="1" transform="translate(0,25.164624964709958)"><line stroke="#000" x2="-6" y1="0.5" y2="0.5"></line><text fill="#000" x="-9" y="0.5" dy="0.32em">65,000</text></g><text transform="rotate(-90)" y="6" dy=".71em" style="text-anchor: end;">Price ($)</text></g></g></svg>