<?xml version="1.0" encoding="utf-8"?>
<!DOCTYPE svg PUBLIC "-//W3C//DTD SVG 1.1//EN" "http://www.w3.org/Graphics/SVG/1.1/DTD/svg11.dtd">
<svg version="1.1" xmlns="http://www.w3.org/2000/svg" width="960" height="250"><g transform="translate(50,20)"><style>.axis path,.axis line{fill:none;stroke:#000;shape-rendering:crispEdges;}path.candle{stroke:#000000;}path.candle.body{stroke-width:0;}path.candle.up{fill:#00AA00;stroke:#00AA00;}path.candle.down{fill:#FF0000;stroke:#FF0000;}</style><g class="candlestick"><g class="data"><path class="candle body up" d="M 72.23910435825668 133.998737738106 l 7.1171531387445 0 L 79.35625749700118 127.8402544790471 l -7.1171531387445 0 L 72.23910435825668 133.998737738106 M 90.03198720511796 157.89772814888084 l 7.1171531387445 0 L 97.14914034386246 156.95860419828745 l -7.1171531387445 0 L 90.03198720511796 157.89772814888084 M 107.82487005197919 177.58353398083918 l 7.1171531387445 0 L 114.94202319072369 155.51033490693848 l -7.1171531387445 0 L 107.82487005197919 177.58353398083918 M 125.61775289884046 155.51171171965007 l 7.1171531387445 0 L 132.73490603758498 153.45172454053005 l -7.1171531387445 0 L 125.61775289884046 155.51171171965007 M 143.4106357457017 163.57845739700892 l 7.1171531387445 0 L 150.5277888844462 148.12882891615098 l -7.1171531387445 0 L 143.4106357457017 163.57845739700892 M 152.30707716913233 148.1289665974222 l 7.1171531387445 0 L 159.42423030787683 146.3725666212135 l -7.1171531387445 0 L 152.30707716913233 148.1289665974222 M 161.20351859256294 146.37270430248464 l 7.1171531387445 0 L 168.32067173130744 142.88234639726664 l -7.1171531387445 0 L 161.20351859256294 146.37270430248464 M 232.37504998000796 173.70050909026827 l 7.1171531387445 0 L 239.49220311875246 172.8329794006789 l -7.1171531387445 0 L 232.37504998000796 173.70050909026827 M 241.2714914034386 172.8329794006789 l 7.1171531387445 0 L 248.3886445421831 160.1541865019485 l -7.1171531387445 0 L 241.2714914034386 172.8329794006789 M 259.06437425029986 160.9922523995092 l 7.1171531387445 0 L 266.1815273890444 155.64099443327086 l -7.1171531387445 0 L 259.06437425029986 160.9922523995092 M 267.9608156737305 155.64099443327086 l 7.1171531387445 0 L 275.07796881247504 141.04030867039546 l -7.1171531387445 0 L 267.9608156737305 155.64099443327086 M 321.3394642143143 172.62026183673427 l 7.1171531387445 0 L 328.45661735305885 160.17951985584222 l -7.1171531387445 0 L 321.3394642143143 172.62026183673427 M 330.23590563774496 160.17951985584222 l 7.1171531387445 0 L 337.3530587764895 155.30601590053465 l -7.1171531387445 0 L 330.23590563774496 160.17951985584222 M 339.13234706117555 155.30601590053465 l 7.1171531387445 0 L 346.2495001999201 151.98514364011658 l -7.1171531387445 0 L 339.13234706117555 155.30601590053465 M 348.02878848460614 151.98514364011658 l 7.1171531387445 0 L 355.14594162335067 146.95206709153274 l -7.1171531387445 0 L 348.02878848460614 151.98514364011658 M 365.8216713314674 152.40452079207483 l 7.1171531387445 0 L 372.93882447021196 129.9211692113837 l -7.1171531387445 0 L 365.8216713314674 152.40452079207483 M 374.7181127548981 129.9211692113837 l 7.1171531387445 0 L 381.8352658936426 116.64814394631973 l -7.1171531387445 0 L 374.7181127548981 129.9211692113837 M 419.20031987205124 129.7008791775251 l 7.1171531387445 0 L 426.31747301079577 127.8958777125964 l -7.1171531387445 0 L 419.20031987205124 129.7008791775251 M 445.8896441423431 146.1387838227811 l 7.1171531387445 0 L 453.00679728108764 122.763532967505 l -7.1171531387445 0 L 445.8896441423431 146.1387838227811 M 454.7860855657737 122.73792425106893 l 7.1171531387445 0 L 461.90323870451823 110.50329113310585 l -7.1171531387445 0 L 454.7860855657737 122.73792425106893 M 525.9576169532187 127.30756564092283 l 7.1171531387445 0 L 533.0747700919632 117.80742024950051 l -7.1171531387445 0 L 525.9576169532187 127.30756564092283 M 543.75049980008 122.73930106378059 l 7.1171531387445 0 L 550.8676529388244 119.70783483534422 l -7.1171531387445 0 L 543.75049980008 122.73930106378059 M 552.6469412235106 119.70783483534422 l 7.1171531387445 0 L 559.764094362255 110.95667555904103 l -7.1171531387445 0 L 552.6469412235106 119.70783483534422 M 570.4398240703717 120.02546552791405 l 7.1171531387445 0 L 577.5569772091162 108.97337684795802 l -7.1171531387445 0 L 570.4398240703717 120.02546552791405 M 588.232706917233 109.26195679231276 l 7.1171531387445 0 L 595.3498600559775 102.78281385271848 l -7.1171531387445 0 L 588.232706917233 109.26195679231276 M 597.1291483406637 102.81007474440847 l 7.1171531387445 0 L 604.2463014794082 102.26375546043919 l -7.1171531387445 0 L 597.1291483406637 102.81007474440847 M 659.4042383046781 151.9252522871613 l 7.1171531387445 0 L 666.5213914434225 147.71661119029315 l -7.1171531387445 0 L 659.4042383046781 151.9252522871613 M 668.3006797281087 147.71661119029315 l 7.1171531387445 0 L 675.4178328668531 142.54612873308997 l -7.1171531387445 0 L 668.3006797281087 147.71661119029315 M 686.09356257497 144.12753581365226 l 7.1171531387445 0 L 693.2107157137144 142.36012133575068 l -7.1171531387445 0 L 686.09356257497 144.12753581365226 M 703.8864454218311 144.57775357035072 l 7.1171531387445 0 L 711.0035985605756 141.9481789724351 l -7.1171531387445 0 L 703.8864454218311 144.57775357035072 M 739.4722111155537 169.5316578807658 l 7.1171531387445 0 L 746.5893642542982 159.47927291071426 l -7.1171531387445 0 L 739.4722111155537 169.5316578807658 M 757.265093962415 165.98746659852364 l 7.1171531387445 0 L 764.3822471011595 162.72455815326458 l -7.1171531387445 0 L 757.265093962415 165.98746659852364 M 766.1615353858456 162.74631179410815 l 7.1171531387445 0 L 773.27868852459 161.60328188092444 l -7.1171531387445 0 L 766.1615353858456 162.74631179410815 M 792.8508596561375 165.72008956992778 l 7.1171531387445 0 L 799.9680127948819 163.40910943348013 l -7.1171531387445 0 L 792.8508596561375 165.72008956992778 M 819.5401839264293 180.0642751246291 l 7.1171531387445 0 L 826.6573370651738 173.14950864307949 l -7.1171531387445 0 L 819.5401839264293 180.0642751246291 M 828.43662534986 173.14937096180836 l 7.1171531387445 0 L 835.5537784886045 172.77873297984127 l -7.1171531387445 0 L 828.43662534986 173.14937096180836 M 837.3330667732906 172.7681315219618 l 7.1171531387445 0 L 844.4502199120351 144.68707249965303 l -7.1171531387445 0 L 837.3330667732906 172.7681315219618 M 846.2295081967213 144.66628262770766 l 7.1171531387445 0 L 853.3466613354658 140.7186852209619 l -7.1171531387445 0 L 846.2295081967213 144.66628262770766 M 855.1259496201519 140.7342432046032 l 7.1171531387445 0 L 862.2431027588964 138.26066148691368 l -7.1171531387445 0 L 855.1259496201519 140.7342432046032 M 864.0223910435824 138.26066148691368 l 7.1171531387445 0 L 871.1395441823269 130.42838701434306 l -7.1171531387445 0 L 864.0223910435824 138.26066148691368 M 881.8152738904437 161.0228176417071 l 7.1171531387445 0 L 888.9324270291881 158.8485550075229 l -7.1171531387445 0 L 881.8152738904437 161.0228176417071"></path><path class="candle body down" d="M 1.0675729708116766 6.826953366802712 l 7.1171531387445 0 L 8.184726109556177 10.238282222373925 l -7.1171531387445 0 L 1.0675729708116766 6.826953366802712 M 9.964014394242305 10.23841990364511 l 7.1171531387445 0 L 17.081167532986804 22.912669320427227 l -7.1171531387445 0 L 9.964014394242305 10.23841990364511 M 18.860455817672932 22.912669320427227 l 7.1171531387445 0 L 25.977608956417434 24.21843849612398 l -7.1171531387445 0 L 18.860455817672932 22.912669320427227 M 27.75689724110356 24.21843849612398 l 7.1171531387445 0 L 34.87405037984806 38.23508030673179 l -7.1171531387445 0 L 27.75689724110356 24.21843849612398 M 36.65333866453418 38.235217988003 l 7.1171531387445 0 L 43.77049180327868 47.42089935609221 l -7.1171531387445 0 L 36.65333866453418 38.235217988003 M 45.54978008796481 47.42076167482105 l 7.1171531387445 0 L 52.66693322670931 72.89427510260009 l -7.1171531387445 0 L 45.54978008796481 47.42076167482105 M 54.446221511395436 72.89427510260009 l 7.1171531387445 0 L 61.563374650139934 129.1662628016046 l -7.1171531387445 0 L 54.446221511395436 72.89427510260009 M 63.342662934826066 129.19572659363317 l 7.1171531387445 0 L 70.45981607357056 133.99887541937716 l -7.1171531387445 0 L 63.342662934826066 129.19572659363317 M 81.13554578168731 127.8402544790471 l 7.1171531387445 0 L 88.25269892043181 157.88795277862832 l -7.1171531387445 0 L 81.13554578168731 127.8402544790471 M 98.92842862854857 156.95860419828745 l 7.1171531387445 0 L 106.04558176729307 177.58353398083918 l -7.1171531387445 0 L 98.92842862854857 156.95860419828745 M 116.72131147540982 155.51033490693848 l 7.1171531387445 0 L 123.83846461415432 155.51184940092128 l -7.1171531387445 0 L 116.72131147540982 155.51033490693848 M 134.51419432227107 153.45186222180126 l 7.1171531387445 0 L 141.63134746101557 163.57859507828005 l -7.1171531387445 0 L 134.51419432227107 153.45186222180126 M 170.09996001599356 142.8824840785378 l 7.1171531387445 0 L 177.21711315473806 149.12096015614156 l -7.1171531387445 0 L 170.09996001599356 142.8824840785378 M 178.9964014394242 149.1208224748704 l 7.1171531387445 0 L 186.1135545781687 153.18957940023836 l -7.1171531387445 0 L 178.9964014394242 149.1208224748704 M 187.89284286285485 153.1894417189672 l 7.1171531387445 0 L 195.00999600159935 159.54040339511 l -7.1171531387445 0 L 187.89284286285485 153.1894417189672 M 196.78928428628546 159.54054107638117 l 7.1171531387445 0 L 203.90643742502996 161.71962255505602 l -7.1171531387445 0 L 196.78928428628546 159.54054107638117 M 205.68572570971608 161.71976023632715 l 7.1171531387445 0 L 212.80287884846058 164.20889993765795 l -7.1171531387445 0 L 205.68572570971608 161.71976023632715 M 214.5821671331467 164.20889993765795 l 7.1171531387445 0 L 221.6993202718912 173.32904502067424 l -7.1171531387445 0 L 214.5821671331467 164.20889993765795 M 223.47860855657734 173.32904502067424 l 7.1171531387445 0 L 230.59576169532184 173.7006467715394 l -7.1171531387445 0 L 223.47860855657734 173.32904502067424 M 250.16793282686922 160.1541865019485 l 7.1171531387445 0 L 257.28508596561375 160.99239008078032 l -7.1171531387445 0 L 250.16793282686922 160.1541865019485 M 276.85725709716115 141.04017098912425 l 7.1171531387445 0 L 283.9744102359057 141.45651915311697 l -7.1171531387445 0 L 276.85725709716115 141.04017098912425 M 285.7536985205918 141.45651915311697 l 7.1171531387445 0 L 292.8708516593363 141.49672208429615 l -7.1171531387445 0 L 285.7536985205918 141.45651915311697 M 294.65013994402244 141.492316283619 l 7.1171531387445 0 L 301.76729308276697 151.53864327773945 l -7.1171531387445 0 L 294.65013994402244 141.492316283619 M 303.54658136745303 151.55736793061743 l 7.1171531387445 0 L 310.66373450619756 163.91426201737207 l -7.1171531387445 0 L 303.54658136745303 151.55736793061743 M 312.4430227908837 163.91426201737207 l 7.1171531387445 0 L 319.5601759296282 172.65509519833813 l -7.1171531387445 0 L 312.4430227908837 163.91426201737207 M 356.9252299080368 146.95206709153274 l 7.1171531387445 0 L 364.0423830467813 152.4240715325798 l -7.1171531387445 0 L 356.9252299080368 146.95206709153274 M 383.61455417832866 116.62253522988367 l 7.1171531387445 0 L 390.7317073170732 119.03443573809278 l -7.1171531387445 0 L 383.61455417832866 116.62253522988367 M 392.5109956017593 119.03443573809278 l 7.1171531387445 0 L 399.62814874050383 120.013487257323 l -7.1171531387445 0 L 392.5109956017593 119.03443573809278 M 401.40743702518995 120.013487257323 l 7.1171531387445 0 L 408.5245901639345 126.44815914633203 l -7.1171531387445 0 L 401.40743702518995 120.013487257323 M 410.3038784486206 126.44815914633203 l 7.1171531387445 0 L 417.4210315873651 129.6665965410059 l -7.1171531387445 0 L 410.3038784486206 126.44815914633203 M 428.0967612954818 127.9309864367426 l 7.1171531387445 0 L 435.21391443422635 145.3646020350393 l -7.1171531387445 0 L 428.0967612954818 127.9309864367426 M 436.99320271891247 145.3646020350393 l 7.1171531387445 0 L 444.110355857657 146.1387838227811 l -7.1171531387445 0 L 436.99320271891247 145.3646020350393 M 463.68252698920435 110.47134907819634 l 7.1171531387445 0 L 470.7996801279489 111.45577016700187 l -7.1171531387445 0 L 463.68252698920435 110.47134907819634 M 472.57896841263494 111.40716867828183 l 7.1171531387445 0 L 479.69612155137946 113.2489310426107 l -7.1171531387445 0 L 472.57896841263494 111.40716867828183 M 481.47540983606564 113.23337305896945 l 7.1171531387445 0 L 488.59256297481016 118.07039147741916 l -7.1171531387445 0 L 481.47540983606564 113.23337305896945 M 490.3718512594962 118.02853637098603 l 7.1171531387445 0 L 497.48900439824075 118.41886277472923 l -7.1171531387445 0 L 490.3718512594962 118.02853637098603 M 499.2682926829268 118.43414539582811 l 7.1171531387445 0 L 506.38544582167134 122.27696735521987 l -7.1171531387445 0 L 499.2682926829268 118.43414539582811 M 508.16473410635746 122.30257607165593 l 7.1171531387445 0 L 515.281887245102 124.60956345123991 l -7.1171531387445 0 L 508.16473410635746 122.30257607165593 M 517.0611755297881 124.6296649168295 l 7.1171531387445 0 L 524.1783286685326 127.29971780846662 l -7.1171531387445 0 L 517.0611755297881 124.6296649168295 M 534.8540583766493 117.79172458458804 l 7.1171531387445 0 L 541.9712115153937 122.73930106378059 l -7.1171531387445 0 L 534.8540583766493 117.79172458458804 M 561.5433826469413 110.9431827944672 l 7.1171531387445 0 L 568.6605357856857 120.04432786206318 l -7.1171531387445 0 L 561.5433826469413 110.9431827944672 M 579.3362654938024 108.97337684795802 l 7.1171531387445 0 L 586.4534186325469 109.24405822706174 l -7.1171531387445 0 L 579.3362654938024 108.97337684795802 M 606.0255897640943 102.24062500688403 l 7.1171531387445 0 L 613.1427429028388 104.13814828603336 l -7.1171531387445 0 L 606.0255897640943 102.24062500688403 M 614.9220311875249 104.13801060476221 l 7.1171531387445 0 L 622.0391843262694 107.035237593816 l -7.1171531387445 0 L 614.9220311875249 104.13801060476221 M 623.8184726109555 107.05974486008276 l 7.1171531387445 0 L 630.9356257497 110.34068955186396 l -7.1171531387445 0 L 623.8184726109555 107.05974486008276 M 632.7149140343862 110.32127649263018 l 7.1171531387445 0 L 639.8320671731307 117.39107208550777 l -7.1171531387445 0 L 632.7149140343862 110.32127649263018 M 641.6113554578168 117.39107208550777 l 7.1171531387445 0 L 648.7285085965613 119.47639261852153 l -7.1171531387445 0 L 641.6113554578168 117.39107208550777 M 650.5077968812475 119.47295058674248 l 7.1171531387445 0 L 657.624950019992 151.9252522871613 l -7.1171531387445 0 L 650.5077968812475 119.47295058674248 M 677.1971211515394 142.53112147453336 l 7.1171531387445 0 L 684.3142742902838 144.1402024905991 l -7.1171531387445 0 L 677.1971211515394 142.53112147453336 M 694.9900039984005 142.3602590170218 l 7.1171531387445 0 L 702.107157137145 144.57734052653723 l -7.1171531387445 0 L 694.9900039984005 142.3602590170218 M 712.7828868452618 141.9481789724351 l 7.1171531387445 0 L 719.9000399840063 160.09443283026434 l -7.1171531387445 0 L 712.7828868452618 141.9481789724351 M 721.6793282686924 160.1207299530562 l 7.1171531387445 0 L 728.7964814074369 162.89555829204733 l -7.1171531387445 0 L 721.6793282686924 160.1207299530562 M 730.5757696921231 162.89555829204733 l 7.1171531387445 0 L 737.6929228308676 169.5316578807658 l -7.1171531387445 0 L 730.5757696921231 162.89555829204733 M 748.3686525389844 159.45903376385348 l 7.1171531387445 0 L 755.4858056777289 166.00632893267277 l -7.1171531387445 0 L 748.3686525389844 159.45903376385348 M 775.0579768092763 161.58703549092735 l 7.1171531387445 0 L 782.1751299480208 164.07603751098696 l -7.1171531387445 0 L 775.0579768092763 161.58703549092735 M 783.9544182327068 164.0881534628492 l 7.1171531387445 0 L 791.0715713714512 165.72766203984165 l -7.1171531387445 0 L 783.9544182327068 164.0881534628492 M 801.747301079568 163.40910943348013 l 7.1171531387445 0 L 808.8644542183125 166.21037257653427 l -7.1171531387445 0 L 801.747301079568 163.40910943348013 M 810.6437425029987 166.2310247672085 l 7.1171531387445 0 L 817.7608956417432 180.0642751246291 l -7.1171531387445 0 L 810.6437425029987 166.2310247672085 M 872.9188324670131 130.43251745247795 l 7.1171531387445 0 L 880.0359856057576 161.02350604806287 l -7.1171531387445 0 L 872.9188324670131 130.43251745247795"></path><path class="candle body equal"></path><path class="candle wick up" d="M 75.79768092762893 124.86248394636378 L 75.79768092762893 127.8402544790471 M 75.79768092762893 133.998737738106 L 75.79768092762893 161.8764415229091 M 93.5905637744902 144.61382606339507 L 93.5905637744902 156.95860419828745 M 93.5905637744902 157.89772814888084 L 93.5905637744902 160.01719363714267 M 111.38344662135144 152.1791365511833 L 111.38344662135144 155.51033490693848 M 111.38344662135144 177.58353398083918 L 111.38344662135144 191.49457425646608 M 129.1763294682127 139.69075685046934 L 129.1763294682127 153.45172454053005 M 129.1763294682127 155.51171171965007 L 129.1763294682127 158.6164243843444 M 146.96921231507397 146.43713913738827 L 146.96921231507397 148.12882891615098 M 146.96921231507397 163.57845739700892 L 146.96921231507397 164.92677008549458 M 155.8656537385046 141.9568528925183 L 155.8656537385046 146.3725666212135 M 155.8656537385046 148.1289665974222 L 155.8656537385046 153.26998526259672 M 164.7620951619352 141.1845986425728 L 164.7620951619352 142.88234639726664 M 164.7620951619352 146.37270430248464 L 164.7620951619352 150.93078046556099 M 235.93362654938022 168.26471482353665 L 235.93362654938022 172.8329794006789 M 235.93362654938022 173.70050909026827 L 235.93362654938022 180.1965868262154 M 244.83006797281087 158.5391851912228 L 244.83006797281087 160.1541865019485 M 244.83006797281087 172.8329794006789 L 244.83006797281087 176.41985187698123 M 262.6229508196721 154.11672508024063 L 262.6229508196721 155.64099443327086 M 262.6229508196721 160.9922523995092 L 262.6229508196721 166.70038022059845 M 271.51939224310274 138.1060454193992 L 271.51939224310274 141.04030867039546 M 271.51939224310274 155.64099443327086 L 271.51939224310274 159.94807763901952 M 324.89804078368655 158.3657067895591 L 324.89804078368655 160.17951985584222 M 324.89804078368655 172.62026183673427 L 324.89804078368655 178.40755638874145 M 333.7944822071172 151.02192546706993 L 333.7944822071172 155.30601590053465 M 333.7944822071172 160.17951985584222 L 333.7944822071172 168.69923691532273 M 342.6909236305478 146.8914873322216 L 342.6909236305478 151.98514364011658 M 342.6909236305478 155.30601590053465 L 342.6909236305478 158.14982255637773 M 351.5873650539784 141.5365119716619 L 351.5873650539784 146.95206709153274 M 351.5873650539784 151.98514364011658 L 351.5873650539784 156.82367655254907 M 369.38024790083966 125.17047694995229 L 369.38024790083966 129.9211692113837 M 369.38024790083966 152.40452079207483 L 369.38024790083966 152.9157313518979 M 378.2766893242703 111.09435683020263 L 378.2766893242703 116.64814394631973 M 378.2766893242703 129.9211692113837 L 378.2766893242703 141.6659323665538 M 422.7588964414235 121.90729314215096 L 422.7588964414235 127.8958777125964 M 422.7588964414235 129.7008791775251 L 422.7588964414235 132.33651175137183 M 449.44822071171535 120.55815436603831 L 449.44822071171535 122.763532967505 M 449.44822071171535 146.1387838227811 L 449.44822071171535 149.05955430920352 M 458.34466213514594 105.5909610593307 L 458.34466213514594 110.50329113310585 M 458.34466213514594 122.73792425106893 L 458.34466213514594 127.8621458011618 M 529.5161935225909 115.59846193498359 L 529.5161935225909 117.80742024950051 M 529.5161935225909 127.30756564092283 L 529.5161935225909 127.7957834284619 M 547.3090763694522 116.57407142243477 L 547.3090763694522 119.70783483534422 M 547.3090763694522 122.73930106378059 L 547.3090763694522 124.24815011444068 M 556.2055177928828 104.96754026351093 L 556.2055177928828 110.95667555904103 M 556.2055177928828 119.70783483534422 L 556.2055177928828 119.98512491546369 M 573.998400639744 105.229134678718 L 573.998400639744 108.97337684795802 M 573.998400639744 120.02546552791405 L 573.998400639744 126.72544922645156 M 591.7912834866053 102.05558137844285 L 591.7912834866053 102.78281385271848 M 591.7912834866053 109.26195679231276 L 591.7912834866053 114.0820404144096 M 600.687724910036 96.11463452781932 L 600.687724910036 102.26375546043919 M 600.687724910036 102.81007474440847 L 600.687724910036 104.33117742820195 M 662.9628148740503 144.37398528903157 L 662.9628148740503 147.71661119029315 M 662.9628148740503 151.9252522871613 L 662.9628148740503 152.92330382181177 M 671.8592562974809 138.6306110625249 L 671.8592562974809 142.54612873308997 M 671.8592562974809 147.71661119029315 L 671.8592562974809 148.69359749045594 M 689.6521391443422 140.21573553740856 L 689.6521391443422 142.36012133575068 M 689.6521391443422 144.12753581365226 L 689.6521391443422 151.1576792004353 M 707.4450219912034 138.35690069545564 L 707.4450219912034 141.9481789724351 M 707.4450219912034 144.57775357035072 L 707.4450219912034 145.37492813037642 M 743.0307876849259 157.4431045915052 L 743.0307876849259 159.47927291071426 M 743.0307876849259 169.5316578807658 L 743.0307876849259 169.5980202534657 M 760.8236705317872 156.666857584696 L 760.8236705317872 162.72455815326458 M 760.8236705317872 165.98746659852364 L 760.8236705317872 166.1952276367065 M 769.7201119552178 160.5443752244205 L 769.7201119552178 161.60328188092444 M 769.7201119552178 162.74631179410815 L 769.7201119552178 169.3932882032484 M 796.4094362255097 163.01079751600957 L 796.4094362255097 163.40910943348013 M 796.4094362255097 165.72008956992778 L 796.4094362255097 169.15317206634256 M 823.0987604958016 170.79212991825037 L 823.0987604958016 173.14950864307949 M 823.0987604958016 180.0642751246291 L 823.0987604958016 183.91714781681563 M 831.9952019192323 170.87212273679526 L 831.9952019192323 172.77873297984127 M 831.9952019192323 173.14937096180836 L 831.9952019192323 177.01614946238217 M 840.8916433426629 141.42251187914005 L 840.8916433426629 144.68707249965303 M 840.8916433426629 172.7681315219618 L 840.8916433426629 173.1645159016361 M 849.7880847660936 138.48191528967038 L 849.7880847660936 140.7186852209619 M 849.7880847660936 144.66628262770766 L 849.7880847660936 148.11506078903483 M 858.6845261895241 137.80452343555524 L 858.6845261895241 138.26066148691368 M 858.6845261895241 140.7342432046032 L 858.6845261895241 144.82626826479742 M 867.5809676129546 129.15813960660606 L 867.5809676129546 130.42838701434306 M 867.5809676129546 138.26066148691368 L 867.5809676129546 142.2308386221299 M 885.3738504598159 155.95807440075606 L 885.3738504598159 158.8485550075229 M 885.3738504598159 161.0228176417071 L 885.3738504598159 162.83291331366877" style="stroke-width: 1px;"></path><path class="candle wick down" d="M 4.626149540183927 3.8461538461538396 L 4.626149540183927 6.826953366802712 M 4.626149540183927 10.238282222373925 L 4.626149540183927 36.48542671281007 M 13.522590963614554 7.45863503889214 L 13.522590963614554 10.23841990364511 M 13.522590963614554 22.912669320427227 L 13.522590963614554 27.88144871537864 M 22.41903238704518 16.094279728690765 L 22.41903238704518 22.912669320427227 M 22.41903238704518 24.21843849612398 L 22.41903238704518 26.501607015796992 M 31.315473810475808 20.46152964993709 L 31.315473810475808 24.21843849612398 M 31.315473810475808 38.23508030673179 L 31.315473810475808 41.56531489358889 M 40.21191523390643 33.43647496293619 L 40.21191523390643 38.235217988003 M 40.21191523390643 47.42089935609221 L 40.21191523390643 51.891547911980865 M 49.10835665733706 45.76514438910269 L 49.10835665733706 47.42076167482105 M 49.10835665733706 72.89427510260009 L 49.10835665733706 73.09432598959789 M 58.004798080767685 68.47043817890633 L 58.004798080767685 72.89427510260009 M 58.004798080767685 129.1662628016046 L 58.004798080767685 136.89899371512533 M 66.90123950419832 117.11268055521899 L 66.90123950419832 129.19572659363317 M 66.90123950419832 133.99887541937716 L 66.90123950419832 151.76540433134264 M 84.69412235105956 122.16764842591756 L 84.69412235105956 127.8402544790471 M 84.69412235105956 157.88795277862832 L 84.69412235105956 160.2190343806656 M 102.48700519792082 152.50805710798835 L 102.48700519792082 156.95860419828745 M 102.48700519792082 177.58353398083918 L 102.48700519792082 196.15384615384616 M 120.27988804478207 148.40598131499934 L 120.27988804478207 155.51033490693848 M 120.27988804478207 155.51184940092128 L 120.27988804478207 168.410656970968 M 138.07277089164333 151.02192546706993 L 138.07277089164333 153.45186222180126 M 138.07277089164333 163.57859507828005 L 138.07277089164333 166.57288736350282 M 173.65853658536582 137.41901587630275 L 173.65853658536582 142.8824840785378 M 173.65853658536582 149.12096015614156 L 173.65853658536582 150.13071459884083 M 182.55497800879647 142.21238933179427 L 182.55497800879647 149.1208224748704 M 182.55497800879647 153.18957940023836 L 182.55497800879647 156.39149504237278 M 191.4514194322271 146.7248929941161 L 191.4514194322271 153.1894417189672 M 191.4514194322271 159.54040339511 L 191.4514194322271 160.63194051287928 M 200.34786085565773 157.46114083802735 L 200.34786085565773 159.54054107638117 M 200.34786085565773 161.71962255505602 L 200.34786085565773 165.41071975362766 M 209.24430227908834 160.9476436676528 L 209.24430227908834 161.71976023632715 M 209.24430227908834 164.20889993765795 L 209.24430227908834 182.3306465292204 M 218.14074370251896 150.7692803344884 L 218.14074370251896 164.20889993765795 M 218.14074370251896 173.32904502067424 L 218.14074370251896 177.52557016568014 M 227.0371851259496 170.74628205495355 L 227.0371851259496 173.32904502067424 M 227.0371851259496 173.7006467715394 L 227.0371851259496 177.49789623017668 M 253.72650939624148 153.08714453449412 L 253.72650939624148 160.1541865019485 M 253.72650939624148 160.99239008078032 L 253.72650939624148 172.99034909361663 M 280.4158336665334 128.6160884420428 L 280.4158336665334 141.04017098912425 M 280.4158336665334 141.45651915311697 L 280.4158336665334 147.0393570174492 M 289.31227508996403 136.1523481816159 L 289.31227508996403 141.45651915311697 M 289.31227508996403 141.49672208429615 L 289.31227508996403 145.210123648796 M 298.2087165133947 141.2789103133185 L 298.2087165133947 141.492316283619 M 298.2087165133947 151.53864327773945 L 298.2087165133947 154.39511661052944 M 307.10515793682526 151.45589683377136 L 307.10515793682526 151.55736793061743 M 307.10515793682526 163.91426201737207 L 307.10515793682526 165.1310890918984 M 316.0015993602559 162.5951377583727 L 316.0015993602559 163.91426201737207 M 316.0015993602559 172.65509519833813 L 316.0015993602559 173.87701647989743 M 360.483806477409 140.22027901935687 L 360.483806477409 146.95206709153274 M 360.483806477409 152.4240715325798 L 360.483806477409 153.087006853223 M 387.1731307477009 104.53053990884396 L 387.1731307477009 116.62253522988367 M 387.1731307477009 119.03443573809278 L 387.1731307477009 123.40044652789864 M 396.06957217113154 116.01274487990888 L 396.06957217113154 119.03443573809278 M 396.06957217113154 120.013487257323 L 396.06957217113154 131.17572095420832 M 404.9660135945622 111.69340804102679 L 404.9660135945622 120.013487257323 M 404.9660135945622 126.44815914633203 L 404.9660135945622 128.99292208121213 M 413.86245501799283 122.0982570652521 L 413.86245501799283 126.44815914633203 M 413.86245501799283 129.6665965410059 L 413.86245501799283 136.77783419650314 M 431.65533786485406 126.70741297992937 L 431.65533786485406 127.9309864367426 M 431.65533786485406 145.3646020350393 L 431.65533786485406 146.20308097641356 M 440.5517792882847 144.85628278191066 L 440.5517792882847 145.3646020350393 M 440.5517792882847 146.1387838227811 L 440.5517792882847 153.68605806404713 M 467.2411035585766 102.24613225773052 L 467.2411035585766 110.47134907819634 M 467.2411035585766 111.45577016700187 L 467.2411035585766 116.40844085322738 M 476.13754498200717 99.14362249337476 L 476.13754498200717 111.40716867828183 M 476.13754498200717 113.2489310426107 L 476.13754498200717 115.19381667903961 M 485.0339864054379 105.6584248821999 L 485.0339864054379 113.23337305896945 M 485.0339864054379 118.07039147741916 L 485.0339864054379 118.97922554835695 M 493.93042782886846 115.09151949456654 L 493.93042782886846 118.02853637098603 M 493.93042782886846 118.41886277472923 L 493.93042782886846 124.17407759055573 M 502.82686925229905 115.77703454368022 L 502.82686925229905 118.43414539582811 M 502.82686925229905 122.27696735521987 L 502.82686925229905 126.86753629829035 M 511.7233106757297 113.1915179525363 L 511.7233106757297 122.30257607165593 M 511.7233106757297 124.60956345123991 L 511.7233106757297 126.49786208522139 M 520.6197520991603 119.03416037555044 L 520.6197520991603 124.6296649168295 M 520.6197520991603 127.29971780846662 L 520.6197520991603 130.36973479282824 M 538.4126349460215 117.22998499824868 L 538.4126349460215 117.79172458458804 M 538.4126349460215 122.73930106378059 L 538.4126349460215 123.3545986646018 M 565.1019592163135 109.25975389197417 L 565.1019592163135 110.9431827944672 M 565.1019592163135 120.04432786206318 L 565.1019592163135 123.9675556838133 M 582.8948420631747 95.69415592569175 L 582.8948420631747 108.97337684795802 M 582.8948420631747 109.24405822706174 L 582.8948420631747 110.37662436363715 M 609.5841663334666 93.91779216516463 L 609.5841663334666 102.24062500688403 M 609.5841663334666 104.13814828603336 L 609.5841663334666 106.3581211022432 M 618.4806077568971 91.6631236686221 L 618.4806077568971 104.13801060476221 M 618.4806077568971 107.035237593816 L 618.4806077568971 111.46306727437342 M 627.3770491803277 104.93325762699168 L 627.3770491803277 107.05974486008276 M 627.3770491803277 110.34068955186396 L 627.3770491803277 112.86741624022186 M 636.2734906037584 102.19037134291008 L 636.2734906037584 110.32127649263018 M 636.2734906037584 117.39107208550777 L 636.2734906037584 119.62508839137605 M 645.169932027189 113.84798225343486 L 645.169932027189 117.39107208550777 M 645.169932027189 119.47639261852153 L 645.169932027189 120.580045688153 M 654.0663734506197 119.23586343780222 L 654.0663734506197 119.47295058674248 M 654.0663734506197 151.9252522871613 L 654.0663734506197 152.62494850720458 M 680.7556977209116 142.09040372554506 L 680.7556977209116 142.53112147453336 M 680.7556977209116 144.1402024905991 L 680.7556977209116 151.15712847535065 M 698.5485805677728 137.25379835090882 L 698.5485805677728 142.3602590170218 M 698.5485805677728 144.57734052653723 L 698.5485805677728 147.64873432361046 M 716.3414634146341 137.43595067265562 L 716.3414634146341 141.9481789724351 M 716.3414634146341 160.09443283026434 L 716.3414634146341 161.92765895578117 M 725.2379048380647 157.86564841270015 L 725.2379048380647 160.1207299530562 M 725.2379048380647 162.89555829204733 L 725.2379048380647 166.1668652948472 M 734.1343462614954 161.0564118718705 L 734.1343462614954 162.89555829204733 M 734.1343462614954 169.5316578807658 L 734.1343462614954 170.02194088737232 M 751.9272291083566 155.47935662092712 L 751.9272291083566 159.45903376385348 M 751.9272291083566 166.00632893267277 L 751.9272291083566 169.7465783450491 M 778.6165533786485 157.33791610033774 L 778.6165533786485 161.58703549092735 M 778.6165533786485 164.07603751098696 L 778.6165533786485 166.78243825821076 M 787.512994802079 162.64318852200807 L 787.512994802079 164.0881534628492 M 787.512994802079 165.72766203984165 L 787.512994802079 168.1946350565154 M 805.3058776489403 162.62473923167244 L 805.3058776489403 163.40910943348013 M 805.3058776489403 166.21037257653427 L 805.3058776489403 168.45471497773968 M 814.202319072371 160.93497699070596 L 814.202319072371 166.2310247672085 M 814.202319072371 180.0642751246291 L 814.202319072371 182.00695786071947 M 876.4774090363853 124.87625207347995 L 876.4774090363853 130.43251745247795 M 876.4774090363853 161.02350604806287 L 876.4774090363853 165.34077766787755" style="stroke-width: 1px;"></path><path class="candle wick equal" style="stroke-width: 1px;"></path></g></g><g class="x axis" transform="translate(0,200)" fill="none" font-size="10" font-family="sans-serif" text-anchor="middle"><path class="domain" stroke="#000" d="M0.5,6V0.5H890.5V6"></path><g class="tick" opacity="1" transform="translate(58.004798080767685,0)"><line stroke="#000" y2="6" x1="0.5" x2="0.5"></line><text fill="#000" y="9" x="0.5" dy="0.71em">Jun 13</text></g><g class="tick" opacity="1" transform="translate(120.27988804478207,0)"><line stroke="#000" y2="6" x1="0.5" x2="0.5"></line><text fill="#000" y="9" x="0.5" dy="0.71em">Jun 20</text></g><g class="tick" opacity="1" transform="translate(182.55497800879647,0)"><line stroke="#000" y2="6" x1="0.5" x2="0.5"></line><text fill="#000" y="9" x="0.5" dy="0.71em">Jun 27</text></g><g class="tick" opacity="1" transform="translate(244.83006797281087,0)"><line stroke="#000" y2="6" x1="0.5" x2="0.5"></line><text fill="#000" y="9" x="0.5" dy="0.71em">Jul  4</text></g><g class="tick" opacity="1" transform="translate(307.10515793682526,0)"><line stroke="#000" y2="6" x1="0.5" x2="0.5"></line><text fill="#000" y="9" x="0.5" dy="0.71em">Jul 11</text></g><g class="tick" opacity="1" transform="translate(369.38024790083966,0)"><line stroke="#000" y2="6" x1="0.5" x2="0.5"></line><text fill="#000" y="9" x="0.5" dy="0.71em">Jul 18</text></g><g class="tick" opacity="1" transform="translate(431.65533786485406,0)"><line stroke="#000" y2="6" x1="0.5" x2="0.5"></line><text fill="#000" y="9" x="0.5" dy="0.71em">Jul 25</text></g><g class="tick" opacity="1" transform="translate(493.93042782886846,0)"><line stroke="#000" y2="6" x1="0.5" x2="0.5"></line><text fill="#000" y="9" x="0.5" dy="0.71em">Aug  1</text></g><g class="tick" opacity="1" transform="translate(556.2055177928828,0)"><line stroke="#000" y2="6" x1="0.5" x2="0.5"></line><text fill="#000" y="9" x="0.5" dy="0.71em">Aug  8</text></g><g class="tick" opacity="1" transform="translate(618.4806077568971,0)"><line stroke="#000" y2="6" x1="0.5" x2="0.5"></line><text fill="#000" y="9" x="0.5" dy="0.71em">Aug 15</text></g><g class="tick" opacity="1" transform="translate(680.7556977209116,0)"><line stroke="#000" y2="6" x1="0.5" x2="0.5"></line><text fill="#000" y="9" x="0.5" dy="0.71em">Aug 22</text></g><g class="tick" opacity="1" transform="translate(743.0307876849259,0)"><line stroke="#000" y2="6" x1="0.5" x2="0.5"></line><text fill="#000" y="9" x="0.5" dy="0.71em">Aug 29</text></g><g class="tick" opacity="1" transform="translate(805.3058776489403,0)"><line stroke="#000" y2="6" x1="0.5" x2="0.5"></line><text fill="#000" y="9" x="0.5" dy="0.71em">Sep  5</text></g><g class="tick" opacity="1" transform="translate(867.5809676129546,0)"><line stroke="#000" y2="6" x1="0.5" x2="0.5"></line><text fill="#000" y="9" x="0.5" dy="0.71em">Sep 12</text></g></g><g class="y axis" fill="none" font-size="10" font-family="sans-serif" text-anchor="end"><path class="domain" stroke="#000" d="M-6,200.5H0.5V0.5H-6"></path><g class="tick" opacity="1" transform="translate(0,190.94949410393727)"><line stroke="#000" x2="-6" y1="0.5" y2="0.5"></line><text fill="#000" x="-9" y="0.5" dy="0.32em">18,000</text></g><g class="tick" opacity="1" transform="translate(0,163.41323987161496)"><line stroke="#000" x2="-6" y1="0.5" y2="0.5"></line><text fill="#000" x="-9" y="0.5" dy="0.32em">20,000</text></g><g class="tick" opacity="1" transform="translate(0,135.87698563929268)"><line stroke="#000" x2="-6" y1="0.5" y2="0.5"></line><text fill="#000" x="-9" y="0.5" dy="0.32em">22,000</text></g><g class="tick" opacity="1" transform="translate(0,108.34073140697042)"><line stroke="#000" x2="-6" y1="0.5" y2="0.5"></line><text fill="#000" x="-9" y="0.5" dy="0.32em">24,000</text></g><g class="tick" opacity="1" transform="translate(0,80.80447717464814)"><line stroke="#000" x2="-6" y1="0.5" y2="0.5"></line><text fill="#000" x="-9" y="0.5" dy="0.32em">26,000</text></g><g class="tick" opacity="1" transform="translate(0,53.26822294232585)"><line stroke="#000" x2="-6" y1="0.5" y2="0.5"></line><text fill="#000" x="-9" y="0.5" dy="0.32em">28,000</text></g><g class="tick" opacity="1" transform="translate(0,25.73196871000357)"><line stroke="#000" x2="-6" y1="0.5" y2="0.5"></line><text fill="#000" x="-9" y="0.5" dy="0.32em">30,000</text></g><text transform="rotate(-90)" y="6" dy=".71em" style="text-anchor: end;">Price ($)</text></g></g></svg>