<?xml version="1.0" encoding="utf-8"?>
<!DOCTYPE svg PUBLIC "-//W3C//DTD SVG 1.1//EN" "http://www.w3.org/Graphics/SVG/1.1/DTD/svg11.dtd">
<svg version="1.1" xmlns="http://www.w3.org/2000/svg" width="960" height="250"><g transform="translate(50,20)"><style>.axis path,.axis line{fill:none;stroke:#000;shape-rendering:crispEdges;}path.candle{stroke:#000000;}path.candle.body{stroke-width:0;}path.candle.up{fill:#00AA00;stroke:#00AA00;}path.candle.down{fill:#FF0000;stroke:#FF0000;}</style><g class="candlestick"><g class="data"><path class="candle body up" d="M 1.0675729708116766 97.38347849938533 l 7.1171531387445 0 L 8.184726109556177 95.19303883295791 l -7.1171531387445 0 L 1.0675729708116766 97.38347849938533 M 18.860455817672932 112.49240383345503 l 7.1171531387445 0 L 25.977608956417434 108.4976822071766 l -7.1171531387445 0 L 18.860455817672932 112.49240383345503 M 27.75689724110356 108.4941227066426 l 7.1171531387445 0 L 34.87405037984806 67.48992719070515 l -7.1171531387445 0 L 27.75689724110356 108.4941227066426 M 45.54978008796481 69.33365226458113 l 7.1171531387445 0 L 52.66693322670931 59.73002362123029 l -7.1171531387445 0 L 45.54978008796481 69.33365226458113 M 54.446221511395436 59.73002362123029 l 7.1171531387445 0 L 61.563374650139934 45.69289275875218 l -7.1171531387445 0 L 54.446221511395436 59.73002362123029 M 63.342662934826066 45.69289275875218 l 7.1171531387445 0 L 70.45981607357056 43.73997760092894 l -7.1171531387445 0 L 63.342662934826066 45.69289275875218 M 72.23910435825668 43.739881398211764 l 7.1171531387445 0 L 79.35625749700118 40.567885408864555 l -7.1171531387445 0 L 72.23910435825668 43.739881398211764 M 116.72131147540982 62.877968931293964 l 7.1171531387445 0 L 123.83846461415432 58.238208086631005 l -7.1171531387445 0 L 116.72131147540982 62.877968931293964 M 125.61775289884046 58.238208086631005 l 7.1171531387445 0 L 132.73490603758498 38.91185183611731 l -7.1171531387445 0 L 125.61775289884046 58.238208086631005 M 161.20351859256294 82.88043787782652 l 7.1171531387445 0 L 168.32067173130744 81.87300302399771 l -7.1171531387445 0 L 161.20351859256294 82.88043787782652 M 187.89284286285485 111.41695365861236 l 7.1171531387445 0 L 195.00999600159935 99.65934617862793 l -7.1171531387445 0 L 187.89284286285485 111.41695365861236 M 205.68572570971608 109.09019474200586 l 7.1171531387445 0 L 212.80287884846058 98.7273342550323 l -7.1171531387445 0 L 205.68572570971608 109.09019474200586 M 214.5821671331467 98.71319245561357 l 7.1171531387445 0 L 221.6993202718912 90.14643669753464 l -7.1171531387445 0 L 214.5821671331467 98.71319245561357 M 241.2714914034386 104.77011552637966 l 7.1171531387445 0 L 248.3886445421831 52.234581321157265 l -7.1171531387445 0 L 241.2714914034386 104.77011552637966 M 250.16793282686922 52.234581321157265 l 7.1171531387445 0 L 257.28508596561375 40.101494636198225 l -7.1171531387445 0 L 250.16793282686922 52.234581321157265 M 285.7536985205918 90.82485825876464 l 7.1171531387445 0 L 292.8708516593363 88.42642831789315 l -7.1171531387445 0 L 285.7536985205918 90.82485825876464 M 312.4430227908837 101.99053042022264 l 7.1171531387445 0 L 319.5601759296282 94.84632424040642 l -7.1171531387445 0 L 312.4430227908837 101.99053042022264 M 321.3394642143143 94.84632424040642 l 7.1171531387445 0 L 328.45661735305885 63.954862146893646 l -7.1171531387445 0 L 321.3394642143143 94.84632424040642 M 348.02878848460614 94.85652172842262 l 7.1171531387445 0 L 355.14594162335067 94.10816079183606 l -7.1171531387445 0 L 348.02878848460614 94.85652172842262 M 365.8216713314674 104.0171368593707 l 7.1171531387445 0 L 372.93882447021196 85.79614982872832 l -7.1171531387445 0 L 365.8216713314674 104.0171368593707 M 383.61455417832866 89.55806087954214 l 7.1171531387445 0 L 390.7317073170732 71.91765724680442 l -7.1171531387445 0 L 383.61455417832866 89.55806087954214 M 401.40743702518995 73.80428873252222 l 7.1171531387445 0 L 408.5245901639345 65.72691619650467 l -7.1171531387445 0 L 401.40743702518995 73.80428873252222 M 410.3038784486206 65.72691619650467 l 7.1171531387445 0 L 417.4210315873651 61.45917125899956 l -7.1171531387445 0 L 410.3038784486206 65.72691619650467 M 436.99320271891247 72.99262640806138 l 7.1171531387445 0 L 444.110355857657 59.89106696971288 l -7.1171531387445 0 L 436.99320271891247 72.99262640806138 M 445.8896441423431 59.89106696971288 l 7.1171531387445 0 L 453.00679728108764 54.901705450984394 l -7.1171531387445 0 L 445.8896441423431 59.89106696971288 M 454.7860855657737 54.901705450984394 l 7.1171531387445 0 L 461.90323870451823 44.2357102023212 l -7.1171531387445 0 L 454.7860855657737 54.901705450984394 M 463.68252698920435 44.2357102023212 l 7.1171531387445 0 L 470.7996801279489 41.140868792115526 l -7.1171531387445 0 L 463.68252698920435 44.2357102023212 M 472.57896841263494 41.140868792115526 l 7.1171531387445 0 L 479.69612155137946 39.23499676297095 l -7.1171531387445 0 L 472.57896841263494 41.140868792115526 M 481.47540983606564 39.23499676297095 l 7.1171531387445 0 L 488.59256297481016 16.949733541562097 l -7.1171531387445 0 L 481.47540983606564 39.23499676297095 M 490.3718512594962 16.949733541562097 l 7.1171531387445 0 L 497.48900439824075 14.11704453554708 l -7.1171531387445 0 L 490.3718512594962 16.949733541562097 M 499.2682926829268 14.11704453554708 l 7.1171531387445 0 L 506.38544582167134 11.109843800650623 l -7.1171531387445 0 L 499.2682926829268 14.11704453554708 M 525.9576169532187 29.62357569953224 l 7.1171531387445 0 L 533.0747700919632 22.18575882702254 l -7.1171531387445 0 L 525.9576169532187 29.62357569953224 M 543.75049980008 26.731337211611162 l 7.1171531387445 0 L 550.8676529388244 20.99419197259894 l -7.1171531387445 0 L 543.75049980008 26.731337211611162 M 552.6469412235106 20.994095769881795 l 7.1171531387445 0 L 559.764094362255 19.328345722703972 l -7.1171531387445 0 L 552.6469412235106 20.994095769881795 M 579.3362654938024 52.13385707631778 l 7.1171531387445 0 L 586.4534186325469 49.50059630292179 l -7.1171531387445 0 L 579.3362654938024 52.13385707631778 M 597.1291483406637 60.969595631503864 l 7.1171531387445 0 L 604.2463014794082 56.140700244955156 l -7.1171531387445 0 L 597.1291483406637 60.969595631503864 M 623.8184726109555 87.15183851858282 l 7.1171531387445 0 L 630.9356257497 81.91369677334541 l -7.1171531387445 0 L 623.8184726109555 87.15183851858282 M 632.7149140343862 81.91360057062833 l 7.1171531387445 0 L 639.8320671731307 71.5925882656081 l -7.1171531387445 0 L 632.7149140343862 81.91360057062833 M 650.5077968812475 83.18905619439283 l 7.1171531387445 0 L 657.624950019992 77.32521197691497 l -7.1171531387445 0 L 650.5077968812475 83.18905619439283 M 677.1971211515394 85.73130919737993 l 7.1171531387445 0 L 684.3142742902838 74.9275516577806 l -7.1171531387445 0 L 677.1971211515394 85.73130919737993 M 686.09356257497 74.9275516577806 l 7.1171531387445 0 L 693.2107157137144 68.26984261851169 l -7.1171531387445 0 L 686.09356257497 74.9275516577806 M 730.5757696921231 88.00650345760258 l 7.1171531387445 0 L 737.6929228308676 87.92453874260431 l -7.1171531387445 0 L 730.5757696921231 88.00650345760258 M 739.4722111155537 87.92463494532139 l 7.1171531387445 0 L 746.5893642542982 78.53563456389688 l -7.1171531387445 0 L 739.4722111155537 87.92463494532139 M 757.265093962415 100.79155595657976 l 7.1171531387445 0 L 764.3822471011595 89.9872212006776 l -7.1171531387445 0 L 757.265093962415 100.79155595657976 M 766.1615353858456 89.9872212006776 l 7.1171531387445 0 L 773.27868852459 85.1159966185899 l -7.1171531387445 0 L 766.1615353858456 89.9872212006776 M 792.8508596561375 105.42698767897163 l 7.1171531387445 0 L 799.9680127948819 97.36952910540091 l -7.1171531387445 0 L 792.8508596561375 105.42698767897163 M 801.747301079568 97.36952910540091 l 7.1171531387445 0 L 808.8644542183125 96.82300146936176 l -7.1171531387445 0 L 801.747301079568 97.36952910540091 M 819.5401839264293 104.48275801029999 l 7.1171531387445 0 L 826.6573370651738 85.6169241667074 l -7.1171531387445 0 L 819.5401839264293 104.48275801029999 M 872.9188324670131 178.1232443004123 l 7.1171531387445 0 L 880.0359856057576 169.0525787099847 l -7.1171531387445 0 L 872.9188324670131 178.1232443004123"></path><path class="candle body down" d="M 9.964014394242305 95.19303883295791 l 7.1171531387445 0 L 17.081167532986804 112.49250003617219 l -7.1171531387445 0 L 9.964014394242305 95.19303883295791 M 36.65333866453418 67.51445888357438 l 7.1171531387445 0 L 43.77049180327868 69.3337484672983 l -7.1171531387445 0 L 36.65333866453418 67.51445888357438 M 81.13554578168731 40.5679816115817 l 7.1171531387445 0 L 88.25269892043181 49.00755737760929 l -7.1171531387445 0 L 81.13554578168731 40.5679816115817 M 90.03198720511796 49.00755737760929 l 7.1171531387445 0 L 97.14914034386246 59.79871236126405 l -7.1171531387445 0 L 90.03198720511796 49.00755737760929 M 98.92842862854857 59.79871236126405 l 7.1171531387445 0 L 106.04558176729307 61.29812791051694 l -7.1171531387445 0 L 98.92842862854857 59.79871236126405 M 107.82487005197919 61.29812791051694 l 7.1171531387445 0 L 114.94202319072369 62.87787272857682 l -7.1171531387445 0 L 107.82487005197919 61.29812791051694 M 134.51419432227107 38.91194803883445 l 7.1171531387445 0 L 141.63134746101557 45.369940237332855 l -7.1171531387445 0 L 134.51419432227107 38.91194803883445 M 143.4106357457017 45.369940237332855 l 7.1171531387445 0 L 150.5277888844462 77.67346581294066 l -7.1171531387445 0 L 143.4106357457017 45.369940237332855 M 152.30707716913233 77.6733696102235 l 7.1171531387445 0 L 159.42423030787683 82.88053408054364 l -7.1171531387445 0 L 152.30707716913233 77.6733696102235 M 170.09996001599356 81.87300302399771 l 7.1171531387445 0 L 177.21711315473806 98.15319643917569 l -7.1171531387445 0 L 170.09996001599356 81.87300302399771 M 178.9964014394242 98.15319643917569 l 7.1171531387445 0 L 186.1135545781687 111.41695365861236 l -7.1171531387445 0 L 178.9964014394242 98.15319643917569 M 196.78928428628546 99.65934617862793 l 7.1171531387445 0 L 203.90643742502996 109.09029094472295 l -7.1171531387445 0 L 196.78928428628546 99.65934617862793 M 223.47860855657734 90.14653290025171 l 7.1171531387445 0 L 230.59576169532184 91.13203353457398 l -7.1171531387445 0 L 223.47860855657734 90.14653290025171 M 232.37504998000796 91.13193733185683 l 7.1171531387445 0 L 239.49220311875246 104.77021172909681 l -7.1171531387445 0 L 232.37504998000796 91.13193733185683 M 259.06437425029986 40.101494636198225 l 7.1171531387445 0 L 266.1815273890444 45.183114560658254 l -7.1171531387445 0 L 259.06437425029986 40.101494636198225 M 267.9608156737305 45.183018357941194 l 7.1171531387445 0 L 275.07796881247504 59.02649315082826 l -7.1171531387445 0 L 267.9608156737305 45.183018357941194 M 276.85725709716115 59.02649315082826 l 7.1171531387445 0 L 283.9744102359057 90.82476205604748 l -7.1171531387445 0 L 276.85725709716115 59.02649315082826 M 294.65013994402244 88.42633211517601 l 7.1171531387445 0 L 301.76729308276697 97.82687682265667 l -7.1171531387445 0 L 294.65013994402244 88.42633211517601 M 303.54658136745303 97.82697302537375 l 7.1171531387445 0 L 310.66373450619756 101.9906266229398 l -7.1171531387445 0 L 303.54658136745303 97.82697302537375 M 330.23590563774496 63.95495834961082 l 7.1171531387445 0 L 337.3530587764895 88.19515698590266 l -7.1171531387445 0 L 330.23590563774496 63.95495834961082 M 339.13234706117555 88.19506078318548 l 7.1171531387445 0 L 346.2495001999201 94.85652172842262 l -7.1171531387445 0 L 339.13234706117555 88.19506078318548 M 356.9252299080368 94.1082569945532 l 7.1171531387445 0 L 364.0423830467813 104.01723306208784 l -7.1171531387445 0 L 356.9252299080368 94.1082569945532 M 374.7181127548981 85.79614982872832 l 7.1171531387445 0 L 381.8352658936426 89.55806087954214 l -7.1171531387445 0 L 374.7181127548981 85.79614982872832 M 392.5109956017593 71.91756104408725 l 7.1171531387445 0 L 399.62814874050383 73.80419252980508 l -7.1171531387445 0 L 392.5109956017593 71.91756104408725 M 419.20031987205124 61.45917125899956 l 7.1171531387445 0 L 426.31747301079577 70.49279880333052 l -7.1171531387445 0 L 419.20031987205124 61.45917125899956 M 428.0967612954818 70.49279880333052 l 7.1171531387445 0 L 435.21391443422635 72.99272261077854 l -7.1171531387445 0 L 428.0967612954818 70.49279880333052 M 508.16473410635746 11.109940003367797 l 7.1171531387445 0 L 515.281887245102 14.638655667848468 l -7.1171531387445 0 L 508.16473410635746 11.109940003367797 M 517.0611755297881 14.638655667848468 l 7.1171531387445 0 L 524.1783286685326 29.623671902249384 l -7.1171531387445 0 L 517.0611755297881 14.638655667848468 M 534.8540583766493 22.18575882702254 l 7.1171531387445 0 L 541.9712115153937 26.73124100889399 l -7.1171531387445 0 L 534.8540583766493 22.18575882702254 M 561.5433826469413 19.328441925421146 l 7.1171531387445 0 L 568.6605357856857 29.746715177463926 l -7.1171531387445 0 L 561.5433826469413 19.328441925421146 M 570.4398240703717 29.74681138018107 l 7.1171531387445 0 L 577.5569772091162 52.13385707631778 l -7.1171531387445 0 L 570.4398240703717 29.74681138018107 M 588.232706917233 49.50050010020473 l 7.1171531387445 0 L 595.3498600559775 60.96969183422095 l -7.1171531387445 0 L 588.232706917233 49.50050010020473 M 606.0255897640943 56.1407964476723 l 7.1171531387445 0 L 613.1427429028388 61.86591634704271 l -7.1171531387445 0 L 606.0255897640943 56.1407964476723 M 614.9220311875249 61.86591634704271 l 7.1171531387445 0 L 622.0391843262694 87.15183851858282 l -7.1171531387445 0 L 614.9220311875249 61.86591634704271 M 641.6113554578168 71.59268446832525 l 7.1171531387445 0 L 648.7285085965613 83.18895999167574 l -7.1171531387445 0 L 641.6113554578168 71.59268446832525 M 659.4042383046781 77.32521197691497 l 7.1171531387445 0 L 666.5213914434225 78.99134683496136 l -7.1171531387445 0 L 659.4042383046781 77.32521197691497 M 668.3006797281087 78.99144303767851 l 7.1171531387445 0 L 675.4178328668531 85.73121299466276 l -7.1171531387445 0 L 668.3006797281087 78.99144303767851 M 694.9900039984005 68.26974641579454 l 7.1171531387445 0 L 702.107157137145 69.56848309710557 l -7.1171531387445 0 L 694.9900039984005 68.26974641579454 M 703.8864454218311 69.56848309710557 l 7.1171531387445 0 L 711.0035985605756 78.01681331039238 l -7.1171531387445 0 L 703.8864454218311 69.56848309710557 M 712.7828868452618 78.01681331039238 l 7.1171531387445 0 L 719.9000399840063 85.43240735524411 l -7.1171531387445 0 L 712.7828868452618 78.01681331039238 M 721.6793282686924 85.43231115252696 l 7.1171531387445 0 L 728.7964814074369 88.00659966031972 l -7.1171531387445 0 L 721.6793282686924 85.43231115252696 M 748.3686525389844 78.53563456389688 l 7.1171531387445 0 L 755.4858056777289 100.79145975386261 l -7.1171531387445 0 L 748.3686525389844 78.53563456389688 M 775.0579768092763 85.11609282130705 l 7.1171531387445 0 L 782.1751299480208 96.14044319129498 l -7.1171531387445 0 L 775.0579768092763 85.11609282130705 M 783.9544182327068 96.14044319129498 l 7.1171531387445 0 L 791.0715713714512 105.42698767897163 l -7.1171531387445 0 L 783.9544182327068 96.14044319129498 M 810.6437425029987 96.82300146936176 l 7.1171531387445 0 L 817.7608956417432 104.48275801029999 l -7.1171531387445 0 L 810.6437425029987 96.82300146936176 M 828.43662534986 85.6169241667074 l 7.1171531387445 0 L 835.5537784886045 115.79600513984177 l -7.1171531387445 0 L 828.43662534986 85.6169241667074 M 837.3330667732906 115.79600513984177 l 7.1171531387445 0 L 844.4502199120351 120.9832556477152 l -7.1171531387445 0 L 837.3330667732906 115.79600513984177 M 846.2295081967213 120.9832556477152 l 7.1171531387445 0 L 853.3466613354658 126.1914783479238 l -7.1171531387445 0 L 846.2295081967213 120.9832556477152 M 855.1259496201519 126.19138214520665 l 7.1171531387445 0 L 862.2431027588964 139.9868517822438 l -7.1171531387445 0 L 855.1259496201519 126.19138214520665 M 864.0223910435824 139.98694798496098 l 7.1171531387445 0 L 871.1395441823269 178.10323413524839 l -7.1171531387445 0 L 864.0223910435824 139.98694798496098 M 881.8152738904437 169.0524825072675 l 7.1171531387445 0 L 888.9324270291881 192.5152669863983 l -7.1171531387445 0 L 881.8152738904437 169.0524825072675"></path><path class="candle body equal"></path><path class="candle wick up" d="M 4.626149540183927 89.70361559056614 L 4.626149540183927 95.19303883295791 M 4.626149540183927 97.38347849938533 L 4.626149540183927 101.87518336237883 M 22.41903238704518 107.77240992270224 L 22.41903238704518 108.4976822071766 M 22.41903238704518 112.49240383345503 L 22.41903238704518 118.71065886085513 M 31.315473810475808 65.58434376971186 L 31.315473810475808 67.48992719070515 M 31.315473810475808 108.4941227066426 L 31.315473810475808 111.23830521289423 M 49.10835665733706 57.08319826471845 L 49.10835665733706 59.73002362123029 M 49.10835665733706 69.33365226458113 L 49.10835665733706 71.89302935121808 M 58.004798080767685 39.3386070893244 L 58.004798080767685 45.69289275875218 M 58.004798080767685 59.73002362123029 L 58.004798080767685 66.80111573602463 M 66.90123950419832 29.800107685473392 L 66.90123950419832 43.73997760092894 M 66.90123950419832 45.69289275875218 L 66.90123950419832 56.986995547584286 M 75.79768092762893 36.46695598287002 L 75.79768092762893 40.567885408864555 M 75.79768092762893 43.739881398211764 L 75.79768092762893 52.639402354857765 M 120.27988804478207 55.28997961733785 L 120.27988804478207 58.238208086631005 M 120.27988804478207 62.877968931293964 L 120.27988804478207 67.71783142759597 M 129.1763294682127 36.92488091642855 L 129.1763294682127 38.91185183611731 M 129.1763294682127 58.238208086631005 L 129.1763294682127 59.28595187893907 M 164.7620951619352 78.36016080784418 L 164.7620951619352 81.87300302399771 M 164.7620951619352 82.88043787782652 L 164.7620951619352 86.10726941594021 M 191.4514194322271 97.74808679732378 L 191.4514194322271 99.65934617862793 M 191.4514194322271 111.41695365861236 L 191.4514194322271 117.74863168951363 M 209.24430227908834 84.14502259455492 L 209.24430227908834 98.7273342550323 M 209.24430227908834 109.09019474200586 L 209.24430227908834 137.25584904823958 M 218.14074370251896 85.67916732469322 L 218.14074370251896 90.14643669753464 M 218.14074370251896 98.71319245561357 L 218.14074370251896 101.73694005785703 M 244.83006797281087 41.980910918131 L 244.83006797281087 52.234581321157265 M 244.83006797281087 104.77011552637966 L 244.83006797281087 107.16469735856583 M 253.72650939624148 35.02391522585776 L 253.72650939624148 40.101494636198225 M 253.72650939624148 52.234581321157265 L 253.72650939624148 55.60186882628676 M 289.31227508996403 86.35537622342918 L 289.31227508996403 88.42642831789315 M 289.31227508996403 90.82485825876464 L 289.31227508996403 97.95405681470804 M 316.0015993602559 88.77160366697045 L 316.0015993602559 94.84632424040642 M 316.0015993602559 101.99053042022264 L 316.0015993602559 103.14842632364929 M 324.89804078368655 57.67907789464738 L 324.89804078368655 63.954862146893646 M 324.89804078368655 94.84632424040642 L 324.89804078368655 95.55995599610756 M 351.5873650539784 87.57262920332758 L 351.5873650539784 94.10816079183606 M 351.5873650539784 94.85652172842262 L 351.5873650539784 95.52080149023396 M 369.38024790083966 83.14335990375412 L 369.38024790083966 85.79614982872832 M 369.38024790083966 104.0171368593707 L 369.38024790083966 106.1562042748485 M 387.1731307477009 66.10701313190174 L 387.1731307477009 71.91765724680442 M 387.1731307477009 89.55806087954214 L 387.1731307477009 93.9049806532487 M 404.9660135945622 60.26731579642458 L 404.9660135945622 65.72691619650467 M 404.9660135945622 73.80428873252222 L 404.9660135945622 81.3355184433692 M 413.86245501799283 59.545987823352675 L 413.86245501799283 61.45917125899956 M 413.86245501799283 65.72691619650467 L 413.86245501799283 68.21106275834273 M 440.5517792882847 50.30090670676083 L 440.5517792882847 59.89106696971288 M 440.5517792882847 72.99262640806138 L 440.5517792882847 74.21199584773674 M 449.44822071171535 53.524082541623414 L 449.44822071171535 54.901705450984394 M 449.44822071171535 59.89106696971288 L 449.44822071171535 65.78502263765373 M 458.34466213514594 42.0285312631124 L 458.34466213514594 44.2357102023212 M 458.34466213514594 54.901705450984394 L 458.34466213514594 58.00231902421811 M 467.2411035585766 33.62762898937271 L 467.2411035585766 41.140868792115526 M 467.2411035585766 44.2357102023212 L 467.2411035585766 48.20368747323636 M 476.13754498200717 36.52477381586766 L 476.13754498200717 39.23499676297095 M 476.13754498200717 41.140868792115526 L 476.13754498200717 43.461182126674146 M 485.0339864054379 15.30235821335694 L 485.0339864054379 16.949733541562097 M 485.0339864054379 39.23499676297095 L 485.0339864054379 40.09899336555273 M 493.93042782886846 3.846153846153811 L 493.93042782886846 14.11704453554708 M 493.93042782886846 16.949733541562097 L 493.93042782886846 18.529382156904887 M 502.82686925229905 4.74439861603534 L 502.82686925229905 11.109843800650623 M 502.82686925229905 14.11704453554708 L 502.82686925229905 15.765574296357869 M 529.5161935225909 17.985548196945558 L 529.5161935225909 22.18575882702254 M 529.5161935225909 29.62357569953224 L 529.5161935225909 42.22949873920561 M 547.3090763694522 11.020279070998754 L 547.3090763694522 20.99419197259894 M 547.3090763694522 26.731337211611162 L 547.3090763694522 29.42568671038731 M 556.2055177928828 16.344137437202676 L 556.2055177928828 19.328345722703972 M 556.2055177928828 20.994095769881795 L 556.2055177928828 33.398089306290615 M 582.8948420631747 45.106056184233864 L 582.8948420631747 49.50059630292179 M 582.8948420631747 52.13385707631778 L 582.8948420631747 56.39679187796628 M 600.687724910036 55.69787913798666 L 600.687724910036 56.140700244955156 M 600.687724910036 60.969595631503864 L 600.687724910036 62.18694481411936 M 627.3770491803277 75.91007000787164 L 627.3770491803277 81.91369677334541 M 627.3770491803277 87.15183851858282 L 627.3770491803277 89.80530186257694 M 636.2734906037584 67.61441350667675 L 636.2734906037584 71.5925882656081 M 636.2734906037584 81.91360057062833 L 636.2734906037584 86.59299693475049 M 654.0663734506197 74.26154024706084 L 654.0663734506197 77.32521197691497 M 654.0663734506197 83.18905619439283 L 654.0663734506197 84.88193540780249 M 680.7556977209116 71.89139390502675 L 680.7556977209116 74.9275516577806 M 680.7556977209116 85.73130919737993 L 680.7556977209116 96.7138113854145 M 689.6521391443422 65.70296171993832 L 689.6521391443422 68.26984261851169 M 689.6521391443422 74.9275516577806 L 689.6521391443422 77.14146478718877 M 734.1343462614954 83.21185623835365 L 734.1343462614954 87.92453874260431 M 734.1343462614954 88.00650345760258 L 734.1343462614954 92.93198637215391 M 743.0307876849259 76.70855256008508 L 743.0307876849259 78.53563456389688 M 743.0307876849259 87.92463494532139 L 743.0307876849259 99.95112901969583 M 760.8236705317872 87.6879762611714 L 760.8236705317872 89.9872212006776 M 760.8236705317872 100.79155595657976 L 760.8236705317872 103.01701341204408 M 769.7201119552178 79.04983808697894 L 769.7201119552178 85.1159966185899 M 769.7201119552178 89.9872212006776 L 769.7201119552178 93.39558726602341 M 796.4094362255097 95.38149995582368 L 796.4094362255097 97.36952910540091 M 796.4094362255097 105.42698767897163 L 796.4094362255097 107.77837449116458 M 805.3058776489403 90.64505538044094 L 805.3058776489403 96.82300146936176 M 805.3058776489403 97.36952910540091 L 805.3058776489403 101.37492923328124 M 823.0987604958016 82.40596607692092 L 823.0987604958016 85.6169241667074 M 823.0987604958016 104.48275801029999 L 823.0987604958016 105.04987302780579 M 876.4774090363853 153.25715078644564 L 876.4774090363853 169.0525787099847 M 876.4774090363853 178.1232443004123 L 876.4774090363853 181.43098232363576" style="stroke-width: 1px;"></path><path class="candle wick down" d="M 13.522590963614554 93.64100039743263 L 13.522590963614554 95.19303883295791 M 13.522590963614554 112.49250003617219 L 13.522590963614554 115.46910830701997 M 40.21191523390643 64.22442216030353 L 40.21191523390643 67.51445888357438 M 40.21191523390643 69.3337484672983 L 40.21191523390643 74.52465467842273 M 84.69412235105956 26.635038291759827 L 84.69412235105956 40.5679816115817 M 84.69412235105956 49.00755737760929 L 84.69412235105956 52.09980131445229 M 93.5905637744902 44.923174818961826 L 93.5905637744902 49.00755737760929 M 93.5905637744902 59.79871236126405 L 93.5905637744902 63.98564701637656 M 102.48700519792082 53.00910939680432 L 102.48700519792082 59.79871236126405 M 102.48700519792082 61.29812791051694 L 102.48700519792082 66.3871554441964 M 111.38344662135144 56.08269000652325 L 111.38344662135144 61.29812791051694 M 111.38344662135144 62.87787272857682 L 111.38344662135144 64.64473183146265 M 138.07277089164333 38.862692247661755 L 138.07277089164333 38.91194803883445 M 138.07277089164333 45.369940237332855 L 138.07277089164333 50.820401379285244 M 146.96921231507397 42.56899812797204 L 146.96921231507397 45.369940237332855 M 146.96921231507397 77.67346581294066 L 146.96921231507397 81.93033984340966 M 155.8656537385046 73.40033352327595 L 155.8656537385046 77.6733696102235 M 155.8656537385046 82.88053408054364 L 155.8656537385046 87.92578937792703 M 173.65853658536582 81.42787305181795 L 173.65853658536582 81.87300302399771 M 173.65853658536582 98.15319643917569 L 173.65853658536582 101.87518336237883 M 182.55497800879647 87.49913032743709 L 182.55497800879647 98.15319643917569 M 182.55497800879647 111.41695365861236 L 182.55497800879647 113.41950941847686 M 200.34786085565773 89.85051713962997 L 200.34786085565773 99.65934617862793 M 200.34786085565773 109.09029094472295 L 200.34786085565773 111.14152527945731 M 227.0371851259496 79.28245625700931 L 227.0371851259496 90.14653290025171 M 227.0371851259496 91.13203353457398 L 227.0371851259496 96.3610360216836 M 235.93362654938022 84.02284514379457 L 235.93362654938022 91.13193733185683 M 235.93362654938022 104.77021172909681 L 235.93362654938022 111.49545507579386 M 262.6229508196721 30.685172683107567 L 262.6229508196721 40.101494636198225 M 262.6229508196721 45.183114560658254 L 262.6229508196721 50.559788218568855 M 271.51939224310274 43.18075120622805 L 271.51939224310274 45.183018357941194 M 271.51939224310274 59.02649315082826 L 271.51939224310274 65.00760848049268 M 280.4158336665334 58.3213272342349 L 280.4158336665334 59.02649315082826 M 280.4158336665334 90.82476205604748 L 280.4158336665334 96.58403392000055 M 298.2087165133947 85.57969371517649 L 298.2087165133947 88.42633211517601 M 298.2087165133947 97.82687682265667 L 298.2087165133947 101.02311589672166 M 307.10515793682526 86.98713946684913 L 307.10515793682526 97.82697302537375 M 307.10515793682526 101.9906266229398 L 307.10515793682526 110.00431296021452 M 333.7944822071172 63.01284514071608 L 333.7944822071172 63.95495834961082 M 333.7944822071172 88.19515698590266 L 333.7944822071172 96.6828341104973 M 342.6909236305478 80.3617545405373 L 342.6909236305478 88.19506078318548 M 342.6909236305478 94.85652172842262 L 342.6909236305478 99.72409060725924 M 360.483806477409 89.27262741780513 L 360.483806477409 94.1082569945532 M 360.483806477409 104.01723306208784 L 360.483806477409 105.93003168686612 M 378.2766893242703 83.71586227341948 L 378.2766893242703 85.79614982872832 M 378.2766893242703 89.55806087954214 L 378.2766893242703 100.9292220447987 M 396.06957217113154 68.40798972031635 L 396.06957217113154 71.91756104408725 M 396.06957217113154 73.80419252980508 L 396.06957217113154 77.82450407884124 M 422.7588964414235 60.54399481090235 L 422.7588964414235 61.45917125899956 M 422.7588964414235 70.49279880333052 L 422.7588964414235 73.87057240462767 M 431.65533786485406 67.77882395025898 L 431.65533786485406 70.49279880333052 M 431.65533786485406 72.99272261077854 L 431.65533786485406 78.13292998997329 M 511.7233106757297 8.55643128247604 L 511.7233106757297 11.109940003367797 M 511.7233106757297 14.638655667848468 L 511.7233106757297 20.62794822846925 M 520.6197520991603 9.520574913594515 L 520.6197520991603 14.638655667848468 M 520.6197520991603 29.623671902249384 L 520.6197520991603 32.609227025790574 M 538.4126349460215 13.243620066686105 L 538.4126349460215 22.18575882702254 M 538.4126349460215 26.73124100889399 L 538.4126349460215 28.568712906156293 M 565.1019592163135 13.368683598960502 L 565.1019592163135 19.328441925421146 M 565.1019592163135 29.746715177463926 L 565.1019592163135 31.129533033550246 M 573.998400639744 29.65445677173227 L 573.998400639744 29.74681138018107 M 573.998400639744 52.13385707631778 L 573.998400639744 52.60977191798045 M 591.7912834866053 44.43619666482874 L 591.7912834866053 49.50050010020473 M 591.7912834866053 60.96969183422095 L 591.7912834866053 62.36338059734342 M 609.5841663334666 49.82662731128943 L 609.5841663334666 56.1407964476723 M 609.5841663334666 61.86591634704271 L 609.5841663334666 64.66397237488948 M 618.4806077568971 59.40447362644835 L 618.4806077568971 61.86591634704271 M 618.4806077568971 87.15183851858282 L 618.4806077568971 90.33085730628079 M 645.169932027189 68.20423236542621 L 645.169932027189 71.59268446832525 M 645.169932027189 83.18895999167574 L 645.169932027189 86.94509887946147 M 662.9628148740503 75.81050019563781 L 662.9628148740503 77.32521197691497 M 662.9628148740503 78.99134683496136 L 662.9628148740503 82.7159312315271 M 671.8592562974809 76.90413268401883 L 671.8592562974809 78.99144303767851 M 671.8592562974809 85.73121299466276 L 671.8592562974809 87.00060784724792 M 698.5485805677728 61.479662437749084 L 698.5485805677728 68.26974641579454 M 698.5485805677728 69.56848309710557 L 698.5485805677728 74.74601713054842 M 707.4450219912034 54.00471131642561 L 707.4450219912034 69.56848309710557 M 707.4450219912034 78.01681331039238 L 707.4450219912034 85.0300875921891 M 716.3414634146341 74.98594670708103 L 716.3414634146341 78.01681331039238 M 716.3414634146341 85.43240735524411 L 716.3414634146341 90.55212355568933 M 725.2379048380647 82.82704536981707 L 725.2379048380647 85.43231115252696 M 725.2379048380647 88.00659966031972 L 725.2379048380647 89.51313421064052 M 751.9272291083566 74.96430109572584 L 751.9272291083566 78.53563456389688 M 751.9272291083566 100.79145975386261 L 751.9272291083566 104.739523062331 M 778.6165533786485 83.35375524612654 L 778.6165533786485 85.11609282130705 M 778.6165533786485 96.14044319129498 L 778.6165533786485 100.19163581253119 M 787.512994802079 94.2234116469628 L 787.512994802079 96.14044319129498 M 787.512994802079 105.42698767897163 L 787.512994802079 105.93301397109731 M 814.202319072371 95.60748013837177 L 814.202319072371 96.82300146936176 M 814.202319072371 104.48275801029999 L 814.202319072371 106.51407838258753 M 831.9952019192323 84.12087571255422 L 831.9952019192323 85.6169241667074 M 831.9952019192323 115.79600513984177 L 831.9952019192323 125.23416510972186 M 840.8916433426629 114.61598261147432 L 840.8916433426629 115.79600513984177 M 840.8916433426629 120.9832556477152 L 840.8916433426629 128.25396840056283 M 849.7880847660936 119.70828103753625 L 849.7880847660936 120.9832556477152 M 849.7880847660936 126.1914783479238 L 849.7880847660936 132.80435692100815 M 858.6845261895241 125.78906238215164 L 858.6845261895241 126.19138214520665 M 858.6845261895241 139.9868517822438 L 858.6845261895241 143.10814893966136 M 867.5809676129546 138.01710114892208 L 867.5809676129546 139.98694798496098 M 867.5809676129546 178.10323413524839 L 867.5809676129546 178.51671341349095 M 885.3738504598159 158.03265366498488 L 885.3738504598159 169.0524825072675 M 885.3738504598159 192.5152669863983 L 885.3738504598159 196.15384615384616" style="stroke-width: 1px;"></path><path class="candle wick equal" style="stroke-width: 1px;"></path></g></g><g class="x axis" transform="translate(0,200)" fill="none" font-size="10" font-family="sans-serif" text-anchor="middle"><path class="domain" stroke="#000" d="M0.5,6V0.5H890.5V6"></path><g class="tick" opacity="1" transform="translate(58.004798080767685,0)"><line stroke="#000" y2="6" x1="0.5" x2="0.5"></line><text fill="#000" y="9" x="0.5" dy="0.71em">Feb  7</text></g><g class="tick" opacity="1" transform="translate(120.27988804478207,0)"><line stroke="#000" y2="6" x1="0.5" x2="0.5"></line><text fill="#000" y="9" x="0.5" dy="0.71em">Feb 14</text></g><g class="tick" opacity="1" transform="translate(182.55497800879647,0)"><line stroke="#000" y2="6" x1="0.5" x2="0.5"></line><text fill="#000" y="9" x="0.5" dy="0.71em">Feb 21</text></g><g class="tick" opacity="1" transform="translate(244.83006797281087,0)"><line stroke="#000" y2="6" x1="0.5" x2="0.5"></line><text fill="#000" y="9" x="0.5" dy="0.71em">Feb 28</text></g><g class="tick" opacity="1" transform="translate(307.10515793682526,0)"><line stroke="#000" y2="6" x1="0.5" x2="0.5"></line><text fill="#000" y="9" x="0.5" dy="0.71em">Mar  7</text></g><g class="tick" opacity="1" transform="translate(369.38024790083966,0)"><line stroke="#000" y2="6" x1="0.5" x2="0.5"></line><text fill="#000" y="9" x="0.5" dy="0.71em">Mar 14</text></g><g class="tick" opacity="1" transform="translate(431.65533786485406,0)"><line stroke="#000" y2="6" x1="0.5" x2="0.5"></line><text fill="#000" y="9" x="0.5" dy="0.71em">Mar 21</text></g><g class="tick" opacity="1" transform="translate(493.93042782886846,0)"><line stroke="#000" y2="6" x1="0.5" x2="0.5"></line><text fill="#000" y="9" x="0.5" dy="0.71em">Mar 28</text></g><g class="tick" opacity="1" transform="translate(556.2055177928828,0)"><line stroke="#000" y2="6" x1="0.5" x2="0.5"></line><text fill="#000" y="9" x="0.5" dy="0.71em">Apr  4</text></g><g class="tick" opacity="1" transform="translate(618.4806077568971,0)"><line stroke="#000" y2="6" x1="0.5" x2="0.5"></line><text fill="#000" y="9" x="0.5" dy="0.71em">Apr 11</text></g><g class="tick" opacity="1" transform="translate(680.7556977209116,0)"><line stroke="#000" y2="6" x1="0.5" x2="0.5"></line><text fill="#000" y="9" x="0.5" dy="0.71em">Apr 18</text></g><g class="tick" opacity="1" transform="translate(743.0307876849259,0)"><line stroke="#000" y2="6" x1="0.5" x2="0.5"></line><text fill="#000" y="9" x="0.5" dy="0.71em">Apr 25</text></g><g class="tick" opacity="1" transform="translate(805.3058776489403,0)"><line stroke="#000" y2="6" x1="0.5" x2="0.5"></line><text fill="#000" y="9" x="0.5" dy="0.71em">May  2</text></g><g class="tick" opacity="1" transform="translate(867.5809676129546,0)"><line stroke="#000" y2="6" x1="0.5" x2="0.5"></line><text fill="#000" y="9" x="0.5" dy="0.71em">May  9</text></g></g><g class="y axis" fill="none" font-size="10" font-family="sans-serif" text-anchor="end"><path class="domain" stroke="#000" d="M-6,200.5H0.5V0.5H-6"></path><g class="tick" opacity="1" transform="translate(0,198.07790049652917)"><line stroke="#000" x2="-6" y1="0.5" y2="0.5"></line><text fill="#000" x="-9" y="0.5" dy="0.32em">28,000</text></g><g class="tick" opacity="1" transform="translate(0,178.8373570696991)"><line stroke="#000" x2="-6" y1="0.5" y2="0.5"></line><text fill="#000" x="-9" y="0.5" dy="0.32em">30,000</text></g><g class="tick" opacity="1" transform="translate(0,159.59681364286902)"><line stroke="#000" x2="-6" y1="0.5" y2="0.5"></line><text fill="#000" x="-9" y="0.5" dy="0.32em">32,000</text></g><g class="tick" opacity="1" transform="translate(0,140.35627021603895)"><line stroke="#000" x2="-6" y1="0.5" y2="0.5"></line><text fill="#000" x="-9" y="0.5" dy="0.32em">34,000</text></g><g class="tick" opacity="1" transform="translate(0,121.11572678920889)"><line stroke="#000" x2="-6" y1="0.5" y2="0.5"></line><text fill="#000" x="-9" y="0.5" dy="0.32em">36,000</text></g><g class="tick" opacity="1" transform="translate(0,101.87518336237883)"><line stroke="#000" x2="-6" y1="0.5" y2="0.5"></line><text fill="#000" x="-9" y="0.5" dy="0.32em">38,000</text></g><g class="tick" opacity="1" transform="translate(0,82.63463993554876)"><line stroke="#000" x2="-6" y1="0.5" y2="0.5"></line><text fill="#000" x="-9" y="0.5" dy="0.32em">40,000</text></g><g class="tick" opacity="1" transform="translate(0,63.39409650871869)"><line stroke="#000" x2="-6" y1="0.5" y2="0.5"></line><text fill="#000" x="-9" y="0.5" dy="0.32em">42,000</text></g><g class="tick" opacity="1" transform="translate(0,44.15355308188862)"><line stroke="#000" x2="-6" y1="0.5" y2="0.5"></line><text fill="#000" x="-9" y="0.5" dy="0.32em">44,000</text></g><g class="tick" opacity="1" transform="translate(0,24.913009655058573)"><line stroke="#000" x2="-6" y1="0.5" y2="0.5"></line><text fill="#000" x="-9" y="0.5" dy="0.32em">46,000</text></g><g class="tick" opacity="1" transform="translate(0,5.672466228228473)"><line stroke="#000" x2="-6" y1="0.5" y2="0.5"></line><text fill="#000" x="-9" y="0.5" dy="0.32em">48,000</text></g><text transform="rotate(-90)" y="6" dy=".71em" style="text-anchor: end;">Price ($)</text></g></g></svg>