<?xml version="1.0" encoding="utf-8"?>
<!DOCTYPE svg PUBLIC "-//W3C//DTD SVG 1.1//EN" "http://www.w3.org/Graphics/SVG/1.1/DTD/svg11.dtd">
<svg version="1.1" xmlns="http://www.w3.org/2000/svg" width="960" height="250"><g transform="translate(50,20)"><style>.axis path,.axis line{fill:none;stroke:#000;shape-rendering:crispEdges;}path.candle{stroke:#000000;}path.candle.body{stroke-width:0;}path.candle.up{fill:#00AA00;stroke:#00AA00;}path.candle.down{fill:#FF0000;stroke:#FF0000;}</style><g class="candlestick"><g class="data"><path class="candle body up" d="M 9.964014394242305 185.41811960374073 l 7.1171531387445 0 L 17.081167532986804 184.72371764283648 l -7.1171531387445 0 L 9.964014394242305 185.41811960374073 M 18.860455817672932 184.72371764283648 l 7.1171531387445 0 L 25.977608956417434 183.40592920678813 l -7.1171531387445 0 L 18.860455817672932 184.72371764283648 M 45.54978008796481 193.54192411692014 l 7.1171531387445 0 L 52.66693322670931 181.54030702344684 l -7.1171531387445 0 L 45.54978008796481 193.54192411692014 M 54.446221511395436 181.54030702344684 l 7.1171531387445 0 L 61.563374650139934 180.80965810606338 l -7.1171531387445 0 L 54.446221511395436 181.54030702344684 M 63.342662934826066 180.8109326122687 l 7.1171531387445 0 L 70.45981607357056 173.94639121018955 l -7.1171531387445 0 L 63.342662934826066 180.8109326122687 M 72.23910435825668 173.9463402299413 l 7.1171531387445 0 L 79.35625749700118 170.7649688204802 l -7.1171531387445 0 L 72.23910435825668 173.9463402299413 M 81.13554578168731 170.74778847683254 l 7.1171531387445 0 L 88.25269892043181 165.04049870918016 l -7.1171531387445 0 L 81.13554578168731 170.74778847683254 M 90.03198720511796 165.04049870918016 l 7.1171531387445 0 L 97.14914034386246 155.5756077865192 l -7.1171531387445 0 L 90.03198720511796 165.04049870918016 M 98.92842862854857 155.55659215393587 l 7.1171531387445 0 L 106.04558176729307 144.25661621661303 l -7.1171531387445 0 L 98.92842862854857 155.55659215393587 M 107.82487005197919 144.26303972788784 l 7.1171531387445 0 L 114.94202319072369 141.3931066547577 l -7.1171531387445 0 L 107.82487005197919 144.26303972788784 M 125.61775289884046 141.39856154131647 l 7.1171531387445 0 L 132.73490603758498 130.244694995371 l -7.1171531387445 0 L 125.61775289884046 141.39856154131647 M 170.09996001599356 150.63337860379374 l 7.1171531387445 0 L 177.21711315473806 142.90405925128368 l -7.1171531387445 0 L 170.09996001599356 150.63337860379374 M 178.9964014394242 142.90411023153192 l 7.1171531387445 0 L 186.1135545781687 137.0959815329149 l -7.1171531387445 0 L 178.9964014394242 142.90411023153192 M 187.89284286285485 137.0959815329149 l 7.1171531387445 0 L 195.00999600159935 127.03039034556451 l -7.1171531387445 0 L 187.89284286285485 137.0959815329149 M 196.78928428628546 127.03039034556451 l 7.1171531387445 0 L 203.90643742502996 118.18190160404254 l -7.1171531387445 0 L 196.78928428628546 127.03039034556451 M 214.5821671331467 122.14908255945318 l 7.1171531387445 0 L 221.6993202718912 109.61283560297399 l -7.1171531387445 0 L 214.5821671331467 122.14908255945318 M 250.16793282686922 119.06120892521405 l 7.1171531387445 0 L 257.28508596561375 101.72823041440826 l -7.1171531387445 0 L 250.16793282686922 119.06120892521405 M 294.65013994402244 117.55275436085046 l 7.1171531387445 0 L 301.76729308276697 117.50513880901985 l -7.1171531387445 0 L 294.65013994402244 117.55275436085046 M 303.54658136745303 117.53531911596171 l 7.1171531387445 0 L 310.66373450619756 107.02701545313285 l -7.1171531387445 0 L 303.54658136745303 117.53531911596171 M 312.4430227908837 107.02701545313285 l 7.1171531387445 0 L 319.5601759296282 93.9666405647796 l -7.1171531387445 0 L 312.4430227908837 107.02701545313285 M 330.23590563774496 96.51866081005578 l 7.1171531387445 0 L 337.3530587764895 94.39105113114977 l -7.1171531387445 0 L 330.23590563774496 96.51866081005578 M 339.13234706117555 94.39105113114977 l 7.1171531387445 0 L 346.2495001999201 93.11843119501783 l -7.1171531387445 0 L 339.13234706117555 94.39105113114977 M 356.9252299080368 102.3705305616392 l 7.1171531387445 0 L 364.0423830467813 95.74661593112366 l -7.1171531387445 0 L 356.9252299080368 102.3705305616392 M 374.7181127548981 106.6026558670109 l 7.1171531387445 0 L 381.8352658936426 95.25424869388605 l -7.1171531387445 0 L 374.7181127548981 106.6026558670109 M 410.3038784486206 105.89377551561424 l 7.1171531387445 0 L 417.4210315873651 105.29231054720162 l -7.1171531387445 0 L 410.3038784486206 105.89377551561424 M 419.20031987205124 105.29231054720162 l 7.1171531387445 0 L 426.31747301079577 96.57657437202533 l -7.1171531387445 0 L 419.20031987205124 105.29231054720162 M 428.0967612954818 96.57662535227351 l 7.1171531387445 0 L 435.21391443422635 94.35322378697599 l -7.1171531387445 0 L 428.0967612954818 96.57662535227351 M 436.99320271891247 94.35327476722422 l 7.1171531387445 0 L 444.110355857657 90.51696010897541 l -7.1171531387445 0 L 436.99320271891247 94.35327476722422 M 454.7860855657737 90.93295893439048 l 7.1171531387445 0 L 461.90323870451823 81.55595795964814 l -7.1171531387445 0 L 454.7860855657737 90.93295893439048 M 463.68252698920435 81.55595795964814 l 7.1171531387445 0 L 470.7996801279489 76.93194748626593 l -7.1171531387445 0 L 463.68252698920435 81.55595795964814 M 490.3718512594962 110.65838951356689 l 7.1171531387445 0 L 497.48900439824075 108.89024156480815 l -7.1171531387445 0 L 490.3718512594962 110.65838951356689 M 508.16473410635746 116.80716823074071 l 7.1171531387445 0 L 515.281887245102 115.11722398274014 l -7.1171531387445 0 L 508.16473410635746 116.80716823074071 M 517.0611755297881 115.11727496298836 l 7.1171531387445 0 L 524.1783286685326 110.77600094619343 l -7.1171531387445 0 L 517.0611755297881 115.11727496298836 M 534.8540583766493 116.30491082534984 l 7.1171531387445 0 L 541.9712115153937 105.2381185433516 l -7.1171531387445 0 L 534.8540583766493 116.30491082534984 M 543.75049980008 105.2801262678788 l 7.1171531387445 0 L 550.8676529388244 100.08967425660602 l -7.1171531387445 0 L 543.75049980008 105.2801262678788 M 570.4398240703717 104.2773447855363 l 7.1171531387445 0 L 577.5569772091162 99.21622966397902 l -7.1171531387445 0 L 570.4398240703717 104.2773447855363 M 606.0255897640943 137.75041497922047 l 7.1171531387445 0 L 613.1427429028388 123.42741228338494 l -7.1171531387445 0 L 606.0255897640943 137.75041497922047 M 614.9220311875249 123.41334173487824 l 7.1171531387445 0 L 622.0391843262694 116.68960777836236 l -7.1171531387445 0 L 614.9220311875249 123.41334173487824 M 641.6113554578168 127.87788599185134 l 7.1171531387445 0 L 648.7285085965613 125.37847736273059 l -7.1171531387445 0 L 641.6113554578168 127.87788599185134 M 668.3006797281087 136.26729759821853 l 7.1171531387445 0 L 675.4178328668531 133.72200674570647 l -7.1171531387445 0 L 668.3006797281087 136.26729759821853 M 677.1971211515394 133.72195576545823 l 7.1171531387445 0 L 684.3142742902838 121.99746730126883 l -7.1171531387445 0 L 677.1971211515394 133.72195576545823 M 686.09356257497 122.01831822278777 l 7.1171531387445 0 L 693.2107157137144 99.98669415521653 l -7.1171531387445 0 L 686.09356257497 122.01831822278777 M 703.8864454218311 102.56996529264704 l 7.1171531387445 0 L 711.0035985605756 99.68896950565474 l -7.1171531387445 0 L 703.8864454218311 102.56996529264704 M 712.7828868452618 99.68896950565474 l 7.1171531387445 0 L 719.9000399840063 94.4638509255974 l -7.1171531387445 0 L 712.7828868452618 99.68896950565474 M 721.6793282686924 94.46390190584562 l 7.1171531387445 0 L 728.7964814074369 83.00833425097782 l -7.1171531387445 0 L 721.6793282686924 94.46390190584562 M 730.5757696921231 83.00833425097782 l 7.1171531387445 0 L 737.6929228308676 63.416573882614955 l -7.1171531387445 0 L 730.5757696921231 83.00833425097782 M 748.3686525389844 71.215430293687 l 7.1171531387445 0 L 755.4858056777289 70.36808758814487 l -7.1171531387445 0 L 748.3686525389844 71.215430293687 M 757.265093962415 70.34647196290274 l 7.1171531387445 0 L 764.3822471011595 65.27878038932599 l -7.1171531387445 0 L 757.265093962415 70.34647196290274 M 775.0579768092763 66.7608271851154 l 7.1171531387445 0 L 782.1751299480208 52.42344805928394 l -7.1171531387445 0 L 775.0579768092763 66.7608271851154 M 792.8508596561375 59.9401797767473 l 7.1171531387445 0 L 799.9680127948819 52.95542694938277 l -7.1171531387445 0 L 792.8508596561375 59.9401797767473 M 810.6437425029987 53.05259530247602 l 7.1171531387445 0 L 817.7608956417432 31.006288923419532 l -7.1171531387445 0 L 810.6437425029987 53.05259530247602 M 828.43662534986 35.068650002243146 l 7.1171531387445 0 L 835.5537784886045 31.74086331991532 l -7.1171531387445 0 L 828.43662534986 35.068650002243146 M 837.3330667732906 31.74091430016358 l 7.1171531387445 0 L 844.4502199120351 29.286113388228898 l -7.1171531387445 0 L 837.3330667732906 31.74091430016358 M 846.2295081967213 29.30772901347106 l 7.1171531387445 0 L 853.3466613354658 17.709773525345383 l -7.1171531387445 0 L 846.2295081967213 29.30772901347106 M 855.1259496201519 17.709773525345383 l 7.1171531387445 0 L 862.2431027588964 8.93699045241911 l -7.1171531387445 0 L 855.1259496201519 17.709773525345383"></path><path class="candle body down" d="M 1.0675729708116766 182.91687568568435 l 7.1171531387445 0 L 8.184726109556177 185.41806862349253 l -7.1171531387445 0 L 1.0675729708116766 182.91687568568435 M 27.75689724110356 183.40587822653993 l 7.1171531387445 0 L 34.87405037984806 188.1925156917204 l -7.1171531387445 0 L 27.75689724110356 183.40587822653993 M 36.65333866453418 188.1925156917204 l 7.1171531387445 0 L 43.77049180327868 193.54187313667194 l -7.1171531387445 0 L 36.65333866453418 188.1925156917204 M 116.72131147540982 141.39305567450947 l 7.1171531387445 0 L 123.83846461415432 141.40880857120717 l -7.1171531387445 0 L 116.72131147540982 141.39305567450947 M 134.51419432227107 130.2447459756192 l 7.1171531387445 0 L 141.63134746101557 134.04037839579433 l -7.1171531387445 0 L 134.51419432227107 130.2447459756192 M 143.4106357457017 134.04032741554616 l 7.1171531387445 0 L 150.5277888844462 142.28077473663603 l -7.1171531387445 0 L 143.4106357457017 134.04032741554616 M 152.30707716913233 142.25615127674936 l 7.1171531387445 0 L 159.42423030787683 145.83725881244573 l -7.1171531387445 0 L 152.30707716913233 142.25615127674936 M 161.20351859256294 145.84215291627413 l 7.1171531387445 0 L 168.32067173130744 150.63332762354554 l -7.1171531387445 0 L 161.20351859256294 145.84215291627413 M 205.68572570971608 118.18190160404254 l 7.1171531387445 0 L 212.80287884846058 122.14903157920496 l -7.1171531387445 0 L 205.68572570971608 118.18190160404254 M 223.47860855657734 109.63592965541432 l 7.1171531387445 0 L 230.59576169532184 113.02040637375458 l -7.1171531387445 0 L 223.47860855657734 109.63592965541432 M 232.37504998000796 113.02035539350635 l 7.1171531387445 0 L 239.49220311875246 113.39760923027984 l -7.1171531387445 0 L 232.37504998000796 113.02035539350635 M 241.2714914034386 113.39929157847087 l 7.1171531387445 0 L 248.3886445421831 119.06661283152457 l -7.1171531387445 0 L 241.2714914034386 113.39929157847087 M 259.06437425029986 101.72828139465648 l 7.1171531387445 0 L 266.1815273890444 105.4573845909141 l -7.1171531387445 0 L 259.06437425029986 101.72828139465648 M 267.9608156737305 105.45743557116232 l 7.1171531387445 0 L 275.07796881247504 105.94011656123953 l -7.1171531387445 0 L 267.9608156737305 105.45743557116232 M 276.85725709716115 105.94011656123953 l 7.1171531387445 0 L 283.9744102359057 111.407901122789 l -7.1171531387445 0 L 276.85725709716115 105.94011656123953 M 285.7536985205918 111.40785014254078 l 7.1171531387445 0 L 292.8708516593363 117.55275436085046 l -7.1171531387445 0 L 285.7536985205918 111.40785014254078 M 321.3394642143143 93.9666405647796 l 7.1171531387445 0 L 328.45661735305885 96.51871179030398 l -7.1171531387445 0 L 321.3394642143143 93.9666405647796 M 348.02878848460614 93.11843119501783 l 7.1171531387445 0 L 355.14594162335067 102.3705305616392 l -7.1171531387445 0 L 348.02878848460614 93.11843119501783 M 365.8216713314674 95.74661593112366 l 7.1171531387445 0 L 372.93882447021196 106.60260488676268 l -7.1171531387445 0 L 365.8216713314674 95.74661593112366 M 383.61455417832866 95.25424869388605 l 7.1171531387445 0 L 390.7317073170732 96.14410892643757 l -7.1171531387445 0 L 383.61455417832866 95.25424869388605 M 392.5109956017593 96.14410892643757 l 7.1171531387445 0 L 399.62814874050383 96.79420905164504 l -7.1171531387445 0 L 392.5109956017593 96.14410892643757 M 401.40743702518995 96.79415807139686 l 7.1171531387445 0 L 408.5245901639345 105.89377551561424 l -7.1171531387445 0 L 401.40743702518995 96.79415807139686 M 445.8896441423431 90.52277185727165 l 7.1171531387445 0 L 453.00679728108764 90.94264518155089 l -7.1171531387445 0 L 445.8896441423431 90.52277185727165 M 472.57896841263494 76.92022202917705 l 7.1171531387445 0 L 479.69612155137946 106.50135811381239 l -7.1171531387445 0 L 472.57896841263494 76.92022202917705 M 481.47540983606564 106.47668367367748 l 7.1171531387445 0 L 488.59256297481016 110.65838951356689 l -7.1171531387445 0 L 481.47540983606564 106.47668367367748 M 499.2682926829268 108.89024156480815 l 7.1171531387445 0 L 506.38544582167134 116.76276443454748 l -7.1171531387445 0 L 499.2682926829268 108.89024156480815 M 525.9576169532187 110.77605192644162 l 7.1171531387445 0 L 533.0747700919632 116.30485984510162 l -7.1171531387445 0 L 525.9576169532187 110.77605192644162 M 552.6469412235106 100.08972523685425 l 7.1171531387445 0 L 559.764094362255 102.04522559779441 l -7.1171531387445 0 L 552.6469412235106 100.08972523685425 M 561.5433826469413 102.04527657804263 l 7.1171531387445 0 L 568.6605357856857 104.2773447855363 l -7.1171531387445 0 L 561.5433826469413 102.04527657804263 M 579.3362654938024 99.2161786837308 l 7.1171531387445 0 L 586.4534186325469 104.57420277087847 l -7.1171531387445 0 L 579.3362654938024 99.2161786837308 M 588.232706917233 104.57420277087847 l 7.1171531387445 0 L 595.3498600559775 126.11911840876371 l -7.1171531387445 0 L 588.232706917233 104.57420277087847 M 597.1291483406637 126.11391842344604 l 7.1171531387445 0 L 604.2463014794082 137.74893655202231 l -7.1171531387445 0 L 597.1291483406637 126.11391842344604 M 623.8184726109555 116.68960777836236 l 7.1171531387445 0 L 630.9356257497 127.16446839836375 l -7.1171531387445 0 L 623.8184726109555 116.68960777836236 M 632.7149140343862 127.16441741811553 l 7.1171531387445 0 L 639.8320671731307 127.87783501160312 l -7.1171531387445 0 L 632.7149140343862 127.16441741811553 M 650.5077968812475 125.37847736273059 l 7.1171531387445 0 L 657.624950019992 130.54558042032198 l -7.1171531387445 0 L 650.5077968812475 125.37847736273059 M 659.4042383046781 130.54558042032198 l 7.1171531387445 0 L 666.5213914434225 136.25949762024203 l -7.1171531387445 0 L 659.4042383046781 130.54558042032198 M 694.9900039984005 99.98674513546474 l 7.1171531387445 0 L 702.107157137145 102.56991431239881 l -7.1171531387445 0 L 694.9900039984005 99.98674513546474 M 739.4722111155537 63.416573882614955 l 7.1171531387445 0 L 746.5893642542982 71.215430293687 l -7.1171531387445 0 L 739.4722111155537 63.416573882614955 M 766.1615353858456 65.27878038932599 l 7.1171531387445 0 L 773.27868852459 66.76087816536364 l -7.1171531387445 0 L 766.1615353858456 65.27878038932599 M 783.9544182327068 52.42344805928394 l 7.1171531387445 0 L 791.0715713714512 59.94007781625089 l -7.1171531387445 0 L 783.9544182327068 52.42344805928394 M 801.747301079568 52.935901514317294 l 7.1171531387445 0 L 808.8644542183125 53.05259530247602 l -7.1171531387445 0 L 801.747301079568 52.935901514317294 M 819.5401839264293 31.006288923419532 l 7.1171531387445 0 L 826.6573370651738 35.068650002243146 l -7.1171531387445 0 L 819.5401839264293 31.006288923419532 M 864.0223910435824 8.937041432667371 l 7.1171531387445 0 L 871.1395441823269 28.35159445824314 l -7.1171531387445 0 L 864.0223910435824 8.937041432667371 M 872.9188324670131 28.35159445824314 l 7.1171531387445 0 L 880.0359856057576 36.02376495250684 l -7.1171531387445 0 L 872.9188324670131 28.35159445824314 M 881.8152738904437 36.023713972258605 l 7.1171531387445 0 L 888.9324270291881 37.697089639590075 l -7.1171531387445 0 L 881.8152738904437 36.023713972258605"></path><path class="candle body equal"></path><path class="candle wick up" d="M 13.522590963614554 182.5017435244889 L 13.522590963614554 184.72371764283648 M 13.522590963614554 185.41811960374073 L 13.522590963614554 186.5373909532491 M 22.41903238704518 180.0593817931181 L 22.41903238704518 183.40592920678813 M 22.41903238704518 184.72371764283648 L 22.41903238704518 186.81951564685778 M 49.10835665733706 177.90291729372373 L 49.10835665733706 181.54030702344684 M 49.10835665733706 193.54192411692014 L 49.10835665733706 195.1107392951675 M 58.004798080767685 179.26230561231358 L 58.004798080767685 180.80965810606338 M 58.004798080767685 181.54030702344684 L 58.004798080767685 183.76564583817645 M 66.90123950419832 173.86528163528322 L 66.90123950419832 173.94639121018955 M 66.90123950419832 180.8109326122687 L 66.90123950419832 182.6628411088408 M 75.79768092762893 169.53196053720947 L 75.79768092762893 170.7649688204802 M 75.79768092762893 173.9463402299413 L 75.79768092762893 175.13397609230282 M 84.69412235105956 164.95393424771507 L 84.69412235105956 165.04049870918016 M 84.69412235105956 170.74778847683254 L 84.69412235105956 172.83996688323074 M 93.5905637744902 138.68891036856684 L 93.5905637744902 155.5756077865192 M 93.5905637744902 165.04049870918016 L 93.5905637744902 165.9338765788583 M 102.48700519792082 143.8246095932592 L 102.48700519792082 144.25661621661303 M 102.48700519792082 155.55659215393587 L 102.48700519792082 159.93237979877077 M 111.38344662135144 136.9046016811247 L 111.38344662135144 141.3931066547577 M 111.38344662135144 144.26303972788784 L 111.38344662135144 147.75319850077287 M 129.1763294682127 129.68217893659283 L 129.1763294682127 130.244694995371 M 129.1763294682127 141.39856154131647 L 129.1763294682127 150.0920193480238 M 173.65853658536582 141.6474980933387 L 173.65853658536582 142.90405925128368 M 173.65853658536582 150.63337860379374 L 173.65853658536582 154.1942469809497 M 182.55497800879647 134.6104905115562 L 182.55497800879647 137.0959815329149 M 182.55497800879647 142.90411023153192 L 182.55497800879647 155.09078562601707 M 191.4514194322271 124.19813167586352 L 191.4514194322271 127.03039034556451 M 191.4514194322271 137.0959815329149 L 191.4514194322271 142.23784936764102 M 200.34786085565773 117.53210736032433 L 200.34786085565773 118.18190160404254 M 200.34786085565773 127.03039034556451 L 200.34786085565773 129.02096511727495 M 218.14074370251896 108.58940712010539 L 218.14074370251896 109.61283560297399 M 218.14074370251896 122.14908255945318 L 218.14074370251896 127.32541304197103 M 253.72650939624148 101.28980027977961 L 253.72650939624148 101.72823041440826 M 253.72650939624148 119.06120892521405 L 253.72650939624148 119.99246511931419 M 298.2087165133947 110.9046750926821 L 298.2087165133947 117.50513880901985 M 298.2087165133947 117.55275436085046 L 298.2087165133947 120.06439824954221 M 307.10515793682526 105.63841545231718 L 307.10515793682526 107.02701545313285 M 307.10515793682526 117.53531911596171 L 307.10515793682526 121.46931192978595 M 316.0015993602559 93.65810810259676 L 316.0015993602559 93.9666405647796 M 316.0015993602559 107.02701545313285 L 316.0015993602559 107.72865660928332 M 333.7944822071172 93.06158821826074 L 333.7944822071172 94.39105113114977 M 333.7944822071172 96.51866081005578 L 333.7944822071172 100.45372420909244 M 342.6909236305478 87.96356339699749 L 342.6909236305478 93.11843119501783 M 342.6909236305478 94.39105113114977 L 342.6909236305478 95.46275790907572 M 360.483806477409 94.26319266863248 L 360.483806477409 95.74661593112366 M 360.483806477409 102.3705305616392 L 360.483806477409 105.16287169698974 M 378.2766893242703 94.84625376744036 L 378.2766893242703 95.25424869388605 M 378.2766893242703 106.6026558670109 L 378.2766893242703 109.1305624548825 M 413.86245501799283 99.45395056139449 L 413.86245501799283 105.29231054720162 M 413.86245501799283 105.89377551561424 L 413.86245501799283 107.33605771779784 M 422.7588964414235 94.81530875677528 L 422.7588964414235 96.57657437202533 M 422.7588964414235 105.29231054720162 L 422.7588964414235 108.29448638419532 M 431.65533786485406 88.2178018948339 L 431.65533786485406 94.35322378697599 M 431.65533786485406 96.57662535227351 L 431.65533786485406 97.7310730730486 M 440.5517792882847 85.41455098636585 L 440.5517792882847 90.51696010897541 M 440.5517792882847 94.35327476722422 L 440.5517792882847 99.09336726578657 M 458.34466213514594 80.82632864722893 L 458.34466213514594 81.55595795964814 M 458.34466213514594 90.93295893439048 L 458.34466213514594 93.31648945932389 M 467.2411035585766 76.34006680451728 L 467.2411035585766 76.93194748626593 M 467.2411035585766 81.55595795964814 L 467.2411035585766 85.570907407634 M 493.93042782886846 103.76759328365819 L 493.93042782886846 108.89024156480815 M 493.93042782886846 110.65838951356689 L 493.93042782886846 113.3870053386516 M 511.7233106757297 110.96620825227475 L 511.7233106757297 115.11722398274014 M 511.7233106757297 116.80716823074071 L 511.7233106757297 117.41882924879586 M 520.6197520991603 108.55958367490102 L 520.6197520991603 110.77600094619343 M 520.6197520991603 115.11727496298836 L 520.6197520991603 117.317684436342 M 538.4126349460215 104.53214406610304 L 538.4126349460215 105.2381185433516 M 538.4126349460215 116.30491082534984 L 538.4126349460215 118.07025486045687 M 547.3090763694522 98.15961303952399 L 547.3090763694522 100.08967425660602 M 547.3090763694522 105.2801262678788 L 547.3090763694522 107.42619079663777 M 573.998400639744 96.40997092086646 L 573.998400639744 99.21622966397902 M 573.998400639744 104.2773447855363 L 573.998400639744 105.62536450877475 M 609.5841663334666 121.0979208215569 L 609.5841663334666 123.42741228338494 M 609.5841663334666 137.75041497922047 L 609.5841663334666 138.61045176656756 M 618.4806077568971 116.11485646001314 L 618.4806077568971 116.68960777836236 M 618.4806077568971 123.41334173487824 L 618.4806077568971 125.8465270215708 M 645.169932027189 121.35562597627177 L 645.169932027189 125.37847736273059 M 645.169932027189 127.87788599185134 L 645.169932027189 137.66930540431417 M 671.8592562974809 128.2889397331898 L 671.8592562974809 133.72200674570647 M 671.8592562974809 136.26729759821853 L 671.8592562974809 137.64952506800768 M 680.7556977209116 120.3800169662266 L 680.7556977209116 121.99746730126883 M 680.7556977209116 133.72195576545823 L 680.7556977209116 134.30374235806082 M 689.6521391443422 98.18510316363029 L 689.6521391443422 99.98669415521653 M 689.6521391443422 122.01831822278777 L 689.6521391443422 124.75585559130973 M 707.4450219912034 94.44784312765864 L 707.4450219912034 99.68896950565474 M 707.4450219912034 102.56996529264704 L 707.4450219912034 105.3580240871477 M 716.3414634146341 92.87744756171669 L 716.3414634146341 94.4638509255974 M 716.3414634146341 99.68896950565474 L 716.3414634146341 106.36233497693655 M 725.2379048380647 80.89617158728024 L 725.2379048380647 83.00833425097782 M 725.2379048380647 94.46390190584562 L 725.2379048380647 95.49640487289605 M 734.1343462614954 61.19893308536544 L 734.1343462614954 63.416573882614955 M 734.1343462614954 83.00833425097782 L 734.1343462614954 88.56304013572982 M 751.9272291083566 59.41462439792329 L 751.9272291083566 70.36808758814487 M 751.9272291083566 71.215430293687 L 751.9272291083566 72.06991023397897 M 760.8236705317872 62.52951756371513 L 760.8236705317872 65.27878038932599 M 760.8236705317872 70.34647196290274 L 760.8236705317872 71.84529126035412 M 778.6165533786485 50.54895531275366 L 778.6165533786485 52.42344805928394 M 778.6165533786485 66.7608271851154 L 778.6165533786485 68.0044903402626 M 796.4094362255097 50.865236772664815 L 796.4094362255097 52.95542694938277 M 796.4094362255097 59.9401797767473 L 796.4094362255097 69.2681377527091 M 814.202319072371 24.579820794231495 L 814.202319072371 31.006288923419532 M 814.202319072371 53.05259530247602 L 814.202319072371 55.59110578197587 M 831.9952019192323 30.771932722386055 L 831.9952019192323 31.74086331991532 M 831.9952019192323 35.068650002243146 L 831.9952019192323 44.8189793346466 M 840.8916433426629 25.78917424233157 L 840.8916433426629 29.286113388228898 M 840.8916433426629 31.74091430016358 L 840.8916433426629 40.32532535594413 M 849.7880847660936 16.662588246809662 L 849.7880847660936 17.709773525345383 M 849.7880847660936 29.30772901347106 L 849.7880847660936 32.79161721582591 M 858.6845261895241 3.846153846153868 L 858.6845261895241 8.93699045241911 M 858.6845261895241 17.709773525345383 L 858.6845261895241 21.784063982250757" style="stroke-width: 1px;"></path><path class="candle wick down" d="M 4.626149540183927 181.00669676540522 L 4.626149540183927 182.91687568568435 M 4.626149540183927 185.41806862349253 L 4.626149540183927 187.27308691520557 M 31.315473810475808 182.7919230973152 L 31.315473810475808 183.40587822653993 M 31.315473810475808 188.1925156917204 L 31.315473810475808 190.3959329997186 M 40.21191523390643 187.05351498615377 L 40.21191523390643 188.1925156917204 M 40.21191523390643 193.54187313667194 L 40.21191523390643 196.15384615384616 M 120.27988804478207 138.23008813465313 L 120.27988804478207 141.39305567450947 M 120.27988804478207 141.40880857120717 L 120.27988804478207 145.5712438772722 M 138.07277089164333 129.01285925780917 L 138.07277089164333 130.2447459756192 M 138.07277089164333 134.04037839579433 L 138.07277089164333 136.39403449527515 M 146.96921231507397 128.2430575097984 L 146.96921231507397 134.04032741554616 M 146.96921231507397 142.28077473663603 L 146.96921231507397 144.43943138670355 M 155.8656537385046 139.045721125807 L 155.8656537385046 142.25615127674936 M 155.8656537385046 145.83725881244573 L 155.8656537385046 148.17123653611645 M 164.7620951619352 142.6143894809395 L 164.7620951619352 145.84215291627413 M 164.7620951619352 150.63332762354554 L 164.7620951619352 153.51381360805573 M 209.24430227908834 114.42231221935376 L 209.24430227908834 118.18190160404254 M 209.24430227908834 122.14903157920496 L 209.24430227908834 124.86816507812215 M 227.0371851259496 107.33605771779784 L 227.0371851259496 109.63592965541432 M 227.0371851259496 113.02040637375458 L 227.0371851259496 118.09564302406677 M 235.93362654938022 107.1144465788175 L 235.93362654938022 113.02035539350635 M 235.93362654938022 113.39760923027984 L 235.93362654938022 114.26355972641962 M 244.83006797281087 109.79269391866816 L 244.83006797281087 113.39929157847087 M 244.83006797281087 119.06661283152457 L 244.83006797281087 122.27327044409915 M 262.6229508196721 99.97450987589369 L 262.6229508196721 101.72828139465648 M 262.6229508196721 105.4573845909141 L 262.6229508196721 111.05236487175411 M 271.51939224310274 103.9088085712072 L 271.51939224310274 105.45743557116232 M 271.51939224310274 105.94011656123953 L 271.51939224310274 113.45368750331374 M 280.4158336665334 100.43419877402701 L 280.4158336665334 105.94011656123953 M 280.4158336665334 111.407901122789 L 280.4158336665334 112.63800353191161 M 289.31227508996403 104.99096630001674 L 289.31227508996403 111.40785014254078 M 289.31227508996403 117.55275436085046 L 289.31227508996403 119.18386740241363 M 324.89804078368655 91.75119191820322 L 324.89804078368655 93.9666405647796 M 324.89804078368655 96.51871179030398 L 324.89804078368655 99.57686393983516 M 351.5873650539784 91.22629928260596 L 351.5873650539784 93.11843119501783 M 351.5873650539784 102.3705305616392 L 351.5873650539784 102.74783537866091 M 369.38024790083966 93.81181355095785 L 369.38024790083966 95.74661593112366 M 369.38024790083966 106.60260488676268 L 369.38024790083966 109.6301688873663 M 387.1731307477009 94.08629120733465 L 387.1731307477009 95.25424869388605 M 387.1731307477009 96.14410892643757 L 387.1731307477009 98.94022260015582 M 396.06957217113154 92.38727247515226 L 396.06957217113154 96.14410892643757 M 396.06957217113154 96.79420905164504 L 396.06957217113154 101.91920242421277 M 404.9660135945622 96.17846961373286 L 404.9660135945622 96.79415807139686 M 404.9660135945622 105.89377551561424 L 404.9660135945622 106.55605992014455 M 449.44822071171535 87.7816148911266 L 449.44822071171535 90.52277185727165 M 449.44822071171535 90.94264518155089 L 449.44822071171535 93.72433144502497 M 476.13754498200717 75.62634332954043 L 476.13754498200717 76.92022202917705 M 476.13754498200717 106.50135811381239 L 476.13754498200717 126.99888455216912 M 485.0339864054379 104.0682747876163 L 485.0339864054379 106.47668367367748 M 485.0339864054379 110.65838951356689 L 485.0339864054379 119.00023654835174 M 502.82686925229905 105.63841545231718 L 502.82686925229905 108.89024156480815 M 502.82686925229905 116.76276443454748 L 502.82686925229905 120.42630703160368 M 529.5161935225909 106.41841324997044 L 529.5161935225909 110.77605192644162 M 529.5161935225909 116.30485984510162 L 529.5161935225909 124.31248037260445 M 556.2055177928828 97.86902562471198 L 556.2055177928828 100.08972523685425 M 556.2055177928828 102.04522559779441 L 556.2055177928828 105.6990819476902 M 565.1019592163135 99.94392172696611 L 565.1019592163135 102.04527657804263 M 565.1019592163135 104.2773447855363 L 565.1019592163135 107.3383008487192 M 582.8948420631747 98.80792885604401 L 582.8948420631747 99.2161786837308 M 582.8948420631747 104.57420277087847 L 582.8948420631747 106.67749487138704 M 591.7912834866053 104.03636115223519 L 591.7912834866053 104.57420277087847 M 591.7912834866053 126.11911840876371 L 591.7912834866053 128.7477619671035 M 600.687724910036 122.94111169568464 L 600.687724910036 126.11391842344604 M 600.687724910036 137.74893655202231 L 600.687724910036 143.5320339487669 M 627.3770491803277 114.98309494969271 L 627.3770491803277 116.68960777836236 M 627.3770491803277 127.16446839836375 L 627.3770491803277 138.05165726590891 M 636.2734906037584 126.36780005954496 L 636.2734906037584 127.16441741811553 M 636.2734906037584 127.87783501160312 L 636.2734906037584 133.10004771751235 M 654.0663734506197 119.31641604776647 L 654.0663734506197 125.37847736273059 M 654.0663734506197 130.54558042032198 L 654.0663734506197 130.79716794525132 M 662.9628148740503 127.28269159396886 L 662.9628148740503 130.54558042032198 M 662.9628148740503 136.25949762024203 L 662.9628148740503 136.96577797897984 M 698.5485805677728 98.99268127556664 L 698.5485805677728 99.98674513546474 M 698.5485805677728 102.56991431239881 L 698.5485805677728 103.61358195380784 M 743.0307876849259 63.32832707295887 L 743.0307876849259 63.416573882614955 M 743.0307876849259 71.215430293687 L 743.0307876849259 73.39850648264839 M 769.7201119552178 57.062854567626374 L 769.7201119552178 65.27878038932599 M 769.7201119552178 66.76087816536364 L 769.7201119552178 69.71263453687507 M 787.512994802079 51.359745180327366 L 787.512994802079 52.42344805928394 M 787.512994802079 59.94007781625089 L 787.512994802079 70.73733752594899 M 805.3058776489403 47.0134750992076 L 805.3058776489403 52.935901514317294 M 805.3058776489403 53.05259530247602 L 805.3058776489403 55.753987675015196 M 823.0987604958016 27.40708339960767 L 823.0987604958016 31.006288923419532 M 823.0987604958016 35.068650002243146 L 823.0987604958016 38.76762387180713 M 867.5809676129546 5.682768268262123 L 867.5809676129546 8.937041432667371 M 867.5809676129546 28.35159445824314 L 867.5809676129546 29.336277952470112 M 876.4774090363853 20.504510732361865 L 876.4774090363853 28.35159445824314 M 876.4774090363853 36.02376495250684 L 876.4774090363853 39.532327594996616 M 885.3738504598159 31.543161917346737 L 885.3738504598159 36.023713972258605 M 885.3738504598159 37.697089639590075 L 885.3738504598159 41.76449776298671" style="stroke-width: 1px;"></path><path class="candle wick equal" style="stroke-width: 1px;"></path></g></g><g class="x axis" transform="translate(0,200)" fill="none" font-size="10" font-family="sans-serif" text-anchor="middle"><path class="domain" stroke="#000" d="M0.5,6V0.5H890.5V6"></path><g class="tick" opacity="1" transform="translate(31.315473810475808,0)"><line stroke="#000" y2="6" x1="0.5" x2="0.5"></line><text fill="#000" y="9" x="0.5" dy="0.71em">Jul 19</text></g><g class="tick" opacity="1" transform="translate(93.5905637744902,0)"><line stroke="#000" y2="6" x1="0.5" x2="0.5"></line><text fill="#000" y="9" x="0.5" dy="0.71em">Jul 26</text></g><g class="tick" opacity="1" transform="translate(155.8656537385046,0)"><line stroke="#000" y2="6" x1="0.5" x2="0.5"></line><text fill="#000" y="9" x="0.5" dy="0.71em">Aug  2</text></g><g class="tick" opacity="1" transform="translate(218.14074370251896,0)"><line stroke="#000" y2="6" x1="0.5" x2="0.5"></line><text fill="#000" y="9" x="0.5" dy="0.71em">Aug  9</text></g><g class="tick" opacity="1" transform="translate(280.4158336665334,0)"><line stroke="#000" y2="6" x1="0.5" x2="0.5"></line><text fill="#000" y="9" x="0.5" dy="0.71em">Aug 16</text></g><g class="tick" opacity="1" transform="translate(342.6909236305478,0)"><line stroke="#000" y2="6" x1="0.5" x2="0.5"></line><text fill="#000" y="9" x="0.5" dy="0.71em">Aug 23</text></g><g class="tick" opacity="1" transform="translate(404.9660135945622,0)"><line stroke="#000" y2="6" x1="0.5" x2="0.5"></line><text fill="#000" y="9" x="0.5" dy="0.71em">Aug 30</text></g><g class="tick" opacity="1" transform="translate(467.2411035585766,0)"><line stroke="#000" y2="6" x1="0.5" x2="0.5"></line><text fill="#000" y="9" x="0.5" dy="0.71em">Sep  6</text></g><g class="tick" opacity="1" transform="translate(529.5161935225909,0)"><line stroke="#000" y2="6" x1="0.5" x2="0.5"></line><text fill="#000" y="9" x="0.5" dy="0.71em">Sep 13</text></g><g class="tick" opacity="1" transform="translate(591.7912834866053,0)"><line stroke="#000" y2="6" x1="0.5" x2="0.5"></line><text fill="#000" y="9" x="0.5" dy="0.71em">Sep 20</text></g><g class="tick" opacity="1" transform="translate(654.0663734506197,0)"><line stroke="#000" y2="6" x1="0.5" x2="0.5"></line><text fill="#000" y="9" x="0.5" dy="0.71em">Sep 27</text></g><g class="tick" opacity="1" transform="translate(716.3414634146341,0)"><line stroke="#000" y2="6" x1="0.5" x2="0.5"></line><text fill="#000" y="9" x="0.5" dy="0.71em">Oct  4</text></g><g class="tick" opacity="1" transform="translate(778.6165533786485,0)"><line stroke="#000" y2="6" x1="0.5" x2="0.5"></line><text fill="#000" y="9" x="0.5" dy="0.71em">Oct 11</text></g><g class="tick" opacity="1" transform="translate(840.8916433426629,0)"><line stroke="#000" y2="6" x1="0.5" x2="0.5"></line><text fill="#000" y="9" x="0.5" dy="0.71em">Oct 18</text></g></g><g class="y axis" fill="none" font-size="10" font-family="sans-serif" text-anchor="end"><path class="domain" stroke="#000" d="M-6,200.5H0.5V0.5H-6"></path><g class="tick" opacity="1" transform="translate(0,192.47307223289408)"><line stroke="#000" x2="-6" y1="0.5" y2="0.5"></line><text fill="#000" x="-9" y="0.5" dy="0.32em">30,000</text></g><g class="tick" opacity="1" transform="translate(0,166.98294812657787)"><line stroke="#000" x2="-6" y1="0.5" y2="0.5"></line><text fill="#000" x="-9" y="0.5" dy="0.32em">35,000</text></g><g class="tick" opacity="1" transform="translate(0,141.4928240202616)"><line stroke="#000" x2="-6" y1="0.5" y2="0.5"></line><text fill="#000" x="-9" y="0.5" dy="0.32em">40,000</text></g><g class="tick" opacity="1" transform="translate(0,116.00269991394536)"><line stroke="#000" x2="-6" y1="0.5" y2="0.5"></line><text fill="#000" x="-9" y="0.5" dy="0.32em">45,000</text></g><g class="tick" opacity="1" transform="translate(0,90.5125758076291)"><line stroke="#000" x2="-6" y1="0.5" y2="0.5"></line><text fill="#000" x="-9" y="0.5" dy="0.32em">50,000</text></g><g class="tick" opacity="1" transform="translate(0,65.02245170131286)"><line stroke="#000" x2="-6" y1="0.5" y2="0.5"></line><text fill="#000" x="-9" y="0.5" dy="0.32em">55,000</text></g><g class="tick" opacity="1" transform="translate(0,39.532327594996616)"><line stroke="#000" x2="-6" y1="0.5" y2="0.5"></line><text fill="#000" x="-9" y="0.5" dy="0.32em">60,000</text></g><g class="tick" opacity="1" transform="translate(0,14.042203488680343)"><line stroke="#000" x2="-6" y1="0.5" y2="0.5"></line><text fill="#000" x="-9" y="0.5" dy="0.32em">65,000</text></g><text transform="rotate(-90)" y="6" dy=".71em" style="text-anchor: end;">Price ($)</text></g></g></svg>