<?xml version="1.0" encoding="utf-8"?>
<!DOCTYPE svg PUBLIC "-//W3C//DTD SVG 1.1//EN" "http://www.w3.org/Graphics/SVG/1.1/DTD/svg11.dtd">
<svg version="1.1" xmlns="http://www.w3.org/2000/svg" width="960" height="250"><g transform="translate(50,20)"><style>.axis path,.axis line{fill:none;stroke:#000;shape-rendering:crispEdges;}path.candle{stroke:#000000;}path.candle.body{stroke-width:0;}path.candle.up{fill:#00AA00;stroke:#00AA00;}path.candle.down{fill:#FF0000;stroke:#FF0000;}</style><g class="candlestick"><g class="data"><path class="candle body up" d="M 1.0675729708116766 192.71739962378803 l 7.1171531387445 0 L 8.184726109556177 191.9915671488249 l -7.1171531387445 0 L 1.0675729708116766 192.71739962378803 M 18.860455817672932 193.47088025261542 l 7.1171531387445 0 L 25.977608956417434 188.83187590150774 l -7.1171531387445 0 L 18.860455817672932 193.47088025261542 M 27.75689724110356 188.83187590150774 l 7.1171531387445 0 L 34.87405037984806 187.27783065905425 l -7.1171531387445 0 L 27.75689724110356 188.83187590150774 M 36.65333866453418 187.27892563544492 l 7.1171531387445 0 L 43.77049180327868 184.96879919523616 l -7.1171531387445 0 L 36.65333866453418 187.27892563544492 M 63.342662934826066 185.25089248788163 l 7.1171531387445 0 L 70.45981607357056 183.23545156881102 l -7.1171531387445 0 L 63.342662934826066 185.25089248788163 M 90.03198720511796 192.3159539045599 l 7.1171531387445 0 L 97.14914034386246 190.7776489477222 l -7.1171531387445 0 L 90.03198720511796 192.3159539045599 M 107.82487005197919 194.72161703485432 l 7.1171531387445 0 L 114.94202319072369 187.94836682628866 l -7.1171531387445 0 L 107.82487005197919 194.72161703485432 M 125.61775289884046 188.62930526923444 l 7.1171531387445 0 L 132.73490603758498 188.054032047988 l -7.1171531387445 0 L 125.61775289884046 188.62930526923444 M 134.51419432227107 188.05416892003683 l 7.1171531387445 0 L 141.63134746101557 187.4292111450639 l -7.1171531387445 0 L 134.51419432227107 188.05416892003683 M 152.30707716913233 188.49872933464744 l 7.1171531387445 0 L 159.42423030787683 186.52270756564081 l -7.1171531387445 0 L 152.30707716913233 188.49872933464744 M 196.78928428628546 190.6071063748759 l 7.1171531387445 0 L 203.90643742502996 188.9022281346081 l -7.1171531387445 0 L 196.78928428628546 190.6071063748759 M 205.68572570971608 188.9023650066569 l 7.1171531387445 0 L 212.80287884846058 187.18338894535927 l -7.1171531387445 0 L 205.68572570971608 188.9023650066569 M 223.47860855657734 189.81899711769364 l 7.1171531387445 0 L 230.59576169532184 188.9055130637801 l -7.1171531387445 0 L 223.47860855657734 189.81899711769364 M 232.37504998000796 188.90537619173125 l 7.1171531387445 0 L 239.49220311875246 185.35806330211813 l -7.1171531387445 0 L 232.37504998000796 188.90537619173125 M 241.2714914034386 185.35984263875292 l 7.1171531387445 0 L 248.3886445421831 183.6462045873598 l -7.1171531387445 0 L 241.2714914034386 185.35984263875292 M 250.16793282686922 183.6462045873598 l 7.1171531387445 0 L 257.28508596561375 180.32596242676115 l -7.1171531387445 0 L 250.16793282686922 183.6462045873598 M 259.06437425029986 180.32596242676115 l 7.1171531387445 0 L 266.1815273890444 179.28847229660457 l -7.1171531387445 0 L 259.06437425029986 180.32596242676115 M 267.9608156737305 179.28847229660457 l 7.1171531387445 0 L 275.07796881247504 177.10905866303165 l -7.1171531387445 0 L 267.9608156737305 179.28847229660457 M 294.65013994402244 178.61957859395616 l 7.1171531387445 0 L 301.76729308276697 177.4256437119831 l -7.1171531387445 0 L 294.65013994402244 178.61957859395616 M 312.4430227908837 179.96982135569684 l 7.1171531387445 0 L 319.5601759296282 179.40919344367555 l -7.1171531387445 0 L 312.4430227908837 179.96982135569684 M 321.3394642143143 179.4076878511384 l 7.1171531387445 0 L 328.45661735305885 177.4527443776521 l -7.1171531387445 0 L 321.3394642143143 179.4076878511384 M 330.23590563774496 177.4527443776521 l 7.1171531387445 0 L 337.3530587764895 174.05380078897429 l -7.1171531387445 0 L 330.23590563774496 177.4527443776521 M 339.13234706117555 174.05393766102313 l 7.1171531387445 0 L 346.2495001999201 171.88410507086851 l -7.1171531387445 0 L 339.13234706117555 174.05393766102313 M 348.02878848460614 171.88396819881967 l 7.1171531387445 0 L 355.14594162335067 159.96296023363294 l -7.1171531387445 0 L 348.02878848460614 171.88396819881967 M 356.9252299080368 159.9658345466584 l 7.1171531387445 0 L 364.0423830467813 157.3957880857152 l -7.1171531387445 0 L 356.9252299080368 159.9658345466584 M 374.7181127548981 158.01800841971146 l 7.1171531387445 0 L 381.8352658936426 155.43564347437322 l -7.1171531387445 0 L 374.7181127548981 158.01800841971146 M 392.5109956017593 156.55922612324594 l 7.1171531387445 0 L 399.62814874050383 156.2505796531268 l -7.1171531387445 0 L 392.5109956017593 156.55922612324594 M 401.40743702518995 156.25112714132214 l 7.1171531387445 0 L 408.5245901639345 148.25752574535863 l -7.1171531387445 0 L 401.40743702518995 156.25112714132214 M 419.20031987205124 153.31864349506827 l 7.1171531387445 0 L 426.31747301079577 150.72765561065353 l -7.1171531387445 0 L 419.20031987205124 153.31864349506827 M 428.0967612954818 150.72779248270237 l 7.1171531387445 0 L 435.21391443422635 149.29871142083368 l -7.1171531387445 0 L 428.0967612954818 150.72779248270237 M 436.99320271891247 149.29871142083368 l 7.1171531387445 0 L 444.110355857657 146.13833581327236 l -7.1171531387445 0 L 436.99320271891247 149.29871142083368 M 463.68252698920435 149.44201645596218 l 7.1171531387445 0 L 470.7996801279489 142.9556500617512 l -7.1171531387445 0 L 463.68252698920435 149.44201645596218 M 472.57896841263494 142.9556500617512 l 7.1171531387445 0 L 479.69612155137946 141.30661561740737 l -7.1171531387445 0 L 472.57896841263494 142.9556500617512 M 481.47540983606564 141.30661561740737 l 7.1171531387445 0 L 488.59256297481016 121.51478048406058 l -7.1171531387445 0 L 481.47540983606564 141.30661561740737 M 508.16473410635746 132.07747023662552 l 7.1171531387445 0 L 515.281887245102 123.08771406925308 l -7.1171531387445 0 L 508.16473410635746 132.07747023662552 M 534.8540583766493 125.52253094594901 l 7.1171531387445 0 L 541.9712115153937 120.22517203995307 l -7.1171531387445 0 L 534.8540583766493 125.52253094594901 M 543.75049980008 120.22503516790422 l 7.1171531387445 0 L 550.8676529388244 111.90855260874292 l -7.1171531387445 0 L 543.75049980008 120.22503516790422 M 552.6469412235106 111.90868948079175 l 7.1171531387445 0 L 559.764094362255 111.51381361990762 l -7.1171531387445 0 L 552.6469412235106 111.90868948079175 M 579.3362654938024 116.49185003597545 l 7.1171531387445 0 L 586.4534186325469 106.13652143739303 l -7.1171531387445 0 L 579.3362654938024 116.49185003597545 M 588.232706917233 106.14322816778584 l 7.1171531387445 0 L 595.3498600559775 93.19102618668886 l -7.1171531387445 0 L 588.232706917233 106.14322816778584 M 597.1291483406637 93.19102618668886 l 7.1171531387445 0 L 604.2463014794082 91.59318188860873 l -7.1171531387445 0 L 597.1291483406637 93.19102618668886 M 606.0255897640943 91.57087174464888 l 7.1171531387445 0 L 613.1427429028388 91.22773351822376 l -7.1171531387445 0 L 606.0255897640943 91.57087174464888 M 614.9220311875249 91.22787039027256 l 7.1171531387445 0 L 622.0391843262694 79.55460083347414 l -7.1171531387445 0 L 614.9220311875249 91.22787039027256 M 623.8184726109555 79.55473770552297 l 7.1171531387445 0 L 630.9356257497 78.89583566243937 l -7.1171531387445 0 L 623.8184726109555 79.55473770552297 M 650.5077968812475 83.49186219021341 l 7.1171531387445 0 L 657.624950019992 72.65159592261455 l -7.1171531387445 0 L 650.5077968812475 83.49186219021341 M 686.09356257497 100.30631964528898 l 7.1171531387445 0 L 693.2107157137144 92.36336090739381 l -7.1171531387445 0 L 686.09356257497 100.30631964528898 M 694.9900039984005 92.36349777944261 l 7.1171531387445 0 L 702.107157137145 85.99689442796077 l -7.1171531387445 0 L 694.9900039984005 92.36349777944261 M 703.8864454218311 85.99675755591196 l 7.1171531387445 0 L 711.0035985605756 65.31717031383229 l -7.1171531387445 0 L 703.8864454218311 85.99675755591196 M 721.6793282686924 78.05872621177478 l 7.1171531387445 0 L 728.7964814074369 72.04826393135724 l -7.1171531387445 0 L 721.6793282686924 78.05872621177478 M 730.5757696921231 72.04840080340604 l 7.1171531387445 0 L 737.6929228308676 69.0670538357187 l -7.1171531387445 0 L 730.5757696921231 72.04840080340604 M 748.3686525389844 79.62522681067215 l 7.1171531387445 0 L 755.4858056777289 72.82063290292366 l -7.1171531387445 0 L 748.3686525389844 79.62522681067215 M 757.265093962415 72.82063290292366 l 7.1171531387445 0 L 764.3822471011595 69.92250414092695 l -7.1171531387445 0 L 757.265093962415 72.82063290292366 M 783.9544182327068 84.09273048459166 l 7.1171531387445 0 L 791.0715713714512 81.12028020007848 l -7.1171531387445 0 L 783.9544182327068 84.09273048459166 M 810.6437425029987 88.02889686494026 l 7.1171531387445 0 L 817.7608956417432 77.46018474222669 l -7.1171531387445 0 L 810.6437425029987 88.02889686494026 M 819.5401839264293 77.46018474222669 l 7.1171531387445 0 L 826.6573370651738 72.44656159346219 l -7.1171531387445 0 L 819.5401839264293 77.46018474222669 M 828.43662534986 72.44656159346219 l 7.1171531387445 0 L 835.5537784886045 71.10316243416318 l -7.1171531387445 0 L 828.43662534986 72.44656159346219 M 837.3330667732906 71.09563447147735 l 7.1171531387445 0 L 844.4502199120351 69.00505079759722 l -7.1171531387445 0 L 837.3330667732906 71.09563447147735 M 846.2295081967213 69.00505079759722 l 7.1171531387445 0 L 853.3466613354658 42.87494482687711 l -7.1171531387445 0 L 846.2295081967213 69.00505079759722 M 855.1259496201519 42.87494482687711 l 7.1171531387445 0 L 862.2431027588964 22.869178681203863 l -7.1171531387445 0 L 855.1259496201519 42.87494482687711 M 864.0223910435824 22.869315553252676 l 7.1171531387445 0 L 871.1395441823269 18.62299711024781 l -7.1171531387445 0 L 864.0223910435824 22.869315553252676 M 872.9188324670131 18.62299711024781 l 7.1171531387445 0 L 880.0359856057576 8.847321638474483 l -7.1171531387445 0 L 872.9188324670131 18.62299711024781 M 881.8152738904437 8.847458510523353 l 7.1171531387445 0 L 888.9324270291881 3.8874892049015273 l -7.1171531387445 0 L 881.8152738904437 8.847458510523353"></path><path class="candle body down" d="M 9.964014394242305 191.99498895004575 l 7.1171531387445 0 L 17.081167532986804 193.47101712466426 l -7.1171531387445 0 L 9.964014394242305 191.99498895004575 M 45.54978008796481 184.96879919523616 l 7.1171531387445 0 L 52.66693322670931 185.16069380770045 l -7.1171531387445 0 L 45.54978008796481 184.96879919523616 M 54.446221511395436 185.16055693565164 l 7.1171531387445 0 L 61.563374650139934 185.25102935993047 l -7.1171531387445 0 L 54.446221511395436 185.16055693565164 M 72.23910435825668 183.23558844085983 l 7.1171531387445 0 L 79.35625749700118 185.43046861595093 l -7.1171531387445 0 L 72.23910435825668 183.23558844085983 M 81.13554578168731 185.43046861595093 l 7.1171531387445 0 L 88.25269892043181 192.3159539045599 l -7.1171531387445 0 L 81.13554578168731 185.43046861595093 M 98.92842862854857 190.7776489477222 l 7.1171531387445 0 L 106.04558176729307 194.72161703485432 l -7.1171531387445 0 L 98.92842862854857 190.7776489477222 M 116.72131147540982 187.94822995423985 l 7.1171531387445 0 L 123.83846461415432 188.6279365487461 l -7.1171531387445 0 L 116.72131147540982 187.94822995423985 M 143.4106357457017 187.42907427301506 l 7.1171531387445 0 L 150.5277888844462 188.4985924625986 l -7.1171531387445 0 L 143.4106357457017 187.42907427301506 M 161.20351859256294 186.52133884515248 l 7.1171531387445 0 L 168.32067173130744 187.3971830856369 l -7.1171531387445 0 L 161.20351859256294 186.52133884515248 M 170.09996001599356 187.3971830856369 l 7.1171531387445 0 L 177.21711315473806 189.55237036656635 l -7.1171531387445 0 L 170.09996001599356 187.3971830856369 M 178.9964014394242 189.55237036656635 l 7.1171531387445 0 L 186.1135545781687 190.21934786053112 l -7.1171531387445 0 L 178.9964014394242 189.55237036656635 M 187.89284286285485 190.21934786053112 l 7.1171531387445 0 L 195.00999600159935 190.60724324692472 l -7.1171531387445 0 L 187.89284286285485 190.21934786053112 M 214.5821671331467 187.18352581740808 l 7.1171531387445 0 L 221.6993202718912 189.8188602456448 l -7.1171531387445 0 L 214.5821671331467 187.18352581740808 M 276.85725709716115 177.10919553508046 l 7.1171531387445 0 L 283.9744102359057 178.58303375691764 l -7.1171531387445 0 L 276.85725709716115 177.10919553508046 M 285.7536985205918 178.58289688486883 l 7.1171531387445 0 L 292.8708516593363 178.61957859395616 l -7.1171531387445 0 L 285.7536985205918 178.58289688486883 M 303.54658136745303 177.4255068399343 l 7.1171531387445 0 L 310.66373450619756 179.96872637930616 l -7.1171531387445 0 L 303.54658136745303 177.4255068399343 M 365.8216713314674 157.39140818015252 l 7.1171531387445 0 L 372.93882447021196 158.01787154766262 l -7.1171531387445 0 L 365.8216713314674 157.39140818015252 M 383.61455417832866 155.43564347437322 l 7.1171531387445 0 L 390.7317073170732 156.57031275920144 l -7.1171531387445 0 L 383.61455417832866 155.43564347437322 M 410.3038784486206 148.25766261740748 l 7.1171531387445 0 L 417.4210315873651 153.31864349506827 l -7.1171531387445 0 L 410.3038784486206 148.25766261740748 M 445.8896441423431 146.13833581327236 l 7.1171531387445 0 L 453.00679728108764 146.54210835733065 l -7.1171531387445 0 L 445.8896441423431 146.13833581327236 M 454.7860855657737 146.5422452293795 l 7.1171531387445 0 L 461.90323870451823 149.44557512923183 l -7.1171531387445 0 L 454.7860855657737 146.5422452293795 M 490.3718512594962 121.51478048406058 l 7.1171531387445 0 L 497.48900439824075 121.65302125338225 l -7.1171531387445 0 L 490.3718512594962 121.51478048406058 M 499.2682926829268 121.65288438133341 l 7.1171531387445 0 L 506.38544582167134 132.07747023662552 l -7.1171531387445 0 L 499.2682926829268 121.65288438133341 M 517.0611755297881 123.08771406925308 l 7.1171531387445 0 L 524.1783286685326 125.09549015358905 l -7.1171531387445 0 L 517.0611755297881 123.08771406925308 M 525.9576169532187 125.09549015358905 l 7.1171531387445 0 L 533.0747700919632 125.52253094594901 l -7.1171531387445 0 L 525.9576169532187 125.09549015358905 M 561.5433826469413 111.52284717513062 l 7.1171531387445 0 L 568.6605357856857 114.93903664196144 l -7.1171531387445 0 L 561.5433826469413 111.52284717513062 M 570.4398240703717 114.95121825430762 l 7.1171531387445 0 L 577.5569772091162 116.49185003597545 l -7.1171531387445 0 L 570.4398240703717 114.95121825430762 M 632.7149140343862 78.89583566243937 l 7.1171531387445 0 L 639.8320671731307 82.85650213952911 l -7.1171531387445 0 L 632.7149140343862 78.89583566243937 M 641.6113554578168 82.86403010221493 l 7.1171531387445 0 L 648.7285085965613 83.49199906226221 l -7.1171531387445 0 L 641.6113554578168 82.86403010221493 M 659.4042383046781 72.65173279466335 l 7.1171531387445 0 L 666.5213914434225 78.68628455567554 l -7.1171531387445 0 L 659.4042383046781 72.65173279466335 M 668.3006797281087 78.69011697304286 l 7.1171531387445 0 L 675.4178328668531 100.17026882874863 l -7.1171531387445 0 L 668.3006797281087 78.69011697304286 M 677.1971211515394 100.17026882874863 l 7.1171531387445 0 L 684.3142742902838 100.30645651733779 l -7.1171531387445 0 L 677.1971211515394 100.17026882874863 M 712.7828868452618 65.31717031383229 l 7.1171531387445 0 L 719.9000399840063 78.05872621177478 l -7.1171531387445 0 L 712.7828868452618 65.31717031383229 M 739.4722111155537 69.06103146557007 l 7.1171531387445 0 L 746.5893642542982 79.62508993862328 l -7.1171531387445 0 L 739.4722111155537 69.06103146557007 M 766.1615353858456 69.93249580049181 l 7.1171531387445 0 L 773.27868852459 72.55729108096833 l -7.1171531387445 0 L 766.1615353858456 69.93249580049181 M 775.0579768092763 72.55729108096833 l 7.1171531387445 0 L 782.1751299480208 84.09273048459166 l -7.1171531387445 0 L 775.0579768092763 72.55729108096833 M 792.8508596561375 81.12014332802961 l 7.1171531387445 0 L 799.9680127948819 85.04371747988554 l -7.1171531387445 0 L 792.8508596561375 81.12014332802961 M 801.747301079568 85.04125378300654 l 7.1171531387445 0 L 808.8644542183125 88.02889686494026 l -7.1171531387445 0 L 801.747301079568 85.04125378300654"></path><path class="candle body equal"></path><path class="candle wick up" d="M 4.626149540183927 191.48445620789747 L 4.626149540183927 191.9915671488249 M 4.626149540183927 192.71739962378803 L 4.626149540183927 194.3412496111465 M 22.41903238704518 187.7611258634847 L 22.41903238704518 188.83187590150774 M 22.41903238704518 193.47088025261542 L 22.41903238704518 195.1201884410569 M 31.315473810475808 185.29688149628961 L 31.315473810475808 187.27783065905425 M 31.315473810475808 188.83187590150774 L 31.315473810475808 189.7255135083405 M 40.21191523390643 183.06641458850186 L 40.21191523390643 184.96879919523616 M 40.21191523390643 187.27892563544492 L 40.21191523390643 188.9762759130269 M 66.90123950419832 181.87850207667745 L 66.90123950419832 183.23545156881102 M 66.90123950419832 185.25089248788163 L 66.90123950419832 185.88091452866138 M 93.5905637744902 190.1877304172506 L 93.5905637744902 190.7776489477222 M 93.5905637744902 192.3159539045599 L 93.5905637744902 193.19494620216747 M 111.38344662135144 187.14191671456277 L 111.38344662135144 187.94836682628866 M 111.38344662135144 194.72161703485432 L 111.38344662135144 195.41323149760905 M 129.1763294682127 186.79015554906113 L 129.1763294682127 188.054032047988 M 129.1763294682127 188.62930526923444 L 129.1763294682127 189.2026622817972 M 138.07277089164333 187.09045282420144 L 138.07277089164333 187.4292111450639 M 138.07277089164333 188.05416892003683 L 138.07277089164333 189.88510631728013 M 155.8656537385046 186.15233180149784 L 155.8656537385046 186.52270756564081 M 155.8656537385046 188.49872933464744 L 155.8656537385046 189.32324655681936 M 200.34786085565773 188.4883270589361 L 200.34786085565773 188.9022281346081 M 200.34786085565773 190.6071063748759 L 200.34786085565773 190.93833673305252 M 209.24430227908834 187.10414002908476 L 209.24430227908834 187.18338894535927 M 209.24430227908834 188.9023650066569 L 209.24430227908834 189.60013871160916 M 227.0371851259496 188.69363513218607 L 227.0371851259496 188.9055130637801 M 227.0371851259496 189.81899711769364 L 227.0371851259496 190.55098883485422 M 235.93362654938022 185.0236848868183 L 235.93362654938022 185.35806330211813 M 235.93362654938022 188.90537619173125 L 235.93362654938022 190.76669918381555 M 244.83006797281087 182.90709552365988 L 244.83006797281087 183.6462045873598 M 244.83006797281087 185.35984263875292 L 244.83006797281087 186.67983667770147 M 253.72650939624148 177.61890704493575 L 253.72650939624148 180.32596242676115 M 253.72650939624148 183.6462045873598 L 253.72650939624148 183.64798392399462 M 262.6229508196721 178.248518469569 L 262.6229508196721 179.28847229660457 M 262.6229508196721 180.32596242676115 L 262.6229508196721 181.31445236343535 M 271.51939224310274 174.4844002546039 L 271.51939224310274 177.10905866303165 M 271.51939224310274 179.28847229660457 L 271.51939224310274 181.98512540271864 M 298.2087165133947 175.8896655799756 L 298.2087165133947 177.4256437119831 M 298.2087165133947 178.61957859395616 L 298.2087165133947 180.90616304176558 M 316.0015993602559 178.83131965350128 L 316.0015993602559 179.40919344367555 M 316.0015993602559 179.96982135569684 L 316.0015993602559 180.8490873974021 M 324.89804078368655 177.4272861765691 L 324.89804078368655 177.4527443776521 M 324.89804078368655 179.4076878511384 L 324.89804078368655 179.60054056794456 M 333.7944822071172 173.06120469083507 L 333.7944822071172 174.05380078897429 M 333.7944822071172 177.4527443776521 L 333.7944822071172 178.75549253844764 M 342.6909236305478 170.12680483589753 L 342.6909236305478 171.88410507086851 M 342.6909236305478 174.05393766102313 L 342.6909236305478 175.06501148575484 M 351.5873650539784 153.9854841169842 L 351.5873650539784 159.96296023363294 M 351.5873650539784 171.88396819881967 L 351.5873650539784 172.19945827138048 M 360.483806477409 154.4327819725715 L 360.483806477409 157.3957880857152 M 360.483806477409 159.9658345466584 L 360.483806477409 161.3710998720301 M 378.2766893242703 154.68284720578998 L 378.2766893242703 155.43564347437322 M 378.2766893242703 158.01800841971146 L 378.2766893242703 158.74425151082104 M 396.06957217113154 153.69627347779942 L 396.06957217113154 156.2505796531268 M 396.06957217113154 156.55922612324594 L 396.06957217113154 160.1814080235709 M 404.9660135945622 146.16174093362284 L 404.9660135945622 148.25752574535863 M 404.9660135945622 156.25112714132214 L 404.9660135945622 156.6929501149561 M 422.7588964414235 148.16527398444498 L 422.7588964414235 150.72765561065353 M 422.7588964414235 153.31864349506827 L 422.7588964414235 158.0493521188943 M 431.65533786485406 147.7947613482532 L 431.65533786485406 149.29871142083368 M 431.65533786485406 150.72779248270237 L 431.65533786485406 155.39088631440472 M 440.5517792882847 141.9089895043228 L 440.5517792882847 146.13833581327236 M 440.5517792882847 149.29871142083368 L 440.5517792882847 151.33263006649682 M 467.2411035585766 142.3728488778189 L 467.2411035585766 142.9556500617512 M 467.2411035585766 149.44201645596218 L 467.2411035585766 153.06419835628714 M 476.13754498200717 139.73272392787302 L 476.13754498200717 141.30661561740737 M 476.13754498200717 142.9556500617512 L 476.13754498200717 149.77913231223866 M 485.0339864054379 119.32510144682516 L 485.0339864054379 121.51478048406058 M 485.0339864054379 141.30661561740737 L 485.0339864054379 141.99713510377146 M 511.7233106757297 120.69382193515834 L 511.7233106757297 123.08771406925308 M 511.7233106757297 132.07747023662552 L 511.7233106757297 133.64356021937635 M 538.4126349460215 116.3823523969088 L 538.4126349460215 120.22517203995307 M 538.4126349460215 125.52253094594901 L 538.4126349460215 125.85827808173713 M 547.3090763694522 111.24006952224099 L 547.3090763694522 111.90855260874292 M 547.3090763694522 120.22503516790422 L 547.3090763694522 123.55937514953273 M 556.2055177928828 109.33344188199285 L 556.2055177928828 111.51381361990762 M 556.2055177928828 111.90868948079175 L 556.2055177928828 116.55549553868295 M 582.8948420631747 103.8585599286601 L 582.8948420631747 106.13652143739303 M 582.8948420631747 116.49185003597545 L 582.8948420631747 117.7647600901253 M 591.7912834866053 90.46125004475715 L 591.7912834866053 93.19102618668886 M 591.7912834866053 106.14322816778584 L 591.7912834866053 108.53958399875961 M 600.687724910036 82.00105183432088 L 600.687724910036 91.59318188860873 M 600.687724910036 93.19102618668886 L 600.687724910036 99.28087425542972 M 609.5841663334666 86.0679310213053 L 609.5841663334666 91.22773351822376 M 609.5841663334666 91.57087174464888 L 609.5841663334666 97.62198502356989 M 618.4806077568971 77.37080729433849 L 618.4806077568971 79.55460083347414 M 618.4806077568971 91.22787039027256 L 618.4806077568971 92.08701624079931 M 627.3770491803277 75.30841926251806 L 627.3770491803277 78.89583566243937 M 627.3770491803277 79.55473770552297 L 627.3770491803277 84.30529277642978 M 654.0663734506197 69.10715734602687 L 654.0663734506197 72.65159592261455 M 654.0663734506197 83.49186219021341 L 654.0663734506197 88.28252077142838 M 689.6521391443422 90.16464831493533 L 689.6521391443422 92.36336090739381 M 689.6521391443422 100.30631964528898 L 689.6521391443422 104.05620316717538 M 698.5485805677728 83.60081234108472 L 698.5485805677728 85.99689442796077 M 698.5485805677728 92.36349777944261 L 698.5485805677728 95.13981041797767 M 707.4450219912034 63.02743780889969 L 707.4450219912034 65.31717031383229 M 707.4450219912034 85.99675755591196 L 707.4450219912034 85.99689442796077 M 725.2379048380647 70.16066150589694 L 725.2379048380647 72.04826393135724 M 725.2379048380647 78.05872621177478 L 725.2379048380647 84.01211284782883 M 734.1343462614954 66.65673705576398 L 734.1343462614954 69.0670538357187 M 734.1343462614954 72.04840080340604 L 734.1343462614954 76.65934638450291 M 751.9272291083566 72.4190503116467 L 751.9272291083566 72.82063290292366 M 751.9272291083566 79.62522681067215 L 751.9272291083566 81.68528801766242 M 760.8236705317872 69.09305952499705 L 760.8236705317872 69.92250414092695 M 760.8236705317872 72.82063290292366 L 760.8236705317872 76.79895587431291 M 787.512994802079 79.77496483209579 L 787.512994802079 81.12028020007848 M 787.512994802079 84.09273048459166 L 787.512994802079 93.31941216849454 M 814.202319072371 75.54438667470671 L 814.202319072371 77.46018474222669 M 814.202319072371 88.02889686494026 L 814.202319072371 88.24556531824337 M 823.0987604958016 69.21624436894703 L 823.0987604958016 72.44656159346219 M 823.0987604958016 77.46018474222669 L 823.0987604958016 78.79564532269339 M 831.9952019192323 70.0648510717136 L 831.9952019192323 71.10316243416318 M 831.9952019192323 72.44656159346219 L 831.9952019192323 74.84168557599644 M 840.8916433426629 67.03997879249727 L 840.8916433426629 69.00505079759722 M 840.8916433426629 71.09563447147735 L 840.8916433426629 74.15732533182987 M 849.7880847660936 39.802441074666774 L 849.7880847660936 42.87494482687711 M 849.7880847660936 69.00505079759722 L 849.7880847660936 71.02843029550021 M 858.6845261895241 9.143102136003279 L 858.6845261895241 22.869178681203863 M 858.6845261895241 42.87494482687711 L 858.6845261895241 44.319218686166295 M 867.5809676129546 16.18954895404022 L 867.5809676129546 18.62299711024781 M 867.5809676129546 22.869315553252676 L 867.5809676129546 28.989549216834575 M 876.4774090363853 4.058716137991979 L 876.4774090363853 8.847321638474483 M 876.4774090363853 18.62299711024781 L 876.4774090363853 23.514667263501792 M 885.3738504598159 3.846153846153868 L 885.3738504598159 3.8874892049015273 M 885.3738504598159 8.847458510523353 L 885.3738504598159 19.271633749668922" style="stroke-width: 1px;"></path><path class="candle wick down" d="M 13.522590963614554 190.08644510111395 L 13.522590963614554 191.99498895004575 M 13.522590963614554 193.47101712466426 L 13.522590963614554 195.28908854931723 M 49.10835665733706 183.71710430865545 L 49.10835665733706 184.96879919523616 M 49.10835665733706 185.16069380770045 L 49.10835665733706 187.8182015078482 M 58.004798080767685 183.8188002409386 L 58.004798080767685 185.16055693565164 M 58.004798080767685 185.25102935993047 L 58.004798080767685 186.90102190861612 M 75.79768092762893 183.23558844085983 L 75.79768092762893 183.23558844085983 M 75.79768092762893 185.43046861595093 L 75.79768092762893 188.13068039533465 M 84.69412235105956 184.49180010505202 L 84.69412235105956 185.43046861595093 M 84.69412235105956 192.3159539045599 L 84.69412235105956 193.9703263588082 M 102.48700519792082 190.6744474229019 L 102.48700519792082 190.7776489477222 M 102.48700519792082 194.72161703485432 L 102.48700519792082 196.15384615384616 M 120.27988804478207 187.6169995960632 L 120.27988804478207 187.94822995423985 M 120.27988804478207 188.6279365487461 L 120.27988804478207 190.41315868167908 M 146.96921231507397 185.0236848868183 L 146.96921231507397 187.42907427301506 M 146.96921231507397 188.4985924625986 L 146.96921231507397 189.45833926901784 M 164.7620951619352 186.4014389303745 L 164.7620951619352 186.52133884515248 M 164.7620951619352 187.3971830856369 L 164.7620951619352 188.92275894193307 M 173.65853658536582 185.43430103331826 L 173.65853658536582 187.3971830856369 M 173.65853658536582 189.55237036656635 L 173.65853658536582 192.04522099196757 M 182.55497800879647 188.9294656723259 L 182.55497800879647 189.55237036656635 M 182.55497800879647 190.21934786053112 L 182.55497800879647 192.9075148996175 M 191.4514194322271 189.76548014659983 L 191.4514194322271 190.21934786053112 M 191.4514194322271 190.60724324692472 L 191.4514194322271 191.2313797896047 M 218.14074370251896 187.07676561931808 L 218.14074370251896 187.18352581740808 M 218.14074370251896 189.8188602456448 L 218.14074370251896 190.84074696223436 M 280.4158336665334 176.71555152263585 L 280.4158336665334 177.10919553508046 M 280.4158336665334 178.58303375691764 L 280.4158336665334 180.23316317765213 M 289.31227508996403 176.8390101106835 L 289.31227508996403 178.58289688486883 M 289.31227508996403 178.61957859395616 L 289.31227508996403 180.50690727531878 M 307.10515793682526 176.93249372003666 L 307.10515793682526 177.4255068399343 M 307.10515793682526 179.96872637930616 L 307.10515793682526 181.60188366598533 M 369.38024790083966 156.58591617276844 L 369.38024790083966 157.39140818015252 M 369.38024790083966 158.01787154766262 L 369.38024790083966 160.79623726693018 M 387.1731307477009 152.17439316682174 L 387.1731307477009 155.43564347437322 M 387.1731307477009 156.57031275920144 L 387.1731307477009 158.49788182292107 M 413.86245501799283 145.20103602286179 L 413.86245501799283 148.25766261740748 M 413.86245501799283 153.31864349506827 L 413.86245501799283 158.49788182292107 M 449.44822071171535 144.71486650540584 L 449.44822071171535 146.13833581327236 M 449.44822071171535 146.54210835733065 L 449.44822071171535 148.71153033133876 M 458.34466213514594 145.60453482282242 L 458.34466213514594 146.5422452293795 M 458.34466213514594 149.44557512923183 L 458.34466213514594 154.29522556349403 M 493.93042782886846 116.45078842132544 L 493.93042782886846 121.51478048406058 M 493.93042782886846 121.65302125338225 L 493.93042782886846 127.31842909869098 M 502.82686925229905 119.27692248563582 L 502.82686925229905 121.65288438133341 M 502.82686925229905 132.07747023662552 L 502.82686925229905 138.56630032771548 M 520.6197520991603 118.09325300732529 L 520.6197520991603 123.08771406925308 M 520.6197520991603 125.09549015358905 L 520.6197520991603 132.2521189709368 M 529.5161935225909 123.2943908629914 L 529.5161935225909 125.09549015358905 M 529.5161935225909 125.52253094594901 L 529.5161935225909 128.59873024347786 M 565.1019592163135 111.42772110119148 L 565.1019592163135 111.52284717513062 M 565.1019592163135 114.93903664196144 L 565.1019592163135 120.4200778374917 M 573.998400639744 113.43960334699244 L 573.998400639744 114.95121825430762 M 573.998400639744 116.49185003597545 L 573.998400639744 118.9867537421092 M 636.2734906037584 78.26348679682941 L 636.2734906037584 78.89583566243937 M 636.2734906037584 82.85650213952911 L 636.2734906037584 93.85512936762812 M 645.169932027189 78.04449151869612 L 645.169932027189 82.86403010221493 M 645.169932027189 83.49199906226221 L 645.169932027189 88.52889045932837 M 662.9628148740503 68.21420409943832 L 662.9628148740503 72.65173279466335 M 662.9628148740503 78.68628455567554 L 662.9628148740503 81.6815924723439 M 671.8592562974809 76.00468737493318 L 671.8592562974809 78.69011697304286 M 671.8592562974809 100.17026882874863 L 671.8592562974809 113.33010570792578 M 680.7556977209116 95.95255664394993 L 680.7556977209116 100.17026882874863 M 680.7556977209116 100.30645651733779 L 680.7556977209116 109.9072095107021 M 716.3414634146341 62.687447639597735 L 716.3414634146341 65.31717031383229 M 716.3414634146341 78.05872621177478 L 716.3414634146341 88.51356078985904 M 743.0307876849259 67.62852860248054 L 743.0307876849259 69.06103146557007 M 743.0307876849259 79.62508993862328 L 743.0307876849259 80.79137666673198 M 769.7201119552178 69.08060416855321 L 769.7201119552178 69.93249580049181 M 769.7201119552178 72.55729108096833 L 769.7201119552178 76.17098691426563 M 778.6165533786485 70.80615008819487 L 778.6165533786485 72.55729108096833 M 778.6165533786485 84.09273048459166 L 778.6165533786485 85.79144948266197 M 796.4094362255097 80.90073743374981 L 796.4094362255097 81.12014332802961 M 796.4094362255097 85.04371747988554 L 796.4094362255097 89.74540922935891 M 805.3058776489403 84.52223497383062 L 805.3058776489403 85.04125378300654 M 805.3058776489403 88.02889686494026 L 805.3058776489403 94.3824973717829" style="stroke-width: 1px;"></path><path class="candle wick equal" style="stroke-width: 1px;"></path></g></g><g class="x axis" transform="translate(0,200)" fill="none" font-size="10" font-family="sans-serif" text-anchor="middle"><path class="domain" stroke="#000" d="M0.5,6V0.5H890.5V6"></path><g class="tick" opacity="1" transform="translate(22.41903238704518,0)"><line stroke="#000" y2="6" x1="0.5" x2="0.5"></line><text fill="#000" y="9" x="0.5" dy="0.71em">Sep 14</text></g><g class="tick" opacity="1" transform="translate(84.69412235105956,0)"><line stroke="#000" y2="6" x1="0.5" x2="0.5"></line><text fill="#000" y="9" x="0.5" dy="0.71em">Sep 21</text></g><g class="tick" opacity="1" transform="translate(146.96921231507397,0)"><line stroke="#000" y2="6" x1="0.5" x2="0.5"></line><text fill="#000" y="9" x="0.5" dy="0.71em">Sep 28</text></g><g class="tick" opacity="1" transform="translate(209.24430227908834,0)"><line stroke="#000" y2="6" x1="0.5" x2="0.5"></line><text fill="#000" y="9" x="0.5" dy="0.71em">Oct  5</text></g><g class="tick" opacity="1" transform="translate(271.51939224310274,0)"><line stroke="#000" y2="6" x1="0.5" x2="0.5"></line><text fill="#000" y="9" x="0.5" dy="0.71em">Oct 12</text></g><g class="tick" opacity="1" transform="translate(333.7944822071172,0)"><line stroke="#000" y2="6" x1="0.5" x2="0.5"></line><text fill="#000" y="9" x="0.5" dy="0.71em">Oct 19</text></g><g class="tick" opacity="1" transform="translate(396.06957217113154,0)"><line stroke="#000" y2="6" x1="0.5" x2="0.5"></line><text fill="#000" y="9" x="0.5" dy="0.71em">Oct 26</text></g><g class="tick" opacity="1" transform="translate(458.34466213514594,0)"><line stroke="#000" y2="6" x1="0.5" x2="0.5"></line><text fill="#000" y="9" x="0.5" dy="0.71em">Nov  2</text></g><g class="tick" opacity="1" transform="translate(520.6197520991603,0)"><line stroke="#000" y2="6" x1="0.5" x2="0.5"></line><text fill="#000" y="9" x="0.5" dy="0.71em">Nov  9</text></g><g class="tick" opacity="1" transform="translate(582.8948420631747,0)"><line stroke="#000" y2="6" x1="0.5" x2="0.5"></line><text fill="#000" y="9" x="0.5" dy="0.71em">Nov 16</text></g><g class="tick" opacity="1" transform="translate(645.169932027189,0)"><line stroke="#000" y2="6" x1="0.5" x2="0.5"></line><text fill="#000" y="9" x="0.5" dy="0.71em">Nov 23</text></g><g class="tick" opacity="1" transform="translate(707.4450219912034,0)"><line stroke="#000" y2="6" x1="0.5" x2="0.5"></line><text fill="#000" y="9" x="0.5" dy="0.71em">Nov 30</text></g><g class="tick" opacity="1" transform="translate(769.7201119552178,0)"><line stroke="#000" y2="6" x1="0.5" x2="0.5"></line><text fill="#000" y="9" x="0.5" dy="0.71em">Dec  7</text></g><g class="tick" opacity="1" transform="translate(831.9952019192323,0)"><line stroke="#000" y2="6" x1="0.5" x2="0.5"></line><text fill="#000" y="9" x="0.5" dy="0.71em">Dec 14</text></g></g><g class="y axis" fill="none" font-size="10" font-family="sans-serif" text-anchor="end"><path class="domain" stroke="#000" d="M-6,200.5H0.5V0.5H-6"></path><g class="tick" opacity="1" transform="translate(0,198.02652952598362)"><line stroke="#000" x2="-6" y1="0.5" y2="0.5"></line><text fill="#000" x="-9" y="0.5" dy="0.32em">10,000</text></g><g class="tick" opacity="1" transform="translate(0,170.65211975931982)"><line stroke="#000" x2="-6" y1="0.5" y2="0.5"></line><text fill="#000" x="-9" y="0.5" dy="0.32em">12,000</text></g><g class="tick" opacity="1" transform="translate(0,143.27770999265599)"><line stroke="#000" x2="-6" y1="0.5" y2="0.5"></line><text fill="#000" x="-9" y="0.5" dy="0.32em">14,000</text></g><g class="tick" opacity="1" transform="translate(0,115.90330022599218)"><line stroke="#000" x2="-6" y1="0.5" y2="0.5"></line><text fill="#000" x="-9" y="0.5" dy="0.32em">16,000</text></g><g class="tick" opacity="1" transform="translate(0,88.52889045932837)"><line stroke="#000" x2="-6" y1="0.5" y2="0.5"></line><text fill="#000" x="-9" y="0.5" dy="0.32em">18,000</text></g><g class="tick" opacity="1" transform="translate(0,61.15448069266455)"><line stroke="#000" x2="-6" y1="0.5" y2="0.5"></line><text fill="#000" x="-9" y="0.5" dy="0.32em">20,000</text></g><g class="tick" opacity="1" transform="translate(0,33.78007092600072)"><line stroke="#000" x2="-6" y1="0.5" y2="0.5"></line><text fill="#000" x="-9" y="0.5" dy="0.32em">22,000</text></g><g class="tick" opacity="1" transform="translate(0,6.4056611593369155)"><line stroke="#000" x2="-6" y1="0.5" y2="0.5"></line><text fill="#000" x="-9" y="0.5" dy="0.32em">24,000</text></g><text transform="rotate(-90)" y="6" dy=".71em" style="text-anchor: end;">Price ($)</text></g></g></svg>