<?xml version="1.0" encoding="utf-8"?>
<!DOCTYPE svg PUBLIC "-//W3C//DTD SVG 1.1//EN" "http://www.w3.org/Graphics/SVG/1.1/DTD/svg11.dtd">
<svg version="1.1" xmlns="http://www.w3.org/2000/svg" width="960" height="250"><g transform="translate(50,20)"><style>.axis path,.axis line{fill:none;stroke:#000;shape-rendering:crispEdges;}path.candle{stroke:#000000;}path.candle.body{stroke-width:0;}path.candle.up{fill:#00AA00;stroke:#00AA00;}path.candle.down{fill:#FF0000;stroke:#FF0000;}</style><g class="candlestick"><g class="data"><path class="candle body up" d="M 1.0675729708116766 74.3402322863505 l 7.1171531387445 0 L 8.184726109556177 69.20876934967558 l -7.1171531387445 0 L 1.0675729708116766 74.3402322863505 M 9.964014394242305 69.20876934967558 l 7.1171531387445 0 L 17.081167532986804 47.02038497179956 l -7.1171531387445 0 L 9.964014394242305 69.20876934967558 M 36.65333866453418 69.21609389077713 l 7.1171531387445 0 L 43.77049180327868 68.67856931314128 l -7.1171531387445 0 L 36.65333866453418 69.21609389077713 M 54.446221511395436 75.79588118112841 l 7.1171531387445 0 L 61.563374650139934 62.70830822144359 l -7.1171531387445 0 L 54.446221511395436 75.79588118112841 M 72.23910435825668 65.41037289349305 l 7.1171531387445 0 L 79.35625749700118 52.739815080489365 l -7.1171531387445 0 L 72.23910435825668 65.41037289349305 M 90.03198720511796 54.094924283731046 l 7.1171531387445 0 L 97.14914034386246 48.29319673681465 l -7.1171531387445 0 L 90.03198720511796 54.094924283731046 M 98.92842862854857 48.29319673681465 l 7.1171531387445 0 L 106.04558176729307 45.227807186347746 l -7.1171531387445 0 L 98.92842862854857 48.29319673681465 M 125.61775289884046 53.511932271709725 l 7.1171531387445 0 L 132.73490603758498 44.101486243364775 l -7.1171531387445 0 L 125.61775289884046 53.511932271709725 M 134.51419432227107 44.101486243364775 l 7.1171531387445 0 L 141.63134746101557 40.51778176079256 l -7.1171531387445 0 L 134.51419432227107 44.101486243364775 M 143.4106357457017 40.51778176079256 l 7.1171531387445 0 L 150.5277888844462 32.85672636517768 l -7.1171531387445 0 L 143.4106357457017 40.51778176079256 M 152.30707716913233 32.85672636517768 l 7.1171531387445 0 L 159.42423030787683 30.633797240284224 l -7.1171531387445 0 L 152.30707716913233 32.85672636517768 M 161.20351859256294 30.633797240284224 l 7.1171531387445 0 L 168.32067173130744 29.264868148171672 l -7.1171531387445 0 L 161.20351859256294 30.633797240284224 M 170.09996001599356 29.264868148171672 l 7.1171531387445 0 L 177.21711315473806 13.258050962830254 l -7.1171531387445 0 L 170.09996001599356 29.264868148171672 M 178.9964014394242 13.258050962830254 l 7.1171531387445 0 L 186.1135545781687 11.223417823803658 l -7.1171531387445 0 L 178.9964014394242 13.258050962830254 M 187.89284286285485 11.223417823803658 l 7.1171531387445 0 L 195.00999600159935 9.063438292717422 l -7.1171531387445 0 L 187.89284286285485 11.223417823803658 M 214.5821671331467 22.361280861573874 l 7.1171531387445 0 L 221.6993202718912 17.01892642072812 l -7.1171531387445 0 L 214.5821671331467 22.361280861573874 M 232.37504998000796 20.28387516649167 l 7.1171531387445 0 L 239.49220311875246 16.163060702949736 l -7.1171531387445 0 L 232.37504998000796 20.28387516649167 M 241.2714914034386 16.16299160350539 l 7.1171531387445 0 L 248.3886445421831 14.966534724502282 l -7.1171531387445 0 L 241.2714914034386 16.16299160350539 M 267.9608156737305 38.529721647261084 l 7.1171531387445 0 L 275.07796881247504 36.63833165638192 l -7.1171531387445 0 L 267.9608156737305 38.529721647261084 M 285.7536985205918 44.87616011402628 l 7.1171531387445 0 L 292.8708516593363 41.407713504637826 l -7.1171531387445 0 L 285.7536985205918 44.87616011402628 M 312.4430227908837 63.682057591291226 l 7.1171531387445 0 L 319.5601759296282 59.91966194561755 l -7.1171531387445 0 L 312.4430227908837 63.682057591291226 M 321.3394642143143 59.91959284617323 l 7.1171531387445 0 L 328.45661735305885 52.50632805801453 l -7.1171531387445 0 L 321.3394642143143 59.91959284617323 M 339.13234706117555 60.835713279428916 l 7.1171531387445 0 L 346.2495001999201 56.62389484767175 l -7.1171531387445 0 L 339.13234706117555 60.835713279428916 M 365.8216713314674 62.66173519594847 l 7.1171531387445 0 L 372.93882447021196 54.901729396017515 l -7.1171531387445 0 L 365.8216713314674 62.66173519594847 M 374.7181127548981 54.901729396017515 l 7.1171531387445 0 L 381.8352658936426 50.11970234944468 l -7.1171531387445 0 L 374.7181127548981 54.901729396017515 M 419.20031987205124 64.29593705493909 l 7.1171531387445 0 L 426.31747301079577 64.23706432834882 l -7.1171531387445 0 L 419.20031987205124 64.29593705493909 M 428.0967612954818 64.23713342779317 l 7.1171531387445 0 L 435.21391443422635 57.49330405654368 l -7.1171531387445 0 L 428.0967612954818 64.23713342779317 M 445.8896441423431 73.47904591135685 l 7.1171531387445 0 L 453.00679728108764 65.71862551475976 l -7.1171531387445 0 L 445.8896441423431 73.47904591135685 M 454.7860855657737 65.71862551475976 l 7.1171531387445 0 L 461.90323870451823 62.21977514985525 l -7.1171531387445 0 L 454.7860855657737 65.71862551475976 M 481.47540983606564 76.80853353814774 l 7.1171531387445 0 L 488.59256297481016 71.02110957621284 l -7.1171531387445 0 L 481.47540983606564 76.80853353814774 M 490.3718512594962 71.02110957621284 l 7.1171531387445 0 L 497.48900439824075 70.62855563283327 l -7.1171531387445 0 L 490.3718512594962 71.02110957621284 M 508.16473410635746 76.13032249180559 l 7.1171531387445 0 L 515.281887245102 62.579575956610626 l -7.1171531387445 0 L 508.16473410635746 76.13032249180559 M 561.5433826469413 129.02401236095085 l 7.1171531387445 0 L 568.6605357856857 122.50883305107132 l -7.1171531387445 0 L 561.5433826469413 129.02401236095085 M 588.232706917233 136.24138022436367 l 7.1171531387445 0 L 595.3498600559775 134.46338242167073 l -7.1171531387445 0 L 588.232706917233 136.24138022436367 M 597.1291483406637 134.46338242167073 l 7.1171531387445 0 L 604.2463014794082 128.937568956063 l -7.1171531387445 0 L 597.1291483406637 134.46338242167073 M 606.0255897640943 128.937568956063 l 7.1171531387445 0 L 613.1427429028388 120.3543814755335 l -7.1171531387445 0 L 606.0255897640943 128.937568956063 M 623.8184726109555 130.40752143582233 l 7.1171531387445 0 L 630.9356257497 126.46249595871899 l -7.1171531387445 0 L 623.8184726109555 130.40752143582233 M 641.6113554578168 138.41393585432243 l 7.1171531387445 0 L 648.7285085965613 127.33107597425862 l -7.1171531387445 0 L 641.6113554578168 138.41393585432243 M 659.4042383046781 135.05791404089928 l 7.1171531387445 0 L 666.5213914434225 133.37154210142077 l -7.1171531387445 0 L 659.4042383046781 135.05791404089928 M 668.3006797281087 133.37147300197643 l 7.1171531387445 0 L 675.4178328668531 127.50582846903188 l -7.1171531387445 0 L 668.3006797281087 133.37147300197643 M 686.09356257497 135.6927306361867 l 7.1171531387445 0 L 693.2107157137144 131.92377054329933 l -7.1171531387445 0 L 686.09356257497 135.6927306361867 M 721.6793282686924 139.00487430244453 l 7.1171531387445 0 L 728.7964814074369 136.23039341271124 l -7.1171531387445 0 L 721.6793282686924 139.00487430244453 M 730.5757696921231 136.23039341271124 l 7.1171531387445 0 L 737.6929228308676 133.21233698162735 l -7.1171531387445 0 L 730.5757696921231 136.23039341271124 M 739.4722111155537 133.21233698162735 l 7.1171531387445 0 L 746.5893642542982 117.55357369750102 l -7.1171531387445 0 L 739.4722111155537 133.21233698162735 M 748.3686525389844 117.55350459805668 l 7.1171531387445 0 L 755.4858056777289 117.09185121032236 l -7.1171531387445 0 L 748.3686525389844 117.55350459805668 M 766.1615353858456 130.8785723479889 l 7.1171531387445 0 L 773.27868852459 126.40935848601018 l -7.1171531387445 0 L 766.1615353858456 130.8785723479889 M 783.9544182327068 131.60846977870847 l 7.1171531387445 0 L 791.0715713714512 130.47641358184404 l -7.1171531387445 0 L 783.9544182327068 131.60846977870847 M 792.8508596561375 130.47648268128842 l 7.1171531387445 0 L 799.9680127948819 130.09519194733872 l -7.1171531387445 0 L 792.8508596561375 130.47648268128842 M 801.747301079568 130.09526104678304 l 7.1171531387445 0 L 808.8644542183125 120.048892832041 l -7.1171531387445 0 L 801.747301079568 130.09526104678304"></path><path class="candle body down" d="M 18.860455817672932 47.020454071243904 l 7.1171531387445 0 L 25.977608956417434 64.43144106531884 l -7.1171531387445 0 L 18.860455817672932 47.020454071243904 M 27.75689724110356 64.43137196587446 l 7.1171531387445 0 L 34.87405037984806 69.21609389077713 l -7.1171531387445 0 L 27.75689724110356 64.43137196587446 M 45.54978008796481 68.67863841258566 l 7.1171531387445 0 L 52.66693322670931 75.79595028057278 l -7.1171531387445 0 L 45.54978008796481 68.67863841258566 M 63.342662934826066 62.70830822144359 l 7.1171531387445 0 L 70.45981607357056 65.41037289349305 l -7.1171531387445 0 L 63.342662934826066 62.70830822144359 M 81.13554578168731 52.73974598104502 l 7.1171531387445 0 L 88.25269892043181 54.09485518428667 l -7.1171531387445 0 L 81.13554578168731 52.73974598104502 M 107.82487005197919 45.227807186347746 l 7.1171531387445 0 L 114.94202319072369 51.71638321015067 l -7.1171531387445 0 L 107.82487005197919 45.227807186347746 M 116.72131147540982 51.71638321015067 l 7.1171531387445 0 L 123.83846461415432 53.51200137115407 l -7.1171531387445 0 L 116.72131147540982 51.71638321015067 M 196.78928428628546 9.063507392161796 l 7.1171531387445 0 L 203.90643742502996 11.598075011095318 l -7.1171531387445 0 L 196.78928428628546 9.063507392161796 M 205.68572570971608 11.598075011095318 l 7.1171531387445 0 L 212.80287884846058 22.36134996101825 l -7.1171531387445 0 L 205.68572570971608 11.598075011095318 M 223.47860855657734 17.01892642072812 l 7.1171531387445 0 L 230.59576169532184 20.283806067047294 l -7.1171531387445 0 L 223.47860855657734 17.01892642072812 M 250.16793282686922 14.966603823946656 l 7.1171531387445 0 L 257.28508596561375 22.449728150347994 l -7.1171531387445 0 L 250.16793282686922 14.966603823946656 M 259.06437425029986 22.44979724979234 l 7.1171531387445 0 L 266.1815273890444 38.529721647261084 l -7.1171531387445 0 L 259.06437425029986 22.44979724979234 M 276.85725709716115 36.638262556937605 l 7.1171531387445 0 L 283.9744102359057 44.876229213470566 l -7.1171531387445 0 L 276.85725709716115 36.638262556937605 M 294.65013994402244 41.4077826040822 l 7.1171531387445 0 L 301.76729308276697 45.51995963707978 l -7.1171531387445 0 L 294.65013994402244 41.4077826040822 M 303.54658136745303 45.51995963707978 l 7.1171531387445 0 L 310.66373450619756 63.682057591291226 l -7.1171531387445 0 L 303.54658136745303 45.51995963707978 M 330.23590563774496 52.506397157458935 l 7.1171531387445 0 L 337.3530587764895 60.8356441799846 l -7.1171531387445 0 L 330.23590563774496 52.506397157458935 M 348.02878848460614 56.62389484767175 l 7.1171531387445 0 L 355.14594162335067 57.8206281244523 l -7.1171531387445 0 L 348.02878848460614 56.62389484767175 M 356.9252299080368 57.82069722389667 l 7.1171531387445 0 L 364.0423830467813 62.66166609650409 l -7.1171531387445 0 L 356.9252299080368 57.82069722389667 M 383.61455417832866 50.119633250000305 l 7.1171531387445 0 L 390.7317073170732 51.052475748789874 l -7.1171531387445 0 L 383.61455417832866 50.119633250000305 M 392.5109956017593 51.052475748789874 l 7.1171531387445 0 L 399.62814874050383 57.12065075313831 l -7.1171531387445 0 L 392.5109956017593 51.052475748789874 M 401.40743702518995 57.12065075313831 l 7.1171531387445 0 L 408.5245901639345 62.44704322233815 l -7.1171531387445 0 L 401.40743702518995 57.12065075313831 M 410.3038784486206 62.44697412289378 l 7.1171531387445 0 L 417.4210315873651 64.29600615438346 l -7.1171531387445 0 L 410.3038784486206 62.44697412289378 M 436.99320271891247 57.49330405654368 l 7.1171531387445 0 L 444.110355857657 73.47897681191249 l -7.1171531387445 0 L 436.99320271891247 57.49330405654368 M 463.68252698920435 62.219844249299626 l 7.1171531387445 0 L 470.7996801279489 70.13829507513609 l -7.1171531387445 0 L 463.68252698920435 62.219844249299626 M 472.57896841263494 70.13829507513609 l 7.1171531387445 0 L 479.69612155137946 76.80853353814774 l -7.1171531387445 0 L 472.57896841263494 70.13829507513609 M 499.2682926829268 70.62855563283327 l 7.1171531387445 0 L 506.38544582167134 76.13032249180559 l -7.1171531387445 0 L 499.2682926829268 70.62855563283327 M 517.0611755297881 62.579575956610626 l 7.1171531387445 0 L 524.1783286685326 84.25627894903944 l -7.1171531387445 0 L 517.0611755297881 62.579575956610626 M 525.9576169532187 84.25627894903944 l 7.1171531387445 0 L 533.0747700919632 87.98212098864944 l -7.1171531387445 0 L 525.9576169532187 84.25627894903944 M 534.8540583766493 87.98212098864944 l 7.1171531387445 0 L 541.9712115153937 91.72302670712871 l -7.1171531387445 0 L 534.8540583766493 87.98212098864944 M 543.75049980008 91.72295760768434 l 7.1171531387445 0 L 550.8676529388244 101.63181792816039 l -7.1171531387445 0 L 543.75049980008 91.72295760768434 M 552.6469412235106 101.63188702760475 l 7.1171531387445 0 L 559.764094362255 129.00963967652504 l -7.1171531387445 0 L 552.6469412235106 101.63188702760475 M 570.4398240703717 122.50876395162695 l 7.1171531387445 0 L 577.5569772091162 135.7286623472512 l -7.1171531387445 0 L 570.4398240703717 122.50876395162695 M 579.3362654938024 135.7286623472512 l 7.1171531387445 0 L 586.4534186325469 136.24131112491932 l -7.1171531387445 0 L 579.3362654938024 135.7286623472512 M 614.9220311875249 120.3543814755335 l 7.1171531387445 0 L 622.0391843262694 130.40752143582233 l -7.1171531387445 0 L 614.9220311875249 120.3543814755335 M 632.7149140343862 126.46249595871899 l 7.1171531387445 0 L 639.8320671731307 138.4140049537668 l -7.1171531387445 0 L 632.7149140343862 126.46249595871899 M 650.5077968812475 127.33114507370297 l 7.1171531387445 0 L 657.624950019992 135.05791404089928 l -7.1171531387445 0 L 650.5077968812475 127.33114507370297 M 677.1971211515394 127.50589756847623 l 7.1171531387445 0 L 684.3142742902838 135.69266153674232 l -7.1171531387445 0 L 677.1971211515394 127.50589756847623 M 694.9900039984005 131.92377054329933 l 7.1171531387445 0 L 702.107157137145 132.70065559618018 l -7.1171531387445 0 L 694.9900039984005 131.92377054329933 M 703.8864454218311 132.70072469562456 l 7.1171531387445 0 L 711.0035985605756 135.05556465979123 l -7.1171531387445 0 L 703.8864454218311 132.70072469562456 M 712.7828868452618 135.05556465979123 l 7.1171531387445 0 L 719.9000399840063 139.0049434018889 l -7.1171531387445 0 L 712.7828868452618 135.05556465979123 M 757.265093962415 117.09178211087801 l 7.1171531387445 0 L 764.3822471011595 130.8786414474332 l -7.1171531387445 0 L 757.265093962415 117.09178211087801 M 775.0579768092763 126.40928938656579 l 7.1171531387445 0 L 782.1751299480208 131.60846977870847 l -7.1171531387445 0 L 775.0579768092763 126.40928938656579 M 810.6437425029987 120.048892832041 l 7.1171531387445 0 L 817.7608956417432 121.76096976481946 l -7.1171531387445 0 L 810.6437425029987 120.048892832041 M 819.5401839264293 121.76103886426384 l 7.1171531387445 0 L 826.6573370651738 128.12198821434347 l -7.1171531387445 0 L 819.5401839264293 121.76103886426384 M 828.43662534986 128.12198821434347 l 7.1171531387445 0 L 835.5537784886045 128.77732734460426 l -7.1171531387445 0 L 828.43662534986 128.12198821434347 M 837.3330667732906 128.77732734460426 l 7.1171531387445 0 L 844.4502199120351 135.81199627714304 l -7.1171531387445 0 L 837.3330667732906 128.77732734460426 M 846.2295081967213 135.8120653765874 l 7.1171531387445 0 L 853.3466613354658 140.42217300560552 l -7.1171531387445 0 L 846.2295081967213 135.8120653765874 M 855.1259496201519 140.42210390616117 l 7.1171531387445 0 L 862.2431027588964 153.20674490179462 l -7.1171531387445 0 L 855.1259496201519 140.42210390616117 M 864.0223910435824 153.20674490179462 l 7.1171531387445 0 L 871.1395441823269 181.44851700292713 l -7.1171531387445 0 L 864.0223910435824 153.20674490179462 M 872.9188324670131 181.46330428401905 l 7.1171531387445 0 L 880.0359856057576 183.87390749978005 l -7.1171531387445 0 L 872.9188324670131 181.46330428401905 M 881.8152738904437 183.8738384003357 l 7.1171531387445 0 L 888.9324270291881 194.5940643964256 l -7.1171531387445 0 L 881.8152738904437 183.8738384003357"></path><path class="candle body equal"></path><path class="candle wick up" d="M 4.626149540183927 64.84548493589267 L 4.626149540183927 69.20876934967558 M 4.626149540183927 74.3402322863505 L 4.626149540183927 75.1719131986047 M 13.522590963614554 42.51268271931522 L 13.522590963614554 47.02038497179956 M 13.522590963614554 69.20876934967558 L 13.522590963614554 69.72134902789935 M 40.21191523390643 63.98429856089905 L 40.21191523390643 68.67856931314128 M 40.21191523390643 69.21609389077713 L 40.21191523390643 69.69322555404696 M 58.004798080767685 60.802891043360404 L 58.004798080767685 62.70830822144359 M 58.004798080767685 75.79588118112841 L 58.004798080767685 77.33230732635703 M 75.79768092762893 48.566208641460406 L 75.79768092762893 52.739815080489365 M 75.79768092762893 65.41037289349305 L 75.79768092762893 68.53263128666396 M 93.5905637744902 44.37173417023632 L 93.5905637744902 48.29319673681465 M 93.5905637744902 54.094924283731046 L 93.5905637744902 59.504374285045316 M 102.48700519792082 43.853626536464134 L 102.48700519792082 45.227807186347746 M 102.48700519792082 48.29319673681465 L 102.48700519792082 50.077482588943894 M 129.1763294682127 37.2131699339694 L 129.1763294682127 44.101486243364775 M 129.1763294682127 53.511932271709725 L 129.1763294682127 54.387767728906624 M 138.07277089164333 39.52827771763208 L 138.07277089164333 40.51778176079256 M 138.07277089164333 44.101486243364775 L 138.07277089164333 48.33493280120493 M 146.96921231507397 31.27137781334585 L 146.96921231507397 32.85672636517768 M 146.96921231507397 40.51778176079256 L 146.96921231507397 42.74485685234728 M 155.8656537385046 25.237268835064356 L 155.8656537385046 30.633797240284224 M 155.8656537385046 32.85672636517768 L 155.8656537385046 35.7068020470351 M 164.7620951619352 27.31819860180869 L 164.7620951619352 29.264868148171672 M 164.7620951619352 30.633797240284224 L 164.7620951619352 32.30040673867728 M 173.65853658536582 12.074792077698959 L 173.65853658536582 13.258050962830254 M 173.65853658536582 29.264868148171672 L 173.65853658536582 29.885450257921946 M 182.55497800879647 3.846153846153868 L 182.55497800879647 11.223417823803658 M 182.55497800879647 13.258050962830254 L 182.55497800879647 14.39266383913585 M 191.4514194322271 4.49133535809446 L 191.4514194322271 9.063438292717422 M 191.4514194322271 11.223417823803658 L 191.4514194322271 12.407505902267246 M 218.14074370251896 14.002044680198253 L 218.14074370251896 17.01892642072812 M 218.14074370251896 22.361280861573874 L 218.14074370251896 31.41572655260302 M 235.93362654938022 8.999106710023142 L 235.93362654938022 16.163060702949736 M 235.93362654938022 20.28387516649167 L 235.93362654938022 22.21914330453609 M 244.83006797281087 12.82306996061692 L 244.83006797281087 14.966534724502282 M 244.83006797281087 16.16299160350539 L 244.83006797281087 25.07239756083382 M 271.51939224310274 33.48186903825541 L 271.51939224310274 36.63833165638192 M 271.51939224310274 38.529721647261084 L 271.51939224310274 41.59165622551029 M 289.31227508996403 41.08964876227276 L 289.31227508996403 41.407713504637826 M 289.31227508996403 44.87616011402628 L 289.31227508996403 45.750544482891655 M 316.0015993602559 55.607442021212904 L 316.0015993602559 59.91966194561755 M 316.0015993602559 63.682057591291226 L 316.0015993602559 65.58795846548489 M 324.89804078368655 49.64892783505553 L 324.89804078368655 52.50632805801453 M 324.89804078368655 59.91959284617323 L 324.89804078368655 63.28065891903424 M 342.6909236305478 54.423353942749344 L 342.6909236305478 56.62389484767175 M 342.6909236305478 60.835713279428916 L 342.6909236305478 62.05165620174006 M 369.38024790083966 52.7209509321805 L 369.38024790083966 54.901729396017515 M 369.38024790083966 62.66173519594847 L 369.38024790083966 70.5501277634906 M 378.2766893242703 48.275990975170316 L 378.2766893242703 50.11970234944468 M 378.2766893242703 54.901729396017515 L 378.2766893242703 56.49191490895416 M 422.7588964414235 60.85208984774101 L 422.7588964414235 64.23706432834882 M 422.7588964414235 64.29593705493909 L 422.7588964414235 67.83375950645967 M 431.65533786485406 56.180967409357606 L 431.65533786485406 57.49330405654368 M 431.65533786485406 64.23713342779317 L 431.65533786485406 72.87539316547344 M 449.44822071171535 64.0671487946804 L 449.44822071171535 65.71862551475976 M 449.44822071171535 73.47904591135685 L 449.44822071171535 75.07752335761609 M 458.34466213514594 57.86264058662002 L 458.34466213514594 62.21977514985525 M 458.34466213514594 65.71862551475976 L 458.34466213514594 68.1667497288054 M 485.0339864054379 69.59316955862121 L 485.0339864054379 71.02110957621284 M 485.0339864054379 76.80853353814774 L 485.0339864054379 78.49746215706742 M 493.93042782886846 66.19112751525779 L 493.93042782886846 70.62855563283327 M 493.93042782886846 71.02110957621284 L 493.93042782886846 73.89806494192426 M 511.7233106757297 60.27324380238102 L 511.7233106757297 62.579575956610626 M 511.7233106757297 76.13032249180559 L 511.7233106757297 76.53766371627701 M 565.1019592163135 111.16346438190365 L 565.1019592163135 122.50883305107132 M 565.1019592163135 129.02401236095085 L 565.1019592163135 131.39985855620137 M 591.7912834866053 122.05091103333216 L 591.7912834866053 134.46338242167073 M 591.7912834866053 136.24138022436367 L 591.7912834866053 138.16282847353716 M 600.687724910036 127.16496091002972 L 600.687724910036 128.937568956063 M 600.687724910036 134.46338242167073 L 600.687724910036 139.00356141300182 M 609.5841663334666 119.44841866059792 L 609.5841663334666 120.3543814755335 M 609.5841663334666 128.937568956063 L 609.5841663334666 133.1301086428452 M 627.3770491803277 124.08934464179829 L 627.3770491803277 126.46249595871899 M 627.3770491803277 130.40752143582233 L 627.3770491803277 133.33478119702403 M 645.169932027189 125.76977402906228 L 645.169932027189 127.33107597425862 M 645.169932027189 138.41393585432243 L 645.169932027189 138.57942902355214 M 662.9628148740503 131.91271463220258 L 662.9628148740503 133.37154210142077 M 662.9628148740503 135.05791404089928 L 662.9628148740503 136.81117424251323 M 671.8592562974809 126.16495375132727 L 671.8592562974809 127.50582846903188 M 671.8592562974809 133.37147300197643 L 671.8592562974809 134.6840860469399 M 689.6521391443422 130.60203637168104 L 689.6521391443422 131.92377054329933 M 689.6521391443422 135.6927306361867 L 689.6521391443422 138.73407358001816 M 725.2379048380647 134.60883675203755 L 725.2379048380647 136.23039341271124 M 725.2379048380647 139.00487430244453 L 725.2379048380647 140.24735141138794 M 734.1343462614954 132.38535483158932 L 734.1343462614954 133.21233698162735 M 734.1343462614954 136.23039341271124 L 734.1343462614954 137.55793193765538 M 743.0307876849259 114.18304100076338 L 743.0307876849259 117.55357369750102 M 743.0307876849259 133.21233698162735 L 743.0307876849259 134.37652442011677 M 751.9272291083566 112.9599808356837 L 751.9272291083566 117.09185121032236 M 751.9272291083566 117.55350459805668 L 751.9272291083566 121.24493511437797 M 769.7201119552178 124.77598582035178 L 769.7201119552178 126.40935848601018 M 769.7201119552178 130.8785723479889 L 769.7201119552178 132.3385745077611 M 787.512994802079 129.6137761185189 L 787.512994802079 130.47641358184404 M 787.512994802079 131.60846977870847 L 787.512994802079 133.09555892066777 M 796.4094362255097 128.230958038091 L 796.4094362255097 130.09519194733872 M 796.4094362255097 130.47648268128842 L 796.4094362255097 132.77479929997287 M 805.3058776489403 117.3364632433383 L 805.3058776489403 120.048892832041 M 805.3058776489403 130.09526104678304 L 805.3058776489403 130.29544213707885" style="stroke-width: 1px;"></path><path class="candle wick down" d="M 22.41903238704518 46.343763212677516 L 22.41903238704518 47.020454071243904 M 22.41903238704518 64.43144106531884 L 22.41903238704518 70.52787774240835 M 31.315473810475808 58.80494970928618 L 31.315473810475808 64.43137196587446 M 31.315473810475808 69.21609389077713 L 31.315473810475808 72.71231847679618 M 49.10835665733706 65.20535484209242 L 49.10835665733706 68.67863841258566 M 49.10835665733706 75.79595028057278 L 49.10835665733706 77.16985453267891 M 66.90123950419832 61.21410183671574 L 66.90123950419832 62.70830822144359 M 66.90123950419832 65.41037289349305 L 66.90123950419832 73.57792721622853 M 84.69412235105956 50.218929151538134 L 84.69412235105956 52.73974598104502 M 84.69412235105956 54.09485518428667 L 84.69412235105956 56.9825209638731 M 111.38344662135144 44.570464172200644 L 111.38344662135144 45.227807186347746 M 111.38344662135144 51.71638321015067 L 111.38344662135144 54.1425338008915 M 120.27988804478207 49.76701878545785 L 120.27988804478207 51.71638321015067 M 120.27988804478207 53.51200137115407 L 120.27988804478207 57.20405378247452 M 200.34786085565773 7.229400840652744 L 200.34786085565773 9.063507392161796 M 200.34786085565773 11.598075011095318 L 200.34786085565773 15.899999118291106 M 209.24430227908834 7.921915471976433 L 209.24430227908834 11.598075011095318 M 209.24430227908834 22.36134996101825 L 209.24430227908834 24.505782117124596 M 227.0371851259496 10.59606396850657 L 227.0371851259496 17.01892642072812 M 227.0371851259496 20.283806067047294 L 227.0371851259496 21.60360545422367 M 253.72650939624148 10.68589324616778 L 253.72650939624148 14.966603823946656 M 253.72650939624148 22.449728150347994 L 253.72650939624148 23.442963563503696 M 262.6229508196721 22.383461783211743 L 262.6229508196721 22.44979724979234 M 262.6229508196721 38.529721647261084 L 262.6229508196721 38.871556598484204 M 280.4158336665334 33.00072960721303 L 280.4158336665334 36.638262556937605 M 280.4158336665334 44.876229213470566 L 280.4158336665334 45.87727286383836 M 298.2087165133947 36.8725096733003 L 298.2087165133947 41.4077826040822 M 298.2087165133947 45.51995963707978 L 298.2087165133947 47.52971697613867 M 307.10515793682526 43.75198125381826 L 307.10515793682526 45.51995963707978 M 307.10515793682526 63.682057591291226 L 307.10515793682526 65.96544872999505 M 333.7944822071172 50.072576528394706 L 333.7944822071172 52.506397157458935 M 333.7944822071172 60.8356441799846 L 333.7944822071172 63.53356288537276 M 351.5873650539784 55.535924096305735 L 351.5873650539784 56.62389484767175 M 351.5873650539784 57.8206281244523 L 351.5873650539784 60.49588221209211 M 360.483806477409 56.32144657973092 L 360.483806477409 57.82069722389667 M 360.483806477409 62.66166609650409 L 360.483806477409 63.5734332647655 M 387.1731307477009 45.242525367995285 L 387.1731307477009 50.119633250000305 M 387.1731307477009 51.052475748789874 L 387.1731307477009 54.77133874452002 M 396.06957217113154 39.87349854162858 L 396.06957217113154 51.052475748789874 M 396.06957217113154 57.12065075313831 L 396.06957217113154 62.15806934604643 M 404.9660135945622 54.94367275874089 L 404.9660135945622 57.12065075313831 M 404.9660135945622 62.44704322233815 L 404.9660135945622 66.12437745201106 M 413.86245501799283 60.57569207032191 L 413.86245501799283 62.44697412289378 M 413.86245501799283 64.29600615438346 L 413.86245501799283 65.37810345297939 M 440.5517792882847 54.92812538376103 L 440.5517792882847 57.49330405654368 M 440.5517792882847 73.47897681191249 L 440.5517792882847 76.31474890878846 M 467.2411035585766 60.95401152816433 L 467.2411035585766 62.219844249299626 M 467.2411035585766 70.13829507513609 L 467.2411035585766 73.04814177636041 M 476.13754498200717 68.76135044747832 L 476.13754498200717 70.13829507513609 M 476.13754498200717 76.80853353814774 L 476.13754498200717 77.17199661545395 M 502.82686925229905 69.75548415341058 L 502.82686925229905 70.62855563283327 M 502.82686925229905 76.13032249180559 L 502.82686925229905 77.5893572593568 M 520.6197520991603 61.505010497449376 L 520.6197520991603 62.579575956610626 M 520.6197520991603 84.25627894903944 L 520.6197520991603 91.03541813635425 M 529.5161935225909 83.4087051645837 L 529.5161935225909 84.25627894903944 M 529.5161935225909 87.98212098864944 L 529.5161935225909 93.20444969465093 M 538.4126349460215 87.06634605261543 L 538.4126349460215 87.98212098864944 M 538.4126349460215 91.72302670712871 L 538.4126349460215 96.4728534126322 M 547.3090763694522 91.43398373139264 L 547.3090763694522 91.72295760768434 M 547.3090763694522 101.63181792816039 L 547.3090763694522 103.87374940025138 M 556.2055177928828 100.21700680499617 L 556.2055177928828 101.63188702760475 M 556.2055177928828 129.00963967652504 L 556.2055177928828 129.3066290883619 M 573.998400639744 114.59356079967515 L 573.998400639744 122.50876395162695 M 573.998400639744 135.7286623472512 L 573.998400639744 144.84246446098106 M 582.8948420631747 127.85782103857514 L 582.8948420631747 135.7286623472512 M 582.8948420631747 136.24131112491932 L 582.8948420631747 152.33975417347514 M 618.4806077568971 120.35431237608914 L 618.4806077568971 120.3543814755335 M 618.4806077568971 130.40752143582233 L 618.4806077568971 135.84544040821078 M 636.2734906037584 124.63094608665108 L 636.2734906037584 126.46249595871899 M 636.2734906037584 138.4140049537668 L 636.2734906037584 138.83447507266567 M 654.0663734506197 124.16563042836594 L 654.0663734506197 127.33114507370297 M 654.0663734506197 135.05791404089928 L 654.0663734506197 138.31256696945397 M 680.7556977209116 124.90375069296378 L 680.7556977209116 127.50589756847623 M 680.7556977209116 135.69266153674232 L 680.7556977209116 137.3703960456765 M 698.5485805677728 127.99090656840244 L 698.5485805677728 131.92377054329933 M 698.5485805677728 132.70065559618018 L 698.5485805677728 134.4139072195127 M 707.4450219912034 130.3202488376022 L 707.4450219912034 132.70072469562456 M 707.4450219912034 135.05556465979123 L 707.4450219912034 143.22166789419526 M 716.3414634146341 133.69907346766246 L 716.3414634146341 135.05556465979123 M 716.3414634146341 139.0049434018889 L 716.3414634146341 141.40200312655637 M 760.8236705317872 115.83472501917576 L 760.8236705317872 117.09178211087801 M 760.8236705317872 130.8786414474332 L 760.8236705317872 134.3669886967958 M 778.6165533786485 124.70688637599699 L 778.6165533786485 126.40928938656579 M 778.6165533786485 131.60846977870847 L 778.6165533786485 134.49579006107314 M 814.202319072371 118.55288986175992 L 814.202319072371 120.048892832041 M 814.202319072371 121.76096976481946 L 814.202319072371 134.93388053828244 M 823.0987604958016 120.36592108274074 L 823.0987604958016 121.76103886426384 M 823.0987604958016 128.12198821434347 L 823.0987604958016 130.61571806166327 M 831.9952019192323 124.69997643156151 L 831.9952019192323 128.12198821434347 M 831.9952019192323 128.77732734460426 L 831.9952019192323 129.92320343033964 M 840.8916433426629 126.89181080649526 L 840.8916433426629 128.77732734460426 M 840.8916433426629 135.81199627714304 L 840.8916433426629 137.48337363719656 M 849.7880847660936 133.40367334304574 L 849.7880847660936 135.8120653765874 M 849.7880847660936 140.42217300560552 L 849.7880847660936 142.66590106324972 M 858.6845261895241 139.5911830877949 L 858.6845261895241 140.42210390616117 M 858.6845261895241 153.20674490179462 L 858.6845261895241 153.3071463944421 M 867.5809676129546 150.98651065523106 L 867.5809676129546 153.20674490179462 M 867.5809676129546 181.44851700292713 L 867.5809676129546 185.3294181956692 M 876.4774090363853 175.39906794799884 L 876.4774090363853 181.46330428401905 M 876.4774090363853 183.87390749978005 L 876.4774090363853 192.79056889876574 M 885.3738504598159 182.76168284344544 L 885.3738504598159 183.8738384003357 M 885.3738504598159 194.5940643964256 L 885.3738504598159 196.15384615384613" style="stroke-width: 1px;"></path><path class="candle wick equal" style="stroke-width: 1px;"></path></g></g><g class="x axis" transform="translate(0,200)" fill="none" font-size="10" font-family="sans-serif" text-anchor="middle"><path class="domain" stroke="#000" d="M0.5,6V0.5H890.5V6"></path><g class="tick" opacity="1" transform="translate(58.004798080767685,0)"><line stroke="#000" y2="6" x1="0.5" x2="0.5"></line><text fill="#000" y="9" x="0.5" dy="0.71em">Mar 14</text></g><g class="tick" opacity="1" transform="translate(120.27988804478207,0)"><line stroke="#000" y2="6" x1="0.5" x2="0.5"></line><text fill="#000" y="9" x="0.5" dy="0.71em">Mar 21</text></g><g class="tick" opacity="1" transform="translate(182.55497800879647,0)"><line stroke="#000" y2="6" x1="0.5" x2="0.5"></line><text fill="#000" y="9" x="0.5" dy="0.71em">Mar 28</text></g><g class="tick" opacity="1" transform="translate(244.83006797281087,0)"><line stroke="#000" y2="6" x1="0.5" x2="0.5"></line><text fill="#000" y="9" x="0.5" dy="0.71em">Apr  4</text></g><g class="tick" opacity="1" transform="translate(307.10515793682526,0)"><line stroke="#000" y2="6" x1="0.5" x2="0.5"></line><text fill="#000" y="9" x="0.5" dy="0.71em">Apr 11</text></g><g class="tick" opacity="1" transform="translate(369.38024790083966,0)"><line stroke="#000" y2="6" x1="0.5" x2="0.5"></line><text fill="#000" y="9" x="0.5" dy="0.71em">Apr 18</text></g><g class="tick" opacity="1" transform="translate(431.65533786485406,0)"><line stroke="#000" y2="6" x1="0.5" x2="0.5"></line><text fill="#000" y="9" x="0.5" dy="0.71em">Apr 25</text></g><g class="tick" opacity="1" transform="translate(493.93042782886846,0)"><line stroke="#000" y2="6" x1="0.5" x2="0.5"></line><text fill="#000" y="9" x="0.5" dy="0.71em">May  2</text></g><g class="tick" opacity="1" transform="translate(556.2055177928828,0)"><line stroke="#000" y2="6" x1="0.5" x2="0.5"></line><text fill="#000" y="9" x="0.5" dy="0.71em">May  9</text></g><g class="tick" opacity="1" transform="translate(618.4806077568971,0)"><line stroke="#000" y2="6" x1="0.5" x2="0.5"></line><text fill="#000" y="9" x="0.5" dy="0.71em">May 16</text></g><g class="tick" opacity="1" transform="translate(680.7556977209116,0)"><line stroke="#000" y2="6" x1="0.5" x2="0.5"></line><text fill="#000" y="9" x="0.5" dy="0.71em">May 23</text></g><g class="tick" opacity="1" transform="translate(743.0307876849259,0)"><line stroke="#000" y2="6" x1="0.5" x2="0.5"></line><text fill="#000" y="9" x="0.5" dy="0.71em">May 30</text></g><g class="tick" opacity="1" transform="translate(805.3058776489403,0)"><line stroke="#000" y2="6" x1="0.5" x2="0.5"></line><text fill="#000" y="9" x="0.5" dy="0.71em">Jun  6</text></g><g class="tick" opacity="1" transform="translate(867.5809676129546,0)"><line stroke="#000" y2="6" x1="0.5" x2="0.5"></line><text fill="#000" y="9" x="0.5" dy="0.71em">Jun 13</text></g></g><g class="y axis" fill="none" font-size="10" font-family="sans-serif" text-anchor="end"><path class="domain" stroke="#000" d="M-6,200.5H0.5V0.5H-6"></path><g class="tick" opacity="1" transform="translate(0,198.63638189118046)"><line stroke="#000" x2="-6" y1="0.5" y2="0.5"></line><text fill="#000" x="-9" y="0.5" dy="0.32em">20,000</text></g><g class="tick" opacity="1" transform="translate(0,184.81649302022365)"><line stroke="#000" x2="-6" y1="0.5" y2="0.5"></line><text fill="#000" x="-9" y="0.5" dy="0.32em">22,000</text></g><g class="tick" opacity="1" transform="translate(0,170.99660414926683)"><line stroke="#000" x2="-6" y1="0.5" y2="0.5"></line><text fill="#000" x="-9" y="0.5" dy="0.32em">24,000</text></g><g class="tick" opacity="1" transform="translate(0,157.17671527831004)"><line stroke="#000" x2="-6" y1="0.5" y2="0.5"></line><text fill="#000" x="-9" y="0.5" dy="0.32em">26,000</text></g><g class="tick" opacity="1" transform="translate(0,143.3568264073532)"><line stroke="#000" x2="-6" y1="0.5" y2="0.5"></line><text fill="#000" x="-9" y="0.5" dy="0.32em">28,000</text></g><g class="tick" opacity="1" transform="translate(0,129.5369375363964)"><line stroke="#000" x2="-6" y1="0.5" y2="0.5"></line><text fill="#000" x="-9" y="0.5" dy="0.32em">30,000</text></g><g class="tick" opacity="1" transform="translate(0,115.71704866543958)"><line stroke="#000" x2="-6" y1="0.5" y2="0.5"></line><text fill="#000" x="-9" y="0.5" dy="0.32em">32,000</text></g><g class="tick" opacity="1" transform="translate(0,101.89715979448276)"><line stroke="#000" x2="-6" y1="0.5" y2="0.5"></line><text fill="#000" x="-9" y="0.5" dy="0.32em">34,000</text></g><g class="tick" opacity="1" transform="translate(0,88.07727092352596)"><line stroke="#000" x2="-6" y1="0.5" y2="0.5"></line><text fill="#000" x="-9" y="0.5" dy="0.32em">36,000</text></g><g class="tick" opacity="1" transform="translate(0,74.25738205256913)"><line stroke="#000" x2="-6" y1="0.5" y2="0.5"></line><text fill="#000" x="-9" y="0.5" dy="0.32em">38,000</text></g><g class="tick" opacity="1" transform="translate(0,60.437493181612325)"><line stroke="#000" x2="-6" y1="0.5" y2="0.5"></line><text fill="#000" x="-9" y="0.5" dy="0.32em">40,000</text></g><g class="tick" opacity="1" transform="translate(0,46.61760431065548)"><line stroke="#000" x2="-6" y1="0.5" y2="0.5"></line><text fill="#000" x="-9" y="0.5" dy="0.32em">42,000</text></g><g class="tick" opacity="1" transform="translate(0,32.79771543969869)"><line stroke="#000" x2="-6" y1="0.5" y2="0.5"></line><text fill="#000" x="-9" y="0.5" dy="0.32em">44,000</text></g><g class="tick" opacity="1" transform="translate(0,18.977826568741875)"><line stroke="#000" x2="-6" y1="0.5" y2="0.5"></line><text fill="#000" x="-9" y="0.5" dy="0.32em">46,000</text></g><g class="tick" opacity="1" transform="translate(0,5.157937697785059)"><line stroke="#000" x2="-6" y1="0.5" y2="0.5"></line><text fill="#000" x="-9" y="0.5" dy="0.32em">48,000</text></g><text transform="rotate(-90)" y="6" dy=".71em" style="text-anchor: end;">Price ($)</text></g></g></svg>