<?xml version="1.0" encoding="utf-8"?>
<!DOCTYPE svg PUBLIC "-//W3C//DTD SVG 1.1//EN" "http://www.w3.org/Graphics/SVG/1.1/DTD/svg11.dtd">
<svg version="1.1" xmlns="http://www.w3.org/2000/svg" width="960" height="250"><g transform="translate(50,20)"><style>.axis path,.axis line{fill:none;stroke:#000;shape-rendering:crispEdges;}path.candle{stroke:#000000;}path.candle.body{stroke-width:0;}path.candle.up{fill:#00AA00;stroke:#00AA00;}path.candle.down{fill:#FF0000;stroke:#FF0000;}</style><g class="candlestick"><g class="data"><path class="candle body up" d="M 1.0675729708116766 19.319649175122663 l 7.1171531387445 0 L 8.184726109556177 17.60151647155891 l -7.1171531387445 0 L 1.0675729708116766 19.319649175122663 M 36.65333866453418 76.69693766666646 l 7.1171531387445 0 L 43.77049180327868 74.90257758607851 l -7.1171531387445 0 L 36.65333866453418 76.69693766666646 M 45.54978008796481 74.90265116462777 l 7.1171531387445 0 L 52.66693322670931 67.20927805492693 l -7.1171531387445 0 L 45.54978008796481 74.90265116462777 M 54.446221511395436 67.20935163347613 l 7.1171531387445 0 L 61.563374650139934 66.1274526452872 l -7.1171531387445 0 L 54.446221511395436 67.20935163347613 M 90.03198720511796 91.50035314760498 l 7.1171531387445 0 L 97.14914034386246 74.94922638630376 l -7.1171531387445 0 L 90.03198720511796 91.50035314760498 M 98.92842862854857 74.94922638630376 l 7.1171531387445 0 L 106.04558176729307 70.06427292297025 l -7.1171531387445 0 L 98.92842862854857 74.94922638630376 M 116.72131147540982 94.72147487672207 l 7.1171531387445 0 L 123.83846461415432 82.6507667149715 l -7.1171531387445 0 L 116.72131147540982 94.72147487672207 M 125.61775289884046 82.69734193664749 l 7.1171531387445 0 L 132.73490603758498 78.81217380053866 l -7.1171531387445 0 L 125.61775289884046 82.69734193664749 M 152.30707716913233 98.90757927926808 l 7.1171531387445 0 L 159.42423030787683 93.75229822598583 l -7.1171531387445 0 L 152.30707716913233 98.90757927926808 M 170.09996001599356 94.87981591471059 l 7.1171531387445 0 L 177.21711315473806 93.16602434555263 l -7.1171531387445 0 L 170.09996001599356 94.87981591471059 M 178.9964014394242 93.16595076700342 l 7.1171531387445 0 L 186.1135545781687 78.62896321290332 l -7.1171531387445 0 L 178.9964014394242 93.16595076700342 M 196.78928428628546 80.84890162235993 l 7.1171531387445 0 L 203.90643742502996 64.28901901369781 l -7.1171531387445 0 L 196.78928428628546 80.84890162235993 M 223.47860855657734 67.52014742551307 l 7.1171531387445 0 L 230.59576169532184 64.75491838755613 l -7.1171531387445 0 L 223.47860855657734 67.52014742551307 M 259.06437425029986 96.47338013439209 l 7.1171531387445 0 L 266.1815273890444 91.64508215398199 l -7.1171531387445 0 L 259.06437425029986 96.47338013439209 M 276.85725709716115 98.29614153499098 l 7.1171531387445 0 L 283.9744102359057 87.21727221714595 l -7.1171531387445 0 L 276.85725709716115 98.29614153499098 M 339.13234706117555 132.5134779714947 l 7.1171531387445 0 L 346.2495001999201 131.68012732267616 l -7.1171531387445 0 L 339.13234706117555 132.5134779714947 M 348.02878848460614 131.68012732267616 l 7.1171531387445 0 L 355.14594162335067 130.31980710412074 l -7.1171531387445 0 L 348.02878848460614 131.68012732267616 M 365.8216713314674 130.6297935321159 l 7.1171531387445 0 L 372.93882447021196 123.95769068602108 l -7.1171531387445 0 L 365.8216713314674 130.6297935321159 M 374.7181127548981 123.95769068602108 l 7.1171531387445 0 L 381.8352658936426 115.3242044525382 l -7.1171531387445 0 L 374.7181127548981 123.95769068602108 M 392.5109956017593 125.21544240692035 l 7.1171531387445 0 L 399.62814874050383 121.52466879793312 l -7.1171531387445 0 L 392.5109956017593 125.21544240692035 M 401.40743702518995 121.52466879793312 l 7.1171531387445 0 L 408.5245901639345 121.34565218760504 l -7.1171531387445 0 L 401.40743702518995 121.52466879793312 M 428.0967612954818 127.84013641580759 l 7.1171531387445 0 L 435.21391443422635 126.73285282812691 l -7.1171531387445 0 L 428.0967612954818 127.84013641580759 M 472.57896841263494 180.30318718141592 l 7.1171531387445 0 L 479.69612155137946 171.67146683311506 l -7.1171531387445 0 L 472.57896841263494 180.30318718141592 M 481.47540983606564 171.67146683311506 l 7.1171531387445 0 L 488.59256297481016 168.61207075525203 l -7.1171531387445 0 L 481.47540983606564 171.67146683311506 M 490.3718512594962 168.61207075525203 l 7.1171531387445 0 L 497.48900439824075 166.41965072321534 l -7.1171531387445 0 L 490.3718512594962 168.61207075525203 M 508.16473410635746 167.53127544530182 l 7.1171531387445 0 L 515.281887245102 164.93498275642554 l -7.1171531387445 0 L 508.16473410635746 167.53127544530182 M 517.0611755297881 164.93490917787625 l 7.1171531387445 0 L 524.1783286685326 160.84063080479572 l -7.1171531387445 0 L 517.0611755297881 164.93490917787625 M 525.9576169532187 160.84055722624646 l 7.1171531387445 0 L 533.0747700919632 157.5275358891147 l -7.1171531387445 0 L 525.9576169532187 160.84055722624646 M 543.75049980008 159.62518674971585 l 7.1171531387445 0 L 550.8676529388244 155.31973794028445 l -7.1171531387445 0 L 543.75049980008 159.62518674971585 M 552.6469412235106 155.31973794028445 l 7.1171531387445 0 L 559.764094362255 153.64442795238494 l -7.1171531387445 0 L 552.6469412235106 155.31973794028445 M 570.4398240703717 166.8754698358262 l 7.1171531387445 0 L 577.5569772091162 163.82019415672124 l -7.1171531387445 0 L 570.4398240703717 166.8754698358262 M 579.3362654938024 163.81747175039894 l 7.1171531387445 0 L 586.4534186325469 132.45630743872658 l -7.1171531387445 0 L 579.3362654938024 163.81747175039894 M 597.1291483406637 133.866440335125 l 7.1171531387445 0 L 604.2463014794082 126.52131449902984 l -7.1171531387445 0 L 597.1291483406637 133.866440335125 M 606.0255897640943 126.52131449902984 l 7.1171531387445 0 L 613.1427429028388 115.78532122069522 l -7.1171531387445 0 L 606.0255897640943 126.52131449902984 M 614.9220311875249 115.78532122069522 l 7.1171531387445 0 L 622.0391843262694 114.29167667089676 l -7.1171531387445 0 L 614.9220311875249 115.78532122069522 M 623.8184726109555 114.29160309234749 l 7.1171531387445 0 L 630.9356257497 111.86557116643839 l -7.1171531387445 0 L 623.8184726109555 114.29160309234749 M 668.3006797281087 128.92895178762615 l 7.1171531387445 0 L 675.4178328668531 125.38033193579217 l -7.1171531387445 0 L 668.3006797281087 128.92895178762615 M 677.1971211515394 125.38033193579217 l 7.1171531387445 0 L 684.3142742902838 110.598990019629 l -7.1171531387445 0 L 677.1971211515394 125.38033193579217 M 712.7828868452618 144.2274037479265 l 7.1171531387445 0 L 719.9000399840063 143.4568891801684 l -7.1171531387445 0 L 712.7828868452618 144.2274037479265 M 739.4722111155537 166.05293523374755 l 7.1171531387445 0 L 746.5893642542982 157.06038567991905 l -7.1171531387445 0 L 739.4722111155537 166.05293523374755 M 757.265093962415 164.27336444155915 l 7.1171531387445 0 L 764.3822471011595 156.34755669477389 l -7.1171531387445 0 L 757.265093962415 164.27336444155915 M 766.1615353858456 156.33674064803395 l 7.1171531387445 0 L 773.27868852459 149.7846444157678 l -7.1171531387445 0 L 766.1615353858456 156.33674064803395 M 792.8508596561375 160.9692461088867 l 7.1171531387445 0 L 799.9680127948819 120.78858899122456 l -7.1171531387445 0 L 792.8508596561375 160.9692461088867 M 801.747301079568 120.78858899122456 l 7.1171531387445 0 L 808.8644542183125 111.5088623596688 l -7.1171531387445 0 L 801.747301079568 120.78858899122456 M 837.3330667732906 150.30352034508692 l 7.1171531387445 0 L 844.4502199120351 148.46913353370638 l -7.1171531387445 0 L 837.3330667732906 150.30352034508692 M 864.0223910435824 158.84334108537305 l 7.1171531387445 0 L 871.1395441823269 153.37925086088376 l -7.1171531387445 0 L 864.0223910435824 158.84334108537305 M 872.9188324670131 153.37925086088376 l 7.1171531387445 0 L 880.0359856057576 129.75259006794363 l -7.1171531387445 0 L 872.9188324670131 153.37925086088376"></path><path class="candle body down" d="M 9.964014394242305 17.60151647155891 l 7.1171531387445 0 L 17.081167532986804 22.779459718010543 l -7.1171531387445 0 L 9.964014394242305 17.60151647155891 M 18.860455817672932 22.750616926704026 l 7.1171531387445 0 L 25.977608956417434 43.96485782534651 l -7.1171531387445 0 L 18.860455817672932 22.750616926704026 M 27.75689724110356 43.96485782534651 l 7.1171531387445 0 L 34.87405037984806 76.6968640881172 l -7.1171531387445 0 L 27.75689724110356 43.96485782534651 M 63.342662934826066 66.1274526452872 l 7.1171531387445 0 L 70.45981607357056 66.99391364126876 l -7.1171531387445 0 L 63.342662934826066 66.1274526452872 M 72.23910435825668 66.99391364126876 l 7.1171531387445 0 L 79.35625749700118 88.52005401018694 l -7.1171531387445 0 L 72.23910435825668 66.99391364126876 M 81.13554578168731 88.59135162441127 l 7.1171531387445 0 L 88.25269892043181 91.50035314760498 l -7.1171531387445 0 L 81.13554578168731 88.59135162441127 M 107.82487005197919 70.06427292297025 l 7.1171531387445 0 L 114.94202319072369 94.72154845527135 l -7.1171531387445 0 L 107.82487005197919 70.06427292297025 M 134.51419432227107 78.81217380053866 l 7.1171531387445 0 L 141.63134746101557 87.88146578123617 l -7.1171531387445 0 L 134.51419432227107 78.81217380053866 M 143.4106357457017 87.88146578123617 l 7.1171531387445 0 L 150.5277888844462 98.92693043772115 l -7.1171531387445 0 L 143.4106357457017 87.88146578123617 M 161.20351859256294 93.7523718045351 l 7.1171531387445 0 L 168.32067173130744 94.87988949325981 l -7.1171531387445 0 L 161.20351859256294 93.7523718045351 M 187.89284286285485 78.64581270068184 l 7.1171531387445 0 L 195.00999600159935 80.84897520090915 l -7.1171531387445 0 L 187.89284286285485 78.64581270068184 M 205.68572570971608 64.28894543514855 l 7.1171531387445 0 L 212.80287884846058 64.42742026483924 l -7.1171531387445 0 L 205.68572570971608 64.28894543514855 M 214.5821671331467 64.42749384338848 l 7.1171531387445 0 L 221.6993202718912 67.52022100406228 l -7.1171531387445 0 L 214.5821671331467 64.42749384338848 M 232.37504998000796 64.75499196610534 l 7.1171531387445 0 L 239.49220311875246 65.2997675447609 l -7.1171531387445 0 L 232.37504998000796 64.75499196610534 M 241.2714914034386 65.2997675447609 l 7.1171531387445 0 L 248.3886445421831 88.5336660417984 l -7.1171531387445 0 L 241.2714914034386 65.2997675447609 M 250.16793282686922 88.5336660417984 l 7.1171531387445 0 L 257.28508596561375 96.47338013439209 l -7.1171531387445 0 L 250.16793282686922 88.5336660417984 M 267.9608156737305 91.64500857543278 l 7.1171531387445 0 L 275.07796881247504 98.29614153499098 l -7.1171531387445 0 L 267.9608156737305 91.64500857543278 M 285.7536985205918 87.2171986385967 l 7.1171531387445 0 L 292.8708516593363 90.42875515631114 l -7.1171531387445 0 L 285.7536985205918 87.2171986385967 M 294.65013994402244 90.42875515631114 l 7.1171531387445 0 L 301.76729308276697 96.60994192180226 l -7.1171531387445 0 L 294.65013994402244 90.42875515631114 M 303.54658136745303 96.60994192180226 l 7.1171531387445 0 L 310.66373450619756 101.12832705276647 l -7.1171531387445 0 L 303.54658136745303 96.60994192180226 M 312.4430227908837 101.12832705276647 l 7.1171531387445 0 L 319.5601759296282 118.64649668687568 l -7.1171531387445 0 L 312.4430227908837 101.12832705276647 M 321.3394642143143 118.6464231083264 l 7.1171531387445 0 L 328.45661735305885 121.36022074035681 l -7.1171531387445 0 L 321.3394642143143 118.6464231083264 M 330.23590563774496 121.36029431890601 l 7.1171531387445 0 L 337.3530587764895 132.5134779714947 l -7.1171531387445 0 L 330.23590563774496 121.36029431890601 M 356.9252299080368 130.31980710412074 l 7.1171531387445 0 L 364.0423830467813 130.6297935321159 l -7.1171531387445 0 L 356.9252299080368 130.31980710412074 M 383.61455417832866 115.32427803108746 l 7.1171531387445 0 L 390.7317073170732 125.20249258225213 l -7.1171531387445 0 L 383.61455417832866 115.32427803108746 M 410.3038784486206 121.34565218760504 l 7.1171531387445 0 L 417.4210315873651 121.43858189530924 l -7.1171531387445 0 L 410.3038784486206 121.34565218760504 M 419.20031987205124 121.43858189530924 l 7.1171531387445 0 L 426.31747301079577 127.8402099943568 l -7.1171531387445 0 L 419.20031987205124 121.43858189530924 M 436.99320271891247 126.73285282812691 l 7.1171531387445 0 L 444.110355857657 131.82529780034866 l -7.1171531387445 0 L 436.99320271891247 126.73285282812691 M 445.8896441423431 131.82537137889793 l 7.1171531387445 0 L 453.00679728108764 139.0293735575293 l -7.1171531387445 0 L 445.8896441423431 131.82537137889793 M 454.7860855657737 139.02929997898008 l 7.1171531387445 0 L 461.90323870451823 170.1943038783489 l -7.1171531387445 0 L 454.7860855657737 139.02929997898008 M 463.68252698920435 170.1943038783489 l 7.1171531387445 0 L 470.7996801279489 180.30318718141592 l -7.1171531387445 0 L 463.68252698920435 170.1943038783489 M 499.2682926829268 166.41965072321534 l 7.1171531387445 0 L 506.38544582167134 167.51582394995907 l -7.1171531387445 0 L 499.2682926829268 166.41965072321534 M 534.8540583766493 157.5276094676639 l 7.1171531387445 0 L 541.9712115153937 159.6251131711666 l -7.1171531387445 0 L 534.8540583766493 157.5276094676639 M 561.5433826469413 153.64442795238494 l 7.1171531387445 0 L 568.6605357856857 166.8755434143755 l -7.1171531387445 0 L 561.5433826469413 153.64442795238494 M 588.232706917233 132.47506996878565 l 7.1171531387445 0 L 595.3498600559775 133.86651391367425 l -7.1171531387445 0 L 588.232706917233 132.47506996878565 M 632.7149140343862 111.86564474498765 l 7.1171531387445 0 L 639.8320671731307 118.32047013514376 l -7.1171531387445 0 L 632.7149140343862 111.86564474498765 M 641.6113554578168 118.32047013514376 l 7.1171531387445 0 L 648.7285085965613 126.57384958319516 l -7.1171531387445 0 L 641.6113554578168 118.32047013514376 M 650.5077968812475 126.57384958319516 l 7.1171531387445 0 L 657.624950019992 127.72064485182368 l -7.1171531387445 0 L 650.5077968812475 126.57384958319516 M 659.4042383046781 127.72064485182368 l 7.1171531387445 0 L 666.5213914434225 128.9288782090769 l -7.1171531387445 0 L 659.4042383046781 127.72064485182368 M 686.09356257497 110.59906359817826 l 7.1171531387445 0 L 693.2107157137144 115.5383180308591 l -7.1171531387445 0 L 686.09356257497 110.59906359817826 M 694.9900039984005 115.5383180308591 l 7.1171531387445 0 L 702.107157137145 140.2449647697077 l -7.1171531387445 0 L 694.9900039984005 115.5383180308591 M 703.8864454218311 140.24489119115844 l 7.1171531387445 0 L 711.0035985605756 144.2274773264757 l -7.1171531387445 0 L 703.8864454218311 140.24489119115844 M 721.6793282686924 143.4568891801684 l 7.1171531387445 0 L 728.7964814074369 155.908439912843 l -7.1171531387445 0 L 721.6793282686924 143.4568891801684 M 730.5757696921231 155.908439912843 l 7.1171531387445 0 L 737.6929228308676 166.05293523374755 l -7.1171531387445 0 L 730.5757696921231 155.908439912843 M 748.3686525389844 157.06038567991905 l 7.1171531387445 0 L 755.4858056777289 164.27343802010836 l -7.1171531387445 0 L 748.3686525389844 157.06038567991905 M 775.0579768092763 149.78471799431702 l 7.1171531387445 0 L 782.1751299480208 150.53845665284587 l -7.1171531387445 0 L 775.0579768092763 149.78471799431702 M 783.9544182327068 150.5383830742966 l 7.1171531387445 0 L 791.0715713714512 160.96931968743598 l -7.1171531387445 0 L 783.9544182327068 150.5383830742966 M 810.6437425029987 111.5088623596688 l 7.1171531387445 0 L 817.7608956417432 115.39542848821331 l -7.1171531387445 0 L 810.6437425029987 111.5088623596688 M 819.5401839264293 115.3953549096641 l 7.1171531387445 0 L 826.6573370651738 125.98323456835615 l -7.1171531387445 0 L 819.5401839264293 115.3953549096641 M 828.43662534986 125.98323456835615 l 7.1171531387445 0 L 835.5537784886045 150.30344676653766 l -7.1171531387445 0 L 828.43662534986 125.98323456835615 M 846.2295081967213 148.4690599551571 l 7.1171531387445 0 L 853.3466613354658 155.65886147378308 l -7.1171531387445 0 L 846.2295081967213 148.4690599551571 M 855.1259496201519 155.65893505233228 l 7.1171531387445 0 L 862.2431027588964 158.84341466392232 l -7.1171531387445 0 L 855.1259496201519 155.65893505233228 M 881.8152738904437 129.75266364649286 l 7.1171531387445 0 L 888.9324270291881 148.94003624891377 l -7.1171531387445 0 L 881.8152738904437 129.75266364649286"></path><path class="candle body equal"></path><path class="candle wick up" d="M 4.626149540183927 3.8461538461538396 L 4.626149540183927 17.60151647155891 M 4.626149540183927 19.319649175122663 L 4.626149540183927 22.94376061848834 M 40.21191523390643 72.67520774314751 L 40.21191523390643 74.90257758607851 M 40.21191523390643 76.69693766666646 L 40.21191523390643 87.18372039868744 M 49.10835665733706 63.90420320111426 L 49.10835665733706 67.20927805492693 M 49.10835665733706 74.90265116462777 L 49.10835665733706 91.79864058626919 M 58.004798080767685 56.213626076284925 L 58.004798080767685 66.1274526452872 M 58.004798080767685 67.20935163347613 L 58.004798080767685 70.16846014870993 M 93.5905637744902 74.2449325128717 L 93.5905637744902 74.94922638630376 M 93.5905637744902 91.50035314760498 L 93.5905637744902 94.36653195513452 M 102.48700519792082 64.74380802661918 L 102.48700519792082 70.06427292297025 M 102.48700519792082 74.94922638630376 L 102.48700519792082 80.4822597114414 M 120.27988804478207 80.02305598556492 L 120.27988804478207 82.6507667149715 M 120.27988804478207 94.72147487672207 L 120.27988804478207 97.75850307561281 M 129.1763294682127 74.13978876599178 L 129.1763294682127 78.81217380053866 M 129.1763294682127 82.69734193664749 L 129.1763294682127 95.86753435985808 M 155.8656537385046 89.64742454181311 L 155.8656537385046 93.75229822598583 M 155.8656537385046 98.90757927926808 L 155.8656537385046 103.5712084664541 M 173.65853658536582 88.57906400668637 L 173.65853658536582 93.16602434555263 M 173.65853658536582 94.87981591471059 L 173.65853658536582 103.13819870411106 M 182.55497800879647 75.39827627238355 L 182.55497800879647 78.62896321290332 M 182.55497800879647 93.16595076700342 L 182.55497800879647 95.2568324010735 M 200.34786085565773 60.343810781400066 L 200.34786085565773 64.28901901369781 M 200.34786085565773 80.84890162235993 L 200.34786085565773 85.76210924860585 M 227.0371851259496 61.04280699928606 L 227.0371851259496 64.75491838755613 M 227.0371851259496 67.52014742551307 L 227.0371851259496 74.78727999940196 M 262.6229508196721 85.91235664617672 L 262.6229508196721 91.64508215398199 M 262.6229508196721 96.47338013439209 L 262.6229508196721 100.62806649640788 M 280.4158336665334 85.51039703161767 L 280.4158336665334 87.21727221714595 M 280.4158336665334 98.29614153499098 L 280.4158336665334 98.35912477314996 M 342.6909236305478 127.11634422682395 L 342.6909236305478 131.68012732267616 M 342.6909236305478 132.5134779714947 L 342.6909236305478 140.3531252371069 M 351.5873650539784 123.53527623477022 L 351.5873650539784 130.31980710412074 M 351.5873650539784 131.68012732267616 L 351.5873650539784 135.20983748735262 M 369.38024790083966 121.23006028673149 L 369.38024790083966 123.95769068602108 M 369.38024790083966 130.6297935321159 L 369.38024790083966 134.70280770446288 M 378.2766893242703 112.23876156824025 L 378.2766893242703 115.3242044525382 M 378.2766893242703 123.95769068602108 L 378.2766893242703 126.01266598805661 M 396.06957217113154 118.66378764594968 L 396.06957217113154 121.52466879793312 M 396.06957217113154 125.21544240692035 L 396.06957217113154 131.34012084658656 M 404.9660135945622 116.07956183915059 L 404.9660135945622 121.34565218760504 M 404.9660135945622 121.52466879793312 L 404.9660135945622 125.24009122091948 M 431.65533786485406 124.23942295110376 L 431.65533786485406 126.73285282812691 M 431.65533786485406 127.84013641580759 L 431.65533786485406 134.8420918981953 M 476.13754498200717 169.79926064741943 L 476.13754498200717 171.67146683311506 M 476.13754498200717 180.30318718141592 L 476.13754498200717 183.76439571673953 M 485.0339864054379 162.06615512112296 L 485.0339864054379 168.61207075525203 M 485.0339864054379 171.67146683311506 L 485.0339864054379 196.15384615384616 M 493.93042782886846 162.10191429605902 L 493.93042782886846 166.41965072321534 M 493.93042782886846 168.61207075525203 L 493.93042782886846 175.67082887766165 M 511.7233106757297 164.38777908564467 L 511.7233106757297 164.93498275642554 M 511.7233106757297 167.53127544530182 L 511.7233106757297 177.0981791545848 M 520.6197520991603 158.75512040482093 L 520.6197520991603 160.84063080479572 M 520.6197520991603 164.93490917787625 L 520.6197520991603 172.3302891631099 M 529.5161935225909 153.45202004609314 L 529.5161935225909 157.5275358891147 M 529.5161935225909 160.84055722624646 L 529.5161935225909 164.13783275383847 M 547.3090763694522 153.28087634053495 L 547.3090763694522 155.31973794028445 M 547.3090763694522 159.62518674971585 L 547.3090763694522 168.81617765087472 M 556.2055177928828 149.44596235356474 L 556.2055177928828 153.64442795238494 M 556.2055177928828 155.31973794028445 L 556.2055177928828 158.75512040482093 M 573.998400639744 163.26548547391678 L 573.998400639744 163.82019415672124 M 573.998400639744 166.8754698358262 L 573.998400639744 171.6313665237732 M 582.8948420631747 130.99886353515967 L 582.8948420631747 132.45630743872658 M 582.8948420631747 163.81747175039894 L 582.8948420631747 165.91629986778815 M 600.687724910036 124.49694787348281 L 600.687724910036 126.52131449902984 M 600.687724910036 133.866440335125 L 600.687724910036 135.82392405940274 M 609.5841663334666 110.92538446410713 L 609.5841663334666 115.78532122069522 M 609.5841663334666 126.52131449902984 L 609.5841663334666 131.92948502608832 M 618.4806077568971 103.63007130585503 L 618.4806077568971 114.29167667089676 M 618.4806077568971 115.78532122069522 L 618.4806077568971 124.42336932423164 M 627.3770491803277 108.72906476896013 L 627.3770491803277 111.86557116643839 M 627.3770491803277 114.29160309234749 L 627.3770491803277 121.09820752647343 M 671.8592562974809 123.12544371544125 L 671.8592562974809 125.38033193579217 M 671.8592562974809 128.92895178762615 L 671.8592562974809 132.6306150219026 M 680.7556977209116 109.0792986633956 L 680.7556977209116 110.598990019629 M 680.7556977209116 125.38033193579217 L 680.7556977209116 126.18167591568653 M 716.3414634146341 140.77016845426243 L 716.3414634146341 143.4568891801684 M 716.3414634146341 144.2274037479265 L 716.3414634146341 146.69537544690877 M 743.0307876849259 155.59860064194635 L 743.0307876849259 157.06038567991905 M 743.0307876849259 166.05293523374755 L 743.0307876849259 170.89558103126166 M 760.8236705317872 145.19459377783292 L 760.8236705317872 156.34755669477389 M 760.8236705317872 164.27336444155915 L 760.8236705317872 185.81525062001703 M 769.7201119552178 146.36795090274111 L 769.7201119552178 149.7846444157678 M 769.7201119552178 156.33674064803395 L 769.7201119552178 158.649388029547 M 796.4094362255097 112.9462928978394 L 796.4094362255097 120.78858899122456 M 796.4094362255097 160.9692461088867 L 796.4094362255097 162.80068977829725 M 805.3058776489403 107.62538653019278 L 805.3058776489403 111.5088623596688 M 805.3058776489403 120.78858899122456 L 805.3058776489403 123.36398537211349 M 840.8916433426629 146.8851345254275 L 840.8916433426629 148.46913353370638 M 840.8916433426629 150.30352034508692 L 840.8916433426629 155.7561323158931 M 867.5809676129546 148.7331333684195 L 867.5809676129546 153.37925086088376 M 867.5809676129546 158.84334108537305 L 867.5809676129546 159.72893250415999 M 876.4774090363853 124.95269340754447 L 876.4774090363853 129.75259006794363 M 876.4774090363853 153.37925086088376 L 876.4774090363853 153.92505653922885" style="stroke-width: 1px;"></path><path class="candle wick down" d="M 13.522590963614554 16.1932230388918 L 13.522590963614554 17.60151647155891 M 13.522590963614554 22.779459718010543 L 13.522590963614554 27.948867852749004 M 22.41903238704518 14.541163872555586 L 22.41903238704518 22.750616926704026 M 22.41903238704518 43.96485782534651 L 22.41903238704518 58.099665029239816 M 31.315473810475808 42.066163361920474 L 31.315473810475808 43.96485782534651 M 31.315473810475808 76.6968640881172 L 31.315473810475808 129.32149334788107 M 66.90123950419832 61.631435393295305 L 66.90123950419832 66.1274526452872 M 66.90123950419832 66.99391364126876 L 66.90123950419832 80.7618581985958 M 75.79768092762893 64.5910589583738 L 75.79768092762893 66.99391364126876 M 75.79768092762893 88.52005401018694 L 75.79768092762893 90.17991250274375 M 84.69412235105956 69.54112943779455 L 84.69412235105956 88.59135162441127 M 84.69412235105956 91.50035314760498 L 84.69412235105956 93.62338860769783 M 111.38344662135144 69.06308960330978 L 111.38344662135144 70.06427292297025 M 111.38344662135144 94.72154845527135 L 111.38344662135144 102.30013902814038 M 138.07277089164333 74.60752760358137 L 138.07277089164333 78.81217380053866 M 138.07277089164333 87.88146578123617 L 138.07277089164333 88.77456221204667 M 146.96921231507397 85.20629688756263 L 146.96921231507397 87.88146578123617 M 146.96921231507397 98.92693043772115 L 146.96921231507397 103.89495408315919 M 164.7620951619352 82.96914109758123 L 164.7620951619352 93.7523718045351 M 164.7620951619352 94.87988949325981 L 164.7620951619352 96.89829625631752 M 191.4514194322271 73.57963527054277 L 191.4514194322271 78.64581270068184 M 191.4514194322271 80.84897520090915 L 191.4514194322271 82.07251289640662 M 209.24430227908834 57.143143888974805 L 209.24430227908834 64.28894543514855 M 209.24430227908834 64.42742026483924 L 209.24430227908834 67.63228113457183 M 218.14074370251896 61.95348870336758 L 218.14074370251896 64.42749384338848 M 218.14074370251896 67.52022100406228 L 218.14074370251896 69.41369139049155 M 235.93362654938022 55.09766021979269 L 235.93362654938022 64.75499196610534 M 235.93362654938022 65.2997675447609 L 235.93362654938022 67.15718444205709 M 244.83006797281087 65.28056354340634 L 244.83006797281087 65.2997675447609 M 244.83006797281087 88.5336660417984 L 244.83006797281087 90.2313439086703 M 253.72650939624148 84.15324069068006 L 253.72650939624148 88.5336660417984 M 253.72650939624148 96.47338013439209 L 253.72650939624148 99.17864265470936 M 271.51939224310274 81.14255361242127 L 271.51939224310274 91.64500857543278 M 271.51939224310274 98.29614153499098 L 271.51939224310274 102.26151028978353 M 289.31227508996403 85.25014970291632 L 289.31227508996403 87.2171986385967 M 289.31227508996403 90.42875515631114 L 289.31227508996403 95.08024388287073 M 298.2087165133947 88.34044877146485 L 298.2087165133947 90.42875515631114 M 298.2087165133947 96.60994192180226 L 298.2087165133947 102.12906890113145 M 307.10515793682526 88.43212764383179 L 307.10515793682526 96.60994192180226 M 307.10515793682526 101.12832705276647 L 307.10515793682526 103.5712084664541 M 316.0015993602559 92.01937623402266 L 316.0015993602559 101.12832705276647 M 316.0015993602559 118.64649668687568 L 316.0015993602559 125.64477324180083 M 324.89804078368655 115.96183616034872 L 324.89804078368655 118.6464231083264 M 324.89804078368655 121.36022074035681 L 324.89804078368655 126.15555553070234 M 333.7944822071172 120.89284979551343 L 333.7944822071172 121.36029431890601 M 333.7944822071172 132.5134779714947 L 333.7944822071172 139.55111905026928 M 360.483806477409 127.49527375546741 L 360.483806477409 130.31980710412074 M 360.483806477409 130.6297935321159 L 360.483806477409 146.61465977838023 M 387.1731307477009 110.92906339156968 L 387.1731307477009 115.32427803108746 M 387.1731307477009 125.20249258225213 L 387.1731307477009 127.03378909456414 M 413.86245501799283 118.47086468981315 L 413.86245501799283 121.34565218760504 M 413.86245501799283 121.43858189530924 L 413.86245501799283 125.04297428747563 M 422.7588964414235 120.66953889853617 L 422.7588964414235 121.43858189530924 M 422.7588964414235 127.8402099943568 L 422.7588964414235 132.70522367084325 M 440.5517792882847 125.20970328007877 L 440.5517792882847 126.73285282812691 M 440.5517792882847 131.82529780034866 L 440.5517792882847 135.66205125105023 M 449.44822071171535 118.25012904205968 L 449.44822071171535 131.82537137889793 M 449.44822071171535 139.0293735575293 L 449.44822071171535 139.9682358459741 M 458.34466213514594 135.94577013696264 L 458.34466213514594 139.02929997898008 M 458.34466213514594 170.1943038783489 L 458.34466213514594 177.58791797840053 M 467.2411035585766 167.32540266449706 L 467.2411035585766 170.1943038783489 M 467.2411035585766 180.30318718141592 L 467.2411035585766 188.12767726588234 M 502.82686925229905 151.98604103081308 L 502.82686925229905 166.41965072321534 M 502.82686925229905 167.51582394995907 L 502.82686925229905 171.74445675397226 M 538.4126349460215 156.1117374444239 L 538.4126349460215 157.5276094676639 M 538.4126349460215 159.6251131711666 L 538.4126349460215 163.52573280261814 M 565.1019592163135 152.45738521731602 L 565.1019592163135 153.64442795238494 M 565.1019592163135 166.8755434143755 L 565.1019592163135 169.15213730675552 M 591.7912834866053 129.95875716294535 L 591.7912834866053 132.47506996878565 M 591.7912834866053 133.86651391367425 L 591.7912834866053 137.83666527416807 M 636.2734906037584 101.209337035492 L 636.2734906037584 111.86564474498765 M 636.2734906037584 118.32047013514376 L 636.2734906037584 120.68550544372367 M 645.169932027189 115.19661924813671 L 645.169932027189 118.32047013514376 M 645.169932027189 126.57384958319516 L 645.169932027189 129.77613520370397 M 654.0663734506197 121.38096989124563 L 654.0663734506197 126.57384958319516 M 654.0663734506197 127.72064485182368 L 654.0663734506197 131.6128765286606 M 662.9628148740503 123.73173096127078 L 662.9628148740503 127.72064485182368 M 662.9628148740503 128.9288782090769 L 662.9628148740503 130.28022184462367 M 689.6521391443422 110.56139138096165 L 689.6521391443422 110.59906359817826 M 689.6521391443422 115.5383180308591 L 689.6521391443422 119.70698431723257 M 698.5485805677728 113.39607856941169 L 698.5485805677728 115.5383180308591 M 698.5485805677728 140.2449647697077 L 698.5485805677728 143.50074199552208 M 707.4450219912034 136.97675276906986 L 707.4450219912034 140.24489119115844 M 707.4450219912034 144.2274773264757 L 707.4450219912034 148.08623076340336 M 725.2379048380647 143.11644123278327 L 725.2379048380647 143.4568891801684 M 725.2379048380647 155.908439912843 L 725.2379048380647 158.75512040482093 M 734.1343462614954 147.75990989747447 L 734.1343462614954 155.908439912843 M 734.1343462614954 166.05293523374755 L 734.1343462614954 167.58454631495962 M 751.9272291083566 149.55831679827122 L 751.9272291083566 157.06038567991905 M 751.9272291083566 164.27343802010836 L 751.9272291083566 165.8422798472415 M 778.6165533786485 141.47556600593327 L 778.6165533786485 149.78471799431702 M 778.6165533786485 150.53845665284587 L 778.6165533786485 154.5377451188432 M 787.512994802079 145.10114902028397 L 787.512994802079 150.5383830742966 M 787.512994802079 160.96931968743598 L 787.512994802079 166.11297532993652 M 814.202319072371 104.30699395896565 L 814.202319072371 111.5088623596688 M 814.202319072371 115.39542848821331 L 814.202319072371 119.50766002731122 M 823.0987604958016 113.86396456409976 L 823.0987604958016 115.3953549096641 M 823.0987604958016 125.98323456835615 L 823.0987604958016 130.557760132399 M 831.9952019192323 125.44390380234516 L 831.9952019192323 125.98323456835615 M 831.9952019192323 150.30344676653766 L 831.9952019192323 154.70830019600737 M 849.7880847660936 146.2918706828154 L 849.7880847660936 148.4690599551571 M 849.7880847660936 155.65886147378308 L 849.7880847660936 158.10343519410344 M 858.6845261895241 147.3683248583598 L 858.6845261895241 155.65893505233228 M 858.6845261895241 158.84341466392232 L 858.6845261895241 164.9725078165436 M 885.3738504598159 129.03210891367632 L 885.3738504598159 129.75266364649286 M 885.3738504598159 148.94003624891377 L 885.3738504598159 154.7838653660883" style="stroke-width: 1px;"></path><path class="candle wick equal" style="stroke-width: 1px;"></path></g></g><g class="x axis" transform="translate(0,200)" fill="none" font-size="10" font-family="sans-serif" text-anchor="middle"><path class="domain" stroke="#000" d="M0.5,6V0.5H890.5V6"></path><g class="tick" opacity="1" transform="translate(49.10835665733706,0)"><line stroke="#000" y2="6" x1="0.5" x2="0.5"></line><text fill="#000" y="9" x="0.5" dy="0.71em">Dec  6</text></g><g class="tick" opacity="1" transform="translate(111.38344662135144,0)"><line stroke="#000" y2="6" x1="0.5" x2="0.5"></line><text fill="#000" y="9" x="0.5" dy="0.71em">Dec 13</text></g><g class="tick" opacity="1" transform="translate(173.65853658536582,0)"><line stroke="#000" y2="6" x1="0.5" x2="0.5"></line><text fill="#000" y="9" x="0.5" dy="0.71em">Dec 20</text></g><g class="tick" opacity="1" transform="translate(235.93362654938022,0)"><line stroke="#000" y2="6" x1="0.5" x2="0.5"></line><text fill="#000" y="9" x="0.5" dy="0.71em">Dec 27</text></g><g class="tick" opacity="1" transform="translate(298.2087165133947,0)"><line stroke="#000" y2="6" x1="0.5" x2="0.5"></line><text fill="#000" y="9" x="0.5" dy="0.71em">Jan  3</text></g><g class="tick" opacity="1" transform="translate(360.483806477409,0)"><line stroke="#000" y2="6" x1="0.5" x2="0.5"></line><text fill="#000" y="9" x="0.5" dy="0.71em">Jan 10</text></g><g class="tick" opacity="1" transform="translate(422.7588964414235,0)"><line stroke="#000" y2="6" x1="0.5" x2="0.5"></line><text fill="#000" y="9" x="0.5" dy="0.71em">Jan 17</text></g><g class="tick" opacity="1" transform="translate(485.0339864054379,0)"><line stroke="#000" y2="6" x1="0.5" x2="0.5"></line><text fill="#000" y="9" x="0.5" dy="0.71em">Jan 24</text></g><g class="tick" opacity="1" transform="translate(547.3090763694522,0)"><line stroke="#000" y2="6" x1="0.5" x2="0.5"></line><text fill="#000" y="9" x="0.5" dy="0.71em">Jan 31</text></g><g class="tick" opacity="1" transform="translate(609.5841663334666,0)"><line stroke="#000" y2="6" x1="0.5" x2="0.5"></line><text fill="#000" y="9" x="0.5" dy="0.71em">Feb  7</text></g><g class="tick" opacity="1" transform="translate(671.8592562974809,0)"><line stroke="#000" y2="6" x1="0.5" x2="0.5"></line><text fill="#000" y="9" x="0.5" dy="0.71em">Feb 14</text></g><g class="tick" opacity="1" transform="translate(734.1343462614954,0)"><line stroke="#000" y2="6" x1="0.5" x2="0.5"></line><text fill="#000" y="9" x="0.5" dy="0.71em">Feb 21</text></g><g class="tick" opacity="1" transform="translate(796.4094362255097,0)"><line stroke="#000" y2="6" x1="0.5" x2="0.5"></line><text fill="#000" y="9" x="0.5" dy="0.71em">Feb 28</text></g><g class="tick" opacity="1" transform="translate(858.6845261895241,0)"><line stroke="#000" y2="6" x1="0.5" x2="0.5"></line><text fill="#000" y="9" x="0.5" dy="0.71em">Mar  7</text></g></g><g class="y axis" fill="none" font-size="10" font-family="sans-serif" text-anchor="end"><path class="domain" stroke="#000" d="M-6,200.5H0.5V0.5H-6"></path><g class="tick" opacity="1" transform="translate(0,188.18654010528326)"><line stroke="#000" x2="-6" y1="0.5" y2="0.5"></line><text fill="#000" x="-9" y="0.5" dy="0.32em">34,000</text></g><g class="tick" opacity="1" transform="translate(0,173.47083025505208)"><line stroke="#000" x2="-6" y1="0.5" y2="0.5"></line><text fill="#000" x="-9" y="0.5" dy="0.32em">36,000</text></g><g class="tick" opacity="1" transform="translate(0,158.75512040482093)"><line stroke="#000" x2="-6" y1="0.5" y2="0.5"></line><text fill="#000" x="-9" y="0.5" dy="0.32em">38,000</text></g><g class="tick" opacity="1" transform="translate(0,144.03941055458978)"><line stroke="#000" x2="-6" y1="0.5" y2="0.5"></line><text fill="#000" x="-9" y="0.5" dy="0.32em">40,000</text></g><g class="tick" opacity="1" transform="translate(0,129.32370070435863)"><line stroke="#000" x2="-6" y1="0.5" y2="0.5"></line><text fill="#000" x="-9" y="0.5" dy="0.32em">42,000</text></g><g class="tick" opacity="1" transform="translate(0,114.60799085412748)"><line stroke="#000" x2="-6" y1="0.5" y2="0.5"></line><text fill="#000" x="-9" y="0.5" dy="0.32em">44,000</text></g><g class="tick" opacity="1" transform="translate(0,99.89228100389631)"><line stroke="#000" x2="-6" y1="0.5" y2="0.5"></line><text fill="#000" x="-9" y="0.5" dy="0.32em">46,000</text></g><g class="tick" opacity="1" transform="translate(0,85.17657115366515)"><line stroke="#000" x2="-6" y1="0.5" y2="0.5"></line><text fill="#000" x="-9" y="0.5" dy="0.32em">48,000</text></g><g class="tick" opacity="1" transform="translate(0,70.460861303434)"><line stroke="#000" x2="-6" y1="0.5" y2="0.5"></line><text fill="#000" x="-9" y="0.5" dy="0.32em">50,000</text></g><g class="tick" opacity="1" transform="translate(0,55.74515145320285)"><line stroke="#000" x2="-6" y1="0.5" y2="0.5"></line><text fill="#000" x="-9" y="0.5" dy="0.32em">52,000</text></g><g class="tick" opacity="1" transform="translate(0,41.02944160297167)"><line stroke="#000" x2="-6" y1="0.5" y2="0.5"></line><text fill="#000" x="-9" y="0.5" dy="0.32em">54,000</text></g><g class="tick" opacity="1" transform="translate(0,26.313731752740523)"><line stroke="#000" x2="-6" y1="0.5" y2="0.5"></line><text fill="#000" x="-9" y="0.5" dy="0.32em">56,000</text></g><g class="tick" opacity="1" transform="translate(0,11.598021902509373)"><line stroke="#000" x2="-6" y1="0.5" y2="0.5"></line><text fill="#000" x="-9" y="0.5" dy="0.32em">58,000</text></g><text transform="rotate(-90)" y="6" dy=".71em" style="text-anchor: end;">Price ($)</text></g></g></svg>