<?xml version="1.0" encoding="utf-8"?>
<!DOCTYPE svg PUBLIC "-//W3C//DTD SVG 1.1//EN" "http://www.w3.org/Graphics/SVG/1.1/DTD/svg11.dtd">
<svg version="1.1" xmlns="http://www.w3.org/2000/svg" width="960" height="250"><g transform="translate(50,20)"><style>.axis path,.axis line{fill:none;stroke:#000;shape-rendering:crispEdges;}path.candle{stroke:#000000;}path.candle.body{stroke-width:0;}path.candle.up{fill:#00AA00;stroke:#00AA00;}path.candle.down{fill:#FF0000;stroke:#FF0000;}</style><g class="candlestick"><g class="data"><path class="candle body up" d="M 1.0675729708116766 195.73005371685431 l 7.1171531387445 0 L 8.184726109556177 195.32156285543266 l -7.1171531387445 0 L 1.0675729708116766 195.73005371685431 M 9.964014394242305 195.32150164913037 l 7.1171531387445 0 L 17.081167532986804 193.73521791292043 l -7.1171531387445 0 L 9.964014394242305 195.32150164913037 M 18.860455817672932 193.73601359485008 l 7.1171531387445 0 L 25.977608956417434 192.96971069029522 l -7.1171531387445 0 L 18.860455817672932 193.73601359485008 M 27.75689724110356 192.96971069029522 l 7.1171531387445 0 L 34.87405037984806 191.48496820956902 l -7.1171531387445 0 L 27.75689724110356 192.96971069029522 M 36.65333866453418 191.48496820956902 l 7.1171531387445 0 L 43.77049180327868 191.021024438281 l -7.1171531387445 0 L 36.65333866453418 191.48496820956902 M 45.54978008796481 191.021024438281 l 7.1171531387445 0 L 52.66693322670931 190.04643648706477 l -7.1171531387445 0 L 45.54978008796481 191.021024438281 M 72.23910435825668 190.72190923903503 l 7.1171531387445 0 L 79.35625749700118 190.1880066642401 l -7.1171531387445 0 L 72.23910435825668 190.72190923903503 M 90.03198720511796 191.32570941103452 l 7.1171531387445 0 L 97.14914034386246 191.0750083968926 l -7.1171531387445 0 L 90.03198720511796 191.32570941103452 M 98.92842862854857 191.07433512756754 l 7.1171531387445 0 L 106.04558176729307 190.20012551209172 l -7.1171531387445 0 L 98.92842862854857 191.07433512756754 M 107.82487005197919 190.20012551209172 l 7.1171531387445 0 L 114.94202319072369 188.68018940755408 l -7.1171531387445 0 L 107.82487005197919 190.20012551209172 M 116.72131147540982 188.68025061385637 l 7.1171531387445 0 L 123.83846461415432 187.7099471037998 l -7.1171531387445 0 L 116.72131147540982 188.68025061385637 M 125.61775289884046 187.70988589749751 l 7.1171531387445 0 L 132.73490603758498 182.37906179405417 l -7.1171531387445 0 L 125.61775289884046 187.70988589749751 M 134.51419432227107 182.38034712640206 l 7.1171531387445 0 L 141.63134746101557 181.2310763884766 l -7.1171531387445 0 L 134.51419432227107 182.38034712640206 M 152.30707716913233 181.50932023864485 l 7.1171531387445 0 L 159.42423030787683 180.35454093351413 l -7.1171531387445 0 L 152.30707716913233 181.50932023864485 M 170.09996001599356 180.85698346893673 l 7.1171531387445 0 L 177.21711315473806 180.71896325729364 l -7.1171531387445 0 L 170.09996001599356 180.85698346893673 M 178.9964014394242 180.71920808250277 l 7.1171531387445 0 L 186.1135545781687 177.14463761670297 l -7.1171531387445 0 L 178.9964014394242 180.71920808250277 M 196.78928428628546 179.4078630561379 l 7.1171531387445 0 L 203.90643742502996 178.24922775396348 l -7.1171531387445 0 L 196.78928428628546 179.4078630561379 M 205.68572570971608 178.24928896026577 l 7.1171531387445 0 L 212.80287884846058 177.61023395815258 l -7.1171531387445 0 L 205.68572570971608 178.24928896026577 M 214.5821671331467 177.61023395815258 l 7.1171531387445 0 L 221.6993202718912 176.19698043849027 l -7.1171531387445 0 L 214.5821671331467 177.61023395815258 M 241.2714914034386 177.6743169566405 l 7.1171531387445 0 L 248.3886445421831 174.7737502915562 l -7.1171531387445 0 L 241.2714914034386 177.6743169566405 M 250.16793282686922 174.7737502915562 l 7.1171531387445 0 L 257.28508596561375 174.03633676167786 l -7.1171531387445 0 L 250.16793282686922 174.7737502915562 M 259.06437425029986 174.03633676167786 l 7.1171531387445 0 L 266.1815273890444 165.18584424558054 l -7.1171531387445 0 L 259.06437425029986 174.03633676167786 M 285.7536985205918 169.90925700518983 l 7.1171531387445 0 L 292.8708516593363 165.88922707139082 l -7.1171531387445 0 L 285.7536985205918 169.90925700518983 M 312.4430227908837 166.9780259826629 l 7.1171531387445 0 L 319.5601759296282 164.60915846549142 l -7.1171531387445 0 L 312.4430227908837 166.9780259826629 M 321.3394642143143 164.60909725918913 l 7.1171531387445 0 L 328.45661735305885 160.89014112630906 l -7.1171531387445 0 L 321.3394642143143 164.60909725918913 M 330.23590563774496 160.89020233261135 l 7.1171531387445 0 L 337.3530587764895 160.71362215053142 l -7.1171531387445 0 L 330.23590563774496 160.89020233261135 M 356.9252299080368 162.93969536448193 l 7.1171531387445 0 L 364.0423830467813 158.30901015282797 l -7.1171531387445 0 L 356.9252299080368 162.93969536448193 M 365.8216713314674 158.31200926163973 l 7.1171531387445 0 L 372.93882447021196 152.52005687681327 l -7.1171531387445 0 L 365.8216713314674 158.31200926163973 M 374.7181127548981 152.52005687681327 l 7.1171531387445 0 L 381.8352658936426 151.80553450398793 l -7.1171531387445 0 L 374.7181127548981 152.52005687681327 M 383.61455417832866 151.79555787671617 l 7.1171531387445 0 L 390.7317073170732 151.64211367689836 l -7.1171531387445 0 L 383.61455417832866 151.79555787671617 M 392.5109956017593 151.64217488320062 l 7.1171531387445 0 L 399.62814874050383 146.42213418688542 l -7.1171531387445 0 L 392.5109956017593 151.64217488320062 M 401.40743702518995 146.42219539318768 l 7.1171531387445 0 L 408.5245901639345 146.12754825400822 l -7.1171531387445 0 L 401.40743702518995 146.42219539318768 M 428.0967612954818 148.1827946782932 l 7.1171531387445 0 L 435.21391443422635 143.33525553765855 l -7.1171531387445 0 L 428.0967612954818 148.1827946782932 M 463.68252698920435 155.70186650087757 l 7.1171531387445 0 L 470.7996801279489 152.14994236692166 l -7.1171531387445 0 L 463.68252698920435 155.70186650087757 M 472.57896841263494 152.15000357322393 l 7.1171531387445 0 L 479.69612155137946 149.30299242263527 l -7.1171531387445 0 L 472.57896841263494 152.15000357322393 M 481.47540983606564 149.302931216333 l 7.1171531387445 0 L 488.59256297481016 140.05545462364282 l -7.1171531387445 0 L 481.47540983606564 149.302931216333 M 499.2682926829268 145.75321050925922 l 7.1171531387445 0 L 506.38544582167134 143.06545815720506 l -7.1171531387445 0 L 499.2682926829268 145.75321050925922 M 508.16473410635746 143.06551936350735 l 7.1171531387445 0 L 515.281887245102 141.73232368722825 l -7.1171531387445 0 L 508.16473410635746 143.06551936350735 M 525.9576169532187 146.4537166388623 l 7.1171531387445 0 L 533.0747700919632 143.41084532097528 l -7.1171531387445 0 L 525.9576169532187 146.4537166388623 M 534.8540583766493 143.41084532097528 l 7.1171531387445 0 L 541.9712115153937 142.1148630764829 l -7.1171531387445 0 L 534.8540583766493 143.41084532097528 M 561.5433826469413 148.45149034530564 l 7.1171531387445 0 L 568.6605357856857 147.12227307867482 l -7.1171531387445 0 L 561.5433826469413 148.45149034530564 M 588.232706917233 150.21166118629517 l 7.1171531387445 0 L 595.3498600559775 145.48555534938552 l -7.1171531387445 0 L 588.232706917233 150.21166118629517 M 597.1291483406637 145.48555534938552 l 7.1171531387445 0 L 604.2463014794082 143.243568496842 l -7.1171531387445 0 L 597.1291483406637 145.48555534938552 M 606.0255897640943 143.243568496842 l 7.1171531387445 0 L 613.1427429028388 142.64282863995655 l -7.1171531387445 0 L 606.0255897640943 143.243568496842 M 614.9220311875249 142.63946229333112 l 7.1171531387445 0 L 622.0391843262694 141.70459723229507 l -7.1171531387445 0 L 614.9220311875249 142.63946229333112 M 623.8184726109555 141.70459723229507 l 7.1171531387445 0 L 630.9356257497 130.01976327018124 l -7.1171531387445 0 L 623.8184726109555 141.70459723229507 M 632.7149140343862 130.01976327018124 l 7.1171531387445 0 L 639.8320671731307 121.07360530361913 l -7.1171531387445 0 L 632.7149140343862 130.01976327018124 M 641.6113554578168 121.0736665099214 l 7.1171531387445 0 L 648.7285085965613 119.17480218796372 l -7.1171531387445 0 L 641.6113554578168 121.0736665099214 M 650.5077968812475 119.17480218796372 l 7.1171531387445 0 L 657.624950019992 114.8033256664687 l -7.1171531387445 0 L 650.5077968812475 119.17480218796372 M 677.1971211515394 121.54660760764469 l 7.1171531387445 0 L 684.3142742902838 114.86955088553646 l -7.1171531387445 0 L 677.1971211515394 121.54660760764469 M 694.9900039984005 118.40972340945447 l 7.1171531387445 0 L 702.107157137145 115.368933105845 l -7.1171531387445 0 L 694.9900039984005 118.40972340945447 M 703.8864454218311 115.3702184381929 l 7.1171531387445 0 L 711.0035985605756 109.35070102148666 l -7.1171531387445 0 L 703.8864454218311 115.3702184381929 M 712.7828868452618 109.35070102148666 l 7.1171531387445 0 L 719.9000399840063 98.45034823570506 l -7.1171531387445 0 L 712.7828868452618 109.35070102148666 M 730.5757696921231 99.74700374952255 l 7.1171531387445 0 L 737.6929228308676 94.86353650944915 l -7.1171531387445 0 L 730.5757696921231 99.74700374952255 M 739.4722111155537 94.86347530314686 l 7.1171531387445 0 L 746.5893642542982 92.993133118052 l -7.1171531387445 0 L 739.4722111155537 94.86347530314686 M 748.3686525389844 92.993133118052 l 7.1171531387445 0 L 755.4858056777289 83.87008893789853 l -7.1171531387445 0 L 748.3686525389844 92.993133118052 M 757.265093962415 83.87002773159628 l 7.1171531387445 0 L 764.3822471011595 83.57574783023047 l -7.1171531387445 0 L 757.265093962415 83.87002773159628 M 766.1615353858456 83.57574783023047 l 7.1171531387445 0 L 773.27868852459 81.0781634593626 l -7.1171531387445 0 L 766.1615353858456 83.57574783023047 M 775.0579768092763 81.07810225306031 l 7.1171531387445 0 L 782.1751299480208 63.65493262691791 l -7.1171531387445 0 L 775.0579768092763 81.07810225306031 M 783.9544182327068 63.66643941174672 l 7.1171531387445 0 L 791.0715713714512 58.625488355904935 l -7.1171531387445 0 L 783.9544182327068 63.66643941174672 M 801.747301079568 64.80916107532812 l 7.1171531387445 0 L 808.8644542183125 52.81407236695321 l -7.1171531387445 0 L 801.747301079568 64.80916107532812 M 810.6437425029987 52.81407236695321 l 7.1171531387445 0 L 817.7608956417432 35.55493563092324 l -7.1171531387445 0 L 810.6437425029987 52.81407236695321 M 819.5401839264293 35.55493563092324 l 7.1171531387445 0 L 826.6573370651738 19.25618698398037 l -7.1171531387445 0 L 819.5401839264293 35.55493563092324 M 828.43662534986 19.254962857934743 l 7.1171531387445 0 L 835.5537784886045 12.214218287674385 l -7.1171531387445 0 L 828.43662534986 19.254962857934743 M 872.9188324670131 52.20433518363248 l 7.1171531387445 0 L 880.0359856057576 31.870193821018148 l -7.1171531387445 0 L 872.9188324670131 52.20433518363248"></path><path class="candle body down" d="M 54.446221511395436 190.04649769336706 l 7.1171531387445 0 L 61.563374650139934 190.70556715632605 l -7.1171531387445 0 L 54.446221511395436 190.04649769336706 M 63.342662934826066 190.7055059500238 l 7.1171531387445 0 L 70.45981607357056 190.72190923903503 l -7.1171531387445 0 L 63.342662934826066 190.7055059500238 M 81.13554578168731 190.18794545793784 l 7.1171531387445 0 L 88.25269892043181 191.32521976061628 l -7.1171531387445 0 L 81.13554578168731 190.18794545793784 M 143.4106357457017 181.2291177868036 l 7.1171531387445 0 L 150.5277888844462 181.50925903234256 l -7.1171531387445 0 L 143.4106357457017 181.2291177868036 M 161.20351859256294 180.35454093351413 l 7.1171531387445 0 L 168.32067173130744 180.86194117942145 l -7.1171531387445 0 L 161.20351859256294 180.35454093351413 M 187.89284286285485 177.14469882300526 l 7.1171531387445 0 L 195.00999600159935 179.4078630561379 l -7.1171531387445 0 L 187.89284286285485 177.14469882300526 M 223.47860855657734 176.19698043849027 l 7.1171531387445 0 L 230.59576169532184 176.37753903021846 l -7.1171531387445 0 L 223.47860855657734 176.19698043849027 M 232.37504998000796 176.37760023652075 l 7.1171531387445 0 L 239.49220311875246 177.6759083204998 l -7.1171531387445 0 L 232.37504998000796 176.37760023652075 M 267.9608156737305 165.18584424558054 l 7.1171531387445 0 L 275.07796881247504 165.2476626108841 l -7.1171531387445 0 L 267.9608156737305 165.18584424558054 M 276.85725709716115 165.24760140458181 l 7.1171531387445 0 L 283.9744102359057 169.90925700518983 l -7.1171531387445 0 L 276.85725709716115 165.24760140458181 M 294.65013994402244 165.88922707139082 l 7.1171531387445 0 L 301.76729308276697 166.78706231954698 l -7.1171531387445 0 L 294.65013994402244 165.88922707139082 M 303.54658136745303 166.78706231954698 l 7.1171531387445 0 L 310.66373450619756 166.9780259826629 l -7.1171531387445 0 L 303.54658136745303 166.78706231954698 M 339.13234706117555 160.71766176648194 l 7.1171531387445 0 L 346.2495001999201 162.24530986510695 l -7.1171531387445 0 L 339.13234706117555 160.71766176648194 M 348.02878848460614 162.25075722600994 l 7.1171531387445 0 L 355.14594162335067 162.93969536448193 l -7.1171531387445 0 L 348.02878848460614 162.25075722600994 M 410.3038784486206 146.12754825400822 l 7.1171531387445 0 L 417.4210315873651 147.898675023106 l -7.1171531387445 0 L 410.3038784486206 146.12754825400822 M 419.20031987205124 147.90204136973142 l 7.1171531387445 0 L 426.31747301079577 148.18285588459548 l -7.1171531387445 0 L 419.20031987205124 147.90204136973142 M 436.99320271891247 143.33531674396085 l 7.1171531387445 0 L 444.110355857657 146.03384140521638 l -7.1171531387445 0 L 436.99320271891247 143.33531674396085 M 445.8896441423431 146.03555518168025 l 7.1171531387445 0 L 453.00679728108764 155.6410274364105 l -7.1171531387445 0 L 445.8896441423431 146.03555518168025 M 454.7860855657737 155.6410274364105 l 7.1171531387445 0 L 461.90323870451823 155.70192770717983 l -7.1171531387445 0 L 454.7860855657737 155.6410274364105 M 490.3718512594962 140.05545462364282 l 7.1171531387445 0 L 497.48900439824075 145.75321050925922 l -7.1171531387445 0 L 490.3718512594962 140.05545462364282 M 517.0611755297881 141.7296306099279 l 7.1171531387445 0 L 524.1783286685326 146.45365543256 l -7.1171531387445 0 L 517.0611755297881 141.7296306099279 M 543.75049980008 142.1193311365494 l 7.1171531387445 0 L 550.8676529388244 143.29308439538713 l -7.1171531387445 0 L 543.75049980008 142.1193311365494 M 552.6469412235106 143.29308439538713 l 7.1171531387445 0 L 559.764094362255 148.45149034530564 l -7.1171531387445 0 L 552.6469412235106 143.29308439538713 M 570.4398240703717 147.12221187237253 l 7.1171531387445 0 L 577.5569772091162 148.87675173355223 l -7.1171531387445 0 L 570.4398240703717 147.12221187237253 M 579.3362654938024 148.87565002011115 l 7.1171531387445 0 L 586.4534186325469 150.21166118629517 l -7.1171531387445 0 L 579.3362654938024 148.87565002011115 M 659.4042383046781 114.80338687277099 l 7.1171531387445 0 L 666.5213914434225 117.04402718666431 l -7.1171531387445 0 L 659.4042383046781 114.80338687277099 M 668.3006797281087 117.04390477405975 l 7.1171531387445 0 L 675.4178328668531 121.54764811478347 l -7.1171531387445 0 L 668.3006797281087 117.04390477405975 M 686.09356257497 114.86955088553646 l 7.1171531387445 0 L 693.2107157137144 118.40745877627009 l -7.1171531387445 0 L 686.09356257497 114.86955088553646 M 721.6793282686924 98.45028702940277 l 7.1171531387445 0 L 728.7964814074369 99.74626927389518 l -7.1171531387445 0 L 721.6793282686924 98.45028702940277 M 792.8508596561375 58.625488355904935 l 7.1171531387445 0 L 799.9680127948819 64.81552653076531 l -7.1171531387445 0 L 792.8508596561375 58.625488355904935 M 837.3330667732906 12.188817672227856 l 7.1171531387445 0 L 844.4502199120351 15.241420792177479 l -7.1171531387445 0 L 837.3330667732906 12.188817672227856 M 846.2295081967213 15.241420792177479 l 7.1171531387445 0 L 853.3466613354658 27.104426300230585 l -7.1171531387445 0 L 846.2295081967213 15.241420792177479 M 855.1259496201519 27.104426300230585 l 7.1171531387445 0 L 862.2431027588964 43.90892262291919 l -7.1171531387445 0 L 855.1259496201519 27.104426300230585 M 864.0223910435824 43.87281090457353 l 7.1171531387445 0 L 871.1395441823269 52.19154306645581 l -7.1171531387445 0 L 864.0223910435824 43.87281090457353 M 881.8152738904437 31.870193821018148 l 7.1171531387445 0 L 888.9324270291881 32.64463716377634 l -7.1171531387445 0 L 881.8152738904437 31.870193821018148"></path><path class="candle body equal"></path><path class="candle wick up" d="M 4.626149540183927 195.22681549950207 L 4.626149540183927 195.32156285543266 M 4.626149540183927 195.73005371685431 L 4.626149540183927 196.05738502145172 M 13.522590963614554 193.58569091644858 L 13.522590963614554 193.73521791292043 M 13.522590963614554 195.32150164913037 L 13.522590963614554 196.15384615384616 M 22.41903238704518 192.6391966579792 L 22.41903238704518 192.96971069029522 M 22.41903238704518 193.73601359485008 L 22.41903238704518 194.32628717404555 M 31.315473810475808 190.27442996306053 L 31.315473810475808 191.48496820956902 M 31.315473810475808 192.96971069029522 L 31.315473810475808 192.97050637222486 M 40.21191523390643 190.55597895355194 L 40.21191523390643 191.021024438281 M 40.21191523390643 191.48496820956902 L 40.21191523390643 191.92700012464053 M 49.10835665733706 188.8727444345293 L 49.10835665733706 190.04643648706477 M 49.10835665733706 191.021024438281 L 49.10835665733706 192.22691100581613 M 75.79768092762893 189.50114954004565 L 75.79768092762893 190.1880066642401 M 75.79768092762893 190.72190923903503 L 75.79768092762893 191.74442172493707 M 93.5905637744902 190.81659538866333 L 93.5905637744902 191.0750083968926 M 93.5905637744902 191.32570941103452 L 93.5905637744902 191.718898696886 M 102.48700519792082 190.1887411398675 L 102.48700519792082 190.20012551209172 M 102.48700519792082 191.07433512756754 L 102.48700519792082 191.16057480748108 M 111.38344662135144 188.23632130341417 L 111.38344662135144 188.68018940755408 M 111.38344662135144 190.20012551209172 L 111.38344662135144 190.7826870971998 M 120.27988804478207 186.9241193888174 L 120.27988804478207 187.7099471037998 M 120.27988804478207 188.68025061385637 L 120.27988804478207 189.1323815688042 M 129.1763294682127 179.7060601608497 L 129.1763294682127 182.37906179405417 M 129.1763294682127 187.70988589749751 L 129.1763294682127 187.8509664242546 M 138.07277089164333 179.90608235670314 L 138.07277089164333 181.2310763884766 M 138.07277089164333 182.38034712640206 L 138.07277089164333 183.0087522319184 M 155.8656537385046 180.01790627097006 L 155.8656537385046 180.35454093351413 M 155.8656537385046 181.50932023864485 L 155.8656537385046 181.83408087854644 M 173.65853658536582 179.57673124413049 L 173.65853658536582 180.71896325729364 M 173.65853658536582 180.85698346893673 L 173.65853658536582 182.47674705249423 M 182.55497800879647 176.20744671618027 L 182.55497800879647 177.14463761670297 M 182.55497800879647 180.71920808250277 L 182.55497800879647 180.916782026265 M 200.34786085565773 177.10338456896577 L 200.34786085565773 178.24922775396348 M 200.34786085565773 179.4078630561379 L 200.34786085565773 181.52333648186712 M 209.24430227908834 176.9376991086918 L 209.24430227908834 177.61023395815258 M 209.24430227908834 178.24928896026577 L 209.24430227908834 180.3345264726683 M 218.14074370251896 174.3057056980154 L 218.14074370251896 176.19698043849027 M 218.14074370251896 177.61023395815258 L 218.14074370251896 178.51975961004436 M 244.83006797281087 174.51313385644482 L 244.83006797281087 174.7737502915562 M 244.83006797281087 177.6743169566405 L 244.83006797281087 179.29408054019802 M 253.72650939624148 173.33252549175162 L 253.72650939624148 174.03633676167786 M 253.72650939624148 174.7737502915562 L 253.72650939624148 177.82506807915797 M 262.6229508196721 164.20666582169326 L 262.6229508196721 165.18584424558054 M 262.6229508196721 174.03633676167786 L 262.6229508196721 174.3451225566842 M 289.31227508996403 164.81872884450067 L 289.31227508996403 165.88922707139082 M 289.31227508996403 169.90925700518983 L 289.31227508996403 170.60957951588608 M 316.0015993602559 162.89073032265736 L 316.0015993602559 164.60915846549142 M 316.0015993602559 166.9780259826629 L 316.0015993602559 167.12816504215755 M 324.89804078368655 160.59120954596995 L 324.89804078368655 160.89014112630906 M 324.89804078368655 164.60909725918913 L 324.89804078368655 166.10014398905025 M 333.7944822071172 159.73860575519922 L 333.7944822071172 160.71362215053142 M 333.7944822071172 160.89020233261135 L 333.7944822071172 162.9681562950425 M 360.483806477409 157.29035366396963 L 360.483806477409 158.30901015282797 M 360.483806477409 162.93969536448193 L 360.483806477409 163.50891397569282 M 369.38024790083966 151.2993583841262 L 369.38024790083966 152.52005687681327 M 369.38024790083966 158.31200926163973 L 369.38024790083966 159.38360920197093 M 378.2766893242703 147.51613563385138 L 378.2766893242703 151.80553450398793 M 378.2766893242703 152.52005687681327 L 378.2766893242703 155.24330888419024 M 387.1731307477009 149.33475849351902 L 387.1731307477009 151.64211367689836 M 387.1731307477009 151.79555787671617 L 387.1731307477009 154.50148850054768 M 396.06957217113154 145.44558763399618 L 396.06957217113154 146.42213418688542 M 396.06957217113154 151.64217488320062 L 396.06957217113154 152.02636684261682 M 404.9660135945622 144.52333107123 L 404.9660135945622 146.12754825400822 M 404.9660135945622 146.42219539318768 L 404.9660135945622 148.5465437327476 M 431.65533786485406 141.7502571337965 L 431.65533786485406 143.33525553765855 M 431.65533786485406 148.1827946782932 L 431.65533786485406 150.3250764644214 M 467.2411035585766 151.16672432708384 L 467.2411035585766 152.14994236692166 M 467.2411035585766 155.70186650087757 L 467.2411035585766 157.378735564463 M 476.13754498200717 148.23151489490868 L 476.13754498200717 149.30299242263527 M 476.13754498200717 152.15000357322393 L 476.13754498200717 153.39151220868646 M 485.0339864054379 139.03153439278833 L 485.0339864054379 140.05545462364282 M 485.0339864054379 149.302931216333 L 485.0339864054379 149.30299242263527 M 502.82686925229905 142.22136204245137 L 502.82686925229905 143.06545815720506 M 502.82686925229905 145.75321050925922 L 502.82686925229905 148.41543983326227 M 511.7233106757297 140.6544807040644 L 511.7233106757297 141.73232368722825 M 511.7233106757297 143.06551936350735 L 511.7233106757297 145.1274372747409 M 529.5161935225909 143.2312660300836 L 529.5161935225909 143.41084532097528 M 529.5161935225909 146.4537166388623 L 529.5161935225909 147.3749326944897 M 538.4126349460215 141.7439528846616 L 538.4126349460215 142.1148630764829 M 538.4126349460215 143.41084532097528 L 538.4126349460215 145.18986770306728 M 565.1019592163135 146.52067633355742 L 565.1019592163135 147.12227307867482 M 565.1019592163135 148.45149034530564 L 565.1019592163135 152.5774683883526 M 591.7912834866053 144.628850736362 L 591.7912834866053 145.48555534938552 M 591.7912834866053 150.21166118629517 L 591.7912834866053 150.30855076280557 M 600.687724910036 141.79903855671427 L 600.687724910036 143.243568496842 M 600.687724910036 145.48555534938552 L 600.687724910036 146.08274524073872 M 609.5841663334666 142.17851763085486 L 609.5841663334666 142.64282863995655 M 609.5841663334666 143.243568496842 L 609.5841663334666 144.31461758045268 M 618.4806077568971 140.8258583504505 L 618.4806077568971 141.70459723229507 M 618.4806077568971 142.63946229333112 L 618.4806077568971 144.008586069049 M 627.3770491803277 128.64580419658319 L 627.3770491803277 130.01976327018124 M 627.3770491803277 141.70459723229507 L 627.3770491803277 142.60940999891127 M 636.2734906037584 114.93559248569737 L 636.2734906037584 121.07360530361913 M 636.2734906037584 130.01976327018124 L 636.2734906037584 130.6656121718476 M 645.169932027189 118.08661533971444 L 645.169932027189 119.17480218796372 M 645.169932027189 121.0736665099214 L 645.169932027189 123.81050631640471 M 654.0663734506197 112.6619619748747 L 654.0663734506197 114.8033256664687 M 654.0663734506197 119.17480218796372 L 654.0663734506197 121.36225422517509 M 680.7556977209116 114.70851710423582 L 680.7556977209116 114.86955088553646 M 680.7556977209116 121.54660760764469 L 680.7556977209116 123.78969617362925 M 698.5485805677728 114.96968439606773 L 698.5485805677728 115.368933105845 M 698.5485805677728 118.40972340945447 L 698.5485805677728 121.6473531811988 M 707.4450219912034 108.87702544813601 L 707.4450219912034 109.35070102148666 M 707.4450219912034 115.3702184381929 L 707.4450219912034 117.1781914012637 M 716.3414634146341 96.16343595728749 L 716.3414634146341 98.45034823570506 M 716.3414634146341 109.35070102148666 L 716.3414634146341 110.65115132604556 M 734.1343462614954 92.28926064182347 L 734.1343462614954 94.86353650944915 M 734.1343462614954 99.74700374952255 L 734.1343462614954 100.85202233089905 M 743.0307876849259 92.84011736235014 L 743.0307876849259 92.993133118052 M 743.0307876849259 94.86347530314686 L 743.0307876849259 102.2046816113034 M 751.9272291083566 83.13279782062473 L 751.9272291083566 83.87008893789853 M 751.9272291083566 92.993133118052 L 751.9272291083566 93.3909740828768 M 760.8236705317872 81.27212623129023 L 760.8236705317872 83.57574783023047 M 760.8236705317872 83.87002773159628 L 760.8236705317872 90.14704006199756 M 769.7201119552178 79.43593716286803 L 769.7201119552178 81.0781634593626 M 769.7201119552178 83.57574783023047 L 769.7201119552178 85.40618350623828 M 778.6165533786485 56.78960531899412 L 778.6165533786485 63.65493262691791 M 778.6165533786485 81.07810225306031 L 778.6165533786485 83.43558539800758 M 787.512994802079 47.74264057257565 L 787.512994802079 58.625488355904935 M 787.512994802079 63.66643941174672 L 787.512994802079 64.9729491402314 M 805.3058776489403 50.301737277235674 L 805.3058776489403 52.81407236695321 M 805.3058776489403 64.80916107532812 L 805.3058776489403 77.59974809444581 M 814.202319072371 34.51534658668487 L 814.202319072371 35.55493563092324 M 814.202319072371 52.81407236695321 L 814.202319072371 56.86305288173102 M 823.0987604958016 13.54735275765114 L 823.0987604958016 19.25618698398037 M 823.0987604958016 35.55493563092324 L 823.0987604958016 38.42771463477206 M 831.9952019192323 3.8461538461538396 L 831.9952019192323 12.214218287674385 M 831.9952019192323 19.254962857934743 L 831.9952019192323 37.20358858915728 M 876.4774090363853 28.940737781257326 L 876.4774090363853 31.870193821018148 M 876.4774090363853 52.20433518363248 L 876.4774090363853 62.42058512882224" style="stroke-width: 1px;"></path><path class="candle wick down" d="M 58.004798080767685 189.87046836800764 L 58.004798080767685 190.04649769336706 M 58.004798080767685 190.70556715632605 L 58.004798080767685 191.44347033662268 M 66.90123950419832 189.92567645266487 L 66.90123950419832 190.7055059500238 M 66.90123950419832 190.72190923903503 L 66.90123950419832 191.56588294118416 M 84.69412235105956 189.9674803571226 L 84.69412235105956 190.18794545793784 M 84.69412235105956 191.32521976061628 L 84.69412235105956 192.05553335943006 M 146.96921231507397 180.86891869788144 L 146.96921231507397 181.2291177868036 M 146.96921231507397 181.50925903234256 L 146.96921231507397 182.75168576233932 M 164.7620951619352 178.89617836907092 L 164.7620951619352 180.35454093351413 M 164.7620951619352 180.86194117942145 L 164.7620951619352 181.72390953444113 M 191.4514194322271 175.77783968047177 L 191.4514194322271 177.14469882300526 M 191.4514194322271 179.4078630561379 L 191.4514194322271 181.72390953444113 M 227.0371851259496 175.5604348947706 L 227.0371851259496 176.19698043849027 M 227.0371851259496 176.37753903021846 L 227.0371851259496 177.34765892136818 M 235.93362654938022 175.9582758595954 L 235.93362654938022 176.37760023652075 M 235.93362654938022 177.6759083204998 L 235.93362654938022 179.844570022911 M 271.51939224310274 162.92133347379772 L 271.51939224310274 165.18584424558054 M 271.51939224310274 165.2476626108841 L 271.51939224310274 167.7811138748885 M 280.4158336665334 164.18512120329044 L 280.4158336665334 165.24760140458181 M 280.4158336665334 169.90925700518983 L 280.4158336665334 172.81092538371516 M 298.2087165133947 163.6558091011666 L 298.2087165133947 165.88922707139082 M 298.2087165133947 166.78706231954698 L 298.2087165133947 169.98735624690005 M 307.10515793682526 165.98164858783474 L 307.10515793682526 166.78706231954698 M 307.10515793682526 166.9780259826629 L 307.10515793682526 168.35363762642254 M 342.6909236305478 160.67512338639682 L 342.6909236305478 160.71766176648194 M 342.6909236305478 162.24530986510695 L 342.6909236305478 164.6963162399392 M 351.5873650539784 161.57479482362143 L 351.5873650539784 162.25075722600994 M 351.5873650539784 162.93969536448193 L 351.5873650539784 164.05536384245528 M 413.86245501799283 145.8447751374712 L 413.86245501799283 146.12754825400822 M 413.86245501799283 147.898675023106 L 413.86245501799283 152.81702985547943 M 422.7588964414235 145.746845053822 L 422.7588964414235 147.90204136973142 M 422.7588964414235 148.18285588459548 L 422.7588964414235 150.4352478085267 M 440.5517792882847 141.35094721771696 L 440.5517792882847 143.33531674396085 M 440.5517792882847 146.03384140521638 L 440.5517792882847 147.37328012432812 M 449.44822071171535 144.83468753093214 L 449.44822071171535 146.03555518168025 M 449.44822071171535 155.6410274364105 L 449.44822071171535 161.52582978179686 M 458.34466213514594 153.7549552316295 L 458.34466213514594 155.6410274364105 M 458.34466213514594 155.70192770717983 L 458.34466213514594 159.9951825743601 M 493.93042782886846 138.87949793792296 L 493.93042782886846 140.05545462364282 M 493.93042782886846 145.75321050925922 L 493.93042782886846 150.42839270267126 M 520.6197520991603 141.0890454502577 L 520.6197520991603 141.7296306099279 M 520.6197520991603 146.45365543256 L 520.6197520991603 146.97519433429417 M 547.3090763694522 141.73838311115406 L 547.3090763694522 142.1193311365494 M 547.3090763694522 143.29308439538713 L 547.3090763694522 144.90905318820325 M 556.2055177928828 142.51001096400734 L 556.2055177928828 143.29308439538713 M 556.2055177928828 148.45149034530564 L 556.2055177928828 149.2111217629119 M 573.998400639744 147.0240981698165 L 573.998400639744 147.12221187237253 M 573.998400639744 148.87675173355223 L 573.998400639744 150.97924942319793 M 582.8948420631747 148.6435557218626 L 582.8948420631747 148.87565002011115 M 582.8948420631747 150.21166118629517 L 582.8948420631747 153.05285773816712 M 662.9628148740503 111.90588052280073 L 662.9628148740503 114.80338687277099 M 662.9628148740503 117.04402718666431 L 662.9628148740503 119.46485885447214 M 671.8592562974809 113.0824492715434 L 671.8592562974809 117.04390477405975 M 671.8592562974809 121.54764811478347 L 671.8592562974809 127.0850434884243 M 689.6521391443422 113.09940341727517 L 689.6521391443422 114.86955088553646 M 689.6521391443422 118.40745877627009 L 689.6521391443422 122.2803487593862 M 725.2379048380647 86.64603957153922 L 725.2379048380647 98.45028702940277 M 725.2379048380647 99.74626927389518 L 725.2379048380647 103.30639505235672 M 796.4094362255097 54.953416250571934 L 796.4094362255097 58.625488355904935 M 796.4094362255097 64.81552653076531 L 796.4094362255097 88.43326359813683 M 840.8916433426629 7.3349130761560275 L 840.8916433426629 12.188817672227856 M 840.8916433426629 15.241420792177479 L 840.8916433426629 23.61578948283295 M 849.7880847660936 7.518531982998269 L 849.7880847660936 15.241420792177479 M 849.7880847660936 27.104426300230585 L 849.7880847660936 45.704470706627006 M 858.6845261895241 26.402267600465905 L 858.6845261895241 27.104426300230585 M 858.6845261895241 43.90892262291919 L 858.6845261895241 74.41702037584731 M 867.5809676129546 36.42014791996377 L 867.5809676129546 43.87281090457353 M 867.5809676129546 52.19154306645581 L 867.5809676129546 61.496369964383064 M 885.3738504598159 26.968548309167318 L 885.3738504598159 31.870193821018148 M 885.3738504598159 32.64463716377634 L 885.3738504598159 35.97193416836191" style="stroke-width: 1px;"></path><path class="candle wick equal" style="stroke-width: 1px;"></path></g></g><g class="x axis" transform="translate(0,200)" fill="none" font-size="10" font-family="sans-serif" text-anchor="middle"><path class="domain" stroke="#000" d="M0.5,6V0.5H890.5V6"></path><g class="tick" opacity="1" transform="translate(49.10835665733706,0)"><line stroke="#000" y2="6" x1="0.5" x2="0.5"></line><text fill="#000" y="9" x="0.5" dy="0.71em">Oct 12</text></g><g class="tick" opacity="1" transform="translate(111.38344662135144,0)"><line stroke="#000" y2="6" x1="0.5" x2="0.5"></line><text fill="#000" y="9" x="0.5" dy="0.71em">Oct 19</text></g><g class="tick" opacity="1" transform="translate(173.65853658536582,0)"><line stroke="#000" y2="6" x1="0.5" x2="0.5"></line><text fill="#000" y="9" x="0.5" dy="0.71em">Oct 26</text></g><g class="tick" opacity="1" transform="translate(235.93362654938022,0)"><line stroke="#000" y2="6" x1="0.5" x2="0.5"></line><text fill="#000" y="9" x="0.5" dy="0.71em">Nov  2</text></g><g class="tick" opacity="1" transform="translate(298.2087165133947,0)"><line stroke="#000" y2="6" x1="0.5" x2="0.5"></line><text fill="#000" y="9" x="0.5" dy="0.71em">Nov  9</text></g><g class="tick" opacity="1" transform="translate(360.483806477409,0)"><line stroke="#000" y2="6" x1="0.5" x2="0.5"></line><text fill="#000" y="9" x="0.5" dy="0.71em">Nov 16</text></g><g class="tick" opacity="1" transform="translate(422.7588964414235,0)"><line stroke="#000" y2="6" x1="0.5" x2="0.5"></line><text fill="#000" y="9" x="0.5" dy="0.71em">Nov 23</text></g><g class="tick" opacity="1" transform="translate(485.0339864054379,0)"><line stroke="#000" y2="6" x1="0.5" x2="0.5"></line><text fill="#000" y="9" x="0.5" dy="0.71em">Nov 30</text></g><g class="tick" opacity="1" transform="translate(547.3090763694522,0)"><line stroke="#000" y2="6" x1="0.5" x2="0.5"></line><text fill="#000" y="9" x="0.5" dy="0.71em">Dec  7</text></g><g class="tick" opacity="1" transform="translate(609.5841663334666,0)"><line stroke="#000" y2="6" x1="0.5" x2="0.5"></line><text fill="#000" y="9" x="0.5" dy="0.71em">Dec 14</text></g><g class="tick" opacity="1" transform="translate(671.8592562974809,0)"><line stroke="#000" y2="6" x1="0.5" x2="0.5"></line><text fill="#000" y="9" x="0.5" dy="0.71em">Dec 21</text></g><g class="tick" opacity="1" transform="translate(734.1343462614954,0)"><line stroke="#000" y2="6" x1="0.5" x2="0.5"></line><text fill="#000" y="9" x="0.5" dy="0.71em">Dec 28</text></g><g class="tick" opacity="1" transform="translate(796.4094362255097,0)"><line stroke="#000" y2="6" x1="0.5" x2="0.5"></line><text fill="#000" y="9" x="0.5" dy="0.71em">Jan  4</text></g><g class="tick" opacity="1" transform="translate(858.6845261895241,0)"><line stroke="#000" y2="6" x1="0.5" x2="0.5"></line><text fill="#000" y="9" x="0.5" dy="0.71em">Jan 11</text></g></g><g class="y axis" fill="none" font-size="10" font-family="sans-serif" text-anchor="end"><path class="domain" stroke="#000" d="M-6,200.5H0.5V0.5H-6"></path><g class="tick" opacity="1" transform="translate(0,199.4002896331189)"><line stroke="#000" x2="-6" y1="0.5" y2="0.5"></line><text fill="#000" x="-9" y="0.5" dy="0.32em">10,000</text></g><g class="tick" opacity="1" transform="translate(0,168.7971384927488)"><line stroke="#000" x2="-6" y1="0.5" y2="0.5"></line><text fill="#000" x="-9" y="0.5" dy="0.32em">15,000</text></g><g class="tick" opacity="1" transform="translate(0,138.19398735237866)"><line stroke="#000" x2="-6" y1="0.5" y2="0.5"></line><text fill="#000" x="-9" y="0.5" dy="0.32em">20,000</text></g><g class="tick" opacity="1" transform="translate(0,107.59083621200854)"><line stroke="#000" x2="-6" y1="0.5" y2="0.5"></line><text fill="#000" x="-9" y="0.5" dy="0.32em">25,000</text></g><g class="tick" opacity="1" transform="translate(0,76.98768507163842)"><line stroke="#000" x2="-6" y1="0.5" y2="0.5"></line><text fill="#000" x="-9" y="0.5" dy="0.32em">30,000</text></g><g class="tick" opacity="1" transform="translate(0,46.384533931268294)"><line stroke="#000" x2="-6" y1="0.5" y2="0.5"></line><text fill="#000" x="-9" y="0.5" dy="0.32em">35,000</text></g><g class="tick" opacity="1" transform="translate(0,15.781382790898192)"><line stroke="#000" x2="-6" y1="0.5" y2="0.5"></line><text fill="#000" x="-9" y="0.5" dy="0.32em">40,000</text></g><text transform="rotate(-90)" y="6" dy=".71em" style="text-anchor: end;">Price ($)</text></g></g></svg>