<?xml version="1.0" encoding="utf-8"?>
<!DOCTYPE svg PUBLIC "-//W3C//DTD SVG 1.1//EN" "http://www.w3.org/Graphics/SVG/1.1/DTD/svg11.dtd">
<svg version="1.1" xmlns="http://www.w3.org/2000/svg" width="960" height="250"><g transform="translate(50,20)"><style>.axis path,.axis line{fill:none;stroke:#000;shape-rendering:crispEdges;}path.candle{stroke:#000000;}path.candle.body{stroke-width:0;}path.candle.up{fill:#00AA00;stroke:#00AA00;}path.candle.down{fill:#FF0000;stroke:#FF0000;}</style><g class="candlestick"><g class="data"><path class="candle body up" d="M 1.0675729708116766 149.46429146408218 l 7.1171531387445 0 L 8.184726109556177 141.12382071674665 l -7.1171531387445 0 L 1.0675729708116766 149.46429146408218 M 9.964014394242305 141.12390121389703 l 7.1171531387445 0 L 17.081167532986804 128.14333322600385 l -7.1171531387445 0 L 9.964014394242305 141.12390121389703 M 27.75689724110356 132.64280194481117 l 7.1171531387445 0 L 34.87405037984806 125.60871945133142 l -7.1171531387445 0 L 27.75689724110356 132.64280194481117 M 36.65333866453418 125.60871945133142 l 7.1171531387445 0 L 43.77049180327868 112.10041214541006 l -7.1171531387445 0 L 36.65333866453418 125.60871945133142 M 63.342662934826066 142.1316450397656 l 7.1171531387445 0 L 70.45981607357056 139.8757928969315 l -7.1171531387445 0 L 63.342662934826066 142.1316450397656 M 90.03198720511796 159.31996007341337 l 7.1171531387445 0 L 97.14914034386246 127.06273947902244 l -7.1171531387445 0 L 90.03198720511796 159.31996007341337 M 107.82487005197919 132.77980809479345 l 7.1171531387445 0 L 114.94202319072369 127.51408700132015 l -7.1171531387445 0 L 107.82487005197919 132.77980809479345 M 125.61775289884046 141.88975110281095 l 7.1171531387445 0 L 132.73490603758498 113.92141868177869 l -7.1171531387445 0 L 125.61775289884046 141.88975110281095 M 134.51419432227107 113.9214991789291 l 7.1171531387445 0 L 141.63134746101557 101.88129890201888 l -7.1171531387445 0 L 134.51419432227107 113.9214991789291 M 187.89284286285485 142.39205332131243 l 7.1171531387445 0 L 195.00999600159935 141.4547445020446 l -7.1171531387445 0 L 187.89284286285485 142.39205332131243 M 205.68572570971608 173.54123064043534 l 7.1171531387445 0 L 212.80287884846058 166.3331938049393 l -7.1171531387445 0 L 205.68572570971608 173.54123064043534 M 214.5821671331467 166.3331938049393 l 7.1171531387445 0 L 221.6993202718912 156.92702128344658 l -7.1171531387445 0 L 214.5821671331467 166.3331938049393 M 223.47860855657734 156.95117042856685 l 7.1171531387445 0 L 230.59576169532184 148.99789097465953 l -7.1171531387445 0 L 223.47860855657734 156.95117042856685 M 241.2714914034386 173.84736130340985 l 7.1171531387445 0 L 248.3886445421831 168.1517049296455 l -7.1171531387445 0 L 241.2714914034386 173.84736130340985 M 250.16793282686922 168.1517049296455 l 7.1171531387445 0 L 257.28508596561375 148.69803908941628 l -7.1171531387445 0 L 250.16793282686922 168.1517049296455 M 267.9608156737305 150.35185304440225 l 7.1171531387445 0 L 275.07796881247504 138.9466947870045 l -7.1171531387445 0 L 267.9608156737305 150.35185304440225 M 294.65013994402244 158.34167820459155 l 7.1171531387445 0 L 301.76729308276697 156.05378819589785 l -7.1171531387445 0 L 294.65013994402244 158.34167820459155 M 303.54658136745303 156.0538686930483 l 7.1171531387445 0 L 310.66373450619756 148.9492706958174 l -7.1171531387445 0 L 303.54658136745303 156.0538686930483 M 312.4430227908837 148.94935119296775 l 7.1171531387445 0 L 319.5601759296282 143.9795376243681 l -7.1171531387445 0 L 312.4430227908837 148.94935119296775 M 330.23590563774496 156.8297807257623 l 7.1171531387445 0 L 337.3530587764895 152.5645587146215 l -7.1171531387445 0 L 330.23590563774496 156.8297807257623 M 356.9252299080368 163.38579064301126 l 7.1171531387445 0 L 364.0423830467813 155.81825353382493 l -7.1171531387445 0 L 356.9252299080368 163.38579064301126 M 374.7181127548981 158.3373313584699 l 7.1171531387445 0 L 381.8352658936426 152.25078082235893 l -7.1171531387445 0 L 374.7181127548981 158.3373313584699 M 401.40743702518995 164.5657983707377 l 7.1171531387445 0 L 408.5245901639345 163.83407927359374 l -7.1171531387445 0 L 401.40743702518995 164.5657983707377 M 428.0967612954818 175.3947580255659 l 7.1171531387445 0 L 435.21391443422635 174.2983063399556 l -7.1171531387445 0 L 428.0967612954818 175.3947580255659 M 436.99320271891247 174.2983063399556 l 7.1171531387445 0 L 444.110355857657 172.21753549924333 l -7.1171531387445 0 L 436.99320271891247 174.2983063399556 M 463.68252698920435 188.22213993624626 l 7.1171531387445 0 L 470.7996801279489 169.2717422803233 l -7.1171531387445 0 L 463.68252698920435 188.22213993624626 M 472.57896841263494 169.2717422803233 l 7.1171531387445 0 L 479.69612155137946 168.1180571207779 l -7.1171531387445 0 L 472.57896841263494 169.2717422803233 M 481.47540983606564 168.12006954953793 l 7.1171531387445 0 L 488.59256297481016 157.28104775090966 l -7.1171531387445 0 L 481.47540983606564 168.12006954953793 M 490.3718512594962 157.28096725375923 l 7.1171531387445 0 L 497.48900439824075 152.257623080143 l -7.1171531387445 0 L 490.3718512594962 157.28096725375923 M 499.2682926829268 152.23049554045787 l 7.1171531387445 0 L 506.38544582167134 143.21875905592947 l -7.1171531387445 0 L 499.2682926829268 152.23049554045787 M 508.16473410635746 143.21875905592947 l 7.1171531387445 0 L 515.281887245102 128.27381910680364 l -7.1171531387445 0 L 508.16473410635746 143.21875905592947 M 517.0611755297881 128.24379366970408 l 7.1171531387445 0 L 524.1783286685326 110.40127829474837 l -7.1171531387445 0 L 517.0611755297881 128.24379366970408 M 525.9576169532187 110.41142093569889 l 7.1171531387445 0 L 533.0747700919632 105.8798338538816 l -7.1171531387445 0 L 525.9576169532187 110.41142093569889 M 543.75049980008 105.8884470489745 l 7.1171531387445 0 L 550.8676529388244 88.27663650706765 l -7.1171531387445 0 L 543.75049980008 105.8884470489745 M 588.232706917233 120.47010335834112 l 7.1171531387445 0 L 595.3498600559775 108.26560839746274 l -7.1171531387445 0 L 588.232706917233 120.47010335834112 M 597.1291483406637 108.26568889461315 l 7.1171531387445 0 L 604.2463014794082 99.09472904659178 l -7.1171531387445 0 L 597.1291483406637 108.26568889461315 M 606.0255897640943 99.09472904659178 l 7.1171531387445 0 L 613.1427429028388 83.20129117429242 l -7.1171531387445 0 L 606.0255897640943 99.09472904659178 M 614.9220311875249 83.20129117429242 l 7.1171531387445 0 L 622.0391843262694 69.22964227066365 l -7.1171531387445 0 L 614.9220311875249 83.20129117429242 M 632.7149140343862 75.493769520559 l 7.1171531387445 0 L 639.8320671731307 55.699198248382004 l -7.1171531387445 0 L 632.7149140343862 75.493769520559 M 668.3006797281087 70.61805712077796 l 7.1171531387445 0 L 675.4178328668531 43.24950896738258 l -7.1171531387445 0 L 668.3006797281087 70.61805712077796 M 712.7828868452618 68.23622693756647 l 7.1171531387445 0 L 719.9000399840063 68.16104259909199 l -7.1171531387445 0 L 712.7828868452618 68.23622693756647 M 721.6793282686924 68.20869691212928 l 7.1171531387445 0 L 728.7964814074369 51.61622178574879 l -7.1171531387445 0 L 721.6793282686924 68.20869691212928 M 730.5757696921231 51.61622178574879 l 7.1171531387445 0 L 737.6929228308676 30.99405931030043 l -7.1171531387445 0 L 730.5757696921231 51.61622178574879 M 748.3686525389844 35.02366616221789 l 7.1171531387445 0 L 755.4858056777289 31.664198087387717 l -7.1171531387445 0 L 748.3686525389844 35.02366616221789 M 757.265093962415 31.664198087387717 l 7.1171531387445 0 L 764.3822471011595 29.654747721930676 l -7.1171531387445 0 L 757.265093962415 31.664198087387717 M 775.0579768092763 44.26369256528321 l 7.1171531387445 0 L 782.1751299480208 33.804617316547024 l -7.1171531387445 0 L 775.0579768092763 44.26369256528321 M 792.8508596561375 50.94616350581191 l 7.1171531387445 0 L 799.9680127948819 33.027175837975335 l -7.1171531387445 0 L 792.8508596561375 50.94616350581191 M 828.43662534986 49.826850629487694 l 7.1171531387445 0 L 835.5537784886045 48.87714524905823 l -7.1171531387445 0 L 828.43662534986 49.826850629487694 M 837.3330667732906 48.87714524905823 l 7.1171531387445 0 L 844.4502199120351 35.11511092507328 l -7.1171531387445 0 L 837.3330667732906 48.87714524905823 M 846.2295081967213 35.11519142222366 l 7.1171531387445 0 L 853.3466613354658 31.604469201790266 l -7.1171531387445 0 L 846.2295081967213 35.11519142222366 M 855.1259496201519 31.6045496989407 l 7.1171531387445 0 L 862.2431027588964 25.547058634124397 l -7.1171531387445 0 L 855.1259496201519 31.6045496989407 M 872.9188324670131 26.203915381395518 l 7.1171531387445 0 L 880.0359856057576 11.397752519560868 l -7.1171531387445 0 L 872.9188324670131 26.203915381395518 M 881.8152738904437 11.397752519560868 l 7.1171531387445 0 L 888.9324270291881 5.854477251505301 l -7.1171531387445 0 L 881.8152738904437 11.397752519560868"></path><path class="candle body down" d="M 18.860455817672932 128.1432527288534 l 7.1171531387445 0 L 25.977608956417434 132.65696944328175 l -7.1171531387445 0 L 18.860455817672932 128.1432527288534 M 45.54978008796481 112.10049264256048 l 7.1171531387445 0 L 52.66693322670931 131.56293267218342 l -7.1171531387445 0 L 45.54978008796481 112.10049264256048 M 54.446221511395436 131.56172521492738 l 7.1171531387445 0 L 61.563374650139934 142.15474772193068 l -7.1171531387445 0 L 54.446221511395436 131.56172521492738 M 72.23910435825668 139.8757928969315 l 7.1171531387445 0 L 79.35625749700118 157.93548958366875 l -7.1171531387445 0 L 72.23910435825668 139.8757928969315 M 81.13554578168731 157.9019222719516 l 7.1171531387445 0 L 88.25269892043181 159.31987957626302 l -7.1171531387445 0 L 81.13554578168731 157.9019222719516 M 98.92842862854857 127.06273947902244 l 7.1171531387445 0 L 106.04558176729307 132.79679299352802 l -7.1171531387445 0 L 98.92842862854857 127.06273947902244 M 116.72131147540982 127.51408700132015 l 7.1171531387445 0 L 123.83846461415432 141.88983159996138 l -7.1171531387445 0 L 116.72131147540982 127.51408700132015 M 143.4106357457017 101.88137939916929 l 7.1171531387445 0 L 150.5277888844462 104.87780532569147 l -7.1171531387445 0 L 143.4106357457017 101.88137939916929 M 152.30707716913233 104.87973725730109 l 7.1171531387445 0 L 159.42423030787683 119.32728531409987 l -7.1171531387445 0 L 152.30707716913233 104.87973725730109 M 161.20351859256294 119.3273658112503 l 7.1171531387445 0 L 168.32067173130744 121.38833435296391 l -7.1171531387445 0 L 161.20351859256294 119.3273658112503 M 170.09996001599356 121.38833435296391 l 7.1171531387445 0 L 177.21711315473806 139.68638310203823 l -7.1171531387445 0 L 170.09996001599356 121.38833435296391 M 178.9964014394242 139.68123128441252 l 7.1171531387445 0 L 186.1135545781687 142.39205332131243 l -7.1171531387445 0 L 178.9964014394242 139.68123128441252 M 196.78928428628546 141.45466400489425 l 7.1171531387445 0 L 203.90643742502996 173.58300866149338 l -7.1171531387445 0 L 196.78928428628546 141.45466400489425 M 232.37504998000796 148.9979714718099 l 7.1171531387445 0 L 239.49220311875246 173.78006568567474 l -7.1171531387445 0 L 232.37504998000796 148.9979714718099 M 259.06437425029986 148.68073220208007 l 7.1171531387445 0 L 266.1815273890444 150.35185304440225 l -7.1171531387445 0 L 259.06437425029986 148.68073220208007 M 276.85725709716115 138.94677528415494 l 7.1171531387445 0 L 283.9744102359057 145.92362430369965 l -7.1171531387445 0 L 276.85725709716115 138.94677528415494 M 285.7536985205918 145.92362430369965 l 7.1171531387445 0 L 292.8708516593363 158.32268087709696 l -7.1171531387445 0 L 285.7536985205918 145.92362430369965 M 321.3394642143143 143.9664970860032 l 7.1171531387445 0 L 328.45661735305885 156.8298612229127 l -7.1171531387445 0 L 321.3394642143143 143.9664970860032 M 339.13234706117555 152.56447821747113 l 7.1171531387445 0 L 346.2495001999201 155.44547123031845 l -7.1171531387445 0 L 339.13234706117555 152.56447821747113 M 348.02878848460614 155.44555172746885 l 7.1171531387445 0 L 355.14594162335067 163.38579064301126 l -7.1171531387445 0 L 348.02878848460614 155.44555172746885 M 365.8216713314674 155.81825353382493 l 7.1171531387445 0 L 372.93882447021196 158.3373313584699 l -7.1171531387445 0 L 365.8216713314674 155.81825353382493 M 383.61455417832866 152.2507003252085 l 7.1171531387445 0 L 390.7317073170732 161.687944746756 l -7.1171531387445 0 L 383.61455417832866 152.2507003252085 M 392.5109956017593 161.68544933509352 l 7.1171531387445 0 L 399.62814874050383 164.56056605596163 l -7.1171531387445 0 L 392.5109956017593 161.68544933509352 M 410.3038784486206 163.83399877644334 l 7.1171531387445 0 L 417.4210315873651 171.40097240557685 l -7.1171531387445 0 L 410.3038784486206 163.83399877644334 M 419.20031987205124 171.44532633544773 l 7.1171531387445 0 L 426.31747301079577 175.3946775284155 l -7.1171531387445 0 L 419.20031987205124 171.44532633544773 M 445.8896441423431 172.21745500209295 l 7.1171531387445 0 L 453.00679728108764 179.77549344753194 l -7.1171531387445 0 L 445.8896441423431 172.21745500209295 M 454.7860855657737 179.77549344753194 l 7.1171531387445 0 L 461.90323870451823 188.2220594390959 l -7.1171531387445 0 L 454.7860855657737 179.77549344753194 M 534.8540583766493 105.87975335673119 l 7.1171531387445 0 L 541.9712115153937 105.90462697620502 l -7.1171531387445 0 L 534.8540583766493 105.87975335673119 M 552.6469412235106 88.27671700421806 l 7.1171531387445 0 L 559.764094362255 94.26997134301448 l -7.1171531387445 0 L 552.6469412235106 88.27671700421806 M 561.5433826469413 94.2698908458641 l 7.1171531387445 0 L 568.6605357856857 107.28145023666161 l -7.1171531387445 0 L 561.5433826469413 94.2698908458641 M 570.4398240703717 107.24257011301805 l 7.1171531387445 0 L 577.5569772091162 112.89709244292754 l -7.1171531387445 0 L 570.4398240703717 107.24257011301805 M 579.3362654938024 112.90482016936602 l 7.1171531387445 0 L 586.4534186325469 120.4700228611907 l -7.1171531387445 0 L 579.3362654938024 112.90482016936602 M 623.8184726109555 69.22964227066365 l 7.1171531387445 0 L 630.9356257497 75.49368902340856 l -7.1171531387445 0 L 623.8184726109555 69.22964227066365 M 641.6113554578168 55.735663457513596 l 7.1171531387445 0 L 648.7285085965613 61.07970827832699 l -7.1171531387445 0 L 641.6113554578168 55.735663457513596 M 650.5077968812475 61.07962778117658 l 7.1171531387445 0 L 657.624950019992 61.675306694143046 l -7.1171531387445 0 L 650.5077968812475 61.07962778117658 M 659.4042383046781 61.6779631001063 l 7.1171531387445 0 L 666.5213914434225 70.62658981872042 l -7.1171531387445 0 L 659.4042383046781 61.6779631001063 M 677.1971211515394 43.24958946453299 l 7.1171531387445 0 L 684.3142742902838 49.137795022056224 l -7.1171531387445 0 L 677.1971211515394 43.24958946453299 M 686.09356257497 49.13787551920663 l 7.1171531387445 0 L 693.2107157137144 49.900022539202126 l -7.1171531387445 0 L 686.09356257497 49.13787551920663 M 694.9900039984005 49.900022539202126 l 7.1171531387445 0 L 702.107157137145 58.53358341114725 l -7.1171531387445 0 L 694.9900039984005 49.900022539202126 M 703.8864454218311 58.53350291399684 l 7.1171531387445 0 L 711.0035985605756 68.23622693756647 l -7.1171531387445 0 L 703.8864454218311 58.53350291399684 M 739.4722111155537 30.99405931030043 l 7.1171531387445 0 L 746.5893642542982 35.02374665936824 l -7.1171531387445 0 L 739.4722111155537 30.99405931030043 M 766.1615353858456 29.654747721930676 l 7.1171531387445 0 L 773.27868852459 44.26369256528321 l -7.1171531387445 0 L 766.1615353858456 29.654747721930676 M 783.9544182327068 33.804617316547024 l 7.1171531387445 0 L 791.0715713714512 50.946083008661475 l -7.1171531387445 0 L 783.9544182327068 33.804617316547024 M 801.747301079568 33.027175837975335 l 7.1171531387445 0 L 808.8644542183125 34.43225359822267 l -7.1171531387445 0 L 801.747301079568 33.027175837975335 M 810.6437425029987 34.43225359822267 l 7.1171531387445 0 L 817.7608956417432 35.458753260134586 l -7.1171531387445 0 L 810.6437425029987 34.43225359822267 M 819.5401839264293 35.458672762984236 l 7.1171531387445 0 L 826.6573370651738 49.826850629487694 l -7.1171531387445 0 L 819.5401839264293 35.458672762984236 M 864.0223910435824 25.55623530927008 l 7.1171531387445 0 L 871.1395441823269 26.219209839971683 l -7.1171531387445 0 L 864.0223910435824 25.55623530927008"></path><path class="candle body equal"></path><path class="candle wick up" d="M 4.626149540183927 134.30788550085327 L 4.626149540183927 141.12382071674665 M 4.626149540183927 149.46429146408218 L 4.626149540183927 159.33444956048555 M 13.522590963614554 126.16962359532474 L 13.522590963614554 128.14333322600385 M 13.522590963614554 141.12390121389703 L 13.522590963614554 153.09720835882413 M 31.315473810475808 120.32553047622116 L 31.315473810475808 125.60871945133142 M 31.315473810475808 132.64280194481117 L 31.315473810475808 138.88012364362302 M 40.21191523390643 110.25533696107159 L 40.21191523390643 112.10041214541006 M 40.21191523390643 125.60871945133142 L 40.21191523390643 128.81797984351357 M 66.90123950419832 134.37228322117397 L 66.90123950419832 139.8757928969315 M 66.90123950419832 142.1316450397656 L 66.90123950419832 144.49882474160415 M 93.5905637744902 125.88152429403999 L 93.5905637744902 127.06273947902244 M 93.5905637744902 159.31996007341337 L 93.5905637744902 167.24071867855878 M 111.38344662135144 124.70940528705285 L 111.38344662135144 127.51408700132015 M 111.38344662135144 132.77980809479345 L 111.38344662135144 138.7451299224008 M 129.1763294682127 111.02810960492 L 129.1763294682127 113.92141868177869 M 129.1763294682127 141.88975110281095 L 129.1763294682127 148.2419422352449 M 138.07277089164333 97.47198699166049 L 138.07277089164333 101.88129890201888 M 138.07277089164333 113.9214991789291 L 138.07277089164333 116.26042438097693 M 191.4514194322271 137.12753968509514 L 191.4514194322271 141.4547445020446 M 191.4514194322271 142.39205332131243 L 191.4514194322271 159.68058730720932 M 209.24430227908834 159.9801977010014 L 209.24430227908834 166.3331938049393 M 209.24430227908834 173.54123064043534 L 209.24430227908834 196.15384615384616 M 218.14074370251896 147.24377757027403 L 218.14074370251896 156.92702128344658 M 218.14074370251896 166.3331938049393 L 218.14074370251896 172.9867662684741 M 227.0371851259496 143.88704639855752 L 227.0371851259496 148.99789097465953 M 227.0371851259496 156.95117042856685 L 227.0371851259496 168.12819976172844 M 244.83006797281087 164.55871462150242 L 244.83006797281087 168.1517049296455 M 244.83006797281087 173.84736130340985 L 244.83006797281087 185.31892970988827 M 253.72650939624148 148.3063399555656 L 253.72650939624148 148.69803908941628 M 253.72650939624148 168.1517049296455 L 253.72650939624148 170.64872653508067 M 271.51939224310274 133.4063174163635 L 271.51939224310274 138.9466947870045 M 271.51939224310274 150.35185304440225 L 271.51939224310274 152.52092925910424 M 298.2087165133947 154.52039797791159 L 298.2087165133947 156.05378819589785 M 298.2087165133947 158.34167820459155 L 298.2087165133947 164.8082557877451 M 307.10515793682526 146.72368548153395 L 307.10515793682526 148.9492706958174 M 307.10515793682526 156.0538686930483 L 307.10515793682526 159.8357053160318 M 316.0015993602559 138.49494477895485 L 316.0015993602559 143.9795376243681 M 316.0015993602559 148.94935119296775 L 316.0015993602559 151.4606207940239 M 333.7944822071172 145.32891135653801 L 333.7944822071172 152.5645587146215 M 333.7944822071172 156.8297807257623 L 333.7944822071172 158.10284315935218 M 360.483806477409 153.53060501658243 L 360.483806477409 155.81825353382493 M 360.483806477409 163.38579064301126 L 360.483806477409 168.3334674952507 M 378.2766893242703 148.97446630389285 L 378.2766893242703 152.25078082235893 M 378.2766893242703 158.3373313584699 L 378.2766893242703 159.9182953923431 M 404.9660135945622 161.46738255465758 L 404.9660135945622 163.83407927359374 M 404.9660135945622 164.5657983707377 L 404.9660135945622 174.05737836880576 M 431.65533786485406 170.7898380397334 L 431.65533786485406 174.2983063399556 M 431.65533786485406 175.3947580255659 L 431.65533786485406 177.16207296261712 M 440.5517792882847 166.93338055832825 L 440.5517792882847 172.21753549924333 M 440.5517792882847 174.2983063399556 L 440.5517792882847 177.60754419293556 M 467.2411035585766 163.52835109637118 L 467.2411035585766 169.2717422803233 M 467.2411035585766 188.22213993624626 L 467.2411035585766 190.6992787455324 M 476.13754498200717 165.67480761181056 L 476.13754498200717 168.1180571207779 M 476.13754498200717 169.2717422803233 L 476.13754498200717 172.7855233924719 M 485.0339864054379 157.15297678462184 L 485.0339864054379 157.28104775090966 M 485.0339864054379 168.12006954953793 L 485.0339864054379 171.04420903500016 M 493.93042782886846 150.31071900054738 L 493.93042782886846 152.257623080143 M 493.93042782886846 157.28096725375923 L 493.93042782886846 159.15622886949802 M 502.82686925229905 143.08207489454873 L 502.82686925229905 143.21875905592947 M 502.82686925229905 152.23049554045787 L 502.82686925229905 155.5340180957594 M 511.7233106757297 101.60994300801754 L 511.7233106757297 128.27381910680364 M 511.7233106757297 143.21875905592947 L 511.7233106757297 144.62939111955438 M 520.6197520991603 109.71914544225136 L 520.6197520991603 110.40127829474837 M 520.6197520991603 128.24379366970408 L 520.6197520991603 135.1531055800625 M 529.5161935225909 98.79254274398687 L 529.5161935225909 105.8798338538816 M 529.5161935225909 110.41142093569889 L 529.5161935225909 115.92233634929326 M 547.3090763694522 87.3884309495444 L 547.3090763694522 88.27663650706765 M 547.3090763694522 105.8884470489745 L 547.3090763694522 119.6153041182342 M 591.7912834866053 106.28151463438192 L 591.7912834866053 108.26560839746274 M 591.7912834866053 120.47010335834112 L 591.7912834866053 126.09266831954152 M 600.687724910036 95.17017097594747 L 600.687724910036 99.09472904659178 M 600.687724910036 108.26568889461315 L 600.687724910036 127.50829120649134 M 609.5841663334666 78.72919148662139 L 609.5841663334666 83.20129117429242 M 609.5841663334666 99.09472904659178 L 609.5841663334666 107.2136716360241 M 618.4806077568971 68.20362559165406 L 618.4806077568971 69.22964227066365 M 618.4806077568971 83.20129117429242 L 618.4806077568971 86.344382908845 M 636.2734906037584 54.08321795408443 L 636.2734906037584 55.699198248382004 M 636.2734906037584 75.493769520559 L 636.2734906037584 83.66712818366231 M 671.8592562974809 42.55723347393504 L 671.8592562974809 43.24950896738258 M 671.8592562974809 70.61805712077796 L 671.8592562974809 72.08849856715074 M 716.3414634146341 57.73899603954021 L 716.3414634146341 68.16104259909199 M 716.3414634146341 68.23622693756647 L 716.3414634146341 72.20208004636639 M 725.2379048380647 49.42364040312975 L 725.2379048380647 51.61622178574879 M 725.2379048380647 68.20869691212928 L 725.2379048380647 74.42042051711373 M 734.1343462614954 30.506890556074353 L 734.1343462614954 30.99405931030043 M 734.1343462614954 51.61622178574879 L 734.1343462614954 52.72410406671608 M 751.9272291083566 29.564993399233686 L 751.9272291083566 31.664198087387717 M 751.9272291083566 35.02366616221789 L 751.9272291083566 41.23708020736069 M 760.8236705317872 21.515278359146095 L 760.8236705317872 29.654747721930676 M 760.8236705317872 31.664198087387717 L 760.8236705317872 33.35640918311492 M 778.6165533786485 31.462311234182295 L 778.6165533786485 33.804617316547024 M 778.6165533786485 44.26369256528321 L 778.6165533786485 48.6727629841904 M 796.4094362255097 32.38295714331713 L 796.4094362255097 33.027175837975335 M 796.4094362255097 50.94616350581191 L 796.4094362255097 54.93769520558973 M 831.9952019192323 39.6584505908491 L 831.9952019192323 48.87714524905823 M 831.9952019192323 49.826850629487694 L 831.9952019192323 52.104195511478906 M 840.8916433426629 32.334095373023814 L 840.8916433426629 35.11511092507328 M 840.8916433426629 48.87714524905823 L 840.8916433426629 53.61754193901538 M 849.7880847660936 21.916717648195288 L 849.7880847660936 31.604469201790266 M 849.7880847660936 35.11519142222366 L 849.7880847660936 36.93804939305153 M 858.6845261895241 17.49042083910234 L 858.6845261895241 25.547058634124397 M 858.6845261895241 31.6045496989407 L 858.6845261895241 39.08909424606372 M 876.4774090363853 10.245677303023513 L 876.4774090363853 11.397752519560868 M 876.4774090363853 26.203915381395518 L 876.4774090363853 29.96747915123808 M 885.3738504598159 3.846153846153868 L 885.3738504598159 5.854477251505301 M 885.3738504598159 11.397752519560868 L 885.3738504598159 17.737305599381784" style="stroke-width: 1px;"></path><path class="candle wick down" d="M 22.41903238704518 122.9834658853077 L 22.41903238704518 128.1432527288534 M 22.41903238704518 132.65696944328175 L 22.41903238704518 140.92475126380526 M 49.10835665733706 111.76007019351518 L 49.10835665733706 112.10049264256048 M 49.10835665733706 131.56293267218342 L 49.10835665733706 141.81706217599896 M 58.004798080767685 122.74044498824743 L 58.004798080767685 131.56172521492738 M 58.004798080767685 142.15474772193068 L 58.004798080767685 147.89580448852112 M 75.79768092762893 130.99140290433718 L 75.79768092762893 139.8757928969315 M 75.79768092762893 157.93548958366875 L 75.79768092762893 159.9703770486525 M 84.69412235105956 153.78811540071482 L 84.69412235105956 157.9019222719516 M 84.69412235105956 159.31987957626302 L 84.69412235105956 178.48472164085393 M 102.48700519792082 118.18430627555786 L 102.48700519792082 127.06273947902244 M 102.48700519792082 132.79679299352802 L 102.48700519792082 139.9909843191551 M 120.27988804478207 126.45434201629266 L 120.27988804478207 127.51408700132015 M 120.27988804478207 141.88983159996138 L 120.27988804478207 149.5028495991242 M 146.96921231507397 95.3311652767492 L 146.96921231507397 101.88137939916929 M 146.96921231507397 104.87780532569147 L 146.96921231507397 110.01062562385292 M 155.8656537385046 101.79395949383394 L 155.8656537385046 104.87973725730109 M 155.8656537385046 119.32728531409987 L 155.8656537385046 121.20286891844029 M 164.7620951619352 109.58012686350907 L 164.7620951619352 119.3273658112503 M 164.7620951619352 121.38833435296391 L 164.7620951619352 127.24828541069647 M 173.65853658536582 120.50391216150952 L 173.65853658536582 121.38833435296391 M 173.65853658536582 139.68638310203823 L 173.65853658536582 145.24511382297067 M 182.55497800879647 134.557426667096 L 182.55497800879647 139.68123128441252 M 182.55497800879647 142.39205332131243 L 182.55497800879647 147.86746949158004 M 200.34786085565773 140.24857520043793 L 200.34786085565773 141.45466400489425 M 200.34786085565773 173.58300866149338 L 200.34786085565773 176.46239173133273 M 235.93362654938022 142.26100396045982 L 235.93362654938022 148.9979714718099 M 235.93362654938022 173.78006568567474 L 235.93362654938022 176.27105000482985 M 262.6229508196721 143.88938081591914 L 262.6229508196721 148.68073220208007 M 262.6229508196721 150.35185304440225 L 262.6229508196721 155.44064140129439 M 280.4158336665334 137.43117493640727 L 280.4158336665334 138.94677528415494 M 280.4158336665334 145.92362430369965 L 280.4158336665334 154.1943040216376 M 289.31227508996403 145.82243938564577 L 289.31227508996403 145.92362430369965 M 289.31227508996403 158.32268087709696 L 289.31227508996403 164.71165920726406 M 324.89804078368655 143.9210161960267 L 324.89804078368655 143.9664970860032 M 324.89804078368655 156.8298612229127 L 324.89804078368655 161.37464983739574 M 342.6909236305478 145.81020381878486 L 342.6909236305478 152.56447821747113 M 342.6909236305478 155.44547123031845 L 342.6909236305478 156.12446469394988 M 351.5873650539784 154.90195447081175 L 351.5873650539784 155.44555172746885 M 351.5873650539784 163.38579064301126 L 351.5873650539784 169.8151785426796 M 369.38024790083966 152.22655118008822 L 369.38024790083966 155.81825353382493 M 369.38024790083966 158.3373313584699 L 369.38024790083966 162.34681392278716 M 387.1731307477009 148.87440834594457 L 387.1731307477009 152.2507003252085 M 387.1731307477009 161.687944746756 L 387.1731307477009 165.13555720127508 M 396.06957217113154 159.648388447049 L 396.06957217113154 161.68544933509352 M 396.06957217113154 164.56056605596163 L 396.06957217113154 168.80695173390862 M 413.86245501799283 160.89408184950253 L 413.86245501799283 163.83399877644334 M 413.86245501799283 171.40097240557685 L 413.86245501799283 177.41410954052228 M 422.7588964414235 168.42917860707732 L 422.7588964414235 171.44532633544773 M 422.7588964414235 175.3946775284155 L 422.7588964414235 178.32372734005216 M 449.44822071171535 171.24802781981518 L 449.44822071171535 172.21745500209295 M 449.44822071171535 179.77549344753194 L 449.44822071171535 183.25466078500824 M 458.34466213514594 177.9770261132756 L 458.34466213514594 179.77549344753194 M 458.34466213514594 188.2220594390959 L 458.34466213514594 192.34633093988472 M 538.4126349460215 100.88546865440965 L 538.4126349460215 105.87975335673119 M 538.4126349460215 105.90462697620502 L 538.4126349460215 112.47705831213577 M 556.2055177928828 86.33158386193129 L 556.2055177928828 88.27671700421806 M 556.2055177928828 94.26997134301448 L 556.2055177928828 97.9863637827221 M 565.1019592163135 85.11607689087808 L 565.1019592163135 94.2698908458641 M 565.1019592163135 107.28145023666161 L 565.1019592163135 110.6899410760859 M 573.998400639744 102.17334256367324 L 573.998400639744 107.24257011301805 M 573.998400639744 112.89709244292754 L 573.998400639744 116.58241298258044 M 582.8948420631747 107.80822358888497 L 582.8948420631747 112.90482016936602 M 582.8948420631747 120.4700228611907 L 582.8948420631747 125.01827285314103 M 627.3770491803277 63.29329941720064 L 627.3770491803277 69.22964227066365 M 627.3770491803277 75.49368902340856 L 627.3770491803277 79.7871655343401 M 645.169932027189 52.104195511478906 L 645.169932027189 55.735663457513596 M 645.169932027189 61.07970827832699 L 645.169932027189 69.09344109218537 M 654.0663734506197 51.754274398686306 L 654.0663734506197 61.07962778117658 M 654.0663734506197 61.675306694143046 L 654.0663734506197 63.04263129085231 M 662.9628148740503 55.98319219499629 L 662.9628148740503 61.6779631001063 M 662.9628148740503 70.62658981872042 L 662.9628148740503 75.68986057893552 M 680.7556977209116 40.48040699359245 L 680.7556977209116 43.24958946453299 M 680.7556977209116 49.137795022056224 L 680.7556977209116 57.97219628425157 M 689.6521391443422 46.692613581479264 L 689.6521391443422 49.13787551920663 M 689.6521391443422 49.900022539202126 L 689.6521391443422 61.76385355958399 M 698.5485805677728 41.20624979875714 L 698.5485805677728 49.900022539202126 M 698.5485805677728 58.53358341114725 L 698.5485805677728 60.47589915316999 M 707.4450219912034 48.40132659303862 L 707.4450219912034 58.53350291399684 M 707.4450219912034 68.23622693756647 L 707.4450219912034 70.81173326464244 M 743.0307876849259 27.49589464532957 L 743.0307876849259 30.99405931030043 M 743.0307876849259 35.02374665936824 L 743.0307876849259 39.85252922046561 M 769.7201119552178 26.66709598480216 L 769.7201119552178 29.654747721930676 M 769.7201119552178 44.26369256528321 L 769.7201119552178 44.85945197540008 M 787.512994802079 30.749589464533017 L 787.512994802079 33.804617316547024 M 787.512994802079 50.946083008661475 L 787.512994802079 55.72656727951832 M 805.3058776489403 31.182986122291283 L 805.3058776489403 33.027175837975335 M 805.3058776489403 34.43225359822267 L 805.3058776489403 38.847280806259505 M 814.202319072371 28.50025759088132 L 814.202319072371 34.43225359822267 M 814.202319072371 35.458753260134586 L 814.202319072371 43.55105129278425 M 823.0987604958016 34.48650867759281 L 823.0987604958016 35.458672762984236 M 823.0987604958016 49.826850629487694 L 823.0987604958016 50.8725891103455 M 867.5809676129546 21.22798402936536 L 867.5809676129546 25.55623530927008 M 867.5809676129546 26.219209839971683 L 867.5809676129546 30.611456354445068" style="stroke-width: 1px;"></path><path class="candle wick equal" style="stroke-width: 1px;"></path></g></g><g class="x axis" transform="translate(0,200)" fill="none" font-size="10" font-family="sans-serif" text-anchor="middle"><path class="domain" stroke="#000" d="M0.5,6V0.5H890.5V6"></path><g class="tick" opacity="1" transform="translate(13.522590963614554,0)"><line stroke="#000" y2="6" x1="0.5" x2="0.5"></line><text fill="#000" y="9" x="0.5" dy="0.71em">May 31</text></g><g class="tick" opacity="1" transform="translate(75.79768092762893,0)"><line stroke="#000" y2="6" x1="0.5" x2="0.5"></line><text fill="#000" y="9" x="0.5" dy="0.71em">Jun  7</text></g><g class="tick" opacity="1" transform="translate(138.07277089164333,0)"><line stroke="#000" y2="6" x1="0.5" x2="0.5"></line><text fill="#000" y="9" x="0.5" dy="0.71em">Jun 14</text></g><g class="tick" opacity="1" transform="translate(200.34786085565773,0)"><line stroke="#000" y2="6" x1="0.5" x2="0.5"></line><text fill="#000" y="9" x="0.5" dy="0.71em">Jun 21</text></g><g class="tick" opacity="1" transform="translate(262.6229508196721,0)"><line stroke="#000" y2="6" x1="0.5" x2="0.5"></line><text fill="#000" y="9" x="0.5" dy="0.71em">Jun 28</text></g><g class="tick" opacity="1" transform="translate(324.89804078368655,0)"><line stroke="#000" y2="6" x1="0.5" x2="0.5"></line><text fill="#000" y="9" x="0.5" dy="0.71em">Jul  5</text></g><g class="tick" opacity="1" transform="translate(387.1731307477009,0)"><line stroke="#000" y2="6" x1="0.5" x2="0.5"></line><text fill="#000" y="9" x="0.5" dy="0.71em">Jul 12</text></g><g class="tick" opacity="1" transform="translate(449.44822071171535,0)"><line stroke="#000" y2="6" x1="0.5" x2="0.5"></line><text fill="#000" y="9" x="0.5" dy="0.71em">Jul 19</text></g><g class="tick" opacity="1" transform="translate(511.7233106757297,0)"><line stroke="#000" y2="6" x1="0.5" x2="0.5"></line><text fill="#000" y="9" x="0.5" dy="0.71em">Jul 26</text></g><g class="tick" opacity="1" transform="translate(573.998400639744,0)"><line stroke="#000" y2="6" x1="0.5" x2="0.5"></line><text fill="#000" y="9" x="0.5" dy="0.71em">Aug  2</text></g><g class="tick" opacity="1" transform="translate(636.2734906037584,0)"><line stroke="#000" y2="6" x1="0.5" x2="0.5"></line><text fill="#000" y="9" x="0.5" dy="0.71em">Aug  9</text></g><g class="tick" opacity="1" transform="translate(698.5485805677728,0)"><line stroke="#000" y2="6" x1="0.5" x2="0.5"></line><text fill="#000" y="9" x="0.5" dy="0.71em">Aug 16</text></g><g class="tick" opacity="1" transform="translate(760.8236705317872,0)"><line stroke="#000" y2="6" x1="0.5" x2="0.5"></line><text fill="#000" y="9" x="0.5" dy="0.71em">Aug 23</text></g><g class="tick" opacity="1" transform="translate(823.0987604958016,0)"><line stroke="#000" y2="6" x1="0.5" x2="0.5"></line><text fill="#000" y="9" x="0.5" dy="0.71em">Aug 30</text></g><g class="tick" opacity="1" transform="translate(885.3738504598159,0)"><line stroke="#000" y2="6" x1="0.5" x2="0.5"></line><text fill="#000" y="9" x="0.5" dy="0.71em">Sep  6</text></g></g><g class="y axis" fill="none" font-size="10" font-family="sans-serif" text-anchor="end"><path class="domain" stroke="#000" d="M-6,200.5H0.5V0.5H-6"></path><g class="tick" opacity="1" transform="translate(0,186.5344366809415)"><line stroke="#000" x2="-6" y1="0.5" y2="0.5"></line><text fill="#000" x="-9" y="0.5" dy="0.32em">30,000</text></g><g class="tick" opacity="1" transform="translate(0,170.43500660076634)"><line stroke="#000" x2="-6" y1="0.5" y2="0.5"></line><text fill="#000" x="-9" y="0.5" dy="0.32em">32,000</text></g><g class="tick" opacity="1" transform="translate(0,154.3355765205912)"><line stroke="#000" x2="-6" y1="0.5" y2="0.5"></line><text fill="#000" x="-9" y="0.5" dy="0.32em">34,000</text></g><g class="tick" opacity="1" transform="translate(0,138.236146440416)"><line stroke="#000" x2="-6" y1="0.5" y2="0.5"></line><text fill="#000" x="-9" y="0.5" dy="0.32em">36,000</text></g><g class="tick" opacity="1" transform="translate(0,122.13671636024085)"><line stroke="#000" x2="-6" y1="0.5" y2="0.5"></line><text fill="#000" x="-9" y="0.5" dy="0.32em">38,000</text></g><g class="tick" opacity="1" transform="translate(0,106.0372862800657)"><line stroke="#000" x2="-6" y1="0.5" y2="0.5"></line><text fill="#000" x="-9" y="0.5" dy="0.32em">40,000</text></g><g class="tick" opacity="1" transform="translate(0,89.93785619989055)"><line stroke="#000" x2="-6" y1="0.5" y2="0.5"></line><text fill="#000" x="-9" y="0.5" dy="0.32em">42,000</text></g><g class="tick" opacity="1" transform="translate(0,73.83842611971538)"><line stroke="#000" x2="-6" y1="0.5" y2="0.5"></line><text fill="#000" x="-9" y="0.5" dy="0.32em">44,000</text></g><g class="tick" opacity="1" transform="translate(0,57.73899603954021)"><line stroke="#000" x2="-6" y1="0.5" y2="0.5"></line><text fill="#000" x="-9" y="0.5" dy="0.32em">46,000</text></g><g class="tick" opacity="1" transform="translate(0,41.63956595936506)"><line stroke="#000" x2="-6" y1="0.5" y2="0.5"></line><text fill="#000" x="-9" y="0.5" dy="0.32em">48,000</text></g><g class="tick" opacity="1" transform="translate(0,25.540135879189904)"><line stroke="#000" x2="-6" y1="0.5" y2="0.5"></line><text fill="#000" x="-9" y="0.5" dy="0.32em">50,000</text></g><g class="tick" opacity="1" transform="translate(0,9.44070579901475)"><line stroke="#000" x2="-6" y1="0.5" y2="0.5"></line><text fill="#000" x="-9" y="0.5" dy="0.32em">52,000</text></g><text transform="rotate(-90)" y="6" dy=".71em" style="text-anchor: end;">Price ($)</text></g></g></svg>