<?xml version="1.0" encoding="utf-8"?>
<!DOCTYPE svg PUBLIC "-//W3C//DTD SVG 1.1//EN" "http://www.w3.org/Graphics/SVG/1.1/DTD/svg11.dtd">
<svg version="1.1" xmlns="http://www.w3.org/2000/svg" width="960" height="250"><g transform="translate(50,20)"><style>.axis path,.axis line{fill:none;stroke:#000;shape-rendering:crispEdges;}path.candle{stroke:#000000;}path.candle.body{stroke-width:0;}path.candle.up{fill:#00AA00;stroke:#00AA00;}path.candle.down{fill:#FF0000;stroke:#FF0000;}</style><g class="candlestick"><g class="data"><path class="candle body up" d="M 1.0675729708116766 161.2197802197802 l 7.1171531387445 0 L 8.184726109556177 147.02040816326533 l -7.1171531387445 0 L 1.0675729708116766 161.2197802197802 M 9.964014394242305 147.07430664573522 l 7.1171531387445 0 L 17.081167532986804 140.41463893249605 l -7.1171531387445 0 L 9.964014394242305 147.07430664573522 M 36.65333866453418 145.78767660910515 l 7.1171531387445 0 L 43.77049180327868 139.29395604395606 l -7.1171531387445 0 L 36.65333866453418 145.78767660910515 M 72.23910435825668 188.7356750392465 l 7.1171531387445 0 L 79.35625749700118 170.35838566195707 l -7.1171531387445 0 L 72.23910435825668 188.7356750392465 M 81.13554578168731 170.34033228676083 l 7.1171531387445 0 L 88.25269892043181 161.71336996336996 l -7.1171531387445 0 L 81.13554578168731 170.34033228676083 M 107.82487005197919 176.06861590790163 l 7.1171531387445 0 L 114.94202319072369 172.8617216117216 l -7.1171531387445 0 L 107.82487005197919 176.06861590790163 M 134.51419432227107 186.83274463631605 l 7.1171531387445 0 L 141.63134746101557 183.5669806384092 l -7.1171531387445 0 L 134.51419432227107 186.83274463631605 M 143.4106357457017 183.56691522762952 l 7.1171531387445 0 L 150.5277888844462 168.52367870225015 l -7.1171531387445 0 L 143.4106357457017 183.56691522762952 M 152.30707716913233 168.550431711146 l 7.1171531387445 0 L 159.42423030787683 140.28250915750914 l -7.1171531387445 0 L 152.30707716913233 168.550431711146 M 170.09996001599356 143.5970041862899 l 7.1171531387445 0 L 177.21711315473806 139.90051020408163 l -7.1171531387445 0 L 170.09996001599356 143.5970041862899 M 178.9964014394242 139.90051020408163 l 7.1171531387445 0 L 186.1135545781687 133.19636316064884 l -7.1171531387445 0 L 178.9964014394242 139.90051020408163 M 187.89284286285485 133.19642857142856 l 7.1171531387445 0 L 195.00999600159935 118.49823390894821 l -7.1171531387445 0 L 187.89284286285485 133.19642857142856 M 196.78928428628546 118.49823390894821 l 7.1171531387445 0 L 203.90643742502996 93.36080586080587 l -7.1171531387445 0 L 196.78928428628546 118.49823390894821 M 214.5821671331467 103.36721611721612 l 7.1171531387445 0 L 221.6993202718912 102.28002354788069 l -7.1171531387445 0 L 214.5821671331467 103.36721611721612 M 223.47860855657734 102.25228937728939 l 7.1171531387445 0 L 230.59576169532184 95.75013082155938 l -7.1171531387445 0 L 223.47860855657734 102.25228937728939 M 241.2714914034386 97.65168759811615 l 7.1171531387445 0 L 248.3886445421831 79.2559523809524 l -7.1171531387445 0 L 241.2714914034386 97.65168759811615 M 259.06437425029986 88.90037938252222 l 7.1171531387445 0 L 266.1815273890444 79.9385138670853 l -7.1171531387445 0 L 259.06437425029986 88.90037938252222 M 276.85725709716115 80.0631868131868 l 7.1171531387445 0 L 283.9744102359057 51.77642595499739 l -7.1171531387445 0 L 276.85725709716115 80.0631868131868 M 294.65013994402244 56.988683935112505 l 7.1171531387445 0 L 301.76729308276697 52.71892987964415 l -7.1171531387445 0 L 294.65013994402244 56.988683935112505 M 303.54658136745303 52.71899529042386 l 7.1171531387445 0 L 310.66373450619756 49.56933542647829 l -7.1171531387445 0 L 303.54658136745303 52.71899529042386 M 312.4430227908837 49.597069597069606 l 7.1171531387445 0 L 319.5601759296282 34.71618262689694 l -7.1171531387445 0 L 312.4430227908837 49.597069597069606 M 321.3394642143143 34.71618262689694 l 7.1171531387445 0 L 328.45661735305885 23.460164835164818 l -7.1171531387445 0 L 321.3394642143143 34.71618262689694 M 348.02878848460614 58.21408948194659 l 7.1171531387445 0 L 355.14594162335067 54.29912349555207 l -7.1171531387445 0 L 348.02878848460614 58.21408948194659 M 365.8216713314674 57.14141810570382 l 7.1171531387445 0 L 372.93882447021196 42.57731554160128 l -7.1171531387445 0 L 365.8216713314674 57.14141810570382 M 392.5109956017593 73.09366823652536 l 7.1171531387445 0 L 399.62814874050383 58.948914181057035 l -7.1171531387445 0 L 392.5109956017593 73.09366823652536 M 401.40743702518995 58.94884877027732 l 7.1171531387445 0 L 408.5245901639345 47.9741627420199 l -7.1171531387445 0 L 401.40743702518995 58.94884877027732 M 436.99320271891247 56.75614861329146 l 7.1171531387445 0 L 444.110355857657 41.65364992150708 l -7.1171531387445 0 L 436.99320271891247 56.75614861329146 M 472.57896841263494 56.56606488749344 l 7.1171531387445 0 L 479.69612155137946 53.09648090005231 l -7.1171531387445 0 L 472.57896841263494 56.56606488749344 M 481.47540983606564 53.09641548927263 l 7.1171531387445 0 L 488.59256297481016 41.303048142333864 l -7.1171531387445 0 L 481.47540983606564 53.09641548927263 M 490.3718512594962 41.30311355311355 l 7.1171531387445 0 L 497.48900439824075 13.4888147566719 l -7.1171531387445 0 L 490.3718512594962 41.30311355311355 M 534.8540583766493 35.752093144950265 l 7.1171531387445 0 L 541.9712115153937 34.065934065934044 l -7.1171531387445 0 L 534.8540583766493 35.752093144950265 M 543.75049980008 34.06586865515436 l 7.1171531387445 0 L 550.8676529388244 26.614992150706428 l -7.1171531387445 0 L 543.75049980008 34.06586865515436 M 570.4398240703717 62.33078231292515 l 7.1171531387445 0 L 577.5569772091162 60.46003401360542 l -7.1171531387445 0 L 570.4398240703717 62.33078231292515 M 588.232706917233 83.04801151229722 l 7.1171531387445 0 L 595.3498600559775 75.45630559916276 l -7.1171531387445 0 L 588.232706917233 83.04801151229722 M 597.1291483406637 75.42451596023025 l 7.1171531387445 0 L 604.2463014794082 64.62905546834116 l -7.1171531387445 0 L 597.1291483406637 75.42451596023025 M 623.8184726109555 87.2852564102564 l 7.1171531387445 0 L 630.9356257497 78.7986002093145 l -7.1171531387445 0 L 623.8184726109555 87.2852564102564 M 641.6113554578168 81.43452380952381 l 7.1171531387445 0 L 648.7285085965613 69.51622187336471 l -7.1171531387445 0 L 641.6113554578168 81.43452380952381 M 659.4042383046781 103.76949241234955 l 7.1171531387445 0 L 666.5213914434225 97.24600994243853 l -7.1171531387445 0 L 659.4042383046781 103.76949241234955 M 668.3006797281087 97.2758372579801 l 7.1171531387445 0 L 675.4178328668531 80.54107796964942 l -7.1171531387445 0 L 668.3006797281087 97.2758372579801 M 677.1971211515394 80.5410125588697 l 7.1171531387445 0 L 684.3142742902838 77.26157770800629 l -7.1171531387445 0 L 677.1971211515394 80.5410125588697 M 694.9900039984005 82.66248037676611 l 7.1171531387445 0 L 702.107157137145 81.13507326007326 l -7.1171531387445 0 L 694.9900039984005 82.66248037676611 M 730.5757696921231 133.67046049188906 l 7.1171531387445 0 L 737.6929228308676 132.07528780743064 l -7.1171531387445 0 L 730.5757696921231 133.67046049188906 M 739.4722111155537 132.07535321821035 l 7.1171531387445 0 L 746.5893642542982 125.23600209314496 l -7.1171531387445 0 L 739.4722111155537 132.07535321821035 M 748.3686525389844 125.23606750392462 l 7.1171531387445 0 L 755.4858056777289 124.27426739926742 l -7.1171531387445 0 L 748.3686525389844 125.23606750392462 M 783.9544182327068 146.83058608058607 l 7.1171531387445 0 L 791.0715713714512 132.11675824175825 l -7.1171531387445 0 L 783.9544182327068 146.83058608058607 M 792.8508596561375 132.11675824175825 l 7.1171531387445 0 L 799.9680127948819 127.77407116692831 l -7.1171531387445 0 L 792.8508596561375 132.11675824175825 M 810.6437425029987 149.69413919413918 l 7.1171531387445 0 L 817.7608956417432 138.96336996336998 l -7.1171531387445 0 L 810.6437425029987 149.69413919413918 M 819.5401839264293 139.00477498691788 l 7.1171531387445 0 L 826.6573370651738 135.55088958660383 l -7.1171531387445 0 L 819.5401839264293 139.00477498691788 M 846.2295081967213 153.4155546834118 l 7.1171531387445 0 L 853.3466613354658 148.83254840397694 l -7.1171531387445 0 L 846.2295081967213 153.4155546834118 M 864.0223910435824 149.83490319204606 l 7.1171531387445 0 L 871.1395441823269 148.31135531135527 l -7.1171531387445 0 L 864.0223910435824 149.83490319204606 M 872.9188324670131 148.31128990057562 l 7.1171531387445 0 L 880.0359856057576 135.38801674515963 l -7.1171531387445 0 L 872.9188324670131 148.31128990057562 M 881.8152738904437 135.4029958137101 l 7.1171531387445 0 L 888.9324270291881 133.49372056514912 l -7.1171531387445 0 L 881.8152738904437 135.4029958137101"></path><path class="candle body down" d="M 18.860455817672932 140.41470434327576 l 7.1171531387445 0 L 25.977608956417434 142.92373103087388 l -7.1171531387445 0 L 18.860455817672932 140.41470434327576 M 27.75689724110356 142.9237964416536 l 7.1171531387445 0 L 34.87405037984806 145.78767660910515 l -7.1171531387445 0 L 27.75689724110356 142.9237964416536 M 45.54978008796481 139.29389063317635 l 7.1171531387445 0 L 52.66693322670931 146.16856357927787 l -7.1171531387445 0 L 45.54978008796481 139.29389063317635 M 54.446221511395436 146.16856357927787 l 7.1171531387445 0 L 61.563374650139934 173.81200941915225 l -7.1171531387445 0 L 54.446221511395436 146.16856357927787 M 63.342662934826066 173.80533751962324 l 7.1171531387445 0 L 70.45981607357056 188.7337781266353 l -7.1171531387445 0 L 63.342662934826066 173.80533751962324 M 90.03198720511796 161.71336996336996 l 7.1171531387445 0 L 97.14914034386246 175.1532574568289 l -7.1171531387445 0 L 90.03198720511796 161.71336996336996 M 98.92842862854857 175.15319204604918 l 7.1171531387445 0 L 106.04558176729307 176.06855049712192 l -7.1171531387445 0 L 98.92842862854857 175.15319204604918 M 116.72131147540982 172.8617216117216 l 7.1171531387445 0 L 123.83846461415432 179.49143118785977 l -7.1171531387445 0 L 116.72131147540982 172.8617216117216 M 125.61775289884046 179.49143118785977 l 7.1171531387445 0 L 132.73490603758498 186.8227367870225 l -7.1171531387445 0 L 125.61775289884046 179.49143118785977 M 161.20351859256294 140.28257456828885 l 7.1171531387445 0 L 168.32067173130744 143.59693877551018 l -7.1171531387445 0 L 161.20351859256294 140.28257456828885 M 205.68572570971608 93.36080586080587 l 7.1171531387445 0 L 212.80287884846058 103.36721611721612 l -7.1171531387445 0 L 205.68572570971608 93.36080586080587 M 232.37504998000796 95.75013082155938 l 7.1171531387445 0 L 239.49220311875246 97.65175300889585 l -7.1171531387445 0 L 232.37504998000796 95.75013082155938 M 250.16793282686922 79.2559523809524 l 7.1171531387445 0 L 257.28508596561375 88.90024856096284 l -7.1171531387445 0 L 250.16793282686922 79.2559523809524 M 267.9608156737305 79.91346153846153 l 7.1171531387445 0 L 275.07796881247504 80.0631868131868 l -7.1171531387445 0 L 267.9608156737305 79.91346153846153 M 285.7536985205918 51.77642595499739 l 7.1171531387445 0 L 292.8708516593363 56.988683935112505 l -7.1171531387445 0 L 285.7536985205918 51.77642595499739 M 330.23590563774496 23.460230245944558 l 7.1171531387445 0 L 337.3530587764895 48.37029042386186 l -7.1171531387445 0 L 330.23590563774496 23.460230245944558 M 339.13234706117555 48.37029042386186 l 7.1171531387445 0 L 346.2495001999201 58.21415489272633 l -7.1171531387445 0 L 339.13234706117555 48.37029042386186 M 356.9252299080368 54.29912349555207 l 7.1171531387445 0 L 364.0423830467813 57.14141810570382 l -7.1171531387445 0 L 356.9252299080368 54.29912349555207 M 374.7181127548981 42.57731554160128 l 7.1171531387445 0 L 381.8352658936426 60.56508372579802 l -7.1171531387445 0 L 374.7181127548981 42.57731554160128 M 383.61455417832866 60.56508372579802 l 7.1171531387445 0 L 390.7317073170732 73.09366823652536 l -7.1171531387445 0 L 383.61455417832866 60.56508372579802 M 410.3038784486206 47.97422815279958 l 7.1171531387445 0 L 417.4210315873651 50.554748822605944 l -7.1171531387445 0 L 410.3038784486206 47.97422815279958 M 419.20031987205124 50.554748822605944 l 7.1171531387445 0 L 426.31747301079577 54.21376242804811 l -7.1171531387445 0 L 419.20031987205124 50.554748822605944 M 428.0967612954818 54.21369701726846 l 7.1171531387445 0 L 435.21391443422635 56.75621402407117 l -7.1171531387445 0 L 428.0967612954818 54.21369701726846 M 445.8896441423431 41.64985609628468 l 7.1171531387445 0 L 453.00679728108764 43.769754055468326 l -7.1171531387445 0 L 445.8896441423431 41.64985609628468 M 454.7860855657737 43.76968864468867 l 7.1171531387445 0 L 461.90323870451823 53.5909863945578 l -7.1171531387445 0 L 454.7860855657737 43.76968864468867 M 463.68252698920435 53.5909863945578 l 7.1171531387445 0 L 470.7996801279489 56.586080586080556 l -7.1171531387445 0 L 463.68252698920435 53.5909863945578 M 499.2682926829268 13.488880167451555 l 7.1171531387445 0 L 506.38544582167134 17.270669806384063 l -7.1171531387445 0 L 499.2682926829268 13.488880167451555 M 508.16473410635746 17.27060439560441 l 7.1171531387445 0 L 515.281887245102 30.779500261643108 l -7.1171531387445 0 L 508.16473410635746 17.27060439560441 M 517.0611755297881 30.779565672422848 l 7.1171531387445 0 L 524.1783286685326 31.48704866562008 l -7.1171531387445 0 L 517.0611755297881 30.779565672422848 M 525.9576169532187 31.48711407639979 l 7.1171531387445 0 L 533.0747700919632 35.752027734170554 l -7.1171531387445 0 L 525.9576169532187 31.48711407639979 M 552.6469412235106 26.614926739926744 l 7.1171531387445 0 L 559.764094362255 39.123888016745184 l -7.1171531387445 0 L 552.6469412235106 26.614926739926744 M 561.5433826469413 39.12395342752484 l 7.1171531387445 0 L 568.6605357856857 62.33078231292515 l -7.1171531387445 0 L 561.5433826469413 39.12395342752484 M 579.3362654938024 60.460099424385135 l 7.1171531387445 0 L 586.4534186325469 83.04801151229722 l -7.1171531387445 0 L 579.3362654938024 60.460099424385135 M 606.0255897640943 64.62899005756151 l 7.1171531387445 0 L 613.1427429028388 71.72933019361594 l -7.1171531387445 0 L 606.0255897640943 64.62899005756151 M 614.9220311875249 71.75758765044483 l 7.1171531387445 0 L 622.0391843262694 87.26334379905809 l -7.1171531387445 0 L 614.9220311875249 71.75758765044483 M 632.7149140343862 78.79866562009418 l 7.1171531387445 0 L 639.8320671731307 81.43452380952381 l -7.1171531387445 0 L 632.7149140343862 78.79866562009418 M 650.5077968812475 69.51615646258503 l 7.1171531387445 0 L 657.624950019992 103.75111198325484 l -7.1171531387445 0 L 650.5077968812475 69.51615646258503 M 686.09356257497 77.26157770800629 l 7.1171531387445 0 L 693.2107157137144 82.66248037676611 l -7.1171531387445 0 L 686.09356257497 77.26157770800629 M 703.8864454218311 81.13507326007326 l 7.1171531387445 0 L 711.0035985605756 85.73822605965464 l -7.1171531387445 0 L 703.8864454218311 81.13507326007326 M 712.7828868452618 85.7125850340136 l 7.1171531387445 0 L 719.9000399840063 104.57188644688642 l -7.1171531387445 0 L 712.7828868452618 85.7125850340136 M 721.6793282686924 104.57188644688642 l 7.1171531387445 0 L 728.7964814074369 133.67039508110935 l -7.1171531387445 0 L 721.6793282686924 104.57188644688642 M 757.265093962415 124.27426739926742 l 7.1171531387445 0 L 764.3822471011595 125.0445447409733 l -7.1171531387445 0 L 757.265093962415 124.27426739926742 M 766.1615353858456 125.0445447409733 l 7.1171531387445 0 L 773.27868852459 144.1811224489796 l -7.1171531387445 0 L 766.1615353858456 125.0445447409733 M 775.0579768092763 144.2445054945055 l 7.1171531387445 0 L 782.1751299480208 146.83058608058607 l -7.1171531387445 0 L 775.0579768092763 144.2445054945055 M 801.747301079568 127.77407116692831 l 7.1171531387445 0 L 808.8644542183125 149.6942046049189 l -7.1171531387445 0 L 801.747301079568 127.77407116692831 M 828.43662534986 135.55088958660383 l 7.1171531387445 0 L 835.5537784886045 143.61342229199374 l -7.1171531387445 0 L 828.43662534986 135.55088958660383 M 837.3330667732906 143.61342229199374 l 7.1171531387445 0 L 844.4502199120351 153.43275771847203 l -7.1171531387445 0 L 837.3330667732906 143.61342229199374 M 855.1259496201519 148.83261381475666 l 7.1171531387445 0 L 862.2431027588964 149.8349686028257 l -7.1171531387445 0 L 855.1259496201519 148.83261381475666"></path><path class="candle body equal"></path><path class="candle wick up" d="M 4.626149540183927 146.11459968602827 L 4.626149540183927 147.02040816326533 M 4.626149540183927 161.2197802197802 L 4.626149540183927 163.4848246991104 M 13.522590963614554 137.93825222396651 L 13.522590963614554 140.41463893249605 M 13.522590963614554 147.07430664573522 L 13.522590963614554 149.82783882783883 M 40.21191523390643 135.69335426478284 L 40.21191523390643 139.29395604395606 M 40.21191523390643 145.78767660910515 L 40.21191523390643 147.51726844583987 M 75.79768092762893 167.36950549450546 L 75.79768092762893 170.35838566195707 M 75.79768092762893 188.7356750392465 L 75.79768092762893 189.83915489272633 M 84.69412235105956 160.9759288330717 L 84.69412235105956 161.71336996336996 M 84.69412235105956 170.34033228676083 L 84.69412235105956 173.46225798011514 M 111.38344662135144 167.70015698587127 L 111.38344662135144 172.8617216117216 M 111.38344662135144 176.06861590790163 L 111.38344662135144 188.63160648874936 M 138.07277089164333 176.59602302459444 L 138.07277089164333 183.5669806384092 M 138.07277089164333 186.83274463631605 L 138.07277089164333 188.60622710622712 M 146.96921231507397 166.44839089481945 L 146.96921231507397 168.52367870225015 M 146.96921231507397 183.56691522762952 L 146.96921231507397 184.3133830455259 M 155.8656537385046 137.97095761381476 L 155.8656537385046 140.28250915750914 M 155.8656537385046 168.550431711146 L 155.8656537385046 172.06285975928833 M 173.65853658536582 133.17582417582418 L 173.65853658536582 139.90051020408163 M 173.65853658536582 143.5970041862899 L 173.65853658536582 147.17425431711146 M 182.55497800879647 131.16091051805336 L 182.55497800879647 133.19636316064884 M 182.55497800879647 139.90051020408163 L 182.55497800879647 148.4628466771324 M 191.4514194322271 115.78819989534274 L 191.4514194322271 118.49823390894821 M 191.4514194322271 133.19642857142856 L 191.4514194322271 134.52119309262164 M 200.34786085565773 90.51543694400837 L 200.34786085565773 93.36080586080587 M 200.34786085565773 118.49823390894821 L 200.34786085565773 125.62526164311876 M 218.14074370251896 88.22605965463109 L 218.14074370251896 102.28002354788069 M 218.14074370251896 103.36721611721612 L 218.14074370251896 104.46356619570905 M 227.0371851259496 92.22265829408687 L 227.0371851259496 95.75013082155938 M 227.0371851259496 102.25228937728939 L 227.0371851259496 104.1753663003663 M 244.83006797281087 76.850863422292 L 244.83006797281087 79.2559523809524 M 244.83006797281087 97.65168759811615 L 244.83006797281087 99.24738356881215 M 262.6229508196721 77.25667189952905 L 262.6229508196721 79.9385138670853 M 262.6229508196721 88.90037938252222 L 262.6229508196721 100.86872056514912 M 280.4158336665334 43.53087388801674 L 280.4158336665334 51.77642595499739 M 280.4158336665334 80.0631868131868 L 280.4158336665334 83.32025117739403 M 298.2087165133947 51.47573260073261 L 298.2087165133947 52.71892987964415 M 298.2087165133947 56.988683935112505 L 298.2087165133947 69.49895342752487 M 307.10515793682526 45.08254840397697 L 307.10515793682526 49.56933542647829 M 307.10515793682526 52.71899529042386 L 307.10515793682526 63.73332025117742 M 316.0015993602559 33.37257980115123 L 316.0015993602559 34.71618262689694 M 316.0015993602559 49.597069597069606 L 316.0015993602559 54.0671114599686 M 324.89804078368655 16.928309785452626 L 324.89804078368655 23.460164835164818 M 324.89804078368655 34.71618262689694 L 324.89804078368655 39.943746729461026 M 351.5873650539784 51.28440607012038 L 351.5873650539784 54.29912349555207 M 351.5873650539784 58.21408948194659 L 351.5873650539784 65.57986656200941 M 369.38024790083966 38.44433542647829 L 369.38024790083966 42.57731554160128 M 369.38024790083966 57.14141810570382 L 369.38024790083966 58.46415489272633 M 396.06957217113154 46.36970172684457 L 396.06957217113154 58.948914181057035 M 396.06957217113154 73.09366823652536 L 396.06957217113154 76.97540554683411 M 404.9660135945622 43.22344322344321 L 404.9660135945622 47.9741627420199 M 404.9660135945622 58.94884877027732 L 404.9660135945622 61.57240973312403 M 440.5517792882847 34.78545264259549 L 440.5517792882847 41.65364992150708 M 440.5517792882847 56.75614861329146 L 440.5517792882847 58.62977498691782 M 476.13754498200717 52.508568812140254 L 476.13754498200717 53.09648090005231 M 476.13754498200717 56.56606488749344 L 476.13754498200717 62.388801674515975 M 485.0339864054379 41.219583987441155 L 485.0339864054379 41.303048142333864 M 485.0339864054379 53.09641548927263 L 485.0339864054379 54.06344845630559 M 493.93042782886846 11.76739926739927 L 493.93042782886846 13.4888147566719 M 493.93042782886846 41.30311355311355 L 493.93042782886846 41.30311355311355 M 538.4126349460215 30.01046572475144 L 538.4126349460215 34.065934065934044 M 538.4126349460215 35.752093144950265 L 538.4126349460215 40.73639455782313 M 547.3090763694522 26.409536891679778 L 547.3090763694522 26.614992150706428 M 547.3090763694522 34.06586865515436 L 547.3090763694522 39.323194662480404 M 573.998400639744 57.21984563055989 L 573.998400639744 60.46003401360542 M 573.998400639744 62.33078231292515 L 573.998400639744 73.35818942961801 M 591.7912834866053 73.70486656200943 L 591.7912834866053 75.45630559916276 M 591.7912834866053 83.04801151229722 L 591.7912834866053 91.49659863945578 M 600.687724910036 63.729722658294094 L 600.687724910036 64.62905546834116 M 600.687724910036 75.42451596023025 L 600.687724910036 80.0300889586604 M 627.3770491803277 75.73266614338043 L 627.3770491803277 78.7986002093145 M 627.3770491803277 87.2852564102564 L 627.3770491803277 93.34772370486657 M 645.169932027189 66.64769754055467 L 645.169932027189 69.51622187336471 M 645.169932027189 81.43452380952381 L 645.169932027189 82.33908948194662 M 662.9628148740503 93.58974358974359 L 662.9628148740503 97.24600994243853 M 662.9628148740503 103.76949241234955 L 662.9628148740503 104.51334379905809 M 671.8592562974809 79.42798273155414 L 671.8592562974809 80.54107796964942 M 671.8592562974809 97.2758372579801 L 671.8592562974809 106.8246991104134 M 680.7556977209116 70.13363422291994 L 680.7556977209116 77.26157770800629 M 680.7556977209116 80.5410125588697 L 680.7556977209116 84.51942700156987 M 698.5485805677728 68.90665881737308 L 698.5485805677728 81.13507326007326 M 698.5485805677728 82.66248037676611 L 698.5485805677728 85.88428833071688 M 734.1343462614954 130.09517268445836 L 734.1343462614954 132.07528780743064 M 734.1343462614954 133.67046049188906 L 734.1343462614954 142.99313186813188 M 743.0307876849259 122.29781527995813 L 743.0307876849259 125.23600209314496 M 743.0307876849259 132.07535321821035 L 743.0307876849259 147.09576138147565 M 751.9272291083566 115.46094976452117 L 751.9272291083566 124.27426739926742 M 751.9272291083566 125.23606750392462 L 751.9272291083566 127.86669283097855 M 787.512994802079 131.4906462585034 L 787.512994802079 132.11675824175825 M 787.512994802079 146.83058608058607 L 787.512994802079 149.3785975928833 M 796.4094362255097 123.04421768707483 L 796.4094362255097 127.77407116692831 M 796.4094362255097 132.11675824175825 L 796.4094362255097 137.0355834641549 M 814.202319072371 136.62735478806906 L 814.202319072371 138.96336996336998 M 814.202319072371 149.69413919413918 L 814.202319072371 152.3940345368917 M 823.0987604958016 131.39717425431712 L 823.0987604958016 135.55088958660383 M 823.0987604958016 139.00477498691788 L 823.0987604958016 150.71297749869177 M 849.7880847660936 145.18334641548927 L 849.7880847660936 148.83254840397694 M 849.7880847660936 153.4155546834118 L 849.7880847660936 157.5614861329147 M 867.5809676129546 144.23358189429618 L 867.5809676129546 148.31135531135527 M 867.5809676129546 149.83490319204606 L 867.5809676129546 157.17654369440083 M 876.4774090363853 132.51596023024595 L 876.4774090363853 135.38801674515963 M 876.4774090363853 148.31128990057562 L 876.4774090363853 150.17006802721087 M 885.3738504598159 130.89920198848773 L 885.3738504598159 133.49372056514912 M 885.3738504598159 135.4029958137101 L 885.3738504598159 137.2841444270016" style="stroke-width: 1px;"></path><path class="candle wick down" d="M 22.41903238704518 137.5654107796965 L 22.41903238704518 140.41470434327576 M 22.41903238704518 142.92373103087388 L 22.41903238704518 147.611852433281 M 31.315473810475808 140.2276295133438 L 31.315473810475808 142.9237964416536 M 31.315473810475808 145.78767660910515 L 31.315473810475808 149.7150706436421 M 49.10835665733706 138.7700811093668 L 49.10835665733706 139.29389063317635 M 49.10835665733706 146.16856357927787 L 49.10835665733706 148.86721611721612 M 58.004798080767685 145.47847985347985 L 58.004798080767685 146.16856357927787 M 58.004798080767685 173.81200941915225 L 58.004798080767685 177.1847200418629 M 66.90123950419832 169.73443223443223 L 66.90123950419832 173.80533751962324 M 66.90123950419832 188.7337781266353 L 66.90123950419832 196.15384615384616 M 93.5905637744902 159.52380952380952 L 93.5905637744902 161.71336996336996 M 93.5905637744902 175.1532574568289 L 93.5905637744902 189.12218733647305 M 102.48700519792082 174.1310832025118 L 102.48700519792082 175.15319204604918 M 102.48700519792082 176.06855049712192 L 102.48700519792082 182.76896912611198 M 120.27988804478207 165.0837257980115 L 120.27988804478207 172.8617216117216 M 120.27988804478207 179.49143118785977 L 120.27988804478207 179.81423338566196 M 129.1763294682127 175.30494505494508 L 129.1763294682127 179.49143118785977 M 129.1763294682127 186.8227367870225 L 129.1763294682127 187.72893772893772 M 164.7620951619352 139.00712977498694 L 164.7620951619352 140.28257456828885 M 164.7620951619352 143.59693877551018 L 164.7620951619352 144.93602825745683 M 209.24430227908834 93.24757980115123 L 209.24430227908834 93.36080586080587 M 209.24430227908834 103.36721611721612 L 209.24430227908834 106.16823652537938 M 235.93362654938022 85.20859497645215 L 235.93362654938022 95.75013082155938 M 235.93362654938022 97.65175300889585 L 235.93362654938022 101.43903715332286 M 253.72650939624148 77.89115646258504 L 253.72650939624148 79.2559523809524 M 253.72650939624148 88.90024856096284 L 253.72650939624148 102.75379382522239 M 271.51939224310274 72.31462585034012 L 271.51939224310274 79.91346153846153 M 271.51939224310274 80.0631868131868 L 271.51939224310274 83.5292386185243 M 289.31227508996403 47.158424908424934 L 289.31227508996403 51.77642595499739 M 289.31227508996403 56.988683935112505 L 289.31227508996403 61.734693877551024 M 333.7944822071172 19.284798534798483 L 333.7944822071172 23.460230245944558 M 333.7944822071172 48.37029042386186 L 333.7944822071172 49.63369963369962 M 342.6909236305478 38.30200156985873 L 342.6909236305478 48.37029042386186 M 342.6909236305478 58.21415489272633 L 342.6909236305478 62.715855572998436 M 360.483806477409 52.904238618524346 L 360.483806477409 54.29912349555207 M 360.483806477409 57.14141810570382 L 360.483806477409 65.91686289900579 M 378.2766893242703 41.17294610151751 L 378.2766893242703 42.57731554160128 M 378.2766893242703 60.56508372579802 L 378.2766893242703 63.90927524856093 M 387.1731307477009 52.93040293040292 L 387.1731307477009 60.56508372579802 M 387.1731307477009 73.09366823652536 L 387.1731307477009 75.79801151229724 M 413.86245501799283 47.28381737310309 L 413.86245501799283 47.97422815279958 M 413.86245501799283 50.554748822605944 L 413.86245501799283 58.313710099424384 M 422.7588964414235 46.98260073260073 L 422.7588964414235 50.554748822605944 M 422.7588964414235 54.21376242804811 L 422.7588964414235 63.07326007326006 M 431.65533786485406 46.77040816326533 L 431.65533786485406 54.21369701726846 M 431.65533786485406 56.75621402407117 L 431.65533786485406 66.60779696493981 M 449.44822071171535 39.82208267922553 L 449.44822071171535 41.64985609628468 M 449.44822071171535 43.769754055468326 L 449.44822071171535 60.2121925693354 M 458.34466213514594 42.52806122448982 L 458.34466213514594 43.76968864468867 M 458.34466213514594 53.5909863945578 L 458.34466213514594 58.28748037676607 M 467.2411035585766 45.73704866562011 L 467.2411035585766 53.5909863945578 M 467.2411035585766 56.586080586080556 L 467.2411035585766 57.99973835688121 M 502.82686925229905 6.9580716902145525 L 502.82686925229905 13.488880167451555 M 502.82686925229905 17.270669806384063 L 502.82686925229905 22.014652014652057 M 511.7233106757297 3.846153846153868 L 511.7233106757297 17.27060439560441 M 511.7233106757297 30.779500261643108 L 511.7233106757297 44.25104657247513 M 520.6197520991603 26.085361067503868 L 520.6197520991603 30.779565672422848 M 520.6197520991603 31.48704866562008 L 520.6197520991603 35.89743589743591 M 529.5161935225909 27.06240188383046 L 529.5161935225909 31.48711407639979 M 529.5161935225909 35.752027734170554 L 529.5161935225909 47.8152799581371 M 556.2055177928828 20.841051805337486 L 556.2055177928828 26.614926739926744 M 556.2055177928828 39.123888016745184 L 556.2055177928828 40.47619047619045 M 565.1019592163135 39.05474882260597 L 565.1019592163135 39.12395342752484 M 565.1019592163135 62.33078231292515 L 565.1019592163135 72.0429748822606 M 582.8948420631747 56.3317634746206 L 582.8948420631747 60.460099424385135 M 582.8948420631747 83.04801151229722 L 582.8948420631747 85.77799581371008 M 609.5841663334666 62.521193092621644 L 609.5841663334666 64.62899005756151 M 609.5841663334666 71.72933019361594 L 609.5841663334666 72.61479591836735 M 618.4806077568971 66.35269492412351 L 618.4806077568971 71.75758765044483 M 618.4806077568971 87.26334379905809 L 618.4806077568971 91.43118785975928 M 636.2734906037584 77.53139717425432 L 636.2734906037584 78.79866562009418 M 636.2734906037584 81.43452380952381 L 636.2734906037584 89.94636316064887 M 654.0663734506197 68.27577184720042 L 654.0663734506197 69.51615646258503 M 654.0663734506197 103.75111198325484 L 654.0663734506197 105.23286237571952 M 689.6521391443422 68.09922815279958 L 689.6521391443422 77.26157770800629 M 689.6521391443422 82.66248037676611 L 689.6521391443422 89.69420460491888 M 707.4450219912034 79.88311093668237 L 707.4450219912034 81.13507326007326 M 707.4450219912034 85.73822605965464 L 707.4450219912034 90.33379120879124 M 716.3414634146341 78.41444270015698 L 716.3414634146341 85.7125850340136 M 716.3414634146341 104.57188644688642 L 716.3414634146341 117.13762428048142 M 725.2379048380647 102.88396127681843 L 725.2379048380647 104.57188644688642 M 725.2379048380647 133.67039508110935 L 725.2379048380647 180.45329670329667 M 760.8236705317872 120.27734170591313 L 760.8236705317872 124.27426739926742 M 760.8236705317872 125.0445447409733 L 760.8236705317872 137.2841444270016 M 769.7201119552178 122.90842490842489 L 769.7201119552178 125.0445447409733 M 769.7201119552178 144.1811224489796 L 769.7201119552178 145.6567242281528 M 778.6165533786485 127.30900052328624 L 778.6165533786485 144.2445054945055 M 778.6165533786485 146.83058608058607 L 778.6165533786485 148.71794871794873 M 805.3058776489403 126.88402668759811 L 805.3058776489403 127.77407116692831 M 805.3058776489403 149.6942046049189 L 805.3058776489403 156.43151491365776 M 831.9952019192323 131.81299058084772 L 831.9952019192323 135.55088958660383 M 831.9952019192323 143.61342229199374 L 831.9952019192323 144.40737833594977 M 840.8916433426629 141.2352171637886 L 840.8916433426629 143.61342229199374 M 840.8916433426629 153.43275771847203 L 840.8916433426629 157.8492935635793 M 858.6845261895241 139.24640240711668 L 858.6845261895241 148.83261381475666 M 858.6845261895241 149.8349686028257 L 858.6845261895241 151.62931711145995" style="stroke-width: 1px;"></path><path class="candle wick equal" style="stroke-width: 1px;"></path></g></g><g class="x axis" transform="translate(0,200)" fill="none" font-size="10" font-family="sans-serif" text-anchor="middle"><path class="domain" stroke="#000" d="M0.5,6V0.5H890.5V6"></path><g class="tick" opacity="1" transform="translate(58.004798080767685,0)"><line stroke="#000" y2="6" x1="0.5" x2="0.5"></line><text fill="#000" y="9" x="0.5" dy="0.71em">Sep 20</text></g><g class="tick" opacity="1" transform="translate(120.27988804478207,0)"><line stroke="#000" y2="6" x1="0.5" x2="0.5"></line><text fill="#000" y="9" x="0.5" dy="0.71em">Sep 27</text></g><g class="tick" opacity="1" transform="translate(182.55497800879647,0)"><line stroke="#000" y2="6" x1="0.5" x2="0.5"></line><text fill="#000" y="9" x="0.5" dy="0.71em">Oct  4</text></g><g class="tick" opacity="1" transform="translate(244.83006797281087,0)"><line stroke="#000" y2="6" x1="0.5" x2="0.5"></line><text fill="#000" y="9" x="0.5" dy="0.71em">Oct 11</text></g><g class="tick" opacity="1" transform="translate(307.10515793682526,0)"><line stroke="#000" y2="6" x1="0.5" x2="0.5"></line><text fill="#000" y="9" x="0.5" dy="0.71em">Oct 18</text></g><g class="tick" opacity="1" transform="translate(369.38024790083966,0)"><line stroke="#000" y2="6" x1="0.5" x2="0.5"></line><text fill="#000" y="9" x="0.5" dy="0.71em">Oct 25</text></g><g class="tick" opacity="1" transform="translate(431.65533786485406,0)"><line stroke="#000" y2="6" x1="0.5" x2="0.5"></line><text fill="#000" y="9" x="0.5" dy="0.71em">Nov  1</text></g><g class="tick" opacity="1" transform="translate(493.93042782886846,0)"><line stroke="#000" y2="6" x1="0.5" x2="0.5"></line><text fill="#000" y="9" x="0.5" dy="0.71em">Nov  8</text></g><g class="tick" opacity="1" transform="translate(556.2055177928828,0)"><line stroke="#000" y2="6" x1="0.5" x2="0.5"></line><text fill="#000" y="9" x="0.5" dy="0.71em">Nov 15</text></g><g class="tick" opacity="1" transform="translate(618.4806077568971,0)"><line stroke="#000" y2="6" x1="0.5" x2="0.5"></line><text fill="#000" y="9" x="0.5" dy="0.71em">Nov 22</text></g><g class="tick" opacity="1" transform="translate(680.7556977209116,0)"><line stroke="#000" y2="6" x1="0.5" x2="0.5"></line><text fill="#000" y="9" x="0.5" dy="0.71em">Nov 29</text></g><g class="tick" opacity="1" transform="translate(743.0307876849259,0)"><line stroke="#000" y2="6" x1="0.5" x2="0.5"></line><text fill="#000" y="9" x="0.5" dy="0.71em">Dec  6</text></g><g class="tick" opacity="1" transform="translate(805.3058776489403,0)"><line stroke="#000" y2="6" x1="0.5" x2="0.5"></line><text fill="#000" y="9" x="0.5" dy="0.71em">Dec 13</text></g><g class="tick" opacity="1" transform="translate(867.5809676129546,0)"><line stroke="#000" y2="6" x1="0.5" x2="0.5"></line><text fill="#000" y="9" x="0.5" dy="0.71em">Dec 20</text></g></g><g class="y axis" fill="none" font-size="10" font-family="sans-serif" text-anchor="end"><path class="domain" stroke="#000" d="M-6,200.5H0.5V0.5H-6"></path><g class="tick" opacity="1" transform="translate(0,193.5374149659864)"><line stroke="#000" x2="-6" y1="0.5" y2="0.5"></line><text fill="#000" x="-9" y="0.5" dy="0.32em">40,000</text></g><g class="tick" opacity="1" transform="translate(0,180.4552590266876)"><line stroke="#000" x2="-6" y1="0.5" y2="0.5"></line><text fill="#000" x="-9" y="0.5" dy="0.32em">42,000</text></g><g class="tick" opacity="1" transform="translate(0,167.3731030873888)"><line stroke="#000" x2="-6" y1="0.5" y2="0.5"></line><text fill="#000" x="-9" y="0.5" dy="0.32em">44,000</text></g><g class="tick" opacity="1" transform="translate(0,154.29094714809)"><line stroke="#000" x2="-6" y1="0.5" y2="0.5"></line><text fill="#000" x="-9" y="0.5" dy="0.32em">46,000</text></g><g class="tick" opacity="1" transform="translate(0,141.2087912087912)"><line stroke="#000" x2="-6" y1="0.5" y2="0.5"></line><text fill="#000" x="-9" y="0.5" dy="0.32em">48,000</text></g><g class="tick" opacity="1" transform="translate(0,128.1266352694924)"><line stroke="#000" x2="-6" y1="0.5" y2="0.5"></line><text fill="#000" x="-9" y="0.5" dy="0.32em">50,000</text></g><g class="tick" opacity="1" transform="translate(0,115.04447933019361)"><line stroke="#000" x2="-6" y1="0.5" y2="0.5"></line><text fill="#000" x="-9" y="0.5" dy="0.32em">52,000</text></g><g class="tick" opacity="1" transform="translate(0,101.96232339089481)"><line stroke="#000" x2="-6" y1="0.5" y2="0.5"></line><text fill="#000" x="-9" y="0.5" dy="0.32em">54,000</text></g><g class="tick" opacity="1" transform="translate(0,88.88016745159601)"><line stroke="#000" x2="-6" y1="0.5" y2="0.5"></line><text fill="#000" x="-9" y="0.5" dy="0.32em">56,000</text></g><g class="tick" opacity="1" transform="translate(0,75.79801151229724)"><line stroke="#000" x2="-6" y1="0.5" y2="0.5"></line><text fill="#000" x="-9" y="0.5" dy="0.32em">58,000</text></g><g class="tick" opacity="1" transform="translate(0,62.715855572998436)"><line stroke="#000" x2="-6" y1="0.5" y2="0.5"></line><text fill="#000" x="-9" y="0.5" dy="0.32em">60,000</text></g><g class="tick" opacity="1" transform="translate(0,49.63369963369962)"><line stroke="#000" x2="-6" y1="0.5" y2="0.5"></line><text fill="#000" x="-9" y="0.5" dy="0.32em">62,000</text></g><g class="tick" opacity="1" transform="translate(0,36.551543694400834)"><line stroke="#000" x2="-6" y1="0.5" y2="0.5"></line><text fill="#000" x="-9" y="0.5" dy="0.32em">64,000</text></g><g class="tick" opacity="1" transform="translate(0,23.469387755102048)"><line stroke="#000" x2="-6" y1="0.5" y2="0.5"></line><text fill="#000" x="-9" y="0.5" dy="0.32em">66,000</text></g><g class="tick" opacity="1" transform="translate(0,10.387231815803261)"><line stroke="#000" x2="-6" y1="0.5" y2="0.5"></line><text fill="#000" x="-9" y="0.5" dy="0.32em">68,000</text></g><text transform="rotate(-90)" y="6" dy=".71em" style="text-anchor: end;">Price ($)</text></g></g></svg>