<?xml version="1.0" encoding="utf-8"?>
<!DOCTYPE svg PUBLIC "-//W3C//DTD SVG 1.1//EN" "http://www.w3.org/Graphics/SVG/1.1/DTD/svg11.dtd">
<svg version="1.1" xmlns="http://www.w3.org/2000/svg" width="960" height="250"><g transform="translate(50,20)"><style>.axis path,.axis line{fill:none;stroke:#000;shape-rendering:crispEdges;}path.candle{stroke:#000000;}path.candle.body{stroke-width:0;}path.candle.up{fill:#00AA00;stroke:#00AA00;}path.candle.down{fill:#FF0000;stroke:#FF0000;}</style><g class="candlestick"><g class="data"><path class="candle body up" d="M 27.75689724110356 145.76452574468016 l 7.1171531387445 0 L 34.87405037984806 136.76314083871313 l -7.1171531387445 0 L 27.75689724110356 145.76452574468016 M 36.65333866453418 136.7632277146049 l 7.1171531387445 0 L 43.77049180327868 122.75405577494811 l -7.1171531387445 0 L 36.65333866453418 136.7632277146049 M 54.446221511395436 127.61007062558257 l 7.1171531387445 0 L 61.563374650139934 120.01859456838721 l -7.1171531387445 0 L 54.446221511395436 127.61007062558257 M 63.342662934826066 120.01859456838721 l 7.1171531387445 0 L 70.45981607357056 105.43986428178678 l -7.1171531387445 0 L 63.342662934826066 120.01859456838721 M 90.03198720511796 137.85082700462735 l 7.1171531387445 0 L 97.14914034386246 135.41621701152982 l -7.1171531387445 0 L 90.03198720511796 137.85082700462735 M 116.72131147540982 156.40117556286802 l 7.1171531387445 0 L 123.83846461415432 121.58783380280485 l -7.1171531387445 0 L 116.72131147540982 156.40117556286802 M 134.51419432227107 127.75793339350474 l 7.1171531387445 0 L 141.63134746101557 122.07494692838642 l -7.1171531387445 0 L 134.51419432227107 127.75793339350474 M 152.30707716913233 137.58976494962954 l 7.1171531387445 0 L 159.42423030787683 107.40517070713122 l -7.1171531387445 0 L 152.30707716913233 137.58976494962954 M 161.20351859256294 107.40525758302309 l 7.1171531387445 0 L 168.32067173130744 94.41096981191338 l -7.1171531387445 0 L 161.20351859256294 107.40525758302309 M 214.5821671331467 138.13187051474975 l 7.1171531387445 0 L 221.6993202718912 137.12028763009272 l -7.1171531387445 0 L 214.5821671331467 138.13187051474975 M 232.37504998000796 171.74936562355018 l 7.1171531387445 0 L 239.49220311875246 163.9701507640752 l -7.1171531387445 0 L 232.37504998000796 171.74936562355018 M 241.2714914034386 163.9701507640752 l 7.1171531387445 0 L 248.3886445421831 153.81861592595646 l -7.1171531387445 0 L 241.2714914034386 163.9701507640752 M 250.16793282686922 153.84467869351033 l 7.1171531387445 0 L 257.28508596561375 145.2611668273234 l -7.1171531387445 0 L 250.16793282686922 153.84467869351033 M 267.9608156737305 172.07975464024122 l 7.1171531387445 0 L 275.07796881247504 165.93276403677243 l -7.1171531387445 0 L 267.9608156737305 172.07975464024122 M 276.85725709716115 165.93276403677243 l 7.1171531387445 0 L 283.9744102359057 144.93755413019636 l -7.1171531387445 0 L 276.85725709716115 165.93276403677243 M 294.65013994402244 146.72241932817624 l 7.1171531387445 0 L 301.76729308276697 134.41349546784107 l -7.1171531387445 0 L 294.65013994402244 146.72241932817624 M 321.3394642143143 155.34537284926134 l 7.1171531387445 0 L 328.45661735305885 152.876186251209 l -7.1171531387445 0 L 321.3394642143143 155.34537284926134 M 330.23590563774496 152.87627312710086 l 7.1171531387445 0 L 337.3530587764895 145.2086937886483 l -7.1171531387445 0 L 330.23590563774496 152.87627312710086 M 339.13234706117555 145.20878066454011 l 7.1171531387445 0 L 346.2495001999201 139.8451499778484 l -7.1171531387445 0 L 339.13234706117555 145.20878066454011 M 356.9252299080368 153.71366984860626 l 7.1171531387445 0 L 364.0423830467813 149.1104638432442 l -7.1171531387445 0 L 356.9252299080368 153.71366984860626 M 383.61455417832866 160.7891899841271 l 7.1171531387445 0 L 390.7317073170732 152.62198739166712 l -7.1171531387445 0 L 383.61455417832866 160.7891899841271 M 401.40743702518995 155.34068155110162 l 7.1171531387445 0 L 408.5245901639345 148.77182161682782 l -7.1171531387445 0 L 401.40743702518995 155.34068155110162 M 428.0967612954818 162.06270368270035 l 7.1171531387445 0 L 435.21391443422635 161.27300182581854 l -7.1171531387445 0 L 428.0967612954818 162.06270368270035 M 454.7860855657737 173.74976990920044 l 7.1171531387445 0 L 461.90323870451823 172.56643338636354 l -7.1171531387445 0 L 454.7860855657737 173.74976990920044 M 463.68252698920435 172.56643338636354 l 7.1171531387445 0 L 470.7996801279489 170.32077845803147 l -7.1171531387445 0 L 463.68252698920435 172.56643338636354 M 490.3718512594962 187.593617026674 l 7.1171531387445 0 L 497.48900439824075 167.1415551959203 l -7.1171531387445 0 L 490.3718512594962 187.593617026674 M 499.2682926829268 167.1415551959203 l 7.1171531387445 0 L 506.38544582167134 165.8964499139807 l -7.1171531387445 0 L 499.2682926829268 167.1415551959203 M 508.16473410635746 165.89862181127685 l 7.1171531387445 0 L 515.281887245102 154.20069609829602 l -7.1171531387445 0 L 508.16473410635746 165.89862181127685 M 517.0611755297881 154.20060922240415 l 7.1171531387445 0 L 524.1783286685326 148.77920606763473 l -7.1171531387445 0 L 517.0611755297881 154.20060922240415 M 525.9576169532187 148.74992889208252 l 7.1171531387445 0 L 533.0747700919632 139.02408592401014 l -7.1171531387445 0 L 525.9576169532187 148.74992889208252 M 534.8540583766493 139.02408592401014 l 7.1171531387445 0 L 541.9712115153937 122.89488159563078 l -7.1171531387445 0 L 534.8540583766493 139.02408592401014 M 543.75049980008 122.86247688797212 l 7.1171531387445 0 L 550.8676529388244 103.60608795669745 l -7.1171531387445 0 L 543.75049980008 122.86247688797212 M 552.6469412235106 103.61703431907009 l 7.1171531387445 0 L 559.764094362255 98.72635598758903 l -7.1171531387445 0 L 552.6469412235106 103.61703431907009 M 570.4398240703717 98.73565170801658 l 7.1171531387445 0 L 577.5569772091162 79.72824908277303 l -7.1171531387445 0 L 570.4398240703717 98.73565170801658 M 614.9220311875249 114.47278513649404 l 7.1171531387445 0 L 622.0391843262694 101.30118367012629 l -7.1171531387445 0 L 614.9220311875249 114.47278513649404 M 623.8184726109555 101.30127054601815 l 7.1171531387445 0 L 630.9356257497 91.40358706387394 l -7.1171531387445 0 L 623.8184726109555 101.30127054601815 M 632.7149140343862 91.40358706387394 l 7.1171531387445 0 L 639.8320671731307 74.25072410187097 l -7.1171531387445 0 L 632.7149140343862 91.40358706387394 M 641.6113554578168 74.25072410187097 l 7.1171531387445 0 L 648.7285085965613 59.171936181803886 l -7.1171531387445 0 L 641.6113554578168 74.25072410187097 M 659.4042383046781 65.93244433349045 l 7.1171531387445 0 L 666.5213914434225 44.56931502494575 l -7.1171531387445 0 L 659.4042383046781 65.93244433349045 M 694.9900039984005 60.670371564366945 l 7.1171531387445 0 L 702.107157137145 31.133089592014528 l -7.1171531387445 0 L 694.9900039984005 60.670371564366945 M 739.4722111155537 58.09980080053015 l 7.1171531387445 0 L 746.5893642542982 58.018658717545776 l -7.1171531387445 0 L 739.4722111155537 58.09980080053015 M 748.3686525389844 58.07008924551869 l 7.1171531387445 0 L 755.4858056777289 40.16279603872346 l -7.1171531387445 0 L 748.3686525389844 58.07008924551869 M 757.265093962415 40.16279603872346 l 7.1171531387445 0 L 764.3822471011595 17.906495686108144 l -7.1171531387445 0 L 757.265093962415 40.16279603872346 M 775.0579768092763 22.255415956036416 l 7.1171531387445 0 L 782.1751299480208 18.629737485727617 l -7.1171531387445 0 L 775.0579768092763 22.255415956036416 M 783.9544182327068 18.629737485727617 l 7.1171531387445 0 L 791.0715713714512 16.46105459757129 l -7.1171531387445 0 L 783.9544182327068 18.629737485727617 M 801.747301079568 32.2276389533846 l 7.1171531387445 0 L 808.8644542183125 20.939767449917753 l -7.1171531387445 0 L 801.747301079568 32.2276389533846 M 819.5401839264293 39.43964111499582 l 7.1171531387445 0 L 826.6573370651738 20.10072008646725 l -7.1171531387445 0 L 819.5401839264293 39.43964111499582 M 855.1259496201519 38.23163183887456 l 7.1171531387445 0 L 862.2431027588964 37.20667006687327 l -7.1171531387445 0 L 855.1259496201519 38.23163183887456 M 864.0223910435824 37.20667006687327 l 7.1171531387445 0 L 871.1395441823269 22.3541069691737 l -7.1171531387445 0 L 864.0223910435824 37.20667006687327 M 872.9188324670131 22.35419384506548 l 7.1171531387445 0 L 880.0359856057576 18.56527557397777 l -7.1171531387445 0 L 872.9188324670131 22.35419384506548 M 881.8152738904437 18.56536244986964 l 7.1171531387445 0 L 888.9324270291881 5.6650743937375125 l -7.1171531387445 0 L 881.8152738904437 18.56536244986964"></path><path class="candle body down" d="M 1.0675729708116766 105.48217284111588 l 7.1171531387445 0 L 8.184726109556177 111.66721508521326 l -7.1171531387445 0 L 1.0675729708116766 105.48217284111588 M 9.964014394242305 111.66712820932146 l 7.1171531387445 0 L 17.081167532986804 136.5701026070309 l -7.1171531387445 0 L 9.964014394242305 111.66712820932146 M 18.860455817672932 136.5848715086447 l 7.1171531387445 0 L 25.977608956417434 145.76452574468016 l -7.1171531387445 0 L 18.860455817672932 136.5848715086447 M 45.54978008796481 122.75396889905625 l 7.1171531387445 0 L 52.66693322670931 127.6253607825475 l -7.1171531387445 0 L 45.54978008796481 122.75396889905625 M 72.23910435825668 105.43995115767864 l 7.1171531387445 0 L 79.35625749700118 126.44463053646595 l -7.1171531387445 0 L 72.23910435825668 105.43995115767864 M 81.13554578168731 126.44332739808824 l 7.1171531387445 0 L 88.25269892043181 137.87576038558723 l -7.1171531387445 0 L 81.13554578168731 126.44332739808824 M 98.92842862854857 135.41621701152982 l 7.1171531387445 0 L 106.04558176729307 154.90699709900548 l -7.1171531387445 0 L 98.92842862854857 135.41621701152982 M 107.82487005197919 154.87076985210564 l 7.1171531387445 0 L 114.94202319072369 156.4010886869762 l -7.1171531387445 0 L 107.82487005197919 154.87076985210564 M 125.61775289884046 121.58783380280485 l 7.1171531387445 0 L 132.73490603758498 127.7762642066843 l -7.1171531387445 0 L 125.61775289884046 121.58783380280485 M 143.4106357457017 122.07494692838642 l 7.1171531387445 0 L 150.5277888844462 137.5898518255214 l -7.1171531387445 0 L 143.4106357457017 122.07494692838642 M 170.09996001599356 94.41105668780523 l 7.1171531387445 0 L 177.21711315473806 97.64492488588768 l -7.1171531387445 0 L 170.09996001599356 94.41105668780523 M 178.9964014394242 97.64700990729196 l 7.1171531387445 0 L 186.1135545781687 113.2394080999537 l -7.1171531387445 0 L 178.9964014394242 97.64700990729196 M 187.89284286285485 113.23949497584557 l 7.1171531387445 0 L 195.00999600159935 115.46377843478348 l -7.1171531387445 0 L 187.89284286285485 113.23949497584557 M 196.78928428628546 115.46377843478348 l 7.1171531387445 0 L 203.90643742502996 135.21179803801576 l -7.1171531387445 0 L 196.78928428628546 115.46377843478348 M 205.68572570971608 135.20623798093754 l 7.1171531387445 0 L 212.80287884846058 138.13187051474975 l -7.1171531387445 0 L 205.68572570971608 135.20623798093754 M 223.47860855657734 137.12020075420094 l 7.1171531387445 0 L 230.59576169532184 171.79445421141833 l -7.1171531387445 0 L 223.47860855657734 137.12020075420094 M 259.06437425029986 145.2612537032152 l 7.1171531387445 0 L 266.1815273890444 172.0071263946578 l -7.1171531387445 0 L 259.06437425029986 145.2612537032152 M 285.7536985205918 144.9188758134494 l 7.1171531387445 0 L 292.8708516593363 146.72241932817624 l -7.1171531387445 0 L 285.7536985205918 144.9188758134494 M 303.54658136745303 134.41358234373297 l 7.1171531387445 0 L 310.66373450619756 141.94328964182566 l -7.1171531387445 0 L 303.54658136745303 134.41358234373297 M 312.4430227908837 141.94328964182566 l 7.1171531387445 0 L 319.5601759296282 155.32487013878563 l -7.1171531387445 0 L 312.4430227908837 141.94328964182566 M 348.02878848460614 139.83107608336934 l 7.1171531387445 0 L 355.14594162335067 153.71375672449813 l -7.1171531387445 0 L 348.02878848460614 139.83107608336934 M 365.8216713314674 149.1103769673524 l 7.1171531387445 0 L 372.93882447021196 152.21966513652737 l -7.1171531387445 0 L 365.8216713314674 149.1103769673524 M 374.7181127548981 152.21975201241924 l 7.1171531387445 0 L 381.8352658936426 160.7891899841271 l -7.1171531387445 0 L 374.7181127548981 152.21975201241924 M 392.5109956017593 152.62198739166712 l 7.1171531387445 0 L 399.62814874050383 155.34068155110162 l -7.1171531387445 0 L 392.5109956017593 152.62198739166712 M 410.3038784486206 148.77173474093593 l 7.1171531387445 0 L 417.4210315873651 158.95680367330735 l -7.1171531387445 0 L 410.3038784486206 148.77173474093593 M 419.20031987205124 158.95411052066007 l 7.1171531387445 0 L 426.31747301079577 162.05705674973035 l -7.1171531387445 0 L 419.20031987205124 158.95411052066007 M 436.99320271891247 161.27291494992667 l 7.1171531387445 0 L 444.110355857657 169.43950941114375 l -7.1171531387445 0 L 436.99320271891247 161.27291494992667 M 445.8896441423431 169.487378027551 l 7.1171531387445 0 L 453.00679728108764 173.74968303330863 l -7.1171531387445 0 L 445.8896441423431 169.487378027551 M 472.57896841263494 170.32069158213963 l 7.1171531387445 0 L 479.69612155137946 178.47764281936176 l -7.1171531387445 0 L 472.57896841263494 170.32069158213963 M 481.47540983606564 178.47764281936176 l 7.1171531387445 0 L 488.59256297481016 187.59353015078216 l -7.1171531387445 0 L 481.47540983606564 178.47764281936176 M 561.5433826469413 98.72626911169718 l 7.1171531387445 0 L 568.6605357856857 98.7531137622776 l -7.1171531387445 0 L 561.5433826469413 98.72626911169718 M 579.3362654938024 79.72833595866491 l 7.1171531387445 0 L 586.4534186325469 86.19650673428903 l -7.1171531387445 0 L 579.3362654938024 79.72833595866491 M 588.232706917233 86.19641985839723 l 7.1171531387445 0 L 595.3498600559775 100.2390390164148 l -7.1171531387445 0 L 588.232706917233 86.19641985839723 M 597.1291483406637 100.19707796065313 l 7.1171531387445 0 L 604.2463014794082 106.2996749833885 l -7.1171531387445 0 L 597.1291483406637 100.19707796065313 M 606.0255897640943 106.30801506900572 l 7.1171531387445 0 L 613.1427429028388 114.47269826060217 l -7.1171531387445 0 L 606.0255897640943 106.30801506900572 M 650.5077968812475 59.171936181803886 l 7.1171531387445 0 L 657.624950019992 65.93235745759858 l -7.1171531387445 0 L 650.5077968812475 59.171936181803886 M 668.3006797281087 44.60866980395207 l 7.1171531387445 0 L 675.4178328668531 50.37618651183675 l -7.1171531387445 0 L 668.3006797281087 44.60866980395207 M 677.1971211515394 50.37609963594488 l 7.1171531387445 0 L 684.3142742902838 51.018981235606674 l -7.1171531387445 0 L 677.1971211515394 50.37609963594488 M 686.09356257497 51.021848140037605 l 7.1171531387445 0 L 693.2107157137144 60.67958040890261 l -7.1171531387445 0 L 686.09356257497 51.021848140037605 M 703.8864454218311 31.133176467906395 l 7.1171531387445 0 L 711.0035985605756 37.48797420467122 l -7.1171531387445 0 L 703.8864454218311 31.133176467906395 M 712.7828868452618 37.488061080563085 l 7.1171531387445 0 L 719.9000399840063 38.31060202456277 l -7.1171531387445 0 L 712.7828868452618 37.488061080563085 M 721.6793282686924 38.31060202456277 l 7.1171531387445 0 L 728.7964814074369 47.628302052741844 l -7.1171531387445 0 L 721.6793282686924 38.31060202456277 M 730.5757696921231 47.62821517684998 l 7.1171531387445 0 L 737.6929228308676 58.09980080053015 l -7.1171531387445 0 L 730.5757696921231 47.62821517684998 M 766.1615353858456 17.906495686108144 l 7.1171531387445 0 L 773.27868852459 22.255502831928226 l -7.1171531387445 0 L 766.1615353858456 17.906495686108144 M 792.8508596561375 16.46105459757129 l 7.1171531387445 0 L 799.9680127948819 32.2276389533846 l -7.1171531387445 0 L 792.8508596561375 16.46105459757129 M 810.6437425029987 20.939767449917753 l 7.1171531387445 0 L 817.7608956417432 39.439554239103956 l -7.1171531387445 0 L 810.6437425029987 20.939767449917753 M 828.43662534986 20.10072008646725 l 7.1171531387445 0 L 835.5537784886045 21.6171387786425 l -7.1171531387445 0 L 828.43662534986 20.10072008646725 M 837.3330667732906 21.6171387786425 l 7.1171531387445 0 L 844.4502199120351 22.72498015146502 l -7.1171531387445 0 L 837.3330667732906 21.6171387786425 M 846.2295081967213 22.724893275573237 l 7.1171531387445 0 L 853.3466613354658 38.23163183887456 l -7.1171531387445 0 L 846.2295081967213 22.724893275573237"></path><path class="candle body equal"></path><path class="candle wick up" d="M 31.315473810475808 129.40709844842092 L 31.315473810475808 136.76314083871313 M 31.315473810475808 145.76452574468016 L 31.315473810475808 156.41681322340037 M 40.21191523390643 120.62394578277144 L 40.21191523390643 122.75405577494811 M 40.21191523390643 136.7632277146049 L 40.21191523390643 149.68532161959047 M 58.004798080767685 114.31675603473829 L 58.004798080767685 120.01859456838721 M 58.004798080767685 127.61007062558257 L 58.004798080767685 134.34164910528432 M 66.90123950419832 103.44858196478035 L 66.90123950419832 105.43986428178678 M 66.90123950419832 120.01859456838721 L 66.90123950419832 123.48216262451098 M 93.5905637744902 129.47659916189787 L 93.5905637744902 135.41621701152982 M 93.5905637744902 137.85082700462735 L 93.5905637744902 140.40558635614815 M 120.27988804478207 120.31301696585393 L 120.27988804478207 121.58783380280485 M 120.27988804478207 156.40117556286802 L 120.27988804478207 164.94958956874913 M 138.07277089164333 119.0480171046816 L 138.07277089164333 122.07494692838642 M 138.07277089164333 127.75793339350474 L 138.07277089164333 134.1959582346583 M 155.8656537385046 104.28259052650372 L 155.8656537385046 107.40517070713122 M 155.8656537385046 137.58976494962954 L 155.8656537385046 144.44531532699585 M 164.7620951619352 89.65225596014663 L 164.7620951619352 94.41096981191338 M 164.7620951619352 107.40525758302309 L 164.7620951619352 109.92952349650587 M 218.14074370251896 132.45018718800912 L 218.14074370251896 137.12028763009272 M 218.14074370251896 138.13187051474975 L 218.14074370251896 156.79037955833897 M 235.93362654938022 157.1137316277905 L 235.93362654938022 163.9701507640752 M 235.93362654938022 171.74936562355018 L 235.93362654938022 196.15384615384616 M 244.83006797281087 143.36805426810312 L 244.83006797281087 153.81861592595646 M 244.83006797281087 163.9701507640752 L 244.83006797281087 171.15096448051364 M 253.72650939624148 139.74532957811715 L 253.72650939624148 145.2611668273234 M 253.72650939624148 153.84467869351033 L 253.72650939624148 165.90739627635332 M 271.51939224310274 162.0550586042179 L 271.51939224310274 165.93276403677243 M 271.51939224310274 172.07975464024122 L 271.51939224310274 184.46035111134944 M 280.4158336665334 144.5148160404728 L 280.4158336665334 144.93755413019636 M 280.4158336665334 165.93276403677243 L 280.4158336665334 168.62765420184112 M 298.2087165133947 128.43408845974363 L 298.2087165133947 134.41349546784107 M 298.2087165133947 146.72241932817624 L 298.2087165133947 149.06337710986358 M 324.89804078368655 151.221287387431 L 324.89804078368655 152.876186251209 M 324.89804078368655 155.34537284926134 L 324.89804078368655 162.32437386894105 M 333.7944822071172 142.8067491308849 L 333.7944822071172 145.2086937886483 M 333.7944822071172 152.87627312710086 L 333.7944822071172 156.95778940192653 M 342.6909236305478 133.92594796280034 L 342.6909236305478 139.8451499778484 M 342.6909236305478 145.20878066454011 L 342.6909236305478 147.91904786246562 M 360.483806477409 141.30145055286607 L 360.483806477409 149.1104638432442 M 360.483806477409 153.71366984860626 L 360.483806477409 155.0876120781537 M 387.1731307477009 150.15306142129032 L 387.1731307477009 152.62198739166712 M 387.1731307477009 160.7891899841271 L 387.1731307477009 166.1289298005611 M 404.9660135945622 145.23588594279613 L 404.9660135945622 148.77182161682782 M 404.9660135945622 155.34068155110162 L 404.9660135945622 157.04692406696074 M 431.65533786485406 158.7187637296488 L 431.65533786485406 161.27300182581854 M 431.65533786485406 162.06270368270035 L 431.65533786485406 172.3064138420679 M 458.34466213514594 168.7799476402475 L 458.34466213514594 172.56643338636354 M 458.34466213514594 173.74976990920044 L 458.34466213514594 175.65713011468347 M 467.2411035585766 164.6178974136804 L 467.2411035585766 170.32077845803147 M 467.2411035585766 172.56643338636354 L 467.2411035585766 176.13790130016028 M 493.93042782886846 160.9430471885867 L 493.93042782886846 167.1415551959203 M 493.93042782886846 187.593617026674 L 493.93042782886846 190.2670488464567 M 502.82686925229905 163.2595928446653 L 502.82686925229905 165.8964499139807 M 502.82686925229905 167.1415551959203 L 502.82686925229905 170.93377475089815 M 511.7233106757297 154.06247655436871 L 511.7233106757297 154.20069609829602 M 511.7233106757297 165.89862181127685 L 511.7233106757297 169.05447545848145 M 520.6197520991603 146.67802574744283 L 520.6197520991603 148.77920606763473 M 520.6197520991603 154.20060922240415 L 520.6197520991603 156.2244699988529 M 529.5161935225909 138.87657065965527 L 529.5161935225909 139.02408592401014 M 529.5161935225909 148.74992889208252 L 529.5161935225909 152.31522861755818 M 538.4126349460215 94.11811118049988 L 538.4126349460215 122.89488159563078 M 538.4126349460215 139.02408592401014 L 538.4126349460215 140.54649905272268 M 547.3090763694522 102.86990164919288 L 547.3090763694522 103.60608795669745 M 547.3090763694522 122.86247688797212 L 547.3090763694522 130.31929531280588 M 556.2055177928828 91.07745496588335 L 556.2055177928828 98.72635598758903 M 556.2055177928828 103.61703431907009 L 556.2055177928828 109.56464475075188 M 573.998400639744 78.76966049214225 L 573.998400639744 79.72824908277303 M 573.998400639744 98.73565170801658 L 573.998400639744 113.55025004097936 M 618.4806077568971 99.15986668790144 L 618.4806077568971 101.30118367012629 M 618.4806077568971 114.47278513649404 L 618.4806077568971 120.54089243016651 M 627.3770491803277 87.16803983280495 L 627.3770491803277 91.40358706387394 M 627.3770491803277 101.30127054601815 L 627.3770491803277 122.06869186417354 M 636.2734906037584 69.42424705446425 L 636.2734906037584 74.25072410187097 M 636.2734906037584 91.40358706387394 L 636.2734906037584 100.16588951548032 M 645.169932027189 58.0646160643324 L 645.169932027189 59.171936181803886 M 645.169932027189 74.25072410187097 L 645.169932027189 77.64288017489716 M 662.9628148740503 42.825281496133556 L 662.9628148740503 44.56931502494575 M 662.9628148740503 65.93244433349045 L 662.9628148740503 74.75347488798488 M 698.5485805677728 30.385956922137325 L 698.5485805677728 31.133089592014528 M 698.5485805677728 60.670371564366945 L 698.5485805677728 62.25733348072123 M 743.0307876849259 46.770750124328146 L 743.0307876849259 58.018658717545776 M 743.0307876849259 58.09980080053015 L 743.0307876849259 62.37991536411619 M 751.9272291083566 37.79647049661705 L 751.9272291083566 40.16279603872346 M 751.9272291083566 58.07008924551869 L 751.9272291083566 64.77404119161343 M 760.8236705317872 17.38072278865502 L 760.8236705317872 17.906495686108144 M 760.8236705317872 40.16279603872346 L 760.8236705317872 41.35846893820258 M 778.6165533786485 16.36418797816279 L 778.6165533786485 18.629737485727617 M 778.6165533786485 22.255415956036416 L 778.6165533786485 28.96119229585986 M 787.512994802079 7.676598793544116 L 787.512994802079 16.46105459757129 M 787.512994802079 18.629737485727617 L 787.512994802079 20.4560424841182 M 805.3058776489403 18.411852748977395 L 805.3058776489403 20.939767449917753 M 805.3058776489403 32.2276389533846 L 805.3058776489403 36.986092177475825 M 823.0987604958016 19.405452324022235 L 823.0987604958016 20.10072008646725 M 823.0987604958016 39.43964111499582 L 823.0987604958016 43.747469088080834 M 858.6845261895241 27.25746918086429 L 858.6845261895241 37.20667006687327 M 858.6845261895241 38.23163183887456 L 858.6845261895241 40.68943769509505 M 867.5809676129546 19.352718657671602 L 867.5809676129546 22.3541069691737 M 867.5809676129546 37.20667006687327 L 867.5809676129546 42.32270446180337 M 876.4774090363853 8.109848866181068 L 876.4774090363853 18.56527557397777 M 876.4774090363853 22.35419384506548 L 876.4774090363853 24.321498415922434 M 885.3738504598159 3.846153846153868 L 885.3738504598159 5.6650743937375125 M 885.3738504598159 18.56536244986964 L 885.3738504598159 26.642995997836238" style="stroke-width: 1px;"></path><path class="candle wick down" d="M 4.626149540183927 95.32446981467604 L 4.626149540183927 105.48217284111588 M 4.626149540183927 111.66721508521326 L 4.626149540183927 123.79257018607744 M 13.522590963614554 108.64523718734367 L 13.522590963614554 111.66712820932146 M 13.522590963614554 136.5701026070309 L 13.522590963614554 145.07950933747298 M 22.41903238704518 122.01760883976796 L 22.41903238704518 136.5848715086447 M 22.41903238704518 145.76452574468016 L 22.41903238704518 154.21225059191153 M 49.10835665733706 117.18531110760755 L 49.10835665733706 122.75396889905625 M 49.10835665733706 127.6253607825475 L 49.10835665733706 136.54829675817746 M 75.79768092762893 105.0725530110611 L 75.79768092762893 105.43995115767864 M 75.79768092762893 126.44463053646595 L 75.79768092762893 137.51131601929242 M 84.69412235105956 116.9230327901239 L 84.69412235105956 126.44332739808824 M 84.69412235105956 137.87576038558723 L 84.69412235105956 144.07174899205722 M 102.48700519792082 125.82781170435803 L 102.48700519792082 135.41621701152982 M 102.48700519792082 154.90699709900548 L 102.48700519792082 157.10313276898523 M 111.38344662135144 150.43097739930624 L 111.38344662135144 154.87076985210564 M 111.38344662135144 156.4010886869762 L 111.38344662135144 177.0845878936082 M 129.1763294682127 112.00585731162973 L 129.1763294682127 121.58783380280485 M 129.1763294682127 127.7762642066843 L 129.1763294682127 135.5405364127617 M 146.96921231507397 120.93122581223143 L 146.96921231507397 122.07494692838642 M 146.96921231507397 137.5898518255214 L 146.96921231507397 145.8061392968745 M 173.65853658536582 87.34179161649732 L 173.65853658536582 94.41105668780523 M 173.65853658536582 97.64492488588768 L 173.65853658536582 103.18447925356791 M 182.55497800879647 94.31670946926027 L 182.55497800879647 97.64700990729196 M 182.55497800879647 113.2394080999537 L 182.55497800879647 115.26361637996986 M 191.4514194322271 102.71986698397454 L 191.4514194322271 113.23949497584557 M 191.4514194322271 115.46377843478348 L 191.4514194322271 121.78808273351035 M 200.34786085565773 114.50927301106947 L 200.34786085565773 115.46377843478348 M 200.34786085565773 135.21179803801576 L 200.34786085565773 141.21101274945414 M 209.24430227908834 129.6764137131441 L 209.24430227908834 135.20623798093754 M 209.24430227908834 138.13187051474975 L 209.24430227908834 144.0411686781274 M 227.0371851259496 135.81853926666952 L 227.0371851259496 137.12020075420094 M 227.0371851259496 171.79445421141833 L 227.0371851259496 174.90200486275643 M 262.6229508196721 137.9904365628242 L 262.6229508196721 145.2612537032152 M 262.6229508196721 172.0071263946578 L 262.6229508196721 174.69550086783804 M 289.31227508996403 139.7478489789807 L 289.31227508996403 144.9188758134494 M 289.31227508996403 146.72241932817624 L 289.31227508996403 152.21445258301662 M 307.10515793682526 132.77788305205297 L 307.10515793682526 134.41358234373297 M 307.10515793682526 141.94328964182566 L 307.10515793682526 150.86935314956207 M 316.0015993602559 141.83408664577502 L 316.0015993602559 141.94328964182566 M 316.0015993602559 155.32487013878563 L 316.0015993602559 162.22012279872564 M 351.5873650539784 139.78199120447624 L 351.5873650539784 139.83107608336934 M 351.5873650539784 153.71375672449813 L 351.5873650539784 158.61868270224193 M 369.38024790083966 141.8208815102144 L 369.38024790083966 149.1103769673524 M 369.38024790083966 152.21966513652737 L 369.38024790083966 152.95246328425 M 378.2766893242703 151.63307911478194 L 378.2766893242703 152.21975201241924 M 378.2766893242703 160.7891899841271 L 378.2766893242703 167.72805434177388 M 396.06957217113154 148.74567197338206 L 396.06957217113154 152.62198739166712 M 396.06957217113154 155.34068155110162 L 396.06957217113154 159.66788284806836 M 413.86245501799283 145.12789920923132 L 413.86245501799283 148.77173474093593 M 413.86245501799283 158.95680367330735 L 413.86245501799283 162.67761124518765 M 422.7588964414235 156.7556292016005 L 422.7588964414235 158.95411052066007 M 422.7588964414235 162.05705674973035 L 422.7588964414235 166.63993379640038 M 440.5517792882847 158.10003362792023 L 440.5517792882847 161.27291494992667 M 440.5517792882847 169.43950941114375 L 440.5517792882847 175.9291385320539 M 449.44822071171535 166.23222523596624 L 449.44822071171535 169.487378027551 M 449.44822071171535 173.74968303330863 L 449.44822071171535 176.9108361099158 M 476.13754498200717 169.274445216636 L 476.13754498200717 170.32069158213963 M 476.13754498200717 178.47764281936176 L 476.13754498200717 182.23250574084582 M 485.0339864054379 176.53666164373428 L 485.0339864054379 178.47764281936176 M 485.0339864054379 187.59353015078216 L 485.0339864054379 192.04461646952154 M 565.1019592163135 93.3362281538842 L 565.1019592163135 98.72626911169718 M 565.1019592163135 98.7531137622776 L 565.1019592163135 105.84635657973509 M 582.8948420631747 77.62906690809366 L 582.8948420631747 79.72833595866491 M 582.8948420631747 86.19650673428903 L 582.8948420631747 90.20739290904378 M 591.7912834866053 76.31724094121624 L 591.7912834866053 86.19641985839723 M 591.7912834866053 100.2390390164148 L 591.7912834866053 103.91762490485787 M 600.687724910036 94.72615554753132 L 600.687724910036 100.19707796065313 M 600.687724910036 106.2996749833885 L 600.687724910036 110.27702706389061 M 609.5841663334666 100.80755485265625 L 609.5841663334666 106.30801506900572 M 609.5841663334666 114.47269826060217 L 609.5841663334666 119.38135990169545 M 654.0663734506197 52.765186661715006 L 654.0663734506197 59.171936181803886 M 654.0663734506197 65.93235745759858 L 654.0663734506197 70.56605690099866 M 671.8592562974809 40.68943769509505 L 671.8592562974809 44.60866980395207 M 671.8592562974809 50.37618651183675 L 671.8592562974809 59.024942172800166 M 680.7556977209116 40.31178819323969 L 680.7556977209116 50.37609963594488 M 680.7556977209116 51.018981235606674 L 680.7556977209116 52.49465513450599 M 689.6521391443422 44.875813171379065 L 689.6521391443422 51.021848140037605 M 689.6521391443422 60.67958040890261 L 689.6521391443422 66.14407400602778 M 707.4450219912034 28.144558912505715 L 707.4450219912034 31.133176467906395 M 707.4450219912034 37.48797420467122 L 707.4450219912034 47.022429583006556 M 716.3414634146341 34.849032113951495 L 716.3414634146341 37.488061080563085 M 716.3414634146341 38.31060202456277 L 716.3414634146341 51.11454471663748 M 725.2379048380647 28.92791882928276 L 725.2379048380647 38.31060202456277 M 725.2379048380647 47.628302052741844 L 725.2379048380647 49.72453044709849 M 734.1343462614954 36.69314667017048 L 734.1343462614954 47.62821517684998 M 734.1343462614954 58.09980080053015 L 734.1343462614954 60.87939496014886 M 769.7201119552178 14.1311300541484 L 769.7201119552178 17.906495686108144 M 769.7201119552178 22.255502831928226 L 769.7201119552178 27.466926956105453 M 796.4094362255097 13.236655871700066 L 796.4094362255097 16.46105459757129 M 796.4094362255097 32.2276389533846 L 796.4094362255097 32.87060742893826 M 814.202319072371 17.6426536025713 L 814.202319072371 20.939767449917753 M 814.202319072371 39.439554239103956 L 814.202319072371 44.59885282817345 M 831.9952019192323 18.11039340427115 L 831.9952019192323 20.10072008646725 M 831.9952019192323 21.6171387786425 L 831.9952019192323 26.382020818730297 M 840.8916433426629 15.215080556713303 L 840.8916433426629 21.6171387786425 M 840.8916433426629 22.72498015146502 L 840.8916433426629 31.458526682870314 M 849.7880847660936 21.675693129746804 L 849.7880847660936 22.724893275573237 M 849.7880847660936 38.23163183887456 L 849.7880847660936 39.36023654984842" style="stroke-width: 1px;"></path><path class="candle wick equal" style="stroke-width: 1px;"></path></g></g><g class="x axis" transform="translate(0,200)" fill="none" font-size="10" font-family="sans-serif" text-anchor="middle"><path class="domain" stroke="#000" d="M0.5,6V0.5H890.5V6"></path><g class="tick" opacity="1" transform="translate(40.21191523390643,0)"><line stroke="#000" y2="6" x1="0.5" x2="0.5"></line><text fill="#000" y="9" x="0.5" dy="0.71em">May 31</text></g><g class="tick" opacity="1" transform="translate(102.48700519792082,0)"><line stroke="#000" y2="6" x1="0.5" x2="0.5"></line><text fill="#000" y="9" x="0.5" dy="0.71em">Jun  7</text></g><g class="tick" opacity="1" transform="translate(164.7620951619352,0)"><line stroke="#000" y2="6" x1="0.5" x2="0.5"></line><text fill="#000" y="9" x="0.5" dy="0.71em">Jun 14</text></g><g class="tick" opacity="1" transform="translate(227.0371851259496,0)"><line stroke="#000" y2="6" x1="0.5" x2="0.5"></line><text fill="#000" y="9" x="0.5" dy="0.71em">Jun 21</text></g><g class="tick" opacity="1" transform="translate(289.31227508996403,0)"><line stroke="#000" y2="6" x1="0.5" x2="0.5"></line><text fill="#000" y="9" x="0.5" dy="0.71em">Jun 28</text></g><g class="tick" opacity="1" transform="translate(351.5873650539784,0)"><line stroke="#000" y2="6" x1="0.5" x2="0.5"></line><text fill="#000" y="9" x="0.5" dy="0.71em">Jul  5</text></g><g class="tick" opacity="1" transform="translate(413.86245501799283,0)"><line stroke="#000" y2="6" x1="0.5" x2="0.5"></line><text fill="#000" y="9" x="0.5" dy="0.71em">Jul 12</text></g><g class="tick" opacity="1" transform="translate(476.13754498200717,0)"><line stroke="#000" y2="6" x1="0.5" x2="0.5"></line><text fill="#000" y="9" x="0.5" dy="0.71em">Jul 19</text></g><g class="tick" opacity="1" transform="translate(538.4126349460215,0)"><line stroke="#000" y2="6" x1="0.5" x2="0.5"></line><text fill="#000" y="9" x="0.5" dy="0.71em">Jul 26</text></g><g class="tick" opacity="1" transform="translate(600.687724910036,0)"><line stroke="#000" y2="6" x1="0.5" x2="0.5"></line><text fill="#000" y="9" x="0.5" dy="0.71em">Aug  2</text></g><g class="tick" opacity="1" transform="translate(662.9628148740503,0)"><line stroke="#000" y2="6" x1="0.5" x2="0.5"></line><text fill="#000" y="9" x="0.5" dy="0.71em">Aug  9</text></g><g class="tick" opacity="1" transform="translate(725.2379048380647,0)"><line stroke="#000" y2="6" x1="0.5" x2="0.5"></line><text fill="#000" y="9" x="0.5" dy="0.71em">Aug 16</text></g><g class="tick" opacity="1" transform="translate(787.512994802079,0)"><line stroke="#000" y2="6" x1="0.5" x2="0.5"></line><text fill="#000" y="9" x="0.5" dy="0.71em">Aug 23</text></g><g class="tick" opacity="1" transform="translate(849.7880847660936,0)"><line stroke="#000" y2="6" x1="0.5" x2="0.5"></line><text fill="#000" y="9" x="0.5" dy="0.71em">Aug 30</text></g></g><g class="y axis" fill="none" font-size="10" font-family="sans-serif" text-anchor="end"><path class="domain" stroke="#000" d="M-6,200.5H0.5V0.5H-6"></path><g class="tick" opacity="1" transform="translate(0,185.77217707822686)"><line stroke="#000" x2="-6" y1="0.5" y2="0.5"></line><text fill="#000" x="-9" y="0.5" dy="0.32em">30,000</text></g><g class="tick" opacity="1" transform="translate(0,168.3969987089895)"><line stroke="#000" x2="-6" y1="0.5" y2="0.5"></line><text fill="#000" x="-9" y="0.5" dy="0.32em">32,000</text></g><g class="tick" opacity="1" transform="translate(0,151.02182033975217)"><line stroke="#000" x2="-6" y1="0.5" y2="0.5"></line><text fill="#000" x="-9" y="0.5" dy="0.32em">34,000</text></g><g class="tick" opacity="1" transform="translate(0,133.64664197051485)"><line stroke="#000" x2="-6" y1="0.5" y2="0.5"></line><text fill="#000" x="-9" y="0.5" dy="0.32em">36,000</text></g><g class="tick" opacity="1" transform="translate(0,116.27146360127749)"><line stroke="#000" x2="-6" y1="0.5" y2="0.5"></line><text fill="#000" x="-9" y="0.5" dy="0.32em">38,000</text></g><g class="tick" opacity="1" transform="translate(0,98.89628523204014)"><line stroke="#000" x2="-6" y1="0.5" y2="0.5"></line><text fill="#000" x="-9" y="0.5" dy="0.32em">40,000</text></g><g class="tick" opacity="1" transform="translate(0,81.52110686280281)"><line stroke="#000" x2="-6" y1="0.5" y2="0.5"></line><text fill="#000" x="-9" y="0.5" dy="0.32em">42,000</text></g><g class="tick" opacity="1" transform="translate(0,64.14592849356546)"><line stroke="#000" x2="-6" y1="0.5" y2="0.5"></line><text fill="#000" x="-9" y="0.5" dy="0.32em">44,000</text></g><g class="tick" opacity="1" transform="translate(0,46.770750124328146)"><line stroke="#000" x2="-6" y1="0.5" y2="0.5"></line><text fill="#000" x="-9" y="0.5" dy="0.32em">46,000</text></g><g class="tick" opacity="1" transform="translate(0,29.3955717550908)"><line stroke="#000" x2="-6" y1="0.5" y2="0.5"></line><text fill="#000" x="-9" y="0.5" dy="0.32em">48,000</text></g><g class="tick" opacity="1" transform="translate(0,12.020393385853453)"><line stroke="#000" x2="-6" y1="0.5" y2="0.5"></line><text fill="#000" x="-9" y="0.5" dy="0.32em">50,000</text></g><text transform="rotate(-90)" y="6" dy=".71em" style="text-anchor: end;">Price ($)</text></g></g></svg>