<?xml version="1.0" encoding="utf-8"?>
<!DOCTYPE svg PUBLIC "-//W3C//DTD SVG 1.1//EN" "http://www.w3.org/Graphics/SVG/1.1/DTD/svg11.dtd">
<svg version="1.1" xmlns="http://www.w3.org/2000/svg" width="960" height="250"><g transform="translate(50,20)"><style>.axis path,.axis line{fill:none;stroke:#000;shape-rendering:crispEdges;}path.candle{stroke:#000000;}path.candle.body{stroke-width:0;}path.candle.up{fill:#00AA00;stroke:#00AA00;}path.candle.down{fill:#FF0000;stroke:#FF0000;}</style><g class="candlestick"><g class="data"><path class="candle body up" d="M 1.0675729708116766 159.32554599147733 l 7.1171531387445 0 L 8.184726109556177 155.10797631444456 l -7.1171531387445 0 L 1.0675729708116766 159.32554599147733 M 18.860455817672932 166.01317323961024 l 7.1171531387445 0 L 25.977608956417434 162.39354631161888 l -7.1171531387445 0 L 18.860455817672932 166.01317323961024 M 45.54978008796481 171.57684846558178 l 7.1171531387445 0 L 52.66693322670931 165.15475343103554 l -7.1171531387445 0 L 45.54978008796481 171.57684846558178 M 63.342662934826066 167.29253709246612 l 7.1171531387445 0 L 70.45981607357056 162.1272626562135 l -7.1171531387445 0 L 63.342662934826066 167.29253709246612 M 90.03198720511796 172.57824715839544 l 7.1171531387445 0 L 97.14914034386246 171.95728296454348 l -7.1171531387445 0 L 90.03198720511796 172.57824715839544 M 116.72131147540982 181.76810735004918 l 7.1171531387445 0 L 123.83846461415432 180.83761743976777 l -7.1171531387445 0 L 116.72131147540982 181.76810735004918 M 125.61775289884046 180.83761743976777 l 7.1171531387445 0 L 132.73490603758498 179.07179747861485 l -7.1171531387445 0 L 125.61775289884046 180.83761743976777 M 152.30707716913233 192.65390341371275 l 7.1171531387445 0 L 159.42423030787683 176.57188717344286 l -7.1171531387445 0 L 152.30707716913233 192.65390341371275 M 161.20351859256294 176.57188717344286 l 7.1171531387445 0 L 168.32067173130744 175.59282679651363 l -7.1171531387445 0 L 161.20351859256294 176.57188717344286 M 170.09996001599356 175.59453461882896 l 7.1171531387445 0 L 177.21711315473806 166.39613531559863 l -7.1171531387445 0 L 170.09996001599356 175.59453461882896 M 178.9964014394242 166.396067002706 l 7.1171531387445 0 L 186.1135545781687 162.1330692520856 l -7.1171531387445 0 L 178.9964014394242 166.396067002706 M 187.89284286285485 162.110047807275 l 7.1171531387445 0 L 195.00999600159935 154.46235116635933 l -7.1171531387445 0 L 187.89284286285485 162.110047807275 M 196.78928428628546 154.46235116635933 l 7.1171531387445 0 L 203.90643742502996 141.7795161496187 l -7.1171531387445 0 L 196.78928428628546 154.46235116635933 M 205.68572570971608 141.75403544067404 l 7.1171531387445 0 L 212.80287884846058 126.61220954143658 l -7.1171531387445 0 L 205.68572570971608 141.75403544067404 M 214.5821671331467 126.62081696590583 l 7.1171531387445 0 L 221.6993202718912 122.77514267625814 l -7.1171531387445 0 L 214.5821671331467 126.62081696590583 M 232.37504998000796 122.78245215576773 l 7.1171531387445 0 L 239.49220311875246 107.83641100675906 l -7.1171531387445 0 L 232.37504998000796 122.78245215576773 M 276.85725709716115 135.15699108814596 l 7.1171531387445 0 L 283.9744102359057 124.79980018752163 l -7.1171531387445 0 L 276.85725709716115 135.15699108814596 M 285.7536985205918 124.79986850041426 l 7.1171531387445 0 L 292.8708516593363 117.01704895791006 l -7.1171531387445 0 L 285.7536985205918 124.79986850041426 M 294.65013994402244 117.01704895791006 l 7.1171531387445 0 L 301.76729308276697 103.52928312751068 l -7.1171531387445 0 L 294.65013994402244 117.01704895791006 M 303.54658136745303 103.52928312751068 l 7.1171531387445 0 L 310.66373450619756 91.67241929535362 l -7.1171531387445 0 L 303.54658136745303 103.52928312751068 M 321.3394642143143 96.98839197271047 l 7.1171531387445 0 L 328.45661735305885 80.18997842760827 l -7.1171531387445 0 L 321.3394642143143 96.98839197271047 M 356.9252299080368 92.85068006714229 l 7.1171531387445 0 L 364.0423830467813 69.6247064560848 l -7.1171531387445 0 L 356.9252299080368 92.85068006714229 M 401.40743702518995 90.82936988761685 l 7.1171531387445 0 L 408.5245901639345 90.7655656459163 l -7.1171531387445 0 L 401.40743702518995 90.82936988761685 M 410.3038784486206 90.80600687834317 l 7.1171531387445 0 L 417.4210315873651 76.7250118884927 l -7.1171531387445 0 L 410.3038784486206 90.80600687834317 M 419.20031987205124 76.7250118884927 l 7.1171531387445 0 L 426.31747301079577 59.22427349443643 l -7.1171531387445 0 L 419.20031987205124 76.7250118884927 M 436.99320271891247 62.643948585749655 l 7.1171531387445 0 L 444.110355857657 59.79297832543949 l -7.1171531387445 0 L 436.99320271891247 62.643948585749655 M 445.8896441423431 59.79297832543949 l 7.1171531387445 0 L 453.00679728108764 58.087683587141726 l -7.1171531387445 0 L 445.8896441423431 59.79297832543949 M 463.68252698920435 70.48538059011574 l 7.1171531387445 0 L 470.7996801279489 61.60941814001865 l -7.1171531387445 0 L 463.68252698920435 70.48538059011574 M 481.47540983606564 76.15637537038226 l 7.1171531387445 0 L 488.59256297481016 60.949652223162474 l -7.1171531387445 0 L 481.47540983606564 76.15637537038226 M 517.0611755297881 75.20648459859875 l 7.1171531387445 0 L 524.1783286685326 74.40052909155084 l -7.1171531387445 0 L 517.0611755297881 75.20648459859875 M 525.9576169532187 74.40052909155084 l 7.1171531387445 0 L 533.0747700919632 62.721552031757966 l -7.1171531387445 0 L 525.9576169532187 74.40052909155084 M 534.8540583766493 62.721620344650574 l 7.1171531387445 0 L 541.9712115153937 59.7422901591207 l -7.1171531387445 0 L 534.8540583766493 62.721620344650574 M 543.75049980008 59.74235847201331 l 7.1171531387445 0 L 550.8676529388244 54.60174498999396 l -7.1171531387445 0 L 543.75049980008 59.74235847201331 M 561.5433826469413 55.15917819371586 l 7.1171531387445 0 L 568.6605357856857 42.59411460384004 l -7.1171531387445 0 L 561.5433826469413 55.15917819371586 M 570.4398240703717 42.59411460384004 l 7.1171531387445 0 L 577.5569772091162 36.3979986180575 l -7.1171531387445 0 L 570.4398240703717 42.59411460384004 M 597.1291483406637 81.59100754220789 l 7.1171531387445 0 L 604.2463014794082 79.22171148771191 l -7.1171531387445 0 L 597.1291483406637 81.59100754220789 M 614.9220311875249 89.83029383315201 l 7.1171531387445 0 L 622.0391843262694 87.5657897559243 l -7.1171531387445 0 L 614.9220311875249 89.83029383315201 M 623.8184726109555 87.56585806881694 l 7.1171531387445 0 L 630.9356257497 81.74860538546605 l -7.1171531387445 0 L 623.8184726109555 87.56585806881694 M 641.6113554578168 89.1572752151289 l 7.1171531387445 0 L 648.7285085965613 74.32791248670327 l -7.1171531387445 0 L 641.6113554578168 89.1572752151289 M 650.5077968812475 74.38420231021634 l 7.1171531387445 0 L 657.624950019992 67.429061774611 l -7.1171531387445 0 L 650.5077968812475 74.38420231021634 M 677.1971211515394 73.04048771251901 l 7.1171531387445 0 L 684.3142742902838 66.25865698547284 l -7.1171531387445 0 L 677.1971211515394 73.04048771251901 M 712.7828868452618 117.8939815603829 l 7.1171531387445 0 L 719.9000399840063 98.70133775498095 l -7.1171531387445 0 L 712.7828868452618 117.8939815603829 M 721.6793282686924 98.68248339661976 l 7.1171531387445 0 L 728.7964814074369 89.67276430278646 l -7.1171531387445 0 L 721.6793282686924 98.68248339661976 M 748.3686525389844 104.6649166543089 l 7.1171531387445 0 L 755.4858056777289 101.3157404681723 l -7.1171531387445 0 L 748.3686525389844 104.6649166543089 M 775.0579768092763 115.90662288848605 l 7.1171531387445 0 L 782.1751299480208 112.49596509899783 l -7.1171531387445 0 L 775.0579768092763 115.90662288848605 M 783.9544182327068 112.49589678610519 l 7.1171531387445 0 L 791.0715713714512 96.7852294300795 l -7.1171531387445 0 L 783.9544182327068 112.49589678610519 M 792.8508596561375 96.81316940315818 l 7.1171531387445 0 L 799.9680127948819 67.29106973153282 l -7.1171531387445 0 L 792.8508596561375 96.81316940315818 M 810.6437425029987 70.75262062601772 l 7.1171531387445 0 L 817.7608956417432 66.89212243867297 l -7.1171531387445 0 L 810.6437425029987 70.75262062601772 M 819.5401839264293 66.89212243867297 l 7.1171531387445 0 L 826.6573370651738 59.890529136090834 l -7.1171531387445 0 L 819.5401839264293 66.89212243867297 M 828.43662534986 59.89059744898347 l 7.1171531387445 0 L 835.5537784886045 44.54028060149122 l -7.1171531387445 0 L 828.43662534986 59.89059744898347 M 837.3330667732906 44.54028060149122 l 7.1171531387445 0 L 844.4502199120351 18.28756765743043 l -7.1171531387445 0 L 837.3330667732906 44.54028060149122 M 855.1259496201519 28.737937343578864 l 7.1171531387445 0 L 862.2431027588964 27.6025087554585 l -7.1171531387445 0 L 855.1259496201519 28.737937343578864 M 864.0223910435824 27.573544088990616 l 7.1171531387445 0 L 871.1395441823269 20.782900998797345 l -7.1171531387445 0 L 864.0223910435824 27.573544088990616 M 881.8152738904437 22.768825099949254 l 7.1171531387445 0 L 888.9324270291881 6.054368099868412 l -7.1171531387445 0 L 881.8152738904437 22.768825099949254"></path><path class="candle body down" d="M 9.964014394242305 155.0969096258413 l 7.1171531387445 0 L 17.081167532986804 166.01324155250285 l -7.1171531387445 0 L 9.964014394242305 155.0969096258413 M 27.75689724110356 162.3934779987263 l 7.1171531387445 0 L 34.87405037984806 164.8383964253448 l -7.1171531387445 0 L 27.75689724110356 162.3934779987263 M 36.65333866453418 164.83846473823743 l 7.1171531387445 0 L 43.77049180327868 171.57684846558178 l -7.1171531387445 0 L 36.65333866453418 164.83846473823743 M 54.446221511395436 165.15475343103554 l 7.1171531387445 0 L 61.563374650139934 167.29253709246612 l -7.1171531387445 0 L 54.446221511395436 165.15475343103554 M 72.23910435825668 162.12719434332087 l 7.1171531387445 0 L 79.35625749700118 170.1359929345888 l -7.1171531387445 0 L 72.23910435825668 162.12719434332087 M 81.13554578168731 170.13387523491778 l 7.1171531387445 0 L 88.25269892043181 172.5738068203756 l -7.1171531387445 0 L 81.13554578168731 170.13387523491778 M 98.92842862854857 171.95721465165084 l 7.1171531387445 0 L 106.04558176729307 178.3788314959488 l -7.1171531387445 0 L 98.92842862854857 171.95721465165084 M 107.82487005197919 178.41647189977854 l 7.1171531387445 0 L 114.94202319072369 181.76803903715657 l -7.1171531387445 0 L 107.82487005197919 178.41647189977854 M 134.51419432227107 179.07172916572225 l 7.1171531387445 0 L 141.63134746101557 185.48576327894014 l -7.1171531387445 0 L 134.51419432227107 179.07172916572225 M 143.4106357457017 185.48576327894014 l 7.1171531387445 0 L 150.5277888844462 192.65383510082015 l -7.1171531387445 0 L 143.4106357457017 185.48576327894014 M 223.47860855657734 122.77507436336552 l 7.1171531387445 0 L 230.59576169532184 122.79618304718291 l -7.1171531387445 0 L 223.47860855657734 122.77507436336552 M 241.2714914034386 107.83647931965169 l 7.1171531387445 0 L 248.3886445421831 112.92257911336587 l -7.1171531387445 0 L 241.2714914034386 107.83647931965169 M 250.16793282686922 112.92251080047329 l 7.1171531387445 0 L 257.28508596561375 123.96460676243532 l -7.1171531387445 0 L 250.16793282686922 112.92251080047329 M 259.06437425029986 123.93161163530328 l 7.1171531387445 0 L 266.1815273890444 128.73025077690204 l -7.1171531387445 0 L 259.06437425029986 123.93161163530328 M 267.9608156737305 128.7368088145929 l 7.1171531387445 0 L 275.07796881247504 135.15692277525335 l -7.1171531387445 0 L 267.9608156737305 128.7368088145929 M 312.4430227908837 91.67241929535362 l 7.1171531387445 0 L 319.5601759296282 96.98832365981784 l -7.1171531387445 0 L 312.4430227908837 91.67241929535362 M 330.23590563774496 80.22092416796194 l 7.1171531387445 0 L 337.3530587764895 84.75608048275247 l -7.1171531387445 0 L 330.23590563774496 80.22092416796194 M 339.13234706117555 84.75601216985984 l 7.1171531387445 0 L 346.2495001999201 85.2615275751959 l -7.1171531387445 0 L 339.13234706117555 84.75601216985984 M 348.02878848460614 85.26378190065213 l 7.1171531387445 0 L 355.14594162335067 92.85792123375927 l -7.1171531387445 0 L 348.02878848460614 85.26378190065213 M 365.8216713314674 69.62477476897743 l 7.1171531387445 0 L 372.93882447021196 74.62172623783165 l -7.1171531387445 0 L 365.8216713314674 69.62477476897743 M 374.7181127548981 74.62179455072429 l 7.1171531387445 0 L 381.8352658936426 75.26858101798398 l -7.1171531387445 0 L 374.7181127548981 74.62179455072429 M 383.61455417832866 75.26858101798398 l 7.1171531387445 0 L 390.7317073170732 82.5953436894039 l -7.1171531387445 0 L 383.61455417832866 75.26858101798398 M 392.5109956017593 82.59527537651128 l 7.1171531387445 0 L 399.62814874050383 90.82936988761685 l -7.1171531387445 0 L 392.5109956017593 82.59527537651128 M 428.0967612954818 59.22427349443643 l 7.1171531387445 0 L 435.21391443422635 62.64401689864221 l -7.1171531387445 0 L 428.0967612954818 59.22427349443643 M 454.7860855657737 58.087683587141726 l 7.1171531387445 0 L 461.90323870451823 70.48538059011574 l -7.1171531387445 0 L 454.7860855657737 58.087683587141726 M 472.57896841263494 61.60941814001865 l 7.1171531387445 0 L 479.69612155137946 76.15630705748964 l -7.1171531387445 0 L 472.57896841263494 61.60941814001865 M 490.3718512594962 60.949652223162474 l 7.1171531387445 0 L 497.48900439824075 62.14205376372206 l -7.1171531387445 0 L 490.3718512594962 60.949652223162474 M 499.2682926829268 62.14205376372206 l 7.1171531387445 0 L 506.38544582167134 63.01317977032278 l -7.1171531387445 0 L 499.2682926829268 62.14205376372206 M 508.16473410635746 63.01311145743017 l 7.1171531387445 0 L 515.281887245102 75.20648459859875 l -7.1171531387445 0 L 508.16473410635746 63.01311145743017 M 552.6469412235106 54.60953265975181 l 7.1171531387445 0 L 559.764094362255 55.172157643312346 l -7.1171531387445 0 L 552.6469412235106 54.60953265975181 M 579.3362654938024 36.38228665275656 l 7.1171531387445 0 L 586.4534186325469 76.02063765276026 l -7.1171531387445 0 L 579.3362654938024 36.38228665275656 M 588.232706917233 75.98757421273558 l 7.1171531387445 0 L 595.3498600559775 81.59100754220789 l -7.1171531387445 0 L 588.232706917233 75.98757421273558 M 606.0255897640943 79.22171148771191 l 7.1171531387445 0 L 613.1427429028388 89.77079330368608 l -7.1171531387445 0 L 606.0255897640943 79.22171148771191 M 632.7149140343862 81.74867369835862 l 7.1171531387445 0 L 639.8320671731307 89.15720690223627 l -7.1171531387445 0 L 632.7149140343862 81.74867369835862 M 659.4042383046781 67.42913008750361 l 7.1171531387445 0 L 666.5213914434225 70.04947602235231 l -7.1171531387445 0 L 659.4042383046781 67.42913008750361 M 668.3006797281087 70.04954433524495 l 7.1171531387445 0 L 675.4178328668531 73.04048771251901 l -7.1171531387445 0 L 668.3006797281087 70.04954433524495 M 686.09356257497 66.2585886725802 l 7.1171531387445 0 L 693.2107157137144 73.43827368620441 l -7.1171531387445 0 L 686.09356257497 66.2585886725802 M 694.9900039984005 73.43827368620441 l 7.1171531387445 0 L 702.107157137145 102.30819017205366 l -7.1171531387445 0 L 694.9900039984005 73.43827368620441 M 703.8864454218311 102.30122225700717 l 7.1171531387445 0 L 711.0035985605756 117.89200048649711 l -7.1171531387445 0 L 703.8864454218311 102.30122225700717 M 730.5757696921231 89.67276430278646 l 7.1171531387445 0 L 737.6929228308676 103.70894603508283 l -7.1171531387445 0 L 730.5757696921231 89.67276430278646 M 739.4722111155537 103.70887772219021 l 7.1171531387445 0 L 746.5893642542982 104.66484834141626 l -7.1171531387445 0 L 739.4722111155537 103.70887772219021 M 757.265093962415 101.3157404681723 l 7.1171531387445 0 L 764.3822471011595 108.23959369896089 l -7.1171531387445 0 L 757.265093962415 101.3157404681723 M 766.1615353858456 108.23959369896089 l 7.1171531387445 0 L 773.27868852459 115.89617101591627 l -7.1171531387445 0 L 766.1615353858456 108.23959369896089 M 801.747301079568 67.29113804442542 l 7.1171531387445 0 L 808.8644542183125 70.75255231312511 l -7.1171531387445 0 L 801.747301079568 67.29113804442542 M 846.2295081967213 18.28756765743043 l 7.1171531387445 0 L 853.3466613354658 28.737937343578864 l -7.1171531387445 0 L 846.2295081967213 18.28756765743043 M 872.9188324670131 20.782900998797345 l 7.1171531387445 0 L 880.0359856057576 22.76889341284189 l -7.1171531387445 0 L 872.9188324670131 20.782900998797345"></path><path class="candle body equal"></path><path class="candle wick up" d="M 4.626149540183927 150.4535456891518 L 4.626149540183927 155.10797631444456 M 4.626149540183927 159.32554599147733 L 4.626149540183927 161.45670330232446 M 22.41903238704518 156.25310533331597 L 22.41903238704518 162.39354631161888 M 22.41903238704518 166.01317323961024 L 22.41903238704518 167.0935416362845 M 49.10835665733706 163.21336933586724 L 49.10835665733706 165.15475343103554 M 49.10835665733706 171.57684846558178 L 49.10835665733706 175.77563209714597 M 66.90123950419832 159.34685961397258 L 66.90123950419832 162.1272626562135 M 66.90123950419832 167.29253709246612 L 66.90123950419832 168.63420230338505 M 93.5905637744902 169.94881560882925 L 93.5905637744902 171.95728296454348 M 93.5905637744902 172.57824715839544 L 93.5905637744902 180.63315695217713 M 120.27988804478207 177.86020001523107 L 120.27988804478207 180.83761743976777 M 120.27988804478207 181.76810735004918 L 120.27988804478207 183.26791690736715 M 129.1763294682127 174.5874659559284 L 129.1763294682127 179.07179747861485 M 129.1763294682127 180.83761743976777 L 129.1763294682127 183.64596045508736 M 155.8656537385046 171.69783059839935 L 155.8656537385046 176.57188717344286 M 155.8656537385046 192.65390341371275 L 155.8656537385046 194.75609605809197 M 164.7620951619352 173.51939387992448 L 164.7620951619352 175.59282679651363 M 164.7620951619352 176.57188717344286 L 164.7620951619352 179.55381324889206 M 173.65853658536582 166.28744950345134 L 173.65853658536582 166.39613531559863 M 173.65853658536582 175.59453461882896 L 173.65853658536582 178.07606875588806 M 182.55497800879647 160.48085363134805 L 182.55497800879647 162.1330692520856 M 182.55497800879647 166.396067002706 L 182.55497800879647 167.98748414901797 M 191.4514194322271 154.34635587470245 L 191.4514194322271 154.46235116635933 M 191.4514194322271 162.110047807275 L 191.4514194322271 164.9135406072191 M 200.34786085565773 119.15155360049523 L 200.34786085565773 141.7795161496187 M 200.34786085565773 154.46235116635933 L 200.34786085565773 155.65946629650918 M 209.24430227908834 126.03332608943421 L 209.24430227908834 126.61220954143658 M 209.24430227908834 141.75403544067404 L 209.24430227908834 147.61753595232395 M 218.14074370251896 116.76060235904093 L 218.14074370251896 122.77514267625814 M 218.14074370251896 126.62081696590583 L 218.14074370251896 131.29758590708303 M 235.93362654938022 107.08264654966746 L 235.93362654938022 107.83641100675906 M 235.93362654938022 122.78245215576773 L 235.93362654938022 134.43157648148872 M 280.4158336665334 123.11602401039687 L 280.4158336665334 124.79980018752163 M 280.4158336665334 135.15699108814596 L 280.4158336665334 139.9285100113774 M 289.31227508996403 113.68652219145685 L 289.31227508996403 117.01704895791006 M 289.31227508996403 124.79986850041426 L 289.31227508996403 141.12986054086926 M 298.2087165133947 99.73409206550399 L 298.2087165133947 103.52928312751068 M 298.2087165133947 117.01704895791006 L 298.2087165133947 123.9070873068552 M 307.10515793682526 90.80170316610857 L 307.10515793682526 91.67241929535362 M 307.10515793682526 103.52928312751068 L 307.10515793682526 106.19662833247709 M 324.89804078368655 78.81859710840268 L 324.89804078368655 80.18997842760827 M 324.89804078368655 96.98839197271047 L 324.89804078368655 103.92460983706201 M 360.483806477409 69.03721557961319 L 360.483806477409 69.6247064560848 M 360.483806477409 92.85068006714229 L 360.483806477409 94.0985516765036 M 404.9660135945622 81.92102712642118 L 404.9660135945622 90.7655656459163 M 404.9660135945622 90.82936988761685 L 404.9660135945622 94.1949411679805 M 413.86245501799283 74.86430531950037 L 413.86245501799283 76.7250118884927 M 413.86245501799283 90.80600687834317 L 413.86245501799283 96.07750786260902 M 422.7588964414235 58.810843868342715 L 422.7588964414235 59.22427349443643 M 422.7588964414235 76.7250118884927 L 422.7588964414235 77.66520222952515 M 440.5517792882847 58.01151471187822 L 440.5517792882847 59.79297832543949 M 440.5517792882847 62.643948585749655 L 440.5517792882847 67.91688414076032 M 449.44822071171535 51.180225450580224 L 449.44822071171535 58.087683587141726 M 449.44822071171535 59.79297832543949 L 449.44822071171535 61.22905195394958 M 467.2411035585766 59.62164959076614 L 467.2411035585766 61.60941814001865 M 467.2411035585766 70.48538059011574 L 467.2411035585766 74.2270826572065 M 485.0339864054379 60.40294414358081 L 485.0339864054379 60.949652223162474 M 485.0339864054379 76.15637537038226 L 485.0339864054379 79.54373846348948 M 520.6197520991603 66.57720000372714 L 520.6197520991603 74.40052909155084 M 520.6197520991603 75.20648459859875 L 520.6197520991603 77.1391246435126 M 529.5161935225909 60.36147821776473 L 529.5161935225909 62.721552031757966 M 529.5161935225909 74.40052909155084 L 529.5161935225909 78.42340702463662 M 538.4126349460215 51.5209018460412 L 538.4126349460215 59.7422901591207 M 538.4126349460215 62.721620344650574 L 538.4126349460215 64.26856579787153 M 547.3090763694522 47.76458081993124 L 547.3090763694522 54.60174498999396 M 547.3090763694522 59.74235847201331 L 547.3090763694522 66.09402291427557 M 565.1019592163135 41.61642048476304 L 565.1019592163135 42.59411460384004 M 565.1019592163135 55.15917819371586 L 565.1019592163135 58.35307917494313 M 573.998400639744 35.60488593482083 L 573.998400639744 36.3979986180575 M 573.998400639744 42.59411460384004 L 573.998400639744 47.97409646157524 M 600.687724910036 72.35742709928184 L 600.687724910036 79.22171148771191 M 600.687724910036 81.59100754220789 L 600.687724910036 85.2473184935324 M 618.4806077568971 82.00348078780505 L 618.4806077568971 87.5657897559243 M 618.4806077568971 89.83029383315201 L 618.4806077568971 90.64991191872251 M 627.3770491803277 78.77863406622411 L 627.3770491803277 81.74860538546605 M 627.3770491803277 87.56585806881694 L 627.3770491803277 90.5143791397784 M 645.169932027189 73.38191554979869 L 645.169932027189 74.32791248670327 M 645.169932027189 89.1572752151289 L 645.169932027189 91.52281406053118 M 654.0663734506197 64.84280397317622 L 654.0663734506197 67.429061774611 M 654.0663734506197 74.38420231021634 L 654.0663734506197 77.25990183765235 M 680.7556977209116 62.498305498698755 L 680.7556977209116 66.25865698547284 M 680.7556977209116 73.04048771251901 L 680.7556977209116 74.84681721899145 M 716.3414634146341 95.57984843992342 L 716.3414634146341 98.70133775498095 M 716.3414634146341 117.8939815603829 L 716.3414634146341 119.04642005876386 M 725.2379048380647 88.90260475146773 L 725.2379048380647 89.67276430278646 M 725.2379048380647 98.68248339661976 L 725.2379048380647 101.94292113525209 M 751.9272291083566 95.92517011208206 L 751.9272291083566 101.3157404681723 M 751.9272291083566 104.6649166543089 L 751.9272291083566 117.78529574823563 M 778.6165533786485 105.21572350744732 L 778.6165533786485 112.49596509899783 M 778.6165533786485 115.90662288848605 L 778.6165533786485 117.75879034590182 M 787.512994802079 94.61786628614746 L 787.512994802079 96.7852294300795 M 787.512994802079 112.49589678610519 L 787.512994802079 113.27548351660455 M 796.4094362255097 64.87696041948269 L 796.4094362255097 67.29106973153282 M 796.4094362255097 96.81316940315818 L 796.4094362255097 100.48143511068999 M 814.202319072371 59.86907888781036 L 814.202319072371 66.89212243867297 M 814.202319072371 70.75262062601772 L 814.202319072371 74.48858441012898 M 823.0987604958016 57.76476854376011 L 823.0987604958016 59.890529136090834 M 823.0987604958016 66.89212243867297 L 823.0987604958016 75.83434839460467 M 831.9952019192323 41.71000914764281 L 831.9952019192323 44.54028060149122 M 831.9952019192323 59.89059744898347 L 831.9952019192323 61.27413846307411 M 840.8916433426629 15.315956828765792 L 840.8916433426629 18.28756765743043 M 840.8916433426629 44.54028060149122 L 840.8916433426629 51.983516754816264 M 858.6845261895241 12.925005587311489 L 858.6845261895241 27.6025087554585 M 858.6845261895241 28.737937343578864 L 858.6845261895241 29.882929736665005 M 867.5809676129546 17.098923325964563 L 867.5809676129546 20.782900998797345 M 867.5809676129546 27.573544088990616 L 867.5809676129546 29.58194313181224 M 885.3738504598159 3.8461538461538396 L 885.3738504598159 6.054368099868412 M 885.3738504598159 22.768825099949254 L 885.3738504598159 24.43531811524295" style="stroke-width: 1px;"></path><path class="candle wick down" d="M 13.522590963614554 155.05831284151495 L 13.522590963614554 155.0969096258413 M 13.522590963614554 166.01324155250285 L 13.522590963614554 169.87011915653906 M 31.315473810475808 156.661548118249 L 31.315473810475808 162.3934779987263 M 31.315473810475808 164.8383964253448 L 31.315473810475808 165.41461567453533 M 40.21191523390643 164.37714777442199 L 40.21191523390643 164.83846473823743 M 40.21191523390643 171.57684846558178 L 40.21191523390643 177.0330675114731 M 58.004798080767685 162.10670047553697 L 58.004798080767685 165.15475343103554 M 58.004798080767685 167.29253709246612 L 58.004798080767685 170.69513396062604 M 75.79768092762893 159.26194668845466 L 75.79768092762893 162.12719434332087 M 75.79768092762893 170.1359929345888 L 75.79768092762893 173.0617658123101 M 84.69412235105956 168.40514917445373 L 84.69412235105956 170.13387523491778 M 84.69412235105956 172.5738068203756 L 84.69412235105956 176.17744853149551 M 102.48700519792082 169.46229118763958 L 102.48700519792082 171.95721465165084 M 102.48700519792082 178.3788314959488 L 102.48700519792082 183.48180457413838 M 111.38344662135144 175.8568561264628 L 111.38344662135144 178.41647189977854 M 111.38344662135144 181.76803903715657 L 111.38344662135144 184.25374026066507 M 138.07277089164333 178.24903699998413 L 138.07277089164333 179.07172916572225 M 138.07277089164333 185.48576327894014 L 138.07277089164333 188.43831481056577 M 146.96921231507397 183.95951663218096 L 146.96921231507397 185.48576327894014 M 146.96921231507397 192.65383510082015 L 146.96921231507397 196.15384615384616 M 227.0371851259496 118.53673756697842 L 227.0371851259496 122.77507436336552 M 227.0371851259496 122.79618304718291 L 227.0371851259496 128.37379410324752 M 244.83006797281087 106.18576658255165 L 244.83006797281087 107.83647931965169 M 244.83006797281087 112.92257911336587 L 244.83006797281087 116.07644873952194 M 253.72650939624148 105.15424190409564 L 253.72650939624148 112.92251080047329 M 253.72650939624148 123.96460676243532 L 253.72650939624148 126.85717957434673 M 262.6229508196721 119.62967553589345 L 262.6229508196721 123.93161163530328 M 262.6229508196721 128.73025077690204 L 262.6229508196721 131.85775162650947 M 271.51939224310274 124.41164633169468 L 271.51939224310274 128.7368088145929 M 271.51939224310274 135.15692277525335 L 271.51939224310274 139.01673783367195 M 316.0015993602559 86.63461671671679 L 316.0015993602559 91.67241929535362 M 316.0015993602559 96.98832365981784 L 316.0015993602559 100.63192841311638 M 333.7944822071172 77.1391246435126 L 333.7944822071172 80.22092416796194 M 333.7944822071172 84.75608048275247 L 333.7944822071172 91.55683388105244 M 342.6909236305478 76.84216849932398 L 342.6909236305478 84.75601216985984 M 342.6909236305478 85.2615275751959 L 342.6909236305478 86.42189036911998 M 351.5873650539784 80.43098631274685 L 351.5873650539784 85.26378190065213 M 351.5873650539784 92.85792123375927 L 351.5873650539784 97.15480217911569 M 369.38024790083966 67.27474295019829 L 369.38024790083966 69.62477476897743 M 369.38024790083966 74.62172623783165 L 369.38024790083966 82.118929576321 M 378.2766893242703 72.54665381181982 L 378.2766893242703 74.62179455072429 M 378.2766893242703 75.26858101798398 L 378.2766893242703 85.33667175707018 M 387.1731307477009 67.89072030288952 L 387.1731307477009 75.26858101798398 M 387.1731307477009 82.5953436894039 L 387.1731307477009 84.2436654752625 M 396.06957217113154 73.99673158331552 L 396.06957217113154 82.59527537651128 M 396.06957217113154 90.82936988761685 L 396.06957217113154 93.01504088676913 M 431.65533786485406 56.255600120154185 L 431.65533786485406 59.22427349443643 M 431.65533786485406 62.64401689864221 L 431.65533786485406 66.74190238781705 M 458.34466213514594 55.55225057781095 L 458.34466213514594 58.087683587141726 M 458.34466213514594 70.48538059011574 L 458.34466213514594 70.99096430834439 M 476.13754498200717 59.01680723957085 L 476.13754498200717 61.60941814001865 M 476.13754498200717 76.15630705748964 L 476.13754498200717 80.21320481109669 M 493.93042782886846 59.38460385339911 L 493.93042782886846 60.949652223162474 M 493.93042782886846 62.14205376372206 L 493.93042782886846 65.88881098486618 M 502.82686925229905 57.10794008128636 L 502.82686925229905 62.14205376372206 M 502.82686925229905 63.01317977032278 L 502.82686925229905 69.88060655181303 M 511.7233106757297 62.188096653343194 L 511.7233106757297 63.01311145743017 M 511.7233106757297 75.20648459859875 L 511.7233106757297 76.09393738653401 M 556.2055177928828 50.93641673684451 L 556.2055177928828 54.60953265975181 M 556.2055177928828 55.172157643312346 L 556.2055177928828 58.89958231584694 M 582.8948420631747 34.648505438239084 L 582.8948420631747 36.38228665275656 M 582.8948420631747 76.02063765276026 L 582.8948420631747 103.48706575987585 M 591.7912834866053 72.76033653991321 L 591.7912834866053 75.98757421273558 M 591.7912834866053 81.59100754220789 L 591.7912834866053 92.76897784757719 M 609.5841663334666 74.86430531950037 L 609.5841663334666 79.22171148771191 M 609.5841663334666 89.77079330368608 L 609.5841663334666 94.67989439264004 M 636.2734906037584 75.90949257647897 L 636.2734906037584 81.74867369835862 M 636.2734906037584 89.15720690223627 L 636.2734906037584 99.88731788363489 M 662.9628148740503 64.45342048528221 L 662.9628148740503 67.42913008750361 M 662.9628148740503 70.04947602235231 L 662.9628148740503 74.94559766170983 M 671.8592562974809 67.23375521463052 L 671.8592562974809 70.04954433524495 M 671.8592562974809 73.04048771251901 L 671.8592562974809 77.14213041078759 M 689.6521391443422 65.71153902853547 L 689.6521391443422 66.2585886725802 M 689.6521391443422 73.43827368620441 L 689.6521391443422 76.25665869673813 M 698.5485805677728 72.71757266913748 L 698.5485805677728 73.43827368620441 M 698.5485805677728 102.30819017205366 L 698.5485805677728 105.83053954096415 M 707.4450219912034 98.04970107234574 L 707.4450219912034 102.30122225700717 M 707.4450219912034 117.89200048649711 L 707.4450219912034 125.64127839872832 M 734.1343462614954 87.38605853545958 L 734.1343462614954 89.67276430278646 M 734.1343462614954 103.70894603508283 L 734.1343462614954 118.29764244283297 M 743.0307876849259 102.64142046221981 L 743.0307876849259 103.70887772219021 M 743.0307876849259 104.66484834141626 L 743.0307876849259 111.66254780911947 M 760.8236705317872 93.19265440756286 L 760.8236705317872 101.3157404681723 M 760.8236705317872 108.23959369896089 L 760.8236705317872 108.57671782400594 M 769.7201119552178 103.86736363305235 L 769.7201119552178 108.23959369896089 M 769.7201119552178 115.89617101591627 L 769.7201119552178 116.84257783017651 M 805.3058776489403 65.95910495136494 L 805.3058776489403 67.29113804442542 M 805.3058776489403 70.75255231312511 L 805.3058776489403 72.15105385069802 M 849.7880847660936 18.169318040317364 L 849.7880847660936 18.28756765743043 M 849.7880847660936 28.737937343578864 L 849.7880847660936 31.663232031051876 M 876.4774090363853 9.773663538182149 L 876.4774090363853 20.782900998797345 M 876.4774090363853 22.76889341284189 L 876.4774090363853 26.724209895133413" style="stroke-width: 1px;"></path><path class="candle wick equal" style="stroke-width: 1px;"></path></g></g><g class="x axis" transform="translate(0,200)" fill="none" font-size="10" font-family="sans-serif" text-anchor="middle"><path class="domain" stroke="#000" d="M0.5,6V0.5H890.5V6"></path><g class="tick" opacity="1" transform="translate(13.522590963614554,0)"><line stroke="#000" y2="6" x1="0.5" x2="0.5"></line><text fill="#000" y="9" x="0.5" dy="0.71em">Jul  5</text></g><g class="tick" opacity="1" transform="translate(75.79768092762893,0)"><line stroke="#000" y2="6" x1="0.5" x2="0.5"></line><text fill="#000" y="9" x="0.5" dy="0.71em">Jul 12</text></g><g class="tick" opacity="1" transform="translate(138.07277089164333,0)"><line stroke="#000" y2="6" x1="0.5" x2="0.5"></line><text fill="#000" y="9" x="0.5" dy="0.71em">Jul 19</text></g><g class="tick" opacity="1" transform="translate(200.34786085565773,0)"><line stroke="#000" y2="6" x1="0.5" x2="0.5"></line><text fill="#000" y="9" x="0.5" dy="0.71em">Jul 26</text></g><g class="tick" opacity="1" transform="translate(262.6229508196721,0)"><line stroke="#000" y2="6" x1="0.5" x2="0.5"></line><text fill="#000" y="9" x="0.5" dy="0.71em">Aug  2</text></g><g class="tick" opacity="1" transform="translate(324.89804078368655,0)"><line stroke="#000" y2="6" x1="0.5" x2="0.5"></line><text fill="#000" y="9" x="0.5" dy="0.71em">Aug  9</text></g><g class="tick" opacity="1" transform="translate(387.1731307477009,0)"><line stroke="#000" y2="6" x1="0.5" x2="0.5"></line><text fill="#000" y="9" x="0.5" dy="0.71em">Aug 16</text></g><g class="tick" opacity="1" transform="translate(449.44822071171535,0)"><line stroke="#000" y2="6" x1="0.5" x2="0.5"></line><text fill="#000" y="9" x="0.5" dy="0.71em">Aug 23</text></g><g class="tick" opacity="1" transform="translate(511.7233106757297,0)"><line stroke="#000" y2="6" x1="0.5" x2="0.5"></line><text fill="#000" y="9" x="0.5" dy="0.71em">Aug 30</text></g><g class="tick" opacity="1" transform="translate(573.998400639744,0)"><line stroke="#000" y2="6" x1="0.5" x2="0.5"></line><text fill="#000" y="9" x="0.5" dy="0.71em">Sep  6</text></g><g class="tick" opacity="1" transform="translate(636.2734906037584,0)"><line stroke="#000" y2="6" x1="0.5" x2="0.5"></line><text fill="#000" y="9" x="0.5" dy="0.71em">Sep 13</text></g><g class="tick" opacity="1" transform="translate(698.5485805677728,0)"><line stroke="#000" y2="6" x1="0.5" x2="0.5"></line><text fill="#000" y="9" x="0.5" dy="0.71em">Sep 20</text></g><g class="tick" opacity="1" transform="translate(760.8236705317872,0)"><line stroke="#000" y2="6" x1="0.5" x2="0.5"></line><text fill="#000" y="9" x="0.5" dy="0.71em">Sep 27</text></g><g class="tick" opacity="1" transform="translate(823.0987604958016,0)"><line stroke="#000" y2="6" x1="0.5" x2="0.5"></line><text fill="#000" y="9" x="0.5" dy="0.71em">Oct  4</text></g><g class="tick" opacity="1" transform="translate(885.3738504598159,0)"><line stroke="#000" y2="6" x1="0.5" x2="0.5"></line><text fill="#000" y="9" x="0.5" dy="0.71em">Oct 11</text></g></g><g class="y axis" fill="none" font-size="10" font-family="sans-serif" text-anchor="end"><path class="domain" stroke="#000" d="M-6,200.5H0.5V0.5H-6"></path><g class="tick" opacity="1" transform="translate(0,191.22165530718902)"><line stroke="#000" x2="-6" y1="0.5" y2="0.5"></line><text fill="#000" x="-9" y="0.5" dy="0.32em">30,000</text></g><g class="tick" opacity="1" transform="translate(0,177.55907678459303)"><line stroke="#000" x2="-6" y1="0.5" y2="0.5"></line><text fill="#000" x="-9" y="0.5" dy="0.32em">32,000</text></g><g class="tick" opacity="1" transform="translate(0,163.89649826199707)"><line stroke="#000" x2="-6" y1="0.5" y2="0.5"></line><text fill="#000" x="-9" y="0.5" dy="0.32em">34,000</text></g><g class="tick" opacity="1" transform="translate(0,150.23391973940107)"><line stroke="#000" x2="-6" y1="0.5" y2="0.5"></line><text fill="#000" x="-9" y="0.5" dy="0.32em">36,000</text></g><g class="tick" opacity="1" transform="translate(0,136.57134121680508)"><line stroke="#000" x2="-6" y1="0.5" y2="0.5"></line><text fill="#000" x="-9" y="0.5" dy="0.32em">38,000</text></g><g class="tick" opacity="1" transform="translate(0,122.90876269420912)"><line stroke="#000" x2="-6" y1="0.5" y2="0.5"></line><text fill="#000" x="-9" y="0.5" dy="0.32em">40,000</text></g><g class="tick" opacity="1" transform="translate(0,109.24618417161314)"><line stroke="#000" x2="-6" y1="0.5" y2="0.5"></line><text fill="#000" x="-9" y="0.5" dy="0.32em">42,000</text></g><g class="tick" opacity="1" transform="translate(0,95.58360564901716)"><line stroke="#000" x2="-6" y1="0.5" y2="0.5"></line><text fill="#000" x="-9" y="0.5" dy="0.32em">44,000</text></g><g class="tick" opacity="1" transform="translate(0,81.92102712642118)"><line stroke="#000" x2="-6" y1="0.5" y2="0.5"></line><text fill="#000" x="-9" y="0.5" dy="0.32em">46,000</text></g><g class="tick" opacity="1" transform="translate(0,68.25844860382523)"><line stroke="#000" x2="-6" y1="0.5" y2="0.5"></line><text fill="#000" x="-9" y="0.5" dy="0.32em">48,000</text></g><g class="tick" opacity="1" transform="translate(0,54.595870081229236)"><line stroke="#000" x2="-6" y1="0.5" y2="0.5"></line><text fill="#000" x="-9" y="0.5" dy="0.32em">50,000</text></g><g class="tick" opacity="1" transform="translate(0,40.93329155863324)"><line stroke="#000" x2="-6" y1="0.5" y2="0.5"></line><text fill="#000" x="-9" y="0.5" dy="0.32em">52,000</text></g><g class="tick" opacity="1" transform="translate(0,27.27071303603728)"><line stroke="#000" x2="-6" y1="0.5" y2="0.5"></line><text fill="#000" x="-9" y="0.5" dy="0.32em">54,000</text></g><g class="tick" opacity="1" transform="translate(0,13.608134513441286)"><line stroke="#000" x2="-6" y1="0.5" y2="0.5"></line><text fill="#000" x="-9" y="0.5" dy="0.32em">56,000</text></g><text transform="rotate(-90)" y="6" dy=".71em" style="text-anchor: end;">Price ($)</text></g></g></svg>