<?xml version="1.0" encoding="utf-8"?>
<!DOCTYPE svg PUBLIC "-//W3C//DTD SVG 1.1//EN" "http://www.w3.org/Graphics/SVG/1.1/DTD/svg11.dtd">
<svg version="1.1" xmlns="http://www.w3.org/2000/svg" width="960" height="250"><g transform="translate(50,20)"><style>.axis path,.axis line{fill:none;stroke:#000;shape-rendering:crispEdges;}path.candle{stroke:#000000;}path.candle.body{stroke-width:0;}path.candle.up{fill:#00AA00;stroke:#00AA00;}path.candle.down{fill:#FF0000;stroke:#FF0000;}</style><g class="candlestick"><g class="data"><path class="candle body up" d="M 9.964014394242305 36.706341976356214 l 7.1171531387445 0 L 17.081167532986804 29.276396270711757 l -7.1171531387445 0 L 9.964014394242305 36.706341976356214 M 27.75689724110356 51.785388936028426 l 7.1171531387445 0 L 34.87405037984806 30.912254491127072 l -7.1171531387445 0 L 27.75689724110356 51.785388936028426 M 45.54978008796481 45.464755519232114 l 7.1171531387445 0 L 52.66693322670931 42.28869188603909 l -7.1171531387445 0 L 45.54978008796481 45.464755519232114 M 54.446221511395436 42.28856174616479 l 7.1171531387445 0 L 61.563374650139934 31.241378233325207 l -7.1171531387445 0 L 54.446221511395436 42.28856174616479 M 72.23910435825668 46.66035054476555 l 7.1171531387445 0 L 79.35625749700118 39.5620012389316 l -7.1171531387445 0 L 72.23910435825668 46.66035054476555 M 107.82487005197919 52.89834514135791 l 7.1171531387445 0 L 114.94202319072369 47.6729689069812 l -7.1171531387445 0 L 107.82487005197919 52.89834514135791 M 116.72131147540982 47.6729689069812 l 7.1171531387445 0 L 123.83846461415432 41.988849615566835 l -7.1171531387445 0 L 116.72131147540982 47.6729689069812 M 125.61775289884046 41.988849615566835 l 7.1171531387445 0 L 132.73490603758498 12.497592412324764 l -7.1171531387445 0 L 125.61775289884046 41.988849615566835 M 134.51419432227107 12.497462272450463 l 7.1171531387445 0 L 141.63134746101557 11.627997772005358 l -7.1171531387445 0 L 134.51419432227107 12.497462272450463 M 152.30707716913233 37.593505499711114 l 7.1171531387445 0 L 159.42423030787683 29.176318707346667 l -7.1171531387445 0 L 152.30707716913233 37.593505499711114 M 170.09996001599356 38.96817299233217 l 7.1171531387445 0 L 177.21711315473806 36.836091431070116 l -7.1171531387445 0 L 170.09996001599356 38.96817299233217 M 178.9964014394242 36.836221570944474 l 7.1171531387445 0 L 186.1135545781687 36.11810974435326 l -7.1171531387445 0 L 178.9964014394242 36.836221570944474 M 187.89284286285485 36.11823988422756 l 7.1171531387445 0 L 195.00999600159935 17.19720355438028 l -7.1171531387445 0 L 187.89284286285485 36.11823988422756 M 267.9608156737305 137.4032410034305 l 7.1171531387445 0 L 275.07796881247504 131.58208442433926 l -7.1171531387445 0 L 267.9608156737305 137.4032410034305 M 285.7536985205918 159.99318067058476 l 7.1171531387445 0 L 292.8708516593363 159.10549658773246 l -7.1171531387445 0 L 285.7536985205918 159.99318067058476 M 303.54658136745303 178.60071004315435 l 7.1171531387445 0 L 310.66373450619756 157.73655524958224 l -7.1171531387445 0 L 303.54658136745303 178.60071004315435 M 321.3394642143143 157.7378566483256 l 7.1171531387445 0 L 328.45661735305885 155.79070384849635 l -7.1171531387445 0 L 321.3394642143143 157.7378566483256 M 339.13234706117555 165.36275188572677 l 7.1171531387445 0 L 346.2495001999201 150.75936616675602 l -7.1171531387445 0 L 339.13234706117555 165.36275188572677 M 348.02878848460614 150.75949630663038 l 7.1171531387445 0 L 355.14594162335067 149.09930192971407 l -7.1171531387445 0 L 348.02878848460614 150.75949630663038 M 356.9252299080368 149.09943206958837 l 7.1171531387445 0 L 364.0423830467813 145.8002561152727 l -7.1171531387445 0 L 356.9252299080368 149.09943206958837 M 428.0967612954818 174.93037516722973 l 7.1171531387445 0 L 435.21391443422635 174.11036381903267 l -7.1171531387445 0 L 428.0967612954818 174.93037516722973 M 436.99320271891247 174.11036381903267 l 7.1171531387445 0 L 444.110355857657 162.1260430710928 l -7.1171531387445 0 L 436.99320271891247 174.11036381903267 M 454.7860855657737 162.91820448618174 l 7.1171531387445 0 L 461.90323870451823 157.86005799032802 l -7.1171531387445 0 L 454.7860855657737 162.91820448618174 M 463.68252698920435 157.86005799032802 l 7.1171531387445 0 L 470.7996801279489 144.0591147365188 l -7.1171531387445 0 L 463.68252698920435 157.86005799032802 M 517.0611755297881 173.90929771318213 l 7.1171531387445 0 L 524.1783286685326 162.14998880797083 l -7.1171531387445 0 L 517.0611755297881 173.90929771318213 M 525.9576169532187 162.14998880797083 l 7.1171531387445 0 L 533.0747700919632 157.54342767606624 l -7.1171531387445 0 L 525.9576169532187 162.14998880797083 M 534.8540583766493 157.54342767606624 l 7.1171531387445 0 L 541.9712115153937 154.4044539070593 l -7.1171531387445 0 L 534.8540583766493 157.54342767606624 M 543.75049980008 154.4044539070593 l 7.1171531387445 0 L 550.8676529388244 149.64706066079825 l -7.1171531387445 0 L 543.75049980008 154.4044539070593 M 561.5433826469413 154.8008599642896 l 7.1171531387445 0 L 568.6605357856857 133.54901848506773 l -7.1171531387445 0 L 561.5433826469413 154.8008599642896 M 570.4398240703717 133.54901848506773 l 7.1171531387445 0 L 577.5569772091162 121.00301403948966 l -7.1171531387445 0 L 570.4398240703717 133.54901848506773 M 614.9220311875249 133.34079468612862 l 7.1171531387445 0 L 622.0391843262694 131.6346609335714 l -7.1171531387445 0 L 614.9220311875249 133.34079468612862 M 641.6113554578168 148.87832442308996 l 7.1171531387445 0 L 648.7285085965613 126.78343683791337 l -7.1171531387445 0 L 641.6113554578168 148.87832442308996 M 650.5077968812475 126.75923082128669 l 7.1171531387445 0 L 657.624950019992 115.19474130795778 l -7.1171531387445 0 L 650.5077968812475 126.75923082128669 M 721.6793282686924 131.07857325052967 l 7.1171531387445 0 L 728.7964814074369 122.09879178140667 l -7.1171531387445 0 L 721.6793282686924 131.07857325052967 M 739.4722111155537 126.7605322200301 l 7.1171531387445 0 L 746.5893642542982 123.89511246687941 l -7.1171531387445 0 L 739.4722111155537 126.7605322200301 M 748.3686525389844 123.89511246687941 l 7.1171531387445 0 L 755.4858056777289 115.62329191414933 l -7.1171531387445 0 L 748.3686525389844 123.89511246687941 M 766.1615353858456 124.19534515697471 l 7.1171531387445 0 L 773.27868852459 113.74862702432576 l -7.1171531387445 0 L 766.1615353858456 124.19534515697471 M 783.9544182327068 114.02140020093596 l 7.1171531387445 0 L 791.0715713714512 107.89714785451403 l -7.1171531387445 0 L 783.9544182327068 114.02140020093596 M 792.8508596561375 107.92291554963273 l 7.1171531387445 0 L 799.9680127948819 107.40652052826375 l -7.1171531387445 0 L 792.8508596561375 107.92291554963273 M 855.1259496201519 154.34784306172276 l 7.1171531387445 0 L 862.2431027588964 150.36972738299124 l -7.1171531387445 0 L 855.1259496201519 154.34784306172276 M 864.0223910435824 150.36972738299124 l 7.1171531387445 0 L 871.1395441823269 145.48245454214188 l -7.1171531387445 0 L 864.0223910435824 150.36972738299124 M 881.8152738904437 146.97724113877595 l 7.1171531387445 0 L 888.9324270291881 146.9020202914092 l -7.1171531387445 0 L 881.8152738904437 146.97724113877595"></path><path class="candle body down" d="M 1.0675729708116766 17.772551938823852 l 7.1171531387445 0 L 8.184726109556177 36.706341976356214 l -7.1171531387445 0 L 1.0675729708116766 17.772551938823852 M 18.860455817672932 29.276396270711757 l 7.1171531387445 0 L 25.977608956417434 51.78551907590278 l -7.1171531387445 0 L 18.860455817672932 29.276396270711757 M 36.65333866453418 30.9123846310014 l 7.1171531387445 0 L 43.77049180327868 45.464755519232114 l -7.1171531387445 0 L 36.65333866453418 30.9123846310014 M 63.342662934826066 31.24150837319951 l 7.1171531387445 0 L 70.45981607357056 46.66022040489116 l -7.1171531387445 0 L 63.342662934826066 31.24150837319951 M 81.13554578168731 39.5620012389316 l 7.1171531387445 0 L 88.25269892043181 41.025163846101776 l -7.1171531387445 0 L 81.13554578168731 39.5620012389316 M 90.03198720511796 41.025293985976134 l 7.1171531387445 0 L 97.14914034386246 45.46033076350463 l -7.1171531387445 0 L 90.03198720511796 41.025293985976134 M 98.92842862854857 45.46033076350463 l 7.1171531387445 0 L 106.04558176729307 52.898475281232294 l -7.1171531387445 0 L 98.92842862854857 45.46033076350463 M 143.4106357457017 11.627867632131029 l 7.1171531387445 0 L 150.5277888844462 37.593635639585415 l -7.1171531387445 0 L 143.4106357457017 11.627867632131029 M 161.20351859256294 29.17618856747231 l 7.1171531387445 0 L 168.32067173130744 38.96817299233217 l -7.1171531387445 0 L 161.20351859256294 29.17618856747231 M 196.78928428628546 17.19720355438028 l 7.1171531387445 0 L 203.90643742502996 20.421679220826547 l -7.1171531387445 0 L 196.78928428628546 17.19720355438028 M 205.68572570971608 20.421809360700905 l 7.1171531387445 0 L 212.80287884846058 32.401835492787654 l -7.1171531387445 0 L 205.68572570971608 20.421809360700905 M 214.5821671331467 32.401835492787654 l 7.1171531387445 0 L 221.6993202718912 33.63608206099917 l -7.1171531387445 0 L 214.5821671331467 32.401835492787654 M 223.47860855657734 33.63608206099917 l 7.1171531387445 0 L 230.59576169532184 46.88497196787108 l -7.1171531387445 0 L 223.47860855657734 33.63608206099917 M 232.37504998000796 46.88510210774541 l 7.1171531387445 0 L 239.49220311875246 55.56764410388283 l -7.1171531387445 0 L 232.37504998000796 46.88510210774541 M 241.2714914034386 55.567513964008555 l 7.1171531387445 0 L 248.3886445421831 79.64573323408 l -7.1171531387445 0 L 241.2714914034386 55.567513964008555 M 250.16793282686922 79.64573323408 l 7.1171531387445 0 L 257.28508596561375 132.83546155407834 l -7.1171531387445 0 L 250.16793282686922 79.64573323408 M 259.06437425029986 132.86331148718642 l 7.1171531387445 0 L 266.1815273890444 137.4033711433048 l -7.1171531387445 0 L 259.06437425029986 132.86331148718642 M 276.85725709716115 131.58208442433926 l 7.1171531387445 0 L 283.9744102359057 159.9839407395068 l -7.1171531387445 0 L 276.85725709716115 131.58208442433926 M 294.65013994402244 159.10549658773246 l 7.1171531387445 0 L 301.76729308276697 178.60071004315435 l -7.1171531387445 0 L 294.65013994402244 159.10549658773246 M 312.4430227908837 157.73655524958224 l 7.1171531387445 0 L 319.5601759296282 157.73798678819995 l -7.1171531387445 0 L 312.4430227908837 157.73655524958224 M 330.23590563774496 155.7908339883707 l 7.1171531387445 0 L 337.3530587764895 165.3628820256011 l -7.1171531387445 0 L 330.23590563774496 155.7908339883707 M 365.8216713314674 145.80038625514703 l 7.1171531387445 0 L 372.93882447021196 151.697154101228 l -7.1171531387445 0 L 365.8216713314674 145.80038625514703 M 374.7181127548981 151.69702396135364 l 7.1171531387445 0 L 381.8352658936426 155.54291752775882 l -7.1171531387445 0 L 374.7181127548981 151.69702396135364 M 383.61455417832866 155.5427873878845 l 7.1171531387445 0 L 390.7317073170732 161.54587951129872 l -7.1171531387445 0 L 383.61455417832866 155.5427873878845 M 392.5109956017593 161.54600965117308 l 7.1171531387445 0 L 399.62814874050383 163.6057334423038 l -7.1171531387445 0 L 392.5109956017593 161.54600965117308 M 401.40743702518995 163.60586358217813 l 7.1171531387445 0 L 408.5245901639345 165.9586623703156 l -7.1171531387445 0 L 401.40743702518995 163.60586358217813 M 410.3038784486206 165.9586623703156 l 7.1171531387445 0 L 417.4210315873651 174.57925778626867 l -7.1171531387445 0 L 410.3038784486206 165.9586623703156 M 419.20031987205124 174.57925778626867 l 7.1171531387445 0 L 426.31747301079577 174.93050530710406 l -7.1171531387445 0 L 419.20031987205124 174.57925778626867 M 445.8896441423431 162.1260430710928 l 7.1171531387445 0 L 453.00679728108764 162.91833462605607 l -7.1171531387445 0 L 445.8896441423431 162.1260430710928 M 472.57896841263494 144.05898459664445 l 7.1171531387445 0 L 479.69612155137946 144.45252757663937 l -7.1171531387445 0 L 472.57896841263494 144.05898459664445 M 481.47540983606564 144.45252757663937 l 7.1171531387445 0 L 488.59256297481016 144.49052841994575 l -7.1171531387445 0 L 481.47540983606564 144.45252757663937 M 490.3718512594962 144.48636394396695 l 7.1171531387445 0 L 497.48900439824075 153.9824102945846 l -7.1171531387445 0 L 490.3718512594962 144.48636394396695 M 499.2682926829268 154.00010931749443 l 7.1171531387445 0 L 506.38544582167134 165.68016303923457 l -7.1171531387445 0 L 499.2682926829268 154.00010931749443 M 508.16473410635746 165.68016303923457 l 7.1171531387445 0 L 515.281887245102 173.94222310138937 l -7.1171531387445 0 L 508.16473410635746 165.68016303923457 M 552.6469412235106 149.64706066079825 l 7.1171531387445 0 L 559.764094362255 154.81933982644546 l -7.1171531387445 0 L 552.6469412235106 149.64706066079825 M 579.3362654938024 120.97880802286298 l 7.1171531387445 0 L 586.4534186325469 123.25859834149745 l -7.1171531387445 0 L 579.3362654938024 120.97880802286298 M 588.232706917233 123.25859834149745 l 7.1171531387445 0 L 595.3498600559775 124.18402298790741 l -7.1171531387445 0 L 588.232706917233 123.25859834149745 M 597.1291483406637 124.18402298790741 l 7.1171531387445 0 L 604.2463014794082 130.26624015491848 l -7.1171531387445 0 L 597.1291483406637 124.18402298790741 M 606.0255897640943 130.26624015491848 l 7.1171531387445 0 L 613.1427429028388 133.30838985741875 l -7.1171531387445 0 L 606.0255897640943 130.26624015491848 M 623.8184726109555 131.6678466015273 l 7.1171531387445 0 L 630.9356257497 148.1465479096933 l -7.1171531387445 0 L 623.8184726109555 131.6678466015273 M 632.7149140343862 148.1465479096933 l 7.1171531387445 0 L 639.8320671731307 148.87832442308996 l -7.1171531387445 0 L 632.7149140343862 148.1465479096933 M 659.4042383046781 115.16454885711163 l 7.1171531387445 0 L 666.5213914434225 116.09504895862072 l -7.1171531387445 0 L 659.4042383046781 115.16454885711163 M 668.3006797281087 116.04910958297981 l 7.1171531387445 0 L 675.4178328668531 117.78999068198502 l -7.1171531387445 0 L 668.3006797281087 116.04910958297981 M 677.1971211515394 117.77528487618493 l 7.1171531387445 0 L 684.3142742902838 122.34735894139021 l -7.1171531387445 0 L 677.1971211515394 117.77528487618493 M 686.09356257497 122.30779641959177 l 7.1171531387445 0 L 693.2107157137144 122.67674296333702 l -7.1171531387445 0 L 686.09356257497 122.30779641959177 M 694.9900039984005 122.69118848938837 l 7.1171531387445 0 L 702.107157137145 126.32352252200664 l -7.1171531387445 0 L 694.9900039984005 122.69118848938837 M 703.8864454218311 126.34772853863332 l 7.1171531387445 0 L 711.0035985605756 128.52835227302305 l -7.1171531387445 0 L 703.8864454218311 126.34772853863332 M 712.7828868452618 128.54735269467625 l 7.1171531387445 0 L 719.9000399840063 131.07115527769247 l -7.1171531387445 0 L 712.7828868452618 128.54735269467625 M 730.5757696921231 122.08395583573223 l 7.1171531387445 0 L 737.6929228308676 126.7605322200301 l -7.1171531387445 0 L 730.5757696921231 122.08395583573223 M 757.265093962415 115.61053820646431 l 7.1171531387445 0 L 764.3822471011595 124.21317431975886 l -7.1171531387445 0 L 757.265093962415 115.61053820646431 M 775.0579768092763 113.74862702432576 l 7.1171531387445 0 L 782.1751299480208 114.00448201727217 l -7.1171531387445 0 L 775.0579768092763 113.74862702432576 M 801.747301079568 107.38465702937515 l 7.1171531387445 0 L 808.8644542183125 109.17824477748682 l -7.1171531387445 0 L 801.747301079568 107.38465702937515 M 810.6437425029987 109.1781146376125 l 7.1171531387445 0 L 817.7608956417432 111.91664801328469 l -7.1171531387445 0 L 810.6437425029987 109.1781146376125 M 819.5401839264293 111.93981291091663 l 7.1171531387445 0 L 826.6573370651738 115.04104611636585 l -7.1171531387445 0 L 819.5401839264293 111.93981291091663 M 828.43662534986 115.02269639408435 l 7.1171531387445 0 L 835.5537784886045 121.70524880141176 l -7.1171531387445 0 L 828.43662534986 115.02269639408435 M 837.3330667732906 121.70524880141176 l 7.1171531387445 0 L 844.4502199120351 123.676347338119 l -7.1171531387445 0 L 837.3330667732906 121.70524880141176 M 846.2295081967213 123.67309384126057 l 7.1171531387445 0 L 853.3466613354658 154.34784306172276 l -7.1171531387445 0 L 846.2295081967213 123.67309384126057 M 872.9188324670131 145.46826929583915 l 7.1171531387445 0 L 880.0359856057576 146.98921400721494 l -7.1171531387445 0 L 872.9188324670131 145.46826929583915"></path><path class="candle body equal"></path><path class="candle wick up" d="M 13.522590963614554 24.806872426484006 L 13.522590963614554 29.276396270711757 M 13.522590963614554 36.706341976356214 L 13.522590963614554 42.21945747289186 M 31.315473810475808 27.97174403048396 L 31.315473810475808 30.912254491127072 M 31.315473810475808 51.785388936028426 L 31.315473810475808 52.097073935065396 M 49.10835665733706 39.5411788590377 L 49.10835665733706 42.28869188603909 M 49.10835665733706 45.464755519232114 L 49.10835665733706 48.7667945507832 M 58.004798080767685 28.716013971816892 L 58.004798080767685 31.241378233325207 M 58.004798080767685 42.28856174616479 L 58.004798080767685 44.760698799069246 M 75.79768092762893 37.072685722614665 L 75.79768092762893 39.5620012389316 M 75.79768092762893 46.66035054476555 L 75.79768092762893 52.38832697383148 M 111.38344662135144 44.61897647591633 L 111.38344662135144 47.6729689069812 M 111.38344662135144 52.89834514135791 L 111.38344662135144 55.23839022181042 M 120.27988804478207 40.43133559950235 L 120.27988804478207 41.988849615566835 M 120.27988804478207 47.6729689069812 L 120.27988804478207 50.173216172742485 M 129.1763294682127 6.149629621917654 L 129.1763294682127 12.497592412324764 M 129.1763294682127 41.988849615566835 L 129.1763294682127 44.181446218395536 M 138.07277089164333 3.846153846153868 L 138.07277089164333 11.627997772005358 M 138.07277089164333 12.497462272450463 L 138.07277089164333 19.44979463927831 M 155.8656537385046 26.10007235777013 L 155.8656537385046 29.176318707346667 M 155.8656537385046 37.593505499711114 L 155.8656537385046 40.343230904576245 M 173.65853658536582 35.211425239847784 L 173.65853658536582 36.836091431070116 M 173.65853658536582 38.96817299233217 L 173.65853658536582 41.76891322793739 M 182.55497800879647 32.607066074616995 L 182.55497800879647 36.11810974435326 M 182.55497800879647 36.836221570944474 L 182.55497800879647 41.16480393126537 M 191.4514194322271 12.088692927158121 L 191.4514194322271 17.19720355438028 M 191.4514194322271 36.11823988422756 L 191.4514194322271 36.49525510018168 M 271.51939224310274 128.76741922218 L 271.51939224310274 131.58208442433926 M 271.51939224310274 137.4032410034305 L 271.51939224310274 163.75396275917356 M 289.31227508996403 147.43689517493402 L 289.31227508996403 159.10549658773246 M 289.31227508996403 159.99318067058476 L 289.31227508996403 161.99655389612755 M 307.10515793682526 154.58782099000004 L 307.10515793682526 157.73655524958224 M 307.10515793682526 178.60071004315435 L 307.10515793682526 191.74978266640986 M 324.89804078368655 142.78348368826815 L 324.89804078368655 155.79070384849635 M 324.89804078368655 157.7378566483256 L 324.89804078368655 160.67251081462354 M 342.6909236305478 149.16033753077807 L 342.6909236305478 150.75936616675602 M 342.6909236305478 165.36275188572677 L 342.6909236305478 166.6372116751084 M 351.5873650539784 144.9254558799798 L 351.5873650539784 149.09930192971407 M 351.5873650539784 150.75949630663038 L 351.5873650539784 155.6189192143716 M 360.483806477409 144.1955013248239 L 360.483806477409 145.8002561152727 M 360.483806477409 149.09943206958837 L 360.483806477409 153.40784274938704 M 431.65533786485406 169.79232278853308 L 431.65533786485406 174.11036381903267 M 431.65533786485406 174.93037516722973 L 431.65533786485406 181.0706347181951 M 440.5517792882847 160.59950234512056 L 440.5517792882847 162.1260430710928 M 440.5517792882847 174.11036381903267 L 440.5517792882847 177.50076782525855 M 458.34466213514594 156.41927944154375 L 458.34466213514594 157.86005799032802 M 458.34466213514594 162.91820448618174 L 458.34466213514594 168.31367353631683 M 467.2411035585766 141.28557373465003 L 467.2411035585766 144.0591147365188 M 467.2411035585766 157.86005799032802 L 467.2411035585766 161.9312236792104 M 520.6197520991603 160.43552610345597 L 520.6197520991603 162.14998880797083 M 520.6197520991603 173.90929771318213 L 520.6197520991603 179.37959719106095 M 529.5161935225909 153.4939953461981 L 529.5161935225909 157.54342767606624 M 529.5161935225909 162.14998880797083 L 529.5161935225909 170.20304423194048 M 538.4126349460215 149.58979911608998 L 538.4126349460215 154.4044539070593 M 538.4126349460215 157.54342767606624 L 538.4126349460215 160.23146678049565 M 547.3090763694522 144.52813884362914 L 547.3090763694522 149.64706066079825 M 547.3090763694522 154.4044539070593 L 547.3090763694522 158.97795951088227 M 565.1019592163135 129.0585421210717 L 565.1019592163135 133.54901848506773 M 565.1019592163135 154.8008599642896 L 565.1019592163135 155.28406931770266 M 573.998400639744 115.75343178848627 L 573.998400639744 121.00301403948966 M 573.998400639744 133.54901848506773 L 573.998400639744 144.65047032550584 M 618.4806077568971 125.97409695941198 L 618.4806077568971 131.6346609335714 M 618.4806077568971 133.34079468612862 L 618.4806077568971 135.8320623005606 M 645.169932027189 124.69885633078431 L 645.169932027189 126.78343683791337 M 645.169932027189 148.87832442308996 L 645.169932027189 151.63911171727375 M 654.0663734506197 110.55148073149019 L 654.0663734506197 115.19474130795778 M 654.0663734506197 126.75923082128669 L 654.0663734506197 131.60277666435883 M 725.2379048380647 120.01082763754482 L 725.2379048380647 122.09879178140667 M 725.2379048380647 131.07857325052967 L 725.2379048380647 131.54004924492844 M 743.0307876849259 120.93299878709637 L 743.0307876849259 123.89511246687941 M 743.0307876849259 126.7605322200301 L 743.0307876849259 128.18673510288858 M 751.9272291083566 109.96220738049254 L 751.9272291083566 115.62329191414933 M 751.9272291083566 123.89511246687941 L 751.9272291083566 124.15721417379399 M 769.7201119552178 110.20947314173273 L 769.7201119552178 113.74862702432576 M 769.7201119552178 124.19534515697471 L 769.7201119552178 130.5283418618331 M 787.512994802079 107.20974903826634 L 787.512994802079 107.89714785451403 M 787.512994802079 114.02140020093596 L 787.512994802079 118.5774670615978 M 796.4094362255097 101.59421346062749 L 796.4094362255097 107.40652052826375 M 796.4094362255097 107.92291554963273 L 796.4094362255097 109.36070088130721 M 858.6845261895241 147.21019151383908 L 858.6845261895241 150.36972738299124 M 858.6845261895241 154.34784306172276 L 858.6845261895241 155.29122701079118 M 867.5809676129546 141.78140665587372 L 867.5809676129546 145.48245454214188 M 867.5809676129546 150.36972738299124 L 867.5809676129546 151.29319993128613 M 885.3738504598159 143.2797070291149 L 885.3738504598159 146.9020202914092 M 885.3738504598159 146.97724113877595 L 885.3738504598159 153.6223132622943" style="stroke-width: 1px;"></path><path class="candle wick down" d="M 4.626149540183927 17.772421798949523 L 4.626149540183927 17.772551938823852 M 4.626149540183927 36.706341976356214 L 4.626149540183927 46.947959667050156 M 22.41903238704518 25.826908761536885 L 22.41903238704518 29.276396270711757 M 22.41903238704518 51.78551907590278 L 22.41903238704518 52.57742021124304 M 40.21191523390643 24.95054684775195 L 40.21191523390643 30.9123846310014 M 40.21191523390643 45.464755519232114 L 40.21191523390643 51.594473740376145 M 66.90123950419832 26.340700985419176 L 66.90123950419832 31.24150837319951 M 66.90123950419832 46.66022040489116 L 66.90123950419832 49.820016553792044 M 84.69412235105956 32.154960151170485 L 84.69412235105956 39.5620012389316 M 84.69412235105956 41.025163846101776 L 84.69412235105956 44.25185189041184 M 93.5905637744902 36.54197531506864 L 93.5905637744902 41.025293985976134 M 93.5905637744902 45.46033076350463 L 93.5905637744902 60.840130972769515 M 102.48700519792082 42.90555489039619 L 102.48700519792082 45.46033076350463 M 102.48700519792082 52.898475281232294 L 102.48700519792082 57.41302752198061 M 146.96921231507397 9.260363038193447 L 146.96921231507397 11.627867632131029 M 146.96921231507397 37.593635639585415 L 146.96921231507397 44.163486915737025 M 164.7620951619352 25.96993248343321 L 164.7620951619352 29.17618856747231 M 164.7620951619352 38.96817299233217 L 164.7620951619352 44.40606764150107 M 200.34786085565773 14.379675274985573 L 200.34786085565773 17.19720355438028 M 200.34786085565773 20.421679220826547 L 200.34786085565773 45.23115444479728 M 209.24430227908834 17.794285297838115 L 209.24430227908834 20.421809360700905 M 209.24430227908834 32.401835492787654 L 209.24430227908834 37.09845341773337 M 218.14074370251896 25.956918495999503 L 218.14074370251896 32.401835492787654 M 218.14074370251896 33.63608206099917 L 218.14074370251896 35.794191597128616 M 227.0371851259496 30.08495530996717 L 227.0371851259496 33.63608206099917 M 227.0371851259496 46.88497196787108 L 227.0371851259496 50.03279524833292 M 235.93362654938022 42.34920692760579 L 235.93362654938022 46.88510210774541 M 235.93362654938022 55.56764410388283 L 235.93362654938022 59.79341596347754 M 244.83006797281087 54.002581975106864 L 244.83006797281087 55.567513964008555 M 244.83006797281087 79.64573323408 L 244.83006797281087 79.83482647149157 M 253.72650939624148 75.46420893175984 L 253.72650939624148 79.64573323408 M 253.72650939624148 132.83546155407834 L 253.72650939624148 140.14463745633805 M 262.6229508196721 121.44210597550246 L 262.6229508196721 132.86331148718642 M 262.6229508196721 137.4033711433048 L 262.6229508196721 154.19675066761755 M 280.4158336665334 126.22019146178313 L 280.4158336665334 131.58208442433926 M 280.4158336665334 159.9839407395068 L 280.4158336665334 162.1873389519055 M 298.2087165133947 154.89872514979098 L 298.2087165133947 159.10549658773246 M 298.2087165133947 178.60071004315435 L 298.2087165133947 196.15384615384613 M 316.0015993602559 151.0213377337963 L 316.0015993602559 157.73655524958224 M 316.0015993602559 157.73798678819995 L 316.0015993602559 169.93027105533028 M 333.7944822071172 153.4939953461981 L 333.7944822071172 155.7908339883707 M 333.7944822071172 165.3628820256011 L 333.7944822071172 168.19316401268082 M 369.38024790083966 140.63617576170867 L 369.38024790083966 145.80038625514703 M 369.38024790083966 151.697154101228 L 369.38024790083966 152.6515999396151 M 378.2766893242703 145.16699548674916 L 378.2766893242703 151.69702396135364 M 378.2766893242703 155.54291752775882 L 378.2766893242703 158.56945044533865 M 387.1731307477009 149.4323298681423 L 387.1731307477009 155.5427873878845 M 387.1731307477009 161.54587951129872 L 387.1731307477009 162.57762843504202 M 396.06957217113154 159.58050712906228 L 396.06957217113154 161.54600965117308 M 396.06957217113154 163.6057334423038 L 396.06957217113154 167.09465333340276 M 404.9660135945622 162.87603916689656 L 404.9660135945622 163.60586358217813 M 404.9660135945622 165.9586623703156 L 404.9660135945622 183.08780277041762 M 413.86245501799283 153.25518867678983 L 413.86245501799283 165.9586623703156 M 413.86245501799283 174.57925778626867 L 413.86245501799283 178.5459211560585 M 422.7588964414235 172.13796388358207 L 422.7588964414235 174.57925778626867 M 422.7588964414235 174.93050530710406 L 422.7588964414235 178.51976304131682 M 449.44822071171535 155.44609346125213 L 449.44822071171535 162.1260430710928 M 449.44822071171535 162.91833462605607 L 449.44822071171535 174.25911369539978 M 476.13754498200717 132.31542261622792 L 476.13754498200717 144.05898459664445 M 476.13754498200717 144.45252757663937 L 476.13754498200717 149.72956934112784 M 485.0339864054379 139.43888891780887 L 485.0339864054379 144.45252757663937 M 485.0339864054379 144.49052841994575 L 485.0339864054379 148.0005309706873 M 493.93042782886846 144.2846471387447 L 493.93042782886846 144.48636394396695 M 493.93042782886846 153.9824102945846 L 493.93042782886846 156.68242226745306 M 502.82686925229905 153.9041962301081 L 502.82686925229905 154.00010931749443 M 502.82686925229905 165.68016303923457 L 502.82686925229905 166.83033924862443 M 511.7233106757297 164.4332929032124 L 511.7233106757297 165.68016303923457 M 511.7233106757297 173.94222310138937 L 511.7233106757297 175.09721448612967 M 556.2055177928828 143.284001644968 L 556.2055177928828 149.64706066079825 M 556.2055177928828 154.81933982644546 L 556.2055177928828 155.44596332137783 M 582.8948420631747 109.54914341934709 L 582.8948420631747 120.97880802286298 M 582.8948420631747 123.25859834149745 L 582.8948420631747 127.38546389659608 M 591.7912834866053 120.40241851942467 L 591.7912834866053 123.25859834149745 M 591.7912834866053 124.18402298790741 L 591.7912834866053 134.73485302002592 M 600.687724910036 116.31967038172625 L 600.687724910036 124.18402298790741 M 600.687724910036 130.26624015491848 L 600.687724910036 132.6716154522881 M 609.5841663334666 126.1546009651173 L 609.5841663334666 130.26624015491848 M 609.5841663334666 133.30838985741875 L 609.5841663334666 140.03011436692157 M 627.3770491803277 130.51129353829498 L 627.3770491803277 131.6678466015273 M 627.3770491803277 148.1465479096933 L 627.3770491803277 148.93909974440527 M 636.2734906037584 147.66607149364137 L 636.2734906037584 148.1465479096933 M 636.2734906037584 148.87832442308996 L 636.2734906037584 156.01220191461783 M 662.9628148740503 107.38986262434865 L 662.9628148740503 115.16454885711163 M 662.9628148740503 116.09504895862072 L 662.9628148740503 120.77644051826904 M 671.8592562974809 104.4572906960401 L 671.8592562974809 116.04910958297981 M 671.8592562974809 117.78999068198502 L 671.8592562974809 119.62834654686857 M 680.7556977209116 110.61524926991531 L 680.7556977209116 117.77528487618493 M 680.7556977209116 122.34735894139021 L 680.7556977209116 123.20641225188831 M 689.6521391443422 119.53165262023623 L 689.6521391443422 122.30779641959177 M 689.6521391443422 122.67674296333702 L 689.6521391443422 128.11671985049531 M 698.5485805677728 120.17961905455985 L 698.5485805677728 122.69118848938837 M 698.5485805677728 126.32352252200664 L 698.5485805677728 130.66264621214884 M 707.4450219912034 117.73572235438648 L 707.4450219912034 126.34772853863332 M 707.4450219912034 128.52835227302305 L 707.4450219912034 130.31322064955413 M 716.3414634146341 123.25833806174877 L 716.3414634146341 128.54735269467625 M 716.3414634146341 131.07115527769247 L 716.3414634146341 133.9730141956575 M 734.1343462614954 121.55298514843753 L 734.1343462614954 122.08395583573223 M 734.1343462614954 126.7605322200301 L 734.1343462614954 127.34212731844185 M 760.8236705317872 114.01931796294657 L 760.8236705317872 115.61053820646431 M 760.8236705317872 124.21317431975886 L 760.8236705317872 127.92151003898991 M 778.6165533786485 101.19676628440246 L 778.6165533786485 113.74862702432576 M 778.6165533786485 114.00448201727217 L 778.6165533786485 115.0750126235678 M 805.3058776489403 99.5177016257073 L 805.3058776489403 107.38465702937515 M 805.3058776489403 109.17824477748682 L 805.3058776489403 111.27662011129561 M 814.202319072371 97.38653104356563 L 814.202319072371 109.1781146376125 M 814.202319072371 111.91664801328469 L 814.202319072371 116.10194637196057 M 823.0987604958016 109.92980255178263 L 823.0987604958016 111.93981291091663 M 823.0987604958016 115.04104611636585 L 823.0987604958016 117.42937309019733 M 831.9952019192323 107.33715597524221 L 831.9952019192323 115.02269639408435 M 831.9952019192323 121.70524880141176 L 831.9952019192323 123.81689840240288 M 840.8916433426629 118.356229275225 L 840.8916433426629 121.70524880141176 M 840.8916433426629 123.676347338119 L 840.8916433426629 124.71954857080388 M 849.7880847660936 123.44899297765241 L 849.7880847660936 123.67309384126057 M 849.7880847660936 154.34784306172276 L 849.7880847660936 155.00921390310305 M 876.4774090363853 145.05169155808665 L 876.4774090363853 145.46826929583915 M 876.4774090363853 146.98921400721494 L 876.4774090363853 153.62179270279694" style="stroke-width: 1px;"></path><path class="candle wick equal" style="stroke-width: 1px;"></path></g></g><g class="x axis" transform="translate(0,200)" fill="none" font-size="10" font-family="sans-serif" text-anchor="middle"><path class="domain" stroke="#000" d="M0.5,6V0.5H890.5V6"></path><g class="tick" opacity="1" transform="translate(4.626149540183927,0)"><line stroke="#000" y2="6" x1="0.5" x2="0.5"></line><text fill="#000" y="9" x="0.5" dy="0.71em">May 16</text></g><g class="tick" opacity="1" transform="translate(66.90123950419832,0)"><line stroke="#000" y2="6" x1="0.5" x2="0.5"></line><text fill="#000" y="9" x="0.5" dy="0.71em">May 23</text></g><g class="tick" opacity="1" transform="translate(129.1763294682127,0)"><line stroke="#000" y2="6" x1="0.5" x2="0.5"></line><text fill="#000" y="9" x="0.5" dy="0.71em">May 30</text></g><g class="tick" opacity="1" transform="translate(191.4514194322271,0)"><line stroke="#000" y2="6" x1="0.5" x2="0.5"></line><text fill="#000" y="9" x="0.5" dy="0.71em">Jun  6</text></g><g class="tick" opacity="1" transform="translate(253.72650939624148,0)"><line stroke="#000" y2="6" x1="0.5" x2="0.5"></line><text fill="#000" y="9" x="0.5" dy="0.71em">Jun 13</text></g><g class="tick" opacity="1" transform="translate(316.0015993602559,0)"><line stroke="#000" y2="6" x1="0.5" x2="0.5"></line><text fill="#000" y="9" x="0.5" dy="0.71em">Jun 20</text></g><g class="tick" opacity="1" transform="translate(378.2766893242703,0)"><line stroke="#000" y2="6" x1="0.5" x2="0.5"></line><text fill="#000" y="9" x="0.5" dy="0.71em">Jun 27</text></g><g class="tick" opacity="1" transform="translate(440.5517792882847,0)"><line stroke="#000" y2="6" x1="0.5" x2="0.5"></line><text fill="#000" y="9" x="0.5" dy="0.71em">Jul  4</text></g><g class="tick" opacity="1" transform="translate(502.82686925229905,0)"><line stroke="#000" y2="6" x1="0.5" x2="0.5"></line><text fill="#000" y="9" x="0.5" dy="0.71em">Jul 11</text></g><g class="tick" opacity="1" transform="translate(565.1019592163135,0)"><line stroke="#000" y2="6" x1="0.5" x2="0.5"></line><text fill="#000" y="9" x="0.5" dy="0.71em">Jul 18</text></g><g class="tick" opacity="1" transform="translate(627.3770491803277,0)"><line stroke="#000" y2="6" x1="0.5" x2="0.5"></line><text fill="#000" y="9" x="0.5" dy="0.71em">Jul 25</text></g><g class="tick" opacity="1" transform="translate(689.6521391443422,0)"><line stroke="#000" y2="6" x1="0.5" x2="0.5"></line><text fill="#000" y="9" x="0.5" dy="0.71em">Aug  1</text></g><g class="tick" opacity="1" transform="translate(751.9272291083566,0)"><line stroke="#000" y2="6" x1="0.5" x2="0.5"></line><text fill="#000" y="9" x="0.5" dy="0.71em">Aug  8</text></g><g class="tick" opacity="1" transform="translate(814.202319072371,0)"><line stroke="#000" y2="6" x1="0.5" x2="0.5"></line><text fill="#000" y="9" x="0.5" dy="0.71em">Aug 15</text></g><g class="tick" opacity="1" transform="translate(876.4774090363853,0)"><line stroke="#000" y2="6" x1="0.5" x2="0.5"></line><text fill="#000" y="9" x="0.5" dy="0.71em">Aug 22</text></g></g><g class="y axis" fill="none" font-size="10" font-family="sans-serif" text-anchor="end"><path class="domain" stroke="#000" d="M-6,200.5H0.5V0.5H-6"></path><g class="tick" opacity="1" transform="translate(0,191.2345589039099)"><line stroke="#000" x2="-6" y1="0.5" y2="0.5"></line><text fill="#000" x="-9" y="0.5" dy="0.32em">18,000</text></g><g class="tick" opacity="1" transform="translate(0,165.20658403652246)"><line stroke="#000" x2="-6" y1="0.5" y2="0.5"></line><text fill="#000" x="-9" y="0.5" dy="0.32em">20,000</text></g><g class="tick" opacity="1" transform="translate(0,139.17860916913497)"><line stroke="#000" x2="-6" y1="0.5" y2="0.5"></line><text fill="#000" x="-9" y="0.5" dy="0.32em">22,000</text></g><g class="tick" opacity="1" transform="translate(0,113.15063430174752)"><line stroke="#000" x2="-6" y1="0.5" y2="0.5"></line><text fill="#000" x="-9" y="0.5" dy="0.32em">24,000</text></g><g class="tick" opacity="1" transform="translate(0,87.12265943436006)"><line stroke="#000" x2="-6" y1="0.5" y2="0.5"></line><text fill="#000" x="-9" y="0.5" dy="0.32em">26,000</text></g><g class="tick" opacity="1" transform="translate(0,61.094684566972575)"><line stroke="#000" x2="-6" y1="0.5" y2="0.5"></line><text fill="#000" x="-9" y="0.5" dy="0.32em">28,000</text></g><g class="tick" opacity="1" transform="translate(0,35.06670969958512)"><line stroke="#000" x2="-6" y1="0.5" y2="0.5"></line><text fill="#000" x="-9" y="0.5" dy="0.32em">30,000</text></g><g class="tick" opacity="1" transform="translate(0,9.038734832197662)"><line stroke="#000" x2="-6" y1="0.5" y2="0.5"></line><text fill="#000" x="-9" y="0.5" dy="0.32em">32,000</text></g><text transform="rotate(-90)" y="6" dy=".71em" style="text-anchor: end;">Price ($)</text></g></g></svg>