<?xml version="1.0" encoding="utf-8"?>
<!DOCTYPE svg PUBLIC "-//W3C//DTD SVG 1.1//EN" "http://www.w3.org/Graphics/SVG/1.1/DTD/svg11.dtd">
<svg version="1.1" xmlns="http://www.w3.org/2000/svg" width="960" height="250"><g transform="translate(50,20)"><style>.axis path,.axis line{fill:none;stroke:#000;shape-rendering:crispEdges;}path.candle{stroke:#000000;}path.candle.body{stroke-width:0;}path.candle.up{fill:#00AA00;stroke:#00AA00;}path.candle.down{fill:#FF0000;stroke:#FF0000;}</style><g class="candlestick"><g class="data"><path class="candle body up" d="M 18.860455817672932 93.97408498747903 l 7.1171531387445 0 L 25.977608956417434 87.4134184968425 l -7.1171531387445 0 L 18.860455817672932 93.97408498747903 M 27.75689724110356 87.4134184968425 l 7.1171531387445 0 L 34.87405037984806 59.045175041571554 l -7.1171531387445 0 L 27.75689724110356 87.4134184968425 M 54.446221511395436 87.42278305271233 l 7.1171531387445 0 L 61.563374650139934 86.73554833467804 l -7.1171531387445 0 L 54.446221511395436 87.42278305271233 M 72.23910435825668 95.8351579493135 l 7.1171531387445 0 L 79.35625749700118 79.10246350720918 l -7.1171531387445 0 L 72.23910435825668 95.8351579493135 M 90.03198720511796 82.55710117452024 l 7.1171531387445 0 L 97.14914034386246 66.35756800293103 l -7.1171531387445 0 L 90.03198720511796 82.55710117452024 M 107.82487005197919 68.09009918372169 l 7.1171531387445 0 L 114.94202319072369 60.67248748612627 l -7.1171531387445 0 L 107.82487005197919 68.09009918372169 M 116.72131147540982 60.67248748612627 l 7.1171531387445 0 L 123.83846461415432 56.75333250972358 l -7.1171531387445 0 L 116.72131147540982 60.67248748612627 M 143.4106357457017 67.34473354340088 l 7.1171531387445 0 L 150.5277888844462 55.313311182566025 l -7.1171531387445 0 L 143.4106357457017 67.34473354340088 M 152.30707716913233 55.313311182566025 l 7.1171531387445 0 L 159.42423030787683 50.73148136107065 l -7.1171531387445 0 L 152.30707716913233 55.313311182566025 M 161.20351859256294 50.73148136107065 l 7.1171531387445 0 L 168.32067173130744 40.936685990398246 l -7.1171531387445 0 L 161.20351859256294 50.73148136107065 M 170.09996001599356 40.936685990398246 l 7.1171531387445 0 L 177.21711315473806 38.09463162876267 l -7.1171531387445 0 L 170.09996001599356 40.936685990398246 M 178.9964014394242 38.09463162876267 l 7.1171531387445 0 L 186.1135545781687 36.34443147463273 l -7.1171531387445 0 L 178.9964014394242 38.09463162876267 M 187.89284286285485 36.34443147463273 l 7.1171531387445 0 L 195.00999600159935 15.879431449189383 l -7.1171531387445 0 L 187.89284286285485 36.34443147463273 M 196.78928428628546 15.879431449189383 l 7.1171531387445 0 L 203.90643742502996 13.278116849302592 l -7.1171531387445 0 L 196.78928428628546 15.879431449189383 M 205.68572570971608 13.278116849302592 l 7.1171531387445 0 L 212.80287884846058 10.516544661227783 l -7.1171531387445 0 L 205.68572570971608 13.278116849302592 M 232.37504998000796 27.51807253269044 l 7.1171531387445 0 L 239.49220311875246 20.687777508895266 l -7.1171531387445 0 L 232.37504998000796 27.51807253269044 M 250.16793282686922 24.862072460318302 l 7.1171531387445 0 L 257.28508596561375 19.593537989988874 l -7.1171531387445 0 L 250.16793282686922 24.862072460318302 M 259.06437425029986 19.593449645122178 l 7.1171531387445 0 L 266.1815273890444 18.063758278267358 l -7.1171531387445 0 L 259.06437425029986 19.593449645122178 M 285.7536985205918 48.1897112013375 l 7.1171531387445 0 L 292.8708516593363 45.771535510113125 l -7.1171531387445 0 L 285.7536985205918 48.1897112013375 M 303.54658136745303 56.303745483103654 l 7.1171531387445 0 L 310.66373450619756 51.869274899258556 l -7.1171531387445 0 L 303.54658136745303 56.303745483103654 M 330.23590563774496 80.34741936870032 l 7.1171531387445 0 L 337.3530587764895 75.53712972192707 l -7.1171531387445 0 L 330.23590563774496 80.34741936870032 M 339.13234706117555 75.53704137706043 l 7.1171531387445 0 L 346.2495001999201 66.05905069836263 l -7.1171531387445 0 L 339.13234706117555 75.53704137706043 M 356.9252299080368 76.70831761972634 l 7.1171531387445 0 L 364.0423830467813 71.32343295995727 l -7.1171531387445 0 L 356.9252299080368 76.70831761972634 M 383.61455417832866 79.04291906705556 l 7.1171531387445 0 L 390.7317073170732 69.12161384727335 l -7.1171531387445 0 L 383.61455417832866 79.04291906705556 M 392.5109956017593 69.12161384727335 l 7.1171531387445 0 L 399.62814874050383 63.0077073475224 l -7.1171531387445 0 L 392.5109956017593 69.12161384727335 M 436.99320271891247 81.1322751644345 l 7.1171531387445 0 L 444.110355857657 81.05700533800888 l -7.1171531387445 0 L 436.99320271891247 81.1322751644345 M 445.8896441423431 81.05709368287552 l 7.1171531387445 0 L 453.00679728108764 72.4349880727362 l -7.1171531387445 0 L 445.8896441423431 81.05709368287552 M 463.68252698920435 92.87304291383703 l 7.1171531387445 0 L 470.7996801279489 82.95120762485459 l -7.1171531387445 0 L 463.68252698920435 92.87304291383703 M 472.57896841263494 82.95120762485459 l 7.1171531387445 0 L 479.69612155137946 78.47786529966294 l -7.1171531387445 0 L 472.57896841263494 82.95120762485459 M 499.2682926829268 97.12985197075483 l 7.1171531387445 0 L 506.38544582167134 89.73052766056573 l -7.1171531387445 0 L 499.2682926829268 97.12985197075483 M 508.16473410635746 89.73052766056573 l 7.1171531387445 0 L 515.281887245102 89.22864047286126 l -7.1171531387445 0 L 508.16473410635746 89.73052766056573 M 525.9576169532187 96.26274710412595 l 7.1171531387445 0 L 533.0747700919632 78.9378770205531 l -7.1171531387445 0 L 525.9576169532187 96.26274710412595 M 579.3362654938024 163.8882689042466 l 7.1171531387445 0 L 586.4534186325469 155.5584964580069 l -7.1171531387445 0 L 579.3362654938024 163.8882689042466 M 606.0255897640943 173.11580188585896 l 7.1171531387445 0 L 613.1427429028388 170.84260012088404 l -7.1171531387445 0 L 606.0255897640943 173.11580188585896 M 614.9220311875249 170.84260012088404 l 7.1171531387445 0 L 622.0391843262694 163.7777494760089 l -7.1171531387445 0 L 614.9220311875249 170.84260012088404 M 623.8184726109555 163.7777494760089 l 7.1171531387445 0 L 630.9356257497 152.80399185926788 l -7.1171531387445 0 L 623.8184726109555 163.7777494760089 M 641.6113554578168 165.65710982524962 l 7.1171531387445 0 L 648.7285085965613 160.6133246957968 l -7.1171531387445 0 L 641.6113554578168 165.65710982524962 M 659.4042383046781 175.89345283967256 l 7.1171531387445 0 L 666.5213914434225 161.72381967017537 l -7.1171531387445 0 L 659.4042383046781 175.89345283967256 M 677.1971211515394 171.60271935394317 l 7.1171531387445 0 L 684.3142742902838 169.44666288220813 l -7.1171531387445 0 L 677.1971211515394 171.60271935394317 M 686.09356257497 169.44657453734146 l 7.1171531387445 0 L 693.2107157137144 161.94724383805155 l -7.1171531387445 0 L 686.09356257497 169.44657453734146 M 703.8864454218311 172.41434364428653 l 7.1171531387445 0 L 711.0035985605756 167.59566123517712 l -7.1171531387445 0 L 703.8864454218311 172.41434364428653 M 739.4722111155537 176.64897813966346 l 7.1171531387445 0 L 746.5893642542982 173.1017550520542 l -7.1171531387445 0 L 739.4722111155537 176.64897813966346 M 748.3686525389844 173.1017550520542 l 7.1171531387445 0 L 755.4858056777289 169.24311630933877 l -7.1171531387445 0 L 748.3686525389844 173.1017550520542 M 757.265093962415 169.24311630933877 l 7.1171531387445 0 L 764.3822471011595 149.22310937744714 l -7.1171531387445 0 L 757.265093962415 169.24311630933877 M 766.1615353858456 149.22302103258045 l 7.1171531387445 0 L 773.27868852459 148.63278897817924 l -7.1171531387445 0 L 766.1615353858456 149.22302103258045 M 783.9544182327068 166.25935678152157 l 7.1171531387445 0 L 791.0715713714512 160.54538749330698 l -7.1171531387445 0 L 783.9544182327068 166.25935678152157 M 801.747301079568 167.1925436084397 l 7.1171531387445 0 L 808.8644542183125 165.7451896573463 l -7.1171531387445 0 L 801.747301079568 167.1925436084397 M 810.6437425029987 165.745278002213 l 7.1171531387445 0 L 817.7608956417432 165.25779102778014 l -7.1171531387445 0 L 810.6437425029987 165.745278002213 M 819.5401839264293 165.2578793726468 l 7.1171531387445 0 L 826.6573370651738 152.41341920360142 l -7.1171531387445 0 L 819.5401839264293 165.2578793726468 M 881.8152738904437 194.80632190212012 l 7.1171531387445 0 L 888.9324270291881 194.19382694131127 l -7.1171531387445 0 L 881.8152738904437 194.80632190212012"></path><path class="candle body down" d="M 1.0675729708116766 81.51781216269927 l 7.1171531387445 0 L 8.184726109556177 90.15051915684225 l -7.1171531387445 0 L 1.0675729708116766 81.51781216269927 M 9.964014394242305 90.15060750170892 l 7.1171531387445 0 L 17.081167532986804 93.97417333234574 l -7.1171531387445 0 L 9.964014394242305 90.15060750170892 M 36.65333866453418 59.04526338643828 l 7.1171531387445 0 L 43.77049180327868 81.30551944802691 l -7.1171531387445 0 L 36.65333866453418 59.04526338643828 M 45.54978008796481 81.3054311031602 l 7.1171531387445 0 L 52.66693322670931 87.42278305271233 l -7.1171531387445 0 L 45.54978008796481 81.3054311031602 M 63.342662934826066 86.73563667954475 l 7.1171531387445 0 L 70.45981607357056 95.83524629418024 l -7.1171531387445 0 L 63.342662934826066 86.73563667954475 M 81.13554578168731 79.10246350720918 l 7.1171531387445 0 L 88.25269892043181 82.55710117452024 l -7.1171531387445 0 L 81.13554578168731 79.10246350720918 M 98.92842862854857 66.35747965806434 l 7.1171531387445 0 L 106.04558176729307 68.09001083885497 l -7.1171531387445 0 L 98.92842862854857 66.35747965806434 M 125.61775289884046 56.75333250972358 l 7.1171531387445 0 L 132.73490603758498 65.049092182285 l -7.1171531387445 0 L 125.61775289884046 56.75333250972358 M 134.51419432227107 65.049092182285 l 7.1171531387445 0 L 141.63134746101557 67.34482188826763 l -7.1171531387445 0 L 134.51419432227107 65.049092182285 M 214.5821671331467 10.51663300609448 l 7.1171531387445 0 L 221.6993202718912 13.757122716532564 l -7.1171531387445 0 L 214.5821671331467 10.51663300609448 M 223.47860855657734 13.757122716532564 l 7.1171531387445 0 L 230.59576169532184 27.518160877557136 l -7.1171531387445 0 L 223.47860855657734 13.757122716532564 M 241.2714914034386 20.687777508895266 l 7.1171531387445 0 L 248.3886445421831 24.861984115451605 l -7.1171531387445 0 L 241.2714914034386 20.687777508895266 M 267.9608156737305 18.063846623134083 l 7.1171531387445 0 L 275.07796881247504 27.631153962062257 l -7.1171531387445 0 L 267.9608156737305 18.063846623134083 M 276.85725709716115 27.631242306928982 l 7.1171531387445 0 L 283.9744102359057 48.1897112013375 l -7.1171531387445 0 L 276.85725709716115 27.631242306928982 M 294.65013994402244 45.77144716524646 l 7.1171531387445 0 L 301.76729308276697 56.303833827970294 l -7.1171531387445 0 L 294.65013994402244 45.77144716524646 M 312.4430227908837 51.86936324412528 l 7.1171531387445 0 L 319.5601759296282 57.126854606117604 l -7.1171531387445 0 L 312.4430227908837 51.86936324412528 M 321.3394642143143 57.126854606117604 l 7.1171531387445 0 L 328.45661735305885 80.34741936870032 l -7.1171531387445 0 L 321.3394642143143 57.126854606117604 M 348.02878848460614 66.05913904322932 l 7.1171531387445 0 L 355.14594162335067 76.70822927485969 l -7.1171531387445 0 L 348.02878848460614 66.05913904322932 M 365.8216713314674 71.32343295995727 l 7.1171531387445 0 L 372.93882447021196 72.85347770627891 l -7.1171531387445 0 L 365.8216713314674 71.32343295995727 M 374.7181127548981 72.8535660511456 l 7.1171531387445 0 L 381.8352658936426 79.04283072218885 l -7.1171531387445 0 L 374.7181127548981 72.8535660511456 M 401.40743702518995 63.00761900265567 l 7.1171531387445 0 L 408.5245901639345 64.20027470306226 l -7.1171531387445 0 L 401.40743702518995 63.00761900265567 M 410.3038784486206 64.20027470306226 l 7.1171531387445 0 L 417.4210315873651 71.95854420664045 l -7.1171531387445 0 L 410.3038784486206 64.20027470306226 M 419.20031987205124 71.95854420664045 l 7.1171531387445 0 L 426.31747301079577 78.76843156622866 l -7.1171531387445 0 L 419.20031987205124 71.95854420664045 M 428.0967612954818 78.76834322136195 l 7.1171531387445 0 L 435.21391443422635 81.13236350930121 l -7.1171531387445 0 L 428.0967612954818 78.76834322136195 M 454.7860855657737 72.4349880727362 l 7.1171531387445 0 L 461.90323870451823 92.87295456897031 l -7.1171531387445 0 L 454.7860855657737 72.4349880727362 M 481.47540983606564 78.47795364452965 l 7.1171531387445 0 L 488.59256297481016 88.6018336436476 l -7.1171531387445 0 L 481.47540983606564 78.47795364452965 M 490.3718512594962 88.6018336436476 l 7.1171531387445 0 L 497.48900439824075 97.12985197075483 l -7.1171531387445 0 L 490.3718512594962 88.6018336436476 M 517.0611755297881 89.22864047286126 l 7.1171531387445 0 L 524.1783286685326 96.26274710412595 l -7.1171531387445 0 L 517.0611755297881 89.22864047286126 M 534.8540583766493 78.9378770205531 l 7.1171531387445 0 L 541.9712115153937 106.65192673793433 l -7.1171531387445 0 L 534.8540583766493 78.9378770205531 M 543.75049980008 106.65192673793433 l 7.1171531387445 0 L 550.8676529388244 111.41548195022496 l -7.1171531387445 0 L 543.75049980008 106.65192673793433 M 552.6469412235106 111.41548195022496 l 7.1171531387445 0 L 559.764094362255 116.19829634345543 l -7.1171531387445 0 L 552.6469412235106 111.41548195022496 M 561.5433826469413 116.19820799858871 l 7.1171531387445 0 L 568.6605357856857 128.86686188290753 l -7.1171531387445 0 L 561.5433826469413 116.19820799858871 M 570.4398240703717 128.86695022777425 l 7.1171531387445 0 L 577.5569772091162 163.86989317197364 l -7.1171531387445 0 L 570.4398240703717 128.86695022777425 M 588.232706917233 155.55840811314022 l 7.1171531387445 0 L 595.3498600559775 172.46028297496886 l -7.1171531387445 0 L 588.232706917233 155.55840811314022 M 597.1291483406637 172.46028297496886 l 7.1171531387445 0 L 604.2463014794082 173.1157135409923 l -7.1171531387445 0 L 597.1291483406637 172.46028297496886 M 632.7149140343862 152.80399185926788 l 7.1171531387445 0 L 639.8320671731307 165.65710982524962 l -7.1171531387445 0 L 632.7149140343862 152.80399185926788 M 650.5077968812475 160.6133246957968 l 7.1171531387445 0 L 657.624950019992 175.89354118453926 l -7.1171531387445 0 L 650.5077968812475 160.6133246957968 M 668.3006797281087 161.72390801504207 l 7.1171531387445 0 L 675.4178328668531 171.60271935394317 l -7.1171531387445 0 L 668.3006797281087 161.72390801504207 M 694.9900039984005 161.94733218291825 l 7.1171531387445 0 L 702.107157137145 172.4142552994198 l -7.1171531387445 0 L 694.9900039984005 161.94733218291825 M 712.7828868452618 167.59566123517712 l 7.1171531387445 0 L 719.9000399840063 168.58892257144907 l -7.1171531387445 0 L 712.7828868452618 167.59566123517712 M 721.6793282686924 168.58901091631577 l 7.1171531387445 0 L 728.7964814074369 171.59971562847548 l -7.1171531387445 0 L 721.6793282686924 168.58901091631577 M 730.5757696921231 171.59971562847548 l 7.1171531387445 0 L 737.6929228308676 176.64906648453018 l -7.1171531387445 0 L 730.5757696921231 171.59971562847548 M 775.0579768092763 148.63270063331254 l 7.1171531387445 0 L 782.1751299480208 166.25944512638824 l -7.1171531387445 0 L 775.0579768092763 148.63270063331254 M 792.8508596561375 160.54529914844028 l 7.1171531387445 0 L 799.9680127948819 167.1925436084397 l -7.1171531387445 0 L 792.8508596561375 160.54529914844028 M 828.43662534986 152.41341920360142 l 7.1171531387445 0 L 835.5537784886045 154.6023399657476 l -7.1171531387445 0 L 828.43662534986 152.41341920360142 M 837.3330667732906 154.60242831061433 l 7.1171531387445 0 L 844.4502199120351 162.73501501438676 l -7.1171531387445 0 L 837.3330667732906 154.60242831061433 M 846.2295081967213 162.73501501438676 l 7.1171531387445 0 L 853.3466613354658 163.57287773013906 l -7.1171531387445 0 L 846.2295081967213 162.73501501438676 M 855.1259496201519 163.57287773013906 l 7.1171531387445 0 L 862.2431027588964 172.56682688420517 l -7.1171531387445 0 L 855.1259496201519 163.57287773013906 M 864.0223910435824 172.56691522907187 l 7.1171531387445 0 L 871.1395441823269 178.4610197004812 l -7.1171531387445 0 L 864.0223910435824 172.56691522907187 M 872.9188324670131 178.46093135561452 l 7.1171531387445 0 L 880.0359856057576 194.80632190212012 l -7.1171531387445 0 L 872.9188324670131 178.46093135561452"></path><path class="candle body equal"></path><path class="candle wick up" d="M 22.41903238704518 81.83488188927403 L 22.41903238704518 87.4134184968425 M 22.41903238704518 93.97408498747903 L 22.41903238704518 95.03740380304153 M 31.315473810475808 53.28199766260687 L 31.315473810475808 59.045175041571554 M 31.315473810475808 87.4134184968425 L 31.315473810475808 88.06876071799923 M 58.004798080767685 80.73383981563202 L 58.004798080767685 86.73554833467804 M 58.004798080767685 87.42278305271233 L 58.004798080767685 88.03280435725365 M 75.79768092762893 76.66635380804536 L 75.79768092762893 79.10246350720918 M 75.79768092762893 95.8351579493135 L 75.79768092762893 97.79950606031649 M 93.5905637744902 61.0215380544453 L 93.5905637744902 66.35756800293103 M 93.5905637744902 82.55710117452024 L 93.5905637744902 86.54896397621441 M 111.38344662135144 55.65882795621715 L 111.38344662135144 60.67248748612627 M 111.38344662135144 68.09009918372169 L 111.38344662135144 75.00617707307941 M 120.27988804478207 54.99641814572462 L 120.27988804478207 56.75333250972358 M 120.27988804478207 60.67248748612627 L 120.27988804478207 62.953728633970655 M 146.96921231507397 46.50647645616368 L 146.96921231507397 55.313311182566025 M 146.96921231507397 67.34473354340088 L 146.96921231507397 68.46450472878266 M 155.8656537385046 49.46638286997273 L 155.8656537385046 50.73148136107065 M 155.8656537385046 55.313311182566025 L 155.8656537385046 60.72584778561114 M 164.7620951619352 38.90978971377393 L 164.7620951619352 40.936685990398246 M 164.7620951619352 50.73148136107065 L 164.7620951619352 53.578836414708036 M 173.65853658536582 31.195074229477257 L 173.65853658536582 38.09463162876267 M 173.65853658536582 40.936685990398246 L 173.65853658536582 44.580558362173775 M 182.55497800879647 33.85557989005093 L 182.55497800879647 36.34443147463273 M 182.55497800879647 38.09463162876267 L 182.55497800879647 40.225421468622415 M 191.4514194322271 14.36661395187366 L 191.4514194322271 15.879431449189383 M 191.4514194322271 36.34443147463273 L 191.4514194322271 37.13785672243654 M 200.34786085565773 3.846153846153868 L 200.34786085565773 13.278116849302592 M 200.34786085565773 15.879431449189383 L 200.34786085565773 17.330054160350613 M 209.24430227908834 4.671029866501698 L 209.24430227908834 10.516544661227783 M 209.24430227908834 13.278116849302592 L 209.24430227908834 14.791994485018677 M 235.93362654938022 16.83064062891367 L 235.93362654938022 20.687777508895266 M 235.93362654938022 27.51807253269044 L 235.93362654938022 39.094342140303496 M 253.72650939624148 10.434295590333079 L 253.72650939624148 19.593537989988874 M 253.72650939624148 24.862072460318302 L 253.72650939624148 27.336347141895146 M 262.6229508196721 15.323300513333152 L 262.6229508196721 18.063758278267358 M 262.6229508196721 19.593449645122178 L 262.6229508196721 30.98428337753873 M 289.31227508996403 41.735941999404076 L 289.31227508996403 45.771535510113125 M 289.31227508996403 48.1897112013375 L 289.31227508996403 52.10444893440541 M 307.10515793682526 51.46262347785327 L 307.10515793682526 51.869274899258556 M 307.10515793682526 56.303745483103654 L 307.10515793682526 57.421661426284714 M 333.7944822071172 70.02387997084759 L 333.7944822071172 75.53712972192707 M 333.7944822071172 80.34741936870032 L 333.7944822071172 82.78414748193102 M 342.6909236305478 62.40581377071723 L 342.6909236305478 66.05905069836263 M 342.6909236305478 75.53704137706043 L 342.6909236305478 79.83422403805866 M 360.483806477409 68.5100023351315 L 360.483806477409 71.32343295995727 M 360.483806477409 76.70831761972634 L 360.483806477409 78.26292223898965 M 387.1731307477009 66.33344985432282 L 387.1731307477009 69.12161384727335 M 387.1731307477009 79.04291906705556 L 387.1731307477009 89.12836904916041 M 396.06957217113154 60.650489614318815 L 396.06957217113154 63.0077073475224 M 396.06957217113154 69.12161384727335 L 396.06957217113154 71.15469426456642 M 440.5517792882847 76.72925535313351 L 440.5517792882847 81.05700533800888 M 440.5517792882847 81.1322751644345 L 440.5517792882847 85.65544399444313 M 449.44822071171535 70.7571423644309 L 449.44822071171535 72.4349880727362 M 449.44822071171535 81.05709368287552 L 449.44822071171535 92.10126215837391 M 467.2411035585766 80.83976531080145 L 467.2411035585766 82.95120762485459 M 467.2411035585766 92.87304291383703 L 467.2411035585766 94.91672471513375 M 476.13754498200717 72.90719138523056 L 476.13754498200717 78.47786529966294 M 476.13754498200717 82.95120762485459 L 476.13754498200717 86.08117790705496 M 502.82686925229905 87.90488099027667 L 502.82686925229905 89.73052766056573 M 502.82686925229905 97.12985197075483 L 502.82686925229905 99.28917720255768 M 511.7233106757297 83.55530982332724 L 511.7233106757297 89.22864047286126 M 511.7233106757297 89.73052766056573 L 511.7233106757297 93.40876618548633 M 529.5161935225909 75.98919040481458 L 529.5161935225909 78.9378770205531 M 529.5161935225909 96.26274710412595 L 529.5161935225909 96.78354009330347 M 582.8948420631747 141.05324113992862 L 582.8948420631747 155.5584964580069 M 582.8948420631747 163.8882689042466 L 582.8948420631747 166.9258304558821 M 609.5841663334666 154.97303502640733 L 609.5841663334666 170.84260012088404 M 609.5841663334666 173.11580188585896 L 609.5841663334666 175.5724075940965 M 618.4806077568971 161.5114386106363 L 618.4806077568971 163.7777494760089 M 618.4806077568971 170.84260012088404 L 618.4806077568971 176.64729958719624 M 627.3770491803277 151.64570231200634 L 627.3770491803277 152.80399185926788 M 627.3770491803277 163.7777494760089 L 627.3770491803277 169.1379859179696 M 645.169932027189 157.57920859396248 L 645.169932027189 160.6133246957968 M 645.169932027189 165.65710982524962 L 645.169932027189 169.39966341312544 M 662.9628148740503 159.72766740716156 L 662.9628148740503 161.72381967017537 M 662.9628148740503 175.89345283967256 L 662.9628148740503 176.10503879541136 M 680.7556977209116 167.58152605650565 L 680.7556977209116 169.44666288220813 M 680.7556977209116 171.60271935394317 L 680.7556977209116 173.84429365664067 M 689.6521391443422 160.23291169980044 L 689.6521391443422 161.94724383805155 M 689.6521391443422 169.44657453734146 L 689.6521391443422 171.12477362511356 M 707.4450219912034 165.90580062500104 L 707.4450219912034 167.59566123517712 M 707.4450219912034 172.41434364428653 L 707.4450219912034 176.30275460707878 M 743.0307876849259 171.02856606528076 L 743.0307876849259 173.1017550520542 M 743.0307876849259 176.64897813966346 L 743.0307876849259 178.23750718773834 M 751.9272291083566 168.18580494471166 L 751.9272291083566 169.24311630933877 M 751.9272291083566 173.1017550520542 L 751.9272291083566 174.7990366310328 M 760.8236705317872 144.91382346971142 L 760.8236705317872 149.22310937744714 M 760.8236705317872 169.24311630933877 L 760.8236705317872 170.7315506234462 M 769.7201119552178 143.3501193291783 L 769.7201119552178 148.63278897817924 M 769.7201119552178 149.22302103258045 L 769.7201119552178 153.94258050125606 M 787.512994802079 158.4570915343284 L 787.512994802079 160.54538749330698 M 787.512994802079 166.25935678152157 L 787.512994802079 168.12599546995793 M 805.3058776489403 164.64229234150363 L 805.3058776489403 165.7451896573463 M 805.3058776489403 167.1925436084397 L 805.3058776489403 169.0938134846212 M 814.202319072371 162.8743348691676 L 814.202319072371 165.25779102778014 M 814.202319072371 165.745278002213 L 814.202319072371 168.68371661341473 M 823.0987604958016 148.94552980628583 L 823.0987604958016 152.41341920360142 M 823.0987604958016 165.2578793726468 L 823.0987604958016 165.51381445146743 M 885.3738504598159 191.96771299028572 L 885.3738504598159 194.19382694131127 M 885.3738504598159 194.80632190212012 L 885.3738504598159 196.15384615384613" style="stroke-width: 1px;"></path><path class="candle wick down" d="M 4.626149540183927 78.90368755714141 L 4.626149540183927 81.51781216269927 M 4.626149540183927 90.15051915684225 L 4.626149540183927 93.08568900797619 M 13.522590963614554 80.19617295691539 L 13.522590963614554 90.15060750170892 M 13.522590963614554 93.97417333234574 L 13.522590963614554 101.33330072818785 M 40.21191523390643 58.18010210687666 L 40.21191523390643 59.04526338643828 M 40.21191523390643 81.30551944802691 L 40.21191523390643 89.09992200208406 M 49.10835665733706 74.11195033237456 L 49.10835665733706 81.3054311031602 M 49.10835665733706 87.42278305271233 L 49.10835665733706 91.89276827296953 M 66.90123950419832 82.29498195503089 L 66.90123950419832 86.73563667954475 M 66.90123950419832 95.83524629418024 L 66.90123950419832 97.59180727871232 M 84.69412235105956 77.19209410975793 L 84.69412235105956 79.10246350720918 M 84.69412235105956 82.55710117452024 L 84.69412235105956 92.99946441808011 M 102.48700519792082 63.13457057609898 L 102.48700519792082 66.35747965806434 M 102.48700519792082 68.09001083885497 L 102.48700519792082 71.78194281811358 M 129.1763294682127 55.912907792837046 L 129.1763294682127 56.75333250972358 M 129.1763294682127 65.049092182285 L 129.1763294682127 68.15096879687576 M 138.07277089164333 62.556795147901994 L 138.07277089164333 65.049092182285 M 138.07277089164333 67.34482188826763 L 138.07277089164333 72.06517646074346 M 218.14074370251896 8.171695209361758 L 218.14074370251896 10.51663300609448 M 218.14074370251896 13.757122716532564 L 218.14074370251896 19.257209082474247 M 227.0371851259496 9.057087463396925 L 227.0371851259496 13.757122716532564 M 227.0371851259496 27.518160877557136 L 227.0371851259496 30.259855470625098 M 244.83006797281087 12.47603380456249 L 244.83006797281087 20.687777508895266 M 244.83006797281087 24.861984115451605 L 244.83006797281087 26.549371069360177 M 271.51939224310274 12.590882131268302 L 271.51939224310274 18.063846623134083 M 271.51939224310274 27.631153962062257 L 271.51939224310274 28.901023075961888 M 280.4158336665334 27.54643123490007 L 280.4158336665334 27.631242306928982 M 280.4158336665334 48.1897112013375 L 280.4158336665334 48.6267532568865 M 298.2087165133947 41.120796692594325 L 298.2087165133947 45.77144716524646 M 298.2087165133947 56.303833827970294 L 298.2087165133947 57.58368591180664 M 316.0015993602559 46.0709362633485 L 316.0015993602559 51.86936324412528 M 316.0015993602559 57.126854606117604 L 316.0015993602559 59.69636505399353 M 324.89804078368655 54.866462846813675 L 324.89804078368655 57.126854606117604 M 324.89804078368655 80.34741936870032 L 324.89804078368655 83.26677548869552 M 351.5873650539784 62.94745614843521 L 351.5873650539784 66.05913904322932 M 351.5873650539784 76.70822927485969 L 351.5873650539784 80.15756625016888 M 369.38024790083966 69.93244303381644 L 369.38024790083966 71.32343295995727 M 369.38024790083966 72.85347770627891 L 369.38024790083966 76.27383756531154 M 378.2766893242703 70.93674747842547 L 378.2766893242703 72.8535660511456 M 378.2766893242703 79.04283072218885 L 378.2766893242703 80.20854123825296 M 404.9660135945622 56.77214996632998 L 404.9660135945622 63.00761900265567 M 404.9660135945622 64.20027470306226 L 404.9660135945622 68.95490708381652 M 413.86245501799283 49.90775382398988 L 413.86245501799283 64.20027470306226 M 413.86245501799283 71.95854420664045 L 413.86245501799283 78.39897333370271 M 422.7588964414235 69.17523918135831 L 422.7588964414235 71.95854420664045 M 422.7588964414235 78.76843156622866 L 422.7588964414235 83.46996868209813 M 431.65533786485406 76.37587588634635 L 431.65533786485406 78.76834322136195 M 431.65533786485406 81.13236350930121 L 431.65533786485406 82.51584412177284 M 458.34466213514594 69.15536158635155 L 458.34466213514594 72.4349880727362 M 458.34466213514594 92.87295456897031 L 458.34466213514594 96.49853955333963 M 485.0339864054379 76.85956403151127 L 485.0339864054379 78.47795364452965 M 485.0339864054379 88.6018336436476 L 485.0339864054379 92.32212432511588 M 493.93042782886846 86.84138548498082 L 493.93042782886846 88.6018336436476 M 493.93042782886846 97.12985197075483 L 493.93042782886846 97.59454596957997 M 520.6197520991603 88.11240308214741 L 520.6197520991603 89.22864047286126 M 520.6197520991603 96.26274710412595 L 520.6197520991603 98.12814896442849 M 538.4126349460215 77.56402599855139 L 538.4126349460215 78.9378770205531 M 538.4126349460215 106.65192673793433 L 538.4126349460215 115.31917657495572 M 547.3090763694522 105.56828860303162 L 547.3090763694522 106.65192673793433 M 547.3090763694522 111.41548195022496 L 547.3090763694522 118.09232194056779 M 556.2055177928828 110.24464743189243 L 556.2055177928828 111.41548195022496 M 556.2055177928828 116.19829634345543 L 556.2055177928828 122.27103413532566 M 565.1019592163135 115.82874976606277 L 565.1019592163135 116.19820799858871 M 565.1019592163135 128.86686188290753 L 565.1019592163135 131.73321108288474 M 573.998400639744 127.05800073729088 L 573.998400639744 128.86695022777425 M 573.998400639744 163.86989317197364 L 573.998400639744 164.24959940903642 M 591.7912834866053 145.438680322757 L 591.7912834866053 155.55840811314022 M 591.7912834866053 172.46028297496886 L 591.7912834866053 184.11244082307448 M 600.687724910036 162.39727258900496 L 600.687724910036 172.46028297496886 M 600.687724910036 173.1157135409923 L 600.687724910036 193.69785885967553 M 636.2734906037584 152.80390351440116 L 636.2734906037584 152.80399185926788 M 636.2734906037584 165.65710982524962 L 636.2734906037584 172.6095857996864 M 654.0663734506197 158.27165565913182 L 654.0663734506197 160.6133246957968 M 654.0663734506197 175.89354118453926 L 654.0663734506197 176.43111969838918 M 671.8592562974809 157.67674132679568 L 671.8592562974809 161.72390801504207 M 671.8592562974809 171.60271935394317 L 671.8592562974809 175.76385092022838 M 698.5485805677728 158.62044119285076 L 698.5485805677728 161.94733218291825 M 698.5485805677728 172.4142552994198 L 698.5485805677728 174.55926866281774 M 716.3414634146341 162.56742480226296 L 716.3414634146341 167.59566123517712 M 716.3414634146341 168.58892257144907 L 716.3414634146341 170.77934519632913 M 725.2379048380647 165.54553025861156 L 725.2379048380647 168.58901091631577 M 725.2379048380647 171.59971562847548 L 725.2379048380647 182.0402236298347 M 734.1343462614954 169.8654175503509 L 734.1343462614954 171.59971562847548 M 734.1343462614954 176.64906648453018 L 734.1343462614954 179.7137499102416 M 778.6165533786485 147.02553081836462 L 778.6165533786485 148.63270063331254 M 778.6165533786485 166.25944512638824 L 778.6165533786485 170.71935903184203 M 796.4094362255097 158.36874666763163 L 796.4094362255097 160.54529914844028 M 796.4094362255097 167.1925436084397 L 796.4094362255097 170.88403386336483 M 831.9952019192323 150.50075283961604 L 831.9952019192323 152.41341920360142 M 831.9952019192323 154.6023399657476 L 831.9952019192323 171.44414031822245 M 840.8916433426629 152.81874545200623 L 840.8916433426629 154.60242831061433 M 840.8916433426629 162.73501501438676 L 840.8916433426629 165.923292908607 M 849.7880847660936 158.35991218096194 L 849.7880847660936 162.73501501438676 M 849.7880847660936 163.57287773013906 L 849.7880847660936 165.03790065457184 M 858.6845261895241 161.16221135258394 L 858.6845261895241 163.57287773013906 M 858.6845261895241 172.56682688420517 L 858.6845261895241 174.703712519867 M 867.5809676129546 169.48774324522216 L 867.5809676129546 172.56691522907187 M 867.5809676129546 178.4610197004812 L 867.5809676129546 181.32966586699246 M 876.4774090363853 177.3985843335857 L 876.4774090363853 178.46093135561452 M 876.4774090363853 194.80632190212012 L 876.4774090363853 194.93468699343052" style="stroke-width: 1px;"></path><path class="candle wick equal" style="stroke-width: 1px;"></path></g></g><g class="x axis" transform="translate(0,200)" fill="none" font-size="10" font-family="sans-serif" text-anchor="middle"><path class="domain" stroke="#000" d="M0.5,6V0.5H890.5V6"></path><g class="tick" opacity="1" transform="translate(13.522590963614554,0)"><line stroke="#000" y2="6" x1="0.5" x2="0.5"></line><text fill="#000" y="9" x="0.5" dy="0.71em">Mar  7</text></g><g class="tick" opacity="1" transform="translate(75.79768092762893,0)"><line stroke="#000" y2="6" x1="0.5" x2="0.5"></line><text fill="#000" y="9" x="0.5" dy="0.71em">Mar 14</text></g><g class="tick" opacity="1" transform="translate(138.07277089164333,0)"><line stroke="#000" y2="6" x1="0.5" x2="0.5"></line><text fill="#000" y="9" x="0.5" dy="0.71em">Mar 21</text></g><g class="tick" opacity="1" transform="translate(200.34786085565773,0)"><line stroke="#000" y2="6" x1="0.5" x2="0.5"></line><text fill="#000" y="9" x="0.5" dy="0.71em">Mar 28</text></g><g class="tick" opacity="1" transform="translate(262.6229508196721,0)"><line stroke="#000" y2="6" x1="0.5" x2="0.5"></line><text fill="#000" y="9" x="0.5" dy="0.71em">Apr  4</text></g><g class="tick" opacity="1" transform="translate(324.89804078368655,0)"><line stroke="#000" y2="6" x1="0.5" x2="0.5"></line><text fill="#000" y="9" x="0.5" dy="0.71em">Apr 11</text></g><g class="tick" opacity="1" transform="translate(387.1731307477009,0)"><line stroke="#000" y2="6" x1="0.5" x2="0.5"></line><text fill="#000" y="9" x="0.5" dy="0.71em">Apr 18</text></g><g class="tick" opacity="1" transform="translate(449.44822071171535,0)"><line stroke="#000" y2="6" x1="0.5" x2="0.5"></line><text fill="#000" y="9" x="0.5" dy="0.71em">Apr 25</text></g><g class="tick" opacity="1" transform="translate(511.7233106757297,0)"><line stroke="#000" y2="6" x1="0.5" x2="0.5"></line><text fill="#000" y="9" x="0.5" dy="0.71em">May  2</text></g><g class="tick" opacity="1" transform="translate(573.998400639744,0)"><line stroke="#000" y2="6" x1="0.5" x2="0.5"></line><text fill="#000" y="9" x="0.5" dy="0.71em">May  9</text></g><g class="tick" opacity="1" transform="translate(636.2734906037584,0)"><line stroke="#000" y2="6" x1="0.5" x2="0.5"></line><text fill="#000" y="9" x="0.5" dy="0.71em">May 16</text></g><g class="tick" opacity="1" transform="translate(698.5485805677728,0)"><line stroke="#000" y2="6" x1="0.5" x2="0.5"></line><text fill="#000" y="9" x="0.5" dy="0.71em">May 23</text></g><g class="tick" opacity="1" transform="translate(760.8236705317872,0)"><line stroke="#000" y2="6" x1="0.5" x2="0.5"></line><text fill="#000" y="9" x="0.5" dy="0.71em">May 30</text></g><g class="tick" opacity="1" transform="translate(823.0987604958016,0)"><line stroke="#000" y2="6" x1="0.5" x2="0.5"></line><text fill="#000" y="9" x="0.5" dy="0.71em">Jun  6</text></g><g class="tick" opacity="1" transform="translate(885.3738504598159,0)"><line stroke="#000" y2="6" x1="0.5" x2="0.5"></line><text fill="#000" y="9" x="0.5" dy="0.71em">Jun 13</text></g></g><g class="y axis" fill="none" font-size="10" font-family="sans-serif" text-anchor="end"><path class="domain" stroke="#000" d="M-6,200.5H0.5V0.5H-6"></path><g class="tick" opacity="1" transform="translate(0,199.88199952845042)"><line stroke="#000" x2="-6" y1="0.5" y2="0.5"></line><text fill="#000" x="-9" y="0.5" dy="0.32em">26,000</text></g><g class="tick" opacity="1" transform="translate(0,182.21302618909363)"><line stroke="#000" x2="-6" y1="0.5" y2="0.5"></line><text fill="#000" x="-9" y="0.5" dy="0.32em">28,000</text></g><g class="tick" opacity="1" transform="translate(0,164.54405284973683)"><line stroke="#000" x2="-6" y1="0.5" y2="0.5"></line><text fill="#000" x="-9" y="0.5" dy="0.32em">30,000</text></g><g class="tick" opacity="1" transform="translate(0,146.87507951038)"><line stroke="#000" x2="-6" y1="0.5" y2="0.5"></line><text fill="#000" x="-9" y="0.5" dy="0.32em">32,000</text></g><g class="tick" opacity="1" transform="translate(0,129.2061061710232)"><line stroke="#000" x2="-6" y1="0.5" y2="0.5"></line><text fill="#000" x="-9" y="0.5" dy="0.32em">34,000</text></g><g class="tick" opacity="1" transform="translate(0,111.53713283166641)"><line stroke="#000" x2="-6" y1="0.5" y2="0.5"></line><text fill="#000" x="-9" y="0.5" dy="0.32em">36,000</text></g><g class="tick" opacity="1" transform="translate(0,93.8681594923096)"><line stroke="#000" x2="-6" y1="0.5" y2="0.5"></line><text fill="#000" x="-9" y="0.5" dy="0.32em">38,000</text></g><g class="tick" opacity="1" transform="translate(0,76.1991861529528)"><line stroke="#000" x2="-6" y1="0.5" y2="0.5"></line><text fill="#000" x="-9" y="0.5" dy="0.32em">40,000</text></g><g class="tick" opacity="1" transform="translate(0,58.530212813595995)"><line stroke="#000" x2="-6" y1="0.5" y2="0.5"></line><text fill="#000" x="-9" y="0.5" dy="0.32em">42,000</text></g><g class="tick" opacity="1" transform="translate(0,40.8612394742392)"><line stroke="#000" x2="-6" y1="0.5" y2="0.5"></line><text fill="#000" x="-9" y="0.5" dy="0.32em">44,000</text></g><g class="tick" opacity="1" transform="translate(0,23.192266134882402)"><line stroke="#000" x2="-6" y1="0.5" y2="0.5"></line><text fill="#000" x="-9" y="0.5" dy="0.32em">46,000</text></g><g class="tick" opacity="1" transform="translate(0,5.5232927955255775)"><line stroke="#000" x2="-6" y1="0.5" y2="0.5"></line><text fill="#000" x="-9" y="0.5" dy="0.32em">48,000</text></g><text transform="rotate(-90)" y="6" dy=".71em" style="text-anchor: end;">Price ($)</text></g></g></svg>