<?xml version="1.0" encoding="utf-8"?>
<!DOCTYPE svg PUBLIC "-//W3C//DTD SVG 1.1//EN" "http://www.w3.org/Graphics/SVG/1.1/DTD/svg11.dtd">
<svg version="1.1" xmlns="http://www.w3.org/2000/svg" width="960" height="250"><g transform="translate(50,20)"><style>.axis path,.axis line{fill:none;stroke:#000;shape-rendering:crispEdges;}path.candle{stroke:#000000;}path.candle.body{stroke-width:0;}path.candle.up{fill:#00AA00;stroke:#00AA00;}path.candle.down{fill:#FF0000;stroke:#FF0000;}</style><g class="candlestick"><g class="data"><path class="candle body up" d="M 1.0675729708116766 152.90296495956875 l 7.1171531387445 0 L 8.184726109556177 145.22848849263946 l -7.1171531387445 0 L 1.0675729708116766 152.90296495956875 M 27.75689724110356 156.1501140369065 l 7.1171531387445 0 L 34.87405037984806 154.09392494298157 l -7.1171531387445 0 L 27.75689724110356 156.1501140369065 M 45.54978008796481 160.7769023429401 l 7.1171531387445 0 L 52.66693322670931 158.0456147625959 l -7.1171531387445 0 L 45.54978008796481 160.7769023429401 M 63.342662934826066 158.35330707028817 l 7.1171531387445 0 L 70.45981607357056 156.27825005183496 l -7.1171531387445 0 L 63.342662934826066 158.35330707028817 M 81.13554578168731 165.18930126477295 l 7.1171531387445 0 L 88.25269892043181 162.22413435620982 l -7.1171531387445 0 L 81.13554578168731 165.18930126477295 M 98.92842862854857 164.9413228281153 l 7.1171531387445 0 L 106.04558176729307 160.86647314949204 l -7.1171531387445 0 L 98.92842862854857 164.9413228281153 M 116.72131147540982 162.13269749118805 l 7.1171531387445 0 L 123.83846461415432 157.04623678208583 l -7.1171531387445 0 L 116.72131147540982 162.13269749118805 M 134.51419432227107 158.3244868339208 l 7.1171531387445 0 L 141.63134746101557 152.67530582624923 l -7.1171531387445 0 L 134.51419432227107 158.3244868339208 M 161.20351859256294 189.65809662036077 l 7.1171531387445 0 L 168.32067173130744 183.27285921625545 l -7.1171531387445 0 L 161.20351859256294 189.65809662036077 M 178.9964014394242 189.06925150321376 l 7.1171531387445 0 L 186.1135545781687 187.21335268505078 l -7.1171531387445 0 L 178.9964014394242 189.06925150321376 M 187.89284286285485 187.21978021978023 l 7.1171531387445 0 L 195.00999600159935 184.78250051834956 l -7.1171531387445 0 L 187.89284286285485 187.21978021978023 M 205.68572570971608 189.89923284262906 l 7.1171531387445 0 L 212.80287884846058 187.98051005598174 l -7.1171531387445 0 L 205.68572570971608 189.89923284262906 M 214.5821671331467 187.9786439975119 l 7.1171531387445 0 L 221.6993202718912 185.54074227659132 l -7.1171531387445 0 L 214.5821671331467 187.9786439975119 M 223.47860855657734 185.5409496164213 l 7.1171531387445 0 L 230.59576169532184 184.48289446402654 l -7.1171531387445 0 L 223.47860855657734 185.5409496164213 M 232.37504998000796 184.48289446402654 l 7.1171531387445 0 L 239.49220311875246 183.3833713456355 l -7.1171531387445 0 L 232.37504998000796 184.48289446402654 M 250.16793282686922 185.62430022807382 l 7.1171531387445 0 L 257.28508596561375 178.59693137051627 l -7.1171531387445 0 L 250.16793282686922 185.62430022807382 M 259.06437425029986 178.59693137051627 l 7.1171531387445 0 L 266.1815273890444 176.24279494090817 l -7.1171531387445 0 L 259.06437425029986 178.59693137051627 M 267.9608156737305 176.24445365954801 l 7.1171531387445 0 L 275.07796881247504 172.74497200912296 l -7.1171531387445 0 L 267.9608156737305 176.24445365954801 M 294.65013994402244 173.1722993987145 l 7.1171531387445 0 L 301.76729308276697 170.11922040223928 l -7.1171531387445 0 L 294.65013994402244 173.1722993987145 M 321.3394642143143 183.8747667426913 l 7.1171531387445 0 L 328.45661735305885 181.54447439353098 l -7.1171531387445 0 L 321.3394642143143 183.8747667426913 M 339.13234706117555 187.51897159444331 l 7.1171531387445 0 L 346.2495001999201 177.25855276798674 l -7.1171531387445 0 L 339.13234706117555 187.51897159444331 M 356.9252299080368 178.2900684221439 l 7.1171531387445 0 L 364.0423830467813 177.41861911673232 l -7.1171531387445 0 L 356.9252299080368 178.2900684221439 M 365.8216713314674 177.4188264565623 l 7.1171531387445 0 L 372.93882447021196 176.4721127928675 l -7.1171531387445 0 L 365.8216713314674 177.4188264565623 M 383.61455417832866 178.09226622434167 l 7.1171531387445 0 L 390.7317073170732 175.0989010989011 l -7.1171531387445 0 L 383.61455417832866 178.09226622434167 M 428.0967612954818 181.28612896537425 l 7.1171531387445 0 L 435.21391443422635 178.7035040431267 l -7.1171531387445 0 L 428.0967612954818 181.28612896537425 M 436.99320271891247 178.70371138295664 l 7.1171531387445 0 L 444.110355857657 176.09973045822105 l -7.1171531387445 0 L 436.99320271891247 178.70371138295664 M 454.7860855657737 180.0922662243417 l 7.1171531387445 0 L 461.90323870451823 178.70848019904625 l -7.1171531387445 0 L 454.7860855657737 180.0922662243417 M 463.68252698920435 178.70827285921627 l 7.1171531387445 0 L 470.7996801279489 173.3346464855899 l -7.1171531387445 0 L 463.68252698920435 178.70827285921627 M 472.57896841263494 173.33734190337964 l 7.1171531387445 0 L 479.69612155137946 170.7414472320133 l -7.1171531387445 0 L 472.57896841263494 173.33734190337964 M 481.47540983606564 170.7414472320133 l 7.1171531387445 0 L 488.59256297481016 165.71179763632597 l -7.1171531387445 0 L 481.47540983606564 170.7414472320133 M 490.3718512594962 165.71179763632597 l 7.1171531387445 0 L 497.48900439824075 164.14016172506737 l -7.1171531387445 0 L 490.3718512594962 165.71179763632597 M 499.2682926829268 164.14016172506737 l 7.1171531387445 0 L 506.38544582167134 160.83868961227452 l -7.1171531387445 0 L 499.2682926829268 164.14016172506737 M 525.9576169532187 163.12689197594858 l 7.1171531387445 0 L 533.0747700919632 161.31826663902135 l -7.1171531387445 0 L 525.9576169532187 163.12689197594858 M 543.75049980008 165.1722993987145 l 7.1171531387445 0 L 550.8676529388244 164.32303545511093 l -7.1171531387445 0 L 543.75049980008 165.1722993987145 M 552.6469412235106 164.32075471698113 l 7.1171531387445 0 L 559.764094362255 161.35931992535768 l -7.1171531387445 0 L 552.6469412235106 164.32075471698113 M 561.5433826469413 161.35931992535768 l 7.1171531387445 0 L 568.6605357856857 156.21044992743106 l -7.1171531387445 0 L 561.5433826469413 161.35931992535768 M 570.4398240703717 156.21065726726107 l 7.1171531387445 0 L 577.5569772091162 152.9236989425669 l -7.1171531387445 0 L 570.4398240703717 156.21065726726107 M 579.3362654938024 152.92349160273687 l 7.1171531387445 0 L 586.4534186325469 134.86502177068218 l -7.1171531387445 0 L 579.3362654938024 152.92349160273687 M 588.232706917233 134.86937590711176 l 7.1171531387445 0 L 595.3498600559775 130.97615591955213 l -7.1171531387445 0 L 588.232706917233 134.86937590711176 M 606.0255897640943 131.91872278664732 l 7.1171531387445 0 L 613.1427429028388 128.0068422143894 l -7.1171531387445 0 L 606.0255897640943 131.91872278664732 M 623.8184726109555 129.70889487870622 l 7.1171531387445 0 L 630.9356257497 129.24134356209828 l -7.1171531387445 0 L 623.8184726109555 129.70889487870622 M 632.7149140343862 129.24217292141822 l 7.1171531387445 0 L 639.8320671731307 117.13311217084802 l -7.1171531387445 0 L 632.7149140343862 129.24217292141822 M 650.5077968812475 124.79991706406801 l 7.1171531387445 0 L 657.624950019992 120.87497408252123 l -7.1171531387445 0 L 650.5077968812475 124.79991706406801 M 659.4042383046781 120.87518142235122 l 7.1171531387445 0 L 666.5213914434225 118.71034625751606 l -7.1171531387445 0 L 659.4042383046781 120.87518142235122 M 668.3006797281087 118.71034625751606 l 7.1171531387445 0 L 675.4178328668531 113.92286958324695 l -7.1171531387445 0 L 668.3006797281087 118.71034625751606 M 694.9900039984005 118.92743105950655 l 7.1171531387445 0 L 702.107157137145 109.10159651669085 l -7.1171531387445 0 L 694.9900039984005 118.92743105950655 M 703.8864454218311 109.10159651669085 l 7.1171531387445 0 L 711.0035985605756 106.60356624507568 l -7.1171531387445 0 L 703.8864454218311 109.10159651669085 M 712.7828868452618 106.60356624507568 l 7.1171531387445 0 L 719.9000399840063 76.62201948994401 l -7.1171531387445 0 L 712.7828868452618 106.60356624507568 M 739.4722111155537 92.62284884926395 l 7.1171531387445 0 L 746.5893642542982 79.00476881608955 l -7.1171531387445 0 L 739.4722111155537 92.62284884926395 M 766.1615353858456 82.69313705162764 l 7.1171531387445 0 L 773.27868852459 74.66846361185983 l -7.1171531387445 0 L 766.1615353858456 82.69313705162764 M 775.0579768092763 74.66825627202986 l 7.1171531387445 0 L 782.1751299480208 62.07008086253367 l -7.1171531387445 0 L 775.0579768092763 74.66825627202986 M 783.9544182327068 62.070288202363656 l 7.1171531387445 0 L 791.0715713714512 61.47211279286748 l -7.1171531387445 0 L 783.9544182327068 62.070288202363656 M 810.6437425029987 69.0130624092888 l 7.1171531387445 0 L 817.7608956417432 53.32635289239062 l -7.1171531387445 0 L 810.6437425029987 69.0130624092888 M 819.5401839264293 53.33651254405967 l 7.1171531387445 0 L 826.6573370651738 33.71594443292554 l -7.1171531387445 0 L 819.5401839264293 53.33651254405967 M 828.43662534986 33.71594443292554 l 7.1171531387445 0 L 835.5537784886045 31.295459257723422 l -7.1171531387445 0 L 828.43662534986 33.71594443292554 M 837.3330667732906 31.26166286543645 l 7.1171531387445 0 L 844.4502199120351 30.741861911673226 l -7.1171531387445 0 L 837.3330667732906 31.26166286543645 M 846.2295081967213 30.74206925150318 l 7.1171531387445 0 L 853.3466613354658 13.058884511714723 l -7.1171531387445 0 L 846.2295081967213 30.74206925150318 M 855.1259496201519 13.059091851544679 l 7.1171531387445 0 L 862.2431027588964 12.060957910014537 l -7.1171531387445 0 L 855.1259496201519 13.059091851544679 M 881.8152738904437 19.02322206095795 l 7.1171531387445 0 L 888.9324270291881 9.044785403275966 l -7.1171531387445 0 L 881.8152738904437 19.02322206095795"></path><path class="candle body down" d="M 9.964014394242305 145.2280738129795 l 7.1171531387445 0 L 17.081167532986804 152.1975948579722 l -7.1171531387445 0 L 9.964014394242305 145.2280738129795 M 18.860455817672932 152.19572879950238 l 7.1171531387445 0 L 25.977608956417434 156.1457599004769 l -7.1171531387445 0 L 18.860455817672932 152.19572879950238 M 36.65333866453418 154.0941322828115 l 7.1171531387445 0 L 43.77049180327868 160.77462160481028 l -7.1171531387445 0 L 36.65333866453418 154.0941322828115 M 54.446221511395436 158.0342110719469 l 7.1171531387445 0 L 61.563374650139934 158.35309973045824 l -7.1171531387445 0 L 54.446221511395436 158.0342110719469 M 72.23910435825668 156.27845739166492 l 7.1171531387445 0 L 79.35625749700118 165.18930126477295 l -7.1171531387445 0 L 72.23910435825668 156.27845739166492 M 90.03198720511796 162.2243416960398 l 7.1171531387445 0 L 97.14914034386246 164.9413228281153 l -7.1171531387445 0 L 90.03198720511796 162.2243416960398 M 107.82487005197919 160.866680489322 l 7.1171531387445 0 L 114.94202319072369 162.13269749118805 l -7.1171531387445 0 L 107.82487005197919 160.866680489322 M 125.61775289884046 157.04602944225587 l 7.1171531387445 0 L 132.73490603758498 158.3244868339208 l -7.1171531387445 0 L 125.61775289884046 157.04602944225587 M 143.4106357457017 152.67530582624923 l 7.1171531387445 0 L 150.5277888844462 163.7354343769438 l -7.1171531387445 0 L 143.4106357457017 152.67530582624923 M 152.30707716913233 163.7354343769438 l 7.1171531387445 0 L 159.42423030787683 189.60501762388554 l -7.1171531387445 0 L 152.30707716913233 163.7354343769438 M 170.09996001599356 183.27285921625545 l 7.1171531387445 0 L 177.21711315473806 189.06925150321376 l -7.1171531387445 0 L 170.09996001599356 183.27285921625545 M 196.78928428628546 184.78229317851958 l 7.1171531387445 0 L 203.90643742502996 189.89944018245905 l -7.1171531387445 0 L 196.78928428628546 184.78229317851958 M 241.2714914034386 183.38855484138503 l 7.1171531387445 0 L 248.3886445421831 185.6245075679038 l -7.1171531387445 0 L 241.2714914034386 183.38855484138503 M 276.85725709716115 172.74497200912296 l 7.1171531387445 0 L 283.9744102359057 173.0356624507568 l -7.1171531387445 0 L 276.85725709716115 172.74497200912296 M 285.7536985205918 173.03545511092682 l 7.1171531387445 0 L 292.8708516593363 173.17250673854448 l -7.1171531387445 0 L 285.7536985205918 173.03545511092682 M 303.54658136745303 170.11942774206926 l 7.1171531387445 0 L 310.66373450619756 173.44432925565 l -7.1171531387445 0 L 303.54658136745303 170.11942774206926 M 312.4430227908837 173.44432925565 l 7.1171531387445 0 L 319.5601759296282 183.8747667426913 l -7.1171531387445 0 L 312.4430227908837 173.44432925565 M 330.23590563774496 181.54447439353098 l 7.1171531387445 0 L 337.3530587764895 187.51897159444331 l -7.1171531387445 0 L 330.23590563774496 181.54447439353098 M 348.02878848460614 177.25834542815676 l 7.1171531387445 0 L 355.14594162335067 178.28799502384408 l -7.1171531387445 0 L 348.02878848460614 177.25834542815676 M 374.7181127548981 176.47190545303752 l 7.1171531387445 0 L 381.8352658936426 178.0920588845117 l -7.1171531387445 0 L 374.7181127548981 176.47190545303752 M 392.5109956017593 175.0968277006013 l 7.1171531387445 0 L 399.62814874050383 176.42359527265188 l -7.1171531387445 0 L 392.5109956017593 175.0968277006013 M 401.40743702518995 176.42359527265188 l 7.1171531387445 0 L 408.5245901639345 179.68836823553806 l -7.1171531387445 0 L 401.40743702518995 176.42359527265188 M 410.3038784486206 179.68836823553806 l 7.1171531387445 0 L 417.4210315873651 180.69873522703713 l -7.1171531387445 0 L 410.3038784486206 179.68836823553806 M 419.20031987205124 180.69873522703713 l 7.1171531387445 0 L 426.31747301079577 181.28633630520423 l -7.1171531387445 0 L 419.20031987205124 180.69873522703713 M 445.8896441423431 176.099937798051 l 7.1171531387445 0 L 453.00679728108764 180.09205888451172 l -7.1171531387445 0 L 445.8896441423431 176.099937798051 M 508.16473410635746 160.8388969521045 l 7.1171531387445 0 L 515.281887245102 163.07153224134356 l -7.1171531387445 0 L 508.16473410635746 160.8388969521045 M 517.0611755297881 163.07132490151358 l 7.1171531387445 0 L 524.1783286685326 163.12689197594858 l -7.1171531387445 0 L 517.0611755297881 163.07132490151358 M 534.8540583766493 161.3180592991914 l 7.1171531387445 0 L 541.9712115153937 165.17064068007465 l -7.1171531387445 0 L 534.8540583766493 161.3180592991914 M 597.1291483406637 130.96952104499275 l 7.1171531387445 0 L 604.2463014794082 131.91851544681734 l -7.1171531387445 0 L 597.1291483406637 130.96952104499275 M 614.9220311875249 128.0068422143894 l 7.1171531387445 0 L 622.0391843262694 129.72568940493468 l -7.1171531387445 0 L 614.9220311875249 128.0068422143894 M 641.6113554578168 117.133319510678 l 7.1171531387445 0 L 648.7285085965613 124.79991706406801 l -7.1171531387445 0 L 641.6113554578168 117.133319510678 M 677.1971211515394 113.92286958324695 l 7.1171531387445 0 L 684.3142742902838 114.53452208169189 l -7.1171531387445 0 L 677.1971211515394 113.92286958324695 M 686.09356257497 114.53472942152187 l 7.1171531387445 0 L 693.2107157137144 118.93282189508602 l -7.1171531387445 0 L 686.09356257497 114.53472942152187 M 721.6793282686924 76.62201948994401 l 7.1171531387445 0 L 728.7964814074369 76.83143271822517 l -7.1171531387445 0 L 721.6793282686924 76.62201948994401 M 730.5757696921231 76.83122537839517 l 7.1171531387445 0 L 737.6929228308676 92.62284884926395 l -7.1171531387445 0 L 730.5757696921231 76.83122537839517 M 748.3686525389844 79.00476881608955 l 7.1171531387445 0 L 755.4858056777289 82.04623678208584 l -7.1171531387445 0 L 748.3686525389844 79.00476881608955 M 757.265093962415 82.04623678208584 l 7.1171531387445 0 L 764.3822471011595 82.69313705162764 l -7.1171531387445 0 L 757.265093962415 82.04623678208584 M 792.8508596561375 61.485797221646266 l 7.1171531387445 0 L 799.9680127948819 66.66079203815053 l -7.1171531387445 0 L 792.8508596561375 61.485797221646266 M 801.747301079568 66.67924528301887 l 7.1171531387445 0 L 808.8644542183125 69.0130624092888 l -7.1171531387445 0 L 801.747301079568 66.67924528301887 M 864.0223910435824 12.060957910014537 l 7.1171531387445 0 L 871.1395441823269 18.060750570184524 l -7.1171531387445 0 L 864.0223910435824 12.060957910014537 M 872.9188324670131 18.072154260833486 l 7.1171531387445 0 L 880.0359856057576 19.023429400787904 l -7.1171531387445 0 L 872.9188324670131 18.072154260833486"></path><path class="candle body equal"></path><path class="candle wick up" d="M 4.626149540183927 141.35392908977815 L 4.626149540183927 145.22848849263946 M 4.626149540183927 152.90296495956875 L 4.626149540183927 155.8308106987352 M 31.315473810475808 153.37963922869582 L 31.315473810475808 154.09392494298157 M 31.315473810475808 156.1501140369065 L 31.315473810475808 157.9411154882853 M 49.10835665733706 157.56790379431888 L 49.10835665733706 158.0456147625959 M 49.10835665733706 160.7769023429401 L 49.10835665733706 163.97864399751194 M 66.90123950419832 154.6879535558781 L 66.90123950419832 156.27825005183496 M 66.90123950419832 158.35330707028817 L 66.90123950419832 159.66017001866058 M 84.69412235105956 160.60916442048517 L 84.69412235105956 162.22413435620982 M 84.69412235105956 165.18930126477295 L 84.69412235105956 166.7323242794941 M 102.48700519792082 160.5401202571014 L 102.48700519792082 160.86647314949204 M 102.48700519792082 164.9413228281153 L 102.48700519792082 166.05038357868548 M 120.27988804478207 156.88368235538047 L 120.27988804478207 157.04623678208583 M 120.27988804478207 162.13269749118805 L 120.27988804478207 162.29525191789344 M 138.07277089164333 150.0031100974497 L 138.07277089164333 152.67530582624923 M 138.07277089164333 158.3244868339208 L 138.07277089164333 161.1134148869998 M 164.7620951619352 179.52415509019283 L 164.7620951619352 183.27285921625545 M 164.7620951619352 189.65809662036077 L 164.7620951619352 195.1067800124404 M 182.55497800879647 185.3278042712005 L 182.55497800879647 187.21335268505078 M 182.55497800879647 189.06925150321376 L 182.55497800879647 192.63197180178312 M 191.4514194322271 184.0089156126892 L 191.4514194322271 184.78250051834956 M 191.4514194322271 187.21978021978023 L 191.4514194322271 195.11714700393946 M 209.24430227908834 185.41364296081278 L 209.24430227908834 187.98051005598174 M 209.24430227908834 189.89923284262906 L 209.24430227908834 192.91913746630726 M 218.14074370251896 182.50362844702465 L 218.14074370251896 185.54074227659132 M 218.14074370251896 187.9786439975119 L 218.14074370251896 191.05681111341488 M 227.0371851259496 184.28156748911465 L 227.0371851259496 184.48289446402654 M 227.0371851259496 185.5409496164213 L 227.0371851259496 188.37860252954593 M 235.93362654938022 182.61517727555466 L 235.93362654938022 183.3833713456355 M 235.93362654938022 184.48289446402654 L 235.93362654938022 186.94277420692515 M 253.72650939624148 176.97491188057225 L 253.72650939624148 178.59693137051627 M 253.72650939624148 185.62430022807382 L 253.72650939624148 188.12274517934895 M 262.6229508196721 173.2419655815882 L 262.6229508196721 176.24279494090817 M 262.6229508196721 178.59693137051627 L 262.6229508196721 179.95065312046444 M 271.51939224310274 169.86315571221232 L 271.51939224310274 172.74497200912296 M 271.51939224310274 176.24445365954801 L 271.51939224310274 178.8156748911466 M 298.2087165133947 168.06365332780425 L 298.2087165133947 170.11922040223928 M 298.2087165133947 173.1722993987145 L 298.2087165133947 174.12668463611857 M 324.89804078368655 180.65083972631143 L 324.89804078368655 181.54447439353098 M 324.89804078368655 183.8747667426913 L 324.89804078368655 185.20630313083143 M 342.6909236305478 176.03690648973668 L 342.6909236305478 177.25855276798674 M 342.6909236305478 187.51897159444331 L 342.6909236305478 188.566659755339 M 360.483806477409 175.50404312668462 L 360.483806477409 177.41861911673232 M 360.483806477409 178.2900684221439 L 360.483806477409 179.1586149699357 M 369.38024790083966 175.9589467136637 L 369.38024790083966 176.4721127928675 M 369.38024790083966 177.4188264565623 L 369.38024790083966 180.19241136222269 M 387.1731307477009 174.53783951897157 L 387.1731307477009 175.0989010989011 M 387.1731307477009 178.09226622434167 L 387.1731307477009 179.34128136014925 M 431.65533786485406 178.0765083972631 L 431.65533786485406 178.7035040431267 M 431.65533786485406 181.28612896537425 L 431.65533786485406 181.78789135392907 M 440.5517792882847 175.97968069666183 L 440.5517792882847 176.09973045822105 M 440.5517792882847 178.70371138295664 L 440.5517792882847 179.76072983620153 M 458.34466213514594 178.3875181422351 L 458.34466213514594 178.70848019904625 M 458.34466213514594 180.0922662243417 L 458.34466213514594 181.2011196350819 M 467.2411035585766 172.82811528094547 L 467.2411035585766 173.3346464855899 M 467.2411035585766 178.70827285921627 L 467.2411035585766 181.5278872071325 M 476.13754498200717 169.62181215011404 L 476.13754498200717 170.7414472320133 M 476.13754498200717 173.33734190337964 L 476.13754498200717 175.33692722371967 M 485.0339864054379 161.611030478955 L 485.0339864054379 165.71179763632597 M 485.0339864054379 170.7414472320133 L 485.0339864054379 170.74414264980302 M 493.93042782886846 162.56479369686917 L 493.93042782886846 164.14016172506737 M 493.93042782886846 165.71179763632597 L 493.93042782886846 167.20920588845118 M 502.82686925229905 156.86274103255235 L 502.82686925229905 160.83868961227452 M 502.82686925229905 164.14016172506737 L 502.82686925229905 168.22517105535974 M 529.5161935225909 158.99149906697076 L 529.5161935225909 161.31826663902135 M 529.5161935225909 163.12689197594858 L 529.5161935225909 166.59071117561683 M 547.3090763694522 163.4476466929297 L 547.3090763694522 164.32303545511093 M 547.3090763694522 165.1722993987145 L 547.3090763694522 166.50425046651463 M 556.2055177928828 161.32075471698113 L 556.2055177928828 161.35931992535768 M 556.2055177928828 164.32075471698113 L 556.2055177928828 164.61289653742486 M 565.1019592163135 154.7068214804064 L 565.1019592163135 156.21044992743106 M 565.1019592163135 161.35931992535768 L 565.1019592163135 163.33278042712007 M 573.998400639744 150.26166286543648 L 573.998400639744 152.9236989425669 M 573.998400639744 156.21065726726107 L 573.998400639744 157.7422765913332 M 582.8948420631747 125.81007671573708 L 582.8948420631747 134.86502177068218 M 582.8948420631747 152.92349160273687 L 582.8948420631747 153.40140991084385 M 591.7912834866053 126.48766328011611 L 591.7912834866053 130.97615591955213 M 591.7912834866053 134.86937590711176 L 591.7912834866053 136.99813394153017 M 609.5841663334666 126.86647314949204 L 609.5841663334666 128.0068422143894 M 609.5841663334666 131.91872278664732 L 609.5841663334666 133.0188679245283 M 627.3770491803277 125.37196765498653 L 627.3770491803277 129.24134356209828 M 627.3770491803277 129.70889487870622 L 627.3770491803277 135.19593613933236 M 636.2734906037584 113.95832469417373 L 636.2734906037584 117.13311217084802 M 636.2734906037584 129.24217292141822 L 636.2734906037584 129.91146589259796 M 654.0663734506197 116.99336512544059 L 654.0663734506197 120.87497408252123 M 654.0663734506197 124.79991706406801 L 654.0663734506197 131.96620360771303 M 662.9628148740503 116.43209620568112 L 662.9628148740503 118.71034625751606 M 662.9628148740503 120.87518142235122 L 662.9628148740503 127.93904208998549 M 671.8592562974809 107.51606883682355 L 671.8592562974809 113.92286958324695 M 671.8592562974809 118.71034625751606 L 671.8592562974809 121.79141613103877 M 698.5485805677728 108.2187435206303 L 698.5485805677728 109.10159651669085 M 698.5485805677728 118.92743105950655 L 698.5485805677728 124.4144723201327 M 707.4450219912034 104.21936554012025 L 707.4450219912034 106.60356624507568 M 707.4450219912034 109.10159651669085 L 707.4450219912034 119.43810906075058 M 716.3414634146341 73.30499688990255 L 716.3414634146341 76.62201948994401 M 716.3414634146341 106.60356624507568 L 716.3414634146341 107.64959568733154 M 743.0307876849259 75.37839518971595 L 743.0307876849259 79.00476881608955 M 743.0307876849259 92.62284884926395 L 743.0307876849259 94.99523118391045 M 769.7201119552178 68.84719054530376 L 769.7201119552178 74.66846361185983 M 769.7201119552178 82.69313705162764 L 769.7201119552178 83.20174165457183 M 778.6165533786485 61.057433132904805 L 778.6165533786485 62.07008086253367 M 778.6165533786485 74.66825627202986 L 778.6165533786485 79.71926187020529 M 787.512994802079 58.169189301264765 L 787.512994802079 61.47211279286748 M 787.512994802079 62.070288202363656 L 787.512994802079 69.10947543023013 M 814.202319072371 49.8755961020112 L 814.202319072371 53.32635289239062 M 814.202319072371 69.0130624092888 L 814.202319072371 70.94132282811526 M 823.0987604958016 29.58075886377773 L 823.0987604958016 33.71594443292554 M 823.0987604958016 53.33651254405967 L 823.0987604958016 56.966618287372995 M 831.9952019192323 16.764876632801162 L 831.9952019192323 31.295459257723422 M 831.9952019192323 33.71594443292554 L 831.9952019192323 42.94111548828528 M 840.8916433426629 22.925565001036716 L 840.8916433426629 30.741861911673226 M 840.8916433426629 31.26166286543645 L 840.8916433426629 40.42815674891142 M 849.7880847660936 9.750777524362405 L 849.7880847660936 13.058884511714723 M 849.7880847660936 30.74206925150318 L 849.7880847660936 32.04354136429606 M 858.6845261895241 6.626580966203591 L 858.6845261895241 12.060957910014537 M 858.6845261895241 13.059091851544679 L 858.6845261895241 20.25544267053698 M 885.3738504598159 3.846153846153868 L 885.3738504598159 9.044785403275966 M 885.3738504598159 19.02322206095795 L 885.3738504598159 26.280323450134773" style="stroke-width: 1px;"></path><path class="candle wick down" d="M 13.522590963614554 143.01741654571842 L 13.522590963614554 145.2280738129795 M 13.522590963614554 152.1975948579722 L 13.522590963614554 154.83246941737508 M 22.41903238704518 150.6410947543023 L 22.41903238704518 152.19572879950238 M 22.41903238704518 156.1457599004769 L 22.41903238704518 160.15965166908563 M 40.21191523390643 153.58697905867717 L 40.21191523390643 154.0941322828115 M 40.21191523390643 160.77462160481028 L 40.21191523390643 161.71863985071533 M 58.004798080767685 156.90296495956875 L 58.004798080767685 158.0342110719469 M 58.004798080767685 158.35309973045824 L 58.004798080767685 161.13145345220818 M 75.79768092762893 155.87082728592162 L 75.79768092762893 156.27845739166492 M 75.79768092762893 165.18930126477295 L 75.79768092762893 169.3522703711383 M 93.5905637744902 159.51275139954384 L 93.5905637744902 162.2243416960398 M 93.5905637744902 164.9413228281153 L 93.5905637744902 169.19966825627202 M 111.38344662135144 159.7652913124611 L 111.38344662135144 160.866680489322 M 111.38344662135144 162.13269749118805 L 111.38344662135144 163.14451586149698 M 129.1763294682127 155.18826456562306 L 129.1763294682127 157.04602944225587 M 129.1763294682127 158.3244868339208 L 129.1763294682127 159.97304582210242 M 146.96921231507397 151.99937798051008 L 146.96921231507397 152.67530582624923 M 146.96921231507397 163.7354343769438 L 146.96921231507397 168.47190545303752 M 155.8656537385046 162.199875596102 L 155.8656537385046 163.7354343769438 M 155.8656537385046 189.60501762388554 L 155.8656537385046 193.33817126269957 M 173.65853658536582 180.7965996267883 L 173.65853658536582 183.27285921625545 M 173.65853658536582 189.06925150321376 L 173.65853658536582 196.15384615384616 M 200.34786085565773 183.44391457599005 L 200.34786085565773 184.78229317851958 M 200.34786085565773 189.89944018245905 L 200.34786085565773 195.6354965788928 M 244.83006797281087 180.4974082521252 L 244.83006797281087 183.38855484138503 M 244.83006797281087 185.6245075679038 L 244.83006797281087 188.37860252954593 M 280.4158336665334 170.84884926394363 L 280.4158336665334 172.74497200912296 M 280.4158336665334 173.0356624507568 L 280.4158336665334 177.06137258967448 M 289.31227508996403 171.00290275761972 L 289.31227508996403 173.03545511092682 M 289.31227508996403 173.17250673854448 L 289.31227508996403 175.6719883889695 M 307.10515793682526 170.11942774206926 L 307.10515793682526 170.11942774206926 M 307.10515793682526 173.44432925565 L 307.10515793682526 177.5347294215219 M 316.0015993602559 172.02239270163798 L 316.0015993602559 173.44432925565 M 316.0015993602559 183.8747667426913 L 316.0015993602559 186.3808832676757 M 333.7944822071172 181.38814016172506 L 333.7944822071172 181.54447439353098 M 333.7944822071172 187.51897159444331 L 333.7944822071172 189.68857557536802 M 351.5873650539784 176.7565830396019 L 351.5873650539784 177.25834542815676 M 351.5873650539784 178.28799502384408 L 351.5873650539784 180.9923284262907 M 378.2766893242703 172.82811528094547 L 378.2766893242703 176.47190545303752 M 378.2766893242703 178.0920588845117 L 378.2766893242703 179.54592577234087 M 396.06957217113154 174.91519800953762 L 396.06957217113154 175.0968277006013 M 396.06957217113154 176.42359527265188 L 396.06957217113154 178.7346050176239 M 404.9660135945622 173.4501347708895 L 404.9660135945622 176.42359527265188 M 404.9660135945622 179.68836823553806 L 404.9660135945622 183.4646485589882 M 413.86245501799283 178.74476466929298 L 413.86245501799283 179.68836823553806 M 413.86245501799283 180.69873522703713 L 413.86245501799283 184.77088948787062 M 422.7588964414235 180.011196350819 L 422.7588964414235 180.69873522703713 M 422.7588964414235 181.28633630520423 L 422.7588964414235 182.23180592991915 M 449.44822071171535 175.93821273066555 L 449.44822071171535 176.099937798051 M 449.44822071171535 180.09205888451172 L 449.44822071171535 181.6400580551524 M 511.7233106757297 160.24258760107818 L 511.7233106757297 160.8388969521045 M 511.7233106757297 163.07153224134356 L 511.7233106757297 165.5712212315986 M 520.6197520991603 160.42960812772134 L 520.6197520991603 163.07132490151358 M 520.6197520991603 163.12689197594858 L 520.6197520991603 165.98590089156127 M 538.4126349460215 160.5712212315986 L 538.4126349460215 161.3180592991914 M 538.4126349460215 165.17064068007465 L 538.4126349460215 167.644619531412 M 600.687724910036 129.74932614555254 L 600.687724910036 130.96952104499275 M 600.687724910036 131.91851544681734 L 600.687724910036 136.12730665560855 M 618.4806077568971 123.06655608542401 L 618.4806077568971 128.0068422143894 M 618.4806077568971 129.72568940493468 L 618.4806077568971 132.64565623056188 M 645.169932027189 112.50300642753473 L 645.169932027189 117.133319510678 M 645.169932027189 124.79991706406801 L 645.169932027189 132.64565623056188 M 680.7556977209116 111.76653535144101 L 680.7556977209116 113.92286958324695 M 680.7556977209116 114.53452208169189 L 680.7556977209116 117.82085838689612 M 689.6521391443422 113.11424424631971 L 689.6521391443422 114.53472942152187 M 689.6521391443422 118.93282189508602 L 689.6521391443422 126.27928675098488 M 725.2379048380647 68.95086046029442 L 725.2379048380647 76.62201948994401 M 725.2379048380647 76.83143271822517 L 725.2379048380647 85.41364296081278 M 734.1343462614954 73.2320132697491 L 734.1343462614954 76.83122537839517 M 734.1343462614954 92.62284884926395 L 734.1343462614954 102.4524155090193 M 751.9272291083566 71.43893842007049 L 751.9272291083566 79.00476881608955 M 751.9272291083566 82.04623678208584 L 751.9272291083566 92.88741447232012 M 760.8236705317872 79.31785195936139 L 760.8236705317872 82.04623678208584 M 760.8236705317872 82.69313705162764 L 760.8236705317872 87.35309973045824 M 796.4094362255097 61.34169603980925 L 796.4094362255097 61.485797221646266 M 796.4094362255097 66.66079203815053 L 796.4094362255097 74.96371552975327 M 805.3058776489403 64.38938420070494 L 805.3058776489403 66.67924528301887 M 805.3058776489403 69.0130624092888 L 805.3058776489403 72.7924528301887 M 867.5809676129546 11.103047895500708 L 867.5809676129546 12.060957910014537 M 867.5809676129546 18.060750570184524 L 867.5809676129546 34.721957287995 M 876.4774090363853 10.771304167530587 L 876.4774090363853 18.072154260833486 M 876.4774090363853 19.023429400787904 L 876.4774090363853 26.65353514410117" style="stroke-width: 1px;"></path><path class="candle wick equal" style="stroke-width: 1px;"></path></g></g><g class="x axis" transform="translate(0,200)" fill="none" font-size="10" font-family="sans-serif" text-anchor="middle"><path class="domain" stroke="#000" d="M0.5,6V0.5H890.5V6"></path><g class="tick" opacity="1" transform="translate(4.626149540183927,0)"><line stroke="#000" y2="6" x1="0.5" x2="0.5"></line><text fill="#000" y="9" x="0.5" dy="0.71em">Aug 17</text></g><g class="tick" opacity="1" transform="translate(66.90123950419832,0)"><line stroke="#000" y2="6" x1="0.5" x2="0.5"></line><text fill="#000" y="9" x="0.5" dy="0.71em">Aug 24</text></g><g class="tick" opacity="1" transform="translate(129.1763294682127,0)"><line stroke="#000" y2="6" x1="0.5" x2="0.5"></line><text fill="#000" y="9" x="0.5" dy="0.71em">Aug 31</text></g><g class="tick" opacity="1" transform="translate(191.4514194322271,0)"><line stroke="#000" y2="6" x1="0.5" x2="0.5"></line><text fill="#000" y="9" x="0.5" dy="0.71em">Sep  7</text></g><g class="tick" opacity="1" transform="translate(253.72650939624148,0)"><line stroke="#000" y2="6" x1="0.5" x2="0.5"></line><text fill="#000" y="9" x="0.5" dy="0.71em">Sep 14</text></g><g class="tick" opacity="1" transform="translate(316.0015993602559,0)"><line stroke="#000" y2="6" x1="0.5" x2="0.5"></line><text fill="#000" y="9" x="0.5" dy="0.71em">Sep 21</text></g><g class="tick" opacity="1" transform="translate(378.2766893242703,0)"><line stroke="#000" y2="6" x1="0.5" x2="0.5"></line><text fill="#000" y="9" x="0.5" dy="0.71em">Sep 28</text></g><g class="tick" opacity="1" transform="translate(440.5517792882847,0)"><line stroke="#000" y2="6" x1="0.5" x2="0.5"></line><text fill="#000" y="9" x="0.5" dy="0.71em">Oct  5</text></g><g class="tick" opacity="1" transform="translate(502.82686925229905,0)"><line stroke="#000" y2="6" x1="0.5" x2="0.5"></line><text fill="#000" y="9" x="0.5" dy="0.71em">Oct 12</text></g><g class="tick" opacity="1" transform="translate(565.1019592163135,0)"><line stroke="#000" y2="6" x1="0.5" x2="0.5"></line><text fill="#000" y="9" x="0.5" dy="0.71em">Oct 19</text></g><g class="tick" opacity="1" transform="translate(627.3770491803277,0)"><line stroke="#000" y2="6" x1="0.5" x2="0.5"></line><text fill="#000" y="9" x="0.5" dy="0.71em">Oct 26</text></g><g class="tick" opacity="1" transform="translate(689.6521391443422,0)"><line stroke="#000" y2="6" x1="0.5" x2="0.5"></line><text fill="#000" y="9" x="0.5" dy="0.71em">Nov  2</text></g><g class="tick" opacity="1" transform="translate(751.9272291083566,0)"><line stroke="#000" y2="6" x1="0.5" x2="0.5"></line><text fill="#000" y="9" x="0.5" dy="0.71em">Nov  9</text></g><g class="tick" opacity="1" transform="translate(814.202319072371,0)"><line stroke="#000" y2="6" x1="0.5" x2="0.5"></line><text fill="#000" y="9" x="0.5" dy="0.71em">Nov 16</text></g><g class="tick" opacity="1" transform="translate(876.4774090363853,0)"><line stroke="#000" y2="6" x1="0.5" x2="0.5"></line><text fill="#000" y="9" x="0.5" dy="0.71em">Nov 23</text></g></g><g class="y axis" fill="none" font-size="10" font-family="sans-serif" text-anchor="end"><path class="domain" stroke="#000" d="M-6,200.5H0.5V0.5H-6"></path><g class="tick" opacity="1" transform="translate(0,192.5253991291727)"><line stroke="#000" x2="-6" y1="0.5" y2="0.5"></line><text fill="#000" x="-9" y="0.5" dy="0.32em">10,000</text></g><g class="tick" opacity="1" transform="translate(0,171.79141613103877)"><line stroke="#000" x2="-6" y1="0.5" y2="0.5"></line><text fill="#000" x="-9" y="0.5" dy="0.32em">11,000</text></g><g class="tick" opacity="1" transform="translate(0,151.05743313290483)"><line stroke="#000" x2="-6" y1="0.5" y2="0.5"></line><text fill="#000" x="-9" y="0.5" dy="0.32em">12,000</text></g><g class="tick" opacity="1" transform="translate(0,130.3234501347709)"><line stroke="#000" x2="-6" y1="0.5" y2="0.5"></line><text fill="#000" x="-9" y="0.5" dy="0.32em">13,000</text></g><g class="tick" opacity="1" transform="translate(0,109.58946713663696)"><line stroke="#000" x2="-6" y1="0.5" y2="0.5"></line><text fill="#000" x="-9" y="0.5" dy="0.32em">14,000</text></g><g class="tick" opacity="1" transform="translate(0,88.85548413850302)"><line stroke="#000" x2="-6" y1="0.5" y2="0.5"></line><text fill="#000" x="-9" y="0.5" dy="0.32em">15,000</text></g><g class="tick" opacity="1" transform="translate(0,68.12150114036905)"><line stroke="#000" x2="-6" y1="0.5" y2="0.5"></line><text fill="#000" x="-9" y="0.5" dy="0.32em">16,000</text></g><g class="tick" opacity="1" transform="translate(0,47.38751814223511)"><line stroke="#000" x2="-6" y1="0.5" y2="0.5"></line><text fill="#000" x="-9" y="0.5" dy="0.32em">17,000</text></g><g class="tick" opacity="1" transform="translate(0,26.65353514410117)"><line stroke="#000" x2="-6" y1="0.5" y2="0.5"></line><text fill="#000" x="-9" y="0.5" dy="0.32em">18,000</text></g><g class="tick" opacity="1" transform="translate(0,5.919552145967231)"><line stroke="#000" x2="-6" y1="0.5" y2="0.5"></line><text fill="#000" x="-9" y="0.5" dy="0.32em">19,000</text></g><text transform="rotate(-90)" y="6" dy=".71em" style="text-anchor: end;">Price ($)</text></g></g></svg>