<?xml version="1.0" encoding="utf-8"?>
<!DOCTYPE svg PUBLIC "-//W3C//DTD SVG 1.1//EN" "http://www.w3.org/Graphics/SVG/1.1/DTD/svg11.dtd">
<svg version="1.1" xmlns="http://www.w3.org/2000/svg" width="960" height="250"><g transform="translate(50,20)"><style>.axis path,.axis line{fill:none;stroke:#000;shape-rendering:crispEdges;}path.candle{stroke:#000000;}path.candle.body{stroke-width:0;}path.candle.up{fill:#00AA00;stroke:#00AA00;}path.candle.down{fill:#FF0000;stroke:#FF0000;}</style><g class="candlestick"><g class="data"><path class="candle body up" d="M 9.964014394242305 153.71885432053776 l 7.1171531387445 0 L 17.081167532986804 142.19405816246183 l -7.1171531387445 0 L 9.964014394242305 153.71885432053776 M 36.65333866453418 161.7924911988443 l 7.1171531387445 0 L 43.77049180327868 159.48060166717636 l -7.1171531387445 0 L 36.65333866453418 161.7924911988443 M 45.54978008796481 159.48068300872632 l 7.1171531387445 0 L 52.66693322670931 152.30155915482877 l -7.1171531387445 0 L 45.54978008796481 159.48068300872632 M 54.446221511395436 152.30164049637864 l 7.1171531387445 0 L 61.563374650139934 147.27969454621174 l -7.1171531387445 0 L 54.446221511395436 152.30164049637864 M 72.23910435825668 160.26473420835148 l 7.1171531387445 0 L 79.35625749700118 155.95477084458554 l -7.1171531387445 0 L 72.23910435825668 160.26473420835148 M 98.92842862854857 166.88951539958225 l 7.1171531387445 0 L 106.04558176729307 159.2425962921268 l -7.1171531387445 0 L 98.92842862854857 166.88951539958225 M 116.72131147540982 161.7880987551489 l 7.1171531387445 0 L 123.83846461415432 155.63770148301916 l -7.1171531387445 0 L 116.72131147540982 161.7880987551489 M 143.4106357457017 168.08190117977784 l 7.1171531387445 0 L 150.5277888844462 167.3425064910557 l -7.1171531387445 0 L 143.4106357457017 168.08190117977784 M 170.09996001599356 179.02445452356628 l 7.1171531387445 0 L 177.21711315473806 177.91650127218185 l -7.1171531387445 0 L 170.09996001599356 179.02445452356628 M 178.9964014394242 177.91650127218185 l 7.1171531387445 0 L 186.1135545781687 175.81390354844376 l -7.1171531387445 0 L 178.9964014394242 177.91650127218185 M 205.68572570971608 191.98639318553032 l 7.1171531387445 0 L 212.80287884846058 172.83720952932526 l -7.1171531387445 0 L 205.68572570971608 191.98639318553032 M 214.5821671331467 172.83720952932526 l 7.1171531387445 0 L 221.6993202718912 171.67142243595165 l -7.1171531387445 0 L 214.5821671331467 172.83720952932526 M 223.47860855657734 171.6734559746995 l 7.1171531387445 0 L 230.59576169532184 160.7207349371718 l -7.1171531387445 0 L 223.47860855657734 171.6734559746995 M 232.37504998000796 160.72065359562188 l 7.1171531387445 0 L 239.49220311875246 155.64461551476188 l -7.1171531387445 0 L 232.37504998000796 160.72065359562188 M 241.2714914034386 155.6172034124407 l 7.1171531387445 0 L 248.3886445421831 146.51093555797053 l -7.1171531387445 0 L 241.2714914034386 155.6172034124407 M 250.16793282686922 146.51093555797053 l 7.1171531387445 0 L 257.28508596561375 131.4092260839575 l -7.1171531387445 0 L 250.16793282686922 146.51093555797053 M 259.06437425029986 131.3788856858394 l 7.1171531387445 0 L 266.1815273890444 113.3492057811066 l -7.1171531387445 0 L 259.06437425029986 131.3788856858394 M 267.9608156737305 113.35945481639584 l 7.1171531387445 0 L 275.07796881247504 108.7803322639631 l -7.1171531387445 0 L 267.9608156737305 113.35945481639584 M 285.7536985205918 108.78903580980393 l 7.1171531387445 0 L 292.8708516593363 90.99248078712587 l -7.1171531387445 0 L 285.7536985205918 108.78903580980393 M 330.23590563774496 123.5236508690531 l 7.1171531387445 0 L 337.3530587764895 111.19113312032691 l -7.1171531387445 0 L 330.23590563774496 123.5236508690531 M 339.13234706117555 111.19121446187684 l 7.1171531387445 0 L 346.2495001999201 101.92405302167589 l -7.1171531387445 0 L 339.13234706117555 111.19121446187684 M 348.02878848460614 101.92405302167589 l 7.1171531387445 0 L 355.14594162335067 85.86389606502114 l -7.1171531387445 0 L 348.02878848460614 101.92405302167589 M 356.9252299080368 85.86389606502114 l 7.1171531387445 0 L 364.0423830467813 71.74568727102351 l -7.1171531387445 0 L 356.9252299080368 85.86389606502114 M 374.7181127548981 78.07552400226452 l 7.1171531387445 0 L 381.8352658936426 58.07331151210684 l -7.1171531387445 0 L 374.7181127548981 78.07552400226452 M 410.3038784486206 73.14866632394761 l 7.1171531387445 0 L 417.4210315873651 45.49302740234131 l -7.1171531387445 0 L 410.3038784486206 73.14866632394761 M 454.7860855657737 70.74185120352959 l 7.1171531387445 0 L 461.90323870451823 70.66587819590947 l -7.1171531387445 0 L 454.7860855657737 70.74185120352959 M 463.68252698920435 70.71403239345878 l 7.1171531387445 0 L 470.7996801279489 53.94750541734717 l -7.1171531387445 0 L 463.68252698920435 70.71403239345878 M 472.57896841263494 53.94750541734717 l 7.1171531387445 0 L 479.69612155137946 33.109020452519275 l -7.1171531387445 0 L 472.57896841263494 53.94750541734717 M 490.3718512594962 37.180897099685694 l 7.1171531387445 0 L 497.48900439824075 33.78618885555687 l -7.1171531387445 0 L 490.3718512594962 37.180897099685694 M 499.2682926829268 33.78618885555687 l 7.1171531387445 0 L 506.38544582167134 31.755659745043033 l -7.1171531387445 0 L 499.2682926829268 33.78618885555687 M 517.0611755297881 46.517849589713194 l 7.1171531387445 0 L 524.1783286685326 35.949060667781566 l -7.1171531387445 0 L 517.0611755297881 46.517849589713194 M 534.8540583766493 53.270418355859476 l 7.1171531387445 0 L 541.9712115153937 35.163463978707995 l -7.1171531387445 0 L 534.8540583766493 53.270418355859476 M 570.4398240703717 52.13936410429935 l 7.1171531387445 0 L 577.5569772091162 51.17969649840893 l -7.1171531387445 0 L 570.4398240703717 52.13936410429935 M 579.3362654938024 51.17969649840893 l 7.1171531387445 0 L 586.4534186325469 37.273301100388494 l -7.1171531387445 0 L 579.3362654938024 51.17969649840893 M 588.232706917233 37.27338244193837 l 7.1171531387445 0 L 595.3498600559775 33.72583342552039 l -7.1171531387445 0 L 588.232706917233 37.27338244193837 M 597.1291483406637 33.72591476707035 l 7.1171531387445 0 L 604.2463014794082 27.60488179445963 l -7.1171531387445 0 L 597.1291483406637 33.72591476707035 M 614.9220311875249 28.26862884176137 l 7.1171531387445 0 L 622.0391843262694 13.307152199800868 l -7.1171531387445 0 L 614.9220311875249 28.26862884176137 M 623.8184726109555 13.307152199800868 l 7.1171531387445 0 L 630.9356257497 5.929310939462312 l -7.1171531387445 0 L 623.8184726109555 13.307152199800868 M 650.5077968812475 59.74154535930188 l 7.1171531387445 0 L 657.624950019992 56.920376383619754 l -7.1171531387445 0 L 650.5077968812475 59.74154535930188 M 668.3006797281087 69.55223103603106 l 7.1171531387445 0 L 675.4178328668531 66.85583999791763 l -7.1171531387445 0 L 668.3006797281087 69.55223103603106 M 677.1971211515394 66.85592133946753 l 7.1171531387445 0 L 684.3142742902838 59.92920031495447 l -7.1171531387445 0 L 677.1971211515394 66.85592133946753 M 694.9900039984005 68.75085408627407 l 7.1171531387445 0 L 702.107157137145 51.09323043084993 l -7.1171531387445 0 L 694.9900039984005 68.75085408627407 M 703.8864454218311 51.1602558679794 l 7.1171531387445 0 L 711.0035985605756 42.87862864654164 l -7.1171531387445 0 L 703.8864454218311 51.1602558679794 M 730.5757696921231 49.56026758116255 l 7.1171531387445 0 L 737.6929228308676 41.48500387185777 l -7.1171531387445 0 L 730.5757696921231 49.56026758116255 M 766.1615353858456 102.96823449792744 l 7.1171531387445 0 L 773.27868852459 80.11516336636883 l -7.1171531387445 0 L 766.1615353858456 102.96823449792744 M 775.0579768092763 80.09271309859243 l 7.1171531387445 0 L 782.1751299480208 69.36465742192834 l -7.1171531387445 0 L 775.0579768092763 80.09271309859243 M 801.747301079568 87.21611799079865 l 7.1171531387445 0 L 808.8644542183125 83.22818582314393 l -7.1171531387445 0 L 801.747301079568 87.21611799079865 M 828.43662534986 100.60184612781683 l 7.1171531387445 0 L 835.5537784886045 96.54070656523916 l -7.1171531387445 0 L 828.43662534986 100.60184612781683 M 837.3330667732906 96.54062522368925 l 7.1171531387445 0 L 844.4502199120351 77.83361423281903 l -7.1171531387445 0 L 837.3330667732906 96.54062522368925 M 846.2295081967213 77.86688292673401 l 7.1171531387445 0 L 853.3466613354658 42.71431871571451 l -7.1171531387445 0 L 846.2295081967213 77.86688292673401 M 864.0223910435824 46.836057732978446 l 7.1171531387445 0 L 871.1395441823269 42.239284064214246 l -7.1171531387445 0 L 864.0223910435824 46.836057732978446 M 872.9188324670131 42.239284064214246 l 7.1171531387445 0 L 880.0359856057576 33.902344588834694 l -7.1171531387445 0 L 872.9188324670131 42.239284064214246 M 881.8152738904437 33.902425930384624 l 7.1171531387445 0 L 888.9324270291881 14.381348707970801 l -7.1171531387445 0 L 881.8152738904437 33.902425930384624"></path><path class="candle body down" d="M 1.0675729708116766 152.03020374431424 l 7.1171531387445 0 L 8.184726109556177 153.71885432053776 l -7.1171531387445 0 L 1.0675729708116766 152.03020374431424 M 18.860455817672932 142.19413950401176 l 7.1171531387445 0 L 25.977608956417434 149.24417431819512 l -7.1171531387445 0 L 18.860455817672932 142.19413950401176 M 27.75689724110356 149.24417431819512 l 7.1171531387445 0 L 34.87405037984806 161.77329459306446 l -7.1171531387445 0 L 27.75689724110356 149.24417431819512 M 63.342662934826066 147.26651721512565 l 7.1171531387445 0 L 70.45981607357056 160.2648155499014 l -7.1171531387445 0 L 63.342662934826066 147.26651721512565 M 81.13554578168731 155.9546895030357 l 7.1171531387445 0 L 88.25269892043181 158.86590357447304 l -7.1171531387445 0 L 81.13554578168731 155.9546895030357 M 90.03198720511796 158.86598491602297 l 7.1171531387445 0 L 97.14914034386246 166.88951539958225 l -7.1171531387445 0 L 90.03198720511796 158.86598491602297 M 107.82487005197919 159.2425962921268 l 7.1171531387445 0 L 114.94202319072369 161.7880987551489 l -7.1171531387445 0 L 107.82487005197919 159.2425962921268 M 125.61775289884046 155.63762014146923 l 7.1171531387445 0 L 132.73490603758498 165.17385942878713 l -7.1171531387445 0 L 125.61775289884046 155.63762014146923 M 134.51419432227107 165.17133784073974 l 7.1171531387445 0 L 141.63134746101557 168.0766139790334 l -7.1171531387445 0 L 134.51419432227107 165.17133784073974 M 152.30707716913233 167.34242514950577 l 7.1171531387445 0 L 159.42423030787683 174.9887748661118 l -7.1171531387445 0 L 152.30707716913233 167.34242514950577 M 161.20351859256294 175.03359406011464 l 7.1171531387445 0 L 168.32067173130744 179.02437318201638 l -7.1171531387445 0 L 161.20351859256294 175.03359406011464 M 187.89284286285485 175.81382220689386 l 7.1171531387445 0 L 195.00999600159935 183.45114301145938 l -7.1171531387445 0 L 187.89284286285485 175.81382220689386 M 196.78928428628546 183.45114301145938 l 7.1171531387445 0 L 203.90643742502996 191.98631184398042 l -7.1171531387445 0 L 196.78928428628546 183.45114301145938 M 276.85725709716115 108.78025092241317 l 7.1171531387445 0 L 283.9744102359057 108.80538546133668 l -7.1171531387445 0 L 276.85725709716115 108.78025092241317 M 294.65013994402244 90.99256212867581 l 7.1171531387445 0 L 301.76729308276697 97.04868454445474 l -7.1171531387445 0 L 294.65013994402244 90.99256212867581 M 303.54658136745303 97.0486032029049 l 7.1171531387445 0 L 310.66373450619756 110.1966513310731 l -7.1171531387445 0 L 303.54658136745303 97.0486032029049 M 312.4430227908837 110.15736336246447 l 7.1171531387445 0 L 319.5601759296282 115.87120053620349 l -7.1171531387445 0 L 312.4430227908837 110.15736336246447 M 321.3394642143143 115.87900932499527 l 7.1171531387445 0 L 328.45661735305885 123.52356952750317 l -7.1171531387445 0 L 321.3394642143143 115.87900932499527 M 365.8216713314674 71.74568727102351 l 7.1171531387445 0 L 372.93882447021196 78.0754426607146 l -7.1171531387445 0 L 365.8216713314674 71.74568727102351 M 383.61455417832866 58.11015923421806 l 7.1171531387445 0 L 390.7317073170732 63.51026204993718 l -7.1171531387445 0 L 383.61455417832866 58.11015923421806 M 392.5109956017593 63.51018070838728 l 7.1171531387445 0 L 399.62814874050383 64.11210817775404 l -7.1171531387445 0 L 392.5109956017593 63.51018070838728 M 401.40743702518995 64.11479244890123 l 7.1171531387445 0 L 408.5245901639345 73.15728852823851 l -7.1171531387445 0 L 401.40743702518995 64.11479244890123 M 419.20031987205124 45.49310874389124 l 7.1171531387445 0 L 426.31747301079577 51.44308043703185 l -7.1171531387445 0 L 419.20031987205124 45.49310874389124 M 428.0967612954818 51.44316177858178 l 7.1171531387445 0 L 435.21391443422635 52.21330357317157 l -7.1171531387445 0 L 428.0967612954818 51.44316177858178 M 436.99320271891247 52.21330357317157 l 7.1171531387445 0 L 444.110355857657 60.93742882614379 l -7.1171531387445 0 L 436.99320271891247 52.21330357317157 M 445.8896441423431 60.937347484593886 l 7.1171531387445 0 L 453.00679728108764 70.74185120352959 l -7.1171531387445 0 L 445.8896441423431 60.937347484593886 M 481.47540983606564 33.109020452519275 l 7.1171531387445 0 L 488.59256297481016 37.18097844123557 l -7.1171531387445 0 L 481.47540983606564 33.109020452519275 M 508.16473410635746 31.755659745043033 l 7.1171531387445 0 L 515.281887245102 46.517849589713194 l -7.1171531387445 0 L 508.16473410635746 31.755659745043033 M 525.9576169532187 35.949060667781566 l 7.1171531387445 0 L 533.0747700919632 53.270337014309575 l -7.1171531387445 0 L 525.9576169532187 35.949060667781566 M 543.75049980008 35.163463978707995 l 7.1171531387445 0 L 550.8676529388244 36.583280732464374 l -7.1171531387445 0 L 543.75049980008 35.163463978707995 M 552.6469412235106 36.583280732464374 l 7.1171531387445 0 L 559.764094362255 37.62054817697316 l -7.1171531387445 0 L 552.6469412235106 36.583280732464374 M 561.5433826469413 37.62046683542329 l 7.1171531387445 0 L 568.6605357856857 52.13936410429935 l -7.1171531387445 0 L 561.5433826469413 37.62046683542329 M 606.0255897640943 27.61415473114988 l 7.1171531387445 0 L 613.1427429028388 28.284083736245123 l -7.1171531387445 0 L 606.0255897640943 27.61415473114988 M 632.7149140343862 5.910602382982034 l 7.1171531387445 0 L 639.8320671731307 53.108792696179506 l -7.1171531387445 0 L 632.7149140343862 5.910602382982034 M 641.6113554578168 53.06942338602093 l 7.1171531387445 0 L 648.7285085965613 59.74154535930188 l -7.1171531387445 0 L 641.6113554578168 53.06942338602093 M 659.4042383046781 56.920376383619754 l 7.1171531387445 0 L 666.5213914434225 69.48138254605553 l -7.1171531387445 0 L 659.4042383046781 56.920376383619754 M 686.09356257497 59.929281656504344 l 7.1171531387445 0 L 693.2107157137144 68.75077274472415 l -7.1171531387445 0 L 686.09356257497 59.929281656504344 M 712.7828868452618 42.87870998809154 l 7.1171531387445 0 L 719.9000399840063 45.99880915970925 l -7.1171531387445 0 L 712.7828868452618 42.87870998809154 M 721.6793282686924 45.998890501259154 l 7.1171531387445 0 L 728.7964814074369 49.56026758116255 l -7.1171531387445 0 L 721.6793282686924 45.998890501259154 M 739.4722111155537 41.48492253030784 l 7.1171531387445 0 L 746.5893642542982 50.0339194263143 l -7.1171531387445 0 L 739.4722111155537 41.48492253030784 M 748.3686525389844 50.0339194263143 l 7.1171531387445 0 L 755.4858056777289 84.40991586030073 l -7.1171531387445 0 L 748.3686525389844 50.0339194263143 M 757.265093962415 84.40161902220949 l 7.1171531387445 0 L 764.3822471011595 102.9658755929799 l -7.1171531387445 0 L 757.265093962415 84.40161902220949 M 783.9544182327068 69.36465742192834 l 7.1171531387445 0 L 791.0715713714512 86.07782434129612 l -7.1171531387445 0 L 783.9544182327068 69.36465742192834 M 792.8508596561375 86.07774299974618 l 7.1171531387445 0 L 799.9680127948819 87.21603664924871 l -7.1171531387445 0 L 792.8508596561375 86.07774299974618 M 810.6437425029987 83.22818582314393 l 7.1171531387445 0 L 817.7608956417432 91.47255861472085 l -7.1171531387445 0 L 810.6437425029987 83.22818582314393 M 819.5401839264293 91.47255861472085 l 7.1171531387445 0 L 826.6573370651738 100.58940087067992 l -7.1171531387445 0 L 819.5401839264293 91.47255861472085 M 855.1259496201519 42.71440005726444 l 7.1171531387445 0 L 862.2431027588964 46.83597639142852 l -7.1171531387445 0 L 855.1259496201519 42.71440005726444"></path><path class="candle body equal"></path><path class="candle wick up" d="M 13.522590963614554 136.59556330650145 L 13.522590963614554 142.19405816246183 M 13.522590963614554 153.71885432053776 L 13.522590963614554 155.91068372453196 M 40.21191523390643 157.93112648285643 L 40.21191523390643 159.48060166717636 M 40.21191523390643 161.7924911988443 L 40.21191523390643 168.3269019281201 M 49.10835665733706 150.05262798279463 L 49.10835665733706 152.30155915482877 M 49.10835665733706 159.48068300872632 L 49.10835665733706 163.30219036525605 M 58.004798080767685 141.73756938434207 L 58.004798080767685 147.27969454621174 M 58.004798080767685 152.30164049637864 L 58.004798080767685 154.8392528290591 M 75.79768092762893 148.64322294742735 L 75.79768092762893 155.95477084458554 M 75.79768092762893 160.26473420835148 L 75.79768092762893 161.55115082024818 M 102.48700519792082 156.93095078510862 L 102.48700519792082 159.2425962921268 M 102.48700519792082 166.88951539958225 L 102.48700519792082 171.88909242352267 M 120.27988804478207 152.32701905995197 L 120.27988804478207 155.63770148301916 M 120.27988804478207 161.7880987551489 L 120.27988804478207 163.3856467954683 M 146.96921231507397 164.95098358202156 L 146.96921231507397 167.3425064910557 M 146.96921231507397 168.08190117977784 L 146.96921231507397 177.67304601328794 M 173.65853658536582 174.37122981916147 L 173.65853658536582 177.91650127218185 M 173.65853658536582 179.02445452356628 L 173.65853658536582 180.81030825193756 M 182.55497800879647 170.474318845861 L 182.55497800879647 175.81390354844376 M 182.55497800879647 177.91650127218185 L 182.55497800879647 181.260452389164 M 209.24430227908834 167.03357128448067 L 209.24430227908834 172.83720952932526 M 209.24430227908834 191.98639318553032 L 209.24430227908834 194.48951670104702 M 218.14074370251896 169.20254371294894 L 218.14074370251896 171.67142243595165 M 218.14074370251896 172.83720952932526 L 218.14074370251896 176.38784952464 M 227.0371851259496 160.59132053125794 L 227.0371851259496 160.7207349371718 M 227.0371851259496 171.6734559746995 L 227.0371851259496 174.62826911689106 M 235.93362654938022 153.67728878853148 L 235.93362654938022 155.64461551476188 M 235.93362654938022 160.72065359562188 L 235.93362654938022 162.6155863424284 M 244.83006797281087 146.3728176062158 L 244.83006797281087 146.51093555797053 M 244.83006797281087 155.6172034124407 L 244.83006797281087 158.95537927937892 M 253.72650939624148 104.46565109030213 L 253.72650939624148 131.4092260839575 M 253.72650939624148 146.51093555797053 L 253.72650939624148 147.93636487867093 M 262.6229508196721 112.65991748713175 L 262.6229508196721 113.3492057811066 M 262.6229508196721 131.3788856858394 L 262.6229508196721 138.36067493964455 M 271.51939224310274 101.61869684329712 L 271.51939224310274 108.7803322639631 M 271.51939224310274 113.35945481639584 L 271.51939224310274 118.92817866508754 M 289.31227508996403 90.0949581253701 L 289.31227508996403 90.99248078712587 M 289.31227508996403 108.78903580980393 L 289.31227508996403 122.65988495051177 M 333.7944822071172 109.18622659803606 L 333.7944822071172 111.19113312032691 M 333.7944822071172 123.5236508690531 L 333.7944822071172 129.20519544747614 M 342.6909236305478 97.95832709714783 L 342.6909236305478 101.92405302167589 M 342.6909236305478 111.19121446187684 L 342.6909236305478 130.6356679442713 M 351.5873650539784 81.34488491797515 L 351.5873650539784 85.86389606502114 M 351.5873650539784 101.92405302167589 L 351.5873650539784 110.12816174604517 M 360.483806477409 70.70890787581422 L 360.483806477409 71.74568727102351 M 360.483806477409 85.86389606502114 L 360.483806477409 89.03995822297992 M 378.2766893242703 56.4403798975747 L 378.2766893242703 58.07331151210684 M 378.2766893242703 78.07552400226452 L 378.2766893242703 86.33461961437597 M 413.86245501799283 44.79349007307724 L 413.86245501799283 45.49302740234131 M 413.86245501799283 73.14866632394761 L 413.86245501799283 74.63453241623445 M 458.34466213514594 60.13450638693848 L 458.34466213514594 70.66587819590947 M 458.34466213514594 70.74185120352959 L 458.34466213514594 74.74930534316373 M 467.2411035585766 51.731924280778 L 467.2411035585766 53.94750541734717 M 467.2411035585766 70.71403239345878 L 467.2411035585766 76.99091577570556 M 476.13754498200717 32.61674139243718 L 476.13754498200717 33.109020452519275 M 476.13754498200717 53.94750541734717 L 476.13754498200717 55.06700916881951 M 493.93042782886846 31.66496391688844 L 493.93042782886846 33.78618885555687 M 493.93042782886846 37.180897099685694 L 493.93042782886846 43.459488654480595 M 502.82686925229905 23.53080892544557 L 502.82686925229905 31.755659745043033 M 502.82686925229905 33.78618885555687 L 502.82686925229905 35.49615091785802 M 520.6197520991603 33.582184248371505 L 520.6197520991603 35.949060667781566 M 520.6197520991603 46.517849589713194 L 520.6197520991603 50.973170303176204 M 538.4126349460215 34.51248755474282 L 538.4126349460215 35.163463978707995 M 538.4126349460215 53.270418355859476 L 538.4126349460215 57.303820449916344 M 573.998400639744 41.86429951910873 L 573.998400639744 51.17969649840893 M 573.998400639744 52.13936410429935 L 573.998400639744 54.44059789292848 M 582.8948420631747 34.46311323394477 L 582.8948420631747 37.273301100388494 M 582.8948420631747 51.17969649840893 L 582.8948420631747 55.96981903131973 M 591.7912834866053 23.936459234868835 L 591.7912834866053 33.72583342552039 M 591.7912834866053 37.27338244193837 L 591.7912834866053 39.11536183975065 M 600.687724910036 19.463731429724135 L 600.687724910036 27.60488179445963 M 600.687724910036 33.72591476707035 L 600.687724910036 41.28897073656401 M 618.4806077568971 12.142991937425535 L 618.4806077568971 13.307152199800868 M 618.4806077568971 28.26862884176137 L 618.4806077568971 32.07167166646059 M 627.3770491803277 4.9849355449558175 L 627.3770491803277 5.929310939462312 M 627.3770491803277 13.307152199800868 L 627.3770491803277 19.71320596331168 M 654.0663734506197 48.74693342356821 L 654.0663734506197 56.920376383619754 M 654.0663734506197 59.74154535930188 L 654.0663734506197 64.09518913537181 M 671.8592562974809 60.232685637685194 L 671.8592562974809 66.85583999791763 M 671.8592562974809 69.55223103603106 L 671.8592562974809 70.52816695190432 M 680.7556977209116 56.392795090874756 L 680.7556977209116 59.92920031495447 M 680.7556977209116 66.85592133946753 L 680.7556977209116 70.36678531687414 M 698.5485805677728 49.966812647634896 L 698.5485805677728 51.09323043084993 M 698.5485805677728 68.75085408627407 L 698.5485805677728 71.5675492767109 M 707.4450219912034 39.79911890833131 L 707.4450219912034 42.87862864654164 M 707.4450219912034 51.1602558679794 L 707.4450219912034 54.58440975317717 M 734.1343462614954 37.00747691526814 L 734.1343462614954 41.48500387185777 M 734.1343462614954 49.56026758116255 L 734.1343462614954 51.71110084399993 M 769.7201119552178 76.3983425845789 L 769.7201119552178 80.11516336636883 M 769.7201119552178 102.96823449792744 L 769.7201119552178 104.34046644498382 M 778.6165533786485 68.44761278819308 L 778.6165533786485 69.36465742192834 M 778.6165533786485 80.09271309859243 L 778.6165533786485 83.97498259290832 M 805.3058776489403 76.80952411939637 L 805.3058776489403 83.22818582314393 M 805.3058776489403 87.21611799079865 L 805.3058776489403 102.83882009201355 M 831.9952019192323 87.87197490775867 L 831.9952019192323 96.54070656523916 M 831.9952019192323 100.60184612781683 L 831.9952019192323 102.80725957064676 M 840.8916433426629 75.25289087868391 L 840.8916433426629 77.83361423281903 M 840.8916433426629 96.54062522368925 L 840.8916433426629 97.46889499131272 M 849.7880847660936 39.83978968328853 L 849.7880847660936 42.71431871571451 M 849.7880847660936 77.86688292673401 L 849.7880847660936 82.23476147403903 M 867.5809676129546 33.876803342161566 L 867.5809676129546 42.239284064214246 M 867.5809676129546 46.836057732978446 L 867.5809676129546 51.28454575624863 M 876.4774090363853 31.371158238597474 L 876.4774090363853 33.902344588834694 M 876.4774090363853 42.239284064214246 L 876.4774090363853 52.886974289562886 M 885.3738504598159 12.254429860808301 L 885.3738504598159 14.381348707970801 M 885.3738504598159 33.902425930384624 L 885.3738504598159 35.549836340801534" style="stroke-width: 1px;"></path><path class="candle wick down" d="M 4.626149540183927 147.1885920103076 L 4.626149540183927 152.03020374431424 M 4.626149540183927 153.71885432053776 L 4.626149540183927 158.86102308147818 M 22.41903238704518 140.66264080222288 L 22.41903238704518 142.19413950401176 M 22.41903238704518 149.24417431819512 L 22.41903238704518 157.60161186415309 M 31.315473810475808 149.14192798995268 L 31.315473810475808 149.24417431819512 M 31.315473810475808 161.77329459306446 L 31.315473810475808 168.22929206822278 M 66.90123950419832 147.22055923942398 L 66.90123950419832 147.26651721512565 M 66.90123950419832 160.2648155499014 L 66.90123950419832 164.85727811652012 M 84.69412235105956 149.1295640743657 L 84.69412235105956 155.9546895030357 M 84.69412235105956 158.86590357447304 L 84.69412235105956 159.55201954800128 M 93.5905637744902 158.31668542945084 L 93.5905637744902 158.86598491602297 M 93.5905637744902 166.88951539958225 L 93.5905637744902 173.38634633279756 M 111.38344662135144 155.61321767649488 L 111.38344662135144 159.2425962921268 M 111.38344662135144 161.7880987551489 L 111.38344662135144 165.8396400148367 M 129.1763294682127 152.22591151340833 L 129.1763294682127 155.63762014146923 M 129.1763294682127 165.17385942878713 L 129.1763294682127 168.65763667007215 M 138.07277089164333 163.11290857860521 L 138.07277089164333 165.17133784073974 M 138.07277089164333 168.0766139790334 L 138.07277089164333 172.36754342011935 M 155.8656537385046 164.371669063531 L 155.8656537385046 167.34242514950577 M 155.8656537385046 174.9887748661118 L 155.8656537385046 181.06498864471962 M 164.7620951619352 171.98580752637093 L 164.7620951619352 175.03359406011464 M 164.7620951619352 179.02437318201638 L 164.7620951619352 181.98414815875267 M 191.4514194322271 174.8342259212744 L 191.4514194322271 175.81382220689386 M 191.4514194322271 183.45114301145938 L 191.4514194322271 186.96680614031092 M 200.34786085565773 181.63381010327123 L 200.34786085565773 183.45114301145938 M 200.34786085565773 191.98631184398042 L 200.34786085565773 196.15384615384616 M 280.4158336665334 103.73357714107226 L 280.4158336665334 108.78025092241317 M 280.4158336665334 108.80538546133668 L 280.4158336665334 115.44676032875 M 298.2087165133947 89.02702491654355 L 298.2087165133947 90.99256212867581 M 298.2087165133947 97.04868454445474 L 298.2087165133947 100.8040612209041 M 307.10515793682526 87.79876751283568 L 307.10515793682526 97.0486032029049 M 307.10515793682526 110.1966513310731 L 307.10515793682526 113.64089657909975 M 316.0015993602559 105.03496059815319 L 316.0015993602559 110.15736336246447 M 316.0015993602559 115.87120053620349 L 316.0015993602559 119.59517937438586 M 324.89804078368655 110.72895043371314 L 324.89804078368655 115.87900932499527 M 324.89804078368655 123.52356952750317 L 324.89804078368655 128.11952978076823 M 369.38024790083966 65.74707333103407 L 369.38024790083966 71.74568727102351 M 369.38024790083966 78.0754426607146 L 369.38024790083966 82.41395690850051 M 387.1731307477009 54.44059789292848 L 387.1731307477009 58.11015923421806 M 387.1731307477009 63.51026204993718 L 387.1731307477009 71.60805736856832 M 396.06957217113154 54.087006175450426 L 396.06957217113154 63.51018070838728 M 396.06957217113154 64.11210817775404 L 396.06957217113154 65.49377574460053 M 404.9660135945622 58.360284500204926 L 404.9660135945622 64.11479244890123 M 404.9660135945622 73.15728852823851 L 404.9660135945622 78.27367201785609 M 422.7588964414235 42.694878085284955 L 422.7588964414235 45.49310874389124 M 422.7588964414235 51.44308043703185 L 422.7588964414235 60.37015285704058 M 431.65533786485406 48.9722495168312 L 431.65533786485406 51.44316177858178 M 431.65533786485406 52.21330357317157 L 431.65533786485406 64.20158388265992 M 440.5517792882847 43.42833484086336 L 440.5517792882847 52.21330357317157 M 440.5517792882847 60.93742882614379 L 440.5517792882847 62.90011908402906 M 449.44822071171535 50.69888659686475 L 449.44822071171535 60.937347484593886 M 449.44822071171535 70.74185120352959 L 449.44822071171535 73.34437409304171 M 485.0339864054379 29.574160717887935 L 485.0339864054379 33.109020452519275 M 485.0339864054379 37.18097844123557 L 485.0339864054379 42.060413995952416 M 511.7233106757297 28.73666811996901 L 511.7233106757297 31.755659745043033 M 511.7233106757297 46.517849589713194 L 511.7233106757297 47.11985840062988 M 529.5161935225909 32.86198616542919 L 529.5161935225909 35.949060667781566 M 529.5161935225909 53.270337014309575 L 529.5161935225909 58.100967639077766 M 547.3090763694522 33.299929070168446 L 547.3090763694522 35.163463978707995 M 547.3090763694522 36.583280732464374 L 547.3090763694522 41.044620720621054 M 556.2055177928828 30.5890592361703 L 556.2055177928828 36.583280732464374 M 556.2055177928828 37.62054817697316 L 556.2055177928828 45.79773284832075 M 565.1019592163135 36.638104937106675 L 565.1019592163135 37.62046683542329 M 565.1019592163135 52.13936410429935 L 565.1019592163135 53.19607217923772 M 609.5841663334666 23.240500933800945 L 609.5841663334666 27.61415473114988 M 609.5841663334666 28.284083736245123 L 609.5841663334666 32.722404065776004 M 636.2734906037584 3.846153846153811 L 636.2734906037584 5.910602382982034 M 636.2734906037584 53.108792696179506 L 636.2734906037584 85.81362698717403 M 645.169932027189 49.22668588496353 L 645.169932027189 53.06942338602093 M 645.169932027189 59.74154535930188 L 645.169932027189 73.05138183024995 M 662.9628148740503 51.731924280778 L 662.9628148740503 56.920376383619754 M 662.9628148740503 69.48138254605553 L 662.9628148740503 75.32674900600624 M 689.6521391443422 52.976449994468766 L 689.6521391443422 59.929281656504344 M 689.6521391443422 68.75077274472415 L 689.6521391443422 81.52733401443322 M 716.3414634146341 39.33547207381906 L 716.3414634146341 42.87870998809154 M 716.3414634146341 45.99880915970925 L 716.3414634146341 51.82872072517617 M 725.2379048380647 42.646073155336296 L 725.2379048380647 45.998890501259154 M 725.2379048380647 49.56026758116255 L 725.2379048380647 54.44417692112472 M 743.0307876849259 40.833539398593075 L 743.0307876849259 41.48492253030784 M 743.0307876849259 50.0339194263143 L 743.0307876849259 53.38982775113388 M 751.9272291083566 49.175766074717075 L 751.9272291083566 50.0339194263143 M 751.9272291083566 84.40991586030073 L 751.9272291083566 88.60404885698851 M 760.8236705317872 79.3392463217351 L 760.8236705317872 84.40161902220949 M 760.8236705317872 102.9658755929799 L 760.8236705317872 112.19309833217285 M 787.512994802079 66.64183038009276 L 787.512994802079 69.36465742192834 M 787.512994802079 86.07782434129612 L 787.512994802079 103.44888171637177 M 796.4094362255097 84.80669994078336 L 796.4094362255097 86.07774299974618 M 796.4094362255097 87.21603664924871 L 796.4094362255097 95.54833965628313 M 814.202319072371 73.55586212281922 L 814.202319072371 83.22818582314393 M 814.202319072371 91.47255861472085 L 814.202319072371 91.87397916354855 M 823.0987604958016 86.2664553955477 L 823.0987604958016 91.47255861472085 M 823.0987604958016 100.58940087067992 L 823.0987604958016 101.71630670319442 M 858.6845261895241 41.12832117548302 L 858.6845261895241 42.71440005726444 M 858.6845261895241 46.83597639142852 L 858.6845261895241 48.50120060127671" style="stroke-width: 1px;"></path><path class="candle wick equal" style="stroke-width: 1px;"></path></g></g><g class="x axis" transform="translate(0,200)" fill="none" font-size="10" font-family="sans-serif" text-anchor="middle"><path class="domain" stroke="#000" d="M0.5,6V0.5H890.5V6"></path><g class="tick" opacity="1" transform="translate(4.626149540183927,0)"><line stroke="#000" y2="6" x1="0.5" x2="0.5"></line><text fill="#000" y="9" x="0.5" dy="0.71em">Jun 28</text></g><g class="tick" opacity="1" transform="translate(66.90123950419832,0)"><line stroke="#000" y2="6" x1="0.5" x2="0.5"></line><text fill="#000" y="9" x="0.5" dy="0.71em">Jul  5</text></g><g class="tick" opacity="1" transform="translate(129.1763294682127,0)"><line stroke="#000" y2="6" x1="0.5" x2="0.5"></line><text fill="#000" y="9" x="0.5" dy="0.71em">Jul 12</text></g><g class="tick" opacity="1" transform="translate(191.4514194322271,0)"><line stroke="#000" y2="6" x1="0.5" x2="0.5"></line><text fill="#000" y="9" x="0.5" dy="0.71em">Jul 19</text></g><g class="tick" opacity="1" transform="translate(253.72650939624148,0)"><line stroke="#000" y2="6" x1="0.5" x2="0.5"></line><text fill="#000" y="9" x="0.5" dy="0.71em">Jul 26</text></g><g class="tick" opacity="1" transform="translate(316.0015993602559,0)"><line stroke="#000" y2="6" x1="0.5" x2="0.5"></line><text fill="#000" y="9" x="0.5" dy="0.71em">Aug  2</text></g><g class="tick" opacity="1" transform="translate(378.2766893242703,0)"><line stroke="#000" y2="6" x1="0.5" x2="0.5"></line><text fill="#000" y="9" x="0.5" dy="0.71em">Aug  9</text></g><g class="tick" opacity="1" transform="translate(440.5517792882847,0)"><line stroke="#000" y2="6" x1="0.5" x2="0.5"></line><text fill="#000" y="9" x="0.5" dy="0.71em">Aug 16</text></g><g class="tick" opacity="1" transform="translate(502.82686925229905,0)"><line stroke="#000" y2="6" x1="0.5" x2="0.5"></line><text fill="#000" y="9" x="0.5" dy="0.71em">Aug 23</text></g><g class="tick" opacity="1" transform="translate(565.1019592163135,0)"><line stroke="#000" y2="6" x1="0.5" x2="0.5"></line><text fill="#000" y="9" x="0.5" dy="0.71em">Aug 30</text></g><g class="tick" opacity="1" transform="translate(627.3770491803277,0)"><line stroke="#000" y2="6" x1="0.5" x2="0.5"></line><text fill="#000" y="9" x="0.5" dy="0.71em">Sep  6</text></g><g class="tick" opacity="1" transform="translate(689.6521391443422,0)"><line stroke="#000" y2="6" x1="0.5" x2="0.5"></line><text fill="#000" y="9" x="0.5" dy="0.71em">Sep 13</text></g><g class="tick" opacity="1" transform="translate(751.9272291083566,0)"><line stroke="#000" y2="6" x1="0.5" x2="0.5"></line><text fill="#000" y="9" x="0.5" dy="0.71em">Sep 20</text></g><g class="tick" opacity="1" transform="translate(814.202319072371,0)"><line stroke="#000" y2="6" x1="0.5" x2="0.5"></line><text fill="#000" y="9" x="0.5" dy="0.71em">Sep 27</text></g><g class="tick" opacity="1" transform="translate(876.4774090363853,0)"><line stroke="#000" y2="6" x1="0.5" x2="0.5"></line><text fill="#000" y="9" x="0.5" dy="0.71em">Oct  4</text></g></g><g class="y axis" fill="none" font-size="10" font-family="sans-serif" text-anchor="end"><path class="domain" stroke="#000" d="M-6,200.5H0.5V0.5H-6"></path><g class="tick" opacity="1" transform="translate(0,190.2809862500244)"><line stroke="#000" x2="-6" y1="0.5" y2="0.5"></line><text fill="#000" x="-9" y="0.5" dy="0.32em">30,000</text></g><g class="tick" opacity="1" transform="translate(0,174.01267626713866)"><line stroke="#000" x2="-6" y1="0.5" y2="0.5"></line><text fill="#000" x="-9" y="0.5" dy="0.32em">32,000</text></g><g class="tick" opacity="1" transform="translate(0,157.74436628425292)"><line stroke="#000" x2="-6" y1="0.5" y2="0.5"></line><text fill="#000" x="-9" y="0.5" dy="0.32em">34,000</text></g><g class="tick" opacity="1" transform="translate(0,141.47605630136718)"><line stroke="#000" x2="-6" y1="0.5" y2="0.5"></line><text fill="#000" x="-9" y="0.5" dy="0.32em">36,000</text></g><g class="tick" opacity="1" transform="translate(0,125.20774631848144)"><line stroke="#000" x2="-6" y1="0.5" y2="0.5"></line><text fill="#000" x="-9" y="0.5" dy="0.32em">38,000</text></g><g class="tick" opacity="1" transform="translate(0,108.9394363355957)"><line stroke="#000" x2="-6" y1="0.5" y2="0.5"></line><text fill="#000" x="-9" y="0.5" dy="0.32em">40,000</text></g><g class="tick" opacity="1" transform="translate(0,92.67112635270995)"><line stroke="#000" x2="-6" y1="0.5" y2="0.5"></line><text fill="#000" x="-9" y="0.5" dy="0.32em">42,000</text></g><g class="tick" opacity="1" transform="translate(0,76.40281636982422)"><line stroke="#000" x2="-6" y1="0.5" y2="0.5"></line><text fill="#000" x="-9" y="0.5" dy="0.32em">44,000</text></g><g class="tick" opacity="1" transform="translate(0,60.13450638693848)"><line stroke="#000" x2="-6" y1="0.5" y2="0.5"></line><text fill="#000" x="-9" y="0.5" dy="0.32em">46,000</text></g><g class="tick" opacity="1" transform="translate(0,43.866196404052744)"><line stroke="#000" x2="-6" y1="0.5" y2="0.5"></line><text fill="#000" x="-9" y="0.5" dy="0.32em">48,000</text></g><g class="tick" opacity="1" transform="translate(0,27.597886421167004)"><line stroke="#000" x2="-6" y1="0.5" y2="0.5"></line><text fill="#000" x="-9" y="0.5" dy="0.32em">50,000</text></g><g class="tick" opacity="1" transform="translate(0,11.329576438281265)"><line stroke="#000" x2="-6" y1="0.5" y2="0.5"></line><text fill="#000" x="-9" y="0.5" dy="0.32em">52,000</text></g><text transform="rotate(-90)" y="6" dy=".71em" style="text-anchor: end;">Price ($)</text></g></g></svg>