<?xml version="1.0" encoding="utf-8"?>
<!DOCTYPE svg PUBLIC "-//W3C//DTD SVG 1.1//EN" "http://www.w3.org/Graphics/SVG/1.1/DTD/svg11.dtd">
<svg version="1.1" xmlns="http://www.w3.org/2000/svg" width="960" height="250"><g transform="translate(50,20)"><style>.axis path,.axis line{fill:none;stroke:#000;shape-rendering:crispEdges;}path.candle{stroke:#000000;}path.candle.body{stroke-width:0;}path.candle.up{fill:#00AA00;stroke:#00AA00;}path.candle.down{fill:#FF0000;stroke:#FF0000;}</style><g class="candlestick"><g class="data"><path class="candle body up" d="M 1.0675729708116766 55.438344940598114 l 7.1171531387445 0 L 8.184726109556177 47.410949694849734 l -7.1171531387445 0 L 1.0675729708116766 55.438344940598114 M 9.964014394242305 47.410949694849734 l 7.1171531387445 0 L 17.081167532986804 37.54897635479361 l -7.1171531387445 0 L 9.964014394242305 47.410949694849734 M 27.75689724110356 40.56528955136082 l 7.1171531387445 0 L 34.87405037984806 37.19419321631531 l -7.1171531387445 0 L 27.75689724110356 40.56528955136082 M 45.54978008796481 41.42401705900272 l 7.1171531387445 0 L 52.66693322670931 36.40847067721296 l -7.1171531387445 0 L 45.54978008796481 41.42401705900272 M 81.13554578168731 89.02010525320642 l 7.1171531387445 0 L 88.25269892043181 69.84658452294667 l -7.1171531387445 0 L 81.13554578168731 89.02010525320642 M 98.92842862854857 82.26005525268125 l 7.1171531387445 0 L 106.04558176729307 76.0365129885818 l -7.1171531387445 0 L 98.92842862854857 82.26005525268125 M 107.82487005197919 76.07800502106117 l 7.1171531387445 0 L 114.94202319072369 73.89783506129268 l -7.1171531387445 0 L 107.82487005197919 76.07800502106117 M 134.51419432227107 81.75007090410611 l 7.1171531387445 0 L 141.63134746101557 77.34219897267829 l -7.1171531387445 0 L 134.51419432227107 81.75007090410611 M 161.20351859256294 109.10960199161754 l 7.1171531387445 0 L 168.32067173130744 95.92065042700028 l -7.1171531387445 0 L 161.20351859256294 109.10960199161754 M 170.09996001599356 95.92038781919983 l 7.1171531387445 0 L 177.21711315473806 95.2134476202481 l -7.1171531387445 0 L 170.09996001599356 95.92038781919983 M 178.9964014394242 95.19322681960942 l 7.1171531387445 0 L 186.1135545781687 41.63252765260137 l -7.1171531387445 0 L 178.9964014394242 95.19322681960942 M 187.89284286285485 41.5928738747256 l 7.1171531387445 0 L 195.00999600159935 34.06338301872918 l -7.1171531387445 0 L 187.89284286285485 41.5928738747256 M 196.78928428628546 34.09305770018594 l 7.1171531387445 0 L 203.90643742502996 29.375045956365113 l -7.1171531387445 0 L 196.78928428628546 34.09305770018594 M 205.68572570971608 29.375045956365113 l 7.1171531387445 0 L 212.80287884846058 14.436076009201713 l -7.1171531387445 0 L 205.68572570971608 29.375045956365113 M 223.47860855657734 72.79068057437581 l 7.1171531387445 0 L 230.59576169532184 71.39649576151012 l -7.1171531387445 0 L 223.47860855657734 72.79068057437581 M 241.2714914034386 85.1789409552621 l 7.1171531387445 0 L 248.3886445421831 82.5155726425698 l -7.1171531387445 0 L 241.2714914034386 85.1789409552621 M 250.16793282686922 82.5155726425698 l 7.1171531387445 0 L 257.28508596561375 74.36632737738844 l -7.1171531387445 0 L 250.16793282686922 82.5155726425698 M 267.9608156737305 92.64829462494353 l 7.1171531387445 0 L 275.07796881247504 89.50829315433984 l -7.1171531387445 0 L 267.9608156737305 92.64829462494353 M 294.65013994402244 117.75596382314939 l 7.1171531387445 0 L 301.76729308276697 93.06374016533785 l -7.1171531387445 0 L 294.65013994402244 117.75596382314939 M 330.23590563774496 108.62325234508762 l 7.1171531387445 0 L 337.3530587764895 97.62812634586497 l -7.1171531387445 0 L 330.23590563774496 108.62325234508762 M 348.02878848460614 101.55989033498255 l 7.1171531387445 0 L 355.14594162335067 92.769882036576 l -7.1171531387445 0 L 348.02878848460614 101.55989033498255 M 356.9252299080368 92.769882036576 l 7.1171531387445 0 L 364.0423830467813 88.07734324940392 l -7.1171531387445 0 L 356.9252299080368 92.769882036576 M 392.5109956017593 102.09455981680475 l 7.1171531387445 0 L 399.62814874050383 87.09072574291743 l -7.1171531387445 0 L 392.5109956017593 102.09455981680475 M 401.40743702518995 87.09072574291743 l 7.1171531387445 0 L 408.5245901639345 68.4786604901312 l -7.1171531387445 0 L 401.40743702518995 87.09072574291743 M 445.8896441423431 92.67271715039023 l 7.1171531387445 0 L 453.00679728108764 92.0818495992605 l -7.1171531387445 0 L 445.8896441423431 92.67271715039023 M 472.57896841263494 102.03521045389132 l 7.1171531387445 0 L 479.69612155137946 99.52651813569473 l -7.1171531387445 0 L 472.57896841263494 102.03521045389132 M 481.47540983606564 99.53781027111633 l 7.1171531387445 0 L 488.59256297481016 93.75965083666841 l -7.1171531387445 0 L 481.47540983606564 99.53781027111633 M 508.16473410635746 101.81461990146951 l 7.1171531387445 0 L 515.281887245102 96.70479731929957 l -7.1171531387445 0 L 508.16473410635746 101.81461990146951 M 517.0611755297881 96.70479731929957 l 7.1171531387445 0 L 524.1783286685326 89.17110473849515 l -7.1171531387445 0 L 517.0611755297881 96.70479731929957 M 552.6469412235106 102.51000535719918 l 7.1171531387445 0 L 559.764094362255 99.29437284005087 l -7.1171531387445 0 L 552.6469412235106 102.51000535719918 M 561.5433826469413 99.29437284005087 l 7.1171531387445 0 L 568.6605357856857 98.24446685364346 l -7.1171531387445 0 L 561.5433826469413 99.29437284005087 M 570.4398240703717 98.24604250044642 l 7.1171531387445 0 L 577.5569772091162 88.6317083162638 l -7.1171531387445 0 L 570.4398240703717 98.24604250044642 M 588.232706917233 94.92904337230436 l 7.1171531387445 0 L 595.3498600559775 75.24737654807299 l -7.1171531387445 0 L 588.232706917233 94.92904337230436 M 597.1291483406637 75.27495036712568 l 7.1171531387445 0 L 604.2463014794082 57.08752192775134 l -7.1171531387445 0 L 597.1291483406637 75.27495036712568 M 614.9220311875249 69.60025840607565 l 7.1171531387445 0 L 622.0391843262694 61.80789714177669 l -7.1171531387445 0 L 614.9220311875249 69.60025840607565 M 623.8184726109555 61.80789714177669 l 7.1171531387445 0 L 630.9356257497 56.08751142343934 l -7.1171531387445 0 L 623.8184726109555 61.80789714177669 M 668.3006797281087 73.36264036386937 l 7.1171531387445 0 L 675.4178328668531 71.89256189665858 l -7.1171531387445 0 L 668.3006797281087 73.36264036386937 M 677.1971211515394 71.91094444269373 l 7.1171531387445 0 L 684.3142742902838 47.189046103425426 l -7.1171531387445 0 L 677.1971211515394 71.91094444269373 M 686.09356257497 47.189046103425426 l 7.1171531387445 0 L 693.2107157137144 43.22760743285119 l -7.1171531387445 0 L 686.09356257497 47.189046103425426 M 730.5757696921231 184.4236809210181 l 7.1171531387445 0 L 737.6929228308676 140.34574943014104 l -7.1171531387445 0 L 730.5757696921231 184.4236809210181 M 766.1615353858456 173.6803958024769 l 7.1171531387445 0 L 773.27868852459 166.12569459763236 l -7.1171531387445 0 L 766.1615353858456 173.6803958024769 M 775.0579768092763 166.17138835491969 l 7.1171531387445 0 L 782.1751299480208 158.74352671771766 l -7.1171531387445 0 L 775.0579768092763 166.17138835491969 M 792.8508596561375 165.01880271851596 l 7.1171531387445 0 L 799.9680127948819 164.2060315759619 l -7.1171531387445 0 L 792.8508596561375 165.01880271851596 M 801.747301079568 164.2060315759619 l 7.1171531387445 0 L 808.8644542183125 163.99883402136578 l -7.1171531387445 0 L 801.747301079568 164.2060315759619 M 810.6437425029987 164.025620017017 l 7.1171531387445 0 L 817.7608956417432 163.99279404195423 l -7.1171531387445 0 L 810.6437425029987 164.025620017017 M 837.3330667732906 188.13669261231735 l 7.1171531387445 0 L 844.4502199120351 176.433575982941 l -7.1171531387445 0 L 837.3330667732906 188.13669261231735 M 846.2295081967213 176.4067899872898 l 7.1171531387445 0 L 853.3466613354658 166.55505835145328 l -7.1171531387445 0 L 846.2295081967213 176.4067899872898 M 881.8152738904437 170.3760018487589 l 7.1171531387445 0 L 888.9324270291881 168.04929673631028 l -7.1171531387445 0 L 881.8152738904437 170.3760018487589"></path><path class="candle body down" d="M 18.860455817672932 37.52035210453889 l 7.1171531387445 0 L 25.977608956417434 40.58944946900698 l -7.1171531387445 0 L 18.860455817672932 37.52035210453889 M 36.65333866453418 37.19445582411578 l 7.1171531387445 0 L 43.77049180327868 41.423229235601156 l -7.1171531387445 0 L 36.65333866453418 37.19445582411578 M 54.446221511395436 36.40847067721296 l 7.1171531387445 0 L 61.563374650139934 71.01991617559008 l -7.1171531387445 0 L 54.446221511395436 36.40847067721296 M 63.342662934826066 71.070074265486 l 7.1171531387445 0 L 70.45981607357056 76.36267187680545 l -7.1171531387445 0 L 63.342662934826066 71.070074265486 M 72.23910435825668 76.36267187680545 l 7.1171531387445 0 L 79.35625749700118 89.02010525320642 l -7.1171531387445 0 L 72.23910435825668 76.36267187680545 M 90.03198720511796 69.80798117627282 l 7.1171531387445 0 L 97.14914034386246 82.29603252135 l -7.1171531387445 0 L 90.03198720511796 69.80798117627282 M 116.72131147540982 73.86684734083342 l 7.1171531387445 0 L 123.83846461415432 78.61427115831046 l -7.1171531387445 0 L 116.72131147540982 73.86684734083342 M 125.61775289884046 78.63738064475467 l 7.1171531387445 0 L 132.73490603758498 81.76451433313372 l -7.1171531387445 0 L 125.61775289884046 78.63738064475467 M 143.4106357457017 77.34219897267829 l 7.1171531387445 0 L 150.5277888844462 82.68521728169414 l -7.1171531387445 0 L 143.4106357457017 77.34219897267829 M 152.30707716913233 82.72460845176946 l 7.1171531387445 0 L 159.42423030787683 109.10960199161754 l -7.1171531387445 0 L 152.30707716913233 82.72460845176946 M 214.5821671331467 14.443954243216837 l 7.1171531387445 0 L 221.6993202718912 72.7919936133783 l -7.1171531387445 0 L 214.5821671331467 14.443954243216837 M 232.37504998000796 71.38441580268704 l 7.1171531387445 0 L 239.49220311875246 85.1789409552621 l -7.1171531387445 0 L 232.37504998000796 71.38441580268704 M 259.06437425029986 74.39285076523912 l 7.1171531387445 0 L 266.1815273890444 92.6816458156073 l -7.1171531387445 0 L 259.06437425029986 74.39285076523912 M 276.85725709716115 89.50829315433984 l 7.1171531387445 0 L 283.9744102359057 106.89345476318029 l -7.1171531387445 0 L 276.85725709716115 89.50829315433984 M 285.7536985205918 106.9115747014149 l 7.1171531387445 0 L 292.8708516593363 117.75596382314939 l -7.1171531387445 0 L 285.7536985205918 106.9115747014149 M 303.54658136745303 93.06374016533785 l 7.1171531387445 0 L 310.66373450619756 95.99759451254741 l -7.1171531387445 0 L 303.54658136745303 93.06374016533785 M 312.4430227908837 96.0327839578147 l 7.1171531387445 0 L 319.5601759296282 105.69858927089571 l -7.1171531387445 0 L 312.4430227908837 96.0327839578147 M 321.3394642143143 105.65946070862084 l 7.1171531387445 0 L 328.45661735305885 108.6692087101755 l -7.1171531387445 0 L 321.3394642143143 105.65946070862084 M 339.13234706117555 97.65806363512222 l 7.1171531387445 0 L 346.2495001999201 101.53284173153077 l -7.1171531387445 0 L 339.13234706117555 97.65806363512222 M 365.8216713314674 88.10281620605255 l 7.1171531387445 0 L 372.93882447021196 92.51278899988445 l -7.1171531387445 0 L 365.8216713314674 88.10281620605255 M 374.7181127548981 92.51278899988445 l 7.1171531387445 0 L 381.8352658936426 95.44506770029095 l -7.1171531387445 0 L 374.7181127548981 92.51278899988445 M 383.61455417832866 95.41119129402615 l 7.1171531387445 0 L 390.7317073170732 102.119244950052 l -7.1171531387445 0 L 383.61455417832866 95.41119129402615 M 410.3038784486206 68.4786604901312 l 7.1171531387445 0 L 417.4210315873651 73.19404615594705 l -7.1171531387445 0 L 410.3038784486206 68.4786604901312 M 419.20031987205124 73.19404615594705 l 7.1171531387445 0 L 426.31747301079577 78.38291368606818 l -7.1171531387445 0 L 419.20031987205124 73.19404615594705 M 428.0967612954818 78.38291368606818 l 7.1171531387445 0 L 435.21391443422635 89.69028036008781 l -7.1171531387445 0 L 428.0967612954818 78.38291368606818 M 436.99320271891247 89.69028036008781 l 7.1171531387445 0 L 444.110355857657 92.63490162711796 l -7.1171531387445 0 L 436.99320271891247 89.69028036008781 M 454.7860855657737 92.05716446601333 l 7.1171531387445 0 L 461.90323870451823 100.14784819168271 l -7.1171531387445 0 L 454.7860855657737 92.05716446601333 M 463.68252698920435 100.14784819168271 l 7.1171531387445 0 L 470.7996801279489 102.03521045389132 l -7.1171531387445 0 L 463.68252698920435 100.14784819168271 M 490.3718512594962 93.74783348564581 l 7.1171531387445 0 L 497.48900439824075 98.9645374426202 l -7.1171531387445 0 L 490.3718512594962 93.74783348564581 M 499.2682926829268 98.9645374426202 l 7.1171531387445 0 L 506.38544582167134 101.78862172921987 l -7.1171531387445 0 L 499.2682926829268 98.9645374426202 M 525.9576169532187 89.20734461496444 l 7.1171531387445 0 L 533.0747700919632 95.01202743726303 l -7.1171531387445 0 L 525.9576169532187 89.20734461496444 M 534.8540583766493 95.01202743726303 l 7.1171531387445 0 L 541.9712115153937 100.35530835407933 l -7.1171531387445 0 L 534.8540583766493 95.01202743726303 M 543.75049980008 100.37159003771052 l 7.1171531387445 0 L 550.8676529388244 102.51000535719918 l -7.1171531387445 0 L 543.75049980008 100.37159003771052 M 579.3362654938024 88.6317083162638 l 7.1171531387445 0 L 586.4534186325469 94.95215285874849 l -7.1171531387445 0 L 579.3362654938024 88.6317083162638 M 606.0255897640943 57.086996712150324 l 7.1171531387445 0 L 613.1427429028388 69.60025840607565 l -7.1171531387445 0 L 606.0255897640943 57.086996712150324 M 632.7149140343862 56.087248815638816 l 7.1171531387445 0 L 639.8320671731307 60.8719629407872 l -7.1171531387445 0 L 632.7149140343862 56.087248815638816 M 641.6113554578168 60.8719629407872 l 7.1171531387445 0 L 648.7285085965613 64.46286200485295 l -7.1171531387445 0 L 641.6113554578168 60.8719629407872 M 650.5077968812475 64.46286200485295 l 7.1171531387445 0 L 657.624950019992 64.64983875881052 l -7.1171531387445 0 L 650.5077968812475 64.46286200485295 M 659.4042383046781 64.6711099906511 l 7.1171531387445 0 L 666.5213914434225 73.36264036386937 l -7.1171531387445 0 L 659.4042383046781 64.6711099906511 M 694.9900039984005 43.22760743285119 l 7.1171531387445 0 L 702.107157137145 53.56884000882357 l -7.1171531387445 0 L 694.9900039984005 43.22760743285119 M 703.8864454218311 53.56884000882357 l 7.1171531387445 0 L 711.0035985605756 61.82654229561231 l -7.1171531387445 0 L 703.8864454218311 53.56884000882357 M 712.7828868452618 61.83862225443548 l 7.1171531387445 0 L 719.9000399840063 115.50095064023783 l -7.1171531387445 0 L 712.7828868452618 61.83862225443548 M 721.6793282686924 115.54953308333069 l 7.1171531387445 0 L 728.7964814074369 184.42026701961157 l -7.1171531387445 0 L 721.6793282686924 115.54953308333069 M 739.4722111155537 140.31161041607578 l 7.1171531387445 0 L 746.5893642542982 154.28602191199485 l -7.1171531387445 0 L 739.4722111155537 140.31161041607578 M 748.3686525389844 154.29468796941146 l 7.1171531387445 0 L 755.4858056777289 161.06734314436073 l -7.1171531387445 0 L 748.3686525389844 154.29468796941146 M 757.265093962415 161.03898150190656 l 7.1171531387445 0 L 764.3822471011595 173.73107910797384 l -7.1171531387445 0 L 757.265093962415 161.03898150190656 M 783.9544182327068 158.74352671771766 l 7.1171531387445 0 L 791.0715713714512 164.98860282145827 l -7.1171531387445 0 L 783.9544182327068 158.74352671771766 M 819.5401839264293 163.99279404195423 l 7.1171531387445 0 L 826.6573370651738 175.0341390140653 l -7.1171531387445 0 L 819.5401839264293 163.99279404195423 M 828.43662534986 175.05330938350195 l 7.1171531387445 0 L 835.5537784886045 188.13669261231735 l -7.1171531387445 0 L 828.43662534986 175.05330938350195 M 855.1259496201519 166.55505835145328 l 7.1171531387445 0 L 862.2431027588964 166.66430319646213 l -7.1171531387445 0 L 855.1259496201519 166.55505835145328 M 864.0223910435824 166.64854672843205 l 7.1171531387445 0 L 871.1395441823269 168.68139371211885 l -7.1171531387445 0 L 864.0223910435824 166.64854672843205 M 872.9188324670131 168.70213972835853 l 7.1171531387445 0 L 880.0359856057576 170.35079149991074 l -7.1171531387445 0 L 872.9188324670131 168.70213972835853"></path><path class="candle body equal"></path><path class="candle wick up" d="M 4.626149540183927 41.03535751425963 L 4.626149540183927 47.410949694849734 M 4.626149540183927 55.438344940598114 L 4.626149540183927 57.34198888643783 M 13.522590963614554 30.080673116314244 L 13.522590963614554 37.54897635479361 M 13.522590963614554 47.410949694849734 L 13.522590963614554 49.27441464721264 M 31.315473810475808 33.10407672349501 L 31.315473810475808 37.19419321631531 M 31.315473810475808 40.56528955136082 L 31.315473810475808 53.974306452798885 M 49.10835665733706 29.558608808916006 L 49.10835665733706 36.40847067721296 M 49.10835665733706 41.42401705900272 L 49.10835665733706 42.94451622390986 M 84.69412235105956 65.96287776132104 L 84.69412235105956 69.84658452294667 M 84.69412235105956 89.02010525320642 L 84.69412235105956 89.14668221304842 M 102.48700519792082 64.48229498209014 L 102.48700519792082 76.0365129885818 M 102.48700519792082 82.26005525268125 L 102.48700519792082 82.65633042363893 M 111.38344662135144 71.878118467631 L 111.38344662135144 73.89783506129268 M 111.38344662135144 76.07800502106117 L 111.38344662135144 88.75618441370183 M 138.07277089164333 76.5824746058257 L 138.07277089164333 77.34219897267829 M 138.07277089164333 81.75007090410611 L 138.07277089164333 88.2981964096262 M 164.7620951619352 91.42427966680317 L 164.7620951619352 95.92065042700028 M 164.7620951619352 109.10960199161754 L 164.7620951619352 116.45841868086849 M 173.65853658536582 91.57685479889494 L 173.65853658536582 95.2134476202481 M 173.65853658536582 95.92038781919983 L 173.65853658536582 103.29572789630144 M 182.55497800879647 35.40583409489591 L 182.55497800879647 41.63252765260137 M 182.55497800879647 95.19322681960942 L 182.55497800879647 95.949274677255 M 191.4514194322271 29.797056691771985 L 191.4514194322271 34.06338301872918 M 191.4514194322271 41.5928738747256 L 191.4514194322271 48.170936669502794 M 200.34786085565773 28.505026313301585 L 200.34786085565773 29.375045956365113 M 200.34786085565773 34.09305770018594 L 200.34786085565773 41.89802413890902 M 209.24430227908834 12.013256441769329 L 209.24430227908834 14.436076009201713 M 209.24430227908834 29.375045956365113 L 209.24430227908834 36.94760449164386 M 227.0371851259496 63.1303900251053 L 227.0371851259496 71.39649576151012 M 227.0371851259496 72.79068057437581 L 227.0371851259496 87.39167428229291 M 244.83006797281087 80.23876301221651 L 244.83006797281087 82.5155726425698 M 244.83006797281087 85.1789409552621 L 244.83006797281087 95.20714503303611 M 253.72650939624148 72.38678977720355 L 253.72650939624148 74.36632737738844 M 253.72650939624148 82.5155726425698 L 253.72650939624148 83.96569291694236 M 271.51939224310274 85.59070998644943 L 271.51939224310274 89.50829315433984 M 271.51939224310274 92.64829462494353 L 271.51939224310274 123.76443029863756 M 298.2087165133947 89.16296389667964 L 298.2087165133947 93.06374016533785 M 298.2087165133947 117.75596382314939 L 298.2087165133947 120.51255790502003 M 333.7944822071172 95.2347188520888 L 333.7944822071172 97.62812634586497 M 333.7944822071172 108.62325234508762 L 333.7944822071172 111.99539911133517 M 351.5873650539784 82.86484101723757 L 351.5873650539784 92.769882036576 M 351.5873650539784 101.55989033498255 L 351.5873650539784 117.49545688505135 M 360.483806477409 86.65899851889198 L 360.483806477409 88.07734324940392 M 360.483806477409 92.769882036576 L 360.483806477409 107.73353711698657 M 396.06957217113154 84.72673032279754 L 396.06957217113154 87.09072574291743 M 396.06957217113154 102.09455981680475 L 396.06957217113154 104.66969190852843 M 404.9660135945622 64.8762066828433 L 404.9660135945622 68.4786604901312 M 404.9660135945622 87.09072574291743 L 404.9660135945622 90.72731856427067 M 449.44822071171535 88.95734198888643 L 449.44822071171535 92.0818495992605 M 449.44822071171535 92.67271715039023 L 449.44822071171535 95.31140032983538 M 476.13754498200717 97.35265076313824 L 476.13754498200717 99.52651813569473 M 476.13754498200717 102.03521045389132 L 476.13754498200717 104.50687507221713 M 485.0339864054379 90.11833107490624 L 485.0339864054379 93.75965083666841 M 485.0339864054379 99.53781027111633 L 485.0339864054379 124.88208909757455 M 511.7233106757297 92.42796668032227 L 511.7233106757297 96.70479731929957 M 511.7233106757297 101.81461990146951 L 511.7233106757297 101.9369951365035 M 520.6197520991603 85.8333595941134 L 520.6197520991603 89.17110473849515 M 520.6197520991603 96.70479731929957 L 520.6197520991603 99.61843086587048 M 556.2055177928828 97.04566224435132 L 556.2055177928828 99.29437284005087 M 556.2055177928828 102.51000535719918 L 556.2055177928828 112.80213027447768 M 565.1019592163135 96.86183678399982 L 565.1019592163135 98.24446685364346 M 565.1019592163135 99.29437284005087 L 565.1019592163135 100.65074212964419 M 573.998400639744 85.35961512200758 L 573.998400639744 88.6317083162638 M 573.998400639744 98.24604250044642 L 573.998400639744 101.76971396758367 M 591.7912834866053 66.42900660721227 L 591.7912834866053 75.24737654807299 M 591.7912834866053 94.92904337230436 L 591.7912834866053 97.38705238500404 M 600.687724910036 50.56408155547851 L 600.687724910036 57.08752192775134 M 600.687724910036 75.27495036712568 L 600.687724910036 76.02627128436224 M 618.4806077568971 57.654492169035365 L 618.4806077568971 61.80789714177669 M 618.4806077568971 69.60025840607565 L 618.4806077568971 77.34771373648881 M 627.3770491803277 48.85713085221482 L 627.3770491803277 56.08751142343934 M 627.3770491803277 61.80789714177669 L 627.3770491803277 62.80134245107621 M 671.8592562974809 67.02118719734452 L 671.8592562974809 71.89256189665858 M 671.8592562974809 73.36264036386937 L 671.8592562974809 76.52969043792473 M 680.7556977209116 43.15722854231663 L 680.7556977209116 47.189046103425426 M 680.7556977209116 71.91094444269373 L 680.7556977209116 72.59792644880724 M 689.6521391443422 38.46705322534896 L 689.6521391443422 43.22760743285119 M 689.6521391443422 47.189046103425426 L 689.6521391443422 48.97136524543319 M 734.1343462614954 124.64574207712266 L 734.1343462614954 140.34574943014104 M 734.1343462614954 184.4236809210181 L 734.1343462614954 188.84652149707458 M 769.7201119552178 151.14286914778518 L 769.7201119552178 166.12569459763236 M 769.7201119552178 173.6803958024769 L 769.7201119552178 187.24592695301425 M 778.6165533786485 152.59535289236237 L 778.6165533786485 158.74352671771766 M 778.6165533786485 166.17138835491969 L 778.6165533786485 168.53485855943865 M 796.4094362255097 162.67135158982762 L 796.4094362255097 164.2060315759619 M 796.4094362255097 165.01880271851596 L 796.4094362255097 171.60684460971225 M 805.3058776489403 155.84354877677288 L 805.3058776489403 163.99883402136578 M 805.3058776489403 164.2060315759619 L 805.3058776489403 168.0537610689188 M 814.202319072371 160.7960692864421 L 814.202319072371 163.99279404195423 M 814.202319072371 164.025620017017 L 814.202319072371 167.85706782634276 M 840.8916433426629 174.12105169171946 L 840.8916433426629 176.433575982941 M 840.8916433426629 188.13669261231735 L 840.8916433426629 192.4607926553851 M 849.7880847660936 163.85308669208712 L 849.7880847660936 166.55505835145328 M 849.7880847660936 176.4067899872898 L 849.7880847660936 178.18622044349206 M 885.3738504598159 166.63672937740944 L 885.3738504598159 168.04929673631028 M 885.3738504598159 170.3760018487589 L 885.3738504598159 170.66539564491225" style="stroke-width: 1px;"></path><path class="candle wick down" d="M 22.41903238704518 36.679744535131675 L 22.41903238704518 37.52035210453889 M 22.41903238704518 40.58944946900698 L 22.41903238704518 53.973256021596825 M 40.21191523390643 27.454595111293173 L 40.21191523390643 37.19445582411578 M 40.21191523390643 41.423229235601156 L 40.21191523390643 47.28148404920219 M 58.004798080767685 27.802025231357447 L 58.004798080767685 36.40847067721296 M 58.004798080767685 71.01991617559008 L 58.004798080767685 74.51653903927557 M 66.90123950419832 66.76882110106197 L 66.90123950419832 71.070074265486 M 66.90123950419832 76.36267187680545 L 66.90123950419832 82.60223321673547 M 75.79768092762893 72.85475687769829 L 75.79768092762893 76.36267187680545 M 75.79768092762893 89.02010525320642 L 75.79768092762893 89.95525163079444 M 93.5905637744902 62.21730270275947 L 93.5905637744902 69.80798117627282 M 93.5905637744902 82.29603252135 L 93.5905637744902 89.43003602979023 M 120.27988804478207 65.76224540173746 L 120.27988804478207 73.86684734083342 M 120.27988804478207 78.61427115831046 L 120.27988804478207 83.77635269278036 M 129.1763294682127 75.88131177848506 L 129.1763294682127 78.63738064475467 M 129.1763294682127 81.76451433313372 L 129.1763294682127 86.46992090253045 M 146.96921231507397 75.84612233321776 L 146.96921231507397 77.34219897267829 M 146.96921231507397 82.68521728169414 L 146.96921231507397 86.96598703767893 M 155.8656537385046 72.62313679765543 L 155.8656537385046 82.72460845176946 M 155.8656537385046 109.10960199161754 L 155.8656537385046 112.81499805670232 M 218.14074370251896 3.8461538461538396 L 218.14074370251896 14.443954243216837 M 218.14074370251896 72.7919936133783 L 218.14074370251896 81.02658641372282 M 235.93362654938022 68.67771720291174 L 235.93362654938022 71.38441580268704 M 235.93362654938022 85.1789409552621 L 235.93362654938022 90.55924957194928 M 262.6229508196721 74.27073813800568 L 262.6229508196721 74.39285076523912 M 262.6229508196721 92.6816458156073 L 262.6229508196721 94.79721425645229 M 280.4158336665334 86.94524102143933 L 280.4158336665334 89.50829315433984 M 280.4158336665334 106.89345476318029 L 280.4158336665334 111.17737581277117 M 289.31227508996403 78.50555152890261 L 289.31227508996403 106.9115747014149 M 289.31227508996403 117.75596382314939 L 289.31227508996403 126.56330423638906 M 307.10515793682526 90.48046723179866 L 307.10515793682526 93.06374016533785 M 307.10515793682526 95.99759451254741 L 307.10515793682526 115.9161335728317 M 316.0015993602559 95.3087742518304 L 316.0015993602559 96.0327839578147 M 316.0015993602559 105.69858927089571 L 316.0015993602559 108.72278070147794 M 324.89804078368655 98.87840208405552 L 324.89804078368655 105.65946070862084 M 324.89804078368655 108.6692087101755 L 324.89804078368655 113.34835449952205 M 342.6909236305478 67.21709261651904 L 342.6909236305478 97.65806363512222 M 342.6909236305478 101.53284173153077 L 342.6909236305478 108.43443733652666 M 369.38024790083966 72.49183289740438 L 369.38024790083966 88.10281620605255 M 369.38024790083966 92.51278899988445 L 369.38024790083966 99.53098246830324 M 378.2766893242703 90.90063971260203 L 378.2766893242703 92.51278899988445 M 378.2766893242703 95.44506770029095 L 378.2766893242703 99.42436370129943 M 387.1731307477009 93.21395182722507 L 387.1731307477009 95.41119129402615 M 387.1731307477009 102.119244950052 L 387.1731307477009 105.70252838790327 M 413.86245501799283 67.74913602033638 L 413.86245501799283 68.4786604901312 M 413.86245501799283 73.19404615594705 L 413.86245501799283 84.4404878202502 M 422.7588964414235 65.3594050357672 L 422.7588964414235 73.19404615594705 M 422.7588964414235 78.38291368606818 L 422.7588964414235 81.2104118740743 M 431.65533786485406 75.54281032363785 L 431.65533786485406 78.38291368606818 M 431.65533786485406 89.69028036008781 L 431.65533786485406 95.20740764083658 M 440.5517792882847 87.13536906900279 L 440.5517792882847 89.69028036008781 M 440.5517792882847 92.63490162711796 L 440.5517792882847 97.38337587579704 M 458.34466213514594 89.82394773054338 L 458.34466213514594 92.05716446601333 M 458.34466213514594 100.14784819168271 L 458.34466213514594 103.0790764608872 M 467.2411035585766 96.57060473324299 L 467.2411035585766 100.14784819168271 M 467.2411035585766 102.03521045389132 L 467.2411035585766 107.28736646393344 M 493.93042782886846 78.61400855051002 L 493.93042782886846 93.74783348564581 M 493.93042782886846 98.9645374426202 L 493.93042782886846 101.76288616477066 M 502.82686925229905 97.63180285507201 L 502.82686925229905 98.9645374426202 M 502.82686925229905 101.78862172921987 L 502.82686925229905 104.26264981775017 M 529.5161935225909 85.05341442662213 L 529.5161935225909 89.20734461496444 M 529.5161935225909 95.01202743726303 L 529.5161935225909 101.2211262723348 M 538.4126349460215 94.1527747140201 L 538.4126349460215 95.01202743726303 M 538.4126349460215 100.35530835407933 L 538.4126349460215 101.87843359699154 M 547.3090763694522 94.47683273983971 L 547.3090763694522 100.37159003771052 M 547.3090763694522 102.51000535719918 L 547.3090763694522 106.23693526192503 M 582.8948420631747 87.8241893297198 L 582.8948420631747 88.6317083162638 M 582.8948420631747 94.95215285874849 L 582.8948420631747 99.4879147890209 M 609.5841663334666 54.445162239099176 L 609.5841663334666 57.086996712150324 M 609.5841663334666 69.60025840607565 L 609.5841663334666 72.09792119665121 M 636.2734906037584 52.89577621613674 L 636.2734906037584 56.087248815638816 M 636.2734906037584 60.8719629407872 L 636.2734906037584 63.82577548083489 M 645.169932027189 55.13555814661922 L 645.169932027189 60.8719629407872 M 645.169932027189 64.46286200485295 L 645.169932027189 71.10132459374569 M 654.0663734506197 58.967531171545915 L 654.0663734506197 64.46286200485295 M 654.0663734506197 64.64983875881052 L 654.0663734506197 68.66458681288663 M 662.9628148740503 56.34145316652484 L 662.9628148740503 64.6711099906511 M 662.9628148740503 73.36264036386937 L 662.9628148740503 76.0885093330812 M 698.5485805677728 41.49702202754227 L 698.5485805677728 43.22760743285119 M 698.5485805677728 53.56884000882357 L 698.5485805677728 54.07961218080018 M 707.4450219912034 49.25708253237951 L 707.4450219912034 53.56884000882357 M 707.4450219912034 61.82654229561231 L 707.4450219912034 67.24256557316778 M 716.3414634146341 58.9444216851017 L 716.3414634146341 61.83862225443548 M 716.3414634146341 115.50095064023783 L 716.3414634146341 151.7513314215485 M 725.2379048380647 114.43660122480283 L 725.2379048380647 115.54953308333069 M 725.2379048380647 184.42026701961157 L 725.2379048380647 193.2126387882226 M 743.0307876849259 137.88117522242882 L 743.0307876849259 140.31161041607578 M 743.0307876849259 154.28602191199485 L 743.0307876849259 172.89729934137964 M 751.9272291083566 153.00475845334515 L 751.9272291083566 154.29468796941146 M 751.9272291083566 161.06734314436073 L 751.9272291083566 165.81240349163335 M 760.8236705317872 157.33306022122085 L 760.8236705317872 161.03898150190656 M 760.8236705317872 173.73107910797384 L 760.8236705317872 176.3794787760376 M 787.512994802079 155.71434573892589 L 787.512994802079 158.74352671771766 M 787.512994802079 164.98860282145827 L 787.512994802079 172.45060347272556 M 823.0987604958016 162.6101639723106 L 823.0987604958016 163.99279404195423 M 823.0987604958016 175.0341390140653 L 823.0987604958016 177.6662569984979 M 831.9952019192323 174.01600857151863 L 831.9952019192323 175.05330938350195 M 831.9952019192323 188.13669261231735 L 831.9952019192323 196.1538461538462 M 858.6845261895241 161.05289971533313 L 858.6845261895241 166.55505835145328 M 858.6845261895241 166.66430319646213 L 858.6845261895241 170.36444710553687 M 867.5809676129546 164.90351789409556 L 867.5809676129546 166.64854672843205 M 867.5809676129546 168.68139371211885 L 867.5809676129546 173.39073939852312 M 876.4774090363853 163.95839242008842 L 876.4774090363853 168.70213972835853 M 876.4774090363853 170.35079149991074 L 876.4774090363853 172.28279708820472" style="stroke-width: 1px;"></path><path class="candle wick equal" style="stroke-width: 1px;"></path></g></g><g class="x axis" transform="translate(0,200)" fill="none" font-size="10" font-family="sans-serif" text-anchor="middle"><path class="domain" stroke="#000" d="M0.5,6V0.5H890.5V6"></path><g class="tick" opacity="1" transform="translate(22.41903238704518,0)"><line stroke="#000" y2="6" x1="0.5" x2="0.5"></line><text fill="#000" y="9" x="0.5" dy="0.71em">Aug 22</text></g><g class="tick" opacity="1" transform="translate(84.69412235105956,0)"><line stroke="#000" y2="6" x1="0.5" x2="0.5"></line><text fill="#000" y="9" x="0.5" dy="0.71em">Aug 29</text></g><g class="tick" opacity="1" transform="translate(146.96921231507397,0)"><line stroke="#000" y2="6" x1="0.5" x2="0.5"></line><text fill="#000" y="9" x="0.5" dy="0.71em">Sep  5</text></g><g class="tick" opacity="1" transform="translate(209.24430227908834,0)"><line stroke="#000" y2="6" x1="0.5" x2="0.5"></line><text fill="#000" y="9" x="0.5" dy="0.71em">Sep 12</text></g><g class="tick" opacity="1" transform="translate(271.51939224310274,0)"><line stroke="#000" y2="6" x1="0.5" x2="0.5"></line><text fill="#000" y="9" x="0.5" dy="0.71em">Sep 19</text></g><g class="tick" opacity="1" transform="translate(333.7944822071172,0)"><line stroke="#000" y2="6" x1="0.5" x2="0.5"></line><text fill="#000" y="9" x="0.5" dy="0.71em">Sep 26</text></g><g class="tick" opacity="1" transform="translate(396.06957217113154,0)"><line stroke="#000" y2="6" x1="0.5" x2="0.5"></line><text fill="#000" y="9" x="0.5" dy="0.71em">Oct  3</text></g><g class="tick" opacity="1" transform="translate(458.34466213514594,0)"><line stroke="#000" y2="6" x1="0.5" x2="0.5"></line><text fill="#000" y="9" x="0.5" dy="0.71em">Oct 10</text></g><g class="tick" opacity="1" transform="translate(520.6197520991603,0)"><line stroke="#000" y2="6" x1="0.5" x2="0.5"></line><text fill="#000" y="9" x="0.5" dy="0.71em">Oct 17</text></g><g class="tick" opacity="1" transform="translate(582.8948420631747,0)"><line stroke="#000" y2="6" x1="0.5" x2="0.5"></line><text fill="#000" y="9" x="0.5" dy="0.71em">Oct 24</text></g><g class="tick" opacity="1" transform="translate(645.169932027189,0)"><line stroke="#000" y2="6" x1="0.5" x2="0.5"></line><text fill="#000" y="9" x="0.5" dy="0.71em">Oct 31</text></g><g class="tick" opacity="1" transform="translate(707.4450219912034,0)"><line stroke="#000" y2="6" x1="0.5" x2="0.5"></line><text fill="#000" y="9" x="0.5" dy="0.71em">Nov  7</text></g><g class="tick" opacity="1" transform="translate(769.7201119552178,0)"><line stroke="#000" y2="6" x1="0.5" x2="0.5"></line><text fill="#000" y="9" x="0.5" dy="0.71em">Nov 14</text></g><g class="tick" opacity="1" transform="translate(831.9952019192323,0)"><line stroke="#000" y2="6" x1="0.5" x2="0.5"></line><text fill="#000" y="9" x="0.5" dy="0.71em">Nov 21</text></g></g><g class="y axis" fill="none" font-size="10" font-family="sans-serif" text-anchor="end"><path class="domain" stroke="#000" d="M-6,200.5H0.5V0.5H-6"></path><g class="tick" opacity="1" transform="translate(0,182.3931974075358)"><line stroke="#000" x2="-6" y1="0.5" y2="0.5"></line><text fill="#000" x="-9" y="0.5" dy="0.32em">16,000</text></g><g class="tick" opacity="1" transform="translate(0,156.1324173573252)"><line stroke="#000" x2="-6" y1="0.5" y2="0.5"></line><text fill="#000" x="-9" y="0.5" dy="0.32em">17,000</text></g><g class="tick" opacity="1" transform="translate(0,129.87163730711455)"><line stroke="#000" x2="-6" y1="0.5" y2="0.5"></line><text fill="#000" x="-9" y="0.5" dy="0.32em">18,000</text></g><g class="tick" opacity="1" transform="translate(0,103.61085725690397)"><line stroke="#000" x2="-6" y1="0.5" y2="0.5"></line><text fill="#000" x="-9" y="0.5" dy="0.32em">19,000</text></g><g class="tick" opacity="1" transform="translate(0,77.35007720669333)"><line stroke="#000" x2="-6" y1="0.5" y2="0.5"></line><text fill="#000" x="-9" y="0.5" dy="0.32em">20,000</text></g><g class="tick" opacity="1" transform="translate(0,51.08929715648273)"><line stroke="#000" x2="-6" y1="0.5" y2="0.5"></line><text fill="#000" x="-9" y="0.5" dy="0.32em">21,000</text></g><g class="tick" opacity="1" transform="translate(0,24.828517106272102)"><line stroke="#000" x2="-6" y1="0.5" y2="0.5"></line><text fill="#000" x="-9" y="0.5" dy="0.32em">22,000</text></g><text transform="rotate(-90)" y="6" dy=".71em" style="text-anchor: end;">Price ($)</text></g></g></svg>