<?xml version="1.0" encoding="utf-8"?>
<!DOCTYPE svg PUBLIC "-//W3C//DTD SVG 1.1//EN" "http://www.w3.org/Graphics/SVG/1.1/DTD/svg11.dtd">
<svg version="1.1" xmlns="http://www.w3.org/2000/svg" width="960" height="250"><g transform="translate(50,20)"><style>.axis path,.axis line{fill:none;stroke:#000;shape-rendering:crispEdges;}path.candle{stroke:#000000;}path.candle.body{stroke-width:0;}path.candle.up{fill:#00AA00;stroke:#00AA00;}path.candle.down{fill:#FF0000;stroke:#FF0000;}</style><g class="candlestick"><g class="data"><path class="candle body up" d="M 1.0675729708116766 36.90258540388123 l 7.1171531387445 0 L 8.184726109556177 24.844244349843592 l -7.1171531387445 0 L 1.0675729708116766 36.90258540388123 M 27.75689724110356 50.260542118520334 l 7.1171531387445 0 L 34.87405037984806 46.96981090783976 l -7.1171531387445 0 L 27.75689724110356 50.260542118520334 M 36.65333866453418 46.96981090783976 l 7.1171531387445 0 L 43.77049180327868 36.74259532403349 l -7.1171531387445 0 L 36.65333866453418 46.96981090783976 M 45.54978008796481 36.74259532403349 l 7.1171531387445 0 L 52.66693322670931 20.856769769850132 l -7.1171531387445 0 L 45.54978008796481 36.74259532403349 M 63.342662934826066 39.463194019957086 l 7.1171531387445 0 L 70.45981607357056 32.16171229440508 l -7.1171531387445 0 L 63.342662934826066 39.463194019957086 M 81.13554578168731 54.28152381355778 l 7.1171531387445 0 L 88.25269892043181 33.76928647800679 l -7.1171531387445 0 L 81.13554578168731 54.28152381355778 M 98.92842862854857 48.07017433470605 l 7.1171531387445 0 L 106.04558176729307 44.94902493527883 l -7.1171531387445 0 L 98.92842862854857 48.07017433470605 M 107.82487005197919 44.94889704552679 l 7.1171531387445 0 L 114.94202319072369 34.09271966100829 l -7.1171531387445 0 L 107.82487005197919 44.94889704552679 M 125.61775289884046 49.24509748703289 l 7.1171531387445 0 L 132.73490603758498 42.26947884977184 l -7.1171531387445 0 L 125.61775289884046 49.24509748703289 M 161.20351859256294 55.375236973316106 l 7.1171531387445 0 L 168.32067173130744 50.24020764794017 l -7.1171531387445 0 L 161.20351859256294 55.375236973316106 M 170.09996001599356 50.24020764794017 l 7.1171531387445 0 L 177.21711315473806 44.65436694649458 l -7.1171531387445 0 L 170.09996001599356 50.24020764794017 M 178.9964014394242 44.65436694649458 l 7.1171531387445 0 L 186.1135545781687 15.673014448933031 l -7.1171531387445 0 L 178.9964014394242 44.65436694649458 M 187.89284286285485 15.672886559180967 l 7.1171531387445 0 L 195.00999600159935 14.818455125557819 l -7.1171531387445 0 L 187.89284286285485 15.672886559180967 M 205.68572570971608 40.335018459862596 l 7.1171531387445 0 L 212.80287884846058 32.06336507505827 l -7.1171531387445 0 L 205.68572570971608 40.335018459862596 M 223.47860855657734 41.68591791104677 l 7.1171531387445 0 L 230.59576169532184 39.59070010277733 l -7.1171531387445 0 L 223.47860855657734 41.68591791104677 M 232.37504998000796 39.59082799252943 l 7.1171531387445 0 L 239.49220311875246 38.88513234057126 l -7.1171531387445 0 L 232.37504998000796 39.59082799252943 M 241.2714914034386 38.8852602303233 l 7.1171531387445 0 L 248.3886445421831 20.291369175919925 l -7.1171531387445 0 L 241.2714914034386 38.8852602303233 M 321.3394642143143 138.41904069692347 l 7.1171531387445 0 L 328.45661735305885 132.69853208654126 l -7.1171531387445 0 L 321.3394642143143 138.41904069692347 M 339.13234706117555 160.6183996418678 l 7.1171531387445 0 L 346.2495001999201 159.7460636429539 l -7.1171531387445 0 L 339.13234706117555 160.6183996418678 M 356.9252299080368 178.90420428351888 l 7.1171531387445 0 L 364.0423830467813 158.40079134086113 l -7.1171531387445 0 L 356.9252299080368 178.90420428351888 M 374.7181127548981 158.4020702383819 l 7.1171531387445 0 L 381.8352658936426 156.4885837678132 l -7.1171531387445 0 L 374.7181127548981 158.4020702383819 M 392.5109956017593 165.8951308125445 l 7.1171531387445 0 L 399.62814874050383 151.54423806278334 l -7.1171531387445 0 L 392.5109956017593 165.8951308125445 M 401.40743702518995 151.54436595253543 l 7.1171531387445 0 L 408.5245901639345 149.91287638529542 l -7.1171531387445 0 L 401.40743702518995 151.54436595253543 M 410.3038784486206 149.91300427504748 l 7.1171531387445 0 L 417.4210315873651 146.67087117015598 l -7.1171531387445 0 L 410.3038784486206 149.91300427504748 M 481.47540983606564 175.29732960570516 l 7.1171531387445 0 L 488.59256297481016 174.49149627787108 l -7.1171531387445 0 L 481.47540983606564 175.29732960570516 M 490.3718512594962 174.49149627787108 l 7.1171531387445 0 L 497.48900439824075 162.71438478864968 l -7.1171531387445 0 L 490.3718512594962 174.49149627787108 M 508.16473410635746 163.49284970953937 l 7.1171531387445 0 L 515.281887245102 158.52215871558175 l -7.1171531387445 0 L 508.16473410635746 163.49284970953937 M 517.0611755297881 158.52215871558175 l 7.1171531387445 0 L 524.1783286685326 144.95983417712435 l -7.1171531387445 0 L 517.0611755297881 158.52215871558175 M 570.4398240703717 174.2939066109129 l 7.1171531387445 0 L 577.5569772091162 162.73791650303176 l -7.1171531387445 0 L 570.4398240703717 174.2939066109129 M 579.3362654938024 162.73791650303176 l 7.1171531387445 0 L 586.4534186325469 158.2110029487796 l -7.1171531387445 0 L 579.3362654938024 162.73791650303176 M 588.232706917233 158.2110029487796 l 7.1171531387445 0 L 595.3498600559775 155.12630212869422 l -7.1171531387445 0 L 588.232706917233 158.2110029487796 M 597.1291483406637 155.12630212869422 l 7.1171531387445 0 L 604.2463014794082 150.45116435178545 l -7.1171531387445 0 L 597.1291483406637 155.12630212869422 M 614.9220311875249 155.51585431351924 l 7.1171531387445 0 L 622.0391843262694 134.63145779942556 l -7.1171531387445 0 L 614.9220311875249 155.51585431351924 M 623.8184726109555 134.63145779942556 l 7.1171531387445 0 L 630.9356257497 122.30237414024198 l -7.1171531387445 0 L 623.8184726109555 134.63145779942556 M 668.3006797281087 134.42683419610316 l 7.1171531387445 0 L 675.4178328668531 132.75019954638014 l -7.1171531387445 0 L 668.3006797281087 134.42683419610316 M 694.9900039984005 149.69571958626952 l 7.1171531387445 0 L 702.107157137145 127.9828532582242 l -7.1171531387445 0 L 694.9900039984005 149.69571958626952 M 703.8864454218311 127.95906576433795 l 7.1171531387445 0 L 711.0035985605756 116.59452661531535 l -7.1171531387445 0 L 703.8864454218311 127.95906576433795 M 775.0579768092763 132.20372663575728 l 7.1171531387445 0 L 782.1751299480208 123.37920585272619 l -7.1171531387445 0 L 775.0579768092763 132.20372663575728 M 792.8508596561375 127.96034466185876 l 7.1171531387445 0 L 799.9680127948819 125.1444681006382 l -7.1171531387445 0 L 792.8508596561375 127.96034466185876 M 801.747301079568 125.1444681006382 l 7.1171531387445 0 L 808.8644542183125 117.0156675689033 l -7.1171531387445 0 L 801.747301079568 125.1444681006382 M 819.5401839264293 125.4395097586787 l 7.1171531387445 0 L 826.6573370651738 115.17341569024123 l -7.1171531387445 0 L 819.5401839264293 125.4395097586787 M 837.3330667732906 115.44147261059356 l 7.1171531387445 0 L 844.4502199120351 109.4231087676252 l -7.1171531387445 0 L 837.3330667732906 115.44147261059356 M 846.2295081967213 109.44843093853633 l 7.1171531387445 0 L 853.3466613354658 108.94096440229676 l -7.1171531387445 0 L 846.2295081967213 109.44843093853633 M 881.8152738904437 116.4254563630702 l 7.1171531387445 0 L 888.9324270291881 114.79716403963211 l -7.1171531387445 0 L 881.8152738904437 116.4254563630702"></path><path class="candle body down" d="M 9.964014394242305 24.84411646009147 l 7.1171531387445 0 L 17.081167532986804 49.3116001581127 l -7.1171531387445 0 L 9.964014394242305 24.84411646009147 M 18.860455817672932 49.3116001581127 l 7.1171531387445 0 L 25.977608956417434 50.26041422876827 l -7.1171531387445 0 L 18.860455817672932 49.3116001581127 M 54.446221511395436 20.856769769850132 l 7.1171531387445 0 L 61.563374650139934 39.463194019957086 l -7.1171531387445 0 L 54.446221511395436 20.856769769850132 M 72.23910435825668 32.16171229440508 l 7.1171531387445 0 L 79.35625749700118 54.28165170330993 l -7.1171531387445 0 L 72.23910435825668 32.16171229440508 M 90.03198720511796 33.769414367758856 l 7.1171531387445 0 L 97.14914034386246 48.07017433470605 l -7.1171531387445 0 L 90.03198720511796 33.769414367758856 M 116.72131147540982 34.092847550760354 l 7.1171531387445 0 L 123.83846461415432 49.2449695972808 l -7.1171531387445 0 L 116.72131147540982 34.092847550760354 M 134.51419432227107 42.26947884977184 l 7.1171531387445 0 L 141.63134746101557 43.707343332368 l -7.1171531387445 0 L 134.51419432227107 42.26947884977184 M 143.4106357457017 43.70747122212012 l 7.1171531387445 0 L 150.5277888844462 48.06582608313542 l -7.1171531387445 0 L 143.4106357457017 43.70747122212012 M 152.30707716913233 48.06582608313542 l 7.1171531387445 0 L 159.42423030787683 55.3753648630682 l -7.1171531387445 0 L 152.30707716913233 48.06582608313542 M 196.78928428628546 14.818327235805754 l 7.1171531387445 0 L 203.90643742502996 40.33514634961466 l -7.1171531387445 0 L 196.78928428628546 14.818327235805754 M 214.5821671331467 32.06323718530618 l 7.1171531387445 0 L 221.6993202718912 41.68591791104677 l -7.1171531387445 0 L 214.5821671331467 32.06323718530618 M 250.16793282686922 20.291369175919925 l 7.1171531387445 0 L 257.28508596561375 23.4600935631195 l -7.1171531387445 0 L 250.16793282686922 20.291369175919925 M 259.06437425029986 23.460221452871593 l 7.1171531387445 0 L 266.1815273890444 35.23311258027448 l -7.1171531387445 0 L 259.06437425029986 23.460221452871593 M 267.9608156737305 35.23311258027448 l 7.1171531387445 0 L 275.07796881247504 36.44601898896809 l -7.1171531387445 0 L 267.9608156737305 35.23311258027448 M 276.85725709716115 36.44601898896809 l 7.1171531387445 0 L 283.9744102359057 49.465835199116924 l -7.1171531387445 0 L 276.85725709716115 36.44601898896809 M 285.7536985205918 49.465963088869046 l 7.1171531387445 0 L 292.8708516593363 57.99838367815735 l -7.1171531387445 0 L 285.7536985205918 49.465963088869046 M 294.65013994402244 57.99825578840529 l 7.1171531387445 0 L 301.76729308276697 81.66016193809658 l -7.1171531387445 0 L 294.65013994402244 57.99825578840529 M 303.54658136745303 81.66016193809658 l 7.1171531387445 0 L 310.66373450619756 133.93023828879012 l -7.1171531387445 0 L 303.54658136745303 81.66016193809658 M 312.4430227908837 133.95760669573448 l 7.1171531387445 0 L 319.5601759296282 138.41916858667554 l -7.1171531387445 0 L 312.4430227908837 133.95760669573448 M 330.23590563774496 132.69853208654126 l 7.1171531387445 0 L 337.3530587764895 160.60931946947034 l -7.1171531387445 0 L 330.23590563774496 132.69853208654126 M 348.02878848460614 159.7460636429539 l 7.1171531387445 0 L 355.14594162335067 178.90420428351888 l -7.1171531387445 0 L 348.02878848460614 159.7460636429539 M 365.8216713314674 158.40079134086113 l 7.1171531387445 0 L 372.93882447021196 158.402198128134 l -7.1171531387445 0 L 365.8216713314674 158.40079134086113 M 383.61455417832866 156.4887116575653 l 7.1171531387445 0 L 390.7317073170732 165.89525870229653 l -7.1171531387445 0 L 383.61455417832866 156.4887116575653 M 419.20031987205124 146.670999059908 l 7.1171531387445 0 L 426.31747301079577 152.46581161624664 l -7.1171531387445 0 L 419.20031987205124 146.670999059908 M 428.0967612954818 152.46568372649455 l 7.1171531387445 0 L 435.21391443422635 156.2450816798595 l -7.1171531387445 0 L 428.0967612954818 152.46568372649455 M 436.99320271891247 156.24495379010745 l 7.1171531387445 0 L 444.110355857657 162.1442522738926 l -7.1171531387445 0 L 436.99320271891247 156.24495379010745 M 445.8896441423431 162.14438016364468 l 7.1171531387445 0 L 453.00679728108764 164.16849126975956 l -7.1171531387445 0 L 445.8896441423431 162.14438016364468 M 454.7860855657737 164.16861915951162 l 7.1171531387445 0 L 461.90323870451823 166.4807379873028 l -7.1171531387445 0 L 454.7860855657737 164.16861915951162 M 463.68252698920435 166.4807379873028 l 7.1171531387445 0 L 470.7996801279489 174.95228305460276 l -7.1171531387445 0 L 463.68252698920435 166.4807379873028 M 472.57896841263494 174.95228305460276 l 7.1171531387445 0 L 479.69612155137946 175.29745749545722 l -7.1171531387445 0 L 472.57896841263494 174.95228305460276 M 499.2682926829268 162.71438478864968 l 7.1171531387445 0 L 506.38544582167134 163.4929775992914 l -7.1171531387445 0 L 499.2682926829268 162.71438478864968 M 525.9576169532187 144.95970628737226 l 7.1171531387445 0 L 533.0747700919632 145.34644489765162 l -7.1171531387445 0 L 525.9576169532187 144.95970628737226 M 534.8540583766493 145.34644489765162 l 7.1171531387445 0 L 541.9712115153937 145.38378870525793 l -7.1171531387445 0 L 534.8540583766493 145.34644489765162 M 543.75049980008 145.3796962331915 l 7.1171531387445 0 L 550.8676529388244 154.7115556627101 l -7.1171531387445 0 L 543.75049980008 145.3796962331915 M 552.6469412235106 154.72894866899253 l 7.1171531387445 0 L 559.764094362255 166.20705391785907 l -7.1171531387445 0 L 552.6469412235106 154.72894866899253 M 561.5433826469413 166.20705391785907 l 7.1171531387445 0 L 568.6605357856857 174.32626271818825 l -7.1171531387445 0 L 561.5433826469413 166.20705391785907 M 606.0255897640943 150.45116435178545 l 7.1171531387445 0 L 613.1427429028388 155.53401465831416 l -7.1171531387445 0 L 606.0255897640943 150.45116435178545 M 632.7149140343862 122.27858664635575 l 7.1171531387445 0 L 639.8320671731307 124.518959323232 l -7.1171531387445 0 L 632.7149140343862 122.27858664635575 M 641.6113554578168 124.518959323232 l 7.1171531387445 0 L 648.7285085965613 125.42838335024807 l -7.1171531387445 0 L 641.6113554578168 124.518959323232 M 650.5077968812475 125.42838335024807 l 7.1171531387445 0 L 657.624950019992 131.40543880329568 l -7.1171531387445 0 L 650.5077968812475 125.42838335024807 M 659.4042383046781 131.40543880329568 l 7.1171531387445 0 L 666.5213914434225 134.39498964783616 l -7.1171531387445 0 L 659.4042383046781 131.40543880329568 M 677.1971211515394 132.78281143315968 l 7.1171531387445 0 L 684.3142742902838 148.9765955103433 l -7.1171531387445 0 L 677.1971211515394 132.78281143315968 M 686.09356257497 148.9765955103433 l 7.1171531387445 0 L 693.2107157137144 149.69571958626952 l -7.1171531387445 0 L 686.09356257497 148.9765955103433 M 712.7828868452618 116.56485619283362 l 7.1171531387445 0 L 719.9000399840063 117.47926792018065 l -7.1171531387445 0 L 712.7828868452618 116.56485619283362 M 721.6793282686924 117.43412283769766 l 7.1171531387445 0 L 728.7964814074369 119.1449040512251 l -7.1171531387445 0 L 721.6793282686924 117.43412283769766 M 730.5757696921231 119.13045250924044 l 7.1171531387445 0 L 737.6929228308676 123.62347527919229 l -7.1171531387445 0 L 730.5757696921231 119.13045250924044 M 739.4722111155537 123.58459679456104 l 7.1171531387445 0 L 746.5893642542982 123.94716424169795 l -7.1171531387445 0 L 739.4722111155537 123.58459679456104 M 748.3686525389844 123.9613600041784 l 7.1171531387445 0 L 755.4858056777289 127.53089087438582 l -7.1171531387445 0 L 748.3686525389844 123.9613600041784 M 757.265093962415 127.55467836827205 l 7.1171531387445 0 L 764.3822471011595 129.69759905406602 l -7.1171531387445 0 L 757.265093962415 127.55467836827205 M 766.1615353858456 129.7162709578692 l 7.1171531387445 0 L 773.27868852459 132.19643691988892 l -7.1171531387445 0 L 766.1615353858456 129.7162709578692 M 783.9544182327068 123.36462642098942 l 7.1171531387445 0 L 791.0715713714512 127.96034466185876 l -7.1171531387445 0 L 783.9544182327068 123.36462642098942 M 810.6437425029987 117.0031343731998 l 7.1171531387445 0 L 817.7608956417432 125.45703065471318 l -7.1171531387445 0 L 810.6437425029987 117.0031343731998 M 828.43662534986 115.17341569024123 l 7.1171531387445 0 L 835.5537784886045 115.42484694282363 l -7.1171531387445 0 L 828.43662534986 115.17341569024123 M 855.1259496201519 108.91947892394789 l 7.1171531387445 0 L 862.2431027588964 110.68205548706632 l -7.1171531387445 0 L 855.1259496201519 108.91947892394789 M 864.0223910435824 110.68192759731427 l 7.1171531387445 0 L 871.1395441823269 113.37311165026021 l -7.1171531387445 0 L 864.0223910435824 110.68192759731427 M 872.9188324670131 113.39587602612981 l 7.1171531387445 0 L 880.0359856057576 116.44348881811298 l -7.1171531387445 0 L 872.9188324670131 113.39587602612981"></path><path class="candle body equal"></path><path class="candle wick up" d="M 4.626149540183927 3.8461538461538396 L 4.626149540183927 24.844244349843592 M 4.626149540183927 36.90258540388123 L 4.626149540183927 41.29981874952776 M 31.315473810475808 23.996718962832546 L 31.315473810475808 46.96981090783976 M 31.315473810475808 50.260542118520334 L 31.315473810475808 53.816772454511806 M 40.21191523390643 33.461839514014855 L 40.21191523390643 36.74259532403349 M 40.21191523390643 46.96981090783976 L 40.21191523390643 55.372807068026674 M 49.10835665733706 19.180007230375026 L 49.10835665733706 20.856769769850132 M 49.10835665733706 36.74259532403349 L 49.10835665733706 44.50217814152353 M 66.90123950419832 27.769466649089537 L 66.90123950419832 32.16171229440508 M 66.90123950419832 39.463194019957086 L 66.90123950419832 44.88098758717413 M 84.69412235105956 30.8796175298381 L 84.69412235105956 33.76928647800679 M 84.69412235105956 54.28152381355778 L 84.69412235105956 54.58781976978105 M 102.48700519792082 42.24901648943961 L 102.48700519792082 44.94902493527883 M 102.48700519792082 48.07017433470605 L 102.48700519792082 51.31512101414327 M 111.38344662135144 31.611019021963614 L 111.38344662135144 34.09271966100829 M 111.38344662135144 44.94889704552679 L 111.38344662135144 47.37829077597209 M 129.1763294682127 39.823203672052415 L 129.1763294682127 42.26947884977184 M 129.1763294682127 49.24509748703289 L 129.1763294682127 54.87403703492828 M 164.7620951619352 47.23901883596079 L 164.7620951619352 50.24020764794017 M 164.7620951619352 55.375236973316106 L 164.7620951619352 57.67482260540379 M 173.65853658536582 43.12378239364293 L 173.65853658536582 44.65436694649458 M 173.65853658536582 50.24020764794017 L 173.65853658536582 52.69722556483407 M 182.55497800879647 9.43480812214517 L 182.55497800879647 15.673014448933031 M 182.55497800879647 44.65436694649458 L 182.55497800879647 46.809053489479595 M 191.4514194322271 7.171159510390964 L 191.4514194322271 14.818455125557819 M 191.4514194322271 15.672886559180967 L 191.4514194322271 22.50501289461218 M 209.24430227908834 29.04030711547375 L 209.24430227908834 32.06336507505827 M 209.24430227908834 40.335018459862596 L 209.24430227908834 43.03720103148714 M 227.0371851259496 37.9941244378542 L 227.0371851259496 39.59070010277733 M 227.0371851259496 41.68591791104677 L 227.0371851259496 44.43823326548528 M 235.93362654938022 35.434794719299134 L 235.93362654938022 38.88513234057126 M 235.93362654938022 39.59082799252943 L 235.93362654938022 43.844569036346144 M 244.83006797281087 15.271184847908671 L 244.83006797281087 20.291369175919925 M 244.83006797281087 38.8852602303233 L 244.83006797281087 39.25575684208897 M 324.89804078368655 129.93253252863056 L 324.89804078368655 132.69853208654126 M 324.89804078368655 138.41904069692347 L 324.89804078368655 164.3141576973747 M 342.6909236305478 148.2792126922701 L 342.6909236305478 159.7460636429539 M 342.6909236305478 160.6183996418678 L 342.6909236305478 162.58713448533354 M 360.483806477409 155.30649878937004 L 360.483806477409 158.40079134086113 M 360.483806477409 178.90420428351888 L 360.483806477409 191.82592905382506 M 378.2766893242703 143.7062588272704 L 378.2766893242703 156.4885837678132 M 378.2766893242703 158.4020702383819 L 378.2766893242703 161.28598414770713 M 396.06957217113154 149.9728566790193 L 396.06957217113154 151.54423806278334 M 396.06957217113154 165.8951308125445 L 396.06957217113154 167.1475551546297 M 404.9660135945622 145.81119625669766 L 404.9660135945622 149.91287638529542 M 404.9660135945622 151.54436595253543 L 404.9660135945622 156.3197692950722 M 413.86245501799283 145.09386263730053 L 413.86245501799283 146.67087117015598 M 413.86245501799283 149.91300427504748 L 413.86245501799283 154.14692240729235 M 485.0339864054379 170.24811430397256 L 485.0339864054379 174.49149627787108 M 485.0339864054379 175.29732960570516 L 485.0339864054379 181.33142388817893 M 493.93042782886846 161.21423799679224 L 493.93042782886846 162.71438478864968 M 493.93042782886846 174.49149627787108 L 493.93042782886846 177.82328009896824 M 511.7233106757297 157.10629127034272 L 511.7233106757297 158.52215871558175 M 511.7233106757297 163.49284970953937 L 511.7233106757297 168.7950309408793 M 520.6197520991603 142.23424778086985 L 520.6197520991603 144.95983417712435 M 520.6197520991603 158.52215871558175 L 520.6197520991603 162.52293382979113 M 573.998400639744 161.05309690917582 L 573.998400639744 162.73791650303176 M 573.998400639744 174.2939066109129 L 573.998400639744 179.6696244496968 M 582.8948420631747 154.231585423167 L 582.8948420631747 158.2110029487796 M 582.8948420631747 162.73791650303176 L 582.8948420631747 170.65173436152602 M 591.7912834866053 150.39489286087178 L 591.7912834866053 155.12630212869422 M 591.7912834866053 158.2110029487796 L 591.7912834866053 160.85256577791986 M 600.687724910036 145.4207488436081 L 600.687724910036 150.45116435178545 M 600.687724910036 155.12630212869422 L 600.687724910036 159.62073168591894 M 618.4806077568971 130.2186219040257 L 618.4806077568971 134.63145779942556 M 618.4806077568971 155.51585431351924 L 618.4806077568971 155.99070896297934 M 627.3770491803277 117.14355732097981 L 627.3770491803277 122.30237414024198 M 627.3770491803277 134.63145779942556 L 627.3770491803277 145.54096521056 M 671.8592562974809 127.1875068900604 L 671.8592562974809 132.75019954638014 M 671.8592562974809 134.42683419610316 L 671.8592562974809 136.87502772010373 M 698.5485805677728 125.93431520946268 L 698.5485805677728 127.9828532582242 M 698.5485805677728 149.69571958626952 L 698.5485805677728 152.40877278682055 M 707.4450219912034 112.03154815097763 L 707.4450219912034 116.59452661531535 M 707.4450219912034 127.95906576433795 L 707.4450219912034 132.71886655712143 M 778.6165533786485 121.32734267041066 L 778.6165533786485 123.37920585272619 M 778.6165533786485 132.20372663575728 L 778.6165533786485 132.65722369662055 M 796.4094362255097 122.2335694536248 L 796.4094362255097 125.1444681006382 M 796.4094362255097 127.96034466185876 L 796.4094362255097 129.3618884548652 M 805.3058776489403 111.45246335357523 L 805.3058776489403 117.0156675689033 M 805.3058776489403 125.1444681006382 L 805.3058776489403 125.40203806132027 M 823.0987604958016 111.6954538825206 L 823.0987604958016 115.17341569024123 M 823.0987604958016 125.4395097586787 L 823.0987604958016 131.6630087639778 M 840.8916433426629 108.74759509715709 L 840.8916433426629 109.4231087676252 M 840.8916433426629 115.44147261059356 L 840.8916433426629 119.91876494104002 M 849.7880847660936 103.2291522950558 L 849.7880847660936 108.94096440229676 M 849.7880847660936 109.44843093853633 L 849.7880847660936 110.8613569194776 M 885.3738504598159 114.02304737031302 L 885.3738504598159 114.79716403963211 M 885.3738504598159 116.4254563630702 L 885.3738504598159 116.8239608305406" style="stroke-width: 1px;"></path><path class="candle wick down" d="M 13.522590963614554 10.194601139231708 L 13.522590963614554 24.84411646009147 M 13.522590963614554 49.3116001581127 L 13.522590963614554 66.17949111849154 M 22.41903238704518 34.74419005808599 L 22.41903238704518 49.3116001581127 M 22.41903238704518 50.26041422876827 L 22.41903238704518 80.05552921879261 M 58.004798080767685 20.85664188009804 L 58.004798080767685 20.856769769850132 M 58.004798080767685 39.463194019957086 L 58.004798080767685 49.527733839121936 M 75.79768092762893 28.771866525865164 L 75.79768092762893 32.16171229440508 M 75.79768092762893 54.28165170330993 L 75.79768092762893 55.059860844695436 M 93.5905637744902 27.91065693538195 L 93.5905637744902 33.769414367758856 M 93.5905637744902 48.07017433470605 L 93.5905637744902 54.093909547261575 M 120.27988804478207 29.276775267063243 L 120.27988804478207 34.092847550760354 M 120.27988804478207 49.2449695972808 L 120.27988804478207 52.350132777698434 M 138.07277089164333 34.99050572058533 L 138.07277089164333 42.26947884977184 M 138.07277089164333 43.707343332368 L 138.07277089164333 46.87824184535296 M 146.96921231507397 39.30166926308442 L 146.96921231507397 43.70747122212012 M 146.96921231507397 48.06582608313542 L 146.96921231507397 63.17970909378499 M 155.8656537385046 45.55522236012149 L 155.8656537385046 48.06582608313542 M 155.8656537385046 55.3753648630682 L 155.8656537385046 59.81186036260223 M 200.34786085565773 12.491756866029903 L 200.34786085565773 14.818327235805754 M 200.34786085565773 40.33514634961466 L 200.34786085565773 46.79140470369302 M 218.14074370251896 28.91241736339728 L 218.14074370251896 32.06323718530618 M 218.14074370251896 41.68591791104677 L 218.14074370251896 47.0297912015636 M 253.72650939624148 17.52255604346351 L 253.72650939624148 20.291369175919925 M 253.72650939624148 23.4600935631195 L 253.72650939624148 47.84061222972869 M 262.6229508196721 20.878127358446903 L 262.6229508196721 23.460221452871593 M 262.6229508196721 35.23311258027448 L 262.6229508196721 39.84852584296357 M 271.51939224310274 28.899628388189598 L 271.51939224310274 35.23311258027448 M 271.51939224310274 36.44601898896809 L 271.51939224310274 38.56681474765281 M 280.4158336665334 32.95629132405645 L 280.4158336665334 36.44601898896809 M 280.4158336665334 49.465835199116924 L 280.4158336665334 52.55923252234351 M 289.31227508996403 45.00849366999441 L 289.31227508996403 49.465963088869046 M 289.31227508996403 57.99838367815735 L 289.31227508996403 62.15109181783362 M 298.2087165133947 56.46038151968531 L 298.2087165133947 57.99825578840529 M 298.2087165133947 81.66016193809658 L 298.2087165133947 81.84598574786372 M 307.10515793682526 77.5509363141263 L 307.10515793682526 81.66016193809658 M 307.10515793682526 133.93023828879012 L 307.10515793682526 141.11303832441507 M 316.0015993602559 122.7338741637481 L 316.0015993602559 133.95760669573448 M 316.0015993602559 138.41916858667554 L 316.0015993602559 154.92219008438013 M 333.7944822071172 127.42934641123709 L 333.7944822071172 132.69853208654126 M 333.7944822071172 160.60931946947034 L 333.7944822071172 162.77462086187768 M 351.5873650539784 155.6120274070808 L 351.5873650539784 159.7460636429539 M 351.5873650539784 178.90420428351888 L 351.5873650539784 196.15384615384616 M 369.38024790083966 151.80168013371335 L 369.38024790083966 158.40079134086113 M 369.38024790083966 158.402198128134 L 369.38024790083966 170.3836774411737 M 387.1731307477009 154.231585423167 L 387.1731307477009 156.4887116575653 M 387.1731307477009 165.89525870229653 L 387.1731307477009 168.67660503045647 M 422.7588964414235 141.59607791800804 L 422.7588964414235 146.670999059908 M 422.7588964414235 152.46581161624664 L 422.7588964414235 153.40375505797576 M 431.65533786485406 146.0485596365517 L 431.65533786485406 152.46568372649455 M 431.65533786485406 156.2450816798595 L 431.65533786485406 159.2192857541508 M 440.5517792882847 150.2401462608592 L 440.5517792882847 156.24495379010745 M 440.5517792882847 162.1442522738926 L 440.5517792882847 163.15816222835517 M 449.44822071171535 160.21286123803316 L 449.44822071171535 162.14438016364468 M 449.44822071171535 164.16849126975956 L 449.44822071171535 167.59708763317866 M 458.34466213514594 163.45141342986653 L 458.34466213514594 164.16861915951162 M 458.34466213514594 166.4807379873028 L 458.34466213514594 183.3137150453648 M 467.2411035585766 153.99690772810663 L 467.2411035585766 166.4807379873028 M 467.2411035585766 174.95228305460276 L 467.2411035585766 178.8503626978947 M 476.13754498200717 172.55319919539954 L 476.13754498200717 174.95228305460276 M 476.13754498200717 175.29745749545722 L 476.13754498200717 178.82465685772735 M 502.82686925229905 156.1499317043146 L 502.82686925229905 162.71438478864968 M 502.82686925229905 163.4929775992914 L 502.82686925229905 174.6376742644945 M 529.5161935225909 133.4191908394924 L 529.5161935225909 144.95970628737226 M 529.5161935225909 145.34644489765162 L 529.5161935225909 150.53224645460196 M 538.4126349460215 140.41949219890418 L 538.4126349460215 145.34644489765162 M 538.4126349460215 145.38378870525793 L 538.4126349460215 148.83310320851348 M 547.3090763694522 145.18146711747292 L 547.3090763694522 145.3796962331915 M 547.3090763694522 154.7115556627101 L 547.3090763694522 157.36488434904143 M 556.2055177928828 154.63469392171214 L 556.2055177928828 154.72894866899253 M 556.2055177928828 166.20705391785907 L 556.2055177928828 167.33734354671125 M 565.1019592163135 164.98174220321408 L 565.1019592163135 166.20705391785907 M 565.1019592163135 174.32626271818825 L 565.1019592163135 175.46128426786726 M 609.5841663334666 144.19812281375664 L 609.5841663334666 150.45116435178545 M 609.5841663334666 155.53401465831416 L 609.5841663334666 156.14980381456255 M 636.2734906037584 111.04654128048436 L 636.2734906037584 122.27858664635575 M 636.2734906037584 124.518959323232 L 636.2734906037584 128.57447125133015 M 645.169932027189 121.71216293440888 L 645.169932027189 124.518959323232 M 645.169932027189 125.42838335024807 L 645.169932027189 135.79678922034674 M 654.0663734506197 117.70000563226468 L 654.0663734506197 125.42838335024807 M 654.0663734506197 131.40543880329568 L 654.0663734506197 133.76922509092577 M 662.9628148740503 127.36488997619051 L 662.9628148740503 131.40543880329568 M 662.9628148740503 134.39498964783616 L 662.9628148740503 141.00049534258775 M 680.7556977209116 131.64625520645575 L 680.7556977209116 132.78281143315968 M 680.7556977209116 148.9765955103433 L 680.7556977209116 149.75544410048923 M 689.6521391443422 148.50442654567684 L 689.6521391443422 148.9765955103433 M 689.6521391443422 149.69571958626952 L 689.6521391443422 156.7062521258474 M 716.3414634146341 108.92459451403097 L 716.3414634146341 116.56485619283362 M 716.3414634146341 117.47926792018065 L 716.3414634146341 122.07971808187679 M 725.2379048380647 106.04272684073895 L 725.2379048380647 117.43412283769766 M 725.2379048380647 119.1449040512251 L 725.2379048380647 120.95147468905782 M 734.1343462614954 112.09421412949514 L 734.1343462614954 119.13045250924044 M 734.1343462614954 123.62347527919229 L 734.1343462614954 124.46767553264931 M 743.0307876849259 120.85645260326497 L 743.0307876849259 123.58459679456104 M 743.0307876849259 123.94716424169795 L 743.0307876849259 129.29308376824804 M 751.9272291083566 121.49321567885391 L 751.9272291083566 123.9613600041784 M 751.9272291083566 127.53089087438582 L 751.9272291083566 131.79499098812076 M 760.8236705317872 119.09157402460917 L 760.8236705317872 127.55467836827205 M 760.8236705317872 129.69759905406602 L 760.8236705317872 131.4516070037953 M 769.7201119552178 124.51870354372785 L 769.7201119552178 129.7162709578692 M 769.7201119552178 132.19643691988892 L 769.7201119552178 135.04812261169087 M 787.512994802079 122.84283623251729 L 787.512994802079 123.36462642098942 M 787.512994802079 127.96034466185876 L 787.512994802079 128.53188396388865 M 814.202319072371 115.43942637456034 L 814.202319072371 117.0031343731998 M 814.202319072371 125.45703065471318 L 814.202319072371 129.10124914013326 M 831.9952019192323 102.83857699221413 L 831.9952019192323 115.17341569024123 M 831.9952019192323 115.42484694282363 L 831.9952019192323 116.47686804340496 M 858.6845261895241 101.18854341092302 L 858.6845261895241 108.91947892394789 M 858.6845261895241 110.68205548706632 L 858.6845261895241 112.74414984954795 M 867.5809676129546 99.09422083091815 L 867.5809676129546 110.68192759731427 M 867.5809676129546 113.37311165026021 L 867.5809676129546 117.48604607704068 M 876.4774090363853 111.42061880530815 L 876.4774090363853 113.39587602612981 M 876.4774090363853 116.44348881811298 L 876.4774090363853 118.79052154822105" style="stroke-width: 1px;"></path><path class="candle wick equal" style="stroke-width: 1px;"></path></g></g><g class="x axis" transform="translate(0,200)" fill="none" font-size="10" font-family="sans-serif" text-anchor="middle"><path class="domain" stroke="#000" d="M0.5,6V0.5H890.5V6"></path><g class="tick" opacity="1" transform="translate(58.004798080767685,0)"><line stroke="#000" y2="6" x1="0.5" x2="0.5"></line><text fill="#000" y="9" x="0.5" dy="0.71em">May 16</text></g><g class="tick" opacity="1" transform="translate(120.27988804478207,0)"><line stroke="#000" y2="6" x1="0.5" x2="0.5"></line><text fill="#000" y="9" x="0.5" dy="0.71em">May 23</text></g><g class="tick" opacity="1" transform="translate(182.55497800879647,0)"><line stroke="#000" y2="6" x1="0.5" x2="0.5"></line><text fill="#000" y="9" x="0.5" dy="0.71em">May 30</text></g><g class="tick" opacity="1" transform="translate(244.83006797281087,0)"><line stroke="#000" y2="6" x1="0.5" x2="0.5"></line><text fill="#000" y="9" x="0.5" dy="0.71em">Jun  6</text></g><g class="tick" opacity="1" transform="translate(307.10515793682526,0)"><line stroke="#000" y2="6" x1="0.5" x2="0.5"></line><text fill="#000" y="9" x="0.5" dy="0.71em">Jun 13</text></g><g class="tick" opacity="1" transform="translate(369.38024790083966,0)"><line stroke="#000" y2="6" x1="0.5" x2="0.5"></line><text fill="#000" y="9" x="0.5" dy="0.71em">Jun 20</text></g><g class="tick" opacity="1" transform="translate(431.65533786485406,0)"><line stroke="#000" y2="6" x1="0.5" x2="0.5"></line><text fill="#000" y="9" x="0.5" dy="0.71em">Jun 27</text></g><g class="tick" opacity="1" transform="translate(493.93042782886846,0)"><line stroke="#000" y2="6" x1="0.5" x2="0.5"></line><text fill="#000" y="9" x="0.5" dy="0.71em">Jul  4</text></g><g class="tick" opacity="1" transform="translate(556.2055177928828,0)"><line stroke="#000" y2="6" x1="0.5" x2="0.5"></line><text fill="#000" y="9" x="0.5" dy="0.71em">Jul 11</text></g><g class="tick" opacity="1" transform="translate(618.4806077568971,0)"><line stroke="#000" y2="6" x1="0.5" x2="0.5"></line><text fill="#000" y="9" x="0.5" dy="0.71em">Jul 18</text></g><g class="tick" opacity="1" transform="translate(680.7556977209116,0)"><line stroke="#000" y2="6" x1="0.5" x2="0.5"></line><text fill="#000" y="9" x="0.5" dy="0.71em">Jul 25</text></g><g class="tick" opacity="1" transform="translate(743.0307876849259,0)"><line stroke="#000" y2="6" x1="0.5" x2="0.5"></line><text fill="#000" y="9" x="0.5" dy="0.71em">Aug  1</text></g><g class="tick" opacity="1" transform="translate(805.3058776489403,0)"><line stroke="#000" y2="6" x1="0.5" x2="0.5"></line><text fill="#000" y="9" x="0.5" dy="0.71em">Aug  8</text></g><g class="tick" opacity="1" transform="translate(867.5809676129546,0)"><line stroke="#000" y2="6" x1="0.5" x2="0.5"></line><text fill="#000" y="9" x="0.5" dy="0.71em">Aug 15</text></g></g><g class="y axis" fill="none" font-size="10" font-family="sans-serif" text-anchor="end"><path class="domain" stroke="#000" d="M-6,200.5H0.5V0.5H-6"></path><g class="tick" opacity="1" transform="translate(0,191.31961352535419)"><line stroke="#000" x2="-6" y1="0.5" y2="0.5"></line><text fill="#000" x="-9" y="0.5" dy="0.32em">18,000</text></g><g class="tick" opacity="1" transform="translate(0,165.74166311005268)"><line stroke="#000" x2="-6" y1="0.5" y2="0.5"></line><text fill="#000" x="-9" y="0.5" dy="0.32em">20,000</text></g><g class="tick" opacity="1" transform="translate(0,140.16371269475115)"><line stroke="#000" x2="-6" y1="0.5" y2="0.5"></line><text fill="#000" x="-9" y="0.5" dy="0.32em">22,000</text></g><g class="tick" opacity="1" transform="translate(0,114.58576227944965)"><line stroke="#000" x2="-6" y1="0.5" y2="0.5"></line><text fill="#000" x="-9" y="0.5" dy="0.32em">24,000</text></g><g class="tick" opacity="1" transform="translate(0,89.00781186414815)"><line stroke="#000" x2="-6" y1="0.5" y2="0.5"></line><text fill="#000" x="-9" y="0.5" dy="0.32em">26,000</text></g><g class="tick" opacity="1" transform="translate(0,63.42986144884662)"><line stroke="#000" x2="-6" y1="0.5" y2="0.5"></line><text fill="#000" x="-9" y="0.5" dy="0.32em">28,000</text></g><g class="tick" opacity="1" transform="translate(0,37.85191103354512)"><line stroke="#000" x2="-6" y1="0.5" y2="0.5"></line><text fill="#000" x="-9" y="0.5" dy="0.32em">30,000</text></g><g class="tick" opacity="1" transform="translate(0,12.27396061824362)"><line stroke="#000" x2="-6" y1="0.5" y2="0.5"></line><text fill="#000" x="-9" y="0.5" dy="0.32em">32,000</text></g><text transform="rotate(-90)" y="6" dy=".71em" style="text-anchor: end;">Price ($)</text></g></g></svg>