<?xml version="1.0" encoding="utf-8"?>
<!DOCTYPE svg PUBLIC "-//W3C//DTD SVG 1.1//EN" "http://www.w3.org/Graphics/SVG/1.1/DTD/svg11.dtd">
<svg version="1.1" xmlns="http://www.w3.org/2000/svg" width="960" height="250"><g transform="translate(50,20)"><style>.axis path,.axis line{fill:none;stroke:#000;shape-rendering:crispEdges;}path.candle{stroke:#000000;}path.candle.body{stroke-width:0;}path.candle.up{fill:#00AA00;stroke:#00AA00;}path.candle.down{fill:#FF0000;stroke:#FF0000;}</style><g class="candlestick"><g class="data"><path class="candle body up" d="M 18.860455817672932 24.388572523853753 l 7.1171531387445 0 L 25.977608956417434 17.19863584955047 l -7.1171531387445 0 L 18.860455817672932 24.388572523853753 M 27.75689724110356 17.19863584955047 l 7.1171531387445 0 L 34.87405037984806 16.710951171062987 l -7.1171531387445 0 L 27.75689724110356 17.19863584955047 M 45.54978008796481 23.546005173148927 l 7.1171531387445 0 L 52.66693322670931 6.711397907740832 l -7.1171531387445 0 L 45.54978008796481 23.546005173148927 M 98.92842862854857 89.25784573135205 l 7.1171531387445 0 L 106.04558176729307 81.16379093808554 l -7.1171531387445 0 L 98.92842862854857 89.25784573135205 M 125.61775289884046 98.22425604350423 l 7.1171531387445 0 L 132.73490603758498 96.0153818202758 l -7.1171531387445 0 L 125.61775289884046 98.22425604350423 M 134.51419432227107 96.0153818202758 l 7.1171531387445 0 L 141.63134746101557 89.15045380514401 l -7.1171531387445 0 L 134.51419432227107 96.0153818202758 M 143.4106357457017 89.15045380514401 l 7.1171531387445 0 L 150.5277888844462 78.48723388993197 l -7.1171531387445 0 L 143.4106357457017 89.15045380514401 M 161.20351859256294 90.97663161987097 l 7.1171531387445 0 L 168.32067173130744 86.07557658304539 l -7.1171531387445 0 L 161.20351859256294 90.97663161987097 M 178.9964014394242 100.92330444630728 l 7.1171531387445 0 L 186.1135545781687 87.15464653703016 l -7.1171531387445 0 L 178.9964014394242 100.92330444630728 M 196.78928428628546 96.75399103937563 l 7.1171531387445 0 L 203.90643742502996 94.65894710723578 l -7.1171531387445 0 L 196.78928428628546 96.75399103937563 M 205.68572570971608 94.6588612623707 l 7.1171531387445 0 L 212.80287884846058 87.37174820080322 l -7.1171531387445 0 L 205.68572570971608 94.6588612623707 M 223.47860855657734 97.5426478148138 l 7.1171531387445 0 L 230.59576169532184 92.8603254941977 l -7.1171531387445 0 L 223.47860855657734 97.5426478148138 M 259.06437425029986 101.65744973242325 l 7.1171531387445 0 L 266.1815273890444 98.2106067099574 l -7.1171531387445 0 L 259.06437425029986 101.65744973242325 M 267.9608156737305 98.2106067099574 l 7.1171531387445 0 L 275.07796881247504 94.46116053810445 l -7.1171531387445 0 L 267.9608156737305 98.2106067099574 M 276.85725709716115 94.46116053810445 l 7.1171531387445 0 L 283.9744102359057 75.00768397387279 l -7.1171531387445 0 L 276.85725709716115 94.46116053810445 M 285.7536985205918 75.00759812900772 l 7.1171531387445 0 L 292.8708516593363 74.43406858544589 l -7.1171531387445 0 L 285.7536985205918 75.00759812900772 M 303.54658136745303 91.56183606508289 l 7.1171531387445 0 L 310.66373450619756 86.00956188180322 l -7.1171531387445 0 L 303.54658136745303 91.56183606508289 M 321.3394642143143 92.46861537486339 l 7.1171531387445 0 L 328.45661735305885 91.06221895035009 l -7.1171531387445 0 L 321.3394642143143 92.46861537486339 M 330.23590563774496 91.06230479521517 l 7.1171531387445 0 L 337.3530587764895 90.58861282973484 l -7.1171531387445 0 L 330.23590563774496 91.06230479521517 M 339.13234706117555 90.58869867459991 l 7.1171531387445 0 L 346.2495001999201 78.10771374143822 l -7.1171531387445 0 L 339.13234706117555 90.58869867459991 M 419.20031987205124 157.39986857494537 l 7.1171531387445 0 L 426.31747301079577 153.56002776016908 l -7.1171531387445 0 L 419.20031987205124 157.39986857494537 M 436.99320271891247 172.30099194428354 l 7.1171531387445 0 L 444.110355857657 171.71544411961128 l -7.1171531387445 0 L 436.99320271891247 172.30099194428354 M 454.7860855657737 184.57517659748106 l 7.1171531387445 0 L 461.90323870451823 170.81244198389405 l -7.1171531387445 0 L 454.7860855657737 184.57517659748106 M 472.57896841263494 170.8133004325448 l 7.1171531387445 0 L 479.69612155137946 169.52888956130215 l -7.1171531387445 0 L 472.57896841263494 170.8133004325448 M 490.3718512594962 175.84295107725174 l 7.1171531387445 0 L 497.48900439824075 166.2100412326622 l -7.1171531387445 0 L 490.3718512594962 175.84295107725174 M 499.2682926829268 166.2101270775273 l 7.1171531387445 0 L 506.38544582167134 165.11500413377365 l -7.1171531387445 0 L 499.2682926829268 166.2101270775273 M 508.16473410635746 165.1150899786387 l 7.1171531387445 0 L 515.281887245102 162.93883680413853 l -7.1171531387445 0 L 508.16473410635746 165.1150899786387 M 579.3362654938024 182.15409386778882 l 7.1171531387445 0 L 586.4534186325469 181.61318537295523 l -7.1171531387445 0 L 579.3362654938024 182.15409386778882 M 588.232706917233 181.61318537295523 l 7.1171531387445 0 L 595.3498600559775 173.70790343798726 l -7.1171531387445 0 L 588.232706917233 181.61318537295523 M 606.0255897640943 174.2304411316949 l 7.1171531387445 0 L 613.1427429028388 170.89390876084963 l -7.1171531387445 0 L 606.0255897640943 174.2304411316949 M 614.9220311875249 170.89390876084963 l 7.1171531387445 0 L 622.0391843262694 161.7903183543086 l -7.1171531387445 0 L 614.9220311875249 170.89390876084963 M 668.3006797281087 181.48055505641537 l 7.1171531387445 0 L 675.4178328668531 173.72369889316096 l -7.1171531387445 0 L 668.3006797281087 181.48055505641537 M 677.1971211515394 173.72369889316096 l 7.1171531387445 0 L 684.3142742902838 170.6850482041237 l -7.1171531387445 0 L 677.1971211515394 173.72369889316096 M 686.09356257497 170.6850482041237 l 7.1171531387445 0 L 693.2107157137144 168.61447005853003 l -7.1171531387445 0 L 686.09356257497 170.6850482041237 M 694.9900039984005 168.61447005853003 l 7.1171531387445 0 L 702.107157137145 165.47632517087163 l -7.1171531387445 0 L 694.9900039984005 168.61447005853003 M 712.7828868452618 168.87595351754655 l 7.1171531387445 0 L 719.9000399840063 154.857487050903 l -7.1171531387445 0 L 712.7828868452618 168.87595351754655 M 721.6793282686924 154.857487050903 l 7.1171531387445 0 L 728.7964814074369 146.58169867827408 l -7.1171531387445 0 L 721.6793282686924 154.857487050903 M 766.1615353858456 154.720135266784 l 7.1171531387445 0 L 773.27868852459 153.59470908565913 l -7.1171531387445 0 L 766.1615353858456 154.720135266784 M 792.8508596561375 164.96923955287738 l 7.1171531387445 0 L 799.9680127948819 150.39467005028206 l -7.1171531387445 0 L 792.8508596561375 164.96923955287738 M 801.747301079568 150.37870290537825 l 7.1171531387445 0 L 808.8644542183125 142.75035650514016 l -7.1171531387445 0 L 801.747301079568 150.37870290537825 M 872.9188324670131 153.22789397719637 l 7.1171531387445 0 L 880.0359856057576 147.30451244220023 l -7.1171531387445 0 L 872.9188324670131 153.22789397719637"></path><path class="candle body down" d="M 1.0675729708116766 6.264489540163737 l 7.1171531387445 0 L 8.184726109556177 16.101881853360396 l -7.1171531387445 0 L 1.0675729708116766 6.264489540163737 M 9.964014394242305 16.101881853360396 l 7.1171531387445 0 L 17.081167532986804 24.388572523853753 l -7.1171531387445 0 L 9.964014394242305 16.101881853360396 M 36.65333866453418 16.710951171062987 l 7.1171531387445 0 L 43.77049180327868 23.546005173148927 l -7.1171531387445 0 L 36.65333866453418 16.710951171062987 M 54.446221511395436 6.711397907740832 l 7.1171531387445 0 L 61.563374650139934 33.6411896161639 l -7.1171531387445 0 L 54.446221511395436 6.711397907740832 M 63.342662934826066 33.6411896161639 l 7.1171531387445 0 L 70.45981607357056 38.269944740973614 l -7.1171531387445 0 L 63.342662934826066 33.6411896161639 M 72.23910435825668 38.269944740973614 l 7.1171531387445 0 L 79.35625749700118 42.91741404636946 l -7.1171531387445 0 L 72.23910435825668 38.269944740973614 M 81.13554578168731 42.917328201504375 l 7.1171531387445 0 L 88.25269892043181 55.227481853168115 l -7.1171531387445 0 L 81.13554578168731 42.917328201504375 M 90.03198720511796 55.2275676980332 l 7.1171531387445 0 L 97.14914034386246 89.23998999941658 l -7.1171531387445 0 L 90.03198720511796 55.2275676980332 M 107.82487005197919 81.16370509322046 l 7.1171531387445 0 L 114.94202319072369 97.58728714465248 l -7.1171531387445 0 L 107.82487005197919 81.16370509322046 M 116.72131147540982 97.58728714465248 l 7.1171531387445 0 L 123.83846461415432 98.22417019863916 l -7.1171531387445 0 L 116.72131147540982 97.58728714465248 M 152.30707716913233 78.48723388993197 l 7.1171531387445 0 L 159.42423030787683 90.97663161987097 l -7.1171531387445 0 L 152.30707716913233 78.48723388993197 M 170.09996001599356 86.07557658304539 l 7.1171531387445 0 L 177.21711315473806 100.92339029117238 l -7.1171531387445 0 L 170.09996001599356 86.07557658304539 M 187.89284286285485 87.15473238189522 l 7.1171531387445 0 L 195.00999600159935 96.75399103937563 l -7.1171531387445 0 L 187.89284286285485 87.15473238189522 M 214.5821671331467 87.37183404566828 l 7.1171531387445 0 L 221.6993202718912 97.54256196994871 l -7.1171531387445 0 L 214.5821671331467 87.37183404566828 M 232.37504998000796 92.8603254941977 l 7.1171531387445 0 L 239.49220311875246 93.82547931222878 l -7.1171531387445 0 L 232.37504998000796 92.8603254941977 M 241.2714914034386 93.82556515709386 l 7.1171531387445 0 L 248.3886445421831 96.75107231396309 l -7.1171531387445 0 L 241.2714914034386 93.82556515709386 M 250.16793282686922 96.75107231396309 l 7.1171531387445 0 L 257.28508596561375 101.65753557728834 l -7.1171531387445 0 L 250.16793282686922 96.75107231396309 M 294.65013994402244 74.43398274058082 l 7.1171531387445 0 L 301.76729308276697 91.56192190994794 l -7.1171531387445 0 L 294.65013994402244 74.43398274058082 M 312.4430227908837 86.00947603693814 l 7.1171531387445 0 L 319.5601759296282 92.46861537486339 l -7.1171531387445 0 L 312.4430227908837 86.00947603693814 M 348.02878848460614 78.10771374143822 l 7.1171531387445 0 L 355.14594162335067 80.23469196338569 l -7.1171531387445 0 L 348.02878848460614 78.10771374143822 M 356.9252299080368 80.23477780825078 l 7.1171531387445 0 L 364.0423830467813 88.13722686267131 l -7.1171531387445 0 L 356.9252299080368 80.23477780825078 M 365.8216713314674 88.13722686267131 l 7.1171531387445 0 L 372.93882447021196 88.95137956303658 l -7.1171531387445 0 L 365.8216713314674 88.13722686267131 M 374.7181127548981 88.95137956303658 l 7.1171531387445 0 L 381.8352658936426 97.69081605193213 l -7.1171531387445 0 L 374.7181127548981 88.95137956303658 M 383.61455417832866 97.69090189679723 l 7.1171531387445 0 L 390.7317073170732 103.41821375996352 l -7.1171531387445 0 L 383.61455417832866 97.69090189679723 M 392.5109956017593 103.41812791509845 l 7.1171531387445 0 L 399.62814874050383 119.30097316142705 l -7.1171531387445 0 L 392.5109956017593 103.41812791509845 M 401.40743702518995 119.30097316142705 l 7.1171531387445 0 L 408.5245901639345 154.38679965570026 l -7.1171531387445 0 L 401.40743702518995 119.30097316142705 M 410.3038784486206 154.40517045682617 l 7.1171531387445 0 L 417.4210315873651 157.39995441981043 l -7.1171531387445 0 L 410.3038784486206 154.40517045682617 M 428.0967612954818 153.56002776016908 l 7.1171531387445 0 L 435.21391443422635 172.29489695886323 l -7.1171531387445 0 L 428.0967612954818 153.56002776016908 M 445.8896441423431 171.71544411961128 l 7.1171531387445 0 L 453.00679728108764 184.57517659748106 l -7.1171531387445 0 L 445.8896441423431 171.71544411961128 M 463.68252698920435 170.81244198389405 l 7.1171531387445 0 L 470.7996801279489 170.81338627740988 l -7.1171531387445 0 L 463.68252698920435 170.81244198389405 M 481.47540983606564 169.52897540616726 l 7.1171531387445 0 L 488.59256297481016 175.84303692211682 l -7.1171531387445 0 L 481.47540983606564 169.52897540616726 M 517.0611755297881 162.9389226490036 l 7.1171531387445 0 L 524.1783286685326 166.82863933038806 l -7.1171531387445 0 L 517.0611755297881 162.9389226490036 M 525.9576169532187 166.82855348552297 l 7.1171531387445 0 L 533.0747700919632 169.36544093820058 l -7.1171531387445 0 L 525.9576169532187 166.82855348552297 M 534.8540583766493 169.36535509333552 l 7.1171531387445 0 L 541.9712115153937 173.32520702948574 l -7.1171531387445 0 L 534.8540583766493 169.36535509333552 M 543.75049980008 173.32529287435082 l 7.1171531387445 0 L 550.8676529388244 174.68395955388277 l -7.1171531387445 0 L 543.75049980008 173.32529287435082 M 552.6469412235106 174.68404539874786 l 7.1171531387445 0 L 559.764094362255 176.23603471442726 l -7.1171531387445 0 L 552.6469412235106 174.68404539874786 M 561.5433826469413 176.23603471442726 l 7.1171531387445 0 L 568.6605357856857 181.92248442181818 l -7.1171531387445 0 L 561.5433826469413 176.23603471442726 M 570.4398240703717 181.92248442181818 l 7.1171531387445 0 L 577.5569772091162 182.15417971265387 l -7.1171531387445 0 L 570.4398240703717 181.92248442181818 M 597.1291483406637 173.70790343798726 l 7.1171531387445 0 L 604.2463014794082 174.23052697655996 l -7.1171531387445 0 L 597.1291483406637 173.70790343798726 M 623.8184726109555 161.7902325094435 l 7.1171531387445 0 L 630.9356257497 162.0498273814284 l -7.1171531387445 0 L 623.8184726109555 161.7902325094435 M 632.7149140343862 162.0498273814284 l 7.1171531387445 0 L 639.8320671731307 162.07489408203008 l -7.1171531387445 0 L 632.7149140343862 162.0498273814284 M 641.6113554578168 162.0721470463477 l 7.1171531387445 0 L 648.7285085965613 168.33607516109387 l -7.1171531387445 0 L 641.6113554578168 162.0721470463477 M 650.5077968812475 168.347750062744 l 7.1171531387445 0 L 657.624950019992 176.05232670316812 l -7.1171531387445 0 L 650.5077968812475 168.347750062744 M 659.4042383046781 176.05232670316812 l 7.1171531387445 0 L 666.5213914434225 181.50227380727915 l -7.1171531387445 0 L 659.4042383046781 176.05232670316812 M 703.8864454218311 165.47632517087163 l 7.1171531387445 0 L 711.0035985605756 168.88814348838713 l -7.1171531387445 0 L 703.8864454218311 165.47632517087163 M 730.5757696921231 146.56573153337024 l 7.1171531387445 0 L 737.6929228308676 148.06956187974293 l -7.1171531387445 0 L 730.5757696921231 146.56573153337024 M 739.4722111155537 148.06956187974293 l 7.1171531387445 0 L 746.5893642542982 148.68000471528674 l -7.1171531387445 0 L 739.4722111155537 148.06956187974293 M 748.3686525389844 148.68000471528674 l 7.1171531387445 0 L 755.4858056777289 152.69205032940218 l -7.1171531387445 0 L 748.3686525389844 148.68000471528674 M 757.265093962415 152.69205032940218 l 7.1171531387445 0 L 764.3822471011595 154.6987598953805 l -7.1171531387445 0 L 757.265093962415 152.69205032940218 M 775.0579768092763 153.61659952625308 l 7.1171531387445 0 L 782.1751299480208 164.48653387656418 l -7.1171531387445 0 L 775.0579768092763 153.61659952625308 M 783.9544182327068 164.48653387656418 l 7.1171531387445 0 L 791.0715713714512 164.96923955287738 l -7.1171531387445 0 L 783.9544182327068 164.48653387656418 M 810.6437425029987 142.7304404964429 l 7.1171531387445 0 L 817.7608956417432 143.3442312817246 l -7.1171531387445 0 L 810.6437425029987 142.7304404964429 M 819.5401839264293 143.31392804435336 l 7.1171531387445 0 L 826.6573370651738 144.46227480445313 l -7.1171531387445 0 L 819.5401839264293 143.31392804435336 M 828.43662534986 144.4525743346997 l 7.1171531387445 0 L 835.5537784886045 147.46847613449225 l -7.1171531387445 0 L 828.43662534986 144.4525743346997 M 837.3330667732906 147.44237929550962 l 7.1171531387445 0 L 844.4502199120351 147.68574948799548 l -7.1171531387445 0 L 837.3330667732906 147.44237929550962 M 846.2295081967213 147.6952782680187 l 7.1171531387445 0 L 853.3466613354658 150.09129429710927 l -7.1171531387445 0 L 846.2295081967213 147.6952782680187 M 855.1259496201519 150.1072614420131 l 7.1171531387445 0 L 862.2431027588964 151.54567800119915 l -7.1171531387445 0 L 855.1259496201519 150.1072614420131 M 864.0223910435824 151.5582113515 l 7.1171531387445 0 L 871.1395441823269 153.22300081988715 l -7.1171531387445 0 L 864.0223910435824 151.5582113515 M 881.8152738904437 147.29472612758173 l 7.1171531387445 0 L 888.9324270291881 148.28923888946824 l -7.1171531387445 0 L 881.8152738904437 147.29472612758173"></path><path class="candle body equal"></path><path class="candle wick up" d="M 22.41903238704518 15.424651712788744 L 22.41903238704518 17.19863584955047 M 22.41903238704518 24.388572523853753 L 22.41903238704518 26.48679271600139 M 31.315473810475808 11.198165625717564 L 31.315473810475808 16.710951171062987 M 31.315473810475808 17.19863584955047 L 31.315473810475808 20.772786806921573 M 49.10835665733706 3.846153846153868 L 49.10835665733706 6.711397907740832 M 49.10835665733706 23.546005173148927 L 49.10835665733706 24.052060652762265 M 102.48700519792082 67.06900838639086 L 102.48700519792082 81.16379093808554 M 102.48700519792082 89.25784573135205 L 102.48700519792082 92.20944972720389 M 129.1763294682127 80.59489701723774 L 129.1763294682127 96.0153818202758 M 129.1763294682127 98.22425604350423 L 129.1763294682127 100.61134420662708 M 138.07277089164333 86.94827548139136 L 138.07277089164333 89.15045380514401 M 138.07277089164333 96.0153818202758 L 138.07277089164333 101.65581867998684 M 146.96921231507397 77.361721863942 L 146.96921231507397 78.48723388993197 M 146.96921231507397 89.15045380514401 L 146.96921231507397 94.35900514866596 M 164.7620951619352 83.12732053693146 L 164.7620951619352 86.07557658304539 M 164.7620951619352 90.97663161987097 L 164.7620951619352 94.61327763901622 M 182.55497800879647 85.2149818106749 L 182.55497800879647 87.15464653703016 M 182.55497800879647 100.92330444630728 L 182.55497800879647 101.12890289816039 M 200.34786085565773 92.84659031578582 L 200.34786085565773 94.65894710723578 M 200.34786085565773 96.75399103937563 L 200.34786085565773 98.93213280090745 M 209.24430227908834 85.70592859403519 L 209.24430227908834 87.37174820080322 M 209.24430227908834 94.6588612623707 L 209.24430227908834 96.2895703193233 M 227.0371851259496 91.21828491505528 L 227.0371851259496 92.8603254941977 M 227.0371851259496 97.5426478148138 L 227.0371851259496 101.32102370619684 M 262.6229508196721 96.19608526125734 L 262.6229508196721 98.2106067099574 M 262.6229508196721 101.65744973242325 L 262.6229508196721 103.20102625132539 M 271.51939224310274 93.43376919289447 L 271.51939224310274 94.46116053810445 M 271.51939224310274 98.2106067099574 L 271.51939224310274 99.85985825776609 M 280.4158336665334 70.8203431452755 L 280.4158336665334 75.00768397387279 M 280.4158336665334 94.46116053810445 L 280.4158336665334 95.90747482487734 M 289.31227508996403 69.30088903345927 L 289.31227508996403 74.43406858544589 M 289.31227508996403 75.00759812900772 L 289.31227508996403 79.59360251101037 M 307.10515793682526 83.9803609611754 L 307.10515793682526 86.00956188180322 M 307.10515793682526 91.56183606508289 L 307.10515793682526 93.37565221923911 M 324.89804078368655 89.99053165476174 L 324.89804078368655 91.06221895035009 M 324.89804078368655 92.46861537486339 L 324.89804078368655 94.31608271612876 M 333.7944822071172 88.27260421489358 L 333.7944822071172 90.58861282973484 M 333.7944822071172 91.06230479521517 L 333.7944822071172 93.91759085245359 M 342.6909236305478 74.73795940780914 L 342.6909236305478 78.10771374143822 M 342.6909236305478 90.58869867459991 L 342.6909236305478 90.83739124872035 M 422.7588964414235 151.70337501834075 L 422.7588964414235 153.56002776016908 M 422.7588964414235 157.39986857494537 L 422.7588964414235 174.78173685520247 M 440.5517792882847 164.01842182731372 L 440.5517792882847 171.71544411961128 M 440.5517792882847 172.30099194428354 L 440.5517792882847 173.62248779723828 M 458.34466213514594 168.73542547341984 L 458.34466213514594 170.81244198389405 M 458.34466213514594 184.57517659748106 L 458.34466213514594 193.2487700748646 M 476.13754498200717 160.94886698684968 L 476.13754498200717 169.52888956130215 M 476.13754498200717 170.8133004325448 L 476.13754498200717 172.74910213997168 M 493.93042782886846 165.1552653754935 L 493.93042782886846 166.2100412326622 M 493.93042782886846 175.84295107725174 L 493.93042782886846 176.683629840925 M 502.82686925229905 162.36178762110865 L 502.82686925229905 165.11500413377365 M 502.82686925229905 166.2101270775273 L 502.82686925229905 169.415574339404 M 511.7233106757297 161.88028377290652 L 511.7233106757297 162.93883680413853 M 511.7233106757297 165.1150899786387 L 511.7233106757297 167.9570700817906 M 582.8948420631747 178.76485274978785 L 582.8948420631747 181.61318537295523 M 582.8948420631747 182.15409386778882 L 582.8948420631747 186.20442629172743 M 591.7912834866053 172.700943170665 L 591.7912834866053 173.70790343798726 M 591.7912834866053 181.61318537295523 L 591.7912834866053 183.84961579787256 M 609.5841663334666 169.94352025961135 L 609.5841663334666 170.89390876084963 M 609.5841663334666 174.2304411316949 L 609.5841663334666 177.78948339281294 M 618.4806077568971 159.96079258984378 L 618.4806077568971 161.7903183543086 M 618.4806077568971 170.89390876084963 L 618.4806077568971 173.57939367497093 M 671.8592562974809 172.59277864067127 L 671.8592562974809 173.72369889316096 M 671.8592562974809 181.48055505641537 L 671.8592562974809 185.08895811495114 M 680.7556977209116 168.01389938246982 L 680.7556977209116 170.6850482041237 M 680.7556977209116 173.72369889316096 L 680.7556977209116 179.03577914396254 M 689.6521391443422 165.4385534302389 L 689.6521391443422 168.61447005853003 M 689.6521391443422 170.6850482041237 L 689.6521391443422 172.45817389223467 M 698.5485805677728 162.09970324803663 L 698.5485805677728 165.47632517087163 M 698.5485805677728 168.61447005853003 L 698.5485805677728 171.6313161518384 M 716.3414634146341 151.8954099815121 L 716.3414634146341 154.857487050903 M 716.3414634146341 168.87595351754655 L 716.3414634146341 169.19469550156765 M 725.2379048380647 143.1188885109044 L 725.2379048380647 146.58169867827408 M 725.2379048380647 154.857487050903 L 725.2379048380647 162.1803974212065 M 769.7201119552178 149.8608008343846 L 769.7201119552178 153.59470908565913 M 769.7201119552178 154.720135266784 L 769.7201119552178 156.36346351890256 M 796.4094362255097 149.0196070015209 L 796.4094362255097 150.39467005028206 M 796.4094362255097 164.96923955287738 L 796.4094362255097 166.7903525205649 M 805.3058776489403 139.68749756415193 L 805.3058776489403 142.75035650514016 M 805.3058776489403 150.37870290537825 L 805.3058776489403 153.5736770937159 M 876.4774090363853 145.92721742694712 L 876.4774090363853 147.30451244220023 M 876.4774090363853 153.22789397719637 L 876.4774090363853 153.53229986875004" style="stroke-width: 1px;"></path><path class="candle wick down" d="M 4.626149540183927 4.691897456866457 L 4.626149540183927 6.264489540163737 M 4.626149540183927 16.101881853360396 L 4.626149540183927 19.716894966506914 M 13.522590963614554 14.391251227023588 L 13.522590963614554 16.101881853360396 M 13.522590963614554 24.388572523853753 L 13.522590963614554 24.84011651414494 M 40.21191523390643 15.62630130084841 L 40.21191523390643 16.710951171062987 M 40.21191523390643 23.546005173148927 L 40.21191523390643 25.358619499194077 M 58.004798080767685 5.376424410969406 L 58.004798080767685 6.711397907740832 M 58.004798080767685 33.6411896161639 L 58.004798080767685 42.063171794014465 M 66.90123950419832 32.58821650116178 L 66.90123950419832 33.6411896161639 M 66.90123950419832 38.269944740973614 L 66.90123950419832 44.757842108698725 M 75.79768092762893 37.132242744143014 L 75.79768092762893 38.269944740973614 M 75.79768092762893 42.91741404636946 L 75.79768092762893 48.81830422671612 M 84.69412235105956 42.558324975763384 L 84.69412235105956 42.917328201504375 M 84.69412235105956 55.227481853168115 L 84.69412235105956 58.012718500505855 M 93.5905637744902 53.469808240770504 L 93.5905637744902 55.2275676980332 M 93.5905637744902 89.23998999941658 L 93.5905637744902 89.60895122950619 M 111.38344662135144 71.33034748868226 L 111.38344662135144 81.16370509322046 M 111.38344662135144 97.58728714465248 L 111.38344662135144 108.90970977877056 M 120.27988804478207 87.80904194349202 L 120.27988804478207 97.58728714465248 M 120.27988804478207 98.22417019863916 L 120.27988804478207 118.223877639339 M 155.8656537385046 78.48714804506687 L 155.8656537385046 78.48723388993197 M 155.8656537385046 90.97663161987097 L 155.8656537385046 97.73236496662814 M 173.65853658536582 83.8001725893843 L 173.65853658536582 86.07557658304539 M 173.65853658536582 100.92339029117238 L 173.65853658536582 101.44575629514986 M 191.4514194322271 83.22209326797353 L 191.4514194322271 87.15473238189522 M 191.4514194322271 96.75399103937563 L 191.4514194322271 100.79737002924321 M 218.14074370251896 84.13908811669792 L 218.14074370251896 87.37183404566828 M 218.14074370251896 97.54256196994871 L 218.14074370251896 99.62687529395428 M 235.93362654938022 87.97437915362522 L 235.93362654938022 92.8603254941977 M 235.93362654938022 93.82547931222878 L 235.93362654938022 95.95391689688255 M 244.83006797281087 90.86820955528204 L 244.83006797281087 93.82556515709386 M 244.83006797281087 96.75107231396309 L 244.83006797281087 106.89613262358628 M 253.72650939624148 95.06585176768827 L 253.72650939624148 96.75107231396309 M 253.72650939624148 101.65753557728834 L 253.72650939624148 104.635493946718 M 298.2087165133947 72.87229295514798 L 298.2087165133947 74.43398274058082 M 298.2087165133947 91.56192190994794 L 298.2087165133947 95.89562823349706 M 316.0015993602559 83.89451609610103 L 316.0015993602559 86.00947603693814 M 316.0015993602559 92.46861537486339 L 316.0015993602559 96.05564306199568 M 351.5873650539784 76.24917241257825 L 351.5873650539784 78.10771374143822 M 351.5873650539784 80.23469196338569 L 351.5873650539784 96.59989950656713 M 360.483806477409 78.50156998239936 L 360.483806477409 80.23477780825078 M 360.483806477409 88.13722686267131 L 360.483806477409 91.23528219834 M 369.38024790083966 83.88593160959361 L 369.38024790083966 88.13722686267131 M 369.38024790083966 88.95137956303658 L 369.38024790083966 90.37494496056475 M 378.2766893242703 86.60893072975242 L 378.2766893242703 88.95137956303658 M 378.2766893242703 97.69081605193213 L 378.2766893242703 99.76723164835084 M 387.1731307477009 94.69886496949536 L 387.1731307477009 97.69090189679723 M 387.1731307477009 103.41821375996352 L 387.1731307477009 106.20568237379318 M 396.06957217113154 102.38584341257923 L 396.06957217113154 103.41812791509845 M 396.06957217113154 119.30097316142705 L 396.06957217113154 119.42570575038009 M 404.9660135945622 116.54269180172267 L 404.9660135945622 119.30097316142705 M 404.9660135945622 154.38679965570026 L 404.9660135945622 159.20819065773682 M 413.86245501799283 146.871339253035 L 413.86245501799283 154.40517045682617 M 413.86245501799283 157.39995441981043 L 413.86245501799283 168.47746165387136 M 431.65533786485406 150.02313347424024 L 431.65533786485406 153.56002776016908 M 431.65533786485406 172.29489695886323 L 431.65533786485406 173.74833636943728 M 449.44822071171535 168.9405088560825 L 449.44822071171535 171.71544411961128 M 449.44822071171535 184.57517659748106 L 449.44822071171535 196.15384615384616 M 467.2411035585766 166.3828469460569 L 467.2411035585766 170.81244198389405 M 467.2411035585766 170.81338627740988 L 467.2411035585766 178.8558483067667 M 485.0339864054379 168.01389938246982 L 485.0339864054379 169.52897540616726 M 485.0339864054379 175.84303692211682 L 485.0339864054379 177.7099910477541 M 520.6197520991603 159.5324267131227 L 520.6197520991603 162.9389226490036 M 520.6197520991603 166.82863933038806 L 520.6197520991603 167.45822557084347 M 529.5161935225909 162.52111569068666 L 529.5161935225909 166.82855348552297 M 529.5161935225909 169.36544093820058 L 529.5161935225909 171.36184912036998 M 538.4126349460215 165.33468114349893 L 538.4126349460215 169.36535509333552 M 538.4126349460215 173.32520702948574 L 538.4126349460215 174.00578511979532 M 547.3090763694522 172.0287778771327 L 547.3090763694522 173.32529287435082 M 547.3090763694522 174.68395955388277 L 547.3090763694522 176.9853745416614 M 556.2055177928828 174.2026273954108 L 556.2055177928828 174.68404539874786 M 556.2055177928828 176.23603471442726 L 556.2055177928828 187.53502170038007 M 565.1019592163135 167.85637405505835 L 565.1019592163135 176.23603471442726 M 565.1019592163135 181.92248442181818 L 565.1019592163135 184.53903590928476 M 573.998400639744 180.3121205978882 L 573.998400639744 181.92248442181818 M 573.998400639744 182.15417971265387 L 573.998400639744 184.52178109140485 M 600.687724910036 169.30157235858525 L 600.687724910036 173.70790343798726 M 600.687724910036 174.23052697655996 L 600.687724910036 181.71130605373523 M 627.3770491803277 154.04376357486314 L 627.3770491803277 161.7902325094435 M 627.3770491803277 162.0498273814284 L 627.3770491803277 165.5307508153288 M 636.2734906037584 158.74265395443854 L 636.2734906037584 162.0498273814284 M 636.2734906037584 162.07489408203008 L 636.2734906037584 164.39021593795079 M 645.169932027189 161.93908750548246 L 645.169932027189 162.0721470463477 M 645.169932027189 168.33607516109387 L 645.169932027189 170.1170985767917 M 654.0663734506197 168.2844823971842 L 654.0663734506197 168.347750062744 M 654.0663734506197 176.05232670316812 L 654.0663734506197 176.81102362069535 M 662.9628148740503 175.22984705089067 L 662.9628148740503 176.05232670316812 M 662.9628148740503 181.50227380727915 L 662.9628148740503 182.26414698481415 M 707.4450219912034 161.2790263379257 L 707.4450219912034 165.47632517087163 M 707.4450219912034 168.88814348838713 L 707.4450219912034 169.3014865137202 M 734.1343462614954 139.0263204133492 L 734.1343462614954 146.56573153337024 M 734.1343462614954 148.06956187974293 L 734.1343462614954 150.7917883961161 M 743.0307876849259 146.18552462595588 L 743.0307876849259 148.06956187974293 M 743.0307876849259 148.68000471528674 L 743.0307876849259 155.6397054614606 M 751.9272291083566 143.49239951884294 L 751.9272291083566 148.68000471528674 M 751.9272291083566 152.69205032940218 L 751.9272291083566 154.27872097057164 M 760.8236705317872 149.97986766224275 L 760.8236705317872 152.69205032940218 M 760.8236705317872 154.6987598953805 L 760.8236705317872 159.13264717647138 M 778.6165533786485 152.8536962103372 L 778.6165533786485 153.61659952625308 M 778.6165533786485 164.48653387656418 L 778.6165533786485 165.00932910486708 M 787.512994802079 164.16959463470965 L 787.512994802079 164.48653387656418 M 787.512994802079 164.96923955287738 L 787.512994802079 169.67499752165872 M 814.202319072371 137.60198241203537 L 814.202319072371 142.7304404964429 M 814.202319072371 143.3442312817246 L 814.202319072371 146.4322427681796 M 823.0987604958016 135.66755422244967 L 823.0987604958016 143.31392804435336 M 823.0987604958016 144.46227480445313 L 823.0987604958016 145.67491936849356 M 831.9952019192323 139.7295615480384 L 831.9952019192323 144.4525743346997 M 831.9952019192323 147.46847613449225 L 831.9952019192323 148.0351380888481 M 840.8916433426629 145.6111366337433 L 840.8916433426629 147.44237929550962 M 840.8916433426629 147.68574948799548 L 840.8916433426629 151.27415069296893 M 849.7880847660936 146.0385582169486 L 849.7880847660936 147.6952782680187 M 849.7880847660936 150.09129429710927 L 849.7880847660936 152.95353378841872 M 858.6845261895241 144.4264774957171 L 858.6845261895241 150.1072614420131 M 858.6845261895241 151.54567800119915 L 858.6845261895241 152.72304032569403 M 867.5809676129546 148.0693901900128 L 867.5809676129546 151.5582113515 M 867.5809676129546 153.22300081988715 L 867.5809676129546 155.13716962131528 M 885.3738504598159 146.94447907807833 L 885.3738504598159 147.29472612758173 M 885.3738504598159 148.28923888946824 L 885.3738504598159 149.12802906610983" style="stroke-width: 1px;"></path><path class="candle wick equal" style="stroke-width: 1px;"></path></g></g><g class="x axis" transform="translate(0,200)" fill="none" font-size="10" font-family="sans-serif" text-anchor="middle"><path class="domain" stroke="#000" d="M0.5,6V0.5H890.5V6"></path><g class="tick" opacity="1" transform="translate(31.315473810475808,0)"><line stroke="#000" y2="6" x1="0.5" x2="0.5"></line><text fill="#000" y="9" x="0.5" dy="0.71em">May  2</text></g><g class="tick" opacity="1" transform="translate(93.5905637744902,0)"><line stroke="#000" y2="6" x1="0.5" x2="0.5"></line><text fill="#000" y="9" x="0.5" dy="0.71em">May  9</text></g><g class="tick" opacity="1" transform="translate(155.8656537385046,0)"><line stroke="#000" y2="6" x1="0.5" x2="0.5"></line><text fill="#000" y="9" x="0.5" dy="0.71em">May 16</text></g><g class="tick" opacity="1" transform="translate(218.14074370251896,0)"><line stroke="#000" y2="6" x1="0.5" x2="0.5"></line><text fill="#000" y="9" x="0.5" dy="0.71em">May 23</text></g><g class="tick" opacity="1" transform="translate(280.4158336665334,0)"><line stroke="#000" y2="6" x1="0.5" x2="0.5"></line><text fill="#000" y="9" x="0.5" dy="0.71em">May 30</text></g><g class="tick" opacity="1" transform="translate(342.6909236305478,0)"><line stroke="#000" y2="6" x1="0.5" x2="0.5"></line><text fill="#000" y="9" x="0.5" dy="0.71em">Jun  6</text></g><g class="tick" opacity="1" transform="translate(404.9660135945622,0)"><line stroke="#000" y2="6" x1="0.5" x2="0.5"></line><text fill="#000" y="9" x="0.5" dy="0.71em">Jun 13</text></g><g class="tick" opacity="1" transform="translate(467.2411035585766,0)"><line stroke="#000" y2="6" x1="0.5" x2="0.5"></line><text fill="#000" y="9" x="0.5" dy="0.71em">Jun 20</text></g><g class="tick" opacity="1" transform="translate(529.5161935225909,0)"><line stroke="#000" y2="6" x1="0.5" x2="0.5"></line><text fill="#000" y="9" x="0.5" dy="0.71em">Jun 27</text></g><g class="tick" opacity="1" transform="translate(591.7912834866053,0)"><line stroke="#000" y2="6" x1="0.5" x2="0.5"></line><text fill="#000" y="9" x="0.5" dy="0.71em">Jul  4</text></g><g class="tick" opacity="1" transform="translate(654.0663734506197,0)"><line stroke="#000" y2="6" x1="0.5" x2="0.5"></line><text fill="#000" y="9" x="0.5" dy="0.71em">Jul 11</text></g><g class="tick" opacity="1" transform="translate(716.3414634146341,0)"><line stroke="#000" y2="6" x1="0.5" x2="0.5"></line><text fill="#000" y="9" x="0.5" dy="0.71em">Jul 18</text></g><g class="tick" opacity="1" transform="translate(778.6165533786485,0)"><line stroke="#000" y2="6" x1="0.5" x2="0.5"></line><text fill="#000" y="9" x="0.5" dy="0.71em">Jul 25</text></g><g class="tick" opacity="1" transform="translate(840.8916433426629,0)"><line stroke="#000" y2="6" x1="0.5" x2="0.5"></line><text fill="#000" y="9" x="0.5" dy="0.71em">Aug  1</text></g></g><g class="y axis" fill="none" font-size="10" font-family="sans-serif" text-anchor="end"><path class="domain" stroke="#000" d="M-6,200.5H0.5V0.5H-6"></path><g class="tick" opacity="1" transform="translate(0,192.90891025403522)"><line stroke="#000" x2="-6" y1="0.5" y2="0.5"></line><text fill="#000" x="-9" y="0.5" dy="0.32em">18,000</text></g><g class="tick" opacity="1" transform="translate(0,175.73993723916251)"><line stroke="#000" x2="-6" y1="0.5" y2="0.5"></line><text fill="#000" x="-9" y="0.5" dy="0.32em">20,000</text></g><g class="tick" opacity="1" transform="translate(0,158.5709642242898)"><line stroke="#000" x2="-6" y1="0.5" y2="0.5"></line><text fill="#000" x="-9" y="0.5" dy="0.32em">22,000</text></g><g class="tick" opacity="1" transform="translate(0,141.40199120941713)"><line stroke="#000" x2="-6" y1="0.5" y2="0.5"></line><text fill="#000" x="-9" y="0.5" dy="0.32em">24,000</text></g><g class="tick" opacity="1" transform="translate(0,124.23301819454444)"><line stroke="#000" x2="-6" y1="0.5" y2="0.5"></line><text fill="#000" x="-9" y="0.5" dy="0.32em">26,000</text></g><g class="tick" opacity="1" transform="translate(0,107.06404517967174)"><line stroke="#000" x2="-6" y1="0.5" y2="0.5"></line><text fill="#000" x="-9" y="0.5" dy="0.32em">28,000</text></g><g class="tick" opacity="1" transform="translate(0,89.89507216479906)"><line stroke="#000" x2="-6" y1="0.5" y2="0.5"></line><text fill="#000" x="-9" y="0.5" dy="0.32em">30,000</text></g><g class="tick" opacity="1" transform="translate(0,72.72609914992636)"><line stroke="#000" x2="-6" y1="0.5" y2="0.5"></line><text fill="#000" x="-9" y="0.5" dy="0.32em">32,000</text></g><g class="tick" opacity="1" transform="translate(0,55.557126135053664)"><line stroke="#000" x2="-6" y1="0.5" y2="0.5"></line><text fill="#000" x="-9" y="0.5" dy="0.32em">34,000</text></g><g class="tick" opacity="1" transform="translate(0,38.38815312018099)"><line stroke="#000" x2="-6" y1="0.5" y2="0.5"></line><text fill="#000" x="-9" y="0.5" dy="0.32em">36,000</text></g><g class="tick" opacity="1" transform="translate(0,21.219180105308283)"><line stroke="#000" x2="-6" y1="0.5" y2="0.5"></line><text fill="#000" x="-9" y="0.5" dy="0.32em">38,000</text></g><g class="tick" opacity="1" transform="translate(0,4.050207090435578)"><line stroke="#000" x2="-6" y1="0.5" y2="0.5"></line><text fill="#000" x="-9" y="0.5" dy="0.32em">40,000</text></g><text transform="rotate(-90)" y="6" dy=".71em" style="text-anchor: end;">Price ($)</text></g></g></svg>