<?xml version="1.0" encoding="utf-8"?>
<!DOCTYPE svg PUBLIC "-//W3C//DTD SVG 1.1//EN" "http://www.w3.org/Graphics/SVG/1.1/DTD/svg11.dtd">
<svg version="1.1" xmlns="http://www.w3.org/2000/svg" width="960" height="250"><g transform="translate(50,20)"><style>.axis path,.axis line{fill:none;stroke:#000;shape-rendering:crispEdges;}path.candle{stroke:#000000;}path.candle.body{stroke-width:0;}path.candle.up{fill:#00AA00;stroke:#00AA00;}path.candle.down{fill:#FF0000;stroke:#FF0000;}</style><g class="candlestick"><g class="data"><path class="candle body up" d="M 1.0675729708116766 147.08993982208267 l 7.1171531387445 0 L 8.184726109556177 135.90711669283098 l -7.1171531387445 0 L 1.0675729708116766 147.08993982208267 M 9.964014394242305 135.90718210361064 l 7.1171531387445 0 L 17.081167532986804 133.05442176870747 l -7.1171531387445 0 L 9.964014394242305 135.90718210361064 M 18.860455817672932 133.05448717948718 l 7.1171531387445 0 L 25.977608956417434 128.1322605965463 l -7.1171531387445 0 L 18.860455817672932 133.05448717948718 M 36.65333866453418 128.66601255886968 l 7.1171531387445 0 L 43.77049180327868 116.6347462061748 l -7.1171531387445 0 L 36.65333866453418 128.66601255886968 M 45.54978008796481 116.6347462061748 l 7.1171531387445 0 L 52.66693322670931 110.70185766614337 l -7.1171531387445 0 L 45.54978008796481 116.6347462061748 M 72.23910435825668 153.97494767137624 l 7.1171531387445 0 L 79.35625749700118 151.70630559916276 l -7.1171531387445 0 L 72.23910435825668 153.97494767137624 M 90.03198720511796 161.8642072213501 l 7.1171531387445 0 L 97.14914034386246 159.69590528519097 l -7.1171531387445 0 L 90.03198720511796 161.8642072213501 M 98.92842862854857 159.6959706959707 l 7.1171531387445 0 L 106.04558176729307 154.12585034013608 l -7.1171531387445 0 L 98.92842862854857 159.6959706959707 M 116.72131147540982 161.2197802197802 l 7.1171531387445 0 L 123.83846461415432 147.02040816326533 l -7.1171531387445 0 L 116.72131147540982 161.2197802197802 M 125.61775289884046 147.07430664573522 l 7.1171531387445 0 L 132.73490603758498 140.41463893249605 l -7.1171531387445 0 L 125.61775289884046 147.07430664573522 M 152.30707716913233 145.78767660910515 l 7.1171531387445 0 L 159.42423030787683 139.29395604395606 l -7.1171531387445 0 L 152.30707716913233 145.78767660910515 M 187.89284286285485 188.7356750392465 l 7.1171531387445 0 L 195.00999600159935 170.35838566195707 l -7.1171531387445 0 L 187.89284286285485 188.7356750392465 M 196.78928428628546 170.34033228676083 l 7.1171531387445 0 L 203.90643742502996 161.71336996336996 l -7.1171531387445 0 L 196.78928428628546 170.34033228676083 M 223.47860855657734 176.06861590790163 l 7.1171531387445 0 L 230.59576169532184 172.8617216117216 l -7.1171531387445 0 L 223.47860855657734 176.06861590790163 M 250.16793282686922 186.83274463631605 l 7.1171531387445 0 L 257.28508596561375 183.5669806384092 l -7.1171531387445 0 L 250.16793282686922 186.83274463631605 M 259.06437425029986 183.56691522762952 l 7.1171531387445 0 L 266.1815273890444 168.52367870225015 l -7.1171531387445 0 L 259.06437425029986 183.56691522762952 M 267.9608156737305 168.550431711146 l 7.1171531387445 0 L 275.07796881247504 140.28250915750914 l -7.1171531387445 0 L 267.9608156737305 168.550431711146 M 285.7536985205918 143.5970041862899 l 7.1171531387445 0 L 292.8708516593363 139.90051020408163 l -7.1171531387445 0 L 285.7536985205918 143.5970041862899 M 294.65013994402244 139.90051020408163 l 7.1171531387445 0 L 301.76729308276697 133.19636316064884 l -7.1171531387445 0 L 294.65013994402244 139.90051020408163 M 303.54658136745303 133.19642857142856 l 7.1171531387445 0 L 310.66373450619756 118.49823390894821 l -7.1171531387445 0 L 303.54658136745303 133.19642857142856 M 312.4430227908837 118.49823390894821 l 7.1171531387445 0 L 319.5601759296282 93.36080586080587 l -7.1171531387445 0 L 312.4430227908837 118.49823390894821 M 330.23590563774496 103.36721611721612 l 7.1171531387445 0 L 337.3530587764895 102.28002354788069 l -7.1171531387445 0 L 330.23590563774496 103.36721611721612 M 339.13234706117555 102.25228937728939 l 7.1171531387445 0 L 346.2495001999201 95.75013082155938 l -7.1171531387445 0 L 339.13234706117555 102.25228937728939 M 356.9252299080368 97.65168759811615 l 7.1171531387445 0 L 364.0423830467813 79.2559523809524 l -7.1171531387445 0 L 356.9252299080368 97.65168759811615 M 374.7181127548981 88.90037938252222 l 7.1171531387445 0 L 381.8352658936426 79.9385138670853 l -7.1171531387445 0 L 374.7181127548981 88.90037938252222 M 392.5109956017593 80.0631868131868 l 7.1171531387445 0 L 399.62814874050383 51.77642595499739 l -7.1171531387445 0 L 392.5109956017593 80.0631868131868 M 410.3038784486206 56.988683935112505 l 7.1171531387445 0 L 417.4210315873651 52.71892987964415 l -7.1171531387445 0 L 410.3038784486206 56.988683935112505 M 419.20031987205124 52.71899529042386 l 7.1171531387445 0 L 426.31747301079577 49.56933542647829 l -7.1171531387445 0 L 419.20031987205124 52.71899529042386 M 428.0967612954818 49.597069597069606 l 7.1171531387445 0 L 435.21391443422635 34.71618262689694 l -7.1171531387445 0 L 428.0967612954818 49.597069597069606 M 436.99320271891247 34.71618262689694 l 7.1171531387445 0 L 444.110355857657 23.460164835164818 l -7.1171531387445 0 L 436.99320271891247 34.71618262689694 M 463.68252698920435 58.21408948194659 l 7.1171531387445 0 L 470.7996801279489 54.29912349555207 l -7.1171531387445 0 L 463.68252698920435 58.21408948194659 M 481.47540983606564 57.14141810570382 l 7.1171531387445 0 L 488.59256297481016 42.57731554160128 l -7.1171531387445 0 L 481.47540983606564 57.14141810570382 M 508.16473410635746 73.09366823652536 l 7.1171531387445 0 L 515.281887245102 58.948914181057035 l -7.1171531387445 0 L 508.16473410635746 73.09366823652536 M 517.0611755297881 58.94884877027732 l 7.1171531387445 0 L 524.1783286685326 47.9741627420199 l -7.1171531387445 0 L 517.0611755297881 58.94884877027732 M 552.6469412235106 56.75614861329146 l 7.1171531387445 0 L 559.764094362255 41.65364992150708 l -7.1171531387445 0 L 552.6469412235106 56.75614861329146 M 588.232706917233 56.56606488749344 l 7.1171531387445 0 L 595.3498600559775 53.09648090005231 l -7.1171531387445 0 L 588.232706917233 56.56606488749344 M 597.1291483406637 53.09641548927263 l 7.1171531387445 0 L 604.2463014794082 41.303048142333864 l -7.1171531387445 0 L 597.1291483406637 53.09641548927263 M 606.0255897640943 41.30311355311355 l 7.1171531387445 0 L 613.1427429028388 13.4888147566719 l -7.1171531387445 0 L 606.0255897640943 41.30311355311355 M 650.5077968812475 35.752093144950265 l 7.1171531387445 0 L 657.624950019992 34.065934065934044 l -7.1171531387445 0 L 650.5077968812475 35.752093144950265 M 659.4042383046781 34.06586865515436 l 7.1171531387445 0 L 666.5213914434225 26.614992150706428 l -7.1171531387445 0 L 659.4042383046781 34.06586865515436 M 686.09356257497 62.33078231292515 l 7.1171531387445 0 L 693.2107157137144 60.46003401360542 l -7.1171531387445 0 L 686.09356257497 62.33078231292515 M 703.8864454218311 83.04801151229722 l 7.1171531387445 0 L 711.0035985605756 75.45630559916276 l -7.1171531387445 0 L 703.8864454218311 83.04801151229722 M 712.7828868452618 75.42451596023025 l 7.1171531387445 0 L 719.9000399840063 64.62905546834116 l -7.1171531387445 0 L 712.7828868452618 75.42451596023025 M 739.4722111155537 87.2852564102564 l 7.1171531387445 0 L 746.5893642542982 78.7986002093145 l -7.1171531387445 0 L 739.4722111155537 87.2852564102564 M 757.265093962415 81.43452380952381 l 7.1171531387445 0 L 764.3822471011595 69.51622187336471 l -7.1171531387445 0 L 757.265093962415 81.43452380952381 M 775.0579768092763 103.76949241234955 l 7.1171531387445 0 L 782.1751299480208 97.24600994243853 l -7.1171531387445 0 L 775.0579768092763 103.76949241234955 M 783.9544182327068 97.2758372579801 l 7.1171531387445 0 L 791.0715713714512 80.54107796964942 l -7.1171531387445 0 L 783.9544182327068 97.2758372579801 M 792.8508596561375 80.5410125588697 l 7.1171531387445 0 L 799.9680127948819 77.26157770800629 l -7.1171531387445 0 L 792.8508596561375 80.5410125588697 M 810.6437425029987 82.66248037676611 l 7.1171531387445 0 L 817.7608956417432 81.13507326007326 l -7.1171531387445 0 L 810.6437425029987 82.66248037676611 M 846.2295081967213 133.67046049188906 l 7.1171531387445 0 L 853.3466613354658 132.07528780743064 l -7.1171531387445 0 L 846.2295081967213 133.67046049188906 M 855.1259496201519 132.07535321821035 l 7.1171531387445 0 L 862.2431027588964 125.23600209314496 l -7.1171531387445 0 L 855.1259496201519 132.07535321821035 M 864.0223910435824 125.23606750392462 l 7.1171531387445 0 L 871.1395441823269 124.27426739926742 l -7.1171531387445 0 L 864.0223910435824 125.23606750392462"></path><path class="candle body down" d="M 27.75689724110356 128.1397174254317 l 7.1171531387445 0 L 34.87405037984806 128.67844060701202 l -7.1171531387445 0 L 27.75689724110356 128.1397174254317 M 54.446221511395436 110.68681318681321 l 7.1171531387445 0 L 61.563374650139934 148.6412218733647 l -7.1171531387445 0 L 54.446221511395436 110.68681318681321 M 63.342662934826066 148.60956305599163 l 7.1171531387445 0 L 70.45981607357056 153.97494767137624 l -7.1171531387445 0 L 63.342662934826066 148.60956305599163 M 81.13554578168731 151.70630559916276 l 7.1171531387445 0 L 88.25269892043181 161.8072344322344 l -7.1171531387445 0 L 81.13554578168731 151.70630559916276 M 107.82487005197919 154.12591575091574 l 7.1171531387445 0 L 114.94202319072369 161.2197148090005 l -7.1171531387445 0 L 107.82487005197919 154.12591575091574 M 134.51419432227107 140.41470434327576 l 7.1171531387445 0 L 141.63134746101557 142.92373103087388 l -7.1171531387445 0 L 134.51419432227107 140.41470434327576 M 143.4106357457017 142.9237964416536 l 7.1171531387445 0 L 150.5277888844462 145.78767660910515 l -7.1171531387445 0 L 143.4106357457017 142.9237964416536 M 161.20351859256294 139.29389063317635 l 7.1171531387445 0 L 168.32067173130744 146.16856357927787 l -7.1171531387445 0 L 161.20351859256294 139.29389063317635 M 170.09996001599356 146.16856357927787 l 7.1171531387445 0 L 177.21711315473806 173.81200941915225 l -7.1171531387445 0 L 170.09996001599356 146.16856357927787 M 178.9964014394242 173.80533751962324 l 7.1171531387445 0 L 186.1135545781687 188.7337781266353 l -7.1171531387445 0 L 178.9964014394242 173.80533751962324 M 205.68572570971608 161.71336996336996 l 7.1171531387445 0 L 212.80287884846058 175.1532574568289 l -7.1171531387445 0 L 205.68572570971608 161.71336996336996 M 214.5821671331467 175.15319204604918 l 7.1171531387445 0 L 221.6993202718912 176.06855049712192 l -7.1171531387445 0 L 214.5821671331467 175.15319204604918 M 232.37504998000796 172.8617216117216 l 7.1171531387445 0 L 239.49220311875246 179.49143118785977 l -7.1171531387445 0 L 232.37504998000796 172.8617216117216 M 241.2714914034386 179.49143118785977 l 7.1171531387445 0 L 248.3886445421831 186.8227367870225 l -7.1171531387445 0 L 241.2714914034386 179.49143118785977 M 276.85725709716115 140.28257456828885 l 7.1171531387445 0 L 283.9744102359057 143.59693877551018 l -7.1171531387445 0 L 276.85725709716115 140.28257456828885 M 321.3394642143143 93.36080586080587 l 7.1171531387445 0 L 328.45661735305885 103.36721611721612 l -7.1171531387445 0 L 321.3394642143143 93.36080586080587 M 348.02878848460614 95.75013082155938 l 7.1171531387445 0 L 355.14594162335067 97.65175300889585 l -7.1171531387445 0 L 348.02878848460614 95.75013082155938 M 365.8216713314674 79.2559523809524 l 7.1171531387445 0 L 372.93882447021196 88.90024856096284 l -7.1171531387445 0 L 365.8216713314674 79.2559523809524 M 383.61455417832866 79.91346153846153 l 7.1171531387445 0 L 390.7317073170732 80.0631868131868 l -7.1171531387445 0 L 383.61455417832866 79.91346153846153 M 401.40743702518995 51.77642595499739 l 7.1171531387445 0 L 408.5245901639345 56.988683935112505 l -7.1171531387445 0 L 401.40743702518995 51.77642595499739 M 445.8896441423431 23.460230245944558 l 7.1171531387445 0 L 453.00679728108764 48.37029042386186 l -7.1171531387445 0 L 445.8896441423431 23.460230245944558 M 454.7860855657737 48.37029042386186 l 7.1171531387445 0 L 461.90323870451823 58.21415489272633 l -7.1171531387445 0 L 454.7860855657737 48.37029042386186 M 472.57896841263494 54.29912349555207 l 7.1171531387445 0 L 479.69612155137946 57.14141810570382 l -7.1171531387445 0 L 472.57896841263494 54.29912349555207 M 490.3718512594962 42.57731554160128 l 7.1171531387445 0 L 497.48900439824075 60.56508372579802 l -7.1171531387445 0 L 490.3718512594962 42.57731554160128 M 499.2682926829268 60.56508372579802 l 7.1171531387445 0 L 506.38544582167134 73.09366823652536 l -7.1171531387445 0 L 499.2682926829268 60.56508372579802 M 525.9576169532187 47.97422815279958 l 7.1171531387445 0 L 533.0747700919632 50.554748822605944 l -7.1171531387445 0 L 525.9576169532187 47.97422815279958 M 534.8540583766493 50.554748822605944 l 7.1171531387445 0 L 541.9712115153937 54.21376242804811 l -7.1171531387445 0 L 534.8540583766493 50.554748822605944 M 543.75049980008 54.21369701726846 l 7.1171531387445 0 L 550.8676529388244 56.75621402407117 l -7.1171531387445 0 L 543.75049980008 54.21369701726846 M 561.5433826469413 41.64985609628468 l 7.1171531387445 0 L 568.6605357856857 43.769754055468326 l -7.1171531387445 0 L 561.5433826469413 41.64985609628468 M 570.4398240703717 43.76968864468867 l 7.1171531387445 0 L 577.5569772091162 53.5909863945578 l -7.1171531387445 0 L 570.4398240703717 43.76968864468867 M 579.3362654938024 53.5909863945578 l 7.1171531387445 0 L 586.4534186325469 56.586080586080556 l -7.1171531387445 0 L 579.3362654938024 53.5909863945578 M 614.9220311875249 13.488880167451555 l 7.1171531387445 0 L 622.0391843262694 17.270669806384063 l -7.1171531387445 0 L 614.9220311875249 13.488880167451555 M 623.8184726109555 17.27060439560441 l 7.1171531387445 0 L 630.9356257497 30.779500261643108 l -7.1171531387445 0 L 623.8184726109555 17.27060439560441 M 632.7149140343862 30.779565672422848 l 7.1171531387445 0 L 639.8320671731307 31.48704866562008 l -7.1171531387445 0 L 632.7149140343862 30.779565672422848 M 641.6113554578168 31.48711407639979 l 7.1171531387445 0 L 648.7285085965613 35.752027734170554 l -7.1171531387445 0 L 641.6113554578168 31.48711407639979 M 668.3006797281087 26.614926739926744 l 7.1171531387445 0 L 675.4178328668531 39.123888016745184 l -7.1171531387445 0 L 668.3006797281087 26.614926739926744 M 677.1971211515394 39.12395342752484 l 7.1171531387445 0 L 684.3142742902838 62.33078231292515 l -7.1171531387445 0 L 677.1971211515394 39.12395342752484 M 694.9900039984005 60.460099424385135 l 7.1171531387445 0 L 702.107157137145 83.04801151229722 l -7.1171531387445 0 L 694.9900039984005 60.460099424385135 M 721.6793282686924 64.62899005756151 l 7.1171531387445 0 L 728.7964814074369 71.72933019361594 l -7.1171531387445 0 L 721.6793282686924 64.62899005756151 M 730.5757696921231 71.75758765044483 l 7.1171531387445 0 L 737.6929228308676 87.26334379905809 l -7.1171531387445 0 L 730.5757696921231 71.75758765044483 M 748.3686525389844 78.79866562009418 l 7.1171531387445 0 L 755.4858056777289 81.43452380952381 l -7.1171531387445 0 L 748.3686525389844 78.79866562009418 M 766.1615353858456 69.51615646258503 l 7.1171531387445 0 L 773.27868852459 103.75111198325484 l -7.1171531387445 0 L 766.1615353858456 69.51615646258503 M 801.747301079568 77.26157770800629 l 7.1171531387445 0 L 808.8644542183125 82.66248037676611 l -7.1171531387445 0 L 801.747301079568 77.26157770800629 M 819.5401839264293 81.13507326007326 l 7.1171531387445 0 L 826.6573370651738 85.73822605965464 l -7.1171531387445 0 L 819.5401839264293 81.13507326007326 M 828.43662534986 85.7125850340136 l 7.1171531387445 0 L 835.5537784886045 104.57188644688642 l -7.1171531387445 0 L 828.43662534986 85.7125850340136 M 837.3330667732906 104.57188644688642 l 7.1171531387445 0 L 844.4502199120351 133.67039508110935 l -7.1171531387445 0 L 837.3330667732906 104.57188644688642 M 872.9188324670131 124.27426739926742 l 7.1171531387445 0 L 880.0359856057576 125.0445447409733 l -7.1171531387445 0 L 872.9188324670131 124.27426739926742 M 881.8152738904437 125.0445447409733 l 7.1171531387445 0 L 888.9324270291881 142.55651491365776 l -7.1171531387445 0 L 881.8152738904437 125.0445447409733"></path><path class="candle body equal"></path><path class="candle wick up" d="M 4.626149540183927 133.6473050758765 L 4.626149540183927 135.90711669283098 M 4.626149540183927 147.08993982208267 L 4.626149540183927 150.94191522762952 M 13.522590963614554 125.18229984301415 L 13.522590963614554 133.05442176870747 M 13.522590963614554 135.90718210361064 L 13.522590963614554 137.3884092098378 M 22.41903238704518 121.58555729984302 L 22.41903238704518 128.1322605965463 M 22.41903238704518 133.05448717948718 L 22.41903238704518 139.13631606488752 M 40.21191523390643 115.69858712715856 L 40.21191523390643 116.6347462061748 M 40.21191523390643 128.66601255886968 L 40.21191523390643 131.72422815279958 M 49.10835665733706 109.94243851386707 L 49.10835665733706 110.70185766614337 M 49.10835665733706 116.6347462061748 L 49.10835665733706 121.78617216117215 M 75.79768092762893 145.13363422291994 L 75.79768092762893 151.70630559916276 M 75.79768092762893 153.97494767137624 L 75.79768092762893 157.4759288330717 M 93.5905637744902 154.36989795918367 L 93.5905637744902 159.69590528519097 M 93.5905637744902 161.8642072213501 L 93.5905637744902 162.6490057561486 M 102.48700519792082 151.28205128205127 L 102.48700519792082 154.12585034013608 M 102.48700519792082 159.6959706959707 L 102.48700519792082 162.51923076923077 M 120.27988804478207 146.11459968602827 L 120.27988804478207 147.02040816326533 M 120.27988804478207 161.2197802197802 L 120.27988804478207 163.4848246991104 M 129.1763294682127 137.93825222396651 L 129.1763294682127 140.41463893249605 M 129.1763294682127 147.07430664573522 L 129.1763294682127 149.82783882783883 M 155.8656537385046 135.69335426478284 L 155.8656537385046 139.29395604395606 M 155.8656537385046 145.78767660910515 L 155.8656537385046 147.51726844583987 M 191.4514194322271 167.36950549450546 L 191.4514194322271 170.35838566195707 M 191.4514194322271 188.7356750392465 L 191.4514194322271 189.83915489272633 M 200.34786085565773 160.9759288330717 L 200.34786085565773 161.71336996336996 M 200.34786085565773 170.34033228676083 L 200.34786085565773 173.46225798011514 M 227.0371851259496 167.70015698587127 L 227.0371851259496 172.8617216117216 M 227.0371851259496 176.06861590790163 L 227.0371851259496 188.63160648874936 M 253.72650939624148 176.59602302459444 L 253.72650939624148 183.5669806384092 M 253.72650939624148 186.83274463631605 L 253.72650939624148 188.60622710622712 M 262.6229508196721 166.44839089481945 L 262.6229508196721 168.52367870225015 M 262.6229508196721 183.56691522762952 L 262.6229508196721 184.3133830455259 M 271.51939224310274 137.97095761381476 L 271.51939224310274 140.28250915750914 M 271.51939224310274 168.550431711146 L 271.51939224310274 172.06285975928833 M 289.31227508996403 133.17582417582418 L 289.31227508996403 139.90051020408163 M 289.31227508996403 143.5970041862899 L 289.31227508996403 147.17425431711146 M 298.2087165133947 131.16091051805336 L 298.2087165133947 133.19636316064884 M 298.2087165133947 139.90051020408163 L 298.2087165133947 148.4628466771324 M 307.10515793682526 115.78819989534274 L 307.10515793682526 118.49823390894821 M 307.10515793682526 133.19642857142856 L 307.10515793682526 134.52119309262164 M 316.0015993602559 90.51543694400837 L 316.0015993602559 93.36080586080587 M 316.0015993602559 118.49823390894821 L 316.0015993602559 125.62526164311876 M 333.7944822071172 88.22605965463109 L 333.7944822071172 102.28002354788069 M 333.7944822071172 103.36721611721612 L 333.7944822071172 104.46356619570905 M 342.6909236305478 92.22265829408687 L 342.6909236305478 95.75013082155938 M 342.6909236305478 102.25228937728939 L 342.6909236305478 104.1753663003663 M 360.483806477409 76.850863422292 L 360.483806477409 79.2559523809524 M 360.483806477409 97.65168759811615 L 360.483806477409 99.24738356881215 M 378.2766893242703 77.25667189952905 L 378.2766893242703 79.9385138670853 M 378.2766893242703 88.90037938252222 L 378.2766893242703 100.86872056514912 M 396.06957217113154 43.53087388801674 L 396.06957217113154 51.77642595499739 M 396.06957217113154 80.0631868131868 L 396.06957217113154 83.32025117739403 M 413.86245501799283 51.47573260073261 L 413.86245501799283 52.71892987964415 M 413.86245501799283 56.988683935112505 L 413.86245501799283 69.49895342752487 M 422.7588964414235 45.08254840397697 L 422.7588964414235 49.56933542647829 M 422.7588964414235 52.71899529042386 L 422.7588964414235 63.73332025117742 M 431.65533786485406 33.37257980115123 L 431.65533786485406 34.71618262689694 M 431.65533786485406 49.597069597069606 L 431.65533786485406 54.0671114599686 M 440.5517792882847 16.928309785452626 L 440.5517792882847 23.460164835164818 M 440.5517792882847 34.71618262689694 L 440.5517792882847 39.943746729461026 M 467.2411035585766 51.28440607012038 L 467.2411035585766 54.29912349555207 M 467.2411035585766 58.21408948194659 L 467.2411035585766 65.57986656200941 M 485.0339864054379 38.44433542647829 L 485.0339864054379 42.57731554160128 M 485.0339864054379 57.14141810570382 L 485.0339864054379 58.46415489272633 M 511.7233106757297 46.36970172684457 L 511.7233106757297 58.948914181057035 M 511.7233106757297 73.09366823652536 L 511.7233106757297 76.97540554683411 M 520.6197520991603 43.22344322344321 L 520.6197520991603 47.9741627420199 M 520.6197520991603 58.94884877027732 L 520.6197520991603 61.57240973312403 M 556.2055177928828 34.78545264259549 L 556.2055177928828 41.65364992150708 M 556.2055177928828 56.75614861329146 L 556.2055177928828 58.62977498691782 M 591.7912834866053 52.508568812140254 L 591.7912834866053 53.09648090005231 M 591.7912834866053 56.56606488749344 L 591.7912834866053 62.388801674515975 M 600.687724910036 41.219583987441155 L 600.687724910036 41.303048142333864 M 600.687724910036 53.09641548927263 L 600.687724910036 54.06344845630559 M 609.5841663334666 11.76739926739927 L 609.5841663334666 13.4888147566719 M 609.5841663334666 41.30311355311355 L 609.5841663334666 41.30311355311355 M 654.0663734506197 30.01046572475144 L 654.0663734506197 34.065934065934044 M 654.0663734506197 35.752093144950265 L 654.0663734506197 40.73639455782313 M 662.9628148740503 26.409536891679778 L 662.9628148740503 26.614992150706428 M 662.9628148740503 34.06586865515436 L 662.9628148740503 39.323194662480404 M 689.6521391443422 57.21984563055989 L 689.6521391443422 60.46003401360542 M 689.6521391443422 62.33078231292515 L 689.6521391443422 73.35818942961801 M 707.4450219912034 73.70486656200943 L 707.4450219912034 75.45630559916276 M 707.4450219912034 83.04801151229722 L 707.4450219912034 91.49659863945578 M 716.3414634146341 63.729722658294094 L 716.3414634146341 64.62905546834116 M 716.3414634146341 75.42451596023025 L 716.3414634146341 80.0300889586604 M 743.0307876849259 75.73266614338043 L 743.0307876849259 78.7986002093145 M 743.0307876849259 87.2852564102564 L 743.0307876849259 93.34772370486657 M 760.8236705317872 66.64769754055467 L 760.8236705317872 69.51622187336471 M 760.8236705317872 81.43452380952381 L 760.8236705317872 82.33908948194662 M 778.6165533786485 93.58974358974359 L 778.6165533786485 97.24600994243853 M 778.6165533786485 103.76949241234955 L 778.6165533786485 104.51334379905809 M 787.512994802079 79.42798273155414 L 787.512994802079 80.54107796964942 M 787.512994802079 97.2758372579801 L 787.512994802079 106.8246991104134 M 796.4094362255097 70.13363422291994 L 796.4094362255097 77.26157770800629 M 796.4094362255097 80.5410125588697 L 796.4094362255097 84.51942700156987 M 814.202319072371 68.90665881737308 L 814.202319072371 81.13507326007326 M 814.202319072371 82.66248037676611 L 814.202319072371 85.88428833071688 M 849.7880847660936 130.09517268445836 L 849.7880847660936 132.07528780743064 M 849.7880847660936 133.67046049188906 L 849.7880847660936 142.99313186813188 M 858.6845261895241 122.29781527995813 L 858.6845261895241 125.23600209314496 M 858.6845261895241 132.07535321821035 L 858.6845261895241 147.09576138147565 M 867.5809676129546 115.46094976452117 L 867.5809676129546 124.27426739926742 M 867.5809676129546 125.23606750392462 L 867.5809676129546 127.86669283097855" style="stroke-width: 1px;"></path><path class="candle wick down" d="M 31.315473810475808 124.62264521193092 L 31.315473810475808 128.1397174254317 M 31.315473810475808 128.67844060701202 L 31.315473810475808 132.24751439037152 M 58.004798080767685 109.02668759811617 L 58.004798080767685 110.68681318681321 M 58.004798080767685 148.6412218733647 L 58.004798080767685 174.94080324437465 M 66.90123950419832 145.51942700156985 L 66.90123950419832 148.60956305599163 M 66.90123950419832 153.97494767137624 L 66.90123950419832 164.67804814233386 M 84.69412235105956 147.53401360544217 L 84.69412235105956 151.70630559916276 M 84.69412235105956 161.8072344322344 L 84.69412235105956 166.50778388278388 M 111.38344662135144 148.53479853479854 L 111.38344662135144 154.12591575091574 M 111.38344662135144 161.2197148090005 L 111.38344662135144 171.4939822082679 M 138.07277089164333 137.5654107796965 L 138.07277089164333 140.41470434327576 M 138.07277089164333 142.92373103087388 L 138.07277089164333 147.611852433281 M 146.96921231507397 140.2276295133438 L 146.96921231507397 142.9237964416536 M 146.96921231507397 145.78767660910515 L 146.96921231507397 149.7150706436421 M 164.7620951619352 138.7700811093668 L 164.7620951619352 139.29389063317635 M 164.7620951619352 146.16856357927787 L 164.7620951619352 148.86721611721612 M 173.65853658536582 145.47847985347985 L 173.65853658536582 146.16856357927787 M 173.65853658536582 173.81200941915225 L 173.65853658536582 177.1847200418629 M 182.55497800879647 169.73443223443223 L 182.55497800879647 173.80533751962324 M 182.55497800879647 188.7337781266353 L 182.55497800879647 196.15384615384616 M 209.24430227908834 159.52380952380952 L 209.24430227908834 161.71336996336996 M 209.24430227908834 175.1532574568289 L 209.24430227908834 189.12218733647305 M 218.14074370251896 174.1310832025118 L 218.14074370251896 175.15319204604918 M 218.14074370251896 176.06855049712192 L 218.14074370251896 182.76896912611198 M 235.93362654938022 165.0837257980115 L 235.93362654938022 172.8617216117216 M 235.93362654938022 179.49143118785977 L 235.93362654938022 179.81423338566196 M 244.83006797281087 175.30494505494508 L 244.83006797281087 179.49143118785977 M 244.83006797281087 186.8227367870225 L 244.83006797281087 187.72893772893772 M 280.4158336665334 139.00712977498694 L 280.4158336665334 140.28257456828885 M 280.4158336665334 143.59693877551018 L 280.4158336665334 144.93602825745683 M 324.89804078368655 93.24757980115123 L 324.89804078368655 93.36080586080587 M 324.89804078368655 103.36721611721612 L 324.89804078368655 106.16823652537938 M 351.5873650539784 85.20859497645215 L 351.5873650539784 95.75013082155938 M 351.5873650539784 97.65175300889585 L 351.5873650539784 101.43903715332286 M 369.38024790083966 77.89115646258504 L 369.38024790083966 79.2559523809524 M 369.38024790083966 88.90024856096284 L 369.38024790083966 102.75379382522239 M 387.1731307477009 72.31462585034012 L 387.1731307477009 79.91346153846153 M 387.1731307477009 80.0631868131868 L 387.1731307477009 83.5292386185243 M 404.9660135945622 47.158424908424934 L 404.9660135945622 51.77642595499739 M 404.9660135945622 56.988683935112505 L 404.9660135945622 61.734693877551024 M 449.44822071171535 19.284798534798483 L 449.44822071171535 23.460230245944558 M 449.44822071171535 48.37029042386186 L 449.44822071171535 49.63369963369962 M 458.34466213514594 38.30200156985873 L 458.34466213514594 48.37029042386186 M 458.34466213514594 58.21415489272633 L 458.34466213514594 62.715855572998436 M 476.13754498200717 52.904238618524346 L 476.13754498200717 54.29912349555207 M 476.13754498200717 57.14141810570382 L 476.13754498200717 65.91686289900579 M 493.93042782886846 41.17294610151751 L 493.93042782886846 42.57731554160128 M 493.93042782886846 60.56508372579802 L 493.93042782886846 63.90927524856093 M 502.82686925229905 52.93040293040292 L 502.82686925229905 60.56508372579802 M 502.82686925229905 73.09366823652536 L 502.82686925229905 75.79801151229724 M 529.5161935225909 47.28381737310309 L 529.5161935225909 47.97422815279958 M 529.5161935225909 50.554748822605944 L 529.5161935225909 58.313710099424384 M 538.4126349460215 46.98260073260073 L 538.4126349460215 50.554748822605944 M 538.4126349460215 54.21376242804811 L 538.4126349460215 63.07326007326006 M 547.3090763694522 46.77040816326533 L 547.3090763694522 54.21369701726846 M 547.3090763694522 56.75621402407117 L 547.3090763694522 66.60779696493981 M 565.1019592163135 39.82208267922553 L 565.1019592163135 41.64985609628468 M 565.1019592163135 43.769754055468326 L 565.1019592163135 60.2121925693354 M 573.998400639744 42.52806122448982 L 573.998400639744 43.76968864468867 M 573.998400639744 53.5909863945578 L 573.998400639744 58.28748037676607 M 582.8948420631747 45.73704866562011 L 582.8948420631747 53.5909863945578 M 582.8948420631747 56.586080586080556 L 582.8948420631747 57.99973835688121 M 618.4806077568971 6.9580716902145525 L 618.4806077568971 13.488880167451555 M 618.4806077568971 17.270669806384063 L 618.4806077568971 22.014652014652057 M 627.3770491803277 3.846153846153868 L 627.3770491803277 17.27060439560441 M 627.3770491803277 30.779500261643108 L 627.3770491803277 44.25104657247513 M 636.2734906037584 26.085361067503868 L 636.2734906037584 30.779565672422848 M 636.2734906037584 31.48704866562008 L 636.2734906037584 35.89743589743591 M 645.169932027189 27.06240188383046 L 645.169932027189 31.48711407639979 M 645.169932027189 35.752027734170554 L 645.169932027189 47.8152799581371 M 671.8592562974809 20.841051805337486 L 671.8592562974809 26.614926739926744 M 671.8592562974809 39.123888016745184 L 671.8592562974809 40.47619047619045 M 680.7556977209116 39.05474882260597 L 680.7556977209116 39.12395342752484 M 680.7556977209116 62.33078231292515 L 680.7556977209116 72.0429748822606 M 698.5485805677728 56.3317634746206 L 698.5485805677728 60.460099424385135 M 698.5485805677728 83.04801151229722 L 698.5485805677728 85.77799581371008 M 725.2379048380647 62.521193092621644 L 725.2379048380647 64.62899005756151 M 725.2379048380647 71.72933019361594 L 725.2379048380647 72.61479591836735 M 734.1343462614954 66.35269492412351 L 734.1343462614954 71.75758765044483 M 734.1343462614954 87.26334379905809 L 734.1343462614954 91.43118785975928 M 751.9272291083566 77.53139717425432 L 751.9272291083566 78.79866562009418 M 751.9272291083566 81.43452380952381 L 751.9272291083566 89.94636316064887 M 769.7201119552178 68.27577184720042 L 769.7201119552178 69.51615646258503 M 769.7201119552178 103.75111198325484 L 769.7201119552178 105.23286237571952 M 805.3058776489403 68.09922815279958 L 805.3058776489403 77.26157770800629 M 805.3058776489403 82.66248037676611 L 805.3058776489403 89.69420460491888 M 823.0987604958016 79.88311093668237 L 823.0987604958016 81.13507326007326 M 823.0987604958016 85.73822605965464 L 823.0987604958016 90.33379120879124 M 831.9952019192323 78.41444270015698 L 831.9952019192323 85.7125850340136 M 831.9952019192323 104.57188644688642 L 831.9952019192323 117.13762428048142 M 840.8916433426629 102.88396127681843 L 840.8916433426629 104.57188644688642 M 840.8916433426629 133.67039508110935 L 840.8916433426629 180.45329670329667 M 876.4774090363853 120.27734170591313 L 876.4774090363853 124.27426739926742 M 876.4774090363853 125.0445447409733 L 876.4774090363853 137.2841444270016 M 885.3738504598159 122.90842490842489 L 885.3738504598159 125.0445447409733 M 885.3738504598159 142.55651491365776 L 885.3738504598159 144.4793301936159" style="stroke-width: 1px;"></path><path class="candle wick equal" style="stroke-width: 1px;"></path></g></g><g class="x axis" transform="translate(0,200)" fill="none" font-size="10" font-family="sans-serif" text-anchor="middle"><path class="domain" stroke="#000" d="M0.5,6V0.5H890.5V6"></path><g class="tick" opacity="1" transform="translate(49.10835665733706,0)"><line stroke="#000" y2="6" x1="0.5" x2="0.5"></line><text fill="#000" y="9" x="0.5" dy="0.71em">Sep  6</text></g><g class="tick" opacity="1" transform="translate(111.38344662135144,0)"><line stroke="#000" y2="6" x1="0.5" x2="0.5"></line><text fill="#000" y="9" x="0.5" dy="0.71em">Sep 13</text></g><g class="tick" opacity="1" transform="translate(173.65853658536582,0)"><line stroke="#000" y2="6" x1="0.5" x2="0.5"></line><text fill="#000" y="9" x="0.5" dy="0.71em">Sep 20</text></g><g class="tick" opacity="1" transform="translate(235.93362654938022,0)"><line stroke="#000" y2="6" x1="0.5" x2="0.5"></line><text fill="#000" y="9" x="0.5" dy="0.71em">Sep 27</text></g><g class="tick" opacity="1" transform="translate(298.2087165133947,0)"><line stroke="#000" y2="6" x1="0.5" x2="0.5"></line><text fill="#000" y="9" x="0.5" dy="0.71em">Oct  4</text></g><g class="tick" opacity="1" transform="translate(360.483806477409,0)"><line stroke="#000" y2="6" x1="0.5" x2="0.5"></line><text fill="#000" y="9" x="0.5" dy="0.71em">Oct 11</text></g><g class="tick" opacity="1" transform="translate(422.7588964414235,0)"><line stroke="#000" y2="6" x1="0.5" x2="0.5"></line><text fill="#000" y="9" x="0.5" dy="0.71em">Oct 18</text></g><g class="tick" opacity="1" transform="translate(485.0339864054379,0)"><line stroke="#000" y2="6" x1="0.5" x2="0.5"></line><text fill="#000" y="9" x="0.5" dy="0.71em">Oct 25</text></g><g class="tick" opacity="1" transform="translate(547.3090763694522,0)"><line stroke="#000" y2="6" x1="0.5" x2="0.5"></line><text fill="#000" y="9" x="0.5" dy="0.71em">Nov  1</text></g><g class="tick" opacity="1" transform="translate(609.5841663334666,0)"><line stroke="#000" y2="6" x1="0.5" x2="0.5"></line><text fill="#000" y="9" x="0.5" dy="0.71em">Nov  8</text></g><g class="tick" opacity="1" transform="translate(671.8592562974809,0)"><line stroke="#000" y2="6" x1="0.5" x2="0.5"></line><text fill="#000" y="9" x="0.5" dy="0.71em">Nov 15</text></g><g class="tick" opacity="1" transform="translate(734.1343462614954,0)"><line stroke="#000" y2="6" x1="0.5" x2="0.5"></line><text fill="#000" y="9" x="0.5" dy="0.71em">Nov 22</text></g><g class="tick" opacity="1" transform="translate(796.4094362255097,0)"><line stroke="#000" y2="6" x1="0.5" x2="0.5"></line><text fill="#000" y="9" x="0.5" dy="0.71em">Nov 29</text></g><g class="tick" opacity="1" transform="translate(858.6845261895241,0)"><line stroke="#000" y2="6" x1="0.5" x2="0.5"></line><text fill="#000" y="9" x="0.5" dy="0.71em">Dec  6</text></g></g><g class="y axis" fill="none" font-size="10" font-family="sans-serif" text-anchor="end"><path class="domain" stroke="#000" d="M-6,200.5H0.5V0.5H-6"></path><g class="tick" opacity="1" transform="translate(0,193.5374149659864)"><line stroke="#000" x2="-6" y1="0.5" y2="0.5"></line><text fill="#000" x="-9" y="0.5" dy="0.32em">40,000</text></g><g class="tick" opacity="1" transform="translate(0,180.4552590266876)"><line stroke="#000" x2="-6" y1="0.5" y2="0.5"></line><text fill="#000" x="-9" y="0.5" dy="0.32em">42,000</text></g><g class="tick" opacity="1" transform="translate(0,167.3731030873888)"><line stroke="#000" x2="-6" y1="0.5" y2="0.5"></line><text fill="#000" x="-9" y="0.5" dy="0.32em">44,000</text></g><g class="tick" opacity="1" transform="translate(0,154.29094714809)"><line stroke="#000" x2="-6" y1="0.5" y2="0.5"></line><text fill="#000" x="-9" y="0.5" dy="0.32em">46,000</text></g><g class="tick" opacity="1" transform="translate(0,141.2087912087912)"><line stroke="#000" x2="-6" y1="0.5" y2="0.5"></line><text fill="#000" x="-9" y="0.5" dy="0.32em">48,000</text></g><g class="tick" opacity="1" transform="translate(0,128.1266352694924)"><line stroke="#000" x2="-6" y1="0.5" y2="0.5"></line><text fill="#000" x="-9" y="0.5" dy="0.32em">50,000</text></g><g class="tick" opacity="1" transform="translate(0,115.04447933019361)"><line stroke="#000" x2="-6" y1="0.5" y2="0.5"></line><text fill="#000" x="-9" y="0.5" dy="0.32em">52,000</text></g><g class="tick" opacity="1" transform="translate(0,101.96232339089481)"><line stroke="#000" x2="-6" y1="0.5" y2="0.5"></line><text fill="#000" x="-9" y="0.5" dy="0.32em">54,000</text></g><g class="tick" opacity="1" transform="translate(0,88.88016745159601)"><line stroke="#000" x2="-6" y1="0.5" y2="0.5"></line><text fill="#000" x="-9" y="0.5" dy="0.32em">56,000</text></g><g class="tick" opacity="1" transform="translate(0,75.79801151229724)"><line stroke="#000" x2="-6" y1="0.5" y2="0.5"></line><text fill="#000" x="-9" y="0.5" dy="0.32em">58,000</text></g><g class="tick" opacity="1" transform="translate(0,62.715855572998436)"><line stroke="#000" x2="-6" y1="0.5" y2="0.5"></line><text fill="#000" x="-9" y="0.5" dy="0.32em">60,000</text></g><g class="tick" opacity="1" transform="translate(0,49.63369963369962)"><line stroke="#000" x2="-6" y1="0.5" y2="0.5"></line><text fill="#000" x="-9" y="0.5" dy="0.32em">62,000</text></g><g class="tick" opacity="1" transform="translate(0,36.551543694400834)"><line stroke="#000" x2="-6" y1="0.5" y2="0.5"></line><text fill="#000" x="-9" y="0.5" dy="0.32em">64,000</text></g><g class="tick" opacity="1" transform="translate(0,23.469387755102048)"><line stroke="#000" x2="-6" y1="0.5" y2="0.5"></line><text fill="#000" x="-9" y="0.5" dy="0.32em">66,000</text></g><g class="tick" opacity="1" transform="translate(0,10.387231815803261)"><line stroke="#000" x2="-6" y1="0.5" y2="0.5"></line><text fill="#000" x="-9" y="0.5" dy="0.32em">68,000</text></g><text transform="rotate(-90)" y="6" dy=".71em" style="text-anchor: end;">Price ($)</text></g></g></svg>